<?xml version="1.0" encoding="UTF-8" standalone="no"?>
<!-- Created with Inkscape (http://www.inkscape.org/) -->

<svg
   xmlns:dc="http://purl.org/dc/elements/1.1/"
   xmlns:cc="http://creativecommons.org/ns#"
   xmlns:rdf="http://www.w3.org/1999/02/22-rdf-syntax-ns#"
   xmlns:svg="http://www.w3.org/2000/svg"
   xmlns="http://www.w3.org/2000/svg"
   xmlns:sodipodi="http://sodipodi.sourceforge.net/DTD/sodipodi-0.dtd"
   xmlns:inkscape="http://www.inkscape.org/namespaces/inkscape"
   width="16"
   height="16"
   viewBox="0 0 4.2333332 4.2333335"
   version="1.1"
   id="svg8"
   inkscape:version="0.92.5 (2060ec1f9f, 2020-04-08)"
   sodipodi:docname="folder.svg">
  <defs
     id="defs2" />
  <sodipodi:namedview
     id="base"
     pagecolor="#ffffff"
     bordercolor="#666666"
     borderopacity="1.0"
     inkscape:pageopacity="0.0"
     inkscape:pageshadow="2"
     inkscape:zoom="2"
     inkscape:cx="8.7513367"
     inkscape:cy="9.0879796"
     inkscape:document-units="mm"
     inkscape:current-layer="layer1"
     showgrid="true"
     units="px"
     inkscape:window-width="1920"
     inkscape:window-height="1023"
     inkscape:window-x="0"
     inkscape:window-y="29"
     inkscape:window-maximized="1">
    <inkscape:grid
       type="xygrid"
       id="grid815" />
  </sodipodi:namedview>
  <metadata
     id="metadata5">
    <rdf:RDF>
      <cc:Work
         rdf:about="">
        <dc:format>image/svg+xml</dc:format>
        <dc:type
           rdf:resource="http://purl.org/dc/dcmitype/StillImage" />
        <dc:title></dc:title>
      </cc:Work>
    </rdf:RDF>
  </metadata>
  <g
     inkscape:label="Capa 1"
     inkscape:groupmode="layer"
     id="layer1"
     transform="translate(0,-292.76665)">
    <path
       style="opacity:1;fill:#0061fc;fill-opacity:1;stroke:none;stroke-width:0;stroke-linecap:round;stroke-linejoin:round;stroke-miterlimit:4;stroke-dasharray:none;stroke-opacity:1"
       d="M 1 5 L 1 12 C 1 13.108006 1.8919881 14 3 14 L 13 14 C 14.108012 14 15 13.108006 15 12 L 15 5 L 1 5 z M 2 6 L 14 6 L 14 12 C 14 12.554003 13.553987 13 13 13 L 3 13 C 2.4460136 13 2 12.554003 2 12 L 2 6 z "
       transform="matrix(0.26458333,0,0,0.26458333,0,292.76665)"
       id="rect828" />
    <path
       id="path835"
       d="m 3.9687466,294.35415 v -0.26608 c 0,-0.29316 -0.2635029,-0.52708 -0.5280845,-0.52712 L 1.8520833,293.56082 1.5875,293.29624 H 0.79374663 c -0.29316,0 -0.52916,0.236 -0.52916,0.52916 v 0.52917 m 0.26458,-4.1e-4 v -0.52918 c 0,-0.14658 0.11862033,-0.27794 0.26458,-0.26458 H 1.5875 l 0.2645833,0.26458 1.5885788,1.3e-4 c 0.146568,1e-5 0.2635045,0.11596 0.2635045,0.26254 v 0.26651"
       style="opacity:1;fill:#0061fc;fill-opacity:1;stroke:none;stroke-width:0;stroke-linecap:round;stroke-linejoin:round;stroke-miterlimit:4;stroke-dasharray:none;stroke-opacity:1"
       inkscape:connector-curvature="0"
       sodipodi:nodetypes="cssccssccssccssc" />
  </g>
</svg>
