<?xml version="1.0" encoding="UTF-8" standalone="no"?>
<!-- Created with Inkscape (http://www.inkscape.org/) -->

<svg
   xmlns:dc="http://purl.org/dc/elements/1.1/"
   xmlns:cc="http://creativecommons.org/ns#"
   xmlns:rdf="http://www.w3.org/1999/02/22-rdf-syntax-ns#"
   xmlns:svg="http://www.w3.org/2000/svg"
   xmlns="http://www.w3.org/2000/svg"
   xmlns:xlink="http://www.w3.org/1999/xlink"
   xmlns:sodipodi="http://sodipodi.sourceforge.net/DTD/sodipodi-0.dtd"
   xmlns:inkscape="http://www.inkscape.org/namespaces/inkscape"
   width="16"
   height="16"
   viewBox="0 0 4.2333332 4.2333335"
   version="1.1"
   id="svg1312"
   inkscape:version="0.92.5 (2060ec1f9f, 2020-04-08)"
   sodipodi:docname="folder-public.svg">
  <defs
     id="defs1306">
    <linearGradient
       gradientTransform="matrix(1.7590513,0,0,1.7590513,-278.68923,-749.15206)"
       gradientUnits="userSpaceOnUse"
       y2="525.05"
       x2="403.76"
       y1="542.4"
       x1="404.33"
       id="3">
      <stop
         stop-color="#289bf7"
         id="stop4529" />
      <stop
         offset="1"
         stop-color="#4caaf4"
         id="stop4531" />
    </linearGradient>
    <linearGradient
       gradientTransform="matrix(1.7590513,0,0,1.7590513,-278.68923,-749.15206)"
       xlink:href="#1"
       id="4"
       x1="400.85"
       y1="538.78"
       x2="400.56"
       y2="527.62"
       gradientUnits="userSpaceOnUse" />
    <linearGradient
       gradientTransform="matrix(0.00963442,0,0,0.00963442,538.71258,153.50507)"
       gradientUnits="userSpaceOnUse"
       y2="354.29"
       x2="-704.05"
       y1="647.77"
       x1="-701.19"
       id="2">
      <stop
         stop-color="#9fd2fa"
         id="stop4535" />
      <stop
         offset="1"
         stop-color="#cde8fe"
         id="stop4537" />
    </linearGradient>
    <linearGradient
       xlink:href="#1"
       id="0"
       x1="59.12"
       y1="-13.295"
       x2="59.15"
       y2="-37.783"
       gradientUnits="userSpaceOnUse"
       gradientTransform="matrix(0.40977578,0,0,0.40907594,385.56502,183.73148)" />
    <linearGradient
       id="1">
      <stop
         stop-color="#289bf7"
         id="stop4541" />
      <stop
         offset="1"
         stop-color="#71b9f1"
         id="stop4543" />
    </linearGradient>
  </defs>
  <sodipodi:namedview
     id="base"
     pagecolor="#ffffff"
     bordercolor="#666666"
     borderopacity="1.0"
     inkscape:pageopacity="0.0"
     inkscape:pageshadow="2"
     inkscape:zoom="32"
     inkscape:cx="7.9669084"
     inkscape:cy="5.4715023"
     inkscape:document-units="mm"
     inkscape:current-layer="layer1"
     showgrid="true"
     units="px"
     inkscape:window-width="1920"
     inkscape:window-height="1023"
     inkscape:window-x="0"
     inkscape:window-y="29"
     inkscape:window-maximized="1">
    <inkscape:grid
       type="xygrid"
       id="grid1857"
       spacingx="0.26458333"
       spacingy="0.26458333" />
  </sodipodi:namedview>
  <metadata
     id="metadata1309">
    <rdf:RDF>
      <cc:Work
         rdf:about="">
        <dc:format>image/svg+xml</dc:format>
        <dc:type
           rdf:resource="http://purl.org/dc/dcmitype/StillImage" />
        <dc:title></dc:title>
      </cc:Work>
    </rdf:RDF>
  </metadata>
  <g
     inkscape:label="Capa 1"
     inkscape:groupmode="layer"
     id="layer1"
     transform="translate(0,-292.76665)">
    <path
       inkscape:connector-curvature="0"
       style="opacity:1;fill:#135add;fill-opacity:1;stroke:none;stroke-width:0.02645833;stroke-linecap:round;stroke-linejoin:round;stroke-miterlimit:4;stroke-dasharray:none;stroke-opacity:0.16847827"
       d="m 2.1249367,293.0302 a 1.8520833,1.8520833 0 0 0 -1.85208333,1.85208 1.8520833,1.8520833 0 0 0 1.85208333,1.85209 1.8520833,1.8520833 0 0 0 1.8520834,-1.85209 1.8520833,1.8520833 0 0 0 -1.8520834,-1.85208 z m -0.00827,0.26562 a 1.5780566,1.5780566 0 0 1 1.5781983,1.5782 1.5780566,1.5780566 0 0 1 -1.5781983,1.57819 1.5780566,1.5780566 0 0 1 -1.57819828,-1.57819 1.5780566,1.5780566 0 0 1 1.57819828,-1.5782 z"
       id="path8810" />
    <path
       style="opacity:1;fill:#115adc;fill-opacity:1;stroke:none;stroke-width:0.11653215;stroke-linecap:round;stroke-linejoin:round;stroke-miterlimit:4;stroke-dasharray:none;stroke-opacity:1"
       d="m 1.7459573,293.58125 c -0.018632,0 -0.037079,0.002 -0.054919,0.005 h -3.762e-4 c -0.1074219,0.0223 -0.1971207,0.10708 -0.2198618,0.22156 -0.030187,0.15251 0.069052,0.301 0.2215603,0.33121 0.1528992,0.0302 0.3019643,-0.069 0.3321517,-0.22156 0.030578,-0.15251 -0.06943,-0.301 -0.2219377,-0.33121 -0.019011,-0.004 -0.037995,-0.005 -0.056617,-0.005 z m 0.3581954,0.55031 c -0.018187,-3.6e-4 -0.036671,9.2e-4 -0.055295,0.005 l -0.00378,7.3e-4 c -0.03803,0.008 -0.071968,0.0246 -0.1005891,0.0473 -0.00275,0.002 -0.00593,0.004 -0.0083,0.005 l -0.3085613,0.24119 -0.3091275,0.0962 c -0.067828,0.0212 -0.1051559,0.0941 -0.083981,0.16194 0.017251,0.0549 0.067405,0.0906 0.1222922,0.0906 0.012548,0 0.02576,-0.006 0.038688,-0.006 l 0.3308307,-0.10362 c 0.014889,-0.005 0.028806,-0.0119 0.040953,-0.0213 l 0.1162531,-0.0909 0.087379,0.41047 c 4.747e-4,0.002 0.00132,0.004 0.00132,0.005 l -0.2245798,0.19722 c -0.027049,0.0235 -0.044907,0.056 -0.050389,0.0917 l -0.073602,0.48803 c -0.012548,0.0835 0.044069,0.16127 0.1275765,0.1742 0.00784,9.1e-4 0.016116,0.002 0.023968,0.002 0.074489,0 0.139613,-0.0549 0.1509781,-0.1306 l 0.065298,-0.43217 0.2311851,-0.2025 c 0.00275,0 0.00593,4e-5 0.0083,0 l 0.1173854,0.30253 c 0.0094,0.0239 0.024946,0.0454 0.044539,0.0619 l 0.3768789,0.31649 c 0.028619,0.0244 0.063432,0.0357 0.098324,0.0357 0.04391,0 0.087387,-0.0182 0.1175741,-0.0544 0.054101,-0.0651 0.045618,-0.16159 -0.019061,-0.21608 l -0.3470608,-0.29064 -0.1643774,-0.42444 c 0.00266,-0.008 0.00104,-0.017 -5.66e-4,-0.0256 l -0.091342,-0.42878 0.1187065,0.0221 0.2664762,0.1289 c 0.018032,0.008 0.037241,0.013 0.056051,0.013 0.047829,0 0.093905,-0.0268 0.116253,-0.0727 0.030971,-0.0639 0.00389,-0.14095 -0.060014,-0.17192 l -0.2825178,-0.13663 c -0.010587,-0.005 -0.021288,-0.009 -0.032649,-0.011 l -0.3882022,-0.0709 c -0.017251,-0.004 -0.03504,-0.006 -0.053219,-0.007 z m 0.8258499,1.86515 c -0.017537,0.0114 -0.035559,0.022 -0.053597,0.0326 a 1.4131544,1.4131544 0 0 0 0.053597,-0.0326 z m -0.1158756,0.0683 c -0.022881,0.012 -0.046448,0.0229 -0.070016,0.0337 a 1.4131544,1.4131544 0 0 0 0.070016,-0.0337 z m -0.1307848,0.0609 c -0.01998,0.008 -0.040554,0.015 -0.060957,0.0222 a 1.4131544,1.4131544 0 0 0 0.060957,-0.0222 z m -0.1430517,0.0494 c -0.010004,0.003 -0.020293,0.005 -0.030384,0.008 a 1.4131544,1.4131544 0 0 0 0.030384,-0.008 z"
       id="path867"
       inkscape:connector-curvature="0" />
  </g>
</svg>
