<?xml version="1.0" encoding="UTF-8" standalone="no"?>
<!-- Created with Inkscape (http://www.inkscape.org/) -->

<svg
   xmlns:dc="http://purl.org/dc/elements/1.1/"
   xmlns:cc="http://creativecommons.org/ns#"
   xmlns:rdf="http://www.w3.org/1999/02/22-rdf-syntax-ns#"
   xmlns:svg="http://www.w3.org/2000/svg"
   xmlns="http://www.w3.org/2000/svg"
   xmlns:sodipodi="http://sodipodi.sourceforge.net/DTD/sodipodi-0.dtd"
   xmlns:inkscape="http://www.inkscape.org/namespaces/inkscape"
   id="svg7384"
   sodipodi:docname="folder_html.svg"
   version="1.1"
   inkscape:version="0.92.5 (2060ec1f9f, 2020-04-08)"
   height="16"
   width="16">
  <metadata
     id="metadata90">
    <rdf:RDF>
      <cc:Work
         rdf:about="">
        <dc:format>image/svg+xml</dc:format>
        <dc:type
           rdf:resource="http://purl.org/dc/dcmitype/StillImage" />
        <dc:title>Gnome Symbolic Icon Theme</dc:title>
      </cc:Work>
    </rdf:RDF>
  </metadata>
  <sodipodi:namedview
     inkscape:cy="6.547576"
     pagecolor="#ffffff"
     borderopacity="1"
     showborder="true"
     inkscape:bbox-paths="false"
     guidetolerance="10"
     inkscape:window-width="1920"
     showguides="true"
     inkscape:object-nodes="true"
     inkscape:snap-bbox="true"
     inkscape:pageshadow="2"
     inkscape:guide-bbox="true"
     inkscape:snap-nodes="true"
     bordercolor="#666666"
     objecttolerance="10"
     id="namedview88"
     showgrid="true"
     inkscape:window-maximized="1"
     inkscape:window-x="0"
     inkscape:snap-global="true"
     inkscape:window-y="29"
     gridtolerance="10"
     inkscape:window-height="1023"
     inkscape:snap-to-guides="true"
     inkscape:current-layer="layer13"
     inkscape:zoom="45.254834"
     inkscape:cx="13.371639"
     inkscape:snap-grids="true"
     inkscape:pageopacity="1">
    <inkscape:grid
       spacingx="1"
       spacingy="1"
       id="grid4866"
       empspacing="2"
       enabled="true"
       type="xygrid"
       snapvisiblegridlinesonly="true"
       visible="true"
       originx="0"
       originy="0" />
    <inkscape:grid
       type="xygrid"
       id="grid823" />
  </sodipodi:namedview>
  <title
     id="title9167">Gnome Symbolic Icon Theme</title>
  <defs
     id="defs7386">
    <clipPath
       id="clipPath1064"
       clipPathUnits="userSpaceOnUse">
      <rect
         ry="0.52916932"
         rx="0.52916932"
         y="289.59164"
         x="4.7624998"
         height="8.9131508"
         width="9.1611977"
         id="rect1066"
         style="opacity:1;fill:#0062fd;fill-opacity:1;stroke:none;stroke-width:0;stroke-linecap:round;stroke-linejoin:round;stroke-miterlimit:4;stroke-dasharray:none;stroke-opacity:1" />
    </clipPath>
  </defs>
  <g
     inkscape:label="status"
     transform="translate(-442,-176)"
     inkscape:groupmode="layer"
     id="layer9"
     style="display:inline" />
  <g
     inkscape:label="devices"
     transform="translate(-442,-176)"
     inkscape:groupmode="layer"
     id="layer10" />
  <g
     inkscape:label="apps"
     transform="translate(-442,-176)"
     inkscape:groupmode="layer"
     id="layer11" />
  <g
     inkscape:label="actions"
     transform="translate(-442,-176)"
     inkscape:groupmode="layer"
     id="layer12" />
  <g
     inkscape:label="places"
     transform="translate(-442,-176)"
     inkscape:groupmode="layer"
     id="layer13">
    <path
       style="opacity:1;fill:#000000;fill-opacity:0.47450981;stroke:none;stroke-width:0.1;stroke-linecap:round;stroke-linejoin:round;stroke-miterlimit:4;stroke-dasharray:none;stroke-opacity:0.16847827"
       d="M 8 1 A 7 7 0 0 0 1 8 A 7 7 0 0 0 8 15 A 7 7 0 0 0 15 8 A 7 7 0 0 0 8 1 z M 7.96875 2.0039062 A 5.9643083 5.9643083 0 0 1 13.933594 7.96875 A 5.9643083 5.9643083 0 0 1 7.96875 13.933594 A 5.9643083 5.9643083 0 0 1 2.0039062 7.96875 A 5.9643083 5.9643083 0 0 1 7.96875 2.0039062 z "
       transform="translate(442,176)"
       id="path8810" />
    <path
       style="color:#000000;font-style:normal;font-variant:normal;font-weight:normal;font-stretch:normal;font-size:medium;line-height:normal;font-family:sans-serif;font-variant-ligatures:normal;font-variant-position:normal;font-variant-caps:normal;font-variant-numeric:normal;font-variant-alternates:normal;font-feature-settings:normal;text-indent:0;text-align:start;text-decoration:none;text-decoration-line:none;text-decoration-style:solid;text-decoration-color:#000000;letter-spacing:normal;word-spacing:normal;text-transform:none;writing-mode:lr-tb;direction:ltr;text-orientation:mixed;dominant-baseline:auto;baseline-shift:baseline;text-anchor:start;white-space:normal;shape-padding:0;clip-rule:nonzero;display:inline;overflow:visible;visibility:visible;opacity:1;isolation:auto;mix-blend-mode:normal;color-interpolation:sRGB;color-interpolation-filters:linearRGB;solid-color:#000000;solid-opacity:1;vector-effect:none;fill:#000000;fill-opacity:0.47450981;fill-rule:nonzero;stroke:none;stroke-width:0.69999999;stroke-linecap:butt;stroke-linejoin:miter;stroke-miterlimit:4;stroke-dasharray:none;stroke-dashoffset:0;stroke-opacity:1;color-rendering:auto;image-rendering:auto;shape-rendering:auto;text-rendering:auto;enable-background:accumulate"
       d="M 9.0273438 2.1035156 C 8.8364173 2.9528948 8.7318793 3.7695263 8.7050781 4.5566406 A 1 1 0 0 1 8.9726562 4.5195312 A 1 1 0 0 1 9.4042969 4.6191406 C 9.4310529 3.8659675 9.5207659 3.0861827 9.7070312 2.2636719 A 5.9643083 5.9643083 0 0 0 9.0273438 2.1035156 z M 6.25 2.2617188 A 5.9643083 5.9643083 0 0 0 5.1425781 2.7207031 C 4.5005956 3.8228724 4.065816 4.9234542 3.8066406 6.0195312 A 1 1 0 0 1 4 6 A 1 1 0 0 1 4.4882812 6.1289062 C 4.7981593 4.8541222 5.3595937 3.568373 6.25 2.2617188 z M 11.603516 3.2480469 C 10.996251 3.8481472 10.352946 4.3628014 9.6835938 4.8183594 A 1 1 0 0 1 9.9707031 5.4726562 C 10.735207 4.9680609 11.455933 4.3780256 12.132812 3.7050781 A 5.9643083 5.9643083 0 0 0 11.603516 3.2480469 z M 12.523438 4.1269531 C 11.324506 5.0467763 10.377124 6.0597146 9.671875 7.15625 A 1 1 0 0 1 10.292969 7.4824219 C 10.955526 6.4795304 11.82694 5.5453576 12.947266 4.6875 A 5.9643083 5.9643083 0 0 0 12.523438 4.1269531 z M 8.0097656 5.7832031 C 7.0521479 6.2101105 6.0233209 6.4843547 4.9121094 6.5917969 A 1 1 0 0 1 5 7 A 1 1 0 0 1 4.9609375 7.2773438 C 6.1995754 7.1546686 7.3483315 6.8370883 8.4140625 6.3476562 A 1 1 0 0 1 8.0097656 5.7832031 z M 9.4785156 6.3808594 A 1 1 0 0 1 8.9726562 6.5195312 A 1 1 0 0 1 8.8144531 6.5078125 C 8.8538759 6.7882286 8.9011469 7.0655741 8.9609375 7.3378906 A 1 1 0 0 1 9.546875 7.1484375 A 1 1 0 0 1 9.6113281 7.1503906 C 9.5562687 6.8978312 9.513569 6.6412605 9.4785156 6.3808594 z M 2.1875 6.5332031 A 5.9643083 5.9643083 0 0 0 2.0566406 7.2207031 C 2.3950696 7.2657749 2.720426 7.2822511 3.0488281 7.3046875 A 1 1 0 0 1 3 7 A 1 1 0 0 1 3.0820312 6.6074219 C 2.7853552 6.5855557 2.4938 6.5740673 2.1875 6.5332031 z M 3.5488281 7.8925781 C 3.5116154 8.6160194 3.5285473 9.3371969 3.6289062 10.054688 C 3.094889 9.7279449 2.5818126 9.3413097 2.0820312 8.9140625 A 5.9643083 5.9643083 0 0 0 2.3789062 10.035156 C 2.6503436 10.233081 2.928182 10.416627 3.2089844 10.591797 A 1 1 0 0 1 4.1542969 9.9121094 A 1 1 0 0 1 4.3046875 9.9238281 C 4.2132092 9.2761461 4.1795683 8.6271068 4.2109375 7.9765625 A 1 1 0 0 1 4 8 A 1 1 0 0 1 3.5488281 7.8925781 z M 8.8046875 8.8164062 C 8.5585988 9.407522 8.3671383 10.017738 8.2246094 10.642578 A 1 1 0 0 1 8.2421875 10.640625 A 1 1 0 0 1 8.8945312 10.884766 C 9.0226679 10.286448 9.188151 9.7011969 9.4179688 9.1386719 A 1 1 0 0 1 8.8046875 8.8164062 z M 10.191406 8.9140625 A 1 1 0 0 1 9.546875 9.1484375 A 1 1 0 0 1 9.5449219 9.1484375 C 9.8026805 9.762889 10.120763 10.351774 10.482422 10.921875 A 1 1 0 0 1 11.035156 10.488281 C 10.71161 9.9796903 10.425588 9.4568754 10.191406 8.9140625 z M 13.412109 10.396484 C 12.979423 10.570209 12.55821 10.717173 12.142578 10.849609 A 1 1 0 0 1 12.335938 11.441406 A 1 1 0 0 1 12.333984 11.517578 C 12.517515 11.461075 12.699004 11.41132 12.884766 11.347656 A 5.9643083 5.9643083 0 0 0 13.412109 10.396484 z M 5.1484375 10.8125 A 1 1 0 0 1 5.1542969 10.912109 A 1 1 0 0 1 4.984375 11.46875 C 5.7319508 11.753215 6.5120003 11.951674 7.3300781 12.050781 A 1 1 0 0 1 7.2421875 11.640625 A 1 1 0 0 1 7.28125 11.365234 C 6.5382924 11.266112 5.827584 11.080775 5.1484375 10.8125 z M 10.347656 11.287109 C 9.9630356 11.352922 9.5870836 11.39833 9.21875 11.423828 A 1 1 0 0 1 9.2421875 11.640625 A 1 1 0 0 1 9.125 12.107422 C 9.5670062 12.084994 10.019007 12.033877 10.480469 11.957031 A 1 1 0 0 1 10.335938 11.441406 A 1 1 0 0 1 10.347656 11.287109 z M 4.7167969 11.740234 A 1 1 0 0 1 4.1542969 11.912109 A 1 1 0 0 1 4.0429688 11.90625 C 4.1182974 12.155074 4.1983576 12.402509 4.2851562 12.650391 A 5.9643083 5.9643083 0 0 0 5.2714844 13.28125 C 5.053205 12.767282 4.8728626 12.253418 4.7167969 11.740234 z M 12.154297 12.015625 A 1 1 0 0 1 11.574219 12.412109 C 11.62525 12.474254 11.672584 12.537999 11.724609 12.599609 A 5.9643083 5.9643083 0 0 0 12.244141 12.119141 C 12.214418 12.084643 12.184926 12.049828 12.154297 12.015625 z M 8.6542969 12.550781 A 1 1 0 0 1 8.2421875 12.640625 A 1 1 0 0 1 7.9394531 12.591797 C 7.9105024 13.032654 7.8969288 13.478407 7.9042969 13.929688 A 5.9643083 5.9643083 0 0 0 7.96875 13.933594 A 5.9643083 5.9643083 0 0 0 8.6074219 13.892578 C 8.6031217 13.43759 8.6216902 12.991555 8.6542969 12.550781 z "
       transform="translate(442,176)"
       id="path867" />
    <path
       style="opacity:1;fill:#000000;fill-opacity:0.47450981;stroke:none;stroke-width:0.69999999;stroke-linecap:round;stroke-linejoin:round;stroke-miterlimit:4;stroke-dasharray:none;stroke-opacity:1"
       d="M 8.9726562 4.5195312 A 1 1 0 0 0 7.9726562 5.5195312 A 1 1 0 0 0 8.9726562 6.5195312 A 1 1 0 0 0 9.9726562 5.5195312 A 1 1 0 0 0 8.9726562 4.5195312 z M 4 6 A 1 1 0 0 0 3 7 A 1 1 0 0 0 4 8 A 1 1 0 0 0 5 7 A 1 1 0 0 0 4 6 z M 9.546875 7.1484375 A 1 1 0 0 0 8.546875 8.1484375 A 1 1 0 0 0 9.546875 9.1484375 A 1 1 0 0 0 10.546875 8.1484375 A 1 1 0 0 0 9.546875 7.1484375 z M 4.1542969 9.9121094 A 1 1 0 0 0 3.1542969 10.912109 A 1 1 0 0 0 4.1542969 11.912109 A 1 1 0 0 0 5.1542969 10.912109 A 1 1 0 0 0 4.1542969 9.9121094 z M 11.335938 10.441406 A 1 1 0 0 0 10.335938 11.441406 A 1 1 0 0 0 11.335938 12.441406 A 1 1 0 0 0 12.335938 11.441406 A 1 1 0 0 0 11.335938 10.441406 z M 8.2421875 10.640625 A 1 1 0 0 0 7.2421875 11.640625 A 1 1 0 0 0 8.2421875 12.640625 A 1 1 0 0 0 9.2421875 11.640625 A 1 1 0 0 0 8.2421875 10.640625 z "
       transform="translate(442,176)"
       id="path884" />
  </g>
  <g
     inkscape:label="mimetypes"
     transform="translate(-442,-176)"
     inkscape:groupmode="layer"
     id="layer14" />
  <g
     inkscape:label="emblems"
     transform="translate(-442,-176)"
     inkscape:groupmode="layer"
     id="layer15"
     style="display:inline" />
</svg>
