<?xml version="1.0" encoding="UTF-8" standalone="no"?>
<!-- Created with Inkscape (http://www.inkscape.org/) -->

<svg
   xmlns:dc="http://purl.org/dc/elements/1.1/"
   xmlns:cc="http://creativecommons.org/ns#"
   xmlns:rdf="http://www.w3.org/1999/02/22-rdf-syntax-ns#"
   xmlns:svg="http://www.w3.org/2000/svg"
   xmlns="http://www.w3.org/2000/svg"
   xmlns:sodipodi="http://sodipodi.sourceforge.net/DTD/sodipodi-0.dtd"
   xmlns:inkscape="http://www.inkscape.org/namespaces/inkscape"
   width="22"
   height="22"
   id="svg3752"
   version="1.1"
   inkscape:version="0.92.4 (unknown)"
   sodipodi:docname="evolution-mail.svg"
   inkscape:export-filename="/home/silerio/Imágenes/iconos/email2.png"
   inkscape:export-xdpi="90"
   inkscape:export-ydpi="90">
  <defs
     id="defs3754">
    <clipPath
       clipPathUnits="userSpaceOnUse"
       id="clipPath4355">
      <path
         sodipodi:nodetypes="ccccccccccc"
         inkscape:connector-curvature="0"
         id="path4357"
         d="m 413.15743,-331.13406 -86.52622,-80.17627 -86.52623,80.17627 -86.52622,-80.17627 -86.526225,80.17627 V -10.2615 l 86.526225,-80.17627 86.52622,80.17627 86.52623,-80.17627 86.52622,80.17627 z"
         style="fill:#fcc199;fill-opacity:1;stroke:none" />
    </clipPath>
    <clipPath
       clipPathUnits="userSpaceOnUse"
       id="clipPath4087">
      <path
         sodipodi:nodetypes="cccsccccsccc"
         inkscape:connector-curvature="0"
         id="path4089"
         d="m 255.40592,22.97148 c -2.28704,0.0508 -4.54873,0.89886 -6.30518,2.36444 L 67.564098,177.67826 c -2.574541,2.1548 -3.967229,5.64239 -3.585104,8.97787 0.382126,3.33547 2.527474,6.41774 5.522634,7.93446 l 186.068482,94.21646 c 2.84639,1.4447 6.38151,1.4447 9.2279,0 l 186.06847,-94.21646 c 3.03867,-1.52923 5.2057,-4.66969 5.55708,-8.05326 0.35137,-3.38358 -1.12414,-6.90229 -3.78375,-9.02327 L 262.03949,25.20456 c -1.85909,-1.48849 -4.2528,-2.29429 -6.63357,-2.23308 z"
         style="color:#000000;font-style:normal;font-variant:normal;font-weight:normal;font-stretch:normal;font-size:medium;line-height:normal;font-family:Sans;-inkscape-font-specification:Sans;text-indent:0;text-align:start;text-decoration:none;text-decoration-line:none;letter-spacing:normal;word-spacing:normal;text-transform:none;writing-mode:lr-tb;direction:ltr;baseline-shift:baseline;text-anchor:start;display:inline;overflow:visible;visibility:visible;fill:#c87137;fill-opacity:1;fill-rule:nonzero;stroke:none;stroke-width:19.39999962;marker:none;enable-background:accumulate" />
    </clipPath>
    <clipPath
       clipPathUnits="userSpaceOnUse"
       id="clipPath4139">
      <path
         sodipodi:nodetypes="scssssssss"
         inkscape:connector-curvature="0"
         id="path4141"
         d="M 533.97954,176.85017 731.76001,305.5436 929.54048,176.85017 c 13.30694,-8.65867 28.65703,12.78103 28.65703,28.65703 v 207.2301 c 0,15.87599 -12.78103,28.65703 -28.65703,28.65703 H 533.97954 c -15.876,0 -28.65703,-12.78104 -28.65703,-28.65703 V 205.5072 c 0,-15.876 12.78103,-28.65703 28.65703,-28.65703 z"
         style="color:#000000;display:inline;overflow:visible;visibility:visible;fill:#deaa87;fill-opacity:1;fill-rule:evenodd;stroke:none;stroke-width:7;marker:none;enable-background:accumulate" />
    </clipPath>
  </defs>
  <sodipodi:namedview
     id="base"
     pagecolor="#ffffff"
     bordercolor="#666666"
     borderopacity="1.0"
     inkscape:pageopacity="0.0"
     inkscape:pageshadow="2"
     inkscape:zoom="22.627417"
     inkscape:cx="8.2019849"
     inkscape:cy="4.2212626"
     inkscape:current-layer="layer1"
     showgrid="true"
     inkscape:grid-bbox="true"
     inkscape:document-units="px"
     inkscape:window-width="1920"
     inkscape:window-height="1016"
     inkscape:window-x="0"
     inkscape:window-y="27"
     inkscape:window-maximized="1"
     units="px"
     width="512px"
     showguides="true"
     inkscape:guide-bbox="true" />
  <metadata
     id="metadata3757">
    <rdf:RDF>
      <cc:Work
         rdf:about="">
        <dc:format>image/svg+xml</dc:format>
        <dc:type
           rdf:resource="http://purl.org/dc/dcmitype/StillImage" />
        <dc:title />
      </cc:Work>
    </rdf:RDF>
  </metadata>
  <g
     id="layer1"
     inkscape:label="Layer 1"
     inkscape:groupmode="layer"
     transform="translate(0,-25.99996)">
    <path
       style="opacity:1;fill:#000000;fill-opacity:0.04201684;stroke:none;stroke-width:5.42853928;stroke-miterlimit:4;stroke-dasharray:none;stroke-opacity:0.01176471"
       d="m 3.5709219,31.488776 c -0.1571086,0 -0.3021062,0.04122 -0.4347073,0.104259 l 7.7151704,6.131846 7.750512,-6.158352 c -0.118831,-0.04841 -0.248593,-0.07776 -0.385227,-0.07776 z"
       id="path847"
       inkscape:connector-curvature="0" />
    <path
       style="opacity:1;fill:#000000;fill-opacity:0.51680675;stroke:none;stroke-width:5.42853928;stroke-miterlimit:4;stroke-dasharray:none;stroke-opacity:0.01176471"
       d="m 3.3447327,30.329556 c -1.0964518,0 -1.979155,0.882704 -1.979155,1.979156 v 8.877923 c 0,0.737211 0.4036601,1.369934 0.998413,1.710556 l 0.017671,0.02297 0.010603,-0.007 c 0.2833219,0.156106 0.6048669,0.252685 0.9524684,0.252685 H 18.442858 c 1.096452,0 1.979156,-0.882703 1.979156,-1.979156 v -8.877923 c 0,-1.096452 -0.882704,-1.979155 -1.979156,-1.979155 z m 0.2261892,1.15922 H 18.21667 c 0.136634,0 0.266396,0.02934 0.385227,0.07776 L 10.851385,37.724885 3.1362146,31.593039 C 3.2688157,31.529999 3.4138133,31.48878 3.5709219,31.48878 Z m 15.6141191,0.766922 c 0.02123,0.08211 0.04948,0.162008 0.04948,0.250929 v 8.482093 c 0,0.211014 -0.0782,0.396205 -0.187313,0.558405 L 13.272314,36.956191 Z M 2.5919471,32.31401 8.4304544,36.95619 2.7103429,41.502944 C 2.6189408,41.35018 2.5530707,41.180406 2.5530707,40.98872 v -8.482093 c 0,-0.06832 0.026162,-0.128135 0.038876,-0.192615 z m 6.5665535,5.220021 1.6928844,1.346533 1.692885,-1.346533 5.628222,4.472537 H 3.5709219 c -0.011326,0 -0.020573,-0.0067 -0.031807,-0.007 z"
       id="rect834"
       inkscape:connector-curvature="0" />
    <path
       id="path858"
       d="m 10.851385,37.724881 c -6.5877588,4.117349 -3.2938794,2.058675 0,0 z m -1.6928844,-0.190847 -5.6193865,4.46547 c 0.011234,3.62e-4 0.020482,0.007 0.031807,0.007 H 18.172492 l -5.628222,-4.472537 -1.692885,1.346532 z"
       style="opacity:1;fill:#000000;fill-opacity:0.20588235;stroke:none;stroke-width:5.42853928;stroke-miterlimit:4;stroke-dasharray:none;stroke-opacity:0.01176471"
       inkscape:connector-curvature="0"
       sodipodi:nodetypes="ccccscccc" />
    <path
       id="path863"
       d="m 19.185041,32.255698 -5.912725,4.700493 5.774892,4.590934 c 0.109113,-0.1622 0.187313,-0.347391 0.187313,-0.558405 v -8.482093 c 0,-0.08892 -0.02825,-0.168824 -0.04948,-0.250929 z m -16.5930939,0.05832 c -0.012716,0.06448 -0.038876,0.124297 -0.038876,0.192615 v 8.482093 c 0,0.191686 0.06587,0.36146 0.1572722,0.514227 l 5.7201115,-4.546756 z"
       style="opacity:1;fill:#000000;fill-opacity:0.10084037;stroke:none;stroke-width:5.42853928;stroke-miterlimit:4;stroke-dasharray:none;stroke-opacity:0.01176471"
       inkscape:connector-curvature="0"
       sodipodi:nodetypes="cccssccssccc" />
  </g>
</svg>
