<?xml version="1.0" encoding="UTF-8" standalone="no"?>
<!-- Created with Inkscape (http://www.inkscape.org/) -->

<svg
   xmlns:dc="http://purl.org/dc/elements/1.1/"
   xmlns:cc="http://creativecommons.org/ns#"
   xmlns:rdf="http://www.w3.org/1999/02/22-rdf-syntax-ns#"
   xmlns:svg="http://www.w3.org/2000/svg"
   xmlns="http://www.w3.org/2000/svg"
   xmlns:sodipodi="http://sodipodi.sourceforge.net/DTD/sodipodi-0.dtd"
   xmlns:inkscape="http://www.inkscape.org/namespaces/inkscape"
   width="22"
   height="22"
   id="svg3752"
   version="1.1"
   inkscape:version="0.92.4 (unknown)"
   sodipodi:docname="evolution-memos.svg"
   inkscape:export-filename="/home/silerio/Imágenes/iconos/email2.png"
   inkscape:export-xdpi="90"
   inkscape:export-ydpi="90">
  <defs
     id="defs3754">
    <clipPath
       clipPathUnits="userSpaceOnUse"
       id="clipPath4355">
      <path
         sodipodi:nodetypes="ccccccccccc"
         inkscape:connector-curvature="0"
         id="path4357"
         d="m 413.15743,-331.13406 -86.52622,-80.17627 -86.52623,80.17627 -86.52622,-80.17627 -86.526225,80.17627 V -10.2615 l 86.526225,-80.17627 86.52622,80.17627 86.52623,-80.17627 86.52622,80.17627 z"
         style="fill:#fcc199;fill-opacity:1;stroke:none" />
    </clipPath>
    <clipPath
       clipPathUnits="userSpaceOnUse"
       id="clipPath4087">
      <path
         sodipodi:nodetypes="cccsccccsccc"
         inkscape:connector-curvature="0"
         id="path4089"
         d="m 255.40592,22.97148 c -2.28704,0.0508 -4.54873,0.89886 -6.30518,2.36444 L 67.564098,177.67826 c -2.574541,2.1548 -3.967229,5.64239 -3.585104,8.97787 0.382126,3.33547 2.527474,6.41774 5.522634,7.93446 l 186.068482,94.21646 c 2.84639,1.4447 6.38151,1.4447 9.2279,0 l 186.06847,-94.21646 c 3.03867,-1.52923 5.2057,-4.66969 5.55708,-8.05326 0.35137,-3.38358 -1.12414,-6.90229 -3.78375,-9.02327 L 262.03949,25.20456 c -1.85909,-1.48849 -4.2528,-2.29429 -6.63357,-2.23308 z"
         style="color:#000000;font-style:normal;font-variant:normal;font-weight:normal;font-stretch:normal;font-size:medium;line-height:normal;font-family:Sans;-inkscape-font-specification:Sans;text-indent:0;text-align:start;text-decoration:none;text-decoration-line:none;letter-spacing:normal;word-spacing:normal;text-transform:none;writing-mode:lr-tb;direction:ltr;baseline-shift:baseline;text-anchor:start;display:inline;overflow:visible;visibility:visible;fill:#c87137;fill-opacity:1;fill-rule:nonzero;stroke:none;stroke-width:19.39999962;marker:none;enable-background:accumulate" />
    </clipPath>
    <clipPath
       clipPathUnits="userSpaceOnUse"
       id="clipPath4139">
      <path
         sodipodi:nodetypes="scssssssss"
         inkscape:connector-curvature="0"
         id="path4141"
         d="M 533.97954,176.85017 731.76001,305.5436 929.54048,176.85017 c 13.30694,-8.65867 28.65703,12.78103 28.65703,28.65703 v 207.2301 c 0,15.87599 -12.78103,28.65703 -28.65703,28.65703 H 533.97954 c -15.876,0 -28.65703,-12.78104 -28.65703,-28.65703 V 205.5072 c 0,-15.876 12.78103,-28.65703 28.65703,-28.65703 z"
         style="color:#000000;display:inline;overflow:visible;visibility:visible;fill:#deaa87;fill-opacity:1;fill-rule:evenodd;stroke:none;stroke-width:7;marker:none;enable-background:accumulate" />
    </clipPath>
  </defs>
  <sodipodi:namedview
     id="base"
     pagecolor="#ffffff"
     bordercolor="#666666"
     borderopacity="1.0"
     inkscape:pageopacity="0.0"
     inkscape:pageshadow="2"
     inkscape:zoom="15.295455"
     inkscape:cx="11"
     inkscape:cy="4.6541979"
     inkscape:current-layer="layer1"
     showgrid="true"
     inkscape:grid-bbox="true"
     inkscape:document-units="px"
     inkscape:window-width="1920"
     inkscape:window-height="1016"
     inkscape:window-x="0"
     inkscape:window-y="27"
     inkscape:window-maximized="1"
     units="px"
     width="512px"
     showguides="true"
     inkscape:guide-bbox="true" />
  <metadata
     id="metadata3757">
    <rdf:RDF>
      <cc:Work
         rdf:about="">
        <dc:format>image/svg+xml</dc:format>
        <dc:type
           rdf:resource="http://purl.org/dc/dcmitype/StillImage" />
        <dc:title></dc:title>
      </cc:Work>
    </rdf:RDF>
  </metadata>
  <g
     id="layer1"
     inkscape:label="Layer 1"
     inkscape:groupmode="layer"
     transform="translate(0,-25.99996)">
    <path
       style="opacity:1;fill:#000000;fill-opacity:0.56862748;stroke:none;stroke-width:6.60884857;stroke-miterlimit:4;stroke-dasharray:none;stroke-opacity:0.01176471"
       d="m 3.494903,31.244956 c -0.034239,0.149587 -0.055934,0.304158 -0.055934,0.464685 0,-0.160535 0.021721,-0.31508 0.055934,-0.464685 z m -1.211192,9.663721 v 2.205101 c 0,1.411126 1.1360336,2.54716 2.5471605,2.54716 H 17.704358 c 1.411127,0 2.547161,-1.136034 2.547161,-2.54716 v -2.205101 c 0,0.922342 -0.489533,1.719494 -1.219798,2.166376 -0.221488,0.90237 -1.028147,1.570463 -2.000725,1.570463 H 5.5042339 c -0.9725784,0 -1.7792379,-0.668093 -2.0007256,-1.570463 C 2.7732435,42.628171 2.283711,41.831019 2.283711,40.908677 Z"
       id="path1132"
       inkscape:connector-curvature="0" />
    <g
       aria-label="@"
       style="font-style:normal;font-variant:normal;font-weight:bold;font-stretch:normal;font-size:9.7591629px;line-height:1.25;font-family:sans-serif;-inkscape-font-specification:'sans-serif Bold';letter-spacing:0px;word-spacing:0px;fill:#000000;fill-opacity:1;stroke:none;stroke-width:0.24397908"
       id="text912"
       transform="translate(-0.1880363,-0.4737693)" />
    <g
       transform="matrix(0.32434464,0,0,0.32434464,1.2101296,28.796769)"
       id="g997"
       style="font-style:normal;font-variant:normal;font-weight:normal;font-stretch:normal;font-size:40px;line-height:1.25;font-family:'DejaVu Sans';-inkscape-font-specification:'DejaVu Sans';letter-spacing:0px;word-spacing:0px;fill:#000000;fill-opacity:1;stroke:none"
       aria-label="14" />
    <path
       style="opacity:1;fill:#000000;fill-opacity:0.52941179;stroke:none;stroke-width:6.60884857;stroke-miterlimit:4;stroke-dasharray:none;stroke-opacity:0.01176471"
       d="m 3.494903,31.244956 c -0.034214,0.149605 -0.055934,0.30415 -0.055934,0.464685 0,-0.160527 0.021695,-0.315098 0.055934,-0.464685 z m 16.756616,6.570125 -1.155258,1.006817 v 1.553251 c 0,1.144158 -0.921108,2.065265 -2.065265,2.065265 H 5.5042339 c -0.9828976,0 -1.798193,-0.681455 -2.0093309,-1.598428 C 2.769196,40.394111 2.283711,39.598805 2.283711,38.679911 v 2.228766 c 0,1.411127 1.1360336,2.54716 2.5471605,2.54716 H 17.704358 c 1.411127,0 2.547161,-1.136033 2.547161,-2.54716 z"
       id="rect1104"
       inkscape:connector-curvature="0" />
    <path
       style="opacity:1;fill:#000000;fill-opacity:0.21568628;stroke:none;stroke-width:6.60884857;stroke-miterlimit:4;stroke-dasharray:none;stroke-opacity:0.01176471"
       d="m 19.096261,38.821898 -2.760142,2.405173 H 4.8308715 c -0.4922325,0 -0.9472225,-0.145169 -1.3359685,-0.385085 0.2111379,0.916973 1.0264333,1.598428 2.0093309,1.598428 H 17.030996 c 1.144157,0 2.065265,-0.921107 2.065265,-2.065265 z"
       id="rect1108"
       inkscape:connector-curvature="0" />
    <path
       inkscape:connector-curvature="0"
       style="opacity:1;fill:#000000;fill-opacity:0.11764706;stroke:none;stroke-width:6.60884857;stroke-miterlimit:4;stroke-dasharray:none;stroke-opacity:0.01176471"
       d="m 5.5042339,29.644375 c -0.2860392,0 -0.5594932,0.05927 -0.8067442,0.1635 -0.055954,0.02368 -0.1059233,0.05772 -0.1591975,0.08606 -0.1814609,0.09625 -0.3508105,0.211206 -0.4948032,0.354967 -0.1866483,0.186648 -0.3389401,0.408902 -0.4431714,0.656152 -0.1042315,0.247251 -0.1613489,0.518554 -0.1613489,0.804593 v 6.436743 c 0,0.286039 0.057117,0.557342 0.1613489,0.804594 0.1042314,0.24725 0.2565231,0.469503 0.4431714,0.656151 0.093007,0.09286 0.1939584,0.177932 0.3033359,0.251704 4.605e-4,3.12e-4 0.00169,-3.11e-4 0.00215,0 0.1093875,0.07363 0.2254753,0.137449 0.3485135,0.189317 0.247251,0.104233 0.520705,0.1635 0.8067442,0.1635 H 14.326786 V 38.83481 c 0,-0.829656 0.340905,-1.566256 0.894948,-2.060963 0.554042,-0.494706 1.302342,-0.75296 2.103989,-0.75296 h 1.770535 v -4.311242 c 0,-0.286039 -0.05712,-0.557342 -0.161349,-0.804593 -0.104232,-0.24725 -0.256523,-0.469504 -0.443172,-0.656152 -0.09293,-0.09293 -0.194021,-0.177845 -0.303336,-0.251703 -5.22e-4,-3.53e-4 -0.0017,3.51e-4 -0.0022,0 -0.05928,-0.03998 -0.125831,-0.06949 -0.189316,-0.103264 -0.05345,-0.02835 -0.103054,-0.06239 -0.159197,-0.08606 -0.247251,-0.104232 -0.520706,-0.1635 -0.806744,-0.1635 z m 11.8214921,7.587699 c -0.541884,0 -0.991036,0.171909 -1.297244,0.445323 -0.306208,0.273414 -0.48835,0.642847 -0.48835,1.157409 v 1.376843 h 0.0043 l 3.523859,-2.979575 z"
       id="rect1124" />
    <path
       style="opacity:1;fill:#000000;fill-opacity:0.49019608;stroke:none;stroke-width:6.60884857;stroke-miterlimit:4;stroke-dasharray:none;stroke-opacity:0.01176471"
       d="m 4.8308715,28.628953 c -1.4111269,0 -2.5471605,1.136034 -2.5471605,2.547161 v 7.503797 c 0,1.411127 1.1360336,2.54716 2.5471605,2.54716 H 16.336119 l 3.9154,-3.41199 v -6.638967 c 0,-1.411127 -1.136034,-2.547161 -2.547161,-2.547161 z m 0.6733624,1.015422 H 17.030996 c 0.286038,0 0.559493,0.05927 0.806744,0.1635 0.05614,0.02367 0.105742,0.05771 0.159197,0.08606 0.06349,0.03377 0.130035,0.06328 0.189316,0.103264 0,0 0.0022,0 0.0022,0 0.109311,0.07385 0.210405,0.158772 0.303336,0.251703 0.01188,0.01188 0.02066,0.02656 0.03227,0.03873 0.03735,0.03925 0.06907,0.08268 0.103263,0.124777 0.0013,0.0015 0.003,0.0028 0.0043,0.0043 3.27e-4,4.99e-4 -3.75e-4,0.0017 0,0.0022 0.05942,0.07339 0.114424,0.148959 0.163499,0.230191 0.03085,0.05129 0.05966,0.102943 0.08606,0.157046 0.01657,0.03383 0.03909,0.0641 0.05379,0.09896 0.02667,0.06326 0.04205,0.131668 0.06239,0.197922 0.0048,0.01586 0.01057,0.03131 0.01506,0.04733 0.0024,0.0085 0.0042,0.01719 0.0065,0.02582 0.0057,0.01856 0.01266,0.03666 0.01722,0.05593 0.03624,0.153687 0.06024,0.312261 0.06024,0.477593 v 4.311241 h -1.770535 c -0.801647,0 -1.549947,0.258254 -2.103989,0.752961 -0.554043,0.494706 -0.894948,1.231306 -0.894948,2.060963 v 1.376843 H 5.5042339 c -0.2860392,0 -0.5594932,-0.05927 -0.8067442,-0.1635 -0.1230381,-0.05187 -0.239126,-0.115682 -0.3485135,-0.189317 0,0 -0.00215,0 -0.00215,0 C 4.2374474,39.78506 4.1364965,39.699983 4.043489,39.607129 3.8568407,39.420481 3.704549,39.198227 3.6003176,38.950977 3.4960857,38.703726 3.4389687,38.432423 3.4389687,38.146384 v -6.436743 c 0,-0.286039 0.057117,-0.557342 0.1613489,-0.804593 0.1042314,-0.247251 0.2565231,-0.469504 0.4431714,-0.656152 0.1439927,-0.143762 0.3133423,-0.25872 0.4948032,-0.354967 0.053274,-0.02834 0.1032434,-0.06238 0.1591975,-0.08606 0.247251,-0.104233 0.520705,-0.1635 0.8067442,-0.1635 z m 11.8214921,7.587699 h 1.742567 l -3.523859,2.979575 h -0.0043 v -1.376843 c 0,-0.12864 0.01046,-0.248004 0.03227,-0.35927 0.02896,-0.147416 0.08265,-0.275792 0.14629,-0.395843 0.01711,-0.03215 0.03438,-0.0643 0.05379,-0.09466 5.44e-4,-8.54e-4 0.0013,-0.0015 0.0022,-0.0022 5.25e-4,-8.21e-4 0.0017,-0.0013 0.0022,-0.0022 0.0713,-0.110783 0.15222,-0.214506 0.251704,-0.303335 0.306208,-0.273413 0.755361,-0.445323 1.297245,-0.445323 z"
       id="path1130"
       inkscape:connector-curvature="0" />
    <path
       style="opacity:1;fill:#000000;fill-opacity:0.3137255;stroke:none;stroke-width:6.60884857;stroke-miterlimit:4;stroke-dasharray:none;stroke-opacity:0.01176471"
       d="m 3.494903,31.244956 c -0.034239,0.149587 -0.055934,0.304158 -0.055934,0.464685 0,-0.160535 0.021721,-0.31508 0.055934,-0.464685 z M 3.484142,40.83338 c 0.00392,0.0024 0.00682,0.0062 0.010761,0.0086 0.060619,0.03741 0.1320399,0.05559 0.19577,0.08821 C 3.622834,40.89567 3.5511473,40.86854 3.4841465,40.83338 Z m 0.010761,2.237371 c 0.2111379,0.916973 1.0264333,1.598429 2.0093309,1.598429 H 17.030996 c 0.982897,0 1.798193,-0.681456 2.009331,-1.598429 -0.388747,0.239916 -0.843736,0.385086 -1.335969,0.385086 H 4.8308715 c -0.4922325,0 -0.9472225,-0.14517 -1.3359685,-0.385086 z"
       id="rect1134"
       inkscape:connector-curvature="0" />
  </g>
</svg>
