<?xml version="1.0" encoding="UTF-8" standalone="no"?>
<!-- Created with Inkscape (http://www.inkscape.org/) -->

<svg
   width="22"
   height="22"
   viewBox="0 0 5.8208334 5.8208335"
   version="1.1"
   id="svg852"
   inkscape:version="1.1.2 (0a00cf5339, 2022-02-04)"
   sodipodi:docname="logo.svg"
   xmlns:inkscape="http://www.inkscape.org/namespaces/inkscape"
   xmlns:sodipodi="http://sodipodi.sourceforge.net/DTD/sodipodi-0.dtd"
   xmlns="http://www.w3.org/2000/svg"
   xmlns:svg="http://www.w3.org/2000/svg">
  <sodipodi:namedview
     id="namedview854"
     pagecolor="#ffffff"
     bordercolor="#666666"
     borderopacity="1.0"
     inkscape:pageshadow="2"
     inkscape:pageopacity="0.0"
     inkscape:pagecheckerboard="0"
     inkscape:document-units="mm"
     showgrid="false"
     units="px"
     inkscape:zoom="8.979798"
     inkscape:cx="7.9623172"
     inkscape:cy="6.904387"
     inkscape:window-width="1920"
     inkscape:window-height="956"
     inkscape:window-x="0"
     inkscape:window-y="0"
     inkscape:window-maximized="1"
     inkscape:current-layer="layer1" />
  <defs
     id="defs849" />
  <g
     inkscape:label="Capa 1"
     inkscape:groupmode="layer"
     id="layer1">
    <g
       id="22-22-start-here-kde"
       class="ColorScheme-Text"
       transform="matrix(0.36380208,0,0,0.36380208,14.535612,8.3850433)"
       fill="currentColor"
       style="color:#363636">
      <rect
         x="-40"
         y="-23"
         width="16"
         height="16"
         ry="0.45344001"
         opacity="0"
         id="rect10" />
      <path
         d="m -29.844047,-19.972723 c 0.505154,-0.628898 0.847643,-1.48337 0.753138,-2.349329 -0.727563,0.03051 -1.634094,0.505329 -2.159158,1.115919 -0.463888,0.541738 -0.875998,1.427242 -0.76926,2.261864 0.816481,0.06094 1.652721,-0.413135 2.175268,-1.028365 z m 1.840872,5.441035 c -0.01744,-1.851978 1.515415,-2.751162 1.584884,-2.794074 -0.867224,-1.265654 -2.211891,-1.437184 -2.685984,-1.45279 -1.130084,-0.115135 -2.223973,0.678962 -2.800511,0.678962 -0.58671,-8.1e-5 -1.472748,-0.665219 -2.426977,-0.646304 -1.229986,0.0184 -2.381794,0.73056 -3.012324,1.833351 -1.298062,2.254062 -0.330381,5.564619 0.916409,7.382239 0.624564,0.8947168 1.352053,1.8906136 2.306406,1.8512242 0.933312,-0.035465 1.281198,-0.5925557 2.409231,-0.5925557 1.116229,0 1.443173,0.5925557 2.417034,0.5734899 1.002217,-0.016431 1.632583,-0.8963274 2.235426,-1.7947184 0.718062,-1.02488 1.008006,-2.029675 1.019571,-2.08316 -0.02234,-0.0081 -1.942687,-0.738551 -1.963202,-2.955664 z"
         id="path12"
         style="fill:#f9f9f9;fill-opacity:1" />
    </g>
  </g>
</svg>
