<?xml version="1.0" encoding="UTF-8" standalone="no"?>
<!-- Created with Inkscape (http://www.inkscape.org/) -->

<svg
   xmlns:dc="http://purl.org/dc/elements/1.1/"
   xmlns:cc="http://creativecommons.org/ns#"
   xmlns:rdf="http://www.w3.org/1999/02/22-rdf-syntax-ns#"
   xmlns:svg="http://www.w3.org/2000/svg"
   xmlns="http://www.w3.org/2000/svg"
   xmlns:sodipodi="http://sodipodi.sourceforge.net/DTD/sodipodi-0.dtd"
   xmlns:inkscape="http://www.inkscape.org/namespaces/inkscape"
   width="22"
   height="22"
   id="svg3752"
   version="1.1"
   inkscape:version="0.92.4 (unknown)"
   sodipodi:docname="x-office-address-book.svg"
   inkscape:export-filename="/home/silerio/Imágenes/iconos/email2.png"
   inkscape:export-xdpi="90"
   inkscape:export-ydpi="90">
  <defs
     id="defs3754">
    <clipPath
       clipPathUnits="userSpaceOnUse"
       id="clipPath4355">
      <path
         sodipodi:nodetypes="ccccccccccc"
         inkscape:connector-curvature="0"
         id="path4357"
         d="m 413.15743,-331.13406 -86.52622,-80.17627 -86.52623,80.17627 -86.52622,-80.17627 -86.526225,80.17627 V -10.2615 l 86.526225,-80.17627 86.52622,80.17627 86.52623,-80.17627 86.52622,80.17627 z"
         style="fill:#fcc199;fill-opacity:1;stroke:none" />
    </clipPath>
    <clipPath
       clipPathUnits="userSpaceOnUse"
       id="clipPath4087">
      <path
         sodipodi:nodetypes="cccsccccsccc"
         inkscape:connector-curvature="0"
         id="path4089"
         d="m 255.40592,22.97148 c -2.28704,0.0508 -4.54873,0.89886 -6.30518,2.36444 L 67.564098,177.67826 c -2.574541,2.1548 -3.967229,5.64239 -3.585104,8.97787 0.382126,3.33547 2.527474,6.41774 5.522634,7.93446 l 186.068482,94.21646 c 2.84639,1.4447 6.38151,1.4447 9.2279,0 l 186.06847,-94.21646 c 3.03867,-1.52923 5.2057,-4.66969 5.55708,-8.05326 0.35137,-3.38358 -1.12414,-6.90229 -3.78375,-9.02327 L 262.03949,25.20456 c -1.85909,-1.48849 -4.2528,-2.29429 -6.63357,-2.23308 z"
         style="color:#000000;font-style:normal;font-variant:normal;font-weight:normal;font-stretch:normal;font-size:medium;line-height:normal;font-family:Sans;-inkscape-font-specification:Sans;text-indent:0;text-align:start;text-decoration:none;text-decoration-line:none;letter-spacing:normal;word-spacing:normal;text-transform:none;writing-mode:lr-tb;direction:ltr;baseline-shift:baseline;text-anchor:start;display:inline;overflow:visible;visibility:visible;fill:#c87137;fill-opacity:1;fill-rule:nonzero;stroke:none;stroke-width:19.39999962;marker:none;enable-background:accumulate" />
    </clipPath>
    <clipPath
       clipPathUnits="userSpaceOnUse"
       id="clipPath4139">
      <path
         sodipodi:nodetypes="scssssssss"
         inkscape:connector-curvature="0"
         id="path4141"
         d="M 533.97954,176.85017 731.76001,305.5436 929.54048,176.85017 c 13.30694,-8.65867 28.65703,12.78103 28.65703,28.65703 v 207.2301 c 0,15.87599 -12.78103,28.65703 -28.65703,28.65703 H 533.97954 c -15.876,0 -28.65703,-12.78104 -28.65703,-28.65703 V 205.5072 c 0,-15.876 12.78103,-28.65703 28.65703,-28.65703 z"
         style="color:#000000;display:inline;overflow:visible;visibility:visible;fill:#deaa87;fill-opacity:1;fill-rule:evenodd;stroke:none;stroke-width:7;marker:none;enable-background:accumulate" />
    </clipPath>
  </defs>
  <sodipodi:namedview
     id="base"
     pagecolor="#ffffff"
     bordercolor="#666666"
     borderopacity="1.0"
     inkscape:pageopacity="0.0"
     inkscape:pageshadow="2"
     inkscape:zoom="16"
     inkscape:cx="16.864043"
     inkscape:cy="11.171873"
     inkscape:current-layer="layer1"
     showgrid="true"
     inkscape:grid-bbox="true"
     inkscape:document-units="px"
     inkscape:window-width="1920"
     inkscape:window-height="1016"
     inkscape:window-x="0"
     inkscape:window-y="27"
     inkscape:window-maximized="1"
     units="px"
     width="512px"
     showguides="true"
     inkscape:guide-bbox="true" />
  <metadata
     id="metadata3757">
    <rdf:RDF>
      <cc:Work
         rdf:about="">
        <dc:format>image/svg+xml</dc:format>
        <dc:type
           rdf:resource="http://purl.org/dc/dcmitype/StillImage" />
        <dc:title></dc:title>
      </cc:Work>
    </rdf:RDF>
  </metadata>
  <g
     id="layer1"
     inkscape:label="Layer 1"
     inkscape:groupmode="layer"
     transform="translate(0,-25.99996)">
    <path
       style="opacity:1;fill:#000000;fill-opacity:0.16000001;stroke:none;stroke-width:6;stroke-miterlimit:4;stroke-dasharray:none;stroke-opacity:0.01176471"
       d="m 6.0644531,30.521444 c -0.4896707,0 -0.8847656,0.393142 -0.8847656,0.882813 v 0.220703 h 0.4199219 c 0.4529465,0 0.8164062,0.365412 0.8164062,0.818359 0,0.452947 -0.3634597,0.816407 -0.8164062,0.816407 H 5.1796875 v 1.33789 h 0.4199219 c 0.4529465,0 0.8164062,0.363459 0.8164062,0.816407 0,0.452947 -0.3634597,0.820312 -0.8164062,0.820312 H 5.1796875 v 1.335937 h 0.4199219 c 0.4529465,0 0.8164062,0.363462 0.8164062,0.816407 0,0.452947 -0.3634597,0.818359 -0.8164062,0.818359 H 5.1796875 v 1.335938 h 0.4199219 c 0.4529465,0 0.8164062,0.365413 0.8164062,0.818359 0,0.452947 -0.3634597,0.818359 -0.8164062,0.818359 H 5.1796875 v 1.333985 h 0.4199219 c 0.4529465,0 0.8164062,0.367365 0.8164062,0.820312 0,0.452947 -0.3634597,0.816407 -0.8164062,0.816407 H 5.1796875 v 0.222656 c 0,0.48967 0.3950949,0.882812 0.8847656,0.882812 H 16.757812 c 0.489671,0 0.884766,-0.393142 0.884766,-0.882812 V 31.404257 c 0,-0.489671 -0.395095,-0.882813 -0.884766,-0.882813 z m 5.4374999,3.587891 c 0.711606,0 1.358097,0.134997 1.939453,0.408203 0.581357,0.270029 1.066284,0.662362 1.457032,1.173828 0.23826,0.311328 0.418343,0.648339 0.539062,1.013672 0.123895,0.362157 0.185547,0.744253 0.185547,1.144531 0,0.860916 -0.257571,1.529338 -0.775391,2.00586 -0.51782,0.476522 -1.249846,0.714844 -2.193359,0.714843 H 12.46875 v -0.734374 c -0.0953,0.225553 -0.250044,0.402224 -0.462891,0.529296 -0.209669,0.123896 -0.455545,0.185547 -0.738281,0.185547 -0.546411,0 -0.990888,-0.195919 -1.333984,-0.589843 -0.339919,-0.397102 -0.509766,-0.913467 -0.509766,-1.548829 0,-0.635362 0.17253,-1.151726 0.515625,-1.548828 0.343096,-0.397101 0.78489,-0.595703 1.328125,-0.595703 0.282736,0 0.528612,0.06238 0.738281,0.189453 0.212847,0.127073 0.367587,0.303744 0.462891,0.529297 v -0.623047 h 0.996094 v 3.300781 c 0.393924,-0.06036 0.704133,-0.248725 0.929687,-0.566406 0.225554,-0.320858 0.337891,-0.729756 0.337891,-1.228515 0,-0.317682 -0.04655,-0.616197 -0.138672,-0.892579 -0.09213,-0.279559 -0.230537,-0.533717 -0.417969,-0.765624 -0.301797,-0.387572 -0.680481,-0.686815 -1.134765,-0.896485 -0.451107,-0.209669 -0.9414,-0.314453 -1.46875,-0.314453 -0.36851,0 -0.719899,0.048 -1.056641,0.146484 -0.336742,0.0953 -0.64768,0.23835 -0.933594,0.425782 -0.4701676,0.311327 -0.837887,0.713401 -1.1015622,1.208984 -0.2604985,0.492405 -0.390625,1.02656 -0.390625,1.601562 0,0.473346 0.083582,0.917823 0.2519531,1.333985 0.1715478,0.412985 0.417423,0.778022 0.7382812,1.095703 0.3176809,0.311327 0.6819879,0.54892 1.0917969,0.710938 0.412985,0.165193 0.853321,0.248046 1.320313,0.248046 0.400278,0 0.800893,-0.0753 1.201171,-0.224609 0.400279,-0.14931 0.740702,-0.351324 1.023438,-0.605469 l 0.509765,0.771485 c -0.397101,0.30815 -0.830613,0.545014 -1.300781,0.707031 -0.466991,0.165194 -0.940953,0.246094 -1.423828,0.246094 -0.58771,0 -1.143066,-0.104784 -1.664062,-0.314454 C 9.316893,42.14503 8.8538971,41.844327 8.4472656,41.447226 8.0406338,41.050124 7.7304245,40.591269 7.5175781,40.070272 7.3047318,39.546099 7.1992188,38.98319 7.1992188,38.382772 c 0,-0.578179 0.1081956,-1.130122 0.3242187,-1.654296 0.2160231,-0.524174 0.5235499,-0.983758 0.9238281,-1.38086 0.4002782,-0.393924 0.8659574,-0.699992 1.3964844,-0.916015 0.533704,-0.216024 1.086377,-0.322266 1.658203,-0.322266 z m -0.06641,3.044922 c -0.279559,0 -0.503504,0.112337 -0.671875,0.337891 -0.165194,0.222376 -0.248047,0.525762 -0.248047,0.910156 0,0.390748 0.08285,0.698275 0.248047,0.923828 0.168371,0.225554 0.395727,0.337891 0.68164,0.33789 0.282736,0 0.50741,-0.112336 0.675782,-0.33789 0.16837,-0.22873 0.251953,-0.536257 0.251953,-0.923828 0,-0.384394 -0.08431,-0.68778 -0.255859,-0.910156 -0.168371,-0.225554 -0.395728,-0.337891 -0.681641,-0.337891 z"
       id="path922"
       inkscape:connector-curvature="0" />
    <path
       style="opacity:1;fill:#000000;fill-opacity:0.56444445;stroke:none;stroke-width:6;stroke-miterlimit:4;stroke-dasharray:none;stroke-opacity:0.01176471"
       d="m 5.6660156,29.43746 c -0.8079579,0 -1.4589844,0.651027 -1.4589844,1.458984 v 0.730469 l 0.9726563,-0.002 v -0.220703 c 0,-0.489671 0.3950949,-0.882813 0.8847656,-0.882813 H 16.757812 c 0.489671,0 0.884766,0.393142 0.884766,0.882813 v 13.966797 c 0,0.48967 -0.395095,0.882812 -0.884766,0.882812 H 6.0644531 c -0.4896707,0 -0.8847656,-0.393142 -0.8847656,-0.882812 V 45.148398 H 4.2070312 v 0.730468 c 0,0.807958 0.6510265,1.458985 1.4589844,1.458985 H 17.15625 c 0.807958,0 1.458984,-0.651027 1.458984,-1.458985 V 30.896444 c 0,-0.807957 -0.651026,-1.458984 -1.458984,-1.458984 z m -1.4589844,3.822266 v 1.33789 h 0.9726563 v -1.33789 z m 0,2.974609 v 1.335937 h 0.9726563 v -1.335937 z m 0,2.970703 v 1.335938 h 0.9726563 v -1.335938 z m 0,2.972656 v 1.333985 h 0.9726563 v -1.333985 z"
       id="rect888"
       inkscape:connector-curvature="0" />
    <path
       style="opacity:1;fill:#000000;fill-opacity:0.62222224;stroke:none;stroke-width:6;stroke-miterlimit:4;stroke-dasharray:none;stroke-opacity:0.01176471"
       d="m 3.0803459,31.625937 c -0.4529464,0 -0.8183594,0.36346 -0.8183594,0.816406 0,0.452946 0.365413,0.818359 0.8183594,0.818359 h 2.5195312 c 0.4529465,0 0.8164063,-0.365412 0.8164063,-0.818359 0,-0.452947 -0.3634598,-0.816407 -0.8164063,-0.816407 z m 0,2.970703 c -0.4529464,0 -0.8183594,0.365412 -0.8183594,0.818359 0,0.452946 0.365413,0.81836 0.8183594,0.81836 h 2.5195312 c 0.4529465,0 0.8164063,-0.365413 0.8164063,-0.81836 0,-0.452947 -0.3634598,-0.818359 -0.8164063,-0.818359 z m 0,2.972656 c -0.4529464,0 -0.8183594,0.365413 -0.8183594,0.818359 0,0.452948 0.365413,0.816407 0.8183594,0.816407 h 2.5195312 c 0.4529465,0 0.8164063,-0.36346 0.8164063,-0.816407 0,-0.452945 -0.3634598,-0.818359 -0.8164063,-0.818359 z m 0,2.972656 c -0.4529464,0 -0.8183594,0.363461 -0.8183594,0.816407 0,0.452947 0.365413,0.818359 0.8183594,0.818359 h 2.5195312 c 0.4529465,0 0.8164063,-0.365412 0.8164063,-0.818359 0,-0.452946 -0.3634598,-0.816407 -0.8164063,-0.816407 z m 0,2.970703 c -0.4529464,0 -0.8183594,0.365413 -0.8183594,0.81836 0,0.452946 0.365413,0.818359 0.8183594,0.818359 h 2.5195312 c 0.4529465,0 0.8164063,-0.365412 0.8164063,-0.818359 0,-0.452947 -0.3634598,-0.81836 -0.8164063,-0.81836 z"
       id="rect893"
       inkscape:connector-curvature="0" />
    <g
       aria-label="@"
       style="font-style:normal;font-variant:normal;font-weight:bold;font-stretch:normal;font-size:9.7591629px;line-height:1.25;font-family:sans-serif;-inkscape-font-specification:'sans-serif Bold';letter-spacing:0px;word-spacing:0px;fill:#000000;fill-opacity:1;stroke:none;stroke-width:0.24397908"
       id="text912"
       transform="translate(-0.1880363,-0.4737693)" />
  </g>
</svg>
