<?xml version="1.0" encoding="UTF-8" standalone="no"?>
<!-- Created with Inkscape (http://www.inkscape.org/) -->

<svg
   xmlns:dc="http://purl.org/dc/elements/1.1/"
   xmlns:cc="http://creativecommons.org/ns#"
   xmlns:rdf="http://www.w3.org/1999/02/22-rdf-syntax-ns#"
   xmlns:svg="http://www.w3.org/2000/svg"
   xmlns="http://www.w3.org/2000/svg"
   xmlns:sodipodi="http://sodipodi.sourceforge.net/DTD/sodipodi-0.dtd"
   xmlns:inkscape="http://www.inkscape.org/namespaces/inkscape"
   version="1.1"
   width="16"
   height="16"
   id="svg3085"
   inkscape:version="0.92.5 (2060ec1f9f, 2020-04-08)"
   sodipodi:docname="applications-chat-panel.svg">
  <sodipodi:namedview
     pagecolor="#ffffff"
     bordercolor="#666666"
     borderopacity="1"
     objecttolerance="10"
     gridtolerance="10"
     guidetolerance="10"
     inkscape:pageopacity="0"
     inkscape:pageshadow="2"
     inkscape:window-width="1920"
     inkscape:window-height="1019"
     id="namedview7"
     showgrid="false"
     inkscape:zoom="41.7193"
     inkscape:cx="1.5279435"
     inkscape:cy="6.612493"
     inkscape:window-x="0"
     inkscape:window-y="30"
     inkscape:window-maximized="1"
     inkscape:current-layer="layer1-3" />
  <defs
     id="defs3087" />
  <metadata
     id="metadata3090">
    <rdf:RDF>
      <cc:Work
         rdf:about="">
        <dc:format>image/svg+xml</dc:format>
        <dc:type
           rdf:resource="http://purl.org/dc/dcmitype/StillImage" />
        <dc:title />
      </cc:Work>
    </rdf:RDF>
  </metadata>
  <g
     transform="translate(-341.40678,-533.76898)"
     id="layer1-34"
     inkscape:label="Capa 1">
    <g
       inkscape:label="Layer 1"
       id="layer1-3"
       transform="matrix(0.28650725,0,0,0.28650725,116.73905,490.74772)">
      <path
         style="opacity:1;fill:#f5f5f5;fill-opacity:1;stroke:none;stroke-width:3.67517734;stroke-linecap:round;stroke-linejoin:round;stroke-miterlimit:4;stroke-dasharray:none;stroke-opacity:1"
         d="m 812.49023,161.15406 a 20.296529,16.455243 0 0 0 -20.29602,16.45575 20.296529,16.455243 0 0 0 7.14817,12.52575 c 0.0457,0.84476 0.0418,1.64549 -0.0478,2.34484 -0.24378,1.90013 -0.97575,3.20484 -1.51338,3.6668 a 1.2251815,1.2251815 0 0 0 0.91521,2.14744 c 4.44491,-0.42633 8.01894,-2.22875 10.62356,-4.4504 a 20.296529,16.455243 0 0 0 3.17032,0.22132 20.296529,16.455243 0 0 0 20.302,-16.45575 20.296529,16.455243 0 0 0 -20.302,-16.45575 z"
         id="path814"
         inkscape:connector-curvature="0" />
    </g>
  </g>
</svg>
