<?xml version="1.0" encoding="UTF-8" standalone="no"?>
<svg
   xmlns:dc="http://purl.org/dc/elements/1.1/"
   xmlns:cc="http://creativecommons.org/ns#"
   xmlns:rdf="http://www.w3.org/1999/02/22-rdf-syntax-ns#"
   xmlns:svg="http://www.w3.org/2000/svg"
   xmlns="http://www.w3.org/2000/svg"
   xmlns:sodipodi="http://sodipodi.sourceforge.net/DTD/sodipodi-0.dtd"
   xmlns:inkscape="http://www.inkscape.org/namespaces/inkscape"
   width="16"
   height="16"
   version="1.1"
   id="svg13"
   sodipodi:docname="flameshot.svg"
   inkscape:version="0.92.5 (2060ec1f9f, 2020-04-08)">
  <metadata
     id="metadata17">
    <rdf:RDF>
      <cc:Work
         rdf:about="">
        <dc:format>image/svg+xml</dc:format>
        <dc:type
           rdf:resource="http://purl.org/dc/dcmitype/StillImage" />
        <dc:title></dc:title>
      </cc:Work>
    </rdf:RDF>
  </metadata>
  <sodipodi:namedview
     pagecolor="#ffffff"
     bordercolor="#666666"
     borderopacity="1"
     objecttolerance="10"
     gridtolerance="10"
     guidetolerance="10"
     inkscape:pageopacity="0"
     inkscape:pageshadow="2"
     inkscape:window-width="1920"
     inkscape:window-height="1019"
     id="namedview15"
     showgrid="false"
     inkscape:zoom="14.75"
     inkscape:cx="8"
     inkscape:cy="8"
     inkscape:window-x="0"
     inkscape:window-y="30"
     inkscape:window-maximized="1"
     inkscape:current-layer="svg13" />
  <defs
     id="defs3">
    <style
       id="current-color-scheme"
       type="text/css">.ColorScheme-Text { color:#363636; } .ColorScheme-Highlight { color:#4285f4; }</style>
  </defs>
  <g
     fill="#363636"
     id="g11">
    <path
       class="ColorScheme-Text"
       d="m15 3s-0.15 1.6389-3.01 2.9219c-0.015 0.7372-0.106 1.4875-0.355 2.209-0.384 1.1135-1.193 2.1631-2.4729 2.6971-1.5035 0.628-2.424 1.382-3.0176 2.08 0.9153-0.506 2.2235-0.958 4.1115-1.152 4.282-0.44 4.744-8.756 4.744-8.756z"
       opacity=".5"
       id="path5"
       style="fill:#f5f5f5;fill-opacity:1" />
    <path
       class="ColorScheme-Text"
       d="m10.119 1s0.297 2.4145-2.3475 4.4785c0.1408 0.5311 0.2337 1.0905 0.2285 1.6738-0.0093 1.0357-0.3524 2.1514-1.1855 3.0607v2e-3c-0.6993 0.763-1.1329 1.435-1.4063 2.014 0.6982-0.807 1.755-1.649 3.3691-2.3228 4.0367-1.684 1.3417-8.9062 1.3417-8.9062z"
       opacity=".75"
       id="path7"
       style="fill:#f5f5f5;fill-opacity:1" />
    <path
       class="ColorScheme-Text"
       d="m2.486 8.501c3.0326-3.8211 2.3505-6.501 2.3505-6.501s3.8851 4.6551 1.2411 7.538c-2.9531 3.221-1.946 5.462-1.946 5.462s-3.385-4.308-1.6456-6.499z"
       id="path9"
       style="fill:#f5f5f5;fill-opacity:1" />
  </g>
</svg>
