<?xml version="1.0" encoding="UTF-8" standalone="no"?>
<svg
   xmlns:dc="http://purl.org/dc/elements/1.1/"
   xmlns:cc="http://creativecommons.org/ns#"
   xmlns:rdf="http://www.w3.org/1999/02/22-rdf-syntax-ns#"
   xmlns:svg="http://www.w3.org/2000/svg"
   xmlns="http://www.w3.org/2000/svg"
   xmlns:sodipodi="http://sodipodi.sourceforge.net/DTD/sodipodi-0.dtd"
   xmlns:inkscape="http://www.inkscape.org/namespaces/inkscape"
   width="16"
   height="16"
   version="1.1"
   id="svg13"
   sodipodi:docname="weather-few-clouds-night.svg"
   inkscape:version="0.92.5 (2060ec1f9f, 2020-04-08)">
  <metadata
     id="metadata17">
    <rdf:RDF>
      <cc:Work
         rdf:about="">
        <dc:format>image/svg+xml</dc:format>
        <dc:type
           rdf:resource="http://purl.org/dc/dcmitype/StillImage" />
        <dc:title></dc:title>
      </cc:Work>
    </rdf:RDF>
  </metadata>
  <sodipodi:namedview
     pagecolor="#ffffff"
     bordercolor="#666666"
     borderopacity="1"
     objecttolerance="10"
     gridtolerance="10"
     guidetolerance="10"
     inkscape:pageopacity="0"
     inkscape:pageshadow="2"
     inkscape:window-width="793"
     inkscape:window-height="480"
     id="namedview15"
     showgrid="false"
     inkscape:zoom="14.75"
     inkscape:cx="1.0847458"
     inkscape:cy="8"
     inkscape:window-x="0"
     inkscape:window-y="30"
     inkscape:window-maximized="0"
     inkscape:current-layer="svg13" />
  <defs
     id="defs3">
    <style
       id="current-color-scheme"
       type="text/css">
   .ColorScheme-Text { color:#363636; } .ColorScheme-Highlight { color:#5294e2; }
  </style>
  </defs>
  <g
     transform="matrix(1.1667 0 0 1.1667 -1.3333 -1.3333)"
     style="fill:#f5f5f5;fill-opacity:1"
     class="ColorScheme-Text"
     id="g11">
    <path
       d="m7.3999 2.0277c-2.2103 0.081134-4.247 1.4433-5.0501 3.6492-1.0111 2.7772 0.29494 5.8583 2.95 7.0484-0.074561-0.26991-0.11751-0.56541-0.1-0.84981 0.02216-0.80082 0.46718-1.5096 1.1-1.9746-1.2535-1.3862-1.7085-3.3964-1.025-5.2738 0.41133-1.1299 1.1796-2.0062 2.125-2.5994zm0.15 8.898c-0.33365 0.13742-0.60638 0.38908-0.70001 0.74983-0.21214 0.65983 0.26848 1.4033 0.95001 1.4997 1.4368-0.05919 2.7996-0.64835 3.8001-1.6746v-0.12497c-1.0247 0.2996-2.1454 0.31787-3.225-0.074943-0.2896-0.10538-0.567-0.22606-0.82501-0.37492z"
       id="path5"
       style="fill:#f5f5f5;fill-opacity:1" />
    <ellipse
       transform="matrix(.93972 .34195 -.34209 .93967 0 0)"
       cx="9.741"
       cy="4.5418"
       rx="5.5999"
       ry="5.5989"
       opacity="0"
       id="ellipse7"
       style="fill:#f5f5f5;fill-opacity:1" />
    <path
       d="m9.9999 8.4013c-1.0494 0-1.9239 0.68659-2.25 1.6246-0.98468 0.12475-1.75 0.95624-1.75 1.9746 0 1.1043 0.89544 1.9996 2 1.9996h4.4001c0.88367 0 1.6-0.71618 1.6-1.5996 0-0.88346-0.71635-1.5996-1.6-1.5996 0-1.3252-1.0745-2.3995-2.4-2.3995z"
       id="path9"
       style="fill:#f5f5f5;fill-opacity:1" />
  </g>
</svg>
