<?xml version="1.0" encoding="UTF-8" standalone="no"?>
<svg
   xmlns:dc="http://purl.org/dc/elements/1.1/"
   xmlns:cc="http://creativecommons.org/ns#"
   xmlns:rdf="http://www.w3.org/1999/02/22-rdf-syntax-ns#"
   xmlns:svg="http://www.w3.org/2000/svg"
   xmlns="http://www.w3.org/2000/svg"
   xmlns:sodipodi="http://sodipodi.sourceforge.net/DTD/sodipodi-0.dtd"
   xmlns:inkscape="http://www.inkscape.org/namespaces/inkscape"
   width="16"
   height="16"
   version="1.1"
   id="svg11"
   sodipodi:docname="weather-clouds-night.svg"
   inkscape:version="0.92.5 (2060ec1f9f, 2020-04-08)">
  <metadata
     id="metadata15">
    <rdf:RDF>
      <cc:Work
         rdf:about="">
        <dc:format>image/svg+xml</dc:format>
        <dc:type
           rdf:resource="http://purl.org/dc/dcmitype/StillImage" />
        <dc:title></dc:title>
      </cc:Work>
    </rdf:RDF>
  </metadata>
  <sodipodi:namedview
     pagecolor="#ffffff"
     bordercolor="#666666"
     borderopacity="1"
     objecttolerance="10"
     gridtolerance="10"
     guidetolerance="10"
     inkscape:pageopacity="0"
     inkscape:pageshadow="2"
     inkscape:window-width="793"
     inkscape:window-height="480"
     id="namedview13"
     showgrid="false"
     inkscape:zoom="14.75"
     inkscape:cx="54.271534"
     inkscape:cy="8"
     inkscape:window-x="0"
     inkscape:window-y="30"
     inkscape:window-maximized="0"
     inkscape:current-layer="svg11" />
  <defs
     id="defs3">
    <style
       id="current-color-scheme"
       type="text/css">
   .ColorScheme-Text { color:#363636; } .ColorScheme-Highlight { color:#5294e2; }
  </style>
  </defs>
  <g
     style="fill:#f5f5f5;fill-opacity:1"
     class="ColorScheme-Text"
     id="g9">
    <path
       d="M7.75 1.032c-2.763.102-5.309 1.805-6.312 4.563a7.026 7.026 0 0 0-.159 4.316c.404-1.318 1.485-2.334 2.838-2.683.17-.29.372-.56.59-.813.01-.71.13-1.429.387-2.133.514-1.412 1.474-2.508 2.656-3.25zm-2.543 7.98l-.406.061A1.97 1.97 0 0 0 3.1 11.036c0 1.116.883 2 2 2h6.375c.186 0 .36-.038.525-.094a6.389 6.389 0 0 1-3.031-.316 6.461 6.461 0 0 1-3.762-3.613z"
       id="path5"
       style="fill:#f5f5f5;fill-opacity:1" />
    <path
       d="M8.099 5.786c-1.553 0-2.876.951-3.445 2.297a2.986 2.986 0 0 0-2.555 2.953 3 3 0 0 0 3 3h6.375a2.625 2.625 0 0 0 2.625-2.625 2.618 2.618 0 0 0-2.32-2.601 3.759 3.759 0 0 0-3.68-3.024z"
       id="path7"
       style="fill:#f5f5f5;fill-opacity:1" />
  </g>
</svg>
