<?xml version="1.0" encoding="UTF-8" standalone="no"?>
<svg
   xmlns:svg="http://www.w3.org/2000/svg"
   xmlns="http://www.w3.org/2000/svg"
   xmlns:xlink="http://www.w3.org/1999/xlink"
   xmlns:sodipodi="http://sodipodi.sourceforge.net/DTD/sodipodi-0.dtd"
   xmlns:inkscape="http://www.inkscape.org/namespaces/inkscape"
   width="16"
   height="16"
   viewBox="0 0 16 16"
   version="1.1"
   id="svg7"
   sodipodi:docname="draw-calligraphic.svg"
   inkscape:version="1.1-dev (1:0.92.0+devel+202004260039+9758c7a)">
  <sodipodi:namedview
     pagecolor="#ffffff"
     bordercolor="#666666"
     borderopacity="1"
     objecttolerance="10"
     gridtolerance="10"
     guidetolerance="10"
     inkscape:pageopacity="0"
     inkscape:pageshadow="2"
     inkscape:window-width="1920"
     inkscape:window-height="1024"
     id="namedview9"
     showgrid="false"
     inkscape:zoom="16.528621"
     inkscape:cx="8"
     inkscape:cy="8"
     inkscape:window-x="0"
     inkscape:window-y="30"
     inkscape:window-maximized="1"
     inkscape:current-layer="svg7" />
  <defs
     id="defs3">
    <style
       id="current-color-scheme"
       type="text/css">
   .ColorScheme-Text { color:#5c616c; } .ColorScheme-Highlight { color:#5294e2; }
  </style>
    <linearGradient
       gradientUnits="userSpaceOnUse"
       y2="527.08215"
       x2="21.940598"
       y1="533.37128"
       x1="24.082338"
       id="linearGradient934"
       xlink:href="#linearGradient932"
       inkscape:collect="always" />
    <linearGradient
       id="linearGradient932"
       inkscape:collect="always">
      <stop
         id="stop928"
         offset="0"
         style="stop-color:#c7c9cf;stop-opacity:1" />
      <stop
         id="stop930"
         offset="1"
         style="stop-color:#dadada;stop-opacity:1" />
    </linearGradient>
  </defs>
  <g
     id="g943"
     transform="matrix(0.71703339,0,0,0.71703339,-8.5249036,-371.62721)">
    <path
       id="path886"
       style="fill:#d0d0d0;fill-opacity:1;stroke:none;stroke-width:1px;stroke-linecap:butt;stroke-linejoin:miter;stroke-opacity:1"
       d="m 25.979719,520.04795 -0.605469,3.35351 3.673829,3.70899 3.894531,-0.11524 z m -2.203125,4.16406 -7.873047,4.52734 -2.605468,9.24219 4.476562,-4.35742 a 2.0908682,2.0908682 0 0 1 -0.388672,-1.15234 2.0908682,2.0908682 0 0 1 2.091797,-2.08985 2.0908682,2.0908682 0 0 1 2.089844,2.08985 2.0908682,2.0908682 0 0 1 -2.089844,2.09179 2.0908682,2.0908682 0 0 1 -0.630859,-0.16992 l -4.708985,4.58594 9.363282,-2.64258 4.529296,-7.87109 z" />
    <path
       id="path906"
       style="fill:#101010;fill-opacity:0.125623;stroke:none;stroke-width:1px;stroke-linecap:butt;stroke-linejoin:miter;stroke-opacity:1"
       d="m 25.980469,520.04883 -0.605469,3.35351 3.673828,3.70899 3.894531,-0.11524 z m 0.482422,1.54101 4.71875,4.70704 -1.830079,0.0547 -3.169921,-3.20117 z m -2.685547,2.62305 -7.873047,4.52734 -2.605469,9.24219 4.476563,-4.35742 a 2.0908682,2.0908682 0 0 1 -0.388672,-1.15234 2.0908682,2.0908682 0 0 1 2.091797,-2.08985 2.0908682,2.0908682 0 0 1 2.089843,2.08985 2.0908682,2.0908682 0 0 1 -2.089843,2.09179 2.0908682,2.0908682 0 0 1 -0.63086,-0.16992 l -4.708984,4.58594 9.363281,-2.64258 4.529297,-7.87109 z m -0.125,0.93555 3.441406,3.4414 -4.089844,7.10743 -6.222656,1.75585 2.292969,-2.23242 c 0.109489,0.0251 0.212211,0.076 0.324219,0.0879 a 0.750075,0.750075 0 0 0 0.08008,0.006 c 1.56003,-7.6e-4 2.840531,-1.28372 2.839843,-2.84375 -7.59e-4,-1.55902 -1.280817,-2.83712 -2.839843,-2.83789 -1.560037,-6.9e-4 -2.841038,1.27786 -2.841797,2.83789 a 0.750075,0.750075 0 0 0 0,0.0234 c 0.0097,0.3221 0.188033,0.59894 0.302734,0.89648 l -2.160156,2.10352 1.763672,-6.25781 z" />
    <g
       id="g910">
      <path
         style="color:#000000;fill:none;stroke-width:1.5;stroke-linecap:round;stroke-linejoin:round"
         d="m 25.979719,520.04795 -0.605469,3.35351 3.673829,3.70899 3.894531,-0.11524 z m -2.203125,4.16406 -7.873047,4.52734 -2.605468,9.24219 4.476562,-4.35742 a 2.0908682,2.0908682 0 0 1 -0.388672,-1.15234 2.0908682,2.0908682 0 0 1 2.091797,-2.08985 2.0908682,2.0908682 0 0 1 2.089844,2.08985 2.0908682,2.0908682 0 0 1 -2.089844,2.09179 2.0908682,2.0908682 0 0 1 -0.630859,-0.16992 l -4.708985,4.58594 9.363282,-2.64258 4.529296,-7.87109 z"
         id="path912" />
    </g>
    <g
       id="g921">
      <path
         id="path925"
         style="color:#000000;fill:#000000;fill-opacity:0.16549191;stroke-width:1.5;stroke-linecap:round;stroke-linejoin:round"
         d="m 26.158203,519.32031 a 0.750075,0.750075 0 0 0 -0.402344,0.0117 0.750075,0.750075 0 0 0 -0.513671,0.58203 l -0.605469,3.35352 a 0.750075,0.750075 0 0 0 0.205078,0.66211 l 3.673828,3.70898 a 0.750075,0.750075 0 0 0 0.554687,0.22071 l 3.894532,-0.11524 a 0.750075,0.750075 0 0 0 0.507812,-1.2793 l -6.96289,-6.94726 a 0.750075,0.750075 0 0 0 -0.351563,-0.19727 z m -0.177734,0.72852 6.96289,6.94726 -3.894531,0.11524 L 25.375,523.40234 Z M 23.875,523.46875 a 0.750075,0.750075 0 0 0 -0.472656,0.0937 l -7.873047,4.52734 a 0.750075,0.750075 0 0 0 -0.347656,0.44532 l -2.605469,9.24218 a 0.750075,0.750075 0 0 0 1.02539,0.76758 0.750075,0.750075 0 0 0 0.740235,1.15625 l 9.363281,-2.64258 a 0.750075,0.750075 0 0 0 0.445313,-0.34765 l 4.529297,-7.8711 a 0.750075,0.750075 0 0 0 -0.119141,-0.90429 l -4.253906,-4.25391 A 0.750075,0.750075 0 0 0 23.875,523.46875 Z m -0.09766,0.74414 4.253906,4.25391 -4.529297,7.87109 -9.363281,2.64258 4.708984,-4.58594 a 2.0908682,2.0908682 0 0 0 0.63086,0.16992 2.0908682,2.0908682 0 0 0 2.089843,-2.09179 2.0908682,2.0908682 0 0 0 -2.089843,-2.08985 2.0908682,2.0908682 0 0 0 -2.091797,2.08985 2.0908682,2.0908682 0 0 0 0.388672,1.15234 l -4.476563,4.35742 2.605469,-9.24219 z m -4.300782,6.91992 c 0.748886,3.7e-4 1.341433,0.59096 1.341797,1.33985 3.26e-4,0.73948 -0.581125,1.31631 -1.316406,1.33203 -0.120104,-0.018 -0.238561,-0.0461 -0.349609,-0.0957 a 0.750075,0.750075 0 0 0 -0.667969,0.11914 0.750075,0.750075 0 0 0 -0.09961,-0.64062 c -0.151204,-0.21162 -0.232991,-0.46306 -0.244141,-0.72266 0.0053,-0.74488 0.589713,-1.33236 1.335937,-1.33203 z" />
      <path
         style="color:#000000;fill:url(#linearGradient934);fill-opacity:1;stroke-width:1.5;stroke-linecap:round;stroke-linejoin:round"
         d="m 25.979719,520.04795 -0.605469,3.35351 3.673829,3.70899 3.894531,-0.11524 z m -2.203125,4.16406 -7.873047,4.52734 -2.605468,9.24219 4.476562,-4.35742 a 2.0908682,2.0908682 0 0 1 -0.388672,-1.15234 2.0908682,2.0908682 0 0 1 2.091797,-2.08985 2.0908682,2.0908682 0 0 1 2.089844,2.08985 2.0908682,2.0908682 0 0 1 -2.089844,2.09179 2.0908682,2.0908682 0 0 1 -0.630859,-0.16992 l -4.708985,4.58594 9.363282,-2.64258 4.529296,-7.87109 z"
         id="path923" />
    </g>
  </g>
</svg>
