<?xml version="1.0" encoding="UTF-8" standalone="no"?>
<svg
   xmlns:svg="http://www.w3.org/2000/svg"
   xmlns="http://www.w3.org/2000/svg"
   xmlns:xlink="http://www.w3.org/1999/xlink"
   xmlns:sodipodi="http://sodipodi.sourceforge.net/DTD/sodipodi-0.dtd"
   xmlns:inkscape="http://www.inkscape.org/namespaces/inkscape"
   width="22"
   height="22"
   viewBox="0 0 22 22"
   version="1.1"
   id="svg7"
   sodipodi:docname="draw-line.svg"
   inkscape:version="1.1-dev (1:0.92.0+devel+202004260039+9758c7a)">
  <sodipodi:namedview
     width="22px"
     pagecolor="#ffffff"
     bordercolor="#666666"
     borderopacity="1"
     objecttolerance="10"
     gridtolerance="10"
     guidetolerance="10"
     inkscape:pageopacity="0"
     inkscape:pageshadow="2"
     inkscape:window-width="1920"
     inkscape:window-height="1024"
     id="namedview9"
     showgrid="false"
     inkscape:zoom="23.375"
     inkscape:cx="8"
     inkscape:cy="8"
     inkscape:window-x="0"
     inkscape:window-y="30"
     inkscape:window-maximized="1"
     inkscape:current-layer="svg7" />
  <defs
     id="defs3">
    <linearGradient
       inkscape:collect="always"
       id="linearGradient832">
      <stop
         style="stop-color:#a7bcd9;stop-opacity:1"
         offset="0"
         id="stop828" />
      <stop
         style="stop-color:#93a1b4;stop-opacity:1"
         offset="1"
         id="stop830" />
    </linearGradient>
    <style
       id="current-color-scheme"
       type="text/css">
   .ColorScheme-Text { color:#5c616c; } .ColorScheme-Highlight { color:#5294e2; }
  </style>
    <linearGradient
       inkscape:collect="always"
       xlink:href="#linearGradient832"
       id="linearGradient834"
       x1="11.975828"
       y1="0.59111494"
       x2="14.900047"
       y2="5.3971639"
       gradientUnits="userSpaceOnUse"
       gradientTransform="matrix(1.2743868,0,0,1.2743868,-0.11227964,1.0870904)" />
    <linearGradient
       inkscape:collect="always"
       xlink:href="#linearGradient832"
       id="linearGradient838"
       gradientUnits="userSpaceOnUse"
       gradientTransform="matrix(1.2743868,0,0,1.2743868,-11.793939,12.755975)"
       x1="11.975828"
       y1="0.59111494"
       x2="14.900047"
       y2="5.3971639" />
  </defs>
  <g
     id="g857"
     transform="matrix(1.2743868,0,0,1.2743868,0.90488784,1.1895784)">
    <path
       id="path861"
       style="color:#000000;fill:none;stroke:#000000;stroke-width:0.8;stroke-miterlimit:4;stroke-dasharray:none;stroke-opacity:0.17"
       d="M 12.482422,0.09765625 A 3.1138153,3.1138153 0 0 0 9.3691406,3.2109375 3.1138153,3.1138153 0 0 0 10.125,5.1796875 L 9.7636719,5.5410156 8.0722656,7.2324219 6.3828125,8.921875 5.2910156,10.013672 A 3.1138153,3.1138153 0 0 0 3.3164062,9.2539062 3.1138153,3.1138153 0 0 0 0.203125,12.367188 3.1138153,3.1138153 0 0 0 3.3164062,15.480469 3.1138153,3.1138153 0 0 0 6.4296875,12.367188 3.1138153,3.1138153 0 0 0 5.9316406,10.787109 L 7.0898438,9.6289062 8.7792969,7.9394531 10.470703,6.2480469 10.894531,5.8222656 a 3.1138153,3.1138153 0 0 0 1.587891,0.5019532 3.1138153,3.1138153 0 0 0 3.113281,-3.1132813 3.1138153,3.1138153 0 0 0 -3.113281,-3.11328125 z" />
    <path
       style="color:#000000;fill:none;stroke-width:1px"
       d="M 5.0452339,10.966356 6.7358109,9.2757789 8.426388,7.5852018 10.116965,5.8946248 11.807542,4.2040477"
       id="path859" />
  </g>
  <path
     style="fill:none;stroke:#869eb6;stroke-width:1.27439px;stroke-linecap:butt;stroke-linejoin:miter;stroke-opacity:1"
     d="M 7.3344671,15.164957 9.4889161,13.010508 11.643365,10.85606 13.797814,8.7016096 15.952263,6.5471609"
     id="path840"
     sodipodi:nodetypes="ccccc" />
  <circle
     style="opacity:1;fill:url(#linearGradient834);fill-opacity:1;stroke:none;stroke-width:12.0414;stroke-linecap:round;stroke-linejoin:round;stroke-opacity:0.02"
     id="path826"
     cx="16.812883"
     cy="5.2817283"
     r="3.968205" />
  <circle
     r="3.968205"
     cy="16.950613"
     cx="5.1312232"
     id="circle836"
     style="opacity:1;fill:url(#linearGradient838);fill-opacity:1;stroke:none;stroke-width:12.0414;stroke-linecap:round;stroke-linejoin:round;stroke-opacity:0.02" />
</svg>
