<?xml version="1.0" encoding="UTF-8" standalone="no"?>
<svg
   viewBox="0 0 22 22"
   version="1.1"
   id="svg6"
   sodipodi:docname="gtk-media-next-rtl.svg"
   inkscape:version="1.1.2 (0a00cf5339, 2022-02-04)"
   xmlns:inkscape="http://www.inkscape.org/namespaces/inkscape"
   xmlns:sodipodi="http://sodipodi.sourceforge.net/DTD/sodipodi-0.dtd"
   xmlns="http://www.w3.org/2000/svg"
   xmlns:svg="http://www.w3.org/2000/svg">
  <sodipodi:namedview
     id="namedview8"
     pagecolor="#ffffff"
     bordercolor="#666666"
     borderopacity="1.0"
     inkscape:pageshadow="2"
     inkscape:pageopacity="0.0"
     inkscape:pagecheckerboard="0"
     showgrid="false"
     inkscape:zoom="28.863636"
     inkscape:cx="11"
     inkscape:cy="11"
     inkscape:window-width="1920"
     inkscape:window-height="1028"
     inkscape:window-x="0"
     inkscape:window-y="26"
     inkscape:window-maximized="1"
     inkscape:current-layer="svg6" />
  <defs
     id="defs3051">
    <style
       type="text/css"
       id="current-color-scheme">
      .ColorScheme-Text {
        color:#4d4d4d
      }
      </style>
  </defs>
  <path
     id="path32"
     style="color:#363636;opacity:0.7;fill:currentColor;fill-opacity:1;stroke-width:1.05475"
     class="ColorScheme-Text"
     d="m 11.961479,5.6274344 c -0.218896,5.127e-4 -0.42332,0.064594 -0.611849,0.1957077 L 4.907729,10.262637 c -0.202821,0.142912 -0.3439065,0.333677 -0.4223179,0.566524 -0.078369,0.232872 -0.078369,0.465296 0,0.700432 0.078369,0.232831 0.223273,0.423841 0.4284988,0.564464 l 6.4357201,4.437434 c 0.232829,0.158942 0.485319,0.222032 0.764294,0.187468 0.278954,-0.03459 0.511646,-0.156902 0.698371,-0.366696 0.186694,-0.209784 0.280178,-0.456261 0.280178,-0.737511 v -0.780775 l 2.461803,1.697514 c 0.232829,0.158942 0.487376,0.222032 0.766351,0.187468 0.278954,-0.03459 0.509589,-0.156902 0.696315,-0.366696 0.186651,-0.209784 0.280167,-0.456261 0.280167,-0.737511 V 6.7398827 c 0,-0.2812503 -0.09345,-0.5277186 -0.280167,-0.7375126 -0.186736,-0.2097614 -0.41734,-0.3300733 -0.696315,-0.3646359 -0.05221,-0.00654 -0.104,-0.010442 -0.154502,-0.010337 -0.218896,5.126e-4 -0.423288,0.064594 -0.611849,0.1957077 L 13.092473,7.5206196 V 6.7398457 c 0,-0.2812502 -0.09345,-0.5277185 -0.280178,-0.7375125 -0.186735,-0.2097614 -0.419396,-0.3300733 -0.698371,-0.3646359 -0.05221,-0.00654 -0.101996,-0.010442 -0.152445,-0.010337 z"
     sodipodi:nodetypes="sccsccccssccscssccsccsccs" />
</svg>
