<?xml version="1.0" encoding="UTF-8" standalone="no"?>
<svg
   viewBox="0 0 22 22"
   version="1.1"
   id="svg6"
   sodipodi:docname="gtk-media-pause.svg"
   inkscape:version="1.1.2 (0a00cf5339, 2022-02-04)"
   xmlns:inkscape="http://www.inkscape.org/namespaces/inkscape"
   xmlns:sodipodi="http://sodipodi.sourceforge.net/DTD/sodipodi-0.dtd"
   xmlns="http://www.w3.org/2000/svg"
   xmlns:svg="http://www.w3.org/2000/svg">
  <sodipodi:namedview
     id="namedview8"
     pagecolor="#ffffff"
     bordercolor="#666666"
     borderopacity="1.0"
     inkscape:pageshadow="2"
     inkscape:pageopacity="0.0"
     inkscape:pagecheckerboard="0"
     showgrid="false"
     inkscape:zoom="28.863636"
     inkscape:cx="11"
     inkscape:cy="11"
     inkscape:window-width="1920"
     inkscape:window-height="1028"
     inkscape:window-x="0"
     inkscape:window-y="26"
     inkscape:window-maximized="1"
     inkscape:current-layer="svg6" />
  <defs
     id="defs3051">
    <style
       type="text/css"
       id="current-color-scheme">
      .ColorScheme-Text {
        color:#4d4d4d
      }
      </style>
  </defs>
  <path
     id="path7"
     style="color:#363636;opacity:0.7;fill:currentColor;fill-opacity:1;stroke:none;stroke-width:0.999983;stroke-opacity:1"
     class="ColorScheme-Text"
     d="m 7.4825639,6.1359428 c -0.5815223,0.029287 -1.0410156,0.508605 -1.0410156,1.097656 v 7.8046872 c 0,0.608052 0.4896043,1.097657 1.0976562,1.097657 h 1.0175778 c 0.608052,-1e-6 1.0976572,-0.489605 1.0976572,-1.097657 V 7.2335988 c 0,-0.608052 -0.4896052,-1.097656 -1.0976572,-1.097656 H 7.5392045 c -0.019002,0 -0.037882,-9.45e-4 -0.056641,0 z m 5.7324211,0 c -0.581522,0.02929 -1.041015,0.508605 -1.041015,1.097656 v 7.8046872 c 0,0.608052 0.489604,1.097657 1.097656,1.097657 h 1.015625 c 0.608052,-1e-6 1.097656,-0.489605 1.097656,-1.097657 V 7.2335988 c 0,-0.608052 -0.489604,-1.097656 -1.097656,-1.097656 h -1.015625 c -0.019,0 -0.03788,-9.45e-4 -0.05664,0 z"
     sodipodi:nodetypes="cssssssssccssssssssc" />
</svg>
