<?xml version="1.0" encoding="UTF-8" standalone="no"?>
<svg
   viewBox="0 0 22 22"
   version="1.1"
   id="svg6"
   sodipodi:docname="gtk-media-play-ltr.svg"
   inkscape:version="1.1.2 (0a00cf5339, 2022-02-04)"
   xmlns:inkscape="http://www.inkscape.org/namespaces/inkscape"
   xmlns:sodipodi="http://sodipodi.sourceforge.net/DTD/sodipodi-0.dtd"
   xmlns="http://www.w3.org/2000/svg"
   xmlns:svg="http://www.w3.org/2000/svg">
  <sodipodi:namedview
     id="namedview8"
     pagecolor="#ffffff"
     bordercolor="#666666"
     borderopacity="1.0"
     inkscape:pageshadow="2"
     inkscape:pageopacity="0.0"
     inkscape:pagecheckerboard="0"
     showgrid="false"
     inkscape:zoom="28.863636"
     inkscape:cx="11"
     inkscape:cy="11"
     inkscape:window-width="1920"
     inkscape:window-height="1028"
     inkscape:window-x="0"
     inkscape:window-y="26"
     inkscape:window-maximized="1"
     inkscape:current-layer="svg6" />
  <defs
     id="defs3051">
    <style
       type="text/css"
       id="current-color-scheme">
      .ColorScheme-Text {
        color:#4d4d4d
      }
      </style>
  </defs>
  <path
     id="path12"
     style="color:#363636;opacity:0.7;fill:currentColor;fill-opacity:1;stroke-width:0.999983"
     class="ColorScheme-Text"
     d="m 7.3588549,4.1609206 c -0.06343,-1.542e-4 -0.127856,0.00535 -0.193359,0.013672 -0.35027,0.043427 -0.64052,0.1955814 -0.875,0.4589844 -0.234474,0.2634206 -0.353516,0.5726265 -0.353516,0.9257815 V 16.701936 c 0,0.353157 0.119046,0.664314 0.353516,0.927734 0.234473,0.263425 0.524723,0.415553 0.875,0.458984 0.35027,0.04343 0.668583,-0.03469 0.960937,-0.234374 l 8.0820321,-5.572266 c 0.257687,-0.176583 0.438751,-0.416623 0.537109,-0.708984 0.09846,-0.29526 0.09846,-0.586498 0,-0.878907 -0.09846,-0.292364 -0.27656,-0.531486 -0.53125,-0.7109365 L 8.1264329,4.4070144 C 7.8896839,4.2423788 7.6337189,4.1615889 7.3588549,4.1609206 Z"
     sodipodi:nodetypes="sccssssccccccs" />
</svg>
