<?xml version="1.0" encoding="UTF-8" standalone="no"?>
<svg
   xmlns:dc="http://purl.org/dc/elements/1.1/"
   xmlns:cc="http://creativecommons.org/ns#"
   xmlns:rdf="http://www.w3.org/1999/02/22-rdf-syntax-ns#"
   xmlns:svg="http://www.w3.org/2000/svg"
   xmlns="http://www.w3.org/2000/svg"
   xmlns:sodipodi="http://sodipodi.sourceforge.net/DTD/sodipodi-0.dtd"
   xmlns:inkscape="http://www.inkscape.org/namespaces/inkscape"
   width="22"
   height="22"
   viewBox="0 0 5.8208332 5.8208335"
   version="1.1"
   id="svg8"
   inkscape:version="1.0.1 (3bc2e813f5, 2020-09-07)"
   sodipodi:docname="window-symbolic.svg">
  <defs
     id="defs2" />
  <sodipodi:namedview
     id="base"
     pagecolor="#ffffff"
     bordercolor="#666666"
     borderopacity="1.0"
     inkscape:pageopacity="0.0"
     inkscape:pageshadow="2"
     inkscape:zoom="22.627417"
     inkscape:cx="12.657922"
     inkscape:cy="12.276628"
     inkscape:document-units="mm"
     inkscape:current-layer="layer1"
     inkscape:document-rotation="0"
     showgrid="true"
     units="px"
     showguides="true"
     inkscape:guide-bbox="true"
     objecttolerance="10000"
     guidetolerance="10000"
     inkscape:snap-path-clip="false"
     inkscape:window-width="1920"
     inkscape:window-height="1031"
     inkscape:window-x="0"
     inkscape:window-y="24"
     inkscape:window-maximized="1">
    <inkscape:grid
       type="xygrid"
       id="grid835" />
  </sodipodi:namedview>
  <metadata
     id="metadata5">
    <rdf:RDF>
      <cc:Work
         rdf:about="">
        <dc:format>image/svg+xml</dc:format>
        <dc:type
           rdf:resource="http://purl.org/dc/dcmitype/StillImage" />
        <dc:title />
      </cc:Work>
    </rdf:RDF>
  </metadata>
  <g
     inkscape:label="Capa 1"
     inkscape:groupmode="layer"
     id="layer1">
    <path
       id="rect838"
       style="fill:#1a1a1a;stroke-width:1.88976;stroke-linecap:round;stroke-linejoin:round;paint-order:stroke markers fill;fill-opacity:1"
       d="M 4 2 C 2.8920001 2 2 2.8920001 2 4 L 2 17 C 2 18.108 2.8920001 19 4 19 L 18 19 C 19.108 19 20 18.108 20 17 L 20 4 C 20 2.8920001 19.108 2 18 2 L 4 2 z M 5 4 L 17 4 C 17.554 4 18 4.4459999 18 5 L 18 8 L 4 8 L 4 5 C 4 4.4459999 4.4459999 4 5 4 z M 5 5 L 5 7 L 7 7 L 7 5 L 5 5 z M 8 5 L 8 7 L 10 7 L 10 5 L 8 5 z M 11 5 L 11 7 L 13 7 L 13 5 L 11 5 z M 4 10 L 18 10 L 18 16 C 18 16.554 17.554 17 17 17 L 5 17 C 4.4459999 17 4 16.554 4 16 L 4 10 z "
       transform="scale(0.26458333)" />
  </g>
</svg>
