<?xml version="1.0" encoding="UTF-8" standalone="no"?>
<svg
   xmlns:dc="http://purl.org/dc/elements/1.1/"
   xmlns:cc="http://creativecommons.org/ns#"
   xmlns:rdf="http://www.w3.org/1999/02/22-rdf-syntax-ns#"
   xmlns:svg="http://www.w3.org/2000/svg"
   xmlns="http://www.w3.org/2000/svg"
   xmlns:sodipodi="http://sodipodi.sourceforge.net/DTD/sodipodi-0.dtd"
   xmlns:inkscape="http://www.inkscape.org/namespaces/inkscape"
   width="16"
   height="16"
   viewBox="0 0 4.2333333 4.2333335"
   version="1.1"
   id="svg8"
   inkscape:version="1.0.1 (3bc2e813f5, 2020-09-07)"
   sodipodi:docname="wired.svg">
  <defs
     id="defs2" />
  <sodipodi:namedview
     id="base"
     pagecolor="#ffffff"
     bordercolor="#666666"
     borderopacity="1.0"
     inkscape:pageopacity="0.0"
     inkscape:pageshadow="2"
     inkscape:zoom="15.839192"
     inkscape:cx="14.309558"
     inkscape:cy="12.491571"
     inkscape:document-units="mm"
     inkscape:current-layer="layer1"
     showgrid="false"
     units="px"
     inkscape:window-width="1920"
     inkscape:window-height="948"
     inkscape:window-x="0"
     inkscape:window-y="27"
     inkscape:window-maximized="1"
     inkscape:document-rotation="0" />
  <metadata
     id="metadata5">
    <rdf:RDF>
      <cc:Work
         rdf:about="">
        <dc:format>image/svg+xml</dc:format>
        <dc:type
           rdf:resource="http://purl.org/dc/dcmitype/StillImage" />
        <dc:title></dc:title>
      </cc:Work>
    </rdf:RDF>
  </metadata>
  <g
     inkscape:label="Capa 1"
     inkscape:groupmode="layer"
     id="layer1"
     transform="translate(0,-290.64998)">
    <path
       style="opacity:1;fill:#f5f5f5;fill-opacity:1;fill-rule:evenodd;stroke:none;stroke-width:0.601921;stroke-linecap:round;stroke-linejoin:round;stroke-miterlimit:4;stroke-dasharray:none;stroke-dashoffset:0;stroke-opacity:1"
       d="m 0.52543901,291.29271 c -0.27079258,0 -0.48856697,0.21778 -0.48856697,0.48859 v 2.07963 c 0,0.27079 0.21777439,0.48857 0.48856697,0.48857 H 3.6983379 c 0.2707927,0 0.4885671,-0.21778 0.4885671,-0.48857 v -2.07963 c 0,-0.27081 -0.2177744,-0.48859 -0.4885671,-0.48859 z m 0.37617795,0.52526 H 3.3221598 c 0.1646675,0 0.2972271,0.13256 0.2972271,0.2972 v 0.40359 0.32882 0.0742 c 0,0.12351 -0.099412,0.22293 -0.2229202,0.22293 h -0.069199 v 0.0534 c 0,0.17642 -0.1417006,0.31811 -0.3181257,0.31811 H 2.939943 v 0.0213 c 0,0.15878 -0.1277627,0.28654 -0.2865458,0.28654 H 1.5703779 c -0.1587826,0 -0.2865453,-0.12776 -0.2865453,-0.28654 v -0.0213 h -0.068734 c -0.1764256,0 -0.3185904,-0.14169 -0.3185904,-0.31811 v -0.0534 H 0.8273098 c -0.12350772,0 -0.22292018,-0.0995 -0.22292018,-0.22293 v -0.0742 -0.32882 -0.40359 c 3.2e-7,-0.16464 0.13255912,-0.2972 0.29722734,-0.2972 z m 0.52014724,0.19134 c -0.1087966,0 -0.1964483,0.0876 -0.1964483,0.19645 v 0.24381 c 0,0.10886 0.087652,0.19645 0.1964483,0.19645 0.1087967,0 0.1964487,-0.0876 0.1964487,-0.19645 v -0.24381 c 0,-0.10887 -0.087651,-0.19645 -0.1964487,-0.19645 z m 0.6901242,0 c -0.1087956,0 -0.1964486,0.0876 -0.1964486,0.19645 v 0.24381 c 0,0.10886 0.087652,0.19645 0.1964486,0.19645 0.1087966,0 0.1959842,-0.0876 0.1959842,-0.19645 v -0.24381 c 0,-0.10887 -0.087189,-0.19645 -0.1959842,-0.19645 z m 0.6896598,0 c -0.1087955,0 -0.1964485,0.0876 -0.1964485,0.19645 v 0.24381 c 0,0.10886 0.087651,0.19645 0.1964485,0.19645 0.1087956,0 0.1964487,-0.0876 0.1964487,-0.19645 v -0.24381 c 0,-0.10887 -0.087652,-0.19645 -0.1964487,-0.19645 z"
       id="rect815"
       inkscape:connector-curvature="0" />
  </g>
</svg>
