<?xml version="1.0" encoding="UTF-8" standalone="no"?>
<!-- Created with Inkscape (http://www.inkscape.org/) -->

<svg
   xmlns:dc="http://purl.org/dc/elements/1.1/"
   xmlns:cc="http://creativecommons.org/ns#"
   xmlns:rdf="http://www.w3.org/1999/02/22-rdf-syntax-ns#"
   xmlns:svg="http://www.w3.org/2000/svg"
   xmlns="http://www.w3.org/2000/svg"
   xmlns:sodipodi="http://sodipodi.sourceforge.net/DTD/sodipodi-0.dtd"
   xmlns:inkscape="http://www.inkscape.org/namespaces/inkscape"
   id="svg7384"
   style="enable-background:new"
   height="16.02"
   width="16"
   version="1.1"
   inkscape:version="0.92.5 (2060ec1f9f, 2020-04-08)"
   sodipodi:docname="bluetooth-disabled-symbolic.svg.svg">
  <sodipodi:namedview
     pagecolor="#ffffff"
     bordercolor="#666666"
     borderopacity="1"
     objecttolerance="10"
     gridtolerance="10"
     guidetolerance="10"
     inkscape:pageopacity="0"
     inkscape:pageshadow="2"
     inkscape:window-width="1920"
     inkscape:window-height="1019"
     id="namedview10"
     showgrid="false"
     inkscape:zoom="45.254834"
     inkscape:cx="10.033894"
     inkscape:cy="7.5509814"
     inkscape:window-x="0"
     inkscape:window-y="30"
     inkscape:window-maximized="1"
     inkscape:current-layer="svg7384" />
  <metadata
     id="metadata90">
    <rdf:RDF>
      <cc:Work
         rdf:about="">
        <dc:format>image/svg+xml</dc:format>
        <dc:type
           rdf:resource="http://purl.org/dc/dcmitype/StillImage" />
        <dc:title>Paper Symbolic Icon Theme</dc:title>
      </cc:Work>
    </rdf:RDF>
  </metadata>
  <title
     id="title8473">Paper Symbolic Icon Theme</title>
  <defs
     id="defs7386">
    <filter
       id="filter7554"
       color-interpolation-filters="sRGB">
      <feBlend
         id="feBlend7556"
         in2="BackgroundImage"
         mode="darken" />
    </filter>
  </defs>
  <path
     style="opacity:0.5;fill:#f5f5f5;fill-opacity:1;stroke:none;stroke-width:1.22492909;stroke-linecap:round;stroke-linejoin:round;stroke-miterlimit:4;stroke-dasharray:none;stroke-opacity:1"
     d="M 6.986317,3.3747511 A 0.61252577,0.61252577 0 0 0 6.4097392,3.9872157 V 6.9658029 L 5.2996472,6.0614608 A 0.61252577,0.61252577 0 0 0 4.9048945,5.9179144 0.61252577,0.61252577 0 0 0 4.5268892,7.0112592 l 1.736911,1.4139319 -1.736911,1.4139314 a 0.61252577,0.61252577 0 1 0 0.772758,0.9497995 l 1.110092,-0.9043435 v 2.9857665 a 0.61252577,0.61252577 0 0 0 0.9785078,0.49045 l 2.918777,-2.169943 a 0.61252577,0.61252577 0 0 0 0,-0.983294 L 7.9145836,8.4299759 10.307024,6.6500008 a 0.61252577,0.61252577 0 0 0 0,-0.9832927 L 7.388247,3.4967655 A 0.61252577,0.61252577 0 0 0 6.986317,3.3747511 Z m 0.619642,1.8110767 a 0.19263584,0.19263584 0 0 1 0.011967,0 0.19263584,0.19263584 0 0 1 0.1483313,0.069381 l 1.1459784,0.8780248 a 0.19263584,0.19263584 0 0 0 0.00239,0.00239 l 0.00239,0.00239 a 0.19263584,0.19263584 0 0 1 0.086127,0.1602934 0.19263584,0.19263584 0 0 1 -0.078951,0.153116 v 0.00239 a 0.19263584,0.19263584 0 0 1 -0.00479,0.00239 L 7.742328,7.3605555 h -0.00239 a 0.19263584,0.19263584 0 0 1 -0.122014,0.043063 0.19263584,0.19263584 0 0 1 -0.1913951,-0.1722557 0.19263584,0.19263584 0 0 1 0,-0.01914 0.19263584,0.19263584 0 0 1 0,-0.021532 V 5.4178945 l 0.00479,-0.00239 a 0.19263584,0.19263584 0 0 1 -0.00479,-0.035886 0.19263584,0.19263584 0 0 1 0.179433,-0.1937876 z m 0,4.268112 a 0.19263584,0.19263584 0 0 1 0.011967,0 0.19263584,0.19263584 0 0 1 0.1483313,0.069382 l 1.1459784,0.8780252 a 0.19263584,0.19263584 0 0 0 0.00239,0.0024 l 0.00239,0.0024 a 0.19263584,0.19263584 0 0 1 0.086127,0.160293 0.19263584,0.19263584 0 0 1 -0.078951,0.153116 v 0.0024 a 0.19263584,0.19263584 0 0 1 -0.00479,0.0024 L 7.742321,11.628831 h -0.00239 a 0.19263584,0.19263584 0 0 1 -0.122014,0.04306 0.19263584,0.19263584 0 0 1 -0.1913951,-0.172256 0.19263584,0.19263584 0 0 1 0,-0.01915 0.19263584,0.19263584 0 0 1 0,-0.02154 V 9.6861455 l 0.00479,-0.0024 a 0.19263584,0.19263584 0 0 1 -0.00479,-0.03589 0.19263584,0.19263584 0 0 1 0.179433,-0.1937881 z"
     id="path825"
     inkscape:connector-curvature="0" />
</svg>
