<?xml version="1.0" encoding="UTF-8" standalone="no"?>
<svg
   xmlns:dc="http://purl.org/dc/elements/1.1/"
   xmlns:cc="http://creativecommons.org/ns#"
   xmlns:rdf="http://www.w3.org/1999/02/22-rdf-syntax-ns#"
   xmlns:svg="http://www.w3.org/2000/svg"
   xmlns="http://www.w3.org/2000/svg"
   xmlns:sodipodi="http://sodipodi.sourceforge.net/DTD/sodipodi-0.dtd"
   xmlns:inkscape="http://www.inkscape.org/namespaces/inkscape"
   viewBox="0 0 22 22"
   version="1.1"
   id="svg4"
   sodipodi:docname="camera-ready.svg"
   inkscape:version="0.92.5 (2060ec1f9f, 2020-04-08)">
  <metadata
     id="metadata10">
    <rdf:RDF>
      <cc:Work
         rdf:about="">
        <dc:format>image/svg+xml</dc:format>
        <dc:type
           rdf:resource="http://purl.org/dc/dcmitype/StillImage" />
      </cc:Work>
    </rdf:RDF>
  </metadata>
  <defs
     id="defs8" />
  <sodipodi:namedview
     pagecolor="#ffffff"
     bordercolor="#666666"
     borderopacity="1"
     objecttolerance="10"
     gridtolerance="10"
     guidetolerance="10"
     inkscape:pageopacity="0"
     inkscape:pageshadow="2"
     inkscape:window-width="1920"
     inkscape:window-height="1019"
     id="namedview6"
     showgrid="false"
     inkscape:zoom="10.727273"
     inkscape:cx="11"
     inkscape:cy="11"
     inkscape:window-x="0"
     inkscape:window-y="30"
     inkscape:window-maximized="1"
     inkscape:current-layer="svg4" />
  <path
     d="M11 3.089844A7.910653 7.910654 0 0 0 3.089844 11 7.910653 7.910654 0 0 0 11 18.910156 7.910653 7.910654 0 0 0 18.910156 11 7.910653 7.910654 0 0 0 11 3.089844zM11 3.963C11.414 3.963 11.75 4.299 11.75 4.713 11.75 5.126 11.414 5.463 11 5.463 10.586 5.463 10.25 5.126 10.25 4.713 10.25 4.299 10.586 3.963 11 3.963zM10.998 6C13.755 6 16 8.244 16 11 16 13.757 13.755 16 10.998 16 8.241 16 6 13.757 6 11 6 8.244 8.241 6 10.998 6zM11 7.5C9.07 7.5 7.5 9.07 7.5 11 7.5 12.93 9.07 14.5 11 14.5 12.93 14.5 14.5 12.93 14.5 11 14.5 9.07 12.93 7.5 11 7.5z"
     transform="translate(0-.002)"
     fill-rule="evenodd"
     stroke="#4d4d4d"
     stroke-linecap="round"
     stroke-width=".179"
     fill="#4d4d4d"
     id="path2"
     style="fill:#f5f5f5;fill-opacity:1;stroke:none" />
</svg>
