<?xml version="1.0" encoding="UTF-8" standalone="no"?>
<!-- Created with Inkscape (http://www.inkscape.org/) -->

<svg
   xmlns:dc="http://purl.org/dc/elements/1.1/"
   xmlns:cc="http://creativecommons.org/ns#"
   xmlns:rdf="http://www.w3.org/1999/02/22-rdf-syntax-ns#"
   xmlns:svg="http://www.w3.org/2000/svg"
   xmlns="http://www.w3.org/2000/svg"
   xmlns:sodipodi="http://sodipodi.sourceforge.net/DTD/sodipodi-0.dtd"
   xmlns:inkscape="http://www.inkscape.org/namespaces/inkscape"
   width="24"
   height="24"
   viewBox="0 0 6.3499999 6.3500002"
   version="1.1"
   id="svg8"
   inkscape:version="0.92.5 (2060ec1f9f, 2020-04-08)"
   sodipodi:docname="gnome-netstatus-txrx.svg">
  <defs
     id="defs2" />
  <sodipodi:namedview
     id="base"
     pagecolor="#ffffff"
     bordercolor="#666666"
     borderopacity="1.0"
     inkscape:pageopacity="0.0"
     inkscape:pageshadow="2"
     inkscape:zoom="11.2"
     inkscape:cx="19.015995"
     inkscape:cy="8.8656625"
     inkscape:document-units="mm"
     inkscape:current-layer="layer1"
     showgrid="false"
     units="px"
     inkscape:window-width="1920"
     inkscape:window-height="1025"
     inkscape:window-x="0"
     inkscape:window-y="30"
     inkscape:window-maximized="1" />
  <metadata
     id="metadata5">
    <rdf:RDF>
      <cc:Work
         rdf:about="">
        <dc:format>image/svg+xml</dc:format>
        <dc:type
           rdf:resource="http://purl.org/dc/dcmitype/StillImage" />
        <dc:title></dc:title>
      </cc:Work>
    </rdf:RDF>
  </metadata>
  <g
     inkscape:label="Capa 1"
     inkscape:groupmode="layer"
     id="layer1"
     transform="translate(0,-290.64998)">
    <path
       style="opacity:1;fill:#f5f5f5;fill-opacity:1;fill-rule:evenodd;stroke:none;stroke-width:0.8f5f5f51;stroke-linecap:round;stroke-linejoin:round;stroke-miterlimit:4;stroke-dasharray:none;stroke-dashoffset:0;stroke-opacity:1"
       d="m 1.7209728,292.36985 c -0.1210589,0 -0.2185913,0.0975 -0.2185913,0.21859 v 1.62625 H 1.0031872 c -0.16588285,9.4e-4 -0.25563343,0.21873 -0.14934491,0.36174 l 1.05419911,1.41025 c 0.078331,0.10373 0.2208751,0.10373 0.2992066,0 l 1.0536823,-1.41025 c 0.1062887,-0.14301 0.016538,-0.3608 -0.1493448,-0.36174 H 2.6123912 v -1.62625 c 0,-0.12106 -0.097016,-0.21859 -0.2180745,-0.21859 z"
       id="rect840"
       inkscape:connector-curvature="0" />
    <path
       id="path850"
       d="m 3.98883,295.35577 c -0.1210589,0 -0.2185913,-0.0975 -0.2185913,-0.21859 v -1.62626 H 3.2710443 c -0.1658828,-9.4e-4 -0.2556334,-0.21873 -0.1493449,-0.36174 l 1.0541992,-1.41025 c 0.078331,-0.10373 0.2208751,-0.10373 0.2992066,0 l 1.0536823,1.41025 c 0.1062887,0.14301 0.016538,0.3608 -0.1493449,0.36174 H 4.8802484 v 1.62626 c 0,0.12105 -0.097016,0.21859 -0.2180745,0.21859 z"
       style="opacity:1;fill:#f5f5f5;fill-opacity:1;fill-rule:evenodd;stroke:none;stroke-width:0.8f5f5f51;stroke-linecap:round;stroke-linejoin:round;stroke-miterlimit:4;stroke-dasharray:none;stroke-dashoffset:0;stroke-opacity:1"
       inkscape:connector-curvature="0" />
  </g>
</svg>
