<?xml version="1.0" encoding="UTF-8" standalone="no"?>
<svg
   xmlns:dc="http://purl.org/dc/elements/1.1/"
   xmlns:cc="http://creativecommons.org/ns#"
   xmlns:rdf="http://www.w3.org/1999/02/22-rdf-syntax-ns#"
   xmlns:svg="http://www.w3.org/2000/svg"
   xmlns="http://www.w3.org/2000/svg"
   xmlns:sodipodi="http://sodipodi.sourceforge.net/DTD/sodipodi-0.dtd"
   xmlns:inkscape="http://www.inkscape.org/namespaces/inkscape"
   width="24"
   height="24"
   viewBox="0 0 6.3499999 6.3500002"
   version="1.1"
   id="svg51"
   inkscape:version="1.0.1 (3bc2e813f5, 2020-09-07)"
   sodipodi:docname="network-wired-symbolic-alt.svg">
  <defs
     id="defs45" />
  <sodipodi:namedview
     id="base"
     pagecolor="#ffffff"
     bordercolor="#666666"
     borderopacity="1.0"
     inkscape:pageopacity="0.0"
     inkscape:pageshadow="2"
     inkscape:zoom="3.959798"
     inkscape:cx="-1.3460959"
     inkscape:cy="14.087139"
     inkscape:document-units="mm"
     inkscape:current-layer="layer1"
     inkscape:document-rotation="0"
     showgrid="false"
     units="px"
     showguides="true"
     inkscape:guide-bbox="true"
     inkscape:window-width="1514"
     inkscape:window-height="948"
     inkscape:window-x="118"
     inkscape:window-y="27"
     inkscape:window-maximized="0" />
  <metadata
     id="metadata48">
    <rdf:RDF>
      <cc:Work
         rdf:about="">
        <dc:format>image/svg+xml</dc:format>
        <dc:type
           rdf:resource="http://purl.org/dc/dcmitype/StillImage" />
        <dc:title></dc:title>
      </cc:Work>
    </rdf:RDF>
  </metadata>
  <g
     inkscape:label="Capa 1"
     inkscape:groupmode="layer"
     id="layer1">
    <g
       id="g65"
       style="opacity:1;fill:#202020;fill-opacity:1"
       transform="matrix(0.85552088,0,0,1.0921274,0.00111035,-0.31852706)">
      <path
         id="path69"
         style="color:#000000;font-style:normal;font-variant:normal;font-weight:normal;font-stretch:normal;font-size:medium;line-height:normal;font-family:sans-serif;font-variant-ligatures:normal;font-variant-position:normal;font-variant-caps:normal;font-variant-numeric:normal;font-variant-alternates:normal;font-variant-east-asian:normal;font-feature-settings:normal;font-variation-settings:normal;text-indent:0;text-align:start;text-decoration:none;text-decoration-line:none;text-decoration-style:solid;text-decoration-color:#000000;letter-spacing:normal;word-spacing:normal;text-transform:none;writing-mode:lr-tb;direction:ltr;text-orientation:mixed;dominant-baseline:auto;baseline-shift:baseline;text-anchor:start;white-space:normal;shape-padding:0;shape-margin:0;inline-size:0;clip-rule:nonzero;display:inline;overflow:visible;visibility:visible;isolation:auto;mix-blend-mode:normal;color-interpolation:sRGB;color-interpolation-filters:linearRGB;solid-color:#000000;solid-opacity:1;vector-effect:none;fill:#202020;fill-opacity:1;fill-rule:nonzero;stroke:none;stroke-width:0.96661;stroke-linecap:butt;stroke-linejoin:miter;stroke-miterlimit:4;stroke-dasharray:none;stroke-dashoffset:0;stroke-opacity:1;color-rendering:auto;image-rendering:auto;shape-rendering:auto;text-rendering:auto;enable-background:accumulate;stop-color:#000000;stop-opacity:1"
         d="M 6.140625 5.8339844 C 5.7272876 5.860985 5.332926 5.9545139 4.9199219 6.2207031 L 3.6992188 7.1289062 C 2.5297667 7.9993867 1.3066406 8.7171221 1.3066406 10.580078 L 1.3066406 15.521484 C 1.3066406 17.38444 2.5310594 18.099352 3.6992188 18.972656 L 5.0097656 19.953125 C 5.6528025 20.427059 6.8156113 20.316406 7.4707031 20.316406 L 20.101562 20.316406 C 21.363008 20.316406 22.378906 19.020473 22.378906 17.410156 L 22.378906 8.7519531 C 22.378906 7.141637 21.363008 5.84375 20.101562 5.84375 L 7.4707031 5.84375 C 6.9852471 5.8454545 6.5539624 5.8069837 6.140625 5.8339844 z M 4.7636719 8.2089844 L 5.5917969 8.2089844 C 6.1825291 8.2089844 6.6582031 8.6846588 6.6582031 9.2753906 L 6.6582031 16.876953 C 6.6582031 17.467685 6.1825291 17.943359 5.5917969 17.943359 L 4.7636719 17.943359 C 4.17294 17.943359 3.6972656 17.467685 3.6972656 16.876953 L 3.6972656 9.2753906 C 3.6972656 8.6846588 4.17294 8.2089844 4.7636719 8.2089844 z M 8.9765625 9.2773438 C 9.6575907 9.2773436 10.207031 9.824832 10.207031 10.505859 L 10.207031 15.646484 C 10.207031 16.327513 9.6575907 16.876952 8.9765625 16.876953 C 8.295534 16.876953 7.7480469 16.327513 7.7480469 15.646484 L 7.7480469 10.505859 C 7.7480469 9.824832 8.295534 9.2773438 8.9765625 9.2773438 z M 12.650391 9.2773438 C 13.331419 9.2773436 13.880859 9.824832 13.880859 10.505859 L 13.880859 15.646484 C 13.880859 16.327513 13.331419 16.876952 12.650391 16.876953 C 11.969363 16.876953 11.421875 16.327513 11.421875 15.646484 L 11.421875 10.505859 C 11.421875 9.824832 11.969363 9.2773438 12.650391 9.2773438 z M 16.324219 9.2773438 C 17.005247 9.2773436 17.554687 9.824832 17.554688 10.505859 L 17.554688 15.646484 C 17.554688 16.327513 17.005247 16.876952 16.324219 16.876953 C 15.643191 16.876953 15.095703 16.327513 15.095703 15.646484 L 15.095703 10.505859 C 15.095703 9.824832 15.643191 9.2773438 16.324219 9.2773438 z M 19.998047 9.2773438 C 20.679075 9.2773436 21.228516 9.824832 21.228516 10.505859 L 21.228516 15.646484 C 21.228516 16.327513 20.679075 16.876952 19.998047 16.876953 C 19.317019 16.876953 18.769531 16.327513 18.769531 15.646484 L 18.769531 10.505859 C 18.769531 9.824832 19.317019 9.2773438 19.998047 9.2773438 z "
         transform="matrix(0.30926578,0,0,0.24226417,-0.00129786,0.29165742)" />
    </g>
    <path
       id="rect900"
       style="opacity:1;fill:#202020;fill-opacity:0.40000001;stroke:none;stroke-width:0.264583;stroke-opacity:1"
       d="m 2.3752559,2.454414 c -0.1801888,0 -0.3250448,0.1448562 -0.3250448,0.3250448 v 1.3601237 c 0,0.1801887 0.144856,0.3255616 0.3250448,0.3255616 0.1801887,-3e-7 0.3255614,-0.1453729 0.3255614,-0.3255616 V 2.7794588 c 0,-0.1801886 -0.1453727,-0.3250448 -0.3255614,-0.3250448 z m 0.9720337,0 c -0.1801886,0 -0.3250448,0.1448562 -0.3250448,0.3250448 v 1.3601237 c 0,0.1801887 0.1448562,0.3255616 0.3250448,0.3255616 0.1801887,-3e-7 0.3255614,-0.1453729 0.3255614,-0.3255616 V 2.7794588 c 0,-0.1801886 -0.1453727,-0.3250448 -0.3255614,-0.3250448 z m 0.9720337,0 c -0.1801887,0 -0.3250449,0.1448562 -0.3250449,0.3250448 v 1.3601237 c 0,0.1801887 0.1448562,0.3255616 0.3250449,0.3255616 0.1801886,-3e-7 0.3255616,-0.1453729 0.3255616,-0.3255616 V 2.7794588 c 0,-0.1801886 -0.145373,-0.3250448 -0.3255616,-0.3250448 z m 0.9720336,0 c -0.1801886,0 -0.3250448,0.1448562 -0.3250448,0.3250448 v 1.3601237 c 0,0.1801887 0.1448562,0.3255616 0.3250448,0.3255616 0.1801887,-3e-7 0.3255616,-0.1453729 0.3255616,-0.3255616 V 2.7794588 c 0,-0.1801886 -0.1453729,-0.3250448 -0.3255616,-0.3250448 z" />
  </g>
</svg>
