<?xml version="1.0" encoding="UTF-8" standalone="no"?>
<svg
   width="22"
   height="22"
   version="1.1"
   id="svg9"
   sodipodi:docname="redshift-status-off.svg"
   inkscape:version="1.1.2 (0a00cf5339, 2022-02-04)"
   xmlns:inkscape="http://www.inkscape.org/namespaces/inkscape"
   xmlns:sodipodi="http://sodipodi.sourceforge.net/DTD/sodipodi-0.dtd"
   xmlns="http://www.w3.org/2000/svg"
   xmlns:svg="http://www.w3.org/2000/svg">
  <sodipodi:namedview
     id="namedview11"
     pagecolor="#888888"
     bordercolor="#666666"
     borderopacity="1.0"
     inkscape:pageshadow="2"
     inkscape:pageopacity="0"
     inkscape:pagecheckerboard="0"
     showgrid="false"
     inkscape:zoom="5.0622418"
     inkscape:cx="-24.297536"
     inkscape:cy="20.741799"
     inkscape:window-width="1920"
     inkscape:window-height="1022"
     inkscape:window-x="0"
     inkscape:window-y="0"
     inkscape:window-maximized="1"
     inkscape:current-layer="svg9" />
  <defs
     id="defs3">
    <style
       id="current-color-scheme"
       type="text/css">.ColorScheme-Text { color:#ffffff; } .ColorScheme-Highlight { color:#4285f4; }</style>
  </defs>
  <path
     id="path4643"
     style="fill:#ffffff;fill-opacity:0.53250253;stroke:none;stroke-width:0.19331;stroke-linecap:round;stroke-linejoin:bevel;stroke-miterlimit:4;stroke-dasharray:none;stroke-dashoffset:0;stroke-opacity:1"
     d="M 11.078125 2.4355469 A 0.32221529 0.32221529 0 0 0 10.759766 2.7617188 L 10.759766 4.7109375 C 10.866554 4.7058975 10.97403 4.703125 11.082031 4.703125 C 11.190036 4.7031233 11.29751 4.7059075 11.404297 4.7109375 L 11.404297 2.7617188 A 0.32221529 0.32221529 0 0 0 11.078125 2.4355469 z M 4.9453125 4.9765625 A 0.32221529 0.32221529 0 0 0 4.7207031 5.53125 L 6.1035156 6.9121094 C 6.2481216 6.7531205 6.3996091 6.6016424 6.5585938 6.4570312 L 5.1757812 5.0742188 A 0.32221529 0.32221529 0 0 0 4.9453125 4.9765625 z M 11.082031 5.6699219 A 5.7665306 5.7665306 0 0 0 5.3164062 11.435547 A 5.7665306 5.7665306 0 0 0 5.8007812 13.705078 L 6.6152344 12.890625 A 4.7180703 4.7180703 0 0 1 6.3632812 11.435547 A 4.7180703 4.7180703 0 0 1 9.8476562 6.8847656 A 4.7180703 4.7180703 0 0 0 8.8105469 9.828125 A 4.7180703 4.7180703 0 0 0 8.8886719 10.617188 L 13.363281 6.1425781 A 5.7665306 5.7665306 0 0 0 11.082031 5.6699219 z M 16.328125 9.0410156 L 11.371094 13.998047 A 4.7180703 4.7180703 0 0 0 13.529297 14.546875 A 4.7180703 4.7180703 0 0 0 14.763672 14.380859 A 4.7180703 4.7180703 0 0 1 11.082031 16.154297 A 4.7180703 4.7180703 0 0 1 9.5058594 15.863281 L 8.703125 16.666016 A 5.7665306 5.7665306 0 0 0 11.082031 17.203125 A 5.7665306 5.7665306 0 0 0 16.849609 11.435547 A 5.7665306 5.7665306 0 0 0 16.328125 9.0410156 z M 2.4082031 11.113281 A 0.32221529 0.32221529 0 1 0 2.4082031 11.757812 L 4.3574219 11.757812 C 4.3523819 11.651024 4.3496094 11.543551 4.3496094 11.435547 C 4.3496094 11.327545 4.3523919 11.220068 4.3574219 11.113281 L 2.4082031 11.113281 z M 17.806641 11.113281 C 17.811641 11.220068 17.816406 11.327545 17.816406 11.435547 C 17.816409 11.543551 17.811741 11.651023 17.806641 11.757812 L 19.755859 11.757812 A 0.32221529 0.32221529 0 1 0 19.755859 11.113281 L 17.806641 11.113281 z M 16.0625 15.958984 C 15.917926 16.117925 15.764407 16.271446 15.605469 16.416016 L 16.988281 17.796875 A 0.32221529 0.32221529 0 1 0 17.443359 17.341797 L 16.0625 15.958984 z M 10.759766 18.160156 L 10.759766 20.109375 A 0.32221529 0.32221529 0 1 0 11.404297 20.109375 L 11.404297 18.160156 C 11.29751 18.165156 11.190036 18.169922 11.082031 18.169922 C 10.97403 18.169923 10.866554 18.165256 10.759766 18.160156 z " />
  <rect
     style="fill:#ffffff;fill-opacity:1;stroke:none;stroke-width:2;stroke-linecap:round;stroke-linejoin:round;stroke-opacity:1"
     id="rect1209"
     width="2.2231359"
     height="18.003208"
     x="14.739896"
     y="-8.6367073"
     rx="1.111568"
     ry="1.111568"
     transform="rotate(45)" />
</svg>
