<?xml version="1.0" encoding="UTF-8" standalone="no"?>
<svg
   width="22"
   height="22"
   version="1.1"
   id="svg9"
   sodipodi:docname="redshift-status-day.svg"
   inkscape:version="1.1.2 (0a00cf5339, 2022-02-04)"
   xmlns:inkscape="http://www.inkscape.org/namespaces/inkscape"
   xmlns:sodipodi="http://sodipodi.sourceforge.net/DTD/sodipodi-0.dtd"
   xmlns="http://www.w3.org/2000/svg"
   xmlns:svg="http://www.w3.org/2000/svg">
  <sodipodi:namedview
     id="namedview11"
     pagecolor="#888888"
     bordercolor="#666666"
     borderopacity="1.0"
     inkscape:pageshadow="2"
     inkscape:pageopacity="0"
     inkscape:pagecheckerboard="0"
     showgrid="false"
     inkscape:zoom="20.248967"
     inkscape:cx="9.4819652"
     inkscape:cy="9.0868833"
     inkscape:window-width="1920"
     inkscape:window-height="1022"
     inkscape:window-x="0"
     inkscape:window-y="0"
     inkscape:window-maximized="1"
     inkscape:current-layer="svg9" />
  <defs
     id="defs3">
    <style
       id="current-color-scheme"
       type="text/css">.ColorScheme-Text { color:#ffffff; } .ColorScheme-Highlight { color:#4285f4; }</style>
  </defs>
  <path
     style="fill:#ffffff;fill-opacity:0.42745647;stroke:none;stroke-width:0.19331;stroke-linecap:round;stroke-linejoin:bevel;stroke-miterlimit:4;stroke-dasharray:none;stroke-dashoffset:0;stroke-opacity:1"
     d="m 11.077564,2.4354068 a 0.32221529,0.32221529 0 0 0 -0.317401,0.3267134 v 1.9492075 c 0.106788,-0.00504 0.214182,-0.00828 0.322183,-0.00828 0.108005,-1.7e-6 0.215395,0.00325 0.322182,0.00828 V 2.7621202 A 0.32221529,0.32221529 0 0 0 11.077564,2.4354068 Z M 4.9455153,4.977381 A 0.32221529,0.32221529 0 0 0 4.7209917,5.53063 L 6.1031086,6.9127443 C 6.2477146,6.7537554 6.3997085,6.6015173 6.5586932,6.4569062 L 5.1765788,5.074791 A 0.32221529,0.32221529 0 0 0 4.9455153,4.9773784 Z m 12.2640967,0 a 0.32221529,0.32221529 0 0 0 -0.2215,0.097413 l -1.382114,1.3821148 c 0.158985,0.1446119 0.310978,0.29685 0.455589,0.4558381 L 17.4437,5.53063 A 0.32221529,0.32221529 0 0 0 17.209612,4.977381 Z m -6.127266,0.6921896 a 5.7665306,5.7665306 0 0 0 -5.766573,5.7665734 5.7665306,5.7665306 0 0 0 5.766573,5.766574 5.7665306,5.7665306 0 0 0 5.766573,-5.766574 5.7665306,5.7665306 0 0 0 -5.766573,-5.7665734 z M 9.8479822,6.8837982 A 4.7180703,4.7180703 0 0 0 8.8107039,9.8285008 4.7180703,4.7180703 0 0 0 13.528671,14.54647 4.7180703,4.7180703 0 0 0 14.762783,14.380848 4.7180703,4.7180703 0 0 1 11.082346,16.154113 4.7180703,4.7180703 0 0 1 6.364126,11.436144 4.7180703,4.7180703 0 0 1 9.8479822,6.8837982 Z M 2.4083218,11.113962 a 0.32221529,0.32221529 0 1 0 0,0.644366 h 1.9492066 c -0.00504,-0.106789 -0.00828,-0.21418 -0.00828,-0.322184 0,-0.108002 0.00325,-0.215395 0.00828,-0.322182 z m 15.3988402,0 c 0.005,0.106787 0.0083,0.21418 0.0083,0.322182 3e-6,0.108004 -0.0032,0.215395 -0.0083,0.322184 h 1.949208 a 0.32221529,0.32221529 0 1 0 0,-0.644366 z M 6.1031086,15.959795 4.7209917,17.341911 a 0.32221529,0.32221529 0 1 0 0.4555871,0.455587 L 6.5586932,16.415383 C 6.3997538,16.270813 6.2476788,16.118736 6.1031086,15.959795 Z m 9.9584784,0 c -0.144574,0.158941 -0.296651,0.311018 -0.455589,0.455588 l 1.382114,1.382115 A 0.32221529,0.32221529 0 1 0 17.4437,17.341911 Z m -5.301424,2.201167 v 1.949207 a 0.32221529,0.32221529 0 1 0 0.644365,0 v -1.949207 c -0.106787,0.005 -0.214177,0.0083 -0.322182,0.0083 -0.108001,1e-6 -0.215395,-0.0032 -0.322183,-0.0083 z"
     id="path4643"
     inkscape:connector-curvature="0" />
</svg>
