<?xml version="1.0" encoding="UTF-8" standalone="no"?>
<!-- Created with Inkscape (http://www.inkscape.org/) -->

<svg
   width="64"
   height="64"
   viewBox="0 0 16.933333 16.933334"
   version="1.1"
   id="svg8"
   inkscape:version="1.1.2 (0a00cf5339, 2022-02-04)"
   sodipodi:docname="gnome-session-hibernate.svg"
   xmlns:inkscape="http://www.inkscape.org/namespaces/inkscape"
   xmlns:sodipodi="http://sodipodi.sourceforge.net/DTD/sodipodi-0.dtd"
   xmlns:xlink="http://www.w3.org/1999/xlink"
   xmlns="http://www.w3.org/2000/svg"
   xmlns:svg="http://www.w3.org/2000/svg"
   xmlns:rdf="http://www.w3.org/1999/02/22-rdf-syntax-ns#"
   xmlns:cc="http://creativecommons.org/ns#"
   xmlns:dc="http://purl.org/dc/elements/1.1/">
  <defs
     id="defs2">
    <linearGradient
       inkscape:collect="always"
       id="linearGradient847">
      <stop
         style="stop-color:#247deb;stop-opacity:1"
         offset="0"
         id="stop843" />
      <stop
         style="stop-color:#11a0ed;stop-opacity:1"
         offset="1"
         id="stop845" />
    </linearGradient>
    <linearGradient
       inkscape:collect="always"
       xlink:href="#linearGradient847"
       id="linearGradient849"
       x1="35.42556"
       y1="61.172192"
       x2="35.42556"
       y2="5.2991104"
       gradientUnits="userSpaceOnUse" />
  </defs>
  <sodipodi:namedview
     id="base"
     pagecolor="#ffffff"
     bordercolor="#666666"
     borderopacity="1.0"
     inkscape:pageopacity="0.0"
     inkscape:pageshadow="2"
     inkscape:zoom="7.9195959"
     inkscape:cx="37.501913"
     inkscape:cy="29.988904"
     inkscape:document-units="mm"
     inkscape:current-layer="layer1"
     showgrid="false"
     units="px"
     inkscape:window-width="1920"
     inkscape:window-height="1028"
     inkscape:window-x="0"
     inkscape:window-y="24"
     inkscape:window-maximized="1"
     inkscape:pagecheckerboard="0" />
  <metadata
     id="metadata5">
    <rdf:RDF>
      <cc:Work
         rdf:about="">
        <dc:format>image/svg+xml</dc:format>
        <dc:type
           rdf:resource="http://purl.org/dc/dcmitype/StillImage" />
      </cc:Work>
    </rdf:RDF>
  </metadata>
  <g
     inkscape:label="Capa 1"
     inkscape:groupmode="layer"
     id="layer1"
     transform="translate(0,-280.06665)">
    <path
       style="opacity:1;fill:url(#linearGradient849);fill-opacity:1;stroke-width:1.07655489"
       d="M 32.099609 2.2148438 C 15.457209 2.2143902 1.9654595 15.705263 1.9648438 32.347656 C 1.9643741 48.990806 15.456442 62.482875 32.099609 62.482422 C 48.742014 62.481817 62.232891 48.99005 62.232422 32.347656 C 62.231806 15.706018 48.741247 2.2154485 32.099609 2.2148438 z M 32.095703 11.056641 C 37.958421 11.056641 43.306431 13.445095 47.15625 17.294922 L 47.214844 17.353516 L 47.265625 17.412109 C 55.152683 26.263234 54.979416 39.350723 47.185547 47.375 L 47.169922 47.390625 L 47.15625 47.40625 C 43.306431 51.256039 37.958421 53.642578 32.095703 53.642578 C 20.370259 53.642578 10.806644 44.071158 10.806641 32.345703 C 10.806644 20.620248 20.370259 11.056641 32.095703 11.056641 z M 32.095703 16.726562 C 23.434167 16.726562 16.476565 23.68416 16.476562 32.345703 C 16.476565 41.007246 23.434167 47.974609 32.095703 47.974609 C 36.416841 47.974609 40.296334 46.231297 43.125 43.412109 C 48.779944 37.577161 49.039307 28.013074 43.066406 21.251953 C 40.242082 18.461755 36.391674 16.726562 32.095703 16.726562 z M 26.138672 29.511719 L 36.746094 29.511719 A 2.834961 2.834961 0 0 1 36.746094 35.181641 L 26.138672 35.181641 A 2.834961 2.834961 0 0 1 26.138672 29.511719 z "
       transform="matrix(0.26458333,0,0,0.26458333,0,280.06665)"
       id="path815" />
    <g
       id="g824"
       transform="translate(0.25985811,-0.31496282)" />
  </g>
</svg>
