<?xml version="1.0" encoding="UTF-8" standalone="no"?>
<svg
   xmlns:dc="http://purl.org/dc/elements/1.1/"
   xmlns:cc="http://creativecommons.org/ns#"
   xmlns:rdf="http://www.w3.org/1999/02/22-rdf-syntax-ns#"
   xmlns:svg="http://www.w3.org/2000/svg"
   xmlns="http://www.w3.org/2000/svg"
   xmlns:xlink="http://www.w3.org/1999/xlink"
   xmlns:sodipodi="http://sodipodi.sourceforge.net/DTD/sodipodi-0.dtd"
   xmlns:inkscape="http://www.inkscape.org/namespaces/inkscape"
   width="128"
   height="128"
   viewBox="0 0 33.866666 33.866668"
   version="1.1"
   id="svg6"
   sodipodi:docname="bookmark-missing-drag-accept.svg"
   inkscape:version="0.92.3 (2405546, 2018-03-11)">
  <metadata
     id="metadata220">
    <rdf:RDF>
      <cc:Work
         rdf:about="">
        <dc:format>image/svg+xml</dc:format>
        <dc:type
           rdf:resource="http://purl.org/dc/dcmitype/StillImage" />
      </cc:Work>
    </rdf:RDF>
  </metadata>
  <defs
     id="defs2">
    <linearGradient
       inkscape:collect="always"
       id="linearGradient1368">
      <stop
         style="stop-color:#ffffff;stop-opacity:0"
         offset="0"
         id="stop1364" />
      <stop
         id="stop1378"
         offset="0.25042552"
         style="stop-color:#ffffff;stop-opacity:0.99705511" />
      <stop
         id="stop1374"
         offset="0.48660195"
         style="stop-color:#ffffff;stop-opacity:1" />
      <stop
         style="stop-color:#ffffff;stop-opacity:0.99004877"
         offset="0.72244954"
         id="stop1376" />
      <stop
         style="stop-color:#ffffff;stop-opacity:0.02408217"
         offset="1"
         id="stop1366" />
    </linearGradient>
    <linearGradient
       inkscape:collect="always"
       id="linearGradient1326">
      <stop
         style="stop-color:#000000;stop-opacity:0"
         offset="0"
         id="stop1322" />
      <stop
         id="stop1352"
         offset="0.19762035"
         style="stop-color:#000000;stop-opacity:0.88627451;" />
      <stop
         style="stop-color:#000000;stop-opacity:0.98715055"
         offset="0.32936725"
         id="stop1354" />
      <stop
         id="stop1348"
         offset="0.50611204"
         style="stop-color:#000000;stop-opacity:1" />
      <stop
         style="stop-color:#000000;stop-opacity:1"
         offset="0.67075688"
         id="stop1356" />
      <stop
         style="stop-color:#000000;stop-opacity:0.83921569;"
         offset="0.80245411"
         id="stop1350" />
      <stop
         style="stop-color:#000000;stop-opacity:0;"
         offset="1"
         id="stop1324" />
    </linearGradient>
    <linearGradient
       inkscape:collect="always"
       id="linearGradient1316">
      <stop
         style="stop-color:#2fa8ee;stop-opacity:1;"
         offset="0"
         id="stop1312" />
      <stop
         style="stop-color:#2fa8ee;stop-opacity:0;"
         offset="1"
         id="stop1314" />
    </linearGradient>
    <linearGradient
       inkscape:collect="always"
       id="linearGradient867">
      <stop
         style="stop-color:#87d7fe;stop-opacity:1"
         offset="0"
         id="stop863" />
      <stop
         style="stop-color:#74d1fe;stop-opacity:0"
         offset="1"
         id="stop865" />
    </linearGradient>
    <linearGradient
       inkscape:collect="always"
       id="linearGradient849">
      <stop
         style="stop-color:#60c0f0;stop-opacity:1"
         offset="0"
         id="stop845" />
      <stop
         style="stop-color:#83d4fb;stop-opacity:1"
         offset="1"
         id="stop847" />
    </linearGradient>
    <linearGradient
       inkscape:collect="always"
       xlink:href="#linearGradient849"
       id="linearGradient851"
       x1="444.42563"
       y1="201.21922"
       x2="444.42563"
       y2="178.88019"
       gradientUnits="userSpaceOnUse"
       gradientTransform="translate(50.153207,54.679112)" />
    <linearGradient
       inkscape:collect="always"
       xlink:href="#linearGradient867"
       id="linearGradient869"
       x1="1686.3132"
       y1="683.41101"
       x2="1686.3132"
       y2="763.38055"
       gradientUnits="userSpaceOnUse"
       gradientTransform="matrix(0.26458333,0,0,0.26458333,50.153207,54.679112)" />
    <linearGradient
       inkscape:collect="always"
       xlink:href="#linearGradient1316"
       id="linearGradient1318"
       x1="501.44064"
       y1="238.42754"
       x2="501.44064"
       y2="229.36594"
       gradientUnits="userSpaceOnUse" />
    <linearGradient
       inkscape:collect="always"
       xlink:href="#linearGradient1326"
       id="linearGradient1360"
       gradientUnits="userSpaceOnUse"
       x1="501.41531"
       y1="201.68768"
       x2="501.41531"
       y2="200.98747"
       gradientTransform="matrix(3.7795276,0,0,3.7795276,0,212.27803)" />
    <linearGradient
       inkscape:collect="always"
       xlink:href="#linearGradient1368"
       id="linearGradient1382"
       gradientUnits="userSpaceOnUse"
       gradientTransform="matrix(3.7795276,0,0,3.7795276,-10.718504,250.21194)"
       x1="496.86908"
       y1="191.11269"
       x2="496.86908"
       y2="190.47581" />
    <linearGradient
       inkscape:collect="always"
       xlink:href="#linearGradient1368"
       id="linearGradient1392"
       gradientUnits="userSpaceOnUse"
       gradientTransform="matrix(3.7795276,0,0,3.7795276,-10.718504,240.55983)"
       x1="496.86908"
       y1="191.11269"
       x2="496.86908"
       y2="190.47581" />
    <linearGradient
       inkscape:collect="always"
       xlink:href="#linearGradient1326"
       id="linearGradient1394"
       gradientUnits="userSpaceOnUse"
       gradientTransform="matrix(3.7795276,0,0,3.7795276,0,202.62592)"
       x1="501.41531"
       y1="201.68768"
       x2="501.41531"
       y2="200.98747" />
    <linearGradient
       inkscape:collect="always"
       xlink:href="#linearGradient1316"
       id="linearGradient1767"
       gradientUnits="userSpaceOnUse"
       x1="501.44064"
       y1="238.42754"
       x2="501.44064"
       y2="229.36594"
       gradientTransform="matrix(0.77551986,0,0,0.77551986,-368.28452,-169.44998)" />
    <linearGradient
       inkscape:collect="always"
       xlink:href="#linearGradient849"
       id="linearGradient1769"
       gradientUnits="userSpaceOnUse"
       gradientTransform="matrix(0.77551986,0,0,0.77551986,-329.38971,-127.04524)"
       x1="444.42563"
       y1="201.21922"
       x2="444.42563"
       y2="178.88019" />
    <linearGradient
       inkscape:collect="always"
       xlink:href="#linearGradient867"
       id="linearGradient1771"
       gradientUnits="userSpaceOnUse"
       gradientTransform="matrix(0.20518963,0,0,0.20518963,-329.38971,-127.04524)"
       x1="1686.3132"
       y1="683.41101"
       x2="1686.3132"
       y2="763.38055" />
    <linearGradient
       inkscape:collect="always"
       xlink:href="#linearGradient1326"
       id="linearGradient1773"
       gradientUnits="userSpaceOnUse"
       gradientTransform="matrix(0.77551987,0,0,0.77551987,-368.28452,-125.89273)"
       x1="501.41531"
       y1="201.68768"
       x2="501.41531"
       y2="200.98747" />
    <linearGradient
       inkscape:collect="always"
       xlink:href="#linearGradient1368"
       id="linearGradient1775"
       gradientUnits="userSpaceOnUse"
       gradientTransform="matrix(0.77551987,0,0,0.77551987,-370.48385,-118.10908)"
       x1="496.86908"
       y1="191.11269"
       x2="496.86908"
       y2="190.47581" />
    <linearGradient
       inkscape:collect="always"
       xlink:href="#linearGradient1326"
       id="linearGradient1777"
       gradientUnits="userSpaceOnUse"
       gradientTransform="matrix(0.77551987,0,0,0.77551987,-368.28452,-127.87324)"
       x1="501.41531"
       y1="201.68768"
       x2="501.41531"
       y2="200.98747" />
    <linearGradient
       inkscape:collect="always"
       xlink:href="#linearGradient1368"
       id="linearGradient1779"
       gradientUnits="userSpaceOnUse"
       gradientTransform="matrix(0.77551987,0,0,0.77551987,-370.48385,-120.0896)"
       x1="496.86908"
       y1="191.11269"
       x2="496.86908"
       y2="190.47581" />
  </defs>
  <sodipodi:namedview
     id="base"
     pagecolor="#ffffff"
     bordercolor="#666666"
     borderopacity="1.0"
     inkscape:pageopacity="0.0"
     inkscape:pageshadow="2"
     inkscape:zoom="7.9999999"
     inkscape:cx="4.5947258"
     inkscape:cy="50.405623"
     inkscape:document-units="mm"
     inkscape:current-layer="layer1"
     showgrid="false"
     inkscape:window-width="1920"
     inkscape:window-height="1028"
     inkscape:window-x="0"
     inkscape:window-y="26"
     inkscape:window-maximized="1"
     units="px" />
  <g
     inkscape:label="Layer 1"
     inkscape:groupmode="layer"
     id="layer1">
    <g
       id="g1963"
       transform="translate(-43.579895,-0.22359178)"
       style="opacity:0.11523">
      <path
         d="m 48.110665,7.4140175 c -1.270146,0 -2.292883,1.0222204 -2.292883,2.2923667 v 3.7455078 12.089701 3.745509 c 0,1.270145 1.022737,2.292366 2.292883,2.292366 h 24.91114 c 1.270148,0 2.292368,-1.022221 2.292368,-2.292366 V 25.541593 13.451892 12.063863 c 0,-1.270147 -1.022776,-2.3027585 -2.292884,-2.2923664 L 60.25566,9.8758829 c -1.823224,0 -2.154404,-0.033365 -3.710368,-1.2087119 -1.51117,-1.1966504 -1.575029,-1.2531535 -3.06958,-1.2531535 z"
         style="fill:none;fill-opacity:1;stroke:#000000;stroke-width:0.1;stroke-linecap:round;stroke-linejoin:round;stroke-miterlimit:4;stroke-dasharray:none;stroke-opacity:0.03"
         id="rect1850" />
      <path
         id="path1860"
         style="fill:none;fill-opacity:1;stroke:#000000;stroke-width:0.2;stroke-linecap:round;stroke-linejoin:round;stroke-miterlimit:4;stroke-dasharray:none;stroke-opacity:0.03"
         d="m 48.110665,7.4140175 c -1.270146,0 -2.292883,1.0222204 -2.292883,2.2923667 v 3.7455078 12.089701 3.745509 c 0,1.270145 1.022737,2.292366 2.292883,2.292366 h 24.91114 c 1.270148,0 2.292368,-1.022221 2.292368,-2.292366 V 25.541593 13.451892 12.063863 c 0,-1.270147 -1.022776,-2.3027585 -2.292884,-2.2923664 L 60.25566,9.8758829 c -1.823224,0 -2.154404,-0.033365 -3.710368,-1.2087119 -1.51117,-1.1966504 -1.575029,-1.2531535 -3.06958,-1.2531535 z" />
      <path
         d="m 48.110665,7.4140175 c -1.270146,0 -2.292883,1.0222204 -2.292883,2.2923667 v 3.7455078 12.089701 3.745509 c 0,1.270145 1.022737,2.292366 2.292883,2.292366 h 24.91114 c 1.270148,0 2.292368,-1.022221 2.292368,-2.292366 V 25.541593 13.451892 12.063863 c 0,-1.270147 -1.022776,-2.3027585 -2.292884,-2.2923664 L 60.25566,9.8758829 c -1.823224,0 -2.154404,-0.033365 -3.710368,-1.2087119 -1.51117,-1.1966504 -1.575029,-1.2531535 -3.06958,-1.2531535 z"
         style="fill:none;fill-opacity:1;stroke:#000000;stroke-width:0.3;stroke-linecap:round;stroke-linejoin:round;stroke-miterlimit:4;stroke-dasharray:none;stroke-opacity:0.03"
         id="path1862" />
      <path
         id="path1864"
         style="fill:none;fill-opacity:1;stroke:#000000;stroke-width:0.4;stroke-linecap:round;stroke-linejoin:round;stroke-miterlimit:4;stroke-dasharray:none;stroke-opacity:0.03"
         d="m 48.110665,7.4140175 c -1.270146,0 -2.292883,1.0222204 -2.292883,2.2923667 v 3.7455078 12.089701 3.745509 c 0,1.270145 1.022737,2.292366 2.292883,2.292366 h 24.91114 c 1.270148,0 2.292368,-1.022221 2.292368,-2.292366 V 25.541593 13.451892 12.063863 c 0,-1.270147 -1.022776,-2.3027585 -2.292884,-2.2923664 L 60.25566,9.8758829 c -1.823224,0 -2.154404,-0.033365 -3.710368,-1.2087119 -1.51117,-1.1966504 -1.575029,-1.2531535 -3.06958,-1.2531535 z" />
      <path
         d="m 48.110665,7.4140175 c -1.270146,0 -2.292883,1.0222204 -2.292883,2.2923667 v 3.7455078 12.089701 3.745509 c 0,1.270145 1.022737,2.292366 2.292883,2.292366 h 24.91114 c 1.270148,0 2.292368,-1.022221 2.292368,-2.292366 V 25.541593 13.451892 12.063863 c 0,-1.270147 -1.022776,-2.3027585 -2.292884,-2.2923664 L 60.25566,9.8758829 c -1.823224,0 -2.154404,-0.033365 -3.710368,-1.2087119 -1.51117,-1.1966504 -1.575029,-1.2531535 -3.06958,-1.2531535 z"
         style="fill:none;fill-opacity:1;stroke:#000000;stroke-width:0.5;stroke-linecap:round;stroke-linejoin:round;stroke-miterlimit:4;stroke-dasharray:none;stroke-opacity:0.03"
         id="path1866" />
      <path
         id="path1868"
         style="fill:none;fill-opacity:1;stroke:#000000;stroke-width:0.6;stroke-linecap:round;stroke-linejoin:round;stroke-miterlimit:4;stroke-dasharray:none;stroke-opacity:0.03"
         d="m 48.110665,7.4140175 c -1.270146,0 -2.292883,1.0222204 -2.292883,2.2923667 v 3.7455078 12.089701 3.745509 c 0,1.270145 1.022737,2.292366 2.292883,2.292366 h 24.91114 c 1.270148,0 2.292368,-1.022221 2.292368,-2.292366 V 25.541593 13.451892 12.063863 c 0,-1.270147 -1.022776,-2.3027585 -2.292884,-2.2923664 L 60.25566,9.8758829 c -1.823224,0 -2.154404,-0.033365 -3.710368,-1.2087119 -1.51117,-1.1966504 -1.575029,-1.2531535 -3.06958,-1.2531535 z" />
      <path
         d="m 48.110665,7.4140175 c -1.270146,0 -2.292883,1.0222204 -2.292883,2.2923667 v 3.7455078 12.089701 3.745509 c 0,1.270145 1.022737,2.292366 2.292883,2.292366 h 24.91114 c 1.270148,0 2.292368,-1.022221 2.292368,-2.292366 V 25.541593 13.451892 12.063863 c 0,-1.270147 -1.022776,-2.3027585 -2.292884,-2.2923664 L 60.25566,9.8758829 c -1.823224,0 -2.154404,-0.033365 -3.710368,-1.2087119 -1.51117,-1.1966504 -1.575029,-1.2531535 -3.06958,-1.2531535 z"
         style="fill:none;fill-opacity:1;stroke:#000000;stroke-width:0.7;stroke-linecap:round;stroke-linejoin:round;stroke-miterlimit:4;stroke-dasharray:none;stroke-opacity:0.03"
         id="path1870" />
      <path
         id="path1872"
         style="fill:none;fill-opacity:1;stroke:#000000;stroke-width:0.8;stroke-linecap:round;stroke-linejoin:round;stroke-miterlimit:4;stroke-dasharray:none;stroke-opacity:0.03"
         d="m 48.110665,7.4140175 c -1.270146,0 -2.292883,1.0222204 -2.292883,2.2923667 v 3.7455078 12.089701 3.745509 c 0,1.270145 1.022737,2.292366 2.292883,2.292366 h 24.91114 c 1.270148,0 2.292368,-1.022221 2.292368,-2.292366 V 25.541593 13.451892 12.063863 c 0,-1.270147 -1.022776,-2.3027585 -2.292884,-2.2923664 L 60.25566,9.8758829 c -1.823224,0 -2.154404,-0.033365 -3.710368,-1.2087119 -1.51117,-1.1966504 -1.575029,-1.2531535 -3.06958,-1.2531535 z" />
      <path
         d="m 48.110665,7.4140175 c -1.270146,0 -2.292883,1.0222204 -2.292883,2.2923667 v 3.7455078 12.089701 3.745509 c 0,1.270145 1.022737,2.292366 2.292883,2.292366 h 24.91114 c 1.270148,0 2.292368,-1.022221 2.292368,-2.292366 V 25.541593 13.451892 12.063863 c 0,-1.270147 -1.022776,-2.3027585 -2.292884,-2.2923664 L 60.25566,9.8758829 c -1.823224,0 -2.154404,-0.033365 -3.710368,-1.2087119 -1.51117,-1.1966504 -1.575029,-1.2531535 -3.06958,-1.2531535 z"
         style="fill:none;fill-opacity:1;stroke:#000000;stroke-width:0.9;stroke-linecap:round;stroke-linejoin:round;stroke-miterlimit:4;stroke-dasharray:none;stroke-opacity:0.03"
         id="path1874" />
      <path
         id="path1876"
         style="fill:none;fill-opacity:1;stroke:#000000;stroke-width:1;stroke-linecap:round;stroke-linejoin:round;stroke-miterlimit:4;stroke-dasharray:none;stroke-opacity:0.03"
         d="m 48.110665,7.4140175 c -1.270146,0 -2.292883,1.0222204 -2.292883,2.2923667 v 3.7455078 12.089701 3.745509 c 0,1.270145 1.022737,2.292366 2.292883,2.292366 h 24.91114 c 1.270148,0 2.292368,-1.022221 2.292368,-2.292366 V 25.541593 13.451892 12.063863 c 0,-1.270147 -1.022776,-2.3027585 -2.292884,-2.2923664 L 60.25566,9.8758829 c -1.823224,0 -2.154404,-0.033365 -3.710368,-1.2087119 -1.51117,-1.1966504 -1.575029,-1.2531535 -3.06958,-1.2531535 z" />
      <path
         d="m 48.110665,7.4140175 c -1.270146,0 -2.292883,1.0222204 -2.292883,2.2923667 v 3.7455078 12.089701 3.745509 c 0,1.270145 1.022737,2.292366 2.292883,2.292366 h 24.91114 c 1.270148,0 2.292368,-1.022221 2.292368,-2.292366 V 25.541593 13.451892 12.063863 c 0,-1.270147 -1.022776,-2.3027585 -2.292884,-2.2923664 L 60.25566,9.8758829 c -1.823224,0 -2.154404,-0.033365 -3.710368,-1.2087119 -1.51117,-1.1966504 -1.575029,-1.2531535 -3.06958,-1.2531535 z"
         style="fill:none;fill-opacity:1;stroke:#000000;stroke-width:1.1;stroke-linecap:round;stroke-linejoin:round;stroke-miterlimit:4;stroke-dasharray:none;stroke-opacity:0.03"
         id="path1878" />
      <path
         id="path1880"
         style="fill:none;fill-opacity:1;stroke:#000000;stroke-width:1.2;stroke-linecap:round;stroke-linejoin:round;stroke-miterlimit:4;stroke-dasharray:none;stroke-opacity:0.03"
         d="m 48.110665,7.4140175 c -1.270146,0 -2.292883,1.0222204 -2.292883,2.2923667 v 3.7455078 12.089701 3.745509 c 0,1.270145 1.022737,2.292366 2.292883,2.292366 h 24.91114 c 1.270148,0 2.292368,-1.022221 2.292368,-2.292366 V 25.541593 13.451892 12.063863 c 0,-1.270147 -1.022776,-2.3027585 -2.292884,-2.2923664 L 60.25566,9.8758829 c -1.823224,0 -2.154404,-0.033365 -3.710368,-1.2087119 -1.51117,-1.1966504 -1.575029,-1.2531535 -3.06958,-1.2531535 z" />
      <path
         d="m 48.110665,7.4140175 c -1.270146,0 -2.292883,1.0222204 -2.292883,2.2923667 v 3.7455078 12.089701 3.745509 c 0,1.270145 1.022737,2.292366 2.292883,2.292366 h 24.91114 c 1.270148,0 2.292368,-1.022221 2.292368,-2.292366 V 25.541593 13.451892 12.063863 c 0,-1.270147 -1.022776,-2.3027585 -2.292884,-2.2923664 L 60.25566,9.8758829 c -1.823224,0 -2.154404,-0.033365 -3.710368,-1.2087119 -1.51117,-1.1966504 -1.575029,-1.2531535 -3.06958,-1.2531535 z"
         style="fill:none;fill-opacity:1;stroke:#000000;stroke-width:1.3;stroke-linecap:round;stroke-linejoin:round;stroke-miterlimit:4;stroke-dasharray:none;stroke-opacity:0.03"
         id="path1882" />
      <path
         id="path1884"
         style="fill:none;fill-opacity:1;stroke:#000000;stroke-width:1.4;stroke-linecap:round;stroke-linejoin:round;stroke-miterlimit:4;stroke-dasharray:none;stroke-opacity:0.03"
         d="m 48.110665,7.4140175 c -1.270146,0 -2.292883,1.0222204 -2.292883,2.2923667 v 3.7455078 12.089701 3.745509 c 0,1.270145 1.022737,2.292366 2.292883,2.292366 h 24.91114 c 1.270148,0 2.292368,-1.022221 2.292368,-2.292366 V 25.541593 13.451892 12.063863 c 0,-1.270147 -1.022776,-2.3027585 -2.292884,-2.2923664 L 60.25566,9.8758829 c -1.823224,0 -2.154404,-0.033365 -3.710368,-1.2087119 -1.51117,-1.1966504 -1.575029,-1.2531535 -3.06958,-1.2531535 z" />
      <path
         d="m 48.110665,7.4140175 c -1.270146,0 -2.292883,1.0222204 -2.292883,2.2923667 v 3.7455078 12.089701 3.745509 c 0,1.270145 1.022737,2.292366 2.292883,2.292366 h 24.91114 c 1.270148,0 2.292368,-1.022221 2.292368,-2.292366 V 25.541593 13.451892 12.063863 c 0,-1.270147 -1.022776,-2.3027585 -2.292884,-2.2923664 L 60.25566,9.8758829 c -1.823224,0 -2.154404,-0.033365 -3.710368,-1.2087119 -1.51117,-1.1966504 -1.575029,-1.2531535 -3.06958,-1.2531535 z"
         style="fill:none;fill-opacity:1;stroke:#000000;stroke-width:1.5;stroke-linecap:round;stroke-linejoin:round;stroke-miterlimit:4;stroke-dasharray:none;stroke-opacity:0.03"
         id="path1886" />
      <path
         id="path1888"
         style="fill:none;fill-opacity:1;stroke:#000000;stroke-width:1.6;stroke-linecap:round;stroke-linejoin:round;stroke-miterlimit:4;stroke-dasharray:none;stroke-opacity:0.03"
         d="m 48.110665,7.4140175 c -1.270146,0 -2.292883,1.0222204 -2.292883,2.2923667 v 3.7455078 12.089701 3.745509 c 0,1.270145 1.022737,2.292366 2.292883,2.292366 h 24.91114 c 1.270148,0 2.292368,-1.022221 2.292368,-2.292366 V 25.541593 13.451892 12.063863 c 0,-1.270147 -1.022776,-2.3027585 -2.292884,-2.2923664 L 60.25566,9.8758829 c -1.823224,0 -2.154404,-0.033365 -3.710368,-1.2087119 -1.51117,-1.1966504 -1.575029,-1.2531535 -3.06958,-1.2531535 z" />
      <path
         d="m 48.110665,7.4140175 c -1.270146,0 -2.292883,1.0222204 -2.292883,2.2923667 v 3.7455078 12.089701 3.745509 c 0,1.270145 1.022737,2.292366 2.292883,2.292366 h 24.91114 c 1.270148,0 2.292368,-1.022221 2.292368,-2.292366 V 25.541593 13.451892 12.063863 c 0,-1.270147 -1.022776,-2.3027585 -2.292884,-2.2923664 L 60.25566,9.8758829 c -1.823224,0 -2.154404,-0.033365 -3.710368,-1.2087119 -1.51117,-1.1966504 -1.575029,-1.2531535 -3.06958,-1.2531535 z"
         style="fill:none;fill-opacity:1;stroke:#000000;stroke-width:1.7;stroke-linecap:round;stroke-linejoin:round;stroke-miterlimit:4;stroke-dasharray:none;stroke-opacity:0.03"
         id="path1890" />
      <path
         id="path1892"
         style="fill:none;fill-opacity:1;stroke:#000000;stroke-width:1.8;stroke-linecap:round;stroke-linejoin:round;stroke-miterlimit:4;stroke-dasharray:none;stroke-opacity:0.03"
         d="m 48.110665,7.4140175 c -1.270146,0 -2.292883,1.0222204 -2.292883,2.2923667 v 3.7455078 12.089701 3.745509 c 0,1.270145 1.022737,2.292366 2.292883,2.292366 h 24.91114 c 1.270148,0 2.292368,-1.022221 2.292368,-2.292366 V 25.541593 13.451892 12.063863 c 0,-1.270147 -1.022776,-2.3027585 -2.292884,-2.2923664 L 60.25566,9.8758829 c -1.823224,0 -2.154404,-0.033365 -3.710368,-1.2087119 -1.51117,-1.1966504 -1.575029,-1.2531535 -3.06958,-1.2531535 z" />
      <path
         d="m 48.110665,7.4140175 c -1.270146,0 -2.292883,1.0222204 -2.292883,2.2923667 v 3.7455078 12.089701 3.745509 c 0,1.270145 1.022737,2.292366 2.292883,2.292366 h 24.91114 c 1.270148,0 2.292368,-1.022221 2.292368,-2.292366 V 25.541593 13.451892 12.063863 c 0,-1.270147 -1.022776,-2.3027585 -2.292884,-2.2923664 L 60.25566,9.8758829 c -1.823224,0 -2.154404,-0.033365 -3.710368,-1.2087119 -1.51117,-1.1966504 -1.575029,-1.2531535 -3.06958,-1.2531535 z"
         style="fill:none;fill-opacity:1;stroke:#000000;stroke-width:1.9;stroke-linecap:round;stroke-linejoin:round;stroke-miterlimit:4;stroke-dasharray:none;stroke-opacity:0.03"
         id="path1894" />
      <path
         id="path1896"
         style="fill:none;fill-opacity:1;stroke:#000000;stroke-width:2;stroke-linecap:round;stroke-linejoin:round;stroke-miterlimit:4;stroke-dasharray:none;stroke-opacity:0.03"
         d="m 48.110665,7.4140175 c -1.270146,0 -2.292883,1.0222204 -2.292883,2.2923667 v 3.7455078 12.089701 3.745509 c 0,1.270145 1.022737,2.292366 2.292883,2.292366 h 24.91114 c 1.270148,0 2.292368,-1.022221 2.292368,-2.292366 V 25.541593 13.451892 12.063863 c 0,-1.270147 -1.022776,-2.3027585 -2.292884,-2.2923664 L 60.25566,9.8758829 c -1.823224,0 -2.154404,-0.033365 -3.710368,-1.2087119 -1.51117,-1.1966504 -1.575029,-1.2531535 -3.06958,-1.2531535 z" />
      <path
         d="m 48.110665,7.4140175 c -1.270146,0 -2.292883,1.0222204 -2.292883,2.2923667 v 3.7455078 12.089701 3.745509 c 0,1.270145 1.022737,2.292366 2.292883,2.292366 h 24.91114 c 1.270148,0 2.292368,-1.022221 2.292368,-2.292366 V 25.541593 13.451892 12.063863 c 0,-1.270147 -1.022776,-2.3027585 -2.292884,-2.2923664 L 60.25566,9.8758829 c -1.823224,0 -2.154404,-0.033365 -3.710368,-1.2087119 -1.51117,-1.1966504 -1.575029,-1.2531535 -3.06958,-1.2531535 z"
         style="fill:none;fill-opacity:1;stroke:#000000;stroke-width:2.1;stroke-linecap:round;stroke-linejoin:round;stroke-miterlimit:4;stroke-dasharray:none;stroke-opacity:0.03"
         id="path1898" />
      <path
         id="path1900"
         style="fill:none;fill-opacity:1;stroke:#000000;stroke-width:2.2;stroke-linecap:round;stroke-linejoin:round;stroke-miterlimit:4;stroke-dasharray:none;stroke-opacity:0.03"
         d="m 48.110665,7.4140175 c -1.270146,0 -2.292883,1.0222204 -2.292883,2.2923667 v 3.7455078 12.089701 3.745509 c 0,1.270145 1.022737,2.292366 2.292883,2.292366 h 24.91114 c 1.270148,0 2.292368,-1.022221 2.292368,-2.292366 V 25.541593 13.451892 12.063863 c 0,-1.270147 -1.022776,-2.3027585 -2.292884,-2.2923664 L 60.25566,9.8758829 c -1.823224,0 -2.154404,-0.033365 -3.710368,-1.2087119 -1.51117,-1.1966504 -1.575029,-1.2531535 -3.06958,-1.2531535 z" />
      <path
         d="m 48.110665,7.4140175 c -1.270146,0 -2.292883,1.0222204 -2.292883,2.2923667 v 3.7455078 12.089701 3.745509 c 0,1.270145 1.022737,2.292366 2.292883,2.292366 h 24.91114 c 1.270148,0 2.292368,-1.022221 2.292368,-2.292366 V 25.541593 13.451892 12.063863 c 0,-1.270147 -1.022776,-2.3027585 -2.292884,-2.2923664 L 60.25566,9.8758829 c -1.823224,0 -2.154404,-0.033365 -3.710368,-1.2087119 -1.51117,-1.1966504 -1.575029,-1.2531535 -3.06958,-1.2531535 z"
         style="fill:none;fill-opacity:1;stroke:#000000;stroke-width:2.3;stroke-linecap:round;stroke-linejoin:round;stroke-miterlimit:4;stroke-dasharray:none;stroke-opacity:0.03"
         id="path1902" />
      <path
         id="path1904"
         style="fill:none;fill-opacity:1;stroke:#000000;stroke-width:2.4;stroke-linecap:round;stroke-linejoin:round;stroke-miterlimit:4;stroke-dasharray:none;stroke-opacity:0.03"
         d="m 48.110665,7.4140175 c -1.270146,0 -2.292883,1.0222204 -2.292883,2.2923667 v 3.7455078 12.089701 3.745509 c 0,1.270145 1.022737,2.292366 2.292883,2.292366 h 24.91114 c 1.270148,0 2.292368,-1.022221 2.292368,-2.292366 V 25.541593 13.451892 12.063863 c 0,-1.270147 -1.022776,-2.3027585 -2.292884,-2.2923664 L 60.25566,9.8758829 c -1.823224,0 -2.154404,-0.033365 -3.710368,-1.2087119 -1.51117,-1.1966504 -1.575029,-1.2531535 -3.06958,-1.2531535 z" />
      <path
         d="m 48.110665,7.4140175 c -1.270146,0 -2.292883,1.0222204 -2.292883,2.2923667 v 3.7455078 12.089701 3.745509 c 0,1.270145 1.022737,2.292366 2.292883,2.292366 h 24.91114 c 1.270148,0 2.292368,-1.022221 2.292368,-2.292366 V 25.541593 13.451892 12.063863 c 0,-1.270147 -1.022776,-2.3027585 -2.292884,-2.2923664 L 60.25566,9.8758829 c -1.823224,0 -2.154404,-0.033365 -3.710368,-1.2087119 -1.51117,-1.1966504 -1.575029,-1.2531535 -3.06958,-1.2531535 z"
         style="fill:none;fill-opacity:1;stroke:#000000;stroke-width:2.5;stroke-linecap:round;stroke-linejoin:round;stroke-miterlimit:4;stroke-dasharray:none;stroke-opacity:0.03"
         id="path1906" />
      <path
         id="path1908"
         style="fill:none;fill-opacity:1;stroke:#000000;stroke-width:2.6;stroke-linecap:round;stroke-linejoin:round;stroke-miterlimit:4;stroke-dasharray:none;stroke-opacity:0.03"
         d="m 48.110665,7.4140175 c -1.270146,0 -2.292883,1.0222204 -2.292883,2.2923667 v 3.7455078 12.089701 3.745509 c 0,1.270145 1.022737,2.292366 2.292883,2.292366 h 24.91114 c 1.270148,0 2.292368,-1.022221 2.292368,-2.292366 V 25.541593 13.451892 12.063863 c 0,-1.270147 -1.022776,-2.3027585 -2.292884,-2.2923664 L 60.25566,9.8758829 c -1.823224,0 -2.154404,-0.033365 -3.710368,-1.2087119 -1.51117,-1.1966504 -1.575029,-1.2531535 -3.06958,-1.2531535 z" />
      <path
         d="m 48.110665,7.4140175 c -1.270146,0 -2.292883,1.0222204 -2.292883,2.2923667 v 3.7455078 12.089701 3.745509 c 0,1.270145 1.022737,2.292366 2.292883,2.292366 h 24.91114 c 1.270148,0 2.292368,-1.022221 2.292368,-2.292366 V 25.541593 13.451892 12.063863 c 0,-1.270147 -1.022776,-2.3027585 -2.292884,-2.2923664 L 60.25566,9.8758829 c -1.823224,0 -2.154404,-0.033365 -3.710368,-1.2087119 -1.51117,-1.1966504 -1.575029,-1.2531535 -3.06958,-1.2531535 z"
         style="fill:none;fill-opacity:1;stroke:#000000;stroke-width:2.7;stroke-linecap:round;stroke-linejoin:round;stroke-miterlimit:4;stroke-dasharray:none;stroke-opacity:0.03"
         id="path1910" />
      <path
         id="path1912"
         style="fill:none;fill-opacity:1;stroke:#000000;stroke-width:2.8;stroke-linecap:round;stroke-linejoin:round;stroke-miterlimit:4;stroke-dasharray:none;stroke-opacity:0.03"
         d="m 48.110665,7.4140175 c -1.270146,0 -2.292883,1.0222204 -2.292883,2.2923667 v 3.7455078 12.089701 3.745509 c 0,1.270145 1.022737,2.292366 2.292883,2.292366 h 24.91114 c 1.270148,0 2.292368,-1.022221 2.292368,-2.292366 V 25.541593 13.451892 12.063863 c 0,-1.270147 -1.022776,-2.3027585 -2.292884,-2.2923664 L 60.25566,9.8758829 c -1.823224,0 -2.154404,-0.033365 -3.710368,-1.2087119 -1.51117,-1.1966504 -1.575029,-1.2531535 -3.06958,-1.2531535 z" />
      <path
         d="m 48.110665,7.4140175 c -1.270146,0 -2.292883,1.0222204 -2.292883,2.2923667 v 3.7455078 12.089701 3.745509 c 0,1.270145 1.022737,2.292366 2.292883,2.292366 h 24.91114 c 1.270148,0 2.292368,-1.022221 2.292368,-2.292366 V 25.541593 13.451892 12.063863 c 0,-1.270147 -1.022776,-2.3027585 -2.292884,-2.2923664 L 60.25566,9.8758829 c -1.823224,0 -2.154404,-0.033365 -3.710368,-1.2087119 -1.51117,-1.1966504 -1.575029,-1.2531535 -3.06958,-1.2531535 z"
         style="fill:none;fill-opacity:1;stroke:#000000;stroke-width:2.9;stroke-linecap:round;stroke-linejoin:round;stroke-miterlimit:4;stroke-dasharray:none;stroke-opacity:0.03"
         id="path1914" />
      <path
         id="path1916"
         style="fill:none;fill-opacity:1;stroke:#000000;stroke-width:3;stroke-linecap:round;stroke-linejoin:round;stroke-miterlimit:4;stroke-dasharray:none;stroke-opacity:0.03"
         d="m 48.110665,7.4140175 c -1.270146,0 -2.292883,1.0222204 -2.292883,2.2923667 v 3.7455078 12.089701 3.745509 c 0,1.270145 1.022737,2.292366 2.292883,2.292366 h 24.91114 c 1.270148,0 2.292368,-1.022221 2.292368,-2.292366 V 25.541593 13.451892 12.063863 c 0,-1.270147 -1.022776,-2.3027585 -2.292884,-2.2923664 L 60.25566,9.8758829 c -1.823224,0 -2.154404,-0.033365 -3.710368,-1.2087119 -1.51117,-1.1966504 -1.575029,-1.2531535 -3.06958,-1.2531535 z" />
      <path
         d="m 48.110665,7.4140175 c -1.270146,0 -2.292883,1.0222204 -2.292883,2.2923667 v 3.7455078 12.089701 3.745509 c 0,1.270145 1.022737,2.292366 2.292883,2.292366 h 24.91114 c 1.270148,0 2.292368,-1.022221 2.292368,-2.292366 V 25.541593 13.451892 12.063863 c 0,-1.270147 -1.022776,-2.3027585 -2.292884,-2.2923664 L 60.25566,9.8758829 c -1.823224,0 -2.154404,-0.033365 -3.710368,-1.2087119 -1.51117,-1.1966504 -1.575029,-1.2531535 -3.06958,-1.2531535 z"
         style="fill:none;fill-opacity:1;stroke:#000000;stroke-width:3.2;stroke-linecap:round;stroke-linejoin:round;stroke-miterlimit:4;stroke-dasharray:none;stroke-opacity:0.03"
         id="path1918" />
      <path
         id="path1920"
         style="fill:none;fill-opacity:1;stroke:#000000;stroke-width:3.4;stroke-linecap:round;stroke-linejoin:round;stroke-miterlimit:4;stroke-dasharray:none;stroke-opacity:0.03"
         d="m 48.110665,7.4140175 c -1.270146,0 -2.292883,1.0222204 -2.292883,2.2923667 v 3.7455078 12.089701 3.745509 c 0,1.270145 1.022737,2.292366 2.292883,2.292366 h 24.91114 c 1.270148,0 2.292368,-1.022221 2.292368,-2.292366 V 25.541593 13.451892 12.063863 c 0,-1.270147 -1.022776,-2.3027585 -2.292884,-2.2923664 L 60.25566,9.8758829 c -1.823224,0 -2.154404,-0.033365 -3.710368,-1.2087119 -1.51117,-1.1966504 -1.575029,-1.2531535 -3.06958,-1.2531535 z" />
      <path
         d="m 48.110665,7.4140175 c -1.270146,0 -2.292883,1.0222204 -2.292883,2.2923667 v 3.7455078 12.089701 3.745509 c 0,1.270145 1.022737,2.292366 2.292883,2.292366 h 24.91114 c 1.270148,0 2.292368,-1.022221 2.292368,-2.292366 V 25.541593 13.451892 12.063863 c 0,-1.270147 -1.022776,-2.3027585 -2.292884,-2.2923664 L 60.25566,9.8758829 c -1.823224,0 -2.154404,-0.033365 -3.710368,-1.2087119 -1.51117,-1.1966504 -1.575029,-1.2531535 -3.06958,-1.2531535 z"
         style="fill:none;fill-opacity:1;stroke:#000000;stroke-width:3.6;stroke-linecap:round;stroke-linejoin:round;stroke-miterlimit:4;stroke-dasharray:none;stroke-opacity:0.03"
         id="path1922" />
      <path
         id="path1924"
         style="fill:none;fill-opacity:1;stroke:#000000;stroke-width:3.8;stroke-linecap:round;stroke-linejoin:round;stroke-miterlimit:4;stroke-dasharray:none;stroke-opacity:0.03"
         d="m 48.110665,7.4140175 c -1.270146,0 -2.292883,1.0222204 -2.292883,2.2923667 v 3.7455078 12.089701 3.745509 c 0,1.270145 1.022737,2.292366 2.292883,2.292366 h 24.91114 c 1.270148,0 2.292368,-1.022221 2.292368,-2.292366 V 25.541593 13.451892 12.063863 c 0,-1.270147 -1.022776,-2.3027585 -2.292884,-2.2923664 L 60.25566,9.8758829 c -1.823224,0 -2.154404,-0.033365 -3.710368,-1.2087119 -1.51117,-1.1966504 -1.575029,-1.2531535 -3.06958,-1.2531535 z" />
      <path
         d="m 48.110665,7.4140175 c -1.270146,0 -2.292883,1.0222204 -2.292883,2.2923667 v 3.7455078 12.089701 3.745509 c 0,1.270145 1.022737,2.292366 2.292883,2.292366 h 24.91114 c 1.270148,0 2.292368,-1.022221 2.292368,-2.292366 V 25.541593 13.451892 12.063863 c 0,-1.270147 -1.022776,-2.3027585 -2.292884,-2.2923664 L 60.25566,9.8758829 c -1.823224,0 -2.154404,-0.033365 -3.710368,-1.2087119 -1.51117,-1.1966504 -1.575029,-1.2531535 -3.06958,-1.2531535 z"
         style="fill:none;fill-opacity:1;stroke:#000000;stroke-width:4;stroke-linecap:round;stroke-linejoin:round;stroke-miterlimit:4;stroke-dasharray:none;stroke-opacity:0.03"
         id="path1926" />
    </g>
    <g
       id="g1485"
       transform="matrix(0.77551986,0,0,0.77551986,-368.28452,-169.44998)">
      <path
         sodipodi:nodetypes="scccssssssss"
         d="m 480.72952,227.77032 h 6.91809 c 1.92716,0 2.01001,0.0732 3.9586,1.61623 2.00635,1.51556 2.43299,1.55818 4.78396,1.55818 l 16.46112,-0.13448 c 1.63775,-0.0134 2.95632,1.31851 2.95632,2.95631 v 17.3786 c 0,1.6378 -1.31852,2.95632 -2.95632,2.95632 h -32.12177 c -1.6378,0 -2.95632,-1.31852 -2.95632,-2.95632 v -20.41853 c 0,-1.6378 1.31852,-2.95631 2.95632,-2.95631 z"
         style="opacity:1;fill:#46a2d7;fill-opacity:1;stroke:none;stroke-width:4;stroke-linecap:round;stroke-linejoin:round;stroke-opacity:0.03"
         id="rect871" />
      <g
         transform="translate(-47.738556,-0.12322998)"
         id="g1308">
        <rect
           ry="2.9563174"
           rx="2.9563174"
           y="232.72301"
           x="525.51184"
           height="26.331163"
           width="38.034409"
           id="rect882"
           style="opacity:0.354548;fill:#0d3956;fill-opacity:0.02;stroke:none;stroke-width:4;stroke-linecap:round;stroke-linejoin:round;stroke-opacity:0.03" />
        <rect
           style="opacity:0.354548;fill:#0d3956;fill-opacity:0.02;stroke:none;stroke-width:4;stroke-linecap:round;stroke-linejoin:round;stroke-opacity:0.03"
           id="rect886"
           width="38.034409"
           height="26.331163"
           x="525.51184"
           y="232.69247"
           rx="2.9563174"
           ry="2.9563174" />
        <rect
           ry="2.9563174"
           rx="2.9563174"
           y="232.66624"
           x="525.51184"
           height="26.331163"
           width="38.034409"
           id="rect888"
           style="opacity:0.354548;fill:#0d3956;fill-opacity:0.02;stroke:none;stroke-width:4;stroke-linecap:round;stroke-linejoin:round;stroke-opacity:0.03" />
        <rect
           style="opacity:0.354548;fill:#0d3956;fill-opacity:0.02;stroke:none;stroke-width:4;stroke-linecap:round;stroke-linejoin:round;stroke-opacity:0.03"
           id="rect890"
           width="38.034409"
           height="26.331163"
           x="525.51184"
           y="232.65039"
           rx="2.9563174"
           ry="2.9563174" />
        <rect
           ry="2.9563174"
           rx="2.9563174"
           y="232.63063"
           x="525.51184"
           height="26.331163"
           width="38.034409"
           id="rect892"
           style="opacity:0.354548;fill:#0d3956;fill-opacity:0.02;stroke:none;stroke-width:4;stroke-linecap:round;stroke-linejoin:round;stroke-opacity:0.03" />
        <rect
           style="opacity:0.354548;fill:#0d3956;fill-opacity:0.02;stroke:none;stroke-width:4;stroke-linecap:round;stroke-linejoin:round;stroke-opacity:0.03"
           id="rect894"
           width="38.034409"
           height="26.331163"
           x="525.51184"
           y="232.62241"
           rx="2.9563174"
           ry="2.9563174" />
        <rect
           ry="2.9563174"
           rx="2.9563174"
           y="232.60863"
           x="525.51184"
           height="26.331163"
           width="38.034409"
           id="rect896"
           style="opacity:0.354548;fill:#0d3956;fill-opacity:0.02;stroke:none;stroke-width:4;stroke-linecap:round;stroke-linejoin:round;stroke-opacity:0.03" />
        <rect
           style="opacity:0.354548;fill:#0d3956;fill-opacity:0.02;stroke:none;stroke-width:4;stroke-linecap:round;stroke-linejoin:round;stroke-opacity:0.03"
           id="rect898"
           width="38.034409"
           height="26.331163"
           x="525.49158"
           y="232.59978"
           rx="2.9563174"
           ry="2.9563174" />
        <rect
           ry="2.9563174"
           rx="2.9563174"
           y="232.59285"
           x="525.49158"
           height="26.331163"
           width="38.034409"
           id="rect900"
           style="opacity:0.354548;fill:#0d3956;fill-opacity:0.02;stroke:none;stroke-width:4;stroke-linecap:round;stroke-linejoin:round;stroke-opacity:0.03" />
        <rect
           style="opacity:0.354548;fill:#0d3956;fill-opacity:0.02;stroke:none;stroke-width:4;stroke-linecap:round;stroke-linejoin:round;stroke-opacity:0.03"
           id="rect902"
           width="38.034409"
           height="26.331163"
           x="525.49158"
           y="232.58401"
           rx="2.9563174"
           ry="2.9563174" />
        <rect
           ry="2.9563174"
           rx="2.9563174"
           y="232.57298"
           x="525.49158"
           height="26.331163"
           width="38.034409"
           id="rect904"
           style="opacity:0.354548;fill:#0d3956;fill-opacity:0.02;stroke:none;stroke-width:4;stroke-linecap:round;stroke-linejoin:round;stroke-opacity:0.03" />
        <rect
           style="opacity:0.354548;fill:#0d3956;fill-opacity:0.02;stroke:none;stroke-width:4;stroke-linecap:round;stroke-linejoin:round;stroke-opacity:0.03"
           id="rect906"
           width="38.034409"
           height="26.331163"
           x="525.49158"
           y="232.56409"
           rx="2.9563174"
           ry="2.9563174" />
        <rect
           ry="2.9563174"
           rx="2.9563174"
           y="232.55046"
           x="525.49158"
           height="26.331163"
           width="38.034409"
           id="rect908"
           style="opacity:0.354548;fill:#0d3956;fill-opacity:0.02;stroke:none;stroke-width:4;stroke-linecap:round;stroke-linejoin:round;stroke-opacity:0.03" />
        <rect
           style="opacity:0.354548;fill:#0d3956;fill-opacity:0.02;stroke:none;stroke-width:4;stroke-linecap:round;stroke-linejoin:round;stroke-opacity:0.03"
           id="rect910"
           width="38.034409"
           height="26.331163"
           x="525.49158"
           y="232.53601"
           rx="2.9563174"
           ry="2.9563174" />
        <rect
           ry="2.9563174"
           rx="2.9563174"
           y="232.51932"
           x="525.49158"
           height="26.331163"
           width="38.034409"
           id="rect912"
           style="opacity:0.354548;fill:#0d3956;fill-opacity:0.02;stroke:none;stroke-width:4;stroke-linecap:round;stroke-linejoin:round;stroke-opacity:0.03" />
        <rect
           style="opacity:0.354548;fill:#0d3956;fill-opacity:0.02;stroke:none;stroke-width:4;stroke-linecap:round;stroke-linejoin:round;stroke-opacity:0.03"
           id="rect914"
           width="38.034409"
           height="26.331163"
           x="525.49158"
           y="232.50349"
           rx="2.9563174"
           ry="2.9563174" />
        <rect
           ry="2.9563174"
           rx="2.9563174"
           y="232.48816"
           x="525.49158"
           height="26.331163"
           width="38.034409"
           id="rect916"
           style="opacity:0.354548;fill:#0d3956;fill-opacity:0.02;stroke:none;stroke-width:4;stroke-linecap:round;stroke-linejoin:round;stroke-opacity:0.03" />
        <rect
           style="opacity:0.354548;fill:#0d3956;fill-opacity:0.02;stroke:none;stroke-width:4;stroke-linecap:round;stroke-linejoin:round;stroke-opacity:0.03"
           id="rect918"
           width="38.034409"
           height="26.331163"
           x="525.49158"
           y="232.47243"
           rx="2.9563174"
           ry="2.9563174" />
        <rect
           ry="2.9563174"
           rx="2.9563174"
           y="232.45538"
           x="525.49158"
           height="26.331163"
           width="38.034409"
           id="rect920"
           style="opacity:0.354548;fill:#0d3956;fill-opacity:0.02;stroke:none;stroke-width:4;stroke-linecap:round;stroke-linejoin:round;stroke-opacity:0.03" />
        <rect
           style="opacity:0.354548;fill:#0d3956;fill-opacity:0.02;stroke:none;stroke-width:4;stroke-linecap:round;stroke-linejoin:round;stroke-opacity:0.03"
           id="rect922"
           width="38.034409"
           height="26.331163"
           x="525.49158"
           y="232.42856"
           rx="2.9563174"
           ry="2.9563174" />
        <rect
           ry="2.9563174"
           rx="2.9563174"
           y="232.3983"
           x="525.49158"
           height="26.331163"
           width="38.034409"
           id="rect924"
           style="opacity:0.354548;fill:#0d3956;fill-opacity:0.02;stroke:none;stroke-width:4;stroke-linecap:round;stroke-linejoin:round;stroke-opacity:0.03" />
        <rect
           style="opacity:0.354548;fill:#0d3956;fill-opacity:0.02;stroke:none;stroke-width:4;stroke-linecap:round;stroke-linejoin:round;stroke-opacity:0.03"
           id="rect926"
           width="38.034409"
           height="26.331163"
           x="525.49158"
           y="232.37044"
           rx="2.9563174"
           ry="2.9563174" />
        <rect
           ry="2.9563174"
           rx="2.9563174"
           y="232.34357"
           x="525.49158"
           height="26.331163"
           width="38.034409"
           id="rect928"
           style="opacity:0.354548;fill:#0d3956;fill-opacity:0.02;stroke:none;stroke-width:4;stroke-linecap:round;stroke-linejoin:round;stroke-opacity:0.03" />
        <rect
           style="opacity:0.354548;fill:#0d3956;fill-opacity:0.02;stroke:none;stroke-width:4;stroke-linecap:round;stroke-linejoin:round;stroke-opacity:0.03"
           id="rect930"
           width="38.034409"
           height="26.331163"
           x="525.49158"
           y="232.31477"
           rx="2.9563174"
           ry="2.9563174" />
        <rect
           ry="2.9563174"
           rx="2.9563174"
           y="232.2852"
           x="525.49158"
           height="26.331163"
           width="38.034409"
           id="rect932"
           style="opacity:0.354548;fill:#0d3956;fill-opacity:0.02;stroke:none;stroke-width:4;stroke-linecap:round;stroke-linejoin:round;stroke-opacity:0.03" />
        <rect
           style="opacity:0.354548;fill:#0d3956;fill-opacity:0.02;stroke:none;stroke-width:4;stroke-linecap:round;stroke-linejoin:round;stroke-opacity:0.03"
           id="rect934"
           width="38.034409"
           height="26.331163"
           x="525.49158"
           y="232.25558"
           rx="2.9563174"
           ry="2.9563174" />
        <rect
           ry="2.9563174"
           rx="2.9563174"
           y="232.22881"
           x="525.49158"
           height="26.331163"
           width="38.034409"
           id="rect936"
           style="opacity:0.354548;fill:#0d3956;fill-opacity:0.02;stroke:none;stroke-width:4;stroke-linecap:round;stroke-linejoin:round;stroke-opacity:0.03" />
        <rect
           style="opacity:0.354548;fill:#0d3956;fill-opacity:0.02;stroke:none;stroke-width:4;stroke-linecap:round;stroke-linejoin:round;stroke-opacity:0.03"
           id="rect938"
           width="38.034409"
           height="26.331163"
           x="525.49158"
           y="232.20297"
           rx="2.9563174"
           ry="2.9563174" />
        <rect
           ry="2.9563174"
           rx="2.9563174"
           y="232.17253"
           x="525.49158"
           height="26.331163"
           width="38.034409"
           id="rect940"
           style="opacity:0.354548;fill:#0d3956;fill-opacity:0.02;stroke:none;stroke-width:4;stroke-linecap:round;stroke-linejoin:round;stroke-opacity:0.03" />
        <rect
           style="opacity:0.354548;fill:#0d3956;fill-opacity:0.02;stroke:none;stroke-width:4;stroke-linecap:round;stroke-linejoin:round;stroke-opacity:0.03"
           id="rect942"
           width="38.034409"
           height="26.331163"
           x="525.49158"
           y="232.14153"
           rx="2.9563174"
           ry="2.9563174" />
        <rect
           ry="2.9563174"
           rx="2.9563174"
           y="232.11038"
           x="525.49158"
           height="26.331163"
           width="38.034409"
           id="rect944"
           style="opacity:0.354548;fill:#0d3956;fill-opacity:0.02;stroke:none;stroke-width:4;stroke-linecap:round;stroke-linejoin:round;stroke-opacity:0.03" />
        <rect
           style="opacity:0.354548;fill:#0d3956;fill-opacity:0.02;stroke:none;stroke-width:4;stroke-linecap:round;stroke-linejoin:round;stroke-opacity:0.03"
           id="rect946"
           width="38.034409"
           height="26.331163"
           x="525.49158"
           y="232.07944"
           rx="2.9563174"
           ry="2.9563174" />
        <rect
           ry="2.9563174"
           rx="2.9563174"
           y="232.04744"
           x="525.49158"
           height="26.331163"
           width="38.034409"
           id="rect948"
           style="opacity:0.354548;fill:#0d3956;fill-opacity:0.02;stroke:none;stroke-width:4;stroke-linecap:round;stroke-linejoin:round;stroke-opacity:0.03" />
        <rect
           style="opacity:0.354548;fill:#0d3956;fill-opacity:0.02;stroke:none;stroke-width:4;stroke-linecap:round;stroke-linejoin:round;stroke-opacity:0.03"
           id="rect950"
           width="38.034409"
           height="26.331163"
           x="525.49158"
           y="232.01729"
           rx="2.9563174"
           ry="2.9563174" />
        <rect
           ry="2.9563174"
           rx="2.9563174"
           y="231.97963"
           x="525.49158"
           height="26.331163"
           width="38.034409"
           id="rect952"
           style="opacity:0.354548;fill:#0d3956;fill-opacity:0.02;stroke:none;stroke-width:4;stroke-linecap:round;stroke-linejoin:round;stroke-opacity:0.03" />
        <rect
           style="opacity:0.354548;fill:#0d3956;fill-opacity:0.02;stroke:none;stroke-width:4;stroke-linecap:round;stroke-linejoin:round;stroke-opacity:0.03"
           id="rect954"
           width="38.034409"
           height="26.331163"
           x="525.49158"
           y="231.93626"
           rx="2.9563174"
           ry="2.9563174" />
        <rect
           ry="2.9563174"
           rx="2.9563174"
           y="231.89285"
           x="525.49158"
           height="26.331163"
           width="38.034409"
           id="rect956"
           style="opacity:0.354548;fill:#0d3956;fill-opacity:0.02;stroke:none;stroke-width:4;stroke-linecap:round;stroke-linejoin:round;stroke-opacity:0.03" />
        <rect
           style="opacity:0.354548;fill:#0d3956;fill-opacity:0.02;stroke:none;stroke-width:4;stroke-linecap:round;stroke-linejoin:round;stroke-opacity:0.03"
           id="rect958"
           width="38.034409"
           height="26.331163"
           x="525.49158"
           y="231.84746"
           rx="2.9563174"
           ry="2.9563174" />
        <rect
           ry="2.9563174"
           rx="2.9563174"
           y="231.8018"
           x="525.49158"
           height="26.331163"
           width="38.034409"
           id="rect960"
           style="opacity:0.354548;fill:#0d3956;fill-opacity:0.02;stroke:none;stroke-width:4;stroke-linecap:round;stroke-linejoin:round;stroke-opacity:0.03" />
        <rect
           style="opacity:0.354548;fill:#0d3956;fill-opacity:0.02;stroke:none;stroke-width:4;stroke-linecap:round;stroke-linejoin:round;stroke-opacity:0.03"
           id="rect962"
           width="38.034409"
           height="26.331163"
           x="525.49158"
           y="231.7522"
           rx="2.9563174"
           ry="2.9563174" />
        <rect
           ry="2.9563174"
           rx="2.9563174"
           y="231.70299"
           x="525.49158"
           height="26.331163"
           width="38.034409"
           id="rect964"
           style="opacity:0.354548;fill:#0d3956;fill-opacity:0.02;stroke:none;stroke-width:4;stroke-linecap:round;stroke-linejoin:round;stroke-opacity:0.03" />
        <rect
           style="opacity:0.354548;fill:#0d3956;fill-opacity:0.02;stroke:none;stroke-width:4;stroke-linecap:round;stroke-linejoin:round;stroke-opacity:0.03"
           id="rect966"
           width="38.034409"
           height="26.331163"
           x="525.49158"
           y="231.64969"
           rx="2.9563174"
           ry="2.9563174" />
        <rect
           ry="2.9563174"
           rx="2.9563174"
           y="231.5999"
           x="525.49158"
           height="26.331163"
           width="38.034409"
           id="rect968"
           style="opacity:0.354548;fill:#0d3956;fill-opacity:0.02;stroke:none;stroke-width:4;stroke-linecap:round;stroke-linejoin:round;stroke-opacity:0.03" />
        <rect
           style="opacity:0.354548;fill:#0d3956;fill-opacity:0.02;stroke:none;stroke-width:4;stroke-linecap:round;stroke-linejoin:round;stroke-opacity:0.03"
           id="rect970"
           width="38.034409"
           height="26.331163"
           x="525.49158"
           y="231.54996"
           rx="2.9563174"
           ry="2.9563174" />
        <rect
           ry="2.9563174"
           rx="2.9563174"
           y="231.50027"
           x="525.49158"
           height="26.331163"
           width="38.034409"
           id="rect972"
           style="opacity:0.354548;fill:#0d3956;fill-opacity:0.02;stroke:none;stroke-width:4;stroke-linecap:round;stroke-linejoin:round;stroke-opacity:0.03" />
        <rect
           style="opacity:0.354548;fill:#0d3956;fill-opacity:0.02;stroke:none;stroke-width:4;stroke-linecap:round;stroke-linejoin:round;stroke-opacity:0.03"
           id="rect974"
           width="38.034409"
           height="26.331163"
           x="525.49158"
           y="231.45496"
           rx="2.9563174"
           ry="2.9563174" />
        <rect
           ry="2.9563174"
           rx="2.9563174"
           y="231.3998"
           x="525.49158"
           height="26.331163"
           width="38.034409"
           id="rect976"
           style="opacity:0.354548;fill:#0d3956;fill-opacity:0.02;stroke:none;stroke-width:4;stroke-linecap:round;stroke-linejoin:round;stroke-opacity:0.03" />
        <rect
           style="opacity:0.354548;fill:#0d3956;fill-opacity:0.02;stroke:none;stroke-width:4;stroke-linecap:round;stroke-linejoin:round;stroke-opacity:0.03"
           id="rect978"
           width="38.034409"
           height="26.331163"
           x="525.49158"
           y="231.3497"
           rx="2.9563174"
           ry="2.9563174" />
        <rect
           ry="2.9563174"
           rx="2.9563174"
           y="231.29323"
           x="525.49158"
           height="26.331163"
           width="38.034409"
           id="rect980"
           style="opacity:0.354548;fill:#0d3956;fill-opacity:0.02;stroke:none;stroke-width:4;stroke-linecap:round;stroke-linejoin:round;stroke-opacity:0.03" />
        <rect
           style="opacity:0.354548;fill:#0d3956;fill-opacity:0.02;stroke:none;stroke-width:4;stroke-linecap:round;stroke-linejoin:round;stroke-opacity:0.03"
           id="rect982"
           width="38.034409"
           height="26.331163"
           x="525.49158"
           y="231.24362"
           rx="2.9563174"
           ry="2.9563174" />
        <rect
           ry="2.9563174"
           rx="2.9563174"
           y="231.19147"
           x="525.49158"
           height="26.331163"
           width="38.034409"
           id="rect984"
           style="opacity:0.354548;fill:#0d3956;fill-opacity:0.02;stroke:none;stroke-width:4;stroke-linecap:round;stroke-linejoin:round;stroke-opacity:0.03" />
        <rect
           style="opacity:0.354548;fill:#0d3956;fill-opacity:0.02;stroke:none;stroke-width:4;stroke-linecap:round;stroke-linejoin:round;stroke-opacity:0.03"
           id="rect986"
           width="38.034409"
           height="26.331163"
           x="525.49158"
           y="231.12424"
           rx="2.9563174"
           ry="2.9563174" />
        <rect
           ry="2.9563174"
           rx="2.9563174"
           y="231.06644"
           x="525.49158"
           height="26.331163"
           width="38.034409"
           id="rect988"
           style="opacity:0.354548;fill:#0d3956;fill-opacity:0.02;stroke:none;stroke-width:4;stroke-linecap:round;stroke-linejoin:round;stroke-opacity:0.03" />
        <rect
           style="opacity:0.354548;fill:#0d3956;fill-opacity:0.02;stroke:none;stroke-width:4;stroke-linecap:round;stroke-linejoin:round;stroke-opacity:0.03"
           id="rect990"
           width="38.034409"
           height="26.331163"
           x="525.49158"
           y="230.99336"
           rx="2.9563174"
           ry="2.9563174" />
        <rect
           ry="2.9563174"
           rx="2.9563174"
           y="230.92383"
           x="525.49158"
           height="26.331163"
           width="38.034409"
           id="rect992"
           style="opacity:0.354548;fill:#0d3956;fill-opacity:0.02;stroke:none;stroke-width:4;stroke-linecap:round;stroke-linejoin:round;stroke-opacity:0.03" />
        <rect
           style="opacity:0.354548;fill:#0d3956;fill-opacity:0.02;stroke:none;stroke-width:4;stroke-linecap:round;stroke-linejoin:round;stroke-opacity:0.03"
           id="rect994"
           width="38.034409"
           height="26.331163"
           x="525.49158"
           y="230.84418"
           rx="2.9563174"
           ry="2.9563174" />
        <rect
           ry="2.9563174"
           rx="2.9563174"
           y="230.7709"
           x="525.49158"
           height="26.331163"
           width="38.034409"
           id="rect996"
           style="opacity:0.354548;fill:#0d3956;fill-opacity:0.02;stroke:none;stroke-width:4;stroke-linecap:round;stroke-linejoin:round;stroke-opacity:0.03" />
        <rect
           style="opacity:0.354548;fill:#0d3956;fill-opacity:0.02;stroke:none;stroke-width:4;stroke-linecap:round;stroke-linejoin:round;stroke-opacity:0.03"
           id="rect998"
           width="38.034409"
           height="26.331163"
           x="525.49158"
           y="230.69928"
           rx="2.9563174"
           ry="2.9563174" />
        <rect
           ry="2.9563174"
           rx="2.9563174"
           y="230.62663"
           x="525.49689"
           height="26.331163"
           width="38.034409"
           id="rect1000"
           style="opacity:0.354548;fill:#0d3956;fill-opacity:0.02;stroke:none;stroke-width:4;stroke-linecap:round;stroke-linejoin:round;stroke-opacity:0.03" />
        <rect
           style="opacity:0.354548;fill:#0d3956;fill-opacity:0.02;stroke:none;stroke-width:4;stroke-linecap:round;stroke-linejoin:round;stroke-opacity:0.03"
           id="rect1002"
           width="38.034409"
           height="26.331163"
           x="525.49689"
           y="230.56963"
           rx="2.9563174"
           ry="2.9563174" />
      </g>
      <path
         id="path1310"
         style="opacity:1;fill:url(#linearGradient1318);fill-opacity:1;stroke:none;stroke-width:4;stroke-linecap:round;stroke-linejoin:round;stroke-opacity:0.03"
         d="m 480.72952,227.77032 h 6.91809 c 1.92716,0 2.01001,0.0732 3.9586,1.61623 2.00635,1.51556 2.43299,1.55818 4.78396,1.55818 l 16.46112,-0.13448 c 1.63775,-0.0134 2.95632,1.31851 2.95632,2.95631 v 17.3786 c 0,1.6378 -1.31852,2.95632 -2.95632,2.95632 h -32.12177 c -1.6378,0 -2.95632,-1.31852 -2.95632,-2.95632 v -20.41853 c 0,-1.6378 1.31852,-2.95631 2.95632,-2.95631 z"
         sodipodi:nodetypes="scccssssssss" />
      <rect
         ry="2.9563174"
         rx="2.9563174"
         y="232.59978"
         x="477.77328"
         height="26.331163"
         width="38.034409"
         id="rect835"
         style="fill:url(#linearGradient851);fill-opacity:1;stroke:none;stroke-width:4;stroke-linecap:round;stroke-linejoin:round;stroke-opacity:0.03" />
      <path
         d="m 480.7295,232.60003 c -1.63779,0 -2.9564,1.3181 -2.9564,2.9559 v 20.4189 c 0,0.94601 0.44138,1.78349 1.12861,2.32389 -0.39905,-0.50383 -0.6382,-1.14054 -0.6382,-1.83606 v -20.41839 c 0,-1.6378 1.3181,-2.95641 2.9559,-2.95641 h 31.2942 c 1.6378,0 2.9564,1.31861 2.9564,2.95641 v 20.41839 c 0,0.5183 -0.1324,1.0041 -0.36483,1.42678 0.43772,-0.51527 0.70228,-1.18246 0.70228,-1.91461 v -20.4189 c 0,-1.6378 -1.31808,-2.9559 -2.9559,-2.9559 z"
         style="fill:url(#linearGradient869);fill-opacity:1;stroke:none;stroke-width:4;stroke-linecap:round;stroke-linejoin:round;stroke-opacity:0.03"
         id="rect853" />
      <path
         transform="scale(0.26458333)"
         d="m 1806.7051,971.97266 c 0.4209,0.9574 0.9678,1.84573 1.6269,2.63867 h 138.6035 c 0.659,-0.79276 1.2042,-1.68152 1.625,-2.63867 z"
         style="opacity:0.0985775;fill:url(#linearGradient1360);fill-opacity:1;stroke:none;stroke-width:15.1181;stroke-linecap:round;stroke-linejoin:round;stroke-opacity:0.03"
         id="rect1358" />
      <path
         transform="scale(0.26458333)"
         d="m 1806.0566,970.00195 c 0.2149,0.93019 0.5406,1.81466 0.9707,2.63867 h 141.2129 c 0.43,-0.82387 0.7559,-1.70867 0.9707,-2.63867 z"
         style="opacity:0.187224;fill:url(#linearGradient1382);fill-opacity:1;stroke:none;stroke-width:15.1181;stroke-linecap:round;stroke-linejoin:round;stroke-opacity:0.03"
         id="rect1380" />
      <path
         transform="scale(0.26458333)"
         d="m 1805.7578,962.32031 v 2.63867 h 143.752 v -2.63867 z"
         style="opacity:0.0985775;fill:url(#linearGradient1394);fill-opacity:1;stroke:none;stroke-width:15.1181;stroke-linecap:round;stroke-linejoin:round;stroke-opacity:0.03"
         id="rect1388" />
      <path
         transform="scale(0.26458333)"
         d="m 1805.7578,960.34961 v 2.63867 h 143.752 v -2.63867 z"
         style="opacity:0.221643;fill:url(#linearGradient1392);fill-opacity:1;stroke:none;stroke-width:15.1181;stroke-linecap:round;stroke-linejoin:round;stroke-opacity:0.03"
         id="rect1390" />
    </g>
    <path
       sodipodi:nodetypes="scccssssssss"
       d="m 4.53077,7.1904257 h 5.3651162 c 1.4945508,0 1.5588028,0.056768 3.0699728,1.2534184 1.555964,1.1753469 1.886832,1.2083996 3.710056,1.2083996 L 29.441841,9.5479518 c 1.270107,-0.010392 2.292684,1.0225302 2.292684,2.2926772 v 13.477449 c 0,1.270147 -1.022538,2.292685 -2.292684,2.292685 H 4.53077 c -1.2701464,0 -2.2926848,-1.022538 -2.2926848,-2.292685 V 9.4831028 c 0,-1.2701464 1.0225384,-2.2926771 2.2926848,-2.2926771 z"
       style="fill:#46a2d7;fill-opacity:1;stroke:none;stroke-width:3.10208;stroke-linecap:round;stroke-linejoin:round;stroke-opacity:0.03"
       id="path1487" />
    <g
       transform="matrix(0.77551986,0,0,0.77551986,-405.30672,-169.54555)"
       id="g1609">
      <rect
         ry="2.9563174"
         rx="2.9563174"
         y="232.72301"
         x="525.51184"
         height="26.331163"
         width="38.034409"
         id="rect1489"
         style="opacity:0.354548;fill:#0d3956;fill-opacity:0.02;stroke:none;stroke-width:4;stroke-linecap:round;stroke-linejoin:round;stroke-opacity:0.03" />
      <rect
         style="opacity:0.354548;fill:#0d3956;fill-opacity:0.02;stroke:none;stroke-width:4;stroke-linecap:round;stroke-linejoin:round;stroke-opacity:0.03"
         id="rect1491"
         width="38.034409"
         height="26.331163"
         x="525.51184"
         y="232.69247"
         rx="2.9563174"
         ry="2.9563174" />
      <rect
         ry="2.9563174"
         rx="2.9563174"
         y="232.66624"
         x="525.51184"
         height="26.331163"
         width="38.034409"
         id="rect1493"
         style="opacity:0.354548;fill:#0d3956;fill-opacity:0.02;stroke:none;stroke-width:4;stroke-linecap:round;stroke-linejoin:round;stroke-opacity:0.03" />
      <rect
         style="opacity:0.354548;fill:#0d3956;fill-opacity:0.02;stroke:none;stroke-width:4;stroke-linecap:round;stroke-linejoin:round;stroke-opacity:0.03"
         id="rect1495"
         width="38.034409"
         height="26.331163"
         x="525.51184"
         y="232.65039"
         rx="2.9563174"
         ry="2.9563174" />
      <rect
         ry="2.9563174"
         rx="2.9563174"
         y="232.63063"
         x="525.51184"
         height="26.331163"
         width="38.034409"
         id="rect1497"
         style="opacity:0.354548;fill:#0d3956;fill-opacity:0.02;stroke:none;stroke-width:4;stroke-linecap:round;stroke-linejoin:round;stroke-opacity:0.03" />
      <rect
         style="opacity:0.354548;fill:#0d3956;fill-opacity:0.02;stroke:none;stroke-width:4;stroke-linecap:round;stroke-linejoin:round;stroke-opacity:0.03"
         id="rect1499"
         width="38.034409"
         height="26.331163"
         x="525.51184"
         y="232.62241"
         rx="2.9563174"
         ry="2.9563174" />
      <rect
         ry="2.9563174"
         rx="2.9563174"
         y="232.60863"
         x="525.51184"
         height="26.331163"
         width="38.034409"
         id="rect1501"
         style="opacity:0.354548;fill:#0d3956;fill-opacity:0.02;stroke:none;stroke-width:4;stroke-linecap:round;stroke-linejoin:round;stroke-opacity:0.03" />
      <rect
         style="opacity:0.354548;fill:#0d3956;fill-opacity:0.02;stroke:none;stroke-width:4;stroke-linecap:round;stroke-linejoin:round;stroke-opacity:0.03"
         id="rect1503"
         width="38.034409"
         height="26.331163"
         x="525.49158"
         y="232.59978"
         rx="2.9563174"
         ry="2.9563174" />
      <rect
         ry="2.9563174"
         rx="2.9563174"
         y="232.59285"
         x="525.49158"
         height="26.331163"
         width="38.034409"
         id="rect1505"
         style="opacity:0.354548;fill:#0d3956;fill-opacity:0.02;stroke:none;stroke-width:4;stroke-linecap:round;stroke-linejoin:round;stroke-opacity:0.03" />
      <rect
         style="opacity:0.354548;fill:#0d3956;fill-opacity:0.02;stroke:none;stroke-width:4;stroke-linecap:round;stroke-linejoin:round;stroke-opacity:0.03"
         id="rect1507"
         width="38.034409"
         height="26.331163"
         x="525.49158"
         y="232.58401"
         rx="2.9563174"
         ry="2.9563174" />
      <rect
         ry="2.9563174"
         rx="2.9563174"
         y="232.57298"
         x="525.49158"
         height="26.331163"
         width="38.034409"
         id="rect1509"
         style="opacity:0.354548;fill:#0d3956;fill-opacity:0.02;stroke:none;stroke-width:4;stroke-linecap:round;stroke-linejoin:round;stroke-opacity:0.03" />
      <rect
         style="opacity:0.354548;fill:#0d3956;fill-opacity:0.02;stroke:none;stroke-width:4;stroke-linecap:round;stroke-linejoin:round;stroke-opacity:0.03"
         id="rect1511"
         width="38.034409"
         height="26.331163"
         x="525.49158"
         y="232.56409"
         rx="2.9563174"
         ry="2.9563174" />
      <rect
         ry="2.9563174"
         rx="2.9563174"
         y="232.55046"
         x="525.49158"
         height="26.331163"
         width="38.034409"
         id="rect1513"
         style="opacity:0.354548;fill:#0d3956;fill-opacity:0.02;stroke:none;stroke-width:4;stroke-linecap:round;stroke-linejoin:round;stroke-opacity:0.03" />
      <rect
         style="opacity:0.354548;fill:#0d3956;fill-opacity:0.02;stroke:none;stroke-width:4;stroke-linecap:round;stroke-linejoin:round;stroke-opacity:0.03"
         id="rect1515"
         width="38.034409"
         height="26.331163"
         x="525.49158"
         y="232.53601"
         rx="2.9563174"
         ry="2.9563174" />
      <rect
         ry="2.9563174"
         rx="2.9563174"
         y="232.51932"
         x="525.49158"
         height="26.331163"
         width="38.034409"
         id="rect1517"
         style="opacity:0.354548;fill:#0d3956;fill-opacity:0.02;stroke:none;stroke-width:4;stroke-linecap:round;stroke-linejoin:round;stroke-opacity:0.03" />
      <rect
         style="opacity:0.354548;fill:#0d3956;fill-opacity:0.02;stroke:none;stroke-width:4;stroke-linecap:round;stroke-linejoin:round;stroke-opacity:0.03"
         id="rect1519"
         width="38.034409"
         height="26.331163"
         x="525.49158"
         y="232.50349"
         rx="2.9563174"
         ry="2.9563174" />
      <rect
         ry="2.9563174"
         rx="2.9563174"
         y="232.48816"
         x="525.49158"
         height="26.331163"
         width="38.034409"
         id="rect1521"
         style="opacity:0.354548;fill:#0d3956;fill-opacity:0.02;stroke:none;stroke-width:4;stroke-linecap:round;stroke-linejoin:round;stroke-opacity:0.03" />
      <rect
         style="opacity:0.354548;fill:#0d3956;fill-opacity:0.02;stroke:none;stroke-width:4;stroke-linecap:round;stroke-linejoin:round;stroke-opacity:0.03"
         id="rect1523"
         width="38.034409"
         height="26.331163"
         x="525.49158"
         y="232.47243"
         rx="2.9563174"
         ry="2.9563174" />
      <rect
         ry="2.9563174"
         rx="2.9563174"
         y="232.45538"
         x="525.49158"
         height="26.331163"
         width="38.034409"
         id="rect1525"
         style="opacity:0.354548;fill:#0d3956;fill-opacity:0.02;stroke:none;stroke-width:4;stroke-linecap:round;stroke-linejoin:round;stroke-opacity:0.03" />
      <rect
         style="opacity:0.354548;fill:#0d3956;fill-opacity:0.02;stroke:none;stroke-width:4;stroke-linecap:round;stroke-linejoin:round;stroke-opacity:0.03"
         id="rect1527"
         width="38.034409"
         height="26.331163"
         x="525.49158"
         y="232.42856"
         rx="2.9563174"
         ry="2.9563174" />
      <rect
         ry="2.9563174"
         rx="2.9563174"
         y="232.3983"
         x="525.49158"
         height="26.331163"
         width="38.034409"
         id="rect1529"
         style="opacity:0.354548;fill:#0d3956;fill-opacity:0.02;stroke:none;stroke-width:4;stroke-linecap:round;stroke-linejoin:round;stroke-opacity:0.03" />
      <rect
         style="opacity:0.354548;fill:#0d3956;fill-opacity:0.02;stroke:none;stroke-width:4;stroke-linecap:round;stroke-linejoin:round;stroke-opacity:0.03"
         id="rect1531"
         width="38.034409"
         height="26.331163"
         x="525.49158"
         y="232.37044"
         rx="2.9563174"
         ry="2.9563174" />
      <rect
         ry="2.9563174"
         rx="2.9563174"
         y="232.34357"
         x="525.49158"
         height="26.331163"
         width="38.034409"
         id="rect1533"
         style="opacity:0.354548;fill:#0d3956;fill-opacity:0.02;stroke:none;stroke-width:4;stroke-linecap:round;stroke-linejoin:round;stroke-opacity:0.03" />
      <rect
         style="opacity:0.354548;fill:#0d3956;fill-opacity:0.02;stroke:none;stroke-width:4;stroke-linecap:round;stroke-linejoin:round;stroke-opacity:0.03"
         id="rect1535"
         width="38.034409"
         height="26.331163"
         x="525.49158"
         y="232.31477"
         rx="2.9563174"
         ry="2.9563174" />
      <rect
         ry="2.9563174"
         rx="2.9563174"
         y="232.2852"
         x="525.49158"
         height="26.331163"
         width="38.034409"
         id="rect1537"
         style="opacity:0.354548;fill:#0d3956;fill-opacity:0.02;stroke:none;stroke-width:4;stroke-linecap:round;stroke-linejoin:round;stroke-opacity:0.03" />
      <rect
         style="opacity:0.354548;fill:#0d3956;fill-opacity:0.02;stroke:none;stroke-width:4;stroke-linecap:round;stroke-linejoin:round;stroke-opacity:0.03"
         id="rect1539"
         width="38.034409"
         height="26.331163"
         x="525.49158"
         y="232.25558"
         rx="2.9563174"
         ry="2.9563174" />
      <rect
         ry="2.9563174"
         rx="2.9563174"
         y="232.22881"
         x="525.49158"
         height="26.331163"
         width="38.034409"
         id="rect1541"
         style="opacity:0.354548;fill:#0d3956;fill-opacity:0.02;stroke:none;stroke-width:4;stroke-linecap:round;stroke-linejoin:round;stroke-opacity:0.03" />
      <rect
         style="opacity:0.354548;fill:#0d3956;fill-opacity:0.02;stroke:none;stroke-width:4;stroke-linecap:round;stroke-linejoin:round;stroke-opacity:0.03"
         id="rect1543"
         width="38.034409"
         height="26.331163"
         x="525.49158"
         y="232.20297"
         rx="2.9563174"
         ry="2.9563174" />
      <rect
         ry="2.9563174"
         rx="2.9563174"
         y="232.17253"
         x="525.49158"
         height="26.331163"
         width="38.034409"
         id="rect1545"
         style="opacity:0.354548;fill:#0d3956;fill-opacity:0.02;stroke:none;stroke-width:4;stroke-linecap:round;stroke-linejoin:round;stroke-opacity:0.03" />
      <rect
         style="opacity:0.354548;fill:#0d3956;fill-opacity:0.02;stroke:none;stroke-width:4;stroke-linecap:round;stroke-linejoin:round;stroke-opacity:0.03"
         id="rect1547"
         width="38.034409"
         height="26.331163"
         x="525.49158"
         y="232.14153"
         rx="2.9563174"
         ry="2.9563174" />
      <rect
         ry="2.9563174"
         rx="2.9563174"
         y="232.11038"
         x="525.49158"
         height="26.331163"
         width="38.034409"
         id="rect1549"
         style="opacity:0.354548;fill:#0d3956;fill-opacity:0.02;stroke:none;stroke-width:4;stroke-linecap:round;stroke-linejoin:round;stroke-opacity:0.03" />
      <rect
         style="opacity:0.354548;fill:#0d3956;fill-opacity:0.02;stroke:none;stroke-width:4;stroke-linecap:round;stroke-linejoin:round;stroke-opacity:0.03"
         id="rect1551"
         width="38.034409"
         height="26.331163"
         x="525.49158"
         y="232.07944"
         rx="2.9563174"
         ry="2.9563174" />
      <rect
         ry="2.9563174"
         rx="2.9563174"
         y="232.04744"
         x="525.49158"
         height="26.331163"
         width="38.034409"
         id="rect1553"
         style="opacity:0.354548;fill:#0d3956;fill-opacity:0.02;stroke:none;stroke-width:4;stroke-linecap:round;stroke-linejoin:round;stroke-opacity:0.03" />
      <rect
         style="opacity:0.354548;fill:#0d3956;fill-opacity:0.02;stroke:none;stroke-width:4;stroke-linecap:round;stroke-linejoin:round;stroke-opacity:0.03"
         id="rect1555"
         width="38.034409"
         height="26.331163"
         x="525.49158"
         y="232.01729"
         rx="2.9563174"
         ry="2.9563174" />
      <rect
         ry="2.9563174"
         rx="2.9563174"
         y="231.97963"
         x="525.49158"
         height="26.331163"
         width="38.034409"
         id="rect1557"
         style="opacity:0.354548;fill:#0d3956;fill-opacity:0.02;stroke:none;stroke-width:4;stroke-linecap:round;stroke-linejoin:round;stroke-opacity:0.03" />
      <rect
         style="opacity:0.354548;fill:#0d3956;fill-opacity:0.02;stroke:none;stroke-width:4;stroke-linecap:round;stroke-linejoin:round;stroke-opacity:0.03"
         id="rect1559"
         width="38.034409"
         height="26.331163"
         x="525.49158"
         y="231.93626"
         rx="2.9563174"
         ry="2.9563174" />
      <rect
         ry="2.9563174"
         rx="2.9563174"
         y="231.89285"
         x="525.49158"
         height="26.331163"
         width="38.034409"
         id="rect1561"
         style="opacity:0.354548;fill:#0d3956;fill-opacity:0.02;stroke:none;stroke-width:4;stroke-linecap:round;stroke-linejoin:round;stroke-opacity:0.03" />
      <rect
         style="opacity:0.354548;fill:#0d3956;fill-opacity:0.02;stroke:none;stroke-width:4;stroke-linecap:round;stroke-linejoin:round;stroke-opacity:0.03"
         id="rect1563"
         width="38.034409"
         height="26.331163"
         x="525.49158"
         y="231.84746"
         rx="2.9563174"
         ry="2.9563174" />
      <rect
         ry="2.9563174"
         rx="2.9563174"
         y="231.8018"
         x="525.49158"
         height="26.331163"
         width="38.034409"
         id="rect1565"
         style="opacity:0.354548;fill:#0d3956;fill-opacity:0.02;stroke:none;stroke-width:4;stroke-linecap:round;stroke-linejoin:round;stroke-opacity:0.03" />
      <rect
         style="opacity:0.354548;fill:#0d3956;fill-opacity:0.02;stroke:none;stroke-width:4;stroke-linecap:round;stroke-linejoin:round;stroke-opacity:0.03"
         id="rect1567"
         width="38.034409"
         height="26.331163"
         x="525.49158"
         y="231.7522"
         rx="2.9563174"
         ry="2.9563174" />
      <rect
         ry="2.9563174"
         rx="2.9563174"
         y="231.70299"
         x="525.49158"
         height="26.331163"
         width="38.034409"
         id="rect1569"
         style="opacity:0.354548;fill:#0d3956;fill-opacity:0.02;stroke:none;stroke-width:4;stroke-linecap:round;stroke-linejoin:round;stroke-opacity:0.03" />
      <rect
         style="opacity:0.354548;fill:#0d3956;fill-opacity:0.02;stroke:none;stroke-width:4;stroke-linecap:round;stroke-linejoin:round;stroke-opacity:0.03"
         id="rect1571"
         width="38.034409"
         height="26.331163"
         x="525.49158"
         y="231.64969"
         rx="2.9563174"
         ry="2.9563174" />
      <rect
         ry="2.9563174"
         rx="2.9563174"
         y="231.5999"
         x="525.49158"
         height="26.331163"
         width="38.034409"
         id="rect1573"
         style="opacity:0.354548;fill:#0d3956;fill-opacity:0.02;stroke:none;stroke-width:4;stroke-linecap:round;stroke-linejoin:round;stroke-opacity:0.03" />
      <rect
         style="opacity:0.354548;fill:#0d3956;fill-opacity:0.02;stroke:none;stroke-width:4;stroke-linecap:round;stroke-linejoin:round;stroke-opacity:0.03"
         id="rect1575"
         width="38.034409"
         height="26.331163"
         x="525.49158"
         y="231.54996"
         rx="2.9563174"
         ry="2.9563174" />
      <rect
         ry="2.9563174"
         rx="2.9563174"
         y="231.50027"
         x="525.49158"
         height="26.331163"
         width="38.034409"
         id="rect1577"
         style="opacity:0.354548;fill:#0d3956;fill-opacity:0.02;stroke:none;stroke-width:4;stroke-linecap:round;stroke-linejoin:round;stroke-opacity:0.03" />
      <rect
         style="opacity:0.354548;fill:#0d3956;fill-opacity:0.02;stroke:none;stroke-width:4;stroke-linecap:round;stroke-linejoin:round;stroke-opacity:0.03"
         id="rect1579"
         width="38.034409"
         height="26.331163"
         x="525.49158"
         y="231.45496"
         rx="2.9563174"
         ry="2.9563174" />
      <rect
         ry="2.9563174"
         rx="2.9563174"
         y="231.3998"
         x="525.49158"
         height="26.331163"
         width="38.034409"
         id="rect1581"
         style="opacity:0.354548;fill:#0d3956;fill-opacity:0.02;stroke:none;stroke-width:4;stroke-linecap:round;stroke-linejoin:round;stroke-opacity:0.03" />
      <rect
         style="opacity:0.354548;fill:#0d3956;fill-opacity:0.02;stroke:none;stroke-width:4;stroke-linecap:round;stroke-linejoin:round;stroke-opacity:0.03"
         id="rect1583"
         width="38.034409"
         height="26.331163"
         x="525.49158"
         y="231.3497"
         rx="2.9563174"
         ry="2.9563174" />
      <rect
         ry="2.9563174"
         rx="2.9563174"
         y="231.29323"
         x="525.49158"
         height="26.331163"
         width="38.034409"
         id="rect1585"
         style="opacity:0.354548;fill:#0d3956;fill-opacity:0.02;stroke:none;stroke-width:4;stroke-linecap:round;stroke-linejoin:round;stroke-opacity:0.03" />
      <rect
         style="opacity:0.354548;fill:#0d3956;fill-opacity:0.02;stroke:none;stroke-width:4;stroke-linecap:round;stroke-linejoin:round;stroke-opacity:0.03"
         id="rect1587"
         width="38.034409"
         height="26.331163"
         x="525.49158"
         y="231.24362"
         rx="2.9563174"
         ry="2.9563174" />
      <rect
         ry="2.9563174"
         rx="2.9563174"
         y="231.19147"
         x="525.49158"
         height="26.331163"
         width="38.034409"
         id="rect1589"
         style="opacity:0.354548;fill:#0d3956;fill-opacity:0.02;stroke:none;stroke-width:4;stroke-linecap:round;stroke-linejoin:round;stroke-opacity:0.03" />
      <rect
         style="opacity:0.354548;fill:#0d3956;fill-opacity:0.02;stroke:none;stroke-width:4;stroke-linecap:round;stroke-linejoin:round;stroke-opacity:0.03"
         id="rect1591"
         width="38.034409"
         height="26.331163"
         x="525.49158"
         y="231.12424"
         rx="2.9563174"
         ry="2.9563174" />
      <rect
         ry="2.9563174"
         rx="2.9563174"
         y="231.06644"
         x="525.49158"
         height="26.331163"
         width="38.034409"
         id="rect1593"
         style="opacity:0.354548;fill:#0d3956;fill-opacity:0.02;stroke:none;stroke-width:4;stroke-linecap:round;stroke-linejoin:round;stroke-opacity:0.03" />
      <rect
         style="opacity:0.354548;fill:#0d3956;fill-opacity:0.02;stroke:none;stroke-width:4;stroke-linecap:round;stroke-linejoin:round;stroke-opacity:0.03"
         id="rect1595"
         width="38.034409"
         height="26.331163"
         x="525.49158"
         y="230.99336"
         rx="2.9563174"
         ry="2.9563174" />
      <rect
         ry="2.9563174"
         rx="2.9563174"
         y="230.92383"
         x="525.49158"
         height="26.331163"
         width="38.034409"
         id="rect1597"
         style="opacity:0.354548;fill:#0d3956;fill-opacity:0.02;stroke:none;stroke-width:4;stroke-linecap:round;stroke-linejoin:round;stroke-opacity:0.03" />
      <rect
         style="opacity:0.354548;fill:#0d3956;fill-opacity:0.02;stroke:none;stroke-width:4;stroke-linecap:round;stroke-linejoin:round;stroke-opacity:0.03"
         id="rect1599"
         width="38.034409"
         height="26.331163"
         x="525.49158"
         y="230.84418"
         rx="2.9563174"
         ry="2.9563174" />
      <rect
         ry="2.9563174"
         rx="2.9563174"
         y="230.7709"
         x="525.49158"
         height="26.331163"
         width="38.034409"
         id="rect1601"
         style="opacity:0.354548;fill:#0d3956;fill-opacity:0.02;stroke:none;stroke-width:4;stroke-linecap:round;stroke-linejoin:round;stroke-opacity:0.03" />
      <rect
         style="opacity:0.354548;fill:#0d3956;fill-opacity:0.02;stroke:none;stroke-width:4;stroke-linecap:round;stroke-linejoin:round;stroke-opacity:0.03"
         id="rect1603"
         width="38.034409"
         height="26.331163"
         x="525.49158"
         y="230.69928"
         rx="2.9563174"
         ry="2.9563174" />
      <rect
         ry="2.9563174"
         rx="2.9563174"
         y="230.62663"
         x="525.49689"
         height="26.331163"
         width="38.034409"
         id="rect1605"
         style="opacity:0.354548;fill:#0d3956;fill-opacity:0.02;stroke:none;stroke-width:4;stroke-linecap:round;stroke-linejoin:round;stroke-opacity:0.03" />
      <rect
         style="opacity:0.354548;fill:#0d3956;fill-opacity:0.02;stroke:none;stroke-width:4;stroke-linecap:round;stroke-linejoin:round;stroke-opacity:0.03"
         id="rect1607"
         width="38.034409"
         height="26.331163"
         x="525.49689"
         y="230.56963"
         rx="2.9563174"
         ry="2.9563174" />
    </g>
    <path
       id="path1611"
       style="fill:url(#linearGradient1767);fill-opacity:1;stroke:none;stroke-width:3.10208;stroke-linecap:round;stroke-linejoin:round;stroke-opacity:0.03"
       d="m 4.53077,7.1904257 h 5.3651162 c 1.4945508,0 1.5588028,0.056768 3.0699728,1.2534184 1.555964,1.1753469 1.886832,1.2083996 3.710056,1.2083996 L 29.441841,9.5479518 c 1.270107,-0.010392 2.292684,1.0225302 2.292684,2.2926772 v 13.477449 c 0,1.270147 -1.022538,2.292685 -2.292684,2.292685 H 4.53077 c -1.2701464,0 -2.2926848,-1.022538 -2.2926848,-2.292685 V 9.4831028 c 0,-1.2701464 1.0225384,-2.2926771 2.2926848,-2.2926771 z"
       sodipodi:nodetypes="scccssssssss" />
    <rect
       ry="2.2926829"
       rx="2.2926829"
       y="10.935765"
       x="2.2381511"
       height="20.42034"
       width="29.496439"
       id="rect1613"
       style="fill:url(#linearGradient1769);fill-opacity:1;stroke:none;stroke-width:3.10208;stroke-linecap:round;stroke-linejoin:round;stroke-opacity:0.03" />
    <path
       d="m 4.5307545,10.935962 c -1.2701386,0 -2.2927469,1.022212 -2.2927469,2.292359 v 15.835262 c 0,0.73365 0.342299,1.383132 0.8752595,1.802223 C 2.8037959,30.475076 2.6183303,29.981295 2.6183303,29.441905 V 13.607038 c 0,-1.270146 1.0222127,-2.292754 2.2923592,-2.292754 H 29.179963 c 1.270147,0 2.292747,1.022608 2.292747,2.292754 v 15.834867 c 0,0.401952 -0.102679,0.7787 -0.282933,1.106496 0.339461,-0.399602 0.544632,-0.917021 0.544632,-1.484818 V 13.228321 c 0,-1.270147 -1.022197,-2.292359 -2.292359,-2.292359 z"
       style="fill:url(#linearGradient1771);fill-opacity:1;stroke:none;stroke-width:3.10208;stroke-linecap:round;stroke-linejoin:round;stroke-opacity:0.03"
       id="path1615" />
    <path
       d="m 2.432631,29.988729 c 0.086364,0.196449 0.1985825,0.378725 0.333823,0.541428 h 28.440001 c 0.13522,-0.162666 0.247089,-0.34503 0.333433,-0.541428 z"
       style="opacity:0.09138867;fill:url(#linearGradient1773);fill-opacity:1;stroke:none;stroke-width:3.10208;stroke-linecap:round;stroke-linejoin:round;stroke-opacity:0.03"
       id="path1617" />
    <path
       d="m 2.2995655,29.58436 c 0.044095,0.190866 0.1109255,0.37235 0.1991776,0.541428 H 31.474166 c 0.08823,-0.16905 0.155103,-0.350601 0.199177,-0.541428 z"
       style="opacity:0.09138867;fill:url(#linearGradient1775);fill-opacity:1;stroke:none;stroke-width:3.10208;stroke-linecap:round;stroke-linejoin:round;stroke-opacity:0.03"
       id="path1619" />
    <path
       d="m 2.2382549,28.008167 v 0.541428 H 31.734675 v -0.541428 z"
       style="opacity:0.09138867;fill:url(#linearGradient1777);fill-opacity:1;stroke:none;stroke-width:3.10208;stroke-linecap:round;stroke-linejoin:round;stroke-opacity:0.03"
       id="path1621" />
    <path
       d="m 2.2382549,27.6038 v 0.541428 H 31.734675 V 27.6038 Z"
       style="opacity:0.09138867;fill:url(#linearGradient1779);fill-opacity:1;stroke:none;stroke-width:3.10208;stroke-linecap:round;stroke-linejoin:round;stroke-opacity:0.03"
       id="path1623" />
    <path
       transform="scale(0.26458333)"
       d="M 64.199219 50.839844 A 23.501838 23.501838 0 0 0 40.697266 74.341797 A 23.501838 23.501838 0 0 0 40.714844 74.537109 A 23.501838 23.501838 0 0 1 64.199219 51.230469 A 23.501838 23.501838 0 0 1 87.695312 74.537109 A 23.501838 23.501838 0 0 0 87.701172 74.341797 A 23.501838 23.501838 0 0 0 64.199219 50.839844 z M 62.224609 54.029297 L 62.205078 54.03125 L 62.294922 55.830078 L 64.09375 55.740234 L 64.074219 55.351562 L 62.294922 55.441406 L 62.224609 54.029297 z M 69.513672 54.640625 L 69.162109 56.017578 L 68.019531 55.724609 L 67.550781 55.654297 L 67.492188 56.035156 L 68.019531 56.113281 L 69.162109 56.40625 L 69.607422 54.664062 L 69.513672 54.640625 z M 56.833984 55.298828 L 56.708984 55.34375 L 57.326172 57.035156 L 58.558594 56.585938 L 58.943359 56.486328 L 58.849609 56.121094 L 58.558594 56.197266 L 57.326172 56.646484 L 56.833984 55.298828 z M 74.634766 56.746094 L 73.871094 57.998047 L 73.230469 57.613281 L 73.216797 57.613281 L 72.513672 57.275391 L 72.361328 57.59375 L 73.216797 58.001953 L 73.230469 58.001953 L 73.871094 58.386719 L 74.808594 56.851562 L 74.634766 56.746094 z M 51.960938 57.935547 L 51.775391 58.076172 L 52.851562 59.515625 L 53.591797 58.966797 L 53.613281 58.945312 L 54.269531 58.550781 L 54.095703 58.265625 L 53.613281 58.556641 L 53.591797 58.578125 L 52.851562 59.126953 L 51.960938 57.935547 z M 79.580078 60.183594 L 79.044922 60.529297 L 66.912109 77.208984 L 49.355469 88.542969 L 48.820312 89.279297 L 66.912109 77.599609 L 79.580078 60.183594 z M 76.841797 60.185547 L 76.646484 60.398438 L 77.474609 61.152344 L 77.716797 60.996094 L 77.636719 60.908203 L 76.841797 60.185547 z M 79.191406 60.328125 L 79.052734 60.517578 L 79.222656 60.363281 L 79.191406 60.328125 z M 50.111328 61.621094 L 49.566406 62.216797 L 49.552734 62.238281 L 49.193359 62.714844 L 47.939453 61.775391 L 47.753906 62.025391 L 49.193359 63.103516 L 49.552734 62.626953 L 49.566406 62.605469 L 50.304688 61.796875 L 50.111328 61.621094 z M 80.208984 64.136719 L 80.037109 64.242188 L 80.900391 65.664062 L 80.923828 65.707031 L 80.929688 65.707031 L 80.933594 65.707031 L 80.998047 65.667969 L 82.546875 64.919922 L 82.511719 64.84375 L 82.46875 64.771484 L 82.373047 64.613281 L 80.998047 65.277344 L 80.933594 65.318359 L 80.929688 65.318359 L 80.923828 65.318359 L 80.900391 65.275391 L 80.208984 64.136719 z M 47.195312 65.900391 L 46.685547 66.960938 L 46.677734 66.982422 L 46.621094 67.142578 L 45.0625 66.572266 L 45.050781 66.595703 L 45.021484 66.669922 L 44.929688 66.912109 L 46.621094 67.53125 L 46.677734 67.371094 L 46.685547 67.349609 L 47.347656 65.974609 L 47.195312 65.900391 z M 82.396484 68.896484 L 82.292969 68.933594 L 82.332031 69.039062 L 82.734375 70.585938 L 84.476562 70.136719 L 84.382812 69.771484 L 82.734375 70.195312 L 82.396484 68.896484 z M 45.537109 70.847656 L 45.332031 72.183594 L 43.609375 71.921875 L 43.550781 72.300781 L 45.332031 72.572266 L 45.591797 70.888672 L 45.595703 70.857422 L 45.537109 70.847656 z M 64.199219 72.535156 A 1.8060016 1.8060016 0 0 0 62.394531 74.339844 A 1.8060016 1.8060016 0 0 0 62.447266 74.535156 A 1.8060016 1.8060016 0 0 1 64.199219 72.923828 A 1.8060016 1.8060016 0 0 1 65.978516 74.623047 A 1.8060016 1.8060016 0 0 0 66.005859 74.339844 A 1.8060016 1.8060016 0 0 0 64.199219 72.535156 z M 83.162109 73.974609 L 83.1875 74.527344 L 83.197266 74.337891 L 83.179688 73.974609 L 83.162109 73.974609 z M 84.978516 74.294922 L 84.101562 74.335938 L 84.984375 74.384766 L 84.978516 74.294922 z M 90.576172 74.443359 A 26.383292 26.383292 0 0 1 64.199219 100.72461 A 26.383292 26.383292 0 0 1 37.832031 74.537109 A 26.383292 26.383292 0 0 0 37.816406 74.732422 A 26.383292 26.383292 0 0 0 64.199219 101.11523 A 26.383292 26.383292 0 0 0 90.583984 74.732422 A 26.383292 26.383292 0 0 0 90.576172 74.443359 z M 84.992188 74.539062 L 84.984375 74.681641 L 85 74.681641 L 84.992188 74.539062 z M 84.980469 74.773438 L 84.910156 76.183594 L 83.130859 76.09375 L 83.111328 76.482422 L 84.910156 76.574219 L 85 74.775391 L 84.980469 74.773438 z M 43.46875 76.078125 L 43.503906 76.808594 L 43.511719 76.900391 L 43.671875 77.955078 L 45.453125 77.683594 L 45.394531 77.302734 L 43.671875 77.564453 L 43.511719 76.509766 L 43.503906 76.419922 L 43.488281 76.078125 L 43.46875 76.078125 z M 84.134766 80.269531 L 84.078125 80.492188 L 84.048828 80.578125 L 83.638672 81.699219 L 82.076172 81.128906 L 81.951172 81.470703 L 83.638672 82.087891 L 84.048828 80.96875 L 84.078125 80.882812 L 84.226562 80.292969 L 84.134766 80.269531 z M 44.714844 81.564453 L 44.587891 81.611328 L 45.021484 82.78125 L 45.050781 82.863281 L 45.292969 83.361328 L 46.914062 82.578125 L 46.761719 82.263672 L 45.292969 82.972656 L 45.050781 82.474609 L 45.021484 82.392578 L 44.714844 81.564453 z M 81.818359 85.361328 L 81.472656 85.935547 L 81.423828 86.005859 L 80.943359 86.644531 L 79.689453 85.707031 L 79.503906 85.958984 L 80.943359 87.035156 L 81.423828 86.394531 L 81.472656 86.326172 L 81.990234 85.466797 L 81.818359 85.361328 z M 47.34375 86.496094 L 47.15625 86.636719 L 48.125 87.929688 L 48.177734 87.992188 L 48.302734 88.130859 L 49.634766 86.919922 L 49.564453 86.845703 L 49.552734 86.824219 L 49.455078 86.693359 L 48.302734 87.740234 L 48.177734 87.603516 L 48.125 87.539062 L 47.34375 86.496094 z M 76.132812 89.511719 L 75.945312 89.650391 L 77.027344 91.095703 L 77.398438 90.814453 L 77.462891 90.763672 L 78.453125 89.863281 L 78.259766 89.648438 L 77.462891 90.373047 L 77.398438 90.423828 L 77.027344 90.707031 L 76.132812 89.511719 z M 53.310547 90.285156 L 52.419922 91.474609 L 51.117188 90.503906 L 50.910156 90.730469 L 50.935547 90.753906 L 51 90.804688 L 52.419922 91.863281 L 53.496094 90.423828 L 53.310547 90.285156 z M 71.666016 92.205078 L 71.634766 92.220703 L 71.609375 92.220703 L 71.539062 92.248047 L 72.162109 93.9375 L 72.257812 93.902344 L 72.335938 93.867188 L 73.865234 93.128906 L 73.712891 92.8125 L 72.335938 93.476562 L 72.257812 93.511719 L 72.162109 93.548828 L 71.666016 92.205078 z M 57.955078 92.658203 L 57.460938 94.005859 L 56.146484 93.525391 L 56.064453 93.488281 L 55.857422 93.388672 L 55.705078 93.705078 L 56.064453 93.878906 L 56.146484 93.914062 L 57.460938 94.394531 L 58.080078 92.703125 L 57.955078 92.658203 z M 66.564453 93.564453 L 66.505859 93.574219 L 66.779297 95.351562 L 68.347656 95.113281 L 68.435547 95.091797 L 68.642578 95.035156 L 68.548828 94.671875 L 68.435547 94.701172 L 68.347656 94.724609 L 66.779297 94.962891 L 66.564453 93.564453 z M 63.080078 93.662109 L 63.007812 95.072266 L 62.123047 95.027344 L 62.03125 95.027344 L 61.185547 94.898438 L 61.126953 95.277344 L 62.03125 95.417969 L 62.123047 95.417969 L 63.007812 95.460938 L 63.099609 93.662109 L 63.080078 93.662109 z "
       style="opacity:1;fill:#ffffff;fill-opacity:0.40556586;stroke-width:2.21386"
       id="path1374" />
    <path
       inkscape:connector-curvature="0"
       d="m 16.986043,12.68861 a 6.9805793,6.9805793 0 0 0 -6.98045,6.980983 6.9805793,6.9805793 0 0 0 6.98045,6.980457 6.9805793,6.9805793 0 0 0 6.980972,-6.980457 6.9805793,6.9805793 0 0 0 -6.980972,-6.980983 z m 0,0.762765 a 6.2181946,6.2181946 0 0 1 6.21823,6.218218 6.2181946,6.2181946 0 0 1 -6.21823,6.218219 6.2181946,6.2181946 0 0 1 -6.218222,-6.218219 6.2181946,6.2181946 0 0 1 6.218222,-6.218218 z m -0.05166,0.716725 -0.47594,0.0246 0.02377,0.475923 0.47594,-0.02402 z m 0.995291,0.08218 -0.07235,0.472819 0.139525,0.0205 0.302313,0.07755 0.117824,-0.460986 -0.310062,-0.08007 -0.02325,-0.0059 z m -2.452051,0.129686 -0.116788,0.02929 -0.02273,0.0082 -0.33383,0.12248 0.163299,0.447514 0.326077,-0.118849 0.101802,-0.02636 z m 3.875215,0.32351 -0.20722,0.431523 0.22634,0.108481 h 0.0035 l 0.169499,0.101804 0.248048,-0.40616 -0.173634,-0.104908 -0.01962,-0.01172 z m -5.242057,0.278056 -0.192235,0.117795 -0.0186,0.01289 -0.201023,0.150889 0.284739,0.380856 0.195852,-0.145208 0.0057,-0.0059 0.17363,-0.104381 z m 6.489011,0.543636 -0.320394,0.351919 0.262,0.238225 0.02121,0.02343 -4.293793,2.771894 -3.351734,4.607988 4.786785,-3.090248 3.351734,-4.607988 -0.145723,0.09407 0.05114,-0.04627 -0.07545,-0.08218 -0.01599,-0.01523 z m -7.642427,0.402001 -0.210322,0.232543 -0.01395,0.01699 -0.09818,0.131267 0.380854,0.285261 0.09509,-0.126054 0.0036,-0.0059 0.195337,-0.213916 z m 8.626348,0.718307 -0.407214,0.248593 0.228414,0.376696 0.0059,0.01113 h 0.0018 0.0012 l 0.01704,-0.01054 0.409792,-0.197925 -0.0093,-0.01992 -0.01136,-0.01933 z m -9.485209,0.500231 -0.1788,0.371074 -0.0078,0.01991 -0.02429,0.06408 0.447518,0.163776 0.01498,-0.04217 0.002,-0.0059 0.175183,-0.36381 z m 10.122378,0.825265 -0.44752,0.164362 0.01037,0.02812 0.106454,0.409265 0.460951,-0.118849 -0.104902,-0.410787 -0.0083,-0.02284 z m -10.61899,0.562263 -0.0046,0.01523 -0.0046,0.02402 -0.06976,0.45425 0.471287,0.07181 0.06873,-0.445933 0.0011,-0.0082 -0.07648,-0.01172 z m 5.384166,0.658326 a 0.47783792,0.47783792 0 0 1 0.478008,0.477504 0.47783792,0.47783792 0 0 1 -0.478008,0.478032 0.47783792,0.47783792 0 0 1 -0.47749,-0.478032 0.47783792,0.47783792 0 0 1 0.47749,-0.477504 z m 5.492174,0.25322 -0.47491,0.0246 0.0093,0.198921 -0.02273,0.464618 0.475941,0.02402 0.02378,-0.475923 -0.237709,-0.01289 0.237709,-0.01172 z m -10.502201,0.556581 -0.474908,0.0246 0.0093,0.193239 0.0021,0.02402 0.04237,0.279052 0.471289,-0.07181 -0.04134,-0.267688 z m 9.847975,1.022136 -0.0393,0.148312 -0.0012,0.0059 -0.100767,0.274952 0.446483,0.163307 0.108516,-0.296156 0.0077,-0.02284 0.0393,-0.156044 z m -9.579259,0.30131 -0.447519,0.164831 0.114724,0.310038 0.0078,0.02167 0.06408,0.131794 0.428917,-0.207239 -0.06046,-0.125585 -0.0021,-0.0064 z m 9.041311,0.937378 -0.124542,0.208293 -0.0047,0.0059 -0.121438,0.163776 0.380855,0.284734 0.12712,-0.169457 0.01295,-0.01816 0.136943,-0.227389 z m -8.427911,0.26927 -0.381374,0.287838 0.256315,0.342079 0.01395,0.01699 0.03307,0.03632 0.352433,-0.320406 -0.0186,-0.01933 -0.0031,-0.0059 z m 7.578865,0.789065 -0.244429,0.220653 -0.0047,0.0059 -0.09405,0.06976 0.286286,0.382437 0.09818,-0.07445 0.01705,-0.01347 0.262001,-0.238225 z m -6.656959,0.220653 -0.08682,0.115276 -0.223243,0.245957 0.0067,0.0064 0.01705,0.01347 0.37569,0.280107 0.284737,-0.380856 z m 5.557802,0.56689 -0.384475,0.189139 h -0.0067 l -0.01857,0.007 0.164843,0.446987 0.0253,-0.0094 0.02068,-0.0094 0.404625,-0.19529 z m -4.391979,0.152998 -0.207225,0.428887 0.09509,0.04569 0.0217,0.0094 0.347781,0.127166 0.163814,-0.447514 -0.336413,-0.12248 z m 3.096965,0.319879 -0.03772,0.01113 -0.408761,0.06303 0.07235,0.470242 0.414964,-0.06303 0.02325,-0.0059 0.05477,-0.01464 z m -1.797305,0.05096 -0.07234,0.473874 0.23926,0.0369 h 0.02429 l 0.234094,0.01172 0.02431,-0.475982 -0.22324,-0.01054 z"
       id="path1325-6-3"
       style="opacity:1;fill:#0979d5;fill-opacity:0.31372501;stroke-width:0.58574998" />
  </g>
</svg>
