<?xml version="1.0" encoding="UTF-8" standalone="no"?>
<svg
   xmlns:osb="http://www.openswatchbook.org/uri/2009/osb"
   xmlns:dc="http://purl.org/dc/elements/1.1/"
   xmlns:cc="http://creativecommons.org/ns#"
   xmlns:rdf="http://www.w3.org/1999/02/22-rdf-syntax-ns#"
   xmlns:svg="http://www.w3.org/2000/svg"
   xmlns="http://www.w3.org/2000/svg"
   xmlns:xlink="http://www.w3.org/1999/xlink"
   xmlns:sodipodi="http://sodipodi.sourceforge.net/DTD/sodipodi-0.dtd"
   xmlns:inkscape="http://www.inkscape.org/namespaces/inkscape"
   width="128"
   height="128"
   viewBox="0 0 33.866666 33.866668"
   version="1.1"
   id="svg8"
   inkscape:version="1.0.2 (e86c870879, 2021-01-15)"
   sodipodi:docname="application-document.svg">
  <defs
     id="defs2">
    <linearGradient
       id="linearGradient1830">
      <stop
         id="stop1826"
         style="stop-color:#e5e5e5;stop-opacity:1"
         offset="0" />
      <stop
         id="stop1828"
         style="stop-color:#ffffff;stop-opacity:1;"
         offset="1" />
    </linearGradient>
    <linearGradient
       osb:paint="solid"
       id="linearGradient6987">
      <stop
         id="stop6985"
         offset="0"
         style="stop-color:#77d2fb;stop-opacity:1;" />
    </linearGradient>
    <linearGradient
       inkscape:collect="always"
       xlink:href="#linearGradient1830"
       id="linearGradient1503-8"
       x1="10.733222"
       y1="261.04016"
       x2="10.733222"
       y2="284.9986"
       gradientUnits="userSpaceOnUse"
       gradientTransform="matrix(0.96677875,0,0,0.9667687,0.87284799,9.4386026)" />
    <linearGradient
       id="linearGradient1830-7">
      <stop
         offset="0"
         style="stop-color:#d9d9d9;stop-opacity:1"
         id="stop1826-5" />
      <stop
         offset="1"
         style="stop-color:#ffffff;stop-opacity:1;"
         id="stop1828-3" />
    </linearGradient>
  </defs>
  <sodipodi:namedview
     id="base"
     pagecolor="#ffffff"
     bordercolor="#666666"
     borderopacity="1.0"
     inkscape:pageopacity="0.0"
     inkscape:pageshadow="2"
     inkscape:zoom="5.560106"
     inkscape:cx="5.255354"
     inkscape:cy="45.521055"
     inkscape:document-units="mm"
     inkscape:current-layer="layer1"
     showgrid="false"
     units="px"
     inkscape:window-width="1920"
     inkscape:window-height="1028"
     inkscape:window-x="0"
     inkscape:window-y="24"
     inkscape:window-maximized="1"
     showguides="false"
     inkscape:document-rotation="0" />
  <metadata
     id="metadata5">
    <rdf:RDF>
      <cc:Work
         rdf:about="">
        <dc:format>image/svg+xml</dc:format>
        <dc:type
           rdf:resource="http://purl.org/dc/dcmitype/StillImage" />
        <dc:title></dc:title>
      </cc:Work>
    </rdf:RDF>
  </metadata>
  <g
     inkscape:label="Layer 1"
     inkscape:groupmode="layer"
     id="layer1"
     transform="translate(0,-263.13332)">
    <g
       id="g1306"
       transform="translate(-26.313049,6.0567097)">
      <path
         sodipodi:nodetypes="ccccascscsscc"
         inkscape:connector-curvature="0"
         id="path1273"
         d="m 31.617922,258.21253 v 31.49577 h 23.877522 v -17.67352 c -0.04555,-0.80283 -0.09817,-1.52139 -0.301798,-2.2499 -0.207137,-0.74109 -0.533556,-1.4428 -0.92367,-2.11431 -0.499176,-0.85923 -1.342753,-1.41324 -2.092497,-2.11741 -0.454856,-0.4125 -1.437262,-1.39234 -2.626382,-2.56222 -1.17939,-1.16029 -2.562618,-2.50802 -3.717398,-3.55506 -0.34107,-0.30778 -0.836512,-0.6272 -1.296803,-0.81166 -0.357418,-0.14324 -0.777895,-0.2324 -1.183865,-0.29231 -0.41861,-0.0618 -0.821795,-0.0925 -1.124522,-0.11938 z"
         style="opacity:1;fill:none;fill-opacity:1;stroke:#000000;stroke-width:0.1;stroke-linecap:round;stroke-linejoin:round;stroke-miterlimit:4;stroke-dasharray:none;stroke-opacity:0.01176471" />
      <path
         style="opacity:1;fill:none;fill-opacity:1;stroke:#000000;stroke-width:0.2;stroke-linecap:round;stroke-linejoin:round;stroke-miterlimit:4;stroke-dasharray:none;stroke-opacity:0.01176471"
         d="m 31.617922,258.21253 v 31.49577 h 23.877522 v -17.67352 c -0.04555,-0.80283 -0.09817,-1.52139 -0.301798,-2.2499 -0.207137,-0.74109 -0.533556,-1.4428 -0.92367,-2.11431 -0.499176,-0.85923 -1.342753,-1.41324 -2.092497,-2.11741 -0.454856,-0.4125 -1.437262,-1.39234 -2.626382,-2.56222 -1.17939,-1.16029 -2.562618,-2.50802 -3.717398,-3.55506 -0.34107,-0.30778 -0.836512,-0.6272 -1.296803,-0.81166 -0.357418,-0.14324 -0.777895,-0.2324 -1.183865,-0.29231 -0.41861,-0.0618 -0.821795,-0.0925 -1.124522,-0.11938 z"
         id="path1275"
         inkscape:connector-curvature="0"
         sodipodi:nodetypes="ccccascscsscc" />
      <path
         sodipodi:nodetypes="ccccascscsscc"
         inkscape:connector-curvature="0"
         id="path1277"
         d="m 31.617922,258.21253 v 31.49577 h 23.877522 v -17.67352 c -0.04555,-0.80283 -0.09817,-1.52139 -0.301798,-2.2499 -0.207137,-0.74109 -0.533556,-1.4428 -0.92367,-2.11431 -0.499176,-0.85923 -1.342753,-1.41324 -2.092497,-2.11741 -0.454856,-0.4125 -1.437262,-1.39234 -2.626382,-2.56222 -1.17939,-1.16029 -2.562618,-2.50802 -3.717398,-3.55506 -0.34107,-0.30778 -0.836512,-0.6272 -1.296803,-0.81166 -0.357418,-0.14324 -0.777895,-0.2324 -1.183865,-0.29231 -0.41861,-0.0618 -0.821795,-0.0925 -1.124522,-0.11938 z"
         style="opacity:1;fill:none;fill-opacity:1;stroke:#000000;stroke-width:0.30000001;stroke-linecap:round;stroke-linejoin:round;stroke-miterlimit:4;stroke-dasharray:none;stroke-opacity:0.01176471" />
      <path
         style="opacity:1;fill:none;fill-opacity:1;stroke:#000000;stroke-width:0.40000001;stroke-linecap:round;stroke-linejoin:round;stroke-miterlimit:4;stroke-dasharray:none;stroke-opacity:0.01176471"
         d="m 31.617922,258.21253 v 31.49577 h 23.877522 v -17.67352 c -0.04555,-0.80283 -0.09817,-1.52139 -0.301798,-2.2499 -0.207137,-0.74109 -0.533556,-1.4428 -0.92367,-2.11431 -0.499176,-0.85923 -1.342753,-1.41324 -2.092497,-2.11741 -0.454856,-0.4125 -1.437262,-1.39234 -2.626382,-2.56222 -1.17939,-1.16029 -2.562618,-2.50802 -3.717398,-3.55506 -0.34107,-0.30778 -0.836512,-0.6272 -1.296803,-0.81166 -0.357418,-0.14324 -0.777895,-0.2324 -1.183865,-0.29231 -0.41861,-0.0618 -0.821795,-0.0925 -1.124522,-0.11938 z"
         id="path1279"
         inkscape:connector-curvature="0"
         sodipodi:nodetypes="ccccascscsscc" />
      <path
         sodipodi:nodetypes="ccccascscsscc"
         inkscape:connector-curvature="0"
         id="path1281"
         d="m 31.617922,258.21253 v 31.49577 h 23.877522 v -17.67352 c -0.04555,-0.80283 -0.09817,-1.52139 -0.301798,-2.2499 -0.207137,-0.74109 -0.533556,-1.4428 -0.92367,-2.11431 -0.499176,-0.85923 -1.342753,-1.41324 -2.092497,-2.11741 -0.454856,-0.4125 -1.437262,-1.39234 -2.626382,-2.56222 -1.17939,-1.16029 -2.562618,-2.50802 -3.717398,-3.55506 -0.34107,-0.30778 -0.836512,-0.6272 -1.296803,-0.81166 -0.357418,-0.14324 -0.777895,-0.2324 -1.183865,-0.29231 -0.41861,-0.0618 -0.821795,-0.0925 -1.124522,-0.11938 z"
         style="opacity:1;fill:none;fill-opacity:1;stroke:#000000;stroke-width:0.60000002;stroke-linecap:round;stroke-linejoin:round;stroke-miterlimit:4;stroke-dasharray:none;stroke-opacity:0.01176471" />
      <path
         style="opacity:1;fill:none;fill-opacity:1;stroke:#000000;stroke-width:0.80000001;stroke-linecap:round;stroke-linejoin:round;stroke-miterlimit:4;stroke-dasharray:none;stroke-opacity:0.01176471"
         d="m 31.617922,258.21253 v 31.49577 h 23.877522 v -17.67352 c -0.04555,-0.80283 -0.09817,-1.52139 -0.301798,-2.2499 -0.207137,-0.74109 -0.533556,-1.4428 -0.92367,-2.11431 -0.499176,-0.85923 -1.342753,-1.41324 -2.092497,-2.11741 -0.454856,-0.4125 -1.437262,-1.39234 -2.626382,-2.56222 -1.17939,-1.16029 -2.562618,-2.50802 -3.717398,-3.55506 -0.34107,-0.30778 -0.836512,-0.6272 -1.296803,-0.81166 -0.357418,-0.14324 -0.777895,-0.2324 -1.183865,-0.29231 -0.41861,-0.0618 -0.821795,-0.0925 -1.124522,-0.11938 z"
         id="path1283"
         inkscape:connector-curvature="0"
         sodipodi:nodetypes="ccccascscsscc" />
      <path
         sodipodi:nodetypes="ccccascscsscc"
         inkscape:connector-curvature="0"
         id="path1285"
         d="m 31.617922,258.21253 v 31.49577 h 23.877522 v -17.67352 c -0.04555,-0.80283 -0.09817,-1.52139 -0.301798,-2.2499 -0.207137,-0.74109 -0.533556,-1.4428 -0.92367,-2.11431 -0.499176,-0.85923 -1.342753,-1.41324 -2.092497,-2.11741 -0.454856,-0.4125 -1.437262,-1.39234 -2.626382,-2.56222 -1.17939,-1.16029 -2.562618,-2.50802 -3.717398,-3.55506 -0.34107,-0.30778 -0.836512,-0.6272 -1.296803,-0.81166 -0.357418,-0.14324 -0.777895,-0.2324 -1.183865,-0.29231 -0.41861,-0.0618 -0.821795,-0.0925 -1.124522,-0.11938 z"
         style="opacity:1;fill:none;fill-opacity:1;stroke:#000000;stroke-width:1;stroke-linecap:round;stroke-linejoin:round;stroke-miterlimit:4;stroke-dasharray:none;stroke-opacity:0.01176471" />
      <path
         style="opacity:1;fill:none;fill-opacity:1;stroke:#000000;stroke-width:1.29999995;stroke-linecap:round;stroke-linejoin:round;stroke-miterlimit:4;stroke-dasharray:none;stroke-opacity:0.01176471"
         d="m 31.617922,258.21253 v 31.49577 h 23.877522 v -17.67352 c -0.04555,-0.80283 -0.09817,-1.52139 -0.301798,-2.2499 -0.207137,-0.74109 -0.533556,-1.4428 -0.92367,-2.11431 -0.499176,-0.85923 -1.342753,-1.41324 -2.092497,-2.11741 -0.454856,-0.4125 -1.437262,-1.39234 -2.626382,-2.56222 -1.17939,-1.16029 -2.562618,-2.50802 -3.717398,-3.55506 -0.34107,-0.30778 -0.836512,-0.6272 -1.296803,-0.81166 -0.357418,-0.14324 -0.777895,-0.2324 -1.183865,-0.29231 -0.41861,-0.0618 -0.821795,-0.0925 -1.124522,-0.11938 z"
         id="path1287"
         inkscape:connector-curvature="0"
         sodipodi:nodetypes="ccccascscsscc" />
      <path
         sodipodi:nodetypes="ccccascscsscc"
         inkscape:connector-curvature="0"
         id="path1289"
         d="m 31.617922,258.21253 v 31.49577 h 23.877522 v -17.67352 c -0.04555,-0.80283 -0.09817,-1.52139 -0.301798,-2.2499 -0.207137,-0.74109 -0.533556,-1.4428 -0.92367,-2.11431 -0.499176,-0.85923 -1.342753,-1.41324 -2.092497,-2.11741 -0.454856,-0.4125 -1.437262,-1.39234 -2.626382,-2.56222 -1.17939,-1.16029 -2.562618,-2.50802 -3.717398,-3.55506 -0.34107,-0.30778 -0.836512,-0.6272 -1.296803,-0.81166 -0.357418,-0.14324 -0.777895,-0.2324 -1.183865,-0.29231 -0.41861,-0.0618 -0.821795,-0.0925 -1.124522,-0.11938 z"
         style="opacity:1;fill:none;fill-opacity:1;stroke:#000000;stroke-width:1.60000002;stroke-linecap:round;stroke-linejoin:round;stroke-miterlimit:4;stroke-dasharray:none;stroke-opacity:0.01176471" />
      <path
         style="opacity:1;fill:none;fill-opacity:1;stroke:#000000;stroke-width:2.0999999;stroke-linecap:round;stroke-linejoin:round;stroke-miterlimit:4;stroke-dasharray:none;stroke-opacity:0.01176471"
         d="m 31.617922,258.21253 v 31.49577 h 23.877522 v -17.67352 c -0.04555,-0.80283 -0.09817,-1.52139 -0.301798,-2.2499 -0.207137,-0.74109 -0.533556,-1.4428 -0.92367,-2.11431 -0.499176,-0.85923 -1.342753,-1.41324 -2.092497,-2.11741 -0.454856,-0.4125 -1.437262,-1.39234 -2.626382,-2.56222 -1.17939,-1.16029 -2.562618,-2.50802 -3.717398,-3.55506 -0.34107,-0.30778 -0.836512,-0.6272 -1.296803,-0.81166 -0.357418,-0.14324 -0.777895,-0.2324 -1.183865,-0.29231 -0.41861,-0.0618 -0.821795,-0.0925 -1.124522,-0.11938 z"
         id="path1291"
         inkscape:connector-curvature="0"
         sodipodi:nodetypes="ccccascscsscc" />
      <path
         sodipodi:nodetypes="ccccascscsscc"
         inkscape:connector-curvature="0"
         id="path1293"
         d="m 31.617922,258.21253 v 31.49577 h 23.877522 v -17.67352 c -0.04555,-0.80283 -0.09817,-1.52139 -0.301798,-2.2499 -0.207137,-0.74109 -0.533556,-1.4428 -0.92367,-2.11431 -0.499176,-0.85923 -1.342753,-1.41324 -2.092497,-2.11741 -0.454856,-0.4125 -1.437262,-1.39234 -2.626382,-2.56222 -1.17939,-1.16029 -2.562618,-2.50802 -3.717398,-3.55506 -0.34107,-0.30778 -0.836512,-0.6272 -1.296803,-0.81166 -0.357418,-0.14324 -0.777895,-0.2324 -1.183865,-0.29231 -0.41861,-0.0618 -0.821795,-0.0925 -1.124522,-0.11938 z"
         style="opacity:1;fill:none;fill-opacity:1;stroke:#000000;stroke-width:0;stroke-linecap:round;stroke-linejoin:round;stroke-miterlimit:4;stroke-dasharray:none;stroke-opacity:0.01176471" />
    </g>
    <g
       style="stroke-width:4.08449793"
       inkscape:transform-center-y="-9.4924686"
       inkscape:transform-center-x="5.4653607"
       inkscape:label="Capa 1"
       id="layer1-4-3"
       transform="matrix(0.53602412,0,0,0.5372689,-234.93365,-13.785303)">
      <g
         style="stroke-width:4.08449793"
         id="layer1-3-65-9"
         inkscape:label="Capa 1"
         transform="translate(0.41988239,0.03484499)" />
    </g>
    <g
       style="stroke-width:4.08449793"
       inkscape:transform-center-y="-9.4924686"
       inkscape:transform-center-x="5.4653607"
       inkscape:label="Capa 1"
       id="layer1-4"
       transform="matrix(0.53602412,0,0,0.5372689,-234.93365,-13.7603)">
      <g
         style="stroke-width:4.08449793"
         id="layer1-3-65"
         inkscape:label="Capa 1"
         transform="translate(0.41988239,0.03484499)" />
    </g>
    <path
       sodipodi:nodetypes="ccccascscsscc"
       inkscape:connector-curvature="0"
       id="path4623-8"
       d="m 5.3048735,264.26924 v 31.49577 H 29.182395 v -17.67352 c -0.04555,-0.80283 -0.09817,-1.52139 -0.301798,-2.2499 -0.207137,-0.74109 -0.533556,-1.4428 -0.92367,-2.11431 -0.499176,-0.85923 -1.342753,-1.41324 -2.092497,-2.11741 -0.454856,-0.4125 -1.437262,-1.39234 -2.626382,-2.56222 -1.17939,-1.16029 -2.562618,-2.50802 -3.717398,-3.55506 -0.34107,-0.30778 -0.836512,-0.6272 -1.296803,-0.81166 -0.357418,-0.14324 -0.777895,-0.2324 -1.183865,-0.29231 -0.41861,-0.0618 -0.821795,-0.0925 -1.124522,-0.11938 z"
       style="opacity:1;fill:url(#linearGradient1503-8);fill-opacity:1;stroke:none;stroke-width:0.2897298;stroke-miterlimit:4;stroke-dasharray:none;stroke-opacity:1" />
    <g
       id="g1098"
       transform="translate(-0.12168796,0.91716849)">
      <path
         sodipodi:nodetypes="ccccccccccccccccccccc"
         inkscape:connector-curvature="0"
         d="m 10.195566,268.72278 h 2.870961 z m 3.125643,0 h 1.296562 z m 1.528091,0 h 2.037456 z m 2.268985,0 h 2.199526 z m 2.45421,0 h 0.879809 z m 1.111337,0 h 0.486212 z m 0.740894,0 h 1.366023 z"
         id="path1967"
         style="fill:none;stroke:#4f4f4f;stroke-width:0.5;stroke-linecap:butt;stroke-linejoin:miter;stroke-miterlimit:4;stroke-dasharray:none;stroke-opacity:1" />
      <path
         style="fill:none;stroke:#4f4f4f;stroke-width:0.5;stroke-linecap:butt;stroke-linejoin:miter;stroke-miterlimit:4;stroke-dasharray:none;stroke-opacity:1"
         id="path997"
         d="m 7.519824,292.39701 h 1.736469 z m 1.99115,0 h 1.620703 z m 1.875384,0 h 1.43548 z m 1.66701,0 h 0.625128 z m 0.879812,0 h 1.389173 z m 1.667009,0 h 1.059572 z m -8.080365,-1.48233 h 2.70889 z m 3.009877,0 h 1.296563 z m 1.528092,0 h 0.648281 z m 0.902963,0 h 1.180799 z m 1.435481,0 h 1.203952 z m 1.435481,0 h 1.92169 z m -8.311894,-1.47074 h 2.292137 z m 2.523668,0 h 3.750771 z m 3.982298,0 h 1.829082 z m 2.06061,0 h 1.713314 z M 7.519824,287.9501 h 3.171947 z m 3.42663,0 h 3.426631 z m 3.658158,0 h 1.366023 z m 1.597552,0 h 1.729973 z m -8.68234,-1.48234 h 4.543239 z m 4.929407,0 h 4.3411 z m -4.929407,-2.95303 h 2.292137 z m 2.523668,0 h 3.750771 z m 3.982298,0 h 1.829082 z m 2.06061,0 h 1.713314 z M 7.519824,282.0208 h 1.736469 z m 1.99115,0 h 1.59755 z m 1.875384,0 h 1.43548 z m 1.66701,0 h 0.625128 z m 0.879812,0 h 1.389173 z m 1.667009,0 h 2.312089 z m -8.080365,-1.48233 h 2.917266 z m 3.148794,0 h 3.125645 z m 3.357172,0 h 1.203952 z m 1.435481,0 h 2.94042 z m 3.171949,0 h 3.704465 z m 3.959147,0 h 1.366022 z M 7.519824,279.05615 h 3.171947 z m 3.42663,0 h 3.426631 z m 3.658158,0 h 1.366023 z m 1.597552,0 h 3.218254 z m 3.426631,0 h 2.199527 z m 2.454209,0 h 0.879811 z m 1.11134,0 h 0.48621 z m 0.740893,0 h 1.366022 z m -16.415413,-1.4823 h 2.70889 z m 3.009877,0 h 1.296563 z m 1.528092,0 h 0.648281 z m 0.902963,0 h 1.180799 z m 1.435481,0 h 1.203952 z m 1.435481,0 h 1.92169 z m 2.176372,0 h 2.500516 z m 2.732045,0 h 1.667009 z m 1.898538,0 h 0.416753 z M 7.519824,274.6208 h 2.292137 z m 2.523668,0 h 3.750771 z m 3.982298,0 h 1.829082 z m 2.06061,0 h 1.713314 z m 1.944844,0 h 1.458633 z m 1.690163,0 2.292138,-0.0233 z m 2.500515,-0.0233 h 3.727619 z M 7.519824,273.12676 h 2.70889 z m 3.009877,0 h 1.296563 z m 1.528092,0 h 0.648281 z m 0.902963,0 h 1.180799 z m 1.435481,0 h 1.203952 z m 1.435481,0 h 1.92169 z m 2.176372,0 h 2.500516 z m 2.732045,0 h 1.667009 z m 1.898538,0 h 0.416753 z M 7.519824,271.64443 h 2.87096 z m 3.125643,0 h 0.902962 z m 1.134492,0 h 2.060608 z m 2.292138,0 h 3.033031 z m 3.287713,0 h 2.060608 z m 2.268985,0 h 0.439904 z m 0.671435,0 h 2.616278 z m 2.894114,0 h 1.366022 z m -15.67452,-1.48231 h 2.870961 z m 3.125643,0 h 1.296562 z m 1.528091,0 h 2.037456 z m 2.268985,0 h 2.199526 z m 2.45421,0 h 0.879809 z m 1.111337,0 h 0.486212 z m 0.740894,0 h 1.366023 z"
         inkscape:connector-curvature="0"
         sodipodi:nodetypes="cccccccccccccccccccccccccccccccccccccccccccccccccccccccccccccccccccccccccccccccccccccccccccccccccccccccccccccccccccccccccccccccccccccccccccccccccccccccccccccccccccccccccccccccccccccccccccccccccccccccccccccccccccccccccccccccccccccccccccccccccccccccccccccccccc" />
      <g
         transform="matrix(0.40739704,0,0,0.40739704,2.2813771,160.51599)"
         id="text841"
         style="font-style:normal;font-weight:normal;font-size:10.5833px;line-height:1.25;font-family:sans-serif;letter-spacing:0px;word-spacing:0px;fill:#b56200;fill-opacity:1;stroke:none;stroke-width:0.649448"
         aria-label="H">
        <path
           inkscape:connector-curvature="0"
           id="path843"
           style="fill:#b56200;fill-opacity:1;stroke-width:0.649448"
           d="m 12.897699,258.5269 h 1.043864 v 3.16259 h 3.79305 v -3.16259 h 1.043864 v 7.71529 h -1.043864 v -3.6742 h -3.79305 v 3.6742 h -1.043864 z" />
      </g>
    </g>
    <g
       id="g1221"
       style="opacity:0.40500004"
       transform="matrix(0.96576595,0,0,0.96576595,0.88999774,9.7195075)">
      <path
         inkscape:connector-curvature="0"
         transform="matrix(0.26458333,0,0,0.26458333,0,263.13332)"
         id="path879"
         d="m 67.660156,3.2109375 c 2.213766,7.0641655 4.098147,14.0453785 3.671875,27.7968745 a 4.7248819,4.7248819 0 0 0 4.6875,4.863282 c 13.55328,0.111874 21.724401,2.550202 27.535159,5.884765 2.11259,1.212336 3.93859,2.570144 5.61719,4.044922 -0.80702,-2.477249 -1.92355,-4.848495 -3.2461,-7.125 -1.95353,-3.362608 -5.25337,-5.531342 -8.187499,-8.287109 -0.381148,-0.345654 -0.900855,-0.8383 -1.458984,-1.373047 C 91.672157,27.910396 86.392204,27.191183 80.396484,26.880859 80.317888,21.59806 80.049107,16.765566 79.513672,12.634766 77.235412,10.451977 74.976337,8.3226166 72.910156,6.4492188 71.575378,5.2446833 69.637287,3.9953273 67.835938,3.2734375 c -0.05648,-0.022633 -0.11852,-0.040551 -0.175782,-0.0625 z"
         style="color:#000000;font-style:normal;font-variant:normal;font-weight:normal;font-stretch:normal;font-size:medium;line-height:normal;font-family:sans-serif;font-variant-ligatures:normal;font-variant-position:normal;font-variant-caps:normal;font-variant-numeric:normal;font-variant-alternates:normal;font-feature-settings:normal;text-indent:0;text-align:start;text-decoration:none;text-decoration-line:none;text-decoration-style:solid;text-decoration-color:#000000;letter-spacing:normal;word-spacing:normal;text-transform:none;writing-mode:lr-tb;direction:ltr;text-orientation:mixed;dominant-baseline:auto;baseline-shift:baseline;text-anchor:start;white-space:normal;shape-padding:0;clip-rule:nonzero;display:inline;overflow:visible;visibility:visible;opacity:1;isolation:auto;mix-blend-mode:normal;color-interpolation:sRGB;color-interpolation-filters:linearRGB;solid-color:#000000;solid-opacity:1;vector-effect:none;fill:#000000;fill-opacity:0.01960784;fill-rule:nonzero;stroke:none;stroke-width:9.44881916;stroke-linecap:round;stroke-linejoin:round;stroke-miterlimit:4;stroke-dasharray:none;stroke-dashoffset:0;stroke-opacity:1;color-rendering:auto;image-rendering:auto;shape-rendering:auto;text-rendering:auto;enable-background:accumulate" />
      <path
         inkscape:connector-curvature="0"
         transform="matrix(0.26458333,0,0,0.26458333,0,263.13332)"
         id="path1146"
         d="m 67.660156,3.2109375 c 2.213766,7.0641655 4.098147,14.0453785 3.671875,27.7968745 a 4.7248819,4.7248819 0 0 0 4.6875,4.863282 c 13.55328,0.111874 21.724401,2.550202 27.535159,5.884765 2.11259,1.212336 3.93859,2.570144 5.61719,4.044922 -0.80702,-2.477249 -1.92355,-4.848495 -3.2461,-7.125 -1.95353,-3.362608 -5.25337,-5.531342 -8.187499,-8.287109 -0.381148,-0.345654 -0.900855,-0.8383 -1.458984,-1.373047 C 91.672157,27.910396 86.392204,27.191183 80.396484,26.880859 80.317888,21.59806 80.049107,16.765566 79.513672,12.634766 77.235412,10.451977 74.976337,8.3226166 72.910156,6.4492188 71.575378,5.2446833 69.637287,3.9953273 67.835938,3.2734375 c -0.05648,-0.022633 -0.11852,-0.040551 -0.175782,-0.0625 z"
         style="color:#000000;font-style:normal;font-variant:normal;font-weight:normal;font-stretch:normal;font-size:medium;line-height:normal;font-family:sans-serif;font-variant-ligatures:normal;font-variant-position:normal;font-variant-caps:normal;font-variant-numeric:normal;font-variant-alternates:normal;font-feature-settings:normal;text-indent:0;text-align:start;text-decoration:none;text-decoration-line:none;text-decoration-style:solid;text-decoration-color:#000000;letter-spacing:normal;word-spacing:normal;text-transform:none;writing-mode:lr-tb;direction:ltr;text-orientation:mixed;dominant-baseline:auto;baseline-shift:baseline;text-anchor:start;white-space:normal;shape-padding:0;clip-rule:nonzero;display:inline;overflow:visible;visibility:visible;opacity:1;isolation:auto;mix-blend-mode:normal;color-interpolation:sRGB;color-interpolation-filters:linearRGB;solid-color:#000000;solid-opacity:1;vector-effect:none;fill:#000000;fill-opacity:0.01960784;fill-rule:nonzero;stroke:none;stroke-width:9.44881916;stroke-linecap:round;stroke-linejoin:round;stroke-miterlimit:4;stroke-dasharray:none;stroke-dashoffset:0;stroke-opacity:1;color-rendering:auto;image-rendering:auto;shape-rendering:auto;text-rendering:auto;enable-background:accumulate" />
      <path
         sodipodi:nodetypes="ccccccsc"
         inkscape:connector-curvature="0"
         id="path4753-0"
         d="m 19.42404,264.96145 c 0.01548,0.0249 0.53209,0.85773 0.690114,1.32635 0.428208,0.95987 0.292236,3.21802 0.28445,4.8171 0.428992,-0.0223 5.159507,-0.73701 7.328403,1.82407 -0.02928,-0.0506 -0.102779,-0.0927 -0.143771,-0.17312 -0.500768,-0.57318 -1.139582,-1.03373 -1.723521,-1.58216 -0.470975,-0.42712 -1.488241,-1.44167 -2.719516,-2.65302 -1.176928,-1.15787 -2.547826,-2.49325 -3.716159,-3.55922 z"
         style="opacity:1;fill:#ffffff;fill-opacity:1;stroke:none;stroke-width:0.30000001;stroke-miterlimit:4;stroke-dasharray:none;stroke-opacity:1" />
      <path
         inkscape:connector-curvature="0"
         transform="matrix(0.26458333,0,0,0.26458333,0,263.13332)"
         id="path887"
         d="m 62.347656,2.0253906 c 2.530739,7.9959174 4.726589,14.0263964 4.267578,28.8339844 a 9.4497638,9.4497638 0 0 0 9.359375,9.736328 c 12.993151,0.107339 20.240381,2.391091 25.232421,5.255859 3.73527,2.143521 6.48176,4.816142 9.40235,8.134766 -0.1694,-2.446539 -0.42466,-4.734089 -1.06836,-7.037109 -0.81064,-2.900259 -2.08853,-5.645494 -3.61524,-8.273438 -1.95353,-3.362608 -5.25337,-5.531342 -8.187499,-8.287109 C 95.958199,28.77436 92.112611,24.939659 87.458984,20.361328 82.84344,15.820528 77.429394,10.546794 72.910156,6.4492188 71.575378,5.2446833 69.637287,3.9953273 67.835938,3.2734375 66.43718,2.7128958 64.791887,2.3633881 63.203125,2.1289062 62.907569,2.0852666 62.637328,2.0617341 62.347656,2.0253906 Z m 22.78125,17.0820314 4.732422,4.074219 c -1.453837,-0.224882 -3.071488,-0.345065 -4.628906,-0.501953 -0.05669,-1.146898 -0.01379,-2.501639 -0.103516,-3.572266 z"
         style="color:#000000;font-style:normal;font-variant:normal;font-weight:normal;font-stretch:normal;font-size:medium;line-height:normal;font-family:sans-serif;font-variant-ligatures:normal;font-variant-position:normal;font-variant-caps:normal;font-variant-numeric:normal;font-variant-alternates:normal;font-feature-settings:normal;text-indent:0;text-align:start;text-decoration:none;text-decoration-line:none;text-decoration-style:solid;text-decoration-color:#000000;letter-spacing:normal;word-spacing:normal;text-transform:none;writing-mode:lr-tb;direction:ltr;text-orientation:mixed;dominant-baseline:auto;baseline-shift:baseline;text-anchor:start;white-space:normal;shape-padding:0;clip-rule:nonzero;display:inline;overflow:visible;visibility:visible;opacity:1;isolation:auto;mix-blend-mode:normal;color-interpolation:sRGB;color-interpolation-filters:linearRGB;solid-color:#000000;solid-opacity:1;vector-effect:none;fill:#000000;fill-opacity:0.01960784;fill-rule:nonzero;stroke:none;stroke-width:18.89763832;stroke-linecap:round;stroke-linejoin:round;stroke-miterlimit:4;stroke-dasharray:none;stroke-dashoffset:0;stroke-opacity:1;color-rendering:auto;image-rendering:auto;shape-rendering:auto;text-rendering:auto;enable-background:accumulate" />
      <path
         inkscape:connector-curvature="0"
         id="path889"
         d="m 15.558078,263.5729 c 0.697367,2.22422 1.294921,3.69307 1.171505,7.67447 a 3.0003001,3.0003001 0 0 0 2.972945,3.0918 c 3.378491,0.0279 5.195417,0.61571 6.429582,1.32395 1.081003,0.62035 1.843275,1.43889 2.76779,2.52491 v -0.33848 c -0.04716,-0.83129 -0.101801,-1.57524 -0.312642,-2.32958 -0.214482,-0.76736 -0.55259,-1.4937 -0.956532,-2.18901 -0.516872,-0.88969 -1.389954,-1.4635 -2.166276,-2.19263 -0.47098,-0.42712 -1.488459,-1.44172 -2.719731,-2.65307 -1.221196,-1.20142 -2.653662,-2.59676 -3.849377,-3.68091 -0.35316,-0.3187 -0.865947,-0.64926 -1.342554,-0.84026 -0.370088,-0.14831 -0.805405,-0.24078 -1.225765,-0.30282 -0.273887,-0.0404 -0.530026,-0.0665 -0.768945,-0.0884 z"
         style="color:#000000;font-style:normal;font-variant:normal;font-weight:normal;font-stretch:normal;font-size:medium;line-height:normal;font-family:sans-serif;font-variant-ligatures:normal;font-variant-position:normal;font-variant-caps:normal;font-variant-numeric:normal;font-variant-alternates:normal;font-feature-settings:normal;text-indent:0;text-align:start;text-decoration:none;text-decoration-line:none;text-decoration-style:solid;text-decoration-color:#000000;letter-spacing:normal;word-spacing:normal;text-transform:none;writing-mode:lr-tb;direction:ltr;text-orientation:mixed;dominant-baseline:auto;baseline-shift:baseline;text-anchor:start;white-space:normal;shape-padding:0;clip-rule:nonzero;display:inline;overflow:visible;visibility:visible;opacity:1;isolation:auto;mix-blend-mode:normal;color-interpolation:sRGB;color-interpolation-filters:linearRGB;solid-color:#000000;solid-opacity:1;vector-effect:none;fill:#000000;fill-opacity:0.01960784;fill-rule:nonzero;stroke:none;stroke-width:6;stroke-linecap:round;stroke-linejoin:round;stroke-miterlimit:4;stroke-dasharray:none;stroke-dashoffset:0;stroke-opacity:1;color-rendering:auto;image-rendering:auto;shape-rendering:auto;text-rendering:auto;enable-background:accumulate" />
      <path
         inkscape:connector-curvature="0"
         transform="matrix(0.26458333,0,0,0.26458333,0,263.13332)"
         id="path881"
         d="m 66.560547,2.8398438 c 2.291858,7.2584992 4.262067,14.0767292 3.826172,28.1386722 a 5.6698583,5.6698583 0 0 0 5.625,5.83789 c 13.441258,0.11074 21.423301,2.517208 27.070311,5.757813 2.53482,1.454637 4.64771,3.131914 6.59961,4.980469 -0.0507,-0.201715 -0.0842,-0.403495 -0.14062,-0.605469 -0.81064,-2.900259 -2.08853,-5.645494 -3.61524,-8.273438 -1.95353,-3.362608 -5.25337,-5.531342 -8.187499,-8.287109 -0.599332,-0.543519 -1.502,-1.409843 -2.521484,-2.400391 C 91.106487,27.016086 86.482314,26.346863 81.259766,26.03125 81.149948,21.490863 80.927392,17.2175 80.46875,13.550781 77.863514,11.042658 75.268843,8.5878304 72.910156,6.4492188 71.575378,5.2446833 69.637287,3.9953273 67.835938,3.2734375 67.430084,3.1107948 67.000537,2.9692289 66.560547,2.8398438 Z"
         style="color:#000000;font-style:normal;font-variant:normal;font-weight:normal;font-stretch:normal;font-size:medium;line-height:normal;font-family:sans-serif;font-variant-ligatures:normal;font-variant-position:normal;font-variant-caps:normal;font-variant-numeric:normal;font-variant-alternates:normal;font-feature-settings:normal;text-indent:0;text-align:start;text-decoration:none;text-decoration-line:none;text-decoration-style:solid;text-decoration-color:#000000;letter-spacing:normal;word-spacing:normal;text-transform:none;writing-mode:lr-tb;direction:ltr;text-orientation:mixed;dominant-baseline:auto;baseline-shift:baseline;text-anchor:start;white-space:normal;shape-padding:0;clip-rule:nonzero;display:inline;overflow:visible;visibility:visible;opacity:1;isolation:auto;mix-blend-mode:normal;color-interpolation:sRGB;color-interpolation-filters:linearRGB;solid-color:#000000;solid-opacity:1;vector-effect:none;fill:#000000;fill-opacity:0.01960784;fill-rule:nonzero;stroke:none;stroke-width:11.33858299;stroke-linecap:round;stroke-linejoin:round;stroke-miterlimit:4;stroke-dasharray:none;stroke-dashoffset:0;stroke-opacity:1;color-rendering:auto;image-rendering:auto;shape-rendering:auto;text-rendering:auto;enable-background:accumulate" />
      <path
         inkscape:connector-curvature="0"
         transform="matrix(0.26458333,0,0,0.26458333,0,263.13332)"
         id="path883"
         d="m 65.482422,2.5546875 c 2.360826,7.4451213 4.40254,14.0835075 3.958984,28.3925785 a 6.6148346,6.6148346 0 0 0 6.5625,6.814453 c 13.32923,0.109984 21.130011,2.486167 26.613284,5.632812 2.90391,1.666428 5.24838,3.627751 7.44336,5.84375 -0.13943,-0.764583 -0.30624,-1.525967 -0.51953,-2.289062 -0.81064,-2.900259 -2.08853,-5.645494 -3.61524,-8.273438 -1.95353,-3.362608 -5.25337,-5.531342 -8.187499,-8.287109 C 96.907576,29.635326 95.592568,28.36332 93.990234,26.792969 90.418126,26.02486 86.472403,25.484008 82.130859,25.183594 82.000048,21.274699 81.771094,17.606324 81.353516,14.412109 78.449173,11.604717 75.5422,8.8356824 72.910156,6.4492188 71.575378,5.2446833 69.637287,3.9953273 67.835938,3.2734375 67.104927,2.9804903 66.304908,2.7459095 65.482422,2.5546875 Z"
         style="color:#000000;font-style:normal;font-variant:normal;font-weight:normal;font-stretch:normal;font-size:medium;line-height:normal;font-family:sans-serif;font-variant-ligatures:normal;font-variant-position:normal;font-variant-caps:normal;font-variant-numeric:normal;font-variant-alternates:normal;font-feature-settings:normal;text-indent:0;text-align:start;text-decoration:none;text-decoration-line:none;text-decoration-style:solid;text-decoration-color:#000000;letter-spacing:normal;word-spacing:normal;text-transform:none;writing-mode:lr-tb;direction:ltr;text-orientation:mixed;dominant-baseline:auto;baseline-shift:baseline;text-anchor:start;white-space:normal;shape-padding:0;clip-rule:nonzero;display:inline;overflow:visible;visibility:visible;opacity:1;isolation:auto;mix-blend-mode:normal;color-interpolation:sRGB;color-interpolation-filters:linearRGB;solid-color:#000000;solid-opacity:1;vector-effect:none;fill:#000000;fill-opacity:0.01960784;fill-rule:nonzero;stroke:none;stroke-width:13.22834682;stroke-linecap:round;stroke-linejoin:round;stroke-miterlimit:4;stroke-dasharray:none;stroke-dashoffset:0;stroke-opacity:1;color-rendering:auto;image-rendering:auto;shape-rendering:auto;text-rendering:auto;enable-background:accumulate" />
      <path
         inkscape:connector-curvature="0"
         transform="matrix(0.26458333,0,0,0.26458333,0,263.13332)"
         id="path885"
         d="m 64.419922,2.3320312 c 2.421494,7.6279764 4.527782,14.0801068 4.078125,28.5859378 a 7.559811,7.559811 0 0 0 7.492187,7.789062 c 13.217205,0.109229 20.834771,2.453211 26.154296,5.50586 3.21669,1.845945 5.73353,4.062353 8.1582,6.632812 -0.17087,-1.312341 -0.40005,-2.602563 -0.76171,-3.896484 -0.81064,-2.900259 -2.08853,-5.645494 -3.61524,-8.273438 -1.95353,-3.362608 -5.25337,-5.531342 -8.187499,-8.287109 -1.082444,-0.981642 -3.079301,-2.934929 -5.40625,-5.226563 -2.927866,-0.395032 -6.179544,-0.589916 -9.34375,-0.835937 -0.140194,-3.275824 -0.365855,-6.314874 -0.730469,-9.03125 C 79.056211,12.188714 75.821974,9.0893518 72.910156,6.4492188 71.575378,5.2446833 69.637287,3.9953273 67.835938,3.2734375 66.792599,2.8553276 65.611888,2.5549933 64.419922,2.3320312 Z"
         style="color:#000000;font-style:normal;font-variant:normal;font-weight:normal;font-stretch:normal;font-size:medium;line-height:normal;font-family:sans-serif;font-variant-ligatures:normal;font-variant-position:normal;font-variant-caps:normal;font-variant-numeric:normal;font-variant-alternates:normal;font-feature-settings:normal;text-indent:0;text-align:start;text-decoration:none;text-decoration-line:none;text-decoration-style:solid;text-decoration-color:#000000;letter-spacing:normal;word-spacing:normal;text-transform:none;writing-mode:lr-tb;direction:ltr;text-orientation:mixed;dominant-baseline:auto;baseline-shift:baseline;text-anchor:start;white-space:normal;shape-padding:0;clip-rule:nonzero;display:inline;overflow:visible;visibility:visible;opacity:1;isolation:auto;mix-blend-mode:normal;color-interpolation:sRGB;color-interpolation-filters:linearRGB;solid-color:#000000;solid-opacity:1;vector-effect:none;fill:#000000;fill-opacity:0.01960784;fill-rule:nonzero;stroke:none;stroke-width:15.11811066;stroke-linecap:round;stroke-linejoin:round;stroke-miterlimit:4;stroke-dasharray:none;stroke-dashoffset:0;stroke-opacity:1;color-rendering:auto;image-rendering:auto;shape-rendering:auto;text-rendering:auto;enable-background:accumulate" />
      <path
         inkscape:connector-curvature="0"
         transform="matrix(0.26458333,0,0,0.26458333,0,263.13332)"
         id="path869"
         d="m 71.457031,5.3046875 c 1.842216,6.3794495 3.277551,13.6238745 2.900391,25.7910155 a 1.7009574,1.7009574 0 0 0 1.683594,1.757813 c 13.911764,0.114897 22.684801,2.645987 29.019534,6.28125 0.58431,0.335314 1.14114,0.684694 1.6875,1.039062 -0.26764,-0.501996 -0.53561,-1.004622 -0.82227,-1.498047 -1.13465,-1.953067 -2.73538,-3.499756 -4.44336,-4.996093 C 95.444211,31.322875 87.716019,29.851603 77.613281,29.611328 77.742128,20.883729 76.952665,14.501684 75.796875,9.1171875 74.813042,8.1977773 73.833749,7.2866364 72.910156,6.4492188 72.483315,6.0640273 71.983177,5.6804264 71.457031,5.3046875 Z"
         style="color:#000000;font-style:normal;font-variant:normal;font-weight:normal;font-stretch:normal;font-size:medium;line-height:normal;font-family:sans-serif;font-variant-ligatures:normal;font-variant-position:normal;font-variant-caps:normal;font-variant-numeric:normal;font-variant-alternates:normal;font-feature-settings:normal;text-indent:0;text-align:start;text-decoration:none;text-decoration-line:none;text-decoration-style:solid;text-decoration-color:#000000;letter-spacing:normal;word-spacing:normal;text-transform:none;writing-mode:lr-tb;direction:ltr;text-orientation:mixed;dominant-baseline:auto;baseline-shift:baseline;text-anchor:start;white-space:normal;shape-padding:0;clip-rule:nonzero;display:inline;overflow:visible;visibility:visible;opacity:1;isolation:auto;mix-blend-mode:normal;color-interpolation:sRGB;color-interpolation-filters:linearRGB;solid-color:#000000;solid-opacity:1;vector-effect:none;fill:#000000;fill-opacity:0.01960784;fill-rule:nonzero;stroke:none;stroke-width:3.40157461;stroke-linecap:round;stroke-linejoin:round;stroke-miterlimit:4;stroke-dasharray:none;stroke-dashoffset:0;stroke-opacity:1;color-rendering:auto;image-rendering:auto;shape-rendering:auto;text-rendering:auto;enable-background:accumulate" />
      <path
         inkscape:connector-curvature="0"
         transform="matrix(0.26458333,0,0,0.26458333,0,263.13332)"
         id="path873"
         d="m 70.462891,4.6308594 c 1.954788,6.5587916 3.527266,13.7813156 3.134765,26.4433596 a 2.4569385,2.4569385 0 0 0 2.435547,2.53125 c 13.822144,0.114141 22.446655,2.619599 28.650387,6.179687 0.98267,0.563916 1.89148,1.165039 2.76953,1.783203 -0.4749,-0.978511 -0.97765,-1.946387 -1.52734,-2.892578 -1.4753,-2.539443 -3.71817,-4.399218 -5.992186,-6.34375 C 94.221327,30.400839 87.141381,29.20558 78.314453,28.933594 78.373221,21.070176 77.709245,15.05202 76.705078,9.9628906 75.399306,8.7336772 74.120212,7.5463712 72.910156,6.4492188 72.221554,5.8278079 71.371231,5.197728 70.462891,4.6308594 Z"
         style="color:#000000;font-style:normal;font-variant:normal;font-weight:normal;font-stretch:normal;font-size:medium;line-height:normal;font-family:sans-serif;font-variant-ligatures:normal;font-variant-position:normal;font-variant-caps:normal;font-variant-numeric:normal;font-variant-alternates:normal;font-feature-settings:normal;text-indent:0;text-align:start;text-decoration:none;text-decoration-line:none;text-decoration-style:solid;text-decoration-color:#000000;letter-spacing:normal;word-spacing:normal;text-transform:none;writing-mode:lr-tb;direction:ltr;text-orientation:mixed;dominant-baseline:auto;baseline-shift:baseline;text-anchor:start;white-space:normal;shape-padding:0;clip-rule:nonzero;display:inline;overflow:visible;visibility:visible;opacity:1;isolation:auto;mix-blend-mode:normal;color-interpolation:sRGB;color-interpolation-filters:linearRGB;solid-color:#000000;solid-opacity:1;vector-effect:none;fill:#000000;fill-opacity:0.01960784;fill-rule:nonzero;stroke:none;stroke-width:4.91338587;stroke-linecap:round;stroke-linejoin:round;stroke-miterlimit:4;stroke-dasharray:none;stroke-dashoffset:0;stroke-opacity:1;color-rendering:auto;image-rendering:auto;shape-rendering:auto;text-rendering:auto;enable-background:accumulate" />
      <path
         inkscape:connector-curvature="0"
         transform="matrix(0.26458333,0,0,0.26458333,0,263.13332)"
         id="path875"
         d="M 69.988281,4.3574219 C 71.990479,10.999411 73.6196,18.198082 73.220703,31.066406 a 2.8349291,2.8349291 0 0 0 2.8125,2.916016 c 13.777334,0.113764 22.326604,2.612246 28.464847,6.134766 1.18615,0.680686 2.26729,1.414138 3.30273,2.173828 -0.56491,-1.229683 -1.19013,-2.436363 -1.875,-3.615235 -1.6247,-2.796602 -4.17509,-4.7818 -6.677733,-6.951172 C 93.704211,29.965208 86.936902,28.869939 78.662109,28.585938 78.690044,21.152015 78.089116,15.329246 77.160156,10.396484 75.696972,9.014592 74.259032,7.6722389 72.910156,6.4492188 72.103997,5.7217211 71.071782,4.9917351 69.988281,4.3574219 Z"
         style="color:#000000;font-style:normal;font-variant:normal;font-weight:normal;font-stretch:normal;font-size:medium;line-height:normal;font-family:sans-serif;font-variant-ligatures:normal;font-variant-position:normal;font-variant-caps:normal;font-variant-numeric:normal;font-variant-alternates:normal;font-feature-settings:normal;text-indent:0;text-align:start;text-decoration:none;text-decoration-line:none;text-decoration-style:solid;text-decoration-color:#000000;letter-spacing:normal;word-spacing:normal;text-transform:none;writing-mode:lr-tb;direction:ltr;text-orientation:mixed;dominant-baseline:auto;baseline-shift:baseline;text-anchor:start;white-space:normal;shape-padding:0;clip-rule:nonzero;display:inline;overflow:visible;visibility:visible;opacity:1;isolation:auto;mix-blend-mode:normal;color-interpolation:sRGB;color-interpolation-filters:linearRGB;solid-color:#000000;solid-opacity:1;vector-effect:none;fill:#000000;fill-opacity:0.01960784;fill-rule:nonzero;stroke:none;stroke-width:5.6692915;stroke-linecap:round;stroke-linejoin:round;stroke-miterlimit:4;stroke-dasharray:none;stroke-dashoffset:0;stroke-opacity:1;color-rendering:auto;image-rendering:auto;shape-rendering:auto;text-rendering:auto;enable-background:accumulate" />
      <path
         inkscape:connector-curvature="0"
         transform="matrix(0.26458333,0,0,0.26458333,0,263.13332)"
         id="path877"
         d="m 68.804688,3.7207031 c 2.116232,6.8550909 3.886515,13.9653279 3.472656,27.3164059 a 3.7799055,3.7799055 0 0 0 3.75,3.890625 c 13.665309,0.11263 22.023547,2.57929 27.998046,6.007813 1.66016,0.952709 3.14025,1.998901 4.51758,3.109375 -0.7276,-1.846094 -1.6104,-3.636146 -2.61719,-5.369141 -1.95353,-3.362608 -5.25337,-5.531342 -8.187499,-8.287109 -0.0255,-0.02312 -0.07131,-0.06777 -0.09766,-0.0918 C 92.557283,28.911167 86.557347,28.038739 79.525391,27.736328 79.490349,21.360346 79.04911,16.03159 78.310547,11.490234 76.448214,9.7181261 74.6096,7.990098 72.910156,6.4492188 71.812127,5.4583313 70.307481,4.4538301 68.804688,3.7207031 Z"
         style="color:#000000;font-style:normal;font-variant:normal;font-weight:normal;font-stretch:normal;font-size:medium;line-height:normal;font-family:sans-serif;font-variant-ligatures:normal;font-variant-position:normal;font-variant-caps:normal;font-variant-numeric:normal;font-variant-alternates:normal;font-feature-settings:normal;text-indent:0;text-align:start;text-decoration:none;text-decoration-line:none;text-decoration-style:solid;text-decoration-color:#000000;letter-spacing:normal;word-spacing:normal;text-transform:none;writing-mode:lr-tb;direction:ltr;text-orientation:mixed;dominant-baseline:auto;baseline-shift:baseline;text-anchor:start;white-space:normal;shape-padding:0;clip-rule:nonzero;display:inline;overflow:visible;visibility:visible;opacity:1;isolation:auto;mix-blend-mode:normal;color-interpolation:sRGB;color-interpolation-filters:linearRGB;solid-color:#000000;solid-opacity:1;vector-effect:none;fill:#000000;fill-opacity:0.01960784;fill-rule:nonzero;stroke:none;stroke-width:7.55905533;stroke-linecap:round;stroke-linejoin:round;stroke-miterlimit:4;stroke-dasharray:none;stroke-dashoffset:0;stroke-opacity:1;color-rendering:auto;image-rendering:auto;shape-rendering:auto;text-rendering:auto;enable-background:accumulate" />
      <path
         inkscape:connector-curvature="0"
         transform="matrix(0.26458333,0,0,0.26458333,0,263.13332)"
         id="path855"
         d="m 73.478516,6.9746094 c 1.579112,6.0198026 2.728458,13.1493716 2.386718,24.1738286 a 0.18899528,0.18899528 0 0 0 0.191407,0.191406 c 13.600566,0.112358 22.514595,2.522416 29.050779,6.09375 -0.18908,-0.256692 -0.39395,-0.499788 -0.59765,-0.744141 C 98.014916,33.333816 89.233052,31.114771 76.234375,30.984375 76.544981,20.382388 75.476274,13.351753 73.982422,7.4414062 73.816526,7.2890805 73.642382,7.1242165 73.478516,6.9746094 Z"
         style="color:#000000;font-style:normal;font-variant:normal;font-weight:normal;font-stretch:normal;font-size:medium;line-height:normal;font-family:sans-serif;font-variant-ligatures:normal;font-variant-position:normal;font-variant-caps:normal;font-variant-numeric:normal;font-variant-alternates:normal;font-feature-settings:normal;text-indent:0;text-align:start;text-decoration:none;text-decoration-line:none;text-decoration-style:solid;text-decoration-color:#000000;letter-spacing:normal;word-spacing:normal;text-transform:none;writing-mode:lr-tb;direction:ltr;text-orientation:mixed;dominant-baseline:auto;baseline-shift:baseline;text-anchor:start;white-space:normal;shape-padding:0;clip-rule:nonzero;display:inline;overflow:visible;visibility:visible;opacity:1;isolation:auto;mix-blend-mode:normal;color-interpolation:sRGB;color-interpolation-filters:linearRGB;solid-color:#000000;solid-opacity:1;vector-effect:none;fill:#000000;fill-opacity:0.01960784;fill-rule:nonzero;stroke:none;stroke-width:0.37795275;stroke-linecap:round;stroke-linejoin:round;stroke-miterlimit:4;stroke-dasharray:none;stroke-dashoffset:0;stroke-opacity:1;color-rendering:auto;image-rendering:auto;shape-rendering:auto;text-rendering:auto;enable-background:accumulate" />
      <path
         inkscape:connector-curvature="0"
         transform="matrix(0.26458333,0,0,0.26458333,0,263.13332)"
         id="path857"
         d="m 73.222656,6.7382812 c 1.616577,6.0654628 2.803628,13.2211228 2.457032,24.4023438 a 0.37799055,0.37799055 0 0 0 0.376953,0.390625 c 13.802785,0.113839 22.747098,2.591382 29.279299,6.242188 -0.35008,-0.504372 -0.72123,-0.990117 -1.125,-1.449219 C 97.752709,33.08182 89.060028,30.957082 76.402344,30.808594 76.686104,20.467917 75.662805,13.503063 74.216797,7.65625 73.888244,7.3538141 73.543319,7.0301523 73.222656,6.7382812 Z"
         style="color:#000000;font-style:normal;font-variant:normal;font-weight:normal;font-stretch:normal;font-size:medium;line-height:normal;font-family:sans-serif;font-variant-ligatures:normal;font-variant-position:normal;font-variant-caps:normal;font-variant-numeric:normal;font-variant-alternates:normal;font-feature-settings:normal;text-indent:0;text-align:start;text-decoration:none;text-decoration-line:none;text-decoration-style:solid;text-decoration-color:#000000;letter-spacing:normal;word-spacing:normal;text-transform:none;writing-mode:lr-tb;direction:ltr;text-orientation:mixed;dominant-baseline:auto;baseline-shift:baseline;text-anchor:start;white-space:normal;shape-padding:0;clip-rule:nonzero;display:inline;overflow:visible;visibility:visible;opacity:1;isolation:auto;mix-blend-mode:normal;color-interpolation:sRGB;color-interpolation-filters:linearRGB;solid-color:#000000;solid-opacity:1;vector-effect:none;fill:#000000;fill-opacity:0.01960784;fill-rule:nonzero;stroke:none;stroke-width:0.75590551;stroke-linecap:round;stroke-linejoin:round;stroke-miterlimit:4;stroke-dasharray:none;stroke-dashoffset:0;stroke-opacity:1;color-rendering:auto;image-rendering:auto;shape-rendering:auto;text-rendering:auto;enable-background:accumulate" />
      <path
         inkscape:connector-curvature="0"
         transform="matrix(0.26458333,0,0,0.26458333,0,263.13332)"
         id="path859"
         d="m 72.960938,6.4960938 c 1.651712,6.1146822 2.879049,13.2907642 2.527343,24.6367182 a 0.56698586,0.56698586 0 0 0 0.560547,0.583985 c 14.001157,0.115659 22.981759,2.666115 29.507812,6.394531 -0.50933,-0.781361 -1.08567,-1.504674 -1.7168,-2.183594 -6.409987,-3.109 -14.986447,-5.124163 -27.259762,-5.289062 C 76.838759,20.554406 75.855781,13.661169 74.457031,7.8789062 73.959756,7.4200129 73.440298,6.9310065 72.960938,6.4960938 Z"
         style="color:#000000;font-style:normal;font-variant:normal;font-weight:normal;font-stretch:normal;font-size:medium;line-height:normal;font-family:sans-serif;font-variant-ligatures:normal;font-variant-position:normal;font-variant-caps:normal;font-variant-numeric:normal;font-variant-alternates:normal;font-feature-settings:normal;text-indent:0;text-align:start;text-decoration:none;text-decoration-line:none;text-decoration-style:solid;text-decoration-color:#000000;letter-spacing:normal;word-spacing:normal;text-transform:none;writing-mode:lr-tb;direction:ltr;text-orientation:mixed;dominant-baseline:auto;baseline-shift:baseline;text-anchor:start;white-space:normal;shape-padding:0;clip-rule:nonzero;display:inline;overflow:visible;visibility:visible;opacity:1;isolation:auto;mix-blend-mode:normal;color-interpolation:sRGB;color-interpolation-filters:linearRGB;solid-color:#000000;solid-opacity:1;vector-effect:none;fill:#000000;fill-opacity:0.01960784;fill-rule:nonzero;stroke:none;stroke-width:1.13385832;stroke-linecap:round;stroke-linejoin:round;stroke-miterlimit:4;stroke-dasharray:none;stroke-dashoffset:0;stroke-opacity:1;color-rendering:auto;image-rendering:auto;shape-rendering:auto;text-rendering:auto;enable-background:accumulate" />
      <path
         inkscape:connector-curvature="0"
         transform="matrix(0.26458333,0,0,0.26458333,0,263.13332)"
         id="path861"
         d="M 72.708984,6.2851562 C 74.394986,12.444063 75.658845,19.6369 75.302734,31.125 a 0.7559811,0.7559811 0 0 0 0.746094,0.783203 c 14.023794,0.115654 22.983948,2.67699 29.482422,6.40625 0.0887,0.05089 0.17198,0.104919 0.25977,0.15625 -0.65195,-1.074474 -1.43925,-2.029956 -2.3086,-2.921875 C 97.120536,32.565745 88.658515,30.649172 76.75,30.46875 76.984637,20.632377 76.042866,13.812518 74.691406,8.0957031 74.096424,7.5453435 73.480093,6.9659783 72.910156,6.4492188 72.849324,6.3943219 72.772257,6.3401878 72.708984,6.2851562 Z"
         style="color:#000000;font-style:normal;font-variant:normal;font-weight:normal;font-stretch:normal;font-size:medium;line-height:normal;font-family:sans-serif;font-variant-ligatures:normal;font-variant-position:normal;font-variant-caps:normal;font-variant-numeric:normal;font-variant-alternates:normal;font-feature-settings:normal;text-indent:0;text-align:start;text-decoration:none;text-decoration-line:none;text-decoration-style:solid;text-decoration-color:#000000;letter-spacing:normal;word-spacing:normal;text-transform:none;writing-mode:lr-tb;direction:ltr;text-orientation:mixed;dominant-baseline:auto;baseline-shift:baseline;text-anchor:start;white-space:normal;shape-padding:0;clip-rule:nonzero;display:inline;overflow:visible;visibility:visible;opacity:1;isolation:auto;mix-blend-mode:normal;color-interpolation:sRGB;color-interpolation-filters:linearRGB;solid-color:#000000;solid-opacity:1;vector-effect:none;fill:#000000;fill-opacity:0.01960784;fill-rule:nonzero;stroke:none;stroke-width:1.51181102;stroke-linecap:round;stroke-linejoin:round;stroke-miterlimit:4;stroke-dasharray:none;stroke-dashoffset:0;stroke-opacity:1;color-rendering:auto;image-rendering:auto;shape-rendering:auto;text-rendering:auto;enable-background:accumulate" />
      <path
         inkscape:connector-curvature="0"
         transform="matrix(0.26458333,0,0,0.26458333,0,263.13332)"
         id="path863"
         d="m 72.453125,6.0742188 c 1.718979,6.2031902 3.018828,13.4092732 2.658203,25.0429692 a 0.94497638,0.94497638 0 0 0 0.9375,0.974609 c 14.001388,0.115653 22.920994,2.676281 29.386722,6.386719 0.19372,0.111171 0.37889,0.22657 0.56836,0.339843 -0.0271,-0.04702 -0.0509,-0.09563 -0.0781,-0.142578 -0.7612,-1.310261 -1.72981,-2.437259 -2.79883,-3.490234 C 96.817407,32.320652 88.48491,30.486654 76.927734,30.291016 77.139328,20.694338 76.232182,13.955868 74.921875,8.3085938 74.246835,7.682771 73.553813,7.0328193 72.910156,6.4492188 c -0.13854,-0.1250221 -0.306303,-0.249639 -0.457031,-0.375 z"
         style="color:#000000;font-style:normal;font-variant:normal;font-weight:normal;font-stretch:normal;font-size:medium;line-height:normal;font-family:sans-serif;font-variant-ligatures:normal;font-variant-position:normal;font-variant-caps:normal;font-variant-numeric:normal;font-variant-alternates:normal;font-feature-settings:normal;text-indent:0;text-align:start;text-decoration:none;text-decoration-line:none;text-decoration-style:solid;text-decoration-color:#000000;letter-spacing:normal;word-spacing:normal;text-transform:none;writing-mode:lr-tb;direction:ltr;text-orientation:mixed;dominant-baseline:auto;baseline-shift:baseline;text-anchor:start;white-space:normal;shape-padding:0;clip-rule:nonzero;display:inline;overflow:visible;visibility:visible;opacity:1;isolation:auto;mix-blend-mode:normal;color-interpolation:sRGB;color-interpolation-filters:linearRGB;solid-color:#000000;solid-opacity:1;vector-effect:none;fill:#000000;fill-opacity:0.01960784;fill-rule:nonzero;stroke:none;stroke-width:1.88976383;stroke-linecap:round;stroke-linejoin:round;stroke-miterlimit:4;stroke-dasharray:none;stroke-dashoffset:0;stroke-opacity:1;color-rendering:auto;image-rendering:auto;shape-rendering:auto;text-rendering:auto;enable-background:accumulate" />
      <path
         inkscape:connector-curvature="0"
         transform="matrix(0.26458333,0,0,0.26458333,0,263.13332)"
         id="path865"
         d="m 72.197266,5.8652344 c 1.751496,6.2519816 3.087729,13.4746916 2.722656,25.2519536 a 1.1339717,1.1339717 0 0 0 1.128906,1.167968 c 13.978983,0.115276 22.858041,2.663853 29.291012,6.355469 0.28751,0.164991 0.56556,0.33427 0.84375,0.503906 -0.088,-0.155292 -0.16807,-0.314281 -0.25781,-0.46875 -0.85595,-1.473348 -1.97783,-2.712332 -3.20703,-3.876953 C 96.469806,32.068148 88.277265,30.337338 77.097656,30.128906 77.288692,20.723295 76.394237,14.08503 75.117188,8.4902344 74.373643,7.7996145 73.616482,7.0896413 72.910156,6.4492188 72.694198,6.2543332 72.441711,6.0600727 72.197266,5.8652344 Z"
         style="color:#000000;font-style:normal;font-variant:normal;font-weight:normal;font-stretch:normal;font-size:medium;line-height:normal;font-family:sans-serif;font-variant-ligatures:normal;font-variant-position:normal;font-variant-caps:normal;font-variant-numeric:normal;font-variant-alternates:normal;font-feature-settings:normal;text-indent:0;text-align:start;text-decoration:none;text-decoration-line:none;text-decoration-style:solid;text-decoration-color:#000000;letter-spacing:normal;word-spacing:normal;text-transform:none;writing-mode:lr-tb;direction:ltr;text-orientation:mixed;dominant-baseline:auto;baseline-shift:baseline;text-anchor:start;white-space:normal;shape-padding:0;clip-rule:nonzero;display:inline;overflow:visible;visibility:visible;opacity:1;isolation:auto;mix-blend-mode:normal;color-interpolation:sRGB;color-interpolation-filters:linearRGB;solid-color:#000000;solid-opacity:1;vector-effect:none;fill:#000000;fill-opacity:0.01960784;fill-rule:nonzero;stroke:none;stroke-width:2.26771665;stroke-linecap:round;stroke-linejoin:round;stroke-miterlimit:4;stroke-dasharray:none;stroke-dashoffset:0;stroke-opacity:1;color-rendering:auto;image-rendering:auto;shape-rendering:auto;text-rendering:auto;enable-background:accumulate" />
      <path
         inkscape:connector-curvature="0"
         transform="matrix(0.26458333,0,0,0.26458333,0,263.13332)"
         id="path867"
         d="m 71.949219,5.6621094 c 1.783499,6.2968376 3.154608,13.5306956 2.785156,25.4492186 a 1.3229669,1.3229669 0 0 0 1.306641,1.365234 c 13.956574,0.115276 22.802899,2.653341 29.203124,6.326172 0.3813,0.218814 0.75417,0.441003 1.11914,0.667969 -0.14703,-0.264379 -0.28529,-0.532928 -0.4375,-0.794922 -0.94953,-1.634423 -2.21994,-2.985095 -3.60937,-4.259765 C 96.132575,31.812911 88.085012,30.17201 77.273438,29.951172 77.442405,20.778371 76.584468,14.225588 75.347656,8.7011719 74.523384,7.933941 73.68989,7.1561999 72.910156,6.4492188 72.619067,6.1865331 72.290079,5.9231736 71.949219,5.6621094 Z"
         style="color:#000000;font-style:normal;font-variant:normal;font-weight:normal;font-stretch:normal;font-size:medium;line-height:normal;font-family:sans-serif;font-variant-ligatures:normal;font-variant-position:normal;font-variant-caps:normal;font-variant-numeric:normal;font-variant-alternates:normal;font-feature-settings:normal;text-indent:0;text-align:start;text-decoration:none;text-decoration-line:none;text-decoration-style:solid;text-decoration-color:#000000;letter-spacing:normal;word-spacing:normal;text-transform:none;writing-mode:lr-tb;direction:ltr;text-orientation:mixed;dominant-baseline:auto;baseline-shift:baseline;text-anchor:start;white-space:normal;shape-padding:0;clip-rule:nonzero;display:inline;overflow:visible;visibility:visible;opacity:1;isolation:auto;mix-blend-mode:normal;color-interpolation:sRGB;color-interpolation-filters:linearRGB;solid-color:#000000;solid-opacity:1;vector-effect:none;fill:#000000;fill-opacity:0.01960784;fill-rule:nonzero;stroke:none;stroke-width:2.64566922;stroke-linecap:round;stroke-linejoin:round;stroke-miterlimit:4;stroke-dasharray:none;stroke-dashoffset:0;stroke-opacity:1;color-rendering:auto;image-rendering:auto;shape-rendering:auto;text-rendering:auto;enable-background:accumulate" />
      <path
         inkscape:connector-curvature="0"
         transform="matrix(0.26458333,0,0,0.26458333,0,263.13332)"
         id="path871"
         d="m 70.960938,4.9628906 c 1.896709,6.4692224 3.398553,13.7087204 3.013671,26.1250004 a 2.0789481,2.0789481 0 0 0 2.066407,2.140625 c 13.866954,0.114519 22.564749,2.632774 28.833984,6.230468 0.779,0.447042 1.52215,0.913524 2.23438,1.394532 -0.37458,-0.734321 -0.76761,-1.46169 -1.1836,-2.177735 -1.30818,-2.251767 -3.23045,-3.966001 -5.23242,-5.68164 C 94.809832,30.85884 87.404707,29.531206 77.960938,29.273438 78.053517,20.978557 77.32644,14.774334 76.248047,9.5351562 75.102402,8.4604689 73.978256,7.4176608 72.910156,6.4492188 72.35187,5.9454077 71.676331,5.4406478 70.960938,4.9628906 Z"
         style="color:#000000;font-style:normal;font-variant:normal;font-weight:normal;font-stretch:normal;font-size:medium;line-height:normal;font-family:sans-serif;font-variant-ligatures:normal;font-variant-position:normal;font-variant-caps:normal;font-variant-numeric:normal;font-variant-alternates:normal;font-feature-settings:normal;text-indent:0;text-align:start;text-decoration:none;text-decoration-line:none;text-decoration-style:solid;text-decoration-color:#000000;letter-spacing:normal;word-spacing:normal;text-transform:none;writing-mode:lr-tb;direction:ltr;text-orientation:mixed;dominant-baseline:auto;baseline-shift:baseline;text-anchor:start;white-space:normal;shape-padding:0;clip-rule:nonzero;display:inline;overflow:visible;visibility:visible;opacity:1;isolation:auto;mix-blend-mode:normal;color-interpolation:sRGB;color-interpolation-filters:linearRGB;solid-color:#000000;solid-opacity:1;vector-effect:none;fill:#000000;fill-opacity:0.01960784;fill-rule:nonzero;stroke:none;stroke-width:4.15748024;stroke-linecap:round;stroke-linejoin:round;stroke-miterlimit:4;stroke-dasharray:none;stroke-dashoffset:0;stroke-opacity:1;color-rendering:auto;image-rendering:auto;shape-rendering:auto;text-rendering:auto;enable-background:accumulate" />
    </g>
    <path
       style="fill:#ffffff;fill-opacity:1;stroke:none;stroke-width:0.25552556px;stroke-linecap:butt;stroke-linejoin:miter;stroke-opacity:1"
       d="m 19.513919,265.40531 c 1.495048,2.87361 1.074513,4.19989 1.121418,6.09269 2.411347,-0.1542 4.598,0.17271 6.242409,0.91779 -0.318459,-0.27953 -0.650048,-0.55261 -0.968201,-0.85142 -0.454857,-0.41249 -1.437503,-1.39236 -2.626624,-2.56224 -1.179389,-1.16029 -2.562816,-2.50786 -3.717597,-3.5549 -0.01545,-0.0139 -0.03484,-0.0279 -0.05091,-0.0419 -9.4e-5,-8e-5 -4.04e-4,8e-5 -4.99e-4,0 z"
       id="path1196"
       inkscape:connector-curvature="0"
       sodipodi:nodetypes="ccccccccc" />
    <path
       id="path937"
       style="opacity:1;fill:#000000;fill-opacity:0.04689759;stroke:none;stroke-width:1.09504;stroke-miterlimit:4;stroke-dasharray:none;stroke-opacity:1"
       d="M 20.050781 4.2929688 L 20.050781 123.33203 L 20.494141 123.33203 L 20.494141 4.7910156 L 60.597656 4.7910156 C 61.741821 4.8926093 63.265508 5.0086127 64.847656 5.2421875 C 66.382031 5.468619 67.971394 5.8062767 69.322266 6.3476562 C 71.061948 7.0448279 72.933573 8.2527526 74.222656 9.4160156 C 78.587179 13.373332 83.8159 18.466214 88.273438 22.851562 C 92.767749 27.273156 96.480078 30.976101 98.199219 32.535156 C 100.21417 34.427625 102.39966 36.041161 104.17773 37.978516 C 102.33024 35.811598 99.941246 34.089654 97.755859 32.037109 C 96.036719 30.478054 92.322437 26.775109 87.828125 22.353516 C 83.370588 17.968168 78.14382 12.873332 73.779297 8.9160156 C 72.490213 7.7527526 70.616636 6.546781 68.876953 5.8496094 C 67.526082 5.3082298 65.936719 4.9705721 64.402344 4.7441406 C 62.820196 4.5105658 61.296509 4.3945625 60.152344 4.2929688 L 20.050781 4.2929688 z "
       transform="matrix(0.26458333,0,0,0.26458333,0,263.13332)" />
    <path
       id="path943"
       style="opacity:1;fill:#0d0d0d;fill-opacity:0.07807598;stroke:none;stroke-width:1.09504;stroke-miterlimit:4;stroke-dasharray:none;stroke-opacity:1"
       d="M 20.050781 4.2929688 L 20.050781 123.33203 L 20.902344 123.33203 L 20.902344 5.09375 L 61.003906 5.09375 C 62.148071 5.1953437 63.671758 5.3113471 65.253906 5.5449219 C 66.788281 5.7713534 68.377644 6.107058 69.728516 6.6484375 C 71.468198 7.3456092 73.341776 8.5535339 74.630859 9.7167969 C 75.610273 10.604832 76.643497 11.56523 77.691406 12.546875 C 76.344658 11.276723 75.023554 10.044185 73.779297 8.9160156 C 72.490213 7.7527526 70.616636 6.546781 68.876953 5.8496094 C 67.526082 5.3082298 65.936719 4.9705721 64.402344 4.7441406 C 62.820196 4.5105658 61.296509 4.3945625 60.152344 4.2929688 L 20.050781 4.2929688 z M 97.777344 32.056641 C 98.055235 32.318695 98.390556 32.641219 98.607422 32.837891 C 99.990079 34.136502 101.45339 35.300984 102.8125 36.529297 C 101.23657 35.000682 99.449054 33.624081 97.777344 32.056641 z "
       transform="matrix(0.26458333,0,0,0.26458333,0,263.13332)" />
    <path
       inkscape:connector-curvature="0"
       id="path1187"
       d="m 18.783882,293.17832 c 0,-0.36064 0.0049,-0.38809 0.06991,-0.38809 0.114925,0 0.122552,-0.0669 0.02357,-0.20684 -0.0694,-0.0981 -0.09348,-0.17644 -0.09348,-0.30413 0,-0.196 0.06457,-0.40454 0.144064,-0.46524 0.04713,-0.036 0.04121,-0.066 -0.04639,-0.2355 -0.07146,-0.13823 -0.09352,-0.22112 -0.07652,-0.28745 0.02227,-0.0869 0.03389,-0.0917 0.172448,-0.071 0.171215,0.0256 0.382683,0.12283 0.382683,0.176 0,0.02 -0.01613,0.0914 -0.03585,0.15875 -0.03021,0.10318 -0.02495,0.13311 0.03345,0.19032 0.06036,0.0591 0.08304,0.0623 0.175809,0.0247 0.05858,-0.0238 0.152936,-0.0873 0.209673,-0.14109 0.05674,-0.0538 0.139514,-0.11667 0.183953,-0.13963 0.05497,-0.0284 0.0882,-0.0871 0.103968,-0.1837 0.01274,-0.0781 0.0607,-0.19267 0.106565,-0.25467 0.142691,-0.19289 0.319291,-0.46085 0.376577,-0.57139 0.07396,-0.14272 0.199464,-0.15919 0.257773,-0.0338 0.0381,0.0819 0.03483,0.10101 -0.02454,0.14354 -0.03767,0.027 -0.08795,0.0491 -0.111727,0.0491 -0.05831,0 -0.09174,0.1447 -0.06437,0.27871 0.02502,0.12253 -0.03488,0.22197 -0.115448,0.19168 -0.08842,-0.0332 -0.227987,0.0209 -0.28901,0.11215 -0.06957,0.10401 -0.04193,0.33477 0.0401,0.33477 0.0809,0 0.02633,0.0856 -0.100678,0.15798 -0.142771,0.0813 -0.168701,0.11701 -0.169404,0.2331 -4.08e-4,0.0564 -0.0418,0.12719 -0.108605,0.1855 -0.05943,0.0519 -0.108051,0.1112 -0.108051,0.13184 0,0.0206 -0.02317,0.0602 -0.05148,0.0879 -0.04463,0.0437 -0.03942,0.0716 0.03909,0.20917 0.04982,0.0873 0.07298,0.15874 0.05148,0.15874 -0.04648,0 -0.05024,0.0693 -0.0074,0.13556 0.02266,0.035 0.04831,0.0378 0.0985,0.0107 0.173341,-0.0936 0.446045,-0.21186 0.446045,-0.19345 0,0.0113 -0.170184,0.17907 -0.378187,0.37291 -0.208001,0.19383 -0.378185,0.36548 -0.378185,0.38143 0,0.0159 0.03265,0.0392 0.07256,0.0516 0.16717,0.052 0.0038,0.088 -0.398843,0.088 h -0.430087 z m 0.519681,-0.65522 c 0.07194,-0.0705 0.07187,-0.11744 -2.04e-4,-0.14454 -0.07531,-0.0283 -0.168107,0.0659 -0.138746,0.14079 0.02892,0.0738 0.06638,0.0748 0.138967,0.004 z m 0.885006,1.01882 c -0.04952,-0.008 -0.138668,-0.0358 -0.198097,-0.0615 -0.05943,-0.0256 -0.132365,-0.0539 -0.16208,-0.0628 -0.02971,-0.009 0.0108,-0.0281 0.09005,-0.0426 0.192511,-0.0353 0.527277,-0.23814 0.661027,-0.4005 0.08387,-0.10182 0.118006,-0.12196 0.151704,-0.0895 0.03394,0.0327 0.03132,0.0791 -0.01195,0.21169 -0.03049,0.0934 -0.06653,0.23732 -0.0801,0.31979 l -0.02467,0.14995 -0.167917,-0.005 c -0.09235,-0.003 -0.208438,-0.0115 -0.257963,-0.0197 z m 0.01303,-0.13427 c 0.01262,-0.0322 7.1e-5,-0.0529 -0.03216,-0.0529 -0.02909,0 -0.05289,0.0238 -0.05289,0.0529 0,0.0291 0.01448,0.0529 0.03216,0.0529 0.01768,0 0.04149,-0.0238 0.0529,-0.0529 z m 0.89624,0.11467 c 0.02281,-0.0679 0.171264,-0.0776 0.171264,-0.0113 0,0.036 -0.03252,0.0554 -0.09305,0.0554 -0.05833,0 -0.08751,-0.0164 -0.07822,-0.0441 z m 0.572743,0.0128 c -0.03495,-0.0217 -0.03885,-0.049 -0.01378,-0.0965 0.01921,-0.0364 0.03599,-0.11683 0.03726,-0.17868 0.0012,-0.0619 0.01962,-0.14416 0.0408,-0.18291 0.02117,-0.0387 0.03849,-0.10989 0.03849,-0.15809 0,-0.11011 0.03395,-0.19925 0.07589,-0.19925 0.04105,0 0.04183,0.16252 0.0012,0.24047 -0.01705,0.0327 -0.04062,0.12293 -0.05236,0.20054 l -0.02136,0.14113 0.08928,-0.10584 c 0.0491,-0.0582 0.103,-0.12172 0.119772,-0.14113 0.03792,-0.0439 0.322701,-0.27313 0.382442,-0.30788 0.02423,-0.0141 0.06473,-0.0745 0.09,-0.13426 0.05727,-0.13544 0.0234,-0.1747 -0.198267,-0.22983 -0.142803,-0.0355 -0.168479,-0.0326 -0.221753,0.0251 -0.03314,0.0359 -0.0651,0.0605 -0.07102,0.0547 -0.0059,-0.006 0.01342,-0.11215 0.043,-0.23633 0.02957,-0.12417 0.04619,-0.24513 0.03692,-0.2688 -0.01133,-0.0289 -0.09043,-0.04 -0.241438,-0.0337 -0.179291,0.007 -0.237223,0.0245 -0.287263,0.0851 -0.08935,0.10809 -0.183855,0.10077 -0.15987,-0.0124 0.01029,-0.0485 0.02711,-0.12789 0.03739,-0.17641 0.01027,-0.0485 0.04174,-0.0882 0.06991,-0.0882 0.02817,0 0.06287,-0.0185 0.07712,-0.0411 0.02933,-0.0465 -0.141393,-0.20591 -0.220494,-0.20591 -0.02791,0 -0.06913,-0.0336 -0.09158,-0.0747 -0.04207,-0.077 -0.02916,-0.12034 0.151743,-0.50972 0.03665,-0.0789 0.06664,-0.15431 0.06664,-0.16759 0,-0.0448 -0.09888,-0.0246 -0.144792,0.0296 -0.07966,0.094 -0.08282,0.0246 -0.0034,-0.0743 0.09646,-0.12013 0.09743,-0.26718 0.0023,-0.35152 -0.07192,-0.0638 -0.07707,-0.0638 -0.198311,2e-4 -0.139557,0.0736 -0.19743,0.0505 -0.131681,-0.0526 0.06894,-0.10813 0.05432,-0.14686 -0.122715,-0.32523 -0.247715,-0.24958 -0.280179,-0.23115 -0.312697,0.17756 -0.0177,0.22257 -0.126189,0.36047 -0.283578,0.36047 -0.113626,0 -0.129185,-0.0518 -0.04917,-0.16371 0.04781,-0.0669 0.04477,-0.0808 -0.03335,-0.15268 -0.04728,-0.0435 -0.101527,-0.0697 -0.12056,-0.0582 -0.01903,0.0115 -0.05463,-0.003 -0.07911,-0.0316 -0.02448,-0.0289 -0.07494,-0.0525 -0.112134,-0.0525 -0.123738,0 -0.08214,-0.15874 0.07644,-0.2917 0.07924,-0.0664 0.144071,-0.14452 0.144071,-0.1735 0,-0.0618 -0.146254,-0.13458 -0.270576,-0.13458 -0.09456,0 -0.355752,-0.1493 -0.499264,-0.28538 -0.04935,-0.0468 -0.184008,-0.11813 -0.299253,-0.15853 -0.219611,-0.077 -0.287865,-0.16747 -0.152495,-0.20215 0.05944,-0.0152 0.0736,-0.0386 0.05823,-0.0962 -0.02431,-0.091 0.0055,-0.18246 0.05058,-0.15516 0.01772,0.0107 0.03224,0.0555 0.03224,0.0995 0,0.1042 0.119384,0.21122 0.342616,0.30714 0.0988,0.0425 0.236367,0.12011 0.305702,0.17258 0.06933,0.0525 0.22775,0.14792 0.352037,0.21215 0.218286,0.11279 0.231154,0.11512 0.378185,0.0685 0.08371,-0.0266 0.169116,-0.0699 0.189778,-0.0963 0.02868,-0.0366 0.05258,-0.001 0.10098,0.14906 0.05332,0.16569 0.09321,0.21878 0.250574,0.33353 0.102938,0.0751 0.311723,0.25751 0.463966,0.40545 0.221582,0.21532 0.298406,0.26898 0.385064,0.26898 0.05954,0 0.119148,0.0173 0.132457,0.0384 0.01331,0.0211 0.05728,0.0299 0.0977,0.0195 0.0496,-0.0127 0.118008,0.0185 0.210367,0.0959 0.07528,0.0631 0.182193,0.13739 0.237591,0.16505 0.0554,0.0277 0.162429,0.10052 0.237848,0.1619 0.07542,0.0614 0.180771,0.11972 0.234115,0.12965 0.05334,0.01 0.13619,0.03 0.184104,0.0447 0.07575,0.0231 0.08355,0.0178 0.0598,-0.0408 -0.01503,-0.0371 -0.03643,-0.19443 -0.04757,-0.34967 -0.01115,-0.15523 -0.04356,-0.31737 -0.07205,-0.36029 -0.04126,-0.0622 -0.04359,-0.10239 -0.01145,-0.19778 0.02841,-0.0843 0.0293,-0.14821 0.003,-0.21599 -0.02055,-0.0529 -0.02723,-0.1123 -0.01485,-0.13193 0.01237,-0.0196 -0.0095,-0.0781 -0.0487,-0.13002 -0.03917,-0.0519 -0.08229,-0.12853 -0.09582,-0.17031 -0.01354,-0.0418 -0.091,-0.13471 -0.172144,-0.20652 -0.138391,-0.12247 -0.158408,-0.1293 -0.323005,-0.11021 -0.167148,0.0194 -0.173637,0.017 -0.136806,-0.0504 0.02126,-0.0389 0.03359,-0.10255 0.0274,-0.14138 -0.01009,-0.0632 -0.01856,-0.0654 -0.08039,-0.0208 -0.0495,0.0357 -0.07239,0.10235 -0.08064,0.23479 -0.01223,0.19628 -0.07368,0.46 -0.107196,0.46 -0.05187,0 -0.252527,-0.13429 -0.342679,-0.22933 -0.127476,-0.1344 -0.218263,-0.41709 -0.172126,-0.53596 0.01838,-0.0473 0.0334,-0.12604 0.0334,-0.17491 0,-0.11222 0.07324,-0.0939 0.13703,0.0343 0.02584,0.0519 0.06231,0.0944 0.08104,0.0944 0.05545,0 0.178123,-0.13646 0.178123,-0.19816 0,-0.0401 0.02188,-0.0514 0.0739,-0.0381 0.05958,0.0153 0.0889,-0.0113 0.151247,-0.13701 0.04254,-0.0858 0.08907,-0.15595 0.103392,-0.15595 0.05154,0 0.107272,0.24521 0.0837,0.36826 -0.0216,0.11279 -0.01603,0.12568 0.05434,0.12568 0.04313,0 0.112133,0.0177 0.153348,0.0393 0.06496,0.0341 0.07238,0.0305 0.05574,-0.0265 -0.01056,-0.0362 -0.03087,-0.0935 -0.04514,-0.12749 -0.0177,-0.0421 -0.0093,-0.0617 0.02635,-0.0617 0.02876,0 0.08136,-0.0315 0.116877,-0.0699 0.05258,-0.0569 0.05622,-0.0798 0.01956,-0.12302 -0.02657,-0.0314 -0.03543,-0.0905 -0.02162,-0.14442 0.01287,-0.0502 0.006,-0.14171 -0.01523,-0.20333 -0.05239,-0.15199 0.02932,-0.67093 0.10798,-0.68576 0.02969,-0.006 0.106655,0.0369 0.171037,0.0946 0.10088,0.0903 0.117095,0.12817 0.117328,0.27431 6.13e-4,0.44314 0.108824,0.74853 0.284564,0.80383 0.03153,0.01 0.08975,0.0659 0.129367,0.1243 0.08657,0.12769 0.180483,0.16369 0.260766,0.0999 0.03257,-0.0259 0.05129,-0.0311 0.04159,-0.0117 -0.0097,0.0194 -0.04026,0.0797 -0.06793,0.13396 -0.04153,0.0815 -0.04243,0.12456 -0.0052,0.24696 0.08847,0.29064 0.08848,0.29057 -0.01031,0.33465 -0.148163,0.0661 -0.121393,0.14466 0.112127,0.32894 0.05113,0.0403 0.07832,0.11797 0.09452,0.26984 0.02445,0.22915 0.133564,0.46544 0.281899,0.61048 0.05074,0.0496 0.09932,0.11097 0.107953,0.13634 0.0119,0.035 0.04588,0.0281 0.140386,-0.0283 0.13457,-0.0803 0.287177,-0.0745 0.474074,0.0182 0.139379,0.0691 0.162968,0.0627 0.296344,-0.0799 0.117565,-0.1257 0.123072,-0.1275 0.29531,-0.0962 l 0.175511,0.0319 0.0029,0.19326 c 0.0016,0.10629 0.0057,0.21055 0.009,0.23169 0.0074,0.0469 0.164459,0.12033 0.25732,0.12033 0.170204,0 0.23513,0.21028 0.108932,0.35281 -0.09074,0.10249 -0.09061,0.14901 6.12e-4,0.22991 0.06947,0.0616 0.07226,0.10046 0.06303,0.87868 l -0.0097,0.81425 -0.45866,0.01 c -0.423183,0.009 -0.463501,0.004 -0.521256,-0.0617 -0.0789,-0.0903 -0.17868,-0.0906 -0.31672,-0.001 -0.139789,0.0907 -0.655531,0.10388 -0.689317,0.0176 -0.02321,-0.0593 -0.251535,-0.0748 -0.271152,-0.0184 -0.0066,0.019 -0.152807,0.045 -0.324898,0.058 l -0.312891,0.0235 0.003,-0.1027 c 0.003,-0.10309 -0.08527,-0.30824 -0.149292,-0.347 -0.03875,-0.0235 -0.218391,0.25779 -0.218391,0.34193 0,0.0302 -0.02564,0.0645 -0.05697,0.0763 -0.0877,0.033 -1.071194,0.0243 -1.126325,-0.01 z m 2.155773,-0.18036 c 0.03962,-0.0388 0.07204,-0.0953 0.07204,-0.12556 0,-0.0327 0.01693,-0.0448 0.04168,-0.0298 0.04647,0.0281 0.337805,0.0239 0.435553,-0.006 0.03467,-0.0107 0.06303,-0.0483 0.06303,-0.0836 0,-0.0892 -0.269576,-0.31926 -0.374089,-0.31926 -0.12338,0 -0.143336,-0.1167 -0.03673,-0.2148 l 0.08538,-0.0786 0.07731,0.0963 c 0.09391,0.11695 0.149966,0.0779 0.117375,-0.0817 -0.02005,-0.0982 -0.03645,-0.11321 -0.108887,-0.0996 -0.0721,0.0135 -0.105117,-0.016 -0.213683,-0.19109 -0.132474,-0.21361 -0.234851,-0.29689 -0.323867,-0.26343 -0.02817,0.0106 -0.05121,0.0605 -0.05121,0.11089 0,0.12004 -0.06086,0.22811 -0.128461,0.22811 -0.07452,0 -0.105077,-0.0957 -0.05096,-0.15955 0.06509,-0.0768 0.02079,-0.3251 -0.07603,-0.42606 -0.05009,-0.0522 -0.121928,-0.0847 -0.187242,-0.0847 -0.09315,0 -0.103008,-0.01 -0.08146,-0.0794 0.04967,-0.16084 0.03855,-0.17878 -0.160185,-0.25832 -0.193444,-0.0774 -0.198373,-0.0777 -0.209787,-0.0106 -0.0064,0.0378 -0.0429,0.0878 -0.08104,0.11115 -0.03814,0.0233 -0.06935,0.0618 -0.06935,0.0854 0,0.0444 0.242526,0.30739 0.306149,0.33193 0.01981,0.008 0.08166,0.0973 0.137435,0.19933 0.105154,0.19227 0.102594,0.20118 -0.0654,0.2274 -0.04395,0.007 -0.07676,0.0439 -0.08416,0.0949 -0.01062,0.0733 -0.001,0.0809 0.07758,0.0616 0.07607,-0.0187 0.09542,-0.006 0.127307,0.0836 0.04132,0.1161 0.09697,0.1288 0.280134,0.0639 0.170282,-0.0603 0.293011,0.001 0.308064,0.15432 0.0085,0.0862 0.03702,0.12822 0.110475,0.16253 0.06205,0.029 0.09905,0.0742 0.09905,0.12106 v 0.0748 l -0.08336,-0.0767 c -0.09389,-0.0864 -0.24756,-0.10083 -0.308455,-0.029 -0.02528,0.0298 -0.03177,0.10983 -0.01732,0.21319 0.03482,0.24886 0.220472,0.34723 0.373114,0.19771 z m 1.659583,-0.13841 c 0.168371,-0.16493 0.120538,-0.36749 -0.108744,-0.46053 -0.139787,-0.0567 -0.218186,-0.0261 -0.218186,0.0851 0,0.0639 -0.01489,0.0826 -0.05403,0.0679 -0.03781,-0.0142 -0.05402,0.003 -0.05402,0.0564 0,0.0422 -0.01609,0.10612 -0.03577,0.14214 -0.02877,0.0527 -0.01644,0.0796 0.06303,0.13768 0.142424,0.1041 0.282218,0.0943 0.407726,-0.0287 z m -0.723124,-0.44373 c 0,-0.0291 -0.02431,-0.0529 -0.05403,-0.0529 -0.02971,0 -0.05403,0.0238 -0.05403,0.0529 0,0.0291 0.02431,0.0529 0.05403,0.0529 0.02971,0 0.05403,-0.0238 0.05403,-0.0529 z m 1.188581,-0.16108 c 0,-0.2034 -0.162673,-0.3673 -0.2744,-0.27647 -0.128467,0.10444 -0.131334,0.17118 -0.01205,0.28034 0.06269,0.0574 0.152782,0.10429 0.200213,0.10429 0.07221,0 0.08623,-0.0176 0.08623,-0.10816 z m -0.690835,-0.415 c 0.0086,-0.057 -0.0071,-0.0766 -0.0609,-0.0766 -0.09479,0 -0.130272,0.0602 -0.07436,0.1262 0.05849,0.069 0.120883,0.0462 0.135264,-0.0496 z m -3.004826,-0.0971 c 0.03937,-0.10051 0.02068,-0.13967 -0.03331,-0.0698 -0.02908,0.0377 -0.05288,0.0813 -0.05288,0.097 0,0.0505 0.06361,0.0304 0.08619,-0.0273 z m 2.887341,-0.10742 c -0.01895,-0.0739 -0.01264,-0.0885 0.03116,-0.072 0.0302,0.0113 0.0675,-0.001 0.0829,-0.0284 0.0154,-0.0269 0.09925,-0.0541 0.186376,-0.0603 0.235445,-0.0168 0.263852,-0.0884 0.130777,-0.32961 -0.05884,-0.10666 -0.142824,-0.23744 -0.186636,-0.29061 -0.07066,-0.0858 -0.08566,-0.0907 -0.132808,-0.0438 -0.03039,0.0303 -0.06033,0.14631 -0.06992,0.27096 -0.01405,0.18271 -0.03331,0.23306 -0.118839,0.31071 -0.07426,0.0674 -0.125532,0.0869 -0.188187,0.0715 -0.06127,-0.0151 -0.08141,-0.008 -0.06981,0.0245 0.009,0.0251 0.05766,0.0413 0.108192,0.036 0.07216,-0.008 0.102226,0.0133 0.14008,0.097 0.05924,0.13109 0.119196,0.14077 0.08672,0.014 z m 0.536135,-0.011 c 0.0791,-0.0856 0.04421,-0.15849 -0.05179,-0.10817 -0.03711,0.0195 -0.110022,0.0354 -0.162018,0.0354 -0.107345,0 -0.09063,0.0582 0.03046,0.10608 0.109495,0.0433 0.113242,0.0426 0.183354,-0.0333 z m -1.962079,-0.21605 c -0.02056,-0.0376 -0.06112,-0.0684 -0.09014,-0.0684 -0.06848,0 -0.06672,0.0323 0.0061,0.11106 0.07375,0.0798 0.134215,0.0492 0.08406,-0.0426 z m -1.62862,-0.0269 c 0.05332,-0.0332 0.260932,-0.36448 0.328349,-0.52399 0.02605,-0.0616 0.0378,-0.14159 0.02611,-0.17767 -0.03365,-0.10385 -0.525545,-0.39943 -0.525545,-0.3158 0,0.007 -0.04844,0.16928 -0.107643,0.36164 -0.140801,0.45747 -0.139841,0.52608 0.0086,0.61473 0.125253,0.0748 0.19811,0.0859 0.270139,0.0411 z m 1.737844,-0.33522 c 0,-0.0257 -0.04052,-0.0841 -0.09004,-0.12963 -0.04953,-0.0456 -0.09005,-0.10939 -0.09005,-0.14181 0,-0.0324 -0.03318,-0.0884 -0.07374,-0.12432 -0.04594,-0.0407 -0.0697,-0.0993 -0.06303,-0.15541 0.0093,-0.0785 0.03153,-0.0923 0.172466,-0.10769 0.190001,-0.0207 0.213334,-0.0722 0.108546,-0.23933 -0.126762,-0.20222 -0.278703,-0.19575 -0.443741,0.0189 -0.08356,0.10868 -0.09726,0.15364 -0.07786,0.25555 0.01295,0.068 0.05436,0.15192 0.09204,0.18645 0.0565,0.0518 0.06095,0.0746 0.02544,0.13033 -0.05237,0.0821 0.027,0.1833 0.223834,0.28529 0.151054,0.0783 0.216143,0.0848 0.216143,0.0217 z m -0.152331,-1.56953 c 0.02015,-0.0592 -0.09608,-0.0949 -0.146934,-0.0451 -0.03239,0.0317 -0.02971,0.0492 0.01141,0.0747 0.06387,0.0395 0.115865,0.0282 0.135509,-0.0295 z m -3.089256,-0.34389 c 0,-0.0303 -0.01648,-0.045 -0.0366,-0.0328 -0.02013,0.0122 -0.02728,0.0369 -0.01589,0.055 0.03087,0.0489 0.05249,0.0398 0.05249,-0.0222 z m 0.421512,3.59047 c -0.192484,-0.19309 -0.178633,-0.23347 0.07141,-0.20819 0.229025,0.0231 0.407517,-0.0467 0.407517,-0.15956 0,-0.0346 0.01525,-0.063 0.03389,-0.063 0.130841,0 0.03718,0.28835 -0.134444,0.41388 -0.07346,0.0537 -0.138965,0.10961 -0.145568,0.12416 -0.02594,0.0572 -0.105306,0.0206 -0.232809,-0.10733 z m -0.350685,-1.13781 c -0.02905,-0.018 -0.112642,-0.033 -0.185758,-0.0333 -0.156044,-6e-4 -0.211899,-0.062 -0.117802,-0.12938 0.124526,-0.0892 0.448838,-0.0472 0.448838,0.0581 0,0.0874 -0.08002,0.145 -0.145278,0.10458 z m -1.135467,-0.54714 c 0.07743,-0.0567 0.143324,-0.0684 0.112858,-0.0202 -0.01076,0.0171 -0.05629,0.0401 -0.101174,0.0512 -0.07872,0.0194 -0.07914,0.0183 -0.01168,-0.031 z m 1.136675,-0.0998 c 0,-0.0299 0.03205,-0.0837 0.07121,-0.11941 0.08747,-0.0798 0.376386,-0.24159 0.354292,-0.19837 -0.0088,0.0172 -0.03703,0.0836 -0.06276,0.14754 -0.02573,0.0639 -0.06519,0.1096 -0.0877,0.10143 -0.02251,-0.008 -0.0936,0.0162 -0.157985,0.0542 -0.09904,0.0584 -0.117057,0.0607 -0.117057,0.0146 z m -1.82383,-0.38045 c -0.01709,-0.0259 -0.03661,-0.26217 -0.04337,-0.52493 l -0.01229,-0.47775 0.151592,-0.14849 c 0.173286,-0.16975 0.323577,-0.20194 0.322654,-0.0691 -8.17e-4,0.10188 -0.02896,0.13763 -0.161273,0.20408 -0.141423,0.071 -0.15425,0.15938 -0.0384,0.26455 0.07347,0.0667 0.0888,0.10557 0.07022,0.17808 -0.01307,0.051 -0.0027,0.17893 0.02313,0.28426 0.04795,0.19578 0.02937,0.25987 -0.08186,0.28234 -0.02496,0.005 -0.08003,0.0193 -0.122362,0.0317 -0.04692,0.0137 -0.08911,0.004 -0.108054,-0.0247 z m 7.230984,-0.30635 c -0.0053,-0.13805 -0.102536,-0.3151 -0.18764,-0.34156 -0.191965,-0.0597 -0.257322,-0.38189 -0.113732,-0.5607 0.04442,-0.0553 0.08076,-0.13618 0.08076,-0.1797 0,-0.1287 0.225647,-0.24152 0.267805,-0.1339 0.03024,0.0772 0.01946,0.99177 -0.01384,1.17514 -0.02612,0.14378 -0.02926,0.14762 -0.03335,0.0407 z m -1.817002,-0.60839 c -0.102977,-0.15407 -0.122243,-0.2593 -0.05494,-0.30005 0.02283,-0.0138 0.119889,-0.0312 0.215689,-0.0386 0.171938,-0.0133 0.173749,-0.0123 0.140598,0.0731 -0.01848,0.0476 -0.03139,0.11562 -0.02872,0.15117 0.0051,0.0674 -0.106383,0.25868 -0.150712,0.25868 -0.01401,0 -0.06888,-0.0649 -0.12192,-0.14429 z m 0.924305,-0.50432 c -0.09166,-0.0885 -0.118823,-0.14995 -0.139569,-0.31556 -0.01417,-0.1131 -0.02489,-0.24805 -0.02382,-0.29989 10e-4,-0.0519 -0.03245,-0.17796 -0.07448,-0.28025 -0.07213,-0.17554 -0.07296,-0.18937 -0.01476,-0.24637 0.07852,-0.0769 0.171338,-0.0271 0.209439,0.11249 0.01474,0.054 0.05077,0.12419 0.08009,0.15607 0.02932,0.0319 0.06479,0.10305 0.07884,0.15817 0.01405,0.0551 0.08825,0.1712 0.164885,0.25794 0.07664,0.0867 0.139345,0.19282 0.139345,0.23573 0,0.0889 -0.199633,0.34348 -0.26375,0.33634 -0.02332,-0.003 -0.09361,-0.0542 -0.156209,-0.11467 z m -5.811092,0.0371 c 0,-0.0616 0.09016,-0.19997 0.123264,-0.18916 0.06498,0.0212 0.04349,0.10099 -0.04223,0.15674 -0.04457,0.029 -0.08104,0.0436 -0.08104,0.0324 z m 4.907402,-0.41279 c -0.04457,-0.0176 -0.08104,-0.0531 -0.08104,-0.079 0,-0.0452 0.13291,-0.17913 0.324158,-0.32668 l 0.09004,-0.0695 -0.06733,0.078 c -0.06631,0.0768 -0.06719,0.15769 -0.0039,0.3542 0.02254,0.07 0.01331,0.0791 -0.07767,0.0772 -0.05679,-0.001 -0.139718,-0.0166 -0.18429,-0.0342 z m -4.269333,-0.10506 c -0.05379,-0.0414 -0.09781,-0.0898 -0.09781,-0.10749 0,-0.0177 0.07871,-0.0712 0.174905,-0.11895 0.127352,-0.0632 0.18569,-0.0763 0.21458,-0.048 0.08167,0.08 0.150779,-0.0386 0.150779,-0.25883 0,-0.18385 -0.0082,-0.20737 -0.07203,-0.20737 -0.03962,0 -0.07204,-0.0232 -0.07204,-0.0517 0,-0.0284 0.03242,-0.0687 0.07204,-0.0894 0.06097,-0.032 0.07203,-0.0739 0.07203,-0.27291 0,-0.16807 0.01107,-0.2243 0.03882,-0.19712 0.04588,0.0449 0.111665,0.27917 0.108721,0.38713 -0.0012,0.0417 0.02138,0.0847 0.05005,0.0955 0.04138,0.0156 0.04759,0.0671 0.03011,0.25048 -0.02312,0.24246 -0.02711,0.23582 0.147303,0.24493 0.122664,0.006 0.102361,0.0874 -0.06389,0.25498 -0.15741,0.15865 -0.170988,0.16459 -0.409288,0.1791 -0.211233,0.0129 -0.260462,0.004 -0.344284,-0.0604 z m 6.031806,-0.65348 c 0.0063,-0.0491 0.02761,-0.0893 0.04741,-0.0893 0.01981,0 0.04115,0.0402 0.04742,0.0893 0.0081,0.0636 -0.0055,0.0893 -0.04742,0.0893 -0.04191,0 -0.05554,-0.0257 -0.04741,-0.0893 z m -0.705102,-0.24876 c -0.03458,-0.0883 -0.02597,-0.1206 0.03216,-0.1206 0.03362,0 0.05403,0.0333 0.05403,0.0882 0,0.0985 -0.05254,0.11829 -0.08619,0.0324 z m -3.767697,-0.0148 c 0,-0.0194 0.02932,-0.0353 0.06515,-0.0353 0.03583,0 0.09661,-0.0233 0.135067,-0.0518 0.03845,-0.0285 0.118539,-0.0516 0.177968,-0.0514 0.105076,4e-4 0.104206,0.002 -0.03152,0.0492 -0.07677,0.0268 -0.156997,0.0658 -0.178288,0.0867 -0.04879,0.0478 -0.168375,0.0497 -0.168375,0.003 z m -2.653406,-0.10358 c -0.03184,-0.0826 -0.0298,-0.10737 0.01011,-0.12237 0.02751,-0.0103 0.05024,6e-4 0.05052,0.0242 2.04e-4,0.0236 0.01027,0.0787 0.02221,0.12238 0.03192,0.11668 -0.03622,0.0968 -0.08284,-0.0242 z m 7.116365,-0.13245 c -0.07225,-0.18316 -0.07934,-0.31127 -0.01989,-0.35961 0.09175,-0.0746 0.131162,-0.0122 0.131162,0.20754 0,0.23181 -0.05187,0.30269 -0.111282,0.15207 z m -1.743628,-0.0728 c -0.05943,-0.0305 -0.132365,-0.0664 -0.162079,-0.0799 -0.06202,-0.0282 -0.08796,-0.11949 -0.05665,-0.19942 0.01707,-0.0436 0.03219,-0.0461 0.07361,-0.0125 0.03257,0.0265 0.09504,0.0331 0.166545,0.0178 0.109383,-0.0235 0.113384,-0.0206 0.09083,0.0674 -0.01727,0.0675 -0.0097,0.0921 0.02851,0.0921 0.07484,0 0.201397,-0.17085 0.201397,-0.27189 0,-0.0693 0.01607,-0.0839 0.08297,-0.0753 0.04741,0.006 0.161661,-0.0388 0.266589,-0.10477 0.20489,-0.12879 0.514866,-0.43619 0.514866,-0.51059 0,-0.0643 -0.165726,-0.21457 -0.208205,-0.18885 -0.0184,0.0111 -0.06968,-0.0175 -0.113963,-0.0637 l -0.08052,-0.084 0.136437,-0.0634 c 0.07504,-0.0349 0.18658,-0.0592 0.247871,-0.054 0.07556,0.006 0.133043,-0.014 0.178542,-0.0632 0.03691,-0.0399 0.10106,-0.0727 0.14256,-0.0729 0.0415,-1.1e-4 0.121717,-0.0238 0.178256,-0.0527 0.05654,-0.0289 0.117279,-0.0437 0.134979,-0.033 0.03321,0.0201 0.03787,0.31175 0.0077,0.4829 -0.01462,0.0829 -0.03441,0.097 -0.136365,0.097 -0.15618,0 -0.43309,0.18708 -0.578577,0.39088 -0.0629,0.0881 -0.227405,0.23275 -0.37805,0.33239 -0.146683,0.097 -0.30341,0.23198 -0.348286,0.29989 -0.157585,0.23851 -0.190963,0.25137 -0.388987,0.14984 z m 1.523655,-1.24661 c 0.08314,-0.0599 0.151165,-0.12164 0.151165,-0.13722 0,-0.0156 -0.02941,-0.0639 -0.06535,-0.10737 l -0.06535,-0.079 -0.150759,0.0932 c -0.162897,0.10073 -0.168461,0.11271 -0.115634,0.24881 0.04465,0.11503 0.06257,0.11369 0.24592,-0.0184 z m -2.460112,1.15313 c -0.16518,-0.0714 -0.24183,-0.17273 -0.213712,-0.28247 0.01315,-0.0513 0.05071,-0.10734 0.08346,-0.12451 0.03276,-0.0172 0.129856,-0.11288 0.215766,-0.21268 0.148838,-0.17291 0.153307,-0.18459 0.09485,-0.24787 -0.05824,-0.063 -0.05591,-0.0732 0.04605,-0.20094 0.07013,-0.0879 0.129197,-0.22637 0.170205,-0.39914 0.03454,-0.14554 0.07481,-0.27761 0.08948,-0.29349 0.01468,-0.0159 0.08446,-0.005 0.155086,0.0237 0.14691,0.0601 0.241605,0.21083 0.240496,0.38272 -0.0012,0.18086 -0.141176,0.74864 -0.228083,0.92494 -0.02949,0.0598 -0.0799,0.18253 -0.112019,0.27265 -0.06122,0.17181 -0.116338,0.20647 -0.325473,0.20473 -0.05943,-4e-4 -0.156677,-0.0219 -0.216105,-0.0476 z m -2.625156,-1.29743 c -0.02827,-0.13844 -0.0051,-0.17018 0.124054,-0.17018 0.119634,0 0.13093,0.0357 0.04974,0.15704 -0.08728,0.1305 -0.148882,0.13515 -0.173794,0.0131 z m -0.238248,-0.0589 c 0,-0.12804 0.131362,-0.25848 0.181737,-0.18047 0.04173,0.0646 0.04331,0.10444 0.0041,0.10444 -0.01662,0 -0.0487,0.0397 -0.07126,0.0882 -0.05495,0.11813 -0.114606,0.11179 -0.114606,-0.0122 z m -0.741214,0.006 c -0.04249,-0.13357 -0.08098,-0.16986 -0.181545,-0.17117 -0.05706,-8e-4 -0.14937,-0.0206 -0.205136,-0.0441 -0.15082,-0.0636 -0.261718,-0.052 -0.319571,0.0333 -0.04029,0.0594 -0.07275,0.0709 -0.148463,0.0523 l -0.0969,-0.0238 v -1.30185 c 0,-0.71602 0.0098,-1.32685 0.02176,-1.35741 0.02498,-0.0638 0.174629,-0.0433 0.269214,0.0369 0.03127,0.0265 0.08881,0.0482 0.127863,0.0482 0.03905,0 0.09036,0.019 0.114022,0.0421 0.03335,0.0327 0.06024,0.024 0.11963,-0.0384 0.06562,-0.069 0.09535,-0.0763 0.2073,-0.051 0.07188,0.0163 0.2482,0.0282 0.391821,0.0265 0.284947,-0.003 0.310769,0.0196 0.202959,0.18078 -0.07097,0.1061 -0.09651,0.10747 -0.227979,0.0123 l -0.103141,-0.0747 -0.210555,0.0936 c -0.115805,0.0515 -0.259178,0.14124 -0.318607,0.19944 -0.05943,0.0582 -0.170539,0.15874 -0.24691,0.22342 -0.144472,0.12236 -0.145264,0.1323 -0.02416,0.30325 0.03201,0.0452 0.04729,0.0405 0.104649,-0.032 0.08737,-0.11042 0.160859,-0.081 0.256467,0.10253 0.08769,0.16837 0.15831,0.20628 0.244461,0.13123 0.04449,-0.0388 0.139053,-0.0531 0.339221,-0.0515 0.311212,0.003 0.36316,0.0416 0.224671,0.16909 -0.101722,0.0936 -0.340123,0.53829 -0.340123,0.63442 0,0.0364 -0.03647,0.12203 -0.08104,0.19028 -0.258545,0.3959 -0.275997,0.44686 -0.126127,0.36829 0.09381,-0.0492 0.212708,0.0487 0.142594,0.11734 -0.02391,0.0234 -0.04348,0.0782 -0.04348,0.12165 0,0.10104 -0.06616,0.14306 -0.0929,0.059 z m 1.516055,-0.15145 c -0.0266,-0.0421 0.04263,-0.17714 0.09085,-0.17714 0.01911,0 0.03475,0.0476 0.03475,0.10585 0,0.10424 -0.07718,0.14804 -0.1256,0.0713 z m 0.990025,-0.24338 c 0,-0.0727 0.0961,-0.16891 0.132781,-0.13298 0.03123,0.0306 -0.05002,0.19922 -0.09599,0.19922 -0.02023,0 -0.03679,-0.0298 -0.03679,-0.0662 z m 0.31672,-0.23506 c -0.04289,-0.042 -0.419798,-0.16764 -0.626618,-0.20886 -0.257584,-0.0513 -0.302402,-0.0737 -0.302402,-0.15117 0,-0.0316 -0.03067,-0.0902 -0.06815,-0.13023 -0.03748,-0.0401 -0.07866,-0.12165 -0.09152,-0.18132 -0.02088,-0.0969 -0.0045,-0.12574 0.153074,-0.27015 0.09705,-0.0889 0.239531,-0.19469 0.316633,-0.23504 0.0771,-0.0403 0.206622,-0.12231 0.287826,-0.18213 0.126519,-0.0932 0.184798,-0.11069 0.407286,-0.12216 0.334332,-0.0172 0.520989,0.0576 0.485749,0.1947 -0.04082,0.15885 -0.03437,0.19423 0.03439,0.18857 0.05202,-0.004 0.06292,0.0133 0.04985,0.0802 -0.02507,0.12847 0.02725,0.13297 0.165306,0.0142 0.136516,-0.11741 0.204503,-0.13504 0.204503,-0.053 0,0.0395 0.0236,0.0478 0.09004,0.0315 0.06809,-0.0167 0.09004,-0.008 0.09004,0.0346 0,0.037 0.03132,0.0568 0.09004,0.0568 0.05403,0 0.09005,0.0202 0.09005,0.0504 0,0.0539 0.05218,0.11312 0.200713,0.22756 l 0.09305,0.0717 -0.119868,0.11693 c -0.06593,0.0643 -0.1812,0.16257 -0.25616,0.21836 -0.116495,0.0867 -0.142653,0.0941 -0.180088,0.0505 -0.113766,-0.13231 -0.15692,-0.14159 -0.297872,-0.064 -0.08053,0.0443 -0.167741,0.0664 -0.215594,0.0547 -0.0485,-0.0119 -0.09802,0.001 -0.12491,0.0328 -0.0245,0.0289 -0.073,0.0526 -0.107764,0.0526 -0.03477,0 -0.08259,0.0229 -0.106277,0.0508 -0.02368,0.028 -0.06455,0.0427 -0.09081,0.0329 -0.02626,-0.01 -0.05845,-10e-4 -0.07153,0.0197 -0.0258,0.0409 -0.06814,0.0489 -0.099,0.0187 z m 3.00943,-0.0431 c -0.07046,-0.0113 -0.10428,-0.0638 -0.170382,-0.2649 -0.01129,-0.0344 -0.06954,-0.0721 -0.129437,-0.0838 -0.136449,-0.0267 -0.137374,-0.0746 -0.0038,-0.19809 0.09277,-0.0858 0.117022,-0.0926 0.207101,-0.0588 0.05611,0.0211 0.22764,0.0372 0.381163,0.0358 l 0.279138,-0.003 v 0.19167 c 0,0.10542 -0.01305,0.19957 -0.029,0.20923 -0.01595,0.01 -0.09085,0.004 -0.16645,-0.0128 -0.180514,-0.0399 -0.247745,-0.013 -0.221687,0.0887 0.0223,0.087 -0.02144,0.1155 -0.146616,0.0955 z m -4.226591,-0.14952 c 0,-0.0194 0.01621,-0.0353 0.03602,-0.0353 0.01981,0 0.03602,0.0159 0.03602,0.0353 0,0.0194 -0.01621,0.0353 -0.03602,0.0353 -0.01981,0 -0.03602,-0.0159 -0.03602,-0.0353 z m -0.749649,-0.34399 c -0.02092,-0.0534 -0.03923,-0.28754 -0.04068,-0.5204 -0.0014,-0.23286 -0.006,-0.44719 -0.01003,-0.4763 -0.0041,-0.0291 0.0061,-0.17597 0.02253,-0.32635 0.02088,-0.19087 0.04453,-0.27343 0.07832,-0.27343 0.0372,0 0.04793,0.076 0.04635,0.32823 -0.0014,0.23257 0.0156,0.36881 0.05853,0.46748 0.08076,0.18562 0.09055,0.3527 0.03195,0.54498 -0.02661,0.0873 -0.05708,0.20243 -0.0677,0.25579 -0.01062,0.0534 -0.03325,0.097 -0.05028,0.097 -0.01703,0 -0.04808,-0.0437 -0.069,-0.097 z m 4.351411,-0.19911 c -0.187122,-0.058 -0.443219,-0.21788 -0.527089,-0.32917 -0.141914,-0.1883 -0.168365,-0.33589 -0.104281,-0.5819 0.0681,-0.26142 0.160232,-0.44468 0.322897,-0.64227 0.06517,-0.0792 0.129127,-0.18759 0.142132,-0.24095 0.01813,-0.0744 0.04504,-0.097 0.115429,-0.097 0.07605,0 0.08778,0.0124 0.06842,0.0721 -0.0286,0.0883 0.04935,0.42002 0.115527,0.49171 0.03922,0.0425 0.06145,0.0441 0.11918,0.009 0.149299,-0.0913 0.172463,-0.0346 0.09036,0.2212 -0.01246,0.0388 0.01111,0.011 0.05236,-0.0617 0.04126,-0.0728 0.08988,-0.13231 0.108043,-0.13231 0.06498,0 0.0754,0.0701 0.02474,0.16655 -0.02833,0.0539 -0.06863,0.2092 -0.08957,0.34503 -0.02094,0.13584 -0.06806,0.35666 -0.104717,0.49073 -0.07929,0.28997 -0.145513,0.34742 -0.333433,0.28922 z m 0.381664,-0.0865 c -0.01246,-0.0198 -0.0051,-0.0465 0.01634,-0.0595 0.05538,-0.0335 0.0911,0.0124 0.04488,0.0577 -0.02587,0.0253 -0.04601,0.026 -0.06122,0.002 z m 0.439972,-0.12975 c -0.0117,-0.0115 -0.008,-0.0715 0.0082,-0.13352 0.01619,-0.062 0.04682,-0.17804 0.06805,-0.25791 0.07544,-0.28389 0.0551,-0.37021 -0.123736,-0.52513 -0.137797,-0.11937 -0.166357,-0.16696 -0.185276,-0.30871 -0.01891,-0.14176 -0.01309,-0.16759 0.03777,-0.16759 0.03308,0 0.09442,-0.0569 0.13633,-0.1265 l 0.07619,-0.12649 0.08247,0.16762 c 0.04536,0.0922 0.123983,0.20533 0.174717,0.25141 0.0792,0.0719 0.09224,0.11367 0.09224,0.29529 0,0.13941 -0.02081,0.24261 -0.06106,0.30278 -0.03358,0.0502 -0.08639,0.21219 -0.11735,0.35997 -0.03837,0.18314 -0.07396,0.27201 -0.111783,0.27914 -0.03052,0.006 -0.06506,0.001 -0.07675,-0.0104 z m -6.886468,-1.40966 c -0.03731,-0.0558 -0.05817,-0.1633 -0.05817,-0.29989 0,-0.2216 0.02985,-0.2667 0.09051,-0.13678 0.01956,0.0419 0.06947,0.0977 0.110931,0.1241 0.06577,0.0418 0.08696,0.039 0.166261,-0.0221 0.04998,-0.0385 0.101158,-0.06 0.113714,-0.0477 0.03434,0.0336 0.02745,0.18701 -0.0084,0.18701 -0.01717,0 -0.07414,0.0635 -0.126572,0.14113 -0.109787,0.16251 -0.203966,0.1802 -0.288274,0.0542 z m 1.886784,-0.0874 c 0,-0.0183 0.03647,-0.0937 0.08104,-0.16758 0.07115,-0.11793 0.08241,-0.12489 0.09227,-0.057 0.0062,0.0425 -0.01595,0.11793 -0.04916,0.16759 -0.06043,0.0903 -0.124146,0.11961 -0.124146,0.057 z m 4.8516,-0.31064 c -0.202935,-0.15082 -0.166817,-0.25587 0.08797,-0.25587 h 0.107312 l -0.02483,0.16758 c -0.01366,0.0922 -0.0282,0.1716 -0.03231,0.1765 -0.0041,0.005 -0.06628,-0.0348 -0.138144,-0.0882 z"
       style="fill:#804500;fill-opacity:1;stroke-width:1" />
  </g>
</svg>
