<?xml version="1.0" encoding="UTF-8" standalone="no"?>
<svg
   width="128"
   height="128"
   viewBox="0 0 33.866666 33.866668"
   version="1.1"
   id="svg1443"
   inkscape:version="1.1.2 (0a00cf5339, 2022-02-04)"
   sodipodi:docname="0cc-famitracker.svg"
   xmlns:inkscape="http://www.inkscape.org/namespaces/inkscape"
   xmlns:sodipodi="http://sodipodi.sourceforge.net/DTD/sodipodi-0.dtd"
   xmlns:xlink="http://www.w3.org/1999/xlink"
   xmlns="http://www.w3.org/2000/svg"
   xmlns:svg="http://www.w3.org/2000/svg"
   xmlns:rdf="http://www.w3.org/1999/02/22-rdf-syntax-ns#"
   xmlns:cc="http://creativecommons.org/ns#"
   xmlns:dc="http://purl.org/dc/elements/1.1/">
  <defs
     id="defs1437">
    <linearGradient
       inkscape:collect="always"
       id="linearGradient883">
      <stop
         style="stop-color:#ffffff;stop-opacity:1;"
         offset="0"
         id="stop879" />
      <stop
         style="stop-color:#efd4fc;stop-opacity:1"
         offset="1"
         id="stop881" />
    </linearGradient>
    <linearGradient
       id="linearGradient1630"
       inkscape:collect="always">
      <stop
         id="stop1626"
         offset="0"
         style="stop-color:#ff53f9;stop-opacity:1" />
      <stop
         id="stop1628"
         offset="1"
         style="stop-color:#8400ea;stop-opacity:1" />
    </linearGradient>
    <filter
       color-interpolation-filters="sRGB"
       height="1.1311001"
       width="1.1106"
       y="-0.065563001"
       x="-0.055319"
       id="c-9">
      <feGaussianBlur
         id="feGaussianBlur1093"
         stdDeviation="1.1062912" />
    </filter>
    <linearGradient
       gradientUnits="userSpaceOnUse"
       gradientTransform="matrix(0.13235,0,0,0.13075,-32.379,1.0873)"
       y2="269.48999"
       y1="235.14999"
       x2="657.65002"
       x1="319.20999"
       id="a-12">
      <stop
         id="stop1076"
         offset="0"
         stop-color="#e54c18" />
      <stop
         id="stop1078"
         offset="1"
         stop-color="#fec350" />
    </linearGradient>
    <radialGradient
       inkscape:collect="always"
       xlink:href="#linearGradient1630"
       id="radialGradient948"
       cx="16.951138"
       cy="6.0443439"
       fx="16.951138"
       fy="6.0443439"
       r="14.543719"
       gradientUnits="userSpaceOnUse"
       gradientTransform="matrix(3.1335146,0,0,1.987443,-36.165498,-5.9684452)" />
    <linearGradient
       inkscape:collect="always"
       xlink:href="#linearGradient883"
       id="linearGradient885"
       x1="16.048216"
       y1="11.041626"
       x2="16.048216"
       y2="24.842192"
       gradientUnits="userSpaceOnUse" />
  </defs>
  <sodipodi:namedview
     id="base"
     pagecolor="#ffffff"
     bordercolor="#666666"
     borderopacity="1.0"
     inkscape:pageopacity="0.0"
     inkscape:pageshadow="2"
     inkscape:zoom="7.9195959"
     inkscape:cx="79.044437"
     inkscape:cy="84.284603"
     inkscape:document-units="mm"
     inkscape:current-layer="layer1"
     inkscape:document-rotation="0"
     showgrid="false"
     units="px"
     inkscape:window-width="1920"
     inkscape:window-height="1026"
     inkscape:window-x="0"
     inkscape:window-y="28"
     inkscape:window-maximized="1"
     inkscape:pagecheckerboard="0" />
  <metadata
     id="metadata1440">
    <rdf:RDF>
      <cc:Work
         rdf:about="">
        <dc:format>image/svg+xml</dc:format>
        <dc:type
           rdf:resource="http://purl.org/dc/dcmitype/StillImage" />
      </cc:Work>
    </rdf:RDF>
  </metadata>
  <g
     inkscape:label="Capa 1"
     inkscape:groupmode="layer"
     id="layer1">
    <g
       style="opacity:0.18753551"
       transform="matrix(0.97573206,0,0,0.96360993,-65.737228,-36.327649)"
       id="g1702">
      <rect
         ry="6.6098609"
         rx="6.6098609"
         y="40.709618"
         x="69.839508"
         height="29.810888"
         width="29.810888"
         id="rect1634"
         style="fill:none;fill-opacity:1;stroke:#000000;stroke-width:0.1;stroke-linecap:round;stroke-linejoin:round;stroke-miterlimit:4;stroke-dasharray:none;stroke-opacity:0.02" />
      <rect
         style="fill:none;fill-opacity:1;stroke:#000000;stroke-width:0.2;stroke-linecap:round;stroke-linejoin:round;stroke-miterlimit:4;stroke-dasharray:none;stroke-opacity:0.02"
         id="rect1638"
         width="29.810888"
         height="29.810888"
         x="69.839508"
         y="40.709618"
         rx="6.6098609"
         ry="6.6098609" />
      <rect
         ry="6.6098609"
         rx="6.6098609"
         y="40.709618"
         x="69.839508"
         height="29.810888"
         width="29.810888"
         id="rect1640"
         style="fill:none;fill-opacity:1;stroke:#000000;stroke-width:0.3;stroke-linecap:round;stroke-linejoin:round;stroke-miterlimit:4;stroke-dasharray:none;stroke-opacity:0.02" />
      <rect
         style="fill:none;fill-opacity:1;stroke:#000000;stroke-width:0.4;stroke-linecap:round;stroke-linejoin:round;stroke-miterlimit:4;stroke-dasharray:none;stroke-opacity:0.02"
         id="rect1642"
         width="29.810888"
         height="29.810888"
         x="69.839508"
         y="40.709618"
         rx="6.6098609"
         ry="6.6098609" />
      <rect
         ry="6.6098609"
         rx="6.6098609"
         y="40.709618"
         x="69.839508"
         height="29.810888"
         width="29.810888"
         id="rect1644"
         style="fill:none;fill-opacity:1;stroke:#000000;stroke-width:0.5;stroke-linecap:round;stroke-linejoin:round;stroke-miterlimit:4;stroke-dasharray:none;stroke-opacity:0.02" />
      <rect
         style="fill:none;fill-opacity:1;stroke:#000000;stroke-width:0.6;stroke-linecap:round;stroke-linejoin:round;stroke-miterlimit:4;stroke-dasharray:none;stroke-opacity:0.02"
         id="rect1646"
         width="29.810888"
         height="29.810888"
         x="69.839508"
         y="40.709618"
         rx="6.6098609"
         ry="6.6098609" />
      <rect
         ry="6.6098609"
         rx="6.6098609"
         y="40.709618"
         x="69.839508"
         height="29.810888"
         width="29.810888"
         id="rect1648"
         style="fill:none;fill-opacity:1;stroke:#000000;stroke-width:0.7;stroke-linecap:round;stroke-linejoin:round;stroke-miterlimit:4;stroke-dasharray:none;stroke-opacity:0.02" />
      <rect
         style="fill:none;fill-opacity:1;stroke:#000000;stroke-width:0.8;stroke-linecap:round;stroke-linejoin:round;stroke-miterlimit:4;stroke-dasharray:none;stroke-opacity:0.02"
         id="rect1650"
         width="29.810888"
         height="29.810888"
         x="69.839508"
         y="40.709618"
         rx="6.6098609"
         ry="6.6098609" />
      <rect
         ry="6.6098609"
         rx="6.6098609"
         y="40.709618"
         x="69.839508"
         height="29.810888"
         width="29.810888"
         id="rect1652"
         style="fill:none;fill-opacity:1;stroke:#000000;stroke-width:1;stroke-linecap:round;stroke-linejoin:round;stroke-miterlimit:4;stroke-dasharray:none;stroke-opacity:0.02" />
      <rect
         style="fill:none;fill-opacity:1;stroke:#000000;stroke-width:1.2;stroke-linecap:round;stroke-linejoin:round;stroke-miterlimit:4;stroke-dasharray:none;stroke-opacity:0.02"
         id="rect1654"
         width="29.810888"
         height="29.810888"
         x="69.839508"
         y="40.709618"
         rx="6.6098609"
         ry="6.6098609" />
      <rect
         ry="6.6098609"
         rx="6.6098609"
         y="40.709618"
         x="69.839508"
         height="29.810888"
         width="29.810888"
         id="rect1656"
         style="fill:none;fill-opacity:1;stroke:#000000;stroke-width:1.4;stroke-linecap:round;stroke-linejoin:round;stroke-miterlimit:4;stroke-dasharray:none;stroke-opacity:0.02" />
      <rect
         style="fill:none;fill-opacity:1;stroke:#000000;stroke-width:1.6;stroke-linecap:round;stroke-linejoin:round;stroke-miterlimit:4;stroke-dasharray:none;stroke-opacity:0.02"
         id="rect1658"
         width="29.810888"
         height="29.810888"
         x="69.839508"
         y="40.709618"
         rx="6.6098609"
         ry="6.6098609" />
      <rect
         ry="6.6098609"
         rx="6.6098609"
         y="40.709618"
         x="69.839508"
         height="29.810888"
         width="29.810888"
         id="rect1660"
         style="fill:none;fill-opacity:1;stroke:#000000;stroke-width:1.8;stroke-linecap:round;stroke-linejoin:round;stroke-miterlimit:4;stroke-dasharray:none;stroke-opacity:0.02" />
      <rect
         style="fill:none;fill-opacity:1;stroke:#000000;stroke-width:2;stroke-linecap:round;stroke-linejoin:round;stroke-miterlimit:4;stroke-dasharray:none;stroke-opacity:0.02"
         id="rect1662"
         width="29.810888"
         height="29.810888"
         x="69.839508"
         y="40.709618"
         rx="6.6098609"
         ry="6.6098609" />
      <rect
         ry="6.6098609"
         rx="6.6098609"
         y="40.709618"
         x="69.839508"
         height="29.810888"
         width="29.810888"
         id="rect1664"
         style="fill:none;fill-opacity:1;stroke:#000000;stroke-width:2.2;stroke-linecap:round;stroke-linejoin:round;stroke-miterlimit:4;stroke-dasharray:none;stroke-opacity:0.02" />
      <rect
         style="fill:none;fill-opacity:1;stroke:#000000;stroke-width:2.6;stroke-linecap:round;stroke-linejoin:round;stroke-miterlimit:4;stroke-dasharray:none;stroke-opacity:0.02"
         id="rect1666"
         width="29.810888"
         height="29.810888"
         x="69.839508"
         y="40.709618"
         rx="6.6098609"
         ry="6.6098609" />
      <rect
         ry="6.6098609"
         rx="6.6098609"
         y="40.709618"
         x="69.839508"
         height="29.810888"
         width="29.810888"
         id="rect1668"
         style="fill:none;fill-opacity:1;stroke:#000000;stroke-width:3;stroke-linecap:round;stroke-linejoin:round;stroke-miterlimit:4;stroke-dasharray:none;stroke-opacity:0.02" />
      <rect
         style="fill:none;fill-opacity:1;stroke:#000000;stroke-width:3.4;stroke-linecap:round;stroke-linejoin:round;stroke-miterlimit:4;stroke-dasharray:none;stroke-opacity:0.02"
         id="rect1670"
         width="29.810888"
         height="29.810888"
         x="69.839508"
         y="40.709618"
         rx="6.6098609"
         ry="6.6098609" />
      <rect
         ry="6.6098609"
         rx="6.6098609"
         y="40.709618"
         x="69.839508"
         height="29.810888"
         width="29.810888"
         id="rect1672"
         style="fill:none;fill-opacity:1;stroke:#000000;stroke-width:3.8;stroke-linecap:round;stroke-linejoin:round;stroke-miterlimit:4;stroke-dasharray:none;stroke-opacity:0.02" />
      <rect
         style="fill:none;fill-opacity:1;stroke:#000000;stroke-width:4.2;stroke-linecap:round;stroke-linejoin:round;stroke-miterlimit:4;stroke-dasharray:none;stroke-opacity:0.02"
         id="rect1674"
         width="29.810888"
         height="29.810888"
         x="69.839508"
         y="40.709618"
         rx="6.6098609"
         ry="6.6098609" />
      <rect
         ry="6.6098609"
         rx="6.6098609"
         y="40.709618"
         x="69.839508"
         height="29.810888"
         width="29.810888"
         id="rect1676"
         style="fill:none;fill-opacity:1;stroke:#000000;stroke-width:4.6;stroke-linecap:round;stroke-linejoin:round;stroke-miterlimit:4;stroke-dasharray:none;stroke-opacity:0.02" />
      <rect
         style="fill:none;fill-opacity:1;stroke:#000000;stroke-width:5;stroke-linecap:round;stroke-linejoin:round;stroke-miterlimit:4;stroke-dasharray:none;stroke-opacity:0.02"
         id="rect1678"
         width="29.810888"
         height="29.810888"
         x="69.839508"
         y="40.709618"
         rx="6.6098609"
         ry="6.6098609" />
    </g>
    <rect
       ry="6.4494534"
       rx="6.4494534"
       y="2.5391712"
       x="2.4074187"
       height="29.087439"
       width="29.087439"
       id="rect849"
       style="fill:url(#radialGradient948);fill-opacity:1;stroke-width:2.68768;stroke-linecap:round;stroke-linejoin:round" />
    <path
       d="m 9.8449522,8.6589656 c -1.2311562,0 -2.2223706,0.9912139 -2.2223706,2.2216864 v 4.444053 c 0,1.230472 0.9912144,2.221685 2.2223706,2.221685 h 1.4806658 c 1.231156,0 2.22237,-0.991213 2.22237,-2.221685 v -4.444053 c 0,-1.2304725 -0.991214,-2.2216864 -2.22237,-2.2216864 z m 7.4060728,0 c -1.231156,0 -2.22237,0.9912139 -2.22237,2.2216864 v 4.444053 c 0,1.230472 0.991214,2.221685 2.22237,2.221685 h 1.480667 c 0.991214,0 1.816998,-0.646681 2.104791,-1.538772 l -1.363775,-0.682913 c 0,0.410158 -0.330175,0.740335 -0.741016,0.740335 h -1.480667 c -0.410842,0 -0.741019,-0.330177 -0.741019,-0.740335 v -4.444053 c 0,-0.410158 0.330177,-0.740335 0.741019,-0.740335 h 1.480667 c 0.410841,0 0.741016,0.330177 0.741016,0.740335 l 1.363775,-0.682229 C 20.54869,9.3056476 19.722906,8.6589656 18.731692,8.6589656 Z m 7.406072,0 c -1.231154,0 -2.222368,0.9912139 -2.222368,2.2216864 v 4.444053 c 0,1.230472 0.991214,2.221685 2.222368,2.221685 h 1.480668 c 0.991215,0 1.816997,-0.646681 2.104791,-1.538772 l -1.363773,-0.682913 c 0,0.410158 -0.330178,0.740335 -0.741018,0.740335 h -1.480668 c -0.41084,0 -0.741017,-0.330177 -0.741017,-0.740335 v -4.444053 c 0,-0.410158 0.330177,-0.740335 0.741017,-0.740335 h 1.480668 c 0.41084,0 0.741018,0.330177 0.741018,0.740335 l 1.363773,-0.682229 C 27.954762,9.3056476 27.12898,8.6589656 26.137765,8.6589656 Z M 9.8449522,10.140317 h 1.4806658 c 0.410842,0 0.741019,0.330177 0.741019,0.740335 v 4.444053 c 0,0.410158 -0.330177,0.740335 -0.741019,0.740335 H 9.8449522 c -0.4108419,0 -0.741019,-0.330177 -0.741019,-0.740335 v -4.444053 c 0,-0.410158 0.3301771,-0.740335 0.741019,-0.740335 z m 2.9620168,8.887425 c -0.820314,0 -1.481351,0.660352 -1.481351,1.481351 v 7.406074 h 1.481351 v -4.444053 h 2.962702 v -1.481352 h -2.962702 v -1.480669 h 4.444056 v -1.481351 z m 5.924723,0 v 1.481351 h 2.222368 v 7.406074 h 1.480669 v -7.406074 h 2.222368 v -1.481351 z"
       id="path894"
       style="fill:#3b076f;fill-opacity:0.07477528;stroke-width:0.683594" />
    <path
       d="m 9.6842434,7.8656732 c -1.2311562,0 -2.2223706,0.9912139 -2.2223706,2.2216868 v 4.444053 c 0,1.230472 0.9912144,2.221685 2.2223706,2.221685 h 1.4806656 c 1.231156,0 2.22237,-0.991213 2.22237,-2.221685 V 10.08736 c 0,-1.2304729 -0.991214,-2.2216868 -2.22237,-2.2216868 z m 7.4060726,0 c -1.231156,0 -2.22237,0.9912139 -2.22237,2.2216868 v 4.444053 c 0,1.230472 0.991214,2.221685 2.22237,2.221685 h 1.480667 c 0.991214,0 1.816998,-0.646681 2.104791,-1.538772 l -1.363775,-0.682913 c 0,0.410158 -0.330175,0.740335 -0.741016,0.740335 h -1.480667 c -0.410842,0 -0.741019,-0.330177 -0.741019,-0.740335 V 10.08736 c 0,-0.4101579 0.330177,-0.7403349 0.741019,-0.7403349 h 1.480667 c 0.410841,0 0.741016,0.330177 0.741016,0.7403349 L 20.675774,9.4051311 C 20.387981,8.5123552 19.562197,7.8656732 18.570983,7.8656732 Z m 7.406072,0 c -1.231154,0 -2.222368,0.9912139 -2.222368,2.2216868 v 4.444053 c 0,1.230472 0.991214,2.221685 2.222368,2.221685 h 1.480668 c 0.991215,0 1.816997,-0.646681 2.104791,-1.538772 l -1.363773,-0.682913 c 0,0.410158 -0.330178,0.740335 -0.741018,0.740335 h -1.480668 c -0.41084,0 -0.741017,-0.330177 -0.741017,-0.740335 V 10.08736 c 0,-0.4101579 0.330177,-0.7403349 0.741017,-0.7403349 h 1.480668 c 0.41084,0 0.741018,0.330177 0.741018,0.7403349 L 28.081847,9.4051311 C 27.794053,8.5123552 26.968271,7.8656732 25.977056,7.8656732 Z M 9.6842434,9.3470251 h 1.4806656 c 0.410842,0 0.741019,0.330177 0.741019,0.7403349 v 4.444053 c 0,0.410158 -0.330177,0.740335 -0.741019,0.740335 H 9.6842434 c -0.4108419,0 -0.741019,-0.330177 -0.741019,-0.740335 V 10.08736 c 0,-0.4101579 0.3301771,-0.7403349 0.741019,-0.7403349 z M 12.64626,18.23445 c -0.820314,0 -1.481351,0.660352 -1.481351,1.481351 v 7.406074 h 1.481351 v -4.444053 h 2.962702 V 21.19647 H 12.64626 v -1.480669 h 4.444056 V 18.23445 Z m 5.924723,0 v 1.481351 h 2.222368 v 7.406074 h 1.480669 v -7.406074 h 2.222368 V 18.23445 Z"
       id="path892"
       style="fill:#3b076f;fill-opacity:0.19396;stroke-width:0.683594" />
    <path
       d="m 8.8635212,7.4547896 c -1.2311562,0 -2.2223706,0.9912139 -2.2223706,2.2216869 v 4.4440525 c 0,1.230472 0.9912144,2.221685 2.2223706,2.221685 h 1.4806658 c 1.231156,0 2.22237,-0.991213 2.22237,-2.221685 V 9.6764765 c 0,-1.230473 -0.991214,-2.2216869 -2.22237,-2.2216869 z m 7.4060728,0 c -1.231156,0 -2.22237,0.9912139 -2.22237,2.2216869 v 4.4440525 c 0,1.230472 0.991214,2.221685 2.22237,2.221685 h 1.480667 c 0.991214,0 1.816998,-0.646681 2.104791,-1.538772 l -1.363775,-0.682913 c 0,0.410158 -0.330175,0.740335 -0.741016,0.740335 h -1.480667 c -0.410842,0 -0.741019,-0.330177 -0.741019,-0.740335 V 9.6764765 c 0,-0.410158 0.330177,-0.740335 0.741019,-0.740335 h 1.480667 c 0.410841,0 0.741016,0.330177 0.741016,0.740335 l 1.363775,-0.682229 C 19.567259,8.1014716 18.741475,7.4547896 17.750261,7.4547896 Z m 7.406072,0 c -1.231154,0 -2.222368,0.9912139 -2.222368,2.2216869 v 4.4440525 c 0,1.230472 0.991214,2.221685 2.222368,2.221685 h 1.480668 c 0.991215,0 1.816997,-0.646681 2.104791,-1.538772 l -1.363773,-0.682913 c 0,0.410158 -0.330178,0.740335 -0.741018,0.740335 h -1.480668 c -0.41084,0 -0.741017,-0.330177 -0.741017,-0.740335 V 9.6764765 c 0,-0.410158 0.330177,-0.740335 0.741017,-0.740335 h 1.480668 c 0.41084,0 0.741018,0.330177 0.741018,0.740335 l 1.363773,-0.682229 C 26.973331,8.1014716 26.147549,7.4547896 25.156334,7.4547896 Z M 8.8635212,8.9361415 h 1.4806658 c 0.410842,0 0.741019,0.330177 0.741019,0.740335 v 4.4440525 c 0,0.410158 -0.330177,0.740335 -0.741019,0.740335 H 8.8635212 c -0.4108419,0 -0.741019,-0.330177 -0.741019,-0.740335 V 9.6764765 c 0,-0.410158 0.3301771,-0.740335 0.741019,-0.740335 z m 2.9620168,8.8874245 c -0.820314,0 -1.481351,0.660352 -1.481351,1.481351 v 7.406074 h 1.481351 v -4.444053 h 2.962702 v -1.481352 h -2.962702 v -1.480669 h 4.444056 v -1.481351 z m 5.924723,0 v 1.481351 h 2.222368 v 7.406074 h 1.480669 v -7.406074 h 2.222368 v -1.481351 z"
       fill="#ebe0ed"
       fill-rule="nonzero"
       id="path9"
       style="stroke-width:0.683594;fill:url(#linearGradient885);fill-opacity:1" />
    <path
       id="path887"
       style="fill:#751eef;fill-opacity:0.14752342;stroke-width:2.58366"
       d="M 70.025391 28.712891 C 71.414403 29.746122 72.470574 31.201749 73.015625 32.892578 L 69.230469 34.785156 C 69.63588 35.270368 69.888672 35.887778 69.888672 36.572266 L 75.042969 33.994141 C 74.256772 31.555242 72.404441 29.608236 70.025391 28.712891 z M 98.017578 28.712891 C 99.40659 29.746122 100.46276 31.201749 101.00781 32.892578 L 97.222656 34.787109 C 97.627265 35.272095 97.878906 35.888534 97.878906 36.572266 L 103.0332 33.994141 C 102.247 31.555242 100.39663 29.608236 98.017578 28.712891 z M 42.060547 28.720703 C 44.127085 30.247782 45.46875 32.694085 45.46875 35.470703 L 45.46875 52.267578 C 45.46875 56.918181 41.721546 60.664062 37.068359 60.664062 L 31.472656 60.664062 C 30.42543 60.664063 29.428853 60.466246 28.505859 60.119141 C 29.900895 61.150545 31.624218 61.765625 33.5 61.765625 L 39.095703 61.765625 C 43.748891 61.765625 47.496094 58.019743 47.496094 53.369141 L 47.496094 36.572266 C 47.496094 32.967301 45.240133 29.915203 42.060547 28.720703 z M 31.472656 32.673828 C 29.919868 32.673828 28.671875 33.9205 28.671875 35.470703 L 28.671875 52.267578 C 28.671875 53.747588 29.813305 54.938879 31.267578 55.044922 C 30.915781 54.577162 30.699219 54.002 30.699219 53.369141 L 30.699219 36.572266 C 30.699219 35.022062 31.947212 33.773438 33.5 33.773438 L 39.095703 33.773438 C 39.166676 33.773438 39.233125 33.789798 39.302734 33.794922 C 38.792831 33.116476 37.987563 32.673828 37.068359 32.673828 L 31.472656 32.673828 z M 59.464844 32.673828 C 57.912055 32.673828 56.664062 33.9205 56.664062 35.470703 L 56.664062 52.267578 C 56.664062 53.746927 57.804473 54.937945 59.257812 55.044922 C 58.906349 54.577287 58.691406 54.00167 58.691406 53.369141 L 58.691406 36.572266 C 58.691406 35.022062 59.939399 33.773438 61.492188 33.773438 L 67.087891 33.773438 C 67.158201 33.773438 67.223996 33.789893 67.292969 33.794922 C 66.783034 33.116893 65.979419 32.673828 65.060547 32.673828 L 59.464844 32.673828 z M 87.455078 32.673828 C 85.902297 32.673828 84.654297 33.9205 84.654297 35.470703 L 84.654297 52.267578 C 84.654297 53.747348 85.796073 54.938539 87.25 55.044922 C 86.898204 54.577162 86.681641 54.002 86.681641 53.369141 L 86.681641 36.572266 C 86.681641 35.022062 87.929641 33.773438 89.482422 33.773438 L 95.078125 33.773438 C 95.149098 33.773438 95.215548 33.789798 95.285156 33.794922 C 94.775218 33.116893 93.971604 32.673828 93.052734 32.673828 L 87.455078 32.673828 z M 72.990234 54.921875 C 71.881172 58.255626 68.779667 60.664062 65.060547 60.664062 L 59.464844 60.664062 C 58.417876 60.664063 57.420851 60.466083 56.498047 60.119141 C 57.893083 61.150545 59.616406 61.765625 61.492188 61.765625 L 67.087891 61.765625 C 70.834211 61.765625 73.955247 59.320901 75.042969 55.949219 L 72.990234 54.921875 z M 100.98047 54.921875 C 99.871239 58.255332 96.771647 60.664062 93.052734 60.664062 L 87.455078 60.664062 C 86.409386 60.664063 85.414058 60.467232 84.492188 60.121094 C 85.886839 61.151513 87.607629 61.765625 89.482422 61.765625 L 95.078125 61.765625 C 98.824449 61.765625 101.94548 59.320901 103.0332 55.949219 L 100.98047 54.921875 z M 59.464844 67.365234 L 59.464844 71.861328 L 42.667969 71.861328 L 42.667969 77.458984 L 44.695312 77.458984 L 44.695312 72.962891 L 61.492188 72.962891 L 61.492188 67.365234 L 59.464844 67.365234 z M 87.455078 67.365234 L 87.455078 71.861328 L 79.056641 71.861328 L 79.056641 99.853516 L 75.486328 99.853516 L 75.486328 100.95508 L 81.083984 100.95508 L 81.083984 72.962891 L 89.482422 72.962891 L 89.482422 67.365234 L 87.455078 67.365234 z M 67.087891 71.861328 L 67.087891 72.962891 L 73.460938 72.962891 L 73.460938 71.861328 L 67.087891 71.861328 z M 53.865234 78.560547 L 53.865234 83.056641 L 42.667969 83.056641 L 42.667969 99.853516 L 39.095703 99.853516 L 39.095703 100.95508 L 44.695312 100.95508 L 44.695312 84.158203 L 55.892578 84.158203 L 55.892578 78.560547 L 53.865234 78.560547 z "
       transform="scale(0.26458333)" />
  </g>
</svg>
