<?xml version="1.0" encoding="UTF-8" standalone="no"?>
<svg
   xmlns:dc="http://purl.org/dc/elements/1.1/"
   xmlns:cc="http://creativecommons.org/ns#"
   xmlns:rdf="http://www.w3.org/1999/02/22-rdf-syntax-ns#"
   xmlns:svg="http://www.w3.org/2000/svg"
   xmlns="http://www.w3.org/2000/svg"
   xmlns:xlink="http://www.w3.org/1999/xlink"
   xmlns:sodipodi="http://sodipodi.sourceforge.net/DTD/sodipodi-0.dtd"
   xmlns:inkscape="http://www.inkscape.org/namespaces/inkscape"
   width="128"
   height="128"
   viewBox="0 0 33.866666 33.866668"
   version="1.1"
   id="svg1443"
   inkscape:version="1.0.2 (e86c870879, 2021-01-15)"
   sodipodi:docname="3540_XVIIx86.0.svg">
  <defs
     id="defs1437">
    <linearGradient
       inkscape:collect="always"
       id="linearGradient884">
      <stop
         style="stop-color:#ffffff;stop-opacity:1;"
         offset="0"
         id="stop880" />
      <stop
         style="stop-color:#e9c1fb;stop-opacity:1"
         offset="1"
         id="stop882" />
    </linearGradient>
    <linearGradient
       id="linearGradient1630"
       inkscape:collect="always">
      <stop
         id="stop1626"
         offset="0"
         style="stop-color:#ff53f9;stop-opacity:1" />
      <stop
         id="stop1628"
         offset="1"
         style="stop-color:#8400ea;stop-opacity:1" />
    </linearGradient>
    <filter
       color-interpolation-filters="sRGB"
       height="1.1311001"
       width="1.1106"
       y="-0.065563001"
       x="-0.055319"
       id="c-9">
      <feGaussianBlur
         id="feGaussianBlur1093"
         stdDeviation="1.1062912" />
    </filter>
    <linearGradient
       gradientUnits="userSpaceOnUse"
       gradientTransform="matrix(0.13235,0,0,0.13075,-32.379,1.0873)"
       y2="269.48999"
       y1="235.14999"
       x2="657.65002"
       x1="319.20999"
       id="a-12">
      <stop
         id="stop1076"
         offset="0"
         stop-color="#e54c18" />
      <stop
         id="stop1078"
         offset="1"
         stop-color="#fec350" />
    </linearGradient>
    <radialGradient
       inkscape:collect="always"
       xlink:href="#linearGradient1630"
       id="radialGradient948"
       cx="16.951138"
       cy="6.0443439"
       fx="16.951138"
       fy="6.0443439"
       r="14.543719"
       gradientUnits="userSpaceOnUse"
       gradientTransform="matrix(3.1335146,0,0,1.987443,-36.165498,-5.9684452)" />
    <linearGradient
       inkscape:collect="always"
       xlink:href="#linearGradient884"
       id="linearGradient886"
       x1="13.364421"
       y1="13.92075"
       x2="13.364421"
       y2="24.14933"
       gradientUnits="userSpaceOnUse" />
  </defs>
  <sodipodi:namedview
     id="base"
     pagecolor="#ffffff"
     bordercolor="#666666"
     borderopacity="1.0"
     inkscape:pageopacity="0.0"
     inkscape:pageshadow="2"
     inkscape:zoom="1.4"
     inkscape:cx="-14.040602"
     inkscape:cy="62.4179"
     inkscape:document-units="mm"
     inkscape:current-layer="layer1"
     inkscape:document-rotation="0"
     showgrid="false"
     units="px"
     inkscape:window-width="1920"
     inkscape:window-height="1028"
     inkscape:window-x="0"
     inkscape:window-y="24"
     inkscape:window-maximized="1" />
  <metadata
     id="metadata1440">
    <rdf:RDF>
      <cc:Work
         rdf:about="">
        <dc:format>image/svg+xml</dc:format>
        <dc:type
           rdf:resource="http://purl.org/dc/dcmitype/StillImage" />
        <dc:title></dc:title>
      </cc:Work>
    </rdf:RDF>
  </metadata>
  <g
     inkscape:label="Capa 1"
     inkscape:groupmode="layer"
     id="layer1">
    <g
       style="opacity:0.18753551"
       transform="matrix(0.97573206,0,0,0.96360993,-65.737228,-36.327649)"
       id="g1702">
      <rect
         ry="6.6098609"
         rx="6.6098609"
         y="40.709618"
         x="69.839508"
         height="29.810888"
         width="29.810888"
         id="rect1634"
         style="fill:none;fill-opacity:1;stroke:#000000;stroke-width:0.1;stroke-linecap:round;stroke-linejoin:round;stroke-miterlimit:4;stroke-dasharray:none;stroke-opacity:0.02" />
      <rect
         style="fill:none;fill-opacity:1;stroke:#000000;stroke-width:0.2;stroke-linecap:round;stroke-linejoin:round;stroke-miterlimit:4;stroke-dasharray:none;stroke-opacity:0.02"
         id="rect1638"
         width="29.810888"
         height="29.810888"
         x="69.839508"
         y="40.709618"
         rx="6.6098609"
         ry="6.6098609" />
      <rect
         ry="6.6098609"
         rx="6.6098609"
         y="40.709618"
         x="69.839508"
         height="29.810888"
         width="29.810888"
         id="rect1640"
         style="fill:none;fill-opacity:1;stroke:#000000;stroke-width:0.3;stroke-linecap:round;stroke-linejoin:round;stroke-miterlimit:4;stroke-dasharray:none;stroke-opacity:0.02" />
      <rect
         style="fill:none;fill-opacity:1;stroke:#000000;stroke-width:0.4;stroke-linecap:round;stroke-linejoin:round;stroke-miterlimit:4;stroke-dasharray:none;stroke-opacity:0.02"
         id="rect1642"
         width="29.810888"
         height="29.810888"
         x="69.839508"
         y="40.709618"
         rx="6.6098609"
         ry="6.6098609" />
      <rect
         ry="6.6098609"
         rx="6.6098609"
         y="40.709618"
         x="69.839508"
         height="29.810888"
         width="29.810888"
         id="rect1644"
         style="fill:none;fill-opacity:1;stroke:#000000;stroke-width:0.5;stroke-linecap:round;stroke-linejoin:round;stroke-miterlimit:4;stroke-dasharray:none;stroke-opacity:0.02" />
      <rect
         style="fill:none;fill-opacity:1;stroke:#000000;stroke-width:0.6;stroke-linecap:round;stroke-linejoin:round;stroke-miterlimit:4;stroke-dasharray:none;stroke-opacity:0.02"
         id="rect1646"
         width="29.810888"
         height="29.810888"
         x="69.839508"
         y="40.709618"
         rx="6.6098609"
         ry="6.6098609" />
      <rect
         ry="6.6098609"
         rx="6.6098609"
         y="40.709618"
         x="69.839508"
         height="29.810888"
         width="29.810888"
         id="rect1648"
         style="fill:none;fill-opacity:1;stroke:#000000;stroke-width:0.7;stroke-linecap:round;stroke-linejoin:round;stroke-miterlimit:4;stroke-dasharray:none;stroke-opacity:0.02" />
      <rect
         style="fill:none;fill-opacity:1;stroke:#000000;stroke-width:0.8;stroke-linecap:round;stroke-linejoin:round;stroke-miterlimit:4;stroke-dasharray:none;stroke-opacity:0.02"
         id="rect1650"
         width="29.810888"
         height="29.810888"
         x="69.839508"
         y="40.709618"
         rx="6.6098609"
         ry="6.6098609" />
      <rect
         ry="6.6098609"
         rx="6.6098609"
         y="40.709618"
         x="69.839508"
         height="29.810888"
         width="29.810888"
         id="rect1652"
         style="fill:none;fill-opacity:1;stroke:#000000;stroke-width:1;stroke-linecap:round;stroke-linejoin:round;stroke-miterlimit:4;stroke-dasharray:none;stroke-opacity:0.02" />
      <rect
         style="fill:none;fill-opacity:1;stroke:#000000;stroke-width:1.2;stroke-linecap:round;stroke-linejoin:round;stroke-miterlimit:4;stroke-dasharray:none;stroke-opacity:0.02"
         id="rect1654"
         width="29.810888"
         height="29.810888"
         x="69.839508"
         y="40.709618"
         rx="6.6098609"
         ry="6.6098609" />
      <rect
         ry="6.6098609"
         rx="6.6098609"
         y="40.709618"
         x="69.839508"
         height="29.810888"
         width="29.810888"
         id="rect1656"
         style="fill:none;fill-opacity:1;stroke:#000000;stroke-width:1.4;stroke-linecap:round;stroke-linejoin:round;stroke-miterlimit:4;stroke-dasharray:none;stroke-opacity:0.02" />
      <rect
         style="fill:none;fill-opacity:1;stroke:#000000;stroke-width:1.6;stroke-linecap:round;stroke-linejoin:round;stroke-miterlimit:4;stroke-dasharray:none;stroke-opacity:0.02"
         id="rect1658"
         width="29.810888"
         height="29.810888"
         x="69.839508"
         y="40.709618"
         rx="6.6098609"
         ry="6.6098609" />
      <rect
         ry="6.6098609"
         rx="6.6098609"
         y="40.709618"
         x="69.839508"
         height="29.810888"
         width="29.810888"
         id="rect1660"
         style="fill:none;fill-opacity:1;stroke:#000000;stroke-width:1.8;stroke-linecap:round;stroke-linejoin:round;stroke-miterlimit:4;stroke-dasharray:none;stroke-opacity:0.02" />
      <rect
         style="fill:none;fill-opacity:1;stroke:#000000;stroke-width:2;stroke-linecap:round;stroke-linejoin:round;stroke-miterlimit:4;stroke-dasharray:none;stroke-opacity:0.02"
         id="rect1662"
         width="29.810888"
         height="29.810888"
         x="69.839508"
         y="40.709618"
         rx="6.6098609"
         ry="6.6098609" />
      <rect
         ry="6.6098609"
         rx="6.6098609"
         y="40.709618"
         x="69.839508"
         height="29.810888"
         width="29.810888"
         id="rect1664"
         style="fill:none;fill-opacity:1;stroke:#000000;stroke-width:2.2;stroke-linecap:round;stroke-linejoin:round;stroke-miterlimit:4;stroke-dasharray:none;stroke-opacity:0.02" />
      <rect
         style="fill:none;fill-opacity:1;stroke:#000000;stroke-width:2.6;stroke-linecap:round;stroke-linejoin:round;stroke-miterlimit:4;stroke-dasharray:none;stroke-opacity:0.02"
         id="rect1666"
         width="29.810888"
         height="29.810888"
         x="69.839508"
         y="40.709618"
         rx="6.6098609"
         ry="6.6098609" />
      <rect
         ry="6.6098609"
         rx="6.6098609"
         y="40.709618"
         x="69.839508"
         height="29.810888"
         width="29.810888"
         id="rect1668"
         style="fill:none;fill-opacity:1;stroke:#000000;stroke-width:3;stroke-linecap:round;stroke-linejoin:round;stroke-miterlimit:4;stroke-dasharray:none;stroke-opacity:0.02" />
      <rect
         style="fill:none;fill-opacity:1;stroke:#000000;stroke-width:3.4;stroke-linecap:round;stroke-linejoin:round;stroke-miterlimit:4;stroke-dasharray:none;stroke-opacity:0.02"
         id="rect1670"
         width="29.810888"
         height="29.810888"
         x="69.839508"
         y="40.709618"
         rx="6.6098609"
         ry="6.6098609" />
      <rect
         ry="6.6098609"
         rx="6.6098609"
         y="40.709618"
         x="69.839508"
         height="29.810888"
         width="29.810888"
         id="rect1672"
         style="fill:none;fill-opacity:1;stroke:#000000;stroke-width:3.8;stroke-linecap:round;stroke-linejoin:round;stroke-miterlimit:4;stroke-dasharray:none;stroke-opacity:0.02" />
      <rect
         style="fill:none;fill-opacity:1;stroke:#000000;stroke-width:4.2;stroke-linecap:round;stroke-linejoin:round;stroke-miterlimit:4;stroke-dasharray:none;stroke-opacity:0.02"
         id="rect1674"
         width="29.810888"
         height="29.810888"
         x="69.839508"
         y="40.709618"
         rx="6.6098609"
         ry="6.6098609" />
      <rect
         ry="6.6098609"
         rx="6.6098609"
         y="40.709618"
         x="69.839508"
         height="29.810888"
         width="29.810888"
         id="rect1676"
         style="fill:none;fill-opacity:1;stroke:#000000;stroke-width:4.6;stroke-linecap:round;stroke-linejoin:round;stroke-miterlimit:4;stroke-dasharray:none;stroke-opacity:0.02" />
      <rect
         style="fill:none;fill-opacity:1;stroke:#000000;stroke-width:5;stroke-linecap:round;stroke-linejoin:round;stroke-miterlimit:4;stroke-dasharray:none;stroke-opacity:0.02"
         id="rect1678"
         width="29.810888"
         height="29.810888"
         x="69.839508"
         y="40.709618"
         rx="6.6098609"
         ry="6.6098609" />
    </g>
    <rect
       ry="6.4494534"
       rx="6.4494534"
       y="2.5391712"
       x="2.4074187"
       height="29.087439"
       width="29.087439"
       id="rect849"
       style="fill:url(#radialGradient948);fill-opacity:1;stroke-width:2.68768;stroke-linecap:round;stroke-linejoin:round" />
    <g
       id="g906"
       style="opacity:0.3336644">
      <path
         d="m 16.503128,12.621969 c -2.04385,-0.0044 -3.689072,2.396953 -4.52054,5.011365 -0.94213,2.962326 -2.6347223,4.035023 -4.22046,4.442595 l 10.665245,4.75e-4 0.658665,-1.285138 -2.456091,-0.03064 c -2.160976,-0.184528 -2.591508,-2.316585 -2.465902,-2.995502 0.207729,-1.332219 0.886453,-3.426668 2.338852,-5.143204 z m 0.787332,0 -0.658668,1.285137 2.456093,0.03064 c 2.160974,0.184528 2.591506,2.316581 2.4659,2.995501 -0.20773,1.332218 -0.886279,3.426668 -2.338736,5.143202 2.043849,0.0044 3.689072,-2.396954 4.520539,-5.011366 0.94213,-2.962323 2.634723,-4.034849 4.220402,-4.442419 z"
         fill="#ffffff"
         fill-opacity="0.52107"
         stroke-width="1.048"
         id="path888"
         style="fill:#372a4c;fill-opacity:0.100519" />
      <path
         d="m 16.565665,13.086124 c -2.04385,-0.0044 -3.689072,2.396953 -4.52054,5.011365 -0.94213,2.962326 -2.634722,4.035023 -4.2204597,4.442595 l 10.6652447,4.75e-4 0.658665,-1.285138 -2.456091,-0.03064 c -2.160976,-0.184528 -2.591508,-2.316585 -2.465902,-2.995502 0.207729,-1.332219 0.886453,-3.426668 2.338852,-5.143204 z m 0.787332,0 -0.658668,1.285137 2.456093,0.03064 c 2.160974,0.184528 2.591506,2.316581 2.4659,2.995501 -0.20773,1.332218 -0.886279,3.426668 -2.338736,5.143202 2.043849,0.0044 3.689072,-2.396954 4.520539,-5.011366 0.94213,-2.962323 2.634723,-4.034849 4.220402,-4.442419 z"
         fill="#ffffff"
         fill-opacity="0.52107"
         stroke-width="1.048"
         id="path890"
         style="fill:#372a4c;fill-opacity:0.100519" />
      <path
         d="m 16.660062,13.425786 c -2.04385,-0.0044 -3.689072,2.396953 -4.52054,5.011365 -0.94213,2.962326 -2.6347223,4.035023 -4.22046,4.442595 l 10.665245,4.75e-4 0.658665,-1.285138 -2.456091,-0.03064 c -2.160976,-0.184528 -2.591508,-2.316585 -2.465902,-2.995502 0.207729,-1.332219 0.886453,-3.426668 2.338852,-5.143204 z m 0.787332,0 -0.658668,1.285137 2.456093,0.03064 c 2.160974,0.184528 2.591506,2.316581 2.4659,2.995501 -0.20773,1.332218 -0.886279,3.426668 -2.338736,5.143202 2.043849,0.0044 3.689072,-2.396954 4.520539,-5.011366 0.94213,-2.962323 2.634723,-4.034849 4.220402,-4.442419 z"
         fill="#ffffff"
         fill-opacity="0.52107"
         stroke-width="1.048"
         id="path892"
         style="fill:#372a4c;fill-opacity:0.100519" />
      <path
         d="m 17.06553,13.874951 c -2.04385,-0.0044 -3.689072,2.396953 -4.52054,5.011365 -0.94213,2.962326 -2.6347228,4.035023 -4.2204605,4.442595 l 10.6652455,4.75e-4 0.658665,-1.285138 -2.456091,-0.03064 c -2.160976,-0.184528 -2.591508,-2.316585 -2.465902,-2.995502 0.207729,-1.332219 0.886453,-3.426668 2.338852,-5.143204 z m 0.787332,0 -0.658668,1.285137 2.456093,0.03064 c 2.160974,0.184528 2.591506,2.316581 2.4659,2.995501 -0.20773,1.332218 -0.886279,3.426668 -2.338736,5.143202 2.043849,0.0044 3.689072,-2.396954 4.520539,-5.011366 0.94213,-2.962323 2.634723,-4.034849 4.220402,-4.442419 z"
         fill="#ffffff"
         fill-opacity="0.52107"
         stroke-width="1.048"
         id="path894"
         style="fill:#372a4c;fill-opacity:0.100519" />
      <path
         d="m 17.46035,14.433808 c -2.04385,-0.0044 -3.689072,2.396953 -4.52054,5.011365 -0.94213,2.962326 -2.634723,4.035023 -4.2204604,4.442595 l 10.6652454,4.75e-4 0.658665,-1.285138 -2.456091,-0.03064 c -2.160976,-0.184528 -2.591508,-2.316585 -2.465902,-2.995502 0.207729,-1.332219 0.886453,-3.426668 2.338852,-5.143204 z m 0.787332,0 -0.658668,1.285137 2.456093,0.03064 c 2.160974,0.184528 2.591506,2.316581 2.4659,2.995501 -0.20773,1.332218 -0.886279,3.426668 -2.338736,5.143202 2.043849,0.0044 3.689072,-2.396954 4.520539,-5.011366 0.94213,-2.962323 2.634723,-4.034849 4.220402,-4.442419 z"
         fill="#ffffff"
         fill-opacity="0.52107"
         stroke-width="1.048"
         id="path896"
         style="fill:#372a4c;fill-opacity:0.100519" />
      <path
         d="m 18.118379,14.920577 c -2.04385,-0.0044 -3.689072,2.396953 -4.52054,5.011365 -0.94213,2.962326 -2.634723,4.035023 -4.2204605,4.442595 l 10.6652455,4.75e-4 0.658665,-1.285138 -2.456091,-0.03064 c -2.160976,-0.184528 -2.591508,-2.316585 -2.465902,-2.995502 0.207729,-1.332219 0.886453,-3.426668 2.338852,-5.143204 z m 0.787332,0 -0.658668,1.285137 2.456093,0.03064 c 2.160974,0.184528 2.591506,2.316581 2.4659,2.995501 -0.20773,1.332218 -0.886279,3.426668 -2.338736,5.143202 2.043849,0.0044 3.689072,-2.396954 4.520539,-5.011366 0.94213,-2.962323 2.634723,-4.034849 4.220402,-4.442419 z"
         fill="#ffffff"
         fill-opacity="0.52107"
         stroke-width="1.048"
         id="path898"
         style="fill:#372a4c;fill-opacity:0.100519" />
    </g>
    <path
       d="m 15.595207,12.355672 c -2.04385,-0.0044 -3.689072,2.396953 -4.52054,5.011365 -0.94213,2.962326 -2.6347221,4.035023 -4.2204598,4.442595 l 10.6652448,4.75e-4 0.658665,-1.285138 -2.456091,-0.03064 c -2.160976,-0.184528 -2.591508,-2.316585 -2.465902,-2.995502 0.207729,-1.332219 0.886453,-3.426668 2.338852,-5.143204 z m 0.787332,0 -0.658668,1.285137 2.456093,0.03064 c 2.160974,0.184528 2.591506,2.316581 2.4659,2.995501 -0.20773,1.332218 -0.886279,3.426668 -2.338736,5.143202 2.043849,0.0044 3.689072,-2.396954 4.520539,-5.011366 0.94213,-2.962323 2.634723,-4.034849 4.220402,-4.442419 z"
       fill="#ffffff"
       fill-opacity="0.52107"
       stroke-width="1.048"
       id="path2390"
       style="fill:url(#linearGradient886);fill-opacity:1" />
  </g>
</svg>
