<?xml version="1.0" encoding="UTF-8" standalone="no"?>
<svg
   xmlns:dc="http://purl.org/dc/elements/1.1/"
   xmlns:cc="http://creativecommons.org/ns#"
   xmlns:rdf="http://www.w3.org/1999/02/22-rdf-syntax-ns#"
   xmlns:svg="http://www.w3.org/2000/svg"
   xmlns="http://www.w3.org/2000/svg"
   xmlns:xlink="http://www.w3.org/1999/xlink"
   xmlns:sodipodi="http://sodipodi.sourceforge.net/DTD/sodipodi-0.dtd"
   xmlns:inkscape="http://www.inkscape.org/namespaces/inkscape"
   width="128"
   height="128"
   viewBox="0 0 33.866666 33.866668"
   version="1.1"
   id="svg1443"
   inkscape:version="1.0.2 (e86c870879, 2021-01-15)"
   sodipodi:docname="6180-the-moon.svg">
  <defs
     id="defs1437">
    <linearGradient
       gradientTransform="matrix(0.97573206,0,0,0.97573206,-111.76517,-37.182508)"
       gradientUnits="userSpaceOnUse"
       y2="70.679932"
       x2="132.21078"
       y1="42.151531"
       x1="132.21078"
       id="linearGradient1632"
       xlink:href="#linearGradient1630"
       inkscape:collect="always" />
    <linearGradient
       id="linearGradient1630"
       inkscape:collect="always">
      <stop
         id="stop1626"
         offset="0"
         style="stop-color:#fafafc;stop-opacity:1" />
      <stop
         id="stop1628"
         offset="1"
         style="stop-color:#e2e6ea;stop-opacity:1" />
    </linearGradient>
    <filter
       color-interpolation-filters="sRGB"
       height="1.1311001"
       width="1.1106"
       y="-0.065563001"
       x="-0.055319"
       id="c-9">
      <feGaussianBlur
         id="feGaussianBlur1093"
         stdDeviation="1.1062912" />
    </filter>
    <linearGradient
       gradientUnits="userSpaceOnUse"
       gradientTransform="matrix(0.13235,0,0,0.13075,-32.379,1.0873)"
       y2="269.48999"
       y1="235.14999"
       x2="657.65002"
       x1="319.20999"
       id="a-12">
      <stop
         id="stop1076"
         offset="0"
         stop-color="#e54c18" />
      <stop
         id="stop1078"
         offset="1"
         stop-color="#fec350" />
    </linearGradient>
  </defs>
  <sodipodi:namedview
     id="base"
     pagecolor="#ffffff"
     bordercolor="#666666"
     borderopacity="1.0"
     inkscape:pageopacity="0.0"
     inkscape:pageshadow="2"
     inkscape:zoom="3.959798"
     inkscape:cx="73.635725"
     inkscape:cy="90.726141"
     inkscape:document-units="mm"
     inkscape:current-layer="layer1"
     inkscape:document-rotation="0"
     showgrid="false"
     units="px"
     inkscape:window-width="1507"
     inkscape:window-height="1026"
     inkscape:window-x="409"
     inkscape:window-y="24"
     inkscape:window-maximized="0" />
  <metadata
     id="metadata1440">
    <rdf:RDF>
      <cc:Work
         rdf:about="">
        <dc:format>image/svg+xml</dc:format>
        <dc:type
           rdf:resource="http://purl.org/dc/dcmitype/StillImage" />
        <dc:title />
      </cc:Work>
    </rdf:RDF>
  </metadata>
  <g
     inkscape:label="Capa 1"
     inkscape:groupmode="layer"
     id="layer1">
    <g
       style="opacity:0.295"
       transform="matrix(0.97573206,0,0,0.97573206,-65.737228,-37.182508)"
       id="g1702">
      <rect
         ry="6.6098609"
         rx="6.6098609"
         y="40.709618"
         x="69.839508"
         height="29.810888"
         width="29.810888"
         id="rect1634"
         style="fill:none;fill-opacity:1;stroke:#000000;stroke-width:0.1;stroke-linecap:round;stroke-linejoin:round;stroke-miterlimit:4;stroke-dasharray:none;stroke-opacity:0.02" />
      <rect
         style="fill:none;fill-opacity:1;stroke:#000000;stroke-width:0.2;stroke-linecap:round;stroke-linejoin:round;stroke-miterlimit:4;stroke-dasharray:none;stroke-opacity:0.02"
         id="rect1638"
         width="29.810888"
         height="29.810888"
         x="69.839508"
         y="40.709618"
         rx="6.6098609"
         ry="6.6098609" />
      <rect
         ry="6.6098609"
         rx="6.6098609"
         y="40.709618"
         x="69.839508"
         height="29.810888"
         width="29.810888"
         id="rect1640"
         style="fill:none;fill-opacity:1;stroke:#000000;stroke-width:0.3;stroke-linecap:round;stroke-linejoin:round;stroke-miterlimit:4;stroke-dasharray:none;stroke-opacity:0.02" />
      <rect
         style="fill:none;fill-opacity:1;stroke:#000000;stroke-width:0.4;stroke-linecap:round;stroke-linejoin:round;stroke-miterlimit:4;stroke-dasharray:none;stroke-opacity:0.02"
         id="rect1642"
         width="29.810888"
         height="29.810888"
         x="69.839508"
         y="40.709618"
         rx="6.6098609"
         ry="6.6098609" />
      <rect
         ry="6.6098609"
         rx="6.6098609"
         y="40.709618"
         x="69.839508"
         height="29.810888"
         width="29.810888"
         id="rect1644"
         style="fill:none;fill-opacity:1;stroke:#000000;stroke-width:0.5;stroke-linecap:round;stroke-linejoin:round;stroke-miterlimit:4;stroke-dasharray:none;stroke-opacity:0.02" />
      <rect
         style="fill:none;fill-opacity:1;stroke:#000000;stroke-width:0.6;stroke-linecap:round;stroke-linejoin:round;stroke-miterlimit:4;stroke-dasharray:none;stroke-opacity:0.02"
         id="rect1646"
         width="29.810888"
         height="29.810888"
         x="69.839508"
         y="40.709618"
         rx="6.6098609"
         ry="6.6098609" />
      <rect
         ry="6.6098609"
         rx="6.6098609"
         y="40.709618"
         x="69.839508"
         height="29.810888"
         width="29.810888"
         id="rect1648"
         style="fill:none;fill-opacity:1;stroke:#000000;stroke-width:0.7;stroke-linecap:round;stroke-linejoin:round;stroke-miterlimit:4;stroke-dasharray:none;stroke-opacity:0.02" />
      <rect
         style="fill:none;fill-opacity:1;stroke:#000000;stroke-width:0.8;stroke-linecap:round;stroke-linejoin:round;stroke-miterlimit:4;stroke-dasharray:none;stroke-opacity:0.02"
         id="rect1650"
         width="29.810888"
         height="29.810888"
         x="69.839508"
         y="40.709618"
         rx="6.6098609"
         ry="6.6098609" />
      <rect
         ry="6.6098609"
         rx="6.6098609"
         y="40.709618"
         x="69.839508"
         height="29.810888"
         width="29.810888"
         id="rect1652"
         style="fill:none;fill-opacity:1;stroke:#000000;stroke-width:1;stroke-linecap:round;stroke-linejoin:round;stroke-miterlimit:4;stroke-dasharray:none;stroke-opacity:0.02" />
      <rect
         style="fill:none;fill-opacity:1;stroke:#000000;stroke-width:1.2;stroke-linecap:round;stroke-linejoin:round;stroke-miterlimit:4;stroke-dasharray:none;stroke-opacity:0.02"
         id="rect1654"
         width="29.810888"
         height="29.810888"
         x="69.839508"
         y="40.709618"
         rx="6.6098609"
         ry="6.6098609" />
      <rect
         ry="6.6098609"
         rx="6.6098609"
         y="40.709618"
         x="69.839508"
         height="29.810888"
         width="29.810888"
         id="rect1656"
         style="fill:none;fill-opacity:1;stroke:#000000;stroke-width:1.4;stroke-linecap:round;stroke-linejoin:round;stroke-miterlimit:4;stroke-dasharray:none;stroke-opacity:0.02" />
      <rect
         style="fill:none;fill-opacity:1;stroke:#000000;stroke-width:1.6;stroke-linecap:round;stroke-linejoin:round;stroke-miterlimit:4;stroke-dasharray:none;stroke-opacity:0.02"
         id="rect1658"
         width="29.810888"
         height="29.810888"
         x="69.839508"
         y="40.709618"
         rx="6.6098609"
         ry="6.6098609" />
      <rect
         ry="6.6098609"
         rx="6.6098609"
         y="40.709618"
         x="69.839508"
         height="29.810888"
         width="29.810888"
         id="rect1660"
         style="fill:none;fill-opacity:1;stroke:#000000;stroke-width:1.8;stroke-linecap:round;stroke-linejoin:round;stroke-miterlimit:4;stroke-dasharray:none;stroke-opacity:0.02" />
      <rect
         style="fill:none;fill-opacity:1;stroke:#000000;stroke-width:2;stroke-linecap:round;stroke-linejoin:round;stroke-miterlimit:4;stroke-dasharray:none;stroke-opacity:0.02"
         id="rect1662"
         width="29.810888"
         height="29.810888"
         x="69.839508"
         y="40.709618"
         rx="6.6098609"
         ry="6.6098609" />
      <rect
         ry="6.6098609"
         rx="6.6098609"
         y="40.709618"
         x="69.839508"
         height="29.810888"
         width="29.810888"
         id="rect1664"
         style="fill:none;fill-opacity:1;stroke:#000000;stroke-width:2.2;stroke-linecap:round;stroke-linejoin:round;stroke-miterlimit:4;stroke-dasharray:none;stroke-opacity:0.02" />
      <rect
         style="fill:none;fill-opacity:1;stroke:#000000;stroke-width:2.6;stroke-linecap:round;stroke-linejoin:round;stroke-miterlimit:4;stroke-dasharray:none;stroke-opacity:0.02"
         id="rect1666"
         width="29.810888"
         height="29.810888"
         x="69.839508"
         y="40.709618"
         rx="6.6098609"
         ry="6.6098609" />
      <rect
         ry="6.6098609"
         rx="6.6098609"
         y="40.709618"
         x="69.839508"
         height="29.810888"
         width="29.810888"
         id="rect1668"
         style="fill:none;fill-opacity:1;stroke:#000000;stroke-width:3;stroke-linecap:round;stroke-linejoin:round;stroke-miterlimit:4;stroke-dasharray:none;stroke-opacity:0.02" />
      <rect
         style="fill:none;fill-opacity:1;stroke:#000000;stroke-width:3.4;stroke-linecap:round;stroke-linejoin:round;stroke-miterlimit:4;stroke-dasharray:none;stroke-opacity:0.02"
         id="rect1670"
         width="29.810888"
         height="29.810888"
         x="69.839508"
         y="40.709618"
         rx="6.6098609"
         ry="6.6098609" />
      <rect
         ry="6.6098609"
         rx="6.6098609"
         y="40.709618"
         x="69.839508"
         height="29.810888"
         width="29.810888"
         id="rect1672"
         style="fill:none;fill-opacity:1;stroke:#000000;stroke-width:3.8;stroke-linecap:round;stroke-linejoin:round;stroke-miterlimit:4;stroke-dasharray:none;stroke-opacity:0.02" />
      <rect
         style="fill:none;fill-opacity:1;stroke:#000000;stroke-width:4.2;stroke-linecap:round;stroke-linejoin:round;stroke-miterlimit:4;stroke-dasharray:none;stroke-opacity:0.02"
         id="rect1674"
         width="29.810888"
         height="29.810888"
         x="69.839508"
         y="40.709618"
         rx="6.6098609"
         ry="6.6098609" />
      <rect
         ry="6.6098609"
         rx="6.6098609"
         y="40.709618"
         x="69.839508"
         height="29.810888"
         width="29.810888"
         id="rect1676"
         style="fill:none;fill-opacity:1;stroke:#000000;stroke-width:4.6;stroke-linecap:round;stroke-linejoin:round;stroke-miterlimit:4;stroke-dasharray:none;stroke-opacity:0.02" />
      <rect
         style="fill:none;fill-opacity:1;stroke:#000000;stroke-width:5;stroke-linecap:round;stroke-linejoin:round;stroke-miterlimit:4;stroke-dasharray:none;stroke-opacity:0.02"
         id="rect1678"
         width="29.810888"
         height="29.810888"
         x="69.839508"
         y="40.709618"
         rx="6.6098609"
         ry="6.6098609" />
    </g>
    <rect
       ry="6.4494534"
       rx="6.4494534"
       y="2.5391712"
       x="2.4074187"
       height="29.087439"
       width="29.087439"
       id="rect849"
       style="fill:url(#linearGradient1632);fill-opacity:1;stroke-width:2.68768;stroke-linecap:round;stroke-linejoin:round" />
    <path
       id="path865"
       style="font-style:normal;font-variant:normal;font-weight:normal;font-stretch:normal;font-size:15.3564px;line-height:1.25;font-family:HipsterScriptW00-Regular;-inkscape-font-specification:HipsterScriptW00-Regular;fill:#333333;stroke-width:0.290199"
       d="M 56.599609 49.089844 C 55.013185 49.089844 53.426268 49.535836 51.839844 50.425781 C 50.253417 51.315726 48.8218 52.611947 47.544922 54.314453 C 46.268044 56.016956 45.222717 58.125561 44.410156 60.640625 C 43.597598 63.116997 43.191406 65.940431 43.191406 69.113281 C 43.191406 70.970559 43.462199 72.615223 44.003906 74.046875 C 44.584306 75.439832 45.338941 76.620558 46.267578 77.587891 C 47.196218 78.516531 48.261446 79.213417 49.460938 79.677734 C 50.660431 80.180749 51.89695 80.431641 53.173828 80.431641 C 54.72156 80.431641 56.250729 80.083197 57.759766 79.386719 C 59.307497 78.690237 60.681366 77.644911 61.880859 76.251953 C 63.119045 74.858996 64.104673 73.098834 64.839844 70.970703 C 65.61371 68.842572 66.001953 66.327778 66.001953 63.425781 C 66.001953 60.988102 65.731158 58.8795 65.189453 57.099609 C 64.686438 55.281024 63.989555 53.791658 63.099609 52.630859 C 62.248356 51.431368 61.260776 50.541337 60.138672 49.960938 C 59.016565 49.380538 57.837795 49.089844 56.599609 49.089844 z M 98.619141 49.089844 C 97.032717 49.089844 95.447752 49.535836 93.861328 50.425781 C 92.274902 51.315726 90.843284 52.611947 89.566406 54.314453 C 88.289528 56.016956 87.244199 58.125561 86.431641 60.640625 C 85.61908 63.116997 85.212891 65.940431 85.212891 69.113281 C 85.212891 70.970559 85.483684 72.615223 86.025391 74.046875 C 86.60579 75.439832 87.360425 76.620558 88.289062 77.587891 C 89.217703 78.516531 90.280978 79.213417 91.480469 79.677734 C 92.679962 80.180749 93.918434 80.431641 95.195312 80.431641 C 96.743044 80.431641 98.272213 80.083197 99.78125 79.386719 C 101.32898 78.690237 102.70285 77.644911 103.90234 76.251953 C 105.14053 74.858996 106.12616 73.098834 106.86133 70.970703 C 107.63519 68.842572 108.02148 66.327778 108.02148 63.425781 C 108.02148 60.988102 107.75069 58.8795 107.20898 57.099609 C 106.70597 55.281024 106.01104 53.791658 105.12109 52.630859 C 104.26984 51.431368 103.28226 50.541337 102.16016 49.960938 C 101.03805 49.380538 99.857326 49.089844 98.619141 49.089844 z M 37.736328 49.554688 C 35.453424 49.554688 33.30502 50.173924 31.292969 51.412109 C 29.280918 52.6116 27.500857 54.178617 25.953125 56.113281 C 24.444087 58.009254 23.245414 60.137757 22.355469 62.498047 C 21.465523 64.858339 21.021484 67.160086 21.021484 69.404297 C 21.021484 71.377654 21.350027 73.099968 22.007812 74.570312 C 22.665598 76.04066 23.515828 77.25923 24.560547 78.226562 C 25.605266 79.193892 26.785979 79.908689 28.101562 80.373047 C 29.417134 80.837367 30.751204 81.070312 32.105469 81.070312 C 33.6532 81.070312 35.046971 80.759717 36.285156 80.140625 C 37.523342 79.521531 38.548767 78.729051 39.361328 77.761719 C 40.212579 76.755694 40.851716 75.652616 41.277344 74.453125 C 41.741664 73.214939 41.972656 71.976467 41.972656 70.738281 C 41.972656 69.693562 41.799413 68.688035 41.451172 67.720703 C 41.141626 66.753371 40.637885 65.90314 39.941406 65.167969 C 39.244925 64.432795 38.354897 63.851406 37.271484 63.425781 C 36.226766 62.961461 34.988292 62.730469 33.556641 62.730469 C 32.898855 62.730469 32.261671 62.806178 31.642578 62.960938 C 31.062179 63.077024 30.520591 63.23232 30.017578 63.425781 C 29.553259 63.619253 29.147068 63.812398 28.798828 64.005859 C 28.45059 64.160629 28.197743 64.296027 28.042969 64.412109 C 27.694729 64.682953 27.463736 64.895997 27.347656 65.050781 C 27.231577 65.205553 27.134028 65.553996 27.056641 66.095703 C 26.979254 66.405246 26.941406 66.676039 26.941406 66.908203 L 26.941406 67.373047 L 26.941406 67.605469 C 27.057487 67.450692 27.230732 67.275493 27.462891 67.082031 C 27.656357 66.888567 27.907251 66.675523 28.216797 66.443359 C 28.526343 66.211201 28.952435 65.940405 29.494141 65.630859 C 29.997153 65.360008 30.500893 65.166863 31.003906 65.050781 C 31.545612 64.934699 32.0474 64.876953 32.511719 64.876953 C 33.362971 64.876953 34.099657 65.09 34.71875 65.515625 C 35.337843 65.902558 35.83963 66.444146 36.226562 67.140625 C 36.652189 67.798411 36.962784 68.553044 37.15625 69.404297 C 37.388409 70.25555 37.503906 71.12568 37.503906 72.015625 C 37.503906 72.90557 37.406357 73.7757 37.212891 74.626953 C 37.019424 75.439511 36.710782 76.176198 36.285156 76.833984 C 35.898223 77.453076 35.414384 77.954864 34.833984 78.341797 C 34.253585 78.767425 33.5567 78.980469 32.744141 78.980469 C 31.622035 78.980469 30.636409 78.651927 29.785156 77.994141 C 28.933904 77.336354 28.237019 76.523973 27.695312 75.556641 C 27.153606 74.550616 26.747416 73.485388 26.476562 72.363281 C 26.205709 71.202483 26.070312 70.139207 26.070312 69.171875 C 26.070312 67.35329 26.321206 65.457732 26.824219 63.484375 C 27.327232 61.472323 28.081865 59.594714 29.087891 57.853516 C 30.093916 56.073625 31.35229 54.546409 32.861328 53.269531 C 34.370366 51.992653 36.130527 51.180272 38.142578 50.832031 C 38.297337 50.793354 38.394891 50.753546 38.433594 50.714844 C 38.510998 50.676141 38.586683 50.65625 38.664062 50.65625 L 38.78125 50.65625 C 38.78125 50.617548 38.801141 50.559801 38.839844 50.482422 C 38.917223 50.327638 38.955078 50.212145 38.955078 50.134766 C 38.955078 49.979994 38.877441 49.844598 38.722656 49.728516 C 38.567885 49.612434 38.239342 49.554687 37.736328 49.554688 z M 77.318359 49.554688 C 76.428414 49.554687 75.520434 49.747833 74.591797 50.134766 C 73.663157 50.521699 72.830877 51.063287 72.095703 51.759766 C 71.360532 52.456247 70.761195 53.268628 70.296875 54.197266 C 69.832555 55.125906 69.599609 56.113486 69.599609 57.158203 C 69.599609 58.62855 69.870402 59.884971 70.412109 60.929688 C 70.992509 61.935715 71.709294 62.883492 72.560547 63.773438 C 70.819349 65.243782 69.36783 66.772949 68.207031 68.359375 C 67.084925 69.945799 66.523438 71.628313 66.523438 73.408203 C 66.523438 74.685084 66.736484 75.808058 67.162109 76.775391 C 67.587737 77.704028 68.149224 78.458663 68.845703 79.039062 C 69.542182 79.658154 70.354563 80.102193 71.283203 80.373047 C 72.211841 80.682593 73.17952 80.837891 74.185547 80.837891 C 75.385038 80.837891 76.58371 80.644745 77.783203 80.257812 C 78.982694 79.87088 80.065871 79.289488 81.033203 78.515625 C 82.000535 77.780451 82.775069 76.872474 83.355469 75.789062 C 83.97456 74.705651 84.283203 73.487078 84.283203 72.132812 C 84.283203 70.894627 83.994462 69.809499 83.414062 68.880859 C 82.833663 67.952222 82.096976 67.139841 81.207031 66.443359 C 80.355778 65.708188 79.407998 65.031204 78.363281 64.412109 C 77.357254 63.793018 76.409476 63.193681 75.519531 62.613281 C 74.668278 61.99419 73.953446 61.337106 73.373047 60.640625 C 72.792648 59.944146 72.501953 59.149711 72.501953 58.259766 C 72.501953 57.601979 72.63735 56.982743 72.908203 56.402344 C 73.217749 55.783252 73.604039 55.261565 74.068359 54.835938 C 74.571372 54.37162 75.11296 54.003275 75.693359 53.732422 C 76.312454 53.461568 76.951591 53.326172 77.609375 53.326172 C 78.267161 53.326172 78.7311 53.48147 79.001953 53.791016 C 79.272807 54.061869 79.408203 54.410312 79.408203 54.835938 C 79.408203 55.261565 79.312602 55.725503 79.119141 56.228516 C 78.925674 56.692836 78.692729 57.138828 78.421875 57.564453 C 78.189716 57.951386 77.938822 58.299829 77.667969 58.609375 C 77.397125 58.880229 77.184081 59.015625 77.029297 59.015625 C 76.913215 59.015625 76.855469 59.073371 76.855469 59.189453 C 76.855469 59.266833 76.933106 59.382325 77.087891 59.537109 C 77.242662 59.691886 77.453756 59.867085 77.724609 60.060547 C 77.995463 60.215311 78.286157 60.368653 78.595703 60.523438 C 78.905249 60.639519 79.215842 60.697266 79.525391 60.697266 C 80.221869 60.697266 80.841108 60.561869 81.382812 60.291016 C 81.963212 59.98147 82.42715 59.575278 82.775391 59.072266 C 83.162329 58.569251 83.453023 58.009717 83.646484 57.390625 C 83.878648 56.732839 83.994141 56.073802 83.994141 55.416016 C 83.994141 54.680845 83.858742 53.96601 83.587891 53.269531 C 83.355729 52.573053 82.969439 51.953816 82.427734 51.412109 C 81.886027 50.870402 81.189144 50.42441 80.337891 50.076172 C 79.525333 49.727931 78.517853 49.554688 77.318359 49.554688 z M 54.857422 51.412109 C 55.631288 51.412109 56.38592 51.702804 57.121094 52.283203 C 57.856267 52.863602 58.515304 53.733733 59.095703 54.894531 C 59.676102 56.016635 60.140043 57.428354 60.488281 59.130859 C 60.836522 60.833365 61.009766 62.826472 61.009766 65.109375 C 61.009766 67.353585 60.81662 69.30689 60.429688 70.970703 C 60.042755 72.634514 59.539016 74.028287 58.919922 75.150391 C 58.30083 76.233805 57.585996 77.046186 56.773438 77.587891 C 55.999572 78.129598 55.207092 78.400391 54.394531 78.400391 C 53.620665 78.400391 52.86603 78.167445 52.130859 77.703125 C 51.395686 77.200113 50.736649 76.465379 50.15625 75.498047 C 49.575851 74.530715 49.111913 73.332043 48.763672 71.900391 C 48.415434 70.430046 48.242188 68.745582 48.242188 66.849609 C 48.242188 64.257158 48.435333 61.995211 48.822266 60.060547 C 49.209199 58.125882 49.710986 56.519066 50.330078 55.242188 C 50.949172 53.965309 51.646056 53.017529 52.419922 52.398438 C 53.23248 51.740651 54.044864 51.412109 54.857422 51.412109 z M 96.878906 51.412109 C 97.652772 51.412109 98.407405 51.702804 99.142578 52.283203 C 99.877752 52.863602 100.53484 53.733733 101.11523 54.894531 C 101.69563 56.016635 102.15957 57.428354 102.50781 59.130859 C 102.85605 60.833365 103.03125 62.826472 103.03125 65.109375 C 103.03125 67.353585 102.8381 69.30689 102.45117 70.970703 C 102.06424 72.634514 101.5605 74.028287 100.94141 75.150391 C 100.32231 76.233805 99.60748 77.046186 98.794922 77.587891 C 98.021056 78.129598 97.226623 78.400391 96.414062 78.400391 C 95.640197 78.400391 94.885562 78.167445 94.150391 77.703125 C 93.415217 77.200113 92.758134 76.465379 92.177734 75.498047 C 91.597335 74.530715 91.133397 73.332043 90.785156 71.900391 C 90.436918 70.430046 90.261719 68.745582 90.261719 66.849609 C 90.261719 64.257158 90.454864 61.995211 90.841797 60.060547 C 91.22873 58.125882 91.732471 56.519066 92.351562 55.242188 C 92.970657 53.965309 93.66754 53.017529 94.441406 52.398438 C 95.253964 51.740651 96.066348 51.412109 96.878906 51.412109 z M 73.373047 64.585938 C 74.030833 65.243721 74.687917 65.882859 75.345703 66.501953 C 76.00349 67.121045 76.602827 67.79803 77.144531 68.533203 C 77.686238 69.229682 78.132231 70.022164 78.480469 70.912109 C 78.828709 71.763362 79.001953 72.731041 79.001953 73.814453 C 79.001953 74.627014 78.866557 75.323898 78.595703 75.904297 C 78.363544 76.446001 78.035003 76.909942 77.609375 77.296875 C 77.18375 77.683813 76.680009 77.974507 76.099609 78.167969 C 75.557902 78.322753 74.978467 78.400391 74.359375 78.400391 C 73.662896 78.400391 72.946111 78.284898 72.210938 78.052734 C 71.514459 77.820576 70.877274 77.490078 70.296875 77.064453 C 69.755168 76.638825 69.309176 76.117139 68.960938 75.498047 C 68.612697 74.84026 68.439453 74.125428 68.439453 73.351562 C 68.439453 71.997297 68.903391 70.56568 69.832031 69.056641 C 70.799364 67.508909 71.980089 66.017587 73.373047 64.585938 z "
       transform="scale(0.26458333)" />
  </g>
</svg>
