<?xml version="1.0" encoding="UTF-8" standalone="no"?>
<svg
   xmlns:dc="http://purl.org/dc/elements/1.1/"
   xmlns:cc="http://creativecommons.org/ns#"
   xmlns:rdf="http://www.w3.org/1999/02/22-rdf-syntax-ns#"
   xmlns:svg="http://www.w3.org/2000/svg"
   xmlns="http://www.w3.org/2000/svg"
   xmlns:xlink="http://www.w3.org/1999/xlink"
   xmlns:sodipodi="http://sodipodi.sourceforge.net/DTD/sodipodi-0.dtd"
   xmlns:inkscape="http://www.inkscape.org/namespaces/inkscape"
   width="128"
   height="128"
   viewBox="0 0 33.866666 33.866668"
   version="1.1"
   id="svg1443"
   inkscape:version="1.0.2 (e86c870879, 2021-01-15)"
   sodipodi:docname="7kaa.svg">
  <defs
     id="defs1437">
    <linearGradient
       gradientTransform="matrix(0.97573206,0,0,0.97573206,-111.76517,-37.182508)"
       gradientUnits="userSpaceOnUse"
       y2="70.679932"
       x2="132.21078"
       y1="42.151531"
       x1="132.21078"
       id="linearGradient1632"
       xlink:href="#linearGradient1630"
       inkscape:collect="always" />
    <linearGradient
       id="linearGradient1630"
       inkscape:collect="always">
      <stop
         id="stop1626"
         offset="0"
         style="stop-color:#fafafc;stop-opacity:1" />
      <stop
         id="stop1628"
         offset="1"
         style="stop-color:#e2e6ea;stop-opacity:1" />
    </linearGradient>
    <filter
       color-interpolation-filters="sRGB"
       height="1.1311001"
       width="1.1106"
       y="-0.065563001"
       x="-0.055319"
       id="c-9">
      <feGaussianBlur
         id="feGaussianBlur1093"
         stdDeviation="1.1062912" />
    </filter>
    <linearGradient
       gradientUnits="userSpaceOnUse"
       gradientTransform="matrix(0.13235,0,0,0.13075,-32.379,1.0873)"
       y2="269.48999"
       y1="235.14999"
       x2="657.65002"
       x1="319.20999"
       id="a-12">
      <stop
         id="stop1076"
         offset="0"
         stop-color="#e54c18" />
      <stop
         id="stop1078"
         offset="1"
         stop-color="#fec350" />
    </linearGradient>
  </defs>
  <sodipodi:namedview
     id="base"
     pagecolor="#ffffff"
     bordercolor="#666666"
     borderopacity="1.0"
     inkscape:pageopacity="0.0"
     inkscape:pageshadow="2"
     inkscape:zoom="2.8"
     inkscape:cx="92.928731"
     inkscape:cy="116.79294"
     inkscape:document-units="mm"
     inkscape:current-layer="layer1"
     inkscape:document-rotation="0"
     showgrid="false"
     units="px"
     inkscape:window-width="1507"
     inkscape:window-height="1056"
     inkscape:window-x="409"
     inkscape:window-y="24"
     inkscape:window-maximized="0" />
  <metadata
     id="metadata1440">
    <rdf:RDF>
      <cc:Work
         rdf:about="">
        <dc:format>image/svg+xml</dc:format>
        <dc:type
           rdf:resource="http://purl.org/dc/dcmitype/StillImage" />
        <dc:title></dc:title>
      </cc:Work>
    </rdf:RDF>
  </metadata>
  <g
     inkscape:label="Capa 1"
     inkscape:groupmode="layer"
     id="layer1">
    <g
       style="opacity:0.295"
       transform="matrix(0.97573206,0,0,0.97573206,-65.737228,-37.182508)"
       id="g1702">
      <rect
         ry="6.6098609"
         rx="6.6098609"
         y="40.709618"
         x="69.839508"
         height="29.810888"
         width="29.810888"
         id="rect1634"
         style="fill:none;fill-opacity:1;stroke:#000000;stroke-width:0.1;stroke-linecap:round;stroke-linejoin:round;stroke-miterlimit:4;stroke-dasharray:none;stroke-opacity:0.02" />
      <rect
         style="fill:none;fill-opacity:1;stroke:#000000;stroke-width:0.2;stroke-linecap:round;stroke-linejoin:round;stroke-miterlimit:4;stroke-dasharray:none;stroke-opacity:0.02"
         id="rect1638"
         width="29.810888"
         height="29.810888"
         x="69.839508"
         y="40.709618"
         rx="6.6098609"
         ry="6.6098609" />
      <rect
         ry="6.6098609"
         rx="6.6098609"
         y="40.709618"
         x="69.839508"
         height="29.810888"
         width="29.810888"
         id="rect1640"
         style="fill:none;fill-opacity:1;stroke:#000000;stroke-width:0.3;stroke-linecap:round;stroke-linejoin:round;stroke-miterlimit:4;stroke-dasharray:none;stroke-opacity:0.02" />
      <rect
         style="fill:none;fill-opacity:1;stroke:#000000;stroke-width:0.4;stroke-linecap:round;stroke-linejoin:round;stroke-miterlimit:4;stroke-dasharray:none;stroke-opacity:0.02"
         id="rect1642"
         width="29.810888"
         height="29.810888"
         x="69.839508"
         y="40.709618"
         rx="6.6098609"
         ry="6.6098609" />
      <rect
         ry="6.6098609"
         rx="6.6098609"
         y="40.709618"
         x="69.839508"
         height="29.810888"
         width="29.810888"
         id="rect1644"
         style="fill:none;fill-opacity:1;stroke:#000000;stroke-width:0.5;stroke-linecap:round;stroke-linejoin:round;stroke-miterlimit:4;stroke-dasharray:none;stroke-opacity:0.02" />
      <rect
         style="fill:none;fill-opacity:1;stroke:#000000;stroke-width:0.6;stroke-linecap:round;stroke-linejoin:round;stroke-miterlimit:4;stroke-dasharray:none;stroke-opacity:0.02"
         id="rect1646"
         width="29.810888"
         height="29.810888"
         x="69.839508"
         y="40.709618"
         rx="6.6098609"
         ry="6.6098609" />
      <rect
         ry="6.6098609"
         rx="6.6098609"
         y="40.709618"
         x="69.839508"
         height="29.810888"
         width="29.810888"
         id="rect1648"
         style="fill:none;fill-opacity:1;stroke:#000000;stroke-width:0.7;stroke-linecap:round;stroke-linejoin:round;stroke-miterlimit:4;stroke-dasharray:none;stroke-opacity:0.02" />
      <rect
         style="fill:none;fill-opacity:1;stroke:#000000;stroke-width:0.8;stroke-linecap:round;stroke-linejoin:round;stroke-miterlimit:4;stroke-dasharray:none;stroke-opacity:0.02"
         id="rect1650"
         width="29.810888"
         height="29.810888"
         x="69.839508"
         y="40.709618"
         rx="6.6098609"
         ry="6.6098609" />
      <rect
         ry="6.6098609"
         rx="6.6098609"
         y="40.709618"
         x="69.839508"
         height="29.810888"
         width="29.810888"
         id="rect1652"
         style="fill:none;fill-opacity:1;stroke:#000000;stroke-width:1;stroke-linecap:round;stroke-linejoin:round;stroke-miterlimit:4;stroke-dasharray:none;stroke-opacity:0.02" />
      <rect
         style="fill:none;fill-opacity:1;stroke:#000000;stroke-width:1.2;stroke-linecap:round;stroke-linejoin:round;stroke-miterlimit:4;stroke-dasharray:none;stroke-opacity:0.02"
         id="rect1654"
         width="29.810888"
         height="29.810888"
         x="69.839508"
         y="40.709618"
         rx="6.6098609"
         ry="6.6098609" />
      <rect
         ry="6.6098609"
         rx="6.6098609"
         y="40.709618"
         x="69.839508"
         height="29.810888"
         width="29.810888"
         id="rect1656"
         style="fill:none;fill-opacity:1;stroke:#000000;stroke-width:1.4;stroke-linecap:round;stroke-linejoin:round;stroke-miterlimit:4;stroke-dasharray:none;stroke-opacity:0.02" />
      <rect
         style="fill:none;fill-opacity:1;stroke:#000000;stroke-width:1.6;stroke-linecap:round;stroke-linejoin:round;stroke-miterlimit:4;stroke-dasharray:none;stroke-opacity:0.02"
         id="rect1658"
         width="29.810888"
         height="29.810888"
         x="69.839508"
         y="40.709618"
         rx="6.6098609"
         ry="6.6098609" />
      <rect
         ry="6.6098609"
         rx="6.6098609"
         y="40.709618"
         x="69.839508"
         height="29.810888"
         width="29.810888"
         id="rect1660"
         style="fill:none;fill-opacity:1;stroke:#000000;stroke-width:1.8;stroke-linecap:round;stroke-linejoin:round;stroke-miterlimit:4;stroke-dasharray:none;stroke-opacity:0.02" />
      <rect
         style="fill:none;fill-opacity:1;stroke:#000000;stroke-width:2;stroke-linecap:round;stroke-linejoin:round;stroke-miterlimit:4;stroke-dasharray:none;stroke-opacity:0.02"
         id="rect1662"
         width="29.810888"
         height="29.810888"
         x="69.839508"
         y="40.709618"
         rx="6.6098609"
         ry="6.6098609" />
      <rect
         ry="6.6098609"
         rx="6.6098609"
         y="40.709618"
         x="69.839508"
         height="29.810888"
         width="29.810888"
         id="rect1664"
         style="fill:none;fill-opacity:1;stroke:#000000;stroke-width:2.2;stroke-linecap:round;stroke-linejoin:round;stroke-miterlimit:4;stroke-dasharray:none;stroke-opacity:0.02" />
      <rect
         style="fill:none;fill-opacity:1;stroke:#000000;stroke-width:2.6;stroke-linecap:round;stroke-linejoin:round;stroke-miterlimit:4;stroke-dasharray:none;stroke-opacity:0.02"
         id="rect1666"
         width="29.810888"
         height="29.810888"
         x="69.839508"
         y="40.709618"
         rx="6.6098609"
         ry="6.6098609" />
      <rect
         ry="6.6098609"
         rx="6.6098609"
         y="40.709618"
         x="69.839508"
         height="29.810888"
         width="29.810888"
         id="rect1668"
         style="fill:none;fill-opacity:1;stroke:#000000;stroke-width:3;stroke-linecap:round;stroke-linejoin:round;stroke-miterlimit:4;stroke-dasharray:none;stroke-opacity:0.02" />
      <rect
         style="fill:none;fill-opacity:1;stroke:#000000;stroke-width:3.4;stroke-linecap:round;stroke-linejoin:round;stroke-miterlimit:4;stroke-dasharray:none;stroke-opacity:0.02"
         id="rect1670"
         width="29.810888"
         height="29.810888"
         x="69.839508"
         y="40.709618"
         rx="6.6098609"
         ry="6.6098609" />
      <rect
         ry="6.6098609"
         rx="6.6098609"
         y="40.709618"
         x="69.839508"
         height="29.810888"
         width="29.810888"
         id="rect1672"
         style="fill:none;fill-opacity:1;stroke:#000000;stroke-width:3.8;stroke-linecap:round;stroke-linejoin:round;stroke-miterlimit:4;stroke-dasharray:none;stroke-opacity:0.02" />
      <rect
         style="fill:none;fill-opacity:1;stroke:#000000;stroke-width:4.2;stroke-linecap:round;stroke-linejoin:round;stroke-miterlimit:4;stroke-dasharray:none;stroke-opacity:0.02"
         id="rect1674"
         width="29.810888"
         height="29.810888"
         x="69.839508"
         y="40.709618"
         rx="6.6098609"
         ry="6.6098609" />
      <rect
         ry="6.6098609"
         rx="6.6098609"
         y="40.709618"
         x="69.839508"
         height="29.810888"
         width="29.810888"
         id="rect1676"
         style="fill:none;fill-opacity:1;stroke:#000000;stroke-width:4.6;stroke-linecap:round;stroke-linejoin:round;stroke-miterlimit:4;stroke-dasharray:none;stroke-opacity:0.02" />
      <rect
         style="fill:none;fill-opacity:1;stroke:#000000;stroke-width:5;stroke-linecap:round;stroke-linejoin:round;stroke-miterlimit:4;stroke-dasharray:none;stroke-opacity:0.02"
         id="rect1678"
         width="29.810888"
         height="29.810888"
         x="69.839508"
         y="40.709618"
         rx="6.6098609"
         ry="6.6098609" />
    </g>
    <rect
       ry="6.4494534"
       rx="6.4494534"
       y="2.5391712"
       x="2.4074187"
       height="29.087439"
       width="29.087439"
       id="rect849"
       style="fill:url(#linearGradient1632);fill-opacity:1;stroke-width:2.68768;stroke-linecap:round;stroke-linejoin:round" />
    <g
       transform="matrix(0.34294123,0,0,0.34294123,5.8778853,-147.6946)"
       id="g28">
      <rect
         width="56"
         height="22"
         x="4"
         y="488"
         rx="5.5999999"
         ry="5.5"
         style="opacity:0.2"
         id="rect2" />
      <rect
         width="56"
         height="22"
         x="4"
         y="487"
         rx="5.5999999"
         ry="5.5"
         style="fill:#4a4a4a"
         id="rect4" />
      <path
         d="M 9.5996094,487 C 6.4972094,487 4,489.453 4,492.5 v 1 C 4,490.453 6.4972094,488 9.5996094,488 H 54.400391 C 57.502791,488 60,490.453 60,493.5 v -1 c 0,-3.047 -2.497209,-5.5 -5.599609,-5.5 z"
         style="opacity:0.1;fill:#ffffff"
         id="path6" />
      <path
         d="m 24.670202,453 -1.648996,4.82287 -3.872769,-3.36139 -1.356026,3.95701 -2.929688,-2.54517 -1.442522,4.21346 -2.845982,-1.38978 -0.3125,4.76496 -3.9732146,-1.94128 -0.329241,5.04071 L 2,465.77826 3.0100446,470.76934 10,487 H 54 L 60.989956,470.76934 62,465.77826 l -3.959262,0.78313 -0.329242,-5.04071 -3.973214,1.94128 -0.3125,-4.76496 -2.845984,1.38978 -1.44252,-4.21346 -2.92969,2.54517 -1.356026,-3.95701 -3.872768,3.36139 L 39.329798,453 l -3.872766,3.36139 -0.58873,2.17016 v -1.24639 l -2.857142,-4.23553 -0.0112,0.0165 -0.0112,-0.0165 -2.857142,4.23553 v 1.24639 l -0.58865,-2.17016 z"
         style="fill:#353a4a"
         id="path8" />
      <path
         d="m 24.669922,453 -1.648438,4.82227 -3.873046,-3.36133 -1.355469,3.95703 -2.929688,-2.54492 -1.443359,4.21289 -2.845703,-1.38867 -0.3125,4.76562 -3.9726565,-1.94141 -0.3300781,5.03907 L 2,465.77734 l 0.2109375,1.04102 3.7480469,0.74219 0.3300781,-5.03907 3.9726565,1.94141 0.3125,-4.76562 2.845703,1.38867 1.443359,-4.21289 2.929688,2.54492 1.355469,-3.95703 3.873046,3.36133 1.648438,-4.82227 3.873047,3.36133 0.58789,2.16992 v -1 l -0.58789,-2.16992 z m 14.660156,0 -3.873047,3.36133 -0.58789,2.16992 v 1 l 0.58789,-2.16992 3.873047,-3.36133 1.648438,4.82227 3.873046,-3.36133 1.355469,3.95703 2.929688,-2.54492 1.443359,4.21289 2.845703,-1.38867 0.3125,4.76562 3.972657,-1.94141 0.330078,5.03907 3.748046,-0.74219 L 62,465.77734 l -3.958984,0.78321 -0.330078,-5.03907 -3.972657,1.94141 -0.3125,-4.76562 -2.845703,1.38867 -1.443359,-4.21289 -2.929688,2.54492 -1.355469,-3.95703 -3.873046,3.36133 z m -7.341797,0.0488 -2.857422,4.23633 v 1 l 2.857422,-4.23633 0.01172,0.0176 0.01172,-0.0176 2.857422,4.23633 v -1 L 32.011719,453.04883 32,453.06641 Z"
         style="opacity:0.1;fill:#ffffff"
         id="path10" />
      <path
         d="M 38.957032,473.95783 A 3.0003,3.0003 0 0 0 36,477.0008 v 8.26953 a 3.0003,3.0003 0 0 0 0,0.8164 v 2.02344 a 3.0003,3.0003 0 0 0 0,1.05859 v 7.83204 a 3.0003,3.0003 0 1 0 6,0 v -3.37891 l 4.753906,5.36719 a 3.0003,3.0003 0 1 0 4.492188,-3.97657 l -7.011718,-7.91015 7.035156,-8.14063 a 3.0003,3.0003 0 0 0 -2.25,-4.99218 3.0003,3.0003 0 0 0 -2.289064,1.07031 L 42,480.51251 v -3.51171 a 3.0003,3.0003 0 0 0 -3.042968,-3.04297 z M 15,474.0008 a 3.0003,3.0003 0 1 0 0,6 h 5.652344 C 17.166463,485.08501 16,490.07034 16,497.0008 a 3.0003,3.0003 0 1 0 6,0 c 0,-8.52381 0.923606,-11.39656 7.167968,-17.92579 A 3.0003,3.0003 0 0 0 27,474.0008 Z"
         style="opacity:0.2"
         id="path12" />
      <path
         d="m 15,476 h 12 c -6.525512,6.8232 -8,11.14323 -8,20"
         style="fill:none;stroke:#ffc72e;stroke-width:6;stroke-linecap:round;stroke-linejoin:round"
         id="path14" />
      <path
         d="m 39.000438,476 v 20"
         style="fill:none;stroke:#ffc72e;stroke-width:6;stroke-linecap:round;stroke-linejoin:round"
         id="path16" />
      <path
         d="M 32,472 20,452 h 23.999999 z"
         style="opacity:0.2"
         id="path18" />
      <path
         d="m 49.000438,476 -10,11.57142"
         style="fill:none;stroke:#ffc72e;stroke-width:6;stroke-linecap:round;stroke-linejoin:round"
         id="path20" />
      <path
         d="m 49.000438,496 -10,-11.28572"
         style="fill:none;stroke:#ffc72e;stroke-width:6;stroke-linecap:round;stroke-linejoin:round"
         id="path22" />
      <path
         d="M 32,471 20,451 h 23.999999 z"
         style="fill:#fd3333"
         id="path24" />
      <path
         d="m 20,451 0.599609,1 H 43.400391 L 44,451 Z"
         style="opacity:0.1;fill:#ffffff"
         id="path26" />
    </g>
  </g>
</svg>
