<?xml version="1.0" encoding="UTF-8" standalone="no"?>
<svg
   xmlns:svg="http://www.w3.org/2000/svg"
   xmlns="http://www.w3.org/2000/svg"
   xmlns:xlink="http://www.w3.org/1999/xlink"
   xmlns:sodipodi="http://sodipodi.sourceforge.net/DTD/sodipodi-0.dtd"
   xmlns:inkscape="http://www.inkscape.org/namespaces/inkscape"
   inkscape:version="1.1-dev (1:0.92.0+devel+202004260039+9758c7a)"
   sodipodi:docname="accessories-podcast.svg"
   id="svg6"
   version="1.1"
   viewBox="0 0 33.866666 33.866667"
   height="128"
   width="128">
  <defs
     id="defs2">
    <linearGradient
       id="linearGradient14853"
       inkscape:collect="always">
      <stop
         id="stop14849"
         offset="0"
         style="stop-color:#7e28b8;stop-opacity:1" />
      <stop
         id="stop14851"
         offset="1"
         style="stop-color:#cc66f6;stop-opacity:1" />
    </linearGradient>
    <linearGradient
       id="lgrad"
       x1="32"
       y1="32"
       x2="32"
       y2="992"
       gradientUnits="userSpaceOnUse"
       gradientTransform="translate(0,-896)">
      <stop
         offset="0%"
         stop-color="#f8f8f8"
         id="stop2" />
      <stop
         offset="100%"
         stop-color="#ccc"
         id="stop4" />
    </linearGradient>
    <radialGradient
       id="rgrad"
       x1="0%"
       y1="0%"
       x2="0%"
       y2="100%"
       fx="512"
       fy="494.39999"
       cx="512"
       cy="512"
       r="440"
       gradientUnits="userSpaceOnUse"
       gradientTransform="translate(0,-896)">
      <stop
         offset="0%"
         stop-color="#00f0ff"
         id="stop7" />
      <stop
         offset="100%"
         stop-color="#0070e0"
         id="stop9" />
    </radialGradient>
    <radialGradient
       gradientTransform="matrix(0.03099337,0,0,0.03032562,85.198869,42.985295)"
       gradientUnits="userSpaceOnUse"
       r="440"
       cy="306.1813"
       cx="523.57568"
       fy="306.1813"
       fx="523.57568"
       y2="100%"
       x2="0%"
       y1="0%"
       x1="0%"
       id="rgrad-3">
      <stop
         style="stop-color:#03d7e4;stop-opacity:1"
         id="stop7-6"
         stop-color="#00f0ff"
         offset="0%" />
      <stop
         id="stop9-7"
         stop-color="#0070e0"
         offset="100%" />
    </radialGradient>
    <filter
       id="b"
       color-interpolation-filters="sRGB"
       height="1.024007"
       width="1.023993"
       x="-0.011996"
       y="-0.012004">
      <feGaussianBlur
         stdDeviation=".47521291"
         id="feGaussianBlur7" />
    </filter>
    <linearGradient
       id="k"
       gradientUnits="userSpaceOnUse"
       x1="-350.6571"
       x2="-376.36255"
       y1="-73.89106"
       y2="-319.05783">
      <stop
         offset="0"
         stop-color="#83a3d4"
         id="stop50" />
      <stop
         offset="1"
         stop-color="#6bb5e3"
         id="stop52" />
    </linearGradient>
    <linearGradient
       id="i"
       gradientUnits="userSpaceOnUse"
       x1="-206.76952"
       x2="10.51211"
       y1="-12.925184"
       y2="-156.88734">
      <stop
         offset="0"
         stop-color="#70c2bd"
         id="stop40" />
      <stop
         offset="1"
         stop-color="#67c381"
         id="stop42" />
    </linearGradient>
    <linearGradient
       id="e"
       gradientUnits="userSpaceOnUse"
       x1="134.56509"
       x2="148.51404"
       y1="117.30138"
       y2="-149.18999">
      <stop
         offset="0"
         stop-color="#faaa32"
         id="stop20" />
      <stop
         offset="1"
         stop-color="#fdc22b"
         id="stop22" />
    </linearGradient>
    <linearGradient
       id="c"
       gradientUnits="userSpaceOnUse"
       x1="-146.054"
       x2="123.35784"
       y1="144.89951"
       y2="144.89951">
      <stop
         offset="0"
         stop-color="#a0cf63"
         id="stop10" />
      <stop
         offset="1"
         stop-color="#c4da45"
         id="stop12" />
    </linearGradient>
    <linearGradient
       id="m"
       gradientUnits="userSpaceOnUse"
       x1="206.7137"
       x2="28.495264"
       y1="-12.740612"
       y2="-150.01163">
      <stop
         offset="0"
         stop-color="#b28cc0"
         id="stop60" />
      <stop
         offset="1"
         stop-color="#9a8ec4"
         id="stop62" />
    </linearGradient>
    <linearGradient
       id="q"
       gradientUnits="userSpaceOnUse"
       x1="189.94229"
       x2="-19.617525"
       y1="147.05296"
       y2="76.406288">
      <stop
         offset="0"
         stop-color="#f48155"
         id="stop80" />
      <stop
         offset="1"
         stop-color="#f16168"
         id="stop82" />
    </linearGradient>
    <linearGradient
       id="l"
       gradientUnits="userSpaceOnUse"
       x1="116.504"
       x2="21.156284"
       y1="308.30261"
       y2="34.179653">
      <stop
         offset="0"
         stop-color="#735194"
         id="stop55" />
      <stop
         offset="1"
         stop-color="#525da3"
         id="stop57" />
    </linearGradient>
    <linearGradient
       id="j"
       gradientUnits="userSpaceOnUse"
       x1="30.131145"
       x2="123.3283"
       y1="111.50156"
       y2="-107.16671">
      <stop
         offset="0"
         stop-color="#416db9"
         id="stop45" />
      <stop
         offset="1"
         stop-color="#337e8d"
         id="stop47" />
    </linearGradient>
    <linearGradient
       id="h"
       gradientUnits="userSpaceOnUse"
       x1="-103.67039"
       x2="205.55051"
       y1="133.12218"
       y2="0.071801998">
      <stop
         offset="0"
         stop-color="#2e9274"
         id="stop35" />
      <stop
         offset="1"
         stop-color="#469d3c"
         id="stop37" />
    </linearGradient>
    <linearGradient
       id="f"
       gradientUnits="userSpaceOnUse"
       x1="26.97802"
       x2="146.80986"
       y1="120.22743"
       y2="-100.48971">
      <stop
         offset="0"
         stop-color="#ec4001"
         id="stop25" />
      <stop
         offset="1"
         stop-color="#fb6f01"
         id="stop27" />
    </linearGradient>
    <linearGradient
       id="d"
       gradientUnits="userSpaceOnUse"
       x1="-14.298616"
       x2="309.397"
       y1="73.499695"
       y2="73.499695">
      <stop
         offset="0"
         stop-color="#58a920"
         id="stop15" />
      <stop
         offset="1"
         stop-color="#98b811"
         id="stop17" />
    </linearGradient>
    <linearGradient
       id="o"
       gradientUnits="userSpaceOnUse"
       x1="-123.11901"
       x2="145.987"
       y1="144.897"
       y2="144.897">
      <stop
         offset="0"
         stop-color="#d287af"
         id="stop70" />
      <stop
         offset="1"
         stop-color="#e07993"
         id="stop72" />
    </linearGradient>
    <linearGradient
       id="p"
       gradientUnits="userSpaceOnUse"
       x1="-205.78"
       x2="117.81888"
       y1="-71.695564"
       y2="-71.695564">
      <stop
         offset="0"
         stop-color="#bd090f"
         id="stop75" />
      <stop
         offset="1"
         stop-color="#e11f07"
         id="stop77" />
    </linearGradient>
    <linearGradient
       id="n"
       gradientUnits="userSpaceOnUse"
       x1="0.176406"
       x2="-308.72031"
       y1="-14.582834"
       y2="-143.7106">
      <stop
         offset="0"
         stop-color="#c23857"
         id="stop65" />
      <stop
         offset="1"
         stop-color="#914475"
         id="stop67" />
    </linearGradient>
    <linearGradient
       id="g"
       gradientUnits="userSpaceOnUse"
       x1="41.409683"
       x2="117.31723"
       y1="108.52529"
       y2="319.1076">
      <stop
         offset="0"
         stop-color="#e69e08"
         id="stop30" />
      <stop
         offset="1"
         stop-color="#cbc507"
         id="stop32" />
    </linearGradient>
    <rect
       id="path-1"
       x="0"
       y="0"
       width="120"
       height="120"
       rx="28" />
    <path
       d="M125 104c21.54 0 39-17.46 39-39s-17.46-39-39-39-39 17.46-39 39 17.46 39 39 39zm0 26c-35.899 0-65-29.101-65-65S89.101 0 125 0s65 29.101 65 65-29.101 65-65 65z"
       id="path-3" />
    <path
       id="path-4"
       d="M0 75l129 90.787v35L0 110z" />
    <path
       id="path-5"
       d="M22 65h27v120H22z" />
    <filter
       x="-5.6%"
       y="-1.2%"
       width="111.1%"
       height="102.5%"
       filterUnits="objectBoundingBox"
       id="filter-6">
      <feMorphology
         radius="0.5"
         operator="dilate"
         in="SourceAlpha"
         result="shadowSpreadOuter1"
         id="feMorphology12690" />
      <feOffset
         dx="0"
         dy="0"
         in="shadowSpreadOuter1"
         result="shadowOffsetOuter1"
         id="feOffset12692" />
      <feColorMatrix
         values="0 0 0 0 0 0 0 0 0 0 0 0 0 0 0 0 0 0 0.139945652 0"
         type="matrix"
         in="shadowOffsetOuter1"
         id="feColorMatrix12694" />
    </filter>
    <circle
       id="path-7"
       cx="21"
       cy="21"
       r="21" />
    <filter
       x="-16.7%"
       y="-11.9%"
       width="133.3%"
       height="133.3%"
       filterUnits="objectBoundingBox"
       id="filter-8">
      <feOffset
         dx="0"
         dy="2"
         in="SourceAlpha"
         result="shadowOffsetOuter1"
         id="feOffset12698" />
      <feGaussianBlur
         stdDeviation="2"
         in="shadowOffsetOuter1"
         result="shadowBlurOuter1"
         id="feGaussianBlur12700" />
      <feColorMatrix
         values="0 0 0 0 0 0 0 0 0 0 0 0 0 0 0 0 0 0 0.15197577 0"
         type="matrix"
         in="shadowBlurOuter1"
         id="feColorMatrix12702" />
    </filter>
    <path
       d="M40.74 1.31A21.591 21.591 0 0 1 45 14.2c0 12.155-10.074 22.01-22.5 22.01S0 26.354 0 14.2C0 9.385 1.58 4.932 4.26 1.31 6.447 2.922 9.553 3.928 13 3.928c3.866 0 7.305-1.267 9.5-3.234 2.195 1.967 5.634 3.234 9.5 3.234 3.446 0 6.552-1.006 8.74-2.618z"
       id="path-9" />
    <rect
       id="path-1-2"
       x="0"
       y="0"
       width="120"
       height="120"
       rx="28" />
    <linearGradient
       gradientUnits="userSpaceOnUse"
       y2="4.7340407"
       x2="15.131866"
       y1="27.777664"
       x1="15.131866"
       id="linearGradient14855"
       xlink:href="#linearGradient14853"
       inkscape:collect="always" />
  </defs>
  <sodipodi:namedview
     inkscape:window-maximized="1"
     inkscape:window-y="30"
     inkscape:window-x="0"
     inkscape:window-height="1024"
     inkscape:window-width="1920"
     units="px"
     showgrid="false"
     inkscape:current-layer="layer1"
     inkscape:document-units="mm"
     inkscape:cy="50.447597"
     inkscape:cx="68.964108"
     inkscape:zoom="1.2705078"
     inkscape:pageshadow="2"
     inkscape:pageopacity="0.0"
     borderopacity="1.0"
     bordercolor="#666666"
     pagecolor="#ffffff"
     id="base" />
  <g
     id="layer1"
     inkscape:groupmode="layer"
     inkscape:label="Layer 1">
    <g
       style="opacity:0.2967651"
       transform="matrix(0.97573206,0,0,0.97573206,-65.748383,-37.203094)"
       id="g1702">
      <path
         d="m 76.449369,40.709618 h 16.591166 c 3.661863,0 6.609861,2.947998 6.609861,6.609861 v 16.591166 c 0,3.661863 -2.947998,6.609861 -6.609861,6.609861 H 76.449369 c -3.661863,0 -6.609861,-2.947998 -6.609861,-6.609861 V 47.319479 c 0,-3.661863 2.947998,-6.609861 6.609861,-6.609861 z"
         style="fill:none;fill-opacity:1;stroke:#000000;stroke-width:0.1;stroke-linecap:round;stroke-linejoin:round;stroke-miterlimit:4;stroke-dasharray:none;stroke-opacity:0.02"
         id="rect1634" />
      <path
         d="m 76.449369,40.709618 h 16.591166 c 3.661863,0 6.609861,2.947998 6.609861,6.609861 v 16.591166 c 0,3.661863 -2.947998,6.609861 -6.609861,6.609861 H 76.449369 c -3.661863,0 -6.609861,-2.947998 -6.609861,-6.609861 V 47.319479 c 0,-3.661863 2.947998,-6.609861 6.609861,-6.609861 z"
         style="fill:none;fill-opacity:1;stroke:#000000;stroke-width:0.2;stroke-linecap:round;stroke-linejoin:round;stroke-miterlimit:4;stroke-dasharray:none;stroke-opacity:0.02"
         id="rect1638" />
      <path
         d="m 76.449369,40.709618 h 16.591166 c 3.661863,0 6.609861,2.947998 6.609861,6.609861 v 16.591166 c 0,3.661863 -2.947998,6.609861 -6.609861,6.609861 H 76.449369 c -3.661863,0 -6.609861,-2.947998 -6.609861,-6.609861 V 47.319479 c 0,-3.661863 2.947998,-6.609861 6.609861,-6.609861 z"
         style="fill:none;fill-opacity:1;stroke:#000000;stroke-width:0.3;stroke-linecap:round;stroke-linejoin:round;stroke-miterlimit:4;stroke-dasharray:none;stroke-opacity:0.02"
         id="rect1640" />
      <path
         d="m 76.449369,40.709618 h 16.591166 c 3.661863,0 6.609861,2.947998 6.609861,6.609861 v 16.591166 c 0,3.661863 -2.947998,6.609861 -6.609861,6.609861 H 76.449369 c -3.661863,0 -6.609861,-2.947998 -6.609861,-6.609861 V 47.319479 c 0,-3.661863 2.947998,-6.609861 6.609861,-6.609861 z"
         style="fill:none;fill-opacity:1;stroke:#000000;stroke-width:0.4;stroke-linecap:round;stroke-linejoin:round;stroke-miterlimit:4;stroke-dasharray:none;stroke-opacity:0.02"
         id="rect1642" />
      <path
         d="m 76.449369,40.709618 h 16.591166 c 3.661863,0 6.609861,2.947998 6.609861,6.609861 v 16.591166 c 0,3.661863 -2.947998,6.609861 -6.609861,6.609861 H 76.449369 c -3.661863,0 -6.609861,-2.947998 -6.609861,-6.609861 V 47.319479 c 0,-3.661863 2.947998,-6.609861 6.609861,-6.609861 z"
         style="fill:none;fill-opacity:1;stroke:#000000;stroke-width:0.5;stroke-linecap:round;stroke-linejoin:round;stroke-miterlimit:4;stroke-dasharray:none;stroke-opacity:0.02"
         id="rect1644" />
      <path
         d="m 76.449369,40.709618 h 16.591166 c 3.661863,0 6.609861,2.947998 6.609861,6.609861 v 16.591166 c 0,3.661863 -2.947998,6.609861 -6.609861,6.609861 H 76.449369 c -3.661863,0 -6.609861,-2.947998 -6.609861,-6.609861 V 47.319479 c 0,-3.661863 2.947998,-6.609861 6.609861,-6.609861 z"
         style="fill:none;fill-opacity:1;stroke:#000000;stroke-width:0.6;stroke-linecap:round;stroke-linejoin:round;stroke-miterlimit:4;stroke-dasharray:none;stroke-opacity:0.02"
         id="rect1646" />
      <path
         d="m 76.449369,40.709618 h 16.591166 c 3.661863,0 6.609861,2.947998 6.609861,6.609861 v 16.591166 c 0,3.661863 -2.947998,6.609861 -6.609861,6.609861 H 76.449369 c -3.661863,0 -6.609861,-2.947998 -6.609861,-6.609861 V 47.319479 c 0,-3.661863 2.947998,-6.609861 6.609861,-6.609861 z"
         style="fill:none;fill-opacity:1;stroke:#000000;stroke-width:0.7;stroke-linecap:round;stroke-linejoin:round;stroke-miterlimit:4;stroke-dasharray:none;stroke-opacity:0.02"
         id="rect1648" />
      <path
         d="m 76.449369,40.709618 h 16.591166 c 3.661863,0 6.609861,2.947998 6.609861,6.609861 v 16.591166 c 0,3.661863 -2.947998,6.609861 -6.609861,6.609861 H 76.449369 c -3.661863,0 -6.609861,-2.947998 -6.609861,-6.609861 V 47.319479 c 0,-3.661863 2.947998,-6.609861 6.609861,-6.609861 z"
         style="fill:none;fill-opacity:1;stroke:#000000;stroke-width:0.8;stroke-linecap:round;stroke-linejoin:round;stroke-miterlimit:4;stroke-dasharray:none;stroke-opacity:0.02"
         id="rect1650" />
      <path
         d="m 76.449369,40.709618 h 16.591166 c 3.661863,0 6.609861,2.947998 6.609861,6.609861 v 16.591166 c 0,3.661863 -2.947998,6.609861 -6.609861,6.609861 H 76.449369 c -3.661863,0 -6.609861,-2.947998 -6.609861,-6.609861 V 47.319479 c 0,-3.661863 2.947998,-6.609861 6.609861,-6.609861 z"
         style="fill:none;fill-opacity:1;stroke:#000000;stroke-width:1;stroke-linecap:round;stroke-linejoin:round;stroke-miterlimit:4;stroke-dasharray:none;stroke-opacity:0.02"
         id="rect1652" />
      <path
         d="m 76.449369,40.709618 h 16.591166 c 3.661863,0 6.609861,2.947998 6.609861,6.609861 v 16.591166 c 0,3.661863 -2.947998,6.609861 -6.609861,6.609861 H 76.449369 c -3.661863,0 -6.609861,-2.947998 -6.609861,-6.609861 V 47.319479 c 0,-3.661863 2.947998,-6.609861 6.609861,-6.609861 z"
         style="fill:none;fill-opacity:1;stroke:#000000;stroke-width:1.2;stroke-linecap:round;stroke-linejoin:round;stroke-miterlimit:4;stroke-dasharray:none;stroke-opacity:0.02"
         id="rect1654" />
      <path
         d="m 76.449369,40.709618 h 16.591166 c 3.661863,0 6.609861,2.947998 6.609861,6.609861 v 16.591166 c 0,3.661863 -2.947998,6.609861 -6.609861,6.609861 H 76.449369 c -3.661863,0 -6.609861,-2.947998 -6.609861,-6.609861 V 47.319479 c 0,-3.661863 2.947998,-6.609861 6.609861,-6.609861 z"
         style="fill:none;fill-opacity:1;stroke:#000000;stroke-width:1.4;stroke-linecap:round;stroke-linejoin:round;stroke-miterlimit:4;stroke-dasharray:none;stroke-opacity:0.02"
         id="rect1656" />
      <path
         d="m 76.449369,40.709618 h 16.591166 c 3.661863,0 6.609861,2.947998 6.609861,6.609861 v 16.591166 c 0,3.661863 -2.947998,6.609861 -6.609861,6.609861 H 76.449369 c -3.661863,0 -6.609861,-2.947998 -6.609861,-6.609861 V 47.319479 c 0,-3.661863 2.947998,-6.609861 6.609861,-6.609861 z"
         style="fill:none;fill-opacity:1;stroke:#000000;stroke-width:1.6;stroke-linecap:round;stroke-linejoin:round;stroke-miterlimit:4;stroke-dasharray:none;stroke-opacity:0.02"
         id="rect1658" />
      <path
         d="m 76.449369,40.709618 h 16.591166 c 3.661863,0 6.609861,2.947998 6.609861,6.609861 v 16.591166 c 0,3.661863 -2.947998,6.609861 -6.609861,6.609861 H 76.449369 c -3.661863,0 -6.609861,-2.947998 -6.609861,-6.609861 V 47.319479 c 0,-3.661863 2.947998,-6.609861 6.609861,-6.609861 z"
         style="fill:none;fill-opacity:1;stroke:#000000;stroke-width:1.8;stroke-linecap:round;stroke-linejoin:round;stroke-miterlimit:4;stroke-dasharray:none;stroke-opacity:0.02"
         id="rect1660" />
      <path
         d="m 76.449369,40.709618 h 16.591166 c 3.661863,0 6.609861,2.947998 6.609861,6.609861 v 16.591166 c 0,3.661863 -2.947998,6.609861 -6.609861,6.609861 H 76.449369 c -3.661863,0 -6.609861,-2.947998 -6.609861,-6.609861 V 47.319479 c 0,-3.661863 2.947998,-6.609861 6.609861,-6.609861 z"
         style="fill:none;fill-opacity:1;stroke:#000000;stroke-width:2;stroke-linecap:round;stroke-linejoin:round;stroke-miterlimit:4;stroke-dasharray:none;stroke-opacity:0.02"
         id="rect1662" />
      <path
         d="m 76.449369,40.709618 h 16.591166 c 3.661863,0 6.609861,2.947998 6.609861,6.609861 v 16.591166 c 0,3.661863 -2.947998,6.609861 -6.609861,6.609861 H 76.449369 c -3.661863,0 -6.609861,-2.947998 -6.609861,-6.609861 V 47.319479 c 0,-3.661863 2.947998,-6.609861 6.609861,-6.609861 z"
         style="fill:none;fill-opacity:1;stroke:#000000;stroke-width:2.2;stroke-linecap:round;stroke-linejoin:round;stroke-miterlimit:4;stroke-dasharray:none;stroke-opacity:0.02"
         id="rect1664" />
      <path
         d="m 76.449369,40.709618 h 16.591166 c 3.661863,0 6.609861,2.947998 6.609861,6.609861 v 16.591166 c 0,3.661863 -2.947998,6.609861 -6.609861,6.609861 H 76.449369 c -3.661863,0 -6.609861,-2.947998 -6.609861,-6.609861 V 47.319479 c 0,-3.661863 2.947998,-6.609861 6.609861,-6.609861 z"
         style="fill:none;fill-opacity:1;stroke:#000000;stroke-width:2.6;stroke-linecap:round;stroke-linejoin:round;stroke-miterlimit:4;stroke-dasharray:none;stroke-opacity:0.02"
         id="rect1666" />
      <path
         d="m 76.449369,40.709618 h 16.591166 c 3.661863,0 6.609861,2.947998 6.609861,6.609861 v 16.591166 c 0,3.661863 -2.947998,6.609861 -6.609861,6.609861 H 76.449369 c -3.661863,0 -6.609861,-2.947998 -6.609861,-6.609861 V 47.319479 c 0,-3.661863 2.947998,-6.609861 6.609861,-6.609861 z"
         style="fill:none;fill-opacity:1;stroke:#000000;stroke-width:3;stroke-linecap:round;stroke-linejoin:round;stroke-miterlimit:4;stroke-dasharray:none;stroke-opacity:0.02"
         id="rect1668" />
      <path
         d="m 76.449369,40.709618 h 16.591166 c 3.661863,0 6.609861,2.947998 6.609861,6.609861 v 16.591166 c 0,3.661863 -2.947998,6.609861 -6.609861,6.609861 H 76.449369 c -3.661863,0 -6.609861,-2.947998 -6.609861,-6.609861 V 47.319479 c 0,-3.661863 2.947998,-6.609861 6.609861,-6.609861 z"
         style="fill:none;fill-opacity:1;stroke:#000000;stroke-width:3.4;stroke-linecap:round;stroke-linejoin:round;stroke-miterlimit:4;stroke-dasharray:none;stroke-opacity:0.02"
         id="rect1670" />
      <path
         d="m 76.449369,40.709618 h 16.591166 c 3.661863,0 6.609861,2.947998 6.609861,6.609861 v 16.591166 c 0,3.661863 -2.947998,6.609861 -6.609861,6.609861 H 76.449369 c -3.661863,0 -6.609861,-2.947998 -6.609861,-6.609861 V 47.319479 c 0,-3.661863 2.947998,-6.609861 6.609861,-6.609861 z"
         style="fill:none;fill-opacity:1;stroke:#000000;stroke-width:3.8;stroke-linecap:round;stroke-linejoin:round;stroke-miterlimit:4;stroke-dasharray:none;stroke-opacity:0.02"
         id="rect1672" />
      <path
         d="m 76.449369,40.709618 h 16.591166 c 3.661863,0 6.609861,2.947998 6.609861,6.609861 v 16.591166 c 0,3.661863 -2.947998,6.609861 -6.609861,6.609861 H 76.449369 c -3.661863,0 -6.609861,-2.947998 -6.609861,-6.609861 V 47.319479 c 0,-3.661863 2.947998,-6.609861 6.609861,-6.609861 z"
         style="fill:none;fill-opacity:1;stroke:#000000;stroke-width:4.2;stroke-linecap:round;stroke-linejoin:round;stroke-miterlimit:4;stroke-dasharray:none;stroke-opacity:0.02"
         id="rect1674" />
      <path
         d="m 76.449369,40.709618 h 16.591166 c 3.661863,0 6.609861,2.947998 6.609861,6.609861 v 16.591166 c 0,3.661863 -2.947998,6.609861 -6.609861,6.609861 H 76.449369 c -3.661863,0 -6.609861,-2.947998 -6.609861,-6.609861 V 47.319479 c 0,-3.661863 2.947998,-6.609861 6.609861,-6.609861 z"
         style="fill:none;fill-opacity:1;stroke:#000000;stroke-width:4.6;stroke-linecap:round;stroke-linejoin:round;stroke-miterlimit:4;stroke-dasharray:none;stroke-opacity:0.02"
         id="rect1676" />
      <path
         d="m 76.449369,40.709618 h 16.591166 c 3.661863,0 6.609861,2.947998 6.609861,6.609861 v 16.591166 c 0,3.661863 -2.947998,6.609861 -6.609861,6.609861 H 76.449369 c -3.661863,0 -6.609861,-2.947998 -6.609861,-6.609861 V 47.319479 c 0,-3.661863 2.947998,-6.609861 6.609861,-6.609861 z"
         style="fill:none;fill-opacity:1;stroke:#000000;stroke-width:5;stroke-linecap:round;stroke-linejoin:round;stroke-miterlimit:4;stroke-dasharray:none;stroke-opacity:0.02"
         id="rect1678" />
    </g>
    <rect
       ry="6.4494534"
       rx="6.4494534"
       y="2.5185876"
       x="2.4065466"
       height="29.087439"
       width="29.087439"
       id="rect849"
       style="fill:url(#linearGradient14855);fill-opacity:1;stroke-width:2.68768;stroke-linecap:round;stroke-linejoin:round" />
    <path
       style="color:#000000;fill:none;stroke-width:0.6"
       d="m 63.366089,-13.641431 -7.522293,-7.600555"
       id="path6697" />
    <path
       style="color:#000000;fill:none;stroke-width:0.7"
       d="m 41.242367,-29.283552 8.855577,8.832529 c 1.749841,1.578263 2.915695,1.69766 4.709005,0.100743 l 11.968714,-11.16793"
       id="path6691" />
    <g
       transform="scale(0.26458333)"
       id="g13037" />
    <path
       inkscape:connector-curvature="0"
       id="path937-8-5"
       d="m 16.952943,6.1440687 c -0.417903,-1.725e-4 -0.835631,0.01119 -1.035979,0.034006 -2.455734,0.2794509 -4.466412,1.2944059 -6.2017281,3.1304907 -1.167959,1.2357796 -1.9667431,2.7263966 -2.3945011,4.4684766 -0.1399333,0.569895 -0.1765017,0.819266 -0.2097552,1.433939 -0.034191,0.632058 9.759e-4,1.725686 0.073398,2.277333 0.1047827,0.799376 0.417691,1.822512 0.8346414,2.729165 0.7712255,1.677003 2.016396,3.087915 3.627439,4.110918 0.508623,0.32297 1.542721,0.85292 1.974991,1.012073 0.130674,0.04811 0.153922,0.04781 0.195276,-0.0019 0.07663,-0.09235 -0.02394,-0.943171 -0.137702,-1.164944 -0.07305,-0.142408 -0.146727,-0.199274 -0.463278,-0.357222 -1.732,-0.864217 -3.109056,-2.264133 -3.9866793,-4.052336 -0.3787962,-0.771803 -0.638317,-1.542326 -0.7258932,-2.155789 -0.098732,-0.691624 -0.1159555,-1.837445 -0.040738,-2.719064 0.06724,-0.788168 0.2950344,-1.56685 0.7134341,-2.438605 0.6350969,-1.323257 1.5439864,-2.432846 2.7035754,-3.3011906 1.128923,-0.84538 2.469151,-1.4090914 3.790394,-1.5938647 0.344144,-0.04813 1.822637,-0.066244 2.274977,-0.027945 1.033279,0.087486 1.909948,0.3479737 2.938918,0.8733607 1.853419,0.946348 3.340465,2.5895496 4.119332,4.5519726 0.416478,1.049343 0.525849,1.714566 0.525903,3.199849 5.6e-5,1.186851 -0.06369,1.659433 -0.33197,2.462511 -0.401996,1.203289 -1.035568,2.287751 -1.882741,3.222069 -0.677155,0.746809 -1.686416,1.516807 -2.543313,1.940651 -0.391425,0.193609 -0.46505,0.258525 -0.542397,0.477753 -0.100382,0.284511 -0.16741,1.009308 -0.09966,1.077057 0.05622,0.05622 0.264317,-0.0209 0.868984,-0.321198 0.605012,-0.300474 1.425053,-0.777906 1.802943,-1.049783 1.739794,-1.251721 3.119932,-3.245918 3.692422,-5.334766 0.236324,-0.862276 0.284058,-1.225662 0.305035,-2.323459 0.01758,-0.920165 -0.0169,-1.594684 -0.104037,-2.032228 -0.33378,-1.676251 -0.977508,-3.101645 -1.947045,-4.3119156 -0.500785,-0.625129 -1.134941,-1.265962 -1.68881,-1.706318 -1.493366,-1.1873127 -3.116991,-1.8516935 -5.067773,-2.0739758 -0.20161,-0.022974 -0.619761,-0.034838 -1.037661,-0.035016 z m -0.02862,3.2823377 c -0.739611,0.0037 -1.459469,0.0953 -1.937616,0.255542 -1.020831,0.3421106 -2.031143,0.9800376 -2.793473,1.7642276 -0.71683,0.737384 -1.226225,1.575052 -1.551105,2.550384 -0.231576,0.695222 -0.303611,1.279302 -0.278102,2.252082 0.0088,0.336693 0.03543,0.730497 0.06026,0.88952 0.194746,1.246719 1.010081,2.762752 1.978693,3.679625 0.132551,0.125468 0.285145,0.258051 0.339378,0.294599 0.05423,0.03655 0.202825,0.140818 0.33029,0.231639 0.127464,0.09082 0.244894,0.16088 0.260928,0.155549 0.01603,-0.0053 0.03726,-0.04583 0.0468,-0.0899 0.0095,-0.04407 0.01875,-0.358292 0.02053,-0.698281 l 0.003,-0.618151 -0.318167,-0.38416 c -0.678266,-0.818694 -1.058485,-1.523365 -1.275026,-2.363188 -0.530514,-2.057544 0.219008,-4.203694 1.937618,-5.547886 0.811857,-0.634982 1.786045,-0.992898 3.020735,-1.109711 0.625071,-0.05914 1.776564,0.179093 2.496514,0.516473 1.272225,0.596184 2.324175,1.799261 2.776975,3.175272 0.209558,0.636832 0.246368,0.885678 0.245106,1.662547 -0.001,0.622595 -0.0065,0.698594 -0.07441,1.016787 -0.146936,0.689154 -0.441447,1.393779 -0.81545,1.951087 -0.105866,0.157755 -0.341804,0.466125 -0.524217,0.685154 l -0.331635,0.397961 0.0084,0.678417 c 0.006,0.492648 0.01744,0.687805 0.04208,0.712426 0.0455,0.04544 0.311929,-0.136808 0.680102,-0.464962 1.296838,-1.155873 1.986895,-2.433631 2.257133,-4.180275 0.07331,-0.47381 0.06637,-1.354506 -0.01413,-1.812708 -0.12396,-0.705652 -0.29637,-1.242184 -0.595557,-1.853784 -1.02654,-2.09846 -3.077213,-3.5494116 -5.257664,-3.7200276 -0.242697,-0.01899 -0.491473,-0.02748 -0.738011,-0.02627 z m 0.05016,3.5304716 c -0.436428,-2.24e-4 -0.50129,0.0061 -0.706023,0.06902 -0.574827,0.176724 -1.124217,0.662961 -1.393538,1.233949 -0.132333,0.280557 -0.181624,0.484103 -0.198982,0.82151 -0.02628,0.511069 0.09725,1.000497 0.348807,1.383436 0.146236,0.222608 0.539973,0.612134 0.776731,0.768314 0.556916,0.367373 1.234902,0.482983 1.874995,0.31985 0.814624,-0.207615 1.424949,-0.804071 1.677361,-1.639317 0.06406,-0.211963 0.07306,-0.288887 0.07306,-0.626233 0,-0.337345 -0.009,-0.413932 -0.07306,-0.625895 -0.25211,-0.834239 -0.845963,-1.416063 -1.679044,-1.644368 -0.186989,-0.05124 -0.291262,-0.06005 -0.700303,-0.06026 z m -0.06162,5.535092 c -1.093447,0.0056 -1.894401,0.370271 -2.221783,1.018807 -0.163582,0.324057 -0.215063,0.88361 -0.16329,1.777694 0.08655,1.4946 0.444124,4.196928 0.676734,5.114576 0.169494,0.668643 0.412,1.06624 0.801983,1.314079 0.153118,0.09731 0.496361,0.209305 0.748112,0.244433 0.303348,0.04233 0.788001,0.01119 1.034295,-0.06666 0.547207,-0.172895 0.855674,-0.545288 1.047427,-1.264587 0.169345,-0.635246 0.473049,-2.900803 0.625897,-4.669141 0.06,-0.694082 0.06101,-1.682923 0.0019,-1.972972 -0.08424,-0.414115 -0.224676,-0.63618 -0.56765,-0.897264 -0.553003,-0.420966 -0.982347,-0.565936 -1.761196,-0.595257 -0.07544,-0.0029 -0.149652,-0.0041 -0.222551,-0.0037 z"
       style="opacity:1;fill:#ffffff;fill-opacity:1;stroke:none;stroke-width:1.27647;stroke-linecap:round;stroke-linejoin:round;stroke-miterlimit:4;stroke-dasharray:none;stroke-dashoffset:0;stroke-opacity:0.0120967;paint-order:fill markers stroke" />
  </g>
</svg>
