<?xml version="1.0" encoding="UTF-8" standalone="no"?>
<svg
   width="128"
   height="128"
   viewBox="0 0 33.866666 33.866668"
   version="1.1"
   id="svg1829"
   inkscape:version="1.1.2 (0a00cf5339, 2022-02-04)"
   sodipodi:docname="access.svg"
   xmlns:inkscape="http://www.inkscape.org/namespaces/inkscape"
   xmlns:sodipodi="http://sodipodi.sourceforge.net/DTD/sodipodi-0.dtd"
   xmlns:xlink="http://www.w3.org/1999/xlink"
   xmlns="http://www.w3.org/2000/svg"
   xmlns:svg="http://www.w3.org/2000/svg"
   xmlns:rdf="http://www.w3.org/1999/02/22-rdf-syntax-ns#"
   xmlns:cc="http://creativecommons.org/ns#"
   xmlns:dc="http://purl.org/dc/elements/1.1/">
  <defs
     id="defs1823">
    <linearGradient
       inkscape:collect="always"
       id="linearGradient876">
      <stop
         style="stop-color:#ffffff;stop-opacity:1;"
         offset="0"
         id="stop872" />
      <stop
         style="stop-color:#a2d1ff;stop-opacity:1"
         offset="1"
         id="stop874" />
    </linearGradient>
    <linearGradient
       inkscape:collect="always"
       id="linearGradient934">
      <stop
         style="stop-color:#47d2ff;stop-opacity:1"
         offset="0"
         id="stop930" />
      <stop
         style="stop-color:#0276ff;stop-opacity:1"
         offset="1"
         id="stop932" />
    </linearGradient>
    <linearGradient
       inkscape:collect="always"
       xlink:href="#linearGradient876"
       id="linearGradient880"
       x1="16.182863"
       y1="13.60975"
       x2="16.182863"
       y2="31.42597"
       gradientUnits="userSpaceOnUse" />
    <radialGradient
       inkscape:collect="always"
       xlink:href="#linearGradient934"
       id="radialGradient908"
       cx="16.936953"
       cy="3.2428353"
       fx="16.936953"
       fy="3.2428353"
       r="14.54372"
       gradientUnits="userSpaceOnUse"
       gradientTransform="matrix(4.4791718,0,0,2.0391647,-58.926568,-3.3698399)" />
  </defs>
  <sodipodi:namedview
     id="base"
     pagecolor="#ffffff"
     bordercolor="#666666"
     borderopacity="1.0"
     inkscape:pageopacity="0.0"
     inkscape:pageshadow="2"
     inkscape:zoom="15.839192"
     inkscape:cx="65.344243"
     inkscape:cy="52.5595"
     inkscape:document-units="mm"
     inkscape:current-layer="layer1"
     inkscape:document-rotation="0"
     showgrid="false"
     units="px"
     inkscape:window-width="1920"
     inkscape:window-height="1028"
     inkscape:window-x="0"
     inkscape:window-y="26"
     inkscape:window-maximized="1"
     inkscape:pagecheckerboard="0" />
  <metadata
     id="metadata1826">
    <rdf:RDF>
      <cc:Work
         rdf:about="">
        <dc:format>image/svg+xml</dc:format>
        <dc:type
           rdf:resource="http://purl.org/dc/dcmitype/StillImage" />
      </cc:Work>
    </rdf:RDF>
  </metadata>
  <g
     inkscape:label="Capa 1"
     inkscape:groupmode="layer"
     id="layer1">
    <g
       id="g1702"
       transform="matrix(0.97573206,0,0,0.97573206,-65.58674,-37.192363)"
       style="opacity:0.296765">
      <rect
         style="fill:none;fill-opacity:1;stroke:#000000;stroke-width:0.1;stroke-linecap:round;stroke-linejoin:round;stroke-miterlimit:4;stroke-dasharray:none;stroke-opacity:0.02"
         id="rect1634"
         width="29.810888"
         height="29.810888"
         x="69.839508"
         y="40.709618"
         rx="6.6098609"
         ry="6.6098609" />
      <rect
         ry="6.6098609"
         rx="6.6098609"
         y="40.709618"
         x="69.839508"
         height="29.810888"
         width="29.810888"
         id="rect1638"
         style="fill:none;fill-opacity:1;stroke:#000000;stroke-width:0.2;stroke-linecap:round;stroke-linejoin:round;stroke-miterlimit:4;stroke-dasharray:none;stroke-opacity:0.02" />
      <rect
         style="fill:none;fill-opacity:1;stroke:#000000;stroke-width:0.3;stroke-linecap:round;stroke-linejoin:round;stroke-miterlimit:4;stroke-dasharray:none;stroke-opacity:0.02"
         id="rect1640"
         width="29.810888"
         height="29.810888"
         x="69.839508"
         y="40.709618"
         rx="6.6098609"
         ry="6.6098609" />
      <rect
         ry="6.6098609"
         rx="6.6098609"
         y="40.709618"
         x="69.839508"
         height="29.810888"
         width="29.810888"
         id="rect1642"
         style="fill:none;fill-opacity:1;stroke:#000000;stroke-width:0.4;stroke-linecap:round;stroke-linejoin:round;stroke-miterlimit:4;stroke-dasharray:none;stroke-opacity:0.02" />
      <rect
         style="fill:none;fill-opacity:1;stroke:#000000;stroke-width:0.5;stroke-linecap:round;stroke-linejoin:round;stroke-miterlimit:4;stroke-dasharray:none;stroke-opacity:0.02"
         id="rect1644"
         width="29.810888"
         height="29.810888"
         x="69.839508"
         y="40.709618"
         rx="6.6098609"
         ry="6.6098609" />
      <rect
         ry="6.6098609"
         rx="6.6098609"
         y="40.709618"
         x="69.839508"
         height="29.810888"
         width="29.810888"
         id="rect1646"
         style="fill:none;fill-opacity:1;stroke:#000000;stroke-width:0.6;stroke-linecap:round;stroke-linejoin:round;stroke-miterlimit:4;stroke-dasharray:none;stroke-opacity:0.02" />
      <rect
         style="fill:none;fill-opacity:1;stroke:#000000;stroke-width:0.7;stroke-linecap:round;stroke-linejoin:round;stroke-miterlimit:4;stroke-dasharray:none;stroke-opacity:0.02"
         id="rect1648"
         width="29.810888"
         height="29.810888"
         x="69.839508"
         y="40.709618"
         rx="6.6098609"
         ry="6.6098609" />
      <rect
         ry="6.6098609"
         rx="6.6098609"
         y="40.709618"
         x="69.839508"
         height="29.810888"
         width="29.810888"
         id="rect1650"
         style="fill:none;fill-opacity:1;stroke:#000000;stroke-width:0.8;stroke-linecap:round;stroke-linejoin:round;stroke-miterlimit:4;stroke-dasharray:none;stroke-opacity:0.02" />
      <rect
         style="fill:none;fill-opacity:1;stroke:#000000;stroke-width:1;stroke-linecap:round;stroke-linejoin:round;stroke-miterlimit:4;stroke-dasharray:none;stroke-opacity:0.02"
         id="rect1652"
         width="29.810888"
         height="29.810888"
         x="69.839508"
         y="40.709618"
         rx="6.6098609"
         ry="6.6098609" />
      <rect
         ry="6.6098609"
         rx="6.6098609"
         y="40.709618"
         x="69.839508"
         height="29.810888"
         width="29.810888"
         id="rect1654"
         style="fill:none;fill-opacity:1;stroke:#000000;stroke-width:1.2;stroke-linecap:round;stroke-linejoin:round;stroke-miterlimit:4;stroke-dasharray:none;stroke-opacity:0.02" />
      <rect
         style="fill:none;fill-opacity:1;stroke:#000000;stroke-width:1.4;stroke-linecap:round;stroke-linejoin:round;stroke-miterlimit:4;stroke-dasharray:none;stroke-opacity:0.02"
         id="rect1656"
         width="29.810888"
         height="29.810888"
         x="69.839508"
         y="40.709618"
         rx="6.6098609"
         ry="6.6098609" />
      <rect
         ry="6.6098609"
         rx="6.6098609"
         y="40.709618"
         x="69.839508"
         height="29.810888"
         width="29.810888"
         id="rect1658"
         style="fill:none;fill-opacity:1;stroke:#000000;stroke-width:1.6;stroke-linecap:round;stroke-linejoin:round;stroke-miterlimit:4;stroke-dasharray:none;stroke-opacity:0.02" />
      <rect
         style="fill:none;fill-opacity:1;stroke:#000000;stroke-width:1.8;stroke-linecap:round;stroke-linejoin:round;stroke-miterlimit:4;stroke-dasharray:none;stroke-opacity:0.02"
         id="rect1660"
         width="29.810888"
         height="29.810888"
         x="69.839508"
         y="40.709618"
         rx="6.6098609"
         ry="6.6098609" />
      <rect
         ry="6.6098609"
         rx="6.6098609"
         y="40.709618"
         x="69.839508"
         height="29.810888"
         width="29.810888"
         id="rect1662"
         style="fill:none;fill-opacity:1;stroke:#000000;stroke-width:2;stroke-linecap:round;stroke-linejoin:round;stroke-miterlimit:4;stroke-dasharray:none;stroke-opacity:0.02" />
      <rect
         style="fill:none;fill-opacity:1;stroke:#000000;stroke-width:2.2;stroke-linecap:round;stroke-linejoin:round;stroke-miterlimit:4;stroke-dasharray:none;stroke-opacity:0.02"
         id="rect1664"
         width="29.810888"
         height="29.810888"
         x="69.839508"
         y="40.709618"
         rx="6.6098609"
         ry="6.6098609" />
      <rect
         ry="6.6098609"
         rx="6.6098609"
         y="40.709618"
         x="69.839508"
         height="29.810888"
         width="29.810888"
         id="rect1666"
         style="fill:none;fill-opacity:1;stroke:#000000;stroke-width:2.6;stroke-linecap:round;stroke-linejoin:round;stroke-miterlimit:4;stroke-dasharray:none;stroke-opacity:0.02" />
      <rect
         style="fill:none;fill-opacity:1;stroke:#000000;stroke-width:3;stroke-linecap:round;stroke-linejoin:round;stroke-miterlimit:4;stroke-dasharray:none;stroke-opacity:0.02"
         id="rect1668"
         width="29.810888"
         height="29.810888"
         x="69.839508"
         y="40.709618"
         rx="6.6098609"
         ry="6.6098609" />
      <rect
         ry="6.6098609"
         rx="6.6098609"
         y="40.709618"
         x="69.839508"
         height="29.810888"
         width="29.810888"
         id="rect1670"
         style="fill:none;fill-opacity:1;stroke:#000000;stroke-width:3.4;stroke-linecap:round;stroke-linejoin:round;stroke-miterlimit:4;stroke-dasharray:none;stroke-opacity:0.02" />
      <rect
         style="fill:none;fill-opacity:1;stroke:#000000;stroke-width:3.8;stroke-linecap:round;stroke-linejoin:round;stroke-miterlimit:4;stroke-dasharray:none;stroke-opacity:0.02"
         id="rect1672"
         width="29.810888"
         height="29.810888"
         x="69.839508"
         y="40.709618"
         rx="6.6098609"
         ry="6.6098609" />
      <rect
         ry="6.6098609"
         rx="6.6098609"
         y="40.709618"
         x="69.839508"
         height="29.810888"
         width="29.810888"
         id="rect1674"
         style="fill:none;fill-opacity:1;stroke:#000000;stroke-width:4.2;stroke-linecap:round;stroke-linejoin:round;stroke-miterlimit:4;stroke-dasharray:none;stroke-opacity:0.02" />
      <rect
         style="fill:none;fill-opacity:1;stroke:#000000;stroke-width:4.6;stroke-linecap:round;stroke-linejoin:round;stroke-miterlimit:4;stroke-dasharray:none;stroke-opacity:0.02"
         id="rect1676"
         width="29.810888"
         height="29.810888"
         x="69.839508"
         y="40.709618"
         rx="6.6098609"
         ry="6.6098609" />
      <rect
         ry="6.6098609"
         rx="6.6098609"
         y="40.709618"
         x="69.839508"
         height="29.810888"
         width="29.810888"
         id="rect1678"
         style="fill:none;fill-opacity:1;stroke:#000000;stroke-width:5;stroke-linecap:round;stroke-linejoin:round;stroke-miterlimit:4;stroke-dasharray:none;stroke-opacity:0.02" />
    </g>
    <rect
       style="fill:url(#radialGradient908);fill-opacity:1;stroke-width:2.68769;stroke-linecap:round;stroke-linejoin:round"
       id="rect849-5"
       width="29.08744"
       height="29.08744"
       x="2.5579116"
       y="2.5293181"
       rx="6.4494534"
       ry="6.4494534" />
    <g
       id="g906"
       style="opacity:0.38359672">
      <path
         style="stroke-width:0.707656;fill-opacity:1;fill:url(#linearGradient880)"
         id="path1310-3"
         fill="#ffffff"
         d="m 16.812784,7.4590851 c -1.196908,0 -2.167196,0.970288 -2.167196,2.167196 0,1.1969069 0.970288,2.1671949 2.167196,2.1671949 1.196908,0 2.167196,-0.970288 2.167196,-2.1671949 0,-1.196908 -0.970288,-2.167196 -2.167196,-2.167196 z m 7.39445,5.0365199 -14.2222241,0.08846 c -1.1945864,-0.0077 -1.1833346,1.79175 0.01103,1.76914 l 4.1380381,0.551434 c 1.232354,0.400321 0.795235,1.236069 0.695541,2.111226 -0.313294,2.734714 -1.215201,5.696028 -1.817748,8.470477 -0.427226,1.140713 1.322113,1.73249 1.675148,0.566677 l 1.397344,-4.139511 c 0.449319,-0.505648 0.965052,-0.48555 1.546617,0.178295 l 1.307508,3.872759 c 0.353035,1.165813 2.102373,0.574035 1.675148,-0.566677 -0.951181,-2.57542 -1.465088,-5.252646 -1.648244,-7.951389 0.02527,-1.294763 -0.296946,-2.239009 0.677341,-2.540549 l 4.575524,-0.641199 c 1.194586,0.0077 1.183342,-1.791749 -0.01108,-1.76914 z" />
      <path
         style="fill:#003edf;fill-opacity:0.216982;stroke-width:0.707656"
         id="path1310-3-3"
         fill="#ffffff"
         d="m 16.614132,7.3625757 c -1.196908,0 -2.167196,0.9702879 -2.167196,2.1671959 0,1.1969074 0.970288,2.1671954 2.167196,2.1671954 1.196908,0 2.167196,-0.970288 2.167196,-2.1671954 0,-1.196908 -0.970288,-2.1671959 -2.167196,-2.1671959 z m 7.39445,5.0365203 -14.2222244,0.08846 c -1.194587,-0.0077 -1.183335,1.79175 0.01103,1.76914 l 4.1380384,0.551434 c 1.232354,0.400321 0.795235,1.236069 0.695541,2.111226 -0.313294,2.734714 -1.215201,5.696028 -1.817748,8.470477 -0.427226,1.140713 1.322113,1.73249 1.675148,0.566677 l 1.397344,-4.139511 c 0.449319,-0.505648 0.965052,-0.48555 1.546617,0.178295 l 1.307508,3.872759 c 0.353035,1.165813 2.102373,0.574035 1.675148,-0.566677 -0.951181,-2.57542 -1.465088,-5.252646 -1.648244,-7.951389 0.02527,-1.294763 -0.296946,-2.239009 0.677341,-2.540549 l 4.575524,-0.641199 c 1.194586,0.0077 1.183342,-1.791749 -0.01108,-1.76914 z" />
      <path
         style="fill:#003edf;fill-opacity:0.141134;stroke-width:0.707656"
         id="path897"
         d="m 17.593138,8.4074986 c -1.196908,0 -2.167196,0.9702879 -2.167196,2.1671954 0,1.196908 0.970288,2.167196 2.167196,2.167196 1.196908,0 2.167196,-0.970288 2.167196,-2.167196 0,-1.1969075 -0.970288,-2.1671954 -2.167196,-2.1671954 z m 7.39445,5.0365204 -14.222225,0.08846 c -1.1945855,-0.0077 -1.1833335,1.79175 0.01103,1.76914 l 4.138039,0.551434 c 1.232354,0.400321 0.795235,1.236069 0.695541,2.111226 -0.313294,2.734714 -1.215201,5.696028 -1.817748,8.470477 -0.427226,1.140713 1.322113,1.73249 1.675148,0.566677 l 1.397344,-4.139511 c 0.449319,-0.505648 0.965052,-0.48555 1.546617,0.178295 l 1.307508,3.872759 c 0.353035,1.165813 2.102373,0.574035 1.675148,-0.566677 -0.951181,-2.57542 -1.465088,-5.252646 -1.648244,-7.951389 0.02527,-1.294763 -0.296946,-2.239009 0.677341,-2.540549 l 4.575524,-0.641199 c 1.194586,0.0077 1.183342,-1.791749 -0.01108,-1.76914 z" />
      <path
         style="fill:#003edf;fill-opacity:0.141134;stroke-width:0.707656"
         id="path895"
         d="m 17.400563,8.1169784 c -1.196908,0 -2.167196,0.9702879 -2.167196,2.1671956 0,1.196908 0.970288,2.167196 2.167196,2.167196 1.196908,0 2.167196,-0.970288 2.167196,-2.167196 0,-1.1969077 -0.970288,-2.1671956 -2.167196,-2.1671956 z m 7.39445,5.0365206 -14.222225,0.08846 c -1.1945863,-0.0077 -1.1833343,1.79175 0.01103,1.76914 l 4.138039,0.551434 c 1.232354,0.400321 0.795235,1.236069 0.695541,2.111226 -0.313294,2.734714 -1.215201,5.696028 -1.817748,8.470477 -0.427226,1.140713 1.322113,1.73249 1.675148,0.566677 l 1.397344,-4.139511 c 0.449319,-0.505648 0.965052,-0.48555 1.546617,0.178295 l 1.307508,3.872759 c 0.353035,1.165813 2.102373,0.574035 1.675148,-0.566677 -0.951181,-2.57542 -1.465088,-5.252646 -1.648244,-7.951389 0.02527,-1.294763 -0.296946,-2.239009 0.677341,-2.540549 l 4.575524,-0.641199 c 1.194586,0.0077 1.183342,-1.791749 -0.01108,-1.76914 z" />
      <path
         style="fill:#003edf;fill-opacity:0.216982;stroke-width:0.707656"
         id="path893"
         d="m 17.170796,7.926197 c -1.196908,0 -2.167196,0.9702879 -2.167196,2.167196 0,1.196908 0.970288,2.167196 2.167196,2.167196 1.196908,0 2.167196,-0.970288 2.167196,-2.167196 0,-1.1969081 -0.970288,-2.167196 -2.167196,-2.167196 z m 7.39445,5.036521 -14.222225,0.08846 c -1.1945862,-0.0077 -1.1833342,1.79175 0.01103,1.76914 l 4.138039,0.551434 c 1.232354,0.400321 0.795235,1.236069 0.695541,2.111226 -0.313294,2.734714 -1.215201,5.696028 -1.817748,8.470477 -0.427226,1.140713 1.322113,1.73249 1.675148,0.566677 l 1.397344,-4.139511 c 0.449319,-0.505648 0.965052,-0.48555 1.546617,0.178295 l 1.307508,3.872759 c 0.353035,1.165813 2.102373,0.574035 1.675148,-0.566677 -0.951181,-2.57542 -1.465088,-5.252646 -1.648244,-7.951389 0.02527,-1.294763 -0.296946,-2.239009 0.677341,-2.540549 l 4.575524,-0.641199 c 1.194586,0.0077 1.183342,-1.791749 -0.01108,-1.76914 z" />
    </g>
    <path
       style="stroke-width:0.707656;fill-opacity:1;fill:url(#linearGradient880)"
       id="path882"
       fill="#ffffff"
       d="m 16.812784,7.4590851 c -1.196908,0 -2.167196,0.970288 -2.167196,2.167196 0,1.1969069 0.970288,2.1671949 2.167196,2.1671949 1.196908,0 2.167196,-0.970288 2.167196,-2.1671949 0,-1.196908 -0.970288,-2.167196 -2.167196,-2.167196 z m 7.39445,5.0365199 -14.2222241,0.08846 c -1.1945864,-0.0077 -1.1833346,1.79175 0.01103,1.76914 l 4.1380381,0.551434 c 1.232354,0.400321 0.795235,1.236069 0.695541,2.111226 -0.313294,2.734714 -1.215201,5.696028 -1.817748,8.470477 -0.427226,1.140713 1.322113,1.73249 1.675148,0.566677 l 1.397344,-4.139511 c 0.449319,-0.505648 0.965052,-0.48555 1.546617,0.178295 l 1.307508,3.872759 c 0.353035,1.165813 2.102373,0.574035 1.675148,-0.566677 -0.951181,-2.57542 -1.465088,-5.252646 -1.648244,-7.951389 0.02527,-1.294763 -0.296946,-2.239009 0.677341,-2.540549 l 4.575524,-0.641199 c 1.194586,0.0077 1.183342,-1.791749 -0.01108,-1.76914 z" />
  </g>
</svg>
