<?xml version="1.0" encoding="UTF-8" standalone="no"?>
<svg
   xmlns:dc="http://purl.org/dc/elements/1.1/"
   xmlns:cc="http://creativecommons.org/ns#"
   xmlns:rdf="http://www.w3.org/1999/02/22-rdf-syntax-ns#"
   xmlns:svg="http://www.w3.org/2000/svg"
   xmlns="http://www.w3.org/2000/svg"
   xmlns:xlink="http://www.w3.org/1999/xlink"
   xmlns:sodipodi="http://sodipodi.sourceforge.net/DTD/sodipodi-0.dtd"
   xmlns:inkscape="http://www.inkscape.org/namespaces/inkscape"
   width="128"
   height="128"
   viewBox="0 0 33.866666 33.866668"
   version="1.1"
   id="svg1798"
   inkscape:version="1.0.1 (3bc2e813f5, 2020-09-07)"
   sodipodi:docname="nl.hjdskes.gcolor3.svg">
  <defs
     id="defs1792">
    <linearGradient
       gradientUnits="userSpaceOnUse"
       y2="3.2720017"
       x2="19.33639"
       y1="31.326756"
       x1="19.33639"
       id="linearGradient4292"
       xlink:href="#linearGradient4290"
       inkscape:collect="always"
       gradientTransform="translate(0.03607611,0.06114195)" />
    <linearGradient
       id="linearGradient4290"
       inkscape:collect="always">
      <stop
         id="stop4286"
         offset="0"
         style="stop-color:#fa4c24;stop-opacity:1" />
      <stop
         id="stop4288"
         offset="1"
         style="stop-color:#fc3425;stop-opacity:1" />
    </linearGradient>
    <linearGradient
       inkscape:collect="always"
       xlink:href="#linearGradient1627"
       id="linearGradient1629"
       x1="187.65697"
       y1="-13.000042"
       x2="187.27672"
       y2="10.005526"
       gradientUnits="userSpaceOnUse" />
    <linearGradient
       inkscape:collect="always"
       id="linearGradient1627">
      <stop
         style="stop-color:#b3c7c5;stop-opacity:1;"
         offset="0"
         id="stop1623" />
      <stop
         style="stop-color:#bdbacb;stop-opacity:1"
         offset="1"
         id="stop1625" />
    </linearGradient>
    <linearGradient
       inkscape:collect="always"
       xlink:href="#linearGradient1639"
       id="linearGradient1633"
       gradientUnits="userSpaceOnUse"
       x1="187.08658"
       y1="3.541151"
       x2="187.08659"
       y2="28.448006" />
    <linearGradient
       id="linearGradient1639"
       inkscape:collect="always">
      <stop
         id="stop1635"
         offset="0"
         style="stop-color:#b3c7c5;stop-opacity:0.11956522" />
      <stop
         id="stop1637"
         offset="1"
         style="stop-color:#974e6f;stop-opacity:1" />
    </linearGradient>
    <linearGradient
       inkscape:collect="always"
       xlink:href="#linearGradient1649"
       id="linearGradient1643"
       gradientUnits="userSpaceOnUse"
       x1="174.15782"
       y1="13.427842"
       x2="235.94965"
       y2="22.36389" />
    <linearGradient
       inkscape:collect="always"
       id="linearGradient1649">
      <stop
         style="stop-color:#b3c7c5;stop-opacity:0.11956522"
         offset="0"
         id="stop1645" />
      <stop
         style="stop-color:#6bcb7e;stop-opacity:1"
         offset="1"
         id="stop1647" />
    </linearGradient>
    <radialGradient
       inkscape:collect="always"
       xlink:href="#linearGradient1657"
       id="radialGradient1659"
       cx="169.30956"
       cy="44.513878"
       fx="169.30956"
       fy="44.513878"
       r="32.036678"
       gradientUnits="userSpaceOnUse" />
    <linearGradient
       inkscape:collect="always"
       id="linearGradient1657">
      <stop
         style="stop-color:#fe2e25;stop-opacity:1;"
         offset="0"
         id="stop1653" />
      <stop
         style="stop-color:#fe2e25;stop-opacity:0;"
         offset="1"
         id="stop1655" />
    </linearGradient>
    <radialGradient
       inkscape:collect="always"
       xlink:href="#linearGradient1667"
       id="radialGradient1669"
       cx="151.81772"
       cy="22.554016"
       fx="151.81772"
       fy="22.554016"
       r="32.036678"
       gradientUnits="userSpaceOnUse"
       gradientTransform="matrix(1,0,0,0.68545994,0,7.0941416)" />
    <linearGradient
       inkscape:collect="always"
       id="linearGradient1667">
      <stop
         style="stop-color:#fc5b9f;stop-opacity:1;"
         offset="0"
         id="stop1663" />
      <stop
         style="stop-color:#fc5b9f;stop-opacity:0;"
         offset="1"
         id="stop1665" />
    </linearGradient>
    <radialGradient
       inkscape:collect="always"
       xlink:href="#linearGradient1677"
       id="radialGradient1679"
       cx="188.70268"
       cy="47.651001"
       fx="188.70268"
       fy="47.651001"
       r="32.036678"
       gradientUnits="userSpaceOnUse"
       gradientTransform="matrix(0.71513365,0.01780415,-0.02488855,0.99969023,54.941009,-3.344931)" />
    <linearGradient
       inkscape:collect="always"
       id="linearGradient1677">
      <stop
         style="stop-color:#fb7940;stop-opacity:1;"
         offset="0"
         id="stop1673" />
      <stop
         style="stop-color:#fb7940;stop-opacity:0;"
         offset="1"
         id="stop1675" />
    </linearGradient>
    <linearGradient
       inkscape:collect="always"
       xlink:href="#linearGradient1704"
       id="linearGradient1706"
       x1="229.11075"
       y1="-87.500366"
       x2="229.11075"
       y2="-27.539564"
       gradientUnits="userSpaceOnUse"
       gradientTransform="translate(-44.194601,79.760821)" />
    <linearGradient
       inkscape:collect="always"
       id="linearGradient1704">
      <stop
         style="stop-color:#585755;stop-opacity:1"
         offset="0"
         id="stop1700" />
      <stop
         style="stop-color:#000000;stop-opacity:1"
         offset="1"
         id="stop1702" />
    </linearGradient>
    <linearGradient
       inkscape:collect="always"
       xlink:href="#linearGradient1714"
       id="linearGradient1716"
       x1="234.06223"
       y1="-69.182564"
       x2="234.46556"
       y2="-29.925714"
       gradientUnits="userSpaceOnUse"
       gradientTransform="translate(-50.47954,73.946055)" />
    <linearGradient
       inkscape:collect="always"
       id="linearGradient1714">
      <stop
         style="stop-color:#4c4c4d;stop-opacity:1"
         offset="0"
         id="stop1710" />
      <stop
         style="stop-color:#080a09;stop-opacity:1"
         offset="1"
         id="stop1712" />
    </linearGradient>
    <linearGradient
       inkscape:collect="always"
       xlink:href="#linearGradient1761"
       id="linearGradient1763"
       x1="191.65932"
       y1="-7.2191339"
       x2="187.57224"
       y2="54.835995"
       gradientUnits="userSpaceOnUse" />
    <linearGradient
       inkscape:collect="always"
       id="linearGradient1761">
      <stop
         style="stop-color:#4f4e4c;stop-opacity:1"
         offset="0"
         id="stop1757" />
      <stop
         style="stop-color:#040404;stop-opacity:1"
         offset="1"
         id="stop1759" />
    </linearGradient>
    <linearGradient
       inkscape:collect="always"
       xlink:href="#linearGradient1776"
       id="linearGradient1778"
       x1="775.23987"
       y1="12.870169"
       x2="775.23987"
       y2="254.36813"
       gradientUnits="userSpaceOnUse" />
    <linearGradient
       inkscape:collect="always"
       id="linearGradient1776">
      <stop
         style="stop-color:#fefdfe;stop-opacity:1;"
         offset="0"
         id="stop1772" />
      <stop
         style="stop-color:#cac8ca;stop-opacity:1"
         offset="1"
         id="stop1774" />
    </linearGradient>
    <radialGradient
       inkscape:collect="always"
       xlink:href="#linearGradient1839"
       id="radialGradient1845"
       gradientUnits="userSpaceOnUse"
       gradientTransform="matrix(0.37063067,0.03415301,-0.07735298,0.83943948,152.28357,-136.60609)"
       cx="170.87483"
       cy="60.217152"
       fx="170.87483"
       fy="60.217152"
       r="11.965272" />
    <linearGradient
       inkscape:collect="always"
       id="linearGradient1839">
      <stop
         style="stop-color:#070707;stop-opacity:1;"
         offset="0"
         id="stop1835" />
      <stop
         style="stop-color:#070707;stop-opacity:0;"
         offset="1"
         id="stop1837" />
    </linearGradient>
    <radialGradient
       inkscape:collect="always"
       xlink:href="#linearGradient1839"
       id="radialGradient1841"
       cx="170.87483"
       cy="60.217152"
       fx="170.87483"
       fy="60.217152"
       r="11.965272"
       gradientTransform="matrix(0.37063067,0.03415301,-0.07735298,0.83943948,145.38767,-90.956697)"
       gradientUnits="userSpaceOnUse" />
    <linearGradient
       inkscape:collect="always"
       xlink:href="#linearGradient3206"
       id="linearGradient3208"
       x1="105.37055"
       y1="46.235207"
       x2="115.14718"
       y2="51.178555"
       gradientUnits="userSpaceOnUse" />
    <linearGradient
       inkscape:collect="always"
       id="linearGradient3206">
      <stop
         style="stop-color:#949494;stop-opacity:1"
         offset="0"
         id="stop3201" />
      <stop
         id="stop3210"
         offset="0.18564586"
         style="stop-color:#d3d6d0;stop-opacity:1" />
      <stop
         style="stop-color:#f1f1f0;stop-opacity:1"
         offset="0.30063844"
         id="stop3212" />
      <stop
         id="stop3214"
         offset="0.43893421"
         style="stop-color:#8d8789;stop-opacity:1" />
      <stop
         style="stop-color:#515351;stop-opacity:1"
         offset="0.57131511"
         id="stop3216" />
      <stop
         id="stop3218"
         offset="0.7386508"
         style="stop-color:#777976;stop-opacity:1" />
      <stop
         style="stop-color:#7f7f7f;stop-opacity:1"
         offset="1"
         id="stop3204" />
    </linearGradient>
    <linearGradient
       inkscape:collect="always"
       xlink:href="#linearGradient3278"
       id="linearGradient3262"
       gradientUnits="userSpaceOnUse"
       x1="95.48378"
       y1="64.344528"
       x2="105.10617"
       y2="68.147102" />
    <linearGradient
       id="linearGradient3278"
       inkscape:collect="always">
      <stop
         id="stop3264"
         offset="0"
         style="stop-color:#e97b79;stop-opacity:1" />
      <stop
         style="stop-color:#e56d67;stop-opacity:1"
         offset="0.13358633"
         id="stop3266" />
      <stop
         id="stop3268"
         offset="0.16765675"
         style="stop-color:#e96a64;stop-opacity:1" />
      <stop
         id="stop3270"
         offset="0.25417659"
         style="stop-color:#ebb7b0;stop-opacity:1" />
      <stop
         id="stop3272"
         offset="0.40596327"
         style="stop-color:#f06b61;stop-opacity:1" />
      <stop
         id="stop3274"
         offset="0.46568662"
         style="stop-color:#e9342a;stop-opacity:1" />
      <stop
         id="stop3276"
         offset="1"
         style="stop-color:#ee584f;stop-opacity:1" />
    </linearGradient>
    <linearGradient
       inkscape:collect="always"
       xlink:href="#linearGradient3233"
       id="linearGradient3235"
       x1="76.172195"
       y1="81.47226"
       x2="84.38752"
       y2="89.817459"
       gradientUnits="userSpaceOnUse"
       gradientTransform="matrix(1.0088717,0,0,1.0009749,-2.0703853,0.73740235)" />
    <linearGradient
       inkscape:collect="always"
       id="linearGradient3233">
      <stop
         style="stop-color:#e5999a;stop-opacity:1"
         offset="0"
         id="stop3229" />
      <stop
         id="stop3237"
         offset="0.13358633"
         style="stop-color:#e39e9e;stop-opacity:1" />
      <stop
         style="stop-color:#e39d9d;stop-opacity:1"
         offset="0.16765675"
         id="stop3246" />
      <stop
         style="stop-color:#ebb7b0;stop-opacity:1"
         offset="0.25417659"
         id="stop3244" />
      <stop
         style="stop-color:#f0b2ac;stop-opacity:1"
         offset="0.40596327"
         id="stop3241" />
      <stop
         style="stop-color:#ed948d;stop-opacity:1"
         offset="0.46568662"
         id="stop3239" />
      <stop
         style="stop-color:#ec746c;stop-opacity:1"
         offset="1"
         id="stop3231" />
    </linearGradient>
    <linearGradient
       inkscape:collect="always"
       xlink:href="#linearGradient3290"
       id="linearGradient3292"
       x1="118.6922"
       y1="-99.924553"
       x2="113.54983"
       y2="-99.924553"
       gradientUnits="userSpaceOnUse" />
    <linearGradient
       inkscape:collect="always"
       id="linearGradient3290">
      <stop
         style="stop-color:#021321;stop-opacity:1;"
         offset="0"
         id="stop3286" />
      <stop
         style="stop-color:#021321;stop-opacity:0;"
         offset="1"
         id="stop3288" />
    </linearGradient>
    <linearGradient
       inkscape:collect="always"
       xlink:href="#linearGradient3290"
       id="linearGradient3315"
       gradientUnits="userSpaceOnUse"
       x1="114.49091"
       y1="-94.883003"
       x2="113.54983"
       y2="-99.924553" />
    <radialGradient
       inkscape:collect="always"
       xlink:href="#linearGradient3337"
       id="radialGradient3341"
       gradientUnits="userSpaceOnUse"
       gradientTransform="matrix(1.0641571,-2.7133484e-7,8.8392048e-8,0.38711955,-7.2282638,-63.705629)"
       cx="112.69923"
       cy="-105.70264"
       fx="112.69923"
       fy="-105.70264"
       r="7.797595" />
    <linearGradient
       inkscape:collect="always"
       id="linearGradient3337">
      <stop
         style="stop-color:#001627;stop-opacity:1"
         offset="0"
         id="stop3333" />
      <stop
         id="stop3347"
         offset="0.67430347"
         style="stop-color:#031f2d;stop-opacity:1;" />
      <stop
         id="stop3367"
         offset="0.72244352"
         style="stop-color:#425761;stop-opacity:0.91764706;" />
      <stop
         id="stop3359"
         offset="0.80559456"
         style="stop-color:#a1acb1;stop-opacity:0.74509804;" />
      <stop
         style="stop-color:#b4bcc1;stop-opacity:0.65882353;"
         offset="0.83185279"
         id="stop3365" />
      <stop
         id="stop3355"
         offset="0.86905193"
         style="stop-color:#d0d5d8;stop-opacity:0.54509804;" />
      <stop
         id="stop3353"
         offset="0.97408479"
         style="stop-color:#ffffff;stop-opacity:0.12941176;" />
      <stop
         style="stop-color:#ffffff;stop-opacity:0"
         offset="1"
         id="stop3335" />
    </linearGradient>
    <radialGradient
       inkscape:collect="always"
       xlink:href="#linearGradient3378"
       id="radialGradient3382"
       gradientUnits="userSpaceOnUse"
       gradientTransform="matrix(6.0899402,0.10056087,-0.19139649,11.590922,-609.83432,719.10631)"
       cx="158.31892"
       cy="-101.71404"
       fx="158.31892"
       fy="-101.71404"
       r="6.9220586" />
    <linearGradient
       inkscape:collect="always"
       id="linearGradient3378">
      <stop
         style="stop-color:#040921;stop-opacity:0"
         offset="0"
         id="stop3374" />
      <stop
         id="stop3392"
         offset="0.49486905"
         style="stop-color:#040921;stop-opacity:0;" />
      <stop
         style="stop-color:#040921;stop-opacity:0.31764706;"
         offset="0.65877223"
         id="stop3390" />
      <stop
         style="stop-color:#040921;stop-opacity:0.76470588;"
         offset="0.76591176"
         id="stop3388" />
      <stop
         style="stop-color:#040921;stop-opacity:1"
         offset="1"
         id="stop3376" />
    </linearGradient>
    <linearGradient
       inkscape:collect="always"
       xlink:href="#linearGradient1591"
       id="linearGradient1593"
       x1="393.69342"
       y1="-409.88098"
       x2="392.84286"
       y2="-427.84592"
       gradientUnits="userSpaceOnUse" />
    <linearGradient
       inkscape:collect="always"
       id="linearGradient1591">
      <stop
         style="stop-color:#041117;stop-opacity:1;"
         offset="0"
         id="stop1587" />
      <stop
         style="stop-color:#041117;stop-opacity:0;"
         offset="1"
         id="stop1589" />
    </linearGradient>
  </defs>
  <sodipodi:namedview
     id="base"
     pagecolor="#ffffff"
     bordercolor="#666666"
     borderopacity="1.0"
     inkscape:pageopacity="0.0"
     inkscape:pageshadow="2"
     inkscape:zoom="2.8"
     inkscape:cx="117.7535"
     inkscape:cy="86.568543"
     inkscape:document-units="mm"
     inkscape:current-layer="layer1"
     inkscape:document-rotation="0"
     showgrid="false"
     units="px"
     inkscape:window-width="1514"
     inkscape:window-height="941"
     inkscape:window-x="50"
     inkscape:window-y="27"
     inkscape:window-maximized="0" />
  <metadata
     id="metadata1795">
    <rdf:RDF>
      <cc:Work
         rdf:about="">
        <dc:format>image/svg+xml</dc:format>
        <dc:type
           rdf:resource="http://purl.org/dc/dcmitype/StillImage" />
        <dc:title></dc:title>
      </cc:Work>
    </rdf:RDF>
  </metadata>
  <g
     inkscape:label="Capa 1"
     inkscape:groupmode="layer"
     id="layer1">
    <g
       style="opacity:0.295"
       transform="matrix(0.97573206,0,0,0.97573206,-65.71231,-37.141952)"
       id="g1702">
      <rect
         ry="6.6098609"
         rx="6.6098609"
         y="40.709618"
         x="69.839508"
         height="29.810888"
         width="29.810888"
         id="rect1634"
         style="fill:none;fill-opacity:1;stroke:#000000;stroke-width:0.1;stroke-linecap:round;stroke-linejoin:round;stroke-miterlimit:4;stroke-dasharray:none;stroke-opacity:0.02" />
      <rect
         style="fill:none;fill-opacity:1;stroke:#000000;stroke-width:0.2;stroke-linecap:round;stroke-linejoin:round;stroke-miterlimit:4;stroke-dasharray:none;stroke-opacity:0.02"
         id="rect1638"
         width="29.810888"
         height="29.810888"
         x="69.839508"
         y="40.709618"
         rx="6.6098609"
         ry="6.6098609" />
      <rect
         ry="6.6098609"
         rx="6.6098609"
         y="40.709618"
         x="69.839508"
         height="29.810888"
         width="29.810888"
         id="rect1640"
         style="fill:none;fill-opacity:1;stroke:#000000;stroke-width:0.3;stroke-linecap:round;stroke-linejoin:round;stroke-miterlimit:4;stroke-dasharray:none;stroke-opacity:0.02" />
      <rect
         style="fill:none;fill-opacity:1;stroke:#000000;stroke-width:0.4;stroke-linecap:round;stroke-linejoin:round;stroke-miterlimit:4;stroke-dasharray:none;stroke-opacity:0.02"
         id="rect1642"
         width="29.810888"
         height="29.810888"
         x="69.839508"
         y="40.709618"
         rx="6.6098609"
         ry="6.6098609" />
      <rect
         ry="6.6098609"
         rx="6.6098609"
         y="40.709618"
         x="69.839508"
         height="29.810888"
         width="29.810888"
         id="rect1644"
         style="fill:none;fill-opacity:1;stroke:#000000;stroke-width:0.5;stroke-linecap:round;stroke-linejoin:round;stroke-miterlimit:4;stroke-dasharray:none;stroke-opacity:0.02" />
      <rect
         style="fill:none;fill-opacity:1;stroke:#000000;stroke-width:0.6;stroke-linecap:round;stroke-linejoin:round;stroke-miterlimit:4;stroke-dasharray:none;stroke-opacity:0.02"
         id="rect1646"
         width="29.810888"
         height="29.810888"
         x="69.839508"
         y="40.709618"
         rx="6.6098609"
         ry="6.6098609" />
      <rect
         ry="6.6098609"
         rx="6.6098609"
         y="40.709618"
         x="69.839508"
         height="29.810888"
         width="29.810888"
         id="rect1648"
         style="fill:none;fill-opacity:1;stroke:#000000;stroke-width:0.7;stroke-linecap:round;stroke-linejoin:round;stroke-miterlimit:4;stroke-dasharray:none;stroke-opacity:0.02" />
      <rect
         style="fill:none;fill-opacity:1;stroke:#000000;stroke-width:0.8;stroke-linecap:round;stroke-linejoin:round;stroke-miterlimit:4;stroke-dasharray:none;stroke-opacity:0.02"
         id="rect1650"
         width="29.810888"
         height="29.810888"
         x="69.839508"
         y="40.709618"
         rx="6.6098609"
         ry="6.6098609" />
      <rect
         ry="6.6098609"
         rx="6.6098609"
         y="40.709618"
         x="69.839508"
         height="29.810888"
         width="29.810888"
         id="rect1652"
         style="fill:none;fill-opacity:1;stroke:#000000;stroke-width:1;stroke-linecap:round;stroke-linejoin:round;stroke-miterlimit:4;stroke-dasharray:none;stroke-opacity:0.02" />
      <rect
         style="fill:none;fill-opacity:1;stroke:#000000;stroke-width:1.2;stroke-linecap:round;stroke-linejoin:round;stroke-miterlimit:4;stroke-dasharray:none;stroke-opacity:0.02"
         id="rect1654"
         width="29.810888"
         height="29.810888"
         x="69.839508"
         y="40.709618"
         rx="6.6098609"
         ry="6.6098609" />
      <rect
         ry="6.6098609"
         rx="6.6098609"
         y="40.709618"
         x="69.839508"
         height="29.810888"
         width="29.810888"
         id="rect1656"
         style="fill:none;fill-opacity:1;stroke:#000000;stroke-width:1.4;stroke-linecap:round;stroke-linejoin:round;stroke-miterlimit:4;stroke-dasharray:none;stroke-opacity:0.02" />
      <rect
         style="fill:none;fill-opacity:1;stroke:#000000;stroke-width:1.6;stroke-linecap:round;stroke-linejoin:round;stroke-miterlimit:4;stroke-dasharray:none;stroke-opacity:0.02"
         id="rect1658"
         width="29.810888"
         height="29.810888"
         x="69.839508"
         y="40.709618"
         rx="6.6098609"
         ry="6.6098609" />
      <rect
         ry="6.6098609"
         rx="6.6098609"
         y="40.709618"
         x="69.839508"
         height="29.810888"
         width="29.810888"
         id="rect1660"
         style="fill:none;fill-opacity:1;stroke:#000000;stroke-width:1.8;stroke-linecap:round;stroke-linejoin:round;stroke-miterlimit:4;stroke-dasharray:none;stroke-opacity:0.02" />
      <rect
         style="fill:none;fill-opacity:1;stroke:#000000;stroke-width:2;stroke-linecap:round;stroke-linejoin:round;stroke-miterlimit:4;stroke-dasharray:none;stroke-opacity:0.02"
         id="rect1662"
         width="29.810888"
         height="29.810888"
         x="69.839508"
         y="40.709618"
         rx="6.6098609"
         ry="6.6098609" />
      <rect
         ry="6.6098609"
         rx="6.6098609"
         y="40.709618"
         x="69.839508"
         height="29.810888"
         width="29.810888"
         id="rect1664"
         style="fill:none;fill-opacity:1;stroke:#000000;stroke-width:2.2;stroke-linecap:round;stroke-linejoin:round;stroke-miterlimit:4;stroke-dasharray:none;stroke-opacity:0.02" />
      <rect
         style="fill:none;fill-opacity:1;stroke:#000000;stroke-width:2.6;stroke-linecap:round;stroke-linejoin:round;stroke-miterlimit:4;stroke-dasharray:none;stroke-opacity:0.02"
         id="rect1666"
         width="29.810888"
         height="29.810888"
         x="69.839508"
         y="40.709618"
         rx="6.6098609"
         ry="6.6098609" />
      <rect
         ry="6.6098609"
         rx="6.6098609"
         y="40.709618"
         x="69.839508"
         height="29.810888"
         width="29.810888"
         id="rect1668"
         style="fill:none;fill-opacity:1;stroke:#000000;stroke-width:3;stroke-linecap:round;stroke-linejoin:round;stroke-miterlimit:4;stroke-dasharray:none;stroke-opacity:0.02" />
      <rect
         style="fill:none;fill-opacity:1;stroke:#000000;stroke-width:3.4;stroke-linecap:round;stroke-linejoin:round;stroke-miterlimit:4;stroke-dasharray:none;stroke-opacity:0.02"
         id="rect1670"
         width="29.810888"
         height="29.810888"
         x="69.839508"
         y="40.709618"
         rx="6.6098609"
         ry="6.6098609" />
      <rect
         ry="6.6098609"
         rx="6.6098609"
         y="40.709618"
         x="69.839508"
         height="29.810888"
         width="29.810888"
         id="rect1672"
         style="fill:none;fill-opacity:1;stroke:#000000;stroke-width:3.8;stroke-linecap:round;stroke-linejoin:round;stroke-miterlimit:4;stroke-dasharray:none;stroke-opacity:0.02" />
      <rect
         style="fill:none;fill-opacity:1;stroke:#000000;stroke-width:4.2;stroke-linecap:round;stroke-linejoin:round;stroke-miterlimit:4;stroke-dasharray:none;stroke-opacity:0.02"
         id="rect1674"
         width="29.810888"
         height="29.810888"
         x="69.839508"
         y="40.709618"
         rx="6.6098609"
         ry="6.6098609" />
      <rect
         ry="6.6098609"
         rx="6.6098609"
         y="40.709618"
         x="69.839508"
         height="29.810888"
         width="29.810888"
         id="rect1676"
         style="fill:none;fill-opacity:1;stroke:#000000;stroke-width:4.6;stroke-linecap:round;stroke-linejoin:round;stroke-miterlimit:4;stroke-dasharray:none;stroke-opacity:0.02" />
      <rect
         style="fill:none;fill-opacity:1;stroke:#000000;stroke-width:5;stroke-linecap:round;stroke-linejoin:round;stroke-miterlimit:4;stroke-dasharray:none;stroke-opacity:0.02"
         id="rect1678"
         width="29.810888"
         height="29.810888"
         x="69.839508"
         y="40.709618"
         rx="6.6098609"
         ry="6.6098609" />
    </g>
    <rect
       ry="6.4494534"
       rx="6.4494534"
       y="2.5797293"
       x="2.4323411"
       height="29.08744"
       width="29.08744"
       id="rect849"
       style="fill:url(#linearGradient4292);fill-opacity:1;stroke-width:2.68801;stroke-linecap:round;stroke-linejoin:round;stroke-miterlimit:4;stroke-dasharray:none" />
    <g
       id="g1880"
       transform="matrix(0.37435851,0,0,0.37435851,-61.03803,3.6952707)">
      <g
         id="g1792">
        <g
           id="g1753"
           transform="translate(24.312421,11.339567)">
          <g
             transform="translate(0.42834165,4.6993858)"
             id="g1687">
            <circle
               style="opacity:1;fill:url(#linearGradient1629);fill-opacity:1;stroke:none;stroke-width:1.46033;stroke-miterlimit:4;stroke-dasharray:none;stroke-opacity:1"
               id="path1621"
               cx="183.75934"
               cy="18.751444"
               r="32.036678" />
            <circle
               r="32.036678"
               cy="18.751444"
               cx="183.75934"
               id="circle1631"
               style="opacity:1;fill:url(#linearGradient1633);fill-opacity:1;stroke:none;stroke-width:1.46033;stroke-miterlimit:4;stroke-dasharray:none;stroke-opacity:1" />
            <circle
               style="opacity:1;fill:url(#linearGradient1643);fill-opacity:1;stroke:none;stroke-width:1.46033;stroke-miterlimit:4;stroke-dasharray:none;stroke-opacity:1"
               id="circle1641"
               cx="183.75934"
               cy="18.751444"
               r="32.036678" />
            <circle
               r="32.036678"
               cy="18.751444"
               cx="183.75934"
               id="circle1651"
               style="opacity:1;fill:url(#radialGradient1659);fill-opacity:1;stroke:none;stroke-width:1.46033;stroke-miterlimit:4;stroke-dasharray:none;stroke-opacity:1" />
            <circle
               style="opacity:1;fill:url(#radialGradient1669);fill-opacity:1;stroke:none;stroke-width:1.46033;stroke-miterlimit:4;stroke-dasharray:none;stroke-opacity:1"
               id="circle1661"
               cx="183.75934"
               cy="18.751444"
               r="32.036678" />
            <circle
               r="32.036678"
               cy="18.751444"
               cx="183.75934"
               id="circle1671"
               style="opacity:1;fill:url(#radialGradient1679);fill-opacity:1;stroke:none;stroke-width:1.46033;stroke-miterlimit:4;stroke-dasharray:none;stroke-opacity:1" />
          </g>
          <path
             inkscape:connector-curvature="0"
             id="rect1689"
             d="m 180.80313,-7.9343348 -1.37924,0.179835 3.62561,27.8473948 -14.05702,-24.311177 -1.20406,0.696082 14.03739,24.27707 -22.22087,-17.107481 -0.84801,1.1022569 22.21467,17.1028321 -27.04745,-7.379911 -0.36638,1.341003 27.05467,7.381978 -27.82775,3.47059 0.17208,1.379759 27.86806,-3.475238 -24.38765,13.92628 0.68884,1.207677 24.35304,-13.906642 -17.22686,22.128363 1.09658,0.854212 17.28318,-22.200195 -7.2595,27.181802 1.34307,0.359153 7.23625,-27.093954 3.62045,27.808639 1.37872,-0.179319 -3.6251,-27.848946 14.05702,24.312213 1.20406,-0.695565 -14.03738,-24.277587 22.22086,17.107481 0.84802,-1.101224 -22.21519,-17.104381 27.04745,7.380427 0.36638,-1.341519 -27.05416,-7.381981 27.82776,-3.470071 -0.1726,-1.380279 -27.86651,3.475758 24.38662,-13.92628 -0.68936,-1.20768 -24.35252,13.906645 17.22685,-22.128365 -1.0976,-0.85421 -17.28163,22.198643 7.25898,-27.1797348 -1.34358,-0.359153 -7.23626,27.0934388 z"
             style="opacity:1;fill:url(#linearGradient1706);fill-opacity:1;stroke:none;stroke-width:1.3;stroke-miterlimit:4;stroke-dasharray:none;stroke-opacity:1" />
          <circle
             r="21.712265"
             cy="23.45083"
             cx="184.18768"
             id="path1708"
             style="opacity:1;fill:url(#linearGradient1716);fill-opacity:1;stroke:none;stroke-width:1.3;stroke-miterlimit:4;stroke-dasharray:none;stroke-opacity:1" />
          <path
             inkscape:connector-curvature="0"
             id="path1718"
             d="M 184.18768,-8.3480036 A 31.799019,31.799019 0 0 0 152.38859,23.45057 31.799019,31.799019 0 0 0 184.18768,55.249663 31.799019,31.799019 0 0 0 215.98677,23.45057 31.799019,31.799019 0 0 0 184.18768,-8.3480036 Z m 0,2.186429 A 29.612539,29.612539 0 0 1 213.80034,23.45057 29.612539,29.612539 0 0 1 184.18768,53.063234 29.612539,29.612539 0 0 1 154.57502,23.45057 29.612539,29.612539 0 0 1 184.18768,-6.1615746 Z"
             style="opacity:1;fill:url(#linearGradient1763);fill-opacity:1;stroke:none;stroke-width:1.64094;stroke-miterlimit:4;stroke-dasharray:none;stroke-opacity:1" />
        </g>
        <path
           style="color:#000000;font-style:normal;font-variant:normal;font-weight:normal;font-stretch:normal;font-size:medium;line-height:normal;font-family:sans-serif;font-variant-ligatures:normal;font-variant-position:normal;font-variant-caps:normal;font-variant-numeric:normal;font-variant-alternates:normal;font-feature-settings:normal;text-indent:0;text-align:start;text-decoration:none;text-decoration-line:none;text-decoration-style:solid;text-decoration-color:#000000;letter-spacing:normal;word-spacing:normal;text-transform:none;writing-mode:lr-tb;direction:ltr;text-orientation:mixed;dominant-baseline:auto;baseline-shift:baseline;text-anchor:start;white-space:normal;shape-padding:0;clip-rule:nonzero;display:inline;overflow:visible;visibility:visible;opacity:1;isolation:auto;mix-blend-mode:normal;color-interpolation:sRGB;color-interpolation-filters:linearRGB;solid-color:#000000;solid-opacity:1;vector-effect:none;fill:url(#linearGradient1778);fill-opacity:1;fill-rule:nonzero;stroke:none;stroke-width:26.4567;stroke-linecap:butt;stroke-linejoin:miter;stroke-miterlimit:4;stroke-dasharray:none;stroke-dashoffset:0;stroke-opacity:1;color-rendering:auto;image-rendering:auto;shape-rendering:auto;text-rendering:auto;enable-background:accumulate"
           d="m 788.03125,0.05078125 c -72.03734,0 -130.71875,58.68140075 -130.71875,130.71874875 0,72.03735 58.68141,130.71875 130.71875,130.71875 72.03734,0 130.71875,-58.6814 130.71875,-130.71875 C 918.75,58.732182 860.06859,0.05078125 788.03125,0.05078125 Z m 0,11.25585975 c 66.37594,-1.55e-4 120.18462,53.807644 120.18555,120.183589 1.5e-4,66.37671 -53.80884,120.1857 -120.18555,120.18555 -66.37671,1.5e-4 -120.1857,-53.80884 -120.18555,-120.18555 9.3e-4,-66.375945 53.80961,-120.183744 120.18555,-120.183589 z"
           transform="scale(0.26458333)"
           id="path1765"
           inkscape:connector-curvature="0"
           sodipodi:nodetypes="sssssccccc" />
      </g>
      <ellipse
         style="opacity:0.444;fill:url(#radialGradient1845);fill-opacity:1;stroke:none;stroke-width:7;stroke-miterlimit:4;stroke-dasharray:none;stroke-opacity:1"
         id="ellipse1843"
         cx="210.95705"
         cy="-80.221558"
         rx="11.965272"
         ry="21.241718"
         transform="rotate(24.903455)" />
      <ellipse
         transform="rotate(24.903455)"
         ry="21.241718"
         rx="11.965272"
         cy="-34.572155"
         cx="204.06116"
         id="path1823"
         style="opacity:0.444;fill:url(#radialGradient1841);fill-opacity:1;stroke:none;stroke-width:7;stroke-miterlimit:4;stroke-dasharray:none;stroke-opacity:1" />
      <g
         transform="translate(105.13377,-25.003172)"
         id="g1811">
        <g
           id="g1619">
          <path
             sodipodi:nodetypes="scccccccccccccs"
             inkscape:connector-curvature="0"
             id="rect3180"
             d="m 112.70494,36.936558 c -2.07174,-0.101148 -4.14421,1.066612 -5.1878,3.133142 l -2.99403,5.928779 -10.211881,20.221562 c -0.414062,0.819928 -0.618001,1.686129 -0.631465,2.533187 -0.0026,5.517391 -0.304133,7.999677 -3.08097,13.498393 -0.248642,0.492361 -0.05208,1.088745 0.440283,1.337387 l 1.505333,0.760159 c 0.492361,0.248642 1.088747,0.05259 1.337387,-0.439767 2.270932,-5.922441 5.043427,-8.062227 8.844343,-10.817775 0.59766,-0.494588 1.10949,-1.124191 1.48681,-1.871372 L 117.41886,45.07043 c 1.39146,-2.755375 0.41077,-6.034428 -2.19831,-7.352007 L 114.7384,37.47451 c -0.65227,-0.329395 -1.34288,-0.504236 -2.03346,-0.537952 z"
             style="opacity:1;fill:url(#linearGradient3208);fill-opacity:1;stroke:#000000;stroke-width:6.4;stroke-miterlimit:4;stroke-dasharray:none;stroke-opacity:0.00784314" />
          <path
             inkscape:connector-curvature="0"
             id="path3226"
             d="m 111.37522,57.037822 c -4.26357,1.049399 -11.396632,2.789495 -14.123164,3.357936 l -2.940907,5.82445 c -0.414059,0.819928 -0.618021,1.686121 -0.631486,2.533179 -0.0026,5.517391 -0.30411,7.999685 -3.080949,13.498401 -0.248642,0.492361 -0.05208,1.088745 0.440286,1.337387 l 1.505333,0.760158 c 0.492361,0.248643 1.088747,0.05259 1.337387,-0.439766 2.270932,-5.922441 5.043503,-8.062397 8.84442,-10.817942 0.59766,-0.494588 1.10941,-1.124024 1.48673,-1.871205 z"
             style="opacity:1;fill:url(#linearGradient3262);fill-opacity:1;stroke:#000000;stroke-width:6.4;stroke-miterlimit:4;stroke-dasharray:none;stroke-opacity:0.00784314" />
          <ellipse
             transform="matrix(0.96015534,-0.27946685,0.32016062,0.94736328,0,0)"
             ry="2.0825095"
             rx="7.3039188"
             cy="85.549728"
             cx="80.146042"
             id="path3224"
             style="opacity:1;fill:url(#linearGradient3235);fill-opacity:1;stroke:none;stroke-width:1.49447;stroke-miterlimit:4;stroke-dasharray:none;stroke-opacity:1" />
          <path
             inkscape:connector-curvature="0"
             transform="scale(0.26458333)"
             id="path3194"
             d="m 424.50391,139.58789 c -7.32689,0.1985 -14.44287,4.53507 -18.14063,11.85742 l -49.91211,98.83594 c -1.56496,3.09894 -2.33583,6.37274 -2.38672,9.57422 -0.01,20.85313 -1.1494,30.23503 -11.64453,51.01758 -0.93975,1.86089 -0.19684,4.11494 1.66406,5.05468 l 5.68946,2.87305 c 1.86089,0.93975 4.11494,0.19877 5.05468,-1.66211 8.58306,-22.38403 19.06207,-30.47205 33.42774,-40.88672 2.25887,-1.86931 4.19305,-4.24827 5.61914,-7.07226 l 49.91211,-98.83399 c 5.25906,-10.41401 1.5525,-22.80728 -8.30859,-27.78711 l -1.82227,-0.92187 c -2.46527,-1.24496 -5.07548,-1.90577 -7.68555,-2.0332 -0.48938,-0.0239 -0.97833,-0.0289 -1.46679,-0.0156 z m 0.0684,2.45508 c 0.42692,-0.0116 0.85433,-0.007 1.28125,0.0137 2.27656,0.11116 4.54064,0.68337 6.69531,1.77148 l 1.82422,0.92383 c 8.61823,4.35217 11.91489,15.18503 7.21875,24.48438 l -49.90821,98.83789 c -1.27177,2.51846 -2.98501,4.62656 -4.98242,6.28125 -0.003,0.002 -0.004,0.006 -0.008,0.008 -14.28742,10.36219 -25.36377,19.09478 -34.07617,41.69531 -0.35068,0.6631 -1.05905,0.89182 -1.73438,0.55079 l -5.6914,-2.8711 c -0.68476,-0.34579 -0.92124,-1.07451 -0.57618,-1.75781 10.58952,-20.96945 11.89652,-31.17352 11.90821,-52.08594 0.0451,-2.83392 0.71975,-5.73669 2.11718,-8.50391 l 49.91797,-98.83593 c 3.30205,-6.53878 9.60974,-10.33735 16.01368,-10.51172 z"
             style="color:#000000;font-style:normal;font-variant:normal;font-weight:normal;font-stretch:normal;font-size:medium;line-height:normal;font-family:sans-serif;font-variant-ligatures:normal;font-variant-position:normal;font-variant-caps:normal;font-variant-numeric:normal;font-variant-alternates:normal;font-feature-settings:normal;text-indent:0;text-align:start;text-decoration:none;text-decoration-line:none;text-decoration-style:solid;text-decoration-color:#000000;letter-spacing:normal;word-spacing:normal;text-transform:none;writing-mode:lr-tb;direction:ltr;text-orientation:mixed;dominant-baseline:auto;baseline-shift:baseline;text-anchor:start;white-space:normal;shape-padding:0;clip-rule:nonzero;display:inline;overflow:visible;visibility:visible;opacity:1;isolation:auto;mix-blend-mode:normal;color-interpolation:sRGB;color-interpolation-filters:linearRGB;solid-color:#000000;solid-opacity:1;vector-effect:none;fill:#ffffff;fill-opacity:0.771739;fill-rule:nonzero;stroke:none;stroke-width:4.91339;stroke-linecap:butt;stroke-linejoin:miter;stroke-miterlimit:4;stroke-dasharray:none;stroke-dashoffset:0;stroke-opacity:1;color-rendering:auto;image-rendering:auto;shape-rendering:auto;text-rendering:auto;enable-background:accumulate" />
        </g>
        <g
           id="g1613"
           transform="rotate(26.606974,-212.48649,-10.085683)">
          <g
             transform="translate(-10.55214,-8.3656609)"
             id="g3406">
            <path
               style="opacity:1;fill:#0b2536;fill-opacity:1;stroke:none;stroke-width:1.3;stroke-miterlimit:4;stroke-dasharray:none;stroke-opacity:1"
               d="m 105.97157,-104.41829 c 4.53817,-1.49486 9.07634,-1.1264 13.61451,0.0951 0.47258,0.12719 0.95469,0.60788 0.95469,1.09728 v 5.358613 c 0,0.489397 -0.4149,0.741856 -0.88339,0.883389 -5.24274,1.583865 -9.51268,0.8041 -13.82841,0 -0.48112,-0.08964 -0.88339,-0.393992 -0.88339,-0.883389 v -5.358613 c 0,-0.4894 0.56115,-1.03923 1.02599,-1.19235 z"
               id="rect3280"
               inkscape:connector-curvature="0"
               sodipodi:nodetypes="sssssssss" />
            <path
               sodipodi:nodetypes="sssssssss"
               inkscape:connector-curvature="0"
               id="path3284"
               d="m 105.97157,-104.41829 c 4.53817,-1.49486 9.07634,-1.1264 13.61451,0.0951 0.47258,0.12719 0.95469,0.60788 0.95469,1.09728 v 5.358613 c 0,0.489397 -0.4149,0.741856 -0.88339,0.883389 -5.24274,1.583865 -9.51268,0.8041 -13.82841,0 -0.48112,-0.08964 -0.88339,-0.393992 -0.88339,-0.883389 v -5.358613 c 0,-0.4894 0.56115,-1.03923 1.02599,-1.19235 z"
               style="opacity:1;fill:url(#linearGradient3292);fill-opacity:1;stroke:none;stroke-width:1.3;stroke-miterlimit:4;stroke-dasharray:none;stroke-opacity:1" />
            <path
               style="opacity:1;fill:url(#linearGradient3315);fill-opacity:1;stroke:none;stroke-width:1.3;stroke-miterlimit:4;stroke-dasharray:none;stroke-opacity:1"
               d="m 105.97157,-104.41829 c 4.53817,-1.49486 9.07634,-1.1264 13.61451,0.0951 0.47258,0.12719 0.95469,0.60788 0.95469,1.09728 v 5.358613 c 0,0.489397 -0.4149,0.741856 -0.88339,0.883389 -5.24274,1.583865 -9.51268,0.8041 -13.82841,0 -0.48112,-0.08964 -0.88339,-0.393992 -0.88339,-0.883389 v -5.358613 c 0,-0.4894 0.56115,-1.03923 1.02599,-1.19235 z"
               id="path3313"
               inkscape:connector-curvature="0"
               sodipodi:nodetypes="sssssssss" />
            <path
               sodipodi:nodetypes="sssssssss"
               inkscape:connector-curvature="0"
               id="path3317"
               d="m 105.97157,-104.41829 c 4.53817,-1.49486 9.07634,-1.1264 13.61451,0.0951 0.47258,0.12719 0.95469,0.60788 0.95469,1.09728 v 5.358613 c 0,0.489397 -0.4149,0.741856 -0.88339,0.883389 -5.24274,1.583865 -9.51268,0.8041 -13.82841,0 -0.48112,-0.08964 -0.88339,-0.393992 -0.88339,-0.883389 v -5.358613 c 0,-0.4894 0.56115,-1.03923 1.02599,-1.19235 z"
               style="opacity:0.154;fill:url(#radialGradient3341);fill-opacity:1;stroke:none;stroke-width:1.3;stroke-miterlimit:4;stroke-dasharray:none;stroke-opacity:1" />
          </g>
          <g
             transform="translate(-0.53025451)"
             id="g1600">
            <g
               id="g3400"
               transform="translate(-59.228751,-17.275363)">
              <path
                 inkscape:connector-curvature="0"
                 style="opacity:1;fill:#183446;fill-opacity:1;stroke:none;stroke-width:4.91339;stroke-miterlimit:4;stroke-dasharray:none;stroke-opacity:1"
                 d="m 388.20703,-511.45117 c -14.43122,0 -27.29006,11.67109 -26.04883,26.04883 l 2.90039,33.58007 c 0.86338,10.00088 1.05847,20.04202 2.03516,29.96875 13.41088,4.55449 27.12074,3.11753 40.53125,-0.22851 0.81949,-9.85218 1.01889,-20.90678 2.85742,-31.00391 l 3.77539,-32.3164 c 1.67403,-14.33379 -11.6196,-26.04883 -26.05078,-26.04883 z"
                 transform="matrix(0.26458333,0,0,0.26458333,59.228751,17.275363)"
                 id="rect3369" />
              <path
                 inkscape:connector-curvature="0"
                 style="opacity:1;fill:url(#radialGradient3382);fill-opacity:1;stroke:none;stroke-width:4.91339;stroke-miterlimit:4;stroke-dasharray:none;stroke-opacity:1"
                 d="m 388.20703,-511.45117 c -14.43122,0 -27.29006,11.67109 -26.04883,26.04883 l 2.90039,33.58007 c 0.86338,10.00088 1.05847,20.04202 2.03516,29.96875 2.36312,0.80255 4.73487,1.41047 7.11328,1.86329 0.21475,0.0408 0.42969,0.0848 0.64453,0.12304 0.66256,0.1179 1.32687,0.21919 1.99024,0.3125 0.22272,0.0313 0.44516,0.0632 0.66797,0.0918 0.68134,0.0876 1.36291,0.16551 2.04492,0.22851 0.17632,0.0163 0.35293,0.0283 0.52929,0.043 0.73045,0.0609 1.46044,0.11419 2.19141,0.14844 2.48292,0.11635 4.96887,0.0799 7.45313,-0.0781 0.0755,-0.005 0.15108,-0.007 0.22656,-0.0117 0.72364,-0.0482 1.44658,-0.11105 2.16992,-0.17969 0.18679,-0.0178 0.37378,-0.0337 0.56055,-0.0527 0.70814,-0.0722 1.41541,-0.1539 2.12304,-0.24415 0.14975,-0.0191 0.29951,-0.0387 0.44922,-0.0586 0.75165,-0.0998 1.50308,-0.20567 2.25391,-0.32422 0.003,-4.1e-4 0.005,-0.002 0.008,-0.002 0.0117,-0.002 0.0235,-0.004 0.0352,-0.006 3.36892,-0.5335 6.7293,-1.24842 10.07031,-2.08203 0.81949,-9.85218 1.01889,-20.90678 2.85742,-31.00391 l 3.77539,-32.3164 c 1.67403,-14.33379 -11.6196,-26.04883 -26.05078,-26.04883 z"
                 transform="matrix(0.26458333,0,0,0.26458333,59.228751,17.275363)"
                 id="path3372" />
              <path
                 sodipodi:nodetypes="scccs"
                 inkscape:connector-curvature="0"
                 id="path3394"
                 d="m 159.78344,-110.89297 c 0.0282,2.17117 -0.52767,3.19299 -0.73943,15.225481 -0.14454,-13.847461 -1.68052,-13.644601 -1.74774,-15.225481 0,-2.3203 1.33431,-4.40294 2.15106,-4.40295 0.81675,-1e-5 0.30726,2.17834 0.33611,4.40295 z"
                 style="opacity:1;fill:#ffffff;fill-opacity:0.0869565;stroke:none;stroke-width:1.3;stroke-miterlimit:4;stroke-dasharray:none;stroke-opacity:1" />
              <path
                 inkscape:connector-curvature="0"
                 id="path1585"
                 transform="matrix(0.26458333,0,0,0.26458333,59.228751,17.275363)"
                 d="m 388.20703,-511.45117 c -14.43122,0 -27.29006,11.67109 -26.04883,26.04883 l 2.90039,33.58007 c 0.86338,10.00088 1.05847,20.04202 2.03516,29.96875 2.36312,0.80255 4.73487,1.41047 7.11328,1.86329 0.21475,0.0408 0.42969,0.0848 0.64453,0.12304 0.66256,0.1179 1.32687,0.21919 1.99024,0.3125 0.22272,0.0313 0.44516,0.0632 0.66797,0.0918 0.68134,0.0876 1.36291,0.16551 2.04492,0.22851 0.17632,0.0163 0.35293,0.0283 0.52929,0.043 0.73045,0.0609 1.46044,0.11419 2.19141,0.14844 2.48292,0.11635 4.96887,0.0799 7.45313,-0.0781 0.0755,-0.005 0.15108,-0.007 0.22656,-0.0117 0.72364,-0.0482 1.44658,-0.11105 2.16992,-0.17969 0.18679,-0.0178 0.37378,-0.0337 0.56055,-0.0527 0.70814,-0.0722 1.41541,-0.1539 2.12304,-0.24415 0.14975,-0.0191 0.29951,-0.0387 0.44922,-0.0586 0.75165,-0.0998 1.50308,-0.20567 2.25391,-0.32422 0.003,-4.1e-4 0.005,-0.002 0.008,-0.002 0.0117,-0.002 0.0235,-0.004 0.0352,-0.006 3.36892,-0.5335 6.7293,-1.24842 10.07031,-2.08203 0.81949,-9.85218 1.01889,-20.90678 2.85742,-31.00391 l 3.77539,-32.3164 c 1.67403,-14.33379 -11.6196,-26.04883 -26.05078,-26.04883 z"
                 style="opacity:1;fill:url(#linearGradient1593);fill-opacity:1;stroke:none;stroke-width:4.91339;stroke-miterlimit:4;stroke-dasharray:none;stroke-opacity:1" />
            </g>
          </g>
        </g>
      </g>
    </g>
  </g>
</svg>
