<?xml version="1.0" encoding="UTF-8" standalone="no"?>
<svg
   xmlns:dc="http://purl.org/dc/elements/1.1/"
   xmlns:cc="http://creativecommons.org/ns#"
   xmlns:rdf="http://www.w3.org/1999/02/22-rdf-syntax-ns#"
   xmlns:svg="http://www.w3.org/2000/svg"
   xmlns="http://www.w3.org/2000/svg"
   xmlns:xlink="http://www.w3.org/1999/xlink"
   xmlns:sodipodi="http://sodipodi.sourceforge.net/DTD/sodipodi-0.dtd"
   xmlns:inkscape="http://www.inkscape.org/namespaces/inkscape"
   width="128"
   height="128"
   viewBox="0 0 33.866666 33.866668"
   version="1.1"
   id="svg1410"
   inkscape:version="1.0.1 (3bc2e813f5, 2020-09-07)"
   sodipodi:docname="amazonmp3.svg">
  <defs
     id="defs1404">
    <linearGradient
       gradientUnits="userSpaceOnUse"
       y2="3.7556896"
       x2="18.498837"
       y1="30.088703"
       x1="18.498837"
       id="linearGradient1343"
       xlink:href="#linearGradient1341"
       inkscape:collect="always"
       gradientTransform="translate(-0.06103848,-0.05900001)" />
    <linearGradient
       id="linearGradient1341"
       inkscape:collect="always">
      <stop
         id="stop1337"
         offset="0"
         style="stop-color:#f2f0ec;stop-opacity:1" />
      <stop
         id="stop1339"
         offset="1"
         style="stop-color:#f8f9f9;stop-opacity:1" />
    </linearGradient>
    <linearGradient
       inkscape:collect="always"
       xlink:href="#linearGradient4313"
       id="linearGradient2518"
       gradientUnits="userSpaceOnUse"
       x1="11.819651"
       y1="28.381721"
       x2="11.819651"
       y2="10.311604"
       gradientTransform="translate(-0.12998348,-1.3285411)" />
    <linearGradient
       id="linearGradient4313"
       inkscape:collect="always">
      <stop
         id="stop4315"
         offset="0"
         style="stop-color:#df7a0a;stop-opacity:1" />
      <stop
         id="stop4317"
         offset="1"
         style="stop-color:#f4b84e;stop-opacity:1" />
    </linearGradient>
  </defs>
  <sodipodi:namedview
     id="base"
     pagecolor="#ffffff"
     bordercolor="#666666"
     borderopacity="1.0"
     inkscape:pageopacity="0.0"
     inkscape:pageshadow="2"
     inkscape:zoom="1.979899"
     inkscape:cx="2.7320399"
     inkscape:cy="36.434911"
     inkscape:document-units="mm"
     inkscape:current-layer="layer1"
     inkscape:document-rotation="0"
     showgrid="false"
     units="px"
     inkscape:window-width="1514"
     inkscape:window-height="941"
     inkscape:window-x="50"
     inkscape:window-y="27"
     inkscape:window-maximized="0" />
  <metadata
     id="metadata1407">
    <rdf:RDF>
      <cc:Work
         rdf:about="">
        <dc:format>image/svg+xml</dc:format>
        <dc:type
           rdf:resource="http://purl.org/dc/dcmitype/StillImage" />
        <dc:title></dc:title>
      </cc:Work>
    </rdf:RDF>
  </metadata>
  <g
     inkscape:label="Capa 1"
     inkscape:groupmode="layer"
     id="layer1">
    <g
       id="g1702"
       transform="matrix(0.97573206,0,0,0.97573206,-65.809421,-37.262093)"
       style="opacity:0.295">
      <rect
         style="fill:none;fill-opacity:1;stroke:#000000;stroke-width:0.1;stroke-linecap:round;stroke-linejoin:round;stroke-miterlimit:4;stroke-dasharray:none;stroke-opacity:0.02"
         id="rect1634"
         width="29.810888"
         height="29.810888"
         x="69.839508"
         y="40.709618"
         rx="6.6098609"
         ry="6.6098609" />
      <rect
         ry="6.6098609"
         rx="6.6098609"
         y="40.709618"
         x="69.839508"
         height="29.810888"
         width="29.810888"
         id="rect1638"
         style="fill:none;fill-opacity:1;stroke:#000000;stroke-width:0.2;stroke-linecap:round;stroke-linejoin:round;stroke-miterlimit:4;stroke-dasharray:none;stroke-opacity:0.02" />
      <rect
         style="fill:none;fill-opacity:1;stroke:#000000;stroke-width:0.3;stroke-linecap:round;stroke-linejoin:round;stroke-miterlimit:4;stroke-dasharray:none;stroke-opacity:0.02"
         id="rect1640"
         width="29.810888"
         height="29.810888"
         x="69.839508"
         y="40.709618"
         rx="6.6098609"
         ry="6.6098609" />
      <rect
         ry="6.6098609"
         rx="6.6098609"
         y="40.709618"
         x="69.839508"
         height="29.810888"
         width="29.810888"
         id="rect1642"
         style="fill:none;fill-opacity:1;stroke:#000000;stroke-width:0.4;stroke-linecap:round;stroke-linejoin:round;stroke-miterlimit:4;stroke-dasharray:none;stroke-opacity:0.02" />
      <rect
         style="fill:none;fill-opacity:1;stroke:#000000;stroke-width:0.5;stroke-linecap:round;stroke-linejoin:round;stroke-miterlimit:4;stroke-dasharray:none;stroke-opacity:0.02"
         id="rect1644"
         width="29.810888"
         height="29.810888"
         x="69.839508"
         y="40.709618"
         rx="6.6098609"
         ry="6.6098609" />
      <rect
         ry="6.6098609"
         rx="6.6098609"
         y="40.709618"
         x="69.839508"
         height="29.810888"
         width="29.810888"
         id="rect1646"
         style="fill:none;fill-opacity:1;stroke:#000000;stroke-width:0.6;stroke-linecap:round;stroke-linejoin:round;stroke-miterlimit:4;stroke-dasharray:none;stroke-opacity:0.02" />
      <rect
         style="fill:none;fill-opacity:1;stroke:#000000;stroke-width:0.7;stroke-linecap:round;stroke-linejoin:round;stroke-miterlimit:4;stroke-dasharray:none;stroke-opacity:0.02"
         id="rect1648"
         width="29.810888"
         height="29.810888"
         x="69.839508"
         y="40.709618"
         rx="6.6098609"
         ry="6.6098609" />
      <rect
         ry="6.6098609"
         rx="6.6098609"
         y="40.709618"
         x="69.839508"
         height="29.810888"
         width="29.810888"
         id="rect1650"
         style="fill:none;fill-opacity:1;stroke:#000000;stroke-width:0.8;stroke-linecap:round;stroke-linejoin:round;stroke-miterlimit:4;stroke-dasharray:none;stroke-opacity:0.02" />
      <rect
         style="fill:none;fill-opacity:1;stroke:#000000;stroke-width:1;stroke-linecap:round;stroke-linejoin:round;stroke-miterlimit:4;stroke-dasharray:none;stroke-opacity:0.02"
         id="rect1652"
         width="29.810888"
         height="29.810888"
         x="69.839508"
         y="40.709618"
         rx="6.6098609"
         ry="6.6098609" />
      <rect
         ry="6.6098609"
         rx="6.6098609"
         y="40.709618"
         x="69.839508"
         height="29.810888"
         width="29.810888"
         id="rect1654"
         style="fill:none;fill-opacity:1;stroke:#000000;stroke-width:1.2;stroke-linecap:round;stroke-linejoin:round;stroke-miterlimit:4;stroke-dasharray:none;stroke-opacity:0.02" />
      <rect
         style="fill:none;fill-opacity:1;stroke:#000000;stroke-width:1.4;stroke-linecap:round;stroke-linejoin:round;stroke-miterlimit:4;stroke-dasharray:none;stroke-opacity:0.02"
         id="rect1656"
         width="29.810888"
         height="29.810888"
         x="69.839508"
         y="40.709618"
         rx="6.6098609"
         ry="6.6098609" />
      <rect
         ry="6.6098609"
         rx="6.6098609"
         y="40.709618"
         x="69.839508"
         height="29.810888"
         width="29.810888"
         id="rect1658"
         style="fill:none;fill-opacity:1;stroke:#000000;stroke-width:1.6;stroke-linecap:round;stroke-linejoin:round;stroke-miterlimit:4;stroke-dasharray:none;stroke-opacity:0.02" />
      <rect
         style="fill:none;fill-opacity:1;stroke:#000000;stroke-width:1.8;stroke-linecap:round;stroke-linejoin:round;stroke-miterlimit:4;stroke-dasharray:none;stroke-opacity:0.02"
         id="rect1660"
         width="29.810888"
         height="29.810888"
         x="69.839508"
         y="40.709618"
         rx="6.6098609"
         ry="6.6098609" />
      <rect
         ry="6.6098609"
         rx="6.6098609"
         y="40.709618"
         x="69.839508"
         height="29.810888"
         width="29.810888"
         id="rect1662"
         style="fill:none;fill-opacity:1;stroke:#000000;stroke-width:2;stroke-linecap:round;stroke-linejoin:round;stroke-miterlimit:4;stroke-dasharray:none;stroke-opacity:0.02" />
      <rect
         style="fill:none;fill-opacity:1;stroke:#000000;stroke-width:2.2;stroke-linecap:round;stroke-linejoin:round;stroke-miterlimit:4;stroke-dasharray:none;stroke-opacity:0.02"
         id="rect1664"
         width="29.810888"
         height="29.810888"
         x="69.839508"
         y="40.709618"
         rx="6.6098609"
         ry="6.6098609" />
      <rect
         ry="6.6098609"
         rx="6.6098609"
         y="40.709618"
         x="69.839508"
         height="29.810888"
         width="29.810888"
         id="rect1666"
         style="fill:none;fill-opacity:1;stroke:#000000;stroke-width:2.6;stroke-linecap:round;stroke-linejoin:round;stroke-miterlimit:4;stroke-dasharray:none;stroke-opacity:0.02" />
      <rect
         style="fill:none;fill-opacity:1;stroke:#000000;stroke-width:3;stroke-linecap:round;stroke-linejoin:round;stroke-miterlimit:4;stroke-dasharray:none;stroke-opacity:0.02"
         id="rect1668"
         width="29.810888"
         height="29.810888"
         x="69.839508"
         y="40.709618"
         rx="6.6098609"
         ry="6.6098609" />
      <rect
         ry="6.6098609"
         rx="6.6098609"
         y="40.709618"
         x="69.839508"
         height="29.810888"
         width="29.810888"
         id="rect1670"
         style="fill:none;fill-opacity:1;stroke:#000000;stroke-width:3.4;stroke-linecap:round;stroke-linejoin:round;stroke-miterlimit:4;stroke-dasharray:none;stroke-opacity:0.02" />
      <rect
         style="fill:none;fill-opacity:1;stroke:#000000;stroke-width:3.8;stroke-linecap:round;stroke-linejoin:round;stroke-miterlimit:4;stroke-dasharray:none;stroke-opacity:0.02"
         id="rect1672"
         width="29.810888"
         height="29.810888"
         x="69.839508"
         y="40.709618"
         rx="6.6098609"
         ry="6.6098609" />
      <rect
         ry="6.6098609"
         rx="6.6098609"
         y="40.709618"
         x="69.839508"
         height="29.810888"
         width="29.810888"
         id="rect1674"
         style="fill:none;fill-opacity:1;stroke:#000000;stroke-width:4.2;stroke-linecap:round;stroke-linejoin:round;stroke-miterlimit:4;stroke-dasharray:none;stroke-opacity:0.02" />
      <rect
         style="fill:none;fill-opacity:1;stroke:#000000;stroke-width:4.6;stroke-linecap:round;stroke-linejoin:round;stroke-miterlimit:4;stroke-dasharray:none;stroke-opacity:0.02"
         id="rect1676"
         width="29.810888"
         height="29.810888"
         x="69.839508"
         y="40.709618"
         rx="6.6098609"
         ry="6.6098609" />
      <rect
         ry="6.6098609"
         rx="6.6098609"
         y="40.709618"
         x="69.839508"
         height="29.810888"
         width="29.810888"
         id="rect1678"
         style="fill:none;fill-opacity:1;stroke:#000000;stroke-width:5;stroke-linecap:round;stroke-linejoin:round;stroke-miterlimit:4;stroke-dasharray:none;stroke-opacity:0.02" />
    </g>
    <rect
       style="fill:url(#linearGradient1343);fill-opacity:1;stroke-width:2.68801;stroke-linecap:round;stroke-linejoin:round;stroke-miterlimit:4;stroke-dasharray:none"
       id="rect849"
       width="29.08744"
       height="29.08744"
       x="2.3352256"
       y="2.4595852"
       rx="6.4494534"
       ry="6.4494534" />
    <path
       style="fill:url(#linearGradient2518);fill-opacity:1;stroke-width:0.0695582"
       d="m 16.432527,7.2047769 c -0.702375,0 -0.940597,0.020378 -1.459294,0.1255294 -1.236559,0.2502467 -2.009305,0.6346497 -2.734775,1.3598478 -0.634445,0.6341739 -0.948612,1.193424 -1.161362,2.0677909 -0.08178,0.335836 -0.08199,0.367626 -0.0051,0.485006 0.108413,0.165198 0.220562,0.202935 0.794145,0.267057 0.264375,0.02934 0.716537,0.08668 1.004551,0.127162 0.288014,0.04049 0.640933,0.07336 0.783853,0.07336 0.222259,0 0.275277,-0.01902 0.36304,-0.130421 0.05652,-0.072 0.133991,-0.236118 0.172303,-0.365181 0.10162,-0.341812 0.210305,-0.530108 0.460551,-0.798016 0.412729,-0.440988 0.936249,-0.659138 1.579118,-0.6575079 0.446421,0.00111 0.751587,0.09235 1.098291,0.3281939 0.469245,0.319804 0.654552,0.844513 0.654552,1.855551 0,0.743945 -0.0074,0.757193 -0.405427,0.758278 -0.303502,8.46e-4 -1.815507,0.175017 -2.343713,0.270115 -2.139456,0.385014 -3.51051,1.217028 -4.156369,2.521515 -0.369527,0.745847 -0.442412,1.094962 -0.441598,2.110076 8.46e-4,0.798559 0.01117,0.900452 0.133988,1.302584 0.163297,0.533641 0.300512,0.810211 0.599938,1.208539 0.432835,0.575485 1.196345,1.034473 2.006044,1.20538 0.820841,0.173079 2.226098,0.06844 2.960261,-0.220392 0.602385,-0.236934 1.27813,-0.703157 1.793295,-1.23707 0.121183,-0.126072 0.247563,-0.229051 0.280711,-0.229051 0.03288,0 0.206195,0.199402 0.385253,0.443127 0.178787,0.243726 0.496756,0.611385 0.706517,0.817071 0.366539,0.359475 0.39011,0.373841 0.616446,0.373841 0.213565,0 0.269062,-0.02714 0.597289,-0.293144 0.807526,-0.654008 1.699283,-1.472404 1.744386,-1.600922 0.06086,-0.173081 -0.0161,-0.338281 -0.386169,-0.829807 -0.153517,-0.204055 -0.351323,-0.538056 -0.439357,-0.742383 l -0.16058,-0.37109 -0.02955,-3.243418 c -0.01929,-2.088916 -0.05081,-3.390209 -0.08885,-3.65567 C 21.2302,9.6598919 20.970717,9.0892981 20.46153,8.5654382 19.583359,7.6617263 18.229895,7.2047769 16.432526,7.2047769 Z m 1.524911,7.4024351 0.01386,0.838773 c 0.01766,1.094182 -0.05523,1.507217 -0.386985,2.191386 -0.363278,0.749109 -0.813775,1.157186 -1.464795,1.326733 -0.543966,0.141561 -0.977006,0.03885 -1.376965,-0.32687 -0.365456,-0.333933 -0.523659,-0.70149 -0.558167,-1.297081 -0.06575,-1.138199 0.34487,-1.877254 1.301565,-2.342696 0.55239,-0.268721 1.028631,-0.364907 1.877457,-0.379851 z m 7.309002,6.518016 c -0.54247,-0.0021 -1.151327,0.06607 -1.532963,0.197363 -0.338553,0.116566 -0.779844,0.359443 -0.960533,0.528718 -0.169004,0.158409 -0.188329,0.442652 -0.03943,0.577421 0.107599,0.09727 0.256801,0.09483 1.364025,-0.02445 0.637435,-0.06874 1.01566,-0.04025 1.142006,0.0861 0.117377,0.117379 0.05566,0.452671 -0.255445,1.391432 -0.147269,0.443976 -0.267567,0.861867 -0.267567,0.928439 0,0.06657 0.04449,0.165743 0.09883,0.220086 0.06386,0.06385 0.165272,0.09924 0.284282,0.09924 0.164386,0 0.222258,-0.03892 0.517607,-0.346226 0.620046,-0.645044 1.033526,-1.69164 1.047652,-2.651325 0.0087,-0.58717 -0.05128,-0.720545 -0.391467,-0.871072 -0.203274,-0.08999 -0.585073,-0.134106 -1.006996,-0.13572 z M 7.4618751,21.864352 c -0.1031851,-0.0016 -0.1741337,0.04106 -0.2514695,0.118499 -0.1328666,0.132867 -0.1559618,0.332541 -0.057875,0.503446 0.065483,0.114392 0.8409461,0.784196 1.545494,1.33468 2.2475974,1.756341 4.2020514,2.665459 6.2637964,2.912985 2.459803,0.295349 5.512683,-0.386849 7.969768,-1.781272 0.695038,-0.394526 1.310531,-0.82281 1.41813,-0.986925 0.126618,-0.193186 0.102162,-0.455658 -0.05787,-0.622761 -0.245085,-0.25595 -0.363346,-0.243149 -1.343137,0.142955 -1.707977,0.672756 -2.958326,1.016166 -4.669292,1.281898 -0.826002,0.128252 -2.987806,0.12723 -3.689092,-0.0019 C 12.747849,24.42691 11.066534,23.750587 8.4257707,22.286878 7.8954248,21.992921 7.6338487,21.867036 7.4618751,21.864332 Z"
       id="path893-6-5"
       inkscape:connector-curvature="0" />
    <path
       id="path2520"
       style="fill:#ffffff;fill-opacity:1;stroke-width:0.0695582"
       d="m 16.22944,9.7595221 c -0.642869,-0.00164 -1.166502,0.2163371 -1.579231,0.6573249 -0.250246,0.267908 -0.358817,0.456072 -0.460437,0.797884 -0.03831,0.129063 -0.115563,0.293352 -0.172083,0.365352 -0.08776,0.111401 -0.141026,0.130225 -0.363285,0.130225 -0.14292,0 -0.495917,-0.03289 -0.783932,-0.07338 -0.288014,-0.04048 -0.739698,-0.09778 -1.004073,-0.127124 -0.573583,-0.06412 -0.685853,-0.101451 -0.794266,-0.26665 -0.02499,-0.03815 -0.03899,-0.06939 -0.04754,-0.102836 -0.01661,0.111619 -0.0026,0.159154 0.04754,0.235644 0.108413,0.165199 0.220683,0.202528 0.794266,0.266651 0.264375,0.02934 0.716059,0.08716 1.004073,0.12764 0.288015,0.04049 0.641012,0.07338 0.783932,0.07338 0.222259,0 0.275522,-0.01934 0.363285,-0.130741 0.05652,-0.072 0.133771,-0.23629 0.172083,-0.365353 0.10162,-0.341812 0.210191,-0.529976 0.460437,-0.797884 0.412729,-0.440987 0.936362,-0.6589546 1.579231,-0.6573245 0.446422,0.00111 0.751938,0.092302 1.098641,0.3281455 0.460416,0.313787 0.645798,0.827801 0.652674,1.801957 6.8e-5,-0.03105 0.0016,-0.04503 0.0016,-0.07906 0,-1.011038 -0.184979,-1.535896 -0.654224,-1.8557 C 16.981427,9.8518294 16.675911,9.760627 16.22949,9.7595271 Z m 1.72806,4.8477669 -0.594278,0.01033 c -0.848827,0.01494 -1.325015,0.111101 -1.877405,0.379822 -0.874045,0.425232 -1.287159,1.082623 -1.302763,2.060339 0.04942,-0.906453 0.467823,-1.521324 1.302763,-1.92753 0.55239,-0.268721 1.028578,-0.364878 1.877405,-0.379822 l 0.594278,-0.01033 0.01292,0.790649 c -3.7e-4,-0.03155 0.0016,-0.052 10e-4,-0.08475 z m -7.321516,3.098002 c -1.1e-5,0.01167 -5.29e-4,0.01864 -5.29e-4,0.03049 8.46e-4,0.798559 0.01103,0.900631 0.133842,1.302763 0.163297,0.533641 0.300537,0.810383 0.599963,1.208711 0.432835,0.575485 1.19638,1.034188 2.006079,1.205095 0.820841,0.173079 2.225863,0.06869 2.960026,-0.220142 0.602385,-0.236934 1.278524,-0.70322 1.793689,-1.237134 0.121183,-0.126072 0.247455,-0.228926 0.280603,-0.228926 0.03288,0 0.205931,0.199142 0.38499,0.442867 0.178786,0.243726 0.496655,0.611318 0.706416,0.817004 0.366539,0.359475 0.390164,0.374138 0.6165,0.374138 0.213565,0 0.269153,-0.02752 0.59738,-0.293522 0.807526,-0.654009 1.699493,-1.472418 1.744596,-1.600936 0.01907,-0.05425 0.02208,-0.108582 0.0093,-0.171566 -0.0029,0.01291 -0.0048,0.0259 -0.0093,0.03876 -0.0451,0.128518 -0.93707,0.946928 -1.744596,1.600936 -0.328227,0.266004 -0.383815,0.293522 -0.59738,0.293522 -0.226336,0 -0.249961,-0.01466 -0.6165,-0.374137 -0.209761,-0.205686 -0.52763,-0.573278 -0.706416,-0.817005 -0.179059,-0.243725 -0.35211,-0.442867 -0.38499,-0.442867 -0.03315,0 -0.15942,0.102855 -0.280603,0.228927 -0.515165,0.533913 -1.191304,1.0002 -1.793689,1.237134 -0.734163,0.288832 -2.139185,0.39322 -2.960026,0.220141 C 12.56564,21.148638 11.802095,20.689935 11.36926,20.11445 11.069834,19.716122 10.932594,19.439379 10.769297,18.905738 10.652967,18.52485 10.637994,18.394586 10.635972,17.705295 Z m 16.026411,4.46536 c -0.02442,0.949088 -0.43312,1.976319 -1.044897,2.612761 -0.295349,0.307306 -0.353412,0.346232 -0.517798,0.346232 -0.11901,0 -0.22036,-0.03537 -0.28422,-0.09922 -0.03891,-0.03891 -0.06608,-0.09857 -0.08217,-0.155029 -0.0025,0.01436 -0.01654,0.06071 -0.01654,0.0677 0,0.06657 0.04436,0.165798 0.0987,0.220141 0.06386,0.06385 0.16521,0.09922 0.28422,0.09922 0.164386,0 0.222449,-0.03893 0.517798,-0.346232 0.620046,-0.645044 1.033356,-1.691833 1.047482,-2.651518 5.3e-4,-0.03811 -0.0026,-0.05963 -0.0026,-0.09405 z m -4.022493,0.07545 c -0.01788,0.119875 0.01085,0.240391 0.09353,0.315226 0.107599,0.09727 0.257034,0.09499 1.364258,-0.02429 0.637435,-0.06874 1.015703,-0.04005 1.142049,0.0863 0.02744,0.02744 0.04368,0.06835 0.05064,0.12454 0.01224,-0.132865 -0.0053,-0.211956 -0.05064,-0.257349 -0.126346,-0.126349 -0.504614,-0.155039 -1.142049,-0.0863 -1.107224,0.11928 -1.256659,0.121558 -1.364258,0.02429 -0.0515,-0.04661 -0.08151,-0.111433 -0.09353,-0.182418 z m -15.5396205,0.08837 c -0.015399,0.09352 -4.498e-4,0.193019 0.052193,0.284737 0.065483,0.114392 0.8410943,0.784318 1.5456421,1.334802 2.2475974,1.756341 4.2019564,2.665474 6.2637014,2.913002 2.459803,0.295349 5.512454,-0.386863 7.969539,-1.781288 0.695038,-0.394526 1.310919,-0.822905 1.418518,-0.98702 0.06722,-0.102556 0.09055,-0.224607 0.07493,-0.341581 -0.0094,0.07303 -0.03309,0.144933 -0.07493,0.208772 -0.107599,0.164116 -0.72348,0.592494 -1.418518,0.98702 -2.457085,1.394423 -5.509736,2.076636 -7.969539,1.781287 -2.061745,-0.247526 -4.016104,-1.156659 -6.2637014,-2.913001 -0.7045478,-0.550483 -1.4801591,-1.22041 -1.5456421,-1.334802 -0.02812,-0.049 -0.043724,-0.100455 -0.052193,-0.151928 z" />
    <path
       id="path2527"
       style="fill:#000000;fill-opacity:0.0765794;stroke-width:0.0695582"
       d="m 16.432529,7.2046393 c -0.702375,0 -0.940646,0.020423 -1.459342,0.1255736 -1.236559,0.2502467 -2.009247,0.6349257 -2.734717,1.3601237 -0.634445,0.634174 -0.94842,1.1932071 -1.16117,2.0675744 -0.052,0.213559 -0.06759,0.301632 -0.05478,0.369487 0.0077,-0.06127 0.02355,-0.137905 0.05478,-0.266134 0.21275,-0.8743674 0.526725,-1.4334005 1.16117,-2.0675745 0.72547,-0.725198 1.498158,-1.1098771 2.734717,-1.3601237 0.518696,-0.1051512 0.756967,-0.1255736 1.459342,-0.1255736 1.797369,0 3.15104,0.4569285 4.029211,1.3606404 0.509188,0.5238599 0.768255,1.0944196 0.892969,1.9652554 0.03804,0.265461 0.06959,1.567192 0.08888,3.656107 l 0.02997,3.243213 0.160197,0.371037 c 0.08803,0.204327 0.285732,0.538535 0.43925,0.74259 0.264265,0.350998 0.377579,0.534491 0.399458,0.674378 0.02878,-0.157453 -0.06614,-0.335012 -0.399458,-0.77773 -0.153518,-0.204056 -0.351216,-0.538264 -0.43925,-0.742591 l -0.160191,-0.371037 -0.02997,-3.243212 c -0.01929,-2.088916 -0.05084,-3.390647 -0.08888,-3.656108 C 21.229995,9.6596993 20.970928,9.0891397 20.46174,8.5652797 19.583569,7.6615678 18.229898,7.2046393 16.432529,7.2046393 Z m 1.548743,4.8002237 c -9.79e-4,0.668194 -0.02025,0.695552 -0.40411,0.696599 -0.303502,8.47e-4 -1.815837,0.175169 -2.344043,0.270268 -2.139456,0.385015 -3.510476,1.216806 -4.156336,2.521293 -0.369526,0.745847 -0.44213,1.094834 -0.441316,2.109948 3.5e-5,0.03281 4.49e-4,0.04905 5.29e-4,0.07958 5.29e-4,-0.993942 0.07464,-1.347121 0.4408,-2.086177 0.645859,-1.304488 2.016879,-2.136279 4.156335,-2.521294 0.528206,-0.0951 2.040541,-0.269421 2.344043,-0.270267 0.398027,-0.0011 0.405143,-0.01415 0.405143,-0.758094 0,-0.01481 -9.52e-4,-0.02725 -10e-4,-0.04186 z m -0.01034,3.506763 c 0.01306,1.038485 -0.06247,1.457655 -0.38654,2.125969 -0.363278,0.749109 -0.814007,1.156987 -1.465027,1.326534 -0.543966,0.141561 -0.976701,0.03861 -1.37666,-0.327112 -0.365456,-0.333933 -0.523598,-0.701488 -0.558106,-1.297079 -0.0062,-0.108057 -0.0045,-0.209089 -0.0021,-0.310058 -0.0071,0.131681 -0.0063,0.269164 0.0021,0.413411 0.03451,0.595591 0.19265,0.963146 0.558106,1.297079 0.399959,0.36572 0.832694,0.468672 1.37666,0.327111 0.65102,-0.169546 1.101749,-0.577424 1.465027,-1.326533 0.331755,-0.68417 0.404716,-1.097416 0.387056,-2.191598 z m 7.295678,5.613611 c -0.542469,-0.0021 -1.151603,0.06611 -1.533239,0.197404 -0.338553,0.116566 -0.779976,0.359375 -0.960665,0.52865 -0.107233,0.100511 -0.153415,0.251418 -0.135392,0.382922 0.01114,-0.101867 0.05564,-0.204815 0.135392,-0.279569 0.180689,-0.169275 0.622112,-0.412084 0.960665,-0.52865 0.381636,-0.131293 0.99077,-0.199504 1.533239,-0.197404 0.421924,0.0016 0.803383,0.04592 1.006658,0.135909 0.323104,0.142968 0.390845,0.282358 0.389641,0.797884 2.36e-4,-0.01009 0.0019,-0.02042 0.0021,-0.03049 0.0087,-0.58717 -0.05152,-0.720221 -0.391708,-0.870748 -0.203274,-0.08999 -0.584734,-0.134295 -1.006657,-0.135909 z M 7.4620172,21.86421 c -0.1031851,-0.0016 -0.1743284,0.04142 -0.2516643,0.118856 -0.088493,0.08849 -0.1233699,0.206553 -0.1111043,0.326078 0.01265,-0.08232 0.048467,-0.160088 0.1111043,-0.222725 0.077336,-0.07744 0.1484792,-0.120456 0.2516643,-0.118856 0.1719736,0.0027 0.4334195,0.128756 0.9637654,0.422713 2.6407634,1.463709 4.3220034,2.139871 6.1644824,2.478919 0.701286,0.129129 2.863178,0.130319 3.68918,0.0021 1.710966,-0.265732 2.961506,-0.609336 4.669483,-1.282092 0.979791,-0.386104 1.097985,-0.398577 1.34307,-0.142627 0.07851,0.08198 0.123972,0.186631 0.135392,0.295073 0.01397,-0.143172 -0.032,-0.290466 -0.135392,-0.398426 -0.245085,-0.25595 -0.363279,-0.243477 -1.34307,0.142627 -1.707977,0.672756 -2.958517,1.016361 -4.669483,1.282092 -0.826002,0.128256 -2.987895,0.127067 -3.689181,-0.0021 C 12.747785,24.426795 11.066545,23.750632 8.4257821,22.286923 7.8954362,21.992966 7.6339903,21.866914 7.4620172,21.86421 Z m 17.8304368,0.86248 c -0.01469,0.208308 -0.111303,0.5599 -0.308509,1.154968 -0.147268,0.443976 -0.267167,0.862053 -0.267167,0.928626 0,0.0147 0.009,0.03359 0.01292,0.05064 0.01747,-0.111824 0.119001,-0.468184 0.254248,-0.875915 0.234338,-0.707115 0.327122,-1.071217 0.308508,-1.258321 z" />
    <path
       id="path2532"
       style="fill:#000000;fill-opacity:0.083281;stroke-width:0.0695582"
       d="m 16.432529,7.2046393 c -0.702375,0 -0.940646,0.020423 -1.459342,0.1255736 -1.236559,0.2502467 -2.009247,0.6349257 -2.734717,1.3601237 -0.634445,0.634174 -0.94842,1.1932071 -1.16117,2.0675744 -0.05584,0.229312 -0.07099,0.315149 -0.05219,0.38499 0.0091,-0.05932 0.02422,-0.131627 0.05219,-0.246497 0.21275,-0.874368 0.526725,-1.4334004 1.16117,-2.0675744 0.72547,-0.725198 1.498158,-1.1098771 2.734717,-1.3601237 0.518696,-0.1051515 0.756967,-0.1255739 1.459342,-0.1255739 1.797369,3e-7 3.15104,0.4569288 4.029211,1.3606407 0.509188,0.5238599 0.768255,1.0944191 0.892969,1.9652553 0.03804,0.265461 0.06959,1.566675 0.08888,3.65559 l 0.02997,3.24373 0.160197,0.371037 c 0.08803,0.204327 0.285732,0.538535 0.43925,0.74259 0.252197,0.33497 0.366233,0.517103 0.395324,0.654741 0.03814,-0.161551 -0.05094,-0.335816 -0.395324,-0.793233 -0.153518,-0.204056 -0.351216,-0.538264 -0.43925,-0.742591 l -0.160191,-0.371037 -0.02997,-3.243212 c -0.01929,-2.088916 -0.05084,-3.390647 -0.08888,-3.656108 C 21.229995,9.6596993 20.970928,9.0891397 20.46174,8.5652797 19.583569,7.6615678 18.229898,7.2046393 16.432529,7.2046393 Z m 1.548226,4.8208947 c -0.0015,0.643934 -0.02449,0.674894 -0.403593,0.675928 -0.303502,8.47e-4 -1.815837,0.175169 -2.344043,0.270268 -2.139456,0.385015 -3.510476,1.216806 -4.156336,2.521293 -0.369526,0.745847 -0.44213,1.094834 -0.441316,2.109948 4.7e-5,0.0441 8.99e-4,0.06695 10e-4,0.106971 9.79e-4,-0.987138 0.07522,-1.34158 0.440283,-2.078427 0.645859,-1.304486 2.016879,-2.136278 4.156335,-2.521292 0.528206,-0.0951 2.040541,-0.269422 2.344043,-0.270268 0.398027,-0.0011 0.405143,-0.01467 0.405143,-0.75861 0,-0.01978 -0.0014,-0.0364 -0.0016,-0.05581 z m -0.01034,3.50883 c 0.01148,1.019752 -0.06462,1.440411 -0.386023,2.103231 -0.363278,0.749109 -0.814007,1.156987 -1.465027,1.326534 -0.543966,0.141561 -0.976701,0.03861 -1.37666,-0.327112 -0.365456,-0.333933 -0.523598,-0.701488 -0.558106,-1.297079 -0.0056,-0.09653 -0.0029,-0.18612 -0.0016,-0.276985 -0.0072,0.132341 -0.0068,0.270432 0.0016,0.415478 0.03451,0.595591 0.19265,0.963146 0.558106,1.297079 0.399959,0.36572 0.832694,0.468673 1.37666,0.327111 0.65102,-0.169547 1.101749,-0.577941 1.465027,-1.32705 0.331755,-0.684169 0.404716,-1.096899 0.387056,-2.191081 z m 7.296195,5.590873 c -0.542469,-0.0021 -1.151603,0.06611 -1.533239,0.197404 -0.338553,0.116566 -0.779976,0.359375 -0.960665,0.52865 -0.111268,0.104292 -0.156075,0.262579 -0.132292,0.397392 0.0148,-0.09503 0.05788,-0.189155 0.132292,-0.258899 0.180689,-0.169275 0.622112,-0.412084 0.960665,-0.52865 0.381636,-0.131293 0.99077,-0.199504 1.533239,-0.197404 0.421924,0.0016 0.803383,0.04592 1.006658,0.135909 0.317169,0.140342 0.387667,0.280366 0.389122,0.772563 2.65e-4,-0.01334 0.0024,-0.027 0.0026,-0.04031 0.0087,-0.58717 -0.05152,-0.720221 -0.391708,-0.870748 -0.203223,-0.08999 -0.584683,-0.134293 -1.006606,-0.135907 z M 7.4620172,21.86421 c -0.1031851,-0.0016 -0.1743284,0.04142 -0.2516643,0.118856 -0.096061,0.09606 -0.1325626,0.226784 -0.1095541,0.356567 0.013388,-0.0805 0.048153,-0.156673 0.1095541,-0.218074 0.077336,-0.07744 0.1484792,-0.120456 0.2516643,-0.118856 0.1719736,0.0027 0.4334195,0.128756 0.9637654,0.422713 2.6407634,1.463709 4.3220034,2.139872 6.1644824,2.478918 0.701286,0.129131 2.863178,0.13032 3.68918,0.0021 1.710966,-0.265732 2.961506,-0.609336 4.669483,-1.282092 0.979791,-0.386104 1.097985,-0.398577 1.34307,-0.142627 0.07447,0.07776 0.118103,0.176057 0.132292,0.278536 0.02012,-0.148908 -0.02439,-0.304362 -0.132292,-0.417029 -0.245085,-0.25595 -0.363279,-0.243477 -1.34307,0.142627 -1.707977,0.672756 -2.958517,1.01636 -4.669483,1.282092 -0.826002,0.128256 -2.987895,0.127067 -3.689181,-0.0021 C 12.747785,24.426795 11.066545,23.750632 8.4257821,22.286923 7.8954362,21.992966 7.6339903,21.866914 7.4620172,21.86421 Z M 25.28987,22.750978 c -0.02001,0.210996 -0.11597,0.557491 -0.305925,1.13068 -0.147268,0.443976 -0.267167,0.862053 -0.267167,0.928626 0,0.01978 0.01011,0.04471 0.01705,0.06821 0.02234,-0.124021 0.118866,-0.462668 0.250114,-0.858345 0.23962,-0.723055 0.33008,-1.085954 0.305924,-1.269173 z" />
  </g>
</svg>
