<?xml version="1.0" encoding="UTF-8" standalone="no"?>
<svg
   xmlns:dc="http://purl.org/dc/elements/1.1/"
   xmlns:cc="http://creativecommons.org/ns#"
   xmlns:rdf="http://www.w3.org/1999/02/22-rdf-syntax-ns#"
   xmlns:svg="http://www.w3.org/2000/svg"
   xmlns="http://www.w3.org/2000/svg"
   xmlns:xlink="http://www.w3.org/1999/xlink"
   xmlns:sodipodi="http://sodipodi.sourceforge.net/DTD/sodipodi-0.dtd"
   xmlns:inkscape="http://www.inkscape.org/namespaces/inkscape"
   width="128"
   height="128"
   viewBox="0 0 33.866666 33.866668"
   version="1.1"
   id="svg2117"
   inkscape:version="1.0.2 (e86c870879, 2021-01-15)"
   sodipodi:docname="another-redis-desktop-manager.svg">
  <defs
     id="defs2111">
    <linearGradient
       inkscape:collect="always"
       id="linearGradient925">
      <stop
         style="stop-color:#ffffff;stop-opacity:1;"
         offset="0"
         id="stop921" />
      <stop
         style="stop-color:#ffffff;stop-opacity:0;"
         offset="1"
         id="stop923" />
    </linearGradient>
    <linearGradient
       inkscape:collect="always"
       id="linearGradient913">
      <stop
         style="stop-color:#ffffff;stop-opacity:1;"
         offset="0"
         id="stop908" />
      <stop
         style="stop-color:#ec3063;stop-opacity:0"
         offset="1"
         id="stop910" />
    </linearGradient>
    <linearGradient
       inkscape:collect="always"
       xlink:href="#linearGradient1630"
       id="linearGradient912"
       gradientUnits="userSpaceOnUse"
       gradientTransform="matrix(0.97573207,0,0,0.97573207,-111.88908,-37.234129)"
       x1="132.21078"
       y1="42.151531"
       x2="132.21078"
       y2="70.679932" />
    <linearGradient
       id="linearGradient1630"
       inkscape:collect="always">
      <stop
         id="stop1626"
         offset="0"
         style="stop-color:#fc5d2b;stop-opacity:1" />
      <stop
         id="stop1628"
         offset="1"
         style="stop-color:#e82570;stop-opacity:1" />
    </linearGradient>
    <linearGradient
       id="linearGradient895">
      <stop
         id="stop3335"
         offset="0" />
      <stop
         id="stop3337"
         offset="1"
         stop-opacity="0" />
    </linearGradient>
    <linearGradient
       inkscape:collect="always"
       xlink:href="#linearGradient913"
       id="linearGradient917"
       gradientUnits="userSpaceOnUse"
       x1="11.581517"
       y1="9.788681"
       x2="56.218342"
       y2="87.101929" />
    <linearGradient
       inkscape:collect="always"
       xlink:href="#linearGradient925"
       id="linearGradient927"
       x1="22.126036"
       y1="8.4617043"
       x2="27.79553"
       y2="17.019762"
       gradientUnits="userSpaceOnUse" />
  </defs>
  <sodipodi:namedview
     id="base"
     pagecolor="#ffffff"
     bordercolor="#666666"
     borderopacity="1.0"
     inkscape:pageopacity="0.0"
     inkscape:pageshadow="2"
     inkscape:zoom="1.4"
     inkscape:cx="-155.5001"
     inkscape:cy="92.171167"
     inkscape:document-units="mm"
     inkscape:current-layer="layer1"
     inkscape:document-rotation="0"
     showgrid="false"
     units="px"
     inkscape:window-width="1920"
     inkscape:window-height="1028"
     inkscape:window-x="0"
     inkscape:window-y="24"
     inkscape:window-maximized="1"
     showguides="true"
     inkscape:guide-bbox="true" />
  <metadata
     id="metadata2114">
    <rdf:RDF>
      <cc:Work
         rdf:about="">
        <dc:format>image/svg+xml</dc:format>
        <dc:type
           rdf:resource="http://purl.org/dc/dcmitype/StillImage" />
        <dc:title></dc:title>
      </cc:Work>
    </rdf:RDF>
  </metadata>
  <g
     inkscape:label="Capa 1"
     inkscape:groupmode="layer"
     id="layer1">
    <g
       style="opacity:0.139618"
       transform="matrix(0.97573206,0,0,0.97573206,-65.829986,-36.914633)"
       id="g1702">
      <rect
         ry="6.6098609"
         rx="6.6098609"
         y="40.709618"
         x="69.839508"
         height="29.810888"
         width="29.810888"
         id="rect1634"
         style="fill:none;fill-opacity:1;stroke:#000000;stroke-width:0.1;stroke-linecap:round;stroke-linejoin:round;stroke-miterlimit:4;stroke-dasharray:none;stroke-opacity:0.02" />
      <rect
         style="fill:none;fill-opacity:1;stroke:#000000;stroke-width:0.2;stroke-linecap:round;stroke-linejoin:round;stroke-miterlimit:4;stroke-dasharray:none;stroke-opacity:0.02"
         id="rect1638"
         width="29.810888"
         height="29.810888"
         x="69.839508"
         y="40.709618"
         rx="6.6098609"
         ry="6.6098609" />
      <rect
         ry="6.6098609"
         rx="6.6098609"
         y="40.709618"
         x="69.839508"
         height="29.810888"
         width="29.810888"
         id="rect1640"
         style="fill:none;fill-opacity:1;stroke:#000000;stroke-width:0.3;stroke-linecap:round;stroke-linejoin:round;stroke-miterlimit:4;stroke-dasharray:none;stroke-opacity:0.02" />
      <rect
         style="fill:none;fill-opacity:1;stroke:#000000;stroke-width:0.4;stroke-linecap:round;stroke-linejoin:round;stroke-miterlimit:4;stroke-dasharray:none;stroke-opacity:0.02"
         id="rect1642"
         width="29.810888"
         height="29.810888"
         x="69.839508"
         y="40.709618"
         rx="6.6098609"
         ry="6.6098609" />
      <rect
         ry="6.6098609"
         rx="6.6098609"
         y="40.709618"
         x="69.839508"
         height="29.810888"
         width="29.810888"
         id="rect1644"
         style="fill:none;fill-opacity:1;stroke:#000000;stroke-width:0.5;stroke-linecap:round;stroke-linejoin:round;stroke-miterlimit:4;stroke-dasharray:none;stroke-opacity:0.02" />
      <rect
         style="fill:none;fill-opacity:1;stroke:#000000;stroke-width:0.6;stroke-linecap:round;stroke-linejoin:round;stroke-miterlimit:4;stroke-dasharray:none;stroke-opacity:0.02"
         id="rect1646"
         width="29.810888"
         height="29.810888"
         x="69.839508"
         y="40.709618"
         rx="6.6098609"
         ry="6.6098609" />
      <rect
         ry="6.6098609"
         rx="6.6098609"
         y="40.709618"
         x="69.839508"
         height="29.810888"
         width="29.810888"
         id="rect1648"
         style="fill:none;fill-opacity:1;stroke:#000000;stroke-width:0.7;stroke-linecap:round;stroke-linejoin:round;stroke-miterlimit:4;stroke-dasharray:none;stroke-opacity:0.02" />
      <rect
         style="fill:none;fill-opacity:1;stroke:#000000;stroke-width:0.8;stroke-linecap:round;stroke-linejoin:round;stroke-miterlimit:4;stroke-dasharray:none;stroke-opacity:0.02"
         id="rect1650"
         width="29.810888"
         height="29.810888"
         x="69.839508"
         y="40.709618"
         rx="6.6098609"
         ry="6.6098609" />
      <rect
         ry="6.6098609"
         rx="6.6098609"
         y="40.709618"
         x="69.839508"
         height="29.810888"
         width="29.810888"
         id="rect1652"
         style="fill:none;fill-opacity:1;stroke:#000000;stroke-width:1;stroke-linecap:round;stroke-linejoin:round;stroke-miterlimit:4;stroke-dasharray:none;stroke-opacity:0.02" />
      <rect
         style="fill:none;fill-opacity:1;stroke:#000000;stroke-width:1.2;stroke-linecap:round;stroke-linejoin:round;stroke-miterlimit:4;stroke-dasharray:none;stroke-opacity:0.02"
         id="rect1654"
         width="29.810888"
         height="29.810888"
         x="69.839508"
         y="40.709618"
         rx="6.6098609"
         ry="6.6098609" />
      <rect
         ry="6.6098609"
         rx="6.6098609"
         y="40.709618"
         x="69.839508"
         height="29.810888"
         width="29.810888"
         id="rect1656"
         style="fill:none;fill-opacity:1;stroke:#000000;stroke-width:1.4;stroke-linecap:round;stroke-linejoin:round;stroke-miterlimit:4;stroke-dasharray:none;stroke-opacity:0.02" />
      <rect
         style="fill:none;fill-opacity:1;stroke:#000000;stroke-width:1.6;stroke-linecap:round;stroke-linejoin:round;stroke-miterlimit:4;stroke-dasharray:none;stroke-opacity:0.02"
         id="rect1658"
         width="29.810888"
         height="29.810888"
         x="69.839508"
         y="40.709618"
         rx="6.6098609"
         ry="6.6098609" />
      <rect
         ry="6.6098609"
         rx="6.6098609"
         y="40.709618"
         x="69.839508"
         height="29.810888"
         width="29.810888"
         id="rect1660"
         style="fill:none;fill-opacity:1;stroke:#000000;stroke-width:1.8;stroke-linecap:round;stroke-linejoin:round;stroke-miterlimit:4;stroke-dasharray:none;stroke-opacity:0.02" />
      <rect
         style="fill:none;fill-opacity:1;stroke:#000000;stroke-width:2;stroke-linecap:round;stroke-linejoin:round;stroke-miterlimit:4;stroke-dasharray:none;stroke-opacity:0.02"
         id="rect1662"
         width="29.810888"
         height="29.810888"
         x="69.839508"
         y="40.709618"
         rx="6.6098609"
         ry="6.6098609" />
      <rect
         ry="6.6098609"
         rx="6.6098609"
         y="40.709618"
         x="69.839508"
         height="29.810888"
         width="29.810888"
         id="rect1664"
         style="fill:none;fill-opacity:1;stroke:#000000;stroke-width:2.2;stroke-linecap:round;stroke-linejoin:round;stroke-miterlimit:4;stroke-dasharray:none;stroke-opacity:0.02" />
      <rect
         style="fill:none;fill-opacity:1;stroke:#000000;stroke-width:2.6;stroke-linecap:round;stroke-linejoin:round;stroke-miterlimit:4;stroke-dasharray:none;stroke-opacity:0.02"
         id="rect1666"
         width="29.810888"
         height="29.810888"
         x="69.839508"
         y="40.709618"
         rx="6.6098609"
         ry="6.6098609" />
      <rect
         ry="6.6098609"
         rx="6.6098609"
         y="40.709618"
         x="69.839508"
         height="29.810888"
         width="29.810888"
         id="rect1668"
         style="fill:none;fill-opacity:1;stroke:#000000;stroke-width:3;stroke-linecap:round;stroke-linejoin:round;stroke-miterlimit:4;stroke-dasharray:none;stroke-opacity:0.02" />
      <rect
         style="fill:none;fill-opacity:1;stroke:#000000;stroke-width:3.4;stroke-linecap:round;stroke-linejoin:round;stroke-miterlimit:4;stroke-dasharray:none;stroke-opacity:0.02"
         id="rect1670"
         width="29.810888"
         height="29.810888"
         x="69.839508"
         y="40.709618"
         rx="6.6098609"
         ry="6.6098609" />
      <rect
         ry="6.6098609"
         rx="6.6098609"
         y="40.709618"
         x="69.839508"
         height="29.810888"
         width="29.810888"
         id="rect1672"
         style="fill:none;fill-opacity:1;stroke:#000000;stroke-width:3.8;stroke-linecap:round;stroke-linejoin:round;stroke-miterlimit:4;stroke-dasharray:none;stroke-opacity:0.02" />
      <rect
         style="fill:none;fill-opacity:1;stroke:#000000;stroke-width:4.2;stroke-linecap:round;stroke-linejoin:round;stroke-miterlimit:4;stroke-dasharray:none;stroke-opacity:0.02"
         id="rect1674"
         width="29.810888"
         height="29.810888"
         x="69.839508"
         y="40.709618"
         rx="6.6098609"
         ry="6.6098609" />
      <rect
         ry="6.6098609"
         rx="6.6098609"
         y="40.709618"
         x="69.839508"
         height="29.810888"
         width="29.810888"
         id="rect1676"
         style="fill:none;fill-opacity:1;stroke:#000000;stroke-width:4.6;stroke-linecap:round;stroke-linejoin:round;stroke-miterlimit:4;stroke-dasharray:none;stroke-opacity:0.02" />
      <rect
         style="fill:none;fill-opacity:1;stroke:#000000;stroke-width:5;stroke-linecap:round;stroke-linejoin:round;stroke-miterlimit:4;stroke-dasharray:none;stroke-opacity:0.02"
         id="rect1678"
         width="29.810888"
         height="29.810888"
         x="69.839508"
         y="40.709618"
         rx="6.6098609"
         ry="6.6098609" />
    </g>
    <rect
       style="fill:url(#linearGradient912);fill-opacity:1;stroke-width:2.68769;stroke-linecap:round;stroke-linejoin:round"
       id="rect910"
       width="29.08744"
       height="29.08744"
       x="2.2835085"
       y="2.4875498"
       rx="6.4494534"
       ry="6.4494534" />
    <path
       style="fill:url(#linearGradient917);stroke-width:0.455628;fill-opacity:1"
       d="m 20.11689,9.3729608 c -0.982664,0.05511 -1.714731,0.7732162 -2.569196,1.1645262 -0.730404,0.413246 -1.460772,0.828088 -2.198874,1.228093 -0.883619,-0.609291 -1.675059,-1.354725 -2.623017,-1.8675652 -0.374605,-0.103324 -0.762629,-0.285382 -1.144286,-0.109334 -0.910137,0.117513 -1.349559,0.9859842 -1.301832,1.8472232 -0.01601,1.32638 -0.01584,2.652933 0,3.979223 -0.822062,0.873534 -1.787456,1.718972 -2.5103174,2.671036 -0.519299,0.920323 -0.1005288,2.210795 0.9149164,2.601116 0.756623,0.392742 1.532594,0.748487 2.301384,1.117487 0.400767,1.53009 0.712931,3.084576 1.160946,4.600895 0.479244,1.072316 2.0919,1.33955 2.907484,0.485644 1.058741,-1.131967 2.291135,-3.506292 2.291135,-3.506292 0,0 3.545992,0.659722 4.965405,0.61786 0.848346,-0.05597 1.558091,-0.722243 1.620965,-1.557364 0.159291,-1.140842 -0.842646,-1.947914 -1.394159,-2.832494 -0.683901,-0.981708 -1.42791,-1.922301 -2.095081,-2.915129 0.504149,-1.886925 1.169724,-3.735078 1.558178,-5.649734 0.01171,-0.861489 -0.586028,-1.7405632 -1.508202,-1.8281532 -0.124023,-0.02108 -0.249224,-0.04365 -0.375449,-0.04703 z m -0.222963,2.1281852 c -0.366132,1.548542 -0.882152,3.132983 -1.353153,4.895841 l -0.228089,0.851782 0.492057,0.732279 c 0.723054,1.075991 1.473904,2.025682 2.11302,2.943098 l -0.05381,-0.0839 c 0.415487,0.666405 0.810416,1.090037 0.989238,1.361579 0.009,0.01378 -0.0014,-0.0033 0.0065,0.009 -0.513534,-0.02401 -1.395118,-0.100155 -2.269349,-0.231379 -1.025803,-0.15397 -1.88237,-0.312744 -1.88237,-0.312744 l -1.441569,-0.268249 -0.671451,1.292929 c 0,0 -1.043649,1.76324 -1.731166,2.682479 -0.329744,-1.225733 -0.615706,-2.497209 -0.972578,-3.859718 l -0.229418,-0.874704 -0.818813,-0.392837 c -0.785005,-0.376784 -1.536522,-0.722615 -2.23219,-1.083161 0.5766,-0.709729 1.245982,-1.415766 1.998976,-2.215907 l 0.538164,-0.572091 -0.009,-0.78313 c -0.01481,-1.242056 -0.01343,-2.483534 0,-3.72496 0.582081,0.377146 1.191422,0.883618 2.087394,1.501425 l 0.998205,0.689054 1.068684,-0.578449 c 0.759195,-0.411434 1.49678,-0.830508 2.221939,-1.240805 -0.0633,0.02971 -0.07352,0.03914 -0.143517,0.07119 l 0.151197,-0.07629 c 0.889509,-0.418023 1.191216,-0.627729 1.371177,-0.732321 z"
       id="path8" />
    <circle
       style="fill:url(#linearGradient927);stroke-width:0.455628;fill-opacity:1"
       cx="23.948551"
       cy="8.4617043"
       r="1.8225154"
       id="circle10" />
    <path
       id="path8-3"
       style="fill:#b60000;fill-opacity:0.294998;stroke-width:1.72206"
       d="M 95.462891 27.189453 A 6.8882471 6.8882471 0 0 1 97.402344 31.980469 A 6.8882471 6.8882471 0 0 1 90.513672 38.869141 A 6.8882471 6.8882471 0 0 1 86.412109 37.515625 A 6.8882471 6.8882471 0 0 0 91.363281 39.613281 A 6.8882471 6.8882471 0 0 0 98.251953 32.724609 A 6.8882471 6.8882471 0 0 0 95.462891 27.189453 z M 81.154297 37.423828 C 82.441962 38.758175 83.177737 40.645538 83.152344 42.513672 C 81.684171 49.750167 79.167164 56.733549 77.261719 63.865234 C 79.78331 67.617655 82.596818 71.174373 85.181641 74.884766 C 87.266099 78.22806 91.051263 81.278 90.449219 85.589844 C 90.211585 88.746207 87.530566 91.263069 84.324219 91.474609 C 78.959508 91.632828 65.556641 89.140625 65.556641 89.140625 C 65.556641 89.140625 60.898025 98.114276 56.896484 102.39258 C 54.56957 104.82883 50.529901 104.84787 47.908203 102.96875 C 50.41732 105.55466 55.14754 105.85542 57.746094 103.13477 C 61.747635 98.856461 66.40625 89.882816 66.40625 89.882812 C 66.40625 89.882812 79.807164 92.376969 85.171875 92.21875 C 88.378222 92.00721 91.061194 89.488394 91.298828 86.332031 C 91.900873 82.020187 88.113755 78.970248 86.029297 75.626953 C 83.444474 71.916561 80.632919 68.361796 78.111328 64.609375 C 80.016773 57.47769 82.531827 50.492354 84 43.255859 C 84.030544 41.008804 82.963478 38.729285 81.154297 37.423828 z M 75.189453 43.46875 C 74.509286 43.864058 73.369736 44.656399 70.007812 46.236328 L 69.435547 46.525391 C 69.700102 46.404257 69.739272 46.368149 69.978516 46.255859 C 67.237757 47.806588 64.449477 49.390287 61.580078 50.945312 L 57.541016 53.132812 L 53.769531 50.527344 C 50.38318 48.192325 48.078897 46.278949 45.878906 44.853516 C 45.828147 49.545519 45.822931 54.237256 45.878906 58.931641 L 45.914062 61.890625 L 43.878906 64.052734 C 41.032945 67.076889 38.503494 69.747247 36.324219 72.429688 C 36.658038 72.602696 37.02283 72.77179 37.363281 72.943359 C 39.500271 70.337229 41.963002 67.735545 44.728516 64.796875 L 46.761719 62.634766 L 46.728516 59.673828 C 46.672541 54.979443 46.677757 50.287707 46.728516 45.595703 C 48.928507 47.021137 51.230837 48.936466 54.617188 51.271484 L 58.390625 53.875 L 62.429688 51.689453 C 65.299085 50.134427 68.085413 48.550729 70.826172 47 C 70.586928 47.11229 70.549701 47.146444 70.285156 47.267578 L 70.855469 46.980469 C 72.919433 46.01051 74.015265 45.404138 74.8125 44.9375 C 74.934761 44.449463 75.074578 43.954609 75.189453 43.46875 z M 31.351562 78.130859 C 31.989494 78.795654 32.765451 79.339085 33.671875 79.6875 C 36.285409 81.044113 38.95816 82.284859 41.617188 83.552734 C 41.584015 83.424784 41.554975 83.295832 41.521484 83.167969 C 38.615821 81.773323 35.681943 80.427739 32.822266 78.943359 C 32.284594 78.736687 31.797164 78.457876 31.351562 78.130859 z M 47.955078 78.390625 L 48.722656 81.3125 C 50.071464 86.46214 51.152161 91.267699 52.398438 95.900391 C 52.550902 95.696537 52.720194 95.452342 52.880859 95.228516 C 51.786331 91.030111 50.785048 86.686947 49.572266 82.056641 L 48.705078 78.75 L 47.955078 78.390625 z "
       transform="scale(0.26458333)" />
    <path
       id="path974"
       style="fill:#b60000;fill-opacity:0.149697;stroke-width:1.72206"
       d="M 96.595703 28.748047 A 6.8882471 6.8882471 0 0 1 97.402344 31.980469 A 6.8882471 6.8882471 0 0 1 90.513672 38.869141 A 6.8882471 6.8882471 0 0 1 86.042969 37.220703 A 6.8882471 6.8882471 0 0 0 92.125 40.876953 A 6.8882471 6.8882471 0 0 0 99.013672 33.988281 A 6.8882471 6.8882471 0 0 0 96.595703 28.748047 z M 82.287109 38.984375 C 82.861012 40.062447 83.168933 41.293251 83.152344 42.513672 C 81.684171 49.750167 79.167164 56.733549 77.261719 63.865234 C 79.78331 67.617655 82.596818 71.174373 85.181641 74.884766 C 87.266099 78.22806 91.051263 81.278 90.449219 85.589844 C 90.211585 88.746207 87.530566 91.263069 84.324219 91.474609 C 78.959508 91.632828 65.556641 89.140625 65.556641 89.140625 C 65.556641 89.140625 60.898025 98.114276 56.896484 102.39258 C 54.477748 104.92496 50.212802 104.83884 47.609375 102.73047 C 49.514557 106.63852 55.469612 107.5794 58.507812 104.39844 C 62.509353 100.12014 67.167969 91.146488 67.167969 91.146484 C 67.167969 91.146484 80.568883 93.64064 85.933594 93.482422 C 89.139941 93.270882 91.822913 90.752066 92.060547 87.595703 C 92.662592 83.283859 88.875474 80.233919 86.791016 76.890625 C 84.206193 73.180233 81.394638 69.625468 78.873047 65.873047 C 80.778492 58.741362 83.293546 51.756026 84.761719 44.519531 C 84.790097 42.431747 83.86852 40.320835 82.287109 38.984375 z M 75.189453 43.46875 C 74.509286 43.864058 73.369736 44.656399 70.007812 46.236328 L 69.435547 46.525391 C 69.700102 46.404257 69.739272 46.368149 69.978516 46.255859 C 67.237757 47.806588 64.449477 49.390287 61.580078 50.945312 L 57.541016 53.132812 L 53.769531 50.527344 C 50.38318 48.192325 48.078897 46.278949 45.878906 44.853516 C 45.828147 49.545519 45.822931 54.237256 45.878906 58.931641 L 45.914062 61.890625 L 43.878906 64.052734 C 41.032945 67.076889 38.503494 69.747247 36.324219 72.429688 C 37.072859 72.817686 37.873382 73.199065 38.654297 73.582031 C 40.66912 71.182568 42.945613 68.764494 45.490234 66.060547 L 47.523438 63.898438 L 47.490234 60.9375 C 47.43426 56.243115 47.439475 51.551379 47.490234 46.859375 C 49.690226 48.284809 51.992555 50.200138 55.378906 52.535156 L 59.152344 55.138672 L 63.191406 52.953125 C 66.060805 51.398099 68.847132 49.814401 71.587891 48.263672 C 71.348647 48.375962 71.311419 48.410116 71.046875 48.53125 L 71.617188 48.244141 C 72.77937 47.697974 73.606382 47.274455 74.310547 46.900391 C 74.61615 45.751222 74.921089 44.603784 75.189453 43.46875 z M 31.005859 77.861328 C 31.737381 79.228332 32.902344 80.362584 34.433594 80.951172 C 36.881169 82.221641 39.381385 83.389728 41.873047 84.574219 C 41.754537 84.105682 41.643922 83.635425 41.521484 83.167969 C 38.615821 81.773323 35.681943 80.427739 32.822266 78.943359 C 32.142043 78.681892 31.537215 78.30981 31.005859 77.861328 z M 48.226562 79.417969 L 48.722656 81.3125 C 50.071464 86.46214 51.152161 91.267699 52.398438 95.900391 C 52.651807 95.561624 52.925159 95.173491 53.199219 94.783203 C 52.27096 91.115309 51.382553 87.323663 50.333984 83.320312 L 49.466797 80.013672 L 48.226562 79.417969 z "
       transform="scale(0.26458333)" />
    <path
       id="path976"
       style="fill:#b60000;fill-opacity:0.0750487;stroke-width:1.72206"
       d="M 97.052734 29.814453 A 6.8882471 6.8882471 0 0 1 97.402344 31.980469 A 6.8882471 6.8882471 0 0 1 90.513672 38.869141 A 6.8882471 6.8882471 0 0 1 86.519531 37.59375 A 6.888247 6.888247 0 0 0 93.060547 42.316406 A 6.888247 6.888247 0 0 0 99.949219 35.427734 A 6.888247 6.888247 0 0 0 97.052734 29.814453 z M 82.753906 40.0625 C 82.754967 40.065597 82.754803 40.069167 82.755859 40.072266 C 82.821935 40.26598 82.881756 40.461629 82.931641 40.660156 C 82.971773 40.819874 83.001907 40.982576 83.03125 41.144531 C 83.039006 41.187124 83.051595 41.228771 83.058594 41.271484 C 83.059127 41.274754 83.060019 41.27798 83.060547 41.28125 C 83.075517 41.373912 83.082386 41.467429 83.09375 41.560547 C 83.107754 41.674446 83.124309 41.788021 83.132812 41.902344 C 83.147779 42.105618 83.15511 42.310171 83.152344 42.513672 C 82.785426 44.322177 82.352874 46.115285 81.880859 47.898438 C 81.880859 47.898438 81.880859 47.900391 81.880859 47.900391 C 81.408925 49.683701 80.896212 51.457962 80.371094 53.228516 C 79.845617 54.99945 79.30616 56.766454 78.779297 58.537109 C 78.252384 60.308526 77.738241 62.081711 77.261719 63.865234 C 78.522514 65.741445 79.855963 67.569024 81.197266 69.390625 C 82.538944 71.212656 83.889229 73.029569 85.181641 74.884766 C 85.423441 75.272593 85.692595 75.65474 85.970703 76.037109 C 86.041659 76.134673 86.113003 76.232674 86.185547 76.330078 C 86.441504 76.673749 86.701939 77.017341 86.96875 77.361328 C 87.257841 77.734026 87.547087 78.104962 87.832031 78.482422 C 87.799168 78.431103 87.758642 78.381531 87.726562 78.330078 C 85.141742 74.619686 82.330185 71.064921 79.808594 67.3125 C 81.714039 60.180815 84.229093 53.195479 85.697266 45.958984 C 85.728343 43.672684 84.620988 41.355845 82.753906 40.0625 z M 75.189453 43.46875 C 74.509286 43.864058 73.369736 44.656399 70.007812 46.236328 L 69.435547 46.525391 C 69.700102 46.404257 69.739272 46.368149 69.978516 46.255859 C 67.237757 47.806588 64.449477 49.390287 61.580078 50.945312 L 57.541016 53.132812 L 53.769531 50.527344 C 52.92341 49.943911 52.144115 49.3853 51.417969 48.855469 C 51.417969 48.855469 51.416016 48.855469 51.416016 48.855469 C 50.689527 48.325376 50.01593 47.823916 49.378906 47.349609 C 48.104543 46.401209 46.978902 45.566232 45.878906 44.853516 C 45.828147 49.545519 45.822931 54.237256 45.878906 58.931641 L 45.914062 61.890625 L 43.878906 64.052734 C 41.032945 67.076889 38.503494 69.747247 36.324219 72.429688 C 37.559877 73.070095 38.849796 73.698274 40.169922 74.332031 C 42.040006 72.156342 44.124472 69.9454 46.425781 67.5 L 48.458984 65.337891 L 48.423828 62.376953 C 48.367853 57.682568 48.373069 52.990832 48.423828 48.298828 C 50.623819 49.724262 52.926149 51.639591 56.3125 53.974609 L 60.085938 56.578125 L 64.125 54.392578 C 66.994398 52.837552 69.780726 51.253854 72.521484 49.703125 C 72.28224 49.815415 72.245013 49.849569 71.980469 49.970703 L 72.550781 49.683594 C 73.008582 49.468451 73.332994 49.302155 73.712891 49.115234 C 73.720527 49.087817 73.726748 49.060613 73.734375 49.033203 C 73.910087 48.401724 74.079171 47.775601 74.248047 47.148438 C 74.578154 45.914866 74.901711 44.685746 75.189453 43.46875 z M 31.460938 78.216797 C 32.090137 80.058864 33.447516 81.651983 35.369141 82.390625 C 37.602748 83.550029 39.879477 84.624078 42.154297 85.703125 C 41.945184 84.857297 41.742193 84.010613 41.521484 83.167969 C 38.615821 81.773323 35.681943 80.427739 32.822266 78.943359 C 32.329827 78.754074 31.876395 78.507962 31.460938 78.216797 z M 88.884766 79.978516 C 89.5675 81.031353 90.123399 82.130087 90.371094 83.320312 C 90.371776 83.323569 90.372369 83.32682 90.373047 83.330078 C 90.382046 83.373629 90.384402 83.419094 90.392578 83.462891 C 90.474174 83.899994 90.521427 84.346629 90.511719 84.810547 C 90.506381 85.065608 90.486104 85.325669 90.449219 85.589844 C 90.419514 85.984389 90.352354 86.36889 90.25 86.740234 C 90.147646 87.111578 90.01125 87.468922 89.84375 87.810547 C 89.67625 88.152172 89.477096 88.477815 89.251953 88.783203 C 88.576525 89.699368 87.658744 90.437436 86.599609 90.910156 C 86.423122 90.988912 86.244417 91.059455 86.060547 91.123047 C 85.875878 91.18701 85.689212 91.243175 85.498047 91.291016 C 85.307711 91.338649 85.113804 91.377368 84.917969 91.408203 C 84.722144 91.439028 84.524615 91.461388 84.324219 91.474609 C 83.654152 91.494371 82.857586 91.47287 81.978516 91.419922 C 81.978516 91.419922 81.976562 91.419922 81.976562 91.419922 C 79.336908 91.260808 75.943584 90.819873 72.927734 90.367188 C 68.906602 89.763605 65.556641 89.140625 65.556641 89.140625 C 65.556641 89.140625 65.264824 89.70123 64.765625 90.609375 C 64.016826 91.971592 62.801413 94.114225 61.396484 96.318359 C 61.396484 96.318359 61.394531 96.320312 61.394531 96.320312 C 60.656125 97.478683 59.86204 98.629752 59.060547 99.716797 C 58.845827 100.00802 58.633515 100.31717 58.417969 100.59375 C 58.417969 100.59375 58.417969 100.5957 58.417969 100.5957 C 58.303965 100.74197 58.190072 100.87626 58.076172 101.01758 C 57.680532 101.50844 57.284624 101.97759 56.896484 102.39258 C 56.723548 102.57364 56.538183 102.73614 56.347656 102.89062 C 56.294367 102.93384 56.240089 102.97446 56.185547 103.01562 C 56.037969 103.12699 55.886424 103.23169 55.730469 103.32812 C 55.671193 103.3648 55.613113 103.40295 55.552734 103.4375 C 55.353475 103.55146 55.149263 103.65518 54.939453 103.74609 C 54.870691 103.77595 54.80021 103.80072 54.730469 103.82812 C 54.578002 103.8879 54.424125 103.94206 54.267578 103.99023 C 54.180039 104.0173 54.092527 104.04292 54.003906 104.06641 C 53.91355 104.09023 53.8218 104.10684 53.730469 104.12695 C 53.407035 104.19868 53.079462 104.2513 52.748047 104.27734 C 52.729024 104.2788 52.710444 104.2819 52.691406 104.2832 C 52.308552 104.31029 51.924444 104.30557 51.541016 104.27344 C 51.538436 104.27322 51.535783 104.27366 51.533203 104.27344 C 51.528615 104.27304 51.524118 104.27189 51.519531 104.27148 C 51.132632 104.23795 50.749858 104.17414 50.373047 104.08203 C 49.609997 103.8955 48.882958 103.58988 48.226562 103.17383 C 48.305601 103.44967 48.373769 103.72871 48.455078 104.00391 C 50.266394 108.05675 56.360837 109.06525 59.443359 105.83789 C 63.4449 101.55959 68.103516 92.585939 68.103516 92.585938 C 68.103516 92.585938 81.50443 95.080094 86.869141 94.921875 C 90.075488 94.710335 92.75846 92.191519 92.996094 89.035156 C 93.498115 85.439684 90.95446 82.720871 88.884766 79.978516 z M 48.523438 80.552734 L 48.722656 81.3125 C 50.071464 86.46214 51.152161 91.267699 52.398438 95.900391 C 52.776954 95.394296 53.188043 94.810436 53.607422 94.199219 C 53.612318 94.192084 53.618148 94.184879 53.623047 94.177734 C 52.872373 91.14379 52.125293 88.026995 51.269531 84.759766 L 50.402344 81.453125 L 48.523438 80.552734 z M 81.986328 83.085938 C 82.178437 83.37314 82.373451 83.684052 82.558594 83.943359 C 82.574313 83.944111 82.603599 83.946539 82.619141 83.947266 C 82.589282 83.900777 82.629719 83.964191 82.595703 83.912109 C 82.437513 83.671897 82.224532 83.393525 81.986328 83.085938 z "
       transform="scale(0.26458333)" />
    <path
       id="path8-2"
       style="fill:#7b0000;fill-opacity:0.0720153;stroke-width:1.72206"
       d="M 97.123047 30.039062 A 6.8882471 6.8882471 0 0 1 97.402344 31.980469 A 6.8882471 6.8882471 0 0 1 90.513672 38.869141 A 6.8882471 6.8882471 0 0 1 87.525391 38.185547 A 6.8882471 6.8882471 0 0 0 94.130859 43.132812 A 6.8882471 6.8882471 0 0 0 101.01953 36.244141 A 6.8882471 6.8882471 0 0 0 97.123047 30.039062 z M 82.833984 40.324219 C 83.048216 41.033648 83.162378 41.775435 83.152344 42.513672 C 81.684171 49.750167 79.167164 56.733549 77.261719 63.865234 C 79.78331 67.617655 82.596818 71.174373 85.181641 74.884766 C 87.266099 78.22806 91.051263 81.278 90.449219 85.589844 C 90.211585 88.746207 87.530566 91.263069 84.324219 91.474609 C 78.959508 91.632828 65.556641 89.140625 65.556641 89.140625 C 65.556641 89.140625 60.898025 98.114276 56.896484 102.39258 C 54.929826 104.45164 51.741126 104.77956 49.216797 103.69922 C 49.322515 104.07205 49.415577 104.44864 49.525391 104.82031 C 51.33671 108.87316 57.433095 109.88361 60.515625 106.65625 C 64.517166 102.37795 69.173828 93.402344 69.173828 93.402344 C 69.173828 93.402344 82.576696 95.8965 87.941406 95.738281 C 91.147746 95.526741 93.830729 93.007925 94.068359 89.851562 C 94.670412 85.53972 90.88329 82.489779 88.798828 79.146484 C 86.214009 75.436092 83.402451 71.881327 80.880859 68.128906 C 82.786312 60.997221 85.301362 54.011886 86.769531 46.775391 C 86.805773 44.109107 85.295624 41.400669 82.833984 40.324219 z M 75.189453 43.46875 C 74.509286 43.864058 73.369736 44.656399 70.007812 46.236328 L 69.435547 46.525391 C 69.700102 46.404257 69.739272 46.368149 69.978516 46.255859 C 67.237757 47.806588 64.449477 49.390287 61.580078 50.945312 L 57.541016 53.132812 L 53.769531 50.527344 C 50.38318 48.192325 48.078897 46.278949 45.878906 44.853516 C 45.828147 49.545519 45.822931 54.237256 45.878906 58.931641 L 45.914062 61.890625 L 43.878906 64.052734 C 41.032945 67.076889 38.503494 69.747247 36.324219 72.429688 C 37.943787 73.269065 39.663834 74.096079 41.423828 74.933594 C 43.24606 72.827115 45.270713 70.681124 47.496094 68.316406 L 49.53125 66.154297 L 49.496094 63.195312 C 49.440119 58.500929 49.445335 53.807238 49.496094 49.115234 C 51.696092 50.540668 54.000368 52.455997 57.386719 54.791016 L 61.158203 57.394531 L 65.197266 55.208984 C 67.951888 53.716159 70.628849 52.198172 73.263672 50.707031 C 73.266104 50.698486 73.269054 50.690185 73.271484 50.681641 C 73.210339 50.713327 73.159095 50.740365 73.052734 50.789062 L 73.271484 50.677734 C 73.966633 48.234261 74.630581 45.832479 75.189453 43.46875 z M 32.458984 78.779297 C 33.046565 80.727624 34.43002 82.434637 36.439453 83.207031 C 38.35073 84.199122 40.295198 85.127184 42.242188 86.050781 C 42.00572 85.088508 41.772482 84.126254 41.521484 83.167969 C 38.615821 81.773323 35.681943 80.427739 32.822266 78.943359 C 32.696678 78.895085 32.579697 78.834689 32.458984 78.779297 z M 48.613281 80.898438 L 48.722656 81.3125 C 50.071464 86.46214 51.152161 91.267699 52.398438 95.900391 C 52.97123 95.134542 53.612831 94.204678 54.259766 93.234375 C 53.651707 90.755872 53.030225 88.212006 52.339844 85.576172 L 51.472656 82.269531 L 48.613281 80.898438 z "
       transform="scale(0.26458333)" />
  </g>
</svg>
