<?xml version="1.0" encoding="UTF-8" standalone="no"?>
<svg
   xmlns:dc="http://purl.org/dc/elements/1.1/"
   xmlns:cc="http://creativecommons.org/ns#"
   xmlns:rdf="http://www.w3.org/1999/02/22-rdf-syntax-ns#"
   xmlns:svg="http://www.w3.org/2000/svg"
   xmlns="http://www.w3.org/2000/svg"
   xmlns:xlink="http://www.w3.org/1999/xlink"
   xmlns:sodipodi="http://sodipodi.sourceforge.net/DTD/sodipodi-0.dtd"
   xmlns:inkscape="http://www.inkscape.org/namespaces/inkscape"
   width="128"
   height="128"
   viewBox="0 0 33.866666 33.866668"
   version="1.1"
   id="svg1443"
   inkscape:version="1.0.2 (e86c870879, 2021-01-15)"
   sodipodi:docname="ant-downloader.svg">
  <defs
     id="defs1437">
    <linearGradient
       gradientTransform="matrix(0.97573206,0,0,0.97573206,-111.76517,-37.182508)"
       gradientUnits="userSpaceOnUse"
       y2="70.679932"
       x2="132.21078"
       y1="42.151531"
       x1="132.21078"
       id="linearGradient1632"
       xlink:href="#linearGradient1630"
       inkscape:collect="always" />
    <linearGradient
       id="linearGradient1630"
       inkscape:collect="always">
      <stop
         id="stop1626"
         offset="0"
         style="stop-color:#fafafc;stop-opacity:1" />
      <stop
         id="stop1628"
         offset="1"
         style="stop-color:#e2e6ea;stop-opacity:1" />
    </linearGradient>
    <filter
       color-interpolation-filters="sRGB"
       height="1.1311001"
       width="1.1106"
       y="-0.065563001"
       x="-0.055319"
       id="c-9">
      <feGaussianBlur
         id="feGaussianBlur1093"
         stdDeviation="1.1062912" />
    </filter>
    <linearGradient
       gradientUnits="userSpaceOnUse"
       gradientTransform="matrix(0.13235,0,0,0.13075,-32.379,1.0873)"
       y2="269.48999"
       y1="235.14999"
       x2="657.65002"
       x1="319.20999"
       id="a-12">
      <stop
         id="stop1076"
         offset="0"
         stop-color="#e54c18" />
      <stop
         id="stop1078"
         offset="1"
         stop-color="#fec350" />
    </linearGradient>
  </defs>
  <sodipodi:namedview
     id="base"
     pagecolor="#ffffff"
     bordercolor="#666666"
     borderopacity="1.0"
     inkscape:pageopacity="0.0"
     inkscape:pageshadow="2"
     inkscape:zoom="1.979899"
     inkscape:cx="-48.985777"
     inkscape:cy="149.02225"
     inkscape:document-units="mm"
     inkscape:current-layer="layer1"
     inkscape:document-rotation="0"
     showgrid="false"
     units="px"
     inkscape:window-width="1920"
     inkscape:window-height="1028"
     inkscape:window-x="0"
     inkscape:window-y="24"
     inkscape:window-maximized="1" />
  <metadata
     id="metadata1440">
    <rdf:RDF>
      <cc:Work
         rdf:about="">
        <dc:format>image/svg+xml</dc:format>
        <dc:type
           rdf:resource="http://purl.org/dc/dcmitype/StillImage" />
        <dc:title></dc:title>
      </cc:Work>
    </rdf:RDF>
  </metadata>
  <g
     inkscape:label="Capa 1"
     inkscape:groupmode="layer"
     id="layer1">
    <g
       style="opacity:0.295"
       transform="matrix(0.97573206,0,0,0.97573206,-65.737228,-37.182508)"
       id="g1702">
      <rect
         ry="6.6098609"
         rx="6.6098609"
         y="40.709618"
         x="69.839508"
         height="29.810888"
         width="29.810888"
         id="rect1634"
         style="fill:none;fill-opacity:1;stroke:#000000;stroke-width:0.1;stroke-linecap:round;stroke-linejoin:round;stroke-miterlimit:4;stroke-dasharray:none;stroke-opacity:0.02" />
      <rect
         style="fill:none;fill-opacity:1;stroke:#000000;stroke-width:0.2;stroke-linecap:round;stroke-linejoin:round;stroke-miterlimit:4;stroke-dasharray:none;stroke-opacity:0.02"
         id="rect1638"
         width="29.810888"
         height="29.810888"
         x="69.839508"
         y="40.709618"
         rx="6.6098609"
         ry="6.6098609" />
      <rect
         ry="6.6098609"
         rx="6.6098609"
         y="40.709618"
         x="69.839508"
         height="29.810888"
         width="29.810888"
         id="rect1640"
         style="fill:none;fill-opacity:1;stroke:#000000;stroke-width:0.3;stroke-linecap:round;stroke-linejoin:round;stroke-miterlimit:4;stroke-dasharray:none;stroke-opacity:0.02" />
      <rect
         style="fill:none;fill-opacity:1;stroke:#000000;stroke-width:0.4;stroke-linecap:round;stroke-linejoin:round;stroke-miterlimit:4;stroke-dasharray:none;stroke-opacity:0.02"
         id="rect1642"
         width="29.810888"
         height="29.810888"
         x="69.839508"
         y="40.709618"
         rx="6.6098609"
         ry="6.6098609" />
      <rect
         ry="6.6098609"
         rx="6.6098609"
         y="40.709618"
         x="69.839508"
         height="29.810888"
         width="29.810888"
         id="rect1644"
         style="fill:none;fill-opacity:1;stroke:#000000;stroke-width:0.5;stroke-linecap:round;stroke-linejoin:round;stroke-miterlimit:4;stroke-dasharray:none;stroke-opacity:0.02" />
      <rect
         style="fill:none;fill-opacity:1;stroke:#000000;stroke-width:0.6;stroke-linecap:round;stroke-linejoin:round;stroke-miterlimit:4;stroke-dasharray:none;stroke-opacity:0.02"
         id="rect1646"
         width="29.810888"
         height="29.810888"
         x="69.839508"
         y="40.709618"
         rx="6.6098609"
         ry="6.6098609" />
      <rect
         ry="6.6098609"
         rx="6.6098609"
         y="40.709618"
         x="69.839508"
         height="29.810888"
         width="29.810888"
         id="rect1648"
         style="fill:none;fill-opacity:1;stroke:#000000;stroke-width:0.7;stroke-linecap:round;stroke-linejoin:round;stroke-miterlimit:4;stroke-dasharray:none;stroke-opacity:0.02" />
      <rect
         style="fill:none;fill-opacity:1;stroke:#000000;stroke-width:0.8;stroke-linecap:round;stroke-linejoin:round;stroke-miterlimit:4;stroke-dasharray:none;stroke-opacity:0.02"
         id="rect1650"
         width="29.810888"
         height="29.810888"
         x="69.839508"
         y="40.709618"
         rx="6.6098609"
         ry="6.6098609" />
      <rect
         ry="6.6098609"
         rx="6.6098609"
         y="40.709618"
         x="69.839508"
         height="29.810888"
         width="29.810888"
         id="rect1652"
         style="fill:none;fill-opacity:1;stroke:#000000;stroke-width:1;stroke-linecap:round;stroke-linejoin:round;stroke-miterlimit:4;stroke-dasharray:none;stroke-opacity:0.02" />
      <rect
         style="fill:none;fill-opacity:1;stroke:#000000;stroke-width:1.2;stroke-linecap:round;stroke-linejoin:round;stroke-miterlimit:4;stroke-dasharray:none;stroke-opacity:0.02"
         id="rect1654"
         width="29.810888"
         height="29.810888"
         x="69.839508"
         y="40.709618"
         rx="6.6098609"
         ry="6.6098609" />
      <rect
         ry="6.6098609"
         rx="6.6098609"
         y="40.709618"
         x="69.839508"
         height="29.810888"
         width="29.810888"
         id="rect1656"
         style="fill:none;fill-opacity:1;stroke:#000000;stroke-width:1.4;stroke-linecap:round;stroke-linejoin:round;stroke-miterlimit:4;stroke-dasharray:none;stroke-opacity:0.02" />
      <rect
         style="fill:none;fill-opacity:1;stroke:#000000;stroke-width:1.6;stroke-linecap:round;stroke-linejoin:round;stroke-miterlimit:4;stroke-dasharray:none;stroke-opacity:0.02"
         id="rect1658"
         width="29.810888"
         height="29.810888"
         x="69.839508"
         y="40.709618"
         rx="6.6098609"
         ry="6.6098609" />
      <rect
         ry="6.6098609"
         rx="6.6098609"
         y="40.709618"
         x="69.839508"
         height="29.810888"
         width="29.810888"
         id="rect1660"
         style="fill:none;fill-opacity:1;stroke:#000000;stroke-width:1.8;stroke-linecap:round;stroke-linejoin:round;stroke-miterlimit:4;stroke-dasharray:none;stroke-opacity:0.02" />
      <rect
         style="fill:none;fill-opacity:1;stroke:#000000;stroke-width:2;stroke-linecap:round;stroke-linejoin:round;stroke-miterlimit:4;stroke-dasharray:none;stroke-opacity:0.02"
         id="rect1662"
         width="29.810888"
         height="29.810888"
         x="69.839508"
         y="40.709618"
         rx="6.6098609"
         ry="6.6098609" />
      <rect
         ry="6.6098609"
         rx="6.6098609"
         y="40.709618"
         x="69.839508"
         height="29.810888"
         width="29.810888"
         id="rect1664"
         style="fill:none;fill-opacity:1;stroke:#000000;stroke-width:2.2;stroke-linecap:round;stroke-linejoin:round;stroke-miterlimit:4;stroke-dasharray:none;stroke-opacity:0.02" />
      <rect
         style="fill:none;fill-opacity:1;stroke:#000000;stroke-width:2.6;stroke-linecap:round;stroke-linejoin:round;stroke-miterlimit:4;stroke-dasharray:none;stroke-opacity:0.02"
         id="rect1666"
         width="29.810888"
         height="29.810888"
         x="69.839508"
         y="40.709618"
         rx="6.6098609"
         ry="6.6098609" />
      <rect
         ry="6.6098609"
         rx="6.6098609"
         y="40.709618"
         x="69.839508"
         height="29.810888"
         width="29.810888"
         id="rect1668"
         style="fill:none;fill-opacity:1;stroke:#000000;stroke-width:3;stroke-linecap:round;stroke-linejoin:round;stroke-miterlimit:4;stroke-dasharray:none;stroke-opacity:0.02" />
      <rect
         style="fill:none;fill-opacity:1;stroke:#000000;stroke-width:3.4;stroke-linecap:round;stroke-linejoin:round;stroke-miterlimit:4;stroke-dasharray:none;stroke-opacity:0.02"
         id="rect1670"
         width="29.810888"
         height="29.810888"
         x="69.839508"
         y="40.709618"
         rx="6.6098609"
         ry="6.6098609" />
      <rect
         ry="6.6098609"
         rx="6.6098609"
         y="40.709618"
         x="69.839508"
         height="29.810888"
         width="29.810888"
         id="rect1672"
         style="fill:none;fill-opacity:1;stroke:#000000;stroke-width:3.8;stroke-linecap:round;stroke-linejoin:round;stroke-miterlimit:4;stroke-dasharray:none;stroke-opacity:0.02" />
      <rect
         style="fill:none;fill-opacity:1;stroke:#000000;stroke-width:4.2;stroke-linecap:round;stroke-linejoin:round;stroke-miterlimit:4;stroke-dasharray:none;stroke-opacity:0.02"
         id="rect1674"
         width="29.810888"
         height="29.810888"
         x="69.839508"
         y="40.709618"
         rx="6.6098609"
         ry="6.6098609" />
      <rect
         ry="6.6098609"
         rx="6.6098609"
         y="40.709618"
         x="69.839508"
         height="29.810888"
         width="29.810888"
         id="rect1676"
         style="fill:none;fill-opacity:1;stroke:#000000;stroke-width:4.6;stroke-linecap:round;stroke-linejoin:round;stroke-miterlimit:4;stroke-dasharray:none;stroke-opacity:0.02" />
      <rect
         style="fill:none;fill-opacity:1;stroke:#000000;stroke-width:5;stroke-linecap:round;stroke-linejoin:round;stroke-miterlimit:4;stroke-dasharray:none;stroke-opacity:0.02"
         id="rect1678"
         width="29.810888"
         height="29.810888"
         x="69.839508"
         y="40.709618"
         rx="6.6098609"
         ry="6.6098609" />
    </g>
    <rect
       ry="6.4494534"
       rx="6.4494534"
       y="2.5391712"
       x="2.4074187"
       height="29.087439"
       width="29.087439"
       id="rect849"
       style="fill:url(#linearGradient1632);fill-opacity:1;stroke-width:2.68768;stroke-linecap:round;stroke-linejoin:round" />
    <g
       id="g936"
       transform="translate(-1.3103282,-0.29653278)">
      <path
         style="opacity:0.1;stroke-width:0.502619"
         d="m 10.123455,6.6793328 c -0.01292,1.8045863 0.264692,3.6966202 1.240844,5.2519812 0.307741,0.388729 0.848031,1.127431 1.380239,1.401839 -0.448648,0.701453 -0.843917,1.43813 -1.158381,2.22252 -0.762915,1.681526 -1.284487,3.464589 -1.6138793,5.277506 0.3863573,-0.328124 0.8298663,-1.428047 1.2290623,-2.036002 1.384234,-2.434131 2.677805,-4.918488 4.091636,-7.335104 0.686588,-1.152168 1.375317,-2.3042802 2.063489,-3.4555111 C 16.166894,9.2067072 14.95097,10.425794 13.889177,11.752649 12.387059,11.384887 11.12847,9.7634723 10.63982,8.4227936 10.426311,7.8538858 10.281554,7.2648702 10.123455,6.6793328 Z m 16.072047,0 c -0.158109,0.5855374 -0.300892,1.174553 -0.514401,1.7434608 -0.487649,1.3379337 -1.743465,2.9557204 -3.241502,3.3278914 -1.06139,-1.326015 -2.2764,-2.5446275 -3.465326,-3.7441231 0.68817,1.1512309 1.376901,2.3033431 2.063488,3.4555111 1.413833,2.416616 2.707403,4.900973 4.091638,7.335104 0.399195,0.607955 0.842704,1.707878 1.229062,2.036002 -0.329393,-1.812917 -0.850966,-3.59598 -1.613881,-5.277506 -0.315151,-0.786104 -0.712435,-1.523616 -1.162308,-2.226448 0.530012,-0.277224 1.065953,-1.010835 1.372388,-1.397911 0.97615,-1.555361 1.253849,-3.4473949 1.240842,-5.2519812 z M 17.503718,7.902504 c -2.34074,4.308717 -4.683663,8.617515 -6.977774,12.950308 -0.112517,0.428547 0.733142,-0.455143 0.983643,-0.539923 1.236083,-0.86039 2.457377,-1.741892 3.681295,-2.619121 0.345741,-0.859923 0.455249,-1.819601 0.706808,-2.71925 0.531222,-2.321859 1.122018,-4.637571 1.606028,-6.9659919 z m 1.323302,0 v 0.1060202 c 0.48401,2.3284208 1.074804,4.6441328 1.606026,6.9659918 0.251559,0.899649 0.361067,1.859327 0.706808,2.71925 1.223918,0.877229 2.445214,1.758731 3.681297,2.619121 0.2505,0.08478 1.09616,0.96847 0.983641,0.539923 C 23.510683,16.520017 21.167758,12.211219 18.82702,7.9025021 Z m -2.632862,12.210122 c -1.08317,0.335037 -2.288522,0.740281 -2.946999,1.721866 -0.391781,0.95861 0.353468,1.873398 1.070029,2.434562 0.868288,0.691423 1.821731,1.294889 2.839015,1.741499 -0.882127,-1.229554 -1.725141,-2.684259 -1.462702,-4.258524 0.05524,-0.577855 0.298479,-1.104294 0.500657,-1.639403 z m 3.930641,0 c 0.202179,0.535109 0.443444,1.061548 0.498692,1.639403 0.262443,1.574265 -0.580573,3.02897 -1.4627,4.258524 1.017284,-0.44661 1.97269,-1.050076 2.840979,-1.741499 0.716559,-0.561164 1.459847,-1.475952 1.068066,-2.434562 -0.658477,-0.981585 -1.861865,-1.386829 -2.945037,-1.721866 z M 9.1182167,22.808317 c 0.0114,0.502077 0.662227,1.353332 0.9365213,1.98888 0.691028,1.380161 1.366315,2.767519 2.051708,4.150539 -0.351563,-1.600524 -0.884016,-3.172516 -1.146599,-4.79452 0.640842,-0.409622 1.359732,-0.682338 2.043854,-1.013092 -1.295366,-0.110599 -2.590118,-0.22122 -3.8854843,-0.331807 z m 18.0943043,0 c -1.295368,0.110579 -2.590118,0.221218 -3.885484,0.331807 0.684122,0.330754 1.403012,0.60347 2.043855,1.013092 -0.262585,1.622004 -0.795035,3.193996 -1.146602,4.79452 0.685395,-1.38302 1.36068,-2.770378 2.051708,-4.150539 0.274295,-0.635548 0.925044,-1.486803 0.936523,-1.98888 z"
         id="path6" />
      <path
         style="fill:#342522;stroke-width:0.502619"
         d="m 10.123888,6.1761307 c -0.01292,1.8045862 0.264545,3.697336 1.240696,5.2526973 0.371545,0.469322 1.082278,1.460318 1.708204,1.512141 0.368621,-0.40949 1.072574,-1.206027 0.942565,-1.650862 C 12.456843,10.986885 11.141897,9.2996426 10.639408,7.9209915 10.425899,7.3520838 10.281986,6.761668 10.123888,6.1761307 Z"
         id="path8" />
      <path
         style="fill:#403431;stroke-width:0.502619"
         d="m 17.355962,7.504036 c -2.231373,2.2512031 -4.570408,4.556999 -5.76986,7.548874 -0.762917,1.681528 -1.284189,3.464739 -1.6135813,5.277655 0.3863573,-0.328121 0.8294313,-1.428061 1.2286253,-2.036015 1.384234,-2.434131 2.678238,-4.919158 4.092069,-7.335775 0.686588,-1.1521651 1.374573,-2.30351 2.062747,-3.454739 z"
         id="path10" />
      <path
         style="fill:#403431;stroke-width:0.502619"
         d="m 17.50337,7.3993987 c -2.34074,4.3087163 -4.683907,8.6175983 -6.978018,12.9503913 -0.112517,0.428547 0.733525,-0.455236 0.984024,-0.540016 1.236081,-0.860388 2.457554,-1.741103 3.681472,-2.618332 0.345741,-0.859925 0.45575,-1.820601 0.70731,-2.720247 0.531222,-2.321862 1.121202,-4.6370552 1.605212,-6.9654759 0,-0.035448 0,-0.070876 0,-0.1063242 z"
         id="path12" />
      <path
         style="fill:#342522;stroke-width:0.502619"
         d="m 16.193647,19.610093 c -1.08317,0.335036 -2.287793,0.739653 -2.946272,1.721236 -0.391779,0.958613 0.353152,1.87432 1.069711,2.435484 0.868289,0.691423 1.821955,1.295511 2.83924,1.742122 -0.882128,-1.229554 -1.724846,-2.685957 -1.462405,-4.260222 0.05524,-0.577857 0.297548,-1.103511 0.499726,-1.63862 z"
         id="path14" />
      <path
         style="fill:#403431;stroke-width:0.502619"
         d="m 9.1182167,22.306839 c 0.0114,0.502078 0.661741,1.35293 0.9360373,1.98848 0.691026,1.380159 1.367519,2.767707 2.052912,4.150725 -0.351563,-1.600524 -0.884313,-3.173642 -1.146898,-4.795646 0.640843,-0.409623 1.359923,-0.681056 2.044045,-1.011811 -1.295366,-0.110598 -2.59073,-0.22116 -3.8860963,-0.331748 z"
         id="path16" />
      <path
         style="fill:#342522;stroke-width:0.502619"
         d="m 26.196131,6.1761307 c 0.01292,1.8045862 -0.264546,3.697336 -1.240696,5.2526973 -0.371546,0.469322 -1.082281,1.460318 -1.708205,1.512141 -0.368622,-0.40949 -1.072573,-1.206027 -0.942566,-1.650862 1.558511,-0.303222 2.873455,-1.9904644 3.375947,-3.3691155 0.213507,-0.5689077 0.35742,-1.1593235 0.51552,-1.7448608 z"
         id="path18" />
      <path
         style="fill:#403431;stroke-width:0.502619"
         d="m 18.974776,7.504036 c 2.231371,2.2512031 4.570409,4.556999 5.769861,7.548874 0.762915,1.681528 1.284188,3.464739 1.61358,5.277655 C 25.97186,20.002444 25.528786,18.902504 25.12959,18.29455 23.745356,15.860419 22.451354,13.375392 21.037521,10.958775 20.350935,9.8066099 19.662949,8.655265 18.974776,7.504036 Z"
         id="path20" />
      <path
         style="fill:#403431;stroke-width:0.502619"
         d="m 18.827368,7.3993987 c 2.340738,4.3087163 4.683906,8.6175983 6.978017,12.9503913 0.112517,0.428547 -0.733523,-0.455236 -0.984023,-0.540016 -1.236083,-0.860388 -2.457556,-1.741103 -3.681472,-2.618332 -0.34574,-0.859925 -0.455752,-1.820601 -0.707309,-2.720247 -0.531222,-2.321862 -1.121203,-4.6370552 -1.605213,-6.9654759 0,-0.035448 0,-0.070876 0,-0.1063242 z"
         id="path22" />
      <path
         style="fill:#342522;stroke-width:0.502619"
         d="m 20.12424,19.610093 c 1.08317,0.335036 2.287793,0.739653 2.94627,1.721236 0.391781,0.958613 -0.35315,1.87432 -1.069711,2.435484 -0.868287,0.691423 -1.821955,1.295511 -2.839238,1.742122 0.882126,-1.229554 1.724844,-2.685957 1.462403,-4.260222 -0.05524,-0.577857 -0.297546,-1.103511 -0.499724,-1.63862 z"
         id="path24" />
      <path
         style="fill:#403431;stroke-width:0.502619"
         d="m 27.212521,22.306839 c -0.0114,0.502078 -0.661742,1.35293 -0.936037,1.98848 -0.691027,1.380159 -1.367521,2.767707 -2.052914,4.150725 0.351565,-1.600524 0.884313,-3.173642 1.146898,-4.795646 -0.640842,-0.409623 -1.35992,-0.681056 -2.044045,-1.011811 1.295368,-0.110598 2.59073,-0.22116 3.886098,-0.331748 z"
         id="path26" />
    </g>
  </g>
</svg>
