<?xml version="1.0" encoding="UTF-8" standalone="no"?>
<svg
   xmlns:dc="http://purl.org/dc/elements/1.1/"
   xmlns:cc="http://creativecommons.org/ns#"
   xmlns:rdf="http://www.w3.org/1999/02/22-rdf-syntax-ns#"
   xmlns:svg="http://www.w3.org/2000/svg"
   xmlns="http://www.w3.org/2000/svg"
   xmlns:xlink="http://www.w3.org/1999/xlink"
   xmlns:sodipodi="http://sodipodi.sourceforge.net/DTD/sodipodi-0.dtd"
   xmlns:inkscape="http://www.inkscape.org/namespaces/inkscape"
   version="1.1"
   id="svg2"
   width="128"
   height="128"
   viewBox="0 0 128 128"
   sodipodi:docname="apk-editor-estudio.svg"
   inkscape:version="1.1-dev (1:0.92.0+devel+202004260039+9758c7a)">
  <metadata
     id="metadata8">
    <rdf:RDF>
      <cc:Work
         rdf:about="">
        <dc:format>image/svg+xml</dc:format>
        <dc:type
           rdf:resource="http://purl.org/dc/dcmitype/StillImage" />
      </cc:Work>
    </rdf:RDF>
  </metadata>
  <defs
     id="defs6">
    <linearGradient
       inkscape:collect="always"
       id="linearGradient833">
      <stop
         style="stop-color:#33d655;stop-opacity:1"
         offset="0"
         id="stop829" />
      <stop
         style="stop-color:#70e873;stop-opacity:1"
         offset="1"
         id="stop831" />
    </linearGradient>
    <linearGradient
       inkscape:collect="always"
       id="linearGradient823">
      <stop
         style="stop-color:#2fbe50;stop-opacity:1"
         offset="0"
         id="stop819" />
      <stop
         style="stop-color:#70e873;stop-opacity:1"
         offset="1"
         id="stop821" />
    </linearGradient>
    <linearGradient
       inkscape:collect="always"
       xlink:href="#linearGradient823"
       id="linearGradient825"
       x1="-741.83197"
       y1="959.04749"
       x2="-741.83197"
       y2="93.836403"
       gradientUnits="userSpaceOnUse"
       gradientTransform="matrix(0.13667801,0,0,0.13667801,162.31231,-5.989337)" />
    <linearGradient
       inkscape:collect="always"
       xlink:href="#linearGradient833"
       id="linearGradient835"
       x1="-738.76385"
       y1="931.43433"
       x2="-738.76385"
       y2="152.13077"
       gradientUnits="userSpaceOnUse"
       gradientTransform="matrix(0.13667801,0,0,0.13667801,161.84082,-5.989337)" />
    <linearGradient
       id="a">
      <stop
         id="stop1811"
         offset="0" />
      <stop
         id="stop1813"
         offset="1"
         stop-opacity="0" />
    </linearGradient>
    <linearGradient
       id="b">
      <stop
         id="stop1816"
         offset="0"
         stop-color="#138346" />
      <stop
         id="stop1818"
         offset="1"
         stop-color="#30b063" />
    </linearGradient>
    <linearGradient
       gradientUnits="userSpaceOnUse"
       gradientTransform="matrix(.19189 0 0 .19189 -44.664 -25.598)"
       y2="463.07"
       y1="137.89"
       x2="402.71"
       x1="402.71"
       id="g">
      <stop
         id="stop1821"
         offset="0"
         stop-color="#232323" />
      <stop
         id="stop1823"
         offset="1"
         stop-color="#5c5c5c" />
    </linearGradient>
    <filter
       color-interpolation-filters="sRGB"
       height="1.072"
       width="1.072"
       y="-.036"
       x="-.036"
       id="i">
      <feGaussianBlur
         id="feGaussianBlur1826"
         stdDeviation="4.5" />
    </filter>
    <linearGradient
       xlink:href="#b"
       gradientUnits="userSpaceOnUse"
       y2="39"
       y1="19.458"
       x2="63"
       x1="86"
       id="h" />
    <linearGradient
       xlink:href="#a"
       gradientUnits="userSpaceOnUse"
       y2="20"
       y1="20"
       x2="83"
       x1="86"
       id="f" />
    <linearGradient
       xlink:href="#b"
       gradientUnits="userSpaceOnUse"
       y2="24"
       y1="46"
       x2="63"
       x1="87"
       id="e" />
    <linearGradient
       xlink:href="#a"
       gradientUnits="userSpaceOnUse"
       y2="44"
       y1="44"
       x2="83"
       x1="86"
       id="d" />
    <filter
       color-interpolation-filters="sRGB"
       height="1.1921"
       width="1.1919"
       y="-.096063"
       x="-.095937"
       id="l">
      <feGaussianBlur
         id="feGaussianBlur1833"
         stdDeviation="0.96151885" />
    </filter>
    <filter
       color-interpolation-filters="sRGB"
       height="1.1924"
       width="1.1916"
       y="-.096205"
       x="-.095796"
       id="k">
      <feGaussianBlur
         id="feGaussianBlur1836"
         stdDeviation="1.2794177" />
    </filter>
    <filter
       color-interpolation-filters="sRGB"
       height="1.12"
       width="1.12"
       y="-.06"
       x="-.06"
       id="j">
      <feGaussianBlur
         id="feGaussianBlur1839"
         stdDeviation="1.35" />
    </filter>
    <linearGradient
       gradientUnits="userSpaceOnUse"
       y2="62.008"
       y1="2.0059"
       x2="32.001"
       x1="32.001"
       id="c">
      <stop
         id="stop1842"
         offset="0"
         stop-color="#15a156" />
      <stop
         id="stop1844"
         offset="1"
         stop-color="#42cc89" />
    </linearGradient>
    <filter
       color-interpolation-filters="sRGB"
       height="1.072"
       width="1.072"
       y="-.036"
       x="-.036"
       id="d-3">
      <feGaussianBlur
         id="feGaussianBlur1940"
         stdDeviation="14.16" />
    </filter>
    <linearGradient
       gradientUnits="userSpaceOnUse"
       gradientTransform="matrix(1.9136,0,0,1.9136,130.67,12.607)"
       y2="43.297"
       y1="40.856"
       x2="-23.085"
       x1="-20.542"
       id="f-6">
      <stop
         id="stop1943"
         offset="0"
         stop-color="#a9a9a9" />
      <stop
         id="stop1945"
         offset="1"
         stop-opacity="0"
         stop-color="#a9a9a9" />
    </linearGradient>
    <linearGradient
       xlink:href="#a-5"
       gradientUnits="userSpaceOnUse"
       gradientTransform="matrix(1.9136,0,0,1.9136,130.67,12.607)"
       y2="51.186"
       y1="51.186"
       x2="-43.792"
       x1="-59.612"
       id="h-7" />
    <linearGradient
       id="a-5">
      <stop
         id="stop1949"
         offset="0"
         stop-color="#ffd700" />
      <stop
         id="stop1951"
         offset="1"
         stop-color="#998100" />
    </linearGradient>
    <linearGradient
       xlink:href="#a-5"
       gradientUnits="userSpaceOnUse"
       gradientTransform="matrix(2.0324,0,0,2.0324,-383.73,-1215.5)"
       y2="614.41"
       y1="611.18"
       x2="228.81"
       x1="228.81"
       id="e-3" />
    <linearGradient
       gradientUnits="userSpaceOnUse"
       gradientTransform="matrix(1.9136,0,0,1.9136,130.67,12.607)"
       y2="22.645"
       y1="23.19"
       x2="-43.234"
       x1="-46.135"
       id="j-5">
      <stop
         id="stop1955"
         offset="0"
         stop-color="#232323" />
      <stop
         id="stop1957"
         offset="1"
         stop-opacity="0"
         stop-color="#232323" />
    </linearGradient>
    <linearGradient
       xlink:href="#a-5"
       gradientUnits="userSpaceOnUse"
       gradientTransform="matrix(1.9136,0,0,1.9136,130.67,12.607)"
       y2="44.578"
       y1="44.578"
       x2="-12.07"
       x1="-23.465"
       id="i-6" />
    <linearGradient
       gradientUnits="userSpaceOnUse"
       gradientTransform="matrix(1.9136,0,0,1.9136,130.59,13.326)"
       y2="36.636"
       y1="26.67"
       x2="-26.186"
       x1="-27.665"
       id="g-2">
      <stop
         id="stop1961"
         offset="0"
         stop-color="#fdfdfd" />
      <stop
         id="stop1963"
         offset="1"
         stop-color="#a6a6a6" />
    </linearGradient>
    <linearGradient
       gradientUnits="userSpaceOnUse"
       y2="62"
       y1="2"
       x2="32"
       x1="32"
       id="c-9"
       gradientTransform="translate(-141.95153,-12.167616)">
      <stop
         id="stop1966"
         offset="0"
         stop-color="#fdfdfd" />
      <stop
         id="stop1968"
         offset="1"
         stop-color="#dcdcdc" />
    </linearGradient>
    <linearGradient
       gradientUnits="userSpaceOnUse"
       gradientTransform="matrix(0.83333,0,0,0.83333,-136.61823,-6.834416)"
       y2="62"
       y1="2"
       x2="32"
       x1="32"
       id="b-1">
      <stop
         id="stop1971"
         offset="0"
         stop-color="#bbdfff" />
      <stop
         id="stop1973"
         offset="1"
         stop-color="#47a6ff" />
    </linearGradient>
    <filter
       color-interpolation-filters="sRGB"
       height="1.1048"
       width="1.1403"
       y="-.052408"
       x="-.070164"
       id="k-2">
      <feGaussianBlur
         id="feGaussianBlur1976"
         stdDeviation="2.693051" />
    </filter>
    <filter
       color-interpolation-filters="sRGB"
       height="1.072"
       width="1.072"
       y="-.036"
       x="-.036"
       id="c-7">
      <feGaussianBlur
         id="feGaussianBlur2175"
         stdDeviation="14.343749" />
    </filter>
    <linearGradient
       gradientUnits="userSpaceOnUse"
       gradientTransform="translate(75.051,4.8175)"
       y2="57.398"
       y1="-2.9857"
       x2="-18.241"
       x1="-17.857"
       id="a-0">
      <stop
         id="stop2178"
         offset="0"
         stop-color="#fbc83d" />
      <stop
         id="stop2180"
         offset="1"
         stop-color="#f06836" />
    </linearGradient>
    <filter
       color-interpolation-filters="sRGB"
       height="1.1204"
       width="1.1196"
       y="-.060177"
       x="-.059824"
       id="b-9">
      <feGaussianBlur
         id="feGaussianBlur2183"
         stdDeviation="0.97539128" />
    </filter>
  </defs>
  <sodipodi:namedview
     pagecolor="#ffffff"
     bordercolor="#666666"
     borderopacity="1"
     objecttolerance="10"
     gridtolerance="10"
     guidetolerance="10"
     inkscape:pageopacity="0"
     inkscape:pageshadow="2"
     inkscape:window-width="1920"
     inkscape:window-height="1024"
     id="namedview4"
     showgrid="false"
     inkscape:zoom="0.5"
     inkscape:cx="106.05004"
     inkscape:cy="56.476244"
     inkscape:window-x="0"
     inkscape:window-y="30"
     inkscape:window-maximized="1"
     inkscape:current-layer="svg2"
     showguides="true"
     inkscape:guide-bbox="true" />
  <circle
     style="opacity:1;fill:url(#linearGradient825);fill-opacity:1;stroke:none;stroke-width:0.78699166;stroke-linecap:round;stroke-linejoin:round;stroke-miterlimit:4;stroke-dasharray:none;stroke-opacity:1"
     id="path817"
     cx="63.591888"
     cy="64.286316"
     r="61.380009" />
  <circle
     r="55.089832"
     cy="64.286316"
     cx="63.120399"
     id="circle827"
     style="opacity:1;fill:url(#linearGradient835);fill-opacity:1;stroke:none;stroke-width:0.706341;stroke-linecap:round;stroke-linejoin:round;stroke-miterlimit:4;stroke-dasharray:none;stroke-opacity:1" />
  <path
     d="m 32.25781,28.751953 a 1.5,1.5 0 0 0 -0.544922,0.214844 1.5,1.5 0 0 0 -0.449219,2.074219 l 5.058594,7.863281 c -4.305729,3.902421 -7.019531,9.526856 -7.019531,15.822265 V 55.0625 h 42.71875 v -0.335938 c 0,-6.295408 -2.713803,-11.919844 -7.019531,-15.822265 l 5.058593,-7.863281 a 1.5,1.5 0 0 0 -0.449219,-2.074219 1.5,1.5 0 0 0 -0.544921,-0.212891 1.5,1.5 0 0 0 -0.583985,0.0098 1.5,1.5 0 0 0 -0.943359,0.654297 l -4.894531,7.607422 c -3.413057,-2.309531 -7.533589,-3.658204 -11.982422,-3.658203 -4.447855,0 -8.569803,1.347648 -11.982422,3.65625 l -4.892578,-7.605469 a 1.5,1.5 0 0 0 -0.94336,-0.654297 1.5,1.5 0 0 0 -0.585937,-0.01172 z m 8.212891,13.929688 a 3.1237154,3.1237154 0 0 1 3.123046,3.125 3.1237154,3.1237154 0 0 1 -3.123046,3.123047 3.1237154,3.1237154 0 0 1 -3.125,-3.123047 3.1237154,3.1237154 0 0 1 3.125,-3.125 z m 20.384765,0 a 3.1237154,3.1237154 0 0 1 3.123047,3.125 3.1237154,3.1237154 0 0 1 -3.123047,3.123047 3.1237154,3.1237154 0 0 1 -3.123047,-3.123047 3.1237154,3.1237154 0 0 1 3.123047,-3.125 z M 29.302732,59.277344 v 11.583984 7.626953 9.339844 c 0,6.657742 5.35984,12.017568 12.017578,12.017578 h 9.341797 9.339844 c 6.641894,-2e-5 11.992141,-5.33499 12.017578,-11.970703 h -5.158204 c -0.2675,-1.864677 1.097845,-2.935809 1.115235,-4.863281 0.002,-0.0085 0.0039,-0.01689 0.0059,-0.02539 -9.5e-4,-0.0072 -0.0013,-0.01428 -0.002,-0.02148 -0.01182,-1.807337 -1.479729,-3.266578 -3.287109,-3.267578 -1.80661,0.0021 -3.273357,1.461001 -3.285156,3.267578 v 0.002 c -10e-4,0.0065 -0.0029,0.01303 -0.0039,0.01953 0.003,0.01369 0.0048,0.02737 0.0078,0.04102 0.02294,1.917179 1.227853,2.98808 0.939453,4.847656 h -5.755859 c -1.984131,0 -3.582032,-1.597901 -3.582032,-3.582031 v -4.88086 c -1.61352,-0.02609 -2.657979,1.148023 -4.435547,1.164063 -0.0085,0.002 -0.01739,0.0039 -0.02539,0.0059 -0.0072,-0.001 -0.01449,-0.0013 -0.02149,-0.002 -1.80734,-0.01182 -3.266578,-1.479729 -3.267578,-3.287109 0.0021,-1.80661 1.460998,-3.273357 3.267578,-3.285157 h 0.002 c 0.0065,-9.99e-4 0.01253,-0.0029 0.01953,-0.0039 0.0137,0.003 0.02741,0.0048 0.04101,0.0078 1.767552,0.02115 2.811283,1.05734 4.419922,0.99414 v -4.714843 c 0,-1.984129 1.597902,-3.580078 3.582032,-3.580078 h 5.759765 c 0.27579,1.846377 -0.920509,2.916333 -0.943359,4.826171 -0.003,0.01365 -0.0048,0.02733 -0.0078,0.04102 10e-4,0.0065 0.0029,0.01303 0.0039,0.01953 v 0.002 c 0.0118,1.806577 1.478546,3.265479 3.285156,3.267579 1.80738,-10e-4 3.275289,-1.460242 3.287109,-3.267579 6e-4,-0.0072 9.53e-4,-0.01428 0.002,-0.02148 -0.002,-0.0085 -0.0039,-0.01689 -0.0059,-0.02539 -0.01732,-1.9201 -1.373051,-2.990359 -1.119141,-4.841796 h 5.164063 v -7.433594 z"
     style="fill:#ffffff;stroke:none;stroke-width:8.72357;stroke-linecap:round;stroke-linejoin:round;stroke-miterlimit:4;stroke-dasharray:none;stroke-opacity:1"
     id="rect890" />
  <g
     transform="translate(-1.9676135)"
     id="g931">
    <path
       style="color:#000000;fill:none;stroke-width:3;stroke-linecap:round"
       d="M 74.240998,38.897846 81.309602,27.908871"
       id="path933" />
  </g>
  <g
     transform="translate(-1.9676135)"
     id="g917">
    <path
       style="color:#000000;fill:none;stroke-width:3;stroke-linecap:round"
       d="M 52.10344,38.897846 45.034836,27.908871"
       id="path925" />
  </g>
  <path
     d="m 82.193954,65.938225 c -1.98413,0 -3.58203,1.595949 -3.58203,3.580078 v 4.714844 c -1.60864,0.0632 -2.65237,-0.972989 -4.41992,-0.99414 -0.0136,-0.003 -0.0273,-0.0048 -0.041,-0.0078 -0.007,0.001 -0.013,0.0029 -0.0195,0.0039 h -0.002 c -1.80658,0.0118 -3.26546,1.478547 -3.26758,3.285157 0.001,1.80738 1.46024,3.275289 3.26758,3.287109 0.007,6.7e-4 0.0143,9.53e-4 0.0215,0.002 0.008,-0.002 0.0169,-0.0039 0.0254,-0.0059 1.77756,-0.01604 2.82202,-1.190156 4.43554,-1.164063 v 4.88086 c 0,1.98413 1.5979,3.582031 3.58203,3.582031 h 5.75586 c 0.2884,-1.859576 -0.91651,-2.930477 -0.93945,-4.847656 -0.003,-0.01365 -0.005,-0.02733 -0.008,-0.04102 10e-4,-0.0065 0.003,-0.01302 0.004,-0.01953 v -0.002 c 0.0118,-1.806577 1.47855,-3.26546 3.28516,-3.267579 1.807383,0.001 3.275293,1.460242 3.287113,3.267579 6.7e-4,0.0072 9.5e-4,0.01432 0.002,0.02148 -0.002,0.0085 -0.004,0.01693 -0.006,0.02539 -0.0174,1.927472 -1.38273,2.998604 -1.11523,4.863281 h 5.931641 c 1.984132,0 3.582032,-1.597901 3.582032,-3.582031 V 69.518303 c 0,-1.98413 -1.5979,-3.580078 -3.582032,-3.580078 h -5.935551 c -0.25391,1.851437 1.10182,2.921697 1.11914,4.841797 0.002,0.0085 0.004,0.01689 0.006,0.02539 -0.001,0.0072 -0.001,0.01428 -0.002,0.02148 -0.0118,1.807337 -1.47973,3.266578 -3.287113,3.267578 -1.80661,-0.0021 -3.27336,-1.461001 -3.28516,-3.267578 v -0.002 c -10e-4,-0.0065 -0.003,-0.01303 -0.004,-0.01953 0.003,-0.01369 0.005,-0.02737 0.008,-0.04102 0.0228,-1.909838 1.21915,-2.979795 0.94336,-4.826172 z"
     style="fill:#ffffff;fill-opacity:1;stroke:none;stroke-width:3;stroke-linecap:round;stroke-linejoin:round;stroke-miterlimit:4;stroke-dasharray:none;stroke-opacity:1"
     id="rect953" />
</svg>
