<?xml version="1.0" encoding="UTF-8" standalone="no"?>
<!-- Created with Inkscape (http://www.inkscape.org/) -->

<svg
   xmlns:dc="http://purl.org/dc/elements/1.1/"
   xmlns:cc="http://creativecommons.org/ns#"
   xmlns:rdf="http://www.w3.org/1999/02/22-rdf-syntax-ns#"
   xmlns:svg="http://www.w3.org/2000/svg"
   xmlns="http://www.w3.org/2000/svg"
   xmlns:xlink="http://www.w3.org/1999/xlink"
   xmlns:sodipodi="http://sodipodi.sourceforge.net/DTD/sodipodi-0.dtd"
   xmlns:inkscape="http://www.inkscape.org/namespaces/inkscape"
   version="1.1"
   id="svg2"
   width="128"
   height="128"
   viewBox="0 0 128 128"
   sodipodi:docname="appimagekit-gravit-designer.svg"
   inkscape:version="0.92.4 (5da689c313, 2019-01-14)">
  <metadata
     id="metadata8">
    <rdf:RDF>
      <cc:Work
         rdf:about="">
        <dc:format>image/svg+xml</dc:format>
        <dc:type
           rdf:resource="http://purl.org/dc/dcmitype/StillImage" />
        <dc:title></dc:title>
      </cc:Work>
    </rdf:RDF>
  </metadata>
  <defs
     id="defs6">
    <linearGradient
       inkscape:collect="always"
       id="linearGradient1021">
      <stop
         style="stop-color:#fae997;stop-opacity:0.13541667"
         offset="0"
         id="stop1015" />
      <stop
         style="stop-color:#efdc7f;stop-opacity:1"
         offset="0.27583909"
         id="stop1027" />
      <stop
         style="stop-color:#f3c175;stop-opacity:1"
         offset="0.4245581"
         id="stop1023" />
      <stop
         id="stop1029"
         offset="0.67324239"
         style="stop-color:#f4b779;stop-opacity:0.9254902;" />
      <stop
         style="stop-color:#fe60aa;stop-opacity:0"
         offset="1"
         id="stop1019" />
    </linearGradient>
    <linearGradient
       id="linearGradient1002"
       inkscape:collect="always">
      <stop
         id="stop998"
         offset="0"
         style="stop-color:#fae997;stop-opacity:0.13541667" />
      <stop
         style="stop-color:#d9196e;stop-opacity:1"
         offset="0.34358323"
         id="stop1004" />
      <stop
         id="stop1000"
         offset="1"
         style="stop-color:#fe60aa;stop-opacity:0.22916667" />
    </linearGradient>
    <linearGradient
       id="linearGradient990"
       inkscape:collect="always">
      <stop
         id="stop986"
         offset="0"
         style="stop-color:#fe248d;stop-opacity:0.68229169" />
      <stop
         id="stop988"
         offset="1"
         style="stop-color:#fe60aa;stop-opacity:0" />
    </linearGradient>
    <linearGradient
       inkscape:collect="always"
       id="linearGradient937">
      <stop
         style="stop-color:#fae997;stop-opacity:1"
         offset="0"
         id="stop933" />
      <stop
         style="stop-color:#fe60aa;stop-opacity:0"
         offset="1"
         id="stop935" />
    </linearGradient>
    <linearGradient
       inkscape:collect="always"
       id="linearGradient909">
      <stop
         style="stop-color:#000000;stop-opacity:1;"
         offset="0"
         id="stop905" />
      <stop
         id="stop913"
         offset="0.86639094"
         style="stop-color:#000000;stop-opacity:0.79215686;" />
      <stop
         style="stop-color:#000000;stop-opacity:0.08627451;"
         offset="0.97575325"
         id="stop915" />
      <stop
         style="stop-color:#000000;stop-opacity:0;"
         offset="1"
         id="stop907" />
    </linearGradient>
    <linearGradient
       inkscape:collect="always"
       id="linearGradient823">
      <stop
         style="stop-color:#e62942;stop-opacity:1"
         offset="0"
         id="stop819" />
      <stop
         style="stop-color:#fae997;stop-opacity:1"
         offset="1"
         id="stop821" />
    </linearGradient>
    <linearGradient
       gradientUnits="userSpaceOnUse"
       y2="15.33"
       y1="1.58"
       x2="6.576"
       x1="6.576"
       id="a"
       gradientTransform="matrix(7.9494131,0,0,7.9452791,-3.1841876,-2.5387222)">
      <stop
         id="stop847"
         offset="0"
         stop-color="#f10166"
         style="stop-color:#fe2391;stop-opacity:1" />
      <stop
         id="stop849"
         offset="1"
         stop-color="#fc3d4a"
         style="stop-color:#fe3b48;stop-opacity:1" />
    </linearGradient>
    <filter
       color-interpolation-filters="sRGB"
       height="1.072"
       width="1.072"
       y="-.036"
       x="-.036"
       id="d">
      <feGaussianBlur
         id="feGaussianBlur852"
         stdDeviation="0.23812031" />
    </filter>
    <linearGradient
       gradientUnits="userSpaceOnUse"
       gradientTransform="matrix(7.9493971,0,0,7.9452282,-3.183915,-2.5385)"
       y2="15.346"
       y1="1.674"
       x2="8.4665"
       x1="8.4665"
       id="b">
      <stop
         id="stop855"
         offset="0"
         stop-color="#f5c80b"
         style="stop-color:#fae077;stop-opacity:1" />
      <stop
         id="stop857"
         offset="1"
         stop-color="#dded36"
         style="stop-color:#f3db30;stop-opacity:1" />
    </linearGradient>
    <radialGradient
       inkscape:collect="always"
       xlink:href="#linearGradient909"
       id="radialGradient911"
       cx="66.154526"
       cy="62.668839"
       fx="66.154526"
       fy="62.668839"
       r="62.931686"
       gradientUnits="userSpaceOnUse"
       gradientTransform="translate(-2.3010947,1.9175779)" />
    <linearGradient
       inkscape:collect="always"
       xlink:href="#linearGradient823"
       id="linearGradient929"
       x1="31.155043"
       y1="112.70274"
       x2="121.493"
       y2="64.160362"
       gradientUnits="userSpaceOnUse"
       gradientTransform="translate(-0.26719666,-0.11631775)" />
    <linearGradient
       inkscape:collect="always"
       xlink:href="#linearGradient990"
       id="linearGradient939"
       x1="69.187515"
       y1="15.037472"
       x2="81.872917"
       y2="32.295677"
       gradientUnits="userSpaceOnUse"
       gradientTransform="translate(-0.26719666,-0.11631775)" />
    <linearGradient
       inkscape:collect="always"
       xlink:href="#linearGradient937"
       id="linearGradient984"
       gradientUnits="userSpaceOnUse"
       gradientTransform="translate(-0.65071755,-0.30807528)"
       x1="42.724945"
       y1="18.68087"
       x2="63.464169"
       y2="32.295677" />
    <linearGradient
       inkscape:collect="always"
       xlink:href="#linearGradient1002"
       id="linearGradient994"
       gradientUnits="userSpaceOnUse"
       gradientTransform="translate(-0.65071755,-0.30807528)"
       x1="39.656822"
       y1="15.804503"
       x2="59.245495"
       y2="35.3638" />
    <linearGradient
       inkscape:collect="always"
       xlink:href="#linearGradient937"
       id="linearGradient1008"
       gradientUnits="userSpaceOnUse"
       gradientTransform="translate(-0.65071755,-0.30807528)"
       x1="54.613926"
       y1="6.4083729"
       x2="83.406975"
       y2="17.146812" />
    <linearGradient
       inkscape:collect="always"
       xlink:href="#linearGradient1021"
       id="linearGradient1013"
       gradientUnits="userSpaceOnUse"
       gradientTransform="translate(-0.65071755,-0.30807528)"
       x1="39.656822"
       y1="15.804503"
       x2="70.367447"
       y2="42.267082" />
  </defs>
  <sodipodi:namedview
     pagecolor="#ffffff"
     bordercolor="#666666"
     borderopacity="1"
     objecttolerance="10"
     gridtolerance="10"
     guidetolerance="10"
     inkscape:pageopacity="0"
     inkscape:pageshadow="2"
     inkscape:window-width="1920"
     inkscape:window-height="1023"
     id="namedview4"
     showgrid="false"
     inkscape:zoom="5.2149124"
     inkscape:cx="104.6141"
     inkscape:cy="71.059585"
     inkscape:window-x="0"
     inkscape:window-y="29"
     inkscape:window-maximized="1"
     inkscape:current-layer="svg2" />
  <circle
     r="62.931686"
     cy="64.586418"
     cx="63.853432"
     id="circle901"
     style="opacity:1;fill:url(#radialGradient911);fill-opacity:1;stroke:none;stroke-width:0.80688667;stroke-linecap:round;stroke-linejoin:round;stroke-miterlimit:4;stroke-dasharray:none;stroke-opacity:1" />
  <circle
     style="opacity:1;fill:url(#linearGradient929);fill-opacity:1;stroke:none;stroke-width:0.78080881;stroke-linecap:round;stroke-linejoin:round;stroke-miterlimit:4;stroke-dasharray:none;stroke-opacity:1"
     id="path817"
     cx="63.853432"
     cy="64.586418"
     r="60.897789" />
  <circle
     r="60.897789"
     cy="64.586418"
     cx="63.853432"
     id="circle931"
     style="opacity:1;fill:url(#linearGradient939);fill-opacity:1;stroke:none;stroke-width:0.78080881;stroke-linecap:round;stroke-linejoin:round;stroke-miterlimit:4;stroke-dasharray:none;stroke-opacity:1" />
  <circle
     style="opacity:1;fill:url(#linearGradient984);fill-opacity:1;stroke:none;stroke-width:0.78080881;stroke-linecap:round;stroke-linejoin:round;stroke-miterlimit:4;stroke-dasharray:none;stroke-opacity:1"
     id="circle982"
     cx="63.469913"
     cy="64.394661"
     r="60.897789" />
  <circle
     r="60.897789"
     cy="64.394661"
     cx="63.469913"
     id="circle992"
     style="opacity:1;fill:url(#linearGradient994);fill-opacity:1;stroke:none;stroke-width:0.78080881;stroke-linecap:round;stroke-linejoin:round;stroke-miterlimit:4;stroke-dasharray:none;stroke-opacity:1" />
  <path
     style="opacity:1;fill:url(#linearGradient1013);fill-opacity:1;stroke:none;stroke-width:0.78080881;stroke-linecap:round;stroke-linejoin:round;stroke-miterlimit:4;stroke-dasharray:none;stroke-opacity:1"
     d="m 114.66696,97.383991 c -10.8426,16.792259 -29.721662,27.908459 -51.197047,27.908459 -33.63292,0 -60.8977884,-27.264869 -60.8977885,-60.897789 0,-17.761555 7.6038975,-33.747125 19.7339695,-44.878988 z"
     id="circle1011"
     inkscape:connector-curvature="0"
     sodipodi:nodetypes="csscc" />
  <path
     style="opacity:1;fill:url(#linearGradient1008);fill-opacity:1;stroke:none;stroke-width:0.78080881;stroke-linecap:round;stroke-linejoin:round;stroke-miterlimit:4;stroke-dasharray:none;stroke-opacity:1"
     d="M 6.0926561,43.93953 C 14.496482,20.368439 37.012915,3.4968721 63.469913,3.4968719 c 28.404089,-2e-7 52.266257,19.4462571 58.999317,45.7515721 z"
     id="circle1006"
     inkscape:connector-curvature="0"
     sodipodi:nodetypes="cscc" />
  <g
     id="g919"
     transform="translate(-0.26719666,-0.11631775)">
    <path
       inkscape:connector-curvature="0"
       d="M 55.732843,10.761454 A 54.691869,54.662867 0 0 0 10.21006,55.974482 c 0.513688,-0.549126 2.496434,-2.538914 3.727608,-3.791784 1.434351,-1.460568 2.250163,-2.312329 4.400614,-4.47172 11.084021,-11.131269 28.845253,-28.71956 35.123252,-34.742374 0.5924,-0.56894 1.916029,-1.87666 2.271492,-2.207332 z m 24.48857,1.741002 0.160213,0.05697 a 54.691869,54.662867 0 0 0 -0.160213,-0.05697 z m -20.795415,1.089465 c -0.02782,-0.02781 -0.13535,0.0075 -0.28838,0.08901 -0.02262,0.01208 -0.05746,0.03939 -0.08188,0.05341 -0.138194,0.07926 -0.29188,0.17531 -0.462848,0.302635 -0.624027,0.460825 -3.741462,3.171821 -7.152617,6.194894 -3.410244,3.023255 -7.116888,6.356765 -8.929196,8.056972 -1.883945,1.76386 -4.422489,4.069227 -5.646735,5.133974 -1.224209,1.056727 -3.955832,3.464576 -6.070373,5.347617 -2.11454,1.875019 -4.310563,3.795611 -4.866906,4.272479 -1.152662,0.953442 -5.071982,4.426512 -6.725516,5.959924 -0.596209,0.548233 -1.484773,1.30978 -1.961784,1.691145 -0.476957,0.381385 -1.639644,1.392867 -2.577735,2.243061 -0.882382,0.798496 -1.747376,1.536091 -2.531433,2.189649 -0.788943,0.65901 -1.485337,1.226383 -2.047094,1.684038 a 54.691869,54.662867 0 0 0 -0.651536,7.925358 54.691869,54.662867 0 0 0 4.026742,20.485588 c 0.397114,-0.648674 1.066932,-1.669837 1.637748,-2.556232 0.433335,-0.674595 0.730646,-1.164842 1.242549,-1.95468 l 6.03118,-9.331534 4.019632,-6.230622 10.015085,-15.512391 a 14022.687,14015.437 0 0 1 19.94413,-30.896093 c 1.872097,-2.884169 2.734319,-4.271384 2.997726,-4.834839 0.08593,-0.183819 0.105344,-0.274234 0.07833,-0.306189 v -0.0072 z m 28.724942,2.111267 c -0.0012,0.0021 -0.0024,0.005 -0.0037,0.0072 -0.161144,0.28468 -0.356264,0.583487 -0.580333,0.950598 -0.0015,0.0026 -0.002,0.0044 -0.0037,0.0072 -0.227531,0.373035 -0.479326,0.810728 -0.751227,1.381402 -0.941007,1.966893 -1.862254,3.94053 -2.759293,5.924376 -12.558185,27.775306 -20.74802,57.005274 -22.977402,82.037146 -0.159284,1.78792 -0.28663,3.55481 -0.384518,5.29767 -0.143097,2.55038 -0.343358,5.68922 -0.430802,6.96051 l -0.02847,0.92213 a 54.691869,54.662867 0 0 0 3.894946,0.19937 A 54.691869,54.662867 0 0 0 118.80926,64.725987 54.691869,54.662867 0 0 0 88.152055,15.703128 Z m -70.457957,77.839031 0.469956,0.75123 a 54.715566,54.686564 0 0 1 -0.05341,-0.09256 54.691869,54.662867 0 0 1 -0.409436,-0.658664 h -0.0072 z m 10.809131,12.624941 a 54.691869,54.662867 0 0 0 0.477084,0.43791 z m 4.190438,3.25767 a 54.810355,54.783176 0 0 0 0.398754,0.26702 54.691869,54.662867 0 0 1 -0.391628,-0.26702 h -0.0072 z m 4.667483,2.94087 a 54.691869,54.662867 0 0 0 0.715626,0.41299 c -0.238487,-0.12712 -0.477138,-0.27793 -0.715626,-0.41299 z"
       style="fill:url(#b);stroke-width:5.97194624;paint-order:markers stroke fill"
       id="path864" />
    <path
       style="fill:url(#a);stroke-width:5.97187424"
       inkscape:connector-curvature="0"
       d="M 64.123496,10.014819 A 55.009941,54.981334 0 0 0 55.80046,10.698113 C 50.410759,15.703639 14.47941,51.393835 10.123131,56.065659 a 53.499553,53.47173 0 0 0 -0.119241,0.810418 c 1.120867,-0.913707 2.861789,-2.312076 4.658356,-3.940858 0.938031,-0.850145 2.098644,-1.859196 2.57561,-2.240569 0.476965,-0.381373 1.367299,-1.14412 1.963505,-1.692345 1.653478,-1.533439 5.572538,-5.005526 6.725203,-5.95896 0.556459,-0.476716 2.750497,-2.399473 4.865042,-4.274559 2.114544,-1.883031 4.849142,-4.290452 6.073352,-5.347174 1.224209,-1.064668 3.760072,-3.368799 5.644083,-5.132651 3.624933,-3.400579 14.833606,-13.332178 16.073714,-14.253831 0.40542,-0.293975 0.786992,-0.500552 0.842638,-0.444935 0.119241,0.11918 -0.580308,1.303026 -3.076423,5.148541 A 14022.765,14015.473 0 0 0 36.403891,49.637928 L 26.38763,65.147113 16.339572,80.71986 c -1.192412,1.83536 -2.201988,3.392636 -2.901536,4.536755 a 54.715813,54.687358 0 0 0 46.782298,34.005795 l 0.03974,-0.99315 c 0.08745,-1.27125 0.286179,-4.40964 0.429268,-6.96008 1.566034,-27.887924 11.065583,-61.790431 26.121772,-93.261684 0.556459,-1.167955 1.041374,-1.803578 1.3673,-2.391529 A 54.76351,54.73503 0 0 0 64.123496,10.014819 Z"
       id="path866" />
  </g>
  <path
     id="path868"
     d="m 89.184234,41.29483 a 54.691965,54.655577 0 0 0 -3.497742,0.293974 54.691965,54.655577 0 0 1 3.497742,-0.293974 z m -50.518523,45.764809 -0.01589,0.02384 a 54.691965,54.655577 0 0 0 -0.127191,0.794527 54.691965,54.655577 0 0 1 0.143089,-0.818363 z"
     inkscape:connector-curvature="0"
     style="fill:#d8d342;stroke-width:5.97187424" />
</svg>
