<?xml version="1.0" encoding="UTF-8" standalone="no"?>
<svg
   xmlns:dc="http://purl.org/dc/elements/1.1/"
   xmlns:cc="http://creativecommons.org/ns#"
   xmlns:rdf="http://www.w3.org/1999/02/22-rdf-syntax-ns#"
   xmlns:svg="http://www.w3.org/2000/svg"
   xmlns="http://www.w3.org/2000/svg"
   xmlns:xlink="http://www.w3.org/1999/xlink"
   xmlns:sodipodi="http://sodipodi.sourceforge.net/DTD/sodipodi-0.dtd"
   xmlns:inkscape="http://www.inkscape.org/namespaces/inkscape"
   width="128"
   height="128"
   viewBox="0 0 33.866666 33.866668"
   version="1.1"
   id="svg1991"
   inkscape:version="1.0.1 (3bc2e813f5, 2020-09-07)"
   sodipodi:docname="applications-education.svg">
  <defs
     id="defs1985">
    <filter
       color-interpolation-filters="sRGB"
       height="1.054"
       width="1.054"
       y="-0.027000001"
       x="-0.027000001"
       id="filter861">
      <feGaussianBlur
         id="feGaussianBlur876"
         stdDeviation="0.16371" />
    </filter>
    <linearGradient
       inkscape:collect="always"
       xlink:href="#linearGradient3169"
       id="linearGradient3171"
       x1="5.8117499"
       y1="2.9776249"
       x2="5.8117499"
       y2="15.749125"
       gradientUnits="userSpaceOnUse"
       gradientTransform="matrix(2.0521988,0,0,2.0521988,-0.36028387,-0.08153478)" />
    <linearGradient
       inkscape:collect="always"
       id="linearGradient3169">
      <stop
         style="stop-color:#f5a00a;stop-opacity:1"
         offset="0"
         id="stop3165" />
      <stop
         style="stop-color:#fa6419;stop-opacity:1"
         offset="1"
         id="stop3167" />
    </linearGradient>
    <linearGradient
       gradientUnits="userSpaceOnUse"
       y2="12.608932"
       x2="8.6675835"
       y1="2.7492537"
       x1="8.6675835"
       id="linearGradient1982"
       xlink:href="#linearGradient1980"
       inkscape:collect="always"
       gradientTransform="matrix(2.0521988,0,0,2.0521988,-0.36028387,-0.08153478)" />
    <linearGradient
       id="linearGradient1980"
       inkscape:collect="always">
      <stop
         id="stop1976"
         offset="0"
         style="stop-color:#000000;stop-opacity:1" />
      <stop
         style="stop-color:#ffffff;stop-opacity:1"
         offset="0.48408228"
         id="stop1984" />
      <stop
         id="stop1978"
         offset="1"
         style="stop-color:#ffffff;stop-opacity:1" />
    </linearGradient>
  </defs>
  <sodipodi:namedview
     id="base"
     pagecolor="#ffffff"
     bordercolor="#666666"
     borderopacity="1.0"
     inkscape:pageopacity="0.0"
     inkscape:pageshadow="2"
     inkscape:zoom="2.8"
     inkscape:cx="60.355339"
     inkscape:cy="74.777417"
     inkscape:document-units="mm"
     inkscape:current-layer="layer1"
     inkscape:document-rotation="0"
     showgrid="false"
     units="px"
     inkscape:window-width="1514"
     inkscape:window-height="941"
     inkscape:window-x="50"
     inkscape:window-y="27"
     inkscape:window-maximized="0" />
  <metadata
     id="metadata1988">
    <rdf:RDF>
      <cc:Work
         rdf:about="">
        <dc:format>image/svg+xml</dc:format>
        <dc:type
           rdf:resource="http://purl.org/dc/dcmitype/StillImage" />
        <dc:title></dc:title>
      </cc:Work>
    </rdf:RDF>
  </metadata>
  <g
     inkscape:label="Capa 1"
     inkscape:groupmode="layer"
     id="layer1">
    <rect
       style="opacity:0.3;stroke-width:0.083153;stroke-opacity:0.95294;filter:url(#filter861);image-rendering:optimizeSpeed"
       x="1.1905042"
       y="1.1905042"
       width="14.552"
       height="14.552"
       ry="3.4395001"
       id="rect881"
       transform="matrix(2.0521987,0,0,2.0521987,-0.36028367,-0.08153375)" />
    <rect
       id="rect3121"
       ry="7.0585694"
       height="29.86372"
       width="29.86372"
       y="2.361546"
       x="2.0827963"
       style="fill:url(#linearGradient3171);fill-opacity:1;stroke-width:0.170644;stroke-opacity:0.95294;image-rendering:optimizeSpeed" />
    <g
       style="opacity:0.591"
       transform="matrix(0.27837283,0,0,0.27837283,-41.470038,-0.60196855)"
       id="g1537">
      <path
         inkscape:connector-curvature="0"
         id="path1456"
         d="m 192.32725,33.753842 c -5.53916,-0.129385 -11.40174,2.093418 -16.81836,5.447266 -1.92041,1.10875 -2.27148,2.540933 -2.27148,3.626953 l -0.20313,42.916015 c 0,2.230057 1.90298,1.534098 2.91602,0.949219 16.14903,-8.949371 25.94655,-3.826387 32.66211,8.130859 l -0.52735,-49.554687 c 0.0128,-1.418646 -0.17752,-1.9742 -0.88086,-2.847656 -4.12167,-6.056648 -9.33779,-8.538584 -14.87695,-8.667969 z m 35.53516,0 c -5.53916,0.129385 -10.75333,2.611321 -14.875,8.667969 -0.70334,0.873456 -0.89558,1.42901 -0.88282,2.847656 l -0.52734,49.554687 c 6.71556,-11.957246 16.51503,-17.08023 32.66407,-8.130859 1.01304,0.584879 2.91405,1.280838 2.91406,-0.949219 l -0.20313,-42.916015 c 0,-1.08602 -0.35107,-2.518203 -2.27148,-3.626953 -5.41662,-3.353848 -11.27921,-5.576651 -16.81836,-5.447266 z"
         style="fill:none;fill-opacity:1;stroke:#000000;stroke-width:0.1;stroke-linecap:round;stroke-linejoin:round;stroke-miterlimit:4;stroke-dasharray:none;stroke-opacity:0.00784314" />
      <path
         style="fill:none;fill-opacity:1;stroke:#000000;stroke-width:0.2;stroke-linecap:round;stroke-linejoin:round;stroke-miterlimit:4;stroke-dasharray:none;stroke-opacity:0.00784314"
         d="m 192.32725,33.753842 c -5.53916,-0.129385 -11.40174,2.093418 -16.81836,5.447266 -1.92041,1.10875 -2.27148,2.540933 -2.27148,3.626953 l -0.20313,42.916015 c 0,2.230057 1.90298,1.534098 2.91602,0.949219 16.14903,-8.949371 25.94655,-3.826387 32.66211,8.130859 l -0.52735,-49.554687 c 0.0128,-1.418646 -0.17752,-1.9742 -0.88086,-2.847656 -4.12167,-6.056648 -9.33779,-8.538584 -14.87695,-8.667969 z m 35.53516,0 c -5.53916,0.129385 -10.75333,2.611321 -14.875,8.667969 -0.70334,0.873456 -0.89558,1.42901 -0.88282,2.847656 l -0.52734,49.554687 c 6.71556,-11.957246 16.51503,-17.08023 32.66407,-8.130859 1.01304,0.584879 2.91405,1.280838 2.91406,-0.949219 l -0.20313,-42.916015 c 0,-1.08602 -0.35107,-2.518203 -2.27148,-3.626953 -5.41662,-3.353848 -11.27921,-5.576651 -16.81836,-5.447266 z"
         id="path1458"
         inkscape:connector-curvature="0" />
      <path
         inkscape:connector-curvature="0"
         id="path1460"
         d="m 192.32725,33.753842 c -5.53916,-0.129385 -11.40174,2.093418 -16.81836,5.447266 -1.92041,1.10875 -2.27148,2.540933 -2.27148,3.626953 l -0.20313,42.916015 c 0,2.230057 1.90298,1.534098 2.91602,0.949219 16.14903,-8.949371 25.94655,-3.826387 32.66211,8.130859 l -0.52735,-49.554687 c 0.0128,-1.418646 -0.17752,-1.9742 -0.88086,-2.847656 -4.12167,-6.056648 -9.33779,-8.538584 -14.87695,-8.667969 z m 35.53516,0 c -5.53916,0.129385 -10.75333,2.611321 -14.875,8.667969 -0.70334,0.873456 -0.89558,1.42901 -0.88282,2.847656 l -0.52734,49.554687 c 6.71556,-11.957246 16.51503,-17.08023 32.66407,-8.130859 1.01304,0.584879 2.91405,1.280838 2.91406,-0.949219 l -0.20313,-42.916015 c 0,-1.08602 -0.35107,-2.518203 -2.27148,-3.626953 -5.41662,-3.353848 -11.27921,-5.576651 -16.81836,-5.447266 z"
         style="fill:none;fill-opacity:1;stroke:#000000;stroke-width:0.3;stroke-linecap:round;stroke-linejoin:round;stroke-miterlimit:4;stroke-dasharray:none;stroke-opacity:0.00784314" />
      <path
         style="fill:none;fill-opacity:1;stroke:#000000;stroke-width:0.4;stroke-linecap:round;stroke-linejoin:round;stroke-miterlimit:4;stroke-dasharray:none;stroke-opacity:0.00784314"
         d="m 192.32725,33.753842 c -5.53916,-0.129385 -11.40174,2.093418 -16.81836,5.447266 -1.92041,1.10875 -2.27148,2.540933 -2.27148,3.626953 l -0.20313,42.916015 c 0,2.230057 1.90298,1.534098 2.91602,0.949219 16.14903,-8.949371 25.94655,-3.826387 32.66211,8.130859 l -0.52735,-49.554687 c 0.0128,-1.418646 -0.17752,-1.9742 -0.88086,-2.847656 -4.12167,-6.056648 -9.33779,-8.538584 -14.87695,-8.667969 z m 35.53516,0 c -5.53916,0.129385 -10.75333,2.611321 -14.875,8.667969 -0.70334,0.873456 -0.89558,1.42901 -0.88282,2.847656 l -0.52734,49.554687 c 6.71556,-11.957246 16.51503,-17.08023 32.66407,-8.130859 1.01304,0.584879 2.91405,1.280838 2.91406,-0.949219 l -0.20313,-42.916015 c 0,-1.08602 -0.35107,-2.518203 -2.27148,-3.626953 -5.41662,-3.353848 -11.27921,-5.576651 -16.81836,-5.447266 z"
         id="path1462"
         inkscape:connector-curvature="0" />
      <path
         inkscape:connector-curvature="0"
         id="path1464"
         d="m 192.32725,33.753842 c -5.53916,-0.129385 -11.40174,2.093418 -16.81836,5.447266 -1.92041,1.10875 -2.27148,2.540933 -2.27148,3.626953 l -0.20313,42.916015 c 0,2.230057 1.90298,1.534098 2.91602,0.949219 16.14903,-8.949371 25.94655,-3.826387 32.66211,8.130859 l -0.52735,-49.554687 c 0.0128,-1.418646 -0.17752,-1.9742 -0.88086,-2.847656 -4.12167,-6.056648 -9.33779,-8.538584 -14.87695,-8.667969 z m 35.53516,0 c -5.53916,0.129385 -10.75333,2.611321 -14.875,8.667969 -0.70334,0.873456 -0.89558,1.42901 -0.88282,2.847656 l -0.52734,49.554687 c 6.71556,-11.957246 16.51503,-17.08023 32.66407,-8.130859 1.01304,0.584879 2.91405,1.280838 2.91406,-0.949219 l -0.20313,-42.916015 c 0,-1.08602 -0.35107,-2.518203 -2.27148,-3.626953 -5.41662,-3.353848 -11.27921,-5.576651 -16.81836,-5.447266 z"
         style="fill:none;fill-opacity:1;stroke:#000000;stroke-width:0.5;stroke-linecap:round;stroke-linejoin:round;stroke-miterlimit:4;stroke-dasharray:none;stroke-opacity:0.00784314" />
      <path
         style="fill:none;fill-opacity:1;stroke:#000000;stroke-width:0.6;stroke-linecap:round;stroke-linejoin:round;stroke-miterlimit:4;stroke-dasharray:none;stroke-opacity:0.00784314"
         d="m 192.32725,33.753842 c -5.53916,-0.129385 -11.40174,2.093418 -16.81836,5.447266 -1.92041,1.10875 -2.27148,2.540933 -2.27148,3.626953 l -0.20313,42.916015 c 0,2.230057 1.90298,1.534098 2.91602,0.949219 16.14903,-8.949371 25.94655,-3.826387 32.66211,8.130859 l -0.52735,-49.554687 c 0.0128,-1.418646 -0.17752,-1.9742 -0.88086,-2.847656 -4.12167,-6.056648 -9.33779,-8.538584 -14.87695,-8.667969 z m 35.53516,0 c -5.53916,0.129385 -10.75333,2.611321 -14.875,8.667969 -0.70334,0.873456 -0.89558,1.42901 -0.88282,2.847656 l -0.52734,49.554687 c 6.71556,-11.957246 16.51503,-17.08023 32.66407,-8.130859 1.01304,0.584879 2.91405,1.280838 2.91406,-0.949219 l -0.20313,-42.916015 c 0,-1.08602 -0.35107,-2.518203 -2.27148,-3.626953 -5.41662,-3.353848 -11.27921,-5.576651 -16.81836,-5.447266 z"
         id="path1466"
         inkscape:connector-curvature="0" />
      <path
         inkscape:connector-curvature="0"
         id="path1468"
         d="m 192.32725,33.753842 c -5.53916,-0.129385 -11.40174,2.093418 -16.81836,5.447266 -1.92041,1.10875 -2.27148,2.540933 -2.27148,3.626953 l -0.20313,42.916015 c 0,2.230057 1.90298,1.534098 2.91602,0.949219 16.14903,-8.949371 25.94655,-3.826387 32.66211,8.130859 l -0.52735,-49.554687 c 0.0128,-1.418646 -0.17752,-1.9742 -0.88086,-2.847656 -4.12167,-6.056648 -9.33779,-8.538584 -14.87695,-8.667969 z m 35.53516,0 c -5.53916,0.129385 -10.75333,2.611321 -14.875,8.667969 -0.70334,0.873456 -0.89558,1.42901 -0.88282,2.847656 l -0.52734,49.554687 c 6.71556,-11.957246 16.51503,-17.08023 32.66407,-8.130859 1.01304,0.584879 2.91405,1.280838 2.91406,-0.949219 l -0.20313,-42.916015 c 0,-1.08602 -0.35107,-2.518203 -2.27148,-3.626953 -5.41662,-3.353848 -11.27921,-5.576651 -16.81836,-5.447266 z"
         style="fill:none;fill-opacity:1;stroke:#000000;stroke-width:0.7;stroke-linecap:round;stroke-linejoin:round;stroke-miterlimit:4;stroke-dasharray:none;stroke-opacity:0.00784314" />
      <path
         style="fill:none;fill-opacity:1;stroke:#000000;stroke-width:0.8;stroke-linecap:round;stroke-linejoin:round;stroke-miterlimit:4;stroke-dasharray:none;stroke-opacity:0.00784314"
         d="m 192.32725,33.753842 c -5.53916,-0.129385 -11.40174,2.093418 -16.81836,5.447266 -1.92041,1.10875 -2.27148,2.540933 -2.27148,3.626953 l -0.20313,42.916015 c 0,2.230057 1.90298,1.534098 2.91602,0.949219 16.14903,-8.949371 25.94655,-3.826387 32.66211,8.130859 l -0.52735,-49.554687 c 0.0128,-1.418646 -0.17752,-1.9742 -0.88086,-2.847656 -4.12167,-6.056648 -9.33779,-8.538584 -14.87695,-8.667969 z m 35.53516,0 c -5.53916,0.129385 -10.75333,2.611321 -14.875,8.667969 -0.70334,0.873456 -0.89558,1.42901 -0.88282,2.847656 l -0.52734,49.554687 c 6.71556,-11.957246 16.51503,-17.08023 32.66407,-8.130859 1.01304,0.584879 2.91405,1.280838 2.91406,-0.949219 l -0.20313,-42.916015 c 0,-1.08602 -0.35107,-2.518203 -2.27148,-3.626953 -5.41662,-3.353848 -11.27921,-5.576651 -16.81836,-5.447266 z"
         id="path1470"
         inkscape:connector-curvature="0" />
      <path
         inkscape:connector-curvature="0"
         id="path1472"
         d="m 192.32725,33.753842 c -5.53916,-0.129385 -11.40174,2.093418 -16.81836,5.447266 -1.92041,1.10875 -2.27148,2.540933 -2.27148,3.626953 l -0.20313,42.916015 c 0,2.230057 1.90298,1.534098 2.91602,0.949219 16.14903,-8.949371 25.94655,-3.826387 32.66211,8.130859 l -0.52735,-49.554687 c 0.0128,-1.418646 -0.17752,-1.9742 -0.88086,-2.847656 -4.12167,-6.056648 -9.33779,-8.538584 -14.87695,-8.667969 z m 35.53516,0 c -5.53916,0.129385 -10.75333,2.611321 -14.875,8.667969 -0.70334,0.873456 -0.89558,1.42901 -0.88282,2.847656 l -0.52734,49.554687 c 6.71556,-11.957246 16.51503,-17.08023 32.66407,-8.130859 1.01304,0.584879 2.91405,1.280838 2.91406,-0.949219 l -0.20313,-42.916015 c 0,-1.08602 -0.35107,-2.518203 -2.27148,-3.626953 -5.41662,-3.353848 -11.27921,-5.576651 -16.81836,-5.447266 z"
         style="fill:none;fill-opacity:1;stroke:#000000;stroke-width:0.9;stroke-linecap:round;stroke-linejoin:round;stroke-miterlimit:4;stroke-dasharray:none;stroke-opacity:0.00784314" />
      <path
         style="fill:none;fill-opacity:1;stroke:#000000;stroke-width:1;stroke-linecap:round;stroke-linejoin:round;stroke-miterlimit:4;stroke-dasharray:none;stroke-opacity:0.00784314"
         d="m 192.32725,33.753842 c -5.53916,-0.129385 -11.40174,2.093418 -16.81836,5.447266 -1.92041,1.10875 -2.27148,2.540933 -2.27148,3.626953 l -0.20313,42.916015 c 0,2.230057 1.90298,1.534098 2.91602,0.949219 16.14903,-8.949371 25.94655,-3.826387 32.66211,8.130859 l -0.52735,-49.554687 c 0.0128,-1.418646 -0.17752,-1.9742 -0.88086,-2.847656 -4.12167,-6.056648 -9.33779,-8.538584 -14.87695,-8.667969 z m 35.53516,0 c -5.53916,0.129385 -10.75333,2.611321 -14.875,8.667969 -0.70334,0.873456 -0.89558,1.42901 -0.88282,2.847656 l -0.52734,49.554687 c 6.71556,-11.957246 16.51503,-17.08023 32.66407,-8.130859 1.01304,0.584879 2.91405,1.280838 2.91406,-0.949219 l -0.20313,-42.916015 c 0,-1.08602 -0.35107,-2.518203 -2.27148,-3.626953 -5.41662,-3.353848 -11.27921,-5.576651 -16.81836,-5.447266 z"
         id="path1474"
         inkscape:connector-curvature="0" />
      <path
         inkscape:connector-curvature="0"
         id="path1476"
         d="m 192.32725,33.753842 c -5.53916,-0.129385 -11.40174,2.093418 -16.81836,5.447266 -1.92041,1.10875 -2.27148,2.540933 -2.27148,3.626953 l -0.20313,42.916015 c 0,2.230057 1.90298,1.534098 2.91602,0.949219 16.14903,-8.949371 25.94655,-3.826387 32.66211,8.130859 l -0.52735,-49.554687 c 0.0128,-1.418646 -0.17752,-1.9742 -0.88086,-2.847656 -4.12167,-6.056648 -9.33779,-8.538584 -14.87695,-8.667969 z m 35.53516,0 c -5.53916,0.129385 -10.75333,2.611321 -14.875,8.667969 -0.70334,0.873456 -0.89558,1.42901 -0.88282,2.847656 l -0.52734,49.554687 c 6.71556,-11.957246 16.51503,-17.08023 32.66407,-8.130859 1.01304,0.584879 2.91405,1.280838 2.91406,-0.949219 l -0.20313,-42.916015 c 0,-1.08602 -0.35107,-2.518203 -2.27148,-3.626953 -5.41662,-3.353848 -11.27921,-5.576651 -16.81836,-5.447266 z"
         style="fill:none;fill-opacity:1;stroke:#000000;stroke-width:1.2;stroke-linecap:round;stroke-linejoin:round;stroke-miterlimit:4;stroke-dasharray:none;stroke-opacity:0.00784314" />
      <path
         style="fill:none;fill-opacity:1;stroke:#000000;stroke-width:1.3;stroke-linecap:round;stroke-linejoin:round;stroke-miterlimit:4;stroke-dasharray:none;stroke-opacity:0.00784314"
         d="m 192.32725,33.753842 c -5.53916,-0.129385 -11.40174,2.093418 -16.81836,5.447266 -1.92041,1.10875 -2.27148,2.540933 -2.27148,3.626953 l -0.20313,42.916015 c 0,2.230057 1.90298,1.534098 2.91602,0.949219 16.14903,-8.949371 25.94655,-3.826387 32.66211,8.130859 l -0.52735,-49.554687 c 0.0128,-1.418646 -0.17752,-1.9742 -0.88086,-2.847656 -4.12167,-6.056648 -9.33779,-8.538584 -14.87695,-8.667969 z m 35.53516,0 c -5.53916,0.129385 -10.75333,2.611321 -14.875,8.667969 -0.70334,0.873456 -0.89558,1.42901 -0.88282,2.847656 l -0.52734,49.554687 c 6.71556,-11.957246 16.51503,-17.08023 32.66407,-8.130859 1.01304,0.584879 2.91405,1.280838 2.91406,-0.949219 l -0.20313,-42.916015 c 0,-1.08602 -0.35107,-2.518203 -2.27148,-3.626953 -5.41662,-3.353848 -11.27921,-5.576651 -16.81836,-5.447266 z"
         id="path1478"
         inkscape:connector-curvature="0" />
      <path
         inkscape:connector-curvature="0"
         id="path1480"
         d="m 192.32725,33.753842 c -5.53916,-0.129385 -11.40174,2.093418 -16.81836,5.447266 -1.92041,1.10875 -2.27148,2.540933 -2.27148,3.626953 l -0.20313,42.916015 c 0,2.230057 1.90298,1.534098 2.91602,0.949219 16.14903,-8.949371 25.94655,-3.826387 32.66211,8.130859 l -0.52735,-49.554687 c 0.0128,-1.418646 -0.17752,-1.9742 -0.88086,-2.847656 -4.12167,-6.056648 -9.33779,-8.538584 -14.87695,-8.667969 z m 35.53516,0 c -5.53916,0.129385 -10.75333,2.611321 -14.875,8.667969 -0.70334,0.873456 -0.89558,1.42901 -0.88282,2.847656 l -0.52734,49.554687 c 6.71556,-11.957246 16.51503,-17.08023 32.66407,-8.130859 1.01304,0.584879 2.91405,1.280838 2.91406,-0.949219 l -0.20313,-42.916015 c 0,-1.08602 -0.35107,-2.518203 -2.27148,-3.626953 -5.41662,-3.353848 -11.27921,-5.576651 -16.81836,-5.447266 z"
         style="fill:none;fill-opacity:1;stroke:#000000;stroke-width:1.5;stroke-linecap:round;stroke-linejoin:round;stroke-miterlimit:4;stroke-dasharray:none;stroke-opacity:0.00784314" />
      <path
         style="fill:none;fill-opacity:1;stroke:#000000;stroke-width:1.7;stroke-linecap:round;stroke-linejoin:round;stroke-miterlimit:4;stroke-dasharray:none;stroke-opacity:0.00784314"
         d="m 192.32725,33.753842 c -5.53916,-0.129385 -11.40174,2.093418 -16.81836,5.447266 -1.92041,1.10875 -2.27148,2.540933 -2.27148,3.626953 l -0.20313,42.916015 c 0,2.230057 1.90298,1.534098 2.91602,0.949219 16.14903,-8.949371 25.94655,-3.826387 32.66211,8.130859 l -0.52735,-49.554687 c 0.0128,-1.418646 -0.17752,-1.9742 -0.88086,-2.847656 -4.12167,-6.056648 -9.33779,-8.538584 -14.87695,-8.667969 z m 35.53516,0 c -5.53916,0.129385 -10.75333,2.611321 -14.875,8.667969 -0.70334,0.873456 -0.89558,1.42901 -0.88282,2.847656 l -0.52734,49.554687 c 6.71556,-11.957246 16.51503,-17.08023 32.66407,-8.130859 1.01304,0.584879 2.91405,1.280838 2.91406,-0.949219 l -0.20313,-42.916015 c 0,-1.08602 -0.35107,-2.518203 -2.27148,-3.626953 -5.41662,-3.353848 -11.27921,-5.576651 -16.81836,-5.447266 z"
         id="path1482"
         inkscape:connector-curvature="0" />
      <path
         inkscape:connector-curvature="0"
         id="path1484"
         d="m 192.32725,33.753842 c -5.53916,-0.129385 -11.40174,2.093418 -16.81836,5.447266 -1.92041,1.10875 -2.27148,2.540933 -2.27148,3.626953 l -0.20313,42.916015 c 0,2.230057 1.90298,1.534098 2.91602,0.949219 16.14903,-8.949371 25.94655,-3.826387 32.66211,8.130859 l -0.52735,-49.554687 c 0.0128,-1.418646 -0.17752,-1.9742 -0.88086,-2.847656 -4.12167,-6.056648 -9.33779,-8.538584 -14.87695,-8.667969 z m 35.53516,0 c -5.53916,0.129385 -10.75333,2.611321 -14.875,8.667969 -0.70334,0.873456 -0.89558,1.42901 -0.88282,2.847656 l -0.52734,49.554687 c 6.71556,-11.957246 16.51503,-17.08023 32.66407,-8.130859 1.01304,0.584879 2.91405,1.280838 2.91406,-0.949219 l -0.20313,-42.916015 c 0,-1.08602 -0.35107,-2.518203 -2.27148,-3.626953 -5.41662,-3.353848 -11.27921,-5.576651 -16.81836,-5.447266 z"
         style="fill:none;fill-opacity:1;stroke:#000000;stroke-width:2;stroke-linecap:round;stroke-linejoin:round;stroke-miterlimit:4;stroke-dasharray:none;stroke-opacity:0.00784314" />
      <path
         style="fill:none;fill-opacity:1;stroke:#000000;stroke-width:2.3;stroke-linecap:round;stroke-linejoin:round;stroke-miterlimit:4;stroke-dasharray:none;stroke-opacity:0.00784314"
         d="m 192.32725,33.753842 c -5.53916,-0.129385 -11.40174,2.093418 -16.81836,5.447266 -1.92041,1.10875 -2.27148,2.540933 -2.27148,3.626953 l -0.20313,42.916015 c 0,2.230057 1.90298,1.534098 2.91602,0.949219 16.14903,-8.949371 25.94655,-3.826387 32.66211,8.130859 l -0.52735,-49.554687 c 0.0128,-1.418646 -0.17752,-1.9742 -0.88086,-2.847656 -4.12167,-6.056648 -9.33779,-8.538584 -14.87695,-8.667969 z m 35.53516,0 c -5.53916,0.129385 -10.75333,2.611321 -14.875,8.667969 -0.70334,0.873456 -0.89558,1.42901 -0.88282,2.847656 l -0.52734,49.554687 c 6.71556,-11.957246 16.51503,-17.08023 32.66407,-8.130859 1.01304,0.584879 2.91405,1.280838 2.91406,-0.949219 l -0.20313,-42.916015 c 0,-1.08602 -0.35107,-2.518203 -2.27148,-3.626953 -5.41662,-3.353848 -11.27921,-5.576651 -16.81836,-5.447266 z"
         id="path1486"
         inkscape:connector-curvature="0" />
      <path
         inkscape:connector-curvature="0"
         id="path1488"
         d="m 192.32725,33.753842 c -5.53916,-0.129385 -11.40174,2.093418 -16.81836,5.447266 -1.92041,1.10875 -2.27148,2.540933 -2.27148,3.626953 l -0.20313,42.916015 c 0,2.230057 1.90298,1.534098 2.91602,0.949219 16.14903,-8.949371 25.94655,-3.826387 32.66211,8.130859 l -0.52735,-49.554687 c 0.0128,-1.418646 -0.17752,-1.9742 -0.88086,-2.847656 -4.12167,-6.056648 -9.33779,-8.538584 -14.87695,-8.667969 z m 35.53516,0 c -5.53916,0.129385 -10.75333,2.611321 -14.875,8.667969 -0.70334,0.873456 -0.89558,1.42901 -0.88282,2.847656 l -0.52734,49.554687 c 6.71556,-11.957246 16.51503,-17.08023 32.66407,-8.130859 1.01304,0.584879 2.91405,1.280838 2.91406,-0.949219 l -0.20313,-42.916015 c 0,-1.08602 -0.35107,-2.518203 -2.27148,-3.626953 -5.41662,-3.353848 -11.27921,-5.576651 -16.81836,-5.447266 z"
         style="fill:none;fill-opacity:1;stroke:#000000;stroke-width:2.6;stroke-linecap:round;stroke-linejoin:round;stroke-miterlimit:4;stroke-dasharray:none;stroke-opacity:0.00784314" />
      <path
         style="fill:none;fill-opacity:1;stroke:#000000;stroke-width:2.9;stroke-linecap:round;stroke-linejoin:round;stroke-miterlimit:4;stroke-dasharray:none;stroke-opacity:0.00784314"
         d="m 192.32725,33.753842 c -5.53916,-0.129385 -11.40174,2.093418 -16.81836,5.447266 -1.92041,1.10875 -2.27148,2.540933 -2.27148,3.626953 l -0.20313,42.916015 c 0,2.230057 1.90298,1.534098 2.91602,0.949219 16.14903,-8.949371 25.94655,-3.826387 32.66211,8.130859 l -0.52735,-49.554687 c 0.0128,-1.418646 -0.17752,-1.9742 -0.88086,-2.847656 -4.12167,-6.056648 -9.33779,-8.538584 -14.87695,-8.667969 z m 35.53516,0 c -5.53916,0.129385 -10.75333,2.611321 -14.875,8.667969 -0.70334,0.873456 -0.89558,1.42901 -0.88282,2.847656 l -0.52734,49.554687 c 6.71556,-11.957246 16.51503,-17.08023 32.66407,-8.130859 1.01304,0.584879 2.91405,1.280838 2.91406,-0.949219 l -0.20313,-42.916015 c 0,-1.08602 -0.35107,-2.518203 -2.27148,-3.626953 -5.41662,-3.353848 -11.27921,-5.576651 -16.81836,-5.447266 z"
         id="path1490"
         inkscape:connector-curvature="0" />
      <path
         inkscape:connector-curvature="0"
         id="path1492"
         d="m 192.32725,33.753842 c -5.53916,-0.129385 -11.40174,2.093418 -16.81836,5.447266 -1.92041,1.10875 -2.27148,2.540933 -2.27148,3.626953 l -0.20313,42.916015 c 0,2.230057 1.90298,1.534098 2.91602,0.949219 16.14903,-8.949371 25.94655,-3.826387 32.66211,8.130859 l -0.52735,-49.554687 c 0.0128,-1.418646 -0.17752,-1.9742 -0.88086,-2.847656 -4.12167,-6.056648 -9.33779,-8.538584 -14.87695,-8.667969 z m 35.53516,0 c -5.53916,0.129385 -10.75333,2.611321 -14.875,8.667969 -0.70334,0.873456 -0.89558,1.42901 -0.88282,2.847656 l -0.52734,49.554687 c 6.71556,-11.957246 16.51503,-17.08023 32.66407,-8.130859 1.01304,0.584879 2.91405,1.280838 2.91406,-0.949219 l -0.20313,-42.916015 c 0,-1.08602 -0.35107,-2.518203 -2.27148,-3.626953 -5.41662,-3.353848 -11.27921,-5.576651 -16.81836,-5.447266 z"
         style="fill:none;fill-opacity:1;stroke:#000000;stroke-width:3.2;stroke-linecap:round;stroke-linejoin:round;stroke-miterlimit:4;stroke-dasharray:none;stroke-opacity:0.00784314" />
      <path
         style="fill:none;fill-opacity:1;stroke:#000000;stroke-width:3.7;stroke-linecap:round;stroke-linejoin:round;stroke-miterlimit:4;stroke-dasharray:none;stroke-opacity:0.00784314"
         d="m 192.32725,33.753842 c -5.53916,-0.129385 -11.40174,2.093418 -16.81836,5.447266 -1.92041,1.10875 -2.27148,2.540933 -2.27148,3.626953 l -0.20313,42.916015 c 0,2.230057 1.90298,1.534098 2.91602,0.949219 16.14903,-8.949371 25.94655,-3.826387 32.66211,8.130859 l -0.52735,-49.554687 c 0.0128,-1.418646 -0.17752,-1.9742 -0.88086,-2.847656 -4.12167,-6.056648 -9.33779,-8.538584 -14.87695,-8.667969 z m 35.53516,0 c -5.53916,0.129385 -10.75333,2.611321 -14.875,8.667969 -0.70334,0.873456 -0.89558,1.42901 -0.88282,2.847656 l -0.52734,49.554687 c 6.71556,-11.957246 16.51503,-17.08023 32.66407,-8.130859 1.01304,0.584879 2.91405,1.280838 2.91406,-0.949219 l -0.20313,-42.916015 c 0,-1.08602 -0.35107,-2.518203 -2.27148,-3.626953 -5.41662,-3.353848 -11.27921,-5.576651 -16.81836,-5.447266 z"
         id="path1494"
         inkscape:connector-curvature="0" />
      <path
         inkscape:connector-curvature="0"
         id="path1496"
         d="m 192.32725,33.753842 c -5.53916,-0.129385 -11.40174,2.093418 -16.81836,5.447266 -1.92041,1.10875 -2.27148,2.540933 -2.27148,3.626953 l -0.20313,42.916015 c 0,2.230057 1.90298,1.534098 2.91602,0.949219 16.14903,-8.949371 25.94655,-3.826387 32.66211,8.130859 l -0.52735,-49.554687 c 0.0128,-1.418646 -0.17752,-1.9742 -0.88086,-2.847656 -4.12167,-6.056648 -9.33779,-8.538584 -14.87695,-8.667969 z m 35.53516,0 c -5.53916,0.129385 -10.75333,2.611321 -14.875,8.667969 -0.70334,0.873456 -0.89558,1.42901 -0.88282,2.847656 l -0.52734,49.554687 c 6.71556,-11.957246 16.51503,-17.08023 32.66407,-8.130859 1.01304,0.584879 2.91405,1.280838 2.91406,-0.949219 l -0.20313,-42.916015 c 0,-1.08602 -0.35107,-2.518203 -2.27148,-3.626953 -5.41662,-3.353848 -11.27921,-5.576651 -16.81836,-5.447266 z"
         style="fill:none;fill-opacity:1;stroke:#000000;stroke-width:4.2;stroke-linecap:round;stroke-linejoin:round;stroke-miterlimit:4;stroke-dasharray:none;stroke-opacity:0.00784314" />
      <path
         style="fill:none;fill-opacity:1;stroke:#000000;stroke-width:4.7;stroke-linecap:round;stroke-linejoin:round;stroke-miterlimit:4;stroke-dasharray:none;stroke-opacity:0.00784314"
         d="m 192.32725,33.753842 c -5.53916,-0.129385 -11.40174,2.093418 -16.81836,5.447266 -1.92041,1.10875 -2.27148,2.540933 -2.27148,3.626953 l -0.20313,42.916015 c 0,2.230057 1.90298,1.534098 2.91602,0.949219 16.14903,-8.949371 25.94655,-3.826387 32.66211,8.130859 l -0.52735,-49.554687 c 0.0128,-1.418646 -0.17752,-1.9742 -0.88086,-2.847656 -4.12167,-6.056648 -9.33779,-8.538584 -14.87695,-8.667969 z m 35.53516,0 c -5.53916,0.129385 -10.75333,2.611321 -14.875,8.667969 -0.70334,0.873456 -0.89558,1.42901 -0.88282,2.847656 l -0.52734,49.554687 c 6.71556,-11.957246 16.51503,-17.08023 32.66407,-8.130859 1.01304,0.584879 2.91405,1.280838 2.91406,-0.949219 l -0.20313,-42.916015 c 0,-1.08602 -0.35107,-2.518203 -2.27148,-3.626953 -5.41662,-3.353848 -11.27921,-5.576651 -16.81836,-5.447266 z"
         id="path1498"
         inkscape:connector-curvature="0" />
      <path
         inkscape:connector-curvature="0"
         id="path1500"
         d="m 192.32725,33.753842 c -5.53916,-0.129385 -11.40174,2.093418 -16.81836,5.447266 -1.92041,1.10875 -2.27148,2.540933 -2.27148,3.626953 l -0.20313,42.916015 c 0,2.230057 1.90298,1.534098 2.91602,0.949219 16.14903,-8.949371 25.94655,-3.826387 32.66211,8.130859 l -0.52735,-49.554687 c 0.0128,-1.418646 -0.17752,-1.9742 -0.88086,-2.847656 -4.12167,-6.056648 -9.33779,-8.538584 -14.87695,-8.667969 z m 35.53516,0 c -5.53916,0.129385 -10.75333,2.611321 -14.875,8.667969 -0.70334,0.873456 -0.89558,1.42901 -0.88282,2.847656 l -0.52734,49.554687 c 6.71556,-11.957246 16.51503,-17.08023 32.66407,-8.130859 1.01304,0.584879 2.91405,1.280838 2.91406,-0.949219 l -0.20313,-42.916015 c 0,-1.08602 -0.35107,-2.518203 -2.27148,-3.626953 -5.41662,-3.353848 -11.27921,-5.576651 -16.81836,-5.447266 z"
         style="fill:none;fill-opacity:1;stroke:#000000;stroke-width:5.2;stroke-linecap:round;stroke-linejoin:round;stroke-miterlimit:4;stroke-dasharray:none;stroke-opacity:0.00784314" />
      <path
         style="fill:none;fill-opacity:1;stroke:#000000;stroke-width:5.7;stroke-linecap:round;stroke-linejoin:round;stroke-miterlimit:4;stroke-dasharray:none;stroke-opacity:0.00784314"
         d="m 192.32725,33.753842 c -5.53916,-0.129385 -11.40174,2.093418 -16.81836,5.447266 -1.92041,1.10875 -2.27148,2.540933 -2.27148,3.626953 l -0.20313,42.916015 c 0,2.230057 1.90298,1.534098 2.91602,0.949219 16.14903,-8.949371 25.94655,-3.826387 32.66211,8.130859 l -0.52735,-49.554687 c 0.0128,-1.418646 -0.17752,-1.9742 -0.88086,-2.847656 -4.12167,-6.056648 -9.33779,-8.538584 -14.87695,-8.667969 z m 35.53516,0 c -5.53916,0.129385 -10.75333,2.611321 -14.875,8.667969 -0.70334,0.873456 -0.89558,1.42901 -0.88282,2.847656 l -0.52734,49.554687 c 6.71556,-11.957246 16.51503,-17.08023 32.66407,-8.130859 1.01304,0.584879 2.91405,1.280838 2.91406,-0.949219 l -0.20313,-42.916015 c 0,-1.08602 -0.35107,-2.518203 -2.27148,-3.626953 -5.41662,-3.353848 -11.27921,-5.576651 -16.81836,-5.447266 z"
         id="path1502"
         inkscape:connector-curvature="0" />
      <path
         inkscape:connector-curvature="0"
         id="path1504"
         d="m 192.32725,33.753842 c -5.53916,-0.129385 -11.40174,2.093418 -16.81836,5.447266 -1.92041,1.10875 -2.27148,2.540933 -2.27148,3.626953 l -0.20313,42.916015 c 0,2.230057 1.90298,1.534098 2.91602,0.949219 16.14903,-8.949371 25.94655,-3.826387 32.66211,8.130859 l -0.52735,-49.554687 c 0.0128,-1.418646 -0.17752,-1.9742 -0.88086,-2.847656 -4.12167,-6.056648 -9.33779,-8.538584 -14.87695,-8.667969 z m 35.53516,0 c -5.53916,0.129385 -10.75333,2.611321 -14.875,8.667969 -0.70334,0.873456 -0.89558,1.42901 -0.88282,2.847656 l -0.52734,49.554687 c 6.71556,-11.957246 16.51503,-17.08023 32.66407,-8.130859 1.01304,0.584879 2.91405,1.280838 2.91406,-0.949219 l -0.20313,-42.916015 c 0,-1.08602 -0.35107,-2.518203 -2.27148,-3.626953 -5.41662,-3.353848 -11.27921,-5.576651 -16.81836,-5.447266 z"
         style="fill:none;fill-opacity:1;stroke:#000000;stroke-width:6.3;stroke-linecap:round;stroke-linejoin:round;stroke-miterlimit:4;stroke-dasharray:none;stroke-opacity:0.00784314" />
      <path
         style="fill:none;fill-opacity:1;stroke:#000000;stroke-width:7.3;stroke-linecap:round;stroke-linejoin:round;stroke-miterlimit:4;stroke-dasharray:none;stroke-opacity:0.00784314"
         d="m 192.32725,33.753842 c -5.53916,-0.129385 -11.40174,2.093418 -16.81836,5.447266 -1.92041,1.10875 -2.27148,2.540933 -2.27148,3.626953 l -0.20313,42.916015 c 0,2.230057 1.90298,1.534098 2.91602,0.949219 16.14903,-8.949371 25.94655,-3.826387 32.66211,8.130859 l -0.52735,-49.554687 c 0.0128,-1.418646 -0.17752,-1.9742 -0.88086,-2.847656 -4.12167,-6.056648 -9.33779,-8.538584 -14.87695,-8.667969 z m 35.53516,0 c -5.53916,0.129385 -10.75333,2.611321 -14.875,8.667969 -0.70334,0.873456 -0.89558,1.42901 -0.88282,2.847656 l -0.52734,49.554687 c 6.71556,-11.957246 16.51503,-17.08023 32.66407,-8.130859 1.01304,0.584879 2.91405,1.280838 2.91406,-0.949219 l -0.20313,-42.916015 c 0,-1.08602 -0.35107,-2.518203 -2.27148,-3.626953 -5.41662,-3.353848 -11.27921,-5.576651 -16.81836,-5.447266 z"
         id="path1506"
         inkscape:connector-curvature="0" />
      <path
         inkscape:connector-curvature="0"
         id="path1508"
         d="m 192.32725,33.753842 c -5.53916,-0.129385 -11.40174,2.093418 -16.81836,5.447266 -1.92041,1.10875 -2.27148,2.540933 -2.27148,3.626953 l -0.20313,42.916015 c 0,2.230057 1.90298,1.534098 2.91602,0.949219 16.14903,-8.949371 25.94655,-3.826387 32.66211,8.130859 l -0.52735,-49.554687 c 0.0128,-1.418646 -0.17752,-1.9742 -0.88086,-2.847656 -4.12167,-6.056648 -9.33779,-8.538584 -14.87695,-8.667969 z m 35.53516,0 c -5.53916,0.129385 -10.75333,2.611321 -14.875,8.667969 -0.70334,0.873456 -0.89558,1.42901 -0.88282,2.847656 l -0.52734,49.554687 c 6.71556,-11.957246 16.51503,-17.08023 32.66407,-8.130859 1.01304,0.584879 2.91405,1.280838 2.91406,-0.949219 l -0.20313,-42.916015 c 0,-1.08602 -0.35107,-2.518203 -2.27148,-3.626953 -5.41662,-3.353848 -11.27921,-5.576651 -16.81836,-5.447266 z"
         style="fill:none;fill-opacity:1;stroke:#000000;stroke-width:7.8;stroke-linecap:round;stroke-linejoin:round;stroke-miterlimit:4;stroke-dasharray:none;stroke-opacity:0.00784314" />
    </g>
    <path
       inkscape:connector-curvature="0"
       id="path1449"
       d="M 12.068646,8.7941842 C 10.526695,8.7581692 8.8947091,9.3769352 7.3868716,10.310554 6.85228,10.619201 6.7545524,11.017882 6.7545524,11.3202 l -0.056541,11.946651 c 0,0.620788 0.5297365,0.42705 0.8117395,0.26424 4.4954511,-2.491263 7.2228151,-1.065162 9.0922451,2.263407 l -0.1468,-13.794677 c 0.0036,-0.394913 -0.04942,-0.549564 -0.245207,-0.79271 C 15.062627,9.5211062 13.610599,8.8302015 12.06865,8.7941842 Z m 9.892023,0 c -1.54195,0.036015 -2.993434,0.726922 -4.140798,2.4129268 -0.195776,0.243146 -0.249302,0.397797 -0.24575,0.79271 l -0.146796,13.794677 c 1.86943,-3.328569 4.597337,-4.75467 9.092789,-2.263407 0.282004,0.162817 0.811194,0.356548 0.811196,-0.26424 L 27.27477,11.3202 c 0,-0.302318 -0.09772,-0.700999 -0.632319,-1.009646 -1.50784,-0.9336188 -3.139827,-1.5523872 -4.681779,-1.5163698 z"
       style="fill:#f5f5f5;fill-opacity:1;stroke:url(#linearGradient1982);stroke-width:0.271484;stroke-linecap:butt;stroke-linejoin:miter;stroke-miterlimit:4;stroke-dasharray:none;stroke-opacity:1" />
  </g>
</svg>
