<?xml version="1.0" encoding="UTF-8" standalone="no"?>
<svg
   width="128"
   height="128"
   viewBox="0 0 33.866666 33.866668"
   version="1.1"
   id="svg1829"
   inkscape:version="1.1.2 (0a00cf5339, 2022-02-04)"
   sodipodi:docname="ares.svg"
   xmlns:inkscape="http://www.inkscape.org/namespaces/inkscape"
   xmlns:sodipodi="http://sodipodi.sourceforge.net/DTD/sodipodi-0.dtd"
   xmlns:xlink="http://www.w3.org/1999/xlink"
   xmlns="http://www.w3.org/2000/svg"
   xmlns:svg="http://www.w3.org/2000/svg"
   xmlns:rdf="http://www.w3.org/1999/02/22-rdf-syntax-ns#"
   xmlns:cc="http://creativecommons.org/ns#"
   xmlns:dc="http://purl.org/dc/elements/1.1/">
  <defs
     id="defs1823">
    <linearGradient
       inkscape:collect="always"
       id="linearGradient1235">
      <stop
         style="stop-color:#fbffff;stop-opacity:1;"
         offset="0"
         id="stop1231" />
      <stop
         style="stop-color:#ffbc09;stop-opacity:1"
         offset="1"
         id="stop1233" />
    </linearGradient>
    <linearGradient
       inkscape:collect="always"
       id="linearGradient934">
      <stop
         style="stop-color:#ffe447;stop-opacity:1"
         offset="0"
         id="stop930" />
      <stop
         style="stop-color:#ffb702;stop-opacity:1"
         offset="1"
         id="stop932" />
    </linearGradient>
    <radialGradient
       inkscape:collect="always"
       xlink:href="#linearGradient934"
       id="radialGradient908"
       cx="16.936953"
       cy="3.2428353"
       fx="16.936953"
       fy="3.2428353"
       r="14.54372"
       gradientUnits="userSpaceOnUse"
       gradientTransform="matrix(4.4791718,0,0,2.0391647,-58.926568,-3.3698399)" />
    <linearGradient
       inkscape:collect="always"
       xlink:href="#linearGradient1235"
       id="linearGradient1237"
       x1="18.883959"
       y1="10.447262"
       x2="18.883959"
       y2="80.817451"
       gradientUnits="userSpaceOnUse" />
  </defs>
  <sodipodi:namedview
     id="base"
     pagecolor="#ffffff"
     bordercolor="#666666"
     borderopacity="1.0"
     inkscape:pageopacity="0.0"
     inkscape:pageshadow="2"
     inkscape:zoom="0.35"
     inkscape:cx="-1155.7143"
     inkscape:cy="-240"
     inkscape:document-units="mm"
     inkscape:current-layer="layer1"
     inkscape:document-rotation="0"
     showgrid="false"
     units="px"
     inkscape:window-width="1920"
     inkscape:window-height="1018"
     inkscape:window-x="0"
     inkscape:window-y="0"
     inkscape:window-maximized="1"
     inkscape:pagecheckerboard="0" />
  <metadata
     id="metadata1826">
    <rdf:RDF>
      <cc:Work
         rdf:about="">
        <dc:format>image/svg+xml</dc:format>
        <dc:type
           rdf:resource="http://purl.org/dc/dcmitype/StillImage" />
      </cc:Work>
    </rdf:RDF>
  </metadata>
  <g
     inkscape:label="Capa 1"
     inkscape:groupmode="layer"
     id="layer1">
    <g
       id="g1702"
       transform="matrix(0.97573206,0,0,0.97573206,-65.58674,-37.192363)"
       style="opacity:0.296765">
      <rect
         style="fill:none;fill-opacity:1;stroke:#000000;stroke-width:0.1;stroke-linecap:round;stroke-linejoin:round;stroke-miterlimit:4;stroke-dasharray:none;stroke-opacity:0.02"
         id="rect1634"
         width="29.810888"
         height="29.810888"
         x="69.839508"
         y="40.709618"
         rx="6.6098609"
         ry="6.6098609" />
      <rect
         ry="6.6098609"
         rx="6.6098609"
         y="40.709618"
         x="69.839508"
         height="29.810888"
         width="29.810888"
         id="rect1638"
         style="fill:none;fill-opacity:1;stroke:#000000;stroke-width:0.2;stroke-linecap:round;stroke-linejoin:round;stroke-miterlimit:4;stroke-dasharray:none;stroke-opacity:0.02" />
      <rect
         style="fill:none;fill-opacity:1;stroke:#000000;stroke-width:0.3;stroke-linecap:round;stroke-linejoin:round;stroke-miterlimit:4;stroke-dasharray:none;stroke-opacity:0.02"
         id="rect1640"
         width="29.810888"
         height="29.810888"
         x="69.839508"
         y="40.709618"
         rx="6.6098609"
         ry="6.6098609" />
      <rect
         ry="6.6098609"
         rx="6.6098609"
         y="40.709618"
         x="69.839508"
         height="29.810888"
         width="29.810888"
         id="rect1642"
         style="fill:none;fill-opacity:1;stroke:#000000;stroke-width:0.4;stroke-linecap:round;stroke-linejoin:round;stroke-miterlimit:4;stroke-dasharray:none;stroke-opacity:0.02" />
      <rect
         style="fill:none;fill-opacity:1;stroke:#000000;stroke-width:0.5;stroke-linecap:round;stroke-linejoin:round;stroke-miterlimit:4;stroke-dasharray:none;stroke-opacity:0.02"
         id="rect1644"
         width="29.810888"
         height="29.810888"
         x="69.839508"
         y="40.709618"
         rx="6.6098609"
         ry="6.6098609" />
      <rect
         ry="6.6098609"
         rx="6.6098609"
         y="40.709618"
         x="69.839508"
         height="29.810888"
         width="29.810888"
         id="rect1646"
         style="fill:none;fill-opacity:1;stroke:#000000;stroke-width:0.6;stroke-linecap:round;stroke-linejoin:round;stroke-miterlimit:4;stroke-dasharray:none;stroke-opacity:0.02" />
      <rect
         style="fill:none;fill-opacity:1;stroke:#000000;stroke-width:0.7;stroke-linecap:round;stroke-linejoin:round;stroke-miterlimit:4;stroke-dasharray:none;stroke-opacity:0.02"
         id="rect1648"
         width="29.810888"
         height="29.810888"
         x="69.839508"
         y="40.709618"
         rx="6.6098609"
         ry="6.6098609" />
      <rect
         ry="6.6098609"
         rx="6.6098609"
         y="40.709618"
         x="69.839508"
         height="29.810888"
         width="29.810888"
         id="rect1650"
         style="fill:none;fill-opacity:1;stroke:#000000;stroke-width:0.8;stroke-linecap:round;stroke-linejoin:round;stroke-miterlimit:4;stroke-dasharray:none;stroke-opacity:0.02" />
      <rect
         style="fill:none;fill-opacity:1;stroke:#000000;stroke-width:1;stroke-linecap:round;stroke-linejoin:round;stroke-miterlimit:4;stroke-dasharray:none;stroke-opacity:0.02"
         id="rect1652"
         width="29.810888"
         height="29.810888"
         x="69.839508"
         y="40.709618"
         rx="6.6098609"
         ry="6.6098609" />
      <rect
         ry="6.6098609"
         rx="6.6098609"
         y="40.709618"
         x="69.839508"
         height="29.810888"
         width="29.810888"
         id="rect1654"
         style="fill:none;fill-opacity:1;stroke:#000000;stroke-width:1.2;stroke-linecap:round;stroke-linejoin:round;stroke-miterlimit:4;stroke-dasharray:none;stroke-opacity:0.02" />
      <rect
         style="fill:none;fill-opacity:1;stroke:#000000;stroke-width:1.4;stroke-linecap:round;stroke-linejoin:round;stroke-miterlimit:4;stroke-dasharray:none;stroke-opacity:0.02"
         id="rect1656"
         width="29.810888"
         height="29.810888"
         x="69.839508"
         y="40.709618"
         rx="6.6098609"
         ry="6.6098609" />
      <rect
         ry="6.6098609"
         rx="6.6098609"
         y="40.709618"
         x="69.839508"
         height="29.810888"
         width="29.810888"
         id="rect1658"
         style="fill:none;fill-opacity:1;stroke:#000000;stroke-width:1.6;stroke-linecap:round;stroke-linejoin:round;stroke-miterlimit:4;stroke-dasharray:none;stroke-opacity:0.02" />
      <rect
         style="fill:none;fill-opacity:1;stroke:#000000;stroke-width:1.8;stroke-linecap:round;stroke-linejoin:round;stroke-miterlimit:4;stroke-dasharray:none;stroke-opacity:0.02"
         id="rect1660"
         width="29.810888"
         height="29.810888"
         x="69.839508"
         y="40.709618"
         rx="6.6098609"
         ry="6.6098609" />
      <rect
         ry="6.6098609"
         rx="6.6098609"
         y="40.709618"
         x="69.839508"
         height="29.810888"
         width="29.810888"
         id="rect1662"
         style="fill:none;fill-opacity:1;stroke:#000000;stroke-width:2;stroke-linecap:round;stroke-linejoin:round;stroke-miterlimit:4;stroke-dasharray:none;stroke-opacity:0.02" />
      <rect
         style="fill:none;fill-opacity:1;stroke:#000000;stroke-width:2.2;stroke-linecap:round;stroke-linejoin:round;stroke-miterlimit:4;stroke-dasharray:none;stroke-opacity:0.02"
         id="rect1664"
         width="29.810888"
         height="29.810888"
         x="69.839508"
         y="40.709618"
         rx="6.6098609"
         ry="6.6098609" />
      <rect
         ry="6.6098609"
         rx="6.6098609"
         y="40.709618"
         x="69.839508"
         height="29.810888"
         width="29.810888"
         id="rect1666"
         style="fill:none;fill-opacity:1;stroke:#000000;stroke-width:2.6;stroke-linecap:round;stroke-linejoin:round;stroke-miterlimit:4;stroke-dasharray:none;stroke-opacity:0.02" />
      <rect
         style="fill:none;fill-opacity:1;stroke:#000000;stroke-width:3;stroke-linecap:round;stroke-linejoin:round;stroke-miterlimit:4;stroke-dasharray:none;stroke-opacity:0.02"
         id="rect1668"
         width="29.810888"
         height="29.810888"
         x="69.839508"
         y="40.709618"
         rx="6.6098609"
         ry="6.6098609" />
      <rect
         ry="6.6098609"
         rx="6.6098609"
         y="40.709618"
         x="69.839508"
         height="29.810888"
         width="29.810888"
         id="rect1670"
         style="fill:none;fill-opacity:1;stroke:#000000;stroke-width:3.4;stroke-linecap:round;stroke-linejoin:round;stroke-miterlimit:4;stroke-dasharray:none;stroke-opacity:0.02" />
      <rect
         style="fill:none;fill-opacity:1;stroke:#000000;stroke-width:3.8;stroke-linecap:round;stroke-linejoin:round;stroke-miterlimit:4;stroke-dasharray:none;stroke-opacity:0.02"
         id="rect1672"
         width="29.810888"
         height="29.810888"
         x="69.839508"
         y="40.709618"
         rx="6.6098609"
         ry="6.6098609" />
      <rect
         ry="6.6098609"
         rx="6.6098609"
         y="40.709618"
         x="69.839508"
         height="29.810888"
         width="29.810888"
         id="rect1674"
         style="fill:none;fill-opacity:1;stroke:#000000;stroke-width:4.2;stroke-linecap:round;stroke-linejoin:round;stroke-miterlimit:4;stroke-dasharray:none;stroke-opacity:0.02" />
      <rect
         style="fill:none;fill-opacity:1;stroke:#000000;stroke-width:4.6;stroke-linecap:round;stroke-linejoin:round;stroke-miterlimit:4;stroke-dasharray:none;stroke-opacity:0.02"
         id="rect1676"
         width="29.810888"
         height="29.810888"
         x="69.839508"
         y="40.709618"
         rx="6.6098609"
         ry="6.6098609" />
      <rect
         ry="6.6098609"
         rx="6.6098609"
         y="40.709618"
         x="69.839508"
         height="29.810888"
         width="29.810888"
         id="rect1678"
         style="fill:none;fill-opacity:1;stroke:#000000;stroke-width:5;stroke-linecap:round;stroke-linejoin:round;stroke-miterlimit:4;stroke-dasharray:none;stroke-opacity:0.02" />
    </g>
    <rect
       style="fill:url(#radialGradient908);fill-opacity:1;stroke-width:2.68769;stroke-linecap:round;stroke-linejoin:round"
       id="rect849-5"
       width="29.08744"
       height="29.08744"
       x="2.5579116"
       y="2.5293181"
       rx="6.4494534"
       ry="6.4494534" />
    <path
       style="fill:none;stroke-width:0.2;fill-opacity:1;stroke:#1e0000;stroke-opacity:0.05888595;stroke-miterlimit:4;stroke-dasharray:none;opacity:0.39715775"
       d="m 17.863583,7.0184797 c -0.723234,-0.072858 -1.028366,0.937648 -0.396005,1.3114404 2.035524,1.2073419 3.355072,3.4604639 3.355839,5.9055939 0,3.760048 -2.966569,6.852835 -6.565926,6.853836 -2.333244,-0.0066 -4.4813743,-1.375835 -5.6351752,-3.494245 -0.3589054,-0.658106 -1.3233355,-0.339418 -1.254599,0.414572 0.4737211,5.15227 4.6226152,9.099761 9.5776982,9.111436 5.76e-4,10e-7 0.0012,10e-7 0.0017,0 5.318435,0 9.644301,-4.518702 9.644301,-10.074195 -3.21e-4,-5.186634 -3.785032,-9.5356054 -8.727862,-10.0284383 z"
       id="path2485" />
    <path
       style="fill:none;stroke-width:0.4;fill-opacity:1;stroke:#1e0000;stroke-opacity:0.05888595;stroke-miterlimit:4;stroke-dasharray:none;opacity:0.39715775"
       d="m 17.863583,7.0184797 c -0.723234,-0.072858 -1.028366,0.937648 -0.396005,1.3114404 2.035524,1.2073419 3.355072,3.4604639 3.355839,5.9055939 0,3.760048 -2.966569,6.852835 -6.565926,6.853836 -2.333244,-0.0066 -4.4813743,-1.375835 -5.6351752,-3.494245 -0.3589054,-0.658106 -1.3233355,-0.339418 -1.254599,0.414572 0.4737211,5.15227 4.6226152,9.099761 9.5776982,9.111436 5.76e-4,10e-7 0.0012,10e-7 0.0017,0 5.318435,0 9.644301,-4.518702 9.644301,-10.074195 -3.21e-4,-5.186634 -3.785032,-9.5356054 -8.727862,-10.0284383 z"
       id="path2703" />
    <path
       style="fill:none;stroke-width:0.5;fill-opacity:1;stroke:#1e0000;stroke-opacity:0.05888595;stroke-miterlimit:4;stroke-dasharray:none;opacity:0.39715775"
       d="m 17.863583,7.0184797 c -0.723234,-0.072858 -1.028366,0.937648 -0.396005,1.3114404 2.035524,1.2073419 3.355072,3.4604639 3.355839,5.9055939 0,3.760048 -2.966569,6.852835 -6.565926,6.853836 -2.333244,-0.0066 -4.4813743,-1.375835 -5.6351752,-3.494245 -0.3589054,-0.658106 -1.3233355,-0.339418 -1.254599,0.414572 0.4737211,5.15227 4.6226152,9.099761 9.5776982,9.111436 5.76e-4,10e-7 0.0012,10e-7 0.0017,0 5.318435,0 9.644301,-4.518702 9.644301,-10.074195 -3.21e-4,-5.186634 -3.785032,-9.5356054 -8.727862,-10.0284383 z"
       id="path2705" />
    <path
       style="fill:none;stroke-width:0.7;fill-opacity:1;stroke:#1e0000;stroke-opacity:0.05888595;stroke-miterlimit:4;stroke-dasharray:none;opacity:0.39715775"
       d="m 17.863583,7.0184797 c -0.723234,-0.072858 -1.028366,0.937648 -0.396005,1.3114404 2.035524,1.2073419 3.355072,3.4604639 3.355839,5.9055939 0,3.760048 -2.966569,6.852835 -6.565926,6.853836 -2.333244,-0.0066 -4.4813743,-1.375835 -5.6351752,-3.494245 -0.3589054,-0.658106 -1.3233355,-0.339418 -1.254599,0.414572 0.4737211,5.15227 4.6226152,9.099761 9.5776982,9.111436 5.76e-4,10e-7 0.0012,10e-7 0.0017,0 5.318435,0 9.644301,-4.518702 9.644301,-10.074195 -3.21e-4,-5.186634 -3.785032,-9.5356054 -8.727862,-10.0284383 z"
       id="path2707" />
    <path
       style="fill:none;stroke-width:1;fill-opacity:1;stroke:#1e0000;stroke-opacity:0.05888595;stroke-miterlimit:4;stroke-dasharray:none;opacity:0.39715775"
       d="m 17.863583,7.0184797 c -0.723234,-0.072858 -1.028366,0.937648 -0.396005,1.3114404 2.035524,1.2073419 3.355072,3.4604639 3.355839,5.9055939 0,3.760048 -2.966569,6.852835 -6.565926,6.853836 -2.333244,-0.0066 -4.4813743,-1.375835 -5.6351752,-3.494245 -0.3589054,-0.658106 -1.3233355,-0.339418 -1.254599,0.414572 0.4737211,5.15227 4.6226152,9.099761 9.5776982,9.111436 5.76e-4,10e-7 0.0012,10e-7 0.0017,0 5.318435,0 9.644301,-4.518702 9.644301,-10.074195 -3.21e-4,-5.186634 -3.785032,-9.5356054 -8.727862,-10.0284383 z"
       id="path2709" />
    <path
       style="fill:none;stroke-width:1.3;fill-opacity:1;stroke:#1e0000;stroke-opacity:0.05888595;stroke-miterlimit:4;stroke-dasharray:none;opacity:0.39715775"
       d="m 17.863583,7.0184797 c -0.723234,-0.072858 -1.028366,0.937648 -0.396005,1.3114404 2.035524,1.2073419 3.355072,3.4604639 3.355839,5.9055939 0,3.760048 -2.966569,6.852835 -6.565926,6.853836 -2.333244,-0.0066 -4.4813743,-1.375835 -5.6351752,-3.494245 -0.3589054,-0.658106 -1.3233355,-0.339418 -1.254599,0.414572 0.4737211,5.15227 4.6226152,9.099761 9.5776982,9.111436 5.76e-4,10e-7 0.0012,10e-7 0.0017,0 5.318435,0 9.644301,-4.518702 9.644301,-10.074195 -3.21e-4,-5.186634 -3.785032,-9.5356054 -8.727862,-10.0284383 z"
       id="path2711" />
    <path
       style="color:#000000;fill:none;fill-opacity:0.0588859;-inkscape-stroke:none;opacity:0.39715775"
       d="m 18.624414,6.9865065 c -0.02495,-0.0025 -0.04177,0.01859 -0.06641,0.01758 -0.635956,-0.02621 -1.170859,0.41534 -1.326172,0.929687 -0.16133,0.534275 0.02508,1.231504 0.601562,1.572266 1.835666,1.0893895 3.036416,3.1347935 3.03711,5.3457035 0,3.417459 -2.687835,6.20109 -5.914063,6.203125 -2.080077,-0.0059 -4.018425,-1.230175 -5.0664063,-3.154297 v -0.002 c -0.317742,-0.582577 -1.025444,-0.804369 -1.5625,-0.626903 -0.537055,0.177465 -0.970229,0.75315 -0.910156,1.412109 v 0.002 c 0.50263,5.466687 4.9232193,9.688686 10.2226563,9.701172 h 0.002 0.002 c 5.686603,0 10.294922,-4.831701 10.294922,-10.724609 -3.4e-4,-5.502812 -4.028569,-10.1487445 -9.314453,-10.6757815 z"
       id="path2713"
       sodipodi:nodetypes="scscccccsccscscss" />
    <path
       style="color:#000000;fill:#1e0000;fill-opacity:0.0588859;-inkscape-stroke:none;opacity:0.39715775"
       d="m 18.624413,6.9885087 c -0.02508,-0.00249 -0.04164,0.020504 -0.06641,0.019531 -0.634869,-0.024924 -1.171057,0.4140435 -1.326172,0.9277344 -0.16133,0.5342749 0.02508,1.2295504 0.601563,1.5703125 1.836352,1.0892064 3.036415,3.1362574 3.037109,5.3476564 0,3.417459 -2.687835,6.20109 -5.914062,6.203125 -2.080078,-0.0059 -4.018425,-1.230175 -5.0664063,-3.154297 v -0.002 c -0.3177382,-0.58258 -1.0254404,-0.804372 -1.562496,-0.626906 -0.5370556,0.177466 -0.9702294,0.75315 -0.9101563,1.412109 0.5026299,5.466688 4.9232186,9.690639 10.2226556,9.703125 9.28e-4,2e-6 0.003,1e-6 0.0039,0 5.686602,0 10.294922,-4.831701 10.294921,-10.724609 -3.4e-4,-5.502144 -4.027563,-10.1478083 -9.3125,-10.6757813 -6.41e-4,-6.4e-5 -0.0013,6.4e-5 -0.002,0 z"
       id="path3570"
       sodipodi:nodetypes="ccscccccscsccscc" />
    <path
       style="fill:url(#linearGradient1237);stroke-width:0.491547;fill-opacity:1"
       d="m 17.863583,7.0184797 c -0.723234,-0.072858 -1.028366,0.937648 -0.396005,1.3114404 2.035524,1.2073419 3.355072,3.4604639 3.355839,5.9055939 0,3.760048 -2.966569,6.852835 -6.565926,6.853836 -2.333244,-0.0066 -4.4813743,-1.375835 -5.6351752,-3.494245 -0.3589054,-0.658106 -1.3233355,-0.339418 -1.254599,0.414572 0.4737211,5.15227 4.6226152,9.099761 9.5776982,9.111436 5.76e-4,10e-7 0.0012,10e-7 0.0017,0 5.318435,0 9.644301,-4.518702 9.644301,-10.074195 -3.21e-4,-5.186634 -3.785032,-9.5356054 -8.727862,-10.0284383 z"
       id="path4" />
  </g>
</svg>
