<?xml version="1.0" encoding="UTF-8" standalone="no"?>
<svg
   xmlns:dc="http://purl.org/dc/elements/1.1/"
   xmlns:cc="http://creativecommons.org/ns#"
   xmlns:rdf="http://www.w3.org/1999/02/22-rdf-syntax-ns#"
   xmlns:svg="http://www.w3.org/2000/svg"
   xmlns="http://www.w3.org/2000/svg"
   xmlns:xlink="http://www.w3.org/1999/xlink"
   xmlns:sodipodi="http://sodipodi.sourceforge.net/DTD/sodipodi-0.dtd"
   xmlns:inkscape="http://www.inkscape.org/namespaces/inkscape"
   width="128"
   height="128"
   viewBox="0 0 33.866666 33.866668"
   version="1.1"
   id="svg1576"
   inkscape:version="1.0.2 (e86c870879, 2021-01-15)"
   sodipodi:docname="auryo.svg">
  <defs
     id="defs1570">
    <linearGradient
       inkscape:collect="always"
       id="linearGradient882">
      <stop
         style="stop-color:#2993e4;stop-opacity:1;"
         offset="0"
         id="stop878" />
      <stop
         style="stop-color:#147fff;stop-opacity:1"
         offset="1"
         id="stop880" />
    </linearGradient>
    <linearGradient
       inkscape:collect="always"
       id="linearGradient894">
      <stop
         style="stop-color:#000000;stop-opacity:1;"
         offset="0"
         id="stop890" />
      <stop
         style="stop-color:#000000;stop-opacity:0;"
         offset="1"
         id="stop892" />
    </linearGradient>
    <radialGradient
       inkscape:collect="always"
       xlink:href="#linearGradient4675"
       id="radialGradient1506"
       cx="17.080746"
       cy="3.8305573"
       fx="17.080746"
       fy="3.8305573"
       r="14.543719"
       gradientUnits="userSpaceOnUse"
       gradientTransform="matrix(2.7895251,0,0,1.8353148,-30.612066,-3.2437254)" />
    <linearGradient
       id="linearGradient4675"
       inkscape:collect="always">
      <stop
         id="stop4671"
         offset="0"
         style="stop-color:#0e7bff;stop-opacity:1" />
      <stop
         id="stop4673"
         offset="1"
         style="stop-color:#5cadff;stop-opacity:1" />
    </linearGradient>
    <linearGradient
       inkscape:collect="always"
       xlink:href="#linearGradient894"
       id="linearGradient896"
       x1="21.179426"
       y1="6.1026163"
       x2="21.179426"
       y2="95.093018"
       gradientUnits="userSpaceOnUse" />
    <linearGradient
       inkscape:collect="always"
       xlink:href="#linearGradient882"
       id="linearGradient884"
       x1="19.475163"
       y1="25.04653"
       x2="19.475163"
       y2="10.47166"
       gradientUnits="userSpaceOnUse" />
  </defs>
  <sodipodi:namedview
     id="base"
     pagecolor="#ffffff"
     bordercolor="#666666"
     borderopacity="1.0"
     inkscape:pageopacity="0.0"
     inkscape:pageshadow="2"
     inkscape:zoom="1.979899"
     inkscape:cx="154.40387"
     inkscape:cy="107.81605"
     inkscape:document-units="mm"
     inkscape:current-layer="layer1"
     inkscape:document-rotation="0"
     showgrid="false"
     units="px"
     inkscape:window-width="1920"
     inkscape:window-height="1028"
     inkscape:window-x="0"
     inkscape:window-y="24"
     inkscape:window-maximized="1" />
  <metadata
     id="metadata1573">
    <rdf:RDF>
      <cc:Work
         rdf:about="">
        <dc:format>image/svg+xml</dc:format>
        <dc:type
           rdf:resource="http://purl.org/dc/dcmitype/StillImage" />
        <dc:title></dc:title>
      </cc:Work>
    </rdf:RDF>
  </metadata>
  <g
     inkscape:label="Capa 1"
     inkscape:groupmode="layer"
     id="layer1">
    <g
       id="g1702"
       transform="matrix(0.97573206,0,0,0.97573206,-65.794024,-37.2471)"
       style="opacity:0.295">
      <rect
         style="fill:none;fill-opacity:1;stroke:#000000;stroke-width:0.1;stroke-linecap:round;stroke-linejoin:round;stroke-miterlimit:4;stroke-dasharray:none;stroke-opacity:0.02"
         id="rect1634"
         width="29.810888"
         height="29.810888"
         x="69.839508"
         y="40.709618"
         rx="6.6098609"
         ry="6.6098609" />
      <rect
         ry="6.6098609"
         rx="6.6098609"
         y="40.709618"
         x="69.839508"
         height="29.810888"
         width="29.810888"
         id="rect1638"
         style="fill:none;fill-opacity:1;stroke:#000000;stroke-width:0.2;stroke-linecap:round;stroke-linejoin:round;stroke-miterlimit:4;stroke-dasharray:none;stroke-opacity:0.02" />
      <rect
         style="fill:none;fill-opacity:1;stroke:#000000;stroke-width:0.3;stroke-linecap:round;stroke-linejoin:round;stroke-miterlimit:4;stroke-dasharray:none;stroke-opacity:0.02"
         id="rect1640"
         width="29.810888"
         height="29.810888"
         x="69.839508"
         y="40.709618"
         rx="6.6098609"
         ry="6.6098609" />
      <rect
         ry="6.6098609"
         rx="6.6098609"
         y="40.709618"
         x="69.839508"
         height="29.810888"
         width="29.810888"
         id="rect1642"
         style="fill:none;fill-opacity:1;stroke:#000000;stroke-width:0.4;stroke-linecap:round;stroke-linejoin:round;stroke-miterlimit:4;stroke-dasharray:none;stroke-opacity:0.02" />
      <rect
         style="fill:none;fill-opacity:1;stroke:#000000;stroke-width:0.5;stroke-linecap:round;stroke-linejoin:round;stroke-miterlimit:4;stroke-dasharray:none;stroke-opacity:0.02"
         id="rect1644"
         width="29.810888"
         height="29.810888"
         x="69.839508"
         y="40.709618"
         rx="6.6098609"
         ry="6.6098609" />
      <rect
         ry="6.6098609"
         rx="6.6098609"
         y="40.709618"
         x="69.839508"
         height="29.810888"
         width="29.810888"
         id="rect1646"
         style="fill:none;fill-opacity:1;stroke:#000000;stroke-width:0.6;stroke-linecap:round;stroke-linejoin:round;stroke-miterlimit:4;stroke-dasharray:none;stroke-opacity:0.02" />
      <rect
         style="fill:none;fill-opacity:1;stroke:#000000;stroke-width:0.7;stroke-linecap:round;stroke-linejoin:round;stroke-miterlimit:4;stroke-dasharray:none;stroke-opacity:0.02"
         id="rect1648"
         width="29.810888"
         height="29.810888"
         x="69.839508"
         y="40.709618"
         rx="6.6098609"
         ry="6.6098609" />
      <rect
         ry="6.6098609"
         rx="6.6098609"
         y="40.709618"
         x="69.839508"
         height="29.810888"
         width="29.810888"
         id="rect1650"
         style="fill:none;fill-opacity:1;stroke:#000000;stroke-width:0.8;stroke-linecap:round;stroke-linejoin:round;stroke-miterlimit:4;stroke-dasharray:none;stroke-opacity:0.02" />
      <rect
         style="fill:none;fill-opacity:1;stroke:#000000;stroke-width:1;stroke-linecap:round;stroke-linejoin:round;stroke-miterlimit:4;stroke-dasharray:none;stroke-opacity:0.02"
         id="rect1652"
         width="29.810888"
         height="29.810888"
         x="69.839508"
         y="40.709618"
         rx="6.6098609"
         ry="6.6098609" />
      <rect
         ry="6.6098609"
         rx="6.6098609"
         y="40.709618"
         x="69.839508"
         height="29.810888"
         width="29.810888"
         id="rect1654"
         style="fill:none;fill-opacity:1;stroke:#000000;stroke-width:1.2;stroke-linecap:round;stroke-linejoin:round;stroke-miterlimit:4;stroke-dasharray:none;stroke-opacity:0.02" />
      <rect
         style="fill:none;fill-opacity:1;stroke:#000000;stroke-width:1.4;stroke-linecap:round;stroke-linejoin:round;stroke-miterlimit:4;stroke-dasharray:none;stroke-opacity:0.02"
         id="rect1656"
         width="29.810888"
         height="29.810888"
         x="69.839508"
         y="40.709618"
         rx="6.6098609"
         ry="6.6098609" />
      <rect
         ry="6.6098609"
         rx="6.6098609"
         y="40.709618"
         x="69.839508"
         height="29.810888"
         width="29.810888"
         id="rect1658"
         style="fill:none;fill-opacity:1;stroke:#000000;stroke-width:1.6;stroke-linecap:round;stroke-linejoin:round;stroke-miterlimit:4;stroke-dasharray:none;stroke-opacity:0.02" />
      <rect
         style="fill:none;fill-opacity:1;stroke:#000000;stroke-width:1.8;stroke-linecap:round;stroke-linejoin:round;stroke-miterlimit:4;stroke-dasharray:none;stroke-opacity:0.02"
         id="rect1660"
         width="29.810888"
         height="29.810888"
         x="69.839508"
         y="40.709618"
         rx="6.6098609"
         ry="6.6098609" />
      <rect
         ry="6.6098609"
         rx="6.6098609"
         y="40.709618"
         x="69.839508"
         height="29.810888"
         width="29.810888"
         id="rect1662"
         style="fill:none;fill-opacity:1;stroke:#000000;stroke-width:2;stroke-linecap:round;stroke-linejoin:round;stroke-miterlimit:4;stroke-dasharray:none;stroke-opacity:0.02" />
      <rect
         style="fill:none;fill-opacity:1;stroke:#000000;stroke-width:2.2;stroke-linecap:round;stroke-linejoin:round;stroke-miterlimit:4;stroke-dasharray:none;stroke-opacity:0.02"
         id="rect1664"
         width="29.810888"
         height="29.810888"
         x="69.839508"
         y="40.709618"
         rx="6.6098609"
         ry="6.6098609" />
      <rect
         ry="6.6098609"
         rx="6.6098609"
         y="40.709618"
         x="69.839508"
         height="29.810888"
         width="29.810888"
         id="rect1666"
         style="fill:none;fill-opacity:1;stroke:#000000;stroke-width:2.6;stroke-linecap:round;stroke-linejoin:round;stroke-miterlimit:4;stroke-dasharray:none;stroke-opacity:0.02" />
      <rect
         style="fill:none;fill-opacity:1;stroke:#000000;stroke-width:3;stroke-linecap:round;stroke-linejoin:round;stroke-miterlimit:4;stroke-dasharray:none;stroke-opacity:0.02"
         id="rect1668"
         width="29.810888"
         height="29.810888"
         x="69.839508"
         y="40.709618"
         rx="6.6098609"
         ry="6.6098609" />
      <rect
         ry="6.6098609"
         rx="6.6098609"
         y="40.709618"
         x="69.839508"
         height="29.810888"
         width="29.810888"
         id="rect1670"
         style="fill:none;fill-opacity:1;stroke:#000000;stroke-width:3.4;stroke-linecap:round;stroke-linejoin:round;stroke-miterlimit:4;stroke-dasharray:none;stroke-opacity:0.02" />
      <rect
         style="fill:none;fill-opacity:1;stroke:#000000;stroke-width:3.8;stroke-linecap:round;stroke-linejoin:round;stroke-miterlimit:4;stroke-dasharray:none;stroke-opacity:0.02"
         id="rect1672"
         width="29.810888"
         height="29.810888"
         x="69.839508"
         y="40.709618"
         rx="6.6098609"
         ry="6.6098609" />
      <rect
         ry="6.6098609"
         rx="6.6098609"
         y="40.709618"
         x="69.839508"
         height="29.810888"
         width="29.810888"
         id="rect1674"
         style="fill:none;fill-opacity:1;stroke:#000000;stroke-width:4.2;stroke-linecap:round;stroke-linejoin:round;stroke-miterlimit:4;stroke-dasharray:none;stroke-opacity:0.02" />
      <rect
         style="fill:none;fill-opacity:1;stroke:#000000;stroke-width:4.6;stroke-linecap:round;stroke-linejoin:round;stroke-miterlimit:4;stroke-dasharray:none;stroke-opacity:0.02"
         id="rect1676"
         width="29.810888"
         height="29.810888"
         x="69.839508"
         y="40.709618"
         rx="6.6098609"
         ry="6.6098609" />
      <rect
         ry="6.6098609"
         rx="6.6098609"
         y="40.709618"
         x="69.839508"
         height="29.810888"
         width="29.810888"
         id="rect1678"
         style="fill:none;fill-opacity:1;stroke:#000000;stroke-width:5;stroke-linecap:round;stroke-linejoin:round;stroke-miterlimit:4;stroke-dasharray:none;stroke-opacity:0.02" />
    </g>
    <rect
       style="fill:url(#radialGradient1506);fill-opacity:1;stroke-width:2.68801;stroke-linecap:round;stroke-linejoin:round;stroke-miterlimit:4;stroke-dasharray:none"
       id="rect849"
       width="29.08744"
       height="29.08744"
       x="2.3506262"
       y="2.4745805"
       rx="6.4494534"
       ry="6.4494534" />
    <rect
       ry="5.041821"
       rx="5.041821"
       y="4.4276695"
       x="4.3037162"
       height="25.181261"
       width="25.181259"
       id="rect2886"
       style="opacity:0.95;fill:url(#linearGradient896);fill-opacity:1;stroke-width:2.68801;stroke-linecap:round;stroke-linejoin:round;stroke-miterlimit:4;stroke-dasharray:none" />
    <path
       style="fill:#1e1678;fill-opacity:0.281931;stroke-width:0.545958"
       d="m 18.532218,9.3727558 a 7.0974517,7.0974517 0 0 0 -7.097452,7.0974512 v 2.301128 a 3.0027679,3.0027679 0 0 0 -2.1838308,2.885472 3.0027679,3.0027679 0 0 0 3.0027668,3.002767 3.0027679,3.0027679 0 0 0 1.364896,-0.331627 v 0.331627 h 1.637874 V 21.656807 18.65404 h -1.637874 v 0.328427 A 3.0027679,3.0027679 0 0 0 13.072639,18.7692 v -2.298993 a 5.4595782,5.4595782 0 0 1 5.459579,-5.459578 5.4595782,5.4595782 0 0 1 5.459579,5.459578 v 2.301128 a 3.0027679,3.0027679 0 0 0 -2.183831,2.885472 3.0027679,3.0027679 0 0 0 3.002767,3.002767 A 3.0027679,3.0027679 0 0 0 27.8135,21.656807 3.0027679,3.0027679 0 0 0 25.629669,18.7692 V 16.470207 A 7.0974517,7.0974517 0 0 0 18.532218,9.3727558 Z M 12.253702,20.291913 a 1.3648945,1.3648945 0 0 1 1.364896,1.364894 1.3648945,1.3648945 0 0 1 -1.364896,1.364893 1.3648945,1.3648945 0 0 1 -1.364894,-1.364893 1.3648945,1.3648945 0 0 1 1.364894,-1.364894 z m 12.557031,0 a 1.3648945,1.3648945 0 0 1 1.364894,1.364894 1.3648945,1.3648945 0 0 1 -1.364894,1.364893 1.3648945,1.3648945 0 0 1 -1.364894,-1.364893 1.3648945,1.3648945 0 0 1 1.364894,-1.364894 z"
       id="path886" />
    <path
       style="fill:url(#linearGradient884);stroke-width:0.545958;fill-opacity:1"
       d="M 16.894346,9.3748908 A 7.0974517,7.0974517 0 0 0 9.7968944,16.472342 v 2.301128 a 3.0027679,3.0027679 0 0 0 -2.1838312,2.885472 3.0027679,3.0027679 0 0 0 3.0027668,3.002767 3.0027679,3.0027679 0 0 0 1.364896,-0.331627 v 0.331627 H 13.6186 v -3.002767 -3.002767 h -1.637874 v 0.328427 a 3.0027679,3.0027679 0 0 0 -0.545959,-0.213267 v -2.298993 a 5.4595782,5.4595782 0 0 1 5.459579,-5.459578 5.4595782,5.4595782 0 0 1 5.459579,5.459578 v 2.301128 a 3.0027679,3.0027679 0 0 0 -2.183831,2.885472 3.0027679,3.0027679 0 0 0 3.002767,3.002767 3.0027679,3.0027679 0 0 0 3.002767,-3.002767 3.0027679,3.0027679 0 0 0 -2.183831,-2.887607 V 16.472342 A 7.0974517,7.0974517 0 0 0 16.894346,9.3748908 Z M 10.61583,20.294048 a 1.3648945,1.3648945 0 0 1 1.364896,1.364894 1.3648945,1.3648945 0 0 1 -1.364896,1.364893 1.3648945,1.3648945 0 0 1 -1.3648936,-1.364893 1.3648945,1.3648945 0 0 1 1.3648936,-1.364894 z m 12.557031,0 a 1.3648945,1.3648945 0 0 1 1.364894,1.364894 1.3648945,1.3648945 0 0 1 -1.364894,1.364893 1.3648945,1.3648945 0 0 1 -1.364894,-1.364893 1.3648945,1.3648945 0 0 1 1.364894,-1.364894 z"
       id="path8" />
  </g>
</svg>
