<?xml version="1.0" encoding="UTF-8" standalone="no"?>
<svg
   width="128"
   height="128"
   viewBox="0 0 33.866666 33.866668"
   version="1.1"
   id="svg1829"
   inkscape:version="1.1.2 (0a00cf5339, 2022-02-04)"
   sodipodi:docname="avimetaedit.svg"
   xmlns:inkscape="http://www.inkscape.org/namespaces/inkscape"
   xmlns:sodipodi="http://sodipodi.sourceforge.net/DTD/sodipodi-0.dtd"
   xmlns:xlink="http://www.w3.org/1999/xlink"
   xmlns="http://www.w3.org/2000/svg"
   xmlns:svg="http://www.w3.org/2000/svg"
   xmlns:rdf="http://www.w3.org/1999/02/22-rdf-syntax-ns#"
   xmlns:cc="http://creativecommons.org/ns#"
   xmlns:dc="http://purl.org/dc/elements/1.1/">
  <defs
     id="defs1823">
    <linearGradient
       inkscape:collect="always"
       id="linearGradient1640">
      <stop
         style="stop-color:#fffffe;stop-opacity:1"
         offset="0"
         id="stop1636" />
      <stop
         style="stop-color:#3471fc;stop-opacity:1"
         offset="1"
         id="stop1638" />
    </linearGradient>
    <linearGradient
       inkscape:collect="always"
       id="linearGradient884">
      <stop
         style="stop-color:#50ceff;stop-opacity:1"
         offset="0"
         id="stop880" />
      <stop
         style="stop-color:#3471fc;stop-opacity:1"
         offset="1"
         id="stop882" />
    </linearGradient>
    <radialGradient
       inkscape:collect="always"
       xlink:href="#linearGradient884"
       id="radialGradient886"
       cx="17.309874"
       cy="2.5295613"
       fx="17.309874"
       fy="2.5295613"
       r="14.54372"
       gradientUnits="userSpaceOnUse"
       gradientTransform="matrix(7.161795,0,0,1.7510995,-106.65989,-1.8999525)" />
    <linearGradient
       id="linearGradient895">
      <stop
         id="stop3335"
         offset="0" />
      <stop
         id="stop3337"
         offset="1"
         stop-opacity="0" />
    </linearGradient>
    <linearGradient
       inkscape:collect="always"
       xlink:href="#linearGradient1640"
       id="linearGradient1642"
       x1="0.66803497"
       y1="16.701048"
       x2="0.66803497"
       y2="103.31388"
       gradientUnits="userSpaceOnUse" />
  </defs>
  <sodipodi:namedview
     id="base"
     pagecolor="#ffffff"
     bordercolor="#666666"
     borderopacity="1.0"
     inkscape:pageopacity="0.0"
     inkscape:pageshadow="2"
     inkscape:zoom="0.70000001"
     inkscape:cx="-378.57143"
     inkscape:cy="205"
     inkscape:document-units="mm"
     inkscape:current-layer="layer1"
     inkscape:document-rotation="0"
     showgrid="false"
     units="px"
     inkscape:window-width="1920"
     inkscape:window-height="1028"
     inkscape:window-x="0"
     inkscape:window-y="24"
     inkscape:window-maximized="1"
     inkscape:pagecheckerboard="0" />
  <metadata
     id="metadata1826">
    <rdf:RDF>
      <cc:Work
         rdf:about="">
        <dc:format>image/svg+xml</dc:format>
        <dc:type
           rdf:resource="http://purl.org/dc/dcmitype/StillImage" />
      </cc:Work>
    </rdf:RDF>
  </metadata>
  <g
     inkscape:label="Capa 1"
     inkscape:groupmode="layer"
     id="layer1">
    <g
       id="g1702"
       transform="matrix(0.97573206,0,0,0.97573206,-65.58674,-37.192363)"
       style="opacity:0.296765">
      <rect
         style="fill:none;fill-opacity:1;stroke:#000000;stroke-width:0.1;stroke-linecap:round;stroke-linejoin:round;stroke-miterlimit:4;stroke-dasharray:none;stroke-opacity:0.02"
         id="rect1634"
         width="29.810888"
         height="29.810888"
         x="69.839508"
         y="40.709618"
         rx="6.6098609"
         ry="6.6098609" />
      <rect
         ry="6.6098609"
         rx="6.6098609"
         y="40.709618"
         x="69.839508"
         height="29.810888"
         width="29.810888"
         id="rect1638"
         style="fill:none;fill-opacity:1;stroke:#000000;stroke-width:0.2;stroke-linecap:round;stroke-linejoin:round;stroke-miterlimit:4;stroke-dasharray:none;stroke-opacity:0.02" />
      <rect
         style="fill:none;fill-opacity:1;stroke:#000000;stroke-width:0.3;stroke-linecap:round;stroke-linejoin:round;stroke-miterlimit:4;stroke-dasharray:none;stroke-opacity:0.02"
         id="rect1640"
         width="29.810888"
         height="29.810888"
         x="69.839508"
         y="40.709618"
         rx="6.6098609"
         ry="6.6098609" />
      <rect
         ry="6.6098609"
         rx="6.6098609"
         y="40.709618"
         x="69.839508"
         height="29.810888"
         width="29.810888"
         id="rect1642"
         style="fill:none;fill-opacity:1;stroke:#000000;stroke-width:0.4;stroke-linecap:round;stroke-linejoin:round;stroke-miterlimit:4;stroke-dasharray:none;stroke-opacity:0.02" />
      <rect
         style="fill:none;fill-opacity:1;stroke:#000000;stroke-width:0.5;stroke-linecap:round;stroke-linejoin:round;stroke-miterlimit:4;stroke-dasharray:none;stroke-opacity:0.02"
         id="rect1644"
         width="29.810888"
         height="29.810888"
         x="69.839508"
         y="40.709618"
         rx="6.6098609"
         ry="6.6098609" />
      <rect
         ry="6.6098609"
         rx="6.6098609"
         y="40.709618"
         x="69.839508"
         height="29.810888"
         width="29.810888"
         id="rect1646"
         style="fill:none;fill-opacity:1;stroke:#000000;stroke-width:0.6;stroke-linecap:round;stroke-linejoin:round;stroke-miterlimit:4;stroke-dasharray:none;stroke-opacity:0.02" />
      <rect
         style="fill:none;fill-opacity:1;stroke:#000000;stroke-width:0.7;stroke-linecap:round;stroke-linejoin:round;stroke-miterlimit:4;stroke-dasharray:none;stroke-opacity:0.02"
         id="rect1648"
         width="29.810888"
         height="29.810888"
         x="69.839508"
         y="40.709618"
         rx="6.6098609"
         ry="6.6098609" />
      <rect
         ry="6.6098609"
         rx="6.6098609"
         y="40.709618"
         x="69.839508"
         height="29.810888"
         width="29.810888"
         id="rect1650"
         style="fill:none;fill-opacity:1;stroke:#000000;stroke-width:0.8;stroke-linecap:round;stroke-linejoin:round;stroke-miterlimit:4;stroke-dasharray:none;stroke-opacity:0.02" />
      <rect
         style="fill:none;fill-opacity:1;stroke:#000000;stroke-width:1;stroke-linecap:round;stroke-linejoin:round;stroke-miterlimit:4;stroke-dasharray:none;stroke-opacity:0.02"
         id="rect1652"
         width="29.810888"
         height="29.810888"
         x="69.839508"
         y="40.709618"
         rx="6.6098609"
         ry="6.6098609" />
      <rect
         ry="6.6098609"
         rx="6.6098609"
         y="40.709618"
         x="69.839508"
         height="29.810888"
         width="29.810888"
         id="rect1654"
         style="fill:none;fill-opacity:1;stroke:#000000;stroke-width:1.2;stroke-linecap:round;stroke-linejoin:round;stroke-miterlimit:4;stroke-dasharray:none;stroke-opacity:0.02" />
      <rect
         style="fill:none;fill-opacity:1;stroke:#000000;stroke-width:1.4;stroke-linecap:round;stroke-linejoin:round;stroke-miterlimit:4;stroke-dasharray:none;stroke-opacity:0.02"
         id="rect1656"
         width="29.810888"
         height="29.810888"
         x="69.839508"
         y="40.709618"
         rx="6.6098609"
         ry="6.6098609" />
      <rect
         ry="6.6098609"
         rx="6.6098609"
         y="40.709618"
         x="69.839508"
         height="29.810888"
         width="29.810888"
         id="rect1658"
         style="fill:none;fill-opacity:1;stroke:#000000;stroke-width:1.6;stroke-linecap:round;stroke-linejoin:round;stroke-miterlimit:4;stroke-dasharray:none;stroke-opacity:0.02" />
      <rect
         style="fill:none;fill-opacity:1;stroke:#000000;stroke-width:1.8;stroke-linecap:round;stroke-linejoin:round;stroke-miterlimit:4;stroke-dasharray:none;stroke-opacity:0.02"
         id="rect1660"
         width="29.810888"
         height="29.810888"
         x="69.839508"
         y="40.709618"
         rx="6.6098609"
         ry="6.6098609" />
      <rect
         ry="6.6098609"
         rx="6.6098609"
         y="40.709618"
         x="69.839508"
         height="29.810888"
         width="29.810888"
         id="rect1662"
         style="fill:none;fill-opacity:1;stroke:#000000;stroke-width:2;stroke-linecap:round;stroke-linejoin:round;stroke-miterlimit:4;stroke-dasharray:none;stroke-opacity:0.02" />
      <rect
         style="fill:none;fill-opacity:1;stroke:#000000;stroke-width:2.2;stroke-linecap:round;stroke-linejoin:round;stroke-miterlimit:4;stroke-dasharray:none;stroke-opacity:0.02"
         id="rect1664"
         width="29.810888"
         height="29.810888"
         x="69.839508"
         y="40.709618"
         rx="6.6098609"
         ry="6.6098609" />
      <rect
         ry="6.6098609"
         rx="6.6098609"
         y="40.709618"
         x="69.839508"
         height="29.810888"
         width="29.810888"
         id="rect1666"
         style="fill:none;fill-opacity:1;stroke:#000000;stroke-width:2.6;stroke-linecap:round;stroke-linejoin:round;stroke-miterlimit:4;stroke-dasharray:none;stroke-opacity:0.02" />
      <rect
         style="fill:none;fill-opacity:1;stroke:#000000;stroke-width:3;stroke-linecap:round;stroke-linejoin:round;stroke-miterlimit:4;stroke-dasharray:none;stroke-opacity:0.02"
         id="rect1668"
         width="29.810888"
         height="29.810888"
         x="69.839508"
         y="40.709618"
         rx="6.6098609"
         ry="6.6098609" />
      <rect
         ry="6.6098609"
         rx="6.6098609"
         y="40.709618"
         x="69.839508"
         height="29.810888"
         width="29.810888"
         id="rect1670"
         style="fill:none;fill-opacity:1;stroke:#000000;stroke-width:3.4;stroke-linecap:round;stroke-linejoin:round;stroke-miterlimit:4;stroke-dasharray:none;stroke-opacity:0.02" />
      <rect
         style="fill:none;fill-opacity:1;stroke:#000000;stroke-width:3.8;stroke-linecap:round;stroke-linejoin:round;stroke-miterlimit:4;stroke-dasharray:none;stroke-opacity:0.02"
         id="rect1672"
         width="29.810888"
         height="29.810888"
         x="69.839508"
         y="40.709618"
         rx="6.6098609"
         ry="6.6098609" />
      <rect
         ry="6.6098609"
         rx="6.6098609"
         y="40.709618"
         x="69.839508"
         height="29.810888"
         width="29.810888"
         id="rect1674"
         style="fill:none;fill-opacity:1;stroke:#000000;stroke-width:4.2;stroke-linecap:round;stroke-linejoin:round;stroke-miterlimit:4;stroke-dasharray:none;stroke-opacity:0.02" />
      <rect
         style="fill:none;fill-opacity:1;stroke:#000000;stroke-width:4.6;stroke-linecap:round;stroke-linejoin:round;stroke-miterlimit:4;stroke-dasharray:none;stroke-opacity:0.02"
         id="rect1676"
         width="29.810888"
         height="29.810888"
         x="69.839508"
         y="40.709618"
         rx="6.6098609"
         ry="6.6098609" />
      <rect
         ry="6.6098609"
         rx="6.6098609"
         y="40.709618"
         x="69.839508"
         height="29.810888"
         width="29.810888"
         id="rect1678"
         style="fill:none;fill-opacity:1;stroke:#000000;stroke-width:5;stroke-linecap:round;stroke-linejoin:round;stroke-miterlimit:4;stroke-dasharray:none;stroke-opacity:0.02" />
    </g>
    <rect
       style="fill:url(#radialGradient886);fill-opacity:1;stroke-width:2.68769;stroke-linecap:round;stroke-linejoin:round"
       id="rect849-5"
       width="29.08744"
       height="29.08744"
       x="2.5579116"
       y="2.5293181"
       rx="6.4494534"
       ry="6.4494534" />
    <g
       fill="none"
       stroke="#ffffff"
       stroke-width="4"
       id="g3117"
       transform="matrix(0.53130114,0,0,0.53130114,8.4604671,6.2963997)"
       style="fill:#0300bb;fill-opacity:0.04881408;stroke:none">
      <path
         id="path3115"
         style="color:#000000;fill:#0300bb;fill-opacity:0.04881408;stroke:none;stroke-width:4;stroke-linecap:round;stroke-linejoin:round;-inkscape-stroke:none"
         d="M 9.9135921,10.876975 A 2.3117112,2.3117112 0 0 0 7.7202906,12.457514 L 0.78731825,33.24476 A 2.31148,2.31148 0 0 0 2.2482225,36.170458 2.31148,2.31148 0 0 0 5.1719756,34.707609 L 9.9135921,20.494432 14.656181,34.707609 a 2.31148,2.31148 0 0 0 2.923753,1.462849 2.31148,2.31148 0 0 0 1.460905,-2.925698 L 12.106893,12.457514 A 2.3117112,2.3117112 0 0 0 9.9135921,10.876975 Z m 27.7386989,0 a 2.31148,2.31148 0 0 0 -2.312937,2.310991 v 20.789191 a 2.31148,2.31148 0 0 0 2.312937,2.310018 2.31148,2.31148 0 0 0 2.310017,-2.310018 V 13.187966 a 2.31148,2.31148 0 0 0 -2.310017,-2.310991 z m -21.029434,0.01167 a 2.31148,2.31148 0 0 0 -0.505772,0.107963 2.31148,2.31148 0 0 0 -1.460904,2.921808 l 6.933945,20.81837 a 2.3117112,2.3117112 0 0 0 4.386603,0 l 6.932972,-20.81837 a 2.31148,2.31148 0 0 0 -1.462849,-2.921808 2.31148,2.31148 0 0 0 -2.923754,1.460904 L 23.783427,26.692089 19.040839,12.457514 a 2.31148,2.31148 0 0 0 -2.417982,-1.568867 z" />
    </g>
    <g
       fill="none"
       stroke="#ffffff"
       stroke-width="4"
       id="g15"
       transform="matrix(0.53130114,0,0,0.53130114,6.3081581,4.535632)"
       style="stroke:none;fill-opacity:1;fill:url(#linearGradient1642)">
      <path
         id="path9"
         style="color:#000000;fill:url(#linearGradient1642);stroke:none;stroke-width:4;stroke-linecap:round;stroke-linejoin:round;-inkscape-stroke:none;fill-opacity:1"
         d="M 9.9135921,10.876975 A 2.3117112,2.3117112 0 0 0 7.7202906,12.457514 L 0.78731825,33.24476 A 2.31148,2.31148 0 0 0 2.2482225,36.170458 2.31148,2.31148 0 0 0 5.1719756,34.707609 L 9.9135921,20.494432 14.656181,34.707609 a 2.31148,2.31148 0 0 0 2.923753,1.462849 2.31148,2.31148 0 0 0 1.460905,-2.925698 L 12.106893,12.457514 A 2.3117112,2.3117112 0 0 0 9.9135921,10.876975 Z m 27.7386989,0 a 2.31148,2.31148 0 0 0 -2.312937,2.310991 v 20.789191 a 2.31148,2.31148 0 0 0 2.312937,2.310018 2.31148,2.31148 0 0 0 2.310017,-2.310018 V 13.187966 a 2.31148,2.31148 0 0 0 -2.310017,-2.310991 z m -21.029434,0.01167 a 2.31148,2.31148 0 0 0 -0.505772,0.107963 2.31148,2.31148 0 0 0 -1.460904,2.921808 l 6.933945,20.81837 a 2.3117112,2.3117112 0 0 0 4.386603,0 l 6.932972,-20.81837 a 2.31148,2.31148 0 0 0 -1.462849,-2.921808 2.31148,2.31148 0 0 0 -2.923754,1.460904 L 23.783427,26.692089 19.040839,12.457514 a 2.31148,2.31148 0 0 0 -2.417982,-1.568867 z" />
    </g>
    <g
       fill="none"
       stroke="#ffffff"
       stroke-width="4"
       id="g2915"
       transform="matrix(0.53130114,0,0,0.53130114,7.691959,5.9719585)"
       style="fill:#0300bb;fill-opacity:0.0471376;stroke:none">
      <path
         id="path2913"
         style="color:#000000;fill:#0300bb;fill-opacity:0.0471376;stroke:none;stroke-width:4;stroke-linecap:round;stroke-linejoin:round;-inkscape-stroke:none"
         d="M 9.9135921,10.876975 A 2.3117112,2.3117112 0 0 0 7.7202906,12.457514 L 0.78731825,33.24476 A 2.31148,2.31148 0 0 0 2.2482225,36.170458 2.31148,2.31148 0 0 0 5.1719756,34.707609 L 9.9135921,20.494432 14.656181,34.707609 a 2.31148,2.31148 0 0 0 2.923753,1.462849 2.31148,2.31148 0 0 0 1.460905,-2.925698 L 12.106893,12.457514 A 2.3117112,2.3117112 0 0 0 9.9135921,10.876975 Z m 27.7386989,0 a 2.31148,2.31148 0 0 0 -2.312937,2.310991 v 20.789191 a 2.31148,2.31148 0 0 0 2.312937,2.310018 2.31148,2.31148 0 0 0 2.310017,-2.310018 V 13.187966 a 2.31148,2.31148 0 0 0 -2.310017,-2.310991 z m -21.029434,0.01167 a 2.31148,2.31148 0 0 0 -0.505772,0.107963 2.31148,2.31148 0 0 0 -1.460904,2.921808 l 6.933945,20.81837 a 2.3117112,2.3117112 0 0 0 4.386603,0 l 6.932972,-20.81837 a 2.31148,2.31148 0 0 0 -1.462849,-2.921808 2.31148,2.31148 0 0 0 -2.923754,1.460904 L 23.783427,26.692089 19.040839,12.457514 a 2.31148,2.31148 0 0 0 -2.417982,-1.568867 z" />
    </g>
  </g>
</svg>
