<?xml version="1.0" encoding="UTF-8" standalone="no"?>
<svg
   width="128"
   height="128"
   viewBox="0 0 33.866666 33.866668"
   version="1.1"
   id="svg1443"
   inkscape:version="1.1.2 (0a00cf5339, 2022-02-04)"
   sodipodi:docname="basingstoke.svg"
   xmlns:inkscape="http://www.inkscape.org/namespaces/inkscape"
   xmlns:sodipodi="http://sodipodi.sourceforge.net/DTD/sodipodi-0.dtd"
   xmlns:xlink="http://www.w3.org/1999/xlink"
   xmlns="http://www.w3.org/2000/svg"
   xmlns:svg="http://www.w3.org/2000/svg"
   xmlns:rdf="http://www.w3.org/1999/02/22-rdf-syntax-ns#"
   xmlns:cc="http://creativecommons.org/ns#"
   xmlns:dc="http://purl.org/dc/elements/1.1/">
  <defs
     id="defs1437">
    <linearGradient
       inkscape:collect="always"
       id="linearGradient1466">
      <stop
         style="stop-color:#fffbfc;stop-opacity:1;"
         offset="0"
         id="stop1462" />
      <stop
         style="stop-color:#1f78ff;stop-opacity:1"
         offset="1"
         id="stop1464" />
    </linearGradient>
    <linearGradient
       inkscape:collect="always"
       id="linearGradient1997">
      <stop
         style="stop-color:#34d7ee;stop-opacity:1"
         offset="0"
         id="stop1993" />
      <stop
         style="stop-color:#1f76ff;stop-opacity:1"
         offset="1"
         id="stop1995" />
    </linearGradient>
    <filter
       color-interpolation-filters="sRGB"
       height="1.1311001"
       width="1.1106"
       y="-0.065563001"
       x="-0.055319"
       id="c-9">
      <feGaussianBlur
         id="feGaussianBlur1093"
         stdDeviation="1.1062912" />
    </filter>
    <linearGradient
       gradientUnits="userSpaceOnUse"
       gradientTransform="matrix(0.13235,0,0,0.13075,-32.379,1.0873)"
       y2="269.48999"
       y1="235.14999"
       x2="657.65002"
       x1="319.20999"
       id="a-12">
      <stop
         id="stop1076"
         offset="0"
         stop-color="#e54c18" />
      <stop
         id="stop1078"
         offset="1"
         stop-color="#fec350" />
    </linearGradient>
    <radialGradient
       inkscape:collect="always"
       xlink:href="#linearGradient1997"
       id="radialGradient1999"
       cx="17.076008"
       cy="4.6282434"
       fx="17.076008"
       fy="4.6282434"
       r="14.543719"
       gradientUnits="userSpaceOnUse"
       gradientTransform="matrix(4.7283357,0,0,1.6998039,-63.506476,-2.7937172)" />
    <linearGradient
       inkscape:collect="always"
       xlink:href="#linearGradient1466"
       id="linearGradient1468"
       x1="7.3712673"
       y1="6.5269594"
       x2="7.3712673"
       y2="56.628086"
       gradientUnits="userSpaceOnUse"
       gradientTransform="translate(-1.5111837,0.78479911)" />
  </defs>
  <sodipodi:namedview
     id="base"
     pagecolor="#ffffff"
     bordercolor="#666666"
     borderopacity="1.0"
     inkscape:pageopacity="0.0"
     inkscape:pageshadow="2"
     inkscape:zoom="4.1484375"
     inkscape:cx="18.561205"
     inkscape:cy="117.99623"
     inkscape:document-units="mm"
     inkscape:current-layer="layer1"
     inkscape:document-rotation="0"
     showgrid="false"
     units="px"
     inkscape:window-width="1920"
     inkscape:window-height="1028"
     inkscape:window-x="0"
     inkscape:window-y="24"
     inkscape:window-maximized="1"
     inkscape:pagecheckerboard="0" />
  <metadata
     id="metadata1440">
    <rdf:RDF>
      <cc:Work
         rdf:about="">
        <dc:format>image/svg+xml</dc:format>
        <dc:type
           rdf:resource="http://purl.org/dc/dcmitype/StillImage" />
      </cc:Work>
    </rdf:RDF>
  </metadata>
  <g
     inkscape:label="Capa 1"
     inkscape:groupmode="layer"
     id="layer1">
    <g
       style="opacity:0.18753551"
       transform="matrix(0.97573206,0,0,0.96360993,-65.737228,-36.327649)"
       id="g1702">
      <rect
         ry="6.6098609"
         rx="6.6098609"
         y="40.709618"
         x="69.839508"
         height="29.810888"
         width="29.810888"
         id="rect1634"
         style="fill:none;fill-opacity:1;stroke:#000000;stroke-width:0.1;stroke-linecap:round;stroke-linejoin:round;stroke-miterlimit:4;stroke-dasharray:none;stroke-opacity:0.02" />
      <rect
         style="fill:none;fill-opacity:1;stroke:#000000;stroke-width:0.2;stroke-linecap:round;stroke-linejoin:round;stroke-miterlimit:4;stroke-dasharray:none;stroke-opacity:0.02"
         id="rect1638"
         width="29.810888"
         height="29.810888"
         x="69.839508"
         y="40.709618"
         rx="6.6098609"
         ry="6.6098609" />
      <rect
         ry="6.6098609"
         rx="6.6098609"
         y="40.709618"
         x="69.839508"
         height="29.810888"
         width="29.810888"
         id="rect1640"
         style="fill:none;fill-opacity:1;stroke:#000000;stroke-width:0.3;stroke-linecap:round;stroke-linejoin:round;stroke-miterlimit:4;stroke-dasharray:none;stroke-opacity:0.02" />
      <rect
         style="fill:none;fill-opacity:1;stroke:#000000;stroke-width:0.4;stroke-linecap:round;stroke-linejoin:round;stroke-miterlimit:4;stroke-dasharray:none;stroke-opacity:0.02"
         id="rect1642"
         width="29.810888"
         height="29.810888"
         x="69.839508"
         y="40.709618"
         rx="6.6098609"
         ry="6.6098609" />
      <rect
         ry="6.6098609"
         rx="6.6098609"
         y="40.709618"
         x="69.839508"
         height="29.810888"
         width="29.810888"
         id="rect1644"
         style="fill:none;fill-opacity:1;stroke:#000000;stroke-width:0.5;stroke-linecap:round;stroke-linejoin:round;stroke-miterlimit:4;stroke-dasharray:none;stroke-opacity:0.02" />
      <rect
         style="fill:none;fill-opacity:1;stroke:#000000;stroke-width:0.6;stroke-linecap:round;stroke-linejoin:round;stroke-miterlimit:4;stroke-dasharray:none;stroke-opacity:0.02"
         id="rect1646"
         width="29.810888"
         height="29.810888"
         x="69.839508"
         y="40.709618"
         rx="6.6098609"
         ry="6.6098609" />
      <rect
         ry="6.6098609"
         rx="6.6098609"
         y="40.709618"
         x="69.839508"
         height="29.810888"
         width="29.810888"
         id="rect1648"
         style="fill:none;fill-opacity:1;stroke:#000000;stroke-width:0.7;stroke-linecap:round;stroke-linejoin:round;stroke-miterlimit:4;stroke-dasharray:none;stroke-opacity:0.02" />
      <rect
         style="fill:none;fill-opacity:1;stroke:#000000;stroke-width:0.8;stroke-linecap:round;stroke-linejoin:round;stroke-miterlimit:4;stroke-dasharray:none;stroke-opacity:0.02"
         id="rect1650"
         width="29.810888"
         height="29.810888"
         x="69.839508"
         y="40.709618"
         rx="6.6098609"
         ry="6.6098609" />
      <rect
         ry="6.6098609"
         rx="6.6098609"
         y="40.709618"
         x="69.839508"
         height="29.810888"
         width="29.810888"
         id="rect1652"
         style="fill:none;fill-opacity:1;stroke:#000000;stroke-width:1;stroke-linecap:round;stroke-linejoin:round;stroke-miterlimit:4;stroke-dasharray:none;stroke-opacity:0.02" />
      <rect
         style="fill:none;fill-opacity:1;stroke:#000000;stroke-width:1.2;stroke-linecap:round;stroke-linejoin:round;stroke-miterlimit:4;stroke-dasharray:none;stroke-opacity:0.02"
         id="rect1654"
         width="29.810888"
         height="29.810888"
         x="69.839508"
         y="40.709618"
         rx="6.6098609"
         ry="6.6098609" />
      <rect
         ry="6.6098609"
         rx="6.6098609"
         y="40.709618"
         x="69.839508"
         height="29.810888"
         width="29.810888"
         id="rect1656"
         style="fill:none;fill-opacity:1;stroke:#000000;stroke-width:1.4;stroke-linecap:round;stroke-linejoin:round;stroke-miterlimit:4;stroke-dasharray:none;stroke-opacity:0.02" />
      <rect
         style="fill:none;fill-opacity:1;stroke:#000000;stroke-width:1.6;stroke-linecap:round;stroke-linejoin:round;stroke-miterlimit:4;stroke-dasharray:none;stroke-opacity:0.02"
         id="rect1658"
         width="29.810888"
         height="29.810888"
         x="69.839508"
         y="40.709618"
         rx="6.6098609"
         ry="6.6098609" />
      <rect
         ry="6.6098609"
         rx="6.6098609"
         y="40.709618"
         x="69.839508"
         height="29.810888"
         width="29.810888"
         id="rect1660"
         style="fill:none;fill-opacity:1;stroke:#000000;stroke-width:1.8;stroke-linecap:round;stroke-linejoin:round;stroke-miterlimit:4;stroke-dasharray:none;stroke-opacity:0.02" />
      <rect
         style="fill:none;fill-opacity:1;stroke:#000000;stroke-width:2;stroke-linecap:round;stroke-linejoin:round;stroke-miterlimit:4;stroke-dasharray:none;stroke-opacity:0.02"
         id="rect1662"
         width="29.810888"
         height="29.810888"
         x="69.839508"
         y="40.709618"
         rx="6.6098609"
         ry="6.6098609" />
      <rect
         ry="6.6098609"
         rx="6.6098609"
         y="40.709618"
         x="69.839508"
         height="29.810888"
         width="29.810888"
         id="rect1664"
         style="fill:none;fill-opacity:1;stroke:#000000;stroke-width:2.2;stroke-linecap:round;stroke-linejoin:round;stroke-miterlimit:4;stroke-dasharray:none;stroke-opacity:0.02" />
      <rect
         style="fill:none;fill-opacity:1;stroke:#000000;stroke-width:2.6;stroke-linecap:round;stroke-linejoin:round;stroke-miterlimit:4;stroke-dasharray:none;stroke-opacity:0.02"
         id="rect1666"
         width="29.810888"
         height="29.810888"
         x="69.839508"
         y="40.709618"
         rx="6.6098609"
         ry="6.6098609" />
      <rect
         ry="6.6098609"
         rx="6.6098609"
         y="40.709618"
         x="69.839508"
         height="29.810888"
         width="29.810888"
         id="rect1668"
         style="fill:none;fill-opacity:1;stroke:#000000;stroke-width:3;stroke-linecap:round;stroke-linejoin:round;stroke-miterlimit:4;stroke-dasharray:none;stroke-opacity:0.02" />
      <rect
         style="fill:none;fill-opacity:1;stroke:#000000;stroke-width:3.4;stroke-linecap:round;stroke-linejoin:round;stroke-miterlimit:4;stroke-dasharray:none;stroke-opacity:0.02"
         id="rect1670"
         width="29.810888"
         height="29.810888"
         x="69.839508"
         y="40.709618"
         rx="6.6098609"
         ry="6.6098609" />
      <rect
         ry="6.6098609"
         rx="6.6098609"
         y="40.709618"
         x="69.839508"
         height="29.810888"
         width="29.810888"
         id="rect1672"
         style="fill:none;fill-opacity:1;stroke:#000000;stroke-width:3.8;stroke-linecap:round;stroke-linejoin:round;stroke-miterlimit:4;stroke-dasharray:none;stroke-opacity:0.02" />
      <rect
         style="fill:none;fill-opacity:1;stroke:#000000;stroke-width:4.2;stroke-linecap:round;stroke-linejoin:round;stroke-miterlimit:4;stroke-dasharray:none;stroke-opacity:0.02"
         id="rect1674"
         width="29.810888"
         height="29.810888"
         x="69.839508"
         y="40.709618"
         rx="6.6098609"
         ry="6.6098609" />
      <rect
         ry="6.6098609"
         rx="6.6098609"
         y="40.709618"
         x="69.839508"
         height="29.810888"
         width="29.810888"
         id="rect1676"
         style="fill:none;fill-opacity:1;stroke:#000000;stroke-width:4.6;stroke-linecap:round;stroke-linejoin:round;stroke-miterlimit:4;stroke-dasharray:none;stroke-opacity:0.02" />
      <rect
         style="fill:none;fill-opacity:1;stroke:#000000;stroke-width:5;stroke-linecap:round;stroke-linejoin:round;stroke-miterlimit:4;stroke-dasharray:none;stroke-opacity:0.02"
         id="rect1678"
         width="29.810888"
         height="29.810888"
         x="69.839508"
         y="40.709618"
         rx="6.6098609"
         ry="6.6098609" />
    </g>
    <rect
       ry="6.4494534"
       rx="6.4494534"
       y="2.5391712"
       x="2.4074187"
       height="29.087439"
       width="29.087439"
       id="rect849"
       style="fill:url(#radialGradient1999);fill-opacity:1;stroke-width:2.68768;stroke-linecap:round;stroke-linejoin:round" />
    <g
       id="g2695"
       style="opacity:0.63817766">
      <path
         id="path2575"
         style="opacity:1;fill:#000d43;fill-opacity:0.04744926;stroke:none;stroke-width:5.29167;stroke-linecap:round;stroke-linejoin:round"
         d="m 10.641231,8.3275377 c -2.4018912,0 -4.3351352,1.9337613 -4.3351352,4.3356523 v 2.664437 0.110588 3.036506 c 0,1.476066 1.187855,2.664437 2.6639196,2.664437 h 2.7486686 v 3.411678 c 0,1.070321 0.861861,1.932181 1.932182,1.932181 h 7.492566 c 1.070321,0 1.932182,-0.86186 1.932182,-1.932181 v -3.411678 h 2.748152 c 1.476065,0 2.664438,-1.188371 2.664438,-2.664437 V 15.438215 15.327627 12.66319 c 0,-2.401891 -1.933763,-4.3356523 -4.335653,-4.3356523 z m 1.143599,4.5583783 a 3.2638865,3.2638865 0 0 1 3.263884,3.263883 3.2638865,3.2638865 0 0 1 -3.263884,3.263883 3.2638865,3.2638865 0 0 1 -3.2638822,-3.263883 3.2638865,3.2638865 0 0 1 3.2638822,-3.263883 z m 11.224638,0 a 3.2638865,3.2638865 0 0 1 3.263883,3.263883 3.2638865,3.2638865 0 0 1 -3.263883,3.263883 3.2638865,3.2638865 0 0 1 -3.263883,-3.263883 3.2638865,3.2638865 0 0 1 3.263883,-3.263883 z" />
      <path
         id="path2685"
         style="opacity:1;fill:#000d43;fill-opacity:0.0474493;stroke:none;stroke-width:5.29167;stroke-linecap:round;stroke-linejoin:round"
         d="m 12.764618,10.388139 c -2.401892,0 -4.3351358,1.933761 -4.3351358,4.335652 v 2.664437 0.110588 3.036506 c 0,1.476066 1.187855,2.664437 2.6639198,2.664437 h 2.748669 v 3.411678 c 0,1.070321 0.861861,1.932181 1.932182,1.932181 h 7.492566 c 1.070321,0 1.932182,-0.86186 1.932182,-1.932181 v -3.411678 h 2.748152 c 1.476065,0 2.664438,-1.188371 2.664438,-2.664437 v -3.036506 -0.110588 -2.664437 c 0,-2.401891 -1.933763,-4.335652 -4.335653,-4.335652 z m 1.143599,4.558378 a 3.2638865,3.2638865 0 0 1 3.263884,3.263883 3.2638865,3.2638865 0 0 1 -3.263884,3.263883 3.2638865,3.2638865 0 0 1 -3.263883,-3.263883 3.2638865,3.2638865 0 0 1 3.263883,-3.263883 z m 11.224638,0 a 3.2638865,3.2638865 0 0 1 3.263883,3.263883 3.2638865,3.2638865 0 0 1 -3.263883,3.263883 3.2638865,3.2638865 0 0 1 -3.263883,-3.263883 3.2638865,3.2638865 0 0 1 3.263883,-3.263883 z" />
      <path
         id="path2687"
         style="opacity:1;fill:#000d43;fill-opacity:0.0474493;stroke:none;stroke-width:5.29167;stroke-linecap:round;stroke-linejoin:round"
         d="m 11.509149,9.1057223 c -2.4018915,0 -4.3351355,1.9337617 -4.3351355,4.3356527 v 2.664437 0.110588 3.036506 c 0,1.476066 1.187855,2.664437 2.6639196,2.664437 h 2.7486689 v 3.411678 c 0,1.070321 0.861861,1.932181 1.932182,1.932181 h 7.492566 c 1.070321,0 1.932182,-0.86186 1.932182,-1.932181 v -3.411678 h 2.748152 c 1.476065,0 2.664438,-1.188371 2.664438,-2.664437 V 16.2164 16.105812 13.441375 c 0,-2.401891 -1.933763,-4.3356527 -4.335653,-4.3356527 z m 1.143599,4.5583787 a 3.2638865,3.2638865 0 0 1 3.263884,3.263883 3.2638865,3.2638865 0 0 1 -3.263884,3.263883 3.2638865,3.2638865 0 0 1 -3.2638825,-3.263883 3.2638865,3.2638865 0 0 1 3.2638825,-3.263883 z m 11.224638,0 a 3.2638865,3.2638865 0 0 1 3.263883,3.263883 3.2638865,3.2638865 0 0 1 -3.263883,3.263883 3.2638865,3.2638865 0 0 1 -3.263883,-3.263883 3.2638865,3.2638865 0 0 1 3.263883,-3.263883 z" />
      <path
         id="path2689"
         style="opacity:1;fill:#000d43;fill-opacity:0.0474493;stroke:none;stroke-width:5.29167;stroke-linecap:round;stroke-linejoin:round"
         d="m 11.509149,9.1057223 c -2.4018915,0 -4.3351355,1.9337617 -4.3351355,4.3356527 v 2.664437 0.110588 3.036506 c 0,1.476066 1.187855,2.664437 2.6639196,2.664437 h 2.7486689 v 3.411678 c 0,1.070321 0.861861,1.932181 1.932182,1.932181 h 7.492566 c 1.070321,0 1.932182,-0.86186 1.932182,-1.932181 v -3.411678 h 2.748152 c 1.476065,0 2.664438,-1.188371 2.664438,-2.664437 V 16.2164 16.105812 13.441375 c 0,-2.401891 -1.933763,-4.3356527 -4.335653,-4.3356527 z m 1.143599,4.5583787 a 3.2638865,3.2638865 0 0 1 3.263884,3.263883 3.2638865,3.2638865 0 0 1 -3.263884,3.263883 3.2638865,3.2638865 0 0 1 -3.2638825,-3.263883 3.2638865,3.2638865 0 0 1 3.2638825,-3.263883 z m 11.224638,0 a 3.2638865,3.2638865 0 0 1 3.263883,3.263883 3.2638865,3.2638865 0 0 1 -3.263883,3.263883 3.2638865,3.2638865 0 0 1 -3.263883,-3.263883 3.2638865,3.2638865 0 0 1 3.263883,-3.263883 z" />
    </g>
    <path
       id="rect975"
       style="opacity:1;fill:url(#linearGradient1468);fill-opacity:1;stroke:none;stroke-width:5.29167;stroke-linecap:round;stroke-linejoin:round"
       d="m 10.195219,8.0051509 c -2.4018913,0 -4.3351353,1.9337615 -4.3351353,4.3356521 v 2.664437 0.110588 3.036506 c 0,1.476066 1.187855,2.664437 2.6639196,2.664437 h 2.7486687 v 3.411678 c 0,1.070321 0.861861,1.932181 1.932182,1.932181 h 7.492566 c 1.070321,0 1.932182,-0.86186 1.932182,-1.932181 v -3.411678 h 2.748152 c 1.476065,0 2.664438,-1.188371 2.664438,-2.664437 V 15.115828 15.00524 12.340803 c 0,-2.4018906 -1.933763,-4.3356521 -4.335653,-4.3356521 z m 1.143599,4.5583781 a 3.2638865,3.2638865 0 0 1 3.263884,3.263883 3.2638865,3.2638865 0 0 1 -3.263884,3.263883 3.2638865,3.2638865 0 0 1 -3.2638823,-3.263883 3.2638865,3.2638865 0 0 1 3.2638823,-3.263883 z m 11.224638,0 a 3.2638865,3.2638865 0 0 1 3.263883,3.263883 3.2638865,3.2638865 0 0 1 -3.263883,3.263883 3.2638865,3.2638865 0 0 1 -3.263883,-3.263883 3.2638865,3.2638865 0 0 1 3.263883,-3.263883 z" />
    <path
       id="path2751"
       style="opacity:1;fill:#1f76ff;fill-opacity:0.106186;stroke:none;stroke-width:20;stroke-linecap:round;stroke-linejoin:round"
       d="m 101.16602,35.013672 c 1.72457,2.595814 2.72851,5.714976 2.72851,9.078125 v 10.070312 0.417969 11.476563 c 0,5.578832 -4.491483,10.070312 -10.070311,10.070312 H 83.4375 v 12.894531 c 0,4.045308 -3.257427,7.302735 -7.302734,7.302735 h -28.31836 c -1.681034,0 -3.225316,-0.563926 -4.457031,-1.511719 1.19018,2.410981 3.6688,4.0625 6.548828,4.0625 h 28.318359 c 4.045308,0 7.302735,-3.257427 7.302735,-7.302734 V 78.677734 h 10.386719 c 5.578824,0 10.070314,-4.49148 10.070314,-10.070312 V 57.130859 56.712891 46.642578 c 0,-4.554952 -1.83999,-8.664582 -4.82031,-11.628906 z m -60.402348,9.919922 c -6.812948,6e-6 -12.335931,5.522989 -12.335938,12.335937 0.0077,3.4175 1.432856,6.67865 3.935547,9.00586 -1.1995,-1.939876 -1.837718,-4.174316 -1.84375,-6.455079 7e-6,-6.812948 5.52299,-12.335931 12.335938,-12.335937 3.120534,0.0076 6.122244,1.197511 8.40039,3.330078 -2.240077,-3.648026 -6.211301,-5.873892 -10.492187,-5.880859 z m 42.423828,0 c -6.812948,6e-6 -12.335931,5.522989 -12.335938,12.335937 0.0077,3.4175 1.432856,6.67865 3.935547,9.00586 -1.1995,-1.939876 -1.837718,-4.174316 -1.84375,-6.455079 7e-6,-6.812948 5.52299,-12.335931 12.335938,-12.335937 3.120535,0.0076 6.122244,1.197511 8.400391,3.330078 C 91.439611,47.166427 87.468387,44.94056 83.1875,44.933594 Z M 23.488281,73.638672 c 1.735515,3.015052 4.985885,5.039062 8.728516,5.039062 l 10.388578,-1.73e-4 -2.091703,-2.550608 H 30.125 c -2.547945,0 -4.867137,-0.938822 -6.636719,-2.488281 z"
       transform="scale(0.26458333)"
       sodipodi:nodetypes="csccsscssscssscssccsccccccccccccccccsccsc" />
  </g>
</svg>
