<?xml version="1.0" encoding="UTF-8" standalone="no"?>
<svg
   width="128"
   height="128"
   viewBox="0 0 33.866666 33.866668"
   version="1.1"
   id="svg2117"
   inkscape:version="1.1.2 (0a00cf5339, 2022-02-04)"
   sodipodi:docname="basilisk2.svg"
   xmlns:inkscape="http://www.inkscape.org/namespaces/inkscape"
   xmlns:sodipodi="http://sodipodi.sourceforge.net/DTD/sodipodi-0.dtd"
   xmlns:xlink="http://www.w3.org/1999/xlink"
   xmlns="http://www.w3.org/2000/svg"
   xmlns:svg="http://www.w3.org/2000/svg"
   xmlns:rdf="http://www.w3.org/1999/02/22-rdf-syntax-ns#"
   xmlns:cc="http://creativecommons.org/ns#"
   xmlns:dc="http://purl.org/dc/elements/1.1/">
  <defs
     id="defs2111">
    <linearGradient
       inkscape:collect="always"
       xlink:href="#linearGradient1630"
       id="linearGradient912"
       gradientUnits="userSpaceOnUse"
       gradientTransform="matrix(0.97573207,0,0,0.97573207,-111.88908,-37.234129)"
       x1="132.21078"
       y1="42.151531"
       x2="132.21078"
       y2="70.679932" />
    <linearGradient
       id="linearGradient1630"
       inkscape:collect="always">
      <stop
         id="stop1626"
         offset="0"
         style="stop-color:#f8fcfc;stop-opacity:1;" />
      <stop
         id="stop1628"
         offset="1"
         style="stop-color:#e3e5e8;stop-opacity:1" />
    </linearGradient>
    <linearGradient
       id="linearGradient895">
      <stop
         id="stop3335"
         offset="0" />
      <stop
         id="stop3337"
         offset="1"
         stop-opacity="0" />
    </linearGradient>
  </defs>
  <sodipodi:namedview
     id="base"
     pagecolor="#ffffff"
     bordercolor="#666666"
     borderopacity="1.0"
     inkscape:pageopacity="0.0"
     inkscape:pageshadow="2"
     inkscape:zoom="3.959798"
     inkscape:cx="-6.3134534"
     inkscape:cy="72.099637"
     inkscape:document-units="mm"
     inkscape:current-layer="layer1"
     inkscape:document-rotation="0"
     showgrid="false"
     units="px"
     inkscape:window-width="1920"
     inkscape:window-height="1030"
     inkscape:window-x="0"
     inkscape:window-y="24"
     inkscape:window-maximized="1"
     showguides="true"
     inkscape:guide-bbox="true"
     inkscape:pagecheckerboard="0" />
  <metadata
     id="metadata2114">
    <rdf:RDF>
      <cc:Work
         rdf:about="">
        <dc:format>image/svg+xml</dc:format>
        <dc:type
           rdf:resource="http://purl.org/dc/dcmitype/StillImage" />
      </cc:Work>
    </rdf:RDF>
  </metadata>
  <g
     inkscape:label="Capa 1"
     inkscape:groupmode="layer"
     id="layer1">
    <g
       style="opacity:0.139618"
       transform="matrix(0.97573206,0,0,0.97573206,-65.829986,-36.914633)"
       id="g1702">
      <rect
         ry="6.6098609"
         rx="6.6098609"
         y="40.709618"
         x="69.839508"
         height="29.810888"
         width="29.810888"
         id="rect1634"
         style="fill:none;fill-opacity:1;stroke:#000000;stroke-width:0.1;stroke-linecap:round;stroke-linejoin:round;stroke-miterlimit:4;stroke-dasharray:none;stroke-opacity:0.02" />
      <rect
         style="fill:none;fill-opacity:1;stroke:#000000;stroke-width:0.2;stroke-linecap:round;stroke-linejoin:round;stroke-miterlimit:4;stroke-dasharray:none;stroke-opacity:0.02"
         id="rect1638"
         width="29.810888"
         height="29.810888"
         x="69.839508"
         y="40.709618"
         rx="6.6098609"
         ry="6.6098609" />
      <rect
         ry="6.6098609"
         rx="6.6098609"
         y="40.709618"
         x="69.839508"
         height="29.810888"
         width="29.810888"
         id="rect1640"
         style="fill:none;fill-opacity:1;stroke:#000000;stroke-width:0.3;stroke-linecap:round;stroke-linejoin:round;stroke-miterlimit:4;stroke-dasharray:none;stroke-opacity:0.02" />
      <rect
         style="fill:none;fill-opacity:1;stroke:#000000;stroke-width:0.4;stroke-linecap:round;stroke-linejoin:round;stroke-miterlimit:4;stroke-dasharray:none;stroke-opacity:0.02"
         id="rect1642"
         width="29.810888"
         height="29.810888"
         x="69.839508"
         y="40.709618"
         rx="6.6098609"
         ry="6.6098609" />
      <rect
         ry="6.6098609"
         rx="6.6098609"
         y="40.709618"
         x="69.839508"
         height="29.810888"
         width="29.810888"
         id="rect1644"
         style="fill:none;fill-opacity:1;stroke:#000000;stroke-width:0.5;stroke-linecap:round;stroke-linejoin:round;stroke-miterlimit:4;stroke-dasharray:none;stroke-opacity:0.02" />
      <rect
         style="fill:none;fill-opacity:1;stroke:#000000;stroke-width:0.6;stroke-linecap:round;stroke-linejoin:round;stroke-miterlimit:4;stroke-dasharray:none;stroke-opacity:0.02"
         id="rect1646"
         width="29.810888"
         height="29.810888"
         x="69.839508"
         y="40.709618"
         rx="6.6098609"
         ry="6.6098609" />
      <rect
         ry="6.6098609"
         rx="6.6098609"
         y="40.709618"
         x="69.839508"
         height="29.810888"
         width="29.810888"
         id="rect1648"
         style="fill:none;fill-opacity:1;stroke:#000000;stroke-width:0.7;stroke-linecap:round;stroke-linejoin:round;stroke-miterlimit:4;stroke-dasharray:none;stroke-opacity:0.02" />
      <rect
         style="fill:none;fill-opacity:1;stroke:#000000;stroke-width:0.8;stroke-linecap:round;stroke-linejoin:round;stroke-miterlimit:4;stroke-dasharray:none;stroke-opacity:0.02"
         id="rect1650"
         width="29.810888"
         height="29.810888"
         x="69.839508"
         y="40.709618"
         rx="6.6098609"
         ry="6.6098609" />
      <rect
         ry="6.6098609"
         rx="6.6098609"
         y="40.709618"
         x="69.839508"
         height="29.810888"
         width="29.810888"
         id="rect1652"
         style="fill:none;fill-opacity:1;stroke:#000000;stroke-width:1;stroke-linecap:round;stroke-linejoin:round;stroke-miterlimit:4;stroke-dasharray:none;stroke-opacity:0.02" />
      <rect
         style="fill:none;fill-opacity:1;stroke:#000000;stroke-width:1.2;stroke-linecap:round;stroke-linejoin:round;stroke-miterlimit:4;stroke-dasharray:none;stroke-opacity:0.02"
         id="rect1654"
         width="29.810888"
         height="29.810888"
         x="69.839508"
         y="40.709618"
         rx="6.6098609"
         ry="6.6098609" />
      <rect
         ry="6.6098609"
         rx="6.6098609"
         y="40.709618"
         x="69.839508"
         height="29.810888"
         width="29.810888"
         id="rect1656"
         style="fill:none;fill-opacity:1;stroke:#000000;stroke-width:1.4;stroke-linecap:round;stroke-linejoin:round;stroke-miterlimit:4;stroke-dasharray:none;stroke-opacity:0.02" />
      <rect
         style="fill:none;fill-opacity:1;stroke:#000000;stroke-width:1.6;stroke-linecap:round;stroke-linejoin:round;stroke-miterlimit:4;stroke-dasharray:none;stroke-opacity:0.02"
         id="rect1658"
         width="29.810888"
         height="29.810888"
         x="69.839508"
         y="40.709618"
         rx="6.6098609"
         ry="6.6098609" />
      <rect
         ry="6.6098609"
         rx="6.6098609"
         y="40.709618"
         x="69.839508"
         height="29.810888"
         width="29.810888"
         id="rect1660"
         style="fill:none;fill-opacity:1;stroke:#000000;stroke-width:1.8;stroke-linecap:round;stroke-linejoin:round;stroke-miterlimit:4;stroke-dasharray:none;stroke-opacity:0.02" />
      <rect
         style="fill:none;fill-opacity:1;stroke:#000000;stroke-width:2;stroke-linecap:round;stroke-linejoin:round;stroke-miterlimit:4;stroke-dasharray:none;stroke-opacity:0.02"
         id="rect1662"
         width="29.810888"
         height="29.810888"
         x="69.839508"
         y="40.709618"
         rx="6.6098609"
         ry="6.6098609" />
      <rect
         ry="6.6098609"
         rx="6.6098609"
         y="40.709618"
         x="69.839508"
         height="29.810888"
         width="29.810888"
         id="rect1664"
         style="fill:none;fill-opacity:1;stroke:#000000;stroke-width:2.2;stroke-linecap:round;stroke-linejoin:round;stroke-miterlimit:4;stroke-dasharray:none;stroke-opacity:0.02" />
      <rect
         style="fill:none;fill-opacity:1;stroke:#000000;stroke-width:2.6;stroke-linecap:round;stroke-linejoin:round;stroke-miterlimit:4;stroke-dasharray:none;stroke-opacity:0.02"
         id="rect1666"
         width="29.810888"
         height="29.810888"
         x="69.839508"
         y="40.709618"
         rx="6.6098609"
         ry="6.6098609" />
      <rect
         ry="6.6098609"
         rx="6.6098609"
         y="40.709618"
         x="69.839508"
         height="29.810888"
         width="29.810888"
         id="rect1668"
         style="fill:none;fill-opacity:1;stroke:#000000;stroke-width:3;stroke-linecap:round;stroke-linejoin:round;stroke-miterlimit:4;stroke-dasharray:none;stroke-opacity:0.02" />
      <rect
         style="fill:none;fill-opacity:1;stroke:#000000;stroke-width:3.4;stroke-linecap:round;stroke-linejoin:round;stroke-miterlimit:4;stroke-dasharray:none;stroke-opacity:0.02"
         id="rect1670"
         width="29.810888"
         height="29.810888"
         x="69.839508"
         y="40.709618"
         rx="6.6098609"
         ry="6.6098609" />
      <rect
         ry="6.6098609"
         rx="6.6098609"
         y="40.709618"
         x="69.839508"
         height="29.810888"
         width="29.810888"
         id="rect1672"
         style="fill:none;fill-opacity:1;stroke:#000000;stroke-width:3.8;stroke-linecap:round;stroke-linejoin:round;stroke-miterlimit:4;stroke-dasharray:none;stroke-opacity:0.02" />
      <rect
         style="fill:none;fill-opacity:1;stroke:#000000;stroke-width:4.2;stroke-linecap:round;stroke-linejoin:round;stroke-miterlimit:4;stroke-dasharray:none;stroke-opacity:0.02"
         id="rect1674"
         width="29.810888"
         height="29.810888"
         x="69.839508"
         y="40.709618"
         rx="6.6098609"
         ry="6.6098609" />
      <rect
         ry="6.6098609"
         rx="6.6098609"
         y="40.709618"
         x="69.839508"
         height="29.810888"
         width="29.810888"
         id="rect1676"
         style="fill:none;fill-opacity:1;stroke:#000000;stroke-width:4.6;stroke-linecap:round;stroke-linejoin:round;stroke-miterlimit:4;stroke-dasharray:none;stroke-opacity:0.02" />
      <rect
         style="fill:none;fill-opacity:1;stroke:#000000;stroke-width:5;stroke-linecap:round;stroke-linejoin:round;stroke-miterlimit:4;stroke-dasharray:none;stroke-opacity:0.02"
         id="rect1678"
         width="29.810888"
         height="29.810888"
         x="69.839508"
         y="40.709618"
         rx="6.6098609"
         ry="6.6098609" />
    </g>
    <rect
       style="fill:url(#linearGradient912);fill-opacity:1;stroke-width:2.68769;stroke-linecap:round;stroke-linejoin:round"
       id="rect910"
       width="29.08744"
       height="29.08744"
       x="2.2835085"
       y="2.4875498"
       rx="6.4494534"
       ry="6.4494534" />
    <path
       d="m 11.012093,22.900265 c 0.711548,1.52476 1.591372,2.681053 2.471592,2.681053 2.010787,0 2.681049,-0.670264 4.021574,-0.670264 1.340525,0 2.010788,0.670264 4.021573,0.670264 0.878721,0 1.749628,-1.160457 2.458502,-2.681053 z"
       style="opacity:0.2;stroke-width:0.335131"
       id="path2" />
    <path
       d="m 11.012093,22.565133 c 0.711548,1.52476 1.591372,2.681053 2.471592,2.681053 2.010787,0 2.681049,-0.670263 4.021574,-0.670263 1.340525,0 2.010788,0.670263 4.021573,0.670263 0.878721,0 1.749628,-1.160456 2.458502,-2.681053 z"
       style="fill:#009bda;stroke-width:0.335131"
       id="path4" />
    <path
       d="m 10.043354,20.219211 c 0.259971,0.919985 0.582117,1.852571 0.968739,2.681054 h 12.973241 c 0.327377,-0.702252 0.623806,-1.474286 0.86401,-2.256903 a 4.0215739,4.0215796 0 0 1 -0.837828,-0.424151 z"
       style="opacity:0.2;stroke-width:0.335131"
       id="path6" />
    <path
       d="m 10.043354,19.88408 c 0.259971,0.919985 0.582117,1.852571 0.968739,2.681053 h 12.973241 c 0.327377,-0.702251 0.623806,-1.474287 0.86401,-2.256903 a 4.0215739,4.0215796 0 0 1 -0.837828,-0.42415 z"
       style="fill:#953c96;stroke-width:0.335131"
       id="path8" />
    <path
       d="m 9.5890946,18.208421 c 0.09687,0.62487 0.256204,1.309912 0.4542594,2.01079 h 13.968162 a 4.0215739,4.0215796 0 0 1 -1.580092,-2.01079 z"
       style="opacity:0.2;stroke-width:0.335131"
       id="path10" />
    <path
       d="m 9.5890946,17.87329 c 0.09687,0.62487 0.256204,1.309911 0.4542594,2.01079 h 13.968162 a 4.0215739,4.0215796 0 0 1 -1.580092,-2.01079 z"
       style="fill:#de393d;stroke-width:0.335131"
       id="path12" />
    <path
       d="m 9.6283676,15.527369 c -0.10451,0.438832 -0.166257,0.888877 -0.166257,1.340526 0,0.383913 0.05042,0.846729 0.126984,1.340526 H 22.431424 a 4.0215739,4.0215796 0 0 1 -0.234329,-1.340526 4.0215739,4.0215796 0 0 1 0.235639,-1.340526 z"
       style="opacity:0.2;stroke-width:0.335131"
       id="path14" />
    <path
       d="m 9.6283676,15.192237 c -0.10451,0.438832 -0.166257,0.888878 -0.166257,1.340527 0,0.383913 0.05042,0.846728 0.126984,1.340526 H 22.431424 a 4.0215739,4.0215796 0 0 1 -0.234329,-1.340526 4.0215739,4.0215796 0 0 1 0.235639,-1.340527 z"
       style="fill:#f4811e;stroke-width:0.335131"
       id="path16" />
    <path
       d="m 10.487142,13.516579 c -0.388064,0.597023 -0.6861934,1.286161 -0.8587744,2.01079 H 22.432734 a 4.0215739,4.0215796 0 0 1 1.568309,-2.01079 z"
       style="opacity:0.2;stroke-width:0.335131"
       id="path18" />
    <path
       d="m 10.487142,13.181448 c -0.388064,0.597023 -0.6861934,1.286161 -0.8587744,2.010789 H 22.432734 a 4.0215739,4.0215796 0 0 1 1.568309,-2.010789 z"
       style="fill:#fbb625;stroke-width:0.335131"
       id="path20" />
    <path
       d="m 20.85657,6.8139463 c 0,0 -1.340523,0 -2.681048,1.3405273 -1.340525,1.3405261 -1.340525,3.3513154 -1.340525,3.3513154 0,0 2.010787,0 3.351311,-2.0107893 0.525798,-0.7886969 0.670262,-2.6810534 0.670262,-2.6810534 z m -7.372885,4.6918427 c -1.112706,0 -2.224567,0.823131 -2.996543,2.01079 h 13.513901 a 4.0215739,4.0215796 0 0 1 0.370478,-0.21993 c -0.762246,-1.067362 -1.802375,-1.79086 -2.844689,-1.79086 -2.681048,0 -2.681048,0.670264 -4.021573,0.670264 -1.340525,0 -1.340525,-0.670264 -4.021574,-0.670264 z"
       style="opacity:0.2;stroke-width:0.335131"
       id="path22" />
    <path
       d="m 20.85657,6.4788151 c 0,0 -1.340523,0 -2.681048,1.3405261 -1.340525,1.3405273 -1.340525,3.3513168 -1.340525,3.3513168 0,0 2.010787,0 3.351311,-2.0107895 0.525798,-0.788697 0.670262,-2.6810534 0.670262,-2.6810534 z m -7.372885,4.6918429 c -1.112706,0 -2.224567,0.82313 -2.996543,2.01079 h 13.513901 a 4.0215739,4.0215796 0 0 1 0.370478,-0.21993 c -0.762246,-1.067363 -1.802375,-1.79086 -2.844689,-1.79086 -2.681048,0 -2.681048,0.670263 -4.021573,0.670263 -1.340525,0 -1.340525,-0.670263 -4.021574,-0.670263 z"
       style="fill:#60ba45;stroke-width:0.335131"
       id="path24" />
    <path
       d="m 20.85657,6.4788151 c 0,0 -1.340529,0 -2.681052,1.3405261 -1.340525,1.3405273 -1.340528,3.3513168 -1.340528,3.3513168 0,0 0.01754,-6.04e-4 0.02095,-6.71e-4 0.06293,-0.628609 0.314477,-2.0104085 1.319581,-3.0155134 1.289105,-1.2891068 2.548709,-1.3353569 2.645707,-1.3372543 0.02374,-0.2035034 0.03535,-0.3384042 0.03535,-0.3384042 z m -7.372895,4.6918429 c -2.010788,0 -4.0215804,2.681052 -4.0215804,5.362106 0,0.05388 0.0056,0.116936 0.0072,0.173456 0.07851,-2.626029 2.0440624,-5.200431 4.0143804,-5.200431 2.68105,0 2.681055,0.670264 4.021579,0.670264 1.340525,0 1.34053,-0.670264 4.02158,-0.670264 0.963795,0 1.922599,0.622742 2.66469,1.559802 a 4.0215741,4.0215796 0 0 1 0.180002,-0.104067 c -0.762246,-1.067363 -1.80238,-1.790859 -2.844692,-1.790859 -2.68105,0 -2.681055,0.670262 -4.02158,0.670262 -1.340524,0 -1.340529,-0.670262 -4.021579,-0.670262 z m 8.721277,5.540798 a 4.0215741,4.0215796 0 0 0 -0.0079,0.156439 4.0215741,4.0215796 0 0 0 2.554069,3.734231 c 0.03186,-0.09834 0.06794,-0.195351 0.09818,-0.293896 a 4.0215741,4.0215796 0 0 1 -2.644397,-3.596774 z"
       style="opacity:0.2;fill:#ffffff;stroke-width:0.335131"
       id="path26" />
  </g>
</svg>
