<?xml version="1.0" encoding="UTF-8" standalone="no"?>
<svg
   xmlns:dc="http://purl.org/dc/elements/1.1/"
   xmlns:cc="http://creativecommons.org/ns#"
   xmlns:rdf="http://www.w3.org/1999/02/22-rdf-syntax-ns#"
   xmlns:svg="http://www.w3.org/2000/svg"
   xmlns="http://www.w3.org/2000/svg"
   xmlns:xlink="http://www.w3.org/1999/xlink"
   xmlns:sodipodi="http://sodipodi.sourceforge.net/DTD/sodipodi-0.dtd"
   xmlns:inkscape="http://www.inkscape.org/namespaces/inkscape"
   width="128"
   height="128"
   viewBox="0 0 33.866666 33.866668"
   version="1.1"
   id="svg1443"
   inkscape:version="1.0.2 (e86c870879, 2021-01-15)"
   sodipodi:docname="Battle.net.svg">
  <defs
     id="defs1437">
    <linearGradient
       inkscape:collect="always"
       id="linearGradient893">
      <stop
         style="stop-color:#e6e9ed;stop-opacity:1;"
         offset="0"
         id="stop889" />
      <stop
         style="stop-color:#e6e9ed;stop-opacity:0;"
         offset="1"
         id="stop891" />
    </linearGradient>
    <linearGradient
       inkscape:collect="always"
       id="linearGradient881">
      <stop
         style="stop-color:#402dbb;stop-opacity:1"
         offset="0"
         id="stop877" />
      <stop
         style="stop-color:#055ccb;stop-opacity:1"
         offset="1"
         id="stop879" />
    </linearGradient>
    <linearGradient
       gradientTransform="matrix(0.97573206,0,0,0.97573206,-111.76517,-37.182508)"
       gradientUnits="userSpaceOnUse"
       y2="70.679932"
       x2="132.21078"
       y1="42.151531"
       x1="132.21078"
       id="linearGradient1632"
       xlink:href="#linearGradient1630"
       inkscape:collect="always" />
    <linearGradient
       id="linearGradient1630"
       inkscape:collect="always">
      <stop
         id="stop1626"
         offset="0"
         style="stop-color:#fafafc;stop-opacity:1" />
      <stop
         id="stop1628"
         offset="1"
         style="stop-color:#e2e6ea;stop-opacity:1" />
    </linearGradient>
    <filter
       color-interpolation-filters="sRGB"
       height="1.1311001"
       width="1.1106"
       y="-0.065563001"
       x="-0.055319"
       id="c-9">
      <feGaussianBlur
         id="feGaussianBlur1093"
         stdDeviation="1.1062912" />
    </filter>
    <linearGradient
       gradientUnits="userSpaceOnUse"
       gradientTransform="matrix(0.13235,0,0,0.13075,-32.379,1.0873)"
       y2="269.48999"
       y1="235.14999"
       x2="657.65002"
       x1="319.20999"
       id="a-12">
      <stop
         id="stop1076"
         offset="0"
         stop-color="#e54c18" />
      <stop
         id="stop1078"
         offset="1"
         stop-color="#fec350" />
    </linearGradient>
    <radialGradient
       inkscape:collect="always"
       xlink:href="#linearGradient881"
       id="radialGradient885"
       cx="19.465776"
       cy="15.308041"
       fx="19.465776"
       fy="15.308041"
       r="3.5433719"
       gradientTransform="matrix(3.4490616,0,0,3.4487303,-50.15477,-35.003616)"
       gradientUnits="userSpaceOnUse" />
    <linearGradient
       inkscape:collect="always"
       xlink:href="#linearGradient893"
       id="linearGradient895"
       x1="31.251856"
       y1="41.129639"
       x2="13.06524"
       y2="10.003292"
       gradientUnits="userSpaceOnUse" />
  </defs>
  <sodipodi:namedview
     id="base"
     pagecolor="#ffffff"
     bordercolor="#666666"
     borderopacity="1.0"
     inkscape:pageopacity="0.0"
     inkscape:pageshadow="2"
     inkscape:zoom="1.979899"
     inkscape:cx="15.976561"
     inkscape:cy="105.45594"
     inkscape:document-units="mm"
     inkscape:current-layer="layer1"
     inkscape:document-rotation="0"
     showgrid="false"
     units="px"
     inkscape:window-width="1507"
     inkscape:window-height="1056"
     inkscape:window-x="409"
     inkscape:window-y="24"
     inkscape:window-maximized="0" />
  <metadata
     id="metadata1440">
    <rdf:RDF>
      <cc:Work
         rdf:about="">
        <dc:format>image/svg+xml</dc:format>
        <dc:type
           rdf:resource="http://purl.org/dc/dcmitype/StillImage" />
        <dc:title></dc:title>
      </cc:Work>
    </rdf:RDF>
  </metadata>
  <g
     inkscape:label="Capa 1"
     inkscape:groupmode="layer"
     id="layer1">
    <g
       style="opacity:0.295"
       transform="matrix(0.97573206,0,0,0.97573206,-65.737228,-37.182508)"
       id="g1702">
      <rect
         ry="6.6098609"
         rx="6.6098609"
         y="40.709618"
         x="69.839508"
         height="29.810888"
         width="29.810888"
         id="rect1634"
         style="fill:none;fill-opacity:1;stroke:#000000;stroke-width:0.1;stroke-linecap:round;stroke-linejoin:round;stroke-miterlimit:4;stroke-dasharray:none;stroke-opacity:0.02" />
      <rect
         style="fill:none;fill-opacity:1;stroke:#000000;stroke-width:0.2;stroke-linecap:round;stroke-linejoin:round;stroke-miterlimit:4;stroke-dasharray:none;stroke-opacity:0.02"
         id="rect1638"
         width="29.810888"
         height="29.810888"
         x="69.839508"
         y="40.709618"
         rx="6.6098609"
         ry="6.6098609" />
      <rect
         ry="6.6098609"
         rx="6.6098609"
         y="40.709618"
         x="69.839508"
         height="29.810888"
         width="29.810888"
         id="rect1640"
         style="fill:none;fill-opacity:1;stroke:#000000;stroke-width:0.3;stroke-linecap:round;stroke-linejoin:round;stroke-miterlimit:4;stroke-dasharray:none;stroke-opacity:0.02" />
      <rect
         style="fill:none;fill-opacity:1;stroke:#000000;stroke-width:0.4;stroke-linecap:round;stroke-linejoin:round;stroke-miterlimit:4;stroke-dasharray:none;stroke-opacity:0.02"
         id="rect1642"
         width="29.810888"
         height="29.810888"
         x="69.839508"
         y="40.709618"
         rx="6.6098609"
         ry="6.6098609" />
      <rect
         ry="6.6098609"
         rx="6.6098609"
         y="40.709618"
         x="69.839508"
         height="29.810888"
         width="29.810888"
         id="rect1644"
         style="fill:none;fill-opacity:1;stroke:#000000;stroke-width:0.5;stroke-linecap:round;stroke-linejoin:round;stroke-miterlimit:4;stroke-dasharray:none;stroke-opacity:0.02" />
      <rect
         style="fill:none;fill-opacity:1;stroke:#000000;stroke-width:0.6;stroke-linecap:round;stroke-linejoin:round;stroke-miterlimit:4;stroke-dasharray:none;stroke-opacity:0.02"
         id="rect1646"
         width="29.810888"
         height="29.810888"
         x="69.839508"
         y="40.709618"
         rx="6.6098609"
         ry="6.6098609" />
      <rect
         ry="6.6098609"
         rx="6.6098609"
         y="40.709618"
         x="69.839508"
         height="29.810888"
         width="29.810888"
         id="rect1648"
         style="fill:none;fill-opacity:1;stroke:#000000;stroke-width:0.7;stroke-linecap:round;stroke-linejoin:round;stroke-miterlimit:4;stroke-dasharray:none;stroke-opacity:0.02" />
      <rect
         style="fill:none;fill-opacity:1;stroke:#000000;stroke-width:0.8;stroke-linecap:round;stroke-linejoin:round;stroke-miterlimit:4;stroke-dasharray:none;stroke-opacity:0.02"
         id="rect1650"
         width="29.810888"
         height="29.810888"
         x="69.839508"
         y="40.709618"
         rx="6.6098609"
         ry="6.6098609" />
      <rect
         ry="6.6098609"
         rx="6.6098609"
         y="40.709618"
         x="69.839508"
         height="29.810888"
         width="29.810888"
         id="rect1652"
         style="fill:none;fill-opacity:1;stroke:#000000;stroke-width:1;stroke-linecap:round;stroke-linejoin:round;stroke-miterlimit:4;stroke-dasharray:none;stroke-opacity:0.02" />
      <rect
         style="fill:none;fill-opacity:1;stroke:#000000;stroke-width:1.2;stroke-linecap:round;stroke-linejoin:round;stroke-miterlimit:4;stroke-dasharray:none;stroke-opacity:0.02"
         id="rect1654"
         width="29.810888"
         height="29.810888"
         x="69.839508"
         y="40.709618"
         rx="6.6098609"
         ry="6.6098609" />
      <rect
         ry="6.6098609"
         rx="6.6098609"
         y="40.709618"
         x="69.839508"
         height="29.810888"
         width="29.810888"
         id="rect1656"
         style="fill:none;fill-opacity:1;stroke:#000000;stroke-width:1.4;stroke-linecap:round;stroke-linejoin:round;stroke-miterlimit:4;stroke-dasharray:none;stroke-opacity:0.02" />
      <rect
         style="fill:none;fill-opacity:1;stroke:#000000;stroke-width:1.6;stroke-linecap:round;stroke-linejoin:round;stroke-miterlimit:4;stroke-dasharray:none;stroke-opacity:0.02"
         id="rect1658"
         width="29.810888"
         height="29.810888"
         x="69.839508"
         y="40.709618"
         rx="6.6098609"
         ry="6.6098609" />
      <rect
         ry="6.6098609"
         rx="6.6098609"
         y="40.709618"
         x="69.839508"
         height="29.810888"
         width="29.810888"
         id="rect1660"
         style="fill:none;fill-opacity:1;stroke:#000000;stroke-width:1.8;stroke-linecap:round;stroke-linejoin:round;stroke-miterlimit:4;stroke-dasharray:none;stroke-opacity:0.02" />
      <rect
         style="fill:none;fill-opacity:1;stroke:#000000;stroke-width:2;stroke-linecap:round;stroke-linejoin:round;stroke-miterlimit:4;stroke-dasharray:none;stroke-opacity:0.02"
         id="rect1662"
         width="29.810888"
         height="29.810888"
         x="69.839508"
         y="40.709618"
         rx="6.6098609"
         ry="6.6098609" />
      <rect
         ry="6.6098609"
         rx="6.6098609"
         y="40.709618"
         x="69.839508"
         height="29.810888"
         width="29.810888"
         id="rect1664"
         style="fill:none;fill-opacity:1;stroke:#000000;stroke-width:2.2;stroke-linecap:round;stroke-linejoin:round;stroke-miterlimit:4;stroke-dasharray:none;stroke-opacity:0.02" />
      <rect
         style="fill:none;fill-opacity:1;stroke:#000000;stroke-width:2.6;stroke-linecap:round;stroke-linejoin:round;stroke-miterlimit:4;stroke-dasharray:none;stroke-opacity:0.02"
         id="rect1666"
         width="29.810888"
         height="29.810888"
         x="69.839508"
         y="40.709618"
         rx="6.6098609"
         ry="6.6098609" />
      <rect
         ry="6.6098609"
         rx="6.6098609"
         y="40.709618"
         x="69.839508"
         height="29.810888"
         width="29.810888"
         id="rect1668"
         style="fill:none;fill-opacity:1;stroke:#000000;stroke-width:3;stroke-linecap:round;stroke-linejoin:round;stroke-miterlimit:4;stroke-dasharray:none;stroke-opacity:0.02" />
      <rect
         style="fill:none;fill-opacity:1;stroke:#000000;stroke-width:3.4;stroke-linecap:round;stroke-linejoin:round;stroke-miterlimit:4;stroke-dasharray:none;stroke-opacity:0.02"
         id="rect1670"
         width="29.810888"
         height="29.810888"
         x="69.839508"
         y="40.709618"
         rx="6.6098609"
         ry="6.6098609" />
      <rect
         ry="6.6098609"
         rx="6.6098609"
         y="40.709618"
         x="69.839508"
         height="29.810888"
         width="29.810888"
         id="rect1672"
         style="fill:none;fill-opacity:1;stroke:#000000;stroke-width:3.8;stroke-linecap:round;stroke-linejoin:round;stroke-miterlimit:4;stroke-dasharray:none;stroke-opacity:0.02" />
      <rect
         style="fill:none;fill-opacity:1;stroke:#000000;stroke-width:4.2;stroke-linecap:round;stroke-linejoin:round;stroke-miterlimit:4;stroke-dasharray:none;stroke-opacity:0.02"
         id="rect1674"
         width="29.810888"
         height="29.810888"
         x="69.839508"
         y="40.709618"
         rx="6.6098609"
         ry="6.6098609" />
      <rect
         ry="6.6098609"
         rx="6.6098609"
         y="40.709618"
         x="69.839508"
         height="29.810888"
         width="29.810888"
         id="rect1676"
         style="fill:none;fill-opacity:1;stroke:#000000;stroke-width:4.6;stroke-linecap:round;stroke-linejoin:round;stroke-miterlimit:4;stroke-dasharray:none;stroke-opacity:0.02" />
      <rect
         style="fill:none;fill-opacity:1;stroke:#000000;stroke-width:5;stroke-linecap:round;stroke-linejoin:round;stroke-miterlimit:4;stroke-dasharray:none;stroke-opacity:0.02"
         id="rect1678"
         width="29.810888"
         height="29.810888"
         x="69.839508"
         y="40.709618"
         rx="6.6098609"
         ry="6.6098609" />
    </g>
    <rect
       ry="6.4494534"
       rx="6.4494534"
       y="2.5391712"
       x="2.4074187"
       height="29.087439"
       width="29.087439"
       id="rect849"
       style="fill:url(#linearGradient1632);fill-opacity:1;stroke-width:2.68768;stroke-linecap:round;stroke-linejoin:round" />
    <path
       id="path897"
       d="M 15.269549,5.8142892 C 13.976129,6.0099549 13.321401,7.7456814 13.252699,10.2401 12.835731,9.6196235 12.327133,9.1733672 11.720033,9.2529887 c -1.0894,0.200735 -1.554832,1.7799923 -1.484931,3.7916063 -1.8707573,0.121266 -3.672409,0.460045 -5.2850624,1.089403 1.6289433,-0.296379 3.454973,-0.374479 5.3310934,-0.291516 0.141523,1.397495 0.517621,2.930221 1.125206,4.352505 -1.391077,1.850125 -3.2980664,5.298971 -2.0645821,7.092212 0.8425431,1.076959 2.8093091,0.715021 5.1469651,-0.589882 -0.456359,0.79816 -0.705098,1.62302 -0.255714,2.192448 0.712661,0.814347 2.246054,0.446374 3.888784,-0.581357 1.01213,1.518003 2.170569,2.874907 3.479613,3.938225 -1.034318,-1.237744 -1.982732,-2.740552 -2.823243,-4.36444 1.171072,-0.847745 2.349217,-2.003022 3.293783,-3.304015 2.286824,0.256093 6.305018,0.142101 7.218373,-1.859999 0.46979,-1.219707 -0.712145,-2.648174 -2.842,-3.941635 0.80956,-0.02346 1.516544,-0.232951 1.77135,-0.837083 C 28.597277,14.905 27.492942,13.713233 25.74762,12.756488 26.577575,11.118676 27.193537,9.4311927 27.476349,7.7561383 26.903795,9.2757058 26.057048,10.85165 25.050335,12.391649 23.693308,11.760471 22.059875,11.280126 20.419939,11.101071 19.493849,8.9768101 17.431727,5.6217039 15.269562,5.8143059 Z m 12.206786,1.9418325 c 0.001,-0.00274 0.0023,-0.00548 0.0034,-0.00868 h -0.0017 c -4.72e-4,0.00274 -0.0012,0.00548 -0.0017,0.00868 z M 16.691399,8.6000275 c 0.892948,0.010063 1.79823,1.3411504 2.736301,2.4260135 -1.636301,-0.05179 -3.205851,0.239193 -4.429223,1.007571 0.06452,-1.786496 0.511378,-3.0581448 1.42526,-3.3943722 0.08923,-0.027247 0.178249,-0.04021 0.26765,-0.039214 z m -4.22123,2.1856285 c 0.264578,0.02759 0.528023,0.250986 0.78935,0.542143 0.01931,0.544059 0.06264,1.115123 0.129574,1.706566 -0.617609,-0.03573 -1.232525,-0.04397 -1.844657,-0.03754 0.03732,-1.128082 0.262474,-1.970329 0.658077,-2.168581 0.0895,-0.03936 0.178523,-0.05194 0.267647,-0.04262 z m 6.580755,1.16953 c 0.54275,0.02724 1.085625,0.1104 1.623024,0.216534 0.06467,0.03691 0.129239,0.07598 0.194356,0.103987 -0.005,-0.01793 -0.01829,-0.04759 -0.02382,-0.06649 1.283884,0.271752 2.49521,0.724793 3.483024,1.241137 -0.336663,0.474314 -0.697544,0.932717 -1.058717,1.392868 C 22.770327,14.06502 22.01134,13.34807 20.9212,12.736016 v 0.0017 c 0.902939,0.739899 1.508773,1.519094 1.880461,2.313493 -2.134085,-0.800395 -4.601686,-1.440379 -7.145062,-1.773056 0,0 -0.111328,1.193448 -0.0716,1.125209 2.919557,0.577993 5.687071,1.502869 7.676976,2.562403 0.117202,3.146209 -2.700574,6.21015 -5.056611,7.757105 -0.237157,-0.505046 -0.448374,-1.022847 -0.663189,-1.541191 0.890414,-0.04901 1.853886,-0.330457 2.891442,-0.927444 -1.108481,0.40044 -2.096574,0.518211 -2.974977,0.424511 1.804164,-1.431927 3.645517,-3.246136 5.256076,-5.288476 0,0 -0.965461,-0.707203 -0.925738,-0.635908 -2.022085,2.239717 -4.268356,4.161917 -6.215913,5.322568 -1.664631,-0.931459 -2.743385,-2.772036 -3.367094,-4.70541 -0.0017,-0.04628 0.0015,-0.09517 -0.0034,-0.139788 -0.009,0.009 -0.02174,0.02657 -0.03069,0.0358 -0.361092,-1.151822 -0.558955,-2.314374 -0.615453,-3.344931 0.541796,0.04467 1.081183,0.118184 1.623029,0.187525 -0.347238,0.7563 -0.55583,1.662262 -0.566017,2.760167 0.19039,-1.02264 0.524964,-1.8461 0.959837,-2.516373 0.364687,2.229448 1.025817,4.661678 1.982751,7.008674 0,0 1.09042,-0.497818 1.010978,-0.497818 v -0.0034 c -0.945283,-2.833293 -1.510363,-5.70601 -1.571878,-7.963392 1.158857,-0.767242 2.593115,-1.016567 4.055858,-0.942788 z m 6.072707,1.953771 c 0.932632,0.59825 1.52741,1.211379 1.496865,1.648596 -0.0498,0.421736 -0.537288,0.583042 -1.11839,0.685356 -0.442652,-0.231846 -0.917388,-0.454769 -1.415029,-0.671716 0.36875,-0.543745 0.711831,-1.099702 1.036554,-1.662236 z m -1.099634,3.494957 c 1.521624,0.94048 2.406442,1.959739 2.247001,2.923835 -0.231534,1.021889 -2.094905,1.12837 -3.662034,1.452538 0.870979,-1.401974 1.433544,-2.92092 1.415033,-4.376373 z m -12.194853,1.689517 c 0.745898,1.439196 1.738563,2.6816 2.968159,3.41142 -1.546159,0.786351 -2.838261,1.006741 -3.568269,0.38871 -0.74451,-0.707388 0.07057,-2.311903 0.60011,-3.80013 z m 4.633803,4.338863 c 0.297723,0.602381 0.620552,1.187364 0.958134,1.759415 -0.937005,0.499823 -1.725991,0.710384 -2.085043,0.480771 -0.37982,-0.270439 -0.228054,-0.855246 0,-1.479818 0.370186,-0.233675 0.745856,-0.486203 1.126909,-0.760368 z"
       inkscape:connector-curvature="0"
       style="fill:#031f70;fill-opacity:0.1727;stroke-width:0.872889;enable-background:new" />
    <path
       id="path899"
       d="m 15.444247,6.1791355 c -1.29342,0.1956657 -1.948148,1.9313922 -2.01685,4.4258105 -0.416968,-0.6204762 -0.925566,-1.0667325 -1.532666,-0.987111 -1.0894,0.200735 -1.554832,1.779992 -1.484931,3.791606 -1.870757,0.121266 -3.6724087,0.460045 -5.2850621,1.089403 1.6289433,-0.296379 3.454973,-0.374479 5.3310931,-0.291516 0.141523,1.397495 0.517621,2.930221 1.125206,4.352505 -1.391077,1.850125 -3.2980661,5.298971 -2.0645818,7.092212 0.8425428,1.076959 2.8093088,0.715021 5.1469648,-0.589882 -0.456359,0.79816 -0.705098,1.62302 -0.255714,2.192448 0.712661,0.814347 2.246054,0.446374 3.888784,-0.581357 1.01213,1.518003 2.170569,2.874907 3.479613,3.938225 -1.034318,-1.237744 -1.982732,-2.740552 -2.823243,-4.36444 1.171072,-0.847745 2.349217,-2.003022 3.293783,-3.304015 2.286824,0.256093 6.305018,0.142101 7.218373,-1.859999 0.46979,-1.219707 -0.712145,-2.648174 -2.842,-3.941635 0.80956,-0.02346 1.516544,-0.232951 1.77135,-0.837083 0.377609,-1.034461 -0.726726,-2.226228 -2.472048,-3.182973 0.829955,-1.637812 1.445917,-3.325295 1.728729,-5.0003494 -0.572554,1.5195675 -1.419301,3.0955114 -2.426014,4.6355104 -1.357027,-0.631178 -2.99046,-1.111523 -4.630396,-1.290578 C 19.668547,9.3416564 17.606425,5.9865502 15.44426,6.1791522 Z M 27.651033,8.120968 c 10e-4,-0.00274 0.0023,-0.00548 0.0034,-0.00868 h -0.0017 c -4.72e-4,0.00274 -0.0012,0.00548 -0.0017,0.00868 z M 16.866097,8.9648738 c 0.892948,0.010063 1.79823,1.3411502 2.736301,2.4260132 -1.636301,-0.05179 -3.205851,0.239193 -4.429223,1.007571 0.06452,-1.786496 0.511378,-3.0581445 1.42526,-3.3943719 0.08923,-0.027247 0.178249,-0.04021 0.26765,-0.039214 z m -4.22123,2.1856282 c 0.264578,0.02759 0.528023,0.250986 0.78935,0.542143 0.01931,0.544059 0.06264,1.115123 0.129574,1.706566 -0.617609,-0.03573 -1.232525,-0.04397 -1.844657,-0.03754 0.03732,-1.128082 0.262474,-1.970329 0.658077,-2.168581 0.0895,-0.03936 0.178523,-0.05194 0.267647,-0.04262 z m 6.580755,1.16953 c 0.54275,0.02724 1.085625,0.1104 1.623024,0.216534 0.06467,0.03691 0.129239,0.07598 0.194356,0.103987 -0.005,-0.01793 -0.01829,-0.04759 -0.02382,-0.06649 1.283884,0.271752 2.49521,0.724793 3.483024,1.241137 -0.336663,0.474314 -0.697544,0.932717 -1.058717,1.392868 -0.498464,-0.778202 -1.257451,-1.495152 -2.347591,-2.107206 v 0.0017 c 0.902939,0.739899 1.508773,1.519094 1.880461,2.313493 -2.134085,-0.800395 -4.601686,-1.440379 -7.145062,-1.773056 0,0 -0.111328,1.193448 -0.0716,1.125209 2.919557,0.577993 5.687071,1.502869 7.676976,2.562403 0.117202,3.146209 -2.700574,6.21015 -5.056611,7.757105 -0.237157,-0.505046 -0.448374,-1.022847 -0.663189,-1.541191 0.890414,-0.04901 1.853886,-0.330457 2.891442,-0.927444 -1.108481,0.40044 -2.096574,0.518211 -2.974977,0.424511 1.804164,-1.431927 3.645517,-3.246136 5.256076,-5.288476 0,0 -0.965461,-0.707203 -0.925738,-0.635908 -2.022085,2.239717 -4.268356,4.161917 -6.215913,5.322568 -1.664631,-0.931459 -2.743385,-2.772036 -3.367094,-4.70541 -0.0017,-0.04628 0.0015,-0.09517 -0.0034,-0.139788 -0.009,0.009 -0.02174,0.02657 -0.03069,0.0358 -0.361092,-1.151822 -0.558955,-2.314374 -0.615453,-3.344931 0.541796,0.04467 1.081183,0.118184 1.623029,0.187525 -0.347238,0.7563 -0.55583,1.662262 -0.566017,2.760167 0.19039,-1.02264 0.524964,-1.8461 0.959837,-2.516373 0.364687,2.229448 1.025817,4.661678 1.982751,7.008674 0,0 1.09042,-0.497818 1.010978,-0.497818 v -0.0034 c -0.945283,-2.833293 -1.510363,-5.70601 -1.571878,-7.963392 1.158857,-0.767242 2.593115,-1.016567 4.055858,-0.942788 z m 6.072707,1.953771 c 0.932632,0.59825 1.52741,1.211379 1.496865,1.648596 -0.0498,0.421736 -0.537288,0.583042 -1.11839,0.685356 -0.442652,-0.231846 -0.917388,-0.454769 -1.415029,-0.671716 0.36875,-0.543745 0.711831,-1.099702 1.036554,-1.662236 z m -1.099634,3.494957 c 1.521624,0.94048 2.406442,1.959739 2.247001,2.923835 -0.231534,1.021889 -2.094905,1.12837 -3.662034,1.452538 0.870979,-1.401974 1.433544,-2.92092 1.415033,-4.376373 z m -12.194853,1.689517 c 0.745898,1.439196 1.738563,2.6816 2.968159,3.41142 -1.546159,0.786351 -2.838261,1.006741 -3.568269,0.38871 -0.74451,-0.707388 0.07057,-2.311903 0.60011,-3.80013 z m 4.633803,4.338863 c 0.297723,0.602381 0.620552,1.187364 0.958134,1.759415 -0.937005,0.499823 -1.725991,0.710384 -2.085043,0.480771 -0.37982,-0.270439 -0.228054,-0.855246 0,-1.479818 0.370186,-0.233675 0.745856,-0.486203 1.126909,-0.760368 z"
       inkscape:connector-curvature="0"
       style="fill:#031f70;fill-opacity:0.1727;stroke-width:0.872889;enable-background:new" />
    <path
       id="path901"
       d="m 15.485919,6.5426408 c -1.29342,0.1956657 -1.948148,1.9313922 -2.01685,4.4258102 -0.416968,-0.620476 -0.925566,-1.0667322 -1.532666,-0.9871107 -1.0894,0.2007347 -1.554832,1.7799917 -1.484931,3.7916057 -1.8707568,0.121266 -3.6724085,0.460045 -5.2850619,1.089403 1.6289433,-0.296379 3.454973,-0.374479 5.3310929,-0.291516 0.141523,1.397495 0.517621,2.930221 1.125206,4.352505 -1.391077,1.850125 -3.2980659,5.298971 -2.0645816,7.092212 0.8425426,1.076959 2.8093086,0.715021 5.1469646,-0.589882 -0.456359,0.79816 -0.705098,1.62302 -0.255714,2.192448 0.712661,0.814347 2.246054,0.446374 3.888784,-0.581357 1.01213,1.518003 2.170569,2.874907 3.479613,3.938225 -1.034318,-1.237744 -1.982732,-2.740552 -2.823243,-4.36444 1.171072,-0.847745 2.349217,-2.003022 3.293783,-3.304015 2.286824,0.256093 6.305018,0.142101 7.218373,-1.859999 0.46979,-1.219707 -0.712145,-2.648174 -2.842,-3.941635 0.80956,-0.02346 1.516544,-0.232951 1.77135,-0.837083 0.377609,-1.034461 -0.726726,-2.226228 -2.472048,-3.182973 0.829955,-1.637812 1.445917,-3.325295 1.728729,-5.0003491 C 27.120165,10.004057 26.273418,11.580001 25.266705,13.12 23.909678,12.488822 22.276245,12.008477 20.636309,11.829422 19.710219,9.7051617 17.648097,6.3500555 15.485932,6.5426575 Z m 12.206786,1.9418325 c 0.001,-0.00274 0.0023,-0.00548 0.0034,-0.00868 h -0.0017 c -4.72e-4,0.00274 -0.0012,0.00548 -0.0017,0.00868 z M 16.907769,9.3283791 c 0.892948,0.010063 1.79823,1.3411499 2.736301,2.4260129 -1.636301,-0.05179 -3.205851,0.239193 -4.429223,1.007571 0.06452,-1.786496 0.511378,-3.0581442 1.42526,-3.3943716 0.08923,-0.027247 0.178249,-0.04021 0.26765,-0.039214 z m -4.22123,2.1856279 c 0.264578,0.02759 0.528023,0.250986 0.78935,0.542143 0.01931,0.544059 0.06264,1.115123 0.129574,1.706566 -0.617609,-0.03573 -1.232525,-0.04397 -1.844657,-0.03754 0.03732,-1.128082 0.262474,-1.970329 0.658077,-2.168581 0.0895,-0.03936 0.178523,-0.05194 0.267647,-0.04262 z m 6.580755,1.16953 c 0.54275,0.02724 1.085625,0.1104 1.623024,0.216534 0.06467,0.03691 0.129239,0.07598 0.194356,0.103987 -0.005,-0.01793 -0.01829,-0.04759 -0.02382,-0.06649 1.283884,0.271752 2.49521,0.724793 3.483024,1.241137 -0.336663,0.474314 -0.697544,0.932717 -1.058717,1.392868 -0.498464,-0.778202 -1.257451,-1.495152 -2.347591,-2.107206 v 0.0017 c 0.902939,0.739899 1.508773,1.519094 1.880461,2.313493 -2.134085,-0.800395 -4.601686,-1.440379 -7.145062,-1.773056 0,0 -0.111328,1.193448 -0.0716,1.125209 2.919557,0.577993 5.687071,1.502869 7.676976,2.562403 0.117202,3.146209 -2.700574,6.21015 -5.056611,7.757105 -0.237157,-0.505046 -0.448374,-1.022847 -0.663189,-1.541191 0.890414,-0.04901 1.853886,-0.330457 2.891442,-0.927444 -1.108481,0.40044 -2.096574,0.518211 -2.974977,0.424511 1.804164,-1.431927 3.645517,-3.246136 5.256076,-5.288476 0,0 -0.965461,-0.707203 -0.925738,-0.635908 -2.022085,2.239717 -4.268356,4.161917 -6.215913,5.322568 -1.664631,-0.931459 -2.743385,-2.772036 -3.367094,-4.70541 -0.0017,-0.04628 0.0015,-0.09517 -0.0034,-0.139788 -0.009,0.009 -0.02174,0.02657 -0.03069,0.0358 -0.361092,-1.151822 -0.558955,-2.314374 -0.615453,-3.344931 0.541796,0.04467 1.081183,0.118184 1.623029,0.187525 -0.347238,0.7563 -0.55583,1.662262 -0.566017,2.760167 0.19039,-1.02264 0.524964,-1.8461 0.959837,-2.516373 0.364687,2.229448 1.025817,4.661678 1.982751,7.008674 0,0 1.09042,-0.497818 1.010978,-0.497818 v -0.0034 c -0.945283,-2.833293 -1.510363,-5.70601 -1.571878,-7.963392 1.158857,-0.767242 2.593115,-1.016567 4.055858,-0.942788 z m 6.072707,1.953771 c 0.932632,0.59825 1.52741,1.211379 1.496865,1.648596 -0.0498,0.421736 -0.537288,0.583042 -1.11839,0.685356 -0.442652,-0.231846 -0.917388,-0.454769 -1.415029,-0.671716 0.36875,-0.543745 0.711831,-1.099702 1.036554,-1.662236 z m -1.099634,3.494957 c 1.521624,0.94048 2.406442,1.959739 2.247001,2.923835 -0.231534,1.021889 -2.094905,1.12837 -3.662034,1.452538 0.870979,-1.401974 1.433544,-2.92092 1.415033,-4.376373 z m -12.194853,1.689517 c 0.745898,1.439196 1.738563,2.6816 2.968159,3.41142 -1.546159,0.786351 -2.838261,1.006741 -3.568269,0.38871 -0.74451,-0.707388 0.07057,-2.311903 0.60011,-3.80013 z m 4.633803,4.338863 c 0.297723,0.602381 0.620552,1.187364 0.958134,1.759415 -0.937005,0.499823 -1.725991,0.710384 -2.085043,0.480771 -0.37982,-0.270439 -0.228054,-0.855246 0,-1.479818 0.370186,-0.233675 0.745856,-0.486203 1.126909,-0.760368 z"
       inkscape:connector-curvature="0"
       style="fill:#031f70;fill-opacity:0.1727;stroke-width:0.872889;enable-background:new" />
    <path
       id="path862"
       d="M 15.08209,5.5774808 C 13.78867,5.7731465 13.133942,7.508873 13.06524,10.003292 12.648272,9.3828151 12.139674,8.9365588 11.532574,9.0161803 c -1.0894,0.200735 -1.554832,1.7799927 -1.484931,3.7916067 -1.8707573,0.121266 -3.672409,0.460045 -5.2850624,1.089403 1.6289433,-0.296379 3.454973,-0.374479 5.3310934,-0.291516 0.141523,1.397495 0.517621,2.930221 1.125206,4.352505 -1.3910772,1.850125 -3.2980664,5.298971 -2.0645821,7.092212 0.8425435,1.076959 2.8093091,0.715021 5.1469651,-0.589882 -0.456359,0.79816 -0.705098,1.62302 -0.255714,2.192448 0.712661,0.814347 2.246054,0.446374 3.888784,-0.581357 1.01213,1.518003 2.170569,2.874907 3.479613,3.938225 -1.034318,-1.237744 -1.982732,-2.740552 -2.823243,-4.36444 1.171072,-0.847745 2.349217,-2.003022 3.293783,-3.304015 2.286824,0.256093 6.305018,0.142101 7.218373,-1.859999 0.46979,-1.219707 -0.712145,-2.648174 -2.842,-3.941635 0.80956,-0.02346 1.516544,-0.232951 1.77135,-0.837083 C 28.409818,14.668192 27.305483,13.476425 25.560161,12.51968 26.390116,10.881868 27.006078,9.1943843 27.28889,7.5193299 26.716336,9.0388974 25.869589,10.614842 24.862876,12.154841 23.505849,11.523663 21.872416,11.043318 20.23248,10.864263 19.30639,8.7400017 17.244268,5.3848955 15.082103,5.5774975 Z m 12.206786,1.9418325 c 0.001,-0.00274 0.0023,-0.00548 0.0034,-0.00868 h -0.0017 c -4.72e-4,0.00274 -0.0012,0.00548 -0.0017,0.00868 z M 16.50394,8.3632191 c 0.892948,0.010063 1.79823,1.3411504 2.736301,2.4260139 -1.636301,-0.05179 -3.205851,0.239193 -4.429223,1.007571 0.06452,-1.786496 0.511378,-3.0581452 1.42526,-3.3943726 0.08923,-0.027247 0.178249,-0.04021 0.26765,-0.039214 z m -4.22123,2.1856289 c 0.264578,0.02759 0.528023,0.250986 0.78935,0.542143 0.01931,0.544059 0.06264,1.115123 0.129574,1.706566 -0.617609,-0.03573 -1.232525,-0.04397 -1.844657,-0.03754 0.03732,-1.128082 0.262474,-1.970329 0.658077,-2.168581 0.0895,-0.03936 0.178523,-0.05194 0.267647,-0.04262 z m 6.580755,1.16953 c 0.54275,0.02724 1.085625,0.1104 1.623024,0.216534 0.06467,0.03691 0.129239,0.07598 0.194356,0.103987 -0.005,-0.01793 -0.01829,-0.04759 -0.02382,-0.06649 1.283884,0.271752 2.49521,0.724793 3.483024,1.241137 -0.336663,0.474314 -0.697544,0.932717 -1.058717,1.392868 -0.498464,-0.778202 -1.257451,-1.495152 -2.347591,-2.107206 v 0.0017 c 0.902939,0.739899 1.508773,1.519094 1.880461,2.313493 -2.134085,-0.800395 -4.601686,-1.440379 -7.145062,-1.773056 0,0 -0.111328,1.193448 -0.0716,1.125209 2.919557,0.577993 5.687071,1.502869 7.676976,2.562403 0.117202,3.146209 -2.700574,6.21015 -5.056611,7.757105 -0.237157,-0.505046 -0.448374,-1.022847 -0.663189,-1.541191 0.890414,-0.04901 1.853886,-0.330457 2.891442,-0.927444 -1.108481,0.40044 -2.096574,0.518211 -2.974977,0.424511 1.804164,-1.431927 3.645517,-3.246136 5.256076,-5.288476 0,0 -0.965461,-0.707203 -0.925738,-0.635908 -2.022085,2.239717 -4.268356,4.161917 -6.215913,5.322568 -1.664631,-0.931459 -2.743385,-2.772036 -3.367094,-4.70541 -0.0017,-0.04628 0.0015,-0.09517 -0.0034,-0.139788 -0.009,0.009 -0.02174,0.02657 -0.03069,0.0358 -0.361092,-1.151822 -0.558955,-2.314374 -0.615453,-3.344931 0.541796,0.04467 1.081183,0.118184 1.623029,0.187525 -0.347238,0.7563 -0.55583,1.662262 -0.566017,2.760167 0.19039,-1.02264 0.524964,-1.8461 0.959837,-2.516373 0.364687,2.229448 1.025817,4.661678 1.982751,7.008674 0,0 1.09042,-0.497818 1.010978,-0.497818 v -0.0034 c -0.945283,-2.833293 -1.510363,-5.70601 -1.571878,-7.963392 1.158857,-0.767242 2.593115,-1.016567 4.055858,-0.942788 z m 6.072707,1.953771 c 0.932632,0.59825 1.52741,1.211379 1.496865,1.648596 -0.0498,0.421736 -0.537288,0.583042 -1.11839,0.685356 -0.442652,-0.231846 -0.917388,-0.454769 -1.415029,-0.671716 0.36875,-0.543745 0.711831,-1.099702 1.036554,-1.662236 z m -1.099634,3.494957 c 1.521624,0.94048 2.406442,1.959739 2.247001,2.923835 -0.231534,1.021889 -2.094905,1.12837 -3.662034,1.452538 0.870979,-1.401974 1.433544,-2.92092 1.415033,-4.376373 z m -12.194853,1.689517 c 0.745898,1.439196 1.738563,2.6816 2.968159,3.41142 -1.546159,0.786351 -2.838261,1.006741 -3.568269,0.38871 -0.74451,-0.707388 0.07057,-2.311903 0.60011,-3.80013 z m 4.633803,4.338863 c 0.297723,0.602381 0.620552,1.187364 0.958134,1.759415 -0.937005,0.499823 -1.725991,0.710384 -2.085043,0.480771 -0.37982,-0.270439 -0.228054,-0.855246 0,-1.479818 0.370186,-0.233675 0.745856,-0.486203 1.126909,-0.760368 z"
       inkscape:connector-curvature="0"
       style="fill:url(#radialGradient885);fill-opacity:1;stroke-width:0.872889;enable-background:new" />
    <path
       id="path887"
       d="M 15.08209,5.5774808 C 13.78867,5.7731465 13.133942,7.508873 13.06524,10.003292 12.648272,9.3828151 12.139674,8.9365588 11.532574,9.0161803 c -1.0894,0.200735 -1.554832,1.7799927 -1.484931,3.7916067 -1.8707573,0.121266 -3.672409,0.460045 -5.2850624,1.089403 1.6289433,-0.296379 3.454973,-0.374479 5.3310934,-0.291516 0.141523,1.397495 0.517621,2.930221 1.125206,4.352505 -1.3910772,1.850125 -3.2980664,5.298971 -2.0645821,7.092212 0.8425435,1.076959 2.8093091,0.715021 5.1469651,-0.589882 -0.456359,0.79816 -0.705098,1.62302 -0.255714,2.192448 0.712661,0.814347 2.246054,0.446374 3.888784,-0.581357 1.01213,1.518003 2.170569,2.874907 3.479613,3.938225 -1.034318,-1.237744 -1.982732,-2.740552 -2.823243,-4.36444 1.171072,-0.847745 2.349217,-2.003022 3.293783,-3.304015 2.286824,0.256093 6.305018,0.142101 7.218373,-1.859999 0.46979,-1.219707 -0.712145,-2.648174 -2.842,-3.941635 0.80956,-0.02346 1.516544,-0.232951 1.77135,-0.837083 C 28.409818,14.668192 27.305483,13.476425 25.560161,12.51968 26.390116,10.881868 27.006078,9.1943843 27.28889,7.5193299 26.716336,9.0388974 25.869589,10.614842 24.862876,12.154841 23.505849,11.523663 21.872416,11.043318 20.23248,10.864263 19.30639,8.7400017 17.244268,5.3848955 15.082103,5.5774975 Z m 12.206786,1.9418325 c 0.001,-0.00274 0.0023,-0.00548 0.0034,-0.00868 h -0.0017 c -4.72e-4,0.00274 -0.0012,0.00548 -0.0017,0.00868 z M 16.50394,8.3632191 c 0.892948,0.010063 1.79823,1.3411504 2.736301,2.4260139 -1.636301,-0.05179 -3.205851,0.239193 -4.429223,1.007571 0.06452,-1.786496 0.511378,-3.0581452 1.42526,-3.3943726 0.08923,-0.027247 0.178249,-0.04021 0.26765,-0.039214 z m -4.22123,2.1856289 c 0.264578,0.02759 0.528023,0.250986 0.78935,0.542143 0.01931,0.544059 0.06264,1.115123 0.129574,1.706566 -0.617609,-0.03573 -1.232525,-0.04397 -1.844657,-0.03754 0.03732,-1.128082 0.262474,-1.970329 0.658077,-2.168581 0.0895,-0.03936 0.178523,-0.05194 0.267647,-0.04262 z m 6.580755,1.16953 c 0.54275,0.02724 1.085625,0.1104 1.623024,0.216534 0.06467,0.03691 0.129239,0.07598 0.194356,0.103987 -0.005,-0.01793 -0.01829,-0.04759 -0.02382,-0.06649 1.283884,0.271752 2.49521,0.724793 3.483024,1.241137 -0.336663,0.474314 -0.697544,0.932717 -1.058717,1.392868 -0.498464,-0.778202 -1.257451,-1.495152 -2.347591,-2.107206 v 0.0017 c 0.902939,0.739899 1.508773,1.519094 1.880461,2.313493 -2.134085,-0.800395 -4.601686,-1.440379 -7.145062,-1.773056 0,0 -0.111328,1.193448 -0.0716,1.125209 2.919557,0.577993 5.687071,1.502869 7.676976,2.562403 0.117202,3.146209 -2.700574,6.21015 -5.056611,7.757105 -0.237157,-0.505046 -0.448374,-1.022847 -0.663189,-1.541191 0.890414,-0.04901 1.853886,-0.330457 2.891442,-0.927444 -1.108481,0.40044 -2.096574,0.518211 -2.974977,0.424511 1.804164,-1.431927 3.645517,-3.246136 5.256076,-5.288476 0,0 -0.965461,-0.707203 -0.925738,-0.635908 -2.022085,2.239717 -4.268356,4.161917 -6.215913,5.322568 -1.664631,-0.931459 -2.743385,-2.772036 -3.367094,-4.70541 -0.0017,-0.04628 0.0015,-0.09517 -0.0034,-0.139788 -0.009,0.009 -0.02174,0.02657 -0.03069,0.0358 -0.361092,-1.151822 -0.558955,-2.314374 -0.615453,-3.344931 0.541796,0.04467 1.081183,0.118184 1.623029,0.187525 -0.347238,0.7563 -0.55583,1.662262 -0.566017,2.760167 0.19039,-1.02264 0.524964,-1.8461 0.959837,-2.516373 0.364687,2.229448 1.025817,4.661678 1.982751,7.008674 0,0 1.09042,-0.497818 1.010978,-0.497818 v -0.0034 c -0.945283,-2.833293 -1.510363,-5.70601 -1.571878,-7.963392 1.158857,-0.767242 2.593115,-1.016567 4.055858,-0.942788 z m 6.072707,1.953771 c 0.932632,0.59825 1.52741,1.211379 1.496865,1.648596 -0.0498,0.421736 -0.537288,0.583042 -1.11839,0.685356 -0.442652,-0.231846 -0.917388,-0.454769 -1.415029,-0.671716 0.36875,-0.543745 0.711831,-1.099702 1.036554,-1.662236 z m -1.099634,3.494957 c 1.521624,0.94048 2.406442,1.959739 2.247001,2.923835 -0.231534,1.021889 -2.094905,1.12837 -3.662034,1.452538 0.870979,-1.401974 1.433544,-2.92092 1.415033,-4.376373 z m -12.194853,1.689517 c 0.745898,1.439196 1.738563,2.6816 2.968159,3.41142 -1.546159,0.786351 -2.838261,1.006741 -3.568269,0.38871 -0.74451,-0.707388 0.07057,-2.311903 0.60011,-3.80013 z m 4.633803,4.338863 c 0.297723,0.602381 0.620552,1.187364 0.958134,1.759415 -0.937005,0.499823 -1.725991,0.710384 -2.085043,0.480771 -0.37982,-0.270439 -0.228054,-0.855246 0,-1.479818 0.370186,-0.233675 0.745856,-0.486203 1.126909,-0.760368 z"
       inkscape:connector-curvature="0"
       style="fill:url(#linearGradient895);fill-opacity:1;stroke-width:0.872889;enable-background:new" />
  </g>
</svg>
