<?xml version="1.0" encoding="UTF-8" standalone="no"?>
<svg
   width="128"
   height="128"
   viewBox="0 0 33.866666 33.866668"
   version="1.1"
   id="svg1829"
   inkscape:version="1.1.2 (0a00cf5339, 2022-02-04)"
   sodipodi:docname="blackmagic-Fusion8.svg"
   xmlns:inkscape="http://www.inkscape.org/namespaces/inkscape"
   xmlns:sodipodi="http://sodipodi.sourceforge.net/DTD/sodipodi-0.dtd"
   xmlns:xlink="http://www.w3.org/1999/xlink"
   xmlns="http://www.w3.org/2000/svg"
   xmlns:svg="http://www.w3.org/2000/svg"
   xmlns:rdf="http://www.w3.org/1999/02/22-rdf-syntax-ns#"
   xmlns:cc="http://creativecommons.org/ns#"
   xmlns:dc="http://purl.org/dc/elements/1.1/">
  <defs
     id="defs1823">
    <linearGradient
       inkscape:collect="always"
       id="linearGradient4057">
      <stop
         style="stop-color:#ffffff;stop-opacity:1;"
         offset="0"
         id="stop4053" />
      <stop
         style="stop-color:#0670ff;stop-opacity:1"
         offset="1"
         id="stop4055" />
    </linearGradient>
    <linearGradient
       inkscape:collect="always"
       id="linearGradient934">
      <stop
         style="stop-color:#0dbbff;stop-opacity:1"
         offset="0"
         id="stop930" />
      <stop
         style="stop-color:#0245ff;stop-opacity:1"
         offset="1"
         id="stop932" />
    </linearGradient>
    <radialGradient
       inkscape:collect="always"
       xlink:href="#linearGradient934"
       id="radialGradient908"
       cx="16.936953"
       cy="3.2428353"
       fx="16.936953"
       fy="3.2428353"
       r="14.54372"
       gradientUnits="userSpaceOnUse"
       gradientTransform="matrix(4.4791718,0,0,2.0391647,-58.926568,-3.3698399)" />
    <linearGradient
       id="b"
       x1="24.586"
       x2="24.586"
       y1="12.173"
       y2="68.517754"
       gradientTransform="matrix(0.7932033,0,0,0.7932033,-1.8105302,-2.3385477)"
       gradientUnits="userSpaceOnUse">
      <stop
         offset="0"
         stop-color="#fff"
         id="stop7" />
      <stop
         offset="1"
         stop-color="#e8e8e8"
         id="stop9"
         style="stop-color:#0568ff;stop-opacity:1" />
    </linearGradient>
    <linearGradient
       inkscape:collect="always"
       xlink:href="#linearGradient4057"
       id="linearGradient4059"
       x1="16.574045"
       y1="11.638978"
       x2="16.574045"
       y2="37.020988"
       gradientUnits="userSpaceOnUse"
       gradientTransform="matrix(2.9282248,0,0,2.9282248,-40.99455,-33.242898)" />
  </defs>
  <sodipodi:namedview
     id="base"
     pagecolor="#ffffff"
     bordercolor="#666666"
     borderopacity="1.0"
     inkscape:pageopacity="0.0"
     inkscape:pageshadow="2"
     inkscape:zoom="0.5"
     inkscape:cx="-466"
     inkscape:cy="85"
     inkscape:document-units="mm"
     inkscape:current-layer="layer1"
     inkscape:document-rotation="0"
     showgrid="false"
     units="px"
     inkscape:window-width="1920"
     inkscape:window-height="1030"
     inkscape:window-x="0"
     inkscape:window-y="24"
     inkscape:window-maximized="1"
     inkscape:pagecheckerboard="0" />
  <metadata
     id="metadata1826">
    <rdf:RDF>
      <cc:Work
         rdf:about="">
        <dc:format>image/svg+xml</dc:format>
        <dc:type
           rdf:resource="http://purl.org/dc/dcmitype/StillImage" />
      </cc:Work>
    </rdf:RDF>
  </metadata>
  <g
     inkscape:label="Capa 1"
     inkscape:groupmode="layer"
     id="layer1">
    <g
       id="g1702"
       transform="matrix(0.97573206,0,0,0.97573206,-65.58674,-37.192363)"
       style="opacity:0.296765">
      <rect
         style="fill:none;fill-opacity:1;stroke:#000000;stroke-width:0.1;stroke-linecap:round;stroke-linejoin:round;stroke-miterlimit:4;stroke-dasharray:none;stroke-opacity:0.02"
         id="rect1634"
         width="29.810888"
         height="29.810888"
         x="69.839508"
         y="40.709618"
         rx="6.6098609"
         ry="6.6098609" />
      <rect
         ry="6.6098609"
         rx="6.6098609"
         y="40.709618"
         x="69.839508"
         height="29.810888"
         width="29.810888"
         id="rect1638"
         style="fill:none;fill-opacity:1;stroke:#000000;stroke-width:0.2;stroke-linecap:round;stroke-linejoin:round;stroke-miterlimit:4;stroke-dasharray:none;stroke-opacity:0.02" />
      <rect
         style="fill:none;fill-opacity:1;stroke:#000000;stroke-width:0.3;stroke-linecap:round;stroke-linejoin:round;stroke-miterlimit:4;stroke-dasharray:none;stroke-opacity:0.02"
         id="rect1640"
         width="29.810888"
         height="29.810888"
         x="69.839508"
         y="40.709618"
         rx="6.6098609"
         ry="6.6098609" />
      <rect
         ry="6.6098609"
         rx="6.6098609"
         y="40.709618"
         x="69.839508"
         height="29.810888"
         width="29.810888"
         id="rect1642"
         style="fill:none;fill-opacity:1;stroke:#000000;stroke-width:0.4;stroke-linecap:round;stroke-linejoin:round;stroke-miterlimit:4;stroke-dasharray:none;stroke-opacity:0.02" />
      <rect
         style="fill:none;fill-opacity:1;stroke:#000000;stroke-width:0.5;stroke-linecap:round;stroke-linejoin:round;stroke-miterlimit:4;stroke-dasharray:none;stroke-opacity:0.02"
         id="rect1644"
         width="29.810888"
         height="29.810888"
         x="69.839508"
         y="40.709618"
         rx="6.6098609"
         ry="6.6098609" />
      <rect
         ry="6.6098609"
         rx="6.6098609"
         y="40.709618"
         x="69.839508"
         height="29.810888"
         width="29.810888"
         id="rect1646"
         style="fill:none;fill-opacity:1;stroke:#000000;stroke-width:0.6;stroke-linecap:round;stroke-linejoin:round;stroke-miterlimit:4;stroke-dasharray:none;stroke-opacity:0.02" />
      <rect
         style="fill:none;fill-opacity:1;stroke:#000000;stroke-width:0.7;stroke-linecap:round;stroke-linejoin:round;stroke-miterlimit:4;stroke-dasharray:none;stroke-opacity:0.02"
         id="rect1648"
         width="29.810888"
         height="29.810888"
         x="69.839508"
         y="40.709618"
         rx="6.6098609"
         ry="6.6098609" />
      <rect
         ry="6.6098609"
         rx="6.6098609"
         y="40.709618"
         x="69.839508"
         height="29.810888"
         width="29.810888"
         id="rect1650"
         style="fill:none;fill-opacity:1;stroke:#000000;stroke-width:0.8;stroke-linecap:round;stroke-linejoin:round;stroke-miterlimit:4;stroke-dasharray:none;stroke-opacity:0.02" />
      <rect
         style="fill:none;fill-opacity:1;stroke:#000000;stroke-width:1;stroke-linecap:round;stroke-linejoin:round;stroke-miterlimit:4;stroke-dasharray:none;stroke-opacity:0.02"
         id="rect1652"
         width="29.810888"
         height="29.810888"
         x="69.839508"
         y="40.709618"
         rx="6.6098609"
         ry="6.6098609" />
      <rect
         ry="6.6098609"
         rx="6.6098609"
         y="40.709618"
         x="69.839508"
         height="29.810888"
         width="29.810888"
         id="rect1654"
         style="fill:none;fill-opacity:1;stroke:#000000;stroke-width:1.2;stroke-linecap:round;stroke-linejoin:round;stroke-miterlimit:4;stroke-dasharray:none;stroke-opacity:0.02" />
      <rect
         style="fill:none;fill-opacity:1;stroke:#000000;stroke-width:1.4;stroke-linecap:round;stroke-linejoin:round;stroke-miterlimit:4;stroke-dasharray:none;stroke-opacity:0.02"
         id="rect1656"
         width="29.810888"
         height="29.810888"
         x="69.839508"
         y="40.709618"
         rx="6.6098609"
         ry="6.6098609" />
      <rect
         ry="6.6098609"
         rx="6.6098609"
         y="40.709618"
         x="69.839508"
         height="29.810888"
         width="29.810888"
         id="rect1658"
         style="fill:none;fill-opacity:1;stroke:#000000;stroke-width:1.6;stroke-linecap:round;stroke-linejoin:round;stroke-miterlimit:4;stroke-dasharray:none;stroke-opacity:0.02" />
      <rect
         style="fill:none;fill-opacity:1;stroke:#000000;stroke-width:1.8;stroke-linecap:round;stroke-linejoin:round;stroke-miterlimit:4;stroke-dasharray:none;stroke-opacity:0.02"
         id="rect1660"
         width="29.810888"
         height="29.810888"
         x="69.839508"
         y="40.709618"
         rx="6.6098609"
         ry="6.6098609" />
      <rect
         ry="6.6098609"
         rx="6.6098609"
         y="40.709618"
         x="69.839508"
         height="29.810888"
         width="29.810888"
         id="rect1662"
         style="fill:none;fill-opacity:1;stroke:#000000;stroke-width:2;stroke-linecap:round;stroke-linejoin:round;stroke-miterlimit:4;stroke-dasharray:none;stroke-opacity:0.02" />
      <rect
         style="fill:none;fill-opacity:1;stroke:#000000;stroke-width:2.2;stroke-linecap:round;stroke-linejoin:round;stroke-miterlimit:4;stroke-dasharray:none;stroke-opacity:0.02"
         id="rect1664"
         width="29.810888"
         height="29.810888"
         x="69.839508"
         y="40.709618"
         rx="6.6098609"
         ry="6.6098609" />
      <rect
         ry="6.6098609"
         rx="6.6098609"
         y="40.709618"
         x="69.839508"
         height="29.810888"
         width="29.810888"
         id="rect1666"
         style="fill:none;fill-opacity:1;stroke:#000000;stroke-width:2.6;stroke-linecap:round;stroke-linejoin:round;stroke-miterlimit:4;stroke-dasharray:none;stroke-opacity:0.02" />
      <rect
         style="fill:none;fill-opacity:1;stroke:#000000;stroke-width:3;stroke-linecap:round;stroke-linejoin:round;stroke-miterlimit:4;stroke-dasharray:none;stroke-opacity:0.02"
         id="rect1668"
         width="29.810888"
         height="29.810888"
         x="69.839508"
         y="40.709618"
         rx="6.6098609"
         ry="6.6098609" />
      <rect
         ry="6.6098609"
         rx="6.6098609"
         y="40.709618"
         x="69.839508"
         height="29.810888"
         width="29.810888"
         id="rect1670"
         style="fill:none;fill-opacity:1;stroke:#000000;stroke-width:3.4;stroke-linecap:round;stroke-linejoin:round;stroke-miterlimit:4;stroke-dasharray:none;stroke-opacity:0.02" />
      <rect
         style="fill:none;fill-opacity:1;stroke:#000000;stroke-width:3.8;stroke-linecap:round;stroke-linejoin:round;stroke-miterlimit:4;stroke-dasharray:none;stroke-opacity:0.02"
         id="rect1672"
         width="29.810888"
         height="29.810888"
         x="69.839508"
         y="40.709618"
         rx="6.6098609"
         ry="6.6098609" />
      <rect
         ry="6.6098609"
         rx="6.6098609"
         y="40.709618"
         x="69.839508"
         height="29.810888"
         width="29.810888"
         id="rect1674"
         style="fill:none;fill-opacity:1;stroke:#000000;stroke-width:4.2;stroke-linecap:round;stroke-linejoin:round;stroke-miterlimit:4;stroke-dasharray:none;stroke-opacity:0.02" />
      <rect
         style="fill:none;fill-opacity:1;stroke:#000000;stroke-width:4.6;stroke-linecap:round;stroke-linejoin:round;stroke-miterlimit:4;stroke-dasharray:none;stroke-opacity:0.02"
         id="rect1676"
         width="29.810888"
         height="29.810888"
         x="69.839508"
         y="40.709618"
         rx="6.6098609"
         ry="6.6098609" />
      <rect
         ry="6.6098609"
         rx="6.6098609"
         y="40.709618"
         x="69.839508"
         height="29.810888"
         width="29.810888"
         id="rect1678"
         style="fill:none;fill-opacity:1;stroke:#000000;stroke-width:5;stroke-linecap:round;stroke-linejoin:round;stroke-miterlimit:4;stroke-dasharray:none;stroke-opacity:0.02" />
    </g>
    <rect
       style="fill:url(#radialGradient908);fill-opacity:1;stroke-width:2.68769;stroke-linecap:round;stroke-linejoin:round"
       id="rect849-5"
       width="29.08744"
       height="29.08744"
       x="2.5579116"
       y="2.5293181"
       rx="6.4494534"
       ry="6.4494534" />
    <g
       id="g7014"
       style="opacity:0.792224;fill:#00003d;fill-opacity:0.01">
      <path
         style="fill:#00003d;fill-opacity:0.01;stroke-width:0.774759"
         d="m 17.199091,23.368173 c -0.126528,0.0079 -0.252735,0.02929 -0.375276,0.06205 -0.490175,0.131331 -0.922021,0.463904 -1.175757,0.903385 -0.253731,0.43948 -0.325031,0.980654 -0.193703,1.470832 0.131331,0.490177 0.463904,0.922022 0.903384,1.175756 0.439479,0.25373 0.980657,0.325032 1.470833,0.193701 0.490175,-0.13133 0.922024,-0.463901 1.175758,-0.90338 0.25373,-0.43948 0.325034,-0.980657 0.193702,-1.470832 -0.131331,-0.49018 -0.463904,-0.922025 -0.903383,-1.175762 -0.32961,-0.190306 -0.715946,-0.279206 -1.095558,-0.255722 z m 5.449039,-7.749364 c -0.555287,0.01522 -1.107412,0.192677 -1.557083,0.519027 -0.521455,0.378432 -0.891547,0.923132 -1.298328,1.422411 -0.203394,0.249632 -0.419324,0.49083 -0.668835,0.694561 -0.249514,0.203716 -0.534515,0.370678 -0.84588,0.453959 -0.311363,0.08327 -0.641242,0.08064 -0.959371,0.02869 -0.318128,-0.05189 -0.626409,-0.153145 -0.927591,-0.267844 -0.602366,-0.229367 -1.19437,-0.51663 -1.835517,-0.584095 -0.884613,-0.09309 -1.805493,0.273671 -2.383291,0.948776 -0.577799,0.675109 -0.796164,1.640614 -0.565938,2.498297 0.230217,0.857685 0.901641,1.583127 1.740182,1.879396 0.838542,0.296272 1.819678,0.154435 2.539152,-0.367705 0.521455,-0.378432 0.891549,-0.923133 1.298328,-1.42241 0.203394,-0.24963 0.419325,-0.490831 0.668836,-0.69456 0.249514,-0.203745 0.534515,-0.370678 0.845879,-0.453962 0.311367,-0.08327 0.641243,-0.08064 0.959371,-0.02869 0.318129,0.05189 0.626409,0.153145 0.927595,0.267844 0.602362,0.229368 1.194367,0.51663 1.835513,0.584096 0.884615,0.09309 1.805494,-0.273672 2.383294,-0.948777 0.577798,-0.675108 0.796161,-1.640614 0.565935,-2.498297 C 25.140164,16.791841 24.468743,16.066402 23.630199,15.77013 23.315746,15.659029 22.981305,15.609693 22.64813,15.6188 Z M 22.484706,7.871472 c -0.740383,0.019912 -1.476551,0.2506569 -2.076113,0.6748888 -0.695272,0.4919622 -1.187217,1.2015831 -1.729589,1.8506462 -0.271182,0.32453 -0.560107,0.637019 -0.892789,0.901867 -0.332681,0.264859 -0.712182,0.48037 -1.127337,0.588638 -0.415152,0.108261 -0.854485,0.106824 -1.278657,0.03932 -0.42417,-0.06747 -0.836221,-0.198944 -1.237798,-0.348037 -0.803153,-0.298166 -1.593499,-0.671919 -2.448362,-0.759626 -1.179486,-0.121023 -2.4073253,0.355622 -3.1777244,1.23326 -0.7703978,0.877636 -1.0620521,2.132341 -0.7550863,3.247331 0.3069657,1.114989 1.2047104,2.058668 2.3227637,2.44382 1.118056,0.385155 2.425737,0.200613 3.385034,-0.478171 0.695276,-0.491962 1.187217,-1.201585 1.729589,-1.850646 0.271182,-0.324532 0.560108,-0.637021 0.892789,-0.901869 0.332681,-0.264859 0.712182,-0.48037 1.127337,-0.588636 0.415152,-0.10825 0.854486,-0.106824 1.278656,-0.03936 0.424171,0.06747 0.836222,0.198944 1.237798,0.348037 0.803155,0.298166 1.5935,0.671922 2.448363,0.759629 1.179486,0.121023 2.407326,-0.355622 3.177724,-1.23326 0.770398,-0.877639 1.062053,-2.132343 0.755087,-3.247331 C 25.809425,9.3969903 24.911681,8.4533106 23.793626,8.0681557 23.374355,7.9237358 22.928936,7.8595785 22.484706,7.8714378 Z"
         id="path6810" />
      <path
         style="fill:#00003d;fill-opacity:0.01;stroke-width:0.774759"
         d="m 17.298075,23.503035 c -0.126528,0.0079 -0.252735,0.02929 -0.375276,0.06205 -0.490175,0.131331 -0.922021,0.463904 -1.175757,0.903385 -0.253731,0.43948 -0.325031,0.980654 -0.193703,1.470832 0.131331,0.490177 0.463904,0.922022 0.903384,1.175756 0.439479,0.25373 0.980657,0.325032 1.470833,0.193701 0.490175,-0.13133 0.922024,-0.463901 1.175758,-0.90338 0.25373,-0.43948 0.325034,-0.980657 0.193702,-1.470832 -0.131331,-0.49018 -0.463904,-0.922025 -0.903383,-1.175762 -0.32961,-0.190306 -0.715946,-0.279206 -1.095558,-0.255722 z m 5.449039,-7.749364 c -0.555287,0.01522 -1.107412,0.192677 -1.557083,0.519027 -0.521455,0.378432 -0.891547,0.923132 -1.298328,1.422411 -0.203394,0.249632 -0.419324,0.49083 -0.668835,0.694561 -0.249514,0.203716 -0.534515,0.370678 -0.84588,0.453959 -0.311363,0.08327 -0.641242,0.08064 -0.959371,0.02869 -0.318128,-0.05189 -0.626409,-0.153145 -0.927591,-0.267844 -0.602366,-0.229367 -1.19437,-0.51663 -1.835517,-0.584095 -0.884613,-0.09309 -1.805493,0.273671 -2.383291,0.948776 -0.577799,0.675109 -0.796164,1.640614 -0.565938,2.498297 0.230217,0.857685 0.901641,1.583127 1.740182,1.879396 0.838542,0.296272 1.819678,0.154435 2.539152,-0.367705 0.521455,-0.378432 0.891549,-0.923133 1.298328,-1.42241 0.203394,-0.24963 0.419325,-0.490831 0.668836,-0.69456 0.249514,-0.203745 0.534515,-0.370678 0.845879,-0.453962 0.311367,-0.08327 0.641243,-0.08064 0.959371,-0.02869 0.318129,0.05189 0.626409,0.153145 0.927595,0.267844 0.602362,0.229368 1.194367,0.51663 1.835513,0.584096 0.884615,0.09309 1.805494,-0.273672 2.383294,-0.948777 0.577798,-0.675108 0.796161,-1.640614 0.565935,-2.498297 -0.230217,-0.857685 -0.901638,-1.583124 -1.740182,-1.879396 -0.314453,-0.111101 -0.648894,-0.160437 -0.982069,-0.15133 z M 22.58369,8.0063339 c -0.740383,0.019912 -1.476551,0.2506569 -2.076113,0.6748888 -0.695272,0.4919622 -1.187217,1.2015831 -1.729589,1.8506463 -0.271182,0.32453 -0.560107,0.637019 -0.892789,0.901867 -0.332681,0.264859 -0.712182,0.48037 -1.127337,0.588638 -0.415152,0.108261 -0.854485,0.106824 -1.278657,0.03932 -0.42417,-0.06747 -0.836221,-0.198944 -1.237798,-0.348037 -0.803153,-0.298166 -1.593499,-0.671919 -2.448362,-0.759626 -1.179486,-0.121023 -2.4073256,0.355622 -3.1777247,1.23326 -0.7703978,0.877636 -1.0620521,2.132341 -0.7550863,3.247331 0.3069657,1.114989 1.2047104,2.058668 2.322764,2.44382 1.118056,0.385155 2.425737,0.200613 3.385034,-0.478171 0.695276,-0.491962 1.187217,-1.201585 1.729589,-1.850646 0.271182,-0.324532 0.560108,-0.637021 0.892789,-0.901869 0.332681,-0.264859 0.712182,-0.48037 1.127337,-0.588636 0.415152,-0.10825 0.854486,-0.106824 1.278656,-0.03936 0.424171,0.06747 0.836222,0.198944 1.237798,0.348037 0.803155,0.298166 1.5935,0.671922 2.448363,0.759629 1.179486,0.121023 2.407326,-0.355622 3.177724,-1.23326 0.770398,-0.877639 1.062053,-2.132343 0.755087,-3.247331 C 25.908409,9.5318522 25.010665,8.5881725 23.89261,8.2030176 23.473339,8.0585977 23.02792,7.9944404 22.58369,8.0062997 Z"
         id="path6956" />
      <path
         style="fill:#00003d;fill-opacity:0.01;stroke-width:0.774759"
         d="m 17.359472,23.629862 c -0.126528,0.0079 -0.252735,0.02929 -0.375276,0.06205 -0.490175,0.131331 -0.922021,0.463904 -1.175757,0.903385 -0.253731,0.43948 -0.325031,0.980654 -0.193703,1.470832 0.131331,0.490177 0.463904,0.922022 0.903384,1.175756 0.439479,0.25373 0.980657,0.325032 1.470833,0.193701 0.490175,-0.13133 0.922024,-0.463901 1.175758,-0.90338 0.25373,-0.43948 0.325034,-0.980657 0.193702,-1.470832 -0.131331,-0.49018 -0.463904,-0.922025 -0.903383,-1.175762 -0.32961,-0.190306 -0.715946,-0.279206 -1.095558,-0.255722 z m 5.449039,-7.749364 c -0.555287,0.01522 -1.107412,0.192677 -1.557083,0.519027 -0.521455,0.378432 -0.891547,0.923132 -1.298328,1.422411 -0.203394,0.249632 -0.419324,0.49083 -0.668835,0.694561 -0.249514,0.203716 -0.534515,0.370678 -0.84588,0.453959 -0.311363,0.08327 -0.641242,0.08064 -0.959371,0.02869 -0.318128,-0.05189 -0.626409,-0.153145 -0.927591,-0.267844 -0.602366,-0.229367 -1.19437,-0.51663 -1.835517,-0.584095 -0.884613,-0.09309 -1.805493,0.273671 -2.383291,0.948776 -0.577799,0.675109 -0.796164,1.640614 -0.565938,2.498297 0.230217,0.857685 0.901641,1.583127 1.740182,1.879396 0.838542,0.296272 1.819678,0.154435 2.539152,-0.367705 0.521455,-0.378432 0.891549,-0.923133 1.298328,-1.42241 0.203394,-0.24963 0.419325,-0.490831 0.668836,-0.69456 0.249514,-0.203745 0.534515,-0.370678 0.845879,-0.453962 0.311367,-0.08327 0.641243,-0.08064 0.959371,-0.02869 0.318129,0.05189 0.626409,0.153145 0.927595,0.267844 0.602362,0.229368 1.194367,0.51663 1.835513,0.584096 0.884615,0.09309 1.805494,-0.273672 2.383294,-0.948777 0.577798,-0.675108 0.796161,-1.640614 0.565935,-2.498297 -0.230217,-0.857685 -0.901638,-1.583124 -1.740182,-1.879396 -0.314453,-0.111101 -0.648894,-0.160437 -0.982069,-0.15133 z M 22.645087,8.1331605 c -0.740383,0.019912 -1.476551,0.2506569 -2.076113,0.6748888 -0.695272,0.4919622 -1.187217,1.2015827 -1.729589,1.8506467 -0.271182,0.32453 -0.560107,0.637019 -0.892789,0.901867 -0.332681,0.264859 -0.712182,0.48037 -1.127337,0.588638 -0.415152,0.108261 -0.854485,0.106824 -1.278657,0.03932 -0.42417,-0.06747 -0.836221,-0.198944 -1.237798,-0.348037 -0.803153,-0.298166 -1.593499,-0.671919 -2.448362,-0.759626 -1.179486,-0.121023 -2.4073255,0.355622 -3.1777246,1.23326 -0.7703978,0.877636 -1.0620521,2.132341 -0.7550863,3.247331 0.3069657,1.114989 1.2047104,2.058668 2.3227639,2.44382 1.118056,0.385155 2.425737,0.200613 3.385034,-0.478171 0.695276,-0.491962 1.187217,-1.201585 1.729589,-1.850646 0.271182,-0.324532 0.560108,-0.637021 0.892789,-0.901869 0.332681,-0.264859 0.712182,-0.48037 1.127337,-0.588636 0.415152,-0.10825 0.854486,-0.106824 1.278656,-0.03936 0.424171,0.06747 0.836222,0.198944 1.237798,0.348037 0.803155,0.298166 1.5935,0.671922 2.448363,0.759629 1.179486,0.121023 2.407326,-0.355622 3.177724,-1.23326 0.770398,-0.877639 1.062053,-2.132343 0.755087,-3.247331 C 25.969806,9.6586788 25.072062,8.7149991 23.954007,8.3298442 23.534736,8.1854243 23.089317,8.121267 22.645087,8.1331263 Z"
         id="path6958" />
      <path
         style="fill:#00003d;fill-opacity:0.01;stroke-width:0.774759"
         d="m 17.401625,23.715234 c -0.126528,0.0079 -0.252735,0.02929 -0.375276,0.06205 -0.490175,0.131331 -0.922021,0.463904 -1.175757,0.903385 -0.253731,0.43948 -0.325031,0.980654 -0.193703,1.470832 0.131331,0.490177 0.463904,0.922022 0.903384,1.175756 0.439479,0.25373 0.980657,0.325032 1.470833,0.193701 0.490175,-0.13133 0.922024,-0.463901 1.175758,-0.90338 0.25373,-0.43948 0.325034,-0.980657 0.193702,-1.470832 -0.131331,-0.49018 -0.463904,-0.922025 -0.903383,-1.175762 -0.32961,-0.190306 -0.715946,-0.279206 -1.095558,-0.255722 z m 5.449039,-7.749364 c -0.555287,0.01522 -1.107412,0.192677 -1.557083,0.519027 -0.521455,0.378432 -0.891547,0.923132 -1.298328,1.422411 -0.203394,0.249632 -0.419324,0.49083 -0.668835,0.694561 -0.249514,0.203716 -0.534515,0.370678 -0.84588,0.453959 -0.311363,0.08327 -0.641242,0.08064 -0.959371,0.02869 -0.318128,-0.05189 -0.626409,-0.153145 -0.927591,-0.267844 -0.602366,-0.229367 -1.19437,-0.51663 -1.835517,-0.584095 -0.884613,-0.09309 -1.805493,0.273671 -2.383291,0.948776 -0.577799,0.675109 -0.796164,1.640614 -0.565938,2.498297 0.230217,0.857685 0.901641,1.583127 1.740182,1.879396 0.838542,0.296272 1.819678,0.154435 2.539152,-0.367705 0.521455,-0.378432 0.891549,-0.923133 1.298328,-1.42241 0.203394,-0.24963 0.419325,-0.490831 0.668836,-0.69456 0.249514,-0.203745 0.534515,-0.370678 0.845879,-0.453962 0.311367,-0.08327 0.641243,-0.08064 0.959371,-0.02869 0.318129,0.05189 0.626409,0.153145 0.927595,0.267844 0.602362,0.229368 1.194367,0.51663 1.835513,0.584096 0.884615,0.09309 1.805494,-0.273672 2.383294,-0.948777 0.577798,-0.675108 0.796161,-1.640614 0.565935,-2.498297 -0.230217,-0.857685 -0.901638,-1.583124 -1.740182,-1.879396 -0.314453,-0.111101 -0.648894,-0.160437 -0.982069,-0.15133 z M 22.68724,8.2185321 c -0.740383,0.019912 -1.476551,0.2506569 -2.076113,0.6748888 -0.695272,0.4919622 -1.187217,1.2015831 -1.729589,1.8506471 -0.271182,0.32453 -0.560107,0.637019 -0.892789,0.901867 -0.332681,0.264859 -0.712182,0.48037 -1.127337,0.588638 -0.415152,0.108261 -0.854485,0.106824 -1.278657,0.03932 -0.42417,-0.06747 -0.836221,-0.198944 -1.237798,-0.348037 -0.803153,-0.298166 -1.593499,-0.671919 -2.448362,-0.759626 -1.179486,-0.121023 -2.4073259,0.355622 -3.177725,1.23326 -0.7703978,0.877636 -1.0620521,2.132341 -0.7550863,3.247331 0.3069657,1.114989 1.2047104,2.058668 2.3227643,2.44382 1.118056,0.385155 2.425737,0.200613 3.385034,-0.478171 0.695276,-0.491962 1.187217,-1.201585 1.729589,-1.850646 0.271182,-0.324532 0.560108,-0.637021 0.892789,-0.901869 0.332681,-0.264859 0.712182,-0.48037 1.127337,-0.588636 0.415152,-0.10825 0.854486,-0.106824 1.278656,-0.03936 0.424171,0.06747 0.836222,0.198944 1.237798,0.348037 0.803155,0.298166 1.5935,0.671922 2.448363,0.759629 1.179486,0.121023 2.407326,-0.355622 3.177724,-1.23326 0.770398,-0.877639 1.062053,-2.132343 0.755087,-3.247331 C 26.011959,9.7440504 25.114215,8.8003707 23.99616,8.4152158 23.576889,8.2707958 23.13147,8.2066385 22.68724,8.2184979 Z"
         id="path6960" />
      <path
         style="fill:#00003d;fill-opacity:0.01;stroke-width:0.774759"
         d="m 17.432942,23.783401 c -0.126528,0.0079 -0.252735,0.02929 -0.375276,0.06205 -0.490175,0.131331 -0.922021,0.463904 -1.175757,0.903385 -0.253731,0.43948 -0.325031,0.980654 -0.193703,1.470832 0.131331,0.490177 0.463904,0.922022 0.903384,1.175756 0.439479,0.25373 0.980657,0.325032 1.470833,0.193701 0.490175,-0.13133 0.922024,-0.463901 1.175758,-0.90338 0.25373,-0.43948 0.325034,-0.980657 0.193702,-1.470832 -0.131331,-0.49018 -0.463904,-0.922025 -0.903383,-1.175762 -0.32961,-0.190306 -0.715946,-0.279206 -1.095558,-0.255722 z m 5.449039,-7.749364 c -0.555287,0.01522 -1.107412,0.192677 -1.557083,0.519027 -0.521455,0.378432 -0.891547,0.923132 -1.298328,1.422411 -0.203394,0.249632 -0.419324,0.49083 -0.668835,0.694561 -0.249514,0.203716 -0.534515,0.370678 -0.84588,0.453959 -0.311363,0.08327 -0.641242,0.08064 -0.959371,0.02869 -0.318128,-0.05189 -0.626409,-0.153145 -0.927591,-0.267844 -0.602366,-0.229367 -1.19437,-0.51663 -1.835517,-0.584095 -0.884613,-0.09309 -1.805493,0.273671 -2.383291,0.948776 -0.577799,0.675109 -0.796164,1.640614 -0.565938,2.498297 0.230217,0.857685 0.901641,1.583127 1.740182,1.879396 0.838542,0.296272 1.819678,0.154435 2.539152,-0.367705 0.521455,-0.378432 0.891549,-0.923133 1.298328,-1.42241 0.203394,-0.24963 0.419325,-0.490831 0.668836,-0.69456 0.249514,-0.203745 0.534515,-0.370678 0.845879,-0.453962 0.311367,-0.08327 0.641243,-0.08064 0.959371,-0.02869 0.318129,0.05189 0.626409,0.153145 0.927595,0.267844 0.602362,0.229368 1.194367,0.51663 1.835513,0.584096 0.884615,0.09309 1.805494,-0.273672 2.383294,-0.948777 0.577798,-0.675108 0.796161,-1.640614 0.565935,-2.498297 -0.230217,-0.857685 -0.901638,-1.583124 -1.740182,-1.879396 -0.314453,-0.111101 -0.648894,-0.160437 -0.982069,-0.15133 z M 22.718557,8.2866993 c -0.740383,0.019912 -1.476551,0.2506569 -2.076113,0.6748888 -0.695272,0.4919622 -1.187217,1.2015829 -1.729589,1.8506469 -0.271182,0.32453 -0.560107,0.637019 -0.892789,0.901867 -0.332681,0.264859 -0.712182,0.48037 -1.127337,0.588638 -0.415152,0.108261 -0.854485,0.106824 -1.278657,0.03932 -0.42417,-0.06747 -0.836221,-0.198944 -1.237798,-0.348037 -0.803153,-0.298166 -1.593499,-0.671919 -2.448362,-0.759626 -1.179486,-0.121023 -2.4073263,0.355622 -3.1777254,1.23326 -0.7703978,0.877636 -1.0620521,2.132341 -0.7550863,3.247331 0.3069657,1.114989 1.2047104,2.058668 2.3227647,2.44382 1.118056,0.385155 2.425737,0.200613 3.385034,-0.478171 0.695276,-0.491962 1.187217,-1.201585 1.729589,-1.850646 0.271182,-0.324532 0.560108,-0.637021 0.892789,-0.901869 0.332681,-0.264859 0.712182,-0.48037 1.127337,-0.588636 0.415152,-0.10825 0.854486,-0.106824 1.278656,-0.03936 0.424171,0.06747 0.836222,0.198944 1.237798,0.348037 0.803155,0.298166 1.5935,0.671922 2.448363,0.759629 1.179486,0.121023 2.407326,-0.355622 3.177724,-1.23326 0.770398,-0.877639 1.062053,-2.132343 0.755087,-3.247331 -0.306966,-1.1149834 -1.20471,-2.0586631 -2.322765,-2.443818 -0.419271,-0.14442 -0.86469,-0.2085773 -1.30892,-0.1967179 z"
         id="path6962" />
      <path
         style="fill:#00003d;fill-opacity:0.01;stroke-width:0.774759"
         d="m 17.461876,23.83747 c -0.126528,0.0079 -0.252735,0.02929 -0.375276,0.06205 -0.490175,0.131331 -0.922021,0.463904 -1.175757,0.903385 -0.253731,0.43948 -0.325031,0.980654 -0.193703,1.470832 0.131331,0.490177 0.463904,0.922022 0.903384,1.175756 0.439479,0.25373 0.980657,0.325032 1.470833,0.193701 0.490175,-0.13133 0.922024,-0.463901 1.175758,-0.90338 0.25373,-0.43948 0.325034,-0.980657 0.193702,-1.470832 -0.131331,-0.49018 -0.463904,-0.922025 -0.903383,-1.175762 -0.32961,-0.190306 -0.715946,-0.279206 -1.095558,-0.255722 z m 5.449039,-7.749364 c -0.555287,0.01522 -1.107412,0.192677 -1.557083,0.519027 -0.521455,0.378432 -0.891547,0.923132 -1.298328,1.422411 -0.203394,0.249632 -0.419324,0.49083 -0.668835,0.694561 -0.249514,0.203716 -0.534515,0.370678 -0.84588,0.453959 -0.311363,0.08327 -0.641242,0.08064 -0.959371,0.02869 -0.318128,-0.05189 -0.626409,-0.153145 -0.927591,-0.267844 -0.602366,-0.229367 -1.19437,-0.51663 -1.835517,-0.584095 -0.884613,-0.09309 -1.805493,0.273671 -2.383291,0.948776 -0.577799,0.675109 -0.796164,1.640614 -0.565938,2.498297 0.230217,0.857685 0.901641,1.583127 1.740182,1.879396 0.838542,0.296272 1.819678,0.154435 2.539152,-0.367705 0.521455,-0.378432 0.891549,-0.923133 1.298328,-1.42241 0.203394,-0.24963 0.419325,-0.490831 0.668836,-0.69456 0.249514,-0.203745 0.534515,-0.370678 0.845879,-0.453962 0.311367,-0.08327 0.641243,-0.08064 0.959371,-0.02869 0.318129,0.05189 0.626409,0.153145 0.927595,0.267844 0.602362,0.229368 1.194367,0.51663 1.835513,0.584096 0.884615,0.09309 1.805494,-0.273672 2.383294,-0.948777 0.577798,-0.675108 0.796161,-1.640614 0.565935,-2.498297 -0.230217,-0.857685 -0.901638,-1.583124 -1.740182,-1.879396 -0.314453,-0.111101 -0.648894,-0.160437 -0.982069,-0.15133 z M 22.747491,8.340768 C 22.007108,8.36068 21.27094,8.5914249 20.671378,9.0156568 19.976106,9.507619 19.484161,10.21724 18.941789,10.866304 c -0.271182,0.32453 -0.560107,0.637019 -0.892789,0.901867 -0.332681,0.264859 -0.712182,0.48037 -1.127337,0.588638 -0.415152,0.108261 -0.854485,0.106824 -1.278657,0.03932 -0.42417,-0.06747 -0.836221,-0.198944 -1.237798,-0.348037 -0.803153,-0.298166 -1.593499,-0.671919 -2.448362,-0.759626 -1.179486,-0.121023 -2.4073264,0.355622 -3.1777255,1.23326 -0.7703978,0.877636 -1.0620521,2.132341 -0.7550863,3.247331 0.3069657,1.114989 1.2047104,2.058668 2.3227648,2.44382 1.118056,0.385155 2.425737,0.200613 3.385034,-0.478171 0.695276,-0.491962 1.187217,-1.201585 1.729589,-1.850646 0.271182,-0.324532 0.560108,-0.637021 0.892789,-0.901869 0.332681,-0.264859 0.712182,-0.48037 1.127337,-0.588636 0.415152,-0.10825 0.854486,-0.106824 1.278656,-0.03936 0.424171,0.06747 0.836222,0.198944 1.237798,0.348037 0.803155,0.298166 1.5935,0.671922 2.448363,0.759629 1.179486,0.121023 2.407326,-0.355622 3.177724,-1.23326 0.770398,-0.877639 1.062053,-2.132343 0.755087,-3.247331 C 26.07221,9.8662863 25.174466,8.9226066 24.056411,8.5374517 23.63714,8.3930317 23.191721,8.3288744 22.747491,8.3407338 Z"
         id="path6964" />
      <path
         style="fill:#00003d;fill-opacity:0.01;stroke-width:0.774759"
         d="m 17.473688,23.9081 c -0.126528,0.0079 -0.252735,0.02929 -0.375276,0.06205 -0.490175,0.131331 -0.922021,0.463904 -1.175757,0.903385 -0.253731,0.43948 -0.325031,0.980654 -0.193703,1.470832 0.131331,0.490177 0.463904,0.922022 0.903384,1.175756 0.439479,0.25373 0.980657,0.325032 1.470833,0.193701 0.490175,-0.13133 0.922024,-0.463901 1.175758,-0.90338 0.25373,-0.43948 0.325034,-0.980657 0.193702,-1.470832 -0.131331,-0.49018 -0.463904,-0.922025 -0.903383,-1.175762 -0.32961,-0.190306 -0.715946,-0.279206 -1.095558,-0.255722 z m 5.449039,-7.749364 c -0.555287,0.01522 -1.107412,0.192677 -1.557083,0.519027 -0.521455,0.378432 -0.891547,0.923132 -1.298328,1.422411 -0.203394,0.249632 -0.419324,0.49083 -0.668835,0.694561 -0.249514,0.203716 -0.534515,0.370678 -0.84588,0.453959 -0.311363,0.08327 -0.641242,0.08064 -0.959371,0.02869 -0.318128,-0.05189 -0.626409,-0.153145 -0.927591,-0.267844 -0.602366,-0.229367 -1.19437,-0.51663 -1.835517,-0.584095 -0.884613,-0.09309 -1.805493,0.273671 -2.383291,0.948776 -0.577799,0.675109 -0.796164,1.640614 -0.565938,2.498297 0.230217,0.857685 0.901641,1.583127 1.740182,1.879396 0.838542,0.296272 1.819678,0.154435 2.539152,-0.367705 0.521455,-0.378432 0.891549,-0.923133 1.298328,-1.42241 0.203394,-0.24963 0.419325,-0.490831 0.668836,-0.69456 0.249514,-0.203745 0.534515,-0.370678 0.845879,-0.453962 0.311367,-0.08327 0.641243,-0.08064 0.959371,-0.02869 0.318129,0.05189 0.626409,0.153145 0.927595,0.267844 0.602362,0.229368 1.194367,0.51663 1.835513,0.584096 0.884615,0.09309 1.805494,-0.273672 2.383294,-0.948777 0.577798,-0.675108 0.796161,-1.640614 0.565935,-2.498297 -0.230217,-0.857685 -0.901638,-1.583124 -1.740182,-1.879396 -0.314453,-0.111101 -0.648894,-0.160437 -0.982069,-0.15133 z M 22.759303,8.4113976 c -0.740383,0.019912 -1.476551,0.2506569 -2.076113,0.6748888 -0.695272,0.4919622 -1.187217,1.2015836 -1.729589,1.8506476 -0.271182,0.32453 -0.560107,0.637019 -0.892789,0.901867 -0.332681,0.264859 -0.712182,0.48037 -1.127337,0.588638 -0.415152,0.108261 -0.854485,0.106824 -1.278657,0.03932 -0.42417,-0.06747 -0.836221,-0.198944 -1.237798,-0.348037 -0.803153,-0.298166 -1.593499,-0.671919 -2.448362,-0.759626 -1.179486,-0.121023 -2.4073266,0.355622 -3.1777257,1.23326 -0.7703978,0.877636 -1.0620521,2.132341 -0.7550863,3.247331 0.3069657,1.114989 1.2047104,2.058668 2.322765,2.44382 1.118056,0.385155 2.425737,0.200613 3.385034,-0.478171 0.695276,-0.491962 1.187217,-1.201585 1.729589,-1.850646 0.271182,-0.324532 0.560108,-0.637021 0.892789,-0.901869 0.332681,-0.264859 0.712182,-0.48037 1.127337,-0.588636 0.415152,-0.10825 0.854486,-0.106824 1.278656,-0.03936 0.424171,0.06747 0.836222,0.198944 1.237798,0.348037 0.803155,0.298166 1.5935,0.671922 2.448363,0.759629 1.179486,0.121023 2.407326,-0.355622 3.177724,-1.23326 0.770398,-0.877639 1.062053,-2.132343 0.755087,-3.247331 -0.306966,-1.1149841 -1.20471,-2.0586638 -2.322765,-2.4438187 -0.419271,-0.14442 -0.86469,-0.2085773 -1.30892,-0.1967179 z"
         id="path6966" />
      <path
         style="fill:#00003d;fill-opacity:0.01;stroke-width:0.774759"
         d="m 17.500121,23.945946 c -0.126528,0.0079 -0.252735,0.02929 -0.375276,0.06205 -0.490175,0.131331 -0.922021,0.463904 -1.175757,0.903385 -0.253731,0.43948 -0.325031,0.980654 -0.193703,1.470832 0.131331,0.490177 0.463904,0.922022 0.903384,1.175756 0.439479,0.25373 0.980657,0.325032 1.470833,0.193701 0.490175,-0.13133 0.922024,-0.463901 1.175758,-0.90338 0.25373,-0.43948 0.325034,-0.980657 0.193702,-1.470832 -0.131331,-0.49018 -0.463904,-0.922025 -0.903383,-1.175762 -0.32961,-0.190306 -0.715946,-0.279206 -1.095558,-0.255722 z m 5.449039,-7.749364 c -0.555287,0.01522 -1.107412,0.192677 -1.557083,0.519027 -0.521455,0.378432 -0.891547,0.923132 -1.298328,1.422411 -0.203394,0.249632 -0.419324,0.49083 -0.668835,0.694561 -0.249514,0.203716 -0.534515,0.370678 -0.84588,0.453959 -0.311363,0.08327 -0.641242,0.08064 -0.959371,0.02869 -0.318128,-0.05189 -0.626409,-0.153145 -0.927591,-0.267844 -0.602366,-0.229367 -1.19437,-0.51663 -1.835517,-0.584095 -0.884613,-0.09309 -1.805493,0.273671 -2.383291,0.948776 -0.577799,0.675109 -0.796164,1.640614 -0.565938,2.498297 0.230217,0.857685 0.901641,1.583127 1.740182,1.879396 0.838542,0.296272 1.819678,0.154435 2.539152,-0.367705 0.521455,-0.378432 0.891549,-0.923133 1.298328,-1.42241 0.203394,-0.24963 0.419325,-0.490831 0.668836,-0.69456 0.249514,-0.203745 0.534515,-0.370678 0.845879,-0.453962 0.311367,-0.08327 0.641243,-0.08064 0.959371,-0.02869 0.318129,0.05189 0.626409,0.153145 0.927595,0.267844 0.602362,0.229368 1.194367,0.51663 1.835513,0.584096 0.884615,0.09309 1.805494,-0.273672 2.383294,-0.948777 0.577798,-0.675108 0.796161,-1.640614 0.565935,-2.498297 -0.230217,-0.857685 -0.901638,-1.583124 -1.740182,-1.879396 -0.314453,-0.111101 -0.648894,-0.160437 -0.982069,-0.15133 z M 22.785736,8.449244 c -0.740383,0.019912 -1.476551,0.2506569 -2.076113,0.6748888 -0.695272,0.4919622 -1.187217,1.2015832 -1.729589,1.8506472 -0.271182,0.32453 -0.560107,0.637019 -0.892789,0.901867 -0.332681,0.264859 -0.712182,0.48037 -1.127337,0.588638 -0.415152,0.108261 -0.854485,0.106824 -1.278657,0.03932 -0.42417,-0.06747 -0.836221,-0.198944 -1.237798,-0.348037 -0.803153,-0.298166 -1.593499,-0.671919 -2.448362,-0.759626 -1.179486,-0.121023 -2.407327,0.355622 -3.1777261,1.23326 -0.7703978,0.877636 -1.0620521,2.132341 -0.7550863,3.247331 0.3069657,1.114989 1.2047104,2.058668 2.3227654,2.44382 1.118056,0.385155 2.425737,0.200613 3.385034,-0.478171 0.695276,-0.491962 1.187217,-1.201585 1.729589,-1.850646 0.271182,-0.324532 0.560108,-0.637021 0.892789,-0.901869 0.332681,-0.264859 0.712182,-0.48037 1.127337,-0.588636 0.415152,-0.10825 0.854486,-0.106824 1.278656,-0.03936 0.424171,0.06747 0.836222,0.198944 1.237798,0.348037 0.803155,0.298166 1.5935,0.671922 2.448363,0.759629 1.179486,0.121023 2.407326,-0.355622 3.177724,-1.23326 0.770398,-0.877639 1.062053,-2.132343 0.755087,-3.247331 -0.306966,-1.1149837 -1.20471,-2.0586634 -2.322765,-2.4438183 -0.419271,-0.14442 -0.86469,-0.2085773 -1.30892,-0.1967179 z"
         id="path6968" />
      <path
         style="fill:#00003d;fill-opacity:0.01;stroke-width:0.774759"
         d="m 17.52226,23.980745 c -0.126528,0.0079 -0.252735,0.02929 -0.375276,0.06205 -0.490175,0.131331 -0.922021,0.463904 -1.175757,0.903385 -0.253731,0.43948 -0.325031,0.980654 -0.193703,1.470832 0.131331,0.490177 0.463904,0.922022 0.903384,1.175756 0.439479,0.25373 0.980657,0.325032 1.470833,0.193701 0.490175,-0.13133 0.922024,-0.463901 1.175758,-0.90338 0.25373,-0.43948 0.325034,-0.980657 0.193702,-1.470832 -0.131331,-0.49018 -0.463904,-0.922025 -0.903383,-1.175762 -0.32961,-0.190306 -0.715946,-0.279206 -1.095558,-0.255722 z m 5.449039,-7.749364 c -0.555287,0.01522 -1.107412,0.192677 -1.557083,0.519027 -0.521455,0.378432 -0.891547,0.923132 -1.298328,1.422411 -0.203394,0.249632 -0.419324,0.49083 -0.668835,0.694561 -0.249514,0.203716 -0.534515,0.370678 -0.84588,0.453959 -0.311363,0.08327 -0.641242,0.08064 -0.959371,0.02869 -0.318128,-0.05189 -0.626409,-0.153145 -0.927591,-0.267844 -0.602366,-0.229367 -1.19437,-0.51663 -1.835517,-0.584095 -0.884613,-0.09309 -1.805493,0.273671 -2.383291,0.948776 -0.577799,0.675109 -0.796164,1.640614 -0.565938,2.498297 0.230217,0.857685 0.901641,1.583127 1.740182,1.879396 0.838542,0.296272 1.819678,0.154435 2.539152,-0.367705 0.521455,-0.378432 0.891549,-0.923133 1.298328,-1.42241 0.203394,-0.24963 0.419325,-0.490831 0.668836,-0.69456 0.249514,-0.203745 0.534515,-0.370678 0.845879,-0.453962 0.311367,-0.08327 0.641243,-0.08064 0.959371,-0.02869 0.318129,0.05189 0.626409,0.153145 0.927595,0.267844 0.602362,0.229368 1.194367,0.51663 1.835513,0.584096 0.884615,0.09309 1.805494,-0.273672 2.383294,-0.948777 0.577798,-0.675108 0.796161,-1.640614 0.565935,-2.498297 -0.230217,-0.857685 -0.901638,-1.583124 -1.740182,-1.879396 -0.314453,-0.111101 -0.648894,-0.160437 -0.982069,-0.15133 z M 22.807875,8.4840432 c -0.740383,0.019912 -1.476551,0.2506569 -2.076113,0.6748888 -0.695272,0.4919622 -1.187217,1.201583 -1.729589,1.850647 -0.271182,0.32453 -0.560107,0.637019 -0.892789,0.901867 -0.332681,0.264859 -0.712182,0.48037 -1.127337,0.588638 -0.415152,0.108261 -0.854485,0.106824 -1.278657,0.03932 -0.42417,-0.06747 -0.836221,-0.198944 -1.237798,-0.348037 -0.803153,-0.298166 -1.593499,-0.671919 -2.448362,-0.759626 -1.179486,-0.121023 -2.4073271,0.355622 -3.1777262,1.23326 -0.7703978,0.877636 -1.0620521,2.132341 -0.7550863,3.247331 0.3069657,1.114989 1.2047104,2.058668 2.3227655,2.44382 1.118056,0.385155 2.425737,0.200613 3.385034,-0.478171 0.695276,-0.491962 1.187217,-1.201585 1.729589,-1.850646 0.271182,-0.324532 0.560108,-0.637021 0.892789,-0.901869 0.332681,-0.264859 0.712182,-0.48037 1.127337,-0.588636 0.415152,-0.10825 0.854486,-0.106824 1.278656,-0.03936 0.424171,0.06747 0.836222,0.198944 1.237798,0.348037 0.803155,0.298166 1.5935,0.671922 2.448363,0.759629 1.179486,0.121023 2.407326,-0.355622 3.177724,-1.23326 0.770398,-0.877639 1.062053,-2.132343 0.755087,-3.247331 -0.306966,-1.114984 -1.20471,-2.0586632 -2.322765,-2.4438181 -0.419271,-0.14442 -0.86469,-0.2085773 -1.30892,-0.1967179 z"
         id="path6970" />
      <path
         style="fill:#00003d;fill-opacity:0.01;stroke-width:0.774759"
         d="m 17.544611,24.01295 c -0.126528,0.0079 -0.252735,0.02929 -0.375276,0.06205 -0.490175,0.131331 -0.922021,0.463904 -1.175757,0.903385 -0.253731,0.43948 -0.325031,0.980654 -0.193703,1.470832 0.131331,0.490177 0.463904,0.922022 0.903384,1.175756 0.439479,0.25373 0.980657,0.325032 1.470833,0.193701 0.490175,-0.13133 0.922024,-0.463901 1.175758,-0.90338 0.25373,-0.43948 0.325034,-0.980657 0.193702,-1.470832 -0.131331,-0.49018 -0.463904,-0.922025 -0.903383,-1.175762 -0.32961,-0.190306 -0.715946,-0.279206 -1.095558,-0.255722 z m 5.449039,-7.749364 c -0.555287,0.01522 -1.107412,0.192677 -1.557083,0.519027 -0.521455,0.378432 -0.891547,0.923132 -1.298328,1.422411 -0.203394,0.249632 -0.419324,0.49083 -0.668835,0.694561 -0.249514,0.203716 -0.534515,0.370678 -0.84588,0.453959 -0.311363,0.08327 -0.641242,0.08064 -0.959371,0.02869 -0.318128,-0.05189 -0.626409,-0.153145 -0.927591,-0.267844 -0.602366,-0.229367 -1.19437,-0.51663 -1.835517,-0.584095 -0.884613,-0.09309 -1.805493,0.273671 -2.383291,0.948776 -0.577799,0.675109 -0.796164,1.640614 -0.565938,2.498297 0.230217,0.857685 0.901641,1.583127 1.740182,1.879396 0.838542,0.296272 1.819678,0.154435 2.539152,-0.367705 0.521455,-0.378432 0.891549,-0.923133 1.298328,-1.42241 0.203394,-0.24963 0.419325,-0.490831 0.668836,-0.69456 0.249514,-0.203745 0.534515,-0.370678 0.845879,-0.453962 0.311367,-0.08327 0.641243,-0.08064 0.959371,-0.02869 0.318129,0.05189 0.626409,0.153145 0.927595,0.267844 0.602362,0.229368 1.194367,0.51663 1.835513,0.584096 0.884615,0.09309 1.805494,-0.273672 2.383294,-0.948777 0.577798,-0.675108 0.796161,-1.640614 0.565935,-2.498297 -0.230217,-0.857685 -0.901638,-1.583124 -1.740182,-1.879396 -0.314453,-0.111101 -0.648894,-0.160437 -0.982069,-0.15133 z M 22.830226,8.5162484 c -0.740383,0.019912 -1.476551,0.2506569 -2.076113,0.6748888 -0.695272,0.4919622 -1.187217,1.2015828 -1.729589,1.8506468 -0.271182,0.32453 -0.560107,0.637019 -0.892789,0.901867 -0.332681,0.264859 -0.712182,0.48037 -1.127337,0.588638 -0.415152,0.108261 -0.854485,0.106824 -1.278657,0.03932 -0.42417,-0.06747 -0.836221,-0.198944 -1.237798,-0.348037 -0.803153,-0.298166 -1.593499,-0.671919 -2.448362,-0.759626 -1.179486,-0.121023 -2.4073267,0.355622 -3.1777258,1.23326 -0.7703978,0.877636 -1.0620521,2.132341 -0.7550863,3.247331 0.3069657,1.114989 1.2047104,2.058668 2.3227651,2.44382 1.118056,0.385155 2.425737,0.200613 3.385034,-0.478171 0.695276,-0.491962 1.187217,-1.201585 1.729589,-1.850646 0.271182,-0.324532 0.560108,-0.637021 0.892789,-0.901869 0.332681,-0.264859 0.712182,-0.48037 1.127337,-0.588636 0.415152,-0.10825 0.854486,-0.106824 1.278656,-0.03936 0.424171,0.06747 0.836222,0.198944 1.237798,0.348037 0.803155,0.298166 1.5935,0.671922 2.448363,0.759629 1.179486,0.121023 2.407326,-0.355622 3.177724,-1.23326 0.770398,-0.877639 1.062053,-2.132343 0.755087,-3.247331 -0.306966,-1.114984 -1.20471,-2.058663 -2.322765,-2.4438179 -0.419271,-0.14442 -0.86469,-0.2085773 -1.30892,-0.1967179 z"
         id="path6972" />
      <path
         style="fill:#00003d;fill-opacity:0.01;stroke-width:0.774759"
         d="m 17.560043,24.036629 c -0.126528,0.0079 -0.252735,0.02929 -0.375276,0.06205 -0.490175,0.131331 -0.922021,0.463904 -1.175757,0.903385 -0.253731,0.43948 -0.325031,0.980654 -0.193703,1.470832 0.131331,0.490177 0.463904,0.922022 0.903384,1.175756 0.439479,0.25373 0.980657,0.325032 1.470833,0.193701 0.490175,-0.13133 0.922024,-0.463901 1.175758,-0.90338 0.25373,-0.43948 0.325034,-0.980657 0.193702,-1.470832 -0.131331,-0.49018 -0.463904,-0.922025 -0.903383,-1.175762 -0.32961,-0.190306 -0.715946,-0.279206 -1.095558,-0.255722 z m 5.449039,-7.749364 c -0.555287,0.01522 -1.107412,0.192677 -1.557083,0.519027 -0.521455,0.378432 -0.891547,0.923132 -1.298328,1.422411 -0.203394,0.249632 -0.419324,0.49083 -0.668835,0.694561 -0.249514,0.203716 -0.534515,0.370678 -0.84588,0.453959 -0.311363,0.08327 -0.641242,0.08064 -0.959371,0.02869 -0.318128,-0.05189 -0.626409,-0.153145 -0.927591,-0.267844 -0.602366,-0.229367 -1.19437,-0.51663 -1.835517,-0.584095 -0.884613,-0.09309 -1.805493,0.273671 -2.383291,0.948776 -0.577799,0.675109 -0.796164,1.640614 -0.565938,2.498297 0.230217,0.857685 0.901641,1.583127 1.740182,1.879396 0.838542,0.296272 1.819678,0.154435 2.539152,-0.367705 0.521455,-0.378432 0.891549,-0.923133 1.298328,-1.42241 0.203394,-0.24963 0.419325,-0.490831 0.668836,-0.69456 0.249514,-0.203745 0.534515,-0.370678 0.845879,-0.453962 0.311367,-0.08327 0.641243,-0.08064 0.959371,-0.02869 0.318129,0.05189 0.626409,0.153145 0.927595,0.267844 0.602362,0.229368 1.194367,0.51663 1.835513,0.584096 0.884615,0.09309 1.805494,-0.273672 2.383294,-0.948777 0.577798,-0.675108 0.796161,-1.640614 0.565935,-2.498297 -0.230217,-0.857685 -0.901638,-1.583124 -1.740182,-1.879396 -0.314453,-0.111101 -0.648894,-0.160437 -0.982069,-0.15133 z M 22.845658,8.5399274 c -0.740383,0.019912 -1.476551,0.2506569 -2.076113,0.6748888 -0.695272,0.4919622 -1.187217,1.2015828 -1.729589,1.8506468 -0.271182,0.32453 -0.560107,0.637019 -0.892789,0.901867 -0.332681,0.264859 -0.712182,0.48037 -1.127337,0.588638 -0.415152,0.108261 -0.854485,0.106824 -1.278657,0.03932 -0.42417,-0.06747 -0.836221,-0.198944 -1.237798,-0.348037 -0.803153,-0.298166 -1.593499,-0.671919 -2.448362,-0.759626 -1.179486,-0.121023 -2.4073265,0.355622 -3.1777256,1.23326 -0.7703978,0.877636 -1.0620521,2.132341 -0.7550863,3.247331 0.3069657,1.114989 1.2047104,2.058668 2.3227649,2.44382 1.118056,0.385155 2.425737,0.200613 3.385034,-0.478171 0.695276,-0.491962 1.187217,-1.201585 1.729589,-1.850646 0.271182,-0.324532 0.560108,-0.637021 0.892789,-0.901869 0.332681,-0.264859 0.712182,-0.48037 1.127337,-0.588636 0.415152,-0.10825 0.854486,-0.106824 1.278656,-0.03936 0.424171,0.06747 0.836222,0.198944 1.237798,0.348037 0.803155,0.298166 1.5935,0.671922 2.448363,0.759629 1.179486,0.121023 2.407326,-0.355622 3.177724,-1.23326 0.770398,-0.877639 1.062053,-2.132343 0.755087,-3.247331 -0.306966,-1.114984 -1.20471,-2.058663 -2.322765,-2.4438179 -0.419271,-0.14442 -0.86469,-0.2085773 -1.30892,-0.1967179 z"
         id="path6974" />
      <path
         style="fill:#00003d;fill-opacity:0.01;stroke-width:0.774759"
         d="m 17.570684,24.052485 c -0.126528,0.0079 -0.252735,0.02929 -0.375276,0.06205 -0.490175,0.131331 -0.922021,0.463904 -1.175757,0.903385 -0.253731,0.43948 -0.325031,0.980654 -0.193703,1.470832 0.131331,0.490177 0.463904,0.922022 0.903384,1.175756 0.439479,0.25373 0.980657,0.325032 1.470833,0.193701 0.490175,-0.13133 0.922024,-0.463901 1.175758,-0.90338 0.25373,-0.43948 0.325034,-0.980657 0.193702,-1.470832 -0.131331,-0.49018 -0.463904,-0.922025 -0.903383,-1.175762 -0.32961,-0.190306 -0.715946,-0.279206 -1.095558,-0.255722 z m 5.449039,-7.749364 c -0.555287,0.01522 -1.107412,0.192677 -1.557083,0.519027 -0.521455,0.378432 -0.891547,0.923132 -1.298328,1.422411 -0.203394,0.249632 -0.419324,0.49083 -0.668835,0.694561 -0.249514,0.203716 -0.534515,0.370678 -0.84588,0.453959 -0.311363,0.08327 -0.641242,0.08064 -0.959371,0.02869 -0.318128,-0.05189 -0.626409,-0.153145 -0.927591,-0.267844 -0.602366,-0.229367 -1.19437,-0.51663 -1.835517,-0.584095 -0.884613,-0.09309 -1.805493,0.273671 -2.383291,0.948776 -0.577799,0.675109 -0.796164,1.640614 -0.565938,2.498297 0.230217,0.857685 0.901641,1.583127 1.740182,1.879396 0.838542,0.296272 1.819678,0.154435 2.539152,-0.367705 0.521455,-0.378432 0.891549,-0.923133 1.298328,-1.42241 0.203394,-0.24963 0.419325,-0.490831 0.668836,-0.69456 0.249514,-0.203745 0.534515,-0.370678 0.845879,-0.453962 0.311367,-0.08327 0.641243,-0.08064 0.959371,-0.02869 0.318129,0.05189 0.626409,0.153145 0.927595,0.267844 0.602362,0.229368 1.194367,0.51663 1.835513,0.584096 0.884615,0.09309 1.805494,-0.273672 2.383294,-0.948777 0.577798,-0.675108 0.796161,-1.640614 0.565935,-2.498297 -0.230217,-0.857685 -0.901638,-1.583124 -1.740182,-1.879396 -0.314453,-0.111101 -0.648894,-0.160437 -0.982069,-0.15133 z M 22.856299,8.5557835 c -0.740383,0.019912 -1.476551,0.2506569 -2.076113,0.6748888 -0.695272,0.4919622 -1.187217,1.2015827 -1.729589,1.8506467 -0.271182,0.32453 -0.560107,0.637019 -0.892789,0.901867 -0.332681,0.264859 -0.712182,0.48037 -1.127337,0.588638 -0.415152,0.108261 -0.854485,0.106824 -1.278657,0.03932 -0.42417,-0.06747 -0.836221,-0.198944 -1.237798,-0.348037 -0.803153,-0.298166 -1.593499,-0.671919 -2.448362,-0.759626 -1.179486,-0.121023 -2.4073261,0.355622 -3.1777252,1.23326 -0.7703978,0.877636 -1.0620521,2.132341 -0.7550863,3.247331 0.3069657,1.114989 1.2047104,2.058668 2.3227645,2.44382 1.118056,0.385155 2.425737,0.200613 3.385034,-0.478171 0.695276,-0.491962 1.187217,-1.201585 1.729589,-1.850646 0.271182,-0.324532 0.560108,-0.637021 0.892789,-0.901869 0.332681,-0.264859 0.712182,-0.48037 1.127337,-0.588636 0.415152,-0.10825 0.854486,-0.106824 1.278656,-0.03936 0.424171,0.06747 0.836222,0.198944 1.237798,0.348037 0.803155,0.298166 1.5935,0.671922 2.448363,0.759629 1.179486,0.121023 2.407326,-0.355622 3.177724,-1.23326 0.770398,-0.877639 1.062053,-2.132343 0.755087,-3.247331 -0.306966,-1.114984 -1.20471,-2.0586629 -2.322765,-2.4438178 -0.419271,-0.14442 -0.86469,-0.2085773 -1.30892,-0.1967179 z"
         id="path6976" />
      <path
         style="fill:#00003d;fill-opacity:0.01;stroke-width:0.774759"
         d="m 17.579244,24.062878 c -0.126528,0.0079 -0.252735,0.02929 -0.375276,0.06205 -0.490175,0.131331 -0.922021,0.463904 -1.175757,0.903385 -0.253731,0.43948 -0.325031,0.980654 -0.193703,1.470832 0.131331,0.490177 0.463904,0.922022 0.903384,1.175756 0.439479,0.25373 0.980657,0.325032 1.470833,0.193701 0.490175,-0.13133 0.922024,-0.463901 1.175758,-0.90338 0.25373,-0.43948 0.325034,-0.980657 0.193702,-1.470832 -0.131331,-0.49018 -0.463904,-0.922025 -0.903383,-1.175762 -0.32961,-0.190306 -0.715946,-0.279206 -1.095558,-0.255722 z m 5.449039,-7.749364 c -0.555287,0.01522 -1.107412,0.192677 -1.557083,0.519027 -0.521455,0.378432 -0.891547,0.923132 -1.298328,1.422411 -0.203394,0.249632 -0.419324,0.49083 -0.668835,0.694561 -0.249514,0.203716 -0.534515,0.370678 -0.84588,0.453959 -0.311363,0.08327 -0.641242,0.08064 -0.959371,0.02869 -0.318128,-0.05189 -0.626409,-0.153145 -0.927591,-0.267844 -0.602366,-0.229367 -1.19437,-0.51663 -1.835517,-0.584095 -0.884613,-0.09309 -1.805493,0.273671 -2.383291,0.948776 -0.577799,0.675109 -0.796164,1.640614 -0.565938,2.498297 0.230217,0.857685 0.901641,1.583127 1.740182,1.879396 0.838542,0.296272 1.819678,0.154435 2.539152,-0.367705 0.521455,-0.378432 0.891549,-0.923133 1.298328,-1.42241 0.203394,-0.24963 0.419325,-0.490831 0.668836,-0.69456 0.249514,-0.203745 0.534515,-0.370678 0.845879,-0.453962 0.311367,-0.08327 0.641243,-0.08064 0.959371,-0.02869 0.318129,0.05189 0.626409,0.153145 0.927595,0.267844 0.602362,0.229368 1.194367,0.51663 1.835513,0.584096 0.884615,0.09309 1.805494,-0.273672 2.383294,-0.948777 0.577798,-0.675108 0.796161,-1.640614 0.565935,-2.498297 -0.230217,-0.857685 -0.901638,-1.583124 -1.740182,-1.879396 -0.314453,-0.111101 -0.648894,-0.160437 -0.982069,-0.15133 z M 22.864859,8.5661769 c -0.740383,0.019912 -1.476551,0.2506569 -2.076113,0.6748888 -0.695272,0.4919622 -1.187217,1.2015823 -1.729589,1.8506463 -0.271182,0.32453 -0.560107,0.637019 -0.892789,0.901867 -0.332681,0.264859 -0.712182,0.48037 -1.127337,0.588638 -0.415152,0.108261 -0.854485,0.106824 -1.278657,0.03932 -0.42417,-0.06747 -0.836221,-0.198944 -1.237798,-0.348037 -0.803153,-0.298166 -1.593499,-0.671919 -2.448362,-0.759626 -1.179486,-0.121023 -2.4073264,0.355622 -3.1777255,1.23326 -0.7703978,0.877636 -1.0620521,2.132341 -0.7550863,3.247331 0.3069657,1.114989 1.2047104,2.058668 2.3227648,2.44382 1.118056,0.385155 2.425737,0.200613 3.385034,-0.478171 0.695276,-0.491962 1.187217,-1.201585 1.729589,-1.850646 0.271182,-0.324532 0.560108,-0.637021 0.892789,-0.901869 0.332681,-0.264859 0.712182,-0.48037 1.127337,-0.588636 0.415152,-0.10825 0.854486,-0.106824 1.278656,-0.03936 0.424171,0.06747 0.836222,0.198944 1.237798,0.348037 0.803155,0.298166 1.5935,0.671922 2.448363,0.759629 1.179486,0.121023 2.407326,-0.355622 3.177724,-1.23326 0.770398,-0.877639 1.062053,-2.132343 0.755087,-3.247331 -0.306966,-1.114984 -1.20471,-2.0586625 -2.322765,-2.4438174 -0.419271,-0.14442 -0.86469,-0.2085773 -1.30892,-0.1967179 z"
         id="path6978" />
      <path
         style="fill:#00003d;fill-opacity:0.01;stroke-width:0.774759"
         d="m 17.586454,24.068666 c -0.126528,0.0079 -0.252735,0.02929 -0.375276,0.06205 -0.490175,0.131331 -0.922021,0.463904 -1.175757,0.903385 -0.253731,0.43948 -0.325031,0.980654 -0.193703,1.470832 0.131331,0.490177 0.463904,0.922022 0.903384,1.175756 0.439479,0.25373 0.980657,0.325032 1.470833,0.193701 0.490175,-0.13133 0.922024,-0.463901 1.175758,-0.90338 0.25373,-0.43948 0.325034,-0.980657 0.193702,-1.470832 -0.131331,-0.49018 -0.463904,-0.922025 -0.903383,-1.175762 -0.32961,-0.190306 -0.715946,-0.279206 -1.095558,-0.255722 z m 5.449039,-7.749364 c -0.555287,0.01522 -1.107412,0.192677 -1.557083,0.519027 -0.521455,0.378432 -0.891547,0.923132 -1.298328,1.422411 -0.203394,0.249632 -0.419324,0.49083 -0.668835,0.694561 -0.249514,0.203716 -0.534515,0.370678 -0.84588,0.453959 -0.311363,0.08327 -0.641242,0.08064 -0.959371,0.02869 -0.318128,-0.05189 -0.626409,-0.153145 -0.927591,-0.267844 -0.602366,-0.229367 -1.19437,-0.51663 -1.835517,-0.584095 -0.884613,-0.09309 -1.805493,0.273671 -2.383291,0.948776 -0.577799,0.675109 -0.796164,1.640614 -0.565938,2.498297 0.230217,0.857685 0.901641,1.583127 1.740182,1.879396 0.838542,0.296272 1.819678,0.154435 2.539152,-0.367705 0.521455,-0.378432 0.891549,-0.923133 1.298328,-1.42241 0.203394,-0.24963 0.419325,-0.490831 0.668836,-0.69456 0.249514,-0.203745 0.534515,-0.370678 0.845879,-0.453962 0.311367,-0.08327 0.641243,-0.08064 0.959371,-0.02869 0.318129,0.05189 0.626409,0.153145 0.927595,0.267844 0.602362,0.229368 1.194367,0.51663 1.835513,0.584096 0.884615,0.09309 1.805494,-0.273672 2.383294,-0.948777 0.577798,-0.675108 0.796161,-1.640614 0.565935,-2.498297 -0.230217,-0.857685 -0.901638,-1.583124 -1.740182,-1.879396 -0.314453,-0.111101 -0.648894,-0.160437 -0.982069,-0.15133 z M 22.872069,8.5719647 c -0.740383,0.019912 -1.476551,0.2506569 -2.076113,0.6748888 -0.695272,0.4919622 -1.187217,1.2015825 -1.729589,1.8506465 -0.271182,0.32453 -0.560107,0.637019 -0.892789,0.901867 -0.332681,0.264859 -0.712182,0.48037 -1.127337,0.588638 -0.415152,0.108261 -0.854485,0.106824 -1.278657,0.03932 -0.42417,-0.06747 -0.836221,-0.198944 -1.237798,-0.348037 -0.803153,-0.298166 -1.593499,-0.671919 -2.448362,-0.759626 -1.179486,-0.121023 -2.4073265,0.355622 -3.1777256,1.23326 -0.7703978,0.877636 -1.0620521,2.132341 -0.7550863,3.247331 0.3069657,1.114989 1.2047104,2.058668 2.3227649,2.44382 1.118056,0.385155 2.425737,0.200613 3.385034,-0.478171 0.695276,-0.491962 1.187217,-1.201585 1.729589,-1.850646 0.271182,-0.324532 0.560108,-0.637021 0.892789,-0.901869 0.332681,-0.264859 0.712182,-0.48037 1.127337,-0.588636 0.415152,-0.10825 0.854486,-0.106824 1.278656,-0.03936 0.424171,0.06747 0.836222,0.198944 1.237798,0.348037 0.803155,0.298166 1.5935,0.671922 2.448363,0.759629 1.179486,0.121023 2.407326,-0.355622 3.177724,-1.23326 0.770398,-0.877639 1.062053,-2.132343 0.755087,-3.247331 -0.306966,-1.114984 -1.20471,-2.0586627 -2.322765,-2.4438176 -0.419271,-0.14442 -0.86469,-0.2085773 -1.30892,-0.1967179 z"
         id="path6980" />
    </g>
    <path
       style="fill:url(#linearGradient4059);fill-opacity:1;stroke-width:0.774759"
       d="m 17.095983,23.207082 c -0.126528,0.0079 -0.252735,0.02929 -0.375276,0.06205 -0.490175,0.131331 -0.922021,0.463904 -1.175757,0.903385 -0.253731,0.43948 -0.325031,0.980654 -0.193703,1.470832 0.131331,0.490177 0.463904,0.922022 0.903384,1.175756 0.439479,0.25373 0.980657,0.325032 1.470833,0.193701 0.490175,-0.13133 0.922024,-0.463901 1.175758,-0.90338 0.25373,-0.43948 0.325034,-0.980657 0.193702,-1.470832 -0.131331,-0.49018 -0.463904,-0.922025 -0.903383,-1.175762 -0.32961,-0.190306 -0.715946,-0.279206 -1.095558,-0.255722 z m 5.449039,-7.749364 c -0.555287,0.01522 -1.107412,0.192677 -1.557083,0.519027 -0.521455,0.378432 -0.891547,0.923132 -1.298328,1.422411 -0.203394,0.249632 -0.419324,0.49083 -0.668835,0.694561 -0.249514,0.203716 -0.534515,0.370678 -0.84588,0.453959 -0.311363,0.08327 -0.641242,0.08064 -0.959371,0.02869 -0.318128,-0.05189 -0.626409,-0.153145 -0.927591,-0.267844 -0.602366,-0.229367 -1.19437,-0.51663 -1.835517,-0.584095 -0.884613,-0.09309 -1.805493,0.273671 -2.383291,0.948776 -0.577799,0.675109 -0.796164,1.640614 -0.565938,2.498297 0.230217,0.857685 0.901641,1.583127 1.740182,1.879396 0.838542,0.296272 1.819678,0.154435 2.539152,-0.367705 0.521455,-0.378432 0.891549,-0.923133 1.298328,-1.42241 0.203394,-0.24963 0.419325,-0.490831 0.668836,-0.69456 0.249514,-0.203745 0.534515,-0.370678 0.845879,-0.453962 0.311367,-0.08327 0.641243,-0.08064 0.959371,-0.02869 0.318129,0.05189 0.626409,0.153145 0.927595,0.267844 0.602362,0.229368 1.194367,0.51663 1.835513,0.584096 0.884615,0.09309 1.805494,-0.273672 2.383294,-0.948777 0.577798,-0.675108 0.796161,-1.640614 0.565935,-2.498297 -0.230217,-0.857685 -0.901638,-1.583124 -1.740182,-1.879396 -0.314453,-0.111101 -0.648894,-0.160437 -0.982069,-0.15133 z M 22.381598,7.7103812 c -0.740383,0.019912 -1.476551,0.2506569 -2.076113,0.6748888 -0.695272,0.4919622 -1.187217,1.2015829 -1.729589,1.850646 -0.271182,0.32453 -0.560107,0.637019 -0.892789,0.901867 -0.332681,0.264859 -0.712182,0.48037 -1.127337,0.588638 -0.415152,0.108261 -0.854485,0.106824 -1.278657,0.03932 -0.42417,-0.06747 -0.836221,-0.198944 -1.237798,-0.348037 -0.803153,-0.298166 -1.593499,-0.671919 -2.448362,-0.759626 -1.179486,-0.121023 -2.4073247,0.355622 -3.1777238,1.23326 -0.7703978,0.877636 -1.0620521,2.132341 -0.7550863,3.247331 0.3069657,1.114989 1.2047104,2.058668 2.3227634,2.44382 1.1180557,0.385155 2.4257367,0.200613 3.3850337,-0.478171 0.695276,-0.491962 1.187217,-1.201585 1.729589,-1.850646 0.271182,-0.324532 0.560108,-0.637021 0.892789,-0.901869 0.332681,-0.264859 0.712182,-0.48037 1.127337,-0.588636 0.415152,-0.10825 0.854486,-0.106824 1.278656,-0.03936 0.424171,0.06747 0.836222,0.198944 1.237798,0.348037 0.803155,0.298166 1.5935,0.671922 2.448363,0.759629 1.179486,0.121023 2.407326,-0.355622 3.177724,-1.23326 0.770398,-0.877639 1.062053,-2.132343 0.755087,-3.247331 C 25.706317,9.2358995 24.808573,8.2922198 23.690518,7.9070649 23.271247,7.762645 22.825828,7.6984877 22.381598,7.710347 Z"
       id="path10" />
  </g>
</svg>
