<?xml version="1.0" encoding="UTF-8" standalone="no"?>
<svg
   width="128"
   height="128"
   viewBox="0 0 33.866666 33.866668"
   version="1.1"
   id="svg1542"
   inkscape:version="1.1.2 (0a00cf5339, 2022-02-04)"
   sodipodi:docname="bomi.svg"
   xmlns:inkscape="http://www.inkscape.org/namespaces/inkscape"
   xmlns:sodipodi="http://sodipodi.sourceforge.net/DTD/sodipodi-0.dtd"
   xmlns:xlink="http://www.w3.org/1999/xlink"
   xmlns="http://www.w3.org/2000/svg"
   xmlns:svg="http://www.w3.org/2000/svg"
   xmlns:rdf="http://www.w3.org/1999/02/22-rdf-syntax-ns#"
   xmlns:cc="http://creativecommons.org/ns#"
   xmlns:dc="http://purl.org/dc/elements/1.1/">
  <defs
     id="defs1536">
    <filter
       inkscape:collect="always"
       style="color-interpolation-filters:sRGB"
       id="filter2299"
       x="-0.11089594"
       width="1.2217919"
       y="-0.14586717"
       height="1.2917343">
      <feGaussianBlur
         inkscape:collect="always"
         stdDeviation="3.8421904"
         id="feGaussianBlur2301" />
    </filter>
    <linearGradient
       inkscape:collect="always"
       xlink:href="#linearGradient1439"
       id="linearGradient1441"
       x1="16.610157"
       y1="30.626236"
       x2="16.610157"
       y2="3.4048345"
       gradientUnits="userSpaceOnUse"
       gradientTransform="translate(0.18455595,0.07682655)" />
    <linearGradient
       inkscape:collect="always"
       id="linearGradient1439">
      <stop
         style="stop-color:#fd7570;stop-opacity:1"
         offset="0"
         id="stop1435" />
      <stop
         style="stop-color:#ed225a;stop-opacity:1"
         offset="1"
         id="stop1437" />
    </linearGradient>
  </defs>
  <sodipodi:namedview
     id="base"
     pagecolor="#ffffff"
     bordercolor="#666666"
     borderopacity="1.0"
     inkscape:pageopacity="0.0"
     inkscape:pageshadow="2"
     inkscape:zoom="2.8"
     inkscape:cx="48.035714"
     inkscape:cy="79.642857"
     inkscape:document-units="mm"
     inkscape:current-layer="layer1"
     inkscape:document-rotation="0"
     showgrid="false"
     units="px"
     inkscape:window-width="1514"
     inkscape:window-height="941"
     inkscape:window-x="50"
     inkscape:window-y="27"
     inkscape:window-maximized="0"
     inkscape:pagecheckerboard="0" />
  <metadata
     id="metadata1539">
    <rdf:RDF>
      <cc:Work
         rdf:about="">
        <dc:format>image/svg+xml</dc:format>
        <dc:type
           rdf:resource="http://purl.org/dc/dcmitype/StillImage" />
      </cc:Work>
    </rdf:RDF>
  </metadata>
  <g
     inkscape:label="Capa 1"
     inkscape:groupmode="layer"
     id="layer1">
    <path
       style="opacity:1;fill:#003b82;fill-opacity:1;stroke:none;stroke-width:1.82151;stroke-linecap:square;stroke-linejoin:miter;stroke-miterlimit:4;stroke-dasharray:none;stroke-dashoffset:0;stroke-opacity:1;paint-order:fill markers stroke;filter:url(#filter2299)"
       d="m 55.610041,36.065689 a 8.2257381,8.2257381 0 0 0 -0.101563,1.261719 8.2257381,8.2257381 0 0 0 3.960938,7.009766 l 0.33789,-2.269531 a 8.2257381,8.2257381 0 0 1 -4.197265,-6.001954 z m 16.248046,0.0332 a 8.2257381,8.2257381 0 0 1 -5.703124,6.611328 L 64.295587,55.21217 a 21.789455,21.789455 0 0 1 0.341797,0.175781 l 1.517579,-10.208984 a 8.2257381,8.2257381 0 0 0 5.804687,-7.869141 8.2257381,8.2257381 0 0 0 -0.101563,-1.210937 z m -43.83789,6.660156 a 5.0754554,5.0754554 0 0 0 -0.158203,1.248047 5.0754554,5.0754554 0 0 0 3.789062,4.90039 l 6.675781,12.517578 a 21.789455,21.789455 0 0 1 0.796876,-0.976562 L 31.651056,46.436783 a 5.0754554,5.0754554 0 0 1 -3.630859,-3.677734 z m 9.835937,0.01367 a 5.0754554,5.0754554 0 0 1 -0.382812,1.035156 l 0.484375,0.908203 a 5.0754554,5.0754554 0 0 0 0.05664,-0.720703 5.0754554,5.0754554 0 0 0 -0.158203,-1.222656 z m 73.072256,17.142578 a 10.238419,10.238419 0 0 1 -10.14257,9.021484 10.238419,10.238419 0 0 1 -7.265623,-3.02539 l -16.707031,5.917968 a 21.789455,21.789455 0 0 1 0.216797,2.392578 L 93.520197,68.38209 a 10.238419,10.238419 0 0 0 7.265623,3.02539 10.238419,10.238419 0 0 0 10.22851,-10.25 10.238419,10.238419 0 0 0 -0.0859,-1.242187 z m -20.304677,0.01367 a 10.238419,10.238419 0 0 0 -0.03125,0.257812 l 0.0625,-0.02148 a 10.238419,10.238419 0 0 1 -0.03125,-0.236328 z M 33.559259,76.221939 a 21.789455,21.789455 0 0 0 -0.06055,1.292969 21.789455,21.789455 0 0 0 21.8125,21.767578 21.789455,21.789455 0 0 0 21.765624,-21.8125 21.789455,21.789455 0 0 0 -0.05469,-0.910156 21.789455,21.789455 0 0 1 -21.71093,20.253906 21.789455,21.789455 0 0 1 -21.751954,-20.591797 z"
       id="path2274"
       transform="matrix(0.26458333,0,0,0.26458333,0.14148855,0.15608109)" />
    <g
       id="g1702"
       transform="matrix(0.97573206,0,0,0.97573206,-65.563829,-37.126267)"
       style="opacity:0.296765">
      <rect
         style="fill:none;fill-opacity:1;stroke:#000000;stroke-width:0.1;stroke-linecap:round;stroke-linejoin:round;stroke-miterlimit:4;stroke-dasharray:none;stroke-opacity:0.02"
         id="rect1634"
         width="29.810888"
         height="29.810888"
         x="69.839508"
         y="40.709618"
         rx="6.6098609"
         ry="6.6098609" />
      <rect
         ry="6.6098609"
         rx="6.6098609"
         y="40.709618"
         x="69.839508"
         height="29.810888"
         width="29.810888"
         id="rect1638"
         style="fill:none;fill-opacity:1;stroke:#000000;stroke-width:0.2;stroke-linecap:round;stroke-linejoin:round;stroke-miterlimit:4;stroke-dasharray:none;stroke-opacity:0.02" />
      <rect
         style="fill:none;fill-opacity:1;stroke:#000000;stroke-width:0.3;stroke-linecap:round;stroke-linejoin:round;stroke-miterlimit:4;stroke-dasharray:none;stroke-opacity:0.02"
         id="rect1640"
         width="29.810888"
         height="29.810888"
         x="69.839508"
         y="40.709618"
         rx="6.6098609"
         ry="6.6098609" />
      <rect
         ry="6.6098609"
         rx="6.6098609"
         y="40.709618"
         x="69.839508"
         height="29.810888"
         width="29.810888"
         id="rect1642"
         style="fill:none;fill-opacity:1;stroke:#000000;stroke-width:0.4;stroke-linecap:round;stroke-linejoin:round;stroke-miterlimit:4;stroke-dasharray:none;stroke-opacity:0.02" />
      <rect
         style="fill:none;fill-opacity:1;stroke:#000000;stroke-width:0.5;stroke-linecap:round;stroke-linejoin:round;stroke-miterlimit:4;stroke-dasharray:none;stroke-opacity:0.02"
         id="rect1644"
         width="29.810888"
         height="29.810888"
         x="69.839508"
         y="40.709618"
         rx="6.6098609"
         ry="6.6098609" />
      <rect
         ry="6.6098609"
         rx="6.6098609"
         y="40.709618"
         x="69.839508"
         height="29.810888"
         width="29.810888"
         id="rect1646"
         style="fill:none;fill-opacity:1;stroke:#000000;stroke-width:0.6;stroke-linecap:round;stroke-linejoin:round;stroke-miterlimit:4;stroke-dasharray:none;stroke-opacity:0.02" />
      <rect
         style="fill:none;fill-opacity:1;stroke:#000000;stroke-width:0.7;stroke-linecap:round;stroke-linejoin:round;stroke-miterlimit:4;stroke-dasharray:none;stroke-opacity:0.02"
         id="rect1648"
         width="29.810888"
         height="29.810888"
         x="69.839508"
         y="40.709618"
         rx="6.6098609"
         ry="6.6098609" />
      <rect
         ry="6.6098609"
         rx="6.6098609"
         y="40.709618"
         x="69.839508"
         height="29.810888"
         width="29.810888"
         id="rect1650"
         style="fill:none;fill-opacity:1;stroke:#000000;stroke-width:0.8;stroke-linecap:round;stroke-linejoin:round;stroke-miterlimit:4;stroke-dasharray:none;stroke-opacity:0.02" />
      <rect
         style="fill:none;fill-opacity:1;stroke:#000000;stroke-width:1;stroke-linecap:round;stroke-linejoin:round;stroke-miterlimit:4;stroke-dasharray:none;stroke-opacity:0.02"
         id="rect1652"
         width="29.810888"
         height="29.810888"
         x="69.839508"
         y="40.709618"
         rx="6.6098609"
         ry="6.6098609" />
      <rect
         ry="6.6098609"
         rx="6.6098609"
         y="40.709618"
         x="69.839508"
         height="29.810888"
         width="29.810888"
         id="rect1654"
         style="fill:none;fill-opacity:1;stroke:#000000;stroke-width:1.2;stroke-linecap:round;stroke-linejoin:round;stroke-miterlimit:4;stroke-dasharray:none;stroke-opacity:0.02" />
      <rect
         style="fill:none;fill-opacity:1;stroke:#000000;stroke-width:1.4;stroke-linecap:round;stroke-linejoin:round;stroke-miterlimit:4;stroke-dasharray:none;stroke-opacity:0.02"
         id="rect1656"
         width="29.810888"
         height="29.810888"
         x="69.839508"
         y="40.709618"
         rx="6.6098609"
         ry="6.6098609" />
      <rect
         ry="6.6098609"
         rx="6.6098609"
         y="40.709618"
         x="69.839508"
         height="29.810888"
         width="29.810888"
         id="rect1658"
         style="fill:none;fill-opacity:1;stroke:#000000;stroke-width:1.6;stroke-linecap:round;stroke-linejoin:round;stroke-miterlimit:4;stroke-dasharray:none;stroke-opacity:0.02" />
      <rect
         style="fill:none;fill-opacity:1;stroke:#000000;stroke-width:1.8;stroke-linecap:round;stroke-linejoin:round;stroke-miterlimit:4;stroke-dasharray:none;stroke-opacity:0.02"
         id="rect1660"
         width="29.810888"
         height="29.810888"
         x="69.839508"
         y="40.709618"
         rx="6.6098609"
         ry="6.6098609" />
      <rect
         ry="6.6098609"
         rx="6.6098609"
         y="40.709618"
         x="69.839508"
         height="29.810888"
         width="29.810888"
         id="rect1662"
         style="fill:none;fill-opacity:1;stroke:#000000;stroke-width:2;stroke-linecap:round;stroke-linejoin:round;stroke-miterlimit:4;stroke-dasharray:none;stroke-opacity:0.02" />
      <rect
         style="fill:none;fill-opacity:1;stroke:#000000;stroke-width:2.2;stroke-linecap:round;stroke-linejoin:round;stroke-miterlimit:4;stroke-dasharray:none;stroke-opacity:0.02"
         id="rect1664"
         width="29.810888"
         height="29.810888"
         x="69.839508"
         y="40.709618"
         rx="6.6098609"
         ry="6.6098609" />
      <rect
         ry="6.6098609"
         rx="6.6098609"
         y="40.709618"
         x="69.839508"
         height="29.810888"
         width="29.810888"
         id="rect1666"
         style="fill:none;fill-opacity:1;stroke:#000000;stroke-width:2.6;stroke-linecap:round;stroke-linejoin:round;stroke-miterlimit:4;stroke-dasharray:none;stroke-opacity:0.02" />
      <rect
         style="fill:none;fill-opacity:1;stroke:#000000;stroke-width:3;stroke-linecap:round;stroke-linejoin:round;stroke-miterlimit:4;stroke-dasharray:none;stroke-opacity:0.02"
         id="rect1668"
         width="29.810888"
         height="29.810888"
         x="69.839508"
         y="40.709618"
         rx="6.6098609"
         ry="6.6098609" />
      <rect
         ry="6.6098609"
         rx="6.6098609"
         y="40.709618"
         x="69.839508"
         height="29.810888"
         width="29.810888"
         id="rect1670"
         style="fill:none;fill-opacity:1;stroke:#000000;stroke-width:3.4;stroke-linecap:round;stroke-linejoin:round;stroke-miterlimit:4;stroke-dasharray:none;stroke-opacity:0.02" />
      <rect
         style="fill:none;fill-opacity:1;stroke:#000000;stroke-width:3.8;stroke-linecap:round;stroke-linejoin:round;stroke-miterlimit:4;stroke-dasharray:none;stroke-opacity:0.02"
         id="rect1672"
         width="29.810888"
         height="29.810888"
         x="69.839508"
         y="40.709618"
         rx="6.6098609"
         ry="6.6098609" />
      <rect
         ry="6.6098609"
         rx="6.6098609"
         y="40.709618"
         x="69.839508"
         height="29.810888"
         width="29.810888"
         id="rect1674"
         style="fill:none;fill-opacity:1;stroke:#000000;stroke-width:4.2;stroke-linecap:round;stroke-linejoin:round;stroke-miterlimit:4;stroke-dasharray:none;stroke-opacity:0.02" />
      <rect
         style="fill:none;fill-opacity:1;stroke:#000000;stroke-width:4.6;stroke-linecap:round;stroke-linejoin:round;stroke-miterlimit:4;stroke-dasharray:none;stroke-opacity:0.02"
         id="rect1676"
         width="29.810888"
         height="29.810888"
         x="69.839508"
         y="40.709618"
         rx="6.6098609"
         ry="6.6098609" />
      <rect
         ry="6.6098609"
         rx="6.6098609"
         y="40.709618"
         x="69.839508"
         height="29.810888"
         width="29.810888"
         id="rect1678"
         style="fill:none;fill-opacity:1;stroke:#000000;stroke-width:5;stroke-linecap:round;stroke-linejoin:round;stroke-miterlimit:4;stroke-dasharray:none;stroke-opacity:0.02" />
    </g>
    <rect
       style="fill:url(#linearGradient1441);fill-opacity:1;stroke-width:2.68769;stroke-linecap:round;stroke-linejoin:round"
       id="rect849"
       width="29.08744"
       height="29.08744"
       x="2.5808229"
       y="2.5954139"
       rx="6.4494534"
       ry="6.4494534" />
    <path
       style="fill:#ffffff;stroke-width:0.716665"
       d="m 17.124542,8.5391459 c -0.480339,4.934e-4 -0.959793,0.041231 -1.433331,0.1217814 V 20.364131 a 1.0749982,1.0749982 0 0 1 -1.074999,1.074998 1.0749982,1.0749982 0 0 1 -1.074998,-1.074998 V 9.3328011 c -3.053122,1.3993939 -5.0122568,4.4477879 -5.0166561,7.8063359 0,4.74964 3.8503441,8.599985 8.5999841,8.599985 4.749641,0 8.599986,-3.850345 8.599986,-8.599985 0,-4.749641 -3.850345,-8.5999855 -8.599986,-8.5999855 z M 16.76901,12.839138 c 0.05977,5.37e-4 0.118476,0.01734 0.17078,0.049 l 6.449989,3.909468 c 0.245296,0.149057 0.245296,0.534005 0,0.683071 l -6.449989,3.909467 c -0.238497,0.143857 -0.5312,-0.04424 -0.531898,-0.341538 v -7.818928 c 1.78e-4,-0.21699 0.162221,-0.392241 0.361131,-0.390526 z"
       id="path8" />
  </g>
</svg>
