<?xml version="1.0" encoding="UTF-8" standalone="no"?>
<svg
   xmlns:dc="http://purl.org/dc/elements/1.1/"
   xmlns:cc="http://creativecommons.org/ns#"
   xmlns:rdf="http://www.w3.org/1999/02/22-rdf-syntax-ns#"
   xmlns:svg="http://www.w3.org/2000/svg"
   xmlns="http://www.w3.org/2000/svg"
   xmlns:xlink="http://www.w3.org/1999/xlink"
   xmlns:sodipodi="http://sodipodi.sourceforge.net/DTD/sodipodi-0.dtd"
   xmlns:inkscape="http://www.inkscape.org/namespaces/inkscape"
   height="136.53333"
   viewBox="0 0 136.53333 136.53333"
   width="136.53333"
   version="1.1"
   id="svg82"
   sodipodi:docname="breeze-settings.svg"
   inkscape:version="0.92.4 (5da689c313, 2019-01-14)">
  <metadata
     id="metadata88">
    <rdf:RDF>
      <cc:Work
         rdf:about="">
        <dc:format>image/svg+xml</dc:format>
        <dc:type
           rdf:resource="http://purl.org/dc/dcmitype/StillImage" />
        <dc:title></dc:title>
      </cc:Work>
    </rdf:RDF>
  </metadata>
  <defs
     id="defs86">
    <linearGradient
       inkscape:collect="always"
       id="linearGradient901">
      <stop
         style="stop-color:#52c7ff;stop-opacity:1"
         offset="0"
         id="stop896" />
      <stop
         style="stop-color:#0088f5;stop-opacity:1"
         offset="1"
         id="stop899" />
    </linearGradient>
    <linearGradient
       gradientTransform="translate(-0.460584,-0.460732)"
       id="j-9"
       gradientUnits="userSpaceOnUse"
       x1="58.344025"
       x2="57.546803"
       y1="14.57446"
       y2="83.279716">
      <stop
         offset="0"
         stop-color="#8ce9f0"
         id="stop33-3"
         style="stop-color:#87e959;stop-opacity:1" />
      <stop
         offset="1"
         stop-color="#007eff"
         stop-opacity=".808219"
         id="stop35-2"
         style="stop-color:#1aab00;stop-opacity:0.96703297" />
    </linearGradient>
    <linearGradient
       gradientTransform="translate(0.553007,-0.460729)"
       id="j-9-3"
       gradientUnits="userSpaceOnUse"
       x1="58.344025"
       x2="57.546803"
       y1="14.57446"
       y2="83.279716">
      <stop
         offset="0"
         stop-color="#8ce9f0"
         id="stop33-3-6"
         style="stop-color:#87e959;stop-opacity:1" />
      <stop
         offset="1"
         stop-color="#007eff"
         stop-opacity=".808219"
         id="stop35-2-1"
         style="stop-color:#1aab00;stop-opacity:1" />
    </linearGradient>
    <linearGradient
       inkscape:collect="always"
       xlink:href="#linearGradient901"
       id="linearGradient903"
       x1="-72.31942"
       y1="12.872684"
       x2="-72.31942"
       y2="84.060066"
       gradientUnits="userSpaceOnUse"
       gradientTransform="translate(133.86368,8.06e-4)" />
    <filter
       color-interpolation-filters="sRGB"
       height="1.072"
       width="1.072"
       y="-.036"
       x="-.036"
       id="c-3">
      <feGaussianBlur
         id="feGaussianBlur880"
         stdDeviation="15.299715" />
    </filter>
    <linearGradient
       gradientUnits="userSpaceOnUse"
       gradientTransform="matrix(0.465,0,0,0.465,-98.64047,1.5509291)"
       y2="119.07"
       y1="17.956"
       x2="68.874"
       x1="73.823"
       id="h-6">
      <stop
         id="stop883"
         offset="0"
         stop-color="#2c2d31" />
      <stop
         id="stop885"
         offset="1"
         stop-color="#3c3e43" />
    </linearGradient>
    <radialGradient
       gradientUnits="userSpaceOnUse"
       gradientTransform="matrix(0.465,0,0,0.465,-98.64047,1.5509291)"
       r="59.751"
       cy="65.333"
       cx="64.985"
       id="a-7">
      <stop
         id="stop888"
         offset="0"
         stop-color="#2c2d31" />
      <stop
         id="stop890"
         offset=".72577"
         stop-color="#393b3f" />
      <stop
         id="stop892"
         offset="1"
         stop-color="#232529" />
    </radialGradient>
    <filter
       color-interpolation-filters="sRGB"
       height="1.072"
       width="1.072"
       y="-.036"
       x="-.036"
       id="j-5">
      <feGaussianBlur
         id="feGaussianBlur895"
         stdDeviation="1.7925294" />
    </filter>
    <filter
       color-interpolation-filters="sRGB"
       height="1.0718"
       width="1.0722"
       y="-.035918"
       x="-.036083"
       id="i-3">
      <feGaussianBlur
         id="feGaussianBlur898"
         stdDeviation="1.7787305" />
    </filter>
    <radialGradient
       gradientUnits="userSpaceOnUse"
       gradientTransform="matrix(0.55838,-0.31473,0.34576,0.61344,-214.04237,59.644829)"
       r="59.155"
       cy="67.2"
       cx="219.42"
       id="b-5">
      <stop
         id="stop901"
         offset="0"
         stop-color="#4a4a4a" />
      <stop
         id="stop903"
         offset=".75697"
         stop-color="#4a4a4a" />
      <stop
         id="stop905"
         offset="1"
         stop-color="#161616" />
    </radialGradient>
    <linearGradient
       gradientUnits="userSpaceOnUse"
       gradientTransform="matrix(0.465,0,0,0.465,-98.64047,1.5509291)"
       y2="126.5"
       y1=".98582"
       x2="70.103"
       x1="71.179"
       id="f-6">
      <stop
         id="stop908"
         offset="0"
         stop-opacity=".98837"
         stop-color="#f6f6f6" />
      <stop
         id="stop910"
         offset="1"
         stop-color="#bfbfbf" />
    </linearGradient>
    <linearGradient
       gradientUnits="userSpaceOnUse"
       gradientTransform="matrix(0.465,0,0,0.465,-98.641783,21.718225)"
       y2="120.83"
       y1="8.3325"
       x2="71.235"
       x1="50.235"
       id="g-2">
      <stop
         id="stop913"
         offset="0"
         stop-color="#afb0b1" />
      <stop
         id="stop915"
         offset="1"
         stop-color="#bdbebf" />
    </linearGradient>
    <linearGradient
       gradientUnits="userSpaceOnUse"
       y2="97.865"
       y1="37.209"
       x2="227.87"
       x1="202.69"
       id="k-9"
       gradientTransform="matrix(0.465,0,0,0.465,-135.5006,23.431922)">
      <stop
         id="stop918"
         offset="0"
         stop-color="#494f52" />
      <stop
         id="stop920"
         offset="1"
         stop-color="#98a1a6" />
    </linearGradient>
    <linearGradient
       gradientUnits="userSpaceOnUse"
       y2="106.35"
       y1="30.726"
       x2="239.83"
       x1="196.6"
       id="l-1"
       gradientTransform="matrix(0.465,0,0,0.465,-53.995913,12.001818)">
      <stop
         id="stop923"
         offset="0"
         stop-color="#e2e6e8" />
      <stop
         id="stop925"
         offset="1"
         stop-color="#838d91" />
    </linearGradient>
    <linearGradient
       gradientUnits="userSpaceOnUse"
       y2="69.601"
       y1="69.601"
       x2="222.42"
       x1="214.77"
       id="e-2"
       gradientTransform="matrix(0.465,0,0,0.465,-135.5006,23.431922)">
      <stop
         id="stop928"
         offset="0"
         stop-color="#5f6569" />
      <stop
         id="stop930"
         offset="1"
         stop-color="#686e72" />
    </linearGradient>
    <radialGradient
       gradientUnits="userSpaceOnUse"
       r="3.0052"
       cy="69.601"
       cx="218.59"
       id="d-7"
       gradientTransform="matrix(0.465,0,0,0.465,-135.5006,23.431922)">
      <stop
         id="stop933"
         offset="0"
         stop-color="#27282c" />
      <stop
         id="stop935"
         offset="1"
         stop-color="#27282c" />
    </radialGradient>
    <filter
       color-interpolation-filters="sRGB"
       height="1.12"
       width="1.12"
       y="-.06"
       x="-.06"
       id="m">
      <feGaussianBlur
         id="feGaussianBlur938"
         stdDeviation="2.98755" />
    </filter>
  </defs>
  <sodipodi:namedview
     pagecolor="#ffffff"
     bordercolor="#666666"
     borderopacity="1"
     objecttolerance="10"
     gridtolerance="10"
     guidetolerance="10"
     inkscape:pageopacity="0"
     inkscape:pageshadow="2"
     inkscape:window-width="1920"
     inkscape:window-height="1023"
     id="namedview84"
     showgrid="false"
     inkscape:zoom="2.0315052"
     inkscape:cx="45.729121"
     inkscape:cy="67.068424"
     inkscape:window-x="0"
     inkscape:window-y="29"
     inkscape:window-maximized="1"
     inkscape:current-layer="svg82" />
  <linearGradient
     id="a">
    <stop
       offset="0"
       stop-color="#909090"
       id="stop2" />
    <stop
       offset="1"
       stop-color="#636363"
       stop-opacity="0"
       id="stop4" />
  </linearGradient>
  <radialGradient
     id="b"
     cx="199.2227"
     cy="60.977612"
     gradientTransform="matrix(1.0118581 .00000003 -.00000015 5.095797 -134.28081 -251.22589)"
     gradientUnits="userSpaceOnUse"
     r="62.147919">
    <stop
       offset="0"
       stop-color="#e6e6e8"
       id="stop7" />
    <stop
       offset="1"
       stop-color="#cbccce"
       id="stop9" />
  </radialGradient>
  <radialGradient
     id="c"
     cx="199.2227"
     cy="60.977612"
     gradientTransform="matrix(1.3102503 -.00000004 .0000001 3.6151362 -193.72731 -160.9387)"
     gradientUnits="userSpaceOnUse"
     r="62.147919">
    <stop
       offset="0"
       stop-color="#ececef"
       id="stop12" />
    <stop
       offset="1"
       stop-color="#cbccce"
       stop-opacity="0"
       id="stop14" />
  </radialGradient>
  <filter
     id="d"
     color-interpolation-filters="sRGB"
     height="1.033815"
     width="1.02896"
     x="-.01448"
     y="-.016908">
    <feGaussianBlur
       stdDeviation=".74992302"
       id="feGaussianBlur17" />
  </filter>
  <linearGradient
     id="e"
     gradientUnits="userSpaceOnUse"
     x1="174.78751"
     x2="174.86426"
     y1="109.46546"
     y2="118.12492">
    <stop
       offset="0"
       stop-color="#909090"
       id="stop20" />
    <stop
       offset="1"
       stop-color="#727272"
       stop-opacity="0"
       id="stop22" />
  </linearGradient>
  <radialGradient
     id="f"
     cx="178.78711"
     cy="120.70432"
     gradientTransform="matrix(3.8591081 -.00000023 0 .13879872 -511.17169 103.95076)"
     gradientUnits="userSpaceOnUse"
     r="22.055489"
     xlink:href="#a" />
  <filter
     id="g"
     color-interpolation-filters="sRGB"
     height="2.008"
     width="1.08173"
     x="-.040865"
     y="-.504">
    <feGaussianBlur
       stdDeviation=".32830532"
       id="feGaussianBlur26" />
  </filter>
  <filter
     id="h"
     color-interpolation-filters="sRGB"
     height="1.4909"
     width="1.160934"
     x="-.080467"
     y="-.24545">
    <feGaussianBlur
       stdDeviation="1.4789442"
       id="feGaussianBlur29" />
  </filter>
  <linearGradient
     id="i"
     gradientUnits="userSpaceOnUse"
     x1="183.0631"
     x2="183.0631"
     xlink:href="#a"
     y1="129.42332"
     y2="127.06073" />
  <linearGradient
     id="j"
     gradientUnits="userSpaceOnUse"
     x1="58.344025"
     x2="57.546803"
     y1="14.57446"
     y2="83.279716">
    <stop
       offset="0"
       stop-color="#8ce9f0"
       id="stop33"
       style="stop-color:#87e959;stop-opacity:1" />
    <stop
       offset="1"
       stop-color="#007eff"
       stop-opacity=".808219"
       id="stop35"
       style="stop-color:#1aab00;stop-opacity:0.96703297" />
  </linearGradient>
  <linearGradient
     id="k"
     gradientUnits="userSpaceOnUse"
     x1="101.06722"
     x2="100.04187"
     y1="82.005394"
     y2="10.693499">
    <stop
       offset="0"
       stop-color="#3f3f3f"
       id="stop38" />
    <stop
       offset="1"
       stop-color="#060707"
       stop-opacity=".85098"
       id="stop40" />
  </linearGradient>
  <filter
     id="l"
     color-interpolation-filters="sRGB"
     height="1.390281"
     width="1.313985"
     x="-.156992"
     y="-.195141">
    <feGaussianBlur
       stdDeviation="5.9622046"
       id="feGaussianBlur43" />
  </filter>
  <rect
     fill="#1a1a1a"
     filter="url(#d)"
     height="106.44971"
     opacity=".887"
     rx="5.66165"
     width="124.29584"
     x="5.156375"
     y="6.278809"
     id="rect46" />
  <rect
     fill="url(#b)"
     height="106.44971"
     rx="5.66165"
     width="124.29584"
     x="5.156375"
     y="6.278809"
     id="rect48" />
  <rect
     fill="url(#c)"
     height="106.44971"
     rx="5.66165"
     width="124.29584"
     x="5.156375"
     y="6.278809"
     id="rect50" />
  <path
     d="m10.817921 6.2780044c-3.1365599 0-5.6621099 2.5255549-5.6621099 5.6621086v78.164063h124.2968689v-78.164063c0-3.1365537-2.52555-5.6621086-5.66211-5.6621086z"
     fill="#080808"
     id="path52" />
  <path
     style="fill:url(#linearGradient903);fill-opacity:1;stroke:none;stroke-width:1px;stroke-linecap:butt;stroke-linejoin:miter;stroke-opacity:1"
     d="M 9.85706,11.893224 H 123.35112 V 85.222169 H 9.85706 Z"
     id="path894"
     inkscape:connector-curvature="0" />
  <path
     d="m5.1558111 106.01043v1.05664c0 3.13655 2.52555 5.6621 5.6621099 5.6621h112.972649c3.13656 0 5.66211-2.52555 5.66211-5.6621v-1.05664c0 3.13655-2.52555 5.6621-5.66211 5.6621h-112.972649c-3.1365599 0-5.6621099-2.52555-5.6621099-5.6621z"
     fill="#afafaf"
     id="path56" />
  <g
     transform="translate(-111.48282 -1.473949)"
     id="g70">
    <path
       d="m194.33847 114.94773c-.0882 3.69949-.94643 7.82167 4.95064 11.33436 4.7067 2.92579-2.61144 3.12671-4.42952 3.12671h-5.66718c-8.82592 0-17.65185 0-26.47777 0-1.81808 0-9.13622-.20092-4.42952-3.12671 5.89706-3.51269 5.03886-7.63487 4.95064-11.33436z"
       filter="url(#h)"
       id="path58" />
    <path
       d="m194.33847 113.47378c-.0882 3.69949-.94643 7.82167 4.95064 11.33436 4.7067 2.92579-2.61144 3.12671-4.42952 3.12671-10.49206.46272-21.16242.7623-32.14495 0-1.81808 0-9.13622-.20092-4.42952-3.12671 5.89706-3.51269 5.03886-7.63487 4.95064-11.33436z"
       fill="#e0e1e6"
       id="path60" />
    <path
       d="m194.33847 113.47378c-.0882 3.69949-.94643 7.82167 4.95064 11.33436 4.7067 2.92579-2.61144 3.12671-4.42952 3.12671h-5.66718c-8.82592 0-17.65185 0-26.47777 0-1.81808 0-9.13622-.20092-4.42952-3.12671 5.89706-3.51269 5.03886-7.63487 4.95064-11.33436z"
       fill="url(#e)"
       id="path62" />
    <path
       d="m194.33847 113.47378c-.0882 3.69949-.94643 7.82167 4.95064 11.33436 4.7067 2.92579-2.61144 3.12671-4.42952 3.12671h-5.66718c-8.82592 0-17.65185 0-26.47777 0-1.81808 0-9.13622-.20092-4.42952-3.12671 5.89706-3.51269 5.03886-7.63487 4.95064-11.33436z"
       fill="url(#f)"
       id="path64" />
    <ellipse
       cx="178.28802"
       cy="127.15317"
       fill="#fff"
       filter="url(#g)"
       opacity=".887"
       rx="15.763866"
       ry=".781679"
       id="ellipse66" />
    <path
       d="m194.33847 113.47378c-.0882 3.69949-.94643 7.82167 4.95064 11.33436 4.7067 2.92579-2.61144 3.12671-4.42952 3.12671h-5.66718c-8.82592 0-17.65185 0-26.47777 0-1.81808 0-9.13622-.20092-4.42952-3.12671 5.89706-3.51269 5.03886-7.63487 4.95064-11.33436z"
       fill="url(#i)"
       id="path68" />
  </g>
  <path
     d="m71.574021 102.89623c-.16003.36969-.34945.70998-.56891 1.02284-.29914.42652-.54408.72174-.73285.8857-.29261.26911-.60613.4069-.94186.41475-.24102 0-.53167-.0687-.87001-.2077-.33945-.13848-.6514-.20705-.93664-.20705-.29915 0-.61998.0687-.96315.20705-.3437.13913-.62057.21162-.83226.21882-.32195.0137-.64285-.12802-.96316-.42587-.20444-.1783-.46015-.48401-.76648-.91705-.32868-.46244-.59889-.99867-.81058-1.61005-.22671-.66033-.34036-1.29979-.34036-1.91887 0-.709129.15323-1.320749.46015-1.833297.24121-.41168.56211-.73643.96374-.97484.40163-.2384.83559-.35988 1.30293-.36765.25572 0 .59105.0791 1.00777.23454.41554.15598.68236.23507.79934.23507.0875 0 .38386-.0925.88634-.27687.47518-.171.87622-.2418 1.20476-.21391.89026.0718 1.5591.4228 2.00391 1.05506-.79621.482408-1.19007 1.158128-1.18223 2.024917.007.6752.25212 1.23703.7335 1.68314.21816.20707.46179.36709.73285.48075-.0588.17044-.12084.33376-.1868.49052zm-2.04179-8.034565c0 .5292-.19334 1.02331-.5787 1.480648-.46506.5437-1.02756.85787-1.63755.80829-.008-.0634-.0123-.13031-.0123-.20052 0-.50803.22116-1.051724.61391-1.496261.19608-.225079.44546-.412238.74787-.561532.30176-.147062.5872-.228391.85564-.242321.008.07076.0112.141499.0112.211686z"
     fill="#1e1f28"
     stroke-width=".065316"
     id="path72" />
  <path
     d="m10.317921 12.352223v73.330078h113.494139v-73.330078zm.55273.507812h112.480469v72.361328h-112.480469z"
     fill-opacity=".211982"
     id="path78" />
  <path
     d="m10.818359 6.2773438c-3.1365595 0-5.662109 2.5255556-5.662109 5.6621092v78.164063h124.29687v-78.164063c0-3.1365536-2.52554-5.6621092-5.6621-5.6621092zm-.5 6.0761722h113.494141v73.328125h-113.494141z"
     fill="#080808"
     id="path80" />
  <path
     style="fill:none;fill-opacity:1"
     id="path912"
     d="m 66.603073,11.893334 v 6.185546 h -0.02734 v 8.222657 c 0.0091,-6.98e-4 0.01824,-0.0013 0.02734,-0.002 0.531618,-0.04054 1.063129,-0.0736 1.597656,-0.0918 20.941252,-0.705789 34.585941,17.173828 34.585941,17.173828 0,0 -3.00046,3.648448 -7.742191,7.751958 -1.354781,1.17243 -2.85105,2.3803 -4.460937,3.55273 -5.634605,4.10356 -12.651952,7.752 -19.794922,7.752 -0.374289,0 -0.743044,-0.009 -1.105469,-0.0254 -0.357693,-0.0164 -0.708157,-0.041 -1.054687,-0.0723 -0.61643,-0.0557 -1.208414,-0.14128 -1.791016,-0.23828 -0.07624,-0.0127 -0.158691,-0.0179 -0.234375,-0.0312 -0.0088,-0.002 -0.01851,-0.002 -0.02734,-0.004 v 5.08399 c 0.0089,0.001 0.01841,8.2e-4 0.02734,0.002 0.553946,0.0698 1.116523,0.12589 1.691406,0.16406 0.584669,0.0392 1.179713,0.0605 1.789063,0.0605 15.193159,0 26.181297,-7.758 36.820308,-16.94141 1.76392,1.41269 8.98427,4.84904 10.46875,6.35352 -10.11569,8.4691 -33.691053,15.29492 -47.056636,15.29492 -0.644141,0 -1.27459,-0.0184 -1.896485,-0.0527 -0.612776,-0.0337 -1.217194,-0.0831 -1.816406,-0.14063 -0.009,-8.6e-4 -0.01833,-0.001 -0.02734,-0.002 v 7.14649 h 0.02734 v 1.00586 5.17969 h 56.748047 v -5.1797 -1.00586 -60.957033 -6.185546 z m -0.02734,59.996089 v -4.73828 C 47.982791,64.812083 41.616745,44.321068 41.616745,44.321068 c 0,0 8.32908,-12.289238 24.958984,-13.560547 V 26.301537 C 48.156,27.780844 32.204636,43.381615 32.204636,43.381615 c 0,0 9.034851,26.116568 34.371093,28.507808 z m 0,-41.128902 v 5.507813 c 0.009,-9.64e-4 0.01834,-9.95e-4 0.02734,-0.002 0.196449,-0.02091 0.397577,-0.0327 0.595703,-0.05078 0.289343,-0.02649 0.577072,-0.05751 0.871094,-0.07617 0.505062,-0.03178 1.018716,-0.05097 1.542969,-0.05078 4.220139,0 7.688633,1.436482 10.255859,3.052734 0.733493,0.461787 1.393789,0.938605 1.976563,1.400391 2.039708,1.616252 3.134765,3.052734 3.134765,3.052735 l -7.83789,6.609379 c -0.83419,-1.39061 -1.53441,-2.583849 -2.199219,-3.625005 -0.03613,-0.05659 -0.07541,-0.126027 -0.111328,-0.18164 -0.0014,-0.0021 -0.0025,-0.0038 -0.0039,-0.0059 -0.347602,-0.537923 -0.68439,-1.028848 -1.027343,-1.478515 -0.0015,-0.0019 -0.0025,-0.004 -0.0039,-0.0059 -0.170455,-0.223306 -0.343233,-0.436158 -0.517578,-0.638672 -0.0018,-0.0021 -0.004,-0.0037 -0.0059,-0.0059 -0.174308,-0.202201 -0.349701,-0.394069 -0.53125,-0.576172 -0.002,-0.002 -0.0039,-0.0039 -0.0059,-0.0059 -0.181246,-0.181496 -0.3668,-0.353473 -0.558594,-0.515625 -0.0025,-0.0021 -0.0053,-0.0038 -0.0078,-0.0059 -0.191908,-0.161873 -0.38991,-0.313827 -0.595703,-0.457032 -0.0026,-0.0018 -0.0052,-0.004 -0.0078,-0.0059 -0.204857,-0.142176 -0.418742,-0.276018 -0.640625,-0.400391 -0.156225,-0.08757 -0.324199,-0.165124 -0.490235,-0.24414 -0.07407,-0.03525 -0.142561,-0.07579 -0.21875,-0.109375 -0.0044,-0.0019 -0.0093,-0.0039 -0.01367,-0.0059 -0.404167,-0.177304 -0.847768,-0.324742 -1.320312,-0.457031 -0.105864,-0.02964 -0.2047,-0.06432 -0.314453,-0.0918 -0.292686,-0.07323 -0.601291,-0.139014 -0.923828,-0.197265 -0.0075,-0.0013 -0.01597,-0.0026 -0.02344,-0.0039 -0.322788,-0.05779 -0.661788,-0.108831 -1.017578,-0.152343 -0.0096,-0.0012 -0.01777,-0.0027 -0.02734,-0.0039 v -4.761718 c -11.205653,1.212092 -17.953125,8.685546 -17.953125,8.685546 0,1e-6 3.900998,14.608048 17.953125,17.113278 v -4.33952 c 0.0089,0.003 0.01847,0.005 0.02734,0.008 0.327248,0.10921 0.662233,0.20706 1.007813,0.29296 0.189803,0.0473 0.388519,0.0814 0.583984,0.1211 0.524559,0.10629 1.062216,0.19414 1.628906,0.24023 0.390712,0.0319 0.79154,0.0488 1.203125,0.0488 11.44141,0 22.111328,-14.820311 22.111328,-14.820311 0,0 -0.14441,-0.1961 -0.425781,-0.541016 -0.105584,-0.12987 -0.297357,-0.337929 -0.443359,-0.509765 -0.259283,-0.305159 -0.498279,-0.59089 -0.88086,-1.003906 -0.133377,-0.144013 -0.289566,-0.302469 -0.4375,-0.457032 -0.146411,-0.152955 -0.279013,-0.297001 -0.439453,-0.458984 -0.185024,-0.186905 -0.39229,-0.382967 -0.595703,-0.580078 -0.193781,-0.18776 -0.381634,-0.37115 -0.591797,-0.566406 -0.152962,-0.142123 -0.320917,-0.288286 -0.482422,-0.433594 -0.2746,-0.247094 -0.548788,-0.492364 -0.847656,-0.746094 -0.189429,-0.160827 -0.394756,-0.321951 -0.59375,-0.484375 -0.288907,-0.235836 -0.576059,-0.469969 -0.884766,-0.707031 -0.245507,-0.188552 -0.505888,-0.374613 -0.763671,-0.5625 -0.291543,-0.212484 -0.579774,-0.422922 -0.886719,-0.632813 -0.284839,-0.194827 -0.583016,-0.383155 -0.88086,-0.574219 -0.317625,-0.203747 -0.63468,-0.405785 -0.966796,-0.603515 -0.304234,-0.181166 -0.619311,-0.354602 -0.935504,-0.529286 -0.343279,-0.189652 -0.685935,-0.376335 -1.042969,-0.556641 -0.546076,-0.275829 -1.098423,-0.544222 -1.675781,-0.792968 -0.130106,-0.05605 -0.262871,-0.109586 -0.394531,-0.164063 -0.22569,-0.09339 -0.451432,-0.186904 -0.681641,-0.27539 -0.141409,-0.05435 -0.286593,-0.10386 -0.429688,-0.15625 -0.229881,-0.08417 -0.459175,-0.169229 -0.693359,-0.248047 -0.20534,-0.06911 -0.414443,-0.132517 -0.623047,-0.197266 -0.177513,-0.0551 -0.353353,-0.11228 -0.533203,-0.164063 -0.222674,-0.0641 -0.449568,-0.120917 -0.675781,-0.179687 -0.181663,-0.0472 -0.361005,-0.09703 -0.544922,-0.140625 -0.218838,-0.05187 -0.44207,-0.09603 -0.664063,-0.142578 -0.198974,-0.04174 -0.396179,-0.08772 -0.597656,-0.125 -0.174941,-0.03236 -0.354443,-0.05706 -0.53125,-0.08594 -0.25462,-0.04159 -0.507184,-0.08506 -0.765625,-0.11914 -0.0052,-6.8e-4 -0.01047,-0.0013 -0.01563,-0.002 -0.411762,-0.05404 -0.828742,-0.09895 -1.25,-0.132813 -0.0038,-3.09e-4 -0.0079,3.08e-4 -0.01172,0 -0.44636,-0.03567 -0.896772,-0.06085 -1.353515,-0.07227 -0.460329,-0.01151 -0.925897,-0.01086 -1.396485,0.0039 -0.541439,0.0171 -1.071362,0.04556 -1.597656,0.08203 -0.009,6.25e-4 -0.01833,0.0013 -0.02734,0.002 z m -1.109375,10.205078 c 0.356722,-0.0015 0.720308,0.01839 1.087891,0.0625 0.0064,0 0.01218,0.0016 0.01953,0.002 V 57.727323 C 58.653064,55.064753 56.077683,45.815209 56.077682,45.815209 c 0,0 4.037841,-4.827551 9.388672,-4.84961 z"
     inkscape:connector-curvature="0" />
  <path
     style="fill:#f9f9f9;stroke-width:1.50124335;image-rendering:optimizeSpeed"
     id="path965"
     d="m 66.536687,15.72101 c -1.55462,0.131548 -1.547503,1.447577 -2.104878,4.679331 a 28.310987,28.234007 0 0 0 -3.133206,0.432609 c -1.378731,-3.32747 -1.85927,-4.486954 -3.161601,-4.046719 -1.497395,0.506184 -1.148591,1.79057 -0.916274,5.158709 a 28.310987,28.234007 0 0 0 -2.904882,1.198553 c -2.325359,-2.808367 -3.122894,-3.782738 -4.243889,-2.974381 -1.26464,0.911916 -0.584528,2.037122 0.598565,5.090662 a 28.310987,28.234007 0 0 0 -2.526157,1.948885 c -2.930374,-2.166171 -3.938804,-2.92035 -4.832491,-1.866604 -1.01424,1.195795 -0.0698,2.121363 1.833997,4.836774 a 28.310987,28.234007 0 0 0 -1.899212,2.463777 c -3.071259,-1.141909 -4.204308,-1.807782 -5.099158,-0.530483 -0.791435,1.129636 0.190002,1.914899 3.016938,4.191382 a 28.310987,28.234007 0 0 0 -1.218379,2.927541 c -3.231247,-0.306137 -4.495742,-0.646554 -5.026828,0.812714 -0.467294,1.284104 0.672474,1.796089 3.921882,3.231101 a 28.310987,28.234007 0 0 0 -0.40282,3.099219 c -3.185639,0.616838 -4.494579,0.647463 -4.592764,2.197108 -0.08529,1.345904 1.139149,1.529638 4.555872,1.977281 a 28.310987,28.234007 0 0 0 0.453888,3.294936 c -2.927177,1.282651 -4.186443,1.610612 -3.941707,3.133279 0.217938,1.356072 1.467547,1.239877 5.046653,0.907775 a 28.310987,28.234007 0 0 0 1.265221,3.048167 c -2.495658,1.934362 -3.626093,2.564067 -3.01977,3.972935 0.545085,1.266529 1.729131,0.843578 5.148759,-0.364525 a 28.310987,28.234007 0 0 0 1.84961,2.388611 c -1.882218,2.763851 -2.822165,3.699513 -1.788608,4.886377 0.901531,1.035226 1.901463,0.276501 4.760158,-1.895001 a 28.310987,28.234007 0 0 0 2.531824,1.951718 c -1.145686,3.189344 -1.835233,4.331325 -0.530483,5.228208 1.142709,0.785553 1.916279,-0.211235 4.195595,-3.093555 L 53.81511,73.675483 a 28.310987,28.234007 0 0 0 3.32471,1.422666 c -0.220851,3.27482 -0.538434,4.551878 0.941836,5.046653 1.281561,0.428389 1.771833,-0.710992 3.086438,-3.913386 a 28.310987,28.234007 0 0 0 3.20561,0.428361 c 0.605733,3.623114 0.801821,4.868511 2.181495,4.731763 1.549028,-0.153537 1.528185,-1.466094 2.035378,-4.689207 a 28.310987,28.234007 0 0 0 3.231101,-0.424097 c 1.33305,3.247804 1.818311,4.39545 3.107716,3.964438 1.480764,-0.494977 1.16268,-1.772197 0.941835,-5.049485 a 28.310987,28.234007 0 0 0 2.940323,-1.194269 c 2.21352,2.799145 2.993555,3.778381 4.121883,3.002777 1.280981,-0.880615 0.632735,-2.01962 -0.475166,-5.07788 a 28.310987,28.234007 0 0 0 2.612652,-1.998488 c 2.738359,2.079389 3.739165,2.807498 4.623992,1.791441 1.007704,-1.15716 0.122849,-2.101609 -1.665224,-4.707652 a 28.310987,28.234007 0 0 0 1.909161,-2.439666 c 3.34352,1.181125 4.523919,1.590351 5.063719,0.33616 0.602778,-1.400589 -0.513997,-2.035668 -2.978666,-3.943159 a 28.310987,28.234007 0 0 0 1.293544,-3.072278 c 3.516796,0.326189 4.760884,0.432363 4.977153,-0.91344 0.24234,-1.507924 -1.000151,-1.848739 -3.866544,-3.100598 a 28.310987,28.234007 0 0 0 0.422682,-3.333208 c 3.378233,-0.442829 4.59676,-0.632277 4.511937,-1.971544 -0.09713,-1.532616 -1.391294,-1.581273 -4.500608,-2.178662 A 28.310987,28.234007 0 0 0 94.42945,43.246735 c 3.193483,-1.410539 4.324718,-1.928261 3.86088,-3.202778 -0.526743,-1.447358 -1.78476,-1.123899 -4.957328,-0.819831 a 28.310987,28.234007 0 0 0 -1.228329,-2.97155 c 2.771041,-2.231531 3.741998,-3.020424 2.957389,-4.140329 -0.891073,-1.271903 -2.024703,-0.61529 -5.066551,0.517715 A 28.310987,28.234007 0 0 0 88.04096,30.106636 c 2.054841,-2.903866 2.771476,-3.928709 1.710612,-4.791387 -1.191945,-0.969141 -2.105604,-0.05116 -4.656598,1.828333 a 28.310987,28.234007 0 0 0 -2.584329,-1.97728 c 1.359921,-3.319555 1.835086,-4.479693 0.602821,-5.083545 -1.418383,-0.69508 -2.077936,0.460657 -4.282161,3.011274 a 28.310987,28.234007 0 0 0 -2.92616,-1.202767 c 0.3047,-3.631975 0.417234,-4.88623 -0.94888,-5.093493 -1.532109,-0.232399 -1.842567,1.036243 -3.114834,4.005542 a 28.310987,28.234007 0 0 0 -3.20561,-0.399988 C 68.093784,16.846877 67.905679,15.60533 66.536607,15.721163 Z m -1.130435,8.677611 c 3.133933,-0.05251 6.854797,0.507215 8.063954,1.032614 5.261905,1.604003 10.127874,4.552531 14.271689,11.41401 0.771682,1.277858 1.326151,2.518605 1.575827,3.650929 0.247858,1.190639 0.154896,2.575759 -0.614166,3.667995 -0.659052,0.86856 -1.475171,1.687011 -2.614104,1.791441 -3.544464,0.33208 -8.350085,0.144557 -12.143135,0.103545 -0.638211,-0.0069 -1.247648,-0.265187 -1.431163,-0.466655 -1.123682,-0.708175 -1.880113,-2.249323 -3.133206,-2.683603 -2.000593,-0.926876 -2.810476,-0.149632 -3.938876,-1.537554 -2.078589,-3.334588 -4.089929,-6.760462 -5.935982,-10.162732 -1.337555,-2.328337 -0.455697,-4.658779 1.560212,-5.914705 0.788748,-0.611848 2.458474,-0.863548 4.338878,-0.894994 z m -13.968128,7.179927 c 0.16321,-0.0052 0.327467,2.62e-4 0.493597,0.01702 1.080181,0.147993 2.193913,0.457432 2.84388,1.398556 2.028844,2.925362 4.224063,7.204254 6.049492,10.528747 0.307183,0.559459 0.38194,1.2178 0.296443,1.476552 -0.06558,1.326588 -1.037988,2.741702 -0.801385,4.04672 0.174257,2.19798 1.249826,2.521438 0.594311,4.185717 -1.885343,3.447589 -3.884555,6.881741 -5.9431,10.159828 -1.372266,2.308074 -3.835316,2.683313 -5.918989,1.543219 -2.453899,-1.03196 -5.750434,-8.775651 -5.96721,-10.873703 -1.184756,-5.371854 -1.002911,-11.058888 2.941775,-18.036416 0.734645,-1.299499 1.544381,-2.391226 2.408438,-3.164434 0.801312,-0.70025 1.860287,-1.246412 3.002777,-1.282215 z m 28.041558,19.545503 c 1.967841,0.01015 3.928056,0.05018 5.862272,0.121989 2.684983,0.03436 4.241855,1.979968 4.296322,4.354491 0.333226,2.64112 -4.724139,9.367521 -6.432427,10.604275 -4.059719,3.711932 -9.076306,6.398149 -17.091604,6.470771 -1.492747,0.01343 -2.842863,-0.141824 -3.94454,-0.503532 -1.150988,-0.392937 -2.295438,-1.176187 -2.84388,-2.394278 -0.411928,-1.009446 -0.701392,-2.129641 -0.211338,-3.163053 1.518963,-3.2197 4.128491,-7.260101 6.09488,-10.503329 0.330909,-0.545762 0.863621,-0.939004 1.130435,-0.99427 1.181633,-0.60651 2.892972,-0.473088 3.904888,-1.330436 1.81635,-1.249898 1.559922,-2.342569 3.328996,-2.606987 1.964136,-0.04553 3.938366,-0.0655 5.906207,-0.05532 z"
     inkscape:connector-curvature="0" />
</svg>
