<?xml version="1.0" encoding="UTF-8" standalone="no"?>
<svg
   xmlns:dc="http://purl.org/dc/elements/1.1/"
   xmlns:cc="http://creativecommons.org/ns#"
   xmlns:rdf="http://www.w3.org/1999/02/22-rdf-syntax-ns#"
   xmlns:svg="http://www.w3.org/2000/svg"
   xmlns="http://www.w3.org/2000/svg"
   xmlns:xlink="http://www.w3.org/1999/xlink"
   xmlns:sodipodi="http://sodipodi.sourceforge.net/DTD/sodipodi-0.dtd"
   xmlns:inkscape="http://www.inkscape.org/namespaces/inkscape"
   width="128"
   height="128"
   viewBox="0 0 33.866666 33.866668"
   version="1.1"
   id="svg1829"
   inkscape:version="1.0.2 (e86c870879, 2021-01-15)"
   sodipodi:docname="calf_plugin.svg">
  <defs
     id="defs1823">
    <linearGradient
       inkscape:collect="always"
       id="linearGradient1050">
      <stop
         style="stop-color:#ffffff;stop-opacity:1;"
         offset="0"
         id="stop1046" />
      <stop
         style="stop-color:#9b2dfa;stop-opacity:1"
         offset="1"
         id="stop1048" />
    </linearGradient>
    <linearGradient
       inkscape:collect="always"
       id="linearGradient943">
      <stop
         style="stop-color:#fafafa;stop-opacity:1;"
         offset="0"
         id="stop939" />
      <stop
         style="stop-color:#eeeeff;stop-opacity:1"
         offset="1"
         id="stop941" />
    </linearGradient>
    <linearGradient
       inkscape:collect="always"
       id="linearGradient884">
      <stop
         style="stop-color:#50ceff;stop-opacity:1"
         offset="0"
         id="stop880" />
      <stop
         style="stop-color:#3471fc;stop-opacity:1"
         offset="1"
         id="stop882" />
    </linearGradient>
    <radialGradient
       inkscape:collect="always"
       xlink:href="#linearGradient884"
       id="radialGradient886"
       cx="17.309874"
       cy="2.5295613"
       fx="17.309874"
       fy="2.5295613"
       r="14.54372"
       gradientUnits="userSpaceOnUse"
       gradientTransform="matrix(7.161795,0,0,1.7510995,-106.65989,-1.8999525)" />
    <linearGradient
       inkscape:collect="always"
       xlink:href="#linearGradient943"
       id="linearGradient945"
       x1="6.5803332"
       y1="6.9411163"
       x2="22.578953"
       y2="22.429344"
       gradientUnits="userSpaceOnUse" />
    <linearGradient
       inkscape:collect="always"
       xlink:href="#linearGradient2048"
       id="linearGradient2050"
       x1="55.194855"
       y1="11.816931"
       x2="55.194855"
       y2="26.316303"
       gradientUnits="userSpaceOnUse"
       gradientTransform="translate(-32.074444,5.5255804)" />
    <linearGradient
       inkscape:collect="always"
       id="linearGradient2048">
      <stop
         style="stop-color:#ed63f9;stop-opacity:1"
         offset="0"
         id="stop2044" />
      <stop
         style="stop-color:#9328fa;stop-opacity:1"
         offset="1"
         id="stop2046" />
    </linearGradient>
    <linearGradient
       id="linearGradient895">
      <stop
         id="stop3335"
         offset="0" />
      <stop
         id="stop3337"
         offset="1"
         stop-opacity="0" />
    </linearGradient>
    <linearGradient
       inkscape:collect="always"
       xlink:href="#linearGradient1050"
       id="linearGradient1052"
       x1="20.919026"
       y1="23.725887"
       x2="26.002583"
       y2="40.403976"
       gradientUnits="userSpaceOnUse" />
    <radialGradient
       inkscape:collect="always"
       xlink:href="#linearGradient929"
       id="radialGradient935"
       gradientUnits="userSpaceOnUse"
       gradientTransform="matrix(0.19726714,0,0,0.19726714,-13.046744,-4.9942432)"
       cx="190.85039"
       cy="148.92816"
       fx="190.85039"
       fy="148.92816"
       r="53.835484" />
    <linearGradient
       inkscape:collect="always"
       id="linearGradient929">
      <stop
         style="stop-color:#000000;stop-opacity:1;"
         offset="0"
         id="stop925" />
      <stop
         style="stop-color:#000000;stop-opacity:0.74117647;"
         offset="0.27787876"
         id="stop961" />
      <stop
         style="stop-color:#000000;stop-opacity:0.2627451;"
         offset="0.58380306"
         id="stop963" />
      <stop
         style="stop-color:#000000;stop-opacity:0.21568627;"
         offset="0.62281501"
         id="stop967" />
      <stop
         style="stop-color:#000000;stop-opacity:0.17254902;"
         offset="0.66894341"
         id="stop971" />
      <stop
         style="stop-color:#000000;stop-opacity:0.13333333;"
         offset="0.70968169"
         id="stop975" />
      <stop
         style="stop-color:#000000;stop-opacity:0.09019608;"
         offset="0.76298833"
         id="stop979" />
      <stop
         style="stop-color:#000000;stop-opacity:0.06666667;"
         offset="0.79677397"
         id="stop977" />
      <stop
         style="stop-color:#000000;stop-opacity:0.03137255;"
         offset="0.86606854"
         id="stop981" />
      <stop
         style="stop-color:#000000;stop-opacity:0.02745098;"
         offset="0.88822615"
         id="stop947" />
      <stop
         style="stop-color:#000000;stop-opacity:0.02352941;"
         offset="0.90482414"
         id="stop983" />
      <stop
         style="stop-color:#000000;stop-opacity:0.01960784;"
         offset="0.91823369"
         id="stop987" />
      <stop
         style="stop-color:#000000;stop-opacity:0.01176471;"
         offset="0.94519842"
         id="stop991" />
      <stop
         style="stop-color:#000000;stop-opacity:0;"
         offset="1"
         id="stop927" />
    </linearGradient>
  </defs>
  <sodipodi:namedview
     id="base"
     pagecolor="#ffffff"
     bordercolor="#666666"
     borderopacity="1.0"
     inkscape:pageopacity="0.0"
     inkscape:pageshadow="2"
     inkscape:zoom="1.979899"
     inkscape:cx="6.3504189"
     inkscape:cy="94.1162"
     inkscape:document-units="mm"
     inkscape:current-layer="layer1"
     inkscape:document-rotation="0"
     showgrid="false"
     units="px"
     inkscape:window-width="1920"
     inkscape:window-height="1028"
     inkscape:window-x="0"
     inkscape:window-y="24"
     inkscape:window-maximized="1" />
  <metadata
     id="metadata1826">
    <rdf:RDF>
      <cc:Work
         rdf:about="">
        <dc:format>image/svg+xml</dc:format>
        <dc:type
           rdf:resource="http://purl.org/dc/dcmitype/StillImage" />
        <dc:title></dc:title>
      </cc:Work>
    </rdf:RDF>
  </metadata>
  <g
     inkscape:label="Capa 1"
     inkscape:groupmode="layer"
     id="layer1">
    <g
       id="g1702"
       transform="matrix(0.97573206,0,0,0.97573206,-65.58674,-37.192363)"
       style="opacity:0.296765">
      <rect
         style="fill:none;fill-opacity:1;stroke:#000000;stroke-width:0.1;stroke-linecap:round;stroke-linejoin:round;stroke-miterlimit:4;stroke-dasharray:none;stroke-opacity:0.02"
         id="rect1634"
         width="29.810888"
         height="29.810888"
         x="69.839508"
         y="40.709618"
         rx="6.6098609"
         ry="6.6098609" />
      <rect
         ry="6.6098609"
         rx="6.6098609"
         y="40.709618"
         x="69.839508"
         height="29.810888"
         width="29.810888"
         id="rect1638"
         style="fill:none;fill-opacity:1;stroke:#000000;stroke-width:0.2;stroke-linecap:round;stroke-linejoin:round;stroke-miterlimit:4;stroke-dasharray:none;stroke-opacity:0.02" />
      <rect
         style="fill:none;fill-opacity:1;stroke:#000000;stroke-width:0.3;stroke-linecap:round;stroke-linejoin:round;stroke-miterlimit:4;stroke-dasharray:none;stroke-opacity:0.02"
         id="rect1640"
         width="29.810888"
         height="29.810888"
         x="69.839508"
         y="40.709618"
         rx="6.6098609"
         ry="6.6098609" />
      <rect
         ry="6.6098609"
         rx="6.6098609"
         y="40.709618"
         x="69.839508"
         height="29.810888"
         width="29.810888"
         id="rect1642"
         style="fill:none;fill-opacity:1;stroke:#000000;stroke-width:0.4;stroke-linecap:round;stroke-linejoin:round;stroke-miterlimit:4;stroke-dasharray:none;stroke-opacity:0.02" />
      <rect
         style="fill:none;fill-opacity:1;stroke:#000000;stroke-width:0.5;stroke-linecap:round;stroke-linejoin:round;stroke-miterlimit:4;stroke-dasharray:none;stroke-opacity:0.02"
         id="rect1644"
         width="29.810888"
         height="29.810888"
         x="69.839508"
         y="40.709618"
         rx="6.6098609"
         ry="6.6098609" />
      <rect
         ry="6.6098609"
         rx="6.6098609"
         y="40.709618"
         x="69.839508"
         height="29.810888"
         width="29.810888"
         id="rect1646"
         style="fill:none;fill-opacity:1;stroke:#000000;stroke-width:0.6;stroke-linecap:round;stroke-linejoin:round;stroke-miterlimit:4;stroke-dasharray:none;stroke-opacity:0.02" />
      <rect
         style="fill:none;fill-opacity:1;stroke:#000000;stroke-width:0.7;stroke-linecap:round;stroke-linejoin:round;stroke-miterlimit:4;stroke-dasharray:none;stroke-opacity:0.02"
         id="rect1648"
         width="29.810888"
         height="29.810888"
         x="69.839508"
         y="40.709618"
         rx="6.6098609"
         ry="6.6098609" />
      <rect
         ry="6.6098609"
         rx="6.6098609"
         y="40.709618"
         x="69.839508"
         height="29.810888"
         width="29.810888"
         id="rect1650"
         style="fill:none;fill-opacity:1;stroke:#000000;stroke-width:0.8;stroke-linecap:round;stroke-linejoin:round;stroke-miterlimit:4;stroke-dasharray:none;stroke-opacity:0.02" />
      <rect
         style="fill:none;fill-opacity:1;stroke:#000000;stroke-width:1;stroke-linecap:round;stroke-linejoin:round;stroke-miterlimit:4;stroke-dasharray:none;stroke-opacity:0.02"
         id="rect1652"
         width="29.810888"
         height="29.810888"
         x="69.839508"
         y="40.709618"
         rx="6.6098609"
         ry="6.6098609" />
      <rect
         ry="6.6098609"
         rx="6.6098609"
         y="40.709618"
         x="69.839508"
         height="29.810888"
         width="29.810888"
         id="rect1654"
         style="fill:none;fill-opacity:1;stroke:#000000;stroke-width:1.2;stroke-linecap:round;stroke-linejoin:round;stroke-miterlimit:4;stroke-dasharray:none;stroke-opacity:0.02" />
      <rect
         style="fill:none;fill-opacity:1;stroke:#000000;stroke-width:1.4;stroke-linecap:round;stroke-linejoin:round;stroke-miterlimit:4;stroke-dasharray:none;stroke-opacity:0.02"
         id="rect1656"
         width="29.810888"
         height="29.810888"
         x="69.839508"
         y="40.709618"
         rx="6.6098609"
         ry="6.6098609" />
      <rect
         ry="6.6098609"
         rx="6.6098609"
         y="40.709618"
         x="69.839508"
         height="29.810888"
         width="29.810888"
         id="rect1658"
         style="fill:none;fill-opacity:1;stroke:#000000;stroke-width:1.6;stroke-linecap:round;stroke-linejoin:round;stroke-miterlimit:4;stroke-dasharray:none;stroke-opacity:0.02" />
      <rect
         style="fill:none;fill-opacity:1;stroke:#000000;stroke-width:1.8;stroke-linecap:round;stroke-linejoin:round;stroke-miterlimit:4;stroke-dasharray:none;stroke-opacity:0.02"
         id="rect1660"
         width="29.810888"
         height="29.810888"
         x="69.839508"
         y="40.709618"
         rx="6.6098609"
         ry="6.6098609" />
      <rect
         ry="6.6098609"
         rx="6.6098609"
         y="40.709618"
         x="69.839508"
         height="29.810888"
         width="29.810888"
         id="rect1662"
         style="fill:none;fill-opacity:1;stroke:#000000;stroke-width:2;stroke-linecap:round;stroke-linejoin:round;stroke-miterlimit:4;stroke-dasharray:none;stroke-opacity:0.02" />
      <rect
         style="fill:none;fill-opacity:1;stroke:#000000;stroke-width:2.2;stroke-linecap:round;stroke-linejoin:round;stroke-miterlimit:4;stroke-dasharray:none;stroke-opacity:0.02"
         id="rect1664"
         width="29.810888"
         height="29.810888"
         x="69.839508"
         y="40.709618"
         rx="6.6098609"
         ry="6.6098609" />
      <rect
         ry="6.6098609"
         rx="6.6098609"
         y="40.709618"
         x="69.839508"
         height="29.810888"
         width="29.810888"
         id="rect1666"
         style="fill:none;fill-opacity:1;stroke:#000000;stroke-width:2.6;stroke-linecap:round;stroke-linejoin:round;stroke-miterlimit:4;stroke-dasharray:none;stroke-opacity:0.02" />
      <rect
         style="fill:none;fill-opacity:1;stroke:#000000;stroke-width:3;stroke-linecap:round;stroke-linejoin:round;stroke-miterlimit:4;stroke-dasharray:none;stroke-opacity:0.02"
         id="rect1668"
         width="29.810888"
         height="29.810888"
         x="69.839508"
         y="40.709618"
         rx="6.6098609"
         ry="6.6098609" />
      <rect
         ry="6.6098609"
         rx="6.6098609"
         y="40.709618"
         x="69.839508"
         height="29.810888"
         width="29.810888"
         id="rect1670"
         style="fill:none;fill-opacity:1;stroke:#000000;stroke-width:3.4;stroke-linecap:round;stroke-linejoin:round;stroke-miterlimit:4;stroke-dasharray:none;stroke-opacity:0.02" />
      <rect
         style="fill:none;fill-opacity:1;stroke:#000000;stroke-width:3.8;stroke-linecap:round;stroke-linejoin:round;stroke-miterlimit:4;stroke-dasharray:none;stroke-opacity:0.02"
         id="rect1672"
         width="29.810888"
         height="29.810888"
         x="69.839508"
         y="40.709618"
         rx="6.6098609"
         ry="6.6098609" />
      <rect
         ry="6.6098609"
         rx="6.6098609"
         y="40.709618"
         x="69.839508"
         height="29.810888"
         width="29.810888"
         id="rect1674"
         style="fill:none;fill-opacity:1;stroke:#000000;stroke-width:4.2;stroke-linecap:round;stroke-linejoin:round;stroke-miterlimit:4;stroke-dasharray:none;stroke-opacity:0.02" />
      <rect
         style="fill:none;fill-opacity:1;stroke:#000000;stroke-width:4.6;stroke-linecap:round;stroke-linejoin:round;stroke-miterlimit:4;stroke-dasharray:none;stroke-opacity:0.02"
         id="rect1676"
         width="29.810888"
         height="29.810888"
         x="69.839508"
         y="40.709618"
         rx="6.6098609"
         ry="6.6098609" />
      <rect
         ry="6.6098609"
         rx="6.6098609"
         y="40.709618"
         x="69.839508"
         height="29.810888"
         width="29.810888"
         id="rect1678"
         style="fill:none;fill-opacity:1;stroke:#000000;stroke-width:5;stroke-linecap:round;stroke-linejoin:round;stroke-miterlimit:4;stroke-dasharray:none;stroke-opacity:0.02" />
    </g>
    <rect
       style="fill:url(#radialGradient886);fill-opacity:1;stroke-width:2.68769;stroke-linecap:round;stroke-linejoin:round"
       id="rect849-5"
       width="29.08744"
       height="29.08744"
       x="2.5579116"
       y="2.5293181"
       rx="6.4494534"
       ry="6.4494534" />
    <g
       id="g905"
       transform="translate(0.46245039,3.1045809)"
       style="opacity:0.33477273">
      <rect
         style="opacity:1;fill:#ffffff;fill-opacity:1;stroke-width:1.32292;stroke-linecap:round;stroke-linejoin:round"
         id="rect866"
         width="0.93396783"
         height="2.8019037"
         x="3.1179662"
         y="12.567506"
         rx="0.46698391"
         ry="0.46698391" />
      <rect
         style="opacity:1;fill:#ffffff;fill-opacity:1;stroke-width:1.32292;stroke-linecap:round;stroke-linejoin:round"
         id="rect868"
         width="0.93396759"
         height="3.6615334"
         x="5.2936716"
         y="12.137691"
         rx="0.4669838"
         ry="0.46698391" />
      <rect
         style="opacity:1;fill:#ffffff;fill-opacity:1;stroke-width:1.32292;stroke-linecap:round;stroke-linejoin:round"
         id="rect870"
         width="0.93396807"
         height="4.330524"
         x="7.469377"
         y="11.803196"
         rx="0.46698391"
         ry="0.46698391" />
      <rect
         style="opacity:1;fill:#ffffff;fill-opacity:1;stroke-width:1.32292;stroke-linecap:round;stroke-linejoin:round"
         id="rect872"
         width="0.93396759"
         height="3.4753468"
         x="9.6450825"
         y="12.230784"
         rx="0.4669838"
         ry="0.46698391" />
      <rect
         style="opacity:1;fill:#ffffff;fill-opacity:1;stroke-width:1.32292;stroke-linecap:round;stroke-linejoin:round"
         id="rect874"
         width="0.93396783"
         height="2.8019037"
         x="11.820787"
         y="12.567506"
         rx="0.46698391"
         ry="0.46698391" />
      <rect
         style="opacity:1;fill:#ffffff;fill-opacity:1;stroke-width:1.32292;stroke-linecap:round;stroke-linejoin:round"
         id="rect876"
         width="0.93396759"
         height="3.5326076"
         x="13.996491"
         y="12.202154"
         rx="0.4669838"
         ry="0.46698391" />
      <rect
         style="opacity:1;fill:#ffffff;fill-opacity:1;stroke-width:1.32292;stroke-linecap:round;stroke-linejoin:round"
         id="rect878"
         width="0.93396759"
         height="4.9633107"
         x="16.172197"
         y="11.486802"
         rx="0.4669838"
         ry="0.46698391" />
      <rect
         style="opacity:1;fill:#ffffff;fill-opacity:1;stroke-width:1.32292;stroke-linecap:round;stroke-linejoin:round"
         id="rect880"
         width="0.93396783"
         height="2.8019037"
         x="29.226429"
         y="12.567506"
         rx="0.46698391"
         ry="0.46698391" />
      <rect
         style="opacity:1;fill:#ffffff;fill-opacity:1;stroke-width:1.32292;stroke-linecap:round;stroke-linejoin:round"
         id="rect882"
         width="0.93396783"
         height="2.8019037"
         x="24.875017"
         y="12.567506"
         rx="0.46698391"
         ry="0.46698391" />
      <rect
         style="opacity:1;fill:#ffffff;fill-opacity:1;stroke-width:1.32292;stroke-linecap:round;stroke-linejoin:round"
         id="rect884"
         width="0.93396759"
         height="3.9888012"
         x="27.050722"
         y="11.974057"
         rx="0.4669838"
         ry="0.46698391" />
      <rect
         style="opacity:1;fill:#ffffff;fill-opacity:1;stroke-width:1.32292;stroke-linecap:round;stroke-linejoin:round"
         id="rect886"
         width="0.93396759"
         height="6.5990949"
         x="18.347902"
         y="10.66891"
         rx="0.4669838"
         ry="0.46698391" />
      <rect
         style="opacity:1;fill:#ffffff;fill-opacity:1;stroke-width:1.32292;stroke-linecap:round;stroke-linejoin:round"
         id="rect888"
         width="0.93396759"
         height="4.6695542"
         x="20.523607"
         y="11.63368"
         rx="0.4669838"
         ry="0.46698391" />
      <rect
         style="opacity:1;fill:#ffffff;fill-opacity:1;stroke-width:1.32292;stroke-linecap:round;stroke-linejoin:round"
         id="rect890"
         width="0.93396759"
         height="3.7259364"
         x="22.699312"
         y="12.10549"
         rx="0.4669838"
         ry="0.46698391" />
    </g>
    <g
       id="g953"
       style="opacity:0.37606029">
      <path
         id="path947"
         style="color:#000000;font-style:normal;font-variant:normal;font-weight:normal;font-stretch:normal;font-size:medium;line-height:normal;font-family:sans-serif;font-variant-ligatures:normal;font-variant-position:normal;font-variant-caps:normal;font-variant-numeric:normal;font-variant-alternates:normal;font-variant-east-asian:normal;font-feature-settings:normal;font-variation-settings:normal;text-indent:0;text-align:start;text-decoration:none;text-decoration-line:none;text-decoration-style:solid;text-decoration-color:#000000;letter-spacing:normal;word-spacing:normal;text-transform:none;writing-mode:lr-tb;direction:ltr;text-orientation:mixed;dominant-baseline:auto;baseline-shift:baseline;text-anchor:start;white-space:normal;shape-padding:0;shape-margin:0;inline-size:0;clip-rule:nonzero;display:inline;overflow:visible;visibility:visible;opacity:1;isolation:auto;mix-blend-mode:normal;color-interpolation:sRGB;color-interpolation-filters:linearRGB;solid-color:#000000;solid-opacity:1;vector-effect:none;fill:#0342cc;fill-opacity:0.455629;fill-rule:nonzero;stroke:none;stroke-width:0.832729;stroke-linecap:round;stroke-linejoin:round;stroke-miterlimit:4;stroke-dasharray:none;stroke-dashoffset:0;stroke-opacity:1;color-rendering:auto;image-rendering:auto;shape-rendering:auto;text-rendering:auto;enable-background:accumulate;stop-color:#000000;stop-opacity:1"
         d="m 14.170716,6.0034389 c 0.516353,2.6725461 -0.02359,4.6950901 -1.244524,5.9159071 -1.220925,1.220815 -3.1863993,1.716826 -5.7683303,1.120072 l -0.225474,0.972796 c 1.546297,0.357394 2.960202,0.356839 4.1717463,0.0353 l -0.97006,0.970062 c -0.2896463,0.289644 -0.3613233,0.747436 -0.1658323,1.106684 -1.412573,-0.373167 -2.594547,-0.311273 -3.522399,0.242209 -1.2077481,0.720439 -1.8493582,2.19141 -2.0505815,4.228644 l -0.032254,0.331061 0.312804,0.10589 c 1.7399415,0.58811 3.2023395,0.623342 4.3689225,-0.04929 1.0828263,-0.624341 1.8376383,-1.810396 2.3819393,-3.507188 l 4.598354,4.010475 c -0.326655,1.119982 -0.04989,2.381337 0.831002,3.262237 1.284852,1.284854 3.377701,1.28455 4.662557,-3.04e-4 L 25.74358,20.523 c 1.284852,-1.284855 1.285158,-3.377705 3.04e-4,-4.662558 -0.915776,-0.915777 -2.241832,-1.175899 -3.39369,-0.786577 L 18.50069,10.510508 c 1.61252,-0.54013 2.741619,-1.281097 3.346522,-2.3302136 0.672632,-1.1665811 0.637404,-2.6289793 0.04929,-4.3689217 L 21.79092,3.4982671 21.46077,3.5296101 C 19.423538,3.7308313 17.952567,4.3724403 17.232124,5.5801817 16.705881,6.4623721 16.624373,7.574327 16.938185,8.895671 16.615668,8.804476 16.254943,8.896701 16.013161,9.1384905 L 15.08357,10.068082 C 15.424392,8.84159 15.459605,7.4019836 15.15295,5.8147873 Z M 6.4434027,17.419902 c 0.132003,-0.13385 0.274897,-0.246647 0.428122,-0.338065 0.812866,-0.484892 2.061598,-0.431204 3.7144053,0.163411 -0.50419,1.52776 -1.1407003,2.546146 -1.9562453,3.016377 -0.818236,0.471783 -1.910832,0.462414 -3.3179213,0.05173 0.185841,-1.338752 0.5596263,-2.313454 1.1316363,-2.893444 z M 18.284343,5.5789616 c 0.580106,-0.5724143 1.555279,-0.9471011 2.894659,-1.1328521 0.410941,1.4074964 0.420147,2.4995275 -0.05173,3.3179234 -0.47023,0.8155408 -1.488611,1.4520579 -3.016374,1.9562461 -0.594606,-1.6528102 -0.649509,-2.9003216 -0.164611,-3.713188 0.09143,-0.1532826 0.20418,-0.2960424 0.338065,-0.4281239 z m -7.248979,10.0940424 5.629576,-5.629576 4.696331,5.567197 c -0.09705,0.07714 -0.19145,0.159191 -0.281161,0.248903 l -4.224996,4.224996 c -0.120341,0.12034 -0.225973,0.249584 -0.323762,0.382785 z m 11.03732,0.780485 c -0.07338,0.05721 -0.145237,0.117853 -0.212994,0.185619 l -4.224995,4.224995 4e-6,-2e-6 c -0.102825,0.102825 -0.192652,0.213609 -0.271124,0.328926 l -0.374576,1.134075 c -0.02448,0.589205 0.189074,1.18591 0.645694,1.642527 0.866778,0.86678 2.237231,0.865259 3.104009,-0.0015 l 4.224994,-4.224995 c 0.866778,-0.866778 0.867082,-2.236014 3.03e-4,-3.102792 -0.504146,-0.504147 -1.178383,-0.713072 -2.358207,-0.408962 0.675215,2.086451 -3.007989,6.911201 -5.242217,4.961666"
         sodipodi:nodetypes="cscccscscccsccssssccscccscscccsccscsscscssscccsscccscsccsssscc" />
      <path
         id="path949"
         style="color:#000000;font-style:normal;font-variant:normal;font-weight:normal;font-stretch:normal;font-size:medium;line-height:normal;font-family:sans-serif;font-variant-ligatures:normal;font-variant-position:normal;font-variant-caps:normal;font-variant-numeric:normal;font-variant-alternates:normal;font-variant-east-asian:normal;font-feature-settings:normal;font-variation-settings:normal;text-indent:0;text-align:start;text-decoration:none;text-decoration-line:none;text-decoration-style:solid;text-decoration-color:#000000;letter-spacing:normal;word-spacing:normal;text-transform:none;writing-mode:lr-tb;direction:ltr;text-orientation:mixed;dominant-baseline:auto;baseline-shift:baseline;text-anchor:start;white-space:normal;shape-padding:0;shape-margin:0;inline-size:0;clip-rule:nonzero;display:inline;overflow:visible;visibility:visible;opacity:1;isolation:auto;mix-blend-mode:normal;color-interpolation:sRGB;color-interpolation-filters:linearRGB;solid-color:#000000;solid-opacity:1;vector-effect:none;fill:#0342cc;fill-opacity:0.455629;fill-rule:nonzero;stroke:none;stroke-width:0.832729;stroke-linecap:round;stroke-linejoin:round;stroke-miterlimit:4;stroke-dasharray:none;stroke-dashoffset:0;stroke-opacity:1;color-rendering:auto;image-rendering:auto;shape-rendering:auto;text-rendering:auto;enable-background:accumulate;stop-color:#000000;stop-opacity:1"
         d="m 14.91326,6.4924429 c 0.516353,2.6725461 -0.02359,4.6950901 -1.244524,5.9159071 -1.220925,1.220815 -3.186399,1.716826 -5.7683303,1.120072 l -0.225474,0.972796 c 1.546297,0.357394 2.9602023,0.356839 4.1717463,0.0353 l -0.97006,0.970062 c -0.289646,0.289644 -0.361323,0.747436 -0.165832,1.106684 -1.4125733,-0.373167 -2.5945473,-0.311273 -3.5223993,0.242209 -1.2077481,0.720439 -1.8493582,2.19141 -2.0505815,4.228644 l -0.032254,0.331061 0.312804,0.10589 c 1.7399415,0.58811 3.2023395,0.623342 4.3689225,-0.04929 1.0828263,-0.624341 1.8376383,-1.810396 2.3819393,-3.507188 l 4.598354,4.010475 c -0.326655,1.119982 -0.04989,2.381337 0.831002,3.262237 1.284852,1.284854 3.377701,1.28455 4.662557,-3.04e-4 l 4.224994,-4.224994 c 1.284852,-1.284855 1.285158,-3.377705 3.04e-4,-4.662558 -0.915776,-0.915777 -2.241832,-1.175899 -3.39369,-0.786577 l -3.849504,-4.563357 c 1.61252,-0.54013 2.741619,-1.281097 3.346522,-2.3302136 0.672632,-1.1665811 0.637404,-2.6289793 0.04929,-4.3689217 l -0.105582,-0.3131056 -0.33015,0.031343 C 20.166082,4.2198353 18.695111,4.8614443 17.974668,6.0691857 17.448425,6.9513761 17.366917,8.063331 17.680729,9.384675 17.358212,9.29348 16.997487,9.385705 16.755705,9.6274945 l -0.929591,0.9295915 c 0.340822,-1.226492 0.376035,-2.6660984 0.06938,-4.2532947 z M 7.1859467,17.908906 c 0.132003,-0.13385 0.274897,-0.246647 0.428122,-0.338065 0.812866,-0.484892 2.061598,-0.431204 3.7144053,0.163411 -0.50419,1.52776 -1.1407,2.546146 -1.9562453,3.016377 -0.818236,0.471783 -1.910832,0.462414 -3.3179213,0.05173 0.185841,-1.338752 0.5596263,-2.313454 1.1316363,-2.893444 z M 19.026887,6.0679656 c 0.580106,-0.5724143 1.555279,-0.9471011 2.894659,-1.1328521 0.410941,1.4074964 0.420147,2.4995275 -0.05173,3.3179234 -0.47023,0.8155408 -1.488611,1.4520579 -3.016374,1.9562461 -0.594606,-1.6528102 -0.649509,-2.9003216 -0.164611,-3.713188 0.09143,-0.1532826 0.20418,-0.2960424 0.338065,-0.4281239 z m -7.248979,10.0940424 5.629576,-5.629576 4.696331,5.567197 c -0.09705,0.07714 -0.19145,0.159191 -0.281161,0.248903 l -4.224996,4.224996 c -0.120341,0.12034 -0.225973,0.249584 -0.323762,0.382785 z m 11.03732,0.780485 c -0.07338,0.05721 -0.145237,0.117853 -0.212994,0.185619 l -4.224995,4.224995 4e-6,-2e-6 c -0.102825,0.102825 -0.192652,0.213609 -0.271124,0.328926 l -0.374576,1.134075 c -0.02448,0.589205 0.189074,1.18591 0.645694,1.642527 0.866778,0.86678 2.237231,0.865259 3.104009,-0.0015 l 4.224994,-4.224995 c 0.866778,-0.866778 0.867082,-2.236014 3.03e-4,-3.102792 -0.504146,-0.504147 -1.178383,-0.713072 -2.358207,-0.408962 0.675215,2.086451 -3.007989,6.911201 -5.242217,4.961666"
         sodipodi:nodetypes="cscccscscccsccssssccscccscscccsccscsscscssscccsscccscsccsssscc" />
    </g>
    <path
       id="rect907"
       style="color:#000000;font-style:normal;font-variant:normal;font-weight:normal;font-stretch:normal;font-size:medium;line-height:normal;font-family:sans-serif;font-variant-ligatures:normal;font-variant-position:normal;font-variant-caps:normal;font-variant-numeric:normal;font-variant-alternates:normal;font-variant-east-asian:normal;font-feature-settings:normal;font-variation-settings:normal;text-indent:0;text-align:start;text-decoration:none;text-decoration-line:none;text-decoration-style:solid;text-decoration-color:#000000;letter-spacing:normal;word-spacing:normal;text-transform:none;writing-mode:lr-tb;direction:ltr;text-orientation:mixed;dominant-baseline:auto;baseline-shift:baseline;text-anchor:start;white-space:normal;shape-padding:0;shape-margin:0;inline-size:0;clip-rule:nonzero;display:inline;overflow:visible;visibility:visible;opacity:1;isolation:auto;mix-blend-mode:normal;color-interpolation:sRGB;color-interpolation-filters:linearRGB;solid-color:#000000;solid-opacity:1;vector-effect:none;fill:url(#linearGradient945);fill-opacity:1;fill-rule:nonzero;stroke:none;stroke-width:0.832729;stroke-linecap:round;stroke-linejoin:round;stroke-miterlimit:4;stroke-dasharray:none;stroke-dashoffset:0;stroke-opacity:1;color-rendering:auto;image-rendering:auto;shape-rendering:auto;text-rendering:auto;enable-background:accumulate;stop-color:#000000;stop-opacity:1"
       d="m 13.740547,5.6678349 c 0.516353,2.6725461 -0.02359,4.6950901 -1.244524,5.9159071 -1.220925,1.220815 -3.1863988,1.716826 -5.7683298,1.120072 l -0.225474,0.972796 c 1.546297,0.357394 2.960202,0.356839 4.1717458,0.0353 l -0.9700598,0.970062 c -0.289646,0.289644 -0.361323,0.747436 -0.165832,1.106684 -1.412573,-0.373167 -2.594547,-0.311273 -3.522399,0.242209 -1.2077481,0.720439 -1.8493582,2.19141 -2.0505815,4.228644 l -0.032254,0.331061 0.312804,0.10589 c 1.7399415,0.58811 3.2023395,0.623342 4.3689225,-0.04929 1.082826,-0.624341 1.8376378,-1.810396 2.3819388,-3.507188 l 4.598354,4.010475 c -0.326655,1.119982 -0.04989,2.381337 0.831002,3.262237 1.284852,1.284854 3.377701,1.28455 4.662557,-3.04e-4 l 4.224994,-4.224994 c 1.284852,-1.284855 1.285158,-3.377705 3.04e-4,-4.662558 -0.915776,-0.915777 -2.241832,-1.175899 -3.39369,-0.786577 l -3.849504,-4.563357 c 1.61252,-0.5401301 2.741619,-1.281097 3.346522,-2.3302136 0.672632,-1.1665811 0.637404,-2.6289793 0.04929,-4.3689217 l -0.105582,-0.3131056 -0.33015,0.031343 C 18.993369,3.3952273 17.522398,4.0368363 16.801955,5.2445777 16.275712,6.1267681 16.194204,7.238723 16.508016,8.560067 16.185499,8.468872 15.824774,8.561097 15.582992,8.8028865 L 14.653401,9.7324777 C 14.994223,8.505986 15.029436,7.0663796 14.722781,5.4791833 Z M 6.0132342,17.084298 c 0.132003,-0.13385 0.274897,-0.246647 0.428122,-0.338065 0.812866,-0.484892 2.061598,-0.431204 3.7144048,0.163411 -0.5041898,1.52776 -1.1406998,2.546146 -1.9562448,3.016377 -0.818236,0.471783 -1.910832,0.462414 -3.3179213,0.05173 0.185841,-1.338752 0.5596263,-2.313454 1.1316363,-2.893444 z M 17.854174,5.2433576 C 18.43428,4.6709433 19.409453,4.2962565 20.748833,4.1105055 21.159774,5.5180019 21.16898,6.610033 20.697103,7.4284289 20.226873,8.2439697 19.208492,8.8804868 17.680729,9.384675 17.086123,7.7318648 17.03122,6.4843534 17.516118,5.671487 17.607548,5.5182044 17.720298,5.3754446 17.854183,5.2433631 Z M 10.605195,15.3374 16.234771,9.7078235 20.931102,15.275021 c -0.09705,0.07714 -0.19145,0.159191 -0.281161,0.248903 l -4.224996,4.224996 c -0.120341,0.12034 -0.225973,0.249584 -0.323762,0.382785 z m 11.03732,0.780485 c -0.07338,0.05721 -0.145237,0.117853 -0.212994,0.185619 l -4.224995,4.224995 4e-6,-2e-6 c -0.102825,0.102825 -0.192652,0.213609 -0.271124,0.328926 l -0.374576,1.134075 c -0.02448,0.589205 0.189074,1.18591 0.645694,1.642527 0.866778,0.86678 2.237231,0.865259 3.104009,-0.0015 l 4.224994,-4.224995 c 0.866778,-0.866778 0.867082,-2.236014 3.03e-4,-3.102792 -0.504146,-0.504147 -1.178383,-0.713072 -2.358207,-0.408962 0.675215,2.086451 -3.007989,6.911201 -5.242217,4.961666"
       sodipodi:nodetypes="cscccscscccsccssssccscccscscccsccscsscscssscccsscccscsccsssscc" />
    <circle
       style="opacity:0.642159;fill:url(#radialGradient935);fill-opacity:1;stroke:none;stroke-width:6.18303;stroke-linecap:round;stroke-linejoin:round;stroke-miterlimit:4;stroke-dasharray:none;stroke-opacity:1"
       id="circle923"
       cx="24.60177"
       cy="24.384392"
       r="10.619973" />
    <path
       inkscape:connector-curvature="0"
       style="fill:url(#linearGradient2050);fill-opacity:1;stroke-width:1.93796"
       d="m 32.622837,24.358335 a 7.6911769,7.6911769 0 0 1 -7.691176,7.691177 7.6911769,7.6911769 0 0 1 -7.691177,-7.691177 7.6911769,7.6911769 0 0 1 7.691177,-7.691177 7.6911769,7.6911769 0 0 1 7.691176,7.691177 z"
       id="circle2973-0-2-9" />
    <g
       id="g1044"
       style="opacity:0.59996749">
      <path
         class="ColorScheme-Text"
         d="m 24.877679,19.490295 c 0,0 -0.978092,0 -0.978092,0.978093 v 0.978093 h -1.956186 c -0.651758,0 -0.651758,0.651758 -0.651758,0.651758 v 1.956186 h 0.978093 c 0.978093,0 0.978093,0.978093 0.978093,0.978093 0,0 0,0.978092 -0.978093,0.978092 h -0.978093 v 1.956186 c 0,0.651758 0.651758,0.651758 0.651758,0.651758 h 1.956186 v -0.651758 c 0,-1.304428 0.978092,-1.304428 0.978092,-1.304428 0,0 0.978093,0 0.978093,1.304428 v 0.651758 h 1.956186 c 0.651758,0 0.651758,-0.651758 0.651758,-0.651758 V 26.01061 h 0.978095 c 0.978092,0 0.978092,-0.978092 0.978092,-0.978092 0,0 0,-0.978093 -0.978092,-0.978093 h -0.978095 v -1.956186 c 0,-0.651758 -0.651758,-0.651758 -0.651758,-0.651758 h -1.956186 v -0.978093 c 0,-0.978093 -0.978093,-0.978093 -0.978093,-0.978093 z"
         color="#6e6e6e"
         fill="#ffffff"
         id="path1038"
         style="fill:#7805c3;fill-opacity:0.234005;stroke-width:0.456412" />
      <path
         class="ColorScheme-Text"
         d="m 25.340671,19.830743 c 0,0 -0.978092,0 -0.978092,0.978093 v 0.978093 h -1.956186 c -0.651758,0 -0.651758,0.651758 -0.651758,0.651758 v 1.956186 h 0.978093 c 0.978093,0 0.978093,0.978093 0.978093,0.978093 0,0 0,0.978092 -0.978093,0.978092 h -0.978093 v 1.956186 c 0,0.651758 0.651758,0.651758 0.651758,0.651758 h 1.956186 v -0.651758 c 0,-1.304428 0.978092,-1.304428 0.978092,-1.304428 0,0 0.978093,0 0.978093,1.304428 v 0.651758 h 1.956186 c 0.651758,0 0.651758,-0.651758 0.651758,-0.651758 v -1.956186 h 0.978095 c 0.978092,0 0.978092,-0.978092 0.978092,-0.978092 0,0 0,-0.978093 -0.978092,-0.978093 h -0.978095 v -1.956186 c 0,-0.651758 -0.651758,-0.651758 -0.651758,-0.651758 h -1.956186 v -0.978093 c 0,-0.978093 -0.978093,-0.978093 -0.978093,-0.978093 z"
         color="#6e6e6e"
         fill="#ffffff"
         id="path1040"
         style="fill:#7805c3;fill-opacity:0.234005;stroke-width:0.456412" />
    </g>
    <path
       class="ColorScheme-Text"
       d="m 24.505062,19.161758 c 0,0 -0.978092,0 -0.978092,0.978093 v 0.978093 h -1.956186 c -0.651758,0 -0.651758,0.651758 -0.651758,0.651758 v 1.956186 h 0.978093 c 0.978093,0 0.978093,0.978093 0.978093,0.978093 0,0 0,0.978092 -0.978093,0.978092 h -0.978093 v 1.956186 c 0,0.651758 0.651758,0.651758 0.651758,0.651758 h 1.956186 v -0.651758 c 0,-1.304428 0.978092,-1.304428 0.978092,-1.304428 0,0 0.978093,0 0.978093,1.304428 v 0.651758 h 1.956186 c 0.651758,0 0.651758,-0.651758 0.651758,-0.651758 v -1.956186 h 0.978095 c 0.978092,0 0.978092,-0.978092 0.978092,-0.978092 0,0 0,-0.978093 -0.978092,-0.978093 h -0.978095 v -1.956186 c 0,-0.651758 -0.651758,-0.651758 -0.651758,-0.651758 h -1.956186 v -0.978093 c 0,-0.978093 -0.978093,-0.978093 -0.978093,-0.978093 z"
       color="#6e6e6e"
       fill="#ffffff"
       id="path48"
       style="stroke-width:0.456412;fill-opacity:1;fill:url(#linearGradient1052)" />
  </g>
</svg>
