<?xml version="1.0" encoding="UTF-8" standalone="no"?>
<svg
   xmlns:dc="http://purl.org/dc/elements/1.1/"
   xmlns:cc="http://creativecommons.org/ns#"
   xmlns:rdf="http://www.w3.org/1999/02/22-rdf-syntax-ns#"
   xmlns:svg="http://www.w3.org/2000/svg"
   xmlns="http://www.w3.org/2000/svg"
   xmlns:xlink="http://www.w3.org/1999/xlink"
   xmlns:sodipodi="http://sodipodi.sourceforge.net/DTD/sodipodi-0.dtd"
   xmlns:inkscape="http://www.inkscape.org/namespaces/inkscape"
   width="128"
   height="128"
   viewBox="0 0 33.866666 33.866668"
   version="1.1"
   id="svg1560"
   inkscape:version="1.0.1 (3bc2e813f5, 2020-09-07)"
   sodipodi:docname="abiword.svg">
  <defs
     id="defs1554">
    <linearGradient
       inkscape:collect="always"
       xlink:href="#linearGradient1630"
       id="linearGradient1632"
       x1="132.21078"
       y1="42.151531"
       x2="132.21078"
       y2="70.679932"
       gradientUnits="userSpaceOnUse"
       gradientTransform="matrix(0.97573207,0,0,0.97573207,-111.64322,-37.225904)" />
    <linearGradient
       inkscape:collect="always"
       id="linearGradient1630">
      <stop
         style="stop-color:#f9f7f3;stop-opacity:1"
         offset="0"
         id="stop1626" />
      <stop
         style="stop-color:#eae7e2;stop-opacity:1"
         offset="1"
         id="stop1628" />
    </linearGradient>
    <linearGradient
       inkscape:collect="always"
       xlink:href="#linearGradient3638"
       id="linearGradient3640"
       x1="22.79772"
       y1="12.582602"
       x2="26.097576"
       y2="14.645796"
       gradientUnits="userSpaceOnUse"
       gradientTransform="scale(3.7795276)" />
    <linearGradient
       inkscape:collect="always"
       id="linearGradient3638">
      <stop
         style="stop-color:#070501;stop-opacity:1;"
         offset="0"
         id="stop3634" />
      <stop
         style="stop-color:#070501;stop-opacity:0;"
         offset="1"
         id="stop3636" />
    </linearGradient>
    <radialGradient
       inkscape:collect="always"
       xlink:href="#linearGradient3648"
       id="radialGradient3650"
       cx="14.570036"
       cy="28.581697"
       fx="14.570036"
       fy="28.581697"
       r="2.2384953"
       gradientUnits="userSpaceOnUse"
       gradientTransform="matrix(3.8588219,0.87755686,-0.83812423,3.6854275,23.54064,-9.9523962)" />
    <linearGradient
       inkscape:collect="always"
       id="linearGradient3648">
      <stop
         style="stop-color:#070501;stop-opacity:0.87572339"
         offset="0"
         id="stop3644" />
      <stop
         style="stop-color:#070501;stop-opacity:0;"
         offset="1"
         id="stop3646" />
    </linearGradient>
    <linearGradient
       gradientTransform="matrix(0.17788329,0,0,0.17795521,-6.0989275,-162.79423)"
       gradientUnits="userSpaceOnUse"
       y2="962.29858"
       x2="150.29036"
       y1="957.17206"
       x1="133.66289"
       id="linearGradient5316-2-0"
       xlink:href="#linearGradient5310"
       inkscape:collect="always" />
    <linearGradient
       inkscape:collect="always"
       id="linearGradient5310">
      <stop
         style="stop-color:#d1831c;stop-opacity:1"
         offset="0"
         id="stop5312" />
      <stop
         id="stop5324"
         offset="0.10491467"
         style="stop-color:#eda223;stop-opacity:1" />
      <stop
         id="stop5322"
         offset="0.1598092"
         style="stop-color:#fdc752;stop-opacity:1" />
      <stop
         id="stop5318"
         offset="0.25729996"
         style="stop-color:#feec90;stop-opacity:1" />
      <stop
         style="stop-color:#ffb942;stop-opacity:1"
         offset="0.48921585"
         id="stop5320" />
      <stop
         id="stop5326"
         offset="0.70770103"
         style="stop-color:#f7921d;stop-opacity:1" />
      <stop
         style="stop-color:#df761a;stop-opacity:1"
         offset="0.80256277"
         id="stop5328" />
      <stop
         id="stop5330"
         offset="0.81975484"
         style="stop-color:#dc7e29;stop-opacity:1" />
      <stop
         style="stop-color:#bc641b;stop-opacity:1"
         offset="0.92468959"
         id="stop5332" />
      <stop
         style="stop-color:#a1714e;stop-opacity:1"
         offset="1"
         id="stop5314" />
    </linearGradient>
    <clipPath
       id="clipPath5607-3"
       clipPathUnits="userSpaceOnUse">
      <path
         sodipodi:nodetypes="cssscssc"
         inkscape:connector-curvature="0"
         id="path5609-7"
         d="m 141.32472,79.757317 c -1.68417,-1.875304 -0.92538,-2.783146 -0.24207,-4.68726 0.30465,-0.848923 21.7989,-64.47701 22.05659,-65.3789353 0.2577,-0.9019255 2.16813,-1.6752827 3.73655,-1.8682741 1.74525,-0.214751 3.76876,-0.1610581 6.9255,0.9985603 3.22116,1.4817451 5.79809,4.0908861 5.47598,5.5404091 -0.77371,3.48169 -18.03259,66.636518 -19.77202,69.664411 -1.73943,3.027892 -18.18053,-4.268911 -18.18053,-4.268911 z"
         style="fill:url(#linearGradient5611);fill-opacity:1;fill-rule:evenodd;stroke:none;stroke-width:1px;stroke-linecap:butt;stroke-linejoin:miter;stroke-opacity:1" />
    </clipPath>
    <filter
       height="1.0221108"
       y="-0.011055383"
       width="1.0412923"
       x="-0.020646133"
       id="filter5584-4"
       style="color-interpolation-filters:sRGB"
       inkscape:collect="always">
      <feGaussianBlur
         id="feGaussianBlur5586-5"
         stdDeviation="0.3589041"
         inkscape:collect="always" />
    </filter>
    <linearGradient
       gradientUnits="userSpaceOnUse"
       y2="962.29858"
       x2="150.29036"
       y1="957.17206"
       x1="133.66289"
       id="linearGradient5316-25"
       xlink:href="#linearGradient5310"
       inkscape:collect="always"
       gradientTransform="matrix(0.17788329,0,0,0.17795521,-9.3221055,-152.0984)" />
    <linearGradient
       gradientUnits="userSpaceOnUse"
       y2="1005.4556"
       x2="137.12894"
       y1="1000.2056"
       x1="120.95771"
       id="linearGradient5928-4"
       xlink:href="#linearGradient5922"
       inkscape:collect="always"
       gradientTransform="matrix(0.17788329,0,0,0.17795521,-9.3221055,-152.0984)" />
    <linearGradient
       inkscape:collect="always"
       id="linearGradient5922">
      <stop
         style="stop-color:#414140;stop-opacity:1"
         offset="0"
         id="stop5924" />
      <stop
         id="stop5930"
         offset="0.10375506"
         style="stop-color:#575756;stop-opacity:1" />
      <stop
         style="stop-color:#777776;stop-opacity:1"
         offset="0.20170981"
         id="stop5932" />
      <stop
         id="stop5934"
         offset="0.36506218"
         style="stop-color:#666665;stop-opacity:1" />
      <stop
         style="stop-color:#3c3c3b;stop-opacity:1"
         offset="0.6406498"
         id="stop5936" />
      <stop
         style="stop-color:#1b1b1a;stop-opacity:1"
         offset="1"
         id="stop5926" />
    </linearGradient>
    <filter
       height="1.0269748"
       y="-0.013487408"
       width="1.0666146"
       x="-0.03330731"
       id="filter5904-8"
       style="color-interpolation-filters:sRGB"
       inkscape:collect="always">
      <feGaussianBlur
         id="feGaussianBlur5906-6"
         stdDeviation="0.29732467"
         inkscape:collect="always" />
    </filter>
    <linearGradient
       gradientUnits="userSpaceOnUse"
       y2="867.78748"
       x2="165.29909"
       y1="918.91248"
       x1="146.24998"
       id="linearGradient5674-8"
       xlink:href="#linearGradient5668"
       inkscape:collect="always"
       gradientTransform="matrix(0.17788329,0,0,0.17795521,-9.3221055,-152.0984)" />
    <linearGradient
       inkscape:collect="always"
       id="linearGradient5668">
      <stop
         style="stop-color:#bba598;stop-opacity:1;"
         offset="0"
         id="stop5670" />
      <stop
         style="stop-color:#8a8684;stop-opacity:1"
         offset="1"
         id="stop5672" />
    </linearGradient>
    <linearGradient
       gradientTransform="matrix(0.17788329,0,0,0.17795521,-9.3221055,-152.0984)"
       gradientUnits="userSpaceOnUse"
       y2="866.27948"
       x2="163.05461"
       y1="917.36792"
       x1="145.36772"
       id="linearGradient5627-3"
       xlink:href="#linearGradient5621"
       inkscape:collect="always" />
    <linearGradient
       inkscape:collect="always"
       id="linearGradient5621">
      <stop
         style="stop-color:#abd7f8;stop-opacity:1"
         offset="0"
         id="stop5623" />
      <stop
         style="stop-color:#d7ecff;stop-opacity:1"
         offset="1"
         id="stop5625" />
    </linearGradient>
    <radialGradient
       gradientUnits="userSpaceOnUse"
       gradientTransform="matrix(-0.18489783,-0.04209059,0.05022234,-0.22079788,-19.130419,267.85434)"
       r="1.2492692"
       fy="1040.7079"
       fx="117.11073"
       cy="1040.7079"
       cx="117.11073"
       id="radialGradient6108-9"
       xlink:href="#linearGradient4638"
       inkscape:collect="always" />
    <linearGradient
       id="linearGradient4638"
       inkscape:collect="always">
      <stop
         style="stop-color:#666665;stop-opacity:1"
         offset="0"
         id="stop4646" />
      <stop
         id="stop4648"
         offset="0.6406498"
         style="stop-color:#3c3c3b;stop-opacity:1" />
      <stop
         id="stop4650"
         offset="1"
         style="stop-color:#1b1b1a;stop-opacity:1" />
    </linearGradient>
    <linearGradient
       gradientUnits="userSpaceOnUse"
       y2="1041.1031"
       x2="118.57298"
       y1="1039.9652"
       x1="115.58179"
       id="linearGradient6086-8"
       xlink:href="#linearGradient6080"
       inkscape:collect="always"
       gradientTransform="matrix(0.17788329,0,0,0.17795521,-9.3221055,-152.0984)" />
    <linearGradient
       inkscape:collect="always"
       id="linearGradient6080">
      <stop
         style="stop-color:#ebf8fe;stop-opacity:1"
         offset="0"
         id="stop6082" />
      <stop
         id="stop6088"
         offset="0.29501387"
         style="stop-color:#d0ecfd;stop-opacity:1" />
      <stop
         style="stop-color:#c6e0f0;stop-opacity:1"
         offset="0.60129935"
         id="stop6090" />
      <stop
         id="stop6092"
         offset="0.78216618"
         style="stop-color:#959295;stop-opacity:1" />
      <stop
         style="stop-color:#a29a9a;stop-opacity:1"
         offset="1"
         id="stop6084" />
    </linearGradient>
    <clipPath
       id="clipPath4746-9"
       clipPathUnits="userSpaceOnUse">
      <path
         sodipodi:nodetypes="ccccc"
         inkscape:connector-curvature="0"
         id="path4749-5"
         d="m 115.75007,1038.9382 c 0,0 -0.35908,1.8451 -0.14364,1.8838 0.21545,0.039 1.66281,-0.3094 2.53565,0.7513 l 1.37002,-1.6408 c 0,0 -1.90035,-2.0992 -3.76203,-0.9943 z"
         style="fill:url(#linearGradient4751);fill-opacity:1;fill-rule:evenodd;stroke:none;stroke-width:1px;stroke-linecap:butt;stroke-linejoin:miter;stroke-opacity:1" />
    </clipPath>
    <filter
       height="1.2105668"
       y="-0.10528341"
       width="1.0683492"
       x="-0.034174576"
       id="filter4712-0"
       style="color-interpolation-filters:sRGB"
       inkscape:collect="always">
      <feGaussianBlur
         id="feGaussianBlur4714-4"
         stdDeviation="0.062288295"
         inkscape:collect="always" />
    </filter>
    <linearGradient
       gradientTransform="matrix(0.17788329,0,0,0.17795521,-9.3221055,-152.0984)"
       gradientUnits="userSpaceOnUse"
       y2="1029.8032"
       x2="122.28124"
       y1="1028.8032"
       x1="116.06249"
       id="linearGradient5992-8"
       xlink:href="#linearGradient5986"
       inkscape:collect="always" />
    <linearGradient
       inkscape:collect="always"
       id="linearGradient5986">
      <stop
         style="stop-color:#f6fcfe;stop-opacity:1"
         offset="0"
         id="stop5988" />
      <stop
         style="stop-color:#bbe4fd;stop-opacity:1"
         offset="1"
         id="stop5990" />
    </linearGradient>
  </defs>
  <sodipodi:namedview
     id="base"
     pagecolor="#ffffff"
     bordercolor="#666666"
     borderopacity="1.0"
     inkscape:pageopacity="0.0"
     inkscape:pageshadow="2"
     inkscape:zoom="2.8"
     inkscape:cx="89.794089"
     inkscape:cy="82.385848"
     inkscape:document-units="mm"
     inkscape:current-layer="layer1"
     inkscape:document-rotation="0"
     showgrid="false"
     units="px"
     inkscape:window-width="1514"
     inkscape:window-height="941"
     inkscape:window-x="50"
     inkscape:window-y="27"
     inkscape:window-maximized="0" />
  <metadata
     id="metadata1557">
    <rdf:RDF>
      <cc:Work
         rdf:about="">
        <dc:format>image/svg+xml</dc:format>
        <dc:type
           rdf:resource="http://purl.org/dc/dcmitype/StillImage" />
        <dc:title></dc:title>
      </cc:Work>
    </rdf:RDF>
  </metadata>
  <g
     inkscape:label="Capa 1"
     inkscape:groupmode="layer"
     id="layer1">
    <g
       id="g1702"
       transform="matrix(0.97573206,0,0,0.97573206,-65.615285,-37.225902)"
       style="opacity:0.295">
      <rect
         style="fill:none;fill-opacity:1;stroke:#000000;stroke-width:0.1;stroke-linecap:round;stroke-linejoin:round;stroke-miterlimit:4;stroke-dasharray:none;stroke-opacity:0.02"
         id="rect1634"
         width="29.810888"
         height="29.810888"
         x="69.839508"
         y="40.709618"
         rx="6.6098609"
         ry="6.6098609" />
      <rect
         ry="6.6098609"
         rx="6.6098609"
         y="40.709618"
         x="69.839508"
         height="29.810888"
         width="29.810888"
         id="rect1638"
         style="fill:none;fill-opacity:1;stroke:#000000;stroke-width:0.2;stroke-linecap:round;stroke-linejoin:round;stroke-miterlimit:4;stroke-dasharray:none;stroke-opacity:0.02" />
      <rect
         style="fill:none;fill-opacity:1;stroke:#000000;stroke-width:0.3;stroke-linecap:round;stroke-linejoin:round;stroke-miterlimit:4;stroke-dasharray:none;stroke-opacity:0.02"
         id="rect1640"
         width="29.810888"
         height="29.810888"
         x="69.839508"
         y="40.709618"
         rx="6.6098609"
         ry="6.6098609" />
      <rect
         ry="6.6098609"
         rx="6.6098609"
         y="40.709618"
         x="69.839508"
         height="29.810888"
         width="29.810888"
         id="rect1642"
         style="fill:none;fill-opacity:1;stroke:#000000;stroke-width:0.4;stroke-linecap:round;stroke-linejoin:round;stroke-miterlimit:4;stroke-dasharray:none;stroke-opacity:0.02" />
      <rect
         style="fill:none;fill-opacity:1;stroke:#000000;stroke-width:0.5;stroke-linecap:round;stroke-linejoin:round;stroke-miterlimit:4;stroke-dasharray:none;stroke-opacity:0.02"
         id="rect1644"
         width="29.810888"
         height="29.810888"
         x="69.839508"
         y="40.709618"
         rx="6.6098609"
         ry="6.6098609" />
      <rect
         ry="6.6098609"
         rx="6.6098609"
         y="40.709618"
         x="69.839508"
         height="29.810888"
         width="29.810888"
         id="rect1646"
         style="fill:none;fill-opacity:1;stroke:#000000;stroke-width:0.6;stroke-linecap:round;stroke-linejoin:round;stroke-miterlimit:4;stroke-dasharray:none;stroke-opacity:0.02" />
      <rect
         style="fill:none;fill-opacity:1;stroke:#000000;stroke-width:0.7;stroke-linecap:round;stroke-linejoin:round;stroke-miterlimit:4;stroke-dasharray:none;stroke-opacity:0.02"
         id="rect1648"
         width="29.810888"
         height="29.810888"
         x="69.839508"
         y="40.709618"
         rx="6.6098609"
         ry="6.6098609" />
      <rect
         ry="6.6098609"
         rx="6.6098609"
         y="40.709618"
         x="69.839508"
         height="29.810888"
         width="29.810888"
         id="rect1650"
         style="fill:none;fill-opacity:1;stroke:#000000;stroke-width:0.8;stroke-linecap:round;stroke-linejoin:round;stroke-miterlimit:4;stroke-dasharray:none;stroke-opacity:0.02" />
      <rect
         style="fill:none;fill-opacity:1;stroke:#000000;stroke-width:1;stroke-linecap:round;stroke-linejoin:round;stroke-miterlimit:4;stroke-dasharray:none;stroke-opacity:0.02"
         id="rect1652"
         width="29.810888"
         height="29.810888"
         x="69.839508"
         y="40.709618"
         rx="6.6098609"
         ry="6.6098609" />
      <rect
         ry="6.6098609"
         rx="6.6098609"
         y="40.709618"
         x="69.839508"
         height="29.810888"
         width="29.810888"
         id="rect1654"
         style="fill:none;fill-opacity:1;stroke:#000000;stroke-width:1.2;stroke-linecap:round;stroke-linejoin:round;stroke-miterlimit:4;stroke-dasharray:none;stroke-opacity:0.02" />
      <rect
         style="fill:none;fill-opacity:1;stroke:#000000;stroke-width:1.4;stroke-linecap:round;stroke-linejoin:round;stroke-miterlimit:4;stroke-dasharray:none;stroke-opacity:0.02"
         id="rect1656"
         width="29.810888"
         height="29.810888"
         x="69.839508"
         y="40.709618"
         rx="6.6098609"
         ry="6.6098609" />
      <rect
         ry="6.6098609"
         rx="6.6098609"
         y="40.709618"
         x="69.839508"
         height="29.810888"
         width="29.810888"
         id="rect1658"
         style="fill:none;fill-opacity:1;stroke:#000000;stroke-width:1.6;stroke-linecap:round;stroke-linejoin:round;stroke-miterlimit:4;stroke-dasharray:none;stroke-opacity:0.02" />
      <rect
         style="fill:none;fill-opacity:1;stroke:#000000;stroke-width:1.8;stroke-linecap:round;stroke-linejoin:round;stroke-miterlimit:4;stroke-dasharray:none;stroke-opacity:0.02"
         id="rect1660"
         width="29.810888"
         height="29.810888"
         x="69.839508"
         y="40.709618"
         rx="6.6098609"
         ry="6.6098609" />
      <rect
         ry="6.6098609"
         rx="6.6098609"
         y="40.709618"
         x="69.839508"
         height="29.810888"
         width="29.810888"
         id="rect1662"
         style="fill:none;fill-opacity:1;stroke:#000000;stroke-width:2;stroke-linecap:round;stroke-linejoin:round;stroke-miterlimit:4;stroke-dasharray:none;stroke-opacity:0.02" />
      <rect
         style="fill:none;fill-opacity:1;stroke:#000000;stroke-width:2.2;stroke-linecap:round;stroke-linejoin:round;stroke-miterlimit:4;stroke-dasharray:none;stroke-opacity:0.02"
         id="rect1664"
         width="29.810888"
         height="29.810888"
         x="69.839508"
         y="40.709618"
         rx="6.6098609"
         ry="6.6098609" />
      <rect
         ry="6.6098609"
         rx="6.6098609"
         y="40.709618"
         x="69.839508"
         height="29.810888"
         width="29.810888"
         id="rect1666"
         style="fill:none;fill-opacity:1;stroke:#000000;stroke-width:2.6;stroke-linecap:round;stroke-linejoin:round;stroke-miterlimit:4;stroke-dasharray:none;stroke-opacity:0.02" />
      <rect
         style="fill:none;fill-opacity:1;stroke:#000000;stroke-width:3;stroke-linecap:round;stroke-linejoin:round;stroke-miterlimit:4;stroke-dasharray:none;stroke-opacity:0.02"
         id="rect1668"
         width="29.810888"
         height="29.810888"
         x="69.839508"
         y="40.709618"
         rx="6.6098609"
         ry="6.6098609" />
      <rect
         ry="6.6098609"
         rx="6.6098609"
         y="40.709618"
         x="69.839508"
         height="29.810888"
         width="29.810888"
         id="rect1670"
         style="fill:none;fill-opacity:1;stroke:#000000;stroke-width:3.4;stroke-linecap:round;stroke-linejoin:round;stroke-miterlimit:4;stroke-dasharray:none;stroke-opacity:0.02" />
      <rect
         style="fill:none;fill-opacity:1;stroke:#000000;stroke-width:3.8;stroke-linecap:round;stroke-linejoin:round;stroke-miterlimit:4;stroke-dasharray:none;stroke-opacity:0.02"
         id="rect1672"
         width="29.810888"
         height="29.810888"
         x="69.839508"
         y="40.709618"
         rx="6.6098609"
         ry="6.6098609" />
      <rect
         ry="6.6098609"
         rx="6.6098609"
         y="40.709618"
         x="69.839508"
         height="29.810888"
         width="29.810888"
         id="rect1674"
         style="fill:none;fill-opacity:1;stroke:#000000;stroke-width:4.2;stroke-linecap:round;stroke-linejoin:round;stroke-miterlimit:4;stroke-dasharray:none;stroke-opacity:0.02" />
      <rect
         style="fill:none;fill-opacity:1;stroke:#000000;stroke-width:4.6;stroke-linecap:round;stroke-linejoin:round;stroke-miterlimit:4;stroke-dasharray:none;stroke-opacity:0.02"
         id="rect1676"
         width="29.810888"
         height="29.810888"
         x="69.839508"
         y="40.709618"
         rx="6.6098609"
         ry="6.6098609" />
      <rect
         ry="6.6098609"
         rx="6.6098609"
         y="40.709618"
         x="69.839508"
         height="29.810888"
         width="29.810888"
         id="rect1678"
         style="fill:none;fill-opacity:1;stroke:#000000;stroke-width:5;stroke-linecap:round;stroke-linejoin:round;stroke-miterlimit:4;stroke-dasharray:none;stroke-opacity:0.02" />
    </g>
    <rect
       style="fill:url(#linearGradient1632);fill-opacity:1;stroke-width:2.68769;stroke-linecap:round;stroke-linejoin:round"
       id="rect849"
       width="29.08744"
       height="29.08744"
       x="2.5293646"
       y="2.4957759"
       rx="6.4494534"
       ry="6.4494534" />
    <g
       style="opacity:0.358489"
       id="g1378"
       transform="translate(0.13310035,-0.02280922)">
      <path
         id="path1380"
         d="M 2.0463059,4.7963227 H 35.386486"
         style="color:#000000;fill:none;stroke-width:0.15" />
      <path
         transform="scale(0.26458333)"
         d="m 15.068359,17.841797 c -0.164221,0.18787 -0.329823,0.375434 -0.488281,0.568359 H 113.4707 c -0.15845,-0.192925 -0.32406,-0.380489 -0.48828,-0.568359 z M 9.4375,29.609375 C 9.404129,29.798879 9.364932,29.98672 9.3359375,30.177734 H 118.71289 c -0.029,-0.190954 -0.0662,-0.378914 -0.0996,-0.568359 z M 9.0566406,41.375 v 0.560547 H 118.99414 V 41.375 Z m 0,11.759766 v 0.568359 H 118.99414 v -0.568359 z m 0,11.767578 v 0.568359 H 118.99414 v -0.568359 z m 0,11.765625 v 0.560547 H 118.99414 v -0.560547 z m 0,11.759765 v 0.56836 H 118.99414 v -0.56836 z m 0.5390625,11.767576 c 0.040388,0.19047 0.084124,0.37959 0.1289063,0.56836 H 118.32617 c 0.0448,-0.18877 0.0885,-0.37789 0.12891,-0.56836 z m 6.2226559,11.75781 c 0.184204,0.1923 0.370153,0.38221 0.560547,0.56836 h 95.291014 c 0.19025,-0.18601 0.37648,-0.37621 0.56055,-0.56836 z"
         style="color:#000000;fill:#dca448;stroke-width:0.566929"
         id="path1382" />
    </g>
    <rect
       ry="0.99198598"
       rx="0.99198598"
       y="4.1317906"
       x="5.2173376"
       height="10.121018"
       width="10.121018"
       id="rect1439"
       style="opacity:1;fill:#ffffff;fill-opacity:0.885437;stroke:none;stroke-width:0.12711;stroke-linecap:round;stroke-linejoin:round;stroke-miterlimit:4;stroke-dasharray:none;stroke-opacity:1" />
    <path
       id="path3618"
       style="fill:#f2bb4c;fill-opacity:1;stroke:none;stroke-width:0.3;stroke-linecap:round;stroke-linejoin:round;stroke-opacity:0.991259"
       d="M 9.4515004,6.2454509 C 6.9528942,6.2584102 5.6916036,9.349019 6.7581249,11.135075 A 1.505794,1.505794 0 0 0 8.1714753,12.139148 1.505794,1.505794 0 0 0 9.6773265,10.633297 1.505794,1.505794 0 0 0 8.1771596,9.1279625 C 7.9867806,8.7657519 7.8962073,8.3853118 8.0159292,8.0319052 8.5856234,6.3502259 10.252429,6.7007938 9.4515004,6.2454509 Z m 4.5010176,0 c -2.498606,0.012959 -3.759896,3.1035681 -2.693375,4.8896241 a 1.505794,1.505794 0 0 0 1.41335,1.004073 1.505794,1.505794 0 0 0 1.505851,-1.505851 1.505794,1.505794 0 0 0 -1.500167,-1.5053345 C 12.487798,8.7657519 12.397225,8.3853118 12.516946,8.0319052 c 0.569695,-1.6816793 2.2365,-1.3311114 1.435572,-1.7864543 z" />
    <g
       transform="translate(0.12006595,-0.03707322)"
       style="opacity:0.369136"
       id="g1372">
      <path
         transform="scale(0.26458333)"
         d="m 110.94531,15.767578 -59.855466,94.033202 11.050781,6.6836 56.853515,-80.626958 v -1.962891 c 0,-7.211658 -3.10271,-13.671652 -8.04883,-18.126953 z"
         style="fill:url(#linearGradient3640);fill-opacity:1;stroke:none;stroke-width:0.999999px;stroke-linecap:butt;stroke-linejoin:miter;stroke-opacity:1"
         id="path3632" />
      <path
         transform="scale(0.26458333)"
         d="m 51.865234,108.58398 a 8.4604547,8.4604547 0 0 0 -4.515625,7.44532 8.4604547,8.4604547 0 0 0 8.460938,8.45898 8.4604547,8.4604547 0 0 0 8.458984,-8.45898 8.4604547,8.4604547 0 0 0 -0.283203,-2.16211 l -1.845703,2.61719 -11.050781,-6.6836 z"
         style="fill:url(#radialGradient3650);fill-opacity:1;stroke:none;stroke-width:1.88976;stroke-linecap:round;stroke-linejoin:round;stroke-miterlimit:4;stroke-dasharray:none;stroke-opacity:0.135474"
         id="path3642" />
    </g>
    <g
       id="g3612"
       transform="matrix(0.86632489,0.22223227,-0.22223227,0.86632489,10.69816,-1.2856609)">
      <path
         style="fill:url(#linearGradient5316-2-0);fill-opacity:1;fill-rule:evenodd;stroke:none;stroke-width:0.264583px;stroke-linecap:butt;stroke-linejoin:miter;stroke-opacity:1"
         d="m 15.912876,13.602605 c -0.290642,-0.32376 -0.159696,-0.48049 -0.04175,-0.80922 0.05257,-0.14656 3.761904,-11.1314798 3.806372,-11.2871898 0.04451,-0.15571 0.374164,-0.28923 0.64483,-0.32255 0.301184,-0.0371 0.650385,-0.0278 1.195154,0.1724 0.555883,0.25581 1.000592,0.70626 0.945005,0.95651 -0.133521,0.60109 -3.111936,11.5043098 -3.412117,12.0270498 -0.300176,0.52274 -3.137465,-0.737 -3.137465,-0.737 z"
         id="path5275-9-7"
         inkscape:connector-curvature="0"
         sodipodi:nodetypes="cssscssc" />
      <path
         style="opacity:0.732;fill:#501a00;fill-opacity:0.996078;fill-rule:evenodd;stroke:none;stroke-width:1.4871px;stroke-linecap:butt;stroke-linejoin:miter;stroke-opacity:1;filter:url(#filter5584-4)"
         d="m 141.77489,79.749616 c -1.63389,-1.81932 -0.81085,-3.67383 -0.14794,-5.5211 0.29555,-0.82358 21.14844,-62.550782 21.39844,-63.425782 l 0.25977,-2.8515621 c -0.27011,0.94536 -22.79787,67.6375341 -23.11719,68.5273441 -0.71623,1.99584 -2.75077,1.797431 -0.98549,3.763061 z m 17.70167,6.115618 c 1.82321,-3.17372 19.91363,-69.370141 20.72461,-73.019531 l -1.51953,2.488281 C 177.93103,18.711734 161.1875,79.980469 159.5,82.917969 Z"
         transform="matrix(0.17257289,0,0,0.17264266,-8.4759445,-0.16690519)"
         id="path5275-9-1-2"
         inkscape:connector-curvature="0"
         sodipodi:nodetypes="csccsccccccc"
         clip-path="url(#clipPath5607-3)" />
      <path
         style="fill:#713e07;fill-opacity:1;fill-rule:evenodd;stroke:none;stroke-width:0.264583px;stroke-linecap:butt;stroke-linejoin:miter;stroke-opacity:1"
         d="m 15.975899,13.696755 c -0.212264,-0.21235 -0.243707,-0.34604 -0.212264,-0.41683 0.03146,-0.0708 0.440245,-0.14942 1.108459,-0.1101 0.695678,0.041 1.721651,0.48761 2.130444,0.95948 0.408795,0.47188 -0.841172,0.42469 -0.841172,0.42469 z"
         id="path5334-7"
         inkscape:connector-curvature="0"
         sodipodi:nodetypes="ccsscc" />
      <path
         style="fill:url(#linearGradient5316-25);fill-opacity:1;fill-rule:evenodd;stroke:none;stroke-width:0.264583px;stroke-linecap:butt;stroke-linejoin:miter;stroke-opacity:1"
         d="m 13.035596,24.086095 c -0.133407,-0.75631 -0.08894,-0.7007 -0.08894,-0.85641 0,-0.15571 2.935078,-9.58733 2.979545,-9.74304 0.04444,-0.15571 0.144535,-0.2447 0.333535,-0.25581 0.189002,-0.0111 0.978359,-0.0334 1.956712,0.456 0.411356,0.23357 0.744892,0.31143 0.567004,0.90091 -0.177881,0.58947 -2.868365,9.53172 -3.168546,10.05446 -0.300176,0.52275 -2.57931,-0.55611 -2.57931,-0.55611 z"
         id="path5275-2"
         inkscape:connector-curvature="0" />
      <path
         style="fill:url(#linearGradient5928-4);fill-opacity:1;fill-rule:evenodd;stroke:none;stroke-width:0.264583px;stroke-linecap:butt;stroke-linejoin:miter;stroke-opacity:1"
         d="m 12.965736,23.249505 c -0.54477,1.16783 -1.909085,6.219741 -1.775677,6.364331 0.133414,0.144589 2.22354,1.078849 2.401427,0.956508 0.177882,-0.122348 0.24459,-0.266927 0.32241,-0.46713 0.07783,-0.20021 1.845867,-5.438159 1.923693,-5.938659 -0.311295,-0.65622 -1.715613,-1.11525 -2.871853,-0.91505 z"
         id="path5908-2"
         inkscape:connector-curvature="0"
         sodipodi:nodetypes="cssccc" />
      <path
         style="opacity:0.615;fill:#5b472c;fill-opacity:1;fill-rule:evenodd;stroke:none;stroke-width:1.4871px;stroke-linecap:butt;stroke-linejoin:miter;stroke-opacity:1;filter:url(#filter5904-8)"
         d="m 144.93749,918.83094 1.4375,0.96875 h 2.03125 c 0,0 0.96875,0.15625 1.59375,-1.53125 0.625,-1.6875 14.36128,-43.79224 16.17324,-49.25022 0.59662,-1.72358 -0.37565,-2.07713 -0.81759,-2.12132 -0.44195,-0.0442 -4.26474,3.09359 -4.26474,3.09359 z"
         id="path5658-3-6"
         inkscape:connector-curvature="0"
         transform="matrix(0.17788329,0,0,0.17795521,-9.3221055,-152.0984)" />
      <path
         style="fill:url(#linearGradient5674-8);fill-opacity:1;fill-rule:evenodd;stroke:none;stroke-width:0.264583px;stroke-linecap:butt;stroke-linejoin:miter;stroke-opacity:1"
         d="m 16.404263,11.334495 0.255709,0.17239 h 0.361323 c 0,0 0.172327,0.0278 0.283501,-0.27249 0.11118,-0.3003 2.554634,-7.7930598 2.87695,-8.7643298 0.106131,-0.30672 -0.06683,-0.36964 -0.145435,-0.3775 -0.07861,-0.008 -0.758628,0.55052 -0.758628,0.55052 z"
         id="path5658-1"
         inkscape:connector-curvature="0" />
      <path
         style="fill:#f7fafc;fill-opacity:1;fill-rule:evenodd;stroke:none;stroke-width:0.264583px;stroke-linecap:butt;stroke-linejoin:miter;stroke-opacity:1"
         d="m 16.359797,11.025855 c -0.06118,0.22245 -0.07783,0.30586 0.07226,0.32532 0.150087,0.0194 0.439148,0.0278 0.511416,0.0278 0.07227,0 0.177881,-0.025 0.239027,-0.23634 0.06111,-0.21132 0.06111,-0.21132 0.06111,-0.21132 0,0 2.731736,-8.3609898 2.794624,-8.5575999 0.06286,-0.1966199 0.112028,-0.3656999 -0.129709,-0.3656999 -0.241737,0 -0.286944,0 -0.404862,0 -0.117924,0 -0.236176,-0.0312 -0.32035,0.28312 -0.08418,0.31429 -2.823555,8.7347098 -2.823555,8.7347098 z"
         id="path5613-0"
         inkscape:connector-curvature="0" />
      <path
         inkscape:connector-curvature="0"
         style="fill:url(#linearGradient5627-3);fill-opacity:1;fill-rule:evenodd;stroke:none;stroke-width:0.264583px;stroke-linecap:butt;stroke-linejoin:miter;stroke-opacity:1"
         d="m 19.415777,2.0081852 c -0.08696,0.006 -0.169295,0.0472 -0.232432,0.28292 -0.08418,0.31428 -2.823548,8.7347498 -2.823548,8.7347498 -0.01103,0.0401 -0.01829,0.0707 -0.02568,0.10218 0.0091,0.0408 0.02387,0.0563 0.04794,0.0563 0.05002,0 0.461383,0.0167 0.500296,0.0167 0.03893,0 0.08894,0 0.138975,-0.15571 0.05002,-0.155721 2.763543,-8.3627506 2.822505,-8.5043106 0.05896,-0.14157 0.141287,-0.44843 0.0077,-0.48382 -0.03543,-0.009 -0.108531,-0.0285 -0.186567,-0.049 h -0.161208 c -0.02951,0 -0.05889,-0.002 -0.0879,0 z"
         id="path5615-6" />
      <path
         style="fill:url(#radialGradient6108-9);fill-opacity:1;fill-rule:evenodd;stroke:none;stroke-width:0.264583px;stroke-linecap:butt;stroke-linejoin:miter;stroke-opacity:1"
         d="m 11.286569,33.109495 c -0.06091,0.144521 0.0275,0.279191 0.124802,0.303771 0.09728,0.02461 0.223069,-0.0433 0.291853,-0.171051 0.06878,-0.127809 -0.340986,-0.17204 -0.416655,-0.13272 z"
         id="path6100-1"
         inkscape:connector-curvature="0" />
      <path
         style="fill:url(#linearGradient6086-8);fill-opacity:1;fill-rule:evenodd;stroke:none;stroke-width:0.264583px;stroke-linecap:butt;stroke-linejoin:miter;stroke-opacity:1"
         d="m 11.267899,32.786066 c 0,0 -0.06387,0.32834 -0.02555,0.335229 0.03832,0.007 0.295791,-0.0551 0.45105,0.1337 l 0.243706,-0.291989 c 0,0 -0.33804,-0.37356 -0.669202,-0.17694 z"
         id="path6078-5"
         inkscape:connector-curvature="0"
         sodipodi:nodetypes="ccccc" />
      <path
         style="fill:#301503;fill-opacity:1;fill-rule:evenodd;stroke:none;stroke-width:1.4871px;stroke-linecap:butt;stroke-linejoin:miter;stroke-opacity:1;filter:url(#filter4712-0)"
         d="m 115.34766,1039.1928 c 0,0 0.50781,-0.098 0.73828,-0.1094 0.23047,-0.012 0.82422,0.021 1.15015,0.1089 0.32594,0.088 1.22087,0.4696 1.51366,0.6353 0.29278,0.1657 0.97227,0.3757 0.97227,0.3757 l -0.21545,-1.3479 -4.06034,-0.072 z"
         id="path4655-3-9"
         inkscape:connector-curvature="0"
         clip-path="url(#clipPath4746-9)"
         transform="matrix(0.17788329,0,0,0.17795521,-9.3221055,-152.0984)" />
      <path
         style="fill:#301503;fill-opacity:1;fill-rule:evenodd;stroke:none;stroke-width:0.264583px;stroke-linecap:butt;stroke-linejoin:miter;stroke-opacity:1"
         d="m 11.196318,32.815635 c 0,0 0.09033,-0.01741 0.131323,-0.01939 0.04101,-0.0021 0.146619,0.004 0.204599,0.01939 0.05795,0.01569 0.217172,0.0836 0.269249,0.113052 0.0521,0.0295 0.172954,0.0669 0.172954,0.0669 l -0.03832,-0.239871 -0.722268,-0.01281 z"
         id="path4655-4"
         inkscape:connector-curvature="0" />
      <path
         inkscape:connector-curvature="0"
         style="fill:#b3b2b0;fill-opacity:1;fill-rule:evenodd;stroke:none;stroke-width:0.264583px;stroke-linecap:butt;stroke-linejoin:miter;stroke-opacity:1"
         d="m 13.544929,29.975646 -0.225824,0.338888 -1.496378,2.593901 c 0.04827,0.02551 0.09775,0.0524 0.151829,0.0879 0,0 1.768618,-2.508549 1.823654,-2.602939 0.04511,-0.0774 -0.09991,-0.29088 -0.253281,-0.41778 z"
         id="path6004-9" />
      <path
         inkscape:connector-curvature="0"
         style="fill:#eeeeee;fill-opacity:1;fill-rule:evenodd;stroke:none;stroke-width:0.264583px;stroke-linecap:butt;stroke-linejoin:miter;stroke-opacity:1"
         d="m 13.422984,30.235974 c -0.157469,-0.02609 -0.459648,0.540131 -0.459648,0.540131 0,0 -1.103194,1.677141 -1.160408,2.120861 0.03039,0.0155 0.06421,0.0369 0.09693,0.0563 0.06696,-0.0947 1.029999,-1.458031 1.185774,-1.726721 0.161208,-0.27805 0.516977,-0.68957 0.394682,-0.939829 -0.01526,-0.0313 -0.03483,-0.047 -0.05735,-0.0508 z"
         id="path6002-0" />
      <path
         inkscape:connector-curvature="0"
         style="fill:#4d5051;fill-opacity:1;fill-rule:evenodd;stroke:none;stroke-width:0.264583px;stroke-linecap:butt;stroke-linejoin:miter;stroke-opacity:1"
         d="m 13.366355,29.867206 c -0.02333,0.0398 -1.479885,2.527879 -1.564818,3.02872 0.02299,0.01169 0.04901,0.0288 0.07331,0.0428 l 1.70587,-2.93279 c -0.04504,-0.0416 -0.09197,-0.077 -0.136191,-0.1001 -0.01903,-0.01 -0.05304,-0.02601 -0.07817,-0.0386 z"
         id="path6000-9" />
      <path
         inkscape:connector-curvature="0"
         style="fill:#834d4f;fill-opacity:1;fill-rule:evenodd;stroke:none;stroke-width:0.264583px;stroke-linecap:butt;stroke-linejoin:miter;stroke-opacity:1"
         d="m 13.181872,29.779965 -1.476571,3.0739 c 0.04982,0.02061 0.103482,0.0472 0.160859,0.0796 l 1.568986,-3.03254 c -0.05829,-0.0303 -0.148857,-0.0734 -0.253274,-0.12096 z"
         id="path5998-1" />
      <path
         inkscape:connector-curvature="0"
         style="fill:#676d6e;fill-opacity:1;fill-rule:evenodd;stroke:none;stroke-width:0.264583px;stroke-linecap:butt;stroke-linejoin:miter;stroke-opacity:1"
         d="m 13.066872,29.729226 c -0.06834,0.118398 -1.53016,2.65753 -1.437313,3.092659 0.0353,0.01201 0.07528,0.0303 0.114999,0.0483 l 1.539109,-3.044011 c -0.06253,-0.0299 -0.136594,-0.0626 -0.216795,-0.097 z"
         id="path5996-7" />
      <path
         inkscape:connector-curvature="0"
         style="fill:#a19c9f;fill-opacity:1;fill-rule:evenodd;stroke:none;stroke-width:0.264583px;stroke-linecap:butt;stroke-linejoin:miter;stroke-opacity:1"
         d="m 13.015454,29.706286 -1.414039,2.293261 0.122301,0.861967 c 0.0067,0.003 0.01257,0.005 0.01909,0.008 l 1.382762,-3.114557 c -0.03691,-0.0163 -0.06976,-0.0318 -0.110132,-0.0487 z"
         id="path5994-7" />
      <path
         style="fill:url(#linearGradient5992-8);fill-opacity:1;fill-rule:evenodd;stroke:none;stroke-width:0.264583px;stroke-linecap:butt;stroke-linejoin:miter;stroke-opacity:1"
         d="m 11.673683,29.404246 c -0.07927,-0.0011 -0.150619,0.0011 -0.220614,0.005 l -0.240078,3.399222 c 0.03073,-0.01651 0.172597,-0.0761 0.450962,0.0278 l 0.05768,0.02611 1.329267,-3.140292 c -0.21114,-0.08991 -0.465356,-0.184155 -0.722651,-0.240874 -0.231914,-0.0511 -0.456058,-0.0729 -0.654559,-0.0768 z"
         id="path5984-1"
         inkscape:connector-curvature="0"
         sodipodi:nodetypes="ccccccsc" />
      <path
         inkscape:connector-curvature="0"
         style="fill:#c6e0f0;fill-opacity:1;fill-rule:evenodd;stroke:none;stroke-width:0.264583px;stroke-linecap:butt;stroke-linejoin:miter;stroke-opacity:1"
         d="m 11.486766,29.408416 c -0.09113,0.003 -0.172793,0.009 -0.245282,0.0181 -0.0234,0.02479 -0.04699,0.0494 -0.06845,0.0751 l 0.02326,3.298068 c 0.0034,0.007 0.0034,0.007 0.0061,0.0136 0.0034,-0.0021 0.01405,-0.009 0.03859,-0.01701 z"
         id="path5982-1" />
      <path
         inkscape:connector-curvature="0"
         style="fill:#a5a7a8;fill-opacity:1;fill-rule:evenodd;stroke:none;stroke-width:0.264583px;stroke-linecap:butt;stroke-linejoin:miter;stroke-opacity:1"
         d="m 11.346405,29.415366 c -0.06199,0.005 -0.123591,0.0108 -0.173712,0.0184 l 0.0236,3.38184 c 0,0 0.01472,-0.006 0.02084,-0.009 z"
         id="path5980-5" />
    </g>
  </g>
</svg>
