<?xml version="1.0" encoding="UTF-8" standalone="no"?>
<svg
   width="128"
   height="128"
   viewBox="0 0 33.866666 33.866668"
   version="1.1"
   id="svg1829"
   inkscape:version="1.1.2 (0a00cf5339, 2022-02-04)"
   sodipodi:docname="chrome-haiffjcadagjlijoggckpgfnoeiflnem-Default.svg"
   xmlns:inkscape="http://www.inkscape.org/namespaces/inkscape"
   xmlns:sodipodi="http://sodipodi.sourceforge.net/DTD/sodipodi-0.dtd"
   xmlns:xlink="http://www.w3.org/1999/xlink"
   xmlns="http://www.w3.org/2000/svg"
   xmlns:svg="http://www.w3.org/2000/svg"
   xmlns:rdf="http://www.w3.org/1999/02/22-rdf-syntax-ns#"
   xmlns:cc="http://creativecommons.org/ns#"
   xmlns:dc="http://purl.org/dc/elements/1.1/">
  <defs
     id="defs1823">
    <linearGradient
       inkscape:collect="always"
       id="linearGradient934">
      <stop
         style="stop-color:#0dbbff;stop-opacity:1"
         offset="0"
         id="stop930" />
      <stop
         style="stop-color:#0245ff;stop-opacity:1"
         offset="1"
         id="stop932" />
    </linearGradient>
    <radialGradient
       inkscape:collect="always"
       xlink:href="#linearGradient934"
       id="radialGradient908"
       cx="16.936953"
       cy="3.2428353"
       fx="16.936953"
       fy="3.2428353"
       r="14.54372"
       gradientUnits="userSpaceOnUse"
       gradientTransform="matrix(4.4791718,0,0,2.0391647,-58.926568,-3.3698399)" />
    <linearGradient
       id="b"
       x1="24.586"
       x2="24.586"
       y1="12.173"
       y2="68.517754"
       gradientTransform="matrix(0.7932033,0,0,0.7932033,-1.8105302,-2.3385477)"
       gradientUnits="userSpaceOnUse">
      <stop
         offset="0"
         stop-color="#fff"
         id="stop7" />
      <stop
         offset="1"
         stop-color="#e8e8e8"
         id="stop9"
         style="stop-color:#0568ff;stop-opacity:1" />
    </linearGradient>
  </defs>
  <sodipodi:namedview
     id="base"
     pagecolor="#ffffff"
     bordercolor="#666666"
     borderopacity="1.0"
     inkscape:pageopacity="0.0"
     inkscape:pageshadow="2"
     inkscape:zoom="2"
     inkscape:cx="116"
     inkscape:cy="91.25"
     inkscape:document-units="mm"
     inkscape:current-layer="layer1"
     inkscape:document-rotation="0"
     showgrid="false"
     units="px"
     inkscape:window-width="1920"
     inkscape:window-height="1022"
     inkscape:window-x="0"
     inkscape:window-y="24"
     inkscape:window-maximized="1"
     inkscape:pagecheckerboard="0" />
  <metadata
     id="metadata1826">
    <rdf:RDF>
      <cc:Work
         rdf:about="">
        <dc:format>image/svg+xml</dc:format>
        <dc:type
           rdf:resource="http://purl.org/dc/dcmitype/StillImage" />
      </cc:Work>
    </rdf:RDF>
  </metadata>
  <g
     inkscape:label="Capa 1"
     inkscape:groupmode="layer"
     id="layer1">
    <g
       id="g1702"
       transform="matrix(0.97573206,0,0,0.97573206,-65.58674,-37.192363)"
       style="opacity:0.296765">
      <rect
         style="fill:none;fill-opacity:1;stroke:#000000;stroke-width:0.1;stroke-linecap:round;stroke-linejoin:round;stroke-miterlimit:4;stroke-dasharray:none;stroke-opacity:0.02"
         id="rect1634"
         width="29.810888"
         height="29.810888"
         x="69.839508"
         y="40.709618"
         rx="6.6098609"
         ry="6.6098609" />
      <rect
         ry="6.6098609"
         rx="6.6098609"
         y="40.709618"
         x="69.839508"
         height="29.810888"
         width="29.810888"
         id="rect1638"
         style="fill:none;fill-opacity:1;stroke:#000000;stroke-width:0.2;stroke-linecap:round;stroke-linejoin:round;stroke-miterlimit:4;stroke-dasharray:none;stroke-opacity:0.02" />
      <rect
         style="fill:none;fill-opacity:1;stroke:#000000;stroke-width:0.3;stroke-linecap:round;stroke-linejoin:round;stroke-miterlimit:4;stroke-dasharray:none;stroke-opacity:0.02"
         id="rect1640"
         width="29.810888"
         height="29.810888"
         x="69.839508"
         y="40.709618"
         rx="6.6098609"
         ry="6.6098609" />
      <rect
         ry="6.6098609"
         rx="6.6098609"
         y="40.709618"
         x="69.839508"
         height="29.810888"
         width="29.810888"
         id="rect1642"
         style="fill:none;fill-opacity:1;stroke:#000000;stroke-width:0.4;stroke-linecap:round;stroke-linejoin:round;stroke-miterlimit:4;stroke-dasharray:none;stroke-opacity:0.02" />
      <rect
         style="fill:none;fill-opacity:1;stroke:#000000;stroke-width:0.5;stroke-linecap:round;stroke-linejoin:round;stroke-miterlimit:4;stroke-dasharray:none;stroke-opacity:0.02"
         id="rect1644"
         width="29.810888"
         height="29.810888"
         x="69.839508"
         y="40.709618"
         rx="6.6098609"
         ry="6.6098609" />
      <rect
         ry="6.6098609"
         rx="6.6098609"
         y="40.709618"
         x="69.839508"
         height="29.810888"
         width="29.810888"
         id="rect1646"
         style="fill:none;fill-opacity:1;stroke:#000000;stroke-width:0.6;stroke-linecap:round;stroke-linejoin:round;stroke-miterlimit:4;stroke-dasharray:none;stroke-opacity:0.02" />
      <rect
         style="fill:none;fill-opacity:1;stroke:#000000;stroke-width:0.7;stroke-linecap:round;stroke-linejoin:round;stroke-miterlimit:4;stroke-dasharray:none;stroke-opacity:0.02"
         id="rect1648"
         width="29.810888"
         height="29.810888"
         x="69.839508"
         y="40.709618"
         rx="6.6098609"
         ry="6.6098609" />
      <rect
         ry="6.6098609"
         rx="6.6098609"
         y="40.709618"
         x="69.839508"
         height="29.810888"
         width="29.810888"
         id="rect1650"
         style="fill:none;fill-opacity:1;stroke:#000000;stroke-width:0.8;stroke-linecap:round;stroke-linejoin:round;stroke-miterlimit:4;stroke-dasharray:none;stroke-opacity:0.02" />
      <rect
         style="fill:none;fill-opacity:1;stroke:#000000;stroke-width:1;stroke-linecap:round;stroke-linejoin:round;stroke-miterlimit:4;stroke-dasharray:none;stroke-opacity:0.02"
         id="rect1652"
         width="29.810888"
         height="29.810888"
         x="69.839508"
         y="40.709618"
         rx="6.6098609"
         ry="6.6098609" />
      <rect
         ry="6.6098609"
         rx="6.6098609"
         y="40.709618"
         x="69.839508"
         height="29.810888"
         width="29.810888"
         id="rect1654"
         style="fill:none;fill-opacity:1;stroke:#000000;stroke-width:1.2;stroke-linecap:round;stroke-linejoin:round;stroke-miterlimit:4;stroke-dasharray:none;stroke-opacity:0.02" />
      <rect
         style="fill:none;fill-opacity:1;stroke:#000000;stroke-width:1.4;stroke-linecap:round;stroke-linejoin:round;stroke-miterlimit:4;stroke-dasharray:none;stroke-opacity:0.02"
         id="rect1656"
         width="29.810888"
         height="29.810888"
         x="69.839508"
         y="40.709618"
         rx="6.6098609"
         ry="6.6098609" />
      <rect
         ry="6.6098609"
         rx="6.6098609"
         y="40.709618"
         x="69.839508"
         height="29.810888"
         width="29.810888"
         id="rect1658"
         style="fill:none;fill-opacity:1;stroke:#000000;stroke-width:1.6;stroke-linecap:round;stroke-linejoin:round;stroke-miterlimit:4;stroke-dasharray:none;stroke-opacity:0.02" />
      <rect
         style="fill:none;fill-opacity:1;stroke:#000000;stroke-width:1.8;stroke-linecap:round;stroke-linejoin:round;stroke-miterlimit:4;stroke-dasharray:none;stroke-opacity:0.02"
         id="rect1660"
         width="29.810888"
         height="29.810888"
         x="69.839508"
         y="40.709618"
         rx="6.6098609"
         ry="6.6098609" />
      <rect
         ry="6.6098609"
         rx="6.6098609"
         y="40.709618"
         x="69.839508"
         height="29.810888"
         width="29.810888"
         id="rect1662"
         style="fill:none;fill-opacity:1;stroke:#000000;stroke-width:2;stroke-linecap:round;stroke-linejoin:round;stroke-miterlimit:4;stroke-dasharray:none;stroke-opacity:0.02" />
      <rect
         style="fill:none;fill-opacity:1;stroke:#000000;stroke-width:2.2;stroke-linecap:round;stroke-linejoin:round;stroke-miterlimit:4;stroke-dasharray:none;stroke-opacity:0.02"
         id="rect1664"
         width="29.810888"
         height="29.810888"
         x="69.839508"
         y="40.709618"
         rx="6.6098609"
         ry="6.6098609" />
      <rect
         ry="6.6098609"
         rx="6.6098609"
         y="40.709618"
         x="69.839508"
         height="29.810888"
         width="29.810888"
         id="rect1666"
         style="fill:none;fill-opacity:1;stroke:#000000;stroke-width:2.6;stroke-linecap:round;stroke-linejoin:round;stroke-miterlimit:4;stroke-dasharray:none;stroke-opacity:0.02" />
      <rect
         style="fill:none;fill-opacity:1;stroke:#000000;stroke-width:3;stroke-linecap:round;stroke-linejoin:round;stroke-miterlimit:4;stroke-dasharray:none;stroke-opacity:0.02"
         id="rect1668"
         width="29.810888"
         height="29.810888"
         x="69.839508"
         y="40.709618"
         rx="6.6098609"
         ry="6.6098609" />
      <rect
         ry="6.6098609"
         rx="6.6098609"
         y="40.709618"
         x="69.839508"
         height="29.810888"
         width="29.810888"
         id="rect1670"
         style="fill:none;fill-opacity:1;stroke:#000000;stroke-width:3.4;stroke-linecap:round;stroke-linejoin:round;stroke-miterlimit:4;stroke-dasharray:none;stroke-opacity:0.02" />
      <rect
         style="fill:none;fill-opacity:1;stroke:#000000;stroke-width:3.8;stroke-linecap:round;stroke-linejoin:round;stroke-miterlimit:4;stroke-dasharray:none;stroke-opacity:0.02"
         id="rect1672"
         width="29.810888"
         height="29.810888"
         x="69.839508"
         y="40.709618"
         rx="6.6098609"
         ry="6.6098609" />
      <rect
         ry="6.6098609"
         rx="6.6098609"
         y="40.709618"
         x="69.839508"
         height="29.810888"
         width="29.810888"
         id="rect1674"
         style="fill:none;fill-opacity:1;stroke:#000000;stroke-width:4.2;stroke-linecap:round;stroke-linejoin:round;stroke-miterlimit:4;stroke-dasharray:none;stroke-opacity:0.02" />
      <rect
         style="fill:none;fill-opacity:1;stroke:#000000;stroke-width:4.6;stroke-linecap:round;stroke-linejoin:round;stroke-miterlimit:4;stroke-dasharray:none;stroke-opacity:0.02"
         id="rect1676"
         width="29.810888"
         height="29.810888"
         x="69.839508"
         y="40.709618"
         rx="6.6098609"
         ry="6.6098609" />
      <rect
         ry="6.6098609"
         rx="6.6098609"
         y="40.709618"
         x="69.839508"
         height="29.810888"
         width="29.810888"
         id="rect1678"
         style="fill:none;fill-opacity:1;stroke:#000000;stroke-width:5;stroke-linecap:round;stroke-linejoin:round;stroke-miterlimit:4;stroke-dasharray:none;stroke-opacity:0.02" />
    </g>
    <rect
       style="fill:url(#radialGradient908);fill-opacity:1;stroke-width:2.68769;stroke-linecap:round;stroke-linejoin:round"
       id="rect849-5"
       width="29.08744"
       height="29.08744"
       x="2.5579116"
       y="2.5293181"
       rx="6.4494534"
       ry="6.4494534" />
    <g
       id="g1679"
       style="opacity:0.64961307">
      <path
         fill="#ffffff"
         d="m 17.250314,6.5767243 a 1.0516577,1.0516577 0 0 0 -0.09921,0.00595 A 10.512609,10.512609 0 0 0 6.7496135,17.077428 10.516577,10.516577 0 0 0 17.250316,27.576147 10.512609,10.512609 0 0 0 27.743082,17.18061 a 1.0516577,1.0516577 0 0 0 0.0079,-0.10318 1.0516577,1.0516577 0 0 0 -1.051657,-1.051657 1.0516577,1.0516577 0 0 0 -1.049676,1.051655 8.383498,8.383498 0 0 1 -8.399372,8.399374 A 8.383498,8.383498 0 0 1 8.8509068,17.077428 8.383498,8.383498 0 0 1 17.250277,8.6760715 1.0516577,1.0516577 0 0 0 18.301934,7.6263969 1.0516577,1.0516577 0 0 0 17.250277,6.5767243 Z m 0,4.2006797 a 1.0516577,1.0516577 0 0 0 -0.09921,0.004 6.313915,6.313915 0 0 0 -6.200813,6.296055 6.3158992,6.3158992 0 0 0 6.300026,6.298042 6.3119308,6.3119308 0 0 0 6.294072,-6.19486 1.0516577,1.0516577 0 0 0 0.006,-0.10318 1.0516577,1.0516577 0 0 0 -1.051657,-1.051657 1.0516577,1.0516577 0 0 0 -1.047688,1.051657 4.184804,4.184804 0 0 1 -4.200681,4.198693 4.184804,4.184804 0 0 1 -4.200679,-4.198695 c 0,-2.333489 1.869174,-4.200678 4.200679,-4.200678 a 1.0516577,1.0516577 0 0 0 1.051657,-1.051657 1.0516577,1.0516577 0 0 0 -1.051657,-1.047689 z m 0,4.198693 a 2.0993469,2.0993469 0 0 0 -2.099347,2.101331 2.0993469,2.0993469 0 0 0 2.099347,2.099348 2.0993469,2.0993469 0 0 0 2.099347,-2.099348 2.0993469,2.0993469 0 0 0 -2.099347,-2.101331 z"
         id="path1037"
         style="fill:#000941;fill-opacity:0.0550678;stroke-width:1.98426" />
      <path
         fill="#ffffff"
         d="M 17.36452,6.8463635 A 1.0516577,1.0516577 0 0 0 17.26531,6.8523135 10.512609,10.512609 0 0 0 6.8638197,17.347067 10.516577,10.516577 0 0 0 17.364522,27.845786 10.512609,10.512609 0 0 0 27.857288,17.450249 a 1.0516577,1.0516577 0 0 0 0.0079,-0.10318 1.0516577,1.0516577 0 0 0 -1.051657,-1.051657 1.0516577,1.0516577 0 0 0 -1.049676,1.051655 8.383498,8.383498 0 0 1 -8.399372,8.399374 8.383498,8.383498 0 0 1 -8.39937,-8.399374 8.383498,8.383498 0 0 1 8.39937,-8.4013563 1.0516577,1.0516577 0 0 0 1.051657,-1.0496746 1.0516577,1.0516577 0 0 0 -1.051657,-1.0496726 z m 0,4.2006795 a 1.0516577,1.0516577 0 0 0 -0.09921,0.004 6.313915,6.313915 0 0 0 -6.200813,6.296055 6.3158992,6.3158992 0 0 0 6.300026,6.298042 6.3119308,6.3119308 0 0 0 6.294072,-6.19486 1.0516577,1.0516577 0 0 0 0.006,-0.10318 1.0516577,1.0516577 0 0 0 -1.051657,-1.051657 1.0516577,1.0516577 0 0 0 -1.047688,1.051657 4.184804,4.184804 0 0 1 -4.200681,4.198693 4.184804,4.184804 0 0 1 -4.200679,-4.198695 c 0,-2.333489 1.869174,-4.200678 4.200679,-4.200678 a 1.0516577,1.0516577 0 0 0 1.051657,-1.051657 1.0516577,1.0516577 0 0 0 -1.051657,-1.047689 z m 0,4.198693 a 2.0993469,2.0993469 0 0 0 -2.099347,2.101331 2.0993469,2.0993469 0 0 0 2.099347,2.099348 2.0993469,2.0993469 0 0 0 2.099347,-2.099348 2.0993469,2.0993469 0 0 0 -2.099347,-2.101331 z"
         id="path1669"
         style="fill:#000941;fill-opacity:0.0550678;stroke-width:1.98426" />
      <path
         fill="#ffffff"
         d="m 17.543075,7.1372213 a 1.0516577,1.0516577 0 0 0 -0.09921,0.00595 A 10.512609,10.512609 0 0 0 7.0423749,17.637925 10.516577,10.516577 0 0 0 17.543077,28.136644 10.512609,10.512609 0 0 0 28.035843,17.741107 1.0516577,1.0516577 0 0 0 28.043743,17.637927 1.0516577,1.0516577 0 0 0 26.992086,16.58627 1.0516577,1.0516577 0 0 0 25.94241,17.637925 8.383498,8.383498 0 0 1 17.543038,26.037299 8.383498,8.383498 0 0 1 9.1436682,17.637925 8.383498,8.383498 0 0 1 17.543038,9.2365685 1.0516577,1.0516577 0 0 0 18.594695,8.1868939 1.0516577,1.0516577 0 0 0 17.543038,7.1372213 Z m 0,4.2006797 a 1.0516577,1.0516577 0 0 0 -0.09921,0.004 6.313915,6.313915 0 0 0 -6.200813,6.296055 6.3158992,6.3158992 0 0 0 6.300026,6.298042 6.3119308,6.3119308 0 0 0 6.294072,-6.19486 1.0516577,1.0516577 0 0 0 0.006,-0.10318 1.0516577,1.0516577 0 0 0 -1.051657,-1.051657 1.0516577,1.0516577 0 0 0 -1.047688,1.051657 4.184804,4.184804 0 0 1 -4.200681,4.198693 4.184804,4.184804 0 0 1 -4.200679,-4.198695 c 0,-2.333489 1.869174,-4.200678 4.200679,-4.200678 a 1.0516577,1.0516577 0 0 0 1.051657,-1.051657 1.0516577,1.0516577 0 0 0 -1.051657,-1.047689 z m 0,4.198693 a 2.0993469,2.0993469 0 0 0 -2.099347,2.101331 2.0993469,2.0993469 0 0 0 2.099347,2.099348 2.0993469,2.0993469 0 0 0 2.099347,-2.099348 2.0993469,2.0993469 0 0 0 -2.099347,-2.101331 z"
         id="path1671"
         style="fill:#000941;fill-opacity:0.0550678;stroke-width:1.98426" />
      <path
         fill="#ffffff"
         d="m 17.769796,7.5020362 a 1.0516577,1.0516577 0 0 0 -0.09921,0.00595 A 10.512609,10.512609 0 0 0 7.2690962,18.00274 10.516577,10.516577 0 0 0 17.769798,28.501459 10.512609,10.512609 0 0 0 28.262564,18.105922 a 1.0516577,1.0516577 0 0 0 0.0079,-0.10318 1.0516577,1.0516577 0 0 0 -1.051657,-1.051657 1.0516577,1.0516577 0 0 0 -1.049676,1.051655 8.383498,8.383498 0 0 1 -8.399372,8.399374 A 8.383498,8.383498 0 0 1 9.3703895,18.00274 8.383498,8.383498 0 0 1 17.769759,9.6013834 1.0516577,1.0516577 0 0 0 18.821416,8.5517088 1.0516577,1.0516577 0 0 0 17.769759,7.5020362 Z m 0,4.2006798 a 1.0516577,1.0516577 0 0 0 -0.09921,0.004 6.313915,6.313915 0 0 0 -6.200813,6.296055 6.3158992,6.3158992 0 0 0 6.300026,6.298042 6.3119308,6.3119308 0 0 0 6.294072,-6.19486 1.0516577,1.0516577 0 0 0 0.006,-0.10318 1.0516577,1.0516577 0 0 0 -1.051657,-1.051657 1.0516577,1.0516577 0 0 0 -1.047688,1.051657 4.184804,4.184804 0 0 1 -4.200681,4.198693 4.184804,4.184804 0 0 1 -4.200679,-4.198695 c 0,-2.333489 1.869174,-4.200678 4.200679,-4.200678 a 1.0516577,1.0516577 0 0 0 1.051657,-1.051657 1.0516577,1.0516577 0 0 0 -1.051657,-1.047689 z m 0,4.198693 a 2.0993469,2.0993469 0 0 0 -2.099347,2.101331 2.0993469,2.0993469 0 0 0 2.099347,2.099348 2.0993469,2.0993469 0 0 0 2.099347,-2.099348 2.0993469,2.0993469 0 0 0 -2.099347,-2.101331 z"
         id="path1673"
         style="fill:#000941;fill-opacity:0.0550678;stroke-width:1.98426" />
    </g>
    <path
       fill="#ffffff"
       d="m 17.193299,6.3781386 a 1.0516577,1.0516577 0 0 0 -0.09921,0.00595 10.512609,10.512609 0 0 0 -10.401491,10.4947534 10.516577,10.516577 0 0 0 10.500703,10.498719 10.512609,10.512609 0 0 0 10.492766,-10.395537 1.0516577,1.0516577 0 0 0 0.0079,-0.10318 1.0516577,1.0516577 0 0 0 -1.051657,-1.051657 1.0516577,1.0516577 0 0 0 -1.049676,1.051655 8.383498,8.383498 0 0 1 -8.399372,8.399374 A 8.383498,8.383498 0 0 1 8.7938913,16.878842 8.383498,8.383498 0 0 1 17.193262,8.4774858 1.0516577,1.0516577 0 0 0 18.244919,7.4278112 1.0516577,1.0516577 0 0 0 17.193262,6.3781386 Z m 0,4.2006794 a 1.0516577,1.0516577 0 0 0 -0.09921,0.004 6.313915,6.313915 0 0 0 -6.200813,6.296055 6.3158992,6.3158992 0 0 0 6.300026,6.298042 6.3119308,6.3119308 0 0 0 6.294072,-6.19486 1.0516577,1.0516577 0 0 0 0.006,-0.10318 1.0516577,1.0516577 0 0 0 -1.051657,-1.051657 1.0516577,1.0516577 0 0 0 -1.047688,1.051657 4.184804,4.184804 0 0 1 -4.200681,4.198693 4.184804,4.184804 0 0 1 -4.200679,-4.198695 c 0,-2.333489 1.869174,-4.200678 4.200679,-4.200678 a 1.0516577,1.0516577 0 0 0 1.051657,-1.051657 1.0516577,1.0516577 0 0 0 -1.051657,-1.047689 z m 0,4.198693 a 2.0993469,2.0993469 0 0 0 -2.099347,2.101331 2.0993469,2.0993469 0 0 0 2.099347,2.099348 2.0993469,2.0993469 0 0 0 2.099347,-2.099348 2.0993469,2.0993469 0 0 0 -2.099347,-2.101331 z"
       id="path26"
       style="stroke-width:1.98426" />
  </g>
</svg>
