<?xml version="1.0" encoding="UTF-8" standalone="no"?>
<svg
   width="128"
   height="128"
   viewBox="0 0 33.866666 33.866668"
   version="1.1"
   id="svg1443"
   inkscape:version="1.1.2 (0a00cf5339, 2022-02-04)"
   sodipodi:docname="colobot.svg"
   xmlns:inkscape="http://www.inkscape.org/namespaces/inkscape"
   xmlns:sodipodi="http://sodipodi.sourceforge.net/DTD/sodipodi-0.dtd"
   xmlns:xlink="http://www.w3.org/1999/xlink"
   xmlns="http://www.w3.org/2000/svg"
   xmlns:svg="http://www.w3.org/2000/svg"
   xmlns:rdf="http://www.w3.org/1999/02/22-rdf-syntax-ns#"
   xmlns:cc="http://creativecommons.org/ns#"
   xmlns:dc="http://purl.org/dc/elements/1.1/">
  <defs
     id="defs1437">
    <linearGradient
       gradientTransform="matrix(0.97573206,0,0,0.97573206,-111.76517,-37.182508)"
       gradientUnits="userSpaceOnUse"
       y2="70.679932"
       x2="132.21078"
       y1="42.151531"
       x1="132.21078"
       id="linearGradient1632"
       xlink:href="#linearGradient1630"
       inkscape:collect="always" />
    <linearGradient
       id="linearGradient1630"
       inkscape:collect="always">
      <stop
         id="stop1626"
         offset="0"
         style="stop-color:#fafafc;stop-opacity:1" />
      <stop
         id="stop1628"
         offset="1"
         style="stop-color:#e2e6ea;stop-opacity:1" />
    </linearGradient>
    <filter
       color-interpolation-filters="sRGB"
       height="1.1311001"
       width="1.1106"
       y="-0.065563001"
       x="-0.055319"
       id="c-9">
      <feGaussianBlur
         id="feGaussianBlur1093"
         stdDeviation="1.1062912" />
    </filter>
    <linearGradient
       gradientUnits="userSpaceOnUse"
       gradientTransform="matrix(0.13235,0,0,0.13075,-32.379,1.0873)"
       y2="269.48999"
       y1="235.14999"
       x2="657.65002"
       x1="319.20999"
       id="a-12">
      <stop
         id="stop1076"
         offset="0"
         stop-color="#e54c18" />
      <stop
         id="stop1078"
         offset="1"
         stop-color="#fec350" />
    </linearGradient>
  </defs>
  <sodipodi:namedview
     id="base"
     pagecolor="#ffffff"
     bordercolor="#666666"
     borderopacity="1.0"
     inkscape:pageopacity="0.0"
     inkscape:pageshadow="2"
     inkscape:zoom="2.8"
     inkscape:cx="36.785714"
     inkscape:cy="93.75"
     inkscape:document-units="mm"
     inkscape:current-layer="layer1"
     inkscape:document-rotation="0"
     showgrid="false"
     units="px"
     inkscape:window-width="1920"
     inkscape:window-height="1030"
     inkscape:window-x="0"
     inkscape:window-y="24"
     inkscape:window-maximized="1"
     inkscape:pagecheckerboard="0" />
  <metadata
     id="metadata1440">
    <rdf:RDF>
      <cc:Work
         rdf:about="">
        <dc:format>image/svg+xml</dc:format>
        <dc:type
           rdf:resource="http://purl.org/dc/dcmitype/StillImage" />
      </cc:Work>
    </rdf:RDF>
  </metadata>
  <g
     inkscape:label="Capa 1"
     inkscape:groupmode="layer"
     id="layer1">
    <g
       style="opacity:0.295"
       transform="matrix(0.97573206,0,0,0.97573206,-65.737228,-37.182508)"
       id="g1702">
      <rect
         ry="6.6098609"
         rx="6.6098609"
         y="40.709618"
         x="69.839508"
         height="29.810888"
         width="29.810888"
         id="rect1634"
         style="fill:none;fill-opacity:1;stroke:#000000;stroke-width:0.1;stroke-linecap:round;stroke-linejoin:round;stroke-miterlimit:4;stroke-dasharray:none;stroke-opacity:0.02" />
      <rect
         style="fill:none;fill-opacity:1;stroke:#000000;stroke-width:0.2;stroke-linecap:round;stroke-linejoin:round;stroke-miterlimit:4;stroke-dasharray:none;stroke-opacity:0.02"
         id="rect1638"
         width="29.810888"
         height="29.810888"
         x="69.839508"
         y="40.709618"
         rx="6.6098609"
         ry="6.6098609" />
      <rect
         ry="6.6098609"
         rx="6.6098609"
         y="40.709618"
         x="69.839508"
         height="29.810888"
         width="29.810888"
         id="rect1640"
         style="fill:none;fill-opacity:1;stroke:#000000;stroke-width:0.3;stroke-linecap:round;stroke-linejoin:round;stroke-miterlimit:4;stroke-dasharray:none;stroke-opacity:0.02" />
      <rect
         style="fill:none;fill-opacity:1;stroke:#000000;stroke-width:0.4;stroke-linecap:round;stroke-linejoin:round;stroke-miterlimit:4;stroke-dasharray:none;stroke-opacity:0.02"
         id="rect1642"
         width="29.810888"
         height="29.810888"
         x="69.839508"
         y="40.709618"
         rx="6.6098609"
         ry="6.6098609" />
      <rect
         ry="6.6098609"
         rx="6.6098609"
         y="40.709618"
         x="69.839508"
         height="29.810888"
         width="29.810888"
         id="rect1644"
         style="fill:none;fill-opacity:1;stroke:#000000;stroke-width:0.5;stroke-linecap:round;stroke-linejoin:round;stroke-miterlimit:4;stroke-dasharray:none;stroke-opacity:0.02" />
      <rect
         style="fill:none;fill-opacity:1;stroke:#000000;stroke-width:0.6;stroke-linecap:round;stroke-linejoin:round;stroke-miterlimit:4;stroke-dasharray:none;stroke-opacity:0.02"
         id="rect1646"
         width="29.810888"
         height="29.810888"
         x="69.839508"
         y="40.709618"
         rx="6.6098609"
         ry="6.6098609" />
      <rect
         ry="6.6098609"
         rx="6.6098609"
         y="40.709618"
         x="69.839508"
         height="29.810888"
         width="29.810888"
         id="rect1648"
         style="fill:none;fill-opacity:1;stroke:#000000;stroke-width:0.7;stroke-linecap:round;stroke-linejoin:round;stroke-miterlimit:4;stroke-dasharray:none;stroke-opacity:0.02" />
      <rect
         style="fill:none;fill-opacity:1;stroke:#000000;stroke-width:0.8;stroke-linecap:round;stroke-linejoin:round;stroke-miterlimit:4;stroke-dasharray:none;stroke-opacity:0.02"
         id="rect1650"
         width="29.810888"
         height="29.810888"
         x="69.839508"
         y="40.709618"
         rx="6.6098609"
         ry="6.6098609" />
      <rect
         ry="6.6098609"
         rx="6.6098609"
         y="40.709618"
         x="69.839508"
         height="29.810888"
         width="29.810888"
         id="rect1652"
         style="fill:none;fill-opacity:1;stroke:#000000;stroke-width:1;stroke-linecap:round;stroke-linejoin:round;stroke-miterlimit:4;stroke-dasharray:none;stroke-opacity:0.02" />
      <rect
         style="fill:none;fill-opacity:1;stroke:#000000;stroke-width:1.2;stroke-linecap:round;stroke-linejoin:round;stroke-miterlimit:4;stroke-dasharray:none;stroke-opacity:0.02"
         id="rect1654"
         width="29.810888"
         height="29.810888"
         x="69.839508"
         y="40.709618"
         rx="6.6098609"
         ry="6.6098609" />
      <rect
         ry="6.6098609"
         rx="6.6098609"
         y="40.709618"
         x="69.839508"
         height="29.810888"
         width="29.810888"
         id="rect1656"
         style="fill:none;fill-opacity:1;stroke:#000000;stroke-width:1.4;stroke-linecap:round;stroke-linejoin:round;stroke-miterlimit:4;stroke-dasharray:none;stroke-opacity:0.02" />
      <rect
         style="fill:none;fill-opacity:1;stroke:#000000;stroke-width:1.6;stroke-linecap:round;stroke-linejoin:round;stroke-miterlimit:4;stroke-dasharray:none;stroke-opacity:0.02"
         id="rect1658"
         width="29.810888"
         height="29.810888"
         x="69.839508"
         y="40.709618"
         rx="6.6098609"
         ry="6.6098609" />
      <rect
         ry="6.6098609"
         rx="6.6098609"
         y="40.709618"
         x="69.839508"
         height="29.810888"
         width="29.810888"
         id="rect1660"
         style="fill:none;fill-opacity:1;stroke:#000000;stroke-width:1.8;stroke-linecap:round;stroke-linejoin:round;stroke-miterlimit:4;stroke-dasharray:none;stroke-opacity:0.02" />
      <rect
         style="fill:none;fill-opacity:1;stroke:#000000;stroke-width:2;stroke-linecap:round;stroke-linejoin:round;stroke-miterlimit:4;stroke-dasharray:none;stroke-opacity:0.02"
         id="rect1662"
         width="29.810888"
         height="29.810888"
         x="69.839508"
         y="40.709618"
         rx="6.6098609"
         ry="6.6098609" />
      <rect
         ry="6.6098609"
         rx="6.6098609"
         y="40.709618"
         x="69.839508"
         height="29.810888"
         width="29.810888"
         id="rect1664"
         style="fill:none;fill-opacity:1;stroke:#000000;stroke-width:2.2;stroke-linecap:round;stroke-linejoin:round;stroke-miterlimit:4;stroke-dasharray:none;stroke-opacity:0.02" />
      <rect
         style="fill:none;fill-opacity:1;stroke:#000000;stroke-width:2.6;stroke-linecap:round;stroke-linejoin:round;stroke-miterlimit:4;stroke-dasharray:none;stroke-opacity:0.02"
         id="rect1666"
         width="29.810888"
         height="29.810888"
         x="69.839508"
         y="40.709618"
         rx="6.6098609"
         ry="6.6098609" />
      <rect
         ry="6.6098609"
         rx="6.6098609"
         y="40.709618"
         x="69.839508"
         height="29.810888"
         width="29.810888"
         id="rect1668"
         style="fill:none;fill-opacity:1;stroke:#000000;stroke-width:3;stroke-linecap:round;stroke-linejoin:round;stroke-miterlimit:4;stroke-dasharray:none;stroke-opacity:0.02" />
      <rect
         style="fill:none;fill-opacity:1;stroke:#000000;stroke-width:3.4;stroke-linecap:round;stroke-linejoin:round;stroke-miterlimit:4;stroke-dasharray:none;stroke-opacity:0.02"
         id="rect1670"
         width="29.810888"
         height="29.810888"
         x="69.839508"
         y="40.709618"
         rx="6.6098609"
         ry="6.6098609" />
      <rect
         ry="6.6098609"
         rx="6.6098609"
         y="40.709618"
         x="69.839508"
         height="29.810888"
         width="29.810888"
         id="rect1672"
         style="fill:none;fill-opacity:1;stroke:#000000;stroke-width:3.8;stroke-linecap:round;stroke-linejoin:round;stroke-miterlimit:4;stroke-dasharray:none;stroke-opacity:0.02" />
      <rect
         style="fill:none;fill-opacity:1;stroke:#000000;stroke-width:4.2;stroke-linecap:round;stroke-linejoin:round;stroke-miterlimit:4;stroke-dasharray:none;stroke-opacity:0.02"
         id="rect1674"
         width="29.810888"
         height="29.810888"
         x="69.839508"
         y="40.709618"
         rx="6.6098609"
         ry="6.6098609" />
      <rect
         ry="6.6098609"
         rx="6.6098609"
         y="40.709618"
         x="69.839508"
         height="29.810888"
         width="29.810888"
         id="rect1676"
         style="fill:none;fill-opacity:1;stroke:#000000;stroke-width:4.6;stroke-linecap:round;stroke-linejoin:round;stroke-miterlimit:4;stroke-dasharray:none;stroke-opacity:0.02" />
      <rect
         style="fill:none;fill-opacity:1;stroke:#000000;stroke-width:5;stroke-linecap:round;stroke-linejoin:round;stroke-miterlimit:4;stroke-dasharray:none;stroke-opacity:0.02"
         id="rect1678"
         width="29.810888"
         height="29.810888"
         x="69.839508"
         y="40.709618"
         rx="6.6098609"
         ry="6.6098609" />
    </g>
    <rect
       ry="6.4494534"
       rx="6.4494534"
       y="2.5391712"
       x="2.4074187"
       height="29.087439"
       width="29.087439"
       id="rect849"
       style="fill:url(#linearGradient1632);fill-opacity:1;stroke-width:2.68768;stroke-linecap:round;stroke-linejoin:round" />
    <path
       style="opacity:0.2;stroke-width:0.351143"
       d="m 8.616259,15.593078 h 2.106859 v 2.617905 l 3.652531,1.570742 v 2.617904 l -5.75939,-3.141485 z"
       id="path2" />
    <path
       style="fill:none;stroke:#b8b8b8;stroke-width:1.57074"
       d="m 20.997642,14.194773 -3.665065,8.900875"
       id="path4" />
    <rect
       style="opacity:0.2;stroke-width:0.351143"
       width="3.5114305"
       height="6.2830024"
       x="19.150553"
       y="10.11691"
       rx="1.7557153"
       ry="1.5706629"
       id="rect6" />
    <rect
       style="fill:#e98300;stroke-width:0.351143"
       width="5.2358942"
       height="5.7594485"
       x="4.2712722"
       y="15.719197"
       transform="rotate(-36.715872)"
       id="rect8" />
    <path
       style="fill:#e98300;stroke-width:0.351143"
       d="m 8.616259,15.241936 h 2.106859 v 2.617904 l 3.652531,1.570742 v 2.617903 l -5.75939,-3.141484 z"
       id="path10" />
    <rect
       style="opacity:0.2;stroke-width:0.351143"
       width="3.5114305"
       height="9.4243279"
       x="-16.398859"
       y="6.5094018"
       rx="1.7557153"
       ry="1.5706629"
       transform="rotate(-90)"
       id="rect12" />
    <rect
       style="fill:#e9a400;stroke-width:0.351143"
       width="3.5114305"
       height="9.4243279"
       x="-16.047716"
       y="6.5094018"
       rx="1.7557153"
       ry="1.5706629"
       transform="rotate(-90)"
       id="rect14" />
    <path
       style="opacity:0.2;fill:#ffffff;stroke-width:0.351143"
       d="m 8.079943,12.536286 c -0.870191,0 -1.5705418,0.78305 -1.5705418,1.755716 0,0.05939 0.010378,0.115608 0.015775,0.173514 C 6.6054452,13.5782 7.2642443,12.88743 8.079944,12.88743 h 6.283539 c 0.815702,0 1.4745,0.69077 1.554769,1.578086 0.0054,-0.0579 0.01578,-0.114122 0.01578,-0.173514 0,-0.972666 -0.700351,-1.755716 -1.570542,-1.755716 z"
       id="path16" />
    <rect
       style="fill:#e9a400;stroke-width:0.351143"
       width="3.5114305"
       height="6.2830024"
       x="19.150553"
       y="9.7657671"
       rx="1.7557153"
       ry="1.5706629"
       id="rect18" />
    <rect
       style="fill:#e98300;stroke-width:0.351143"
       width="3.2961798"
       height="6.5920086"
       x="22.928949"
       y="9.2920189"
       rx="1.6479143"
       ry="1.6479143"
       transform="rotate(21.358618)"
       id="rect20" />
    <circle
       style="opacity:0.3;stroke-width:0.351143"
       cx="20.906265"
       cy="14.292001"
       r="1.0534291"
       id="circle22" />
    <path
       style="opacity:0.2;stroke-width:0.351143"
       d="m 21.231348,7.9714284 c -4.900615,0 -8.951819,3.7367096 -9.697584,8.4274316 h 5.014762 a 4.9160023,4.9160023 0 0 1 4.708883,-3.51143 4.9160023,4.9160023 0 0 1 2.777596,0.860026 L 23.202411,8.1826623 C 22.554256,8.046041 21.893736,7.9752705 21.231348,7.9714284 Z M 11.425404,18.505719 c 0.270663,5.188043 4.550517,9.129718 9.805944,9.129718 0.645157,-4.91e-4 1.289061,-0.0641 1.921684,-0.190659 l 0.831221,-5.555193 a 4.9160023,4.9160023 0 0 1 -2.726844,0.82985 4.9160023,4.9160023 0 0 1 -4.861137,-4.213716 z"
       id="path24" />
    <path
       style="fill:#f5c700;stroke-width:0.351143"
       d="m 21.231348,7.6202844 c -4.900615,0 -8.951819,3.7367106 -9.697584,8.4274336 h 5.014762 a 4.9160023,4.9160023 0 0 1 4.708883,-3.51143 4.9160023,4.9160023 0 0 1 2.777596,0.860025 L 23.202411,7.8315197 C 22.554256,7.6948984 21.893736,7.6241265 21.231348,7.6202844 Z M 11.425404,18.154576 c 0.270663,5.188043 4.550517,9.129718 9.805944,9.129718 0.645157,-4.91e-4 1.289061,-0.0641 1.921684,-0.190659 l 0.831221,-5.555192 a 4.9160023,4.9160023 0 0 1 -2.726844,0.82985 4.9160023,4.9160023 0 0 1 -4.861137,-4.213717 z"
       id="path26" />
    <path
       style="opacity:0.3;stroke-width:0.351143"
       d="m 14.936834,11.834001 a 1.7557153,1.7557153 0 0 0 -1.755716,1.755716 1.7557153,1.7557153 0 0 0 1.755716,1.755714 1.7557153,1.7557153 0 0 0 1.755716,-1.755714 1.7557153,1.7557153 0 0 0 -1.755716,-1.755716 z m 0,0.501633 a 1.2540823,1.2540823 0 0 1 1.254083,1.254083 1.2540823,1.2540823 0 0 1 -1.254083,1.254083 1.2540823,1.2540823 0 0 1 -1.254082,-1.254083 1.2540823,1.2540823 0 0 1 1.254082,-1.254083 z"
       id="path28" />
    <circle
       style="opacity:0.3;stroke-width:0.351143"
       cx="8.2651157"
       cy="14.292001"
       r="1.0534291"
       id="circle30" />
    <circle
       style="opacity:0.3;stroke-width:0.351143"
       cx="17.394836"
       cy="23.421719"
       r="1.0534291"
       id="circle32" />
    <path
       style="opacity:0.2;fill:#ffffff;stroke-width:0.351143"
       d="m 21.231348,7.6202844 c -4.900615,0 -8.951819,3.7367096 -9.697583,8.4274336 h 0.06378 c 0.88739,-4.524485 4.856269,-8.076291 9.633801,-8.076291 0.662388,0.00385 1.322909,0.074613 1.971065,0.211234 l 0.774987,5.177989 a 4.9160023,4.9160023 0 0 1 0.05761,0.03566 L 23.202417,7.8315157 C 22.554261,7.6948944 21.89374,7.6241239 21.231352,7.6202818 Z M 11.425404,18.154576 c 0.0061,0.117904 0.0165,0.234556 0.02674,0.351143 h 4.944123 a 4.9160023,4.9160023 0 0 0 4.861136,4.213716 4.9160023,4.9160023 0 0 0 2.669236,-0.795559 l 0.05761,-0.385433 a 4.9160023,4.9160023 0 0 1 -2.726845,0.82985 4.9160023,4.9160023 0 0 1 -4.861136,-4.213717 z"
       id="path34" />
  </g>
</svg>
