<?xml version="1.0" encoding="UTF-8" standalone="no"?>
<svg
   xmlns:dc="http://purl.org/dc/elements/1.1/"
   xmlns:cc="http://creativecommons.org/ns#"
   xmlns:rdf="http://www.w3.org/1999/02/22-rdf-syntax-ns#"
   xmlns:svg="http://www.w3.org/2000/svg"
   xmlns="http://www.w3.org/2000/svg"
   xmlns:xlink="http://www.w3.org/1999/xlink"
   xmlns:sodipodi="http://sodipodi.sourceforge.net/DTD/sodipodi-0.dtd"
   xmlns:inkscape="http://www.inkscape.org/namespaces/inkscape"
   width="128"
   height="128"
   viewBox="0 0 33.866666 33.866668"
   version="1.1"
   id="svg1535"
   inkscape:version="1.0.1 (3bc2e813f5, 2020-09-07)"
   sodipodi:docname="com.github.panosx2.brightness.svg">
  <defs
     id="defs1529">
    <linearGradient
       gradientUnits="userSpaceOnUse"
       y2="28.95187"
       x2="4.9738135"
       y1="6.4081883"
       x1="26.124226"
       id="linearGradient2042"
       xlink:href="#linearGradient2040"
       inkscape:collect="always"
       gradientTransform="translate(-0.0365727,-0.06189527)" />
    <linearGradient
       id="linearGradient2040"
       inkscape:collect="always">
      <stop
         id="stop2036"
         offset="0"
         style="stop-color:#000000;stop-opacity:1" />
      <stop
         id="stop2038"
         offset="1"
         style="stop-color:#000000;stop-opacity:1" />
    </linearGradient>
    <linearGradient
       gradientUnits="userSpaceOnUse"
       y2="4.3134179"
       x2="17.585337"
       y1="25.474516"
       x1="17.585337"
       id="linearGradient7784"
       xlink:href="#linearGradient7782"
       inkscape:collect="always"
       gradientTransform="translate(-0.0365727,-0.06189527)" />
    <linearGradient
       id="linearGradient7782"
       inkscape:collect="always">
      <stop
         id="stop7778"
         offset="0"
         style="stop-color:#0b95ff;stop-opacity:1" />
      <stop
         id="stop7780"
         offset="1"
         style="stop-color:#03caf1;stop-opacity:1" />
    </linearGradient>
    <linearGradient
       gradientTransform="matrix(0.26458333,0,0,0.26458333,-0.0365727,-0.06189857)"
       gradientUnits="userSpaceOnUse"
       y2="21.264637"
       x2="79.514992"
       y1="96.281647"
       x1="66.464264"
       id="linearGradient7756"
       xlink:href="#linearGradient7754"
       inkscape:collect="always" />
    <linearGradient
       id="linearGradient7754"
       inkscape:collect="always">
      <stop
         id="stop7750"
         offset="0"
         style="stop-color:#0b95ff;stop-opacity:1" />
      <stop
         id="stop7752"
         offset="1"
         style="stop-color:#5dc3ef;stop-opacity:1" />
    </linearGradient>
  </defs>
  <sodipodi:namedview
     id="base"
     pagecolor="#ffffff"
     bordercolor="#666666"
     borderopacity="1.0"
     inkscape:pageopacity="0.0"
     inkscape:pageshadow="2"
     inkscape:zoom="5.6"
     inkscape:cx="67.90069"
     inkscape:cy="65.823838"
     inkscape:document-units="mm"
     inkscape:current-layer="layer1"
     inkscape:document-rotation="0"
     showgrid="false"
     units="px"
     inkscape:window-width="1514"
     inkscape:window-height="941"
     inkscape:window-x="50"
     inkscape:window-y="27"
     inkscape:window-maximized="0" />
  <metadata
     id="metadata1532">
    <rdf:RDF>
      <cc:Work
         rdf:about="">
        <dc:format>image/svg+xml</dc:format>
        <dc:type
           rdf:resource="http://purl.org/dc/dcmitype/StillImage" />
        <dc:title></dc:title>
      </cc:Work>
    </rdf:RDF>
  </metadata>
  <g
     inkscape:label="Capa 1"
     inkscape:groupmode="layer"
     id="layer1">
    <g
       style="opacity:0.295"
       transform="matrix(0.97573206,0,0,0.97573206,-65.784958,-37.264988)"
       id="g1702">
      <rect
         ry="6.6098609"
         rx="6.6098609"
         y="40.709618"
         x="69.839508"
         height="29.810888"
         width="29.810888"
         id="rect1634"
         style="fill:none;fill-opacity:1;stroke:#000000;stroke-width:0.1;stroke-linecap:round;stroke-linejoin:round;stroke-miterlimit:4;stroke-dasharray:none;stroke-opacity:0.02" />
      <rect
         style="fill:none;fill-opacity:1;stroke:#000000;stroke-width:0.2;stroke-linecap:round;stroke-linejoin:round;stroke-miterlimit:4;stroke-dasharray:none;stroke-opacity:0.02"
         id="rect1638"
         width="29.810888"
         height="29.810888"
         x="69.839508"
         y="40.709618"
         rx="6.6098609"
         ry="6.6098609" />
      <rect
         ry="6.6098609"
         rx="6.6098609"
         y="40.709618"
         x="69.839508"
         height="29.810888"
         width="29.810888"
         id="rect1640"
         style="fill:none;fill-opacity:1;stroke:#000000;stroke-width:0.3;stroke-linecap:round;stroke-linejoin:round;stroke-miterlimit:4;stroke-dasharray:none;stroke-opacity:0.02" />
      <rect
         style="fill:none;fill-opacity:1;stroke:#000000;stroke-width:0.4;stroke-linecap:round;stroke-linejoin:round;stroke-miterlimit:4;stroke-dasharray:none;stroke-opacity:0.02"
         id="rect1642"
         width="29.810888"
         height="29.810888"
         x="69.839508"
         y="40.709618"
         rx="6.6098609"
         ry="6.6098609" />
      <rect
         ry="6.6098609"
         rx="6.6098609"
         y="40.709618"
         x="69.839508"
         height="29.810888"
         width="29.810888"
         id="rect1644"
         style="fill:none;fill-opacity:1;stroke:#000000;stroke-width:0.5;stroke-linecap:round;stroke-linejoin:round;stroke-miterlimit:4;stroke-dasharray:none;stroke-opacity:0.02" />
      <rect
         style="fill:none;fill-opacity:1;stroke:#000000;stroke-width:0.6;stroke-linecap:round;stroke-linejoin:round;stroke-miterlimit:4;stroke-dasharray:none;stroke-opacity:0.02"
         id="rect1646"
         width="29.810888"
         height="29.810888"
         x="69.839508"
         y="40.709618"
         rx="6.6098609"
         ry="6.6098609" />
      <rect
         ry="6.6098609"
         rx="6.6098609"
         y="40.709618"
         x="69.839508"
         height="29.810888"
         width="29.810888"
         id="rect1648"
         style="fill:none;fill-opacity:1;stroke:#000000;stroke-width:0.7;stroke-linecap:round;stroke-linejoin:round;stroke-miterlimit:4;stroke-dasharray:none;stroke-opacity:0.02" />
      <rect
         style="fill:none;fill-opacity:1;stroke:#000000;stroke-width:0.8;stroke-linecap:round;stroke-linejoin:round;stroke-miterlimit:4;stroke-dasharray:none;stroke-opacity:0.02"
         id="rect1650"
         width="29.810888"
         height="29.810888"
         x="69.839508"
         y="40.709618"
         rx="6.6098609"
         ry="6.6098609" />
      <rect
         ry="6.6098609"
         rx="6.6098609"
         y="40.709618"
         x="69.839508"
         height="29.810888"
         width="29.810888"
         id="rect1652"
         style="fill:none;fill-opacity:1;stroke:#000000;stroke-width:1;stroke-linecap:round;stroke-linejoin:round;stroke-miterlimit:4;stroke-dasharray:none;stroke-opacity:0.02" />
      <rect
         style="fill:none;fill-opacity:1;stroke:#000000;stroke-width:1.2;stroke-linecap:round;stroke-linejoin:round;stroke-miterlimit:4;stroke-dasharray:none;stroke-opacity:0.02"
         id="rect1654"
         width="29.810888"
         height="29.810888"
         x="69.839508"
         y="40.709618"
         rx="6.6098609"
         ry="6.6098609" />
      <rect
         ry="6.6098609"
         rx="6.6098609"
         y="40.709618"
         x="69.839508"
         height="29.810888"
         width="29.810888"
         id="rect1656"
         style="fill:none;fill-opacity:1;stroke:#000000;stroke-width:1.4;stroke-linecap:round;stroke-linejoin:round;stroke-miterlimit:4;stroke-dasharray:none;stroke-opacity:0.02" />
      <rect
         style="fill:none;fill-opacity:1;stroke:#000000;stroke-width:1.6;stroke-linecap:round;stroke-linejoin:round;stroke-miterlimit:4;stroke-dasharray:none;stroke-opacity:0.02"
         id="rect1658"
         width="29.810888"
         height="29.810888"
         x="69.839508"
         y="40.709618"
         rx="6.6098609"
         ry="6.6098609" />
      <rect
         ry="6.6098609"
         rx="6.6098609"
         y="40.709618"
         x="69.839508"
         height="29.810888"
         width="29.810888"
         id="rect1660"
         style="fill:none;fill-opacity:1;stroke:#000000;stroke-width:1.8;stroke-linecap:round;stroke-linejoin:round;stroke-miterlimit:4;stroke-dasharray:none;stroke-opacity:0.02" />
      <rect
         style="fill:none;fill-opacity:1;stroke:#000000;stroke-width:2;stroke-linecap:round;stroke-linejoin:round;stroke-miterlimit:4;stroke-dasharray:none;stroke-opacity:0.02"
         id="rect1662"
         width="29.810888"
         height="29.810888"
         x="69.839508"
         y="40.709618"
         rx="6.6098609"
         ry="6.6098609" />
      <rect
         ry="6.6098609"
         rx="6.6098609"
         y="40.709618"
         x="69.839508"
         height="29.810888"
         width="29.810888"
         id="rect1664"
         style="fill:none;fill-opacity:1;stroke:#000000;stroke-width:2.2;stroke-linecap:round;stroke-linejoin:round;stroke-miterlimit:4;stroke-dasharray:none;stroke-opacity:0.02" />
      <rect
         style="fill:none;fill-opacity:1;stroke:#000000;stroke-width:2.6;stroke-linecap:round;stroke-linejoin:round;stroke-miterlimit:4;stroke-dasharray:none;stroke-opacity:0.02"
         id="rect1666"
         width="29.810888"
         height="29.810888"
         x="69.839508"
         y="40.709618"
         rx="6.6098609"
         ry="6.6098609" />
      <rect
         ry="6.6098609"
         rx="6.6098609"
         y="40.709618"
         x="69.839508"
         height="29.810888"
         width="29.810888"
         id="rect1668"
         style="fill:none;fill-opacity:1;stroke:#000000;stroke-width:3;stroke-linecap:round;stroke-linejoin:round;stroke-miterlimit:4;stroke-dasharray:none;stroke-opacity:0.02" />
      <rect
         style="fill:none;fill-opacity:1;stroke:#000000;stroke-width:3.4;stroke-linecap:round;stroke-linejoin:round;stroke-miterlimit:4;stroke-dasharray:none;stroke-opacity:0.02"
         id="rect1670"
         width="29.810888"
         height="29.810888"
         x="69.839508"
         y="40.709618"
         rx="6.6098609"
         ry="6.6098609" />
      <rect
         ry="6.6098609"
         rx="6.6098609"
         y="40.709618"
         x="69.839508"
         height="29.810888"
         width="29.810888"
         id="rect1672"
         style="fill:none;fill-opacity:1;stroke:#000000;stroke-width:3.8;stroke-linecap:round;stroke-linejoin:round;stroke-miterlimit:4;stroke-dasharray:none;stroke-opacity:0.02" />
      <rect
         style="fill:none;fill-opacity:1;stroke:#000000;stroke-width:4.2;stroke-linecap:round;stroke-linejoin:round;stroke-miterlimit:4;stroke-dasharray:none;stroke-opacity:0.02"
         id="rect1674"
         width="29.810888"
         height="29.810888"
         x="69.839508"
         y="40.709618"
         rx="6.6098609"
         ry="6.6098609" />
      <rect
         ry="6.6098609"
         rx="6.6098609"
         y="40.709618"
         x="69.839508"
         height="29.810888"
         width="29.810888"
         id="rect1676"
         style="fill:none;fill-opacity:1;stroke:#000000;stroke-width:4.6;stroke-linecap:round;stroke-linejoin:round;stroke-miterlimit:4;stroke-dasharray:none;stroke-opacity:0.02" />
      <rect
         style="fill:none;fill-opacity:1;stroke:#000000;stroke-width:5;stroke-linecap:round;stroke-linejoin:round;stroke-miterlimit:4;stroke-dasharray:none;stroke-opacity:0.02"
         id="rect1678"
         width="29.810888"
         height="29.810888"
         x="69.839508"
         y="40.709618"
         rx="6.6098609"
         ry="6.6098609" />
    </g>
    <rect
       ry="6.4494534"
       rx="6.4494534"
       y="2.4566898"
       x="2.3596914"
       height="29.08744"
       width="29.08744"
       id="rect849"
       style="fill:url(#linearGradient2042);fill-opacity:1;stroke-width:2.68801;stroke-linecap:round;stroke-linejoin:round;stroke-miterlimit:4;stroke-dasharray:none" />
    <path
       id="rect901"
       style="fill:#dbdbde;fill-opacity:1;stroke:#808080;stroke-width:0.233683;stroke-miterlimit:4;stroke-dasharray:none;stroke-opacity:1"
       d="m 8.8093994,2.4568108 c -3.5729974,0 -6.4497359,2.8762216 -6.4497359,6.4492187 V 25.094707 c 0,3.572998 2.8767385,6.44922 6.4497359,6.44922 H 24.99756 c 3.572997,0 6.449735,-2.876222 6.449735,-6.44922 V 8.9060295 c 0,-3.5729971 -2.876738,-6.4492187 -6.449735,-6.4492187 z" />
    <path
       id="rect897"
       style="fill:#000000;fill-opacity:1;stroke:none;stroke-width:0.10242"
       d="m 8.8093994,2.4568108 c -3.5729974,0 -6.4497359,2.8762216 -6.4497359,6.4492187 V 25.094707 c 0,0.422472 0.041513,0.834642 0.1183391,1.234034 H 31.328958 c 0.07682,-0.399386 0.118337,-0.811569 0.118337,-1.234034 V 8.9060295 c 0,-3.5729971 -2.876738,-6.4492187 -6.449735,-6.4492187 z" />
    <path
       style="fill:url(#linearGradient7784);fill-opacity:1;stroke:url(#linearGradient7756);stroke-width:0.150866;stroke-miterlimit:4;stroke-dasharray:0.0377164, 0.0377164;stroke-dashoffset:0;stroke-opacity:1"
       d="m 8.8093991,2.4568141 c -3.4613411,0 -6.2693527,2.6993309 -6.4414674,6.1164224 -0.00427,0.118358 -0.00827,0.234968 -0.00827,0.332796 V 24.492162 H 31.447292 V 8.9060325 c 0,-0.111656 -0.0027,-0.222567 -0.0083,-0.332796 C 31.26691,5.156145 28.458898,2.4568141 24.997559,2.4568141 Z"
       id="rect1848" />
    <path
       inkscape:connector-curvature="0"
       style="fill:#1e1f28;stroke-width:0.0172815"
       d="m 18.033176,29.578557 c -0.04234,0.09781 -0.09246,0.187849 -0.150524,0.270627 -0.07915,0.11285 -0.143955,0.19096 -0.1939,0.234341 -0.07742,0.0712 -0.160372,0.107659 -0.249201,0.109736 -0.06377,0 -0.140671,-0.01818 -0.23019,-0.05495 -0.08981,-0.03664 -0.172349,-0.05478 -0.247819,-0.05478 -0.07915,0 -0.164037,0.01818 -0.254834,0.05478 -0.09094,0.03681 -0.164192,0.05599 -0.220202,0.0579 -0.08518,0.0036 -0.170087,-0.03387 -0.254836,-0.112681 -0.05409,-0.04717 -0.121748,-0.12806 -0.202798,-0.242633 -0.08696,-0.122354 -0.158456,-0.264231 -0.214466,-0.425992 -0.05998,-0.174713 -0.09005,-0.343903 -0.09005,-0.507701 0,-0.187624 0.04054,-0.349449 0.121748,-0.485061 0.06382,-0.108924 0.148725,-0.194847 0.254989,-0.257926 0.106265,-0.06308 0.221084,-0.09522 0.344734,-0.09727 0.06766,0 0.156382,0.02093 0.266639,0.06206 0.109945,0.04127 0.180541,0.0622 0.211492,0.0622 0.02315,0 0.101563,-0.02447 0.234511,-0.07326 0.125725,-0.04524 0.231833,-0.06398 0.318759,-0.0566 0.235548,0.019 0.412512,0.111865 0.530202,0.279151 -0.210664,0.127637 -0.314873,0.306422 -0.312799,0.53576 0.0019,0.178647 0.06671,0.327297 0.194072,0.445331 0.05772,0.05479 0.122182,0.09713 0.1939,0.127198 -0.01556,0.0451 -0.03197,0.08831 -0.04942,0.129784 z m -0.540224,-2.12581 c 0,0.140015 -0.05115,0.270748 -0.153114,0.391752 -0.123047,0.143854 -0.271875,0.226978 -0.433269,0.21386 -0.0021,-0.01677 -0.0033,-0.03448 -0.0033,-0.05305 0,-0.134416 0.05851,-0.278267 0.162432,-0.395885 0.05187,-0.05955 0.117857,-0.109072 0.197868,-0.148574 0.07984,-0.03891 0.155365,-0.06043 0.226389,-0.06411 0.0021,0.01873 0.003,0.03744 0.003,0.05601 z"
       id="path64" />
    <path
       style="opacity:0.373;fill:#afe1fe;fill-opacity:1;stroke:none;stroke-width:1.5;stroke-linecap:round;stroke-linejoin:round;stroke-miterlimit:4;stroke-dasharray:none;stroke-opacity:1"
       d="M 7.5805333,2.5736028 C 4.7049382,3.1241545 2.519134,5.5713299 2.3679317,8.5732365 c -0.00427,0.118358 -0.00827,0.234968 -0.00827,0.332796 V 24.492162 h 5.2208699 z"
       id="rect1413" />
    <path
       style="opacity:0.373;fill:#afe1fe;fill-opacity:1;stroke:none;stroke-width:1.92997;stroke-linecap:round;stroke-linejoin:round;stroke-miterlimit:4;stroke-dasharray:none;stroke-opacity:1"
       d="m 8.8093991,2.4568141 c -3.4613411,0 -6.2693527,2.6993309 -6.4414674,6.1164224 -0.00427,0.118358 -0.00827,0.234968 -0.00827,0.332796 V 24.492162 H 12.792619 V 2.4568141 Z"
       id="rect1415" />
    <path
       style="opacity:0.373;fill:#afe1fe;fill-opacity:1;stroke:none;stroke-width:2.25943;stroke-linecap:round;stroke-linejoin:round;stroke-miterlimit:4;stroke-dasharray:none;stroke-opacity:1"
       d="m 8.8093991,2.4568141 c -3.4613411,0 -6.2693527,2.6993309 -6.4414674,6.1164224 -0.00427,0.118358 -0.00827,0.234968 -0.00827,0.332796 V 24.492162 H 17.66984 V 2.4568141 Z"
       id="rect1417" />
  </g>
</svg>
