<?xml version="1.0" encoding="UTF-8" standalone="no"?>
<svg
   xmlns:dc="http://purl.org/dc/elements/1.1/"
   xmlns:cc="http://creativecommons.org/ns#"
   xmlns:rdf="http://www.w3.org/1999/02/22-rdf-syntax-ns#"
   xmlns:svg="http://www.w3.org/2000/svg"
   xmlns="http://www.w3.org/2000/svg"
   xmlns:xlink="http://www.w3.org/1999/xlink"
   xmlns:sodipodi="http://sodipodi.sourceforge.net/DTD/sodipodi-0.dtd"
   xmlns:inkscape="http://www.inkscape.org/namespaces/inkscape"
   inkscape:version="0.92.5 (2060ec1f9f, 2020-04-08)"
   sodipodi:docname="com.github.alainm23.ioncolorgenerator.svg"
   id="svg6"
   version="1.1"
   viewBox="0 0 33.866666 33.866667"
   height="128"
   width="128">
  <metadata
     id="metadata119">
    <rdf:RDF>
      <cc:Work
         rdf:about="">
        <dc:format>image/svg+xml</dc:format>
        <dc:type
           rdf:resource="http://purl.org/dc/dcmitype/StillImage" />
        <dc:title></dc:title>
      </cc:Work>
    </rdf:RDF>
  </metadata>
  <defs
     id="defs2">
    <linearGradient
       inkscape:collect="always"
       id="linearGradient1339">
      <stop
         style="stop-color:#cc66f6;stop-opacity:1"
         offset="0"
         id="stop1335" />
      <stop
         style="stop-color:#8129ba;stop-opacity:1"
         offset="1"
         id="stop1337" />
    </linearGradient>
    <linearGradient
       id="lgrad"
       x1="32"
       y1="32"
       x2="32"
       y2="992"
       gradientUnits="userSpaceOnUse"
       gradientTransform="translate(0,-896)">
      <stop
         offset="0%"
         stop-color="#f8f8f8"
         id="stop2" />
      <stop
         offset="100%"
         stop-color="#ccc"
         id="stop4" />
    </linearGradient>
    <radialGradient
       id="rgrad"
       x1="0%"
       y1="0%"
       x2="0%"
       y2="100%"
       fx="512"
       fy="494.39999"
       cx="512"
       cy="512"
       r="440"
       gradientUnits="userSpaceOnUse"
       gradientTransform="translate(0,-896)">
      <stop
         offset="0%"
         stop-color="#00f0ff"
         id="stop7" />
      <stop
         offset="100%"
         stop-color="#0070e0"
         id="stop9" />
    </radialGradient>
    <radialGradient
       gradientTransform="matrix(0.03099337,0,0,0.03032562,85.198869,42.985295)"
       gradientUnits="userSpaceOnUse"
       r="440"
       cy="306.1813"
       cx="523.57568"
       fy="306.1813"
       fx="523.57568"
       y2="100%"
       x2="0%"
       y1="0%"
       x1="0%"
       id="rgrad-3">
      <stop
         style="stop-color:#03d7e4;stop-opacity:1"
         id="stop7-6"
         stop-color="#00f0ff"
         offset="0%" />
      <stop
         id="stop9-7"
         stop-color="#0070e0"
         offset="100%" />
    </radialGradient>
    <filter
       id="b"
       color-interpolation-filters="sRGB"
       height="1.024007"
       width="1.023993"
       x="-0.011996"
       y="-0.012004">
      <feGaussianBlur
         stdDeviation=".47521291"
         id="feGaussianBlur7" />
    </filter>
    <linearGradient
       id="k"
       gradientUnits="userSpaceOnUse"
       x1="-350.6571"
       x2="-376.36255"
       y1="-73.89106"
       y2="-319.05783">
      <stop
         offset="0"
         stop-color="#83a3d4"
         id="stop50" />
      <stop
         offset="1"
         stop-color="#6bb5e3"
         id="stop52" />
    </linearGradient>
    <linearGradient
       id="i"
       gradientUnits="userSpaceOnUse"
       x1="-206.76952"
       x2="10.51211"
       y1="-12.925184"
       y2="-156.88734">
      <stop
         offset="0"
         stop-color="#70c2bd"
         id="stop40" />
      <stop
         offset="1"
         stop-color="#67c381"
         id="stop42" />
    </linearGradient>
    <linearGradient
       id="e"
       gradientUnits="userSpaceOnUse"
       x1="134.56509"
       x2="148.51404"
       y1="117.30138"
       y2="-149.18999">
      <stop
         offset="0"
         stop-color="#faaa32"
         id="stop20" />
      <stop
         offset="1"
         stop-color="#fdc22b"
         id="stop22" />
    </linearGradient>
    <linearGradient
       id="c"
       gradientUnits="userSpaceOnUse"
       x1="-146.054"
       x2="123.35784"
       y1="144.89951"
       y2="144.89951">
      <stop
         offset="0"
         stop-color="#a0cf63"
         id="stop10" />
      <stop
         offset="1"
         stop-color="#c4da45"
         id="stop12" />
    </linearGradient>
    <linearGradient
       id="m"
       gradientUnits="userSpaceOnUse"
       x1="206.7137"
       x2="28.495264"
       y1="-12.740612"
       y2="-150.01163">
      <stop
         offset="0"
         stop-color="#b28cc0"
         id="stop60" />
      <stop
         offset="1"
         stop-color="#9a8ec4"
         id="stop62" />
    </linearGradient>
    <linearGradient
       id="q"
       gradientUnits="userSpaceOnUse"
       x1="189.94229"
       x2="-19.617525"
       y1="147.05296"
       y2="76.406288">
      <stop
         offset="0"
         stop-color="#f48155"
         id="stop80" />
      <stop
         offset="1"
         stop-color="#f16168"
         id="stop82" />
    </linearGradient>
    <linearGradient
       id="l"
       gradientUnits="userSpaceOnUse"
       x1="116.504"
       x2="21.156284"
       y1="308.30261"
       y2="34.179653">
      <stop
         offset="0"
         stop-color="#735194"
         id="stop55" />
      <stop
         offset="1"
         stop-color="#525da3"
         id="stop57" />
    </linearGradient>
    <linearGradient
       id="j"
       gradientUnits="userSpaceOnUse"
       x1="30.131145"
       x2="123.3283"
       y1="111.50156"
       y2="-107.16671">
      <stop
         offset="0"
         stop-color="#416db9"
         id="stop45" />
      <stop
         offset="1"
         stop-color="#337e8d"
         id="stop47" />
    </linearGradient>
    <linearGradient
       id="h"
       gradientUnits="userSpaceOnUse"
       x1="-103.67039"
       x2="205.55051"
       y1="133.12218"
       y2="0.071801998">
      <stop
         offset="0"
         stop-color="#2e9274"
         id="stop35" />
      <stop
         offset="1"
         stop-color="#469d3c"
         id="stop37" />
    </linearGradient>
    <linearGradient
       id="f"
       gradientUnits="userSpaceOnUse"
       x1="26.97802"
       x2="146.80986"
       y1="120.22743"
       y2="-100.48971">
      <stop
         offset="0"
         stop-color="#ec4001"
         id="stop25" />
      <stop
         offset="1"
         stop-color="#fb6f01"
         id="stop27" />
    </linearGradient>
    <linearGradient
       id="d"
       gradientUnits="userSpaceOnUse"
       x1="-14.298616"
       x2="309.397"
       y1="73.499695"
       y2="73.499695">
      <stop
         offset="0"
         stop-color="#58a920"
         id="stop15" />
      <stop
         offset="1"
         stop-color="#98b811"
         id="stop17" />
    </linearGradient>
    <linearGradient
       id="o"
       gradientUnits="userSpaceOnUse"
       x1="-123.11901"
       x2="145.987"
       y1="144.897"
       y2="144.897">
      <stop
         offset="0"
         stop-color="#d287af"
         id="stop70" />
      <stop
         offset="1"
         stop-color="#e07993"
         id="stop72" />
    </linearGradient>
    <linearGradient
       id="p"
       gradientUnits="userSpaceOnUse"
       x1="-205.78"
       x2="117.81888"
       y1="-71.695564"
       y2="-71.695564">
      <stop
         offset="0"
         stop-color="#bd090f"
         id="stop75" />
      <stop
         offset="1"
         stop-color="#e11f07"
         id="stop77" />
    </linearGradient>
    <linearGradient
       id="n"
       gradientUnits="userSpaceOnUse"
       x1="0.176406"
       x2="-308.72031"
       y1="-14.582834"
       y2="-143.7106">
      <stop
         offset="0"
         stop-color="#c23857"
         id="stop65" />
      <stop
         offset="1"
         stop-color="#914475"
         id="stop67" />
    </linearGradient>
    <linearGradient
       id="g"
       gradientUnits="userSpaceOnUse"
       x1="41.409683"
       x2="117.31723"
       y1="108.52529"
       y2="319.1076">
      <stop
         offset="0"
         stop-color="#e69e08"
         id="stop30" />
      <stop
         offset="1"
         stop-color="#cbc507"
         id="stop32" />
    </linearGradient>
    <rect
       id="path-1"
       x="0"
       y="0"
       width="120"
       height="120"
       rx="28" />
    <path
       d="M125 104c21.54 0 39-17.46 39-39s-17.46-39-39-39-39 17.46-39 39 17.46 39 39 39zm0 26c-35.899 0-65-29.101-65-65S89.101 0 125 0s65 29.101 65 65-29.101 65-65 65z"
       id="path-3" />
    <path
       id="path-4"
       d="M0 75l129 90.787v35L0 110z" />
    <path
       id="path-5"
       d="M22 65h27v120H22z" />
    <filter
       x="-5.6%"
       y="-1.2%"
       width="111.1%"
       height="102.5%"
       filterUnits="objectBoundingBox"
       id="filter-6">
      <feMorphology
         radius="0.5"
         operator="dilate"
         in="SourceAlpha"
         result="shadowSpreadOuter1"
         id="feMorphology12690" />
      <feOffset
         dx="0"
         dy="0"
         in="shadowSpreadOuter1"
         result="shadowOffsetOuter1"
         id="feOffset12692" />
      <feColorMatrix
         values="0 0 0 0 0 0 0 0 0 0 0 0 0 0 0 0 0 0 0.139945652 0"
         type="matrix"
         in="shadowOffsetOuter1"
         id="feColorMatrix12694" />
    </filter>
    <circle
       id="path-7"
       cx="21"
       cy="21"
       r="21" />
    <filter
       x="-16.7%"
       y="-11.9%"
       width="133.3%"
       height="133.3%"
       filterUnits="objectBoundingBox"
       id="filter-8">
      <feOffset
         dx="0"
         dy="2"
         in="SourceAlpha"
         result="shadowOffsetOuter1"
         id="feOffset12698" />
      <feGaussianBlur
         stdDeviation="2"
         in="shadowOffsetOuter1"
         result="shadowBlurOuter1"
         id="feGaussianBlur12700" />
      <feColorMatrix
         values="0 0 0 0 0 0 0 0 0 0 0 0 0 0 0 0 0 0 0.15197577 0"
         type="matrix"
         in="shadowBlurOuter1"
         id="feColorMatrix12702" />
    </filter>
    <path
       d="M40.74 1.31A21.591 21.591 0 0 1 45 14.2c0 12.155-10.074 22.01-22.5 22.01S0 26.354 0 14.2C0 9.385 1.58 4.932 4.26 1.31 6.447 2.922 9.553 3.928 13 3.928c3.866 0 7.305-1.267 9.5-3.234 2.195 1.967 5.634 3.234 9.5 3.234 3.446 0 6.552-1.006 8.74-2.618z"
       id="path-9" />
    <rect
       id="path-1-2"
       x="0"
       y="0"
       width="120"
       height="120"
       rx="28" />
    <linearGradient
       inkscape:collect="always"
       xlink:href="#linearGradient1339"
       id="linearGradient1341"
       x1="14.481459"
       y1="9.1105356"
       x2="20.302603"
       y2="29.43173"
       gradientUnits="userSpaceOnUse" />
    <clipPath
       id="clipPath849">
      <rect
         width="384"
         height="384"
         id="rect847" />
    </clipPath>
    <clipPath
       id="clipPath853">
      <rect
         width="384"
         height="384"
         id="rect851" />
    </clipPath>
    <clipPath
       id="clipPath857">
      <rect
         width="384"
         height="384"
         id="rect855" />
    </clipPath>
    <linearGradient
       x1="23.99999"
       y1="4.999989"
       x2="23.99999"
       y2="43"
       id="linearGradient4136"
       xlink:href="#linearGradient3924"
       gradientUnits="userSpaceOnUse"
       gradientTransform="matrix(2.7297298,0,0,2.7297298,-1.5135175,-62.511681)" />
    <linearGradient
       id="linearGradient3924">
      <stop
         id="stop3926"
         style="stop-color:#ffffff;stop-opacity:1"
         offset="0" />
      <stop
         id="stop3928"
         style="stop-color:#ffffff;stop-opacity:0.23529412"
         offset="0.06316455" />
      <stop
         id="stop3930"
         style="stop-color:#ffffff;stop-opacity:0.15686275"
         offset="0.95056331" />
      <stop
         id="stop3932"
         style="stop-color:#ffffff;stop-opacity:0.39215687"
         offset="1" />
    </linearGradient>
    <radialGradient
       cx="4.9929786"
       cy="43.5"
       r="2.5"
       fx="4.9929786"
       fy="43.5"
       id="radialGradient4093"
       xlink:href="#linearGradient3688-166-749-5"
       gradientUnits="userSpaceOnUse"
       gradientTransform="matrix(2.003784,0,0,1.4,27.98813,-17.4)" />
    <linearGradient
       id="linearGradient3688-166-749-5">
      <stop
         id="stop2883-0"
         style="stop-color:#181818;stop-opacity:1"
         offset="0" />
      <stop
         id="stop2885-5"
         style="stop-color:#181818;stop-opacity:0"
         offset="1" />
    </linearGradient>
    <radialGradient
       cx="4.9929786"
       cy="43.5"
       r="2.5"
       fx="4.9929786"
       fy="43.5"
       id="radialGradient4095"
       xlink:href="#linearGradient3688-166-749-5"
       gradientUnits="userSpaceOnUse"
       gradientTransform="matrix(2.003784,0,0,1.4,-20.01187,-104.4)" />
    <linearGradient
       x1="25.058096"
       y1="47.027729"
       x2="25.058096"
       y2="39.999443"
       id="linearGradient4097"
       xlink:href="#linearGradient3702-501-757-0"
       gradientUnits="userSpaceOnUse" />
    <linearGradient
       id="linearGradient3702-501-757-0">
      <stop
         id="stop2895-0"
         style="stop-color:#181818;stop-opacity:0"
         offset="0" />
      <stop
         id="stop2897-2"
         style="stop-color:#181818;stop-opacity:1"
         offset="0.5" />
      <stop
         id="stop2899-6"
         style="stop-color:#181818;stop-opacity:0"
         offset="1" />
    </linearGradient>
    <linearGradient
       id="linearGradient3811">
      <stop
         id="stop3813"
         style="stop-color:#000000;stop-opacity:1"
         offset="0" />
      <stop
         id="stop3815"
         style="stop-color:#000000;stop-opacity:0"
         offset="1" />
    </linearGradient>
    <radialGradient
       cx="-4.0287771"
       cy="93.467628"
       r="35.338131"
       fx="-4.0287771"
       fy="93.467628"
       id="radialGradient6276"
       xlink:href="#linearGradient3811"
       gradientUnits="userSpaceOnUse"
       gradientTransform="matrix(1.5563924,0,0,0.16978827,70.270355,38.1321)" />
    <radialGradient
       gradientTransform="matrix(0,15.631225,-30.794253,0,372.81652,-204.2176)"
       gradientUnits="userSpaceOnUse"
       xlink:href="#linearGradient2867-449-88-871-390-598-476-591-434-148-57-177-3-8"
       id="radialGradient5521-1"
       fy="9.9571075"
       fx="7.3198657"
       r="12.671875"
       cy="9.9571075"
       cx="7.8500957" />
    <linearGradient
       id="linearGradient2867-449-88-871-390-598-476-591-434-148-57-177-3-8">
      <stop
         id="stop3750-8-9"
         style="stop-color:#90dbec;stop-opacity:1"
         offset="0" />
      <stop
         id="stop3752-3-2"
         style="stop-color:#42baea;stop-opacity:1"
         offset="0.26238" />
      <stop
         id="stop3754-7-2"
         style="stop-color:#3689e6;stop-opacity:1"
         offset="0.704952" />
      <stop
         id="stop3756-9-3"
         style="stop-color:#2b63a0;stop-opacity:1"
         offset="1" />
    </linearGradient>
  </defs>
  <sodipodi:namedview
     inkscape:window-maximized="1"
     inkscape:window-y="30"
     inkscape:window-x="0"
     inkscape:window-height="1019"
     inkscape:window-width="1920"
     units="px"
     showgrid="false"
     inkscape:current-layer="layer1"
     inkscape:document-units="mm"
     inkscape:cy="65.079777"
     inkscape:cx="-85.524916"
     inkscape:zoom="1.7967694"
     inkscape:pageshadow="2"
     inkscape:pageopacity="0.0"
     borderopacity="1.0"
     bordercolor="#666666"
     pagecolor="#ffffff"
     id="base" />
  <g
     id="layer1"
     inkscape:groupmode="layer"
     inkscape:label="Layer 1">
    <g
       style="opacity:0.2967651"
       transform="matrix(0.97573206,0,0,0.97573206,-65.748383,-37.203094)"
       id="g1702">
      <path
         d="m 76.449369,40.709618 h 16.591166 c 3.661863,0 6.609861,2.947998 6.609861,6.609861 v 16.591166 c 0,3.661863 -2.947998,6.609861 -6.609861,6.609861 H 76.449369 c -3.661863,0 -6.609861,-2.947998 -6.609861,-6.609861 V 47.319479 c 0,-3.661863 2.947998,-6.609861 6.609861,-6.609861 z"
         style="fill:none;fill-opacity:1;stroke:#000000;stroke-width:0.1;stroke-linecap:round;stroke-linejoin:round;stroke-miterlimit:4;stroke-dasharray:none;stroke-opacity:0.02"
         id="rect1634" />
      <path
         d="m 76.449369,40.709618 h 16.591166 c 3.661863,0 6.609861,2.947998 6.609861,6.609861 v 16.591166 c 0,3.661863 -2.947998,6.609861 -6.609861,6.609861 H 76.449369 c -3.661863,0 -6.609861,-2.947998 -6.609861,-6.609861 V 47.319479 c 0,-3.661863 2.947998,-6.609861 6.609861,-6.609861 z"
         style="fill:none;fill-opacity:1;stroke:#000000;stroke-width:0.2;stroke-linecap:round;stroke-linejoin:round;stroke-miterlimit:4;stroke-dasharray:none;stroke-opacity:0.02"
         id="rect1638" />
      <path
         d="m 76.449369,40.709618 h 16.591166 c 3.661863,0 6.609861,2.947998 6.609861,6.609861 v 16.591166 c 0,3.661863 -2.947998,6.609861 -6.609861,6.609861 H 76.449369 c -3.661863,0 -6.609861,-2.947998 -6.609861,-6.609861 V 47.319479 c 0,-3.661863 2.947998,-6.609861 6.609861,-6.609861 z"
         style="fill:none;fill-opacity:1;stroke:#000000;stroke-width:0.3;stroke-linecap:round;stroke-linejoin:round;stroke-miterlimit:4;stroke-dasharray:none;stroke-opacity:0.02"
         id="rect1640" />
      <path
         d="m 76.449369,40.709618 h 16.591166 c 3.661863,0 6.609861,2.947998 6.609861,6.609861 v 16.591166 c 0,3.661863 -2.947998,6.609861 -6.609861,6.609861 H 76.449369 c -3.661863,0 -6.609861,-2.947998 -6.609861,-6.609861 V 47.319479 c 0,-3.661863 2.947998,-6.609861 6.609861,-6.609861 z"
         style="fill:none;fill-opacity:1;stroke:#000000;stroke-width:0.4;stroke-linecap:round;stroke-linejoin:round;stroke-miterlimit:4;stroke-dasharray:none;stroke-opacity:0.02"
         id="rect1642" />
      <path
         d="m 76.449369,40.709618 h 16.591166 c 3.661863,0 6.609861,2.947998 6.609861,6.609861 v 16.591166 c 0,3.661863 -2.947998,6.609861 -6.609861,6.609861 H 76.449369 c -3.661863,0 -6.609861,-2.947998 -6.609861,-6.609861 V 47.319479 c 0,-3.661863 2.947998,-6.609861 6.609861,-6.609861 z"
         style="fill:none;fill-opacity:1;stroke:#000000;stroke-width:0.5;stroke-linecap:round;stroke-linejoin:round;stroke-miterlimit:4;stroke-dasharray:none;stroke-opacity:0.02"
         id="rect1644" />
      <path
         d="m 76.449369,40.709618 h 16.591166 c 3.661863,0 6.609861,2.947998 6.609861,6.609861 v 16.591166 c 0,3.661863 -2.947998,6.609861 -6.609861,6.609861 H 76.449369 c -3.661863,0 -6.609861,-2.947998 -6.609861,-6.609861 V 47.319479 c 0,-3.661863 2.947998,-6.609861 6.609861,-6.609861 z"
         style="fill:none;fill-opacity:1;stroke:#000000;stroke-width:0.6;stroke-linecap:round;stroke-linejoin:round;stroke-miterlimit:4;stroke-dasharray:none;stroke-opacity:0.02"
         id="rect1646" />
      <path
         d="m 76.449369,40.709618 h 16.591166 c 3.661863,0 6.609861,2.947998 6.609861,6.609861 v 16.591166 c 0,3.661863 -2.947998,6.609861 -6.609861,6.609861 H 76.449369 c -3.661863,0 -6.609861,-2.947998 -6.609861,-6.609861 V 47.319479 c 0,-3.661863 2.947998,-6.609861 6.609861,-6.609861 z"
         style="fill:none;fill-opacity:1;stroke:#000000;stroke-width:0.7;stroke-linecap:round;stroke-linejoin:round;stroke-miterlimit:4;stroke-dasharray:none;stroke-opacity:0.02"
         id="rect1648" />
      <path
         d="m 76.449369,40.709618 h 16.591166 c 3.661863,0 6.609861,2.947998 6.609861,6.609861 v 16.591166 c 0,3.661863 -2.947998,6.609861 -6.609861,6.609861 H 76.449369 c -3.661863,0 -6.609861,-2.947998 -6.609861,-6.609861 V 47.319479 c 0,-3.661863 2.947998,-6.609861 6.609861,-6.609861 z"
         style="fill:none;fill-opacity:1;stroke:#000000;stroke-width:0.8;stroke-linecap:round;stroke-linejoin:round;stroke-miterlimit:4;stroke-dasharray:none;stroke-opacity:0.02"
         id="rect1650" />
      <path
         d="m 76.449369,40.709618 h 16.591166 c 3.661863,0 6.609861,2.947998 6.609861,6.609861 v 16.591166 c 0,3.661863 -2.947998,6.609861 -6.609861,6.609861 H 76.449369 c -3.661863,0 -6.609861,-2.947998 -6.609861,-6.609861 V 47.319479 c 0,-3.661863 2.947998,-6.609861 6.609861,-6.609861 z"
         style="fill:none;fill-opacity:1;stroke:#000000;stroke-width:1;stroke-linecap:round;stroke-linejoin:round;stroke-miterlimit:4;stroke-dasharray:none;stroke-opacity:0.02"
         id="rect1652" />
      <path
         d="m 76.449369,40.709618 h 16.591166 c 3.661863,0 6.609861,2.947998 6.609861,6.609861 v 16.591166 c 0,3.661863 -2.947998,6.609861 -6.609861,6.609861 H 76.449369 c -3.661863,0 -6.609861,-2.947998 -6.609861,-6.609861 V 47.319479 c 0,-3.661863 2.947998,-6.609861 6.609861,-6.609861 z"
         style="fill:none;fill-opacity:1;stroke:#000000;stroke-width:1.2;stroke-linecap:round;stroke-linejoin:round;stroke-miterlimit:4;stroke-dasharray:none;stroke-opacity:0.02"
         id="rect1654" />
      <path
         d="m 76.449369,40.709618 h 16.591166 c 3.661863,0 6.609861,2.947998 6.609861,6.609861 v 16.591166 c 0,3.661863 -2.947998,6.609861 -6.609861,6.609861 H 76.449369 c -3.661863,0 -6.609861,-2.947998 -6.609861,-6.609861 V 47.319479 c 0,-3.661863 2.947998,-6.609861 6.609861,-6.609861 z"
         style="fill:none;fill-opacity:1;stroke:#000000;stroke-width:1.4;stroke-linecap:round;stroke-linejoin:round;stroke-miterlimit:4;stroke-dasharray:none;stroke-opacity:0.02"
         id="rect1656" />
      <path
         d="m 76.449369,40.709618 h 16.591166 c 3.661863,0 6.609861,2.947998 6.609861,6.609861 v 16.591166 c 0,3.661863 -2.947998,6.609861 -6.609861,6.609861 H 76.449369 c -3.661863,0 -6.609861,-2.947998 -6.609861,-6.609861 V 47.319479 c 0,-3.661863 2.947998,-6.609861 6.609861,-6.609861 z"
         style="fill:none;fill-opacity:1;stroke:#000000;stroke-width:1.6;stroke-linecap:round;stroke-linejoin:round;stroke-miterlimit:4;stroke-dasharray:none;stroke-opacity:0.02"
         id="rect1658" />
      <path
         d="m 76.449369,40.709618 h 16.591166 c 3.661863,0 6.609861,2.947998 6.609861,6.609861 v 16.591166 c 0,3.661863 -2.947998,6.609861 -6.609861,6.609861 H 76.449369 c -3.661863,0 -6.609861,-2.947998 -6.609861,-6.609861 V 47.319479 c 0,-3.661863 2.947998,-6.609861 6.609861,-6.609861 z"
         style="fill:none;fill-opacity:1;stroke:#000000;stroke-width:1.8;stroke-linecap:round;stroke-linejoin:round;stroke-miterlimit:4;stroke-dasharray:none;stroke-opacity:0.02"
         id="rect1660" />
      <path
         d="m 76.449369,40.709618 h 16.591166 c 3.661863,0 6.609861,2.947998 6.609861,6.609861 v 16.591166 c 0,3.661863 -2.947998,6.609861 -6.609861,6.609861 H 76.449369 c -3.661863,0 -6.609861,-2.947998 -6.609861,-6.609861 V 47.319479 c 0,-3.661863 2.947998,-6.609861 6.609861,-6.609861 z"
         style="fill:none;fill-opacity:1;stroke:#000000;stroke-width:2;stroke-linecap:round;stroke-linejoin:round;stroke-miterlimit:4;stroke-dasharray:none;stroke-opacity:0.02"
         id="rect1662" />
      <path
         d="m 76.449369,40.709618 h 16.591166 c 3.661863,0 6.609861,2.947998 6.609861,6.609861 v 16.591166 c 0,3.661863 -2.947998,6.609861 -6.609861,6.609861 H 76.449369 c -3.661863,0 -6.609861,-2.947998 -6.609861,-6.609861 V 47.319479 c 0,-3.661863 2.947998,-6.609861 6.609861,-6.609861 z"
         style="fill:none;fill-opacity:1;stroke:#000000;stroke-width:2.2;stroke-linecap:round;stroke-linejoin:round;stroke-miterlimit:4;stroke-dasharray:none;stroke-opacity:0.02"
         id="rect1664" />
      <path
         d="m 76.449369,40.709618 h 16.591166 c 3.661863,0 6.609861,2.947998 6.609861,6.609861 v 16.591166 c 0,3.661863 -2.947998,6.609861 -6.609861,6.609861 H 76.449369 c -3.661863,0 -6.609861,-2.947998 -6.609861,-6.609861 V 47.319479 c 0,-3.661863 2.947998,-6.609861 6.609861,-6.609861 z"
         style="fill:none;fill-opacity:1;stroke:#000000;stroke-width:2.6;stroke-linecap:round;stroke-linejoin:round;stroke-miterlimit:4;stroke-dasharray:none;stroke-opacity:0.02"
         id="rect1666" />
      <path
         d="m 76.449369,40.709618 h 16.591166 c 3.661863,0 6.609861,2.947998 6.609861,6.609861 v 16.591166 c 0,3.661863 -2.947998,6.609861 -6.609861,6.609861 H 76.449369 c -3.661863,0 -6.609861,-2.947998 -6.609861,-6.609861 V 47.319479 c 0,-3.661863 2.947998,-6.609861 6.609861,-6.609861 z"
         style="fill:none;fill-opacity:1;stroke:#000000;stroke-width:3;stroke-linecap:round;stroke-linejoin:round;stroke-miterlimit:4;stroke-dasharray:none;stroke-opacity:0.02"
         id="rect1668" />
      <path
         d="m 76.449369,40.709618 h 16.591166 c 3.661863,0 6.609861,2.947998 6.609861,6.609861 v 16.591166 c 0,3.661863 -2.947998,6.609861 -6.609861,6.609861 H 76.449369 c -3.661863,0 -6.609861,-2.947998 -6.609861,-6.609861 V 47.319479 c 0,-3.661863 2.947998,-6.609861 6.609861,-6.609861 z"
         style="fill:none;fill-opacity:1;stroke:#000000;stroke-width:3.4;stroke-linecap:round;stroke-linejoin:round;stroke-miterlimit:4;stroke-dasharray:none;stroke-opacity:0.02"
         id="rect1670" />
      <path
         d="m 76.449369,40.709618 h 16.591166 c 3.661863,0 6.609861,2.947998 6.609861,6.609861 v 16.591166 c 0,3.661863 -2.947998,6.609861 -6.609861,6.609861 H 76.449369 c -3.661863,0 -6.609861,-2.947998 -6.609861,-6.609861 V 47.319479 c 0,-3.661863 2.947998,-6.609861 6.609861,-6.609861 z"
         style="fill:none;fill-opacity:1;stroke:#000000;stroke-width:3.8;stroke-linecap:round;stroke-linejoin:round;stroke-miterlimit:4;stroke-dasharray:none;stroke-opacity:0.02"
         id="rect1672" />
      <path
         d="m 76.449369,40.709618 h 16.591166 c 3.661863,0 6.609861,2.947998 6.609861,6.609861 v 16.591166 c 0,3.661863 -2.947998,6.609861 -6.609861,6.609861 H 76.449369 c -3.661863,0 -6.609861,-2.947998 -6.609861,-6.609861 V 47.319479 c 0,-3.661863 2.947998,-6.609861 6.609861,-6.609861 z"
         style="fill:none;fill-opacity:1;stroke:#000000;stroke-width:4.2;stroke-linecap:round;stroke-linejoin:round;stroke-miterlimit:4;stroke-dasharray:none;stroke-opacity:0.02"
         id="rect1674" />
      <path
         d="m 76.449369,40.709618 h 16.591166 c 3.661863,0 6.609861,2.947998 6.609861,6.609861 v 16.591166 c 0,3.661863 -2.947998,6.609861 -6.609861,6.609861 H 76.449369 c -3.661863,0 -6.609861,-2.947998 -6.609861,-6.609861 V 47.319479 c 0,-3.661863 2.947998,-6.609861 6.609861,-6.609861 z"
         style="fill:none;fill-opacity:1;stroke:#000000;stroke-width:4.6;stroke-linecap:round;stroke-linejoin:round;stroke-miterlimit:4;stroke-dasharray:none;stroke-opacity:0.02"
         id="rect1676" />
      <path
         d="m 76.449369,40.709618 h 16.591166 c 3.661863,0 6.609861,2.947998 6.609861,6.609861 v 16.591166 c 0,3.661863 -2.947998,6.609861 -6.609861,6.609861 H 76.449369 c -3.661863,0 -6.609861,-2.947998 -6.609861,-6.609861 V 47.319479 c 0,-3.661863 2.947998,-6.609861 6.609861,-6.609861 z"
         style="fill:none;fill-opacity:1;stroke:#000000;stroke-width:5;stroke-linecap:round;stroke-linejoin:round;stroke-miterlimit:4;stroke-dasharray:none;stroke-opacity:0.02"
         id="rect1678" />
    </g>
    <rect
       ry="6.4494534"
       rx="6.4494534"
       y="2.5185876"
       x="2.4065466"
       height="29.087439"
       width="29.087439"
       id="rect849"
       style="fill:url(#linearGradient1341);fill-opacity:1;stroke-width:2.68768;stroke-linecap:round;stroke-linejoin:round" />
    <path
       style="color:#000000;fill:none;stroke-width:0.6"
       d="m 63.366089,-13.641431 -7.522293,-7.600555"
       id="path6697" />
    <path
       style="color:#000000;fill:none;stroke-width:0.7"
       d="m 41.242367,-29.283552 8.855577,8.832529 c 1.749841,1.578263 2.915695,1.69766 4.709005,0.100743 l 11.968714,-11.16793"
       id="path6691" />
    <g
       transform="scale(0.26458333)"
       id="g13037" />
    <g
       id="g1120"
       transform="translate(-1.4566128,-2.5206241)">
      <path
         style="fill:#ffffff;fill-opacity:1;stroke-width:0.04519624"
         d="m 18.406878,15.298326 c -2.363762,0 -4.284602,1.92084 -4.284602,4.284603 0,2.363763 1.92084,4.284603 4.284602,4.284603 2.363763,0 4.284603,-1.92084 4.284603,-4.284603 0,-2.363763 -1.92084,-4.284603 -4.284603,-4.284603 z"
         id="path2-36-3-6"
         inkscape:connector-curvature="0" />
      <circle
         style="fill:#ffffff;fill-opacity:1;stroke-width:0.04519624"
         cx="24.55809"
         cy="13.725497"
         r="1.9524776"
         id="circle4-7-6-7" />
      <path
         style="fill:#ffffff;fill-opacity:1;stroke-width:0.04519624"
         d="m 26.962527,15.687013 -0.08135,-0.180785 -0.131069,0.149148 c -0.320894,0.36157 -0.727661,0.641787 -1.179621,0.809013 l -0.126552,0.04519 0.04972,0.122029 c 0.388689,0.935562 0.587552,1.929879 0.587552,2.946794 0,4.234888 -3.443954,7.678841 -7.678841,7.678841 -4.234886,0 -7.674321,-3.439433 -7.674321,-7.674321 0,-4.234886 3.443954,-7.67884 7.678841,-7.67884 1.147984,0 2.255291,0.248579 3.290286,0.741218 l 0.122029,0.05876 0.05423,-0.122029 c 0.189826,-0.442924 0.488121,-0.836131 0.86777,-1.138945 l 0.153664,-0.12203 -0.176266,-0.09039 c -1.346848,-0.696021 -2.797647,-1.048552 -4.311721,-1.048552 -5.184008,0 -9.4008167,4.216809 -9.4008167,9.400817 0,5.184009 4.2168087,9.400817 9.4008167,9.400817 5.184009,0 9.400818,-4.216808 9.400818,-9.400817 0,-1.355888 -0.284737,-2.666578 -0.845169,-3.895916 z"
         id="path6-5-7-5"
         inkscape:connector-curvature="0" />
    </g>
  </g>
</svg>
