<?xml version="1.0" encoding="UTF-8" standalone="no"?>
<svg
   xmlns:dc="http://purl.org/dc/elements/1.1/"
   xmlns:cc="http://creativecommons.org/ns#"
   xmlns:rdf="http://www.w3.org/1999/02/22-rdf-syntax-ns#"
   xmlns:svg="http://www.w3.org/2000/svg"
   xmlns="http://www.w3.org/2000/svg"
   xmlns:xlink="http://www.w3.org/1999/xlink"
   xmlns:sodipodi="http://sodipodi.sourceforge.net/DTD/sodipodi-0.dtd"
   xmlns:inkscape="http://www.inkscape.org/namespaces/inkscape"
   width="128"
   height="128"
   viewBox="0 0 33.866666 33.866668"
   version="1.1"
   id="svg1526"
   inkscape:version="1.0.2 (e86c870879, 2021-01-15)"
   sodipodi:docname="com.github.johnfactotum.Foliate.svg">
  <defs
     id="defs1520">
    <linearGradient
       inkscape:collect="always"
       id="linearGradient966">
      <stop
         style="stop-color:#00cca7;stop-opacity:1"
         offset="0"
         id="stop962" />
      <stop
         style="stop-color:#00aaaa;stop-opacity:0.97297585"
         offset="1"
         id="stop964" />
    </linearGradient>
    <linearGradient
       inkscape:collect="always"
       id="linearGradient878">
      <stop
         style="stop-color:#ffffff;stop-opacity:1;"
         offset="0"
         id="stop874" />
      <stop
         style="stop-color:#a5fff3;stop-opacity:1"
         offset="1"
         id="stop876" />
    </linearGradient>
    <linearGradient
       gradientUnits="userSpaceOnUse"
       y2="4.9040151"
       x2="13.478057"
       y1="30.914423"
       x1="13.478057"
       id="linearGradient4677"
       xlink:href="#linearGradient4675"
       inkscape:collect="always"
       gradientTransform="translate(-0.01326421,-0.03296943)" />
    <linearGradient
       id="linearGradient4675"
       inkscape:collect="always">
      <stop
         id="stop4671"
         offset="0"
         style="stop-color:#00a18c;stop-opacity:1" />
      <stop
         id="stop4673"
         offset="1"
         style="stop-color:#48d0a4;stop-opacity:1" />
    </linearGradient>
    <linearGradient
       inkscape:collect="always"
       xlink:href="#linearGradient878"
       id="linearGradient880"
       x1="11.997226"
       y1="6.7937922"
       x2="11.997226"
       y2="29.892233"
       gradientUnits="userSpaceOnUse"
       gradientTransform="scale(3.7795276)" />
    <linearGradient
       inkscape:collect="always"
       xlink:href="#linearGradient966"
       id="linearGradient968"
       x1="-25.373207"
       y1="19.287796"
       x2="-23.387466"
       y2="26.698681"
       gradientUnits="userSpaceOnUse" />
  </defs>
  <sodipodi:namedview
     id="base"
     pagecolor="#ffffff"
     bordercolor="#666666"
     borderopacity="1.0"
     inkscape:pageopacity="0.0"
     inkscape:pageshadow="2"
     inkscape:zoom="1.979899"
     inkscape:cx="-133.48839"
     inkscape:cy="70.797447"
     inkscape:document-units="mm"
     inkscape:current-layer="layer1"
     inkscape:document-rotation="0"
     showgrid="false"
     units="px"
     inkscape:window-width="1920"
     inkscape:window-height="1028"
     inkscape:window-x="0"
     inkscape:window-y="24"
     inkscape:window-maximized="1" />
  <metadata
     id="metadata1523">
    <rdf:RDF>
      <cc:Work
         rdf:about="">
        <dc:format>image/svg+xml</dc:format>
        <dc:type
           rdf:resource="http://purl.org/dc/dcmitype/StillImage" />
        <dc:title></dc:title>
      </cc:Work>
    </rdf:RDF>
  </metadata>
  <g
     inkscape:label="Capa 1"
     inkscape:groupmode="layer"
     id="layer1">
    <g
       id="g1702"
       transform="matrix(0.97573206,0,0,0.97573206,-65.76165,-37.236062)"
       style="opacity:0.295">
      <rect
         style="fill:none;fill-opacity:1;stroke:#000000;stroke-width:0.1;stroke-linecap:round;stroke-linejoin:round;stroke-miterlimit:4;stroke-dasharray:none;stroke-opacity:0.02"
         id="rect1634"
         width="29.810888"
         height="29.810888"
         x="69.839508"
         y="40.709618"
         rx="6.6098609"
         ry="6.6098609" />
      <rect
         ry="6.6098609"
         rx="6.6098609"
         y="40.709618"
         x="69.839508"
         height="29.810888"
         width="29.810888"
         id="rect1638"
         style="fill:none;fill-opacity:1;stroke:#000000;stroke-width:0.2;stroke-linecap:round;stroke-linejoin:round;stroke-miterlimit:4;stroke-dasharray:none;stroke-opacity:0.02" />
      <rect
         style="fill:none;fill-opacity:1;stroke:#000000;stroke-width:0.3;stroke-linecap:round;stroke-linejoin:round;stroke-miterlimit:4;stroke-dasharray:none;stroke-opacity:0.02"
         id="rect1640"
         width="29.810888"
         height="29.810888"
         x="69.839508"
         y="40.709618"
         rx="6.6098609"
         ry="6.6098609" />
      <rect
         ry="6.6098609"
         rx="6.6098609"
         y="40.709618"
         x="69.839508"
         height="29.810888"
         width="29.810888"
         id="rect1642"
         style="fill:none;fill-opacity:1;stroke:#000000;stroke-width:0.4;stroke-linecap:round;stroke-linejoin:round;stroke-miterlimit:4;stroke-dasharray:none;stroke-opacity:0.02" />
      <rect
         style="fill:none;fill-opacity:1;stroke:#000000;stroke-width:0.5;stroke-linecap:round;stroke-linejoin:round;stroke-miterlimit:4;stroke-dasharray:none;stroke-opacity:0.02"
         id="rect1644"
         width="29.810888"
         height="29.810888"
         x="69.839508"
         y="40.709618"
         rx="6.6098609"
         ry="6.6098609" />
      <rect
         ry="6.6098609"
         rx="6.6098609"
         y="40.709618"
         x="69.839508"
         height="29.810888"
         width="29.810888"
         id="rect1646"
         style="fill:none;fill-opacity:1;stroke:#000000;stroke-width:0.6;stroke-linecap:round;stroke-linejoin:round;stroke-miterlimit:4;stroke-dasharray:none;stroke-opacity:0.02" />
      <rect
         style="fill:none;fill-opacity:1;stroke:#000000;stroke-width:0.7;stroke-linecap:round;stroke-linejoin:round;stroke-miterlimit:4;stroke-dasharray:none;stroke-opacity:0.02"
         id="rect1648"
         width="29.810888"
         height="29.810888"
         x="69.839508"
         y="40.709618"
         rx="6.6098609"
         ry="6.6098609" />
      <rect
         ry="6.6098609"
         rx="6.6098609"
         y="40.709618"
         x="69.839508"
         height="29.810888"
         width="29.810888"
         id="rect1650"
         style="fill:none;fill-opacity:1;stroke:#000000;stroke-width:0.8;stroke-linecap:round;stroke-linejoin:round;stroke-miterlimit:4;stroke-dasharray:none;stroke-opacity:0.02" />
      <rect
         style="fill:none;fill-opacity:1;stroke:#000000;stroke-width:1;stroke-linecap:round;stroke-linejoin:round;stroke-miterlimit:4;stroke-dasharray:none;stroke-opacity:0.02"
         id="rect1652"
         width="29.810888"
         height="29.810888"
         x="69.839508"
         y="40.709618"
         rx="6.6098609"
         ry="6.6098609" />
      <rect
         ry="6.6098609"
         rx="6.6098609"
         y="40.709618"
         x="69.839508"
         height="29.810888"
         width="29.810888"
         id="rect1654"
         style="fill:none;fill-opacity:1;stroke:#000000;stroke-width:1.2;stroke-linecap:round;stroke-linejoin:round;stroke-miterlimit:4;stroke-dasharray:none;stroke-opacity:0.02" />
      <rect
         style="fill:none;fill-opacity:1;stroke:#000000;stroke-width:1.4;stroke-linecap:round;stroke-linejoin:round;stroke-miterlimit:4;stroke-dasharray:none;stroke-opacity:0.02"
         id="rect1656"
         width="29.810888"
         height="29.810888"
         x="69.839508"
         y="40.709618"
         rx="6.6098609"
         ry="6.6098609" />
      <rect
         ry="6.6098609"
         rx="6.6098609"
         y="40.709618"
         x="69.839508"
         height="29.810888"
         width="29.810888"
         id="rect1658"
         style="fill:none;fill-opacity:1;stroke:#000000;stroke-width:1.6;stroke-linecap:round;stroke-linejoin:round;stroke-miterlimit:4;stroke-dasharray:none;stroke-opacity:0.02" />
      <rect
         style="fill:none;fill-opacity:1;stroke:#000000;stroke-width:1.8;stroke-linecap:round;stroke-linejoin:round;stroke-miterlimit:4;stroke-dasharray:none;stroke-opacity:0.02"
         id="rect1660"
         width="29.810888"
         height="29.810888"
         x="69.839508"
         y="40.709618"
         rx="6.6098609"
         ry="6.6098609" />
      <rect
         ry="6.6098609"
         rx="6.6098609"
         y="40.709618"
         x="69.839508"
         height="29.810888"
         width="29.810888"
         id="rect1662"
         style="fill:none;fill-opacity:1;stroke:#000000;stroke-width:2;stroke-linecap:round;stroke-linejoin:round;stroke-miterlimit:4;stroke-dasharray:none;stroke-opacity:0.02" />
      <rect
         style="fill:none;fill-opacity:1;stroke:#000000;stroke-width:2.2;stroke-linecap:round;stroke-linejoin:round;stroke-miterlimit:4;stroke-dasharray:none;stroke-opacity:0.02"
         id="rect1664"
         width="29.810888"
         height="29.810888"
         x="69.839508"
         y="40.709618"
         rx="6.6098609"
         ry="6.6098609" />
      <rect
         ry="6.6098609"
         rx="6.6098609"
         y="40.709618"
         x="69.839508"
         height="29.810888"
         width="29.810888"
         id="rect1666"
         style="fill:none;fill-opacity:1;stroke:#000000;stroke-width:2.6;stroke-linecap:round;stroke-linejoin:round;stroke-miterlimit:4;stroke-dasharray:none;stroke-opacity:0.02" />
      <rect
         style="fill:none;fill-opacity:1;stroke:#000000;stroke-width:3;stroke-linecap:round;stroke-linejoin:round;stroke-miterlimit:4;stroke-dasharray:none;stroke-opacity:0.02"
         id="rect1668"
         width="29.810888"
         height="29.810888"
         x="69.839508"
         y="40.709618"
         rx="6.6098609"
         ry="6.6098609" />
      <rect
         ry="6.6098609"
         rx="6.6098609"
         y="40.709618"
         x="69.839508"
         height="29.810888"
         width="29.810888"
         id="rect1670"
         style="fill:none;fill-opacity:1;stroke:#000000;stroke-width:3.4;stroke-linecap:round;stroke-linejoin:round;stroke-miterlimit:4;stroke-dasharray:none;stroke-opacity:0.02" />
      <rect
         style="fill:none;fill-opacity:1;stroke:#000000;stroke-width:3.8;stroke-linecap:round;stroke-linejoin:round;stroke-miterlimit:4;stroke-dasharray:none;stroke-opacity:0.02"
         id="rect1672"
         width="29.810888"
         height="29.810888"
         x="69.839508"
         y="40.709618"
         rx="6.6098609"
         ry="6.6098609" />
      <rect
         ry="6.6098609"
         rx="6.6098609"
         y="40.709618"
         x="69.839508"
         height="29.810888"
         width="29.810888"
         id="rect1674"
         style="fill:none;fill-opacity:1;stroke:#000000;stroke-width:4.2;stroke-linecap:round;stroke-linejoin:round;stroke-miterlimit:4;stroke-dasharray:none;stroke-opacity:0.02" />
      <rect
         style="fill:none;fill-opacity:1;stroke:#000000;stroke-width:4.6;stroke-linecap:round;stroke-linejoin:round;stroke-miterlimit:4;stroke-dasharray:none;stroke-opacity:0.02"
         id="rect1676"
         width="29.810888"
         height="29.810888"
         x="69.839508"
         y="40.709618"
         rx="6.6098609"
         ry="6.6098609" />
      <rect
         ry="6.6098609"
         rx="6.6098609"
         y="40.709618"
         x="69.839508"
         height="29.810888"
         width="29.810888"
         id="rect1678"
         style="fill:none;fill-opacity:1;stroke:#000000;stroke-width:5;stroke-linecap:round;stroke-linejoin:round;stroke-miterlimit:4;stroke-dasharray:none;stroke-opacity:0.02" />
    </g>
    <rect
       style="fill:url(#linearGradient4677);fill-opacity:1;stroke-width:2.68801;stroke-linecap:round;stroke-linejoin:round;stroke-miterlimit:4;stroke-dasharray:none"
       id="rect849"
       width="29.08744"
       height="29.08744"
       x="2.3829997"
       y="2.4856157"
       rx="6.4494534"
       ry="6.4494534" />
    <path
       id="rect1448"
       style="opacity:1;fill:url(#linearGradient880);fill-opacity:1;stroke:none;stroke-width:2.536;stroke-linecap:round;stroke-linejoin:round;stroke-miterlimit:4;stroke-dasharray:none;stroke-opacity:1"
       d="M 32.621094 19.078125 C 24.11981 19.078125 17.275391 25.922544 17.275391 34.423828 L 17.275391 94.302734 C 17.275391 102.80402 24.11981 109.64648 32.621094 109.64648 L 61.625 109.64648 L 61.625 19.078125 L 32.621094 19.078125 z M 66.326172 19.078125 L 66.326172 109.64648 L 95.330078 109.64648 C 103.83136 109.64648 110.67383 102.80402 110.67383 94.302734 L 110.67383 34.423828 C 110.67383 25.922544 103.83136 19.078125 95.330078 19.078125 L 66.326172 19.078125 z "
       transform="scale(0.26458333)" />
    <path
       id="rect885"
       style="opacity:1;fill:#01a28c;fill-opacity:1;stroke:none;stroke-width:3.77953;stroke-linecap:round;stroke-linejoin:round"
       d="M 74.492188 30.878906 C 72.26668 30.878906 70.476562 32.670977 70.476562 34.896484 C 70.476563 37.121992 72.26668 38.914062 74.492188 38.914062 L 101.47461 38.914062 C 103.70012 38.914062 105.49023 37.121992 105.49023 34.896484 C 105.49023 32.670977 103.70012 30.878906 101.47461 30.878906 L 74.492188 30.878906 z M 28.3125 30.90625 C 26.086992 30.90625 24.294922 32.696367 24.294922 34.921875 C 24.294922 37.147383 26.086992 38.939453 28.3125 38.939453 L 52.416016 38.939453 C 54.641523 38.939453 56.431641 37.147383 56.431641 34.921875 C 56.431641 32.696367 54.641523 30.90625 52.416016 30.90625 L 28.3125 30.90625 z M 74.492188 45.267578 C 72.26668 45.267578 70.476562 47.059649 70.476562 49.285156 C 70.476563 51.510663 72.26668 53.302734 74.492188 53.302734 L 80.050781 53.302734 C 82.276289 53.302734 84.068359 51.510663 84.068359 49.285156 C 84.068359 47.059649 82.276289 45.267578 80.050781 45.267578 L 74.492188 45.267578 z M 28.3125 45.734375 C 26.086992 45.734375 24.294922 47.526445 24.294922 49.751953 C 24.294922 51.977461 26.086992 53.767578 28.3125 53.767578 L 36.361328 53.767578 C 38.586836 53.767578 40.378906 51.977461 40.378906 49.751953 C 40.378906 47.526445 38.586836 45.734375 36.361328 45.734375 L 28.3125 45.734375 z M 74.492188 59.849609 C 72.26668 59.849609 70.476562 61.64168 70.476562 63.867188 C 70.476563 66.092695 72.26668 67.884766 74.492188 67.884766 L 101.47461 67.884766 C 103.70012 67.884766 105.49023 66.092695 105.49023 63.867188 C 105.49023 61.64168 103.70012 59.849609 101.47461 59.849609 L 74.492188 59.849609 z M 28.3125 59.869141 C 26.086992 59.869141 24.294922 61.661211 24.294922 63.886719 C 24.294922 66.112226 26.086992 67.904297 28.3125 67.904297 L 33.056641 67.904297 C 35.282148 67.904297 37.074219 66.112226 37.074219 63.886719 C 37.074219 61.661211 35.282148 59.869141 33.056641 59.869141 L 28.3125 59.869141 z M 46.677734 59.869141 C 44.452227 59.869141 42.660156 61.661211 42.660156 63.886719 C 42.660156 66.112226 44.452227 67.904297 46.677734 67.904297 L 51.710938 67.904297 C 53.936445 67.904297 55.726562 66.112226 55.726562 63.886719 C 55.726562 61.661211 53.936445 59.869141 51.710938 59.869141 L 46.677734 59.869141 z M 28.3125 76.029297 C 26.086992 76.029297 24.294922 77.821367 24.294922 80.046875 C 24.294922 82.272383 26.086992 84.064453 28.3125 84.064453 L 52.416016 84.064453 C 54.641523 84.064453 56.431641 82.272383 56.431641 80.046875 C 56.431641 77.821367 54.641523 76.029297 52.416016 76.029297 L 28.3125 76.029297 z M 74.492188 76.029297 C 72.26668 76.029297 70.476562 77.821368 70.476562 80.046875 C 70.476563 82.272382 72.26668 84.064453 74.492188 84.064453 L 90.015625 84.064453 C 92.241133 84.064453 94.033203 82.272382 94.033203 80.046875 C 94.033203 77.821368 92.241133 76.029297 90.015625 76.029297 L 74.492188 76.029297 z "
       transform="scale(0.26458333)" />
    <g
       id="g975"
       transform="matrix(-2.3172739,0,0,2.3172739,-37.685419,-38.558514)">
      <rect
         style="opacity:0.2;stroke-width:0.264583"
         width="4.3844099"
         height="0.73077917"
         x="-25.424679"
         y="23.01693"
         ry="0"
         id="rect20" />
      <path
         style="fill:#006b62;fill-opacity:0.415292;stroke-width:0.264583"
         d="m -24.386964,18.093771 c 0,0 -1.10618,2.639803 -1.102955,4.028358 0.0024,1.033343 0.148083,2.19934 0.834742,2.994368 0.527557,0.610835 2.23453,1.029081 2.23453,1.029081 l 0.280249,1.728321 0.795292,0.134279 -0.556314,-1.996288 c 0,0 1.260442,-1.182661 1.399655,-1.96516 0.181138,-1.018618 -0.299255,-2.098461 -0.834606,-2.994498 -0.719447,-1.203973 -3.050593,-2.958461 -3.050593,-2.958461 z"
         id="path40-3"
         sodipodi:nodetypes="cscccccccc" />
      <path
         style="fill:url(#linearGradient968);fill-opacity:1;stroke-width:0.264583"
         d="m -24.66303,17.825804 c 0,0 -1.106179,2.639803 -1.102954,4.028358 0.0024,1.033343 0.148082,2.19934 0.834741,2.994368 0.527558,0.610835 2.23453,1.029081 2.23453,1.029081 l 0.556315,1.996288 0.519226,-0.133688 -0.556314,-1.996288 c 0,0 1.260442,-1.182661 1.399655,-1.96516 0.181138,-1.018618 -0.299254,-2.098461 -0.834606,-2.994498 -0.719446,-1.203973 -3.050593,-2.958461 -3.050593,-2.958461 z"
         id="path40" />
      <path
         style="opacity:0.2;stroke-width:0.264583"
         d="m -22.14873,27.879971 0.519227,-0.133818 -0.973819,-3.493474 0.950169,-1.581918 -0.32922,-0.182643 -0.760028,1.265586 -0.278157,-0.998209 0.760028,-1.265586 -0.32922,-0.182644 -0.570021,0.949255 -0.208685,-0.748657 0.570155,-0.949125 -0.32922,-0.182773 -0.380014,0.632923 -0.495577,-1.740925 -0.519226,0.133689 0.495576,1.740924 -0.658305,-0.365416 -0.190007,0.316462 0.987525,0.54793 0.208685,0.748657 -0.987525,-0.54806 -0.190007,0.316461 1.316611,0.730703 0.278157,0.99808 -1.316611,-0.730703 -0.190007,0.316462 1.645831,0.913216 z"
         id="path42" />
      <path
         id="path957"
         style="fill:#008c77;fill-opacity:0.300024;stroke-width:0.999999"
         d="m -93.214844,67.373047 c 0,0 -0.199696,0.509209 -0.294922,0.744141 1.712764,1.322771 8.444022,6.646349 10.826172,10.632812 2.023378,3.386597 3.838913,7.468465 3.154297,11.318359 -0.526159,2.957477 -5.289062,7.427735 -5.289062,7.427735 l 2.101562,7.544926 -0.978515,0.25195 0.01562,0.0566 1.960938,-0.50391 -2.101562,-7.544919 c 0,0 4.762903,-4.470258 5.289062,-7.427734 0.684616,-3.849895 -1.130919,-7.931763 -3.154297,-11.318359 -2.719166,-4.55045 -11.529297,-11.181641 -11.529297,-11.181641 z"
         transform="scale(0.26458333)" />
    </g>
  </g>
</svg>
