<?xml version="1.0" encoding="UTF-8" standalone="no"?>
<svg
   width="128"
   height="128"
   viewBox="0 0 33.866666 33.866668"
   version="1.1"
   id="svg2117"
   inkscape:version="1.1.2 (0a00cf5339, 2022-02-04)"
   sodipodi:docname="com.katawa_shoujo.KatawaShoujo.svg"
   xmlns:inkscape="http://www.inkscape.org/namespaces/inkscape"
   xmlns:sodipodi="http://sodipodi.sourceforge.net/DTD/sodipodi-0.dtd"
   xmlns:xlink="http://www.w3.org/1999/xlink"
   xmlns="http://www.w3.org/2000/svg"
   xmlns:svg="http://www.w3.org/2000/svg"
   xmlns:rdf="http://www.w3.org/1999/02/22-rdf-syntax-ns#"
   xmlns:cc="http://creativecommons.org/ns#"
   xmlns:dc="http://purl.org/dc/elements/1.1/">
  <defs
     id="defs2111">
    <linearGradient
       inkscape:collect="always"
       xlink:href="#linearGradient1630"
       id="linearGradient912"
       gradientUnits="userSpaceOnUse"
       gradientTransform="matrix(0.97573207,0,0,0.97573207,-111.88908,-37.234129)"
       x1="132.21078"
       y1="42.151531"
       x2="132.21078"
       y2="70.679932" />
    <linearGradient
       id="linearGradient1630"
       inkscape:collect="always">
      <stop
         id="stop1626"
         offset="0"
         style="stop-color:#f8fcfc;stop-opacity:1;" />
      <stop
         id="stop1628"
         offset="1"
         style="stop-color:#e3e5e8;stop-opacity:1" />
    </linearGradient>
    <linearGradient
       id="linearGradient895">
      <stop
         id="stop3335"
         offset="0" />
      <stop
         id="stop3337"
         offset="1"
         stop-opacity="0" />
    </linearGradient>
  </defs>
  <sodipodi:namedview
     id="base"
     pagecolor="#ffffff"
     bordercolor="#666666"
     borderopacity="1.0"
     inkscape:pageopacity="0.0"
     inkscape:pageshadow="2"
     inkscape:zoom="3.959798"
     inkscape:cx="5.0507627"
     inkscape:cy="72.099637"
     inkscape:document-units="mm"
     inkscape:current-layer="layer1"
     inkscape:document-rotation="0"
     showgrid="false"
     units="px"
     inkscape:window-width="1920"
     inkscape:window-height="1007"
     inkscape:window-x="0"
     inkscape:window-y="0"
     inkscape:window-maximized="1"
     showguides="true"
     inkscape:guide-bbox="true"
     inkscape:pagecheckerboard="0">
    <sodipodi:guide
       position="33.898569,11.655842"
       orientation="0,-1"
       id="guide1374" />
  </sodipodi:namedview>
  <metadata
     id="metadata2114">
    <rdf:RDF>
      <cc:Work
         rdf:about="">
        <dc:format>image/svg+xml</dc:format>
        <dc:type
           rdf:resource="http://purl.org/dc/dcmitype/StillImage" />
      </cc:Work>
    </rdf:RDF>
  </metadata>
  <g
     inkscape:label="Capa 1"
     inkscape:groupmode="layer"
     id="layer1">
    <g
       style="opacity:0.139618"
       transform="matrix(0.97573206,0,0,0.97573206,-65.829986,-36.914633)"
       id="g1702">
      <rect
         ry="6.6098609"
         rx="6.6098609"
         y="40.709618"
         x="69.839508"
         height="29.810888"
         width="29.810888"
         id="rect1634"
         style="fill:none;fill-opacity:1;stroke:#000000;stroke-width:0.1;stroke-linecap:round;stroke-linejoin:round;stroke-miterlimit:4;stroke-dasharray:none;stroke-opacity:0.02" />
      <rect
         style="fill:none;fill-opacity:1;stroke:#000000;stroke-width:0.2;stroke-linecap:round;stroke-linejoin:round;stroke-miterlimit:4;stroke-dasharray:none;stroke-opacity:0.02"
         id="rect1638"
         width="29.810888"
         height="29.810888"
         x="69.839508"
         y="40.709618"
         rx="6.6098609"
         ry="6.6098609" />
      <rect
         ry="6.6098609"
         rx="6.6098609"
         y="40.709618"
         x="69.839508"
         height="29.810888"
         width="29.810888"
         id="rect1640"
         style="fill:none;fill-opacity:1;stroke:#000000;stroke-width:0.3;stroke-linecap:round;stroke-linejoin:round;stroke-miterlimit:4;stroke-dasharray:none;stroke-opacity:0.02" />
      <rect
         style="fill:none;fill-opacity:1;stroke:#000000;stroke-width:0.4;stroke-linecap:round;stroke-linejoin:round;stroke-miterlimit:4;stroke-dasharray:none;stroke-opacity:0.02"
         id="rect1642"
         width="29.810888"
         height="29.810888"
         x="69.839508"
         y="40.709618"
         rx="6.6098609"
         ry="6.6098609" />
      <rect
         ry="6.6098609"
         rx="6.6098609"
         y="40.709618"
         x="69.839508"
         height="29.810888"
         width="29.810888"
         id="rect1644"
         style="fill:none;fill-opacity:1;stroke:#000000;stroke-width:0.5;stroke-linecap:round;stroke-linejoin:round;stroke-miterlimit:4;stroke-dasharray:none;stroke-opacity:0.02" />
      <rect
         style="fill:none;fill-opacity:1;stroke:#000000;stroke-width:0.6;stroke-linecap:round;stroke-linejoin:round;stroke-miterlimit:4;stroke-dasharray:none;stroke-opacity:0.02"
         id="rect1646"
         width="29.810888"
         height="29.810888"
         x="69.839508"
         y="40.709618"
         rx="6.6098609"
         ry="6.6098609" />
      <rect
         ry="6.6098609"
         rx="6.6098609"
         y="40.709618"
         x="69.839508"
         height="29.810888"
         width="29.810888"
         id="rect1648"
         style="fill:none;fill-opacity:1;stroke:#000000;stroke-width:0.7;stroke-linecap:round;stroke-linejoin:round;stroke-miterlimit:4;stroke-dasharray:none;stroke-opacity:0.02" />
      <rect
         style="fill:none;fill-opacity:1;stroke:#000000;stroke-width:0.8;stroke-linecap:round;stroke-linejoin:round;stroke-miterlimit:4;stroke-dasharray:none;stroke-opacity:0.02"
         id="rect1650"
         width="29.810888"
         height="29.810888"
         x="69.839508"
         y="40.709618"
         rx="6.6098609"
         ry="6.6098609" />
      <rect
         ry="6.6098609"
         rx="6.6098609"
         y="40.709618"
         x="69.839508"
         height="29.810888"
         width="29.810888"
         id="rect1652"
         style="fill:none;fill-opacity:1;stroke:#000000;stroke-width:1;stroke-linecap:round;stroke-linejoin:round;stroke-miterlimit:4;stroke-dasharray:none;stroke-opacity:0.02" />
      <rect
         style="fill:none;fill-opacity:1;stroke:#000000;stroke-width:1.2;stroke-linecap:round;stroke-linejoin:round;stroke-miterlimit:4;stroke-dasharray:none;stroke-opacity:0.02"
         id="rect1654"
         width="29.810888"
         height="29.810888"
         x="69.839508"
         y="40.709618"
         rx="6.6098609"
         ry="6.6098609" />
      <rect
         ry="6.6098609"
         rx="6.6098609"
         y="40.709618"
         x="69.839508"
         height="29.810888"
         width="29.810888"
         id="rect1656"
         style="fill:none;fill-opacity:1;stroke:#000000;stroke-width:1.4;stroke-linecap:round;stroke-linejoin:round;stroke-miterlimit:4;stroke-dasharray:none;stroke-opacity:0.02" />
      <rect
         style="fill:none;fill-opacity:1;stroke:#000000;stroke-width:1.6;stroke-linecap:round;stroke-linejoin:round;stroke-miterlimit:4;stroke-dasharray:none;stroke-opacity:0.02"
         id="rect1658"
         width="29.810888"
         height="29.810888"
         x="69.839508"
         y="40.709618"
         rx="6.6098609"
         ry="6.6098609" />
      <rect
         ry="6.6098609"
         rx="6.6098609"
         y="40.709618"
         x="69.839508"
         height="29.810888"
         width="29.810888"
         id="rect1660"
         style="fill:none;fill-opacity:1;stroke:#000000;stroke-width:1.8;stroke-linecap:round;stroke-linejoin:round;stroke-miterlimit:4;stroke-dasharray:none;stroke-opacity:0.02" />
      <rect
         style="fill:none;fill-opacity:1;stroke:#000000;stroke-width:2;stroke-linecap:round;stroke-linejoin:round;stroke-miterlimit:4;stroke-dasharray:none;stroke-opacity:0.02"
         id="rect1662"
         width="29.810888"
         height="29.810888"
         x="69.839508"
         y="40.709618"
         rx="6.6098609"
         ry="6.6098609" />
      <rect
         ry="6.6098609"
         rx="6.6098609"
         y="40.709618"
         x="69.839508"
         height="29.810888"
         width="29.810888"
         id="rect1664"
         style="fill:none;fill-opacity:1;stroke:#000000;stroke-width:2.2;stroke-linecap:round;stroke-linejoin:round;stroke-miterlimit:4;stroke-dasharray:none;stroke-opacity:0.02" />
      <rect
         style="fill:none;fill-opacity:1;stroke:#000000;stroke-width:2.6;stroke-linecap:round;stroke-linejoin:round;stroke-miterlimit:4;stroke-dasharray:none;stroke-opacity:0.02"
         id="rect1666"
         width="29.810888"
         height="29.810888"
         x="69.839508"
         y="40.709618"
         rx="6.6098609"
         ry="6.6098609" />
      <rect
         ry="6.6098609"
         rx="6.6098609"
         y="40.709618"
         x="69.839508"
         height="29.810888"
         width="29.810888"
         id="rect1668"
         style="fill:none;fill-opacity:1;stroke:#000000;stroke-width:3;stroke-linecap:round;stroke-linejoin:round;stroke-miterlimit:4;stroke-dasharray:none;stroke-opacity:0.02" />
      <rect
         style="fill:none;fill-opacity:1;stroke:#000000;stroke-width:3.4;stroke-linecap:round;stroke-linejoin:round;stroke-miterlimit:4;stroke-dasharray:none;stroke-opacity:0.02"
         id="rect1670"
         width="29.810888"
         height="29.810888"
         x="69.839508"
         y="40.709618"
         rx="6.6098609"
         ry="6.6098609" />
      <rect
         ry="6.6098609"
         rx="6.6098609"
         y="40.709618"
         x="69.839508"
         height="29.810888"
         width="29.810888"
         id="rect1672"
         style="fill:none;fill-opacity:1;stroke:#000000;stroke-width:3.8;stroke-linecap:round;stroke-linejoin:round;stroke-miterlimit:4;stroke-dasharray:none;stroke-opacity:0.02" />
      <rect
         style="fill:none;fill-opacity:1;stroke:#000000;stroke-width:4.2;stroke-linecap:round;stroke-linejoin:round;stroke-miterlimit:4;stroke-dasharray:none;stroke-opacity:0.02"
         id="rect1674"
         width="29.810888"
         height="29.810888"
         x="69.839508"
         y="40.709618"
         rx="6.6098609"
         ry="6.6098609" />
      <rect
         ry="6.6098609"
         rx="6.6098609"
         y="40.709618"
         x="69.839508"
         height="29.810888"
         width="29.810888"
         id="rect1676"
         style="fill:none;fill-opacity:1;stroke:#000000;stroke-width:4.6;stroke-linecap:round;stroke-linejoin:round;stroke-miterlimit:4;stroke-dasharray:none;stroke-opacity:0.02" />
      <rect
         style="fill:none;fill-opacity:1;stroke:#000000;stroke-width:5;stroke-linecap:round;stroke-linejoin:round;stroke-miterlimit:4;stroke-dasharray:none;stroke-opacity:0.02"
         id="rect1678"
         width="29.810888"
         height="29.810888"
         x="69.839508"
         y="40.709618"
         rx="6.6098609"
         ry="6.6098609" />
    </g>
    <rect
       style="fill:url(#linearGradient912);fill-opacity:1;stroke-width:2.68769;stroke-linecap:round;stroke-linejoin:round"
       id="rect910"
       width="29.08744"
       height="29.08744"
       x="2.2835085"
       y="2.4875498"
       rx="6.4494534"
       ry="6.4494534" />
    <g
       style="opacity:0.2"
       transform="matrix(0.48347285,0,0,0.48347285,5.1660608,6.2795572)"
       id="g8">
      <g
         transform="matrix(0.090632,0,0,0.098526,4,2.2582)"
         id="g6">
        <g
           id="g4">
          <path
             transform="matrix(11.033631,0,0,10.149605,-44.138522,-22.918024)"
             d="M 15.541016,4 C 9.1675921,4 4,9.879821 4,17.132812 c 0,1.948746 0.3021966,3.824426 0.8320312,5.615235 0,0 0.4806422,1.614413 0.90625,2.503906 C 10.602591,36.624809 24,44 24,44 c 0,0 13.397409,-7.375191 18.261719,-18.748047 0.425608,-0.889493 0.90625,-2.503906 0.90625,-2.503906 C 43.697803,20.957238 44,19.081558 44,17.132812 44,9.879821 38.832408,4 32.458984,4 29.116476,4 26.1081,5.4157615 24,8 21.8919,5.4157615 18.883524,4 15.541016,4 Z"
             id="path2" />
        </g>
      </g>
    </g>
    <path
       style="fill:#ffbd4a;stroke-width:0.483472"
       d="m 12.679545,7.7300611 c -3.0813782,0 -5.5797692,2.8427349 -5.5797692,6.3493599 0,0.942164 0.146111,1.849005 0.402265,2.714813 0,0 0.232378,0.780525 0.438148,1.210571 2.3517612,5.498466 8.8290452,9.064172 8.8290452,9.064172 0,0 6.477283,-3.565706 8.829044,-9.064172 0.205771,-0.430046 0.438148,-1.210571 0.438148,-1.210571 0.25616,-0.865808 0.402266,-1.772649 0.402266,-2.714813 0,-3.506625 -2.498391,-6.3493599 -5.579769,-6.3493599 -1.616012,0 -3.07048,0.6844824 -4.089689,1.9338926 C 15.750025,8.4145435 14.295557,7.7300611 12.679545,7.7300611 Z"
       id="path10" />
    <path
       style="opacity:0.1;stroke-width:0.483472"
       d="m 24.291557,14.98361 c 0.157275,-0.0088 0.295481,0.02238 0.435081,0.08585 0.681112,0.318431 0.84735,1.301543 0.690458,1.876768 -0.32426,1.090762 -1.257699,2.908268 -2.507409,4.192757 -0.551372,0.545465 -1.272856,1.231159 -2.054384,1.071843 -0.616547,-0.190472 -0.96077,-0.337808 -1.131023,-0.696866 -0.272348,-0.931433 0.546015,-1.31106 1.020806,-1.798178 1.040941,-1.082656 2.128792,-2.722988 2.653099,-3.82075 0.289036,-0.559846 0.3425,-0.776723 0.893372,-0.911413 z"
       id="path12" />
    <path
       style="fill:#ee6d51;stroke-width:0.483472"
       d="m 24.291557,14.500136 c 0.157275,-0.0088 0.295481,0.02238 0.435081,0.08585 0.681112,0.318431 0.84735,1.301545 0.690458,1.87677 -0.32426,1.090763 -1.257699,2.908269 -2.507409,4.192758 -0.551372,0.545463 -1.272856,1.231157 -2.054384,1.071842 -0.616547,-0.190472 -0.96077,-0.337809 -1.131023,-0.696866 -0.272348,-0.931434 0.546015,-1.311061 1.020806,-1.798179 1.040941,-1.082654 2.128792,-2.722988 2.653099,-3.820749 0.289036,-0.559846 0.3425,-0.776723 0.893372,-0.911415 z"
       id="path14" />
    <path
       style="opacity:0.1;stroke-width:0.483472"
       d="m 20.840037,15.478847 c -0.270844,0.03536 -0.534938,0.189216 -0.755427,0.515579 -0.14231,0.208769 -0.265353,0.459935 -0.35316,0.737486 -0.110607,0.470326 -0.102767,0.660928 0.28234,1.082148 0.173227,0.169848 0.3448,0.336473 0.514635,0.499525 1.197498,1.149671 2.310758,2.130315 3.389031,3.041536 0.518441,-0.694591 0.988835,-1.438417 1.38054,-2.224731 -0.525088,-0.439804 -1.051208,-0.877977 -1.555234,-1.34938 -0.572065,-0.536923 -1.104039,-1.154022 -1.656271,-1.749756 -0.323658,-0.342054 -0.795047,-0.611343 -1.246454,-0.552407 z"
       id="path16" />
    <path
       style="fill:#ff7d5f;stroke-width:0.483472"
       d="m 20.840037,14.995374 c -0.270844,0.03536 -0.534938,0.189215 -0.755427,0.515578 -0.14231,0.208771 -0.265353,0.459937 -0.35316,0.737485 -0.110607,0.470329 -0.102767,0.660929 0.28234,1.082149 0.173227,0.169847 0.3448,0.336475 0.514635,0.499527 1.197498,1.149671 2.310758,2.130314 3.389031,3.041535 0.518441,-0.694591 0.988835,-1.438416 1.38054,-2.224731 -0.525088,-0.439805 -1.051208,-0.877978 -1.555234,-1.349381 -0.572065,-0.536923 -1.104039,-1.15402 -1.656271,-1.749756 -0.323658,-0.342052 -0.795047,-0.611341 -1.246454,-0.552406 z"
       id="path18" />
    <g
       style="opacity:0.2;fill:#ffffff"
       transform="matrix(0.48347285,0,0,0.48347285,5.1660608,5.796084)"
       id="g26">
      <g
         style="fill:#ffffff"
         transform="matrix(0.090632,0,0,0.098526,4,2.2582)"
         id="g24">
        <g
           style="fill:#ffffff"
           id="g22">
          <path
             style="fill:#ffffff"
             transform="matrix(11.033631,0,0,10.149605,-44.138522,-22.918024)"
             d="M 15.541016,4 C 9.1675914,4 4,9.8798216 4,17.132812 4,17.316258 4.016191,17.495593 4.021484,17.677734 4.2341949,10.63747 9.3027031,5 15.541016,5 18.883524,5 21.8919,6.4157615 24,9 26.1081,6.4157615 29.116476,5 32.458984,5 38.697297,5 43.765805,10.63747 43.978516,17.677734 43.983809,17.495593 44,17.316258 44,17.132812 44,9.8798216 38.832409,4 32.458984,4 29.116476,4 26.1081,5.4157615 24,8 21.8919,5.4157615 18.883524,4 15.541016,4 Z"
             id="path20" />
        </g>
      </g>
    </g>
  </g>
</svg>
