<?xml version="1.0" encoding="UTF-8" standalone="no"?>
<svg
   width="128"
   height="128"
   viewBox="0 0 33.866666 33.866668"
   version="1.1"
   id="svg1500"
   inkscape:version="1.1.2 (0a00cf5339, 2022-02-04)"
   sodipodi:docname="com.georgefb.haruna.svg"
   xmlns:inkscape="http://www.inkscape.org/namespaces/inkscape"
   xmlns:sodipodi="http://sodipodi.sourceforge.net/DTD/sodipodi-0.dtd"
   xmlns:xlink="http://www.w3.org/1999/xlink"
   xmlns="http://www.w3.org/2000/svg"
   xmlns:svg="http://www.w3.org/2000/svg"
   xmlns:rdf="http://www.w3.org/1999/02/22-rdf-syntax-ns#"
   xmlns:cc="http://creativecommons.org/ns#"
   xmlns:dc="http://purl.org/dc/elements/1.1/">
  <defs
     id="defs1494">
    <linearGradient
       inkscape:collect="always"
       id="linearGradient1952">
      <stop
         style="stop-color:#0f0f0f;stop-opacity:1"
         offset="0"
         id="stop1948" />
      <stop
         style="stop-color:#3c3c3c;stop-opacity:1"
         offset="1"
         id="stop1950" />
    </linearGradient>
    <linearGradient
       inkscape:collect="always"
       id="linearGradient1791">
      <stop
         style="stop-color:#fdffff;stop-opacity:0.96078402"
         offset="0"
         id="stop1787" />
      <stop
         style="stop-color:#d8d8dc;stop-opacity:1"
         offset="1"
         id="stop1789" />
    </linearGradient>
    <linearGradient
       inkscape:collect="always"
       id="linearGradient1726">
      <stop
         style="stop-color:#00ff00;stop-opacity:0"
         offset="0"
         id="stop1722" />
      <stop
         style="stop-color:#000000;stop-opacity:0;"
         offset="1"
         id="stop1724" />
    </linearGradient>
    <linearGradient
       gradientTransform="matrix(0.52883532,0,0,0.52883532,0.0739541,-0.04053188)"
       id="b-3"
       gradientUnits="userSpaceOnUse"
       x1="32.228001"
       x2="32.228001"
       y1="4.6100001"
       y2="59.592999">
      <stop
         offset="0"
         stop-color="#525252"
         id="stop2-6" />
      <stop
         offset="1"
         id="stop4-7" />
    </linearGradient>
    <linearGradient
       gradientTransform="matrix(0.02871047,0,0,0.02871047,2.5261637,2.2546141)"
       id="c-5"
       gradientUnits="userSpaceOnUse"
       x1="548.22198"
       x2="728.22198"
       y1="295.892"
       y2="918.55798">
      <stop
         offset="0"
         stop-color="#d5e7ec"
         id="stop7-3" />
      <stop
         offset=".229"
         stop-color="#cadbde"
         id="stop9-5" />
      <stop
         offset=".666"
         stop-color="#9fa5a1"
         id="stop11" />
      <stop
         offset="1"
         stop-color="#868685"
         id="stop13" />
    </linearGradient>
    <linearGradient
       gradientTransform="matrix(0.02871047,0,0,0.02871047,2.5261637,2.2546141)"
       id="d-6"
       gradientUnits="userSpaceOnUse"
       x1="616.677"
       x2="720.677"
       xlink:href="#a-2"
       y1="616.94202"
       y2="934.94202" />
    <linearGradient
       id="a-2">
      <stop
         offset="0"
         stop-color="#535555"
         id="stop16" />
      <stop
         offset=".078"
         stop-color="#606262"
         id="stop18" />
      <stop
         offset=".271"
         stop-color="#7a7b7b"
         id="stop20-9" />
      <stop
         offset=".47"
         stop-color="#8c8d8d"
         id="stop22-1" />
      <stop
         offset=".677"
         stop-color="#979898"
         id="stop24" />
      <stop
         offset=".902"
         stop-color="#9b9c9c"
         id="stop26" />
    </linearGradient>
    <linearGradient
       gradientTransform="matrix(0.02871047,0,0,0.02871047,2.5261637,2.2546141)"
       id="e-2"
       gradientUnits="userSpaceOnUse"
       x1="560.41699"
       x2="560.41699"
       y1="318.677"
       y2="970.04498">
      <stop
         offset="0"
         stop-color="#d5e7ec"
         id="stop30-7" />
      <stop
         offset=".252"
         stop-color="#c5d4d7"
         id="stop32-0" />
      <stop
         offset=".751"
         stop-color="#989d9e"
         id="stop34" />
      <stop
         offset="1"
         stop-color="#818076"
         id="stop36" />
    </linearGradient>
    <linearGradient
       gradientTransform="matrix(0.02871047,0,0,0.02871047,2.5261637,2.2546141)"
       id="f-9"
       gradientUnits="userSpaceOnUse"
       x1="527.086"
       x2="527.086"
       xlink:href="#a-2"
       y1="649"
       y2="970.03699" />
    <linearGradient
       gradientTransform="matrix(0.02871047,0,0,0.02871047,2.5261637,2.2546141)"
       id="g-3"
       gradientUnits="userSpaceOnUse"
       x1="562.59998"
       x2="217.43201"
       y1="321.423"
       y2="990.64301">
      <stop
         offset="0"
         stop-color="#d5e6eb"
         id="stop40-6" />
      <stop
         offset=".252"
         stop-color="#c3d2d3"
         id="stop42-0" />
      <stop
         offset=".751"
         stop-color="#989d9e"
         id="stop44" />
      <stop
         offset="1"
         stop-color="#868685"
         id="stop46" />
    </linearGradient>
    <linearGradient
       gradientTransform="matrix(0.02871047,0,0,0.02871047,2.5261637,2.2546141)"
       id="h-6"
       gradientUnits="userSpaceOnUse"
       x1="672.19702"
       x2="582.07098"
       y1="153.623"
       y2="183.217">
      <stop
         offset=".015"
         stop-color="#afb5b8"
         id="stop49-2" />
      <stop
         offset=".573"
         stop-color="#a3abaf"
         id="stop51-6" />
      <stop
         offset="1"
         stop-color="#97a1a5"
         id="stop53" />
    </linearGradient>
    <linearGradient
       gradientTransform="matrix(0.02871047,0,0,0.02871047,2.5261637,2.2546141)"
       id="i-1"
       gradientUnits="userSpaceOnUse"
       x1="406.97601"
       x2="556.47601"
       y1="104.929"
       y2="417.92899">
      <stop
         offset="0"
         stop-color="#c0cdce"
         id="stop56" />
      <stop
         offset=".238"
         stop-color="#b1bcbd"
         id="stop58" />
      <stop
         offset=".71"
         stop-color="#888f90"
         id="stop60-8" />
      <stop
         offset="1"
         stop-color="#6d7171"
         id="stop62-7" />
    </linearGradient>
    <linearGradient
       gradientTransform="matrix(0.02871047,0,0,0.02871047,2.5261637,2.2546141)"
       id="j-9"
       gradientUnits="userSpaceOnUse"
       x1="526.67999"
       x2="531.42999"
       y1="401.496"
       y2="420.746">
      <stop
         offset="0"
         stop-color="#989b9b"
         id="stop65-2" />
      <stop
         offset=".46"
         stop-color="#878a8a"
         id="stop67-0" />
      <stop
         offset="1"
         stop-color="#6d7171"
         id="stop69" />
    </linearGradient>
    <linearGradient
       gradientTransform="matrix(0.02871047,0,0,0.02871047,2.5261637,2.2546141)"
       id="k-2"
       gradientUnits="userSpaceOnUse"
       x1="388.30099"
       x2="667.75098"
       y1="174.45399"
       y2="174.45399">
      <stop
         offset="0"
         stop-color="#c9cfd0"
         id="stop72-3" />
      <stop
         offset=".591"
         stop-color="#b8bfc1"
         id="stop74-7" />
      <stop
         offset="1"
         stop-color="#a9b2b4"
         id="stop76-5" />
    </linearGradient>
    <linearGradient
       inkscape:collect="always"
       xlink:href="#linearGradient1726"
       id="linearGradient1728"
       x1="8.2215161"
       y1="16.090527"
       x2="27.789314"
       y2="16.090527"
       gradientUnits="userSpaceOnUse" />
    <linearGradient
       inkscape:collect="always"
       xlink:href="#linearGradient1791"
       id="linearGradient1793"
       x1="76.495895"
       y1="36.938568"
       x2="76.495895"
       y2="95.0308"
       gradientUnits="userSpaceOnUse" />
    <linearGradient
       inkscape:collect="always"
       xlink:href="#linearGradient1952"
       id="linearGradient1954"
       x1="64.897408"
       y1="95.788017"
       x2="64.897408"
       y2="36.114918"
       gradientUnits="userSpaceOnUse" />
  </defs>
  <sodipodi:namedview
     id="base"
     pagecolor="#ffffff"
     bordercolor="#666666"
     borderopacity="1.0"
     inkscape:pageopacity="0.0"
     inkscape:pageshadow="2"
     inkscape:zoom="1.4"
     inkscape:cx="-195.71429"
     inkscape:cy="60.357143"
     inkscape:document-units="mm"
     inkscape:current-layer="layer1"
     inkscape:document-rotation="0"
     showgrid="false"
     units="px"
     inkscape:window-width="1920"
     inkscape:window-height="1028"
     inkscape:window-x="0"
     inkscape:window-y="24"
     inkscape:window-maximized="1"
     inkscape:pagecheckerboard="0"
     inkscape:lockguides="true" />
  <metadata
     id="metadata1497">
    <rdf:RDF>
      <cc:Work
         rdf:about="">
        <dc:format>image/svg+xml</dc:format>
        <dc:type
           rdf:resource="http://purl.org/dc/dcmitype/StillImage" />
      </cc:Work>
    </rdf:RDF>
  </metadata>
  <g
     inkscape:label="Capa 1"
     inkscape:groupmode="layer"
     id="layer1">
    <g
       id="g1702"
       transform="matrix(0.97573206,0,0,0.97573206,-65.685032,-37.254228)"
       style="opacity:0.295">
      <rect
         style="fill:none;fill-opacity:1;stroke:#000000;stroke-width:0.1;stroke-linecap:round;stroke-linejoin:round;stroke-miterlimit:4;stroke-dasharray:none;stroke-opacity:0.02"
         id="rect1634"
         width="29.810888"
         height="29.810888"
         x="69.839508"
         y="40.709618"
         rx="6.6098609"
         ry="6.6098609" />
      <rect
         ry="6.6098609"
         rx="6.6098609"
         y="40.709618"
         x="69.839508"
         height="29.810888"
         width="29.810888"
         id="rect1638"
         style="fill:none;fill-opacity:1;stroke:#000000;stroke-width:0.2;stroke-linecap:round;stroke-linejoin:round;stroke-miterlimit:4;stroke-dasharray:none;stroke-opacity:0.02" />
      <rect
         style="fill:none;fill-opacity:1;stroke:#000000;stroke-width:0.3;stroke-linecap:round;stroke-linejoin:round;stroke-miterlimit:4;stroke-dasharray:none;stroke-opacity:0.02"
         id="rect1640"
         width="29.810888"
         height="29.810888"
         x="69.839508"
         y="40.709618"
         rx="6.6098609"
         ry="6.6098609" />
      <rect
         ry="6.6098609"
         rx="6.6098609"
         y="40.709618"
         x="69.839508"
         height="29.810888"
         width="29.810888"
         id="rect1642"
         style="fill:none;fill-opacity:1;stroke:#000000;stroke-width:0.4;stroke-linecap:round;stroke-linejoin:round;stroke-miterlimit:4;stroke-dasharray:none;stroke-opacity:0.02" />
      <rect
         style="fill:none;fill-opacity:1;stroke:#000000;stroke-width:0.5;stroke-linecap:round;stroke-linejoin:round;stroke-miterlimit:4;stroke-dasharray:none;stroke-opacity:0.02"
         id="rect1644"
         width="29.810888"
         height="29.810888"
         x="69.839508"
         y="40.709618"
         rx="6.6098609"
         ry="6.6098609" />
      <rect
         ry="6.6098609"
         rx="6.6098609"
         y="40.709618"
         x="69.839508"
         height="29.810888"
         width="29.810888"
         id="rect1646"
         style="fill:none;fill-opacity:1;stroke:#000000;stroke-width:0.6;stroke-linecap:round;stroke-linejoin:round;stroke-miterlimit:4;stroke-dasharray:none;stroke-opacity:0.02" />
      <rect
         style="fill:none;fill-opacity:1;stroke:#000000;stroke-width:0.7;stroke-linecap:round;stroke-linejoin:round;stroke-miterlimit:4;stroke-dasharray:none;stroke-opacity:0.02"
         id="rect1648"
         width="29.810888"
         height="29.810888"
         x="69.839508"
         y="40.709618"
         rx="6.6098609"
         ry="6.6098609" />
      <rect
         ry="6.6098609"
         rx="6.6098609"
         y="40.709618"
         x="69.839508"
         height="29.810888"
         width="29.810888"
         id="rect1650"
         style="fill:none;fill-opacity:1;stroke:#000000;stroke-width:0.8;stroke-linecap:round;stroke-linejoin:round;stroke-miterlimit:4;stroke-dasharray:none;stroke-opacity:0.02" />
      <rect
         style="fill:none;fill-opacity:1;stroke:#000000;stroke-width:1;stroke-linecap:round;stroke-linejoin:round;stroke-miterlimit:4;stroke-dasharray:none;stroke-opacity:0.02"
         id="rect1652"
         width="29.810888"
         height="29.810888"
         x="69.839508"
         y="40.709618"
         rx="6.6098609"
         ry="6.6098609" />
      <rect
         ry="6.6098609"
         rx="6.6098609"
         y="40.709618"
         x="69.839508"
         height="29.810888"
         width="29.810888"
         id="rect1654"
         style="fill:none;fill-opacity:1;stroke:#000000;stroke-width:1.2;stroke-linecap:round;stroke-linejoin:round;stroke-miterlimit:4;stroke-dasharray:none;stroke-opacity:0.02" />
      <rect
         style="fill:none;fill-opacity:1;stroke:#000000;stroke-width:1.4;stroke-linecap:round;stroke-linejoin:round;stroke-miterlimit:4;stroke-dasharray:none;stroke-opacity:0.02"
         id="rect1656"
         width="29.810888"
         height="29.810888"
         x="69.839508"
         y="40.709618"
         rx="6.6098609"
         ry="6.6098609" />
      <rect
         ry="6.6098609"
         rx="6.6098609"
         y="40.709618"
         x="69.839508"
         height="29.810888"
         width="29.810888"
         id="rect1658"
         style="fill:none;fill-opacity:1;stroke:#000000;stroke-width:1.6;stroke-linecap:round;stroke-linejoin:round;stroke-miterlimit:4;stroke-dasharray:none;stroke-opacity:0.02" />
      <rect
         style="fill:none;fill-opacity:1;stroke:#000000;stroke-width:1.8;stroke-linecap:round;stroke-linejoin:round;stroke-miterlimit:4;stroke-dasharray:none;stroke-opacity:0.02"
         id="rect1660"
         width="29.810888"
         height="29.810888"
         x="69.839508"
         y="40.709618"
         rx="6.6098609"
         ry="6.6098609" />
      <rect
         ry="6.6098609"
         rx="6.6098609"
         y="40.709618"
         x="69.839508"
         height="29.810888"
         width="29.810888"
         id="rect1662"
         style="fill:none;fill-opacity:1;stroke:#000000;stroke-width:2;stroke-linecap:round;stroke-linejoin:round;stroke-miterlimit:4;stroke-dasharray:none;stroke-opacity:0.02" />
      <rect
         style="fill:none;fill-opacity:1;stroke:#000000;stroke-width:2.2;stroke-linecap:round;stroke-linejoin:round;stroke-miterlimit:4;stroke-dasharray:none;stroke-opacity:0.02"
         id="rect1664"
         width="29.810888"
         height="29.810888"
         x="69.839508"
         y="40.709618"
         rx="6.6098609"
         ry="6.6098609" />
      <rect
         ry="6.6098609"
         rx="6.6098609"
         y="40.709618"
         x="69.839508"
         height="29.810888"
         width="29.810888"
         id="rect1666"
         style="fill:none;fill-opacity:1;stroke:#000000;stroke-width:2.6;stroke-linecap:round;stroke-linejoin:round;stroke-miterlimit:4;stroke-dasharray:none;stroke-opacity:0.02" />
      <rect
         style="fill:none;fill-opacity:1;stroke:#000000;stroke-width:3;stroke-linecap:round;stroke-linejoin:round;stroke-miterlimit:4;stroke-dasharray:none;stroke-opacity:0.02"
         id="rect1668"
         width="29.810888"
         height="29.810888"
         x="69.839508"
         y="40.709618"
         rx="6.6098609"
         ry="6.6098609" />
      <rect
         ry="6.6098609"
         rx="6.6098609"
         y="40.709618"
         x="69.839508"
         height="29.810888"
         width="29.810888"
         id="rect1670"
         style="fill:none;fill-opacity:1;stroke:#000000;stroke-width:3.4;stroke-linecap:round;stroke-linejoin:round;stroke-miterlimit:4;stroke-dasharray:none;stroke-opacity:0.02" />
      <rect
         style="fill:none;fill-opacity:1;stroke:#000000;stroke-width:3.8;stroke-linecap:round;stroke-linejoin:round;stroke-miterlimit:4;stroke-dasharray:none;stroke-opacity:0.02"
         id="rect1672"
         width="29.810888"
         height="29.810888"
         x="69.839508"
         y="40.709618"
         rx="6.6098609"
         ry="6.6098609" />
      <rect
         ry="6.6098609"
         rx="6.6098609"
         y="40.709618"
         x="69.839508"
         height="29.810888"
         width="29.810888"
         id="rect1674"
         style="fill:none;fill-opacity:1;stroke:#000000;stroke-width:4.2;stroke-linecap:round;stroke-linejoin:round;stroke-miterlimit:4;stroke-dasharray:none;stroke-opacity:0.02" />
      <rect
         style="fill:none;fill-opacity:1;stroke:#000000;stroke-width:4.6;stroke-linecap:round;stroke-linejoin:round;stroke-miterlimit:4;stroke-dasharray:none;stroke-opacity:0.02"
         id="rect1676"
         width="29.810888"
         height="29.810888"
         x="69.839508"
         y="40.709618"
         rx="6.6098609"
         ry="6.6098609" />
      <rect
         ry="6.6098609"
         rx="6.6098609"
         y="40.709618"
         x="69.839508"
         height="29.810888"
         width="29.810888"
         id="rect1678"
         style="fill:none;fill-opacity:1;stroke:#000000;stroke-width:5;stroke-linecap:round;stroke-linejoin:round;stroke-miterlimit:4;stroke-dasharray:none;stroke-opacity:0.02" />
    </g>
    <path
       id="path79"
       d="m 9.328044,2.3392271 c -3.8086717,0 -6.8748586,3.0661869 -6.8748586,6.8748586 V 24.550311 c 0,3.808672 3.0661869,6.874859 6.8748586,6.874859 h 15.337283 c 3.808671,0 6.874858,-3.066187 6.874858,-6.874859 V 9.2140857 c 0,-3.8086717 -3.066187,-6.8748586 -6.874858,-6.8748586 z"
       style="fill:url(#b-3);stroke-width:0.528835"
       inkscape:connector-curvature="0" />
    <g
       id="g988"
       transform="translate(-1.0085197,0.7916467)"
       style="fill-opacity:1;fill:url(#linearGradient1728)">
      <path
         id="path9"
         style="stroke-width:2.17521;fill:url(#linearGradient1793);fill-opacity:1"
         d="M 35.701172 26.828125 C 31.025528 26.828125 27.261719 30.591935 27.261719 35.267578 L 27.261719 40.164062 L 27.261719 88.632812 L 27.261719 92.345703 C 27.261719 97.021347 31.025528 100.78516 35.701172 100.78516 L 36.222656 100.78516 C 40.8983 100.78516 44.662109 97.021347 44.662109 92.345703 L 44.662109 72.507812 L 83.707031 72.507812 L 83.707031 92.345703 C 83.707031 97.021347 87.470841 100.78516 92.146484 100.78516 L 92.667969 100.78516 C 97.343612 100.78516 101.10742 97.021347 101.10742 92.345703 L 101.10742 88.632812 L 101.21875 88.632812 L 101.21875 40.164062 L 101.10742 40.164062 L 101.10742 35.267578 C 101.10742 30.591935 97.343612 26.828125 92.667969 26.828125 L 92.146484 26.828125 C 87.470841 26.828125 83.707031 30.591935 83.707031 35.267578 L 83.707031 55.105469 L 44.662109 55.105469 L 44.662109 40.164062 L 44.662109 35.267578 C 44.662109 30.591935 40.8983 26.828125 36.222656 26.828125 L 35.701172 26.828125 z "
         transform="matrix(0.26458333,0,0,0.26458333,1.0085197,-0.7916467)" />
    </g>
    <path
       id="rect1436"
       style="fill:url(#linearGradient1954);fill-opacity:1;stroke-width:3.77953;stroke-linecap:round;stroke-linejoin:round"
       d="M 34.107422 37.705078 C 32.718311 37.740037 31.611328 38.869743 31.611328 40.267578 L 31.611328 43.841797 C 31.611328 45.261819 32.753806 46.404297 34.173828 46.404297 L 37.748047 46.404297 C 39.168069 46.404297 40.3125 45.261819 40.3125 43.841797 L 40.3125 40.267578 C 40.3125 38.847556 39.168069 37.705078 37.748047 37.705078 L 34.173828 37.705078 C 34.15164 37.705078 34.129471 37.704523 34.107422 37.705078 z M 90.701172 37.705078 C 89.312063 37.740039 88.205078 38.869743 88.205078 40.267578 L 88.205078 43.841797 C 88.205078 45.261818 89.347557 46.404297 90.767578 46.404297 L 94.341797 46.404297 C 95.761818 46.404297 96.90625 45.261818 96.90625 43.841797 L 96.90625 40.267578 C 96.90625 38.847557 95.761818 37.705078 94.341797 37.705078 L 90.767578 37.705078 C 90.745279 37.705078 90.723207 37.704523 90.701172 37.705078 z M 34.173828 59.427734 C 32.753806 59.427734 31.611328 60.572165 31.611328 61.992188 L 31.611328 65.566406 C 31.611328 66.986429 32.753806 68.128906 34.173828 68.128906 L 37.748047 68.128906 C 39.168069 68.128906 40.3125 66.986429 40.3125 65.566406 L 40.3125 61.992188 C 40.3125 60.572165 39.168069 59.427734 37.748047 59.427734 L 34.173828 59.427734 z M 90.767578 59.427734 C 89.347557 59.427734 88.205078 60.572162 88.205078 61.992188 L 88.205078 65.566406 C 88.205078 66.986428 89.347557 68.128906 90.767578 68.128906 L 94.341797 68.128906 C 95.761818 68.128906 96.90625 66.986428 96.90625 65.566406 L 96.90625 61.992188 C 96.90625 60.572162 95.761818 59.427734 94.341797 59.427734 L 90.767578 59.427734 z M 34.107422 81.152344 C 32.718311 81.187302 31.611328 82.317009 31.611328 83.714844 L 31.611328 87.289062 C 31.611328 88.709085 32.753806 89.853516 34.173828 89.853516 L 37.748047 89.853516 C 39.168069 89.853516 40.3125 88.709085 40.3125 87.289062 L 40.3125 83.714844 C 40.3125 82.294821 39.168069 81.152344 37.748047 81.152344 L 34.173828 81.152344 C 34.15164 81.152344 34.129471 81.151789 34.107422 81.152344 z M 90.701172 81.152344 C 89.312063 81.187115 88.205078 82.317008 88.205078 83.714844 L 88.205078 87.289062 C 88.205078 88.709084 89.347557 89.853516 90.767578 89.853516 L 94.341797 89.853516 C 95.761818 89.853516 96.90625 88.709084 96.90625 87.289062 L 96.90625 83.714844 C 96.90625 82.294822 95.761818 81.152344 94.341797 81.152344 L 90.767578 81.152344 C 90.745279 81.152344 90.723207 81.151792 90.701172 81.152344 z "
       transform="scale(0.26458333)" />
  </g>
</svg>
