<?xml version="1.0" encoding="UTF-8" standalone="no"?>
<svg
   width="128"
   height="128"
   viewBox="0 0 33.866666 33.866668"
   version="1.1"
   id="svg1443"
   inkscape:version="1.1.2 (0a00cf5339, 2022-02-04)"
   sodipodi:docname="construo.svg"
   xmlns:inkscape="http://www.inkscape.org/namespaces/inkscape"
   xmlns:sodipodi="http://sodipodi.sourceforge.net/DTD/sodipodi-0.dtd"
   xmlns:xlink="http://www.w3.org/1999/xlink"
   xmlns="http://www.w3.org/2000/svg"
   xmlns:svg="http://www.w3.org/2000/svg"
   xmlns:rdf="http://www.w3.org/1999/02/22-rdf-syntax-ns#"
   xmlns:cc="http://creativecommons.org/ns#"
   xmlns:dc="http://purl.org/dc/elements/1.1/">
  <defs
     id="defs1437">
    <linearGradient
       gradientTransform="matrix(0.97573206,0,0,0.97573206,-111.76517,-37.182508)"
       gradientUnits="userSpaceOnUse"
       y2="70.679932"
       x2="132.21078"
       y1="42.151531"
       x1="132.21078"
       id="linearGradient1632"
       xlink:href="#linearGradient1630"
       inkscape:collect="always" />
    <linearGradient
       id="linearGradient1630"
       inkscape:collect="always">
      <stop
         id="stop1626"
         offset="0"
         style="stop-color:#fafafc;stop-opacity:1" />
      <stop
         id="stop1628"
         offset="1"
         style="stop-color:#e2e6ea;stop-opacity:1" />
    </linearGradient>
    <filter
       color-interpolation-filters="sRGB"
       height="1.1311001"
       width="1.1106"
       y="-0.065563001"
       x="-0.055319"
       id="c-9">
      <feGaussianBlur
         id="feGaussianBlur1093"
         stdDeviation="1.1062912" />
    </filter>
    <linearGradient
       gradientUnits="userSpaceOnUse"
       gradientTransform="matrix(0.13235,0,0,0.13075,-32.379,1.0873)"
       y2="269.48999"
       y1="235.14999"
       x2="657.65002"
       x1="319.20999"
       id="a-12">
      <stop
         id="stop1076"
         offset="0"
         stop-color="#e54c18" />
      <stop
         id="stop1078"
         offset="1"
         stop-color="#fec350" />
    </linearGradient>
  </defs>
  <sodipodi:namedview
     id="base"
     pagecolor="#ffffff"
     bordercolor="#666666"
     borderopacity="1.0"
     inkscape:pageopacity="0.0"
     inkscape:pageshadow="2"
     inkscape:zoom="2.8"
     inkscape:cx="43.035714"
     inkscape:cy="93.571429"
     inkscape:document-units="mm"
     inkscape:current-layer="layer1"
     inkscape:document-rotation="0"
     showgrid="false"
     units="px"
     inkscape:window-width="1920"
     inkscape:window-height="1022"
     inkscape:window-x="0"
     inkscape:window-y="0"
     inkscape:window-maximized="1"
     inkscape:pagecheckerboard="0" />
  <metadata
     id="metadata1440">
    <rdf:RDF>
      <cc:Work
         rdf:about="">
        <dc:format>image/svg+xml</dc:format>
        <dc:type
           rdf:resource="http://purl.org/dc/dcmitype/StillImage" />
      </cc:Work>
    </rdf:RDF>
  </metadata>
  <g
     inkscape:label="Capa 1"
     inkscape:groupmode="layer"
     id="layer1">
    <g
       style="opacity:0.295"
       transform="matrix(0.97573206,0,0,0.97573206,-65.737228,-37.182508)"
       id="g1702">
      <rect
         ry="6.6098609"
         rx="6.6098609"
         y="40.709618"
         x="69.839508"
         height="29.810888"
         width="29.810888"
         id="rect1634"
         style="fill:none;fill-opacity:1;stroke:#000000;stroke-width:0.1;stroke-linecap:round;stroke-linejoin:round;stroke-miterlimit:4;stroke-dasharray:none;stroke-opacity:0.02" />
      <rect
         style="fill:none;fill-opacity:1;stroke:#000000;stroke-width:0.2;stroke-linecap:round;stroke-linejoin:round;stroke-miterlimit:4;stroke-dasharray:none;stroke-opacity:0.02"
         id="rect1638"
         width="29.810888"
         height="29.810888"
         x="69.839508"
         y="40.709618"
         rx="6.6098609"
         ry="6.6098609" />
      <rect
         ry="6.6098609"
         rx="6.6098609"
         y="40.709618"
         x="69.839508"
         height="29.810888"
         width="29.810888"
         id="rect1640"
         style="fill:none;fill-opacity:1;stroke:#000000;stroke-width:0.3;stroke-linecap:round;stroke-linejoin:round;stroke-miterlimit:4;stroke-dasharray:none;stroke-opacity:0.02" />
      <rect
         style="fill:none;fill-opacity:1;stroke:#000000;stroke-width:0.4;stroke-linecap:round;stroke-linejoin:round;stroke-miterlimit:4;stroke-dasharray:none;stroke-opacity:0.02"
         id="rect1642"
         width="29.810888"
         height="29.810888"
         x="69.839508"
         y="40.709618"
         rx="6.6098609"
         ry="6.6098609" />
      <rect
         ry="6.6098609"
         rx="6.6098609"
         y="40.709618"
         x="69.839508"
         height="29.810888"
         width="29.810888"
         id="rect1644"
         style="fill:none;fill-opacity:1;stroke:#000000;stroke-width:0.5;stroke-linecap:round;stroke-linejoin:round;stroke-miterlimit:4;stroke-dasharray:none;stroke-opacity:0.02" />
      <rect
         style="fill:none;fill-opacity:1;stroke:#000000;stroke-width:0.6;stroke-linecap:round;stroke-linejoin:round;stroke-miterlimit:4;stroke-dasharray:none;stroke-opacity:0.02"
         id="rect1646"
         width="29.810888"
         height="29.810888"
         x="69.839508"
         y="40.709618"
         rx="6.6098609"
         ry="6.6098609" />
      <rect
         ry="6.6098609"
         rx="6.6098609"
         y="40.709618"
         x="69.839508"
         height="29.810888"
         width="29.810888"
         id="rect1648"
         style="fill:none;fill-opacity:1;stroke:#000000;stroke-width:0.7;stroke-linecap:round;stroke-linejoin:round;stroke-miterlimit:4;stroke-dasharray:none;stroke-opacity:0.02" />
      <rect
         style="fill:none;fill-opacity:1;stroke:#000000;stroke-width:0.8;stroke-linecap:round;stroke-linejoin:round;stroke-miterlimit:4;stroke-dasharray:none;stroke-opacity:0.02"
         id="rect1650"
         width="29.810888"
         height="29.810888"
         x="69.839508"
         y="40.709618"
         rx="6.6098609"
         ry="6.6098609" />
      <rect
         ry="6.6098609"
         rx="6.6098609"
         y="40.709618"
         x="69.839508"
         height="29.810888"
         width="29.810888"
         id="rect1652"
         style="fill:none;fill-opacity:1;stroke:#000000;stroke-width:1;stroke-linecap:round;stroke-linejoin:round;stroke-miterlimit:4;stroke-dasharray:none;stroke-opacity:0.02" />
      <rect
         style="fill:none;fill-opacity:1;stroke:#000000;stroke-width:1.2;stroke-linecap:round;stroke-linejoin:round;stroke-miterlimit:4;stroke-dasharray:none;stroke-opacity:0.02"
         id="rect1654"
         width="29.810888"
         height="29.810888"
         x="69.839508"
         y="40.709618"
         rx="6.6098609"
         ry="6.6098609" />
      <rect
         ry="6.6098609"
         rx="6.6098609"
         y="40.709618"
         x="69.839508"
         height="29.810888"
         width="29.810888"
         id="rect1656"
         style="fill:none;fill-opacity:1;stroke:#000000;stroke-width:1.4;stroke-linecap:round;stroke-linejoin:round;stroke-miterlimit:4;stroke-dasharray:none;stroke-opacity:0.02" />
      <rect
         style="fill:none;fill-opacity:1;stroke:#000000;stroke-width:1.6;stroke-linecap:round;stroke-linejoin:round;stroke-miterlimit:4;stroke-dasharray:none;stroke-opacity:0.02"
         id="rect1658"
         width="29.810888"
         height="29.810888"
         x="69.839508"
         y="40.709618"
         rx="6.6098609"
         ry="6.6098609" />
      <rect
         ry="6.6098609"
         rx="6.6098609"
         y="40.709618"
         x="69.839508"
         height="29.810888"
         width="29.810888"
         id="rect1660"
         style="fill:none;fill-opacity:1;stroke:#000000;stroke-width:1.8;stroke-linecap:round;stroke-linejoin:round;stroke-miterlimit:4;stroke-dasharray:none;stroke-opacity:0.02" />
      <rect
         style="fill:none;fill-opacity:1;stroke:#000000;stroke-width:2;stroke-linecap:round;stroke-linejoin:round;stroke-miterlimit:4;stroke-dasharray:none;stroke-opacity:0.02"
         id="rect1662"
         width="29.810888"
         height="29.810888"
         x="69.839508"
         y="40.709618"
         rx="6.6098609"
         ry="6.6098609" />
      <rect
         ry="6.6098609"
         rx="6.6098609"
         y="40.709618"
         x="69.839508"
         height="29.810888"
         width="29.810888"
         id="rect1664"
         style="fill:none;fill-opacity:1;stroke:#000000;stroke-width:2.2;stroke-linecap:round;stroke-linejoin:round;stroke-miterlimit:4;stroke-dasharray:none;stroke-opacity:0.02" />
      <rect
         style="fill:none;fill-opacity:1;stroke:#000000;stroke-width:2.6;stroke-linecap:round;stroke-linejoin:round;stroke-miterlimit:4;stroke-dasharray:none;stroke-opacity:0.02"
         id="rect1666"
         width="29.810888"
         height="29.810888"
         x="69.839508"
         y="40.709618"
         rx="6.6098609"
         ry="6.6098609" />
      <rect
         ry="6.6098609"
         rx="6.6098609"
         y="40.709618"
         x="69.839508"
         height="29.810888"
         width="29.810888"
         id="rect1668"
         style="fill:none;fill-opacity:1;stroke:#000000;stroke-width:3;stroke-linecap:round;stroke-linejoin:round;stroke-miterlimit:4;stroke-dasharray:none;stroke-opacity:0.02" />
      <rect
         style="fill:none;fill-opacity:1;stroke:#000000;stroke-width:3.4;stroke-linecap:round;stroke-linejoin:round;stroke-miterlimit:4;stroke-dasharray:none;stroke-opacity:0.02"
         id="rect1670"
         width="29.810888"
         height="29.810888"
         x="69.839508"
         y="40.709618"
         rx="6.6098609"
         ry="6.6098609" />
      <rect
         ry="6.6098609"
         rx="6.6098609"
         y="40.709618"
         x="69.839508"
         height="29.810888"
         width="29.810888"
         id="rect1672"
         style="fill:none;fill-opacity:1;stroke:#000000;stroke-width:3.8;stroke-linecap:round;stroke-linejoin:round;stroke-miterlimit:4;stroke-dasharray:none;stroke-opacity:0.02" />
      <rect
         style="fill:none;fill-opacity:1;stroke:#000000;stroke-width:4.2;stroke-linecap:round;stroke-linejoin:round;stroke-miterlimit:4;stroke-dasharray:none;stroke-opacity:0.02"
         id="rect1674"
         width="29.810888"
         height="29.810888"
         x="69.839508"
         y="40.709618"
         rx="6.6098609"
         ry="6.6098609" />
      <rect
         ry="6.6098609"
         rx="6.6098609"
         y="40.709618"
         x="69.839508"
         height="29.810888"
         width="29.810888"
         id="rect1676"
         style="fill:none;fill-opacity:1;stroke:#000000;stroke-width:4.6;stroke-linecap:round;stroke-linejoin:round;stroke-miterlimit:4;stroke-dasharray:none;stroke-opacity:0.02" />
      <rect
         style="fill:none;fill-opacity:1;stroke:#000000;stroke-width:5;stroke-linecap:round;stroke-linejoin:round;stroke-miterlimit:4;stroke-dasharray:none;stroke-opacity:0.02"
         id="rect1678"
         width="29.810888"
         height="29.810888"
         x="69.839508"
         y="40.709618"
         rx="6.6098609"
         ry="6.6098609" />
    </g>
    <rect
       ry="6.4494534"
       rx="6.4494534"
       y="2.5391712"
       x="2.4074187"
       height="29.087439"
       width="29.087439"
       id="rect849"
       style="fill:url(#linearGradient1632);fill-opacity:1;stroke-width:2.68768;stroke-linecap:round;stroke-linejoin:round" />
    <path
       style="fill:#007c7d;fill-rule:evenodd;stroke-width:0.36727"
       d="m 22.878232,7.2060504 c -0.0878,-7.343e-4 -0.175089,0.013465 -0.258092,0.042185 l -8.748104,2.0024781 c -0.224593,0.047473 -0.416375,0.1924989 -0.523215,0.395675 L 8.4229662,16.505428 c -0.1294634,0.129732 -0.2084977,0.301336 -0.2229438,0.48405 -7.8e-6,0.0019 -7.8e-6,0.004 0,0.006 -0.00185,0.02071 -0.00285,0.04148 -0.00301,0.06227 3.275e-4,0.02282 0.00167,0.0456 0.00401,0.06829 0.00242,0.02561 0.00609,0.05108 0.011049,0.07632 0.00509,0.0254 0.011466,0.05054 0.019081,0.07532 0.023063,0.07914 0.058664,0.154069 0.1054464,0.221939 3.401e-4,6.97e-4 6.832e-4,0.0014 0.00102,0.0021 l 4.5502652,9.707099 10e-4,0.0031 c 0.0013,0.0047 0.0026,0.0094 0.0042,0.01406 6.98e-4,0.0019 0.0014,0.004 0.0021,0.006 0.0075,0.02385 0.01627,0.04731 0.0261,0.07029 0.0071,0.01632 0.01484,0.03241 0.02311,0.04819 0.0057,0.01152 0.0118,0.02292 0.01807,0.03413 0.0065,0.01055 0.01319,0.02092 0.02009,0.03114 0.0056,0.0089 0.01124,0.01752 0.01709,0.0261 0.01208,0.01725 0.02475,0.03401 0.03815,0.05022 0.0022,0.0031 0.0047,0.006 0.0071,0.009 0.01194,0.01346 0.02432,0.02654 0.03716,0.03917 0.0069,0.0072 0.01392,0.0142 0.0211,0.0211 0.0072,0.0068 0.01459,0.01347 0.02209,0.02007 0.01524,0.01305 0.031,0.02539 0.0472,0.03716 6.99e-4,3.33e-4 0.0014,6.98e-4 0.0021,0.001 6.96e-4,6.96e-4 0.0014,0.0014 0.0021,0.0021 0.01946,0.01399 0.03957,0.02705 0.06026,0.03917 6.98e-4,6.97e-4 0.0014,0.0014 0.0021,0.0021 0.0019,0.001 0.004,0.0021 0.006,0.0031 0.01866,0.01083 0.03774,0.02088 0.05724,0.03012 0.0024,0.0014 0.0047,0.0028 0.0071,0.0042 0.0076,0.0032 0.01537,0.0061 0.02311,0.009 0.01,0.0046 0.01999,0.0089 0.03012,0.01305 0.02143,0.0081 0.04322,0.01503 0.06528,0.0211 0.10937,0.03108 0.224247,0.0376 0.336424,0.01909 l 10.325882,0.01111 c 0.576881,0.07009 1.021146,-0.498735 0.813408,-1.041457 l -1.224317,-4.897044 c -0.03549,-0.514079 -0.555414,-0.849462 -1.038396,-0.669836 -0.0024,6.98e-4 -0.0047,0.0014 -0.0071,0.0021 l -5.193692,1.439028 -2.078802,-3.722583 1.488302,-4.648189 6.819444,-0.54832 0.699963,-0.876713 -0.730091,-4.8309441 c 0.001,-0.4226663 -0.337942,-0.7674532 -0.760384,-0.7735331 z"
       id="path2" />
    <path
       style="opacity:0.2;fill:none;stroke:#000000;stroke-width:1.46908;stroke-linecap:round;stroke-linejoin:bevel"
       d="m 8.7685523,17.41441 7.8280857,-3.295746 6.496996,-5.9576944 m 1.394476,19.4052724 -7.067462,-3.94062 m -3.898197,3.929541 9.666261,-5.577414 m -9.666261,5.577414 3.898197,-3.929541 m -3.898197,3.929541 1.267706,-8.175983 m -6.0216047,-1.96477 6.0216047,1.96477 m 1.806481,-5.260516 -1.806481,5.260516 2.630491,4.246442 5.768064,-1.647873 1.299398,5.588493 -10.965659,-0.01111 -4.7538987,-10.140753 5.1659037,-7.1936 z m -2.662182,-3.897854 9.159178,-2.0598404 0.760624,5.3555864 -7.25762,0.602108"
       id="path4" />
    <path
       style="fill:none;stroke:#00feff;stroke-width:1.46908;stroke-linecap:round;stroke-linejoin:bevel"
       d="M 8.7685523,17.047139 16.596638,13.751394 23.093634,7.7936995 M 24.48811,27.198972 17.420648,23.25835 m -3.898197,3.929543 9.666261,-5.577414 m -9.666261,5.577414 3.898197,-3.929543 m -3.898197,3.929543 1.267706,-8.175983 M 8.7685523,17.047139 14.790157,19.01191 m 1.806481,-5.260516 -1.806481,5.260516 2.630491,4.24644 5.768064,-1.647871 1.299398,5.588493 L 13.522451,27.187862 8.7685523,17.047107 13.934456,9.8535085 Z m -2.662182,-3.8978541 9.159178,-2.0598404 0.760624,5.3555865 -7.25762,0.602108"
       id="path6" />
    <path
       style="opacity:0.2;fill:#ffffff;fill-rule:evenodd;stroke-width:0.36727"
       d="m 23.111156,7.0522826 a 0.73461461,0.73461461 0 0 0 -0.252499,0.041602 L 13.773014,9.1368257 A 0.73461461,0.73461461 0 0 0 13.277343,9.509118 l -5.037059,7.014724 a 0.73461461,0.73461461 0 0 0 -0.2130457,0.464111 0.73461461,0.73461461 0 0 0 -0.00215,0.06384 0.73461461,0.73461461 0 0 0 0.00215,0.05236 0.73461461,0.73461461 0 0 0 0.00143,0.01578 0.73461461,0.73461461 0 0 0 0.020084,0.111895 0.73461461,0.73461461 0 0 1 0.1915259,-0.340729 L 13.277336,9.8763743 a 0.73461461,0.73461461 0 0 1 0.495671,-0.372291 L 22.85865,7.4611405 a 0.73461461,0.73461461 0 0 1 0.252499,-0.041602 0.73461461,0.73461461 0 0 1 0.723781,0.7395624 l 0.702261,4.9423721 0.04447,-0.05523 -0.746736,-5.2544092 A 0.73461461,0.73461461 0 0 0 23.111156,7.0522826 Z m -2.545788,2.4302989 -0.53082,0.119072 -3.30974,3.0350045 -1.356463,-1.985558 -0.217349,0.04878 1.573812,2.30405 z m 2.40017,3.0034415 -3.849884,0.319209 -0.440439,0.403854 4.34197,-0.360096 z m -7.677533,1.018601 -4.024195,1.69504 -0.378031,0.526517 4.597339,-1.936062 z m 0.08034,1.928171 -0.147051,0.06241 -0.890918,2.593849 -2.969727,-0.96839 -0.491368,0.20659 3.461095,1.12907 z m -5.214237,3.206444 3.011332,6.424365 0.803405,-5.179806 -0.05451,-0.01793 -0.748887,4.830469 -2.808329,-5.991102 z m 5.52484,0.41318 -0.08106,0.236 2.154845,3.47831 5.180524,-1.479842 h 7.34e-4 a 0.73461461,0.73461461 0 0 1 0.995648,0.631964 l 1.25245,5.389265 a 0.73461461,0.73461461 0 0 1 0.02438,0.07962 0.73461461,0.73461461 0 0 0 -0.02439,-0.446893 l -1.25245,-5.389267 A 0.73461461,0.73461461 0 0 0 22.93398,20.919615 h -7.34e-4 l -5.180507,1.479842 z m 0.672134,4.241545 -1.688584,1.701495 -0.06743,0.435417 1.895891,-1.910955 z m 4.362772,0.959781 -0.323513,0.186504 3.00631,1.676389 -0.09828,-0.421787 z m -3.818322,2.202906 -0.63555,0.366553 5.397154,0.0057 -0.659939,-0.367989 z"
       id="path8" />
    <path
       style="opacity:0.1;stroke-width:0.36727"
       d="m 22.871568,7.0042221 a 1.4690823,1.4690823 0 0 0 -1.469082,1.4690818 1.4690823,1.4690823 0 0 0 1.469082,1.4690833 1.4690823,1.4690823 0 0 0 1.469083,-1.4690833 1.4690823,1.4690823 0 0 0 -1.469083,-1.4690818 z m -8.814494,1.4690818 a 1.4690821,1.4690821 0 0 0 -1.469082,1.4690833 1.4690821,1.4690821 0 0 0 1.469082,1.4690818 1.4690821,1.4690821 0 0 0 1.469083,-1.4690818 1.4690821,1.4690821 0 0 0 -1.469083,-1.4690833 z m 9.549036,3.6727071 a 1.4690823,1.4690823 0 0 0 -1.469082,1.469082 1.4690823,1.4690823 0 0 0 1.469082,1.469082 1.4690823,1.4690823 0 0 0 1.469082,-1.469082 1.4690823,1.4690823 0 0 0 -1.469082,-1.469082 z m -6.610871,0.73454 a 1.4690824,1.4690824 0 0 0 -1.469082,1.469083 1.4690824,1.4690824 0 0 0 1.469082,1.469082 1.4690824,1.4690824 0 0 0 1.469082,-1.469082 1.4690824,1.4690824 0 0 0 -1.469082,-1.469083 z m -8.0799517,2.938165 a 1.4690825,1.4690825 0 0 0 -1.4690825,1.469082 1.4690825,1.4690825 0 0 0 1.4690825,1.469083 1.4690825,1.4690825 0 0 0 1.4690817,-1.469083 1.4690825,1.4690825 0 0 0 -1.4690817,-1.469082 z m 5.8763287,2.203624 a 1.4690825,1.4690825 0 0 0 -1.469082,1.469081 1.4690825,1.4690825 0 0 0 1.469082,1.469084 1.4690825,1.4690825 0 0 0 1.469082,-1.469084 1.4690825,1.4690825 0 0 0 -1.469082,-1.469081 z m 8.079952,2.938165 a 1.4690821,1.4690821 0 0 0 -1.469082,1.469082 1.4690821,1.4690821 0 0 0 1.469082,1.469081 1.4690821,1.4690821 0 0 0 1.469083,-1.469081 1.4690821,1.4690821 0 0 0 -1.469083,-1.469082 z m -4.407247,1.469082 a 1.4690821,1.4690821 0 0 0 -1.469082,1.469081 1.4690821,1.4690821 0 0 0 1.469082,1.469082 1.4690821,1.4690821 0 0 0 1.469083,-1.469082 1.4690821,1.4690821 0 0 0 -1.469083,-1.469081 z m -5.141787,3.672705 a 1.4690821,1.4690821 0 0 0 -1.469083,1.469082 1.4690821,1.4690821 0 0 0 1.469083,1.469083 1.4690821,1.4690821 0 0 0 1.469082,-1.469083 1.4690821,1.4690821 0 0 0 -1.469082,-1.469082 z m 11.018117,0 a 1.4690821,1.4690821 0 0 0 -1.469083,1.469082 1.4690821,1.4690821 0 0 0 1.469083,1.469083 1.4690821,1.4690821 0 0 0 1.469082,-1.469083 1.4690821,1.4690821 0 0 0 -1.469082,-1.469082 z"
       id="path10" />
    <path
       style="fill:#ff6060;stroke-width:0.36727"
       d="M 22.871568,6.636952 A 1.4690823,1.4690823 0 0 0 21.402486,8.1060338 1.4690823,1.4690823 0 0 0 22.871568,9.5751157 1.4690823,1.4690823 0 0 0 24.340651,8.1060338 1.4690823,1.4690823 0 0 0 22.871568,6.636952 Z m -8.814494,1.4690818 a 1.4690821,1.4690821 0 0 0 -1.469082,1.4690819 1.4690821,1.4690821 0 0 0 1.469082,1.4690833 1.4690821,1.4690821 0 0 0 1.469083,-1.4690833 1.4690821,1.4690821 0 0 0 -1.469083,-1.4690819 z m 9.549036,3.6727052 a 1.4690823,1.4690823 0 0 0 -1.469082,1.469084 1.4690823,1.4690823 0 0 0 1.469082,1.469081 1.4690823,1.4690823 0 0 0 1.469082,-1.469081 1.4690823,1.4690823 0 0 0 -1.469082,-1.469084 z m -6.610871,0.734542 a 1.4690824,1.4690824 0 0 0 -1.469082,1.469082 1.4690824,1.4690824 0 0 0 1.469082,1.469083 1.4690824,1.4690824 0 0 0 1.469082,-1.469083 1.4690824,1.4690824 0 0 0 -1.469082,-1.469082 z M 8.9152873,15.451446 A 1.4690825,1.4690825 0 0 0 7.4462048,16.920528 1.4690825,1.4690825 0 0 0 8.9152873,18.38961 1.4690825,1.4690825 0 0 0 10.384369,16.920528 1.4690825,1.4690825 0 0 0 8.9152873,15.451446 Z m 5.8763287,2.203624 a 1.4690825,1.4690825 0 0 0 -1.469082,1.469081 1.4690825,1.4690825 0 0 0 1.469082,1.469082 1.4690825,1.4690825 0 0 0 1.469082,-1.469082 1.4690825,1.4690825 0 0 0 -1.469082,-1.469081 z m 8.079952,2.938163 a 1.4690821,1.4690821 0 0 0 -1.469082,1.469083 1.4690821,1.4690821 0 0 0 1.469082,1.469082 1.4690821,1.4690821 0 0 0 1.469083,-1.469082 1.4690821,1.4690821 0 0 0 -1.469083,-1.469083 z m -4.407247,1.469083 a 1.4690821,1.4690821 0 0 0 -1.469082,1.469082 1.4690821,1.4690821 0 0 0 1.469082,1.469082 1.4690821,1.4690821 0 0 0 1.469083,-1.469082 1.4690821,1.4690821 0 0 0 -1.469083,-1.469082 z m -5.141787,3.672706 a 1.4690821,1.4690821 0 0 0 -1.469083,1.469082 1.4690821,1.4690821 0 0 0 1.469083,1.469081 1.4690821,1.4690821 0 0 0 1.469082,-1.469081 1.4690821,1.4690821 0 0 0 -1.469082,-1.469082 z m 11.018117,0 a 1.4690821,1.4690821 0 0 0 -1.469083,1.469082 1.4690821,1.4690821 0 0 0 1.469083,1.469081 1.4690821,1.4690821 0 0 0 1.469082,-1.469081 1.4690821,1.4690821 0 0 0 -1.469082,-1.469082 z"
       id="path12" />
  </g>
</svg>
