<?xml version="1.0" encoding="UTF-8" standalone="no"?>
<svg
   width="128"
   height="128"
   viewBox="0 0 33.866666 33.866668"
   version="1.1"
   id="svg1829"
   inkscape:version="1.1.2 (0a00cf5339, 2022-02-04)"
   sodipodi:docname="desura.svg"
   xmlns:inkscape="http://www.inkscape.org/namespaces/inkscape"
   xmlns:sodipodi="http://sodipodi.sourceforge.net/DTD/sodipodi-0.dtd"
   xmlns:xlink="http://www.w3.org/1999/xlink"
   xmlns="http://www.w3.org/2000/svg"
   xmlns:svg="http://www.w3.org/2000/svg"
   xmlns:rdf="http://www.w3.org/1999/02/22-rdf-syntax-ns#"
   xmlns:cc="http://creativecommons.org/ns#"
   xmlns:dc="http://purl.org/dc/elements/1.1/">
  <defs
     id="defs1823">
    <linearGradient
       inkscape:collect="always"
       id="linearGradient1086">
      <stop
         style="stop-color:#ffffff;stop-opacity:1;"
         offset="0"
         id="stop1082" />
      <stop
         style="stop-color:#3471fc;stop-opacity:1"
         offset="1"
         id="stop1084" />
    </linearGradient>
    <linearGradient
       inkscape:collect="always"
       id="linearGradient884">
      <stop
         style="stop-color:#50ceff;stop-opacity:1"
         offset="0"
         id="stop880" />
      <stop
         style="stop-color:#3471fc;stop-opacity:1"
         offset="1"
         id="stop882" />
    </linearGradient>
    <radialGradient
       inkscape:collect="always"
       xlink:href="#linearGradient884"
       id="radialGradient886"
       cx="17.309874"
       cy="2.5295613"
       fx="17.309874"
       fy="2.5295613"
       r="14.54372"
       gradientUnits="userSpaceOnUse"
       gradientTransform="matrix(7.161795,0,0,1.7510995,-106.65989,-1.8999525)" />
    <linearGradient
       id="linearGradient895">
      <stop
         id="stop3335"
         offset="0" />
      <stop
         id="stop3337"
         offset="1"
         stop-opacity="0" />
    </linearGradient>
    <linearGradient
       inkscape:collect="always"
       xlink:href="#linearGradient1086"
       id="linearGradient1088"
       x1="7.1995641"
       y1="17.073038"
       x2="14.015611"
       y2="42.510868"
       gradientUnits="userSpaceOnUse" />
  </defs>
  <sodipodi:namedview
     id="base"
     pagecolor="#ffffff"
     bordercolor="#666666"
     borderopacity="1.0"
     inkscape:pageopacity="0.0"
     inkscape:pageshadow="2"
     inkscape:zoom="0.70000001"
     inkscape:cx="-508.57142"
     inkscape:cy="266.42857"
     inkscape:document-units="mm"
     inkscape:current-layer="layer1"
     inkscape:document-rotation="0"
     showgrid="false"
     units="px"
     inkscape:window-width="1920"
     inkscape:window-height="1028"
     inkscape:window-x="0"
     inkscape:window-y="24"
     inkscape:window-maximized="1"
     inkscape:pagecheckerboard="0" />
  <metadata
     id="metadata1826">
    <rdf:RDF>
      <cc:Work
         rdf:about="">
        <dc:format>image/svg+xml</dc:format>
        <dc:type
           rdf:resource="http://purl.org/dc/dcmitype/StillImage" />
      </cc:Work>
    </rdf:RDF>
  </metadata>
  <g
     inkscape:label="Capa 1"
     inkscape:groupmode="layer"
     id="layer1">
    <g
       id="g1702"
       transform="matrix(0.97573206,0,0,0.97573206,-65.58674,-37.192363)"
       style="opacity:0.296765">
      <rect
         style="fill:none;fill-opacity:1;stroke:#000000;stroke-width:0.1;stroke-linecap:round;stroke-linejoin:round;stroke-miterlimit:4;stroke-dasharray:none;stroke-opacity:0.02"
         id="rect1634"
         width="29.810888"
         height="29.810888"
         x="69.839508"
         y="40.709618"
         rx="6.6098609"
         ry="6.6098609" />
      <rect
         ry="6.6098609"
         rx="6.6098609"
         y="40.709618"
         x="69.839508"
         height="29.810888"
         width="29.810888"
         id="rect1638"
         style="fill:none;fill-opacity:1;stroke:#000000;stroke-width:0.2;stroke-linecap:round;stroke-linejoin:round;stroke-miterlimit:4;stroke-dasharray:none;stroke-opacity:0.02" />
      <rect
         style="fill:none;fill-opacity:1;stroke:#000000;stroke-width:0.3;stroke-linecap:round;stroke-linejoin:round;stroke-miterlimit:4;stroke-dasharray:none;stroke-opacity:0.02"
         id="rect1640"
         width="29.810888"
         height="29.810888"
         x="69.839508"
         y="40.709618"
         rx="6.6098609"
         ry="6.6098609" />
      <rect
         ry="6.6098609"
         rx="6.6098609"
         y="40.709618"
         x="69.839508"
         height="29.810888"
         width="29.810888"
         id="rect1642"
         style="fill:none;fill-opacity:1;stroke:#000000;stroke-width:0.4;stroke-linecap:round;stroke-linejoin:round;stroke-miterlimit:4;stroke-dasharray:none;stroke-opacity:0.02" />
      <rect
         style="fill:none;fill-opacity:1;stroke:#000000;stroke-width:0.5;stroke-linecap:round;stroke-linejoin:round;stroke-miterlimit:4;stroke-dasharray:none;stroke-opacity:0.02"
         id="rect1644"
         width="29.810888"
         height="29.810888"
         x="69.839508"
         y="40.709618"
         rx="6.6098609"
         ry="6.6098609" />
      <rect
         ry="6.6098609"
         rx="6.6098609"
         y="40.709618"
         x="69.839508"
         height="29.810888"
         width="29.810888"
         id="rect1646"
         style="fill:none;fill-opacity:1;stroke:#000000;stroke-width:0.6;stroke-linecap:round;stroke-linejoin:round;stroke-miterlimit:4;stroke-dasharray:none;stroke-opacity:0.02" />
      <rect
         style="fill:none;fill-opacity:1;stroke:#000000;stroke-width:0.7;stroke-linecap:round;stroke-linejoin:round;stroke-miterlimit:4;stroke-dasharray:none;stroke-opacity:0.02"
         id="rect1648"
         width="29.810888"
         height="29.810888"
         x="69.839508"
         y="40.709618"
         rx="6.6098609"
         ry="6.6098609" />
      <rect
         ry="6.6098609"
         rx="6.6098609"
         y="40.709618"
         x="69.839508"
         height="29.810888"
         width="29.810888"
         id="rect1650"
         style="fill:none;fill-opacity:1;stroke:#000000;stroke-width:0.8;stroke-linecap:round;stroke-linejoin:round;stroke-miterlimit:4;stroke-dasharray:none;stroke-opacity:0.02" />
      <rect
         style="fill:none;fill-opacity:1;stroke:#000000;stroke-width:1;stroke-linecap:round;stroke-linejoin:round;stroke-miterlimit:4;stroke-dasharray:none;stroke-opacity:0.02"
         id="rect1652"
         width="29.810888"
         height="29.810888"
         x="69.839508"
         y="40.709618"
         rx="6.6098609"
         ry="6.6098609" />
      <rect
         ry="6.6098609"
         rx="6.6098609"
         y="40.709618"
         x="69.839508"
         height="29.810888"
         width="29.810888"
         id="rect1654"
         style="fill:none;fill-opacity:1;stroke:#000000;stroke-width:1.2;stroke-linecap:round;stroke-linejoin:round;stroke-miterlimit:4;stroke-dasharray:none;stroke-opacity:0.02" />
      <rect
         style="fill:none;fill-opacity:1;stroke:#000000;stroke-width:1.4;stroke-linecap:round;stroke-linejoin:round;stroke-miterlimit:4;stroke-dasharray:none;stroke-opacity:0.02"
         id="rect1656"
         width="29.810888"
         height="29.810888"
         x="69.839508"
         y="40.709618"
         rx="6.6098609"
         ry="6.6098609" />
      <rect
         ry="6.6098609"
         rx="6.6098609"
         y="40.709618"
         x="69.839508"
         height="29.810888"
         width="29.810888"
         id="rect1658"
         style="fill:none;fill-opacity:1;stroke:#000000;stroke-width:1.6;stroke-linecap:round;stroke-linejoin:round;stroke-miterlimit:4;stroke-dasharray:none;stroke-opacity:0.02" />
      <rect
         style="fill:none;fill-opacity:1;stroke:#000000;stroke-width:1.8;stroke-linecap:round;stroke-linejoin:round;stroke-miterlimit:4;stroke-dasharray:none;stroke-opacity:0.02"
         id="rect1660"
         width="29.810888"
         height="29.810888"
         x="69.839508"
         y="40.709618"
         rx="6.6098609"
         ry="6.6098609" />
      <rect
         ry="6.6098609"
         rx="6.6098609"
         y="40.709618"
         x="69.839508"
         height="29.810888"
         width="29.810888"
         id="rect1662"
         style="fill:none;fill-opacity:1;stroke:#000000;stroke-width:2;stroke-linecap:round;stroke-linejoin:round;stroke-miterlimit:4;stroke-dasharray:none;stroke-opacity:0.02" />
      <rect
         style="fill:none;fill-opacity:1;stroke:#000000;stroke-width:2.2;stroke-linecap:round;stroke-linejoin:round;stroke-miterlimit:4;stroke-dasharray:none;stroke-opacity:0.02"
         id="rect1664"
         width="29.810888"
         height="29.810888"
         x="69.839508"
         y="40.709618"
         rx="6.6098609"
         ry="6.6098609" />
      <rect
         ry="6.6098609"
         rx="6.6098609"
         y="40.709618"
         x="69.839508"
         height="29.810888"
         width="29.810888"
         id="rect1666"
         style="fill:none;fill-opacity:1;stroke:#000000;stroke-width:2.6;stroke-linecap:round;stroke-linejoin:round;stroke-miterlimit:4;stroke-dasharray:none;stroke-opacity:0.02" />
      <rect
         style="fill:none;fill-opacity:1;stroke:#000000;stroke-width:3;stroke-linecap:round;stroke-linejoin:round;stroke-miterlimit:4;stroke-dasharray:none;stroke-opacity:0.02"
         id="rect1668"
         width="29.810888"
         height="29.810888"
         x="69.839508"
         y="40.709618"
         rx="6.6098609"
         ry="6.6098609" />
      <rect
         ry="6.6098609"
         rx="6.6098609"
         y="40.709618"
         x="69.839508"
         height="29.810888"
         width="29.810888"
         id="rect1670"
         style="fill:none;fill-opacity:1;stroke:#000000;stroke-width:3.4;stroke-linecap:round;stroke-linejoin:round;stroke-miterlimit:4;stroke-dasharray:none;stroke-opacity:0.02" />
      <rect
         style="fill:none;fill-opacity:1;stroke:#000000;stroke-width:3.8;stroke-linecap:round;stroke-linejoin:round;stroke-miterlimit:4;stroke-dasharray:none;stroke-opacity:0.02"
         id="rect1672"
         width="29.810888"
         height="29.810888"
         x="69.839508"
         y="40.709618"
         rx="6.6098609"
         ry="6.6098609" />
      <rect
         ry="6.6098609"
         rx="6.6098609"
         y="40.709618"
         x="69.839508"
         height="29.810888"
         width="29.810888"
         id="rect1674"
         style="fill:none;fill-opacity:1;stroke:#000000;stroke-width:4.2;stroke-linecap:round;stroke-linejoin:round;stroke-miterlimit:4;stroke-dasharray:none;stroke-opacity:0.02" />
      <rect
         style="fill:none;fill-opacity:1;stroke:#000000;stroke-width:4.6;stroke-linecap:round;stroke-linejoin:round;stroke-miterlimit:4;stroke-dasharray:none;stroke-opacity:0.02"
         id="rect1676"
         width="29.810888"
         height="29.810888"
         x="69.839508"
         y="40.709618"
         rx="6.6098609"
         ry="6.6098609" />
      <rect
         ry="6.6098609"
         rx="6.6098609"
         y="40.709618"
         x="69.839508"
         height="29.810888"
         width="29.810888"
         id="rect1678"
         style="fill:none;fill-opacity:1;stroke:#000000;stroke-width:5;stroke-linecap:round;stroke-linejoin:round;stroke-miterlimit:4;stroke-dasharray:none;stroke-opacity:0.02" />
    </g>
    <rect
       style="fill:url(#radialGradient886);fill-opacity:1;stroke-width:2.68769;stroke-linecap:round;stroke-linejoin:round"
       id="rect849-5"
       width="29.08744"
       height="29.08744"
       x="2.5579116"
       y="2.5293181"
       rx="6.4494534"
       ry="6.4494534" />
    <g
       id="g2916">
      <path
         id="path2634"
         style="display:inline;fill:#002496;fill-opacity:0.03385756;stroke:none;stroke-width:0.306282;enable-background:new"
         d="m 17.299869,9.241367 v 0.00969 l -3.523247,3.053264 -4.4307966,-0.421364 -1.9436739,6.527892 4.7289935,4.096947 0.200957,0.459179 4.967767,2.507652 0.0087,0.0097 v -0.0097 l 4.967766,-2.507652 0.200957,-0.459179 4.728995,-4.096947 -1.943674,-6.527892 -4.430798,0.421364 -3.523246,-3.053264 z m 0.0087,1.579572 c 0.01534,0.0055 0.721724,0.612996 1.56985,1.349443 1.086173,0.943156 1.578064,1.342335 1.646557,1.349444 0.05348,0.0056 0.947309,-0.08179 1.991213,-0.191235 1.043902,-0.109445 1.900387,-0.195624 1.904777,-0.191234 0.02592,0.02592 1.462398,4.867099 1.454244,4.90078 -0.0055,0.02249 -0.891637,0.785754 -1.971764,1.703821 l -1.962041,1.674649 -0.69903,-0.0097 c -0.38282,-0.0017 -0.77362,-0.016 -0.870818,-0.02918 l -0.18151,-0.01837 2.086288,-1.732991 c 1.147141,-0.951523 2.086289,-1.739233 2.086289,-1.75136 0,-0.02281 -1.090983,-3.382511 -1.109591,-3.417365 -0.0059,-0.01096 -0.754102,0.07969 -1.666005,0.192316 l -1.655268,0.200939 -0.364103,-0.306838 c -0.199032,-0.171279 -0.78665,-0.684512 -1.311618,-1.138756 l -0.95617,-0.823279 -0.09615,0.08643 c -0.05224,0.04801 -0.643055,0.561182 -1.311629,1.138762 l -1.215471,1.043685 -1.5504,-0.192315 c -0.854088,-0.106017 -1.610883,-0.190497 -1.674649,-0.191235 -0.115036,-0.0013 -0.118379,0.0042 -0.23013,0.354378 -0.06192,0.194065 -0.298318,0.947421 -0.535888,1.674649 -0.237569,0.727228 -0.432311,1.339767 -0.431087,1.368891 0.0011,0.02912 0.93455,0.825362 2.077645,1.770807 l 2.076566,1.723267 -0.171787,0.01837 c -0.09429,0.01321 -0.482689,0.02825 -0.870818,0.02918 h -0.70876 L 10.685547,19.732249 C 9.2867722,18.541671 8.7151438,18.033793 8.7235063,17.989534 c 0.019709,-0.103194 1.4476597,-4.82613 1.4639687,-4.842439 0.0083,-0.0083 0.860847,0.07305 1.895054,0.18151 1.034207,0.108476 1.916946,0.191089 1.971765,0.191236 0.0794,2.17e-4 0.421245,-0.27743 1.666005,-1.359167 0.85941,-0.746857 1.572954,-1.345156 1.588215,-1.339721 z m -0.01837,2.919293 0.898909,0.890265 0.899989,0.899988 -0.01944,0.947528 c -0.02659,1.30803 -0.142396,2.097936 -0.439731,3.004644 -0.183215,0.55871 -0.423309,1.032524 -0.708754,1.41751 -0.191914,0.258828 -0.559839,0.621241 -0.630966,0.621241 -0.01769,0 -0.152729,-0.123408 -0.306838,-0.277668 -0.459223,-0.459668 -0.763455,-1.001188 -1.024237,-1.80862 -0.283653,-0.878256 -0.424081,-1.91214 -0.421363,-3.129974 v -0.774661 l 0.871897,-0.899988 z m 5.371843,1.818344 c 0.01606,-7.31e-4 0.02481,-0.0011 0.02593,0 0.01684,0.01684 0.547286,1.91163 0.565058,2.019303 0.01627,0.09809 -3.917508,3.426641 -4.469692,3.781466 -0.0827,0.05314 -0.06354,-0.0028 0.133972,-0.297115 0.852571,-1.270264 1.426152,-3.191272 1.426152,-4.785175 0,-0.302511 0.01335,-0.468901 0.03782,-0.468901 0.02085,0 0.549544,-0.0633 1.167932,-0.133972 0.541088,-0.06185 1.000427,-0.110484 1.112831,-0.115612 z m -10.723157,0.01621 c 0.117592,-0.0018 0.58208,0.03763 1.120394,0.0994 0.615217,0.07056 1.127053,0.133972 1.138762,0.133972 0.01166,0 0.03436,0.228567 0.04754,0.51644 0.08066,1.775137 0.582437,3.440677 1.417509,4.709546 0.130053,0.197604 0.225179,0.357166 0.219325,0.36302 -0.0059,0.0059 -0.184331,-0.116117 -0.392192,-0.277667 -0.599076,-0.465627 -3.134194,-2.588933 -4.058052,-3.397918 l -0.09616,-0.09507 0.277667,-1.00479 c 0.151553,-0.557312 0.282271,-1.027794 0.297115,-1.043683 0.0018,-0.002 0.01124,-0.003 0.0281,-0.0032 z m 5.370763,6.52681 c 0.752756,0 1.505296,0.0017 2.076564,0.0044 l 2.076565,0.0097 -2.066842,1.052328 c -1.136813,0.57722 -2.076706,1.049644 -2.087369,1.053409 -0.01068,0.0038 -0.947921,-0.462663 -2.086288,-1.043685 l -2.076565,-1.062052 2.086289,-0.0097 c 0.571672,-0.0027 1.324886,-0.0044 2.077646,-0.0044 z" />
      <path
         id="path2906"
         style="display:inline;fill:#002496;fill-opacity:0.0338576;stroke:none;stroke-width:0.306282;enable-background:new"
         d="m 17.48064,9.4843054 v 0.00969 l -3.523247,3.0532636 -4.4307963,-0.421364 -1.9436739,6.527892 4.7289932,4.096947 0.200957,0.459179 4.967767,2.507652 0.0087,0.0097 v -0.0097 l 4.967766,-2.507652 0.200957,-0.459179 4.728995,-4.096947 -1.943674,-6.527892 -4.430798,0.421364 -3.523246,-3.0532636 z m 0.0087,1.5795716 c 0.01534,0.0055 0.721724,0.612996 1.56985,1.349443 1.086173,0.943156 1.578064,1.342335 1.646557,1.349444 0.05348,0.0056 0.947309,-0.08179 1.991213,-0.191235 1.043902,-0.109445 1.900387,-0.195624 1.904777,-0.191234 0.02592,0.02592 1.462398,4.867099 1.454244,4.90078 -0.0055,0.02249 -0.891637,0.785754 -1.971764,1.703821 l -1.962041,1.674649 -0.69903,-0.0097 c -0.38282,-0.0017 -0.77362,-0.016 -0.870818,-0.02918 l -0.18151,-0.01837 2.086288,-1.732991 c 1.147141,-0.951523 2.086289,-1.739233 2.086289,-1.75136 0,-0.02281 -1.090983,-3.382511 -1.109591,-3.417365 -0.0059,-0.01096 -0.754102,0.07969 -1.666005,0.192316 l -1.655268,0.200939 -0.364103,-0.306838 C 19.549396,14.615717 18.961778,14.102484 18.43681,13.64824 l -0.95617,-0.823279 -0.09615,0.08643 c -0.05224,0.04801 -0.643055,0.561182 -1.311629,1.138762 l -1.215471,1.043685 -1.5504,-0.192315 c -0.854088,-0.106017 -1.610883,-0.190497 -1.674649,-0.191235 -0.115036,-0.0013 -0.118379,0.0042 -0.23013,0.354378 -0.06192,0.194065 -0.298318,0.947421 -0.535888,1.674649 -0.237569,0.727228 -0.432311,1.339767 -0.431087,1.368891 0.0011,0.02912 0.93455,0.825362 2.077645,1.770807 l 2.076566,1.723267 -0.171787,0.01837 c -0.09429,0.01321 -0.482689,0.02825 -0.870818,0.02918 h -0.70876 L 10.866318,19.975187 C 9.4675435,18.784609 8.8959151,18.276731 8.9042776,18.232472 c 0.019709,-0.103194 1.4476594,-4.82613 1.4639684,-4.842439 0.0083,-0.0083 0.860847,0.07305 1.895054,0.18151 1.034207,0.108476 1.916946,0.191089 1.971765,0.191236 0.0794,2.17e-4 0.421245,-0.27743 1.666005,-1.359167 0.85941,-0.746857 1.572954,-1.345156 1.588215,-1.339721 z m -0.01837,2.919293 0.898909,0.890265 0.899989,0.899988 -0.01944,0.947528 c -0.02659,1.30803 -0.142396,2.097936 -0.439731,3.004644 -0.183215,0.55871 -0.423309,1.032524 -0.708754,1.41751 -0.191914,0.258828 -0.559839,0.621241 -0.630966,0.621241 -0.01769,0 -0.152729,-0.123408 -0.306838,-0.277668 -0.459223,-0.459668 -0.763455,-1.001188 -1.024237,-1.80862 -0.283653,-0.878256 -0.424081,-1.91214 -0.421363,-3.129974 v -0.774661 l 0.871897,-0.899988 z m 5.371843,1.818344 c 0.01606,-7.31e-4 0.02481,-0.0011 0.02593,0 0.01684,0.01684 0.547286,1.91163 0.565058,2.019303 0.01627,0.09809 -3.917508,3.426641 -4.469692,3.781466 -0.0827,0.05314 -0.06354,-0.0028 0.133972,-0.297115 0.852571,-1.270264 1.426152,-3.191272 1.426152,-4.785175 0,-0.302511 0.01335,-0.468901 0.03782,-0.468901 0.02085,0 0.549544,-0.0633 1.167932,-0.133972 0.541088,-0.06185 1.000427,-0.110484 1.112831,-0.115612 z m -10.723157,0.01621 c 0.117592,-0.0018 0.58208,0.03763 1.120394,0.0994 0.615217,0.07056 1.127053,0.133972 1.138762,0.133972 0.01166,0 0.03436,0.228567 0.04754,0.51644 0.08066,1.775137 0.582437,3.440677 1.417509,4.709546 0.130053,0.197604 0.225179,0.357166 0.219325,0.36302 -0.0059,0.0059 -0.184331,-0.116117 -0.392192,-0.277667 -0.599076,-0.465627 -3.134194,-2.588933 -4.058052,-3.397918 l -0.09616,-0.09507 0.277667,-1.00479 c 0.151553,-0.557312 0.282271,-1.027794 0.297115,-1.043683 0.0018,-0.002 0.01124,-0.003 0.0281,-0.0032 z m 5.370763,6.52681 c 0.752756,0 1.505296,0.0017 2.076564,0.0044 l 2.076565,0.0097 -2.066842,1.052328 c -1.136813,0.57722 -2.076706,1.049644 -2.087369,1.053409 -0.01068,0.0038 -0.947921,-0.462663 -2.086288,-1.043685 l -2.076565,-1.062052 2.086289,-0.0097 c 0.571672,-0.0027 1.324886,-0.0044 2.077646,-0.0044 z" />
      <path
         id="path2908"
         style="display:inline;fill:#002496;fill-opacity:0.0338576;stroke:none;stroke-width:0.306282;enable-background:new"
         d="m 17.613363,9.6609247 v 0.00969 l -3.523247,3.0532633 -4.430796,-0.421364 -1.9436739,6.527892 4.7289929,4.096947 0.200957,0.459179 4.967767,2.507652 0.0087,0.0097 v -0.0097 l 4.967766,-2.507652 0.200957,-0.459179 4.728995,-4.096947 -1.943674,-6.527892 -4.430798,0.421364 -3.523246,-3.0532633 z m 0.0087,1.5795713 c 0.01534,0.0055 0.721724,0.612996 1.56985,1.349443 1.086173,0.943156 1.578064,1.342335 1.646557,1.349444 0.05348,0.0056 0.947309,-0.08179 1.991213,-0.191235 1.043902,-0.109445 1.900387,-0.195624 1.904777,-0.191234 0.02592,0.02592 1.462398,4.867099 1.454244,4.90078 -0.0055,0.02249 -0.891637,0.785754 -1.971764,1.703821 l -1.962041,1.674649 -0.69903,-0.0097 c -0.38282,-0.0017 -0.77362,-0.016 -0.870818,-0.02918 l -0.18151,-0.01837 2.086288,-1.732991 c 1.147141,-0.951523 2.086289,-1.739233 2.086289,-1.75136 0,-0.02281 -1.090983,-3.382511 -1.109591,-3.417365 -0.0059,-0.01096 -0.754102,0.07969 -1.666005,0.192316 l -1.655268,0.200939 -0.364103,-0.306838 c -0.199032,-0.171279 -0.78665,-0.684512 -1.311618,-1.138756 l -0.95617,-0.823279 -0.09615,0.08643 c -0.05224,0.04801 -0.643055,0.561182 -1.311629,1.138762 l -1.215471,1.043685 -1.5504,-0.192315 c -0.854088,-0.106017 -1.610883,-0.190497 -1.674649,-0.191235 -0.115036,-0.0013 -0.118379,0.0042 -0.23013,0.354378 -0.06192,0.194065 -0.298318,0.947421 -0.535888,1.674649 -0.237569,0.727228 -0.432311,1.339767 -0.431087,1.368891 0.0011,0.02912 0.93455,0.825362 2.077645,1.770807 l 2.076566,1.723267 -0.171787,0.01837 c -0.09429,0.01321 -0.482689,0.02825 -0.870818,0.02918 h -0.70876 L 10.999041,20.151806 C 9.6002668,18.961228 9.0286384,18.45335 9.0370009,18.409091 c 0.019709,-0.103194 1.4476591,-4.82613 1.4639681,-4.842439 0.0083,-0.0083 0.860847,0.07305 1.895054,0.18151 1.034207,0.108476 1.916946,0.191089 1.971765,0.191236 0.0794,2.17e-4 0.421245,-0.27743 1.666005,-1.359167 0.85941,-0.746857 1.572954,-1.345156 1.588215,-1.339721 z m -0.01837,2.919293 0.898909,0.890265 0.899989,0.899988 -0.01944,0.947528 c -0.02659,1.30803 -0.142396,2.097936 -0.439731,3.004644 -0.183215,0.55871 -0.423309,1.032524 -0.708754,1.41751 -0.191914,0.258828 -0.559839,0.621241 -0.630966,0.621241 -0.01769,0 -0.152729,-0.123408 -0.306838,-0.277668 -0.459223,-0.459668 -0.763455,-1.001188 -1.024237,-1.80862 -0.283653,-0.878256 -0.424081,-1.91214 -0.421363,-3.129974 v -0.774661 l 0.871897,-0.899988 z m 5.371843,1.818344 c 0.01606,-7.31e-4 0.02481,-0.0011 0.02593,0 0.01684,0.01684 0.547286,1.91163 0.565058,2.019303 0.01627,0.09809 -3.917508,3.426641 -4.469692,3.781466 -0.0827,0.05314 -0.06354,-0.0028 0.133972,-0.297115 0.852571,-1.270264 1.426152,-3.191272 1.426152,-4.785175 0,-0.302511 0.01335,-0.468901 0.03782,-0.468901 0.02085,0 0.549544,-0.0633 1.167932,-0.133972 0.541088,-0.06185 1.000427,-0.110484 1.112831,-0.115612 z m -10.723157,0.01621 c 0.117592,-0.0018 0.58208,0.03763 1.120394,0.0994 0.615217,0.07056 1.127053,0.133972 1.138762,0.133972 0.01166,0 0.03436,0.228567 0.04754,0.51644 0.08066,1.775137 0.582437,3.440677 1.417509,4.709546 0.130053,0.197604 0.225179,0.357166 0.219325,0.36302 -0.0059,0.0059 -0.184331,-0.116117 -0.392192,-0.277667 -0.599076,-0.465627 -3.134194,-2.588933 -4.058052,-3.397918 l -0.09616,-0.09507 0.277667,-1.00479 c 0.151553,-0.557312 0.282271,-1.027794 0.297115,-1.043683 0.0018,-0.002 0.01124,-0.003 0.0281,-0.0032 z m 5.370763,6.52681 c 0.752756,0 1.505296,0.0017 2.076564,0.0044 l 2.076565,0.0097 -2.066842,1.052328 c -1.136813,0.57722 -2.076706,1.049644 -2.087369,1.053409 -0.01068,0.0038 -0.947921,-0.462663 -2.086288,-1.043685 l -2.076565,-1.062052 2.086289,-0.0097 c 0.571672,-0.0027 1.324886,-0.0044 2.077646,-0.0044 z" />
      <path
         id="path2910"
         style="display:inline;fill:#002496;fill-opacity:0.0338576;stroke:none;stroke-width:0.306282;enable-background:new"
         d="m 17.776488,9.8841187 v 0.00969 L 14.253241,12.947072 9.8224453,12.525708 7.8787714,19.0536 l 4.7289926,4.096947 0.200957,0.459179 4.967767,2.507652 0.0087,0.0097 v -0.0097 l 4.967766,-2.507652 0.200957,-0.459179 4.728995,-4.096947 -1.943674,-6.527892 -4.430798,0.421364 -3.523246,-3.0532633 z m 0.0087,1.5795713 c 0.01534,0.0055 0.721724,0.612996 1.56985,1.349443 1.086173,0.943156 1.578064,1.342335 1.646557,1.349444 0.05348,0.0056 0.947309,-0.08179 1.991213,-0.191235 1.043902,-0.109445 1.900387,-0.195624 1.904777,-0.191234 0.02592,0.02592 1.462398,4.867099 1.454244,4.90078 -0.0055,0.02249 -0.891637,0.785754 -1.971764,1.703821 l -1.962041,1.674649 -0.69903,-0.0097 c -0.38282,-0.0017 -0.77362,-0.016 -0.870818,-0.02918 l -0.18151,-0.01837 2.086288,-1.732991 c 1.147141,-0.951523 2.086289,-1.739233 2.086289,-1.75136 0,-0.02281 -1.090983,-3.382511 -1.109591,-3.417365 -0.0059,-0.01096 -0.754102,0.07969 -1.666005,0.192316 l -1.655268,0.200939 -0.364103,-0.306838 c -0.199032,-0.171279 -0.78665,-0.684512 -1.311618,-1.138756 l -0.95617,-0.823279 -0.09615,0.08643 c -0.05224,0.04801 -0.643055,0.561182 -1.311629,1.138762 l -1.215471,1.043685 -1.5504,-0.192315 c -0.854088,-0.106017 -1.610883,-0.190497 -1.674649,-0.191235 -0.115036,-0.0013 -0.118379,0.0042 -0.23013,0.354378 -0.06192,0.194065 -0.298318,0.947421 -0.535888,1.674649 -0.237569,0.727228 -0.432311,1.339767 -0.431087,1.368891 0.0011,0.02912 0.93455,0.825362 2.077645,1.770807 l 2.076566,1.723267 -0.171787,0.01837 c -0.09429,0.01321 -0.482689,0.02825 -0.870818,0.02918 H 13.13393 L 11.162166,20.375 C 9.7633921,19.184422 9.1917637,18.676544 9.2001262,18.632285 c 0.019709,-0.103194 1.4476588,-4.82613 1.4639678,-4.842439 0.0083,-0.0083 0.860847,0.07305 1.895054,0.18151 1.034207,0.108476 1.916946,0.191089 1.971765,0.191236 0.0794,2.17e-4 0.421245,-0.27743 1.666005,-1.359167 0.85941,-0.746857 1.572954,-1.345156 1.588215,-1.339721 z m -0.01837,2.919293 0.898909,0.890265 0.899989,0.899988 -0.01944,0.947528 c -0.02659,1.30803 -0.142396,2.097936 -0.439731,3.004644 -0.183215,0.55871 -0.423309,1.032524 -0.708754,1.41751 -0.191914,0.258828 -0.559839,0.621241 -0.630966,0.621241 -0.01769,0 -0.152729,-0.123408 -0.306838,-0.277668 -0.459223,-0.459668 -0.763455,-1.001188 -1.024237,-1.80862 -0.283653,-0.878256 -0.424081,-1.91214 -0.421363,-3.129974 v -0.774661 l 0.871897,-0.899988 z m 5.371843,1.818344 c 0.01606,-7.31e-4 0.02481,-0.0011 0.02593,0 0.01684,0.01684 0.547286,1.91163 0.565058,2.019303 0.01627,0.09809 -3.917508,3.426641 -4.469692,3.781466 -0.0827,0.05314 -0.06354,-0.0028 0.133972,-0.297115 0.852571,-1.270264 1.426152,-3.191272 1.426152,-4.785175 0,-0.302511 0.01335,-0.468901 0.03782,-0.468901 0.02085,0 0.549544,-0.0633 1.167932,-0.133972 0.541088,-0.06185 1.000427,-0.110484 1.112831,-0.115612 z m -10.723157,0.01621 c 0.117592,-0.0018 0.58208,0.03763 1.120394,0.0994 0.615217,0.07056 1.127053,0.133972 1.138762,0.133972 0.01166,0 0.03436,0.228567 0.04754,0.51644 0.08066,1.775137 0.582437,3.440677 1.417509,4.709546 0.130053,0.197604 0.225179,0.357166 0.219325,0.36302 -0.0059,0.0059 -0.184331,-0.116117 -0.392192,-0.277667 -0.599076,-0.465627 -3.134194,-2.588933 -4.058052,-3.397918 l -0.09616,-0.09507 0.277667,-1.00479 c 0.151553,-0.557312 0.282271,-1.027794 0.297115,-1.043683 0.0018,-0.002 0.01124,-0.003 0.0281,-0.0032 z m 5.370763,6.52681 c 0.752756,0 1.505296,0.0017 2.076564,0.0044 l 2.076565,0.0097 -2.066842,1.052328 c -1.136813,0.57722 -2.076706,1.049644 -2.087369,1.053409 -0.01068,0.0038 -0.947921,-0.462663 -2.086288,-1.043685 l -2.076565,-1.062052 2.086289,-0.0097 c 0.571672,-0.0027 1.324886,-0.0044 2.077646,-0.0044 z" />
    </g>
    <path
       id="path5646"
       style="display:inline;fill:url(#linearGradient1088);fill-opacity:1;stroke:none;stroke-width:0.306282;enable-background:new"
       d="m 17.097282,8.9515584 v 0.00969 l -3.523247,3.0532636 -4.4307974,-0.421364 -1.9436735,6.527892 4.7289939,4.096947 0.200957,0.459179 4.967767,2.507652 0.0087,0.0097 v -0.0097 l 4.967766,-2.507652 0.200957,-0.459179 4.728995,-4.096947 -1.943674,-6.527892 -4.430798,0.421364 -3.523246,-3.0532636 z m 0.0087,1.5795716 c 0.01534,0.0055 0.721724,0.612996 1.56985,1.349443 1.086173,0.943156 1.578064,1.342335 1.646557,1.349444 0.05348,0.0056 0.947309,-0.08179 1.991213,-0.191235 1.043902,-0.109445 1.900387,-0.195624 1.904777,-0.191234 0.02592,0.02592 1.462398,4.867099 1.454244,4.90078 -0.0055,0.02249 -0.891637,0.785754 -1.971764,1.703821 l -1.962041,1.674649 -0.69903,-0.0097 c -0.38282,-0.0017 -0.77362,-0.016 -0.870818,-0.02918 l -0.18151,-0.01837 2.086288,-1.732991 c 1.147141,-0.951523 2.086289,-1.739233 2.086289,-1.75136 0,-0.02281 -1.090983,-3.382511 -1.109591,-3.417365 -0.0059,-0.01096 -0.754102,0.07969 -1.666005,0.192316 L 19.729173,14.561087 19.36507,14.254249 C 19.166038,14.08297 18.57842,13.569737 18.053452,13.115493 l -0.95617,-0.823279 -0.09615,0.08643 c -0.05224,0.04801 -0.643055,0.561182 -1.311629,1.138762 l -1.215471,1.043685 -1.5504,-0.192315 c -0.854088,-0.106017 -1.610883,-0.190497 -1.674649,-0.191235 -0.115036,-0.0013 -0.118379,0.0042 -0.23013,0.354378 -0.06192,0.194065 -0.298318,0.947421 -0.535888,1.674649 -0.237569,0.727228 -0.432311,1.339767 -0.431087,1.368891 0.0011,0.02912 0.93455,0.825362 2.077645,1.770807 l 2.076566,1.723267 -0.171787,0.01837 c -0.09429,0.01321 -0.482689,0.02825 -0.870818,0.02918 h -0.70876 L 10.48296,19.44244 C 9.0841848,18.251862 8.5125564,17.743984 8.5209189,17.699725 c 0.019709,-0.103194 1.4476597,-4.82613 1.4639687,-4.842439 0.0083,-0.0083 0.8608474,0.07305 1.8950544,0.18151 1.034207,0.108476 1.916946,0.191089 1.971765,0.191236 0.0794,2.17e-4 0.421245,-0.27743 1.666005,-1.359167 0.85941,-0.746857 1.572954,-1.345156 1.588215,-1.339721 z m -0.01837,2.919293 0.898909,0.890265 0.899989,0.899988 -0.01944,0.947528 c -0.02659,1.30803 -0.142396,2.097936 -0.439731,3.004644 -0.183215,0.55871 -0.423309,1.032524 -0.708754,1.41751 -0.191914,0.258828 -0.559839,0.621241 -0.630966,0.621241 -0.01769,0 -0.152729,-0.123408 -0.306838,-0.277668 -0.459223,-0.459668 -0.763455,-1.001188 -1.024237,-1.80862 -0.283653,-0.878256 -0.424081,-1.91214 -0.421363,-3.129974 v -0.774661 l 0.871897,-0.899988 z m 5.371843,1.818344 c 0.01606,-7.31e-4 0.02481,-0.0011 0.02593,0 0.01684,0.01684 0.547286,1.91163 0.565058,2.019303 0.01627,0.09809 -3.917508,3.426641 -4.469692,3.781466 -0.0827,0.05314 -0.06354,-0.0028 0.133972,-0.297115 0.852571,-1.270264 1.426152,-3.191272 1.426152,-4.785175 0,-0.302511 0.01335,-0.468901 0.03782,-0.468901 0.02085,0 0.549544,-0.0633 1.167932,-0.133972 0.541088,-0.06185 1.000427,-0.110484 1.112831,-0.115612 z m -10.723157,0.01621 c 0.117592,-0.0018 0.58208,0.03763 1.120394,0.0994 0.615217,0.07056 1.127053,0.133972 1.138762,0.133972 0.01166,0 0.03436,0.228567 0.04754,0.51644 0.08066,1.775137 0.582437,3.440677 1.417509,4.709546 0.130053,0.197604 0.225179,0.357166 0.219325,0.36302 -0.0059,0.0059 -0.184331,-0.116117 -0.392192,-0.277667 -0.599076,-0.465627 -3.134194,-2.588933 -4.058052,-3.397918 l -0.09616,-0.09507 0.277667,-1.00479 c 0.151553,-0.557312 0.282271,-1.027794 0.297115,-1.043683 0.0018,-0.002 0.01124,-0.003 0.0281,-0.0032 z m 5.370763,6.52681 c 0.752756,0 1.505296,0.0017 2.076564,0.0044 l 2.076565,0.0097 -2.066842,1.052328 c -1.136813,0.57722 -2.076706,1.049644 -2.087369,1.053409 -0.01068,0.0038 -0.947921,-0.462663 -2.086288,-1.043685 l -2.076565,-1.062052 2.086289,-0.0097 c 0.571672,-0.0027 1.324886,-0.0044 2.077646,-0.0044 z" />
  </g>
</svg>
