<?xml version="1.0" encoding="UTF-8" standalone="no"?>
<svg
   xmlns:dc="http://purl.org/dc/elements/1.1/"
   xmlns:cc="http://creativecommons.org/ns#"
   xmlns:rdf="http://www.w3.org/1999/02/22-rdf-syntax-ns#"
   xmlns:svg="http://www.w3.org/2000/svg"
   xmlns="http://www.w3.org/2000/svg"
   xmlns:xlink="http://www.w3.org/1999/xlink"
   xmlns:sodipodi="http://sodipodi.sourceforge.net/DTD/sodipodi-0.dtd"
   xmlns:inkscape="http://www.inkscape.org/namespaces/inkscape"
   width="128"
   height="128"
   viewBox="0 0 33.866666 33.866668"
   version="1.1"
   id="svg1604"
   inkscape:version="1.0.1 (3bc2e813f5, 2020-09-07)"
   sodipodi:docname="kthesaurus.svg">
  <defs
     id="defs1598">
    <linearGradient
       gradientUnits="userSpaceOnUse"
       y2="3.2720017"
       x2="19.33639"
       y1="31.326756"
       x1="19.33639"
       id="linearGradient4292"
       xlink:href="#linearGradient4290"
       inkscape:collect="always"
       gradientTransform="translate(0.11421025,-0.00653055)" />
    <linearGradient
       id="linearGradient4290"
       inkscape:collect="always">
      <stop
         id="stop4286"
         offset="0"
         style="stop-color:#9a5751;stop-opacity:1" />
      <stop
         id="stop4288"
         offset="1"
         style="stop-color:#ab5d59;stop-opacity:1" />
    </linearGradient>
    <linearGradient
       gradientTransform="translate(0.11421025,-1.0674399)"
       y2="17.867891"
       x2="-0.021682218"
       y1="17.867891"
       x1="32.643162"
       gradientUnits="userSpaceOnUse"
       id="linearGradient4259"
       xlink:href="#linearGradient4273"
       inkscape:collect="always" />
    <linearGradient
       id="linearGradient4273"
       inkscape:collect="always">
      <stop
         id="stop4261"
         offset="0"
         style="stop-color:#544c41;stop-opacity:1" />
      <stop
         style="stop-color:#d5d1c8;stop-opacity:1"
         offset="0.2586937"
         id="stop4263" />
      <stop
         id="stop4265"
         offset="0.51738739"
         style="stop-color:#d0d1c7;stop-opacity:1" />
      <stop
         id="stop4267"
         offset="0.71043241"
         style="stop-color:#ced0c3;stop-opacity:1" />
      <stop
         id="stop4271"
         offset="1"
         style="stop-color:#2a2319;stop-opacity:1" />
    </linearGradient>
    <linearGradient
       gradientUnits="userSpaceOnUse"
       y2="18.620737"
       x2="15.52189"
       y1="18.620737"
       x1="2.3962648"
       id="linearGradient4390"
       xlink:href="#linearGradient4388"
       inkscape:collect="always"
       gradientTransform="translate(0.11421025,-0.00653055)" />
    <linearGradient
       id="linearGradient4388"
       inkscape:collect="always">
      <stop
         id="stop4384"
         offset="0"
         style="stop-color:#000000;stop-opacity:1;" />
      <stop
         id="stop4386"
         offset="1"
         style="stop-color:#000000;stop-opacity:0;" />
    </linearGradient>
    <linearGradient
       gradientTransform="translate(0.02354985,0.07692335)"
       y2="14.837414"
       x2="4.1613555"
       y1="14.837414"
       x1="2.4519663"
       gradientUnits="userSpaceOnUse"
       id="linearGradient4223"
       xlink:href="#linearGradient4229"
       inkscape:collect="always" />
    <linearGradient
       id="linearGradient4229"
       inkscape:collect="always">
      <stop
         id="stop4225"
         offset="0"
         style="stop-color:#5d2e2b;stop-opacity:1" />
      <stop
         style="stop-color:#955550;stop-opacity:1"
         offset="0.22937378"
         id="stop4239" />
      <stop
         id="stop4237"
         offset="0.50313646"
         style="stop-color:#a56661;stop-opacity:1" />
      <stop
         style="stop-color:#9c5c57;stop-opacity:1"
         offset="0.78809863"
         id="stop4241" />
      <stop
         id="stop4227"
         offset="1"
         style="stop-color:#77352f;stop-opacity:1" />
    </linearGradient>
    <linearGradient
       gradientTransform="translate(0.11421025,-0.00653055)"
       gradientUnits="userSpaceOnUse"
       y2="4.8309593"
       x2="18.560169"
       y1="26.492117"
       x1="18.560169"
       id="linearGradient4327"
       xlink:href="#linearGradient4325"
       inkscape:collect="always" />
    <linearGradient
       id="linearGradient4325"
       inkscape:collect="always">
      <stop
         id="stop4321"
         offset="0"
         style="stop-color:#9b5852;stop-opacity:1" />
      <stop
         id="stop4323"
         offset="1"
         style="stop-color:#a85a56;stop-opacity:1" />
    </linearGradient>
    <linearGradient
       gradientUnits="userSpaceOnUse"
       y2="107.98306"
       x2="16.759779"
       y1="95.191864"
       x1="13.332388"
       id="linearGradient4319"
       xlink:href="#linearGradient4317"
       inkscape:collect="always"
       gradientTransform="matrix(0.26458333,0,0,0.26458333,0.11421025,-0.00653055)" />
    <linearGradient
       id="linearGradient4317"
       inkscape:collect="always">
      <stop
         id="stop4313"
         offset="0"
         style="stop-color:#5d2e2b;stop-opacity:0" />
      <stop
         id="stop4315"
         offset="1"
         style="stop-color:#9a5751;stop-opacity:1" />
    </linearGradient>
  </defs>
  <sodipodi:namedview
     id="base"
     pagecolor="#ffffff"
     bordercolor="#666666"
     borderopacity="1.0"
     inkscape:pageopacity="0.0"
     inkscape:pageshadow="2"
     inkscape:zoom="2.8"
     inkscape:cx="81.509818"
     inkscape:cy="107.17483"
     inkscape:document-units="mm"
     inkscape:current-layer="layer1"
     inkscape:document-rotation="0"
     showgrid="false"
     units="px"
     inkscape:window-width="1514"
     inkscape:window-height="941"
     inkscape:window-x="50"
     inkscape:window-y="27"
     inkscape:window-maximized="0" />
  <metadata
     id="metadata1601">
    <rdf:RDF>
      <cc:Work
         rdf:about="">
        <dc:format>image/svg+xml</dc:format>
        <dc:type
           rdf:resource="http://purl.org/dc/dcmitype/StillImage" />
        <dc:title></dc:title>
      </cc:Work>
    </rdf:RDF>
  </metadata>
  <g
     inkscape:label="Capa 1"
     inkscape:groupmode="layer"
     id="layer1">
    <g
       style="opacity:0.295"
       transform="matrix(0.97573206,0,0,0.97573206,-65.634175,-37.209624)"
       id="g1702">
      <rect
         ry="6.6098609"
         rx="6.6098609"
         y="40.709618"
         x="69.839508"
         height="29.810888"
         width="29.810888"
         id="rect1634"
         style="fill:none;fill-opacity:1;stroke:#000000;stroke-width:0.1;stroke-linecap:round;stroke-linejoin:round;stroke-miterlimit:4;stroke-dasharray:none;stroke-opacity:0.02" />
      <rect
         style="fill:none;fill-opacity:1;stroke:#000000;stroke-width:0.2;stroke-linecap:round;stroke-linejoin:round;stroke-miterlimit:4;stroke-dasharray:none;stroke-opacity:0.02"
         id="rect1638"
         width="29.810888"
         height="29.810888"
         x="69.839508"
         y="40.709618"
         rx="6.6098609"
         ry="6.6098609" />
      <rect
         ry="6.6098609"
         rx="6.6098609"
         y="40.709618"
         x="69.839508"
         height="29.810888"
         width="29.810888"
         id="rect1640"
         style="fill:none;fill-opacity:1;stroke:#000000;stroke-width:0.3;stroke-linecap:round;stroke-linejoin:round;stroke-miterlimit:4;stroke-dasharray:none;stroke-opacity:0.02" />
      <rect
         style="fill:none;fill-opacity:1;stroke:#000000;stroke-width:0.4;stroke-linecap:round;stroke-linejoin:round;stroke-miterlimit:4;stroke-dasharray:none;stroke-opacity:0.02"
         id="rect1642"
         width="29.810888"
         height="29.810888"
         x="69.839508"
         y="40.709618"
         rx="6.6098609"
         ry="6.6098609" />
      <rect
         ry="6.6098609"
         rx="6.6098609"
         y="40.709618"
         x="69.839508"
         height="29.810888"
         width="29.810888"
         id="rect1644"
         style="fill:none;fill-opacity:1;stroke:#000000;stroke-width:0.5;stroke-linecap:round;stroke-linejoin:round;stroke-miterlimit:4;stroke-dasharray:none;stroke-opacity:0.02" />
      <rect
         style="fill:none;fill-opacity:1;stroke:#000000;stroke-width:0.6;stroke-linecap:round;stroke-linejoin:round;stroke-miterlimit:4;stroke-dasharray:none;stroke-opacity:0.02"
         id="rect1646"
         width="29.810888"
         height="29.810888"
         x="69.839508"
         y="40.709618"
         rx="6.6098609"
         ry="6.6098609" />
      <rect
         ry="6.6098609"
         rx="6.6098609"
         y="40.709618"
         x="69.839508"
         height="29.810888"
         width="29.810888"
         id="rect1648"
         style="fill:none;fill-opacity:1;stroke:#000000;stroke-width:0.7;stroke-linecap:round;stroke-linejoin:round;stroke-miterlimit:4;stroke-dasharray:none;stroke-opacity:0.02" />
      <rect
         style="fill:none;fill-opacity:1;stroke:#000000;stroke-width:0.8;stroke-linecap:round;stroke-linejoin:round;stroke-miterlimit:4;stroke-dasharray:none;stroke-opacity:0.02"
         id="rect1650"
         width="29.810888"
         height="29.810888"
         x="69.839508"
         y="40.709618"
         rx="6.6098609"
         ry="6.6098609" />
      <rect
         ry="6.6098609"
         rx="6.6098609"
         y="40.709618"
         x="69.839508"
         height="29.810888"
         width="29.810888"
         id="rect1652"
         style="fill:none;fill-opacity:1;stroke:#000000;stroke-width:1;stroke-linecap:round;stroke-linejoin:round;stroke-miterlimit:4;stroke-dasharray:none;stroke-opacity:0.02" />
      <rect
         style="fill:none;fill-opacity:1;stroke:#000000;stroke-width:1.2;stroke-linecap:round;stroke-linejoin:round;stroke-miterlimit:4;stroke-dasharray:none;stroke-opacity:0.02"
         id="rect1654"
         width="29.810888"
         height="29.810888"
         x="69.839508"
         y="40.709618"
         rx="6.6098609"
         ry="6.6098609" />
      <rect
         ry="6.6098609"
         rx="6.6098609"
         y="40.709618"
         x="69.839508"
         height="29.810888"
         width="29.810888"
         id="rect1656"
         style="fill:none;fill-opacity:1;stroke:#000000;stroke-width:1.4;stroke-linecap:round;stroke-linejoin:round;stroke-miterlimit:4;stroke-dasharray:none;stroke-opacity:0.02" />
      <rect
         style="fill:none;fill-opacity:1;stroke:#000000;stroke-width:1.6;stroke-linecap:round;stroke-linejoin:round;stroke-miterlimit:4;stroke-dasharray:none;stroke-opacity:0.02"
         id="rect1658"
         width="29.810888"
         height="29.810888"
         x="69.839508"
         y="40.709618"
         rx="6.6098609"
         ry="6.6098609" />
      <rect
         ry="6.6098609"
         rx="6.6098609"
         y="40.709618"
         x="69.839508"
         height="29.810888"
         width="29.810888"
         id="rect1660"
         style="fill:none;fill-opacity:1;stroke:#000000;stroke-width:1.8;stroke-linecap:round;stroke-linejoin:round;stroke-miterlimit:4;stroke-dasharray:none;stroke-opacity:0.02" />
      <rect
         style="fill:none;fill-opacity:1;stroke:#000000;stroke-width:2;stroke-linecap:round;stroke-linejoin:round;stroke-miterlimit:4;stroke-dasharray:none;stroke-opacity:0.02"
         id="rect1662"
         width="29.810888"
         height="29.810888"
         x="69.839508"
         y="40.709618"
         rx="6.6098609"
         ry="6.6098609" />
      <rect
         ry="6.6098609"
         rx="6.6098609"
         y="40.709618"
         x="69.839508"
         height="29.810888"
         width="29.810888"
         id="rect1664"
         style="fill:none;fill-opacity:1;stroke:#000000;stroke-width:2.2;stroke-linecap:round;stroke-linejoin:round;stroke-miterlimit:4;stroke-dasharray:none;stroke-opacity:0.02" />
      <rect
         style="fill:none;fill-opacity:1;stroke:#000000;stroke-width:2.6;stroke-linecap:round;stroke-linejoin:round;stroke-miterlimit:4;stroke-dasharray:none;stroke-opacity:0.02"
         id="rect1666"
         width="29.810888"
         height="29.810888"
         x="69.839508"
         y="40.709618"
         rx="6.6098609"
         ry="6.6098609" />
      <rect
         ry="6.6098609"
         rx="6.6098609"
         y="40.709618"
         x="69.839508"
         height="29.810888"
         width="29.810888"
         id="rect1668"
         style="fill:none;fill-opacity:1;stroke:#000000;stroke-width:3;stroke-linecap:round;stroke-linejoin:round;stroke-miterlimit:4;stroke-dasharray:none;stroke-opacity:0.02" />
      <rect
         style="fill:none;fill-opacity:1;stroke:#000000;stroke-width:3.4;stroke-linecap:round;stroke-linejoin:round;stroke-miterlimit:4;stroke-dasharray:none;stroke-opacity:0.02"
         id="rect1670"
         width="29.810888"
         height="29.810888"
         x="69.839508"
         y="40.709618"
         rx="6.6098609"
         ry="6.6098609" />
      <rect
         ry="6.6098609"
         rx="6.6098609"
         y="40.709618"
         x="69.839508"
         height="29.810888"
         width="29.810888"
         id="rect1672"
         style="fill:none;fill-opacity:1;stroke:#000000;stroke-width:3.8;stroke-linecap:round;stroke-linejoin:round;stroke-miterlimit:4;stroke-dasharray:none;stroke-opacity:0.02" />
      <rect
         style="fill:none;fill-opacity:1;stroke:#000000;stroke-width:4.2;stroke-linecap:round;stroke-linejoin:round;stroke-miterlimit:4;stroke-dasharray:none;stroke-opacity:0.02"
         id="rect1674"
         width="29.810888"
         height="29.810888"
         x="69.839508"
         y="40.709618"
         rx="6.6098609"
         ry="6.6098609" />
      <rect
         ry="6.6098609"
         rx="6.6098609"
         y="40.709618"
         x="69.839508"
         height="29.810888"
         width="29.810888"
         id="rect1676"
         style="fill:none;fill-opacity:1;stroke:#000000;stroke-width:4.6;stroke-linecap:round;stroke-linejoin:round;stroke-miterlimit:4;stroke-dasharray:none;stroke-opacity:0.02" />
      <rect
         style="fill:none;fill-opacity:1;stroke:#000000;stroke-width:5;stroke-linecap:round;stroke-linejoin:round;stroke-miterlimit:4;stroke-dasharray:none;stroke-opacity:0.02"
         id="rect1678"
         width="29.810888"
         height="29.810888"
         x="69.839508"
         y="40.709618"
         rx="6.6098609"
         ry="6.6098609" />
    </g>
    <rect
       ry="6.4494534"
       rx="6.4494534"
       y="2.5120573"
       x="2.5104759"
       height="29.08744"
       width="29.08744"
       id="rect849"
       style="fill:url(#linearGradient4292);fill-opacity:1;stroke-width:2.68801;stroke-linecap:round;stroke-linejoin:round;stroke-miterlimit:4;stroke-dasharray:none" />
    <path
       sodipodi:nodetypes="sssssssss"
       d="M 8.9599285,6.6898257 H 24.304582 c 3.572997,0 6.449454,2.876456 6.449454,6.4494543 v 10.949856 c 0,3.572997 -2.876457,6.449454 -6.449454,6.449454 H 8.9599285 c -2.6808196,0 -6.4494533,-2.876457 -6.4494533,-6.449454 V 13.13928 c 0,-3.5729983 2.8764562,-6.4494543 6.4494533,-6.4494543 z"
       style="fill:url(#linearGradient4259);fill-opacity:1;stroke-width:2.68801;stroke-linecap:round;stroke-linejoin:round;stroke-miterlimit:4;stroke-dasharray:none"
       id="rect4247" />
    <path
       id="path4382"
       style="opacity:0.451759;fill:url(#linearGradient4390);fill-opacity:1;stroke-width:2.68801;stroke-linecap:round;stroke-linejoin:round;stroke-miterlimit:4;stroke-dasharray:none"
       d="M 8.9599285,6.6898257 H 24.304582 c 3.572997,0 6.449454,2.876456 6.449454,6.4494543 v 10.949856 c 0,3.572997 -2.876457,6.449454 -6.449454,6.449454 H 8.9599285 c -2.6808196,0 -6.4494533,-2.876457 -6.4494533,-6.449454 V 13.13928 c 0,-3.5729983 2.8764562,-6.4494543 6.4494533,-6.4494543 z"
       sodipodi:nodetypes="sssssssss" />
    <path
       sodipodi:nodetypes="cscsscccc"
       d="m 5.2038222,3.7312257 c -0.1333629,0.09195 -0.2628286,0.188924 -0.3886067,0.290421 -0.085241,0.06879 -0.1685547,0.139935 -0.2501138,0.212907 -1.2649177,1.176023 -2.0546552,2.855482 -2.0546552,4.726844 V 25.150073 c 0,2.489414 1.3971359,4.639011 3.4525026,5.714899 l 0.815454,-0.692465 C 4.6544552,29.603396 4.6470127,26.802946 4.6470127,22.808211 Z"
       style="fill:url(#linearGradient4223);fill-opacity:1;stroke-width:2.68801;stroke-linecap:round;stroke-linejoin:round;stroke-miterlimit:4;stroke-dasharray:none"
       id="rect4221" />
    <path
       sodipodi:nodetypes="scsssccssss"
       d="m 15.005291,2.5121788 c -0.813641,0 -1.482596,0.1506476 -2.032434,0.42323 H 7.0119804 c -1.3086743,0 -2.3621295,1.0539719 -2.3621295,2.3626459 V 25.851323 c 0,1.308675 1.7928404,2.36213 3.1015148,2.36213 l 17.4036933,0.0021 c 3.572996,0 6.449734,-2.876741 6.449734,-6.449738 V 8.9613977 c 0,-3.572997 -2.876738,-6.4492189 -6.449734,-6.4492189 z"
       style="fill:url(#linearGradient4327);fill-opacity:1;stroke-width:2.68801;stroke-linecap:round;stroke-linejoin:round;stroke-miterlimit:4;stroke-dasharray:none"
       id="rect4244" />
    <path
       id="path4311"
       style="fill:url(#linearGradient4319);fill-opacity:1;stroke-width:2.68801;stroke-linecap:round;stroke-linejoin:round;stroke-miterlimit:4;stroke-dasharray:none"
       d="m 5.2038222,3.7312257 c -0.1333629,0.09195 -0.2628286,0.188924 -0.3886067,0.290421 -0.085241,0.06879 -0.1685547,0.139935 -0.2501138,0.212907 -1.2649177,1.176023 -2.0546552,2.855482 -2.0546552,4.726844 V 25.150073 c 0,2.489414 1.3971359,4.639011 3.4525026,5.714899 L 7.2451775,30.200333 C 5.1212296,29.631223 4.6470127,26.802946 4.6470127,22.808211 Z"
       sodipodi:nodetypes="cscsscccc" />
    <path
       d="m 8.9601822,2.5121788 c -3.5729974,0 -6.4497357,2.8762219 -6.4497357,6.4492189 v 0.487308 c 0,-3.572997 2.8767383,-6.449735 6.4497357,-6.449735 H 25.148342 c 3.572996,0 6.449733,2.876738 6.449733,6.449735 v -0.487308 c 0,-3.572997 -2.876737,-6.4492189 -6.449733,-6.4492189 z"
       style="fill:#c5817d;fill-opacity:1;stroke-width:2.68801;stroke-linecap:round;stroke-linejoin:round;stroke-miterlimit:4;stroke-dasharray:none"
       id="rect4329" />
    <g
       style="opacity:0.346275"
       id="g4380"
       transform="translate(0.11421025,-0.00653055)">
      <path
         id="path4344"
         style="fill:#000000;fill-opacity:0.179389;stroke-width:10.1594;stroke-linecap:round;stroke-linejoin:round;stroke-miterlimit:4;stroke-dasharray:none"
         d="m 119.01953,81.693359 c 0,13.504241 -10.87271,24.376951 -24.376952,24.376951 l -65.777344,-0.008 c -4.946171,0 -11.722656,-3.98156 -11.722656,-8.927734 v 0.595703 c 0,4.946171 6.776485,8.927731 11.722656,8.927731 l 65.777344,0.008 c 13.504242,0 24.376952,-10.872717 24.376952,-24.376958 z"
         transform="scale(0.26458333)" />
      <path
         id="path4351"
         style="fill:#000000;fill-opacity:0.179389;stroke-width:10.1594;stroke-linecap:round;stroke-linejoin:round;stroke-miterlimit:4;stroke-dasharray:none"
         d="m 119.01953,81.169922 c 0,13.504241 -10.87271,24.376958 -24.376952,24.376958 l -65.777344,-0.008 c -4.946171,0 -11.722656,-3.98156 -11.722656,-8.927732 v 1.119141 c 0,4.946171 6.776485,8.927731 11.722656,8.927731 l 65.777344,0.008 c 13.504242,0 24.376952,-10.872717 24.376952,-24.376958 z"
         transform="scale(0.26458333)" />
      <path
         id="path4360"
         style="fill:#000000;fill-opacity:0.179389;stroke-width:10.1594;stroke-linecap:round;stroke-linejoin:round;stroke-miterlimit:4;stroke-dasharray:none"
         d="m 119.01953,80.683594 c 0,13.50424 -10.87271,24.376956 -24.376952,24.376956 l -65.777344,-0.008 c -4.946171,0 -11.722656,-3.98156 -11.722656,-8.92773 v 1.605469 c 0,4.946171 6.776485,8.927731 11.722656,8.927731 l 65.777344,0.008 c 13.504242,0 24.376952,-10.872717 24.376952,-24.376958 z"
         transform="scale(0.26458333)" />
      <path
         id="path4365"
         style="fill:#000000;fill-opacity:0.179389;stroke-width:10.1594;stroke-linecap:round;stroke-linejoin:round;stroke-miterlimit:4;stroke-dasharray:none"
         d="m 119.01953,80.232422 c 0,13.504241 -10.87271,24.376958 -24.376952,24.376958 l -65.777344,-0.008 c -4.946171,0 -11.722656,-3.98156 -11.722656,-8.927732 v 2.056641 c 0,4.946171 6.776485,8.927731 11.722656,8.927731 l 65.777344,0.008 c 13.504242,0 24.376952,-10.872717 24.376952,-24.376958 z"
         transform="scale(0.26458333)" />
      <path
         id="path4370"
         style="fill:#000000;fill-opacity:0.268833;stroke-width:10.1594;stroke-linecap:round;stroke-linejoin:round;stroke-miterlimit:4;stroke-dasharray:none"
         d="m 119.01953,79.527344 c 0,13.50424 -10.87271,24.376956 -24.376952,24.376956 l -65.777344,-0.008 c -4.946171,0 -11.722656,-3.981557 -11.722656,-8.92773 v 2.761719 c 0,4.946171 6.776485,8.927731 11.722656,8.927731 l 65.777344,0.008 c 13.504242,0 24.376952,-10.872717 24.376952,-24.376958 z"
         transform="scale(0.26458333)" />
    </g>
    <path
       d="M 13.088842,11.282451 9.6472755,18.864023 C 9.1312493,20.000657 8.7676923,20.695821 8.5557848,20.949985 8.3436805,21.204119 8.0258084,21.35331 7.602704,21.397694 l -1.643e-4,0.28649 3.2590083,0.0043 6.61e-4,-0.286969 c -0.384789,-0.03033 -0.646558,-0.07601 -0.785476,-0.136562 -0.2246039,-0.100229 -0.3363697,-0.280179 -0.3358268,-0.540834 3.969e-4,-0.129959 0.04185,-0.307163 0.125285,-0.52955 0.08348,-0.222567 0.3398538,-0.839444 0.7687628,-1.850613 l 4.334184,0.0056 0.655808,1.488282 c 0.09607,0.210111 0.170347,0.410465 0.223706,0.601132 0.0531,0.189864 0.07961,0.322859 0.0793,0.398044 -1.91e-4,0.225287 -0.07013,0.366523 -0.209465,0.42423 -0.139256,0.05734 -0.449256,0.105888 -0.930066,0.145334 l -6.61e-4,0.286969 4.182084,0.0049 6.35e-4,-0.286492 C 18.585114,21.361275 18.31106,21.266953 18.147998,21.129218 17.98494,20.991489 17.767592,20.632112 17.495975,20.051281 L 13.416,11.282481 Z m -0.271293,2.180751 1.875615,4.259604 -3.777944,-0.0048 z m 10.071267,1.084743 c -0.894036,-8.47e-4 -1.573169,0.190225 -2.037237,0.574611 -0.463798,0.384047 -0.695802,0.752617 -0.696599,1.105126 -3.97e-4,0.181229 0.0634,0.34629 0.191653,0.494623 0.128174,0.148705 0.312629,0.223164 0.553433,0.223703 0.155396,-7.4e-5 0.289423,-0.03274 0.401786,-0.09749 0.198113,-0.110605 0.298136,-0.30696 0.298635,-0.588687 2.64e-4,-0.04 -0.01295,-0.132034 -0.03952,-0.275308 -0.02647,-0.14383 -0.04043,-0.245846 -0.04013,-0.305913 3.96e-4,-0.236742 0.124526,-0.422348 0.370991,-0.557928 0.246528,-0.130594 0.506187,-0.19593 0.779657,-0.195822 0.57291,7.67e-4 0.949594,0.169915 1.131052,0.507558 0.10615,0.201088 0.159469,0.558388 0.158413,1.072055 l -0.0015,0.641379 c -1.473526,0.516496 -2.456486,0.925468 -2.949688,1.226837 -0.776988,0.487339 -1.166818,1.094949 -1.168247,1.824695 -9.26e-4,0.468312 0.167088,0.854463 0.50365,1.159443 0.336761,0.30502 0.735148,0.457856 1.195873,0.458479 0.438745,5.82e-4 0.902291,-0.134887 1.38994,-0.406176 0.289477,-0.160315 0.637689,-0.406432 1.045021,-0.737965 0.01549,0.307002 0.104504,0.57113 0.267622,0.792722 0.162524,0.221498 0.426522,0.33228 0.79068,0.333104 0.310121,5.1e-5 0.615519,-0.09433 0.915557,-0.285402 0.198512,-0.125472 0.382891,-0.286561 0.554994,-0.48272 l 0.001,-0.392195 c -0.198608,0.135599 -0.338125,0.221129 -0.418284,0.255874 -0.08042,0.03509 -0.181909,0.0526 -0.304905,0.05256 -0.219915,-1.94e-4 -0.364453,-0.09823 -0.433225,-0.294557 -0.0431,-0.111202 -0.06334,-0.312437 -0.06255,-0.604258 l 0.0058,-3.02705 c 0.0015,-0.664064 -0.09677,-1.170314 -0.293883,-1.517671 -0.276218,-0.47583 -0.741249,-0.773473 -1.394425,-0.893286 -0.217722,-0.03997 -0.456159,-0.05994 -0.715778,-0.06035 z m 1.070077,2.975272 -0.0049,2.393328 c -9e-4,0.286646 -0.163194,0.522792 -0.487485,0.708638 -0.324295,0.185844 -0.662815,0.278245 -1.016034,0.277728 -0.25696,-2.48e-4 -0.489831,-0.07107 -0.698293,-0.212048 -0.320684,-0.216542 -0.48082,-0.554247 -0.480023,-1.01224 0.0014,-0.568562 0.387873,-1.076464 1.159577,-1.523341 0.402183,-0.231121 0.911143,-0.441548 1.52713,-0.63207 z"
       id="path4482"
       inkscape:connector-curvature="0"
       style="fill:#000000;fill-opacity:0.420553;stroke-width:0.23387"
       sodipodi:nodetypes="ccccccccccccccccccccscccccccccccccccccccccccccccccccccccccccccccscccccc" />
    <path
       sodipodi:nodetypes="ccccccccccccccccccccscccccccccccccccccccccccccccccccccccccccccccscccccc"
       style="fill:#f4eeef;fill-opacity:1;stroke-width:0.23387"
       inkscape:connector-curvature="0"
       id="path50-4"
       d="M 13.088842,11.010782 9.6472755,18.592353 C 9.1312493,19.728987 8.7676923,20.424151 8.5557848,20.678315 8.3436805,20.932449 8.0258084,21.08164 7.602704,21.126024 l -1.643e-4,0.28649 3.2590083,0.0043 6.61e-4,-0.286969 c -0.384789,-0.03033 -0.646558,-0.07601 -0.785476,-0.136562 -0.2246039,-0.100229 -0.3363697,-0.280179 -0.3358268,-0.540834 3.969e-4,-0.129959 0.04185,-0.307163 0.125285,-0.52955 0.08348,-0.222567 0.3398538,-0.839444 0.7687628,-1.850613 l 4.334184,0.0056 0.655808,1.488282 c 0.09607,0.210111 0.170347,0.410465 0.223706,0.601132 0.0531,0.189864 0.07961,0.322859 0.0793,0.398044 -1.91e-4,0.225287 -0.07013,0.366523 -0.209465,0.42423 -0.139256,0.05734 -0.449256,0.105888 -0.930066,0.145334 l -6.61e-4,0.286969 4.182084,0.0049 6.35e-4,-0.286492 c -0.385365,-0.05068 -0.659419,-0.145 -0.822481,-0.282735 -0.163058,-0.137729 -0.380406,-0.497106 -0.652023,-1.077937 L 13.416,11.010812 Z m -0.271293,2.18075 1.875615,4.259604 -3.777944,-0.0048 z m 10.071267,1.084743 c -0.894036,-8.47e-4 -1.573169,0.190225 -2.037237,0.574611 -0.463798,0.384047 -0.695802,0.752617 -0.696599,1.105126 -3.97e-4,0.181229 0.0634,0.34629 0.191653,0.494623 0.128174,0.148705 0.312629,0.223164 0.553433,0.223703 0.155396,-7.4e-5 0.289423,-0.03274 0.401786,-0.09749 0.198113,-0.110605 0.298136,-0.30696 0.298635,-0.588687 2.64e-4,-0.04 -0.01295,-0.132034 -0.03952,-0.275308 -0.02647,-0.14383 -0.04043,-0.245846 -0.04013,-0.305913 3.96e-4,-0.236742 0.124526,-0.422348 0.370991,-0.557928 0.246528,-0.130594 0.506187,-0.195929 0.779657,-0.195822 0.57291,7.67e-4 0.949594,0.169915 1.131052,0.507558 0.10615,0.201088 0.159469,0.558388 0.158413,1.072055 l -0.0015,0.641379 c -1.473526,0.516496 -2.456486,0.925468 -2.949688,1.226837 -0.776988,0.487339 -1.166818,1.094949 -1.168247,1.824695 -9.26e-4,0.468312 0.167088,0.854463 0.50365,1.159443 0.336761,0.30502 0.735148,0.457856 1.195873,0.458479 0.438745,5.82e-4 0.902291,-0.134887 1.38994,-0.406176 0.289477,-0.160315 0.637689,-0.406432 1.045021,-0.737965 0.01549,0.307002 0.104504,0.57113 0.267622,0.792722 0.162524,0.221498 0.426522,0.33228 0.79068,0.333104 0.310121,5.1e-5 0.615519,-0.09433 0.915557,-0.285402 0.198512,-0.125472 0.382891,-0.286561 0.554994,-0.48272 l 0.001,-0.392195 c -0.198608,0.135599 -0.338125,0.221129 -0.418284,0.255874 -0.08042,0.03509 -0.181909,0.0526 -0.304905,0.05256 -0.219915,-1.94e-4 -0.364453,-0.09823 -0.433225,-0.294557 -0.0431,-0.111202 -0.06334,-0.312437 -0.06255,-0.604258 l 0.0058,-3.02705 c 0.0015,-0.664064 -0.09677,-1.170314 -0.293886,-1.517671 -0.276215,-0.47583 -0.741246,-0.773473 -1.394422,-0.893285 -0.217722,-0.03997 -0.456159,-0.05994 -0.715778,-0.06035 z m 1.070077,2.975272 -0.0049,2.393328 c -9e-4,0.286646 -0.163194,0.522792 -0.487485,0.708638 -0.324295,0.185844 -0.662815,0.278245 -1.016034,0.277728 -0.25696,-2.48e-4 -0.489831,-0.07107 -0.698293,-0.212048 -0.320684,-0.216542 -0.48082,-0.554247 -0.480023,-1.01224 0.0014,-0.568562 0.387873,-1.076464 1.159577,-1.523341 0.402183,-0.231121 0.911143,-0.441548 1.52713,-0.63207 z" />
  </g>
</svg>
