<?xml version="1.0" encoding="UTF-8" standalone="no"?>
<svg
   width="128"
   height="128"
   viewBox="0 0 33.866666 33.866668"
   version="1.1"
   id="svg1443"
   inkscape:version="1.1.2 (0a00cf5339, 2022-02-04)"
   sodipodi:docname="distributor-logo-raspbian.svg"
   xmlns:inkscape="http://www.inkscape.org/namespaces/inkscape"
   xmlns:sodipodi="http://sodipodi.sourceforge.net/DTD/sodipodi-0.dtd"
   xmlns:xlink="http://www.w3.org/1999/xlink"
   xmlns="http://www.w3.org/2000/svg"
   xmlns:svg="http://www.w3.org/2000/svg"
   xmlns:rdf="http://www.w3.org/1999/02/22-rdf-syntax-ns#"
   xmlns:cc="http://creativecommons.org/ns#"
   xmlns:dc="http://purl.org/dc/elements/1.1/">
  <defs
     id="defs1437">
    <linearGradient
       inkscape:collect="always"
       id="linearGradient3711">
      <stop
         style="stop-color:#2fa417;stop-opacity:1"
         offset="0"
         id="stop3707" />
      <stop
         style="stop-color:#92cf35;stop-opacity:0.96862745"
         offset="1"
         id="stop3709" />
    </linearGradient>
    <linearGradient
       inkscape:collect="always"
       id="linearGradient2554">
      <stop
         style="stop-color:#fef9fa;stop-opacity:1;"
         offset="0"
         id="stop2550" />
      <stop
         style="stop-color:#ca4a00;stop-opacity:1"
         offset="1"
         id="stop2552" />
    </linearGradient>
    <linearGradient
       inkscape:collect="always"
       id="linearGradient2033">
      <stop
         style="stop-color:#e53001;stop-opacity:1"
         offset="0"
         id="stop2029" />
      <stop
         style="stop-color:#c74c00;stop-opacity:1"
         offset="1"
         id="stop2031" />
    </linearGradient>
    <filter
       color-interpolation-filters="sRGB"
       height="1.1311001"
       width="1.1106"
       y="-0.065563001"
       x="-0.055319"
       id="c-9">
      <feGaussianBlur
         id="feGaussianBlur1093"
         stdDeviation="1.1062912" />
    </filter>
    <linearGradient
       gradientUnits="userSpaceOnUse"
       gradientTransform="matrix(0.13235,0,0,0.13075,-32.379,1.0873)"
       y2="269.48999"
       y1="235.14999"
       x2="657.65002"
       x1="319.20999"
       id="a-12">
      <stop
         id="stop1076"
         offset="0"
         stop-color="#e54c18" />
      <stop
         id="stop1078"
         offset="1"
         stop-color="#fec350" />
    </linearGradient>
    <linearGradient
       inkscape:collect="always"
       id="linearGradient2050">
      <stop
         style="stop-color:#6a2b0c;stop-opacity:1;"
         offset="0"
         id="stop2046" />
      <stop
         style="stop-color:#6a2b0c;stop-opacity:0.82352941;"
         offset="0.46019328"
         id="stop2054" />
      <stop
         style="stop-color:#6a2b0c;stop-opacity:0.61960784;"
         offset="0.55980784"
         id="stop2074" />
      <stop
         style="stop-color:#6a2b0c;stop-opacity:0.55294118;"
         offset="0.59674543"
         id="stop2092" />
      <stop
         style="stop-color:#6a2b0c;stop-opacity:0.45882353;"
         offset="0.6603334"
         id="stop2102" />
      <stop
         style="stop-color:#6a2b0c;stop-opacity:0.35294118;"
         offset="0.73342222"
         id="stop2100" />
      <stop
         style="stop-color:#6a2b0c;stop-opacity:0.25882353;"
         offset="0.79290068"
         id="stop2098" />
      <stop
         style="stop-color:#6a2b0c;stop-opacity:0.19215686;"
         offset="0.83187062"
         id="stop2086" />
      <stop
         style="stop-color:#6a2b0c;stop-opacity:0.11372549;"
         offset="0.89167756"
         id="stop2088" />
      <stop
         style="stop-color:#6a2b0c;stop-opacity:0.0627451;"
         offset="0.93840277"
         id="stop2090" />
      <stop
         style="stop-color:#6a2b0c;stop-opacity:0.03921569;"
         offset="0.96329844"
         id="stop2056" />
      <stop
         style="stop-color:#6a2b0c;stop-opacity:0;"
         offset="1"
         id="stop2048" />
    </linearGradient>
    <radialGradient
       inkscape:collect="always"
       xlink:href="#linearGradient2050"
       id="radialGradient2270"
       cx="-571.09357"
       cy="434.78534"
       fx="-571.09357"
       fy="434.78534"
       r="229.44476"
       gradientUnits="userSpaceOnUse"
       gradientTransform="matrix(1.0612895,0,0,1.0612895,400.72106,-182.52731)" />
    <linearGradient
       id="b"
       x2="1"
       gradientTransform="matrix(0.33688162,-19.859257,19.859257,0.33688162,15.949012,26.785076)"
       gradientUnits="userSpaceOnUse">
      <stop
         stop-color="#ff9300"
         offset="0"
         id="stop7" />
      <stop
         stop-color="#ffd702"
         offset="1"
         id="stop9" />
    </linearGradient>
    <radialGradient
       inkscape:collect="always"
       xlink:href="#linearGradient2033"
       id="radialGradient2037"
       cx="16.811396"
       cy="2.5144095"
       fx="16.811396"
       fy="2.5144095"
       r="14.543719"
       gradientUnits="userSpaceOnUse"
       gradientTransform="matrix(37.826076,0,0,2.0939829,-619.09773,-2.7507209)" />
    <linearGradient
       inkscape:collect="always"
       xlink:href="#linearGradient2554"
       id="linearGradient2556"
       x1="35.256111"
       y1="62.4445"
       x2="35.256111"
       y2="159.30795"
       gradientUnits="userSpaceOnUse" />
    <linearGradient
       inkscape:collect="always"
       xlink:href="#linearGradient3711"
       id="linearGradient3713"
       x1="9.9889927"
       y1="5.7486653"
       x2="9.9889927"
       y2="14.780211"
       gradientUnits="userSpaceOnUse"
       gradientTransform="scale(3.7795276)" />
  </defs>
  <sodipodi:namedview
     id="base"
     pagecolor="#ffffff"
     bordercolor="#666666"
     borderopacity="1.0"
     inkscape:pageopacity="0.0"
     inkscape:pageshadow="2"
     inkscape:zoom="0.7"
     inkscape:cx="-542.85714"
     inkscape:cy="255"
     inkscape:document-units="mm"
     inkscape:current-layer="layer1"
     inkscape:document-rotation="0"
     showgrid="false"
     units="px"
     inkscape:window-width="1920"
     inkscape:window-height="1028"
     inkscape:window-x="0"
     inkscape:window-y="24"
     inkscape:window-maximized="1"
     inkscape:pagecheckerboard="0" />
  <metadata
     id="metadata1440">
    <rdf:RDF>
      <cc:Work
         rdf:about="">
        <dc:format>image/svg+xml</dc:format>
        <dc:type
           rdf:resource="http://purl.org/dc/dcmitype/StillImage" />
      </cc:Work>
    </rdf:RDF>
  </metadata>
  <g
     inkscape:label="Capa 1"
     inkscape:groupmode="layer"
     id="layer1">
    <g
       style="opacity:0.295"
       transform="matrix(0.97573206,0,0,0.97573206,-65.737228,-37.182508)"
       id="g1702">
      <rect
         ry="6.6098609"
         rx="6.6098609"
         y="40.709618"
         x="69.839508"
         height="29.810888"
         width="29.810888"
         id="rect1634"
         style="fill:none;fill-opacity:1;stroke:#000000;stroke-width:0.1;stroke-linecap:round;stroke-linejoin:round;stroke-miterlimit:4;stroke-dasharray:none;stroke-opacity:0.02" />
      <rect
         style="fill:none;fill-opacity:1;stroke:#000000;stroke-width:0.2;stroke-linecap:round;stroke-linejoin:round;stroke-miterlimit:4;stroke-dasharray:none;stroke-opacity:0.02"
         id="rect1638"
         width="29.810888"
         height="29.810888"
         x="69.839508"
         y="40.709618"
         rx="6.6098609"
         ry="6.6098609" />
      <rect
         ry="6.6098609"
         rx="6.6098609"
         y="40.709618"
         x="69.839508"
         height="29.810888"
         width="29.810888"
         id="rect1640"
         style="fill:none;fill-opacity:1;stroke:#000000;stroke-width:0.3;stroke-linecap:round;stroke-linejoin:round;stroke-miterlimit:4;stroke-dasharray:none;stroke-opacity:0.02" />
      <rect
         style="fill:none;fill-opacity:1;stroke:#000000;stroke-width:0.4;stroke-linecap:round;stroke-linejoin:round;stroke-miterlimit:4;stroke-dasharray:none;stroke-opacity:0.02"
         id="rect1642"
         width="29.810888"
         height="29.810888"
         x="69.839508"
         y="40.709618"
         rx="6.6098609"
         ry="6.6098609" />
      <rect
         ry="6.6098609"
         rx="6.6098609"
         y="40.709618"
         x="69.839508"
         height="29.810888"
         width="29.810888"
         id="rect1644"
         style="fill:none;fill-opacity:1;stroke:#000000;stroke-width:0.5;stroke-linecap:round;stroke-linejoin:round;stroke-miterlimit:4;stroke-dasharray:none;stroke-opacity:0.02" />
      <rect
         style="fill:none;fill-opacity:1;stroke:#000000;stroke-width:0.6;stroke-linecap:round;stroke-linejoin:round;stroke-miterlimit:4;stroke-dasharray:none;stroke-opacity:0.02"
         id="rect1646"
         width="29.810888"
         height="29.810888"
         x="69.839508"
         y="40.709618"
         rx="6.6098609"
         ry="6.6098609" />
      <rect
         ry="6.6098609"
         rx="6.6098609"
         y="40.709618"
         x="69.839508"
         height="29.810888"
         width="29.810888"
         id="rect1648"
         style="fill:none;fill-opacity:1;stroke:#000000;stroke-width:0.7;stroke-linecap:round;stroke-linejoin:round;stroke-miterlimit:4;stroke-dasharray:none;stroke-opacity:0.02" />
      <rect
         style="fill:none;fill-opacity:1;stroke:#000000;stroke-width:0.8;stroke-linecap:round;stroke-linejoin:round;stroke-miterlimit:4;stroke-dasharray:none;stroke-opacity:0.02"
         id="rect1650"
         width="29.810888"
         height="29.810888"
         x="69.839508"
         y="40.709618"
         rx="6.6098609"
         ry="6.6098609" />
      <rect
         ry="6.6098609"
         rx="6.6098609"
         y="40.709618"
         x="69.839508"
         height="29.810888"
         width="29.810888"
         id="rect1652"
         style="fill:none;fill-opacity:1;stroke:#000000;stroke-width:1;stroke-linecap:round;stroke-linejoin:round;stroke-miterlimit:4;stroke-dasharray:none;stroke-opacity:0.02" />
      <rect
         style="fill:none;fill-opacity:1;stroke:#000000;stroke-width:1.2;stroke-linecap:round;stroke-linejoin:round;stroke-miterlimit:4;stroke-dasharray:none;stroke-opacity:0.02"
         id="rect1654"
         width="29.810888"
         height="29.810888"
         x="69.839508"
         y="40.709618"
         rx="6.6098609"
         ry="6.6098609" />
      <rect
         ry="6.6098609"
         rx="6.6098609"
         y="40.709618"
         x="69.839508"
         height="29.810888"
         width="29.810888"
         id="rect1656"
         style="fill:none;fill-opacity:1;stroke:#000000;stroke-width:1.4;stroke-linecap:round;stroke-linejoin:round;stroke-miterlimit:4;stroke-dasharray:none;stroke-opacity:0.02" />
      <rect
         style="fill:none;fill-opacity:1;stroke:#000000;stroke-width:1.6;stroke-linecap:round;stroke-linejoin:round;stroke-miterlimit:4;stroke-dasharray:none;stroke-opacity:0.02"
         id="rect1658"
         width="29.810888"
         height="29.810888"
         x="69.839508"
         y="40.709618"
         rx="6.6098609"
         ry="6.6098609" />
      <rect
         ry="6.6098609"
         rx="6.6098609"
         y="40.709618"
         x="69.839508"
         height="29.810888"
         width="29.810888"
         id="rect1660"
         style="fill:none;fill-opacity:1;stroke:#000000;stroke-width:1.8;stroke-linecap:round;stroke-linejoin:round;stroke-miterlimit:4;stroke-dasharray:none;stroke-opacity:0.02" />
      <rect
         style="fill:none;fill-opacity:1;stroke:#000000;stroke-width:2;stroke-linecap:round;stroke-linejoin:round;stroke-miterlimit:4;stroke-dasharray:none;stroke-opacity:0.02"
         id="rect1662"
         width="29.810888"
         height="29.810888"
         x="69.839508"
         y="40.709618"
         rx="6.6098609"
         ry="6.6098609" />
      <rect
         ry="6.6098609"
         rx="6.6098609"
         y="40.709618"
         x="69.839508"
         height="29.810888"
         width="29.810888"
         id="rect1664"
         style="fill:none;fill-opacity:1;stroke:#000000;stroke-width:2.2;stroke-linecap:round;stroke-linejoin:round;stroke-miterlimit:4;stroke-dasharray:none;stroke-opacity:0.02" />
      <rect
         style="fill:none;fill-opacity:1;stroke:#000000;stroke-width:2.6;stroke-linecap:round;stroke-linejoin:round;stroke-miterlimit:4;stroke-dasharray:none;stroke-opacity:0.02"
         id="rect1666"
         width="29.810888"
         height="29.810888"
         x="69.839508"
         y="40.709618"
         rx="6.6098609"
         ry="6.6098609" />
      <rect
         ry="6.6098609"
         rx="6.6098609"
         y="40.709618"
         x="69.839508"
         height="29.810888"
         width="29.810888"
         id="rect1668"
         style="fill:none;fill-opacity:1;stroke:#000000;stroke-width:3;stroke-linecap:round;stroke-linejoin:round;stroke-miterlimit:4;stroke-dasharray:none;stroke-opacity:0.02" />
      <rect
         style="fill:none;fill-opacity:1;stroke:#000000;stroke-width:3.4;stroke-linecap:round;stroke-linejoin:round;stroke-miterlimit:4;stroke-dasharray:none;stroke-opacity:0.02"
         id="rect1670"
         width="29.810888"
         height="29.810888"
         x="69.839508"
         y="40.709618"
         rx="6.6098609"
         ry="6.6098609" />
      <rect
         ry="6.6098609"
         rx="6.6098609"
         y="40.709618"
         x="69.839508"
         height="29.810888"
         width="29.810888"
         id="rect1672"
         style="fill:none;fill-opacity:1;stroke:#000000;stroke-width:3.8;stroke-linecap:round;stroke-linejoin:round;stroke-miterlimit:4;stroke-dasharray:none;stroke-opacity:0.02" />
      <rect
         style="fill:none;fill-opacity:1;stroke:#000000;stroke-width:4.2;stroke-linecap:round;stroke-linejoin:round;stroke-miterlimit:4;stroke-dasharray:none;stroke-opacity:0.02"
         id="rect1674"
         width="29.810888"
         height="29.810888"
         x="69.839508"
         y="40.709618"
         rx="6.6098609"
         ry="6.6098609" />
      <rect
         ry="6.6098609"
         rx="6.6098609"
         y="40.709618"
         x="69.839508"
         height="29.810888"
         width="29.810888"
         id="rect1676"
         style="fill:none;fill-opacity:1;stroke:#000000;stroke-width:4.6;stroke-linecap:round;stroke-linejoin:round;stroke-miterlimit:4;stroke-dasharray:none;stroke-opacity:0.02" />
      <rect
         style="fill:none;fill-opacity:1;stroke:#000000;stroke-width:5;stroke-linecap:round;stroke-linejoin:round;stroke-miterlimit:4;stroke-dasharray:none;stroke-opacity:0.02"
         id="rect1678"
         width="29.810888"
         height="29.810888"
         x="69.839508"
         y="40.709618"
         rx="6.6098609"
         ry="6.6098609" />
    </g>
    <rect
       ry="6.4494534"
       rx="6.4494534"
       y="2.5391712"
       x="2.4074187"
       height="29.087439"
       width="29.087439"
       id="rect849"
       style="fill:url(#radialGradient2037);fill-opacity:1;stroke-width:2.68768;stroke-linecap:round;stroke-linejoin:round" />
    <path
       style="opacity:0.2;stroke-width:0.467409"
       d="m 13.394269,7.0701037 c 0.11126,0.1399844 0.267105,0.2773914 0.102246,0.4381969 -0.227222,-0.1465916 -0.457226,-0.2938385 -0.996897,-0.39803 0.121612,0.1400728 0.373363,0.2798752 0.220925,0.4199392 -0.285322,-0.1125847 -0.600115,-0.193551 -0.949427,-0.2410086 0.167261,0.142122 0.306893,0.280642 0.169804,0.3907251 -0.305324,-0.097038 -0.726454,-0.2276425 -1.137484,-0.1150225 l 0.261091,0.2702208 c 0.02888,0.036197 -0.608956,0.028336 -1.029761,0.034696 0.153587,0.2203801 0.310252,0.4339906 0.401679,0.8124909 -0.04171,0.043652 -0.250711,0.019397 -0.4473242,0 0.2015952,0.4384671 0.5518262,0.5481723 0.6335572,0.7358044 -0.123148,0.09633 -0.29342,0.07098 -0.48019,0.0055 0.145143,0.308926 0.449636,0.521626 0.69016,0.7723201 -0.0608,0.04459 -0.168391,0.07107 -0.419939,0.04018 0.222208,0.244011 0.490642,0.467651 0.808839,0.668249 -0.05634,0.06727 -0.24932,0.06309 -0.429069,0.06756 0.288222,0.291436 0.658382,0.442909 1.006028,0.633558 -0.173302,0.122301 -0.296373,0.09478 -0.429067,0.09311 0.245884,0.208686 0.66354,0.315876 1.051671,0.441848 -0.07382,0.118521 -0.147104,0.151131 -0.304911,0.184409 0.410815,0.234864 0.998913,0.128289 1.164873,0.248311 -0.04007,0.118044 -0.153058,0.195119 -0.288481,0.259265 0.661371,0.03967 2.470512,-0.02459 2.817239,-1.438745 -0.677043,-0.768413 -1.912863,-1.6708861 -4.038706,-2.7861988 1.653836,0.5718445 3.145825,1.3337387 4.394745,2.3826938 1.468256,-0.70624 0.455223,-2.4880142 -0.261092,-3.1951829 -0.03632,0.1867318 -0.07716,0.3047894 -0.124156,0.3396017 -0.233235,-0.2582822 -0.42278,-0.5219561 -0.723026,-0.7704955 -9.34e-4,0.1459731 0.07104,0.3041163 -0.107724,0.4199391 C 14.788919,7.5603017 14.570527,7.3600872 14.281623,7.1906255 14.420777,7.4385237 14.305309,7.5132999 14.2305,7.6160412 14.009838,7.4205523 13.801171,7.2234753 13.394271,7.0701124 Z m 8.033605,0 C 21.020972,7.2234612 20.810479,7.4205435 20.589822,7.6160236 20.515002,7.5132792 20.399545,7.4385061 20.538699,7.1906079 20.249793,7.3600767 20.033227,7.5602841 19.872273,7.7839978 19.693523,7.6681802 19.765522,7.5100335 19.764549,7.3640604 19.464303,7.6125999 19.272934,7.8762737 19.039699,8.134556 18.99271,8.0997367 18.951866,7.9816931 18.915543,7.7949541 c -0.716317,0.7071688 -1.727522,2.4889429 -0.259266,3.1951839 1.248919,-1.0489581 2.740909,-1.8108502 4.394747,-2.3826946 -2.125845,1.1153125 -3.361665,2.0177846 -4.038713,2.7862006 0.346728,1.414145 2.155868,1.478415 2.817239,1.438744 -0.135425,-0.06415 -0.248412,-0.14122 -0.28848,-0.259265 0.165954,-0.120022 0.75406,-0.01343 1.164875,-0.248312 -0.15781,-0.03327 -0.232919,-0.0659 -0.306738,-0.184409 0.388132,-0.125976 0.807612,-0.23316 1.053497,-0.441847 -0.132688,0.0016 -0.25759,0.02919 -0.430893,-0.09312 0.347647,-0.190648 0.719633,-0.342123 1.007852,-0.633558 -0.179747,-0.0044 -0.374548,-2.87e-4 -0.430894,-0.06756 0.318199,-0.200597 0.586631,-0.424238 0.808838,-0.66825 -0.251543,0.03089 -0.357307,0.0044 -0.418111,-0.04018 0.240523,-0.2506961 0.54501,-0.4633941 0.690159,-0.7723231 -0.186768,0.0655 -0.357039,0.09086 -0.480191,-0.0055 0.08174,-0.1876333 0.431962,-0.2973367 0.63356,-0.7358038 -0.196615,0.019397 -0.405615,0.043652 -0.447326,0 0.09142,-0.3785039 0.248096,-0.5921108 0.401679,-0.8124909 -0.420804,-0.00636 -1.058643,0.0015 -1.029762,-0.034696 L 24.018708,7.5648846 C 23.607678,7.4522647 23.186549,7.5828864 22.881223,7.6799072 22.744136,7.569831 22.883738,7.4313059 23.051028,7.2891821 22.701715,7.3366328 22.385097,7.417613 22.099775,7.5301907 21.947336,7.3901179 22.19909,7.2503154 22.320699,7.1102515 21.781028,7.2144447 21.55285,7.361697 21.325628,7.5082814 21.16077,7.3474689 21.316661,7.2100761 21.427874,7.0700846 Z m -4.049668,5.8261873 c -1.173324,-0.03106 -2.299665,0.884825 -2.302358,1.416838 -0.0034,0.646436 0.927235,1.308744 2.309662,1.325544 1.411741,0.01028 2.312412,-0.528801 2.316964,-1.195912 0.0051,-0.755823 -1.283118,-1.558145 -2.324268,-1.54647 z m -3.542089,0.449154 c -1.629169,0.03086 -2.874853,1.178392 -2.817239,3.076504 0.06466,0.831632 4.258985,-2.896091 3.534787,-3.019905 -0.245736,-0.04222 -0.484811,-0.061 -0.717548,-0.0566 z m 6.868731,0.0639 c -0.232737,-0.0044 -0.473636,0.01431 -0.719372,0.0566 -0.724199,0.12382 3.47194,3.851535 3.536612,3.019904 0.05761,-1.898114 -1.188072,-3.045647 -2.81724,-3.076506 z m -0.691985,2.31514 a 2.7282477,2.2955212 58.681418 0 0 -1.199564,0.328647 2.7282477,2.2955212 58.681418 1 0 2.970609,4.575504 2.7282477,2.2955212 58.681418 0 0 -1.771045,-4.904151 z m -5.247404,0.127813 a 2.2955212,2.7282477 31.318582 0 0 -1.771045,4.904151 2.2955212,2.7282477 31.318582 1 0 2.970608,-4.575504 2.2955212,2.7282477 31.318582 0 0 -1.199563,-0.328647 z m 9.090754,1.415009 c -1.139273,-0.310638 -0.384593,4.795495 0.542268,4.37649 1.019525,-0.834547 1.347952,-3.278083 -0.542268,-4.37649 z m -13.164157,0.0639 c -1.8902197,1.098406 -1.5617935,3.541941 -0.542269,4.37649 0.926861,0.419005 1.681541,-4.687125 0.542269,-4.37649 z m 6.82126,3.288302 a 2.5464108,2.3894632 0 0 0 -2.621876,2.38817 2.547018,2.390033 0 0 0 5.094036,0 2.5464108,2.3894632 0 0 0 -2.47216,-2.38817 z m 5.554144,0.887346 c -0.596706,0.0159 -1.308368,0.59047 -1.984666,1.367539 -0.788008,0.939261 -1.226689,2.652465 -0.651818,3.204313 0.549651,0.428648 2.024937,0.368593 3.114847,-1.170351 0.791424,-1.033594 0.526924,-2.758858 0.07486,-3.217091 -0.167879,-0.132141 -0.35432,-0.189684 -0.55322,-0.18441 z m -11.431455,0.366984 c -0.213701,-0.0094 -0.414031,0.03531 -0.58974,0.144242 -0.469976,0.363986 -0.556177,1.60337 0.113203,2.820891 0.992531,1.45094 2.390108,1.596393 2.965129,1.243383 0.607805,-0.462424 0.275519,-2.032055 -0.452803,-2.924963 -0.626866,-0.740181 -1.394685,-1.255585 -2.035788,-1.28355 z m 5.813408,4.277894 c -1.016593,-0.02588 -2.575077,0.414607 -2.556147,0.978638 -0.01625,0.384693 1.223764,1.494265 2.488591,1.438747 1.221321,0.02142 2.483659,-1.087044 2.466682,-1.577508 -0.0026,-0.505071 -1.376138,-0.885308 -2.399126,-0.839877 z"
       id="path6" />
    <path
       id="path8"
       style="fill:url(#linearGradient3713);fill-opacity:1;stroke-width:0.119285"
       d="M 50.623047 24.955078 C 51.043361 25.48418 51.630898 26.001579 51.007812 26.609375 C 50.149013 26.055355 49.285795 25.501223 47.246094 25.107422 C 47.70573 25.636798 48.656226 26.165971 48.080078 26.695312 C 47.001692 26.269809 45.808519 25.960592 44.488281 25.78125 C 45.120214 26.31841 45.647034 26.845683 45.128906 27.261719 C 43.974926 26.894955 42.385527 26.400522 40.832031 26.826172 L 41.816406 27.849609 C 41.92557 27.986417 39.514272 27.954478 37.923828 27.978516 C 38.504303 28.811441 39.097835 29.616316 39.443359 31.046875 C 39.285719 31.211863 38.497019 31.120186 37.753906 31.046875 C 38.515841 32.704081 39.839575 33.122868 40.148438 33.832031 C 39.682977 34.196389 39.035977 34.101094 38.330078 33.853516 C 38.878677 35.021113 40.030382 35.822053 40.939453 36.769531 C 40.709635 36.938098 40.308128 37.038625 39.357422 36.921875 C 40.197256 37.844122 41.211424 38.687147 42.414062 39.445312 C 42.201109 39.699939 41.468421 39.688448 40.789062 39.705078 C 41.878394 40.806572 43.281762 41.379042 44.595703 42.099609 C 43.940703 42.561846 43.472205 42.453313 42.970703 42.447266 C 43.900032 43.236 45.480314 43.644968 46.947266 44.121094 C 46.668268 44.569021 46.389416 44.692614 45.792969 44.818359 C 47.345659 45.705751 49.568089 45.30028 50.195312 45.753906 C 50.043882 46.200076 49.617319 46.489965 49.105469 46.732422 C 51.605135 46.882363 58.441481 46.637773 59.751953 41.292969 C 57.193028 38.388719 52.522971 34.979026 44.488281 30.763672 C 50.739004 32.924974 56.379263 35.80693 61.099609 39.771484 C 66.648912 37.102238 62.82257 30.370029 60.115234 27.697266 C 59.977969 28.403004 59.822056 28.848869 59.644531 28.980469 C 58.763017 28.004284 58.042987 27.003815 56.908203 26.064453 C 56.904442 26.616162 57.177551 27.214608 56.501953 27.652344 C 55.893631 26.806812 55.072389 26.052622 53.980469 25.412109 C 54.506405 26.349048 54.069894 26.633159 53.787109 27.021484 C 52.953138 26.282662 52.16094 25.534697 50.623047 24.955078 z M 80.984375 24.955078 C 79.446481 25.534697 78.654288 26.282662 77.820312 27.021484 C 77.537566 26.633156 77.102974 26.349048 77.628906 25.412109 C 76.536986 26.052622 75.713791 26.806812 75.105469 27.652344 C 74.429871 27.214608 74.70296 26.616162 74.699219 26.064453 C 73.564431 27.003815 72.844405 28.004284 71.962891 28.980469 C 71.785291 28.848869 71.629449 28.403004 71.492188 27.697266 C 68.784848 30.370029 64.960463 37.102238 70.509766 39.771484 C 75.230093 35.80693 80.870371 32.924974 87.121094 30.763672 C 79.086404 34.979026 74.414394 38.388719 71.855469 41.292969 C 73.165941 46.637773 80.002283 46.882363 82.501953 46.732422 C 81.990103 46.489965 81.56354 46.200076 81.412109 45.753906 C 82.039333 45.30028 84.263723 45.705751 85.816406 44.818359 C 85.219963 44.692614 84.94111 44.569021 84.662109 44.121094 C 86.129065 43.644968 87.709347 43.236 88.638672 42.447266 C 88.137174 42.453313 87.668672 42.561846 87.013672 42.099609 C 88.32761 41.379042 89.729028 40.806572 90.818359 39.705078 C 90.139001 39.688448 89.406313 39.699939 89.193359 39.445312 C 90.395997 38.687147 91.412119 37.844122 92.251953 36.921875 C 91.301239 37.038625 90.89974 36.938098 90.669922 36.769531 C 91.578993 35.822023 92.728749 35.021113 93.277344 33.853516 C 92.571449 34.101094 91.926394 34.196389 91.460938 33.832031 C 91.769876 33.122868 93.093531 32.70408 93.855469 31.046875 C 93.112353 31.120186 92.323663 31.211863 92.166016 31.046875 C 92.51154 29.616316 93.103123 28.811441 93.683594 27.978516 C 92.093153 27.954478 89.683805 27.986417 89.792969 27.849609 L 90.775391 26.826172 C 89.221891 26.400522 87.6325 26.894955 86.478516 27.261719 C 85.960392 26.845683 86.489157 26.31841 87.121094 25.78125 C 85.800856 25.960592 84.607679 26.269809 83.529297 26.695312 C 82.953149 26.16597 83.903645 25.636798 84.363281 25.107422 C 82.32358 25.501223 81.458409 26.055355 80.599609 26.609375 C 79.976524 26.001579 80.564061 25.48418 80.984375 24.955078 z "
       transform="scale(0.26458333)" />
    <path
       id="path12"
       style="fill:url(#linearGradient2556);fill-opacity:1;stroke-width:0.134742"
       d="M 65.472656 46.970703 C 61.113799 46.964187 56.990488 50.354645 56.980469 52.333984 C 56.967618 54.777207 60.486017 57.278297 65.710938 57.341797 C 71.046652 57.38065 74.451546 55.339724 74.46875 52.818359 C 74.488026 49.961717 69.616703 46.928519 65.681641 46.972656 C 65.61235 46.970822 65.541844 46.970807 65.472656 46.970703 z M 52.621094 48.671875 C 46.30201 48.63675 41.422888 52.998708 41.644531 60.300781 C 41.888916 63.443965 57.744939 49.354666 55.007812 48.886719 C 54.195144 48.747077 53.397122 48.676189 52.621094 48.671875 z M 77.923828 48.912109 C 77.1478 48.916423 76.349778 48.987311 75.537109 49.126953 C 72.799983 49.594904 88.656006 63.684195 88.900391 60.541016 C 89.122031 53.238939 84.242911 48.876983 77.923828 48.912109 z M 75.357422 57.660156 A 10.311487 8.6759849 58.681485 0 0 71.105469 58.910156 A 10.311487 8.6759849 58.681485 1 0 82.333984 76.203125 A 10.311487 8.6759849 58.681485 0 0 75.357422 57.660156 z M 56.087891 58.140625 A 8.6759845 10.311487 31.318515 0 0 49.111328 76.685547 A 8.6759845 10.311487 31.318515 1 0 60.339844 59.392578 A 8.6759845 10.311487 31.318515 0 0 56.087891 58.140625 z M 89.783203 63.447266 C 86.039106 63.510431 88.821219 81.57516 92.214844 80.041016 C 96.068167 76.886815 97.310147 67.649503 90.166016 63.498047 C 90.031456 63.461358 89.90398 63.445228 89.783203 63.447266 z M 40.792969 63.6875 C 40.672192 63.685463 40.544716 63.701592 40.410156 63.738281 C 33.266029 67.889737 34.508002 77.127049 38.361328 80.28125 C 41.754957 81.815402 44.537063 63.750662 40.792969 63.6875 z M 65.910156 76.154297 A 9.6242283 9.0310428 0 0 0 56.285156 85.191406 A 9.6242283 9.0310428 0 1 0 75.535156 85.191406 A 9.6242283 9.0310428 0 0 0 65.910156 76.154297 z M 87.181641 79.521484 C 84.926381 79.581308 82.23772 81.754444 79.681641 84.691406 C 76.703343 88.241373 75.046009 94.716998 77.21875 96.802734 C 79.296164 98.422821 84.872843 98.19538 88.992188 92.378906 C 91.983396 88.472398 90.980069 81.948701 89.271484 80.216797 C 88.636964 79.717361 87.933394 79.501543 87.181641 79.521484 z M 43.677734 80.904297 C 42.983135 80.91881 42.333034 81.092921 41.751953 81.453125 C 39.975677 82.82882 39.649762 87.511631 42.179688 92.113281 C 45.930986 97.597149 51.207559 98.1467 53.380859 96.8125 C 55.678083 95.064744 54.424584 89.136493 51.671875 85.761719 C 49.2039 82.847635 46.158447 80.852466 43.677734 80.904297 z M 66.691406 97.060547 C 66.441018 97.058975 66.192823 97.063485 65.951172 97.074219 C 62.108931 96.976401 56.217554 98.639714 56.289062 100.77148 C 56.22763 102.22545 60.91486 106.42081 65.695312 106.21094 C 70.311325 106.29191 75.079726 102.10372 75.015625 100.25 C 75.006094 98.460378 70.447233 97.084127 66.691406 97.060547 z "
       transform="scale(0.26458333)" />
  </g>
</svg>
