<?xml version="1.0" encoding="UTF-8" standalone="no"?>
<svg
   xmlns:dc="http://purl.org/dc/elements/1.1/"
   xmlns:cc="http://creativecommons.org/ns#"
   xmlns:rdf="http://www.w3.org/1999/02/22-rdf-syntax-ns#"
   xmlns:svg="http://www.w3.org/2000/svg"
   xmlns="http://www.w3.org/2000/svg"
   xmlns:xlink="http://www.w3.org/1999/xlink"
   xmlns:sodipodi="http://sodipodi.sourceforge.net/DTD/sodipodi-0.dtd"
   xmlns:inkscape="http://www.inkscape.org/namespaces/inkscape"
   width="128"
   height="128"
   viewBox="0 0 33.866666 33.866667"
   version="1.1"
   id="svg6"
   sodipodi:docname="zeroinstall.svg"
   inkscape:version="1.0.1 (3bc2e813f5, 2020-09-07)">
  <metadata
     id="metadata112">
    <rdf:RDF>
      <cc:Work
         rdf:about="">
        <dc:format>image/svg+xml</dc:format>
        <dc:type
           rdf:resource="http://purl.org/dc/dcmitype/StillImage" />
        <dc:title></dc:title>
      </cc:Work>
    </rdf:RDF>
  </metadata>
  <defs
     id="defs2">
    <linearGradient
       inkscape:collect="always"
       id="linearGradient970">
      <stop
         style="stop-color:#ffffff;stop-opacity:1;"
         offset="0"
         id="stop966" />
      <stop
         style="stop-color:#b6e7fd;stop-opacity:1"
         offset="1"
         id="stop968" />
    </linearGradient>
    <linearGradient
       inkscape:collect="always"
       id="linearGradient9598">
      <stop
         style="stop-color:#e6f9ff;stop-opacity:1"
         offset="0"
         id="stop9594" />
      <stop
         style="stop-color:#caf9fe;stop-opacity:1"
         offset="1"
         id="stop9596" />
    </linearGradient>
    <linearGradient
       gradientTransform="translate(0,-896)"
       gradientUnits="userSpaceOnUse"
       y2="992"
       x2="32"
       y1="32"
       x1="32"
       id="lgrad">
      <stop
         id="stop2"
         stop-color="#f8f8f8"
         offset="0%" />
      <stop
         id="stop4"
         stop-color="#ccc"
         offset="100%" />
    </linearGradient>
    <radialGradient
       gradientTransform="translate(0,-896)"
       gradientUnits="userSpaceOnUse"
       r="440"
       cy="512"
       cx="512"
       fy="494.39999"
       fx="512"
       y2="100%"
       x2="0%"
       y1="0%"
       x1="0%"
       id="rgrad">
      <stop
         id="stop7"
         stop-color="#00f0ff"
         offset="0%" />
      <stop
         id="stop9"
         stop-color="#0070e0"
         offset="100%" />
    </radialGradient>
    <radialGradient
       id="rgrad-3"
       x1="0%"
       y1="0%"
       x2="0%"
       y2="100%"
       fx="523.57568"
       fy="306.1813"
       cx="523.57568"
       cy="306.1813"
       r="440"
       gradientUnits="userSpaceOnUse"
       gradientTransform="matrix(0.03099337,0,0,0.03032562,85.198869,42.985295)">
      <stop
         offset="0%"
         stop-color="#00f0ff"
         id="stop7-6"
         style="stop-color:#03d7e4;stop-opacity:1" />
      <stop
         offset="100%"
         stop-color="#0070e0"
         id="stop9-7" />
    </radialGradient>
    <filter
       y="-0.012004"
       x="-0.011996"
       width="1.023993"
       height="1.024007"
       color-interpolation-filters="sRGB"
       id="b">
      <feGaussianBlur
         id="feGaussianBlur7"
         stdDeviation=".47521291" />
    </filter>
    <linearGradient
       y2="-319.05783"
       y1="-73.89106"
       x2="-376.36255"
       x1="-350.6571"
       gradientUnits="userSpaceOnUse"
       id="k">
      <stop
         id="stop50"
         stop-color="#83a3d4"
         offset="0" />
      <stop
         id="stop52"
         stop-color="#6bb5e3"
         offset="1" />
    </linearGradient>
    <linearGradient
       y2="-156.88734"
       y1="-12.925184"
       x2="10.51211"
       x1="-206.76952"
       gradientUnits="userSpaceOnUse"
       id="i">
      <stop
         id="stop40"
         stop-color="#70c2bd"
         offset="0" />
      <stop
         id="stop42"
         stop-color="#67c381"
         offset="1" />
    </linearGradient>
    <linearGradient
       y2="-149.18999"
       y1="117.30138"
       x2="148.51404"
       x1="134.56509"
       gradientUnits="userSpaceOnUse"
       id="e">
      <stop
         id="stop20"
         stop-color="#faaa32"
         offset="0" />
      <stop
         id="stop22"
         stop-color="#fdc22b"
         offset="1" />
    </linearGradient>
    <linearGradient
       y2="144.89951"
       y1="144.89951"
       x2="123.35784"
       x1="-146.054"
       gradientUnits="userSpaceOnUse"
       id="c">
      <stop
         id="stop10"
         stop-color="#a0cf63"
         offset="0" />
      <stop
         id="stop12"
         stop-color="#c4da45"
         offset="1" />
    </linearGradient>
    <linearGradient
       y2="-150.01163"
       y1="-12.740612"
       x2="28.495264"
       x1="206.7137"
       gradientUnits="userSpaceOnUse"
       id="m">
      <stop
         id="stop60"
         stop-color="#b28cc0"
         offset="0" />
      <stop
         id="stop62"
         stop-color="#9a8ec4"
         offset="1" />
    </linearGradient>
    <linearGradient
       y2="76.406288"
       y1="147.05296"
       x2="-19.617525"
       x1="189.94229"
       gradientUnits="userSpaceOnUse"
       id="q">
      <stop
         id="stop80"
         stop-color="#f48155"
         offset="0" />
      <stop
         id="stop82"
         stop-color="#f16168"
         offset="1" />
    </linearGradient>
    <linearGradient
       y2="34.179653"
       y1="308.30261"
       x2="21.156284"
       x1="116.504"
       gradientUnits="userSpaceOnUse"
       id="l">
      <stop
         id="stop55"
         stop-color="#735194"
         offset="0" />
      <stop
         id="stop57"
         stop-color="#525da3"
         offset="1" />
    </linearGradient>
    <linearGradient
       y2="-107.16671"
       y1="111.50156"
       x2="123.3283"
       x1="30.131145"
       gradientUnits="userSpaceOnUse"
       id="j">
      <stop
         id="stop45"
         stop-color="#416db9"
         offset="0" />
      <stop
         id="stop47"
         stop-color="#337e8d"
         offset="1" />
    </linearGradient>
    <linearGradient
       y2="0.071801998"
       y1="133.12218"
       x2="205.55051"
       x1="-103.67039"
       gradientUnits="userSpaceOnUse"
       id="h">
      <stop
         id="stop35"
         stop-color="#2e9274"
         offset="0" />
      <stop
         id="stop37"
         stop-color="#469d3c"
         offset="1" />
    </linearGradient>
    <linearGradient
       y2="-100.48971"
       y1="120.22743"
       x2="146.80986"
       x1="26.97802"
       gradientUnits="userSpaceOnUse"
       id="f">
      <stop
         id="stop25"
         stop-color="#ec4001"
         offset="0" />
      <stop
         id="stop27"
         stop-color="#fb6f01"
         offset="1" />
    </linearGradient>
    <linearGradient
       y2="73.499695"
       y1="73.499695"
       x2="309.397"
       x1="-14.298616"
       gradientUnits="userSpaceOnUse"
       id="d">
      <stop
         id="stop15"
         stop-color="#58a920"
         offset="0" />
      <stop
         id="stop17"
         stop-color="#98b811"
         offset="1" />
    </linearGradient>
    <linearGradient
       y2="144.897"
       y1="144.897"
       x2="145.987"
       x1="-123.11901"
       gradientUnits="userSpaceOnUse"
       id="o">
      <stop
         id="stop70"
         stop-color="#d287af"
         offset="0" />
      <stop
         id="stop72"
         stop-color="#e07993"
         offset="1" />
    </linearGradient>
    <linearGradient
       y2="-71.695564"
       y1="-71.695564"
       x2="117.81888"
       x1="-205.78"
       gradientUnits="userSpaceOnUse"
       id="p">
      <stop
         id="stop75"
         stop-color="#bd090f"
         offset="0" />
      <stop
         id="stop77"
         stop-color="#e11f07"
         offset="1" />
    </linearGradient>
    <linearGradient
       y2="-143.7106"
       y1="-14.582834"
       x2="-308.72031"
       x1="0.176406"
       gradientUnits="userSpaceOnUse"
       id="n">
      <stop
         id="stop65"
         stop-color="#c23857"
         offset="0" />
      <stop
         id="stop67"
         stop-color="#914475"
         offset="1" />
    </linearGradient>
    <linearGradient
       y2="319.1076"
       y1="108.52529"
       x2="117.31723"
       x1="41.409683"
       gradientUnits="userSpaceOnUse"
       id="g">
      <stop
         id="stop30"
         stop-color="#e69e08"
         offset="0" />
      <stop
         id="stop32"
         stop-color="#cbc507"
         offset="1" />
    </linearGradient>
    <clipPath
       clipPathUnits="userSpaceOnUse"
       id="clipPath988">
      <path
         inkscape:connector-curvature="0"
         id="path990"
         d="m 35.277533,4.8347742 c -1.06882,0 -1.309413,0.04675 -2.013853,0.392625 -1.020627,0.501128 -1.883036,1.364674 -2.336311,2.339206 -0.481406,1.03502 -0.568641,2.6184458 -0.197896,3.5922488 0.140901,0.370015 1.429682,2.698881 2.86402,5.175363 1.434338,2.476487 2.611234,4.595724 2.61541,4.709424 0.0042,0.113688 -3.531125,6.334964 -7.856213,13.824976 l -7.863836,13.618156 -7.139025,0.03916 -7.139025,0.03916 -0.8073291,0.376593 c -1.051601,0.490639 -1.970446,1.40527 -2.445113,2.434046 -0.3216,0.696997 -0.379476,0.996457 -0.380012,1.966023 0,0.971641 0.05616,1.265185 0.376327,1.951045 0.637629,1.365989 1.898733,2.419094 3.2892361,2.746809 0.281273,0.06633 10.618178,0.124914 23.325022,0.132473 l 22.819654,0.01361 0.256479,-0.283805 c 0.216038,-0.239093 0.255118,-0.487596 0.248882,-1.581025 -0.0189,-3.316188 -1.931637,-6.482045 -4.549373,-7.530599 -0.489196,-0.195931 -1.533509,-0.231269 -8.637256,-0.29144 l -8.08091,-0.0683 2.306623,-3.969369 c 14.3518,-24.696073 18.987433,-32.733748 19.206907,-33.302314 0.20262,-0.52495 0.24771,-0.909294 0.204472,-1.7492148 -0.09808,-1.904613 -1.044956,-3.351023 -2.737875,-4.18224 -0.704012,-0.345675 -0.945268,-0.392625 -2.010963,-0.392625 -1.052802,0 -1.321515,0.05095 -2.057484,0.390785 -1.167076,0.538919 -1.872808,1.368347 -3.31446,3.895786 -0.660329,1.1576538 -1.242524,2.1047838 -1.293778,2.1047838 -0.05125,0 -0.630999,-0.945267 -1.28852,-2.1005778 -1.448648,-2.545391 -2.050182,-3.257155 -3.253497,-3.849543 -0.812451,-0.399969 -1.01046,-0.441249 -2.110307,-0.441249 z M 49.110404,23.744718 c -0.285052,-0.0087 -1.023209,0.716568 -1.535558,1.509279 -1.775618,2.747225 -2.483305,8.398153 -1.495344,11.941736 0.187616,0.672892 2.517264,4.805847 10.124725,17.962541 5.434495,9.398653 10.088246,17.318774 10.3418,17.600398 1.359961,1.510458 3.608912,1.953759 5.532775,1.090367 1.81737,-0.815577 2.951799,-2.750339 2.783338,-4.747257 -0.04135,-0.490442 -0.197291,-1.164166 -0.346356,-1.497188 -0.149102,-0.333014 -1.413335,-2.573367 -2.80936,-4.978533 l -2.538146,-4.373023 4.245585,-0.06724 4.245578,-0.06724 0.80731,-0.376856 c 1.05162,-0.490659 1.97046,-1.405301 2.44512,-2.434077 0.3216,-0.696994 0.37922,-0.996189 0.37974,-1.965762 0,-0.971433 -0.0559,-1.265326 -0.37579,-1.951045 -0.49034,-1.050928 -1.40549,-1.970162 -2.43432,-2.445638 l -0.82208,-0.3801 -7.067028,-0.03916 -7.067025,-0.03916 -7.128514,-12.368531 C 52.476142,29.315485 49.197231,23.747405 49.110404,23.744688 Z M 15.439636,60.404073 c -0.763389,0.0016 -1.409144,0.06781 -1.678779,0.206022 -0.288567,0.147968 -0.803312,0.910405 -1.996774,2.957843 -2.398908,4.115433 -2.580215,4.526623 -2.57704,5.844722 0.0049,2.086968 1.140506,3.734498 3.126035,4.535698 0.906267,0.365707 2.788868,0.284787 3.720231,-0.159799 1.242573,-0.593091 1.82259,-1.364647 4.446614,-5.914889 l 2.444326,-4.238441 -0.216302,-0.385009 c -0.575391,-1.024661 -2.29615,-2.042038 -4.291037,-2.537091 -0.820147,-0.203528 -1.99578,-0.310526 -2.977289,-0.309052 z"
         style="opacity:1;fill:url(#linearGradient992);fill-opacity:1;stroke:none;stroke-width:0.10764397;stroke-linecap:round;stroke-linejoin:round;stroke-miterlimit:4;stroke-dasharray:none;stroke-opacity:1" />
    </clipPath>
    <linearGradient
       inkscape:collect="always"
       xlink:href="#linearGradient9598"
       id="linearGradient992"
       gradientUnits="userSpaceOnUse"
       gradientTransform="matrix(3.7795276,0,0,3.7795276,-23.738441,-24.999971)"
       x1="17.757063"
       y1="25.057371"
       x2="17.757063"
       y2="11.635189" />
    <linearGradient
       id="a"
       gradientUnits="userSpaceOnUse"
       x1="-15.855"
       x2="-27.194"
       y1="61.602001"
       y2="37.011002"
       gradientTransform="matrix(0.99999017,0,0,0.99999017,34.395662,-31.749687)">
      <stop
         id="stop48"
         stop-color="#08bcfe"
         offset="0" />
      <stop
         id="stop46"
         stop-color="#0d6be6"
         offset="1" />
    </linearGradient>
    <linearGradient
       id="b-3"
       gradientUnits="userSpaceOnUse"
       x1="-9.776"
       x2="-9.776"
       y1="50.637001"
       y2="53.326"
       gradientTransform="matrix(0.99999017,0,0,0.99999017,34.395662,-31.749687)">
      <stop
         offset="0"
         stop-color="#d0edff"
         id="stop35-6" />
      <stop
         offset=".25"
         stop-color="#d1edff"
         id="stop37-7" />
      <stop
         offset=".5"
         stop-color="#ceebff"
         id="stop39" />
      <stop
         offset=".75"
         stop-color="#9acfff"
         id="stop41" />
      <stop
         offset="1"
         stop-color="#52a7ff"
         id="stop43" />
    </linearGradient>
    <linearGradient
       id="c-5"
       gradientUnits="userSpaceOnUse"
       x1="-15.421"
       x2="-13.087"
       y1="50.25"
       y2="48.944"
       gradientTransform="matrix(0.99999017,0,0,0.99999017,34.395662,-31.749687)">
      <stop
         offset="0"
         stop-color="#bee1ff"
         id="stop2-3" />
      <stop
         offset=".25"
         stop-color="#e6f4ff"
         id="stop4-5" />
      <stop
         offset=".5"
         stop-color="#e9f5ff"
         id="stop6" />
      <stop
         offset=".75"
         stop-color="#d5ecff"
         id="stop8" />
      <stop
         offset="1"
         stop-color="#8ec8ff"
         id="stop10-6" />
    </linearGradient>
    <linearGradient
       id="d-2"
       gradientUnits="userSpaceOnUse"
       x1="-22.393999"
       x2="-19.941"
       y1="50.338001"
       y2="51.808998"
       gradientTransform="matrix(0.99999017,0,0,0.99999017,34.395662,-31.749687)">
      <stop
         offset="0"
         stop-color="#e7f5ff"
         id="stop13" />
      <stop
         offset=".25"
         stop-color="#ebf7ff"
         id="stop15-9" />
      <stop
         offset=".5"
         stop-color="#e1f2ff"
         id="stop17-1" />
      <stop
         offset=".75"
         stop-color="#addcff"
         id="stop19" />
      <stop
         offset="1"
         stop-color="#96d3ff"
         id="stop21" />
    </linearGradient>
    <linearGradient
       id="e-2"
       gradientUnits="userSpaceOnUse"
       x1="-22.169001"
       x2="-22.169001"
       y1="50.671001"
       y2="53.334999"
       gradientTransform="matrix(0.99999017,0,0,0.99999017,34.395662,-31.749687)">
      <stop
         offset="0"
         stop-color="#e8f6ff"
         id="stop24" />
      <stop
         offset=".25"
         stop-color="#ebf7ff"
         id="stop26" />
      <stop
         offset=".5"
         stop-color="#e9f6ff"
         id="stop28" />
      <stop
         offset=".75"
         stop-color="#d2edff"
         id="stop30-7" />
      <stop
         offset="1"
         stop-color="#b4e1ff"
         id="stop32-0" />
    </linearGradient>
    <radialGradient
       inkscape:collect="always"
       xlink:href="#a"
       id="radialGradient1003"
       cx="16.933332"
       cy="14.760176"
       fx="16.933332"
       fy="14.760176"
       r="14.543357"
       gradientUnits="userSpaceOnUse"
       gradientTransform="matrix(-1.6730642,0,0,-1.735591,45.263885,32.022228)" />
    <linearGradient
       id="g-3"
       gradientUnits="userSpaceOnUse"
       x1="0"
       y1="506"
       x2="0"
       y2="1588"
       gradientTransform="matrix(0.01120715,0,0,0.01120715,6.3002577,7.1601729)">
      <stop
         offset="0"
         stop-color="#46D4FF"
         id="stop2-6" />
      <stop
         offset="1"
         stop-color="#1792FF"
         id="stop4-7" />
    </linearGradient>
    <radialGradient
       inkscape:collect="always"
       xlink:href="#linearGradient970"
       id="radialGradient972"
       cx="15.086295"
       cy="15.278433"
       fx="15.086295"
       fy="15.278433"
       r="11.474874"
       gradientTransform="matrix(1.5208284,0.6434475,-0.24380101,0.5762389,-4.8954758,-2.4293645)"
       gradientUnits="userSpaceOnUse" />
  </defs>
  <sodipodi:namedview
     id="base"
     pagecolor="#ffffff"
     bordercolor="#666666"
     borderopacity="1.0"
     inkscape:pageopacity="0.0"
     inkscape:pageshadow="2"
     inkscape:zoom="1.2705078"
     inkscape:cx="100.82755"
     inkscape:cy="88.090512"
     inkscape:document-units="mm"
     inkscape:current-layer="layer1"
     showgrid="false"
     units="px"
     inkscape:window-width="1514"
     inkscape:window-height="701"
     inkscape:window-x="362"
     inkscape:window-y="136"
     inkscape:window-maximized="0"
     inkscape:document-rotation="0" />
  <g
     inkscape:label="Layer 1"
     inkscape:groupmode="layer"
     id="layer1">
    <g
       id="g1702"
       transform="matrix(0.97573206,0,0,0.97573206,-65.748383,-37.203094)"
       style="opacity:0.29676508">
      <rect
         style="fill:none;fill-opacity:1;stroke:#000000;stroke-width:0.1;stroke-linecap:round;stroke-linejoin:round;stroke-miterlimit:4;stroke-dasharray:none;stroke-opacity:0.02000002"
         id="rect1634"
         width="29.810888"
         height="29.810888"
         x="69.839508"
         y="40.709618"
         rx="6.6098609"
         ry="6.6098609" />
      <rect
         ry="6.6098609"
         rx="6.6098609"
         y="40.709618"
         x="69.839508"
         height="29.810888"
         width="29.810888"
         id="rect1638"
         style="fill:none;fill-opacity:1;stroke:#000000;stroke-width:0.2;stroke-linecap:round;stroke-linejoin:round;stroke-miterlimit:4;stroke-dasharray:none;stroke-opacity:0.02000002" />
      <rect
         style="fill:none;fill-opacity:1;stroke:#000000;stroke-width:0.30000001;stroke-linecap:round;stroke-linejoin:round;stroke-miterlimit:4;stroke-dasharray:none;stroke-opacity:0.02000002"
         id="rect1640"
         width="29.810888"
         height="29.810888"
         x="69.839508"
         y="40.709618"
         rx="6.6098609"
         ry="6.6098609" />
      <rect
         ry="6.6098609"
         rx="6.6098609"
         y="40.709618"
         x="69.839508"
         height="29.810888"
         width="29.810888"
         id="rect1642"
         style="fill:none;fill-opacity:1;stroke:#000000;stroke-width:0.40000001;stroke-linecap:round;stroke-linejoin:round;stroke-miterlimit:4;stroke-dasharray:none;stroke-opacity:0.02000002" />
      <rect
         style="fill:none;fill-opacity:1;stroke:#000000;stroke-width:0.5;stroke-linecap:round;stroke-linejoin:round;stroke-miterlimit:4;stroke-dasharray:none;stroke-opacity:0.02000002"
         id="rect1644"
         width="29.810888"
         height="29.810888"
         x="69.839508"
         y="40.709618"
         rx="6.6098609"
         ry="6.6098609" />
      <rect
         ry="6.6098609"
         rx="6.6098609"
         y="40.709618"
         x="69.839508"
         height="29.810888"
         width="29.810888"
         id="rect1646"
         style="fill:none;fill-opacity:1;stroke:#000000;stroke-width:0.60000002;stroke-linecap:round;stroke-linejoin:round;stroke-miterlimit:4;stroke-dasharray:none;stroke-opacity:0.02000002" />
      <rect
         style="fill:none;fill-opacity:1;stroke:#000000;stroke-width:0.69999999;stroke-linecap:round;stroke-linejoin:round;stroke-miterlimit:4;stroke-dasharray:none;stroke-opacity:0.02000002"
         id="rect1648"
         width="29.810888"
         height="29.810888"
         x="69.839508"
         y="40.709618"
         rx="6.6098609"
         ry="6.6098609" />
      <rect
         ry="6.6098609"
         rx="6.6098609"
         y="40.709618"
         x="69.839508"
         height="29.810888"
         width="29.810888"
         id="rect1650"
         style="fill:none;fill-opacity:1;stroke:#000000;stroke-width:0.80000001;stroke-linecap:round;stroke-linejoin:round;stroke-miterlimit:4;stroke-dasharray:none;stroke-opacity:0.02000002" />
      <rect
         style="fill:none;fill-opacity:1;stroke:#000000;stroke-width:1;stroke-linecap:round;stroke-linejoin:round;stroke-miterlimit:4;stroke-dasharray:none;stroke-opacity:0.02000002"
         id="rect1652"
         width="29.810888"
         height="29.810888"
         x="69.839508"
         y="40.709618"
         rx="6.6098609"
         ry="6.6098609" />
      <rect
         ry="6.6098609"
         rx="6.6098609"
         y="40.709618"
         x="69.839508"
         height="29.810888"
         width="29.810888"
         id="rect1654"
         style="fill:none;fill-opacity:1;stroke:#000000;stroke-width:1.20000005;stroke-linecap:round;stroke-linejoin:round;stroke-miterlimit:4;stroke-dasharray:none;stroke-opacity:0.02000002" />
      <rect
         style="fill:none;fill-opacity:1;stroke:#000000;stroke-width:1.39999998;stroke-linecap:round;stroke-linejoin:round;stroke-miterlimit:4;stroke-dasharray:none;stroke-opacity:0.02000002"
         id="rect1656"
         width="29.810888"
         height="29.810888"
         x="69.839508"
         y="40.709618"
         rx="6.6098609"
         ry="6.6098609" />
      <rect
         ry="6.6098609"
         rx="6.6098609"
         y="40.709618"
         x="69.839508"
         height="29.810888"
         width="29.810888"
         id="rect1658"
         style="fill:none;fill-opacity:1;stroke:#000000;stroke-width:1.60000002;stroke-linecap:round;stroke-linejoin:round;stroke-miterlimit:4;stroke-dasharray:none;stroke-opacity:0.02000002" />
      <rect
         style="fill:none;fill-opacity:1;stroke:#000000;stroke-width:1.79999995;stroke-linecap:round;stroke-linejoin:round;stroke-miterlimit:4;stroke-dasharray:none;stroke-opacity:0.02000002"
         id="rect1660"
         width="29.810888"
         height="29.810888"
         x="69.839508"
         y="40.709618"
         rx="6.6098609"
         ry="6.6098609" />
      <rect
         ry="6.6098609"
         rx="6.6098609"
         y="40.709618"
         x="69.839508"
         height="29.810888"
         width="29.810888"
         id="rect1662"
         style="fill:none;fill-opacity:1;stroke:#000000;stroke-width:2;stroke-linecap:round;stroke-linejoin:round;stroke-miterlimit:4;stroke-dasharray:none;stroke-opacity:0.02000002" />
      <rect
         style="fill:none;fill-opacity:1;stroke:#000000;stroke-width:2.20000005;stroke-linecap:round;stroke-linejoin:round;stroke-miterlimit:4;stroke-dasharray:none;stroke-opacity:0.02000002"
         id="rect1664"
         width="29.810888"
         height="29.810888"
         x="69.839508"
         y="40.709618"
         rx="6.6098609"
         ry="6.6098609" />
      <rect
         ry="6.6098609"
         rx="6.6098609"
         y="40.709618"
         x="69.839508"
         height="29.810888"
         width="29.810888"
         id="rect1666"
         style="fill:none;fill-opacity:1;stroke:#000000;stroke-width:2.5999999;stroke-linecap:round;stroke-linejoin:round;stroke-miterlimit:4;stroke-dasharray:none;stroke-opacity:0.02000002" />
      <rect
         style="fill:none;fill-opacity:1;stroke:#000000;stroke-width:3;stroke-linecap:round;stroke-linejoin:round;stroke-miterlimit:4;stroke-dasharray:none;stroke-opacity:0.02000002"
         id="rect1668"
         width="29.810888"
         height="29.810888"
         x="69.839508"
         y="40.709618"
         rx="6.6098609"
         ry="6.6098609" />
      <rect
         ry="6.6098609"
         rx="6.6098609"
         y="40.709618"
         x="69.839508"
         height="29.810888"
         width="29.810888"
         id="rect1670"
         style="fill:none;fill-opacity:1;stroke:#000000;stroke-width:3.4000001;stroke-linecap:round;stroke-linejoin:round;stroke-miterlimit:4;stroke-dasharray:none;stroke-opacity:0.02000002" />
      <rect
         style="fill:none;fill-opacity:1;stroke:#000000;stroke-width:3.79999995;stroke-linecap:round;stroke-linejoin:round;stroke-miterlimit:4;stroke-dasharray:none;stroke-opacity:0.02000002"
         id="rect1672"
         width="29.810888"
         height="29.810888"
         x="69.839508"
         y="40.709618"
         rx="6.6098609"
         ry="6.6098609" />
      <rect
         ry="6.6098609"
         rx="6.6098609"
         y="40.709618"
         x="69.839508"
         height="29.810888"
         width="29.810888"
         id="rect1674"
         style="fill:none;fill-opacity:1;stroke:#000000;stroke-width:4.19999981;stroke-linecap:round;stroke-linejoin:round;stroke-miterlimit:4;stroke-dasharray:none;stroke-opacity:0.02000002" />
      <rect
         style="fill:none;fill-opacity:1;stroke:#000000;stroke-width:4.5999999;stroke-linecap:round;stroke-linejoin:round;stroke-miterlimit:4;stroke-dasharray:none;stroke-opacity:0.02000002"
         id="rect1676"
         width="29.810888"
         height="29.810888"
         x="69.839508"
         y="40.709618"
         rx="6.6098609"
         ry="6.6098609" />
      <rect
         ry="6.6098609"
         rx="6.6098609"
         y="40.709618"
         x="69.839508"
         height="29.810888"
         width="29.810888"
         id="rect1678"
         style="fill:none;fill-opacity:1;stroke:#000000;stroke-width:5;stroke-linecap:round;stroke-linejoin:round;stroke-miterlimit:4;stroke-dasharray:none;stroke-opacity:0.02000002" />
    </g>
    <rect
       style="fill:url(#radialGradient1003);fill-opacity:1;stroke-width:0.99999017"
       id="rect51"
       y="2.3899767"
       x="2.389976"
       width="29.086714"
       rx="6.4489365"
       height="29.086714" />
    <path
       fill="url(#g)"
       d="m 27.357497,22.56481 c -1.056398,-1.949405 -1.96495,-3.342858 -3.478722,-4.758142 -0.486906,-0.455222 -0.948135,-0.86202 -1.428352,-1.227172 l 5.55e-4,1.11e-4 c 0,0 -0.0038,-0.0027 -0.01077,-0.0078 -0.0087,-0.0066 -0.01733,-0.01312 -0.02601,-0.01969 -0.178239,-0.137617 -0.934822,-0.774241 -0.66602,-1.477119 0.294973,-0.771299 1.74325,-2.114656 1.74325,-2.114656 0,0 -1.490084,0.292166 -2.915029,0.383572 -1.337328,0.08579 -1.650138,1.297594 -1.874761,1.407525 -0.720233,-0.206167 -1.541998,-0.387981 -2.503055,-0.551034 -3.324141,-0.563977 -6.137472,0.335049 -7.5491815,1.314879 -1.8503111,1.28425 -2.3360975,2.057264 -2.4886367,2.655814 -0.7610808,0.275164 -0.6889609,1.70991 -0.3095432,2.176071 0.2367177,0.290825 1.0244574,-0.104103 1.6599252,-0.365478 0.6681147,-0.274809 0.7196007,-0.424289 2.5455142,-0.696726 0.840044,-0.125341 1.724141,-0.161303 2.382361,-0.166829 0.256139,0.540858 0.892984,1.652607 1.996362,2.185866 1.489811,0.720015 4.798416,0.785199 4.798416,0.785199 0,0 -0.870089,-0.740851 -1.727536,-1.10229 -0.847877,-0.357405 -2.002378,-1.202128 -2.025174,-1.591039 l 0.004,3.71e-4 c 1.078049,0.204844 2.019695,0.352667 4.271671,1.215135 1.970385,0.754622 3.316308,1.852048 3.316308,1.852048 0,0 0.847228,-1.090836 -3.555675,-3.437439 -1.886865,-1.005637 -3.655565,-0.853174 -5.836969,-0.958969 -2.384388,-0.115646 -4.1412895,0.19051 -4.1412895,0.19051 0,0 0.04915,-1.05949 1.8492135,-1.90387 1.565258,-0.734247 4.027715,-0.857135 6.853822,-0.136167 3.99267,1.018574 5.354395,2.752992 7.071846,4.545318 1.827965,1.907682 3.408611,5.118137 3.408611,5.118137 0,0 -0.17858,-1.818263 -1.365143,-3.316051 z"
       id="path141"
       style="fill:#000080;stroke-width:0.0112071;fill-opacity:0.25815827"
       sodipodi:nodetypes="csccccscscsscccscccsccscscccscccc" />
    <path
       fill="url(#g)"
       d="M 27.14447,21.566184 C 26.088072,19.616779 25.17952,18.223326 23.665748,16.808042 23.178842,16.35282 22.717613,15.946022 22.237396,15.58087 l 5.55e-4,1.11e-4 c 0,0 -0.0038,-0.0027 -0.01077,-0.0078 -0.0087,-0.0066 -0.01733,-0.01312 -0.02601,-0.01969 -0.178239,-0.137617 -0.934822,-0.774241 -0.66602,-1.477119 0.294973,-0.771299 1.956277,-1.11603 1.956277,-1.11603 0,0 -0.814323,-0.27666 -2.239268,-0.185254 -1.337328,0.08579 -2.538926,0.867794 -2.763549,0.977725 -0.720233,-0.206167 -1.541998,-0.387981 -2.503055,-0.551034 -3.324141,-0.563977 -6.137472,0.335049 -7.5491811,1.314879 -1.8503115,1.28425 -1.799119,2.480905 -1.9516582,3.079455 -0.1097622,0.430714 -1.2259398,1.286269 -0.8465221,1.75243 0.2367177,0.290825 1.0244574,-0.104103 1.6599252,-0.365478 0.6681147,-0.274809 0.7196002,-0.424289 2.5455142,-0.696726 0.840044,-0.125341 1.724141,-0.161303 2.382361,-0.166829 0.256139,0.540858 0.892984,1.652607 1.996362,2.185866 1.489811,0.720015 3.350993,0.710958 3.350993,0.710958 0,0 -1.069542,-0.444341 -1.727536,-1.10229 -0.447794,-0.447759 -0.554955,-1.127887 -0.577751,-1.516798 l 0.004,3.71e-4 c 1.078049,0.204844 2.019695,0.352667 4.271671,1.215135 1.970385,0.754622 3.316308,1.852048 3.316308,1.852048 0,0 -1.383847,-1.725676 -3.719261,-2.877547 -1.917565,-0.945784 -3.491979,-1.413066 -5.673383,-1.518861 -2.384388,-0.115646 -4.141289,0.19051 -4.141289,0.19051 0,0 0.04915,-1.05949 1.849213,-1.90387 1.565258,-0.734247 4.027715,-0.857135 6.853822,-0.136167 3.99267,1.018574 5.354395,2.752992 7.071846,4.545318 1.827965,1.907682 3.408611,5.118137 3.408611,5.118137 0,0 -0.487388,-1.69628 -1.365143,-3.316051 z"
       id="path9"
       style="fill:url(#radialGradient972);stroke-width:0.0112071;fill-opacity:1" />
  </g>
</svg>
