<?xml version="1.0" encoding="UTF-8" standalone="no"?>
<svg
   xmlns:dc="http://purl.org/dc/elements/1.1/"
   xmlns:cc="http://creativecommons.org/ns#"
   xmlns:rdf="http://www.w3.org/1999/02/22-rdf-syntax-ns#"
   xmlns:svg="http://www.w3.org/2000/svg"
   xmlns="http://www.w3.org/2000/svg"
   xmlns:xlink="http://www.w3.org/1999/xlink"
   xmlns:sodipodi="http://sodipodi.sourceforge.net/DTD/sodipodi-0.dtd"
   xmlns:inkscape="http://www.inkscape.org/namespaces/inkscape"
   width="128"
   height="128"
   viewBox="0 0 33.866666 33.866667"
   version="1.1"
   id="svg6"
   sodipodi:docname="dotfonts.svg"
   inkscape:version="0.92.5 (2060ec1f9f, 2020-04-08)"
   enable-background="new">
  <metadata
     id="metadata99">
    <rdf:RDF>
      <cc:Work
         rdf:about="">
        <dc:format>image/svg+xml</dc:format>
        <dc:type
           rdf:resource="http://purl.org/dc/dcmitype/StillImage" />
        <dc:title></dc:title>
      </cc:Work>
    </rdf:RDF>
  </metadata>
  <defs
     id="defs2">
    <linearGradient
       inkscape:collect="always"
       id="linearGradient1630">
      <stop
         style="stop-color:#111314;stop-opacity:1"
         offset="0"
         id="stop1626" />
      <stop
         style="stop-color:#586471;stop-opacity:1"
         offset="1"
         id="stop1628" />
    </linearGradient>
    <linearGradient
       gradientTransform="translate(0,-896)"
       gradientUnits="userSpaceOnUse"
       y2="992"
       x2="32"
       y1="32"
       x1="32"
       id="lgrad">
      <stop
         id="stop2"
         stop-color="#f8f8f8"
         offset="0%" />
      <stop
         id="stop4"
         stop-color="#ccc"
         offset="100%" />
    </linearGradient>
    <radialGradient
       gradientTransform="translate(0,-896)"
       gradientUnits="userSpaceOnUse"
       r="440"
       cy="512"
       cx="512"
       fy="494.39999"
       fx="512"
       y2="100%"
       x2="0%"
       y1="0%"
       x1="0%"
       id="rgrad">
      <stop
         id="stop7"
         stop-color="#00f0ff"
         offset="0%" />
      <stop
         id="stop9"
         stop-color="#0070e0"
         offset="100%" />
    </radialGradient>
    <radialGradient
       id="rgrad-3"
       x1="0%"
       y1="0%"
       x2="0%"
       y2="100%"
       fx="523.57568"
       fy="306.1813"
       cx="523.57568"
       cy="306.1813"
       r="440"
       gradientUnits="userSpaceOnUse"
       gradientTransform="matrix(0.03099337,0,0,0.03032562,85.198869,42.985295)">
      <stop
         offset="0%"
         stop-color="#00f0ff"
         id="stop7-6"
         style="stop-color:#03d7e4;stop-opacity:1" />
      <stop
         offset="100%"
         stop-color="#0070e0"
         id="stop9-7" />
    </radialGradient>
    <linearGradient
       inkscape:collect="always"
       xlink:href="#linearGradient1630"
       id="linearGradient1632"
       x1="132.21078"
       y1="42.151531"
       x2="132.21078"
       y2="70.679932"
       gradientUnits="userSpaceOnUse"
       gradientTransform="matrix(0.97573206,0,0,0.97573206,-111.91526,-37.203094)" />
    <clipPath
       clipPathUnits="userSpaceOnUse"
       id="clipPath955">
      <path
         inkscape:connector-curvature="0"
         id="path957"
         d="m 48.090168,14.065182 c -8.844336,0 -16.340644,5.995872 -18.663996,14.119612 -2.019239,-4.308957 -6.394998,-7.327745 -11.435114,-7.327745 -6.931345,0 -12.6290958,5.697755 -12.6290958,12.6291 0,6.93134 5.6977508,12.631688 12.6290958,12.631688 5.040116,0 9.415875,-3.020625 11.435114,-7.33033 2.323352,8.124344 9.81966,14.122209 18.663996,14.122209 8.778928,0 16.237013,-5.907409 18.619786,-13.940123 2.056554,4.211868 6.378153,7.148244 11.346674,7.148244 6.931343,0 12.631693,-5.700348 12.631693,-12.631688 0,-6.931345 -5.70035,-12.6291 -12.631693,-12.6291 -4.968521,0 -9.29012,2.934535 -11.346674,7.145655 -2.382773,-8.03209 -9.840858,-13.937522 -18.619786,-13.937522 z m 0,7.413577 c 6.676471,0 12.010004,5.330941 12.010004,12.00739 0,6.676449 -5.333533,12.009989 -12.010004,12.009989 -6.676433,0 -12.007378,-5.33354 -12.007378,-12.009989 0,-6.676449 5.330945,-12.00739 12.007378,-12.00739 z m -30.09911,6.791875 c 2.925105,0 5.218112,2.290399 5.218112,5.215515 0,2.925109 -2.293007,5.218118 -5.218112,5.218118 -2.925115,0 -5.215521,-2.293009 -5.215521,-5.218118 0,-2.925116 2.290406,-5.215515 5.215521,-5.215515 z m 60.06557,0 c 2.925124,0 5.218114,2.290399 5.218114,5.215515 0,2.925109 -2.293001,5.218118 -5.218114,5.218118 -2.925101,0 -5.215506,-2.293009 -5.215506,-5.218118 0,-2.925116 2.290424,-5.215515 5.215506,-5.215515 z"
         style="color:#000000;font-style:normal;font-variant:normal;font-weight:normal;font-stretch:normal;font-size:medium;line-height:normal;font-family:sans-serif;text-indent:0;text-align:start;text-decoration:none;text-decoration-line:none;text-decoration-style:solid;text-decoration-color:#000000;letter-spacing:normal;word-spacing:normal;text-transform:none;writing-mode:lr-tb;direction:ltr;baseline-shift:baseline;text-anchor:start;white-space:normal;clip-rule:nonzero;display:inline;overflow:visible;visibility:visible;opacity:1;isolation:auto;mix-blend-mode:normal;color-interpolation:sRGB;color-interpolation-filters:linearRGB;solid-color:#000000;solid-opacity:1;fill:#ffffff;fill-opacity:1;fill-rule:nonzero;stroke:none;stroke-width:4.16989708;stroke-linecap:butt;stroke-linejoin:miter;stroke-miterlimit:10;stroke-dasharray:none;stroke-dashoffset:0;stroke-opacity:1;color-rendering:auto;image-rendering:auto;shape-rendering:auto;text-rendering:auto;enable-background:accumulate" />
    </clipPath>
    <filter
       color-interpolation-filters="sRGB"
       filterUnits="userSpaceOnUse"
       height="128"
       width="128"
       y="4"
       x="0"
       id="filter0_d">
      <feFlood
         id="feFlood1031"
         result="BackgroundImageFix"
         flood-opacity="0" />
      <feColorMatrix
         id="feColorMatrix1033"
         values="0 0 0 0 0 0 0 0 0 0 0 0 0 0 0 0 0 0 127 0"
         type="matrix"
         in="SourceAlpha" />
      <feOffset
         id="feOffset1035"
         dy="4" />
      <feGaussianBlur
         id="feGaussianBlur1037"
         stdDeviation="2" />
      <feColorMatrix
         id="feColorMatrix1039"
         values="0 0 0 0 0 0 0 0 0 0 0 0 0 0 0 0 0 0 0.28 0"
         type="matrix" />
      <feBlend
         id="feBlend1041"
         result="effect1_dropShadow"
         in2="BackgroundImageFix"
         mode="normal" />
      <feBlend
         id="feBlend1043"
         result="shape"
         in2="effect1_dropShadow"
         in="SourceGraphic"
         mode="normal" />
    </filter>
    <filter
       color-interpolation-filters="sRGB"
       filterUnits="userSpaceOnUse"
       height="71.952"
       width="78.3558"
       y="29.048"
       x="27.2042"
       id="filter1_d">
      <feFlood
         id="feFlood1046"
         result="BackgroundImageFix"
         flood-opacity="0" />
      <feColorMatrix
         id="feColorMatrix1048"
         values="0 0 0 0 0 0 0 0 0 0 0 0 0 0 0 0 0 0 127 0"
         type="matrix"
         in="SourceAlpha" />
      <feOffset
         id="feOffset1050"
         dy="4" />
      <feGaussianBlur
         id="feGaussianBlur1052"
         stdDeviation="6" />
      <feColorMatrix
         id="feColorMatrix1054"
         values="0 0 0 0 0 0 0 0 0 0 0 0 0 0 0 0 0 0 0.33 0"
         type="matrix" />
      <feBlend
         id="feBlend1056"
         result="effect1_dropShadow"
         in2="BackgroundImageFix"
         mode="darken" />
      <feBlend
         id="feBlend1058"
         result="shape"
         in2="effect1_dropShadow"
         in="SourceGraphic"
         mode="normal" />
    </filter>
    <linearGradient
       gradientUnits="userSpaceOnUse"
       y2="106.5"
       x2="107"
       y1="35"
       x1="20.5"
       id="paint0_linear">
      <stop
         id="stop1061"
         stop-color="#2B1F2E" />
      <stop
         id="stop1063"
         stop-opacity="0.77"
         stop-color="#071331"
         offset="1" />
    </linearGradient>
    <clipPath
       id="clip0">
      <rect
         id="rect1066"
         fill="white"
         height="128"
         width="128" />
    </clipPath>
    <filter
       style="color-interpolation-filters:sRGB"
       filterUnits="userSpaceOnUse"
       height="71.952003"
       width="78.355797"
       y="29.048"
       x="27.204201"
       id="filter1_d-7">
      <feFlood
         id="feFlood1046-5"
         result="BackgroundImageFix"
         flood-opacity="0" />
      <feColorMatrix
         id="feColorMatrix1048-3"
         values="0 0 0 0 0 0 0 0 0 0 0 0 0 0 0 0 0 0 127 0"
         type="matrix"
         in="SourceAlpha" />
      <feOffset
         id="feOffset1050-5"
         dy="4" />
      <feGaussianBlur
         id="feGaussianBlur1052-6"
         stdDeviation="6" />
      <feColorMatrix
         id="feColorMatrix1054-2"
         values="0 0 0 0 0 0 0 0 0 0 0 0 0 0 0 0 0 0 0.33 0"
         type="matrix" />
      <feBlend
         id="feBlend1056-9"
         result="effect1_dropShadow"
         in2="BackgroundImageFix"
         mode="darken" />
      <feBlend
         id="feBlend1058-1"
         result="shape"
         in2="effect1_dropShadow"
         in="SourceGraphic"
         mode="normal" />
    </filter>
  </defs>
  <sodipodi:namedview
     id="base"
     pagecolor="#ffffff"
     bordercolor="#666666"
     borderopacity="1.0"
     inkscape:pageopacity="0.0"
     inkscape:pageshadow="2"
     inkscape:zoom="2.8"
     inkscape:cx="47.925409"
     inkscape:cy="69.041875"
     inkscape:document-units="mm"
     inkscape:current-layer="layer1"
     showgrid="false"
     units="px"
     inkscape:window-width="1920"
     inkscape:window-height="1049"
     inkscape:window-x="0"
     inkscape:window-y="0"
     inkscape:window-maximized="1" />
  <g
     inkscape:label="Layer 1"
     inkscape:groupmode="layer"
     id="layer1">
    <g
       id="g1702"
       transform="matrix(0.97573206,0,0,0.97573206,-65.748383,-37.203094)"
       style="opacity:0.2967651">
      <rect
         style="fill:none;fill-opacity:1;stroke:#000000;stroke-width:0.1;stroke-linecap:round;stroke-linejoin:round;stroke-miterlimit:4;stroke-dasharray:none;stroke-opacity:0.02"
         id="rect1634"
         width="29.810888"
         height="29.810888"
         x="69.839508"
         y="40.709618"
         rx="6.6098609"
         ry="6.6098609" />
      <rect
         ry="6.6098609"
         rx="6.6098609"
         y="40.709618"
         x="69.839508"
         height="29.810888"
         width="29.810888"
         id="rect1638"
         style="fill:none;fill-opacity:1;stroke:#000000;stroke-width:0.2;stroke-linecap:round;stroke-linejoin:round;stroke-miterlimit:4;stroke-dasharray:none;stroke-opacity:0.02" />
      <rect
         style="fill:none;fill-opacity:1;stroke:#000000;stroke-width:0.3;stroke-linecap:round;stroke-linejoin:round;stroke-miterlimit:4;stroke-dasharray:none;stroke-opacity:0.02"
         id="rect1640"
         width="29.810888"
         height="29.810888"
         x="69.839508"
         y="40.709618"
         rx="6.6098609"
         ry="6.6098609" />
      <rect
         ry="6.6098609"
         rx="6.6098609"
         y="40.709618"
         x="69.839508"
         height="29.810888"
         width="29.810888"
         id="rect1642"
         style="fill:none;fill-opacity:1;stroke:#000000;stroke-width:0.4;stroke-linecap:round;stroke-linejoin:round;stroke-miterlimit:4;stroke-dasharray:none;stroke-opacity:0.02" />
      <rect
         style="fill:none;fill-opacity:1;stroke:#000000;stroke-width:0.5;stroke-linecap:round;stroke-linejoin:round;stroke-miterlimit:4;stroke-dasharray:none;stroke-opacity:0.02"
         id="rect1644"
         width="29.810888"
         height="29.810888"
         x="69.839508"
         y="40.709618"
         rx="6.6098609"
         ry="6.6098609" />
      <rect
         ry="6.6098609"
         rx="6.6098609"
         y="40.709618"
         x="69.839508"
         height="29.810888"
         width="29.810888"
         id="rect1646"
         style="fill:none;fill-opacity:1;stroke:#000000;stroke-width:0.6;stroke-linecap:round;stroke-linejoin:round;stroke-miterlimit:4;stroke-dasharray:none;stroke-opacity:0.02" />
      <rect
         style="fill:none;fill-opacity:1;stroke:#000000;stroke-width:0.7;stroke-linecap:round;stroke-linejoin:round;stroke-miterlimit:4;stroke-dasharray:none;stroke-opacity:0.02"
         id="rect1648"
         width="29.810888"
         height="29.810888"
         x="69.839508"
         y="40.709618"
         rx="6.6098609"
         ry="6.6098609" />
      <rect
         ry="6.6098609"
         rx="6.6098609"
         y="40.709618"
         x="69.839508"
         height="29.810888"
         width="29.810888"
         id="rect1650"
         style="fill:none;fill-opacity:1;stroke:#000000;stroke-width:0.8;stroke-linecap:round;stroke-linejoin:round;stroke-miterlimit:4;stroke-dasharray:none;stroke-opacity:0.02" />
      <rect
         style="fill:none;fill-opacity:1;stroke:#000000;stroke-width:1;stroke-linecap:round;stroke-linejoin:round;stroke-miterlimit:4;stroke-dasharray:none;stroke-opacity:0.02"
         id="rect1652"
         width="29.810888"
         height="29.810888"
         x="69.839508"
         y="40.709618"
         rx="6.6098609"
         ry="6.6098609" />
      <rect
         ry="6.6098609"
         rx="6.6098609"
         y="40.709618"
         x="69.839508"
         height="29.810888"
         width="29.810888"
         id="rect1654"
         style="fill:none;fill-opacity:1;stroke:#000000;stroke-width:1.2;stroke-linecap:round;stroke-linejoin:round;stroke-miterlimit:4;stroke-dasharray:none;stroke-opacity:0.02" />
      <rect
         style="fill:none;fill-opacity:1;stroke:#000000;stroke-width:1.4;stroke-linecap:round;stroke-linejoin:round;stroke-miterlimit:4;stroke-dasharray:none;stroke-opacity:0.02"
         id="rect1656"
         width="29.810888"
         height="29.810888"
         x="69.839508"
         y="40.709618"
         rx="6.6098609"
         ry="6.6098609" />
      <rect
         ry="6.6098609"
         rx="6.6098609"
         y="40.709618"
         x="69.839508"
         height="29.810888"
         width="29.810888"
         id="rect1658"
         style="fill:none;fill-opacity:1;stroke:#000000;stroke-width:1.6;stroke-linecap:round;stroke-linejoin:round;stroke-miterlimit:4;stroke-dasharray:none;stroke-opacity:0.02" />
      <rect
         style="fill:none;fill-opacity:1;stroke:#000000;stroke-width:1.8;stroke-linecap:round;stroke-linejoin:round;stroke-miterlimit:4;stroke-dasharray:none;stroke-opacity:0.02"
         id="rect1660"
         width="29.810888"
         height="29.810888"
         x="69.839508"
         y="40.709618"
         rx="6.6098609"
         ry="6.6098609" />
      <rect
         ry="6.6098609"
         rx="6.6098609"
         y="40.709618"
         x="69.839508"
         height="29.810888"
         width="29.810888"
         id="rect1662"
         style="fill:none;fill-opacity:1;stroke:#000000;stroke-width:2;stroke-linecap:round;stroke-linejoin:round;stroke-miterlimit:4;stroke-dasharray:none;stroke-opacity:0.02" />
      <rect
         style="fill:none;fill-opacity:1;stroke:#000000;stroke-width:2.2;stroke-linecap:round;stroke-linejoin:round;stroke-miterlimit:4;stroke-dasharray:none;stroke-opacity:0.02"
         id="rect1664"
         width="29.810888"
         height="29.810888"
         x="69.839508"
         y="40.709618"
         rx="6.6098609"
         ry="6.6098609" />
      <rect
         ry="6.6098609"
         rx="6.6098609"
         y="40.709618"
         x="69.839508"
         height="29.810888"
         width="29.810888"
         id="rect1666"
         style="fill:none;fill-opacity:1;stroke:#000000;stroke-width:2.6;stroke-linecap:round;stroke-linejoin:round;stroke-miterlimit:4;stroke-dasharray:none;stroke-opacity:0.02" />
      <rect
         style="fill:none;fill-opacity:1;stroke:#000000;stroke-width:3;stroke-linecap:round;stroke-linejoin:round;stroke-miterlimit:4;stroke-dasharray:none;stroke-opacity:0.02"
         id="rect1668"
         width="29.810888"
         height="29.810888"
         x="69.839508"
         y="40.709618"
         rx="6.6098609"
         ry="6.6098609" />
      <rect
         ry="6.6098609"
         rx="6.6098609"
         y="40.709618"
         x="69.839508"
         height="29.810888"
         width="29.810888"
         id="rect1670"
         style="fill:none;fill-opacity:1;stroke:#000000;stroke-width:3.4;stroke-linecap:round;stroke-linejoin:round;stroke-miterlimit:4;stroke-dasharray:none;stroke-opacity:0.02" />
      <rect
         style="fill:none;fill-opacity:1;stroke:#000000;stroke-width:3.8;stroke-linecap:round;stroke-linejoin:round;stroke-miterlimit:4;stroke-dasharray:none;stroke-opacity:0.02"
         id="rect1672"
         width="29.810888"
         height="29.810888"
         x="69.839508"
         y="40.709618"
         rx="6.6098609"
         ry="6.6098609" />
      <rect
         ry="6.6098609"
         rx="6.6098609"
         y="40.709618"
         x="69.839508"
         height="29.810888"
         width="29.810888"
         id="rect1674"
         style="fill:none;fill-opacity:1;stroke:#000000;stroke-width:4.2;stroke-linecap:round;stroke-linejoin:round;stroke-miterlimit:4;stroke-dasharray:none;stroke-opacity:0.02" />
      <rect
         style="fill:none;fill-opacity:1;stroke:#000000;stroke-width:4.6;stroke-linecap:round;stroke-linejoin:round;stroke-miterlimit:4;stroke-dasharray:none;stroke-opacity:0.02"
         id="rect1676"
         width="29.810888"
         height="29.810888"
         x="69.839508"
         y="40.709618"
         rx="6.6098609"
         ry="6.6098609" />
      <rect
         ry="6.6098609"
         rx="6.6098609"
         y="40.709618"
         x="69.839508"
         height="29.810888"
         width="29.810888"
         id="rect1678"
         style="fill:none;fill-opacity:1;stroke:#000000;stroke-width:5;stroke-linecap:round;stroke-linejoin:round;stroke-miterlimit:4;stroke-dasharray:none;stroke-opacity:0.02" />
    </g>
    <rect
       style="fill:url(#linearGradient1632);fill-opacity:1;stroke-width:2.68768001;stroke-linecap:round;stroke-linejoin:round"
       id="rect849"
       width="29.087439"
       height="29.087439"
       x="2.2573221"
       y="2.518585"
       rx="6.4494534"
       ry="6.4494534" />
    <path
       style="fill:#ffffff;filter:url(#filter1_d)"
       inkscape:connector-curvature="0"
       d="m 87.944,37.048 c 1.776,0 3.144,0.384 4.104,1.152 1.008,0.768 1.512,1.824 1.512,3.168 0,0.672 -0.096,1.32 -0.288,1.944 L 91.4,50.008 c -0.336,1.248 -0.888,2.136 -1.656,2.664 -0.768,0.528 -1.776,0.792 -3.024,0.792 -1.2,0 -2.16,-0.24 -2.88,-0.72 -0.72,-0.528 -1.248,-1.368 -1.584,-2.52 L 81.104,46.12 c -0.192,-0.72 -0.432,-1.2 -0.72,-1.44 -0.288,-0.24 -0.888,-0.36 -1.8,-0.36 h -7.2 l -4.032,14.256 h 1.368 c 0.672,0 1.248,-0.096 1.728,-0.288 0.528,-0.192 1.08,-0.552 1.656,-1.08 l 2.232,-1.872 c 0.816,-0.72 1.536,-1.224 2.16,-1.512 0.672,-0.336 1.368,-0.504 2.088,-0.504 0.912,0 1.656,0.264 2.232,0.792 0.624,0.528 0.936,1.272 0.936,2.232 0,0.384 -0.072,0.84 -0.216,1.368 l -3.168,10.944 c -0.72,2.352 -2.016,3.528 -3.888,3.528 -1.536,0 -2.736,-0.792 -3.6,-2.376 L 69.584,67.36 C 69.248,66.688 68.936,66.256 68.648,66.064 68.36,65.872 67.928,65.776 67.352,65.776 H 65.264 L 62.24,76.504 c -0.096,0.288 -0.144,0.672 -0.144,1.152 0,0.672 0.144,1.224 0.432,1.656 0.336,0.432 0.816,0.888 1.44,1.368 0.528,0.432 0.888,0.792 1.08,1.08 0.192,0.24 0.288,0.552 0.288,0.936 0,0.864 -0.384,1.464 -1.152,1.8 C 63.416,84.832 62.288,85 60.8,85 H 42.728 c -1.248,0 -2.184,-0.216 -2.808,-0.648 -0.624,-0.48 -0.84,-1.128 -0.648,-1.944 0.096,-0.432 0.288,-0.768 0.576,-1.008 0.24,-0.288 0.624,-0.6 1.152,-0.936 0.816,-0.48 1.464,-0.984 1.944,-1.512 0.48,-0.528 0.864,-1.344 1.152,-2.448 l 8.856,-31.032 c 0.192,-0.624 0.288,-1.2 0.288,-1.728 0,-0.576 -0.096,-1.056 -0.288,-1.44 -0.144,-0.384 -0.384,-0.792 -0.72,-1.224 -0.432,-0.624 -0.648,-1.128 -0.648,-1.512 0,-0.144 0.048,-0.408 0.144,-0.792 0.192,-0.624 0.624,-1.056 1.296,-1.296 0.672,-0.288 1.656,-0.432 2.952,-0.432 z"
       id="path1025"
       transform="matrix(0.26458333,0,0,0.26458333,-0.76255548,1.4644361)" />
  </g>
</svg>
