<?xml version="1.0" encoding="UTF-8" standalone="no"?>
<svg
   width="128"
   height="128"
   viewBox="0 0 33.866666 33.866668"
   version="1.1"
   id="svg1443"
   inkscape:version="1.1.2 (0a00cf5339, 2022-02-04)"
   sodipodi:docname="drill-search-gtk.svg"
   xmlns:inkscape="http://www.inkscape.org/namespaces/inkscape"
   xmlns:sodipodi="http://sodipodi.sourceforge.net/DTD/sodipodi-0.dtd"
   xmlns:xlink="http://www.w3.org/1999/xlink"
   xmlns="http://www.w3.org/2000/svg"
   xmlns:svg="http://www.w3.org/2000/svg"
   xmlns:rdf="http://www.w3.org/1999/02/22-rdf-syntax-ns#"
   xmlns:cc="http://creativecommons.org/ns#"
   xmlns:dc="http://purl.org/dc/elements/1.1/">
  <defs
     id="defs1437">
    <linearGradient
       gradientTransform="matrix(0.97573206,0,0,0.97573206,-111.76517,-37.182508)"
       gradientUnits="userSpaceOnUse"
       y2="70.679932"
       x2="132.21078"
       y1="42.151531"
       x1="132.21078"
       id="linearGradient1632"
       xlink:href="#linearGradient1630"
       inkscape:collect="always" />
    <linearGradient
       id="linearGradient1630"
       inkscape:collect="always">
      <stop
         id="stop1626"
         offset="0"
         style="stop-color:#fafafc;stop-opacity:1" />
      <stop
         id="stop1628"
         offset="1"
         style="stop-color:#e2e6ea;stop-opacity:1" />
    </linearGradient>
    <filter
       color-interpolation-filters="sRGB"
       height="1.1311001"
       width="1.1106"
       y="-0.065563001"
       x="-0.055319"
       id="c-9">
      <feGaussianBlur
         id="feGaussianBlur1093"
         stdDeviation="1.1062912" />
    </filter>
    <linearGradient
       gradientUnits="userSpaceOnUse"
       gradientTransform="matrix(0.13235,0,0,0.13075,-32.379,1.0873)"
       y2="269.48999"
       y1="235.14999"
       x2="657.65002"
       x1="319.20999"
       id="a-12">
      <stop
         id="stop1076"
         offset="0"
         stop-color="#e54c18" />
      <stop
         id="stop1078"
         offset="1"
         stop-color="#fec350" />
    </linearGradient>
  </defs>
  <sodipodi:namedview
     id="base"
     pagecolor="#ffffff"
     bordercolor="#666666"
     borderopacity="1.0"
     inkscape:pageopacity="0.0"
     inkscape:pageshadow="2"
     inkscape:zoom="3.959798"
     inkscape:cx="105.43467"
     inkscape:cy="45.961941"
     inkscape:document-units="mm"
     inkscape:current-layer="layer1"
     inkscape:document-rotation="0"
     showgrid="false"
     units="px"
     inkscape:window-width="1920"
     inkscape:window-height="1024"
     inkscape:window-x="0"
     inkscape:window-y="0"
     inkscape:window-maximized="1"
     inkscape:pagecheckerboard="0"
     inkscape:lockguides="true" />
  <metadata
     id="metadata1440">
    <rdf:RDF>
      <cc:Work
         rdf:about="">
        <dc:format>image/svg+xml</dc:format>
        <dc:type
           rdf:resource="http://purl.org/dc/dcmitype/StillImage" />
      </cc:Work>
    </rdf:RDF>
  </metadata>
  <g
     inkscape:label="Capa 1"
     inkscape:groupmode="layer"
     id="layer1">
    <g
       style="opacity:0.295"
       transform="matrix(0.97573206,0,0,0.97573206,-65.737228,-37.182508)"
       id="g1702">
      <rect
         ry="6.6098609"
         rx="6.6098609"
         y="40.709618"
         x="69.839508"
         height="29.810888"
         width="29.810888"
         id="rect1634"
         style="fill:none;fill-opacity:1;stroke:#000000;stroke-width:0.1;stroke-linecap:round;stroke-linejoin:round;stroke-miterlimit:4;stroke-dasharray:none;stroke-opacity:0.02" />
      <rect
         style="fill:none;fill-opacity:1;stroke:#000000;stroke-width:0.2;stroke-linecap:round;stroke-linejoin:round;stroke-miterlimit:4;stroke-dasharray:none;stroke-opacity:0.02"
         id="rect1638"
         width="29.810888"
         height="29.810888"
         x="69.839508"
         y="40.709618"
         rx="6.6098609"
         ry="6.6098609" />
      <rect
         ry="6.6098609"
         rx="6.6098609"
         y="40.709618"
         x="69.839508"
         height="29.810888"
         width="29.810888"
         id="rect1640"
         style="fill:none;fill-opacity:1;stroke:#000000;stroke-width:0.3;stroke-linecap:round;stroke-linejoin:round;stroke-miterlimit:4;stroke-dasharray:none;stroke-opacity:0.02" />
      <rect
         style="fill:none;fill-opacity:1;stroke:#000000;stroke-width:0.4;stroke-linecap:round;stroke-linejoin:round;stroke-miterlimit:4;stroke-dasharray:none;stroke-opacity:0.02"
         id="rect1642"
         width="29.810888"
         height="29.810888"
         x="69.839508"
         y="40.709618"
         rx="6.6098609"
         ry="6.6098609" />
      <rect
         ry="6.6098609"
         rx="6.6098609"
         y="40.709618"
         x="69.839508"
         height="29.810888"
         width="29.810888"
         id="rect1644"
         style="fill:none;fill-opacity:1;stroke:#000000;stroke-width:0.5;stroke-linecap:round;stroke-linejoin:round;stroke-miterlimit:4;stroke-dasharray:none;stroke-opacity:0.02" />
      <rect
         style="fill:none;fill-opacity:1;stroke:#000000;stroke-width:0.6;stroke-linecap:round;stroke-linejoin:round;stroke-miterlimit:4;stroke-dasharray:none;stroke-opacity:0.02"
         id="rect1646"
         width="29.810888"
         height="29.810888"
         x="69.839508"
         y="40.709618"
         rx="6.6098609"
         ry="6.6098609" />
      <rect
         ry="6.6098609"
         rx="6.6098609"
         y="40.709618"
         x="69.839508"
         height="29.810888"
         width="29.810888"
         id="rect1648"
         style="fill:none;fill-opacity:1;stroke:#000000;stroke-width:0.7;stroke-linecap:round;stroke-linejoin:round;stroke-miterlimit:4;stroke-dasharray:none;stroke-opacity:0.02" />
      <rect
         style="fill:none;fill-opacity:1;stroke:#000000;stroke-width:0.8;stroke-linecap:round;stroke-linejoin:round;stroke-miterlimit:4;stroke-dasharray:none;stroke-opacity:0.02"
         id="rect1650"
         width="29.810888"
         height="29.810888"
         x="69.839508"
         y="40.709618"
         rx="6.6098609"
         ry="6.6098609" />
      <rect
         ry="6.6098609"
         rx="6.6098609"
         y="40.709618"
         x="69.839508"
         height="29.810888"
         width="29.810888"
         id="rect1652"
         style="fill:none;fill-opacity:1;stroke:#000000;stroke-width:1;stroke-linecap:round;stroke-linejoin:round;stroke-miterlimit:4;stroke-dasharray:none;stroke-opacity:0.02" />
      <rect
         style="fill:none;fill-opacity:1;stroke:#000000;stroke-width:1.2;stroke-linecap:round;stroke-linejoin:round;stroke-miterlimit:4;stroke-dasharray:none;stroke-opacity:0.02"
         id="rect1654"
         width="29.810888"
         height="29.810888"
         x="69.839508"
         y="40.709618"
         rx="6.6098609"
         ry="6.6098609" />
      <rect
         ry="6.6098609"
         rx="6.6098609"
         y="40.709618"
         x="69.839508"
         height="29.810888"
         width="29.810888"
         id="rect1656"
         style="fill:none;fill-opacity:1;stroke:#000000;stroke-width:1.4;stroke-linecap:round;stroke-linejoin:round;stroke-miterlimit:4;stroke-dasharray:none;stroke-opacity:0.02" />
      <rect
         style="fill:none;fill-opacity:1;stroke:#000000;stroke-width:1.6;stroke-linecap:round;stroke-linejoin:round;stroke-miterlimit:4;stroke-dasharray:none;stroke-opacity:0.02"
         id="rect1658"
         width="29.810888"
         height="29.810888"
         x="69.839508"
         y="40.709618"
         rx="6.6098609"
         ry="6.6098609" />
      <rect
         ry="6.6098609"
         rx="6.6098609"
         y="40.709618"
         x="69.839508"
         height="29.810888"
         width="29.810888"
         id="rect1660"
         style="fill:none;fill-opacity:1;stroke:#000000;stroke-width:1.8;stroke-linecap:round;stroke-linejoin:round;stroke-miterlimit:4;stroke-dasharray:none;stroke-opacity:0.02" />
      <rect
         style="fill:none;fill-opacity:1;stroke:#000000;stroke-width:2;stroke-linecap:round;stroke-linejoin:round;stroke-miterlimit:4;stroke-dasharray:none;stroke-opacity:0.02"
         id="rect1662"
         width="29.810888"
         height="29.810888"
         x="69.839508"
         y="40.709618"
         rx="6.6098609"
         ry="6.6098609" />
      <rect
         ry="6.6098609"
         rx="6.6098609"
         y="40.709618"
         x="69.839508"
         height="29.810888"
         width="29.810888"
         id="rect1664"
         style="fill:none;fill-opacity:1;stroke:#000000;stroke-width:2.2;stroke-linecap:round;stroke-linejoin:round;stroke-miterlimit:4;stroke-dasharray:none;stroke-opacity:0.02" />
      <rect
         style="fill:none;fill-opacity:1;stroke:#000000;stroke-width:2.6;stroke-linecap:round;stroke-linejoin:round;stroke-miterlimit:4;stroke-dasharray:none;stroke-opacity:0.02"
         id="rect1666"
         width="29.810888"
         height="29.810888"
         x="69.839508"
         y="40.709618"
         rx="6.6098609"
         ry="6.6098609" />
      <rect
         ry="6.6098609"
         rx="6.6098609"
         y="40.709618"
         x="69.839508"
         height="29.810888"
         width="29.810888"
         id="rect1668"
         style="fill:none;fill-opacity:1;stroke:#000000;stroke-width:3;stroke-linecap:round;stroke-linejoin:round;stroke-miterlimit:4;stroke-dasharray:none;stroke-opacity:0.02" />
      <rect
         style="fill:none;fill-opacity:1;stroke:#000000;stroke-width:3.4;stroke-linecap:round;stroke-linejoin:round;stroke-miterlimit:4;stroke-dasharray:none;stroke-opacity:0.02"
         id="rect1670"
         width="29.810888"
         height="29.810888"
         x="69.839508"
         y="40.709618"
         rx="6.6098609"
         ry="6.6098609" />
      <rect
         ry="6.6098609"
         rx="6.6098609"
         y="40.709618"
         x="69.839508"
         height="29.810888"
         width="29.810888"
         id="rect1672"
         style="fill:none;fill-opacity:1;stroke:#000000;stroke-width:3.8;stroke-linecap:round;stroke-linejoin:round;stroke-miterlimit:4;stroke-dasharray:none;stroke-opacity:0.02" />
      <rect
         style="fill:none;fill-opacity:1;stroke:#000000;stroke-width:4.2;stroke-linecap:round;stroke-linejoin:round;stroke-miterlimit:4;stroke-dasharray:none;stroke-opacity:0.02"
         id="rect1674"
         width="29.810888"
         height="29.810888"
         x="69.839508"
         y="40.709618"
         rx="6.6098609"
         ry="6.6098609" />
      <rect
         ry="6.6098609"
         rx="6.6098609"
         y="40.709618"
         x="69.839508"
         height="29.810888"
         width="29.810888"
         id="rect1676"
         style="fill:none;fill-opacity:1;stroke:#000000;stroke-width:4.6;stroke-linecap:round;stroke-linejoin:round;stroke-miterlimit:4;stroke-dasharray:none;stroke-opacity:0.02" />
      <rect
         style="fill:none;fill-opacity:1;stroke:#000000;stroke-width:5;stroke-linecap:round;stroke-linejoin:round;stroke-miterlimit:4;stroke-dasharray:none;stroke-opacity:0.02"
         id="rect1678"
         width="29.810888"
         height="29.810888"
         x="69.839508"
         y="40.709618"
         rx="6.6098609"
         ry="6.6098609" />
    </g>
    <rect
       ry="6.4494534"
       rx="6.4494534"
       y="2.5391712"
       x="2.4074187"
       height="29.087439"
       width="29.087439"
       id="rect849"
       style="fill:url(#linearGradient1632);fill-opacity:1;stroke-width:2.68768;stroke-linecap:round;stroke-linejoin:round" />
    <path
       style="fill:#3f3f3f;stroke-width:0.449662"
       d="m 11.175122,13.00434 c 0.211462,0.0021 0.276664,0.0178 0.32829,0.10697 0.04018,0.06529 0.221146,0.456563 0.406979,1.029131 0.185835,0.572567 0.355944,1.055764 0.386078,1.075854 0.02512,0.01506 0.07551,0.0042 0.110656,-0.0209 0.03516,-0.02511 0.402113,-0.200245 0.813961,-0.386078 2.576554,-1.155181 3.349336,-1.511754 3.761183,-1.717677 0.09038,-0.04626 0.133411,-0.05694 0.199186,-0.0873 z m 7.05637,0 c -0.193822,0.104193 -0.480248,0.241594 -0.992245,0.473375 -0.441981,0.195879 -0.939619,0.422524 -1.105362,0.502885 -0.165736,0.08036 -0.8337,0.381151 -1.481603,0.67748 -1.737793,0.788536 -2.209497,1.019481 -2.209497,1.069706 0,0.05022 0.52714,1.667302 0.602478,1.843091 0.02009,0.05525 0.07529,0.226796 0.120495,0.377471 0.130591,0.431937 0.130642,0.431303 0.411899,0.32583 0.135605,-0.05022 0.541991,-0.23611 0.908635,-0.411898 0.366645,-0.170766 0.678502,-0.315994 0.688546,-0.315994 0.01003,0 0.320569,-0.145228 0.692235,-0.315994 0.366645,-0.175788 0.859468,-0.407248 1.095527,-0.51272 1.265675,-0.562524 2.621125,-1.185462 3.344367,-1.532016 0.597681,-0.286283 0.60358,-0.296753 0.668874,-0.512721 0.13059,-0.457049 0.366568,-0.983317 0.477065,-1.294713 0.105472,-0.311396 0.120733,-0.326747 0.286484,-0.341814 0.08844,-0.0047 0.196108,-0.02142 0.264352,-0.03197 z m 2.407453,2.578359 c -0.02009,-0.02009 -0.251549,0.06512 -0.512722,0.185662 -0.261171,0.125564 -0.632835,0.295777 -0.828714,0.38116 -0.190856,0.08538 -0.507421,0.226818 -0.7033,0.317223 -0.190855,0.09041 -0.496671,0.23061 -0.67748,0.315993 -0.180811,0.08036 -0.618329,0.28673 -0.97995,0.452473 -0.356598,0.170766 -1.275268,0.586673 -2.033669,0.933227 -0.758401,0.346554 -1.386722,0.648574 -1.396766,0.67871 -0.01512,0.05022 0.784533,2.516754 0.839781,2.582048 0.02009,0.02009 0.1604,-0.02559 0.311075,-0.0959 0.401801,-0.195879 1.480998,-0.693436 2.279579,-1.050034 0.386735,-0.170766 0.874849,-0.391473 1.080772,-0.486901 0.205923,-0.09543 0.54656,-0.251304 0.752483,-0.346732 0.662973,-0.296329 0.874706,-0.426503 0.909863,-0.552067 0.07534,-0.256148 0.446886,-1.452019 0.597561,-1.929159 0.0904,-0.276238 0.180325,-0.572528 0.200417,-0.652889 0.02512,-0.08538 0.08032,-0.275977 0.120495,-0.426653 0.04018,-0.150675 0.06066,-0.29109 0.04057,-0.306157 z m -1.249219,4.122671 c -0.06592,-0.0031 -0.220179,0.04491 -0.393456,0.131563 -0.210945,0.100449 -1.36525,0.627723 -2.349664,1.069706 -0.135604,0.06027 -0.472451,0.221066 -0.753712,0.351651 -0.281263,0.135604 -0.683039,0.315345 -0.888963,0.40575 -0.552477,0.236058 -0.542401,0.211177 -0.356568,0.758631 0.09041,0.261171 0.235216,0.713129 0.335666,1.009458 0.09543,0.296327 0.196206,0.552982 0.221318,0.56805 0.04521,0.03013 0.446703,-0.145648 1.908257,-0.828715 0.482162,-0.226013 1.005099,-0.466995 1.155775,-0.537311 0.150678,-0.07031 0.281461,-0.130234 0.286485,-0.135247 0.01512,-0.01003 0.576716,-1.843455 0.692234,-2.240235 0.03516,-0.125564 0.09159,-0.291068 0.121719,-0.366406 0.03013,-0.08036 0.05409,-0.15092 0.05409,-0.165988 0,-0.01256 -0.01122,-0.01988 -0.03319,-0.0209 z m -1.112741,3.437814 c -0.04646,-6.3e-4 -0.119646,0.02597 -0.220089,0.07869 -0.100458,0.05525 -0.562036,0.271035 -1.02913,0.481982 -1.265675,0.572568 -1.672183,0.768966 -1.672183,0.804124 0,0.04521 0.512303,1.59666 0.532393,1.621772 0.01512,0.01513 0.104877,-0.0053 0.205335,-0.0455 0.170765,-0.06026 1.34639,-0.597933 1.522177,-0.698382 0.04018,-0.02009 0.135027,-0.215499 0.205336,-0.43649 0.165736,-0.492208 0.507593,-1.627169 0.517639,-1.722596 0.0051,-0.05525 -0.01496,-0.08297 -0.06149,-0.0836 z m -0.78937,2.853777 c -0.05274,-0.03414 -0.271079,0.04925 -0.775843,0.282797 -0.346554,0.155693 -0.633007,0.322536 -0.643053,0.362716 -0.01513,0.100458 0.561879,1.818083 0.622151,1.838173 0.02512,0.01003 0.08042,-0.09074 0.115584,-0.221319 0.04018,-0.135605 0.101325,-0.341665 0.136488,-0.467227 0.100458,-0.346555 0.506968,-1.622146 0.547148,-1.722596 0.01513,-0.03642 0.01513,-0.06117 -0.0025,-0.07255 z"
       id="path6" />
    <rect
       style="fill:#3f3f3f;stroke-width:0.449662"
       width="11.691235"
       height="3.14764"
       x="10.634998"
       y="9.856699"
       id="rect8" />
  </g>
</svg>
