<?xml version="1.0" encoding="UTF-8" standalone="no"?>
<svg
   xmlns:dc="http://purl.org/dc/elements/1.1/"
   xmlns:cc="http://creativecommons.org/ns#"
   xmlns:rdf="http://www.w3.org/1999/02/22-rdf-syntax-ns#"
   xmlns:svg="http://www.w3.org/2000/svg"
   xmlns="http://www.w3.org/2000/svg"
   xmlns:xlink="http://www.w3.org/1999/xlink"
   xmlns:sodipodi="http://sodipodi.sourceforge.net/DTD/sodipodi-0.dtd"
   xmlns:inkscape="http://www.inkscape.org/namespaces/inkscape"
   inkscape:version="1.0 (4035a4fb49, 2020-05-01)"
   sodipodi:docname="drive-removable-media.svg"
   id="svg275"
   viewBox="0 0 16.933 16.933"
   version="1.1"
   height="64"
   width="64">
  <metadata
     id="metadata279">
    <rdf:RDF>
      <cc:Work
         rdf:about="">
        <dc:format>image/svg+xml</dc:format>
        <dc:type
           rdf:resource="http://purl.org/dc/dcmitype/StillImage" />
        <dc:title></dc:title>
      </cc:Work>
    </rdf:RDF>
  </metadata>
  <sodipodi:namedview
     inkscape:current-layer="svg275"
     inkscape:window-maximized="1"
     inkscape:window-y="0"
     inkscape:window-x="0"
     inkscape:cy="26.017384"
     inkscape:cx="50.749964"
     inkscape:zoom="6.375"
     showgrid="false"
     id="namedview277"
     inkscape:window-height="985"
     inkscape:window-width="1920"
     inkscape:pageshadow="2"
     inkscape:pageopacity="0"
     guidetolerance="10"
     gridtolerance="10"
     objecttolerance="10"
     borderopacity="1"
     bordercolor="#666666"
     pagecolor="#ffffff" />
  <defs
     id="defs111">
    <linearGradient
       id="linearGradient1437">
      <stop
         id="stop2"
         offset="0"
         stop-color="#868f93" />
      <stop
         id="stop4"
         offset=".056041"
         stop-color="#939b9d" />
      <stop
         id="stop6"
         offset=".11456"
         stop-color="#7c7a74" />
      <stop
         id="stop8"
         offset=".50498"
         stop-color="#918b7f" />
      <stop
         id="stop10"
         offset=".91543"
         stop-color="#656866" />
      <stop
         id="stop12"
         offset=".96193"
         stop-color="#8f9ea5" />
      <stop
         id="stop14"
         offset="1"
         stop-color="#98aab4" />
    </linearGradient>
    <linearGradient
       gradientUnits="userSpaceOnUse"
       gradientTransform="matrix(.93463 0 0 .93463 .5535 .55295)"
       y2="1.852"
       y1="15.081"
       x2="7.9373"
       x1="7.9373"
       id="linearGradient862">
      <stop
         id="stop17"
         offset="0"
         stop-color="#eaeef3" />
      <stop
         id="stop19"
         offset="1"
         stop-color="#f8fafb" />
    </linearGradient>
    <linearGradient
       gradientUnits="userSpaceOnUse"
       y2="62.125"
       y1="62.125"
       x2="1.125"
       x1="-27.125"
       id="linearGradient4577">
      <stop
         id="stop22"
         offset="0"
         stop-color="#cbdae1" />
      <stop
         id="stop24"
         offset=".15143"
         stop-color="#585d61" />
      <stop
         id="stop26"
         offset=".61194"
         stop-color="#eaf5f9" />
      <stop
         id="stop28"
         offset=".86567"
         stop-color="#959a9e" />
      <stop
         id="stop30"
         offset="1"
         stop-color="#eff4f7" />
    </linearGradient>
    <linearGradient
       gradientUnits="userSpaceOnUse"
       y2="999.65"
       y1="1016.9"
       x2="-12.905"
       x1="-12.905"
       id="linearGradient4591">
      <stop
         id="stop33"
         offset="0"
         stop-color="#a8b1b6" />
      <stop
         id="stop35"
         offset="1"
         stop-color="#f2f5f8" />
    </linearGradient>
    <linearGradient
       xlink:href="#linearGradient4340"
       gradientUnits="userSpaceOnUse"
       gradientTransform="translate(-46.262)"
       y2="139.07"
       y1="137.54"
       x2="118.64"
       x1="120.59"
       id="linearGradient4346" />
    <linearGradient
       id="linearGradient4340">
      <stop
         id="stop39"
         offset="0" />
      <stop
         id="stop41"
         offset="1"
         stop-color="#313131" />
    </linearGradient>
    <linearGradient
       xlink:href="#linearGradient4340"
       gradientUnits="userSpaceOnUse"
       gradientTransform="translate(-39.989)"
       y2="139.07"
       y1="137.54"
       x2="118.64"
       x1="120.59"
       id="linearGradient4352" />
    <linearGradient
       xlink:href="#linearGradient4340"
       gradientUnits="userSpaceOnUse"
       gradientTransform="translate(-33.717)"
       y2="139.07"
       y1="137.54"
       x2="118.64"
       x1="120.59"
       id="linearGradient4356" />
    <linearGradient
       xlink:href="#linearGradient4340"
       gradientUnits="userSpaceOnUse"
       gradientTransform="translate(-27.445)"
       y2="139.07"
       y1="137.54"
       x2="118.64"
       x1="120.59"
       id="linearGradient4360" />
    <linearGradient
       xlink:href="#linearGradient4340"
       gradientUnits="userSpaceOnUse"
       gradientTransform="translate(-21.173)"
       y2="139.07"
       y1="137.54"
       x2="118.64"
       x1="120.59"
       id="linearGradient4364" />
    <linearGradient
       xlink:href="#linearGradient4340"
       gradientUnits="userSpaceOnUse"
       gradientTransform="translate(-14.901)"
       y2="139.07"
       y1="137.54"
       x2="118.64"
       x1="120.59"
       id="linearGradient4368" />
    <linearGradient
       xlink:href="#linearGradient4340"
       gradientUnits="userSpaceOnUse"
       gradientTransform="translate(-8.6291)"
       y2="139.07"
       y1="137.54"
       x2="118.64"
       x1="120.59"
       id="linearGradient4372" />
    <linearGradient
       gradientUnits="userSpaceOnUse"
       gradientTransform="matrix(.05375 0 0 .05375 .27519 8.0369)"
       y2="111.87"
       y1="18.634"
       x2="239.69"
       x1="237.32"
       id="linearGradient4247">
      <stop
         id="stop50"
         offset="0"
         stop-color="#9fa6aa" />
      <stop
         id="stop52"
         offset="1"
         stop-color="#c2d5dc" />
    </linearGradient>
    <linearGradient
       gradientUnits="userSpaceOnUse"
       gradientTransform="matrix(.05375 0 0 .05375 .27519 8.0369)"
       y2="58.879"
       y1="58.879"
       x2="177.35"
       x1="285.3"
       id="linearGradient4265">
      <stop
         id="stop55"
         offset="0"
         stop-color="#3e3f41" />
      <stop
         id="stop57"
         offset=".14845"
         stop-color="#f6f7f7" />
      <stop
         id="stop59"
         offset=".55"
         stop-color="#8396a5" />
      <stop
         id="stop61"
         offset="1"
         stop-color="#50484b" />
    </linearGradient>
    <linearGradient
       gradientUnits="userSpaceOnUse"
       gradientTransform="matrix(.05375 0 0 .05375 .27519 8.0369)"
       y2="131.04"
       y1="131.04"
       x2="173.32"
       x1="242.09"
       id="linearGradient4336">
      <stop
         id="stop64"
         offset="0"
         stop-color="#8a8a8a" />
      <stop
         id="stop66"
         offset="1"
         stop-color="#3d3c3c" />
    </linearGradient>
    <linearGradient
       gradientUnits="userSpaceOnUse"
       gradientTransform="translate(-37.557 -.26458)"
       y2="8.7311"
       y1="14.816"
       x2="50.27"
       x1="50.27"
       id="linearGradient1417">
      <stop
         id="stop69"
         offset="0"
         stop-color="#c0d5dc" />
      <stop
         id="stop71"
         offset="1"
         stop-color="#9ea5a8" />
    </linearGradient>
    <linearGradient
       xlink:href="#linearGradient1437"
       gradientUnits="userSpaceOnUse"
       gradientTransform="matrix(.26458 0 0 .26458 -29.516 0)"
       y2="55.562"
       y1="55.562"
       x2="174.56"
       x1="144.66"
       id="linearGradient1439" />
    <linearGradient
       gradientUnits="userSpaceOnUse"
       gradientTransform="translate(-37.557,1.0583)"
       y2="14.023"
       y1="15.081"
       x2="50.27"
       x1="50.27"
       id="linearGradient1453">
      <stop
         id="stop75"
         offset="0"
         stop-color="#404041" />
      <stop
         id="stop77"
         offset="1"
         stop-color="#1e1e1e" />
    </linearGradient>
    <linearGradient
       xlink:href="#linearGradient1437"
       gradientUnits="userSpaceOnUse"
       gradientTransform="matrix(.26458 0 0 .26458 -29.516 1.3229)"
       y2="55.562"
       y1="55.562"
       x2="174.56"
       x1="144.66"
       id="linearGradient1457" />
    <linearGradient
       gradientUnits="userSpaceOnUse"
       gradientTransform="translate(-29.516)"
       y2="15.17"
       y1="15.17"
       x2="39.951"
       x1="38.364"
       id="linearGradient1517">
      <stop
         id="stop81"
         offset="0"
         stop-color="#2d2e30" />
      <stop
         id="stop83"
         offset=".33438"
         stop-opacity="0"
         stop-color="#5d5c5b" />
      <stop
         id="stop85"
         offset=".50217"
         stop-opacity="0"
         stop-color="#7a7b7b" />
      <stop
         id="stop87"
         offset=".68594"
         stop-opacity="0"
         stop-color="#555" />
      <stop
         id="stop89"
         offset="1"
         stop-color="#333" />
    </linearGradient>
    <linearGradient
       gradientUnits="userSpaceOnUse"
       gradientTransform="translate(-23.431)"
       y2="15.17"
       y1="15.17"
       x2="39.951"
       x1="38.364"
       id="linearGradient1521">
      <stop
         id="stop92"
         offset="0"
         stop-color="#2d2e30" />
      <stop
         id="stop94"
         offset=".33438"
         stop-opacity="0"
         stop-color="#5d5c5b" />
      <stop
         id="stop96"
         offset=".50217"
         stop-opacity="0"
         stop-color="#7a7b7b" />
      <stop
         id="stop98"
         offset=".68594"
         stop-opacity="0"
         stop-color="#555" />
      <stop
         id="stop100"
         offset="1"
         stop-color="#70787e" />
    </linearGradient>
    <linearGradient
       gradientUnits="userSpaceOnUse"
       y2="4"
       y1="60"
       x2="28"
       x1="28"
       id="linearGradient2882">
      <stop
         id="stop103"
         offset="0"
         stop-color="#1f1f1f" />
      <stop
         id="stop105"
         offset="1"
         stop-color="#525252" />
    </linearGradient>
    <filter
       color-interpolation-filters="sRGB"
       height="1.5472"
       width="1.0526"
       y="-.2736"
       x="-.026308"
       id="filter1960">
      <feGaussianBlur
         id="feGaussianBlur108"
         stdDeviation="0.086714751" />
    </filter>
    <linearGradient
       id="linearGradient4261">
      <stop
         stop-color="#586c71"
         offset="0"
         id="stop1104" />
      <stop
         stop-color="#597075"
         offset="1"
         id="stop1106" />
    </linearGradient>
    <linearGradient
       id="linearGradient4251">
      <stop
         stop-color="#3b3f40"
         offset="0"
         id="stop1109" />
      <stop
         stop-color="#4d5253"
         offset="1"
         id="stop1111" />
    </linearGradient>
    <linearGradient
       id="linearGradient4178">
      <stop
         stop-color="#8ba4aa"
         offset="0"
         id="stop1114" />
      <stop
         stop-color="#6f8c92"
         offset="1"
         id="stop1116" />
    </linearGradient>
    <linearGradient
       id="linearGradient1448"
       x1="3.9687"
       x2="3.9687"
       y1="16.404"
       y2="2.6458"
       gradientTransform="matrix(0.91667,0,0,0.91667,0.70544,0.70544)"
       gradientUnits="userSpaceOnUse">
      <stop
         stop-color="#737878"
         offset="0"
         id="stop1119" />
      <stop
         stop-color="#d2e1e6"
         offset="1"
         id="stop1121" />
    </linearGradient>
    <filter
       id="filter861"
       x="-.027"
       y="-.027"
       width="1.054"
       height="1.054"
       color-interpolation-filters="sRGB">
      <feGaussianBlur
         stdDeviation="0.16371"
         id="feGaussianBlur1124" />
    </filter>
    <linearGradient
       id="linearGradient2226"
       x1="52.326"
       x2="31.113"
       y1="973.87"
       y2="967.86"
       gradientTransform="matrix(0.26708,0,0,0.254,-10.452,-246.31)"
       gradientUnits="userSpaceOnUse">
      <stop
         stop-color="#121212"
         offset="0"
         id="stop1127" />
      <stop
         stop-color="#3f3e3e"
         offset="1"
         id="stop1129" />
    </linearGradient>
    <linearGradient
       id="linearGradient2228"
       x1="57.188"
       x2="57.188"
       y1="977.17"
       y2="966.55"
       gradientTransform="matrix(0.27718,0,0,0.31268,-10.918,-303.33)"
       gradientUnits="userSpaceOnUse">
      <stop
         stop-color="#b6c4c8"
         offset="0"
         id="stop1132" />
      <stop
         stop-color="#ddecee"
         offset="1"
         id="stop1134" />
    </linearGradient>
    <linearGradient
       id="linearGradient2230"
       x1="69.75"
       x2="69.75"
       y1="1001.1"
       y2="972.11"
       gradientTransform="matrix(0.26458,0,0,0.26458,-10.439,-256.58)"
       gradientUnits="userSpaceOnUse">
      <stop
         stop-color="#a5b2b5"
         offset="0"
         id="stop1137" />
      <stop
         stop-color="#b9cacd"
         offset=".35345"
         id="stop1139" />
      <stop
         stop-color="#cad8db"
         offset="1"
         id="stop1141" />
    </linearGradient>
    <linearGradient
       id="linearGradient2232"
       x1="42.073"
       x2="42.073"
       y1="980.1"
       y2="964.86"
       gradientTransform="matrix(0.25355,0,0,0.23345,-10.02,-226.07)"
       gradientUnits="userSpaceOnUse">
      <stop
         stop-color="#88969a"
         offset="0"
         id="stop1144" />
      <stop
         stop-color="#c0cfd4"
         offset=".28696"
         id="stop1146" />
      <stop
         stop-color="#b9c9ce"
         offset=".6087"
         id="stop1148" />
      <stop
         stop-color="#d2e1e5"
         offset="1"
         id="stop1150" />
    </linearGradient>
    <linearGradient
       id="linearGradient2234"
       x1="53.033"
       x2="55.685"
       y1="1010.3"
       y2="998.62"
       gradientUnits="userSpaceOnUse">
      <stop
         stop-color="#797e81"
         offset="0"
         id="stop1153" />
      <stop
         stop-color="#b0b7bb"
         offset=".34201"
         id="stop1155" />
      <stop
         stop-color="#b8c5c8"
         offset="1"
         id="stop1157" />
    </linearGradient>
    <linearGradient
       id="linearGradient2236"
       x1="48.79"
       x2="48.79"
       y1="1009.7"
       y2="1001.2"
       gradientTransform="matrix(0.90295,0,0,0.80113,4.6586,197.89)"
       gradientUnits="userSpaceOnUse">
      <stop
         stop-color="#909b9f"
         offset="0"
         id="stop1160" />
      <stop
         stop-color="#bbc8cb"
         offset="1"
         id="stop1162" />
    </linearGradient>
    <radialGradient
       id="radialGradient2238"
       cx="-75.884"
       cy="44.052"
       r="29.714"
       gradientTransform="matrix(0.25548,8.737e-4,0,0.17338,21.709,2.53)"
       gradientUnits="userSpaceOnUse">
      <stop
         stop-opacity="0"
         offset="0"
         id="stop1165" />
      <stop
         stop-opacity="0"
         offset=".81612"
         id="stop1167" />
      <stop
         stop-opacity=".023529"
         offset=".90911"
         id="stop1169" />
      <stop
         stop-opacity=".2"
         offset="1"
         id="stop1171" />
    </radialGradient>
    <linearGradient
       id="linearGradient2240"
       x1="50.912"
       x2="50.912"
       y1="1025.5"
       y2="988.02"
       gradientTransform="matrix(0.25243,0,0,0.24421,-9.8559,-236.15)"
       gradientUnits="userSpaceOnUse">
      <stop
         stop-color="#7d8385"
         offset="0"
         id="stop1174" />
      <stop
         stop-color="#bccdd1"
         offset="1"
         id="stop1176" />
    </linearGradient>
    <linearGradient
       id="linearGradient2242"
       x1="69.75"
       x2="69.75"
       y1="1001.1"
       y2="972.11"
       gradientTransform="matrix(0.26458,0,0,0.26458,-9.9097,-255.94)"
       gradientUnits="userSpaceOnUse">
      <stop
         stop-color="#d2dde0"
         offset="0"
         id="stop1179" />
      <stop
         stop-color="#e0e8ea"
         offset=".35345"
         id="stop1181" />
      <stop
         stop-color="#dbe5e7"
         offset="1"
         id="stop1183" />
    </linearGradient>
    <linearGradient
       id="linearGradient2244"
       x1="53.49"
       x2="69.711"
       y1="1029.6"
       y2="983.83"
       gradientTransform="matrix(0.26458,0,0,0.26458,-10.439,-256.58)"
       gradientUnits="userSpaceOnUse">
      <stop
         stop-color="#83898b"
         offset="0"
         id="stop1186" />
      <stop
         stop-color="#6f7677"
         offset=".1904"
         id="stop1188" />
      <stop
         stop-color="#c2cfd3"
         offset=".39515"
         id="stop1190" />
      <stop
         stop-color="#e6eef0"
         offset="1"
         id="stop1192" />
    </linearGradient>
    <linearGradient
       id="linearGradient2363"
       x1="1.1906"
       x2="15.742"
       y1="12.846"
       y2="12.846"
       gradientUnits="userSpaceOnUse">
      <stop
         stop-color="#5f6469"
         offset="0"
         id="stop1195" />
      <stop
         stop-color="#737373"
         offset=".12512"
         id="stop1197" />
      <stop
         stop-color="#373737"
         offset=".27172"
         id="stop1199" />
      <stop
         stop-color="#646969"
         offset=".75536"
         id="stop1201" />
      <stop
         stop-color="#5f5f5f"
         offset=".87327"
         id="stop1203" />
      <stop
         stop-color="#6e7378"
         offset="1"
         id="stop1205" />
    </linearGradient>
    <linearGradient
       id="linearGradient2375"
       x1="69.191"
       x2="69.191"
       y1="87.105"
       y2="87.729"
       gradientTransform="matrix(0.19242,0,0,0.21324,-1.5368,-3.4567)"
       gradientUnits="userSpaceOnUse">
      <stop
         offset="0"
         id="stop1208" />
      <stop
         stop-color="#2f2f2f"
         offset="1"
         id="stop1210" />
    </linearGradient>
    <radialGradient
       id="radialGradient2379"
       cx="-18.219"
       cy="85.049"
       r="3.266"
       gradientTransform="matrix(0.088165,-0.088165,0.085923,0.085923,-3.2881,-5.6025)"
       gradientUnits="userSpaceOnUse"
       xlink:href="#linearGradient4178" />
    <radialGradient
       id="radialGradient2385"
       cx="-18.219"
       cy="85.049"
       r="3.266"
       gradientTransform="matrix(0.088165,-0.088165,0.085923,0.085923,8.8368,-5.6025)"
       gradientUnits="userSpaceOnUse"
       xlink:href="#linearGradient4178" />
    <radialGradient
       id="radialGradient2389"
       cx="-18.219"
       cy="85.049"
       r="3.266"
       gradientTransform="matrix(0.088165,-0.088165,0.085923,0.085923,-3.2881,-1.7161)"
       gradientUnits="userSpaceOnUse"
       xlink:href="#linearGradient4261" />
    <radialGradient
       id="radialGradient2393"
       cx="-18.219"
       cy="85.049"
       r="3.266"
       gradientTransform="matrix(0.088165,-0.088165,0.085923,0.085923,8.8368,-1.7161)"
       gradientUnits="userSpaceOnUse"
       xlink:href="#linearGradient4261" />
    <radialGradient
       id="radialGradient2397"
       cx="-18.219"
       cy="85.049"
       r="3.266"
       gradientTransform="matrix(0.088165,-0.088165,0.085923,0.085923,-3.2881,2.1703)"
       gradientUnits="userSpaceOnUse"
       xlink:href="#linearGradient4251" />
    <radialGradient
       id="radialGradient2401"
       cx="-18.219"
       cy="85.049"
       r="3.266"
       gradientTransform="matrix(0.088165,-0.088165,0.085923,0.085923,8.8368,2.1703)"
       gradientUnits="userSpaceOnUse"
       xlink:href="#linearGradient4251" />
  </defs>
  <text
     id="text121"
     xml:space="preserve"
     style="line-height:1.25"
     word-spacing="0px"
     stroke-width=".26458"
     letter-spacing="0px"
     font-size="10.583px"
     font-family="'Noto Serif CJK SC'"
     fill="#000000"
     y="9.0578918"
     x="29.471731"><tspan
       id="tspan119"
       stroke-width=".26458"
       y="19.693933"
       x="29.471731" /></text>
  <g
     id="g1623">
    <rect
       x="1.1905"
       y="1.1905"
       width="14.552"
       height="14.552"
       ry="3.4395001"
       filter="url(#filter861)"
       opacity="0.3"
       stroke-opacity="0.95294"
       stroke-width="0.083153"
       id="rect1223" />
    <rect
       style="fill:url(#linearGradient1448)"
       x="1.1905"
       y="1.1905"
       width="14.552"
       height="14.552"
       ry="3.4395001"
       fill="url(#linearGradient1448)"
       stroke-opacity="0.95294"
       stroke-width="0.083153"
       id="rect1225" />
    <g
       transform="matrix(0.60606,0,0,0.60606,7.0963,2.8753)"
       id="g1421">
      <g
         id="g1235">
        <ellipse
           cx="2.2609"
           cy="10.218"
           rx="8.5714998"
           ry="6.0767002"
           opacity="0.05"
           id="ellipse1227" />
        <ellipse
           cx="2.2609"
           cy="10.085"
           rx="8.5481005"
           ry="6.0767002"
           opacity="0.1"
           id="ellipse1229" />
        <ellipse
           cx="2.2609"
           cy="9.9530001"
           rx="8.5481005"
           ry="6.0767002"
           opacity="0.1"
           id="ellipse1231" />
        <rect
           x="4.7743001"
           y="2.5397"
           width="0.39686999"
           height="1.5875"
           rx="0"
           ry="0"
           opacity="0.2"
           id="rect1233" />
      </g>
      <ellipse
         style="fill:url(#linearGradient2244)"
         cx="2.2609"
         cy="9.6884003"
         rx="8.7351999"
         ry="6.0767002"
         fill="url(#linearGradient2244)"
         id="ellipse1237" />
      <path
         style="fill:url(#linearGradient2242)"
         d="m 6.4264,-0.069165 c -0.40181,0.015721 -0.72604,0.35716 -0.72604,0.80097 v 4.2823 c 2.6385,0.66418 4.6661,2.7179 5.2802,4.5682 l -0.24186,-8.9908 c -0.01,-0.44369 -0.32423,-0.81669 -0.72604,-0.80097 z"
         fill="url(#linearGradient2242)"
         id="path1239" />
      <ellipse
         style="fill:url(#linearGradient2240)"
         cx="2.2609"
         cy="9.6269999"
         rx="8.3341999"
         ry="5.6090002"
         fill="url(#linearGradient2240)"
         id="ellipse1241" />
      <ellipse
         cx="2.2609"
         cy="9.6104002"
         rx="7.6395001"
         ry="5.0816998"
         fill="#ffeeaa"
         id="ellipse1243" />
      <path
         d="m 7.6628,13.204 a 7.6395,5.0817 0 0 1 -5.402,1.4884 V 9.6107 Z"
         fill="#37c871"
         id="path1245" />
      <path
         d="m -5.3787,9.6104 a 7.6395,5.0817 0 0 1 2.2376,-3.5933 l 5.402,3.5933 z"
         fill="#7df4fc"
         id="path1247" />
      <path
         d="M 2.2609,14.692 A 7.6395,5.0817 0 0 1 -3.1411,13.2036 7.6395,5.0817 0 0 1 -5.3787,9.6103 H 2.2608 Z"
         fill="#ffffff"
         id="path1249" />
      <path
         style="fill:url(#radialGradient2238)"
         d="m 2.2609,4.5287 c -4.2192,0 -7.6428,2.2777 -7.6428,5.0843 0,2.8066 3.4236,5.0772 7.6428,5.0772 4.2192,0 7.6428,-2.2706 7.6428,-5.0772 0,-2.8066 -3.4236,-5.0843 -7.6428,-5.0843 z m 0,1.3615 c 3.0913,0 5.6011,1.6665 5.6011,3.7228 0,2.0563 -2.5098,3.7228 -5.6011,3.7228 -3.0913,0 -5.6011,-1.6665 -5.6011,-3.7228 0,-2.0563 2.5098,-3.7228 5.6011,-3.7228 z"
         fill="url(#radialGradient2238)"
         id="path1251" />
      <g
         transform="matrix(0.26458,0,0,0.26458,-10.439,-256.58)"
         id="g1261">
        <ellipse
           cx="48"
           cy="1004.1"
           rx="12.207"
           ry="8.4919004"
           opacity="0.1"
           id="ellipse1253" />
        <ellipse
           cx="48"
           cy="1004.1"
           rx="11.5"
           ry="8"
           opacity="0.1"
           id="ellipse1255" />
        <ellipse
           style="fill:url(#linearGradient2234)"
           cx="48"
           cy="1003"
           rx="11.5"
           ry="8"
           fill="url(#linearGradient2234)"
           id="ellipse1257" />
        <ellipse
           style="fill:url(#linearGradient2236)"
           cx="48"
           cy="1001.5"
           rx="10.384"
           ry="6.4089999"
           fill="url(#linearGradient2236)"
           id="ellipse1259" />
      </g>
      <rect
         style="fill:url(#linearGradient2232)"
         x="-6.4702001"
         y="-1.1679"
         width="12.171"
         height="3.9686999"
         rx="0.72583997"
         ry="0.80109"
         fill="url(#linearGradient2232)"
         id="rect1263" />
      <path
         style="fill:url(#linearGradient2230)"
         d="m 5.8973,-0.70488 c -0.40211,0 -0.72604,0.35716 -0.72604,0.80097 v 4.2823 c 2.6385,0.66417 4.7987,3.2679 5.4128,5.1181 l -0.18741,-9.4005 c 0,-0.4438 -0.32393,-0.80097 -0.72604,-0.80097 z"
         fill="url(#linearGradient2230)"
         id="path1265" />
      <rect
         style="fill:url(#linearGradient2228)"
         x="-6.2055998"
         y="-1.1679"
         width="11.641"
         height="3.4395001"
         rx="0.69428003"
         ry="0.69428003"
         fill="url(#linearGradient2228)"
         id="rect1267" />
      <rect
         style="fill:url(#linearGradient2226)"
         x="-5.6764998"
         y="-0.63874"
         width="10.583"
         height="2.3812001"
         rx="0.26708001"
         ry="0.25400001"
         fill="url(#linearGradient2226)"
         id="rect1269" />
      <g
         transform="matrix(0.21119,0,0,0.21119,-14.574,-205.42)"
         fill="#747474"
         id="g1301">
        <g
           fill="#747474"
           stroke-width="1px"
           id="g1299">
          <path
             d="m 46.114,972.91 q 0.0016,0.5189 -0.22898,0.74953 -0.22898,0.22897 -0.74788,0.22897 -0.49749,0 -0.738,-0.23886 -0.23886,-0.24051 -0.24051,-0.73964 v -1.509 h 0.50573 v 1.5254 q 0,0.26028 0.11696,0.39041 0.11861,0.13014 0.35582,0.13014 0.25369,0 0.36241,-0.1186 0.10872,-0.12026 0.10872,-0.40195 V 971.401 H 46.114 Z"
             id="path1271" />
          <path
             d="m 47.589,972.56 q 0,-0.10378 -0.08566,-0.16638 -0.08566,-0.0626 -0.22733,-0.0626 -0.13673,0 -0.21415,0.0478 -0.07578,0.0461 -0.07578,0.13014 0,0.0593 0.08731,0.10213 0.08566,0.0412 0.30475,0.0906 0.43489,0.0972 0.5815,0.21251 0.14661,0.11531 0.14661,0.36241 0,0.26357 -0.21415,0.42501 -0.2125,0.15979 -0.56174,0.15979 -0.41348,0 -0.63751,-0.15815 -0.22239,-0.15814 -0.23721,-0.46125 h 0.48102 q 0.0049,0.12355 0.10872,0.19439 0.10543,0.0692 0.28499,0.0692 0.14167,0 0.22074,-0.0478 0.08072,-0.0494 0.08072,-0.13672 0,-0.061 -0.07742,-0.10379 -0.07742,-0.0412 -0.27181,-0.084 -0.45466,-0.10213 -0.60786,-0.2158 -0.1532,-0.11202 -0.1532,-0.34758 0,-0.26687 0.19768,-0.42995 0.19933,-0.16473 0.52385,-0.16473 0.3657,0 0.58974,0.16143 0.22404,0.15979 0.22404,0.42336 h -0.46784 z"
             id="path1273" />
          <path
             d="m 49.162,973.86 q -0.40854,0 -0.63092,-0.25204 -0.22074,-0.25204 -0.22074,-0.71823 0,-0.42996 0.22568,-0.67211 0.22568,-0.2438 0.62598,-0.2438 0.41018,0 0.63092,0.24874 0.22239,0.2471 0.22239,0.70505 0.0033,0.0527 -0.0082,0.10708 h -1.2207 q 0.01647,0.2125 0.0939,0.31793 0.09884,0.13179 0.32946,0.13179 0.10708,0 0.19768,-0.0609 0.09225,-0.061 0.11037,-0.14661 h 0.48102 q -0.06095,0.27345 -0.28334,0.4283 -0.22074,0.15485 -0.5535,0.15485 z m 0.36076,-1.1268 q -0.01647,-0.16144 -0.08566,-0.25204 -0.0906,-0.12025 -0.28169,-0.12025 -0.18285,0 -0.2784,0.14002 -0.0593,0.0889 -0.08566,0.23227 z"
             id="path1275" />
          <path
             d="m 51.6,973.82 -0.52055,-1.7923 h 0.50078 l 0.28663,1.3162 0.26851,-1.3162 h 0.47278 l 0.26522,1.3195 0.29158,-1.3195 h 0.47608 l -0.5189,1.7923 h -0.48266 l -0.2751,-1.3343 -0.28169,1.3343 h -0.24051 z"
             id="path1277" />
          <path
             d="m 53.906,973.82 v -1.7923 h 0.47278 v 1.7923 h -0.23557 z m -0.0049,-2.4397 h 0.48102 v 0.43819 H 53.9011 Z"
             id="path1279" />
          <path
             d="m 55.647,973.83 q -0.11861,0.01 -0.29158,0.01 -0.25039,0 -0.36076,-0.089 -0.10872,-0.0906 -0.10872,-0.29487 v -1.0971 H 54.6372 v -0.33111 h 0.24874 v -0.48267 h 0.47278 v 0.48267 H 55.647 v 0.33111 h -0.28828 v 1.018 q 0,0.0626 0.03624,0.0824 0.03789,0.0198 0.15485,0.0198 H 55.647 v 0.35088 z"
             id="path1281" />
          <path
             d="m 55.95,973.82 v -2.4216 h 0.47278 v 0.85661 l 0.03789,-0.0527 q 0.17462,-0.22238 0.50737,-0.22238 0.28334,0 0.44313,0.16802 0.16144,0.16803 0.16144,0.46619 v 1.2058 h -0.47278 v -1.1202 q 0,-0.16638 -0.07248,-0.24545 -0.07083,-0.0807 -0.21909,-0.0807 -0.18615,0 -0.28663,0.11202 -0.09884,0.11202 -0.09884,0.32288 v 1.0114 h -0.47278 z"
             id="path1283" />
          <path
             d="m 60.497,973.15 q -0.03624,0.33441 -0.24875,0.5222 -0.2125,0.1878 -0.5535,0.1878 -0.40689,0 -0.62928,-0.24216 -0.22074,-0.24216 -0.22074,-0.69023 0,-0.43818 0.22898,-0.69517 0.23062,-0.25862 0.62104,-0.25862 0.34594,0 0.56668,0.19108 0.22074,0.19109 0.23557,0.50244 h -0.48102 q -0.0066,-0.13344 -0.09554,-0.2158 -0.08731,-0.0824 -0.22568,-0.0824 -0.17791,0 -0.27181,0.14332 -0.09225,0.14167 -0.09225,0.41512 0,0.26687 0.09225,0.40689 0.0939,0.13838 0.27181,0.13838 0.12849,0 0.21745,-0.089 0.08895,-0.0889 0.10378,-0.23392 h 0.48102 z"
             id="path1285" />
          <path
             d="m 61.256,973.86 q -0.24875,0 -0.4003,-0.14167 -0.15155,-0.14332 -0.15155,-0.37559 0,-0.24545 0.13673,-0.39206 0.13673,-0.14826 0.39865,-0.18615 l 0.31134,-0.0428 q 0.1219,-0.0165 0.20262,-0.056 0.03459,-0.0165 0.05271,-0.0593 0.01977,-0.0428 0.01483,-0.0873 -0.0099,-0.0758 -0.07742,-0.11861 -0.08072,-0.0511 -0.23227,-0.0511 -0.13508,0 -0.21086,0.0659 -0.07578,0.0659 -0.08072,0.18614 h -0.45301 q 0.01483,-0.31463 0.21415,-0.47113 0.19933,-0.15649 0.5848,-0.15649 0.33441,0 0.52714,0.14166 0.19438,0.14003 0.19438,0.38383 v 1.0016 q 0,0.12026 0.01977,0.16967 0.01977,0.0478 0.07907,0.0758 v 0.0662 h -0.51067 q -0.0313,-0.10872 -0.04118,-0.2125 l -0.0016,-0.003 q -0.22239,0.26357 -0.57656,0.26357 z m 0.56832,-0.70835 v -0.20592 q -0.08237,0.0461 -0.21745,0.0741 l -0.17462,0.033 q -0.12355,0.0231 -0.1878,0.0857 -0.06424,0.0609 -0.06424,0.15485 0,0.10707 0.05766,0.16803 0.05766,0.061 0.16144,0.061 0.22733,0 0.36241,-0.15979 0.02636,-0.0313 0.04448,-0.0923 0.01812,-0.0609 0.01812,-0.11861 z"
             id="path1287" />
          <path
             d="m 63.18,972.03 v 1.1218 q 0,0.16473 0.07083,0.24381 0.07084,0.0791 0.21745,0.0791 0.1845,0 0.28334,-0.11202 0.09884,-0.11202 0.09884,-0.32288 v -1.0098 h 0.47278 v 1.7923 h -0.44972 v -0.26851 q -0.02471,0.0494 -0.0593,0.0922 -0.17462,0.22239 -0.50573,0.22239 -0.28334,0 -0.44313,-0.16638 -0.15814,-0.16803 -0.15814,-0.46455 v -1.2075 H 63.18 Z"
             id="path1289" />
          <path
             d="m 65.59,973.83 q -0.11861,0.01 -0.29158,0.01 -0.25039,0 -0.36076,-0.089 -0.10872,-0.0906 -0.10872,-0.29487 v -1.0971 H 64.5802 v -0.33111 h 0.24874 v -0.48267 h 0.47278 v 0.48267 H 65.59 v 0.33111 h -0.28828 v 1.018 q 0,0.0626 0.03624,0.0824 0.03789,0.0198 0.15485,0.0198 H 65.59 v 0.35088 z"
             id="path1291" />
          <path
             d="m 65.912,973.82 v -1.7923 h 0.47278 v 1.7923 h -0.23557 z m -0.0049,-2.4397 h 0.48102 v 0.43819 H 65.9071 Z"
             id="path1293" />
          <path
             d="m 67.641,973.86 q -0.42007,0 -0.66881,-0.25204 -0.2471,-0.25204 -0.2471,-0.68035 0,-0.43818 0.2471,-0.69517 0.24875,-0.25862 0.66881,-0.25862 0.42336,0 0.67046,0.25862 0.2471,0.25699 0.2471,0.69517 0,0.42831 -0.2471,0.68035 Q 68.06436,973.86 67.641,973.86 Z m 0,-0.39536 q 0.21086,0 0.32123,-0.13838 0.11037,-0.13837 0.11037,-0.40359 0,-0.27181 -0.11037,-0.41183 -0.11037,-0.14167 -0.32123,-0.14167 -0.21086,0 -0.32123,0.14167 -0.10872,0.14002 -0.10872,0.41183 0,0.26522 0.10872,0.40359 0.11037,0.13838 0.32123,0.13838 z"
             id="path1295" />
          <path
             d="m 68.892,973.82 v -1.7923 h 0.44972 v 0.26522 q 0.028,-0.0478 0.06095,-0.0906 0.17462,-0.22238 0.50738,-0.22238 0.28334,0 0.44313,0.16802 0.16144,0.16803 0.16144,0.46619 v 1.2058 h -0.47278 v -1.1202 q 0,-0.16638 -0.07248,-0.24545 -0.07084,-0.0807 -0.21909,-0.0807 -0.18615,0 -0.28663,0.11202 -0.09884,0.11202 -0.09884,0.32288 v 1.0114 h -0.47278 z"
             id="path1297" />
        </g>
      </g>
      <path
         d="M 4.5365,1.4227 3.531,1.4227001 2.5255,1.4227 3.531,-0.3189 4.03376,0.5519 Z"
         fill="#696969"
         id="path1303" />
      <path
         d="M 4.1038,1.1729 H 3.53092 2.95804 L 3.53092,0.18064 3.81736,0.67677 Z"
         fill="#121212"
         id="path1305" />
      <g
         transform="matrix(0.21119,0,0,0.21119,-14.574,-205.16)"
         fill="#999999"
         id="g1419">
        <g
           fill="#999999"
           stroke-width="1px"
           id="g1417">
          <path
             d="m 43.961,975.06 0.62052,-1.6436 h 0.2538 l 0.59034,1.6436 H 45.1864 l -0.16659,-0.4763 h -0.65742 l -0.17218,0.4763 h -0.11404 z m 0.7368,-1.402 -0.26386,0.72898 h 0.51766 z"
             id="path1307" />
          <path
             d="m 45.607,975.06 v -1.1963 h 0.19119 v 0.17666 l 0.04472,-0.0593 q 0.13081,-0.15317 0.32759,-0.15317 0.1979,0 0.30523,0.10733 0.10733,0.10733 0.10733,0.30523 v 0.81954 h -0.20125 v -0.75134 q 0,-0.15765 -0.06149,-0.22696 -0.06038,-0.0704 -0.19678,-0.0704 -0.14535,0 -0.23032,0.11069 -0.08497,0.10957 -0.08497,0.2974 v 0.64065 H 45.607 Z"
             id="path1309" />
          <path
             d="m 47.852,973.86 -0.45505,1.2355 q -0.1051,0.27616 -0.18783,0.36113 -0.08162,0.085 -0.24597,0.085 -0.05367,10e-4 -0.09727,-0.0123 v -0.18672 q 0.04584,0.0168 0.11516,0.0179 0.0682,0 0.11404,-0.0559 0.04584,-0.0559 0.10398,-0.20908 l 0.0034,-0.019 -0.44387,-1.2164 h 0.2292 l 0.31976,0.98949 0.32424,-0.98949 h 0.22026 z"
             id="path1311" />
          <path
             d="m 49.118,975.09 q -0.24038,0 -0.38238,-0.17889 -0.14199,-0.18001 -0.14199,-0.48524 0,-0.26945 0.13752,-0.43492 0.13752,-0.16547 0.3589,-0.16547 0.22026,0 0.34884,0.18671 l 0.01565,0.0224 v -0.62052 h 0.20125 v 1.6436 h -0.18672 v -0.16324 l -0.02572,0.0369 q -0.1241,0.15876 -0.32536,0.15876 z m 0.01118,-1.0834 q -0.16883,0 -0.24709,0.10845 -0.07826,0.10734 -0.07826,0.34213 0,0.22138 0.08385,0.34101 0.08497,0.11963 0.2415,0.11963 0.14647,0 0.23591,-0.10957 0.08944,-0.11069 0.08944,-0.29181 0,-0.24486 -0.08497,-0.37679 -0.08385,-0.13305 -0.24038,-0.13305 z"
             id="path1313" />
          <path
             d="m 50.251,975.09 q -0.17554,0 -0.2784,-0.0939 -0.10286,-0.0939 -0.10286,-0.2538 0,-0.161 0.09615,-0.25603 0.09727,-0.095 0.28287,-0.11852 l 0.27392,-0.0347 q 0.03354,-0.003 0.06373,-0.0112 0.03913,-0.0101 0.06038,-0.0403 0.02124,-0.0302 0.02124,-0.076 v -0.0101 q 0,-0.0961 -0.07267,-0.14982 -0.07267,-0.0548 -0.20237,-0.0548 -0.1241,0 -0.19454,0.0581 -0.06932,0.057 -0.08385,0.17106 H 49.929 q 0.01454,-0.19678 0.13864,-0.29517 0.1241,-0.0995 0.35554,-0.0995 0.21802,0 0.33206,0.095 0.11404,0.0939 0.11404,0.27504 v 0.65742 q 0,0.0302 0.01789,0.0492 0.01901,0.0179 0.05031,0.0179 0.0089,0 0.02571,-0.002 0.01789,-0.002 0.03801,-0.007 v 0.14535 q -0.02907,0.0112 -0.06149,0.0179 -0.03242,0.007 -0.05479,0.007 -0.11404,0 -0.16547,-0.0626 -0.03354,-0.0414 -0.04808,-0.1174 -0.02236,0.028 -0.05143,0.0537 -0.15094,0.13528 -0.36896,0.13528 z m 0.41704,-0.50648 v -0.12969 q -0.0559,0.0268 -0.1241,0.0369 l -0.18448,0.0268 q -0.14535,0.0201 -0.21243,0.0682 -0.06708,0.047 -0.06708,0.12857 0,0.10063 0.05478,0.15541 0.05479,0.0537 0.15541,0.0537 0.15876,0 0.26833,-0.0861 0.07491,-0.0604 0.09951,-0.1364 0.0045,-0.0145 0.0067,-0.0458 0.0034,-0.0324 0.0034,-0.0716 z"
             id="path1315" />
          <path
             d="m 51.65,975.06 q -0.10286,0.0156 -0.14982,0.0156 -0.13193,0 -0.18672,-0.0581 -0.05367,-0.0581 -0.05367,-0.20013 v -0.78823 h -0.16547 v -0.16436 h 0.16547 v -0.33541 h 0.20125 v 0.33541 h 0.18895 v 0.16436 h -0.18895 v 0.78823 q 0,0.0403 0.03131,0.0637 0.03242,0.0235 0.08609,0.0235 H 51.65 v 0.15541 z"
             id="path1317" />
          <path
             d="m 52.161,975.09 q -0.17554,0 -0.2784,-0.0939 -0.10286,-0.0939 -0.10286,-0.2538 0,-0.161 0.09615,-0.25603 0.09727,-0.095 0.28287,-0.11852 l 0.27392,-0.0347 q 0.03354,-0.003 0.06373,-0.0112 0.03913,-0.0101 0.06038,-0.0403 0.02124,-0.0302 0.02124,-0.076 v -0.0101 q 0,-0.0961 -0.07267,-0.14982 -0.07267,-0.0548 -0.20237,-0.0548 -0.1241,0 -0.19454,0.0581 -0.06932,0.057 -0.08385,0.17106 H 51.839 q 0.01454,-0.19678 0.13864,-0.29517 0.1241,-0.0995 0.35554,-0.0995 0.21802,0 0.33206,0.095 0.11404,0.0939 0.11404,0.27504 v 0.65742 q 0,0.0302 0.01789,0.0492 0.01901,0.0179 0.05031,0.0179 0.0089,0 0.02571,-0.002 0.01789,-0.002 0.03801,-0.007 v 0.14535 q -0.02907,0.0112 -0.06149,0.0179 -0.03242,0.007 -0.05479,0.007 -0.11404,0 -0.16547,-0.0626 -0.03354,-0.0414 -0.04808,-0.1174 -0.02236,0.028 -0.05143,0.0537 -0.15094,0.13528 -0.36896,0.13528 z m 0.41704,-0.50648 v -0.12969 q -0.0559,0.0268 -0.1241,0.0369 l -0.18448,0.0268 q -0.14535,0.0201 -0.21243,0.0682 -0.06708,0.047 -0.06708,0.12857 0,0.10063 0.05478,0.15541 0.05479,0.0537 0.15541,0.0537 0.15876,0 0.26833,-0.0861 0.07491,-0.0604 0.09951,-0.1364 0.0045,-0.0145 0.0067,-0.0458 0.0034,-0.0324 0.0034,-0.0716 z"
             id="path1319" />
          <path
             d="m 53.76,975.06 v -1.6436 h 0.20125 v 1.6436 h -0.10063 z"
             id="path1321" />
          <path
             d="m 54.753,975.09 q -0.24821,0 -0.4025,-0.17442 -0.15318,-0.17441 -0.15318,-0.45728 0,-0.28399 0.15318,-0.45841 0.15429,-0.17441 0.4025,-0.17441 0.25045,0 0.40362,0.17441 0.15317,0.17442 0.15317,0.45841 0,0.28287 -0.15317,0.45728 Q 55.00345,975.09 54.753,975.09 Z m 0,-0.1733 q 0.15876,0 0.25268,-0.1241 0.09392,-0.12411 0.09392,-0.3343 0,-0.2102 -0.09392,-0.3343 -0.09392,-0.12523 -0.25268,-0.12523 -0.15876,0 -0.25268,0.12523 -0.0928,0.1241 -0.0928,0.3343 0,0.21019 0.0928,0.3343 0.09392,0.1241 0.25268,0.1241 z"
             id="path1323" />
          <path
             d="m 56.225,974.21 q -0.0089,-0.0995 -0.08162,-0.15429 -0.07156,-0.0548 -0.19342,-0.0548 -0.12522,0 -0.19119,0.0436 -0.06485,0.0436 -0.06485,0.12746 0,0.0637 0.04584,0.0962 0.04584,0.0324 0.18224,0.0648 l 0.20796,0.0492 q 0.17442,0.0425 0.24933,0.1174 0.07379,0.0738 0.07379,0.20684 0,0.17777 -0.12858,0.28175 -0.12746,0.10398 -0.34548,0.10398 -0.25268,0 -0.37679,-0.0995 -0.1241,-0.10062 -0.13752,-0.31529 h 0.19342 q 0.01453,0.12746 0.08944,0.18448 0.07603,0.057 0.23144,0.057 0.13529,0 0.2046,-0.0514 0.07044,-0.0514 0.07044,-0.14982 0,-0.0626 -0.04584,-0.095 -0.04584,-0.0324 -0.18448,-0.0648 l -0.20796,-0.0492 q -0.16883,-0.0403 -0.24038,-0.11292 -0.07156,-0.0716 -0.07156,-0.20125 0,-0.16883 0.11963,-0.26722 0.12075,-0.0995 0.32647,-0.0995 0.20908,0 0.33206,0.10174 0.1241,0.10174 0.13193,0.28063 h -0.18895 z"
             id="path1325" />
          <path
             d="m 57.37,974.21 q -0.0089,-0.0995 -0.08162,-0.15429 -0.07156,-0.0548 -0.19342,-0.0548 -0.12522,0 -0.19119,0.0436 -0.06485,0.0436 -0.06485,0.12746 0,0.0637 0.04584,0.0962 0.04584,0.0324 0.18224,0.0648 l 0.20796,0.0492 q 0.17442,0.0425 0.24933,0.1174 0.07379,0.0738 0.07379,0.20684 0,0.17777 -0.12858,0.28175 -0.12746,0.10398 -0.34548,0.10398 -0.25268,0 -0.37679,-0.0995 -0.1241,-0.10062 -0.13752,-0.31529 h 0.19342 q 0.01453,0.12746 0.08944,0.18448 0.07603,0.057 0.23144,0.057 0.13528,0 0.2046,-0.0514 0.07044,-0.0514 0.07044,-0.14982 0,-0.0626 -0.04584,-0.095 -0.04584,-0.0324 -0.18448,-0.0648 l -0.20796,-0.0492 q -0.16883,-0.0403 -0.24038,-0.11292 -0.07156,-0.0716 -0.07156,-0.20125 0,-0.16883 0.11963,-0.26722 0.12075,-0.0995 0.32647,-0.0995 0.20908,0 0.33206,0.10174 0.1241,0.10174 0.13193,0.28063 h -0.18895 z"
             id="path1327" />
          <path
             d="m 58.471,975.06 v -1.1963 h 0.20125 v 1.1963 h -0.10062 z m -0.0022,-1.6436 h 0.20572 v 0.22808 H 58.4688 Z"
             id="path1329" />
          <path
             d="m 59.66,974.21 q -0.0089,-0.0995 -0.08162,-0.15429 -0.07156,-0.0548 -0.19342,-0.0548 -0.12522,0 -0.19119,0.0436 -0.06485,0.0436 -0.06485,0.12746 0,0.0637 0.04584,0.0962 0.04584,0.0324 0.18224,0.0648 l 0.20796,0.0492 q 0.17442,0.0425 0.24933,0.1174 0.07379,0.0738 0.07379,0.20684 0,0.17777 -0.12858,0.28175 -0.12746,0.10398 -0.34548,0.10398 -0.25268,0 -0.37679,-0.0995 -0.1241,-0.10062 -0.13752,-0.31529 h 0.19342 q 0.01454,0.12746 0.08944,0.18448 0.07603,0.057 0.23144,0.057 0.13528,0 0.2046,-0.0514 0.07044,-0.0514 0.07044,-0.14982 0,-0.0626 -0.04584,-0.095 -0.04584,-0.0324 -0.18448,-0.0648 l -0.20796,-0.0492 q -0.16883,-0.0403 -0.24038,-0.11292 -0.07155,-0.0716 -0.07155,-0.20125 0,-0.16883 0.11963,-0.26722 0.12075,-0.0995 0.32647,-0.0995 0.20908,0 0.33206,0.10174 0.1241,0.10174 0.13193,0.28063 h -0.18895 z"
             id="path1331" />
          <path
             d="m 60.754,975.06 v -1.1963 h 0.19119 v 0.17666 l 0.04472,-0.0593 q 0.13081,-0.15317 0.32759,-0.15317 0.1979,0 0.30523,0.10733 0.10733,0.10733 0.10733,0.30523 v 0.81954 h -0.20125 v -0.75134 q 0,-0.15765 -0.06149,-0.22696 -0.06038,-0.0704 -0.19678,-0.0704 -0.14535,0 -0.23032,0.11069 -0.08497,0.10957 -0.08497,0.2974 v 0.64065 H 60.754 Z"
             id="path1333" />
          <path
             d="m 62.516,975.09 q -0.24821,0 -0.4025,-0.17442 -0.15318,-0.17441 -0.15318,-0.45728 0,-0.28399 0.15318,-0.45841 0.15429,-0.17441 0.4025,-0.17441 0.25045,0 0.40362,0.17441 0.15317,0.17442 0.15317,0.45841 0,0.28287 -0.15317,0.45728 Q 62.76645,975.09 62.516,975.09 Z m 0,-0.1733 q 0.15876,0 0.25268,-0.1241 0.09392,-0.12411 0.09392,-0.3343 0,-0.2102 -0.09392,-0.3343 -0.09392,-0.12523 -0.25268,-0.12523 -0.15876,0 -0.25268,0.12523 -0.0928,0.1241 -0.0928,0.3343 0,0.21019 0.0928,0.3343 0.09392,0.1241 0.25268,0.1241 z"
             id="path1335" />
          <path
             d="m 63.743,975.06 q -0.10286,0.0156 -0.14982,0.0156 -0.13193,0 -0.18672,-0.0581 -0.05367,-0.0581 -0.05367,-0.20013 v -0.78823 h -0.16547 v -0.16436 h 0.16547 v -0.33541 h 0.20125 v 0.33541 h 0.18895 v 0.16436 h -0.18895 v 0.78823 q 0,0.0403 0.03131,0.0637 0.03242,0.0235 0.08609,0.0235 H 63.743 v 0.15541 z"
             id="path1337" />
          <path
             d="m 65.012,975.4 q 0.1733,0 0.26386,-0.10957 0.09056,-0.10845 0.09056,-0.31753 v -0.0391 l -0.0011,10e-4 q -0.1241,0.15876 -0.32424,0.15876 -0.24038,0 -0.38238,-0.17889 -0.14199,-0.18001 -0.14199,-0.48524 0,-0.26945 0.13976,-0.43492 0.13976,-0.16547 0.36561,-0.16547 0.21578,0 0.34213,0.18671 l 0.01454,0.0212 v -0.17218 h 0.18895 v 1.108 q -0.0011,0.303 -0.1364,0.44834 -0.13529,0.14535 -0.41592,0.14535 -0.20349,0 -0.32312,-0.0939 -0.11963,-0.0939 -0.14423,-0.2728 h 0.20572 q 0.01789,0.0962 0.08497,0.14758 0.0682,0.0525 0.1733,0.0525 z m 0.03913,-1.3875 q -0.16883,0 -0.24709,0.10733 -0.07715,0.10733 -0.07715,0.34101 0,0.22026 0.08385,0.33989 0.08497,0.11851 0.24038,0.11851 0.14647,0 0.23591,-0.10957 0.08944,-0.10957 0.08944,-0.28957 0,-0.2538 -0.08162,-0.38014 -0.0805,-0.12746 -0.24374,-0.12746 z"
             id="path1339" />
          <path
             d="m 66.056,973.86 v 0.77146 q 0,0.15094 0.05814,0.21803 0.05814,0.066 0.18895,0.066 0.14535,0 0.23032,-0.1118 0.08497,-0.11293 0.08497,-0.30523 v -0.63842 h 0.20125 v 1.1963 h -0.19118 v -0.18225 q -0.02012,0.0324 -0.04472,0.0615 -0.12858,0.15317 -0.322,0.15317 -0.20349,0 -0.30523,-0.10174 -0.10174,-0.10175 -0.10174,-0.30523 v -0.82178 h 0.20125 z"
             id="path1341" />
          <path
             d="m 67.438,975.09 q -0.17554,0 -0.2784,-0.0939 -0.10286,-0.0939 -0.10286,-0.2538 0,-0.161 0.09615,-0.25603 0.09727,-0.095 0.28287,-0.11852 l 0.27392,-0.0347 q 0.03354,-0.003 0.06373,-0.0112 0.03913,-0.0101 0.06037,-0.0403 0.02124,-0.0302 0.02124,-0.076 v -0.0101 q 0,-0.0961 -0.07267,-0.14982 -0.07267,-0.0548 -0.20237,-0.0548 -0.1241,0 -0.19454,0.0581 -0.06932,0.057 -0.08385,0.17106 h -0.1856 q 0.01453,-0.19678 0.13864,-0.29517 0.1241,-0.0995 0.35554,-0.0995 0.21802,0 0.33206,0.095 0.11404,0.0939 0.11404,0.27504 v 0.65742 q 0,0.0302 0.01789,0.0492 0.01901,0.0179 0.05031,0.0179 0.0089,0 0.02572,-0.002 0.01789,-0.002 0.03801,-0.007 v 0.14535 q -0.02907,0.0112 -0.06149,0.0179 -0.03242,0.007 -0.05479,0.007 -0.11404,0 -0.16547,-0.0626 -0.03354,-0.0414 -0.04808,-0.1174 -0.02236,0.028 -0.05143,0.0537 -0.15094,0.13528 -0.36896,0.13528 z m 0.41704,-0.50648 v -0.12969 q -0.0559,0.0268 -0.1241,0.0369 l -0.18448,0.0268 q -0.14535,0.0201 -0.21243,0.0682 -0.06708,0.047 -0.06708,0.12857 0,0.10063 0.05479,0.15541 0.05478,0.0537 0.15541,0.0537 0.15876,0 0.26833,-0.0861 0.07491,-0.0604 0.09951,-0.1364 0.0045,-0.0145 0.0067,-0.0458 0.0034,-0.0324 0.0034,-0.0716 z"
             id="path1343" />
          <path
             d="m 68.425,975.06 v -1.1963 h 0.19118 v 0.20461 q 0.02572,-0.0481 0.05479,-0.0872 0.11404,-0.15317 0.28063,-0.15317 0.02795,0 0.05702,0.0101 v 0.20572 l -0.04137,-10e-4 q -0.16324,0 -0.25268,0.0984 -0.08833,0.0973 -0.08833,0.2784 v 0.64065 h -0.20125 z"
             id="path1345" />
          <path
             d="m 69.477,975.09 q -0.17554,0 -0.2784,-0.0939 -0.10286,-0.0939 -0.10286,-0.2538 0,-0.161 0.09615,-0.25603 0.09727,-0.095 0.28287,-0.11852 l 0.27392,-0.0347 q 0.03354,-0.003 0.06373,-0.0112 0.03913,-0.0101 0.06038,-0.0403 0.02124,-0.0302 0.02124,-0.076 v -0.0101 q 0,-0.0961 -0.07267,-0.14982 -0.07267,-0.0548 -0.20237,-0.0548 -0.1241,0 -0.19454,0.0581 -0.06932,0.057 -0.08385,0.17106 H 69.155 q 0.01454,-0.19678 0.13864,-0.29517 0.1241,-0.0995 0.35554,-0.0995 0.21802,0 0.33206,0.095 0.11404,0.0939 0.11404,0.27504 v 0.65742 q 0,0.0302 0.01789,0.0492 0.01901,0.0179 0.05031,0.0179 0.0089,0 0.02572,-0.002 0.01789,-0.002 0.03801,-0.007 v 0.14535 q -0.02907,0.0112 -0.06149,0.0179 -0.03242,0.007 -0.05478,0.007 -0.11404,0 -0.16547,-0.0626 -0.03354,-0.0414 -0.04808,-0.1174 -0.02236,0.028 -0.05143,0.0537 -0.15094,0.13528 -0.36896,0.13528 z m 0.41704,-0.50648 v -0.12969 q -0.0559,0.0268 -0.1241,0.0369 l -0.18448,0.0268 q -0.14535,0.0201 -0.21243,0.0682 -0.06708,0.047 -0.06708,0.12857 0,0.10063 0.05478,0.15541 0.05478,0.0537 0.15541,0.0537 0.15876,0 0.26833,-0.0861 0.07491,-0.0604 0.09951,-0.1364 0.0045,-0.0145 0.0067,-0.0458 0.0034,-0.0324 0.0034,-0.0716 z"
             id="path1347" />
          <path
             d="m 70.437,975.06 v -1.1963 h 0.19118 v 0.17666 l 0.04472,-0.0593 q 0.13081,-0.15317 0.32759,-0.15317 0.1979,0 0.30523,0.10733 0.10733,0.10733 0.10733,0.30523 v 0.81954 H 71.2118 v -0.75134 q 0,-0.15765 -0.06149,-0.22696 -0.06038,-0.0704 -0.19678,-0.0704 -0.14535,0 -0.23032,0.11069 -0.08497,0.10957 -0.08497,0.2974 v 0.64065 h -0.20125 z"
             id="path1349" />
          <path
             d="m 72.151,975.06 q -0.10286,0.0156 -0.14982,0.0156 -0.13193,0 -0.18672,-0.0581 -0.05367,-0.0581 -0.05367,-0.20013 v -0.78823 h -0.16547 v -0.16436 h 0.16547 v -0.33541 h 0.20125 v 0.33541 h 0.18895 v 0.16436 h -0.18895 v 0.78823 q 0,0.0403 0.03131,0.0637 0.03242,0.0235 0.08609,0.0235 h 0.07155 v 0.15541 z"
             id="path1351" />
          <path
             d="m 72.834,975.09 q -0.2538,0 -0.39915,-0.161 -0.14535,-0.161 -0.14535,-0.44499 0,-0.30187 0.15317,-0.47964 0.15429,-0.17889 0.41368,-0.17889 0.23479,0 0.37902,0.17441 0.14423,0.17442 0.14423,0.45841 l -0.0022,0.0716 h -0.87432 q 0.0123,0.17889 0.08162,0.27281 0.08497,0.11404 0.26833,0.11404 0.11516,0 0.20125,-0.0648 0.08609,-0.0648 0.1051,-0.16547 h 0.19902 q -0.04472,0.19678 -0.17889,0.30076 -0.13417,0.10286 -0.34548,0.10286 z m 0.33542,-0.72227 q -0.0089,-0.16659 -0.08274,-0.25939 -0.08162,-0.10286 -0.23926,-0.10286 -0.15876,0 -0.2538,0.11852 -0.07491,0.0928 -0.09056,0.24373 z"
             id="path1353" />
          <path
             d="m 74.108,975.09 q -0.2538,0 -0.39915,-0.161 -0.14535,-0.161 -0.14535,-0.44499 0,-0.30187 0.15317,-0.47964 0.15429,-0.17889 0.41368,-0.17889 0.23479,0 0.37902,0.17441 0.14423,0.17442 0.14423,0.45841 l -0.0022,0.0716 h -0.87432 q 0.0123,0.17889 0.08162,0.27281 0.08497,0.11404 0.26833,0.11404 0.11516,0 0.20125,-0.0648 0.08609,-0.0648 0.1051,-0.16547 h 0.19901 q -0.04472,0.19678 -0.17889,0.30076 -0.13417,0.10286 -0.34548,0.10286 z m 0.33542,-0.72227 q -0.0089,-0.16659 -0.08274,-0.25939 -0.08162,-0.10286 -0.23926,-0.10286 -0.15876,0 -0.2538,0.11852 -0.07491,0.0928 -0.09056,0.24373 z"
             id="path1355" />
          <path
             d="m 75.352,975.09 q -0.24038,0 -0.38238,-0.17889 -0.14199,-0.18001 -0.14199,-0.48524 0,-0.26945 0.13752,-0.43492 0.13752,-0.16547 0.3589,-0.16547 0.22026,0 0.34884,0.18671 l 0.01565,0.0224 v -0.62052 h 0.20125 v 1.6436 h -0.18672 v -0.16324 l -0.02572,0.0369 q -0.1241,0.15876 -0.32536,0.15876 z m 0.01118,-1.0834 q -0.16883,0 -0.24709,0.10845 -0.07826,0.10734 -0.07826,0.34213 0,0.22138 0.08385,0.34101 0.08497,0.11963 0.2415,0.11963 0.14647,0 0.23591,-0.10957 0.08945,-0.11069 0.08945,-0.29181 0,-0.24486 -0.08497,-0.37679 -0.08385,-0.13305 -0.24038,-0.13305 z"
             id="path1357" />
          <path
             d="m 76.22,974.81 h 0.23926 v 0.24262 H 76.22 Z"
             id="path1359" />
          <path
             d="m 44.114,977.92 v -1.6436 h 0.67531 q 0.31306,0 0.49754,0.22362 0.1856,0.22249 0.1856,0.59928 0,0.37566 -0.19007,0.59816 -0.18895,0.22249 -0.51095,0.22249 H 44.2247 Z m 0.22249,-0.19007 h 0.40697 q 0.23926,0 0.36896,-0.16435 0.13081,-0.16436 0.13081,-0.46623 0,-0.303 -0.12522,-0.46735 -0.12522,-0.16548 -0.35554,-0.16548 h -0.42598 z"
             id="path1361" />
          <path
             d="m 46.22,977.95 q -0.24821,0 -0.4025,-0.17442 -0.15318,-0.17442 -0.15318,-0.45729 0,-0.28399 0.15318,-0.4584 0.15429,-0.17442 0.4025,-0.17442 0.25045,0 0.40362,0.17442 0.15317,0.17441 0.15317,0.4584 0,0.28287 -0.15317,0.45729 Q 46.47045,977.95 46.22,977.95 Z m 0,-0.1733 q 0.15876,0 0.25268,-0.12411 0.09392,-0.1241 0.09392,-0.3343 0,-0.21019 -0.09392,-0.3343 -0.09392,-0.12522 -0.25268,-0.12522 -0.15876,0 -0.25268,0.12522 -0.0928,0.12411 -0.0928,0.3343 0,0.2102 0.0928,0.3343 0.09392,0.12411 0.25268,0.12411 z"
             id="path1363" />
          <path
             d="m 47.007,977.92 v -1.1963 h 0.19119 v 0.17665 l 0.04472,-0.0593 q 0.13081,-0.15317 0.32759,-0.15317 0.1979,0 0.30523,0.10733 0.10733,0.10734 0.10733,0.30523 v 0.81954 h -0.20125 v -0.75133 q 0,-0.15765 -0.06149,-0.22697 -0.06038,-0.0704 -0.19678,-0.0704 -0.14535,0 -0.23032,0.11069 -0.08497,0.10957 -0.08497,0.2974 v 0.64065 H 47.007 Z"
             id="path1365" />
          <path
             d="m 48.268,976.86 v -0.58251 h 0.16659 V 976.86 Z"
             id="path1367" />
          <path
             d="m 49.159,977.92 q -0.10286,0.0157 -0.14982,0.0157 -0.13193,0 -0.18672,-0.0581 -0.05367,-0.0581 -0.05367,-0.20013 v -0.78824 h -0.16547 v -0.16435 h 0.16547 v -0.33542 h 0.20125 v 0.33542 h 0.18895 v 0.16435 h -0.18895 v 0.78824 q 0,0.0403 0.0313,0.0637 0.03242,0.0235 0.08609,0.0235 h 0.07156 v 0.15541 z"
             id="path1369" />
          <path
             d="m 50.24,976.89 v 1.0297 H 50.03875 V 976.89 h -0.16547 v -0.16659 h 0.16547 v -0.20349 q 0,-0.13305 0.07827,-0.20013 0.07826,-0.0671 0.23479,-0.0671 l 0.08833,0.003 v 0.18112 l -0.07938,-0.003 q -0.05814,0 -0.08945,0.038 -0.03131,0.0369 -0.03131,0.10622 v 0.14535 h 0.20013 v 0.16659 H 50.24 Z"
             id="path1371" />
          <path
             d="m 51.112,977.95 q -0.24821,0 -0.4025,-0.17442 -0.15317,-0.17442 -0.15317,-0.45729 0,-0.28399 0.15317,-0.4584 0.15429,-0.17442 0.4025,-0.17442 0.25044,0 0.40362,0.17442 0.15318,0.17441 0.15318,0.4584 0,0.28287 -0.15318,0.45729 Q 51.36245,977.95 51.112,977.95 Z m 0,-0.1733 q 0.15876,0 0.25268,-0.12411 0.09392,-0.1241 0.09392,-0.3343 0,-0.21019 -0.09392,-0.3343 -0.09392,-0.12522 -0.25268,-0.12522 -0.15876,0 -0.25268,0.12522 -0.0928,0.12411 -0.0928,0.3343 0,0.2102 0.0928,0.3343 0.09392,0.12411 0.25268,0.12411 z"
             id="path1373" />
          <path
             d="m 51.927,977.92 v -1.1963 h 0.19119 v 0.2046 q 0.02571,-0.0481 0.05479,-0.0872 0.11404,-0.15317 0.28063,-0.15317 0.02795,0 0.05702,0.0101 v 0.20573 l -0.04137,-0.001 q -0.16324,0 -0.25268,0.0984 -0.08833,0.0973 -0.08833,0.27839 v 0.64065 H 51.927 Z"
             id="path1375" />
          <path
             d="m 53.102,978.26 q 0.1733,0 0.26386,-0.10957 0.09056,-0.10845 0.09056,-0.31752 v -0.0391 l -0.0011,10e-4 q -0.1241,0.15877 -0.32424,0.15877 -0.24038,0 -0.38238,-0.17889 -0.14199,-0.18001 -0.14199,-0.48524 0,-0.26945 0.13976,-0.43493 0.13976,-0.16547 0.3656,-0.16547 0.21579,0 0.34213,0.18672 l 0.01454,0.0212 v -0.17218 h 0.18895 v 1.108 q -0.0011,0.30299 -0.1364,0.44834 -0.13528,0.14535 -0.41592,0.14535 -0.20349,0 -0.32312,-0.0939 -0.11963,-0.0939 -0.14423,-0.27281 h 0.20572 q 0.01789,0.0961 0.08497,0.14759 0.0682,0.0525 0.1733,0.0525 z m 0.03913,-1.3875 q -0.16883,0 -0.24709,0.10734 -0.07715,0.10733 -0.07715,0.341 0,0.22026 0.08385,0.33989 0.08497,0.11852 0.24038,0.11852 0.14647,0 0.23591,-0.10957 0.08944,-0.10957 0.08944,-0.28958 0,-0.2538 -0.08162,-0.38014 -0.0805,-0.12746 -0.24374,-0.12746 z"
             id="path1377" />
          <path
             d="m 54.426,977.95 q -0.2538,0 -0.39915,-0.161 -0.14535,-0.16101 -0.14535,-0.44499 0,-0.30188 0.15317,-0.47965 0.15429,-0.17889 0.41368,-0.17889 0.23479,0 0.37902,0.17442 0.14423,0.17441 0.14423,0.4584 l -0.0022,0.0716 h -0.87432 q 0.0123,0.17889 0.08162,0.2728 0.08497,0.11405 0.26833,0.11405 0.11516,0 0.20125,-0.0648 0.08609,-0.0648 0.1051,-0.16547 h 0.19901 q -0.04472,0.19677 -0.17889,0.30075 -0.13417,0.10287 -0.34548,0.10287 z m 0.33542,-0.72227 q -0.0089,-0.16659 -0.08274,-0.25939 -0.08162,-0.10286 -0.23926,-0.10286 -0.15876,0 -0.2538,0.11851 -0.07491,0.0928 -0.09056,0.24374 z"
             id="path1379" />
          <path
             d="m 55.653,977.92 q -0.10286,0.0157 -0.14982,0.0157 -0.13193,0 -0.18672,-0.0581 -0.05367,-0.0581 -0.05367,-0.20013 v -0.78824 h -0.16547 v -0.16435 h 0.16547 v -0.33542 h 0.20125 v 0.33542 h 0.18895 v 0.16435 h -0.18895 v 0.78824 q 0,0.0403 0.03131,0.0637 0.03242,0.0235 0.08609,0.0235 H 55.653 v 0.15541 z"
             id="path1381" />
          <path
             d="m 56.923,977.92 q -0.10286,0.0157 -0.14982,0.0157 -0.13193,0 -0.18672,-0.0581 -0.05367,-0.0581 -0.05367,-0.20013 v -0.78824 h -0.16547 v -0.16435 h 0.16547 v -0.33542 h 0.20125 v 0.33542 h 0.18895 v 0.16435 h -0.18895 v 0.78824 q 0,0.0403 0.03131,0.0637 0.03242,0.0235 0.08609,0.0235 H 56.923 v 0.15541 z"
             id="path1383" />
          <path
             d="m 57.606,977.95 q -0.24821,0 -0.4025,-0.17442 -0.15317,-0.17442 -0.15317,-0.45729 0,-0.28399 0.15317,-0.4584 0.15429,-0.17442 0.4025,-0.17442 0.25044,0 0.40362,0.17442 0.15317,0.17441 0.15317,0.4584 0,0.28287 -0.15317,0.45729 Q 57.85644,977.95 57.606,977.95 Z m 0,-0.1733 q 0.15876,0 0.25268,-0.12411 0.09392,-0.1241 0.09392,-0.3343 0,-0.21019 -0.09392,-0.3343 -0.09392,-0.12522 -0.25268,-0.12522 -0.15876,0 -0.25268,0.12522 -0.0928,0.12411 -0.0928,0.3343 0,0.2102 0.0928,0.3343 0.09392,0.12411 0.25268,0.12411 z"
             id="path1385" />
          <path
             d="m 59.012,976.28 h 0.20125 v 0.60264 q 0.13193,-0.19343 0.34101,-0.19119 0.23479,0 0.3712,0.16212 0.13752,0.161 0.13752,0.43604 0,0.31194 -0.13864,0.48971 -0.13752,0.17666 -0.38238,0.17666 -0.20237,0 -0.322,-0.15541 l -0.01901,-0.0246 v 0.14758 H 59.012 v -1.6436 z m 0.5199,1.5016 q 0.15765,0 0.23926,-0.11852 0.08162,-0.11963 0.08162,-0.34771 0,-0.22473 -0.07826,-0.33207 -0.07826,-0.10845 -0.2415,-0.10845 -0.16659,0 -0.24374,0.12187 -0.07603,0.12187 -0.07603,0.38573 0,0.19119 0.08274,0.29517 0.08274,0.10398 0.23591,0.10398 z"
             id="path1387" />
          <path
             d="m 60.618,977.95 q -0.17554,0 -0.2784,-0.0939 -0.10286,-0.0939 -0.10286,-0.2538 0,-0.161 0.09615,-0.25604 0.09727,-0.095 0.28287,-0.11851 l 0.27392,-0.0347 q 0.03354,-0.003 0.06373,-0.0112 0.03913,-0.0101 0.06038,-0.0403 0.02124,-0.0302 0.02124,-0.076 v -0.0101 q 0,-0.0962 -0.07267,-0.14982 -0.07267,-0.0548 -0.20237,-0.0548 -0.1241,0 -0.19454,0.0581 -0.06932,0.057 -0.08385,0.17107 H 60.296 q 0.01454,-0.19678 0.13864,-0.29517 0.1241,-0.0995 0.35554,-0.0995 0.21802,0 0.33206,0.095 0.11404,0.0939 0.11404,0.27505 v 0.65742 q 0,0.0302 0.01789,0.0492 0.01901,0.0179 0.05031,0.0179 0.0089,0 0.02572,-0.002 0.01789,-0.002 0.03801,-0.007 v 0.14534 q -0.02907,0.0112 -0.06149,0.0179 -0.03242,0.007 -0.05479,0.007 -0.11404,0 -0.16547,-0.0626 -0.03354,-0.0414 -0.04808,-0.1174 -0.02236,0.028 -0.05143,0.0537 -0.15094,0.13529 -0.36896,0.13529 z m 0.41704,-0.50649 v -0.12969 q -0.0559,0.0268 -0.1241,0.0369 l -0.18448,0.0268 q -0.14535,0.0201 -0.21243,0.0682 -0.06708,0.047 -0.06708,0.12858 0,0.10062 0.05479,0.15541 0.05479,0.0537 0.15541,0.0537 0.15876,0 0.26834,-0.0861 0.07491,-0.0604 0.09951,-0.1364 0.0045,-0.0145 0.0067,-0.0458 0.0034,-0.0324 0.0034,-0.0716 z"
             id="path1389" />
          <path
             d="m 62.521,977.49 q -0.03131,0.22585 -0.15988,0.34436 -0.12858,0.11852 -0.34213,0.11852 -0.23815,0 -0.38014,-0.17107 -0.14199,-0.17106 -0.14199,-0.46064 0,-0.28958 0.14647,-0.46064 0.14758,-0.17218 0.39579,-0.17218 0.21578,0 0.34436,0.11851 0.12858,0.1174 0.13752,0.32424 h -0.19342 q -0.0123,-0.12858 -0.08944,-0.19901 -0.07715,-0.0704 -0.20572,-0.0704 -0.15206,0 -0.23926,0.12299 -0.08609,0.12186 -0.08609,0.33653 0,0.22809 0.0805,0.34325 0.0805,0.11516 0.23926,0.11516 0.1174,0 0.19566,-0.0749 0.07938,-0.076 0.1051,-0.21467 h 0.19342 z"
             id="path1391" />
          <path
             d="m 62.727,977.92 v -1.6436 h 0.20125 v 0.947 l 0.50536,-0.49977 h 0.25604 l -0.45505,0.44387 0.48524,0.75245 H 63.4571 l -0.3712,-0.60822 -0.15765,0.15429 v 0.45393 h -0.10062 z"
             id="path1393" />
          <path
             d="m 64.075,976.72 v 0.77146 q 0,0.15094 0.05814,0.21802 0.05814,0.066 0.18895,0.066 0.14535,0 0.23032,-0.11181 0.08497,-0.11292 0.08497,-0.30523 v -0.63841 h 0.20125 v 1.1963 h -0.19118 v -0.18224 q -0.02013,0.0324 -0.04472,0.0615 -0.12858,0.15318 -0.322,0.15318 -0.20349,0 -0.30523,-0.10175 -0.10174,-0.10174 -0.10174,-0.30523 v -0.82177 h 0.20125 z"
             id="path1395" />
          <path
             d="m 65.126,976.72 h 0.19119 v 0.16994 l 0.01006,-0.0145 q 0.1297,-0.19119 0.34101,-0.19119 0.23479,0 0.3712,0.16212 0.13752,0.161 0.13752,0.43604 0,0.31194 -0.13864,0.48971 -0.13752,0.17666 -0.38238,0.17666 -0.20237,0 -0.322,-0.15541 l -0.0067,-0.009 v 0.60487 h -0.20125 v -1.6693 z m 0.5199,1.0543 q 0.15765,0 0.23926,-0.11852 0.08162,-0.11963 0.08162,-0.34771 0,-0.22473 -0.07826,-0.33207 -0.07826,-0.10845 -0.2415,-0.10845 -0.16659,0 -0.24374,0.12187 -0.07603,0.12187 -0.07603,0.38573 0,0.19119 0.08274,0.29517 0.08274,0.10398 0.23591,0.10398 z"
             id="path1397" />
          <path
             d="m 68.022,976.72 -0.45505,1.2354 q -0.1051,0.27617 -0.18783,0.36114 -0.08162,0.085 -0.24597,0.085 -0.05367,0.001 -0.09727,-0.0123 v -0.18671 q 0.04584,0.0168 0.11516,0.0179 0.0682,0 0.11404,-0.0559 0.04584,-0.0559 0.10398,-0.20908 l 0.0034,-0.019 -0.44387,-1.2164 h 0.2292 l 0.31976,0.98948 0.32424,-0.98948 h 0.22026 z"
             id="path1399" />
          <path
             d="m 68.684,977.95 q -0.24821,0 -0.4025,-0.17442 -0.15318,-0.17442 -0.15318,-0.45729 0,-0.28399 0.15318,-0.4584 0.15429,-0.17442 0.4025,-0.17442 0.25045,0 0.40362,0.17442 0.15317,0.17441 0.15317,0.4584 0,0.28287 -0.15317,0.45729 Q 68.93445,977.95 68.684,977.95 Z m 0,-0.1733 q 0.15876,0 0.25268,-0.12411 0.09392,-0.1241 0.09392,-0.3343 0,-0.21019 -0.09392,-0.3343 -0.09392,-0.12522 -0.25268,-0.12522 -0.15876,0 -0.25268,0.12522 -0.0928,0.12411 -0.0928,0.3343 0,0.2102 0.0928,0.3343 0.09392,0.12411 0.25268,0.12411 z"
             id="path1401" />
          <path
             d="m 69.679,976.72 v 0.77146 q 0,0.15094 0.05814,0.21802 0.05814,0.066 0.18895,0.066 0.14535,0 0.23032,-0.11181 0.08497,-0.11292 0.08497,-0.30523 v -0.63841 h 0.20125 v 1.1963 h -0.19118 v -0.18224 q -0.02013,0.0324 -0.04472,0.0615 -0.12858,0.15318 -0.322,0.15318 -0.20349,0 -0.30523,-0.10175 -0.10174,-0.10174 -0.10174,-0.30523 v -0.82177 h 0.20125 z"
             id="path1403" />
          <path
             d="m 70.773,977.92 v -1.1963 h 0.19119 v 0.2046 q 0.02572,-0.0481 0.05478,-0.0872 0.11404,-0.15317 0.28063,-0.15317 0.02795,0 0.05702,0.0101 v 0.20573 l -0.04137,-0.001 q -0.16324,0 -0.25268,0.0984 -0.08833,0.0973 -0.08833,0.27839 v 0.64065 h -0.20125 z"
             id="path1405" />
          <path
             d="m 72.601,977.95 q -0.24038,0 -0.38238,-0.17889 -0.14199,-0.18001 -0.14199,-0.48524 0,-0.26945 0.13752,-0.43493 0.13752,-0.16547 0.3589,-0.16547 0.22026,0 0.34884,0.18672 l 0.01565,0.0224 v -0.62053 h 0.20125 v 1.6436 h -0.18672 v -0.16323 l -0.02572,0.0369 q -0.1241,0.15877 -0.32536,0.15877 z m 0.01118,-1.0834 q -0.16883,0 -0.24709,0.10845 -0.07826,0.10733 -0.07826,0.34212 0,0.22138 0.08385,0.34101 0.08497,0.11963 0.2415,0.11963 0.14647,0 0.23591,-0.10957 0.08944,-0.11068 0.08944,-0.29181 0,-0.24485 -0.08497,-0.37679 -0.08385,-0.13304 -0.24038,-0.13304 z"
             id="path1407" />
          <path
             d="m 73.735,977.95 q -0.17554,0 -0.2784,-0.0939 -0.10286,-0.0939 -0.10286,-0.2538 0,-0.161 0.09615,-0.25604 0.09727,-0.095 0.28287,-0.11851 l 0.27392,-0.0347 q 0.03354,-0.003 0.06373,-0.0112 0.03913,-0.0101 0.06037,-0.0403 0.02124,-0.0302 0.02124,-0.076 v -0.0101 q 0,-0.0962 -0.07267,-0.14982 -0.07267,-0.0548 -0.20237,-0.0548 -0.1241,0 -0.19454,0.0581 -0.06932,0.057 -0.08385,0.17107 h -0.1856 q 0.01453,-0.19678 0.13864,-0.29517 0.1241,-0.0995 0.35554,-0.0995 0.21802,0 0.33206,0.095 0.11404,0.0939 0.11404,0.27505 v 0.65742 q 0,0.0302 0.01789,0.0492 0.01901,0.0179 0.05031,0.0179 0.0089,0 0.02571,-0.002 0.01789,-0.002 0.03801,-0.007 v 0.14534 q -0.02907,0.0112 -0.06149,0.0179 -0.03242,0.007 -0.05478,0.007 -0.11404,0 -0.16547,-0.0626 -0.03354,-0.0414 -0.04808,-0.1174 -0.02236,0.028 -0.05143,0.0537 -0.15094,0.13529 -0.36896,0.13529 z m 0.41704,-0.50649 v -0.12969 q -0.0559,0.0268 -0.1241,0.0369 l -0.18448,0.0268 q -0.14535,0.0201 -0.21243,0.0682 -0.06708,0.047 -0.06708,0.12858 0,0.10062 0.05479,0.15541 0.05478,0.0537 0.15541,0.0537 0.15876,0 0.26833,-0.0861 0.07491,-0.0604 0.09951,-0.1364 0.0045,-0.0145 0.0067,-0.0458 0.0034,-0.0324 0.0034,-0.0716 z"
             id="path1409" />
          <path
             d="m 75.134,977.92 q -0.10286,0.0157 -0.14982,0.0157 -0.13193,0 -0.18672,-0.0581 -0.05367,-0.0581 -0.05367,-0.20013 v -0.78824 h -0.16547 v -0.16435 h 0.16547 v -0.33542 h 0.20125 v 0.33542 h 0.18895 v 0.16435 h -0.18895 v 0.78824 q 0,0.0403 0.03131,0.0637 0.03242,0.0235 0.08609,0.0235 H 75.134 v 0.15541 z"
             id="path1411" />
          <path
             d="m 75.645,977.95 q -0.17554,0 -0.2784,-0.0939 -0.10286,-0.0939 -0.10286,-0.2538 0,-0.161 0.09615,-0.25604 0.09727,-0.095 0.28287,-0.11851 l 0.27392,-0.0347 q 0.03354,-0.003 0.06373,-0.0112 0.03913,-0.0101 0.06038,-0.0403 0.02124,-0.0302 0.02124,-0.076 v -0.0101 q 0,-0.0962 -0.07267,-0.14982 -0.07267,-0.0548 -0.20237,-0.0548 -0.1241,0 -0.19454,0.0581 -0.06932,0.057 -0.08385,0.17107 H 75.323 q 0.01453,-0.19678 0.13864,-0.29517 0.1241,-0.0995 0.35554,-0.0995 0.21802,0 0.33206,0.095 0.11404,0.0939 0.11404,0.27505 v 0.65742 q 0,0.0302 0.01789,0.0492 0.01901,0.0179 0.05031,0.0179 0.0089,0 0.02572,-0.002 0.01789,-0.002 0.03801,-0.007 v 0.14534 q -0.02907,0.0112 -0.06149,0.0179 -0.03242,0.007 -0.05478,0.007 -0.11404,0 -0.16547,-0.0626 -0.03354,-0.0414 -0.04808,-0.1174 -0.02236,0.028 -0.05143,0.0537 -0.15094,0.13529 -0.36896,0.13529 z m 0.41704,-0.50649 v -0.12969 q -0.0559,0.0268 -0.1241,0.0369 l -0.18448,0.0268 q -0.14535,0.0201 -0.21243,0.0682 -0.06708,0.047 -0.06708,0.12858 0,0.10062 0.05478,0.15541 0.05478,0.0537 0.15541,0.0537 0.15876,0 0.26833,-0.0861 0.07491,-0.0604 0.09951,-0.1364 0.0045,-0.0145 0.0067,-0.0458 0.0034,-0.0324 0.0034,-0.0716 z"
             id="path1413" />
          <path
             d="m 76.654,977.68 h 0.23926 v 0.24262 H 76.654 Z"
             id="path1415" />
        </g>
      </g>
    </g>
    <path
       style="fill:url(#linearGradient2363)"
       d="m 1.1906,9.9492 v 2.3538 c 0,1.9055 1.534,3.4395 3.4395,3.4395 h 7.6728 c 1.9055,0 3.4395,-1.534 3.4395,-3.4395 V 9.9492 c 0,1.9055 -1.534,3.4395 -3.4395,3.4395 H 4.6301 c -1.9055,0 -3.4395,-1.534 -3.4395,-3.4395 z"
       fill="url(#linearGradient2363)"
       stroke-opacity="0.95294"
       stroke-width="0.083153"
       id="path1423" />
    <path
       style="fill:url(#linearGradient2375)"
       d="m 7.0981,13.389 v 2.3457 H 7.62726 V 13.389 Z m 0.76968,0 v 2.3457 H 8.39694 V 13.389 Z m 0.76968,0 v 2.3457 H 9.16662 V 13.389 Z m 0.76968,0 v 2.3457 H 9.9363 V 13.389 Z m 0.76968,0 v 2.3457 h 0.52916 V 13.389 Z m 0.76968,0 v 2.3457 h 0.52916 V 13.389 Z m 0.76968,0 v 2.3457 h 0.52916 V 13.389 Z"
       fill="url(#linearGradient2375)"
       id="path1425" />
    <g
       transform="translate(0.045304)"
       id="g1439">
      <circle
         style="fill:url(#radialGradient2379)"
         cx="2.3587"
         cy="3.3971"
         r="0.39686999"
         fill="url(#radialGradient2379)"
         id="circle1427" />
      <circle
         style="fill:url(#radialGradient2385)"
         cx="14.484"
         cy="3.3971"
         r="0.39686999"
         fill="url(#radialGradient2385)"
         id="circle1429" />
      <circle
         style="fill:url(#radialGradient2389)"
         cx="2.3587"
         cy="7.2835002"
         r="0.39686999"
         fill="url(#radialGradient2389)"
         id="circle1431" />
      <circle
         style="fill:url(#radialGradient2393)"
         cx="14.484"
         cy="7.2835002"
         r="0.39686999"
         fill="url(#radialGradient2393)"
         id="circle1433" />
      <circle
         style="fill:url(#radialGradient2397)"
         cx="2.3587"
         cy="11.17"
         r="0.39686999"
         fill="url(#radialGradient2397)"
         id="circle1435" />
      <circle
         style="fill:url(#radialGradient2401)"
         cx="14.484"
         cy="11.17"
         r="0.39686999"
         fill="url(#radialGradient2401)"
         id="circle1437" />
    </g>
  </g>
</svg>
