<?xml version="1.0" encoding="UTF-8" standalone="no"?>
<svg
   xmlns:dc="http://purl.org/dc/elements/1.1/"
   xmlns:cc="http://creativecommons.org/ns#"
   xmlns:rdf="http://www.w3.org/1999/02/22-rdf-syntax-ns#"
   xmlns:svg="http://www.w3.org/2000/svg"
   xmlns="http://www.w3.org/2000/svg"
   xmlns:xlink="http://www.w3.org/1999/xlink"
   xmlns:sodipodi="http://sodipodi.sourceforge.net/DTD/sodipodi-0.dtd"
   xmlns:inkscape="http://www.inkscape.org/namespaces/inkscape"
   width="128"
   height="128"
   viewBox="0 0 33.866666 33.866668"
   version="1.1"
   id="svg1443"
   inkscape:version="1.0.2 (e86c870879, 2021-01-15)"
   sodipodi:docname="duckstation.svg">
  <defs
     id="defs1437">
    <linearGradient
       gradientTransform="matrix(0.97573206,0,0,0.97573206,-111.76517,-37.182508)"
       gradientUnits="userSpaceOnUse"
       y2="70.679932"
       x2="132.21078"
       y1="42.151531"
       x1="132.21078"
       id="linearGradient1632"
       xlink:href="#linearGradient1630"
       inkscape:collect="always" />
    <linearGradient
       id="linearGradient1630"
       inkscape:collect="always">
      <stop
         id="stop1626"
         offset="0"
         style="stop-color:#fafafc;stop-opacity:1" />
      <stop
         id="stop1628"
         offset="1"
         style="stop-color:#e2e6ea;stop-opacity:1" />
    </linearGradient>
    <filter
       color-interpolation-filters="sRGB"
       height="1.1311001"
       width="1.1106"
       y="-0.065563001"
       x="-0.055319"
       id="c-9">
      <feGaussianBlur
         id="feGaussianBlur1093"
         stdDeviation="1.1062912" />
    </filter>
    <linearGradient
       gradientUnits="userSpaceOnUse"
       gradientTransform="matrix(0.13235,0,0,0.13075,-32.379,1.0873)"
       y2="269.48999"
       y1="235.14999"
       x2="657.65002"
       x1="319.20999"
       id="a-12">
      <stop
         id="stop1076"
         offset="0"
         stop-color="#e54c18" />
      <stop
         id="stop1078"
         offset="1"
         stop-color="#fec350" />
    </linearGradient>
  </defs>
  <sodipodi:namedview
     id="base"
     pagecolor="#ffffff"
     bordercolor="#666666"
     borderopacity="1.0"
     inkscape:pageopacity="0.0"
     inkscape:pageshadow="2"
     inkscape:zoom="1.4"
     inkscape:cx="45.749605"
     inkscape:cy="148.483"
     inkscape:document-units="mm"
     inkscape:current-layer="layer1"
     inkscape:document-rotation="0"
     showgrid="false"
     units="px"
     inkscape:window-width="1920"
     inkscape:window-height="1028"
     inkscape:window-x="0"
     inkscape:window-y="24"
     inkscape:window-maximized="1" />
  <metadata
     id="metadata1440">
    <rdf:RDF>
      <cc:Work
         rdf:about="">
        <dc:format>image/svg+xml</dc:format>
        <dc:type
           rdf:resource="http://purl.org/dc/dcmitype/StillImage" />
        <dc:title></dc:title>
      </cc:Work>
    </rdf:RDF>
  </metadata>
  <g
     inkscape:label="Capa 1"
     inkscape:groupmode="layer"
     id="layer1">
    <g
       style="opacity:0.295"
       transform="matrix(0.97573206,0,0,0.97573206,-65.737228,-37.182508)"
       id="g1702">
      <rect
         ry="6.6098609"
         rx="6.6098609"
         y="40.709618"
         x="69.839508"
         height="29.810888"
         width="29.810888"
         id="rect1634"
         style="fill:none;fill-opacity:1;stroke:#000000;stroke-width:0.1;stroke-linecap:round;stroke-linejoin:round;stroke-miterlimit:4;stroke-dasharray:none;stroke-opacity:0.02" />
      <rect
         style="fill:none;fill-opacity:1;stroke:#000000;stroke-width:0.2;stroke-linecap:round;stroke-linejoin:round;stroke-miterlimit:4;stroke-dasharray:none;stroke-opacity:0.02"
         id="rect1638"
         width="29.810888"
         height="29.810888"
         x="69.839508"
         y="40.709618"
         rx="6.6098609"
         ry="6.6098609" />
      <rect
         ry="6.6098609"
         rx="6.6098609"
         y="40.709618"
         x="69.839508"
         height="29.810888"
         width="29.810888"
         id="rect1640"
         style="fill:none;fill-opacity:1;stroke:#000000;stroke-width:0.3;stroke-linecap:round;stroke-linejoin:round;stroke-miterlimit:4;stroke-dasharray:none;stroke-opacity:0.02" />
      <rect
         style="fill:none;fill-opacity:1;stroke:#000000;stroke-width:0.4;stroke-linecap:round;stroke-linejoin:round;stroke-miterlimit:4;stroke-dasharray:none;stroke-opacity:0.02"
         id="rect1642"
         width="29.810888"
         height="29.810888"
         x="69.839508"
         y="40.709618"
         rx="6.6098609"
         ry="6.6098609" />
      <rect
         ry="6.6098609"
         rx="6.6098609"
         y="40.709618"
         x="69.839508"
         height="29.810888"
         width="29.810888"
         id="rect1644"
         style="fill:none;fill-opacity:1;stroke:#000000;stroke-width:0.5;stroke-linecap:round;stroke-linejoin:round;stroke-miterlimit:4;stroke-dasharray:none;stroke-opacity:0.02" />
      <rect
         style="fill:none;fill-opacity:1;stroke:#000000;stroke-width:0.6;stroke-linecap:round;stroke-linejoin:round;stroke-miterlimit:4;stroke-dasharray:none;stroke-opacity:0.02"
         id="rect1646"
         width="29.810888"
         height="29.810888"
         x="69.839508"
         y="40.709618"
         rx="6.6098609"
         ry="6.6098609" />
      <rect
         ry="6.6098609"
         rx="6.6098609"
         y="40.709618"
         x="69.839508"
         height="29.810888"
         width="29.810888"
         id="rect1648"
         style="fill:none;fill-opacity:1;stroke:#000000;stroke-width:0.7;stroke-linecap:round;stroke-linejoin:round;stroke-miterlimit:4;stroke-dasharray:none;stroke-opacity:0.02" />
      <rect
         style="fill:none;fill-opacity:1;stroke:#000000;stroke-width:0.8;stroke-linecap:round;stroke-linejoin:round;stroke-miterlimit:4;stroke-dasharray:none;stroke-opacity:0.02"
         id="rect1650"
         width="29.810888"
         height="29.810888"
         x="69.839508"
         y="40.709618"
         rx="6.6098609"
         ry="6.6098609" />
      <rect
         ry="6.6098609"
         rx="6.6098609"
         y="40.709618"
         x="69.839508"
         height="29.810888"
         width="29.810888"
         id="rect1652"
         style="fill:none;fill-opacity:1;stroke:#000000;stroke-width:1;stroke-linecap:round;stroke-linejoin:round;stroke-miterlimit:4;stroke-dasharray:none;stroke-opacity:0.02" />
      <rect
         style="fill:none;fill-opacity:1;stroke:#000000;stroke-width:1.2;stroke-linecap:round;stroke-linejoin:round;stroke-miterlimit:4;stroke-dasharray:none;stroke-opacity:0.02"
         id="rect1654"
         width="29.810888"
         height="29.810888"
         x="69.839508"
         y="40.709618"
         rx="6.6098609"
         ry="6.6098609" />
      <rect
         ry="6.6098609"
         rx="6.6098609"
         y="40.709618"
         x="69.839508"
         height="29.810888"
         width="29.810888"
         id="rect1656"
         style="fill:none;fill-opacity:1;stroke:#000000;stroke-width:1.4;stroke-linecap:round;stroke-linejoin:round;stroke-miterlimit:4;stroke-dasharray:none;stroke-opacity:0.02" />
      <rect
         style="fill:none;fill-opacity:1;stroke:#000000;stroke-width:1.6;stroke-linecap:round;stroke-linejoin:round;stroke-miterlimit:4;stroke-dasharray:none;stroke-opacity:0.02"
         id="rect1658"
         width="29.810888"
         height="29.810888"
         x="69.839508"
         y="40.709618"
         rx="6.6098609"
         ry="6.6098609" />
      <rect
         ry="6.6098609"
         rx="6.6098609"
         y="40.709618"
         x="69.839508"
         height="29.810888"
         width="29.810888"
         id="rect1660"
         style="fill:none;fill-opacity:1;stroke:#000000;stroke-width:1.8;stroke-linecap:round;stroke-linejoin:round;stroke-miterlimit:4;stroke-dasharray:none;stroke-opacity:0.02" />
      <rect
         style="fill:none;fill-opacity:1;stroke:#000000;stroke-width:2;stroke-linecap:round;stroke-linejoin:round;stroke-miterlimit:4;stroke-dasharray:none;stroke-opacity:0.02"
         id="rect1662"
         width="29.810888"
         height="29.810888"
         x="69.839508"
         y="40.709618"
         rx="6.6098609"
         ry="6.6098609" />
      <rect
         ry="6.6098609"
         rx="6.6098609"
         y="40.709618"
         x="69.839508"
         height="29.810888"
         width="29.810888"
         id="rect1664"
         style="fill:none;fill-opacity:1;stroke:#000000;stroke-width:2.2;stroke-linecap:round;stroke-linejoin:round;stroke-miterlimit:4;stroke-dasharray:none;stroke-opacity:0.02" />
      <rect
         style="fill:none;fill-opacity:1;stroke:#000000;stroke-width:2.6;stroke-linecap:round;stroke-linejoin:round;stroke-miterlimit:4;stroke-dasharray:none;stroke-opacity:0.02"
         id="rect1666"
         width="29.810888"
         height="29.810888"
         x="69.839508"
         y="40.709618"
         rx="6.6098609"
         ry="6.6098609" />
      <rect
         ry="6.6098609"
         rx="6.6098609"
         y="40.709618"
         x="69.839508"
         height="29.810888"
         width="29.810888"
         id="rect1668"
         style="fill:none;fill-opacity:1;stroke:#000000;stroke-width:3;stroke-linecap:round;stroke-linejoin:round;stroke-miterlimit:4;stroke-dasharray:none;stroke-opacity:0.02" />
      <rect
         style="fill:none;fill-opacity:1;stroke:#000000;stroke-width:3.4;stroke-linecap:round;stroke-linejoin:round;stroke-miterlimit:4;stroke-dasharray:none;stroke-opacity:0.02"
         id="rect1670"
         width="29.810888"
         height="29.810888"
         x="69.839508"
         y="40.709618"
         rx="6.6098609"
         ry="6.6098609" />
      <rect
         ry="6.6098609"
         rx="6.6098609"
         y="40.709618"
         x="69.839508"
         height="29.810888"
         width="29.810888"
         id="rect1672"
         style="fill:none;fill-opacity:1;stroke:#000000;stroke-width:3.8;stroke-linecap:round;stroke-linejoin:round;stroke-miterlimit:4;stroke-dasharray:none;stroke-opacity:0.02" />
      <rect
         style="fill:none;fill-opacity:1;stroke:#000000;stroke-width:4.2;stroke-linecap:round;stroke-linejoin:round;stroke-miterlimit:4;stroke-dasharray:none;stroke-opacity:0.02"
         id="rect1674"
         width="29.810888"
         height="29.810888"
         x="69.839508"
         y="40.709618"
         rx="6.6098609"
         ry="6.6098609" />
      <rect
         ry="6.6098609"
         rx="6.6098609"
         y="40.709618"
         x="69.839508"
         height="29.810888"
         width="29.810888"
         id="rect1676"
         style="fill:none;fill-opacity:1;stroke:#000000;stroke-width:4.6;stroke-linecap:round;stroke-linejoin:round;stroke-miterlimit:4;stroke-dasharray:none;stroke-opacity:0.02" />
      <rect
         style="fill:none;fill-opacity:1;stroke:#000000;stroke-width:5;stroke-linecap:round;stroke-linejoin:round;stroke-miterlimit:4;stroke-dasharray:none;stroke-opacity:0.02"
         id="rect1678"
         width="29.810888"
         height="29.810888"
         x="69.839508"
         y="40.709618"
         rx="6.6098609"
         ry="6.6098609" />
    </g>
    <rect
       ry="6.4494534"
       rx="6.4494534"
       y="2.5391712"
       x="2.4074187"
       height="29.087439"
       width="29.087439"
       id="rect849"
       style="fill:url(#linearGradient1632);fill-opacity:1;stroke-width:2.68768;stroke-linecap:round;stroke-linejoin:round" />
    <path
       style="opacity:0.2;stroke-width:0.389016"
       d="m 19.624725,18.723419 -1.170088,0.674701 v 3.809627 1.31597 l 1.170088,0.67774 1.170088,0.6747 1.170091,-0.6747 v -1.31749 -0.0016 l -1.170091,-0.67622 v -3.808108 z m -3.890166,2.572676 -1.170089,0.674701 v 3.808107 0.0016 1.315972 l 1.170089,0.677702 1.170089,0.674701 1.17009,-0.674701 v -1.317551 l -1.17009,-0.67774 v -3.808107 z"
       id="path2" />
    <path
       style="fill:#ba2c00;stroke-width:0.389016"
       d="m 19.624798,22.142659 -1.170161,0.675357 v 1.317234 l 1.170161,0.676499 1.170162,0.675358 1.170161,-0.675358 V 23.494517 L 20.79496,22.818016 Z"
       id="path4" />
    <path
       style="fill:#ff7900;stroke-width:0.389016"
       d="m 19.624798,22.142317 -1.170161,0.675358 1.170161,0.676498 1.170162,0.675357 1.170161,-0.675357 -1.170161,-0.676498 z"
       id="path6" />
    <path
       style="fill:#ff4200;stroke-width:0.389016"
       d="m 19.624798,18.333728 1.170162,0.675593 v 3.808695 l -1.170162,0.675594 -1.170161,-0.675594 v -3.808695 z"
       id="path8" />
    <path
       style="fill:#ff4200;stroke-width:0.389016"
       d="m 20.79496,25.487107 1.170161,-0.675358 V 23.494173 L 20.79496,24.16953 Z"
       id="path10" />
    <path
       style="fill:#ba2c00;stroke-width:0.389016"
       d="M 19.624798,18.333728 V 23.49361 L 18.454637,22.818016 V 19.009321 Z"
       id="path12" />
    <path
       style="fill:#ba2c00;stroke-width:0.389016"
       d="m 15.734631,24.715371 -1.170161,0.675355 v 1.317234 l 1.170161,0.6765 1.170164,0.675357 1.170161,-0.675357 v -1.317233 l -1.170161,-0.676501 z"
       id="path14" />
    <path
       style="fill:#ff4200;stroke-width:0.389016"
       d="m 16.904795,28.059817 1.170161,-0.675357 v -1.317576 l -1.170161,0.675357 z"
       id="path16" />
    <path
       style="fill:#ff7900;stroke-width:0.389016"
       d="m 15.734631,24.715027 -1.170161,0.675357 1.170161,0.6765 1.170164,0.675357 1.170161,-0.675357 -1.170161,-0.6765 z"
       id="path18" />
    <path
       style="fill:#ff4200;stroke-width:0.389016"
       d="m 15.734631,20.906439 1.170164,0.675592 v 3.808695 L 15.734631,26.06632 14.56447,25.390726 v -3.808695 z"
       id="path20" />
    <path
       style="fill:#ba2c00;stroke-width:0.389016"
       d="M 15.734631,20.906439 V 26.06632 L 14.56447,25.390726 v -3.808695 z"
       id="path22" />
    <path
       style="opacity:0.2;stroke-width:0.389016"
       d="m 16.120538,9.98439 6.224263,3.593581 v 7.187162 l -6.224263,3.593581 -6.2242662,-3.593581 v -7.187162 z"
       id="path24" />
    <path
       style="fill:#ffce00;stroke-width:0.389016"
       d="m 16.120538,9.5953724 6.224263,3.5935806 v 7.187163 l -6.224263,3.593581 -6.2242662,-3.593581 v -7.187163 z"
       id="path26" />
    <path
       style="fill:#ff6700;stroke-width:0.389016"
       d="m 9.8962708,13.188543 v 7.18769 l 6.2242652,3.593337 v -7.186675 z"
       id="path28" />
    <path
       style="fill:#ffc200;stroke-width:0.389016"
       d="m 16.120536,9.5952048 -6.2242652,3.5933382 6.2242652,3.594352 6.224267,-3.594352 z"
       id="path30" />
    <path
       style="opacity:0.2;stroke-width:0.389016"
       d="m 20.010702,7.2506926 5.446231,3.1443844 v 6.288765 l -5.446231,3.144384 -5.446233,-3.144384 10e-7,-6.288767 z"
       id="path32" />
    <path
       style="fill:#ff9e02;stroke-width:0.389016"
       d="m 20.010702,6.472578 5.446231,3.1443828 v 6.2887672 l -5.446231,3.144382 -5.446233,-3.144382 10e-7,-6.2887672 z"
       id="path34" />
    <path
       style="fill:#3f3f3f;stroke-width:0.389016"
       d="m 20.788737,14.150998 1.167048,-0.700229 v 1.575517 l -1.167048,0.70023 z"
       id="path36" />
    <path
       style="fill:#ff6700;stroke-width:0.389016"
       d="M 14.564472,9.6165256 V 15.90522 l 5.446231,3.145412 v -6.289759 z"
       id="path38" />
    <path
       style="fill:#ffc200;stroke-width:0.389016"
       d="m 20.010703,6.4721766 -5.446231,3.144349 5.446231,3.1443474 5.446231,-3.1443474 z"
       id="path40" />
    <path
       style="fill:#3f3f3f;stroke-width:0.389016"
       d="m 23.511852,12.69366 1.16705,-0.70023 v 1.575518 l -1.16705,0.700231 z"
       id="path42" />
    <path
       style="opacity:0.2;stroke-width:0.389016"
       d="m 24.289885,16.229823 -3.112132,0.518182 v 1.037884 l 3.112132,1.556065 3.112133,-1.556065 v -1.037884 z"
       id="path44" />
    <path
       style="fill:#ba2c00;stroke-width:0.389016"
       d="m 24.289885,15.840032 v 3.112129 l -3.112128,-1.556063 -4e-6,-1.037377 z"
       id="path46" />
    <path
       style="fill:#ff7900;stroke-width:0.389016"
       d="m 24.289885,15.840032 v 3.112129 l 3.112128,-1.556063 5e-6,-1.037377 z"
       id="path48" />
    <rect
       style="fill:#ff4200;stroke-width:0.389016"
       width="3.4793646"
       height="3.4793646"
       x="30.129995"
       y="2.9729049"
       transform="matrix(0.89442719,0.4472136,-0.89442719,0.4472136,0,0)"
       id="rect50" />
    <path
       style="opacity:0.2;stroke-width:0.389016"
       d="m 11.841354,7.9566037 1.945084,1.1229952 V 11.325586 L 11.841354,12.448581 9.8962708,11.325586 V 9.0795989 Z"
       id="path52" />
    <path
       style="fill:#ff9e02;stroke-width:0.389016"
       d="m 11.841354,7.5675876 1.945084,1.1229937 V 10.93657 L 11.841354,12.059564 9.8962708,10.93657 V 8.6905813 Z"
       id="path54" />
    <path
       style="fill:#ff6700;stroke-width:0.389016"
       d="m 9.8962718,8.6904534 v 2.2461536 l 1.9450822,1.122601 c 0,3.56e-4 0,-2.2452036 0,-2.2452036 z"
       id="path56" />
    <path
       style="fill:#ffc200;stroke-width:0.389016"
       d="m 11.841354,7.5678522 -1.9450822,1.1226012 1.9450822,1.123551 1.945084,-1.123551 z"
       id="path58" />
    <path
       style="opacity:0.2;fill:#ffffff;stroke-width:0.389016"
       d="M 20.010703,6.4724354 14.56447,9.61648 14.901061,9.8109888 20.010703,6.8614515 25.120345,9.8109888 25.456934,9.61648 Z"
       id="path60" />
    <path
       style="opacity:0.2;fill:#ffffff;stroke-width:0.389016"
       d="M 11.841354,7.5680639 9.8962708,8.6902858 10.232862,8.8847946 11.841354,7.9570815 13.449847,8.8847946 13.786438,8.6902858 Z"
       id="path62" />
  </g>
</svg>
