<?xml version="1.0" encoding="UTF-8" standalone="no"?>
<svg
   width="128"
   height="128"
   viewBox="0 0 33.866666 33.866668"
   version="1.1"
   id="svg2117"
   inkscape:version="1.1.2 (0a00cf5339, 2022-02-04)"
   sodipodi:docname="ff-password-exporter.svg"
   xmlns:inkscape="http://www.inkscape.org/namespaces/inkscape"
   xmlns:sodipodi="http://sodipodi.sourceforge.net/DTD/sodipodi-0.dtd"
   xmlns:xlink="http://www.w3.org/1999/xlink"
   xmlns="http://www.w3.org/2000/svg"
   xmlns:svg="http://www.w3.org/2000/svg"
   xmlns:rdf="http://www.w3.org/1999/02/22-rdf-syntax-ns#"
   xmlns:cc="http://creativecommons.org/ns#"
   xmlns:dc="http://purl.org/dc/elements/1.1/">
  <defs
     id="defs2111">
    <linearGradient
       id="linearGradient1630"
       inkscape:collect="always">
      <stop
         id="stop1626"
         offset="0"
         style="stop-color:#f97312;stop-opacity:1" />
      <stop
         id="stop1628"
         offset="1"
         style="stop-color:#e3362c;stop-opacity:1" />
    </linearGradient>
    <linearGradient
       id="linearGradient895">
      <stop
         id="stop3335"
         offset="0" />
      <stop
         id="stop3337"
         offset="1"
         stop-opacity="0" />
    </linearGradient>
    <linearGradient
       gradientUnits="userSpaceOnUse"
       gradientTransform="translate(78.576,24.134)"
       y2="7.8045998"
       y1="-2.4143"
       x2="-69.273003"
       x1="-81.043999"
       id="linearGradient977">
      <stop
         id="stop860"
         offset="0"
         stop-color="#ffd250" />
      <stop
         id="stop862"
         offset="1"
         stop-color="#ffb42d" />
    </linearGradient>
    <linearGradient
       gradientUnits="userSpaceOnUse"
       gradientTransform="translate(78.576,24.134)"
       y2="-2.4143"
       y1="12.888"
       x2="-81.043999"
       x1="-84.008003"
       id="linearGradient986">
      <stop
         id="stop865"
         offset="0"
         stop-color="#0faa96" />
      <stop
         id="stop867"
         offset="1"
         stop-color="#23b955" />
    </linearGradient>
    <linearGradient
       gradientUnits="userSpaceOnUse"
       gradientTransform="translate(78.576,24.134)"
       y2="7.8045998"
       y1="12.888"
       x2="-69.273003"
       x1="-84.008003"
       id="linearGradient994">
      <stop
         id="stop870"
         offset="0"
         stop-color="#3c82eb" />
      <stop
         id="stop872"
         offset="1"
         stop-color="#05aaff" />
    </linearGradient>
    <filter
       id="a"
       x="-0.061480001"
       y="-0.058589999"
       width="1.123"
       height="1.1172"
       color-interpolation-filters="sRGB">
      <feGaussianBlur
         stdDeviation="1.0261922"
         id="feGaussianBlur12" />
    </filter>
    <linearGradient
       id="SVGID_1_"
       x1="24.837999"
       x2="46.731998"
       y1="33.653999"
       y2="55.548"
       gradientUnits="userSpaceOnUse">
      <stop
         stop-color="#EF6B2E"
         offset=".3569"
         id="stop2" />
      <stop
         stop-color="#F19F00"
         offset=".6328"
         id="stop4" />
    </linearGradient>
    <linearGradient
       id="SVGID_2_"
       x1="24.858999"
       x2="46.752998"
       y1="30.388"
       y2="8.4933004"
       gradientUnits="userSpaceOnUse">
      <stop
         stop-color="#16B8C3"
         offset=".3707"
         id="stop7" />
      <stop
         stop-color="#02AEF0"
         offset=".7422"
         id="stop9" />
    </linearGradient>
    <radialGradient
       inkscape:collect="always"
       xlink:href="#linearGradient1630"
       id="radialGradient1124"
       cx="16.743967"
       cy="4.1208024"
       fx="16.743967"
       fy="4.1208024"
       r="14.54372"
       gradientUnits="userSpaceOnUse"
       gradientTransform="matrix(3.7095258,0,0,1.8361971,-45.36821,-3.4458029)" />
  </defs>
  <sodipodi:namedview
     id="base"
     pagecolor="#ffffff"
     bordercolor="#666666"
     borderopacity="1.0"
     inkscape:pageopacity="0.0"
     inkscape:pageshadow="2"
     inkscape:zoom="2.8"
     inkscape:cx="81.25"
     inkscape:cy="35.535714"
     inkscape:document-units="mm"
     inkscape:current-layer="layer1"
     inkscape:document-rotation="0"
     showgrid="false"
     units="px"
     inkscape:window-width="1713"
     inkscape:window-height="939"
     inkscape:window-x="0"
     inkscape:window-y="0"
     inkscape:window-maximized="0"
     inkscape:pagecheckerboard="0" />
  <metadata
     id="metadata2114">
    <rdf:RDF>
      <cc:Work
         rdf:about="">
        <dc:format>image/svg+xml</dc:format>
        <dc:type
           rdf:resource="http://purl.org/dc/dcmitype/StillImage" />
      </cc:Work>
    </rdf:RDF>
  </metadata>
  <g
     inkscape:label="Capa 1"
     inkscape:groupmode="layer"
     id="layer1">
    <g
       style="opacity:0.13961803"
       transform="matrix(0.97573206,0,0,0.97573206,-65.861139,-37.234129)"
       id="g1702">
      <rect
         ry="6.6098609"
         rx="6.6098609"
         y="40.709618"
         x="69.839508"
         height="29.810888"
         width="29.810888"
         id="rect1634"
         style="fill:none;fill-opacity:1;stroke:#000000;stroke-width:0.1;stroke-linecap:round;stroke-linejoin:round;stroke-miterlimit:4;stroke-dasharray:none;stroke-opacity:0.02" />
      <rect
         style="fill:none;fill-opacity:1;stroke:#000000;stroke-width:0.2;stroke-linecap:round;stroke-linejoin:round;stroke-miterlimit:4;stroke-dasharray:none;stroke-opacity:0.02"
         id="rect1638"
         width="29.810888"
         height="29.810888"
         x="69.839508"
         y="40.709618"
         rx="6.6098609"
         ry="6.6098609" />
      <rect
         ry="6.6098609"
         rx="6.6098609"
         y="40.709618"
         x="69.839508"
         height="29.810888"
         width="29.810888"
         id="rect1640"
         style="fill:none;fill-opacity:1;stroke:#000000;stroke-width:0.3;stroke-linecap:round;stroke-linejoin:round;stroke-miterlimit:4;stroke-dasharray:none;stroke-opacity:0.02" />
      <rect
         style="fill:none;fill-opacity:1;stroke:#000000;stroke-width:0.4;stroke-linecap:round;stroke-linejoin:round;stroke-miterlimit:4;stroke-dasharray:none;stroke-opacity:0.02"
         id="rect1642"
         width="29.810888"
         height="29.810888"
         x="69.839508"
         y="40.709618"
         rx="6.6098609"
         ry="6.6098609" />
      <rect
         ry="6.6098609"
         rx="6.6098609"
         y="40.709618"
         x="69.839508"
         height="29.810888"
         width="29.810888"
         id="rect1644"
         style="fill:none;fill-opacity:1;stroke:#000000;stroke-width:0.5;stroke-linecap:round;stroke-linejoin:round;stroke-miterlimit:4;stroke-dasharray:none;stroke-opacity:0.02" />
      <rect
         style="fill:none;fill-opacity:1;stroke:#000000;stroke-width:0.6;stroke-linecap:round;stroke-linejoin:round;stroke-miterlimit:4;stroke-dasharray:none;stroke-opacity:0.02"
         id="rect1646"
         width="29.810888"
         height="29.810888"
         x="69.839508"
         y="40.709618"
         rx="6.6098609"
         ry="6.6098609" />
      <rect
         ry="6.6098609"
         rx="6.6098609"
         y="40.709618"
         x="69.839508"
         height="29.810888"
         width="29.810888"
         id="rect1648"
         style="fill:none;fill-opacity:1;stroke:#000000;stroke-width:0.7;stroke-linecap:round;stroke-linejoin:round;stroke-miterlimit:4;stroke-dasharray:none;stroke-opacity:0.02" />
      <rect
         style="fill:none;fill-opacity:1;stroke:#000000;stroke-width:0.8;stroke-linecap:round;stroke-linejoin:round;stroke-miterlimit:4;stroke-dasharray:none;stroke-opacity:0.02"
         id="rect1650"
         width="29.810888"
         height="29.810888"
         x="69.839508"
         y="40.709618"
         rx="6.6098609"
         ry="6.6098609" />
      <rect
         ry="6.6098609"
         rx="6.6098609"
         y="40.709618"
         x="69.839508"
         height="29.810888"
         width="29.810888"
         id="rect1652"
         style="fill:none;fill-opacity:1;stroke:#000000;stroke-width:1;stroke-linecap:round;stroke-linejoin:round;stroke-miterlimit:4;stroke-dasharray:none;stroke-opacity:0.02" />
      <rect
         style="fill:none;fill-opacity:1;stroke:#000000;stroke-width:1.2;stroke-linecap:round;stroke-linejoin:round;stroke-miterlimit:4;stroke-dasharray:none;stroke-opacity:0.02"
         id="rect1654"
         width="29.810888"
         height="29.810888"
         x="69.839508"
         y="40.709618"
         rx="6.6098609"
         ry="6.6098609" />
      <rect
         ry="6.6098609"
         rx="6.6098609"
         y="40.709618"
         x="69.839508"
         height="29.810888"
         width="29.810888"
         id="rect1656"
         style="fill:none;fill-opacity:1;stroke:#000000;stroke-width:1.4;stroke-linecap:round;stroke-linejoin:round;stroke-miterlimit:4;stroke-dasharray:none;stroke-opacity:0.02" />
      <rect
         style="fill:none;fill-opacity:1;stroke:#000000;stroke-width:1.6;stroke-linecap:round;stroke-linejoin:round;stroke-miterlimit:4;stroke-dasharray:none;stroke-opacity:0.02"
         id="rect1658"
         width="29.810888"
         height="29.810888"
         x="69.839508"
         y="40.709618"
         rx="6.6098609"
         ry="6.6098609" />
      <rect
         ry="6.6098609"
         rx="6.6098609"
         y="40.709618"
         x="69.839508"
         height="29.810888"
         width="29.810888"
         id="rect1660"
         style="fill:none;fill-opacity:1;stroke:#000000;stroke-width:1.8;stroke-linecap:round;stroke-linejoin:round;stroke-miterlimit:4;stroke-dasharray:none;stroke-opacity:0.02" />
      <rect
         style="fill:none;fill-opacity:1;stroke:#000000;stroke-width:2;stroke-linecap:round;stroke-linejoin:round;stroke-miterlimit:4;stroke-dasharray:none;stroke-opacity:0.02"
         id="rect1662"
         width="29.810888"
         height="29.810888"
         x="69.839508"
         y="40.709618"
         rx="6.6098609"
         ry="6.6098609" />
      <rect
         ry="6.6098609"
         rx="6.6098609"
         y="40.709618"
         x="69.839508"
         height="29.810888"
         width="29.810888"
         id="rect1664"
         style="fill:none;fill-opacity:1;stroke:#000000;stroke-width:2.2;stroke-linecap:round;stroke-linejoin:round;stroke-miterlimit:4;stroke-dasharray:none;stroke-opacity:0.02" />
      <rect
         style="fill:none;fill-opacity:1;stroke:#000000;stroke-width:2.6;stroke-linecap:round;stroke-linejoin:round;stroke-miterlimit:4;stroke-dasharray:none;stroke-opacity:0.02"
         id="rect1666"
         width="29.810888"
         height="29.810888"
         x="69.839508"
         y="40.709618"
         rx="6.6098609"
         ry="6.6098609" />
      <rect
         ry="6.6098609"
         rx="6.6098609"
         y="40.709618"
         x="69.839508"
         height="29.810888"
         width="29.810888"
         id="rect1668"
         style="fill:none;fill-opacity:1;stroke:#000000;stroke-width:3;stroke-linecap:round;stroke-linejoin:round;stroke-miterlimit:4;stroke-dasharray:none;stroke-opacity:0.02" />
      <rect
         style="fill:none;fill-opacity:1;stroke:#000000;stroke-width:3.4;stroke-linecap:round;stroke-linejoin:round;stroke-miterlimit:4;stroke-dasharray:none;stroke-opacity:0.02"
         id="rect1670"
         width="29.810888"
         height="29.810888"
         x="69.839508"
         y="40.709618"
         rx="6.6098609"
         ry="6.6098609" />
      <rect
         ry="6.6098609"
         rx="6.6098609"
         y="40.709618"
         x="69.839508"
         height="29.810888"
         width="29.810888"
         id="rect1672"
         style="fill:none;fill-opacity:1;stroke:#000000;stroke-width:3.8;stroke-linecap:round;stroke-linejoin:round;stroke-miterlimit:4;stroke-dasharray:none;stroke-opacity:0.02" />
      <rect
         style="fill:none;fill-opacity:1;stroke:#000000;stroke-width:4.2;stroke-linecap:round;stroke-linejoin:round;stroke-miterlimit:4;stroke-dasharray:none;stroke-opacity:0.02"
         id="rect1674"
         width="29.810888"
         height="29.810888"
         x="69.839508"
         y="40.709618"
         rx="6.6098609"
         ry="6.6098609" />
      <rect
         ry="6.6098609"
         rx="6.6098609"
         y="40.709618"
         x="69.839508"
         height="29.810888"
         width="29.810888"
         id="rect1676"
         style="fill:none;fill-opacity:1;stroke:#000000;stroke-width:4.6;stroke-linecap:round;stroke-linejoin:round;stroke-miterlimit:4;stroke-dasharray:none;stroke-opacity:0.02" />
      <rect
         style="fill:none;fill-opacity:1;stroke:#000000;stroke-width:5;stroke-linecap:round;stroke-linejoin:round;stroke-miterlimit:4;stroke-dasharray:none;stroke-opacity:0.02"
         id="rect1678"
         width="29.810888"
         height="29.810888"
         x="69.839508"
         y="40.709618"
         rx="6.6098609"
         ry="6.6098609" />
    </g>
    <rect
       style="mix-blend-mode:normal;fill:url(#radialGradient1124);fill-opacity:1;stroke-width:2.68769;stroke-linecap:round;stroke-linejoin:round"
       id="rect910"
       width="29.08744"
       height="29.08744"
       x="2.2835085"
       y="2.4875498"
       rx="6.4494534"
       ry="6.4494534" />
    <path
       style="fill:#ffffff;stroke-width:0.356684"
       d="M 10.203571,27.389988 C 9.7354377,27.345447 9.3307386,27.228212 8.8935616,27.010431 8.5012889,26.815016 8.2491792,26.628891 7.8889943,26.268778 7.5288145,25.908666 7.3426461,25.656613 7.1471924,25.264414 6.9239129,24.816382 6.8144068,24.427939 6.7656512,23.911013 6.7337363,23.57286 6.7343456,11.962225 6.7661581,11.635666 6.856966,10.706893 7.2207997,9.9497572 7.9024905,9.2709942 8.4919827,8.6840303 9.1514701,8.3452504 9.9960252,8.1955427 10.124402,8.1727598 10.487447,8.1665316 12.064822,8.1665316 h 1.45143 c 0.954594,4.921e-4 0.884299,0.5379251 0.399266,0.8711239 -0.574134,0.3658647 -1.05275,0.7693907 -1.59856,1.0655385 l -0.202944,0.110113 -0.845061,6.6e-5 c -0.476405,4e-5 -0.519855,0.01051 -0.630629,0.0239 -0.8756434,0.106311 -1.6336772,0.792787 -1.8235801,1.651441 -0.041151,0.186156 -0.042267,0.338567 -0.042723,6.053508 -3.298e-4,4.003262 0.00679,5.650389 0.022477,5.738841 0.050953,0.287603 0.1857779,0.606433 0.3593933,0.849883 0.1078116,0.151179 0.4130099,0.452719 0.5564962,0.549829 0.2402619,0.162604 0.5621136,0.291405 0.8335296,0.333567 0.117371,0.0182 1.423866,0.02308 5.751047,0.0182 1.963985,0 3.509849,-0.05294 5.423849,-0.06461 1.012684,0.09849 1.945444,-0.698617 2.194947,-1.515475 0.04856,-0.170689 0.04931,-0.0215 0.0615,-1.691867 0.01213,-1.654019 0.01335,-1.440221 0.05704,-1.514606 0.0532,-0.09052 0.163304,-0.174412 0.395423,-0.301245 0.618623,-0.315327 1.001621,-0.623352 1.52869,-0.281873 0.03527,0.06447 0.0387,0.198911 0.0448,1.750655 0.0089,2.260907 -0.01119,2.398133 -0.204527,2.978298 -0.276605,0.830089 -0.893401,1.589867 -1.690702,2.082651 -0.467291,0.288818 -0.999169,0.460303 -1.604755,0.517394 -0.295395,0.02785 -12.003987,0.02602 -12.297824,-0.002 z"
       id="path6" />
    <path
       style="fill:#ffffff;stroke-width:0.356684"
       d="m 12.667405,23.816837 c -0.132103,-0.05791 -0.340137,-0.349089 -0.706157,-0.988392 -0.620819,-1.08435 -0.956013,-1.798616 -1.215209,-2.589488 -0.22444,-0.684833 -0.360976,-1.278204 -0.420507,-1.827496 -0.03079,-0.284092 -0.0164,-1.460112 0.02216,-1.812958 0.176076,-1.610618 0.5979,-2.632653 1.423746,-3.629646 0.833813,-1.00661 2.210773,-1.794789 3.862569,-2.210959 0.757432,-0.190833 1.522879,-0.321799 2.704667,-0.42438 0.14942,-0.01294 0.834188,-0.02795 1.78451,-0.03354 1.550164,-0.0092 1.575288,-0.01355 1.599661,-0.04538 0.02091,-0.02728 0.02698,-0.4891748 0.02698,-1.5354584 0,-1.3288534 5e-4,-1.351279 0.04652,-1.4742432 0.119077,-0.3196436 0.515952,-0.5549327 0.871537,-0.5166858 0.07768,0.00836 0.192272,0.041751 0.271597,0.079079 0.126734,0.059694 0.682584,0.4187707 3.127625,2.8743306 2.539093,2.5500168 2.650338,2.6650358 2.718382,2.8105098 0.06378,0.13634 0.07095,0.171414 0.07095,0.346712 0,0.175292 -0.0071,0.210367 -0.07095,0.346712 -0.06806,0.145535 -0.178653,0.259779 -2.729168,2.819545 -2.07295,2.080465 -3.023295,2.749889 -3.101603,2.78666 -0.05523,0.02594 -0.159509,0.05818 -0.23172,0.07168 -0.347232,0.06486 -0.756442,-0.142782 -0.906109,-0.459771 l -0.05627,-0.119185 -0.01078,-1.391187 c -0.008,-1.031218 -0.0174,-1.570076 -0.03636,-1.589112 -0.03164,-0.03172 -2.466947,-0.01321 -2.921698,0.02176 -1.353471,0.104141 -2.224869,0.310408 -3.055668,0.670001 -1.713002,0.741434 -2.499799,2.136714 -2.626933,4.600552 -0.03459,0.670043 -0.0035,1.389371 0.101252,2.356768 0.04713,0.434552 0.05261,0.540496 0.03159,0.611022 -0.02948,0.09891 -0.13283,0.211002 -0.233415,0.253206 -0.08793,0.03691 -0.256208,0.03656 -0.341156,-5e-4 z"
       id="path8" />
  </g>
</svg>
