<?xml version="1.0" encoding="UTF-8" standalone="no"?>
<svg
   xmlns:dc="http://purl.org/dc/elements/1.1/"
   xmlns:cc="http://creativecommons.org/ns#"
   xmlns:rdf="http://www.w3.org/1999/02/22-rdf-syntax-ns#"
   xmlns:svg="http://www.w3.org/2000/svg"
   xmlns="http://www.w3.org/2000/svg"
   xmlns:xlink="http://www.w3.org/1999/xlink"
   xmlns:sodipodi="http://sodipodi.sourceforge.net/DTD/sodipodi-0.dtd"
   xmlns:inkscape="http://www.inkscape.org/namespaces/inkscape"
   width="128"
   height="128"
   viewBox="0 0 33.866666 33.866668"
   version="1.1"
   id="svg1596"
   inkscape:version="1.0.1 (3bc2e813f5, 2020-09-07)"
   sodipodi:docname="flatpak-software.svg">
  <defs
     id="defs1590">
    <linearGradient
       inkscape:collect="always"
       xlink:href="#linearGradient2089"
       id="linearGradient2091"
       x1="14.6724"
       y1="31.189062"
       x2="14.6724"
       y2="3.9821808"
       gradientUnits="userSpaceOnUse"
       gradientTransform="translate(0.00718065,-0.06231627)" />
    <linearGradient
       inkscape:collect="always"
       id="linearGradient2089">
      <stop
         style="stop-color:#ffffff;stop-opacity:1"
         offset="0"
         id="stop2085" />
      <stop
         style="stop-color:#ececec;stop-opacity:1"
         offset="1"
         id="stop2087" />
    </linearGradient>
  </defs>
  <sodipodi:namedview
     id="base"
     pagecolor="#ffffff"
     bordercolor="#666666"
     borderopacity="1.0"
     inkscape:pageopacity="0.0"
     inkscape:pageshadow="2"
     inkscape:zoom="5.6"
     inkscape:cx="67.974657"
     inkscape:cy="61.777443"
     inkscape:document-units="mm"
     inkscape:current-layer="layer1"
     inkscape:document-rotation="0"
     showgrid="false"
     units="px"
     inkscape:window-width="1514"
     inkscape:window-height="941"
     inkscape:window-x="50"
     inkscape:window-y="27"
     inkscape:window-maximized="0" />
  <metadata
     id="metadata1593">
    <rdf:RDF>
      <cc:Work
         rdf:about="">
        <dc:format>image/svg+xml</dc:format>
        <dc:type
           rdf:resource="http://purl.org/dc/dcmitype/StillImage" />
        <dc:title></dc:title>
      </cc:Work>
    </rdf:RDF>
  </metadata>
  <g
     inkscape:label="Capa 1"
     inkscape:groupmode="layer"
     id="layer1">
    <g
       id="g1702"
       transform="matrix(0.97573206,0,0,0.97573206,-65.741205,-37.26541)"
       style="opacity:0.295">
      <rect
         style="fill:none;fill-opacity:1;stroke:#000000;stroke-width:0.1;stroke-linecap:round;stroke-linejoin:round;stroke-miterlimit:4;stroke-dasharray:none;stroke-opacity:0.02"
         id="rect1634"
         width="29.810888"
         height="29.810888"
         x="69.839508"
         y="40.709618"
         rx="6.6098609"
         ry="6.6098609" />
      <rect
         ry="6.6098609"
         rx="6.6098609"
         y="40.709618"
         x="69.839508"
         height="29.810888"
         width="29.810888"
         id="rect1638"
         style="fill:none;fill-opacity:1;stroke:#000000;stroke-width:0.2;stroke-linecap:round;stroke-linejoin:round;stroke-miterlimit:4;stroke-dasharray:none;stroke-opacity:0.02" />
      <rect
         style="fill:none;fill-opacity:1;stroke:#000000;stroke-width:0.3;stroke-linecap:round;stroke-linejoin:round;stroke-miterlimit:4;stroke-dasharray:none;stroke-opacity:0.02"
         id="rect1640"
         width="29.810888"
         height="29.810888"
         x="69.839508"
         y="40.709618"
         rx="6.6098609"
         ry="6.6098609" />
      <rect
         ry="6.6098609"
         rx="6.6098609"
         y="40.709618"
         x="69.839508"
         height="29.810888"
         width="29.810888"
         id="rect1642"
         style="fill:none;fill-opacity:1;stroke:#000000;stroke-width:0.4;stroke-linecap:round;stroke-linejoin:round;stroke-miterlimit:4;stroke-dasharray:none;stroke-opacity:0.02" />
      <rect
         style="fill:none;fill-opacity:1;stroke:#000000;stroke-width:0.5;stroke-linecap:round;stroke-linejoin:round;stroke-miterlimit:4;stroke-dasharray:none;stroke-opacity:0.02"
         id="rect1644"
         width="29.810888"
         height="29.810888"
         x="69.839508"
         y="40.709618"
         rx="6.6098609"
         ry="6.6098609" />
      <rect
         ry="6.6098609"
         rx="6.6098609"
         y="40.709618"
         x="69.839508"
         height="29.810888"
         width="29.810888"
         id="rect1646"
         style="fill:none;fill-opacity:1;stroke:#000000;stroke-width:0.6;stroke-linecap:round;stroke-linejoin:round;stroke-miterlimit:4;stroke-dasharray:none;stroke-opacity:0.02" />
      <rect
         style="fill:none;fill-opacity:1;stroke:#000000;stroke-width:0.7;stroke-linecap:round;stroke-linejoin:round;stroke-miterlimit:4;stroke-dasharray:none;stroke-opacity:0.02"
         id="rect1648"
         width="29.810888"
         height="29.810888"
         x="69.839508"
         y="40.709618"
         rx="6.6098609"
         ry="6.6098609" />
      <rect
         ry="6.6098609"
         rx="6.6098609"
         y="40.709618"
         x="69.839508"
         height="29.810888"
         width="29.810888"
         id="rect1650"
         style="fill:none;fill-opacity:1;stroke:#000000;stroke-width:0.8;stroke-linecap:round;stroke-linejoin:round;stroke-miterlimit:4;stroke-dasharray:none;stroke-opacity:0.02" />
      <rect
         style="fill:none;fill-opacity:1;stroke:#000000;stroke-width:1;stroke-linecap:round;stroke-linejoin:round;stroke-miterlimit:4;stroke-dasharray:none;stroke-opacity:0.02"
         id="rect1652"
         width="29.810888"
         height="29.810888"
         x="69.839508"
         y="40.709618"
         rx="6.6098609"
         ry="6.6098609" />
      <rect
         ry="6.6098609"
         rx="6.6098609"
         y="40.709618"
         x="69.839508"
         height="29.810888"
         width="29.810888"
         id="rect1654"
         style="fill:none;fill-opacity:1;stroke:#000000;stroke-width:1.2;stroke-linecap:round;stroke-linejoin:round;stroke-miterlimit:4;stroke-dasharray:none;stroke-opacity:0.02" />
      <rect
         style="fill:none;fill-opacity:1;stroke:#000000;stroke-width:1.4;stroke-linecap:round;stroke-linejoin:round;stroke-miterlimit:4;stroke-dasharray:none;stroke-opacity:0.02"
         id="rect1656"
         width="29.810888"
         height="29.810888"
         x="69.839508"
         y="40.709618"
         rx="6.6098609"
         ry="6.6098609" />
      <rect
         ry="6.6098609"
         rx="6.6098609"
         y="40.709618"
         x="69.839508"
         height="29.810888"
         width="29.810888"
         id="rect1658"
         style="fill:none;fill-opacity:1;stroke:#000000;stroke-width:1.6;stroke-linecap:round;stroke-linejoin:round;stroke-miterlimit:4;stroke-dasharray:none;stroke-opacity:0.02" />
      <rect
         style="fill:none;fill-opacity:1;stroke:#000000;stroke-width:1.8;stroke-linecap:round;stroke-linejoin:round;stroke-miterlimit:4;stroke-dasharray:none;stroke-opacity:0.02"
         id="rect1660"
         width="29.810888"
         height="29.810888"
         x="69.839508"
         y="40.709618"
         rx="6.6098609"
         ry="6.6098609" />
      <rect
         ry="6.6098609"
         rx="6.6098609"
         y="40.709618"
         x="69.839508"
         height="29.810888"
         width="29.810888"
         id="rect1662"
         style="fill:none;fill-opacity:1;stroke:#000000;stroke-width:2;stroke-linecap:round;stroke-linejoin:round;stroke-miterlimit:4;stroke-dasharray:none;stroke-opacity:0.02" />
      <rect
         style="fill:none;fill-opacity:1;stroke:#000000;stroke-width:2.2;stroke-linecap:round;stroke-linejoin:round;stroke-miterlimit:4;stroke-dasharray:none;stroke-opacity:0.02"
         id="rect1664"
         width="29.810888"
         height="29.810888"
         x="69.839508"
         y="40.709618"
         rx="6.6098609"
         ry="6.6098609" />
      <rect
         ry="6.6098609"
         rx="6.6098609"
         y="40.709618"
         x="69.839508"
         height="29.810888"
         width="29.810888"
         id="rect1666"
         style="fill:none;fill-opacity:1;stroke:#000000;stroke-width:2.6;stroke-linecap:round;stroke-linejoin:round;stroke-miterlimit:4;stroke-dasharray:none;stroke-opacity:0.02" />
      <rect
         style="fill:none;fill-opacity:1;stroke:#000000;stroke-width:3;stroke-linecap:round;stroke-linejoin:round;stroke-miterlimit:4;stroke-dasharray:none;stroke-opacity:0.02"
         id="rect1668"
         width="29.810888"
         height="29.810888"
         x="69.839508"
         y="40.709618"
         rx="6.6098609"
         ry="6.6098609" />
      <rect
         ry="6.6098609"
         rx="6.6098609"
         y="40.709618"
         x="69.839508"
         height="29.810888"
         width="29.810888"
         id="rect1670"
         style="fill:none;fill-opacity:1;stroke:#000000;stroke-width:3.4;stroke-linecap:round;stroke-linejoin:round;stroke-miterlimit:4;stroke-dasharray:none;stroke-opacity:0.02" />
      <rect
         style="fill:none;fill-opacity:1;stroke:#000000;stroke-width:3.8;stroke-linecap:round;stroke-linejoin:round;stroke-miterlimit:4;stroke-dasharray:none;stroke-opacity:0.02"
         id="rect1672"
         width="29.810888"
         height="29.810888"
         x="69.839508"
         y="40.709618"
         rx="6.6098609"
         ry="6.6098609" />
      <rect
         ry="6.6098609"
         rx="6.6098609"
         y="40.709618"
         x="69.839508"
         height="29.810888"
         width="29.810888"
         id="rect1674"
         style="fill:none;fill-opacity:1;stroke:#000000;stroke-width:4.2;stroke-linecap:round;stroke-linejoin:round;stroke-miterlimit:4;stroke-dasharray:none;stroke-opacity:0.02" />
      <rect
         style="fill:none;fill-opacity:1;stroke:#000000;stroke-width:4.6;stroke-linecap:round;stroke-linejoin:round;stroke-miterlimit:4;stroke-dasharray:none;stroke-opacity:0.02"
         id="rect1676"
         width="29.810888"
         height="29.810888"
         x="69.839508"
         y="40.709618"
         rx="6.6098609"
         ry="6.6098609" />
      <rect
         ry="6.6098609"
         rx="6.6098609"
         y="40.709618"
         x="69.839508"
         height="29.810888"
         width="29.810888"
         id="rect1678"
         style="fill:none;fill-opacity:1;stroke:#000000;stroke-width:5;stroke-linecap:round;stroke-linejoin:round;stroke-miterlimit:4;stroke-dasharray:none;stroke-opacity:0.02" />
    </g>
    <rect
       style="fill:url(#linearGradient2091);fill-opacity:1;stroke-width:2.68801;stroke-linecap:round;stroke-linejoin:round;stroke-miterlimit:4;stroke-dasharray:none"
       id="rect849"
       width="29.08744"
       height="29.08744"
       x="2.4034445"
       y="2.4562688"
       rx="6.4494534"
       ry="6.4494534" />
    <g
       id="g3651"
       transform="matrix(0.66504055,0,0,0.66504055,-15.867647,27.37853)">
      <path
         style="fill:#f4f3f3;stroke-width:0.141111"
         d="M 48.379567,1.9503517 C 47.746513,1.7909174 46.870318,1.3587011 46.072603,0.81235559 44.675003,-0.14484196 36.295805,-6.9422641 35.758916,-7.5543759 34.119892,-9.4230326 34.042537,-11.45895 35.552665,-12.982682 l 0.650098,-0.655955 0.05203,-4.753375 0.05203,-4.753376 6.419858,-5.053846 c 4.06004,-3.196148 6.532164,-5.051778 6.725384,-5.04822 0.279227,0.0051 12.210215,9.413649 12.829138,10.116768 0.224671,0.255235 0.246944,0.706241 0.246944,5.000455 0,2.807828 0.05215,4.687688 0.128722,4.640362 0.15784,-0.09755 0.856038,0.76539 1.284675,1.587795 0.264622,0.507714 0.305566,0.763046 0.248916,1.552222 -0.129364,1.8021203 -0.588078,2.370235 -4.625646,5.7288345 -7.201219,5.9902427 -7.984175,6.5244343 -9.736666,6.6430904 -0.504472,0.034156 -1.156334,0.00188 -1.448581,-0.071721 z m 1.908201,-16.9422977 c 0.369208,-0.316455 0.631249,-0.640157 0.582313,-0.719338 -0.162605,-0.263101 -1.245887,-0.672776 -1.787299,-0.67592 -0.293534,-0.0017 -0.769784,0.09743 -1.058333,0.220295 l -0.524635,0.223396 0.846667,0.764128 c 0.465667,0.42027 0.941917,0.763833 1.058333,0.763472 0.116417,-4.24e-4 0.513746,-0.259576 0.882954,-0.576033 z"
         id="path3691"
         inkscape:connector-curvature="0" />
      <path
         style="fill:#e8e8e8;stroke-width:0.141111"
         d="M 48.417037,0.98253699 C 47.423448,0.6578474 46.279092,-0.15154756 42.208148,-3.4089606 37.181956,-7.4307258 36.607775,-7.9489578 36.053726,-8.9636863 35.58416,-9.8236837 35.515905,-10.911763 35.89521,-11.490656 c 0.36386,-0.55532 0.402222,-1.051429 0.503712,-6.514113 l 0.09423,-5.071688 1.149795,-0.925534 c 0.632388,-0.509044 2.242201,-1.782784 3.577364,-2.830534 1.335163,-1.04775 3.135505,-2.464026 4.00076,-3.14728 2.985549,-2.357555 3.933955,-3.082911 4.128563,-3.157589 0.162319,-0.06229 11.276553,8.68005 12.649351,9.949843 l 0.388055,0.358938 9.88e-4,4.736099 c 9.88e-4,4.809643 0.08622,6.69106 0.297109,6.560723 0.06432,-0.03975 0.150559,0.08907 0.191639,0.286272 0.04108,0.197203 0.105747,0.509707 0.143702,0.694456 0.09194,0.447511 -0.183631,1.1998545 -0.714955,1.9519273 C 61.459333,-7.401379 52.793839,-0.10756182 51.40432,0.57649684 50.44819,1.0471983 49.153435,1.2231851 48.417025,0.98253699 Z M 50.884195,-15.275619 c 0.668679,-0.551089 1.192404,-1.074964 1.163835,-1.164166 -0.07766,-0.242474 -1.504014,-1.065354 -2.149327,-1.239969 -0.845363,-0.228748 -1.979451,-0.06254 -2.724734,0.399338 -0.351643,0.217923 -0.664287,0.471663 -0.694763,0.563867 -0.07108,0.215047 2.610606,2.442912 2.940539,2.442912 0.136768,0 0.795771,-0.450892 1.46445,-1.001982 z"
         id="path3689"
         inkscape:connector-curvature="0" />
      <path
         style="fill:#ebe3d4;stroke-width:0.141111"
         d="M 48.166783,0.01386288 C 47.086724,-0.54581904 38.900636,-7.0467145 37.082264,-8.7887904 c -0.953734,-0.913717 -0.974439,-0.9485432 -0.880912,-1.4816666 0.05268,-0.300277 0.130032,-3.244707 0.171897,-6.543179 0.0526,-4.144536 0.125365,-6.057079 0.235535,-6.190981 0.164904,-0.200425 0.856556,-0.758089 5.370692,-4.330271 5.716539,-4.523682 7.472334,-5.843333 7.624409,-5.73049 0.08454,0.06273 0.852207,0.679238 1.705929,1.370018 0.853723,0.69078 3.586038,2.883486 6.071814,4.872681 2.485775,1.989194 4.6289,3.726026 4.762499,3.859626 0.222183,0.222183 0.242909,0.75455 0.242909,6.239328 0,4.041043 0.04993,6.089711 0.15311,6.282508 0.08421,0.157349 0.117279,0.428852 0.07348,0.6033389 -0.04787,0.1907526 -1.304577,1.3304139 -3.151721,2.8581956 -1.689653,1.3975206 -4.108777,3.4317571 -5.375832,4.5205267 -1.659714,1.4261775 -2.596727,2.12251845 -3.351794,2.49088334 -0.57643,0.28121609 -1.160167,0.51130198 -1.297193,0.51130198 -0.137025,0 -0.708663,-0.23812499 -1.270308,-0.52916664 z M 50.604259,-14.924619 c 1.175426,-0.938317 1.905,-1.618883 1.905,-1.777034 0,-0.165192 -2.997094,-2.368783 -3.222494,-2.369315 -0.206165,-4.24e-4 -1.916447,1.149769 -2.704173,1.818699 l -0.493889,0.419406 0.423334,0.428964 c 0.729479,0.739182 2.671287,2.258376 2.892777,2.263196 0.116417,0.0025 0.656167,-0.350229 1.199445,-0.783916 z"
         id="path3687"
         inkscape:connector-curvature="0" />
      <path
         style="fill:#ece1cd;stroke-width:0.141111"
         d="M 48.248241,0.00908062 C 47.578955,-0.33765617 45.659098,-1.7811325 42.772592,-4.1078712 36.11224,-9.4766125 35.903675,-9.6837989 36.265198,-10.572209 c 0.102264,-0.251305 0.180511,-2.443469 0.224979,-6.302987 l 0.06818,-5.917671 0.398144,-0.361773 c 0.21898,-0.198976 0.632499,-0.520524 0.918931,-0.714552 0.286433,-0.194027 0.521221,-0.394829 0.521751,-0.446224 5.36e-4,-0.0514 0.429589,-0.397185 0.953464,-0.76842 0.523875,-0.371236 1.380824,-1.018719 1.904331,-1.438852 0.557014,-0.447023 1.036926,-0.731224 1.15698,-0.685155 0.123081,0.04723 0.179234,0.01103 0.140367,-0.09048 -0.06122,-0.159906 1.74156,-1.743823 3.7351,-3.281641 2.497401,-1.926498 2.284616,-1.796148 2.630175,-1.61121 0.427144,0.2286 0.773542,0.02827 0.410342,-0.237308 -0.199846,-0.14613 -0.221982,-0.229412 -0.09478,-0.356609 0.271213,-0.271213 0.434347,-0.154662 4.193323,2.995897 0.853354,0.715232 2.248629,1.82099 5.560874,4.406998 0.419704,0.32768 1.272445,1.024407 1.894982,1.548282 0.622536,0.523875 1.181474,0.9525 1.242083,0.9525 0.06061,0 0.128617,2.752564 0.151128,6.116809 0.03284,4.907423 0.07892,6.162552 0.233079,6.348167 0.350985,0.422611 0.05528,0.8630413 -1.347187,2.0065309 -1.183492,0.9649516 -3.805284,3.1500656 -8.423509,7.0205118 -1.054035,0.88336818 -2.831355,1.93242482 -3.273928,1.93242482 -0.101811,0 -0.648905,-0.24027693 -1.215762,-0.5339489 z M 50.815925,-14.898949 c 0.659695,-0.49812 1.374298,-1.088788 1.588008,-1.312599 l 0.388565,-0.406926 -1.639942,-1.22647 c -0.90197,-0.674559 -1.747991,-1.22647 -1.880049,-1.22647 -0.132059,0 -0.956098,0.523768 -1.831199,1.163929 l -1.591091,1.16393 0.542577,0.475546 c 1.397517,1.22487 2.779661,2.276509 2.990848,2.275662 0.128061,-5.65e-4 0.772589,-0.408484 1.432283,-0.906602 z m 3.951111,-2.620243 c 0,-0.07761 -0.05975,-0.141111 -0.132782,-0.141111 -0.07303,0 -0.172029,0.0635 -0.219995,0.141111 -0.04797,0.07761 0.01178,0.141111 0.132782,0.141111 0.120997,0 0.219995,-0.0635 0.219995,-0.141111 z m 0.705556,-0.48556 c 0,-0.03423 -0.0635,-0.101473 -0.141111,-0.14944 -0.07761,-0.04797 -0.141111,-0.01996 -0.141111,0.06223 0,0.08219 0.0635,0.14944 0.141111,0.14944 0.07761,0 0.141111,-0.028 0.141111,-0.06223 z m -13.597525,-1.140491 c -0.299612,-0.269839 -0.586529,-0.490616 -0.637594,-0.490616 -0.05107,0 -0.195034,-0.168414 -0.31993,-0.374253 -0.136068,-0.224253 -0.375398,-0.390067 -0.597128,-0.413707 -0.203525,-0.0217 -0.370045,-0.01677 -0.370045,0.01096 0,0.0822 2.266394,1.765078 2.372296,1.761509 0.05343,-0.0018 -0.147988,-0.22405 -0.447599,-0.493888 z m -3.759141,-2.794351 c 0,-0.02528 -0.174625,-0.199902 -0.388056,-0.388056 l -0.388055,-0.342097 0.342098,0.388055 c 0.319741,0.362697 0.434013,0.452768 0.434013,0.342098 z m 3.884289,-4.724567 c -0.04345,-0.04345 -0.15731,-9e-5 -0.25303,0.09635 -0.138327,0.139364 -0.122118,0.155572 0.07899,0.07899 0.139167,-0.05299 0.217484,-0.131895 0.174037,-0.175341 z"
         id="path3685"
         inkscape:connector-curvature="0" />
      <path
         style="fill:#e8dcc6;stroke-width:0.141111"
         d="M 48.248241,0.00873349 C 47.221171,-0.52370693 38.943742,-7.0736216 37.004295,-8.8885799 36.156472,-9.6819828 36.110079,-9.758139 36.203534,-10.20304 c 0.205529,-0.978436 0.329115,-3.859676 0.346699,-8.082855 0.01,-2.400771 0.04689,-4.393748 0.08197,-4.428838 0.08008,-0.08008 0.418677,0.161469 1.836496,1.310133 0.620889,0.503021 2.367139,1.849152 3.880555,2.991403 1.513417,1.142249 3.450167,2.653131 4.303889,3.357516 0.853722,0.704383 1.795373,1.461315 2.092558,1.682071 l 0.540335,0.401373 0.376887,-0.342101 c 0.207288,-0.188155 0.512019,-0.433345 0.677181,-0.544867 0.165162,-0.111521 0.768412,-0.567148 1.340555,-1.012504 0.572144,-0.445357 1.453011,-1.128627 1.957484,-1.518377 1.703046,-1.315759 3.993541,-3.171514 4.659281,-3.774939 0.363908,-0.329847 0.719216,-0.599722 0.789571,-0.599722 0.07036,0 0.315576,-0.174625 0.544932,-0.388056 0.229358,-0.21343 0.704959,-0.56929 1.056891,-0.790799 0.351934,-0.221509 0.783596,-0.534993 0.959248,-0.696631 0.200558,-0.184556 0.368986,-0.244271 0.452741,-0.160516 0.07826,0.07825 0.150378,2.617013 0.174521,6.143169 0.03298,4.816851 0.07929,6.055719 0.233294,6.241148 0.350986,0.4226021 0.05528,0.8630367 -1.347187,2.0065249 -1.183492,0.9649516 -3.805284,3.1500656 -8.423509,7.0205118 -1.054035,0.88336818 -2.831355,1.93242482 -3.273928,1.93242482 -0.101811,0 -0.648905,-0.24043356 -1.215762,-0.53429603 z M 49.545925,-13.850303 c 0,-0.07761 0.06725,-0.141111 0.14944,-0.141111 0.08219,0 0.110194,0.0635 0.06223,0.141111 -0.04797,0.07761 -0.115214,0.141111 -0.149439,0.141111 -0.03422,0 -0.06223,-0.0635 -0.06223,-0.141111 z m 1.644031,-3.956356 c -0.919645,-0.695616 -1.782322,-1.264755 -1.917062,-1.264755 -0.134739,0 -0.979668,0.53975 -1.877622,1.199444 -0.897952,0.659695 -1.667916,1.199445 -1.71103,1.199445 -0.06919,0 -4.281942,-3.330098 -6.898038,-5.452762 -0.523875,-0.425065 -0.9525,-0.850642 -0.9525,-0.945728 0,-0.09509 0.176334,-0.277046 0.391854,-0.404357 0.566598,-0.334698 0.993132,-0.842844 0.772312,-0.920084 -0.331381,-0.115913 -0.181545,-0.352292 0.167741,-0.264626 0.189272,0.0475 0.38408,0.02173 0.432908,-0.05728 0.04883,-0.079 0.327262,-0.265311 0.618744,-0.414014 0.291481,-0.148702 1.287297,-0.876288 2.212925,-1.616856 2.71936,-2.175682 2.971449,-2.405205 2.69925,-2.457626 -0.283776,-0.05465 -0.309461,-0.219618 -0.06379,-0.40971 0.273587,-0.211693 0.697272,-0.338135 0.598723,-0.178679 -0.234326,0.379147 0.52494,0.06308 1.275053,-0.530783 1.355092,-1.07282 2.168179,-1.5875 2.50792,-1.5875 0.174076,0 0.537344,0.180147 0.807264,0.400326 0.269919,0.220179 1.125762,0.887496 1.901873,1.482928 0.776111,0.595431 2.014361,1.559068 2.751667,2.141415 0.737305,0.582347 2.37243,1.854228 3.63361,2.826403 1.287154,0.992197 2.293056,1.867565 2.293056,1.995491 0,0.2471 -0.961384,1.196366 -1.587681,1.567667 -0.21353,0.126591 -0.41916,0.327596 -0.456954,0.446677 -0.0378,0.119081 -0.264645,0.303236 -0.504114,0.409235 -0.239467,0.105998 -0.709954,0.423454 -1.045526,0.705458 -0.335572,0.282003 -1.213253,0.952942 -1.950401,1.490975 -0.737147,0.538034 -1.508363,1.188909 -1.713813,1.446388 -0.205448,0.257482 -0.45021,0.465787 -0.543915,0.462903 -0.0937,-0.0029 -0.92281,-0.574385 -1.842454,-1.27 z m 1.399938,-12.352056 c -0.302534,-0.302534 -0.278408,-0.382953 0.06048,-0.201588 0.155222,0.08307 0.282222,0.212307 0.282222,0.287187 0,0.191761 -0.08709,0.170007 -0.342698,-0.0856 z m -1.166378,-0.973239 c -0.217758,-0.191576 -0.327618,-0.350326 -0.244132,-0.352778 0.08348,-0.0025 0.300928,0.154291 0.483208,0.348318 0.426057,0.453517 0.274568,0.456343 -0.239076,0.0045 z m -0.907813,-0.886404 c -0.175524,-0.22381 -0.170533,-0.228801 0.05328,-0.05328 0.235056,0.184343 0.309807,0.300221 0.193667,0.300221 -0.0293,0 -0.140427,-0.111125 -0.246945,-0.246944 z"
         id="path3683"
         inkscape:connector-curvature="0" />
      <path
         style="fill:#d4d4d3;stroke-width:0.141111"
         d="M 48.248241,0.00873349 C 47.225922,-0.52124455 38.946248,-7.0711141 37.022315,-8.8718526 36.093639,-9.7410632 35.914562,-10.21767 36.352209,-10.655316 c 0.181393,-0.181393 0.212262,-1.043846 0.214786,-6.000901 0.0016,-3.183985 0.05082,-5.81865 0.109328,-5.854811 0.05851,-0.03616 0.431355,0.199084 0.828544,0.522767 1.498319,1.221031 3.868753,3.065332 6.255503,4.867056 1.358195,1.025282 3.123424,2.407175 3.922732,3.070874 0.799307,0.663699 1.510413,1.186593 1.580232,1.161988 0.141217,-0.04977 4.405233,-3.362231 7.682318,-5.96794 3.509635,-2.790617 5.015117,-3.902489 5.161499,-3.81202 0.0873,0.05396 0.139097,2.241703 0.139643,5.898273 7.06e-4,4.970415 0.03251,5.873178 0.219249,6.231304 0.120108,0.230338 0.185131,0.5512673 0.144495,0.713174 -0.04064,0.1619066 -0.69273,0.7989471 -1.449098,1.4156449 -1.183492,0.9649516 -3.805284,3.1500656 -8.423509,7.0205118 -1.054035,0.88336818 -2.831355,1.93242482 -3.273928,1.93242482 -0.101811,0 -0.648905,-0.24043356 -1.215762,-0.53429603 z M 51.114605,-17.87197 c -0.879086,-0.659694 -1.708056,-1.199444 -1.842154,-1.199444 -0.134098,0 -0.935731,0.508 -1.781408,1.128889 -0.845676,0.620889 -1.59846,1.128889 -1.672851,1.128889 -0.149938,0 -0.518997,-0.282937 -4.844766,-3.714197 -1.649236,-1.308197 -2.998611,-2.422826 -2.998611,-2.476954 0,-0.110996 1.777252,-1.599986 2.536874,-2.125404 0.273358,-0.189078 1.576515,-1.205468 2.895903,-2.258645 3.455466,-2.75826 5.66973,-4.382578 5.974317,-4.382578 0.14582,0 1.401253,0.888025 2.78985,1.973389 1.388597,1.085364 3.286722,2.557398 4.218055,3.271187 2.955156,2.264878 4.303889,3.364303 4.303889,3.508331 0,0.158347 -0.02625,0.18127 -1.763889,1.539979 -1.823709,1.426015 -2.453033,1.910914 -3.210278,2.473545 -1.664795,1.236936 -2.03148,1.538386 -2.338561,1.922507 -0.180249,0.225473 -0.404294,0.409951 -0.497878,0.409951 -0.09358,0 -0.889405,-0.53975 -1.768492,-1.199445 z"
         id="path3681"
         inkscape:connector-curvature="0" />
      <path
         style="fill:#e4d2b3;stroke-width:0.141111"
         d="M 48.558148,-0.19599332 C 47.575046,-0.88372511 38.297979,-8.1575835 37.288197,-9.0324088 l -0.898284,-0.7782292 0.08721,-0.742007 c 0.04797,-0.408104 0.08846,-3.250894 0.09,-6.317312 0.0015,-3.066416 0.05067,-5.604894 0.109187,-5.64106 0.05852,-0.03617 0.431371,0.199073 0.82856,0.522756 1.498319,1.221031 3.868753,3.065332 6.255503,4.867056 1.358195,1.025282 3.123424,2.407175 3.922732,3.070874 0.799307,0.663699 1.510413,1.186593 1.580232,1.161988 0.141217,-0.04977 4.405233,-3.362231 7.682318,-5.96794 3.601882,-2.863965 5.039048,-3.919486 5.164812,-3.793275 0.06627,0.06651 0.131139,3.034988 0.144149,6.596625 l 0.02365,6.4757041 -4.778671,3.8048888 c -6.270879,4.99301887 -7.655099,6.03442447 -8.010792,6.02685527 -0.162612,-0.003457 -0.581407,-0.20618873 -0.930657,-0.45050849 z M 51.309814,-18.010973 c -0.931333,-0.730295 -1.826525,-1.331152 -1.989313,-1.335237 -0.16279,-0.0041 -0.86129,0.416598 -1.552223,0.934852 -0.690933,0.518253 -1.447577,1.085818 -1.681433,1.261258 l -0.42519,0.318978 -0.850359,-0.661534 c -2.999283,-2.333291 -6.836481,-5.426307 -6.836481,-5.510623 0,-0.112178 1.772271,-1.598049 2.536874,-2.126912 0.273358,-0.189078 1.576515,-1.205468 2.895903,-2.258645 3.455466,-2.75826 5.66973,-4.382578 5.974317,-4.382578 0.14582,0 1.401253,0.888025 2.78985,1.973389 1.388597,1.085364 3.286722,2.557398 4.218055,3.271187 2.955156,2.264878 4.303889,3.364303 4.303889,3.508331 0,0.158347 -0.02625,0.18127 -1.763889,1.539979 -1.823709,1.426015 -2.453033,1.910914 -3.210278,2.473545 -1.571028,1.167268 -2.030402,1.540419 -2.363611,1.919976 l -0.352777,0.401845 z"
         id="path3679"
         inkscape:connector-curvature="0" />
      <path
         style="fill:#e3d0ac;stroke-width:0.141111"
         d="M 48.558148,-0.19599332 C 47.577121,-0.88227308 38.29907,-8.1566423 37.291563,-9.029454 c -0.836751,-0.7248821 -0.887997,-0.8035671 -0.788432,-1.210561 0.149217,-0.60996 0.162511,-1.053586 0.206503,-6.891121 0.0215,-2.852209 0.07906,-5.185834 0.127933,-5.185834 0.04887,0 0.371161,0.318665 0.716206,0.708143 0.345046,0.389478 0.700263,0.680165 0.789373,0.645971 0.08911,-0.0342 0.37533,0.157911 0.636045,0.426901 0.364506,0.376074 0.43017,0.516179 0.284205,0.60639 -0.132493,0.08189 -0.142655,0.146469 -0.03365,0.21384 0.0859,0.05309 0.157512,0.0134 0.159143,-0.08819 0.0016,-0.101595 0.348788,0.164533 0.771459,0.591394 1.331125,1.344322 1.342241,1.353292 1.342241,1.083023 0,-0.129997 0.05107,-0.236357 0.113485,-0.236357 0.376684,0 3.987217,2.688987 5.954293,4.43453 0.659694,0.585399 1.247069,1.06536 1.305278,1.066582 0.05821,0.0013 0.105833,0.252474 0.105833,0.558338 0,0.762945 0.255356,0.86251 0.30923,0.120572 0.04935,-0.679653 -0.475644,-0.210913 5.34124,-4.768911 5.692104,-4.460222 7.259095,-5.645145 7.402202,-5.597377 0.09087,0.03033 0.146357,2.13072 0.155635,5.891423 0.0079,3.214359 0.06133,6.099519 0.118666,6.41147 l 0.104246,0.5671815 -4.962484,3.9483734 c -6.3582,5.05886698 -7.604364,5.99590117 -7.963728,5.98819227 -0.161338,-0.003457 -0.57909,-0.20618873 -0.92834,-0.45050849 z m 0.705555,-8.00153728 c 0,-0.1506418 -0.0635,-0.3131397 -0.141111,-0.3611062 -0.08003,-0.049462 -0.141111,0.069091 -0.141111,0.2738939 0,0.1986082 0.0635,0.3611061 0.141111,0.3611061 0.07761,0 0.141111,-0.1232521 0.141111,-0.2738938 z m -0.0768,-2.2469714 c -0.08245,-0.201154 -0.109062,-0.194549 -0.207163,0.05142 -0.110431,0.276888 -0.06231,0.7802413 0.114676,1.1994442 0.0494,0.117015 0.111212,-0.063731 0.138226,-0.4041986 0.02688,-0.3387273 0.0063,-0.7197276 -0.04574,-0.8466666 z m -0.447437,-0.02173 c -0.07478,-0.285945 -0.736854,-0.844073 -1.001281,-0.844073 -0.288051,0 0.02827,0.60205 0.452122,0.860506 0.555465,0.338715 0.641361,0.336144 0.549159,-0.01643 z m -2.86243,-0.773518 c 0,-0.116416 -0.103025,-0.211666 -0.228945,-0.211666 -0.187507,0 -0.19715,0.03831 -0.05328,0.211666 0.09662,0.116417 0.199642,0.211667 0.228944,0.211667 0.0293,0 0.05328,-0.09525 0.05328,-0.211667 z m 1.537932,-0.458611 c -0.104478,-0.135819 -0.398003,-0.485253 -0.652279,-0.776517 -0.254276,-0.291266 -0.46232,-0.614875 -0.46232,-0.719131 0,-0.160068 -1.183158,-1.361852 -1.340744,-1.361852 -0.02894,0 -0.01434,0.238125 0.03246,0.529167 0.09937,0.618064 0.684014,1.421595 1.114912,1.532337 0.165284,0.04248 0.511115,0.294515 0.768515,0.560087 0.484859,0.500247 0.87355,0.670225 0.53946,0.235909 z m -3.687246,-4.303889 c -0.03089,-0.09701 -0.194933,-0.239071 -0.364537,-0.315683 -0.169604,-0.07661 -0.308371,-0.244522 -0.308371,-0.373132 0,-0.284459 -0.81628,-1.187775 -0.95131,-1.052745 -0.05299,0.05299 -0.01937,0.219591 0.07471,0.37023 0.09408,0.150639 0.171047,0.345412 0.171047,0.432827 0,0.316693 0.778361,1.094586 1.10537,1.104704 0.202391,0.0063 0.307618,-0.05778 0.273094,-0.166201 z m -5.750078,-3.136311 c -0.09817,-0.118293 -0.281848,-0.212965 -0.408164,-0.210383 -0.177642,0.0036 -0.153217,0.06836 0.107824,0.28575 0.374651,0.312004 0.579224,0.260666 0.30034,-0.07537 z m -0.708386,-0.991188 c 0,-0.116417 -0.0635,-0.211667 -0.141111,-0.211667 -0.07761,0 -0.141111,0.09525 -0.141111,0.211667 0,0.116416 0.0635,0.211666 0.141111,0.211666 0.07761,0 0.141111,-0.09525 0.141111,-0.211666 z m 13.94288,2.045233 c -0.907445,-0.698017 -1.769655,-1.269122 -1.916022,-1.269122 -0.146369,0 -0.986455,0.53975 -1.866858,1.199444 -0.880404,0.659694 -1.654216,1.199444 -1.719583,1.199444 -0.06537,0 -0.455078,-0.269875 -0.866026,-0.599722 -0.410948,-0.329847 -2.092801,-1.663128 -3.737451,-2.962847 -1.64465,-1.299718 -2.990273,-2.416368 -2.990273,-2.481444 0,-0.298533 10.784265,-8.631542 11.170615,-8.631542 0.327725,0 1.065255,0.545447 5.339384,3.94879 0.737306,0.587091 2.197806,1.713208 3.245556,2.502482 1.04775,0.789274 2.0955,1.597373 2.328333,1.795775 l 0.423333,0.360731 -0.423333,0.359716 c -0.853329,0.725092 -2.606267,2.039173 -2.720188,2.039173 -0.06448,0 -0.329545,0.219056 -0.589044,0.486791 -0.361253,0.372718 -0.60748,0.496722 -1.050737,0.529167 -0.538834,0.03944 -0.576107,0.06924 -0.538301,0.430431 0.02882,0.275319 -0.02353,0.388055 -0.180204,0.388055 -0.239867,0 -0.674417,-0.368064 -2.296002,-1.944717 -0.581228,-0.565122 -1.175871,-1.091231 -1.321428,-1.169131 -0.489544,-0.261996 -0.286456,0.13028 0.425182,0.821261 2.685206,2.607262 2.703656,2.628463 2.481173,2.850945 -0.188147,0.188148 -0.323009,0.102252 -1.213747,-0.773067 -2.390321,-2.348942 -2.982705,-3.036456 -3.276793,-3.803003 -0.0857,-0.223366 -0.130784,-0.239395 -0.228527,-0.08124 -0.153288,0.248023 0.335892,1.546817 0.693465,1.841176 0.141416,0.116417 0.330286,0.354542 0.419711,0.529167 0.08943,0.174625 0.255607,0.3175 0.369294,0.3175 0.113686,0 0.206702,0.12443 0.206702,0.276512 0,0.345058 0.680014,0.994432 0.937776,0.895519 0.105113,-0.04033 0.191113,0.01624 0.191113,0.125721 0,0.109481 0.165059,0.530289 0.366798,0.935125 0.335135,0.672529 0.375422,1.155134 0.09624,1.152912 -0.06064,-4.23e-4 -0.852716,-0.571983 -1.760159,-1.27 z m 2.86645,-3.2094 c -0.244768,-0.451304 -0.984741,-1.060607 -1.308239,-1.077224 -0.190591,-0.0098 -0.349977,-0.130009 -0.395895,-0.298609 -0.09267,-0.340248 -1.674626,-2.046111 -1.897494,-2.046111 -0.08668,0 -0.236906,-0.127 -0.333843,-0.282223 -0.237807,-0.380788 -0.456081,-0.356263 -0.456081,0.05125 0,0.222426 0.246691,0.558407 0.740833,1.008976 0.407458,0.37153 1.185333,1.093861 1.728611,1.605181 1.069965,1.007025 1.415358,1.25052 1.804131,1.271873 0.198027,0.01088 0.223262,-0.03899 0.117977,-0.233109 z m -2.980441,-0.961919 c 0,-0.132897 -1.315507,-1.613359 -1.433596,-1.613359 -0.201347,0 0.06012,0.489241 0.467095,0.87399 0.221131,0.209056 0.402056,0.478931 0.402056,0.599722 0,0.125547 0.120889,0.219622 0.282222,0.219622 0.155223,0 0.282223,-0.03599 0.282223,-0.07997 z m 2.398888,-0.741752 c 0,-0.06389 -0.359174,-0.46077 -0.798165,-0.881945 -0.438989,-0.421175 -1.182687,-1.16761 -1.652661,-1.658745 -0.98193,-1.026145 -1.359173,-1.285056 -1.359173,-0.93283 0,0.359719 3.390362,3.583417 3.774722,3.589164 0.0194,2.96e-4 0.03528,-0.05175 0.03528,-0.115644 z"
         id="path3677"
         inkscape:connector-curvature="0" />
      <path
         style="fill:#e1ceaa;stroke-width:0.141111"
         d="M 48.558148,-0.19599332 C 47.577121,-0.88227308 38.29907,-8.1566423 37.291563,-9.029454 c -0.838206,-0.7261436 -0.888049,-0.8028587 -0.78652,-1.210561 0.141039,-0.566362 0.156713,-0.970931 0.180131,-4.649437 l 0.01964,-3.085259 0.524583,0.509525 c 0.463839,0.450527 0.548837,0.485273 0.734043,0.300067 0.185206,-0.185207 0.173482,-0.242979 -0.10125,-0.498931 -0.17089,-0.159208 -0.310709,-0.380345 -0.310709,-0.491415 0,-0.11107 -0.1905,-0.342787 -0.423334,-0.514928 -0.420678,-0.311022 -0.552196,-0.728057 -0.282222,-0.89491 0.07761,-0.04797 0.141111,-0.02716 0.141111,0.04623 0,0.07339 0.396875,0.548768 0.881945,1.056388 1.495647,1.565181 1.70409,1.903531 1.058333,1.717916 -0.174625,-0.05019 -0.423504,-0.120626 -0.553064,-0.156517 -0.14921,-0.04133 -0.269188,0.04068 -0.327287,0.223739 -0.06817,0.21479 0.01949,0.382571 0.341397,0.65344 0.238216,0.200447 0.43312,0.47959 0.43312,0.620321 0,0.157437 0.162862,0.312648 0.423334,0.40345 0.232833,0.08117 0.423333,0.243917 0.423333,0.36167 0,0.311486 0.748292,1.114276 1.331275,1.428234 0.276743,0.149036 0.504688,0.335909 0.506543,0.415273 0.0019,0.07936 0.382856,0.556441 0.846667,1.060169 0.463811,0.503729 0.843293,0.964104 0.843293,1.023056 0,0.05895 0.06734,0.107186 0.149642,0.107186 0.0823,0 0.617971,0.460375 1.190373,1.0230557 1.139001,1.1196574 2.25015,2.0813888 2.40476,2.0813888 0.05419,0 0.3039,0.174625 0.554915,0.3880556 0.251017,0.2134305 0.662362,0.4997195 0.914098,0.636198 0.251738,0.1364798 0.494802,0.3900042 0.540143,0.5633903 0.08173,0.3125357 0.08324,0.312221 0.175179,-0.036477 0.117702,-0.4463909 0.0056,-1.4317006 -0.151782,-1.3344158 -0.0653,0.040356 -0.182074,-0.044996 -0.259503,-0.1896717 -0.07743,-0.144677 -0.52037,-0.501046 -0.984315,-0.7919324 -0.463945,-0.2908865 -0.876146,-0.6138644 -0.916003,-0.7177292 -0.04192,-0.1092341 -0.19105,-0.1578328 -0.35376,-0.1152835 -0.226648,0.059269 -0.266861,0.01837 -0.207,-0.2105392 0.05081,-0.1942917 -0.02037,-0.3347607 -0.225179,-0.4443702 -0.164709,-0.088151 -0.267901,-0.2113576 -0.229314,-0.2737924 0.03859,-0.06244 -0.07994,-0.254525 -0.263383,-0.426867 -0.21749,-0.20432 -0.366664,-0.259754 -0.428735,-0.15932 -0.127661,0.20656 -0.36431,0.04806 -0.27515,-0.184288 0.08,-0.208465 -1.181945,-1.25353 -1.371903,-1.136129 -0.06737,0.04164 -0.18674,-0.09325 -0.265255,-0.299763 -0.170052,-0.44727 -0.604631,-0.841571 -1.23255,-1.118316 -0.252237,-0.111169 -0.458612,-0.300079 -0.458612,-0.419798 0,-0.119718 -0.133151,-0.297585 -0.295892,-0.395256 -0.162741,-0.09767 -0.517771,-0.521229 -0.788957,-0.941238 -0.278125,-0.43076 -0.533989,-0.697436 -0.586945,-0.611752 -0.06436,0.104137 -0.179734,0.08913 -0.366903,-0.04773 -0.269899,-0.197356 -0.269889,-0.202008 8.89e-4,-0.406818 0.408464,-0.308946 0.620061,-0.26265 1.031,0.225577 0.64915,0.771242 1.34911,1.414862 1.679612,1.54442 0.176017,0.069 0.38082,0.285343 0.455118,0.480763 0.0743,0.195419 0.202901,0.355308 0.285783,0.355308 0.08288,0 0.449579,0.325346 0.814882,0.722991 1.047588,1.140339 2.603952,2.676597 3.413324,3.3692312 0.408113,0.34925 1.017352,0.8970772 1.353865,1.2173924 0.336512,0.3203165 0.646377,0.5478582 0.688586,0.505649 0.04221,-0.04221 0.07674,-0.7344833 0.07674,-1.5383862 0,-1.3856094 -0.01651,-1.4679774 -0.317499,-1.5834514 -0.449173,-0.172329 -2.130956,-1.924365 -2.653152,-2.763982 -0.241349,-0.388055 -0.619188,-0.896055 -0.839642,-1.128888 -1.000253,-1.05642 -1.141243,-1.24036 -1.100958,-1.436334 0.03008,-0.146299 0.401868,0.0648 1.242363,0.705409 1.197752,0.9129 1.738737,1.48718 2.151666,2.284095 0.120375,0.232313 0.495118,0.736651 0.832764,1.120754 l 0.613903,0.698367 0.07055,-0.695171 c 0.0804,-0.792147 -0.501079,-0.265251 5.368248,-4.864343 5.692104,-4.460222 7.259095,-5.645145 7.402202,-5.597377 0.09087,0.03033 0.146357,2.13072 0.155635,5.891423 0.0079,3.214359 0.06133,6.099519 0.118666,6.41147 l 0.104246,0.5671817 -4.962484,3.9483734 c -6.358199,5.05886698 -7.604364,5.99590117 -7.963728,5.98819227 -0.161338,-0.003457 -0.57909,-0.20618873 -0.92834,-0.45050849 z m 0.519727,-4.50854638 c -0.04505,-0.1125686 -0.07848,-0.079132 -0.08525,0.085255 -0.0061,0.1487537 0.02722,0.2320981 0.07411,0.1852083 0.04689,-0.046891 0.0519,-0.1685995 0.01113,-0.2704634 z m -2.918616,-2.2162219 c 0,-0.069308 -0.09525,-0.1625642 -0.211667,-0.2072386 -0.128934,-0.049476 -0.211666,-2.822e-4 -0.211666,0.1260136 0,0.1139811 0.09525,0.2072386 0.211666,0.2072386 0.116417,0 0.211667,-0.056707 0.211667,-0.1260136 z m -1.90219,-1.6137833 c -0.258698,-0.3948232 -0.63781,-0.5983816 -0.63781,-0.3424639 0,0.1662458 0.734329,0.8279468 0.822664,0.7413003 0.0256,-0.025115 -0.05758,-0.2045913 -0.184854,-0.3988364 z m -4.068154,-1.0454682 c -0.217119,-0.2171192 -0.238545,-0.2178727 -0.238545,-0.0084 0,0.1265795 0.07937,0.2584944 0.176389,0.2931414 0.288319,0.1029716 0.317265,-0.029633 0.06216,-0.2847425 z m 3.289233,0.2485179 c 0,-0.1968881 -0.694388,-0.6259774 -0.815793,-0.5041096 -0.05579,0.056 0.04848,0.2233507 0.231704,0.3718927 0.365391,0.2962275 0.584089,0.3457335 0.584089,0.1322169 z m -1.49565,-1.5460728 c -0.374072,-0.396329 -0.903239,-0.586014 -0.903239,-0.323775 0,0.05993 0.199183,0.350602 0.442628,0.645943 0.394869,0.479046 0.465632,0.513979 0.655835,0.323777 0.190204,-0.190204 0.16914,-0.2599 -0.195224,-0.645945 z m -0.840553,-0.561113 c 0.121774,-0.197034 -0.06886,-0.577178 -0.28945,-0.577178 -0.108113,0 -0.196569,0.116417 -0.196569,0.258703 0,0.4018 0.309272,0.604458 0.486019,0.318475 z m -0.62713,-0.799985 c 0,-0.15704 -1.283114,-1.363338 -1.364057,-1.282395 -0.04492,0.04492 0.195987,0.369172 0.535356,0.720554 0.57028,0.590467 0.828701,0.76567 0.828701,0.561841 z m -1.697793,-1.717471 c -0.0063,-0.148992 -0.703688,-0.92639 -0.770834,-0.859242 -0.08575,0.08575 0.504707,0.965076 0.64804,0.965076 0.06999,0 0.125247,-0.04763 0.122794,-0.105834 z m 9.826683,4.8212646 c -0.05274,-0.1374296 -0.0212,-0.2019413 0.08192,-0.1675695 0.210939,0.070313 0.32708,0.3910274 0.141605,0.3910274 -0.07578,0 -0.176359,-0.1005558 -0.223521,-0.2234579 z M 47.765002,-9.8261518 C 47.5228,-10.017091 46.149669,-11.349886 44.7136,-12.78792 c -1.436069,-1.438032 -2.700831,-2.614605 -2.810583,-2.614605 -0.109752,0 -0.442189,-0.290274 -0.738748,-0.645055 -0.29656,-0.35478 -0.677346,-0.707999 -0.846192,-0.78493 -0.168846,-0.07693 -0.459595,-0.427533 -0.646109,-0.779115 -0.186514,-0.351583 -0.544069,-0.795566 -0.794567,-0.986631 -0.250498,-0.191064 -0.693611,-0.693187 -0.984696,-1.115829 -0.291085,-0.422642 -0.577654,-0.76844 -0.636821,-0.76844 -0.296462,0 -0.551069,-0.493633 -0.551069,-1.068413 0,-0.343706 0.04312,-0.62492 0.09581,-0.62492 0.168318,0 0.975196,0.95215 1.643986,1.939975 0.356541,0.526623 0.872943,1.175271 1.147561,1.441442 0.423333,0.41031 0.499405,0.442159 0.499958,0.20932 5.51e-4,-0.228916 0.0761,-0.194118 0.453926,0.209066 0.282583,0.301546 0.388614,0.505244 0.281569,0.540925 -0.326325,0.108776 -0.169378,0.444946 0.449088,0.961919 0.341435,0.285405 0.704314,0.674983 0.806399,0.86573 0.24591,0.459487 0.928342,0.816607 1.172796,0.613727 0.265811,-0.220603 0.934426,0.429269 0.834558,0.811165 -0.05243,0.200497 0.09211,0.468834 0.483283,0.897222 0.306947,0.336146 0.942284,1.072497 1.41186,1.636336 0.469576,0.563837 1.103242,1.230587 1.408148,1.481666 0.998252,0.8220233 1.340484,1.5053129 0.371241,0.7412132 z m -4.145743,-6.9169292 c -0.09799,-0.118073 -0.113272,-0.211667 -0.03456,-0.211667 0.07761,0 0.220161,0.09525 0.316778,0.211667 0.09799,0.118073 0.113272,0.211667 0.03456,0.211667 -0.07761,0 -0.220162,-0.09525 -0.316778,-0.211667 z m 7.59288,-1.341433 c -0.907445,-0.698017 -1.769655,-1.269122 -1.916022,-1.269122 -0.146369,0 -0.986455,0.53975 -1.866858,1.199444 -0.880404,0.659694 -1.654216,1.199444 -1.719583,1.199444 -0.06537,0 -0.455078,-0.269875 -0.866026,-0.599722 -0.410948,-0.329847 -2.092801,-1.663128 -3.737451,-2.962847 -1.64465,-1.299718 -2.990273,-2.416368 -2.990273,-2.481444 0,-0.120524 0.675317,-0.673058 4.797778,-3.925462 2.22319,-1.75398 5.144865,-3.952536 5.952481,-4.479233 0.314275,-0.204959 0.433375,-0.217586 0.701054,-0.07433 0.379781,0.203253 2.737117,1.990629 4.635353,3.514611 0.737306,0.591939 1.60485,1.263118 1.927874,1.491507 1.407547,0.995181 4.422126,3.343595 4.422126,3.444919 0,0.173459 -2.788466,2.262001 -3.020055,2.262001 -0.113566,0 -0.244266,-0.119043 -0.290444,-0.26454 -0.04618,-0.145496 -0.362705,-0.370992 -0.703393,-0.501102 -0.717674,-0.274082 -1.829971,-1.204914 -2.127625,-1.780515 -0.233546,-0.451628 -0.749739,-0.683019 -0.917641,-0.411346 -0.139514,0.225737 -0.931733,-0.417854 -2.430479,-1.974503 -1.019909,-1.05931 -1.523928,-1.379111 -1.512029,-0.959383 0.0028,0.09701 0.09575,0.335139 0.206666,0.529167 0.251778,0.440439 0.260699,0.57425 0.03528,0.529166 -0.290053,-0.05801 -0.321945,3.996479 -0.03579,4.549845 0.120684,0.233377 0.272978,0.424322 0.338433,0.424322 0.06545,0 0.357262,0.379999 0.648462,0.844443 0.51171,0.816142 1.250988,1.590557 2.105682,2.205761 0.277951,0.200066 0.382142,0.370886 0.321928,0.527799 -0.04896,0.127598 -0.138643,0.231601 -0.199288,0.231119 -0.06064,-4.23e-4 -0.852716,-0.571983 -1.760159,-1.27 z m 1.649897,-1.492308 c -1.537778,-1.61815 -1.474681,-1.542248 -1.128888,-1.358 0.347521,0.185168 2.751666,2.462065 2.751666,2.606023 0,0.320424 -0.49133,-0.05744 -1.622778,-1.248023 z m 0.987778,-0.36241 c -0.620889,-0.622982 -1.382889,-1.36321 -1.693333,-1.644951 -0.876855,-0.795781 -2.092815,-2.144231 -2.009071,-2.227976 0.04149,-0.04149 0.574006,0.404662 1.183366,0.991451 0.60936,0.58679 1.144822,1.067181 1.189916,1.067536 0.04509,3.53e-4 0.166948,0.159397 0.270789,0.353425 0.103841,0.194027 0.259149,0.352777 0.345129,0.352777 0.212915,0 2.05376,1.868786 2.05376,2.084931 0,0.313185 -0.199314,0.167895 -1.340556,-0.977193 z m 0.745034,-1.082325 c -0.797823,-0.762135 -1.797236,-1.711946 -2.220915,-2.110693 -0.423679,-0.398747 -0.726603,-0.768717 -0.673163,-0.822156 0.05344,-0.05344 0.376965,0.160753 0.718949,0.475983 0.341983,0.315229 0.867158,0.729082 1.167053,0.919673 0.813735,0.517148 2.919885,2.592725 2.810503,2.769708 -0.05207,0.08425 -0.152534,0.153183 -0.223254,0.153183 -0.07072,0 -0.781347,-0.623564 -1.579173,-1.385698 z m 1.994606,0.453984 c -0.107524,-0.129557 -0.420827,-0.377803 -0.69623,-0.551657 -0.622513,-0.392975 -2.113965,-1.745785 -2.113965,-1.917455 0,-0.251207 0.238885,-0.115365 1.017501,0.578604 0.435388,0.388056 0.837837,0.705556 0.894333,0.705556 0.130628,0 1.326769,1.098078 1.342857,1.232766 0.02495,0.208879 -0.256594,0.178594 -0.444496,-0.04781 z m -5.70219,-1.042976 c -0.140905,-0.155698 -0.190624,-0.283087 -0.110487,-0.283087 0.177553,0 0.529505,0.403347 0.434689,0.498164 -0.03741,0.03741 -0.183297,-0.05938 -0.324202,-0.215077 z"
         id="path3675"
         inkscape:connector-curvature="0" />
      <path
         style="fill:#e0cca5;stroke-width:0.141111"
         d="M 48.558148,-0.19599332 C 47.585139,-0.87666391 38.303294,-8.153003 37.304537,-9.0180621 c -0.893148,-0.773588 -1.025455,-1.0542609 -0.704122,-1.4937089 0.161616,-0.221024 0.235023,-0.184902 0.805491,0.396363 0.345218,0.3517515 0.693824,0.6398524 0.774678,0.6402235 0.08085,4.234e-4 0.388667,0.2226212 0.684028,0.4938889 0.519035,0.4766973 1.367981,0.6952065 1.367981,0.3521033 0,-0.2239264 0.338445,-0.164101 0.598718,0.1058333 0.515557,0.5346954 0.772123,0.7408333 0.922062,0.7408333 0.0861,0 0.239525,0.1169233 0.34094,0.2598279 0.101415,0.142906 0.327266,0.3356398 0.501891,0.4282976 0.174625,0.092659 0.3175,0.2541834 0.3175,0.3589429 0,0.1047609 0.149258,0.2882702 0.331684,0.4078012 0.182427,0.119531 0.432015,0.4284585 0.55464,0.6865069 0.122626,0.2580485 0.408044,0.646272 0.634263,0.8627195 0.36532,0.3495407 0.431702,0.368966 0.593723,0.173743 0.150908,-0.1818329 0.142492,-0.2639172 -0.04872,-0.4752086 -0.127128,-0.1404746 -0.231142,-0.3241392 -0.231142,-0.4081427 0,-0.084003 -0.206375,-0.3180856 -0.458611,-0.5201821 -0.252236,-0.2020965 -0.537986,-0.4324956 -0.635,-0.5119962 -0.09701,-0.079501 -0.176389,-0.3227028 -0.176389,-0.5404471 0,-0.4542366 -0.279816,-0.7465172 -0.998739,-1.0432273 C 42.147219,-8.24099 41.894172,-8.4816508 41.739513,-8.8075723 41.610237,-9.08 41.318205,-9.4846869 41.090551,-9.7068776 39.875319,-10.892945 39.534999,-11.20377 39.101188,-11.523826 c -0.553702,-0.408508 -0.70304,-0.435591 -0.70304,-0.127496 0,0.122885 -0.07937,0.197039 -0.176389,0.164786 -0.104726,-0.03482 -0.184691,-0.336885 -0.196824,-0.743513 -0.01678,-0.562452 -0.08615,-0.732743 -0.388055,-0.952667 -0.202191,-0.147287 -0.367621,-0.392281 -0.367621,-0.544431 0,-0.185187 -0.08163,-0.262932 -0.246944,-0.235176 -0.204879,0.0344 -0.25421,-0.08473 -0.289597,-0.699369 -0.02346,-0.407458 -0.0076,-0.740833 0.03528,-0.740833 0.111661,0 0.479731,0.389425 1.20413,1.273992 0.347771,0.424665 1.046271,1.184869 1.552222,1.689341 0.505951,0.504472 1.374386,1.393472 1.929855,1.975555 1.391605,1.458282 3.358156,3.1657066 3.708787,3.2200922 0.159892,0.0248 0.291515,0.1200503 0.292494,0.2116667 0.0019,0.1755676 1.447529,1.5034993 1.646263,1.5122044 0.06371,0.00279 0.300204,0.1558135 0.525532,0.3400496 0.225327,0.1842346 0.482375,0.3070803 0.571217,0.2729879 0.08884,-0.034092 0.312428,0.098637 0.496856,0.2949518 0.405276,0.4313964 0.568351,0.4518321 0.568351,0.071222 0,-0.1736852 -0.136115,-0.3374658 -0.347143,-0.4176987 -0.190927,-0.07259 -0.463388,-0.2456434 -0.605465,-0.3845631 -0.142079,-0.1389182 -0.855561,-0.7288289 -1.585518,-1.3109123 -0.729955,-0.5820833 -1.865713,-1.5822082 -2.523906,-2.2224999 -0.658193,-0.6402916 -1.252061,-1.1641666 -1.319708,-1.1641666 -0.06765,0 -0.203207,-0.19077 -0.301244,-0.423931 -0.09804,-0.233162 -0.384691,-0.576238 -0.637008,-0.762392 -0.252317,-0.186154 -0.643891,-0.630386 -0.870164,-0.987181 -0.226273,-0.356795 -0.470928,-0.648718 -0.543677,-0.648718 -0.253851,0 -1.84193,-1.593491 -2.653271,-2.662311 -0.449708,-0.592423 -0.913107,-1.151317 -1.029774,-1.241985 -0.116667,-0.09067 -0.15952,-0.217454 -0.09523,-0.281744 0.06429,-0.06429 0.341584,0.136892 0.616207,0.447074 0.274623,0.31018 0.825172,0.932637 1.223441,1.383234 0.398269,0.450599 1.410499,1.530099 2.249399,2.398889 0.8389,0.868791 1.56915,1.625258 1.622778,1.681038 0.05363,0.05578 0.827755,0.734603 1.720282,1.5084995 0.892528,0.7738942 1.826606,1.6045306 2.075729,1.8458574 0.518506,0.5022822 1.805541,1.4125589 1.997208,1.4125589 0.07075,0 0.276517,0.1857558 0.457268,0.4127909 0.18075,0.227035 0.378398,0.3820385 0.439216,0.3444508 0.06082,-0.037588 0.110579,-1.2778881 0.110579,-2.7562231 0,-2.2091714 -0.0342,-2.6747554 -0.192041,-2.6141864 -0.350014,0.134312 -3.053514,-2.898182 -3.053514,-3.425104 0,-0.05923 -0.142875,-0.260522 -0.3175,-0.447321 -1.199887,-1.283527 -1.211023,-1.320736 -0.176402,-0.589397 0.719189,0.508371 1.179613,0.98059 1.693334,1.73671 0.388062,0.571169 1.007193,1.360367 1.375846,1.753772 l 0.670277,0.715282 v -0.587734 c 0,-0.323255 0.03826,-0.687439 0.08502,-0.809298 0.04676,-0.121861 2.212355,-1.889179 4.81243,-3.927375 6.400616,-5.017437 7.806415,-6.077314 7.915774,-5.967954 0.05123,0.05123 0.0987,2.740166 0.105498,5.975419 0.0068,3.235253 0.06153,6.105649 0.121625,6.378658 l 0.109268,0.49638 -4.962794,3.9486203 c -6.358525,5.05912527 -7.604673,5.99614817 -7.964039,5.98843927 -0.161338,-0.003457 -0.57909,-0.20618873 -0.92834,-0.45050849 z m 0.516788,-2.40069928 c -0.03914,-0.097014 -0.07118,-0.017639 -0.07118,0.1763889 0,0.1940278 0.03203,0.2734028 0.07118,0.1763889 0.03915,-0.097014 0.03915,-0.2557639 0,-0.3527778 z m -2.564715,-1.2085728 c 0.07661,-0.1696043 0.219487,-0.3083716 0.3175,-0.3083716 0.244602,0 0.225168,-0.2730584 -0.0263,-0.3695558 -0.295662,-0.1134562 -0.986561,0.568428 -0.873767,0.8623638 0.116143,0.302665 0.403655,0.2116413 0.582569,-0.1844364 z m -1.197629,-0.1672605 c 0,-0.077611 -0.028,-0.1411111 -0.06223,-0.1411111 -0.03422,0 -0.101473,0.0635 -0.149439,0.1411111 -0.04797,0.077611 -0.01996,0.1411112 0.06223,0.1411112 0.08219,0 0.149439,-0.0635 0.149439,-0.1411112 z m 0.846667,-1.053369 c 0,-0.1136861 -0.127,-0.2746699 -0.282222,-0.357742 -0.216723,-0.1159863 -0.282222,-0.1073136 -0.282222,0.037369 0,0.2074094 0.273862,0.5270754 0.451555,0.5270754 0.06209,0 0.112889,-0.093016 0.112889,-0.2067024 z m 1.758086,-3.3304633 c -0.151873,-0.2457366 0.0211,-0.2977783 0.214639,-0.064578 0.111301,0.1341106 0.122007,0.2150773 0.02844,0.2150773 -0.08253,0 -0.191916,-0.067725 -0.243075,-0.1504992 z m -8.178641,-0.5550563 c -0.04797,-0.077611 0.01553,-0.1411111 0.141111,-0.1411111 0.125577,0 0.189077,0.0635 0.141111,0.1411111 -0.04797,0.077611 -0.111466,0.1411111 -0.141111,0.1411111 -0.02965,0 -0.09314,-0.0635 -0.141111,-0.1411111 z M 47.1,-8.864378 c -0.05174,-0.05174 -0.09407,-0.186515 -0.09407,-0.2994998 0,-0.1666014 0.04,-0.1722261 0.211666,-0.029759 0.116417,0.096617 0.211667,0.2313926 0.211667,0.2994999 0,0.1461234 -0.195248,0.1637707 -0.329259,0.029759 z m -8.560741,-0.8775728 c 0,-0.4129302 -0.308912,-0.9120672 -0.868604,-1.4034842 -0.407575,-0.357855 -0.528116,-0.405906 -0.593145,-0.236443 -0.153831,0.400877 -0.372696,0.212759 -0.368207,-0.316481 0.0043,-0.502841 0.0151,-0.515126 0.217741,-0.246944 0.117289,0.155222 0.226395,0.261884 0.242456,0.237024 0.04575,-0.0708 0.710745,0.227473 0.955171,0.428429 0.121226,0.09967 0.270461,0.308213 0.331633,0.463436 0.108021,0.274099 0.114746,0.273083 0.233653,-0.03528 0.116173,-0.301275 0.408824,-0.416497 0.592172,-0.233148 0.142426,0.142425 -0.05488,0.480092 -0.280536,0.480092 -0.147958,0 -0.186449,0.08621 -0.126014,0.282222 0.04786,0.155223 0.12617,0.4092226 0.174027,0.5644448 0.06806,0.2207387 0.02194,0.2822222 -0.211667,0.2822222 -0.198571,0 -0.29868,-0.089186 -0.29868,-0.2660918 z m 7.825864,-0.025519 c -0.151874,-0.2457362 0.0211,-0.2977782 0.214639,-0.064578 0.111301,0.1341106 0.122007,0.2150773 0.02844,0.2150773 -0.08253,0 -0.191916,-0.067725 -0.243075,-0.1504992 z m -2.064085,-1.9294362 c -0.336173,-0.290241 -0.902779,-0.819333 -1.259124,-1.17576 -0.356345,-0.356425 -0.757245,-0.690007 -0.890888,-0.74129 -0.133643,-0.05128 -0.203466,-0.157191 -0.155161,-0.235351 0.133809,-0.216507 0.494505,-0.169391 0.494505,0.06459 0,0.113686 0.142875,0.280549 0.3175,0.370806 0.256663,0.13266 2.2162,2.081877 2.221135,2.209436 0.0041,0.105653 -0.177522,-0.0172 -0.727967,-0.492435 z m -0.293723,-1.999591 c -1.427427,-1.420421 -1.917479,-2.035843 -1.199445,-1.506299 0.174625,0.128783 0.490796,0.342904 0.702602,0.475822 0.211806,0.132918 0.459672,0.421214 0.550814,0.640656 0.09114,0.219443 0.31079,0.494045 0.488107,0.610228 0.334592,0.219233 1.111333,1.161592 1.024394,1.242817 -0.02724,0.02545 -0.732153,-0.633001 -1.566472,-1.463224 z m -7.3025,0.769828 v -0.487474 l 0.352778,0.352778 c 0.194027,0.194028 0.352777,0.413392 0.352777,0.487475 0,0.07408 -0.15875,0.134698 -0.352777,0.134698 -0.308217,0 -0.352778,-0.06157 -0.352778,-0.487477 z m 4.49591,-3.458939 c -0.25315,-0.210897 -0.279094,-0.278655 -0.108059,-0.282223 0.123791,-0.0026 0.340008,0.122306 0.480482,0.277528 0.328789,0.363307 0.06208,0.36667 -0.372423,0.0047 z m 10.011414,-1.698906 c -0.907445,-0.698017 -1.769655,-1.269122 -1.916022,-1.269122 -0.146369,0 -0.986455,0.53975 -1.866858,1.199444 -0.880404,0.659694 -1.653945,1.199444 -1.718982,1.199444 -0.06504,0 -0.577997,-0.368944 -1.139911,-0.819875 -0.561914,-0.450933 -2.246518,-1.792865 -3.743563,-2.982075 -1.497045,-1.18921 -2.703545,-2.210133 -2.681111,-2.268717 0.04729,-0.123488 1.242776,-1.090692 4.979678,-4.028787 2.874874,-2.260335 3.248146,-2.543978 4.445,-3.377669 0.426861,-0.297338 0.939899,-0.660804 1.140085,-0.807702 0.463619,-0.340205 1.085567,-0.211379 1.265603,0.26215 0.07003,0.184193 0.230221,0.334897 0.355981,0.334897 0.419749,0 2.236958,1.461874 2.529997,2.035285 0.13,0.25438 0.460819,0.544446 2.184986,1.915826 0.341517,0.271639 0.747588,0.637229 0.902379,0.812422 0.490143,0.554748 0.926805,0.780579 1.150439,0.59498 0.221783,-0.184064 0.377266,-0.09167 2.21803,1.318092 1.044357,0.799826 1.348412,1.225617 0.875206,1.225617 -0.120122,0 -0.358247,0.149091 -0.529167,0.331313 -0.289218,0.308346 -0.823246,0.656466 -1.007041,0.656466 -0.04391,0 -0.07983,-0.124767 -0.07983,-0.277257 0,-0.306296 -0.386943,-0.56941 -0.83739,-0.56941 -0.42,0 -0.358903,0.164449 0.203354,0.547356 0.550577,0.374952 0.636743,0.711457 0.210703,0.822868 -0.155222,0.04059 -0.282222,0.129897 -0.282222,0.198456 0,0.275132 -0.253568,0.09289 -0.700263,-0.503282 -0.522538,-0.697398 -0.798539,-0.862067 -1.068871,-0.637712 -0.256956,0.213255 -1.107526,-0.564521 -1.526492,-1.395852 -0.272956,-0.541611 -0.390336,-0.648261 -0.679982,-0.617815 -0.259248,0.02725 -0.50684,-0.130459 -0.954289,-0.607853 -0.661217,-0.705466 -0.954593,-0.74017 -0.446403,-0.0528 l 0.318653,0.431001 -0.399564,-0.206623 c -0.514007,-0.265803 -0.832824,-0.636208 -0.941008,-1.09327 -0.04829,-0.204023 -0.25808,-0.448342 -0.477564,-0.556173 -0.378296,-0.185852 -0.380778,-0.194102 -0.07394,-0.245673 0.370147,-0.06221 0.411024,-0.343386 0.09575,-0.658655 -0.327607,-0.327607 -0.525892,-0.269776 -0.449273,0.131031 0.07768,0.406355 -0.111686,0.454403 -0.47939,0.121636 -0.536893,-0.485882 -0.613853,-0.118981 -0.607776,2.897563 0.0054,2.700243 0.02009,2.849609 0.316111,3.222259 0.170725,0.214921 0.53989,0.72479 0.820366,1.133043 0.492508,0.716879 2.099865,2.29161 2.339088,2.29161 0.06439,0 0.117064,0.127 0.117064,0.282222 0,0.155223 -0.04763,0.281827 -0.105833,0.281345 -0.05821,-4.23e-4 -0.848288,-0.571983 -1.755731,-1.27 z m 5.906326,-5.158979 c 0.11308,-0.29468 -0.674001,-1.106501 -1.575318,-1.624833 -0.502307,-0.288869 -0.785188,-0.573271 -0.981992,-0.98727 -0.285561,-0.600709 -1.545065,-1.794837 -2.561427,-2.428476 -0.322132,-0.200828 -0.748339,-0.648747 -0.95845,-1.007272 -0.208097,-0.355094 -0.4687,-0.645625 -0.579114,-0.645625 -0.110414,0 -0.268722,-0.127 -0.351794,-0.282222 -0.08307,-0.155223 -0.25333,-0.282223 -0.378349,-0.282223 -0.169289,0 -0.132005,0.08832 0.146077,0.34604 0.205361,0.190322 0.373383,0.445155 0.373383,0.566296 0,0.224786 0.553721,0.793375 2.478343,2.544886 0.596972,0.543278 1.759935,1.664332 2.584364,2.49123 0.824427,0.826899 1.548577,1.509524 1.609221,1.516945 0.06065,0.0074 0.148419,-0.08594 0.195056,-0.207476 z m -17.178775,5.347577 -0.342097,-0.376725 0.383621,0.270891 c 0.210991,0.148991 0.385616,0.318516 0.388055,0.376725 0.0073,0.173774 -0.07009,0.124982 -0.429579,-0.270891 z m -1.279433,-1.14022 c -0.112732,-0.13582 -0.39037,-0.524266 -0.616974,-0.863215 -0.226604,-0.338948 -0.620461,-0.824723 -0.875238,-1.0795 -0.430089,-0.430088 -0.614751,-0.914785 -0.34852,-0.914785 0.179329,0 0.774425,0.699124 1.345993,1.581283 0.286927,0.442845 0.583307,0.843257 0.658622,0.889804 0.07531,0.04655 0.203011,0.208093 0.28377,0.358993 0.192811,0.360271 -0.153765,0.381498 -0.447653,0.02742 z m 15.048446,-1.164167 c -0.04797,-0.07761 -0.01996,-0.141111 0.06223,-0.141111 0.08219,0 0.14944,0.0635 0.14944,0.141111 0,0.07761 -0.028,0.141111 -0.06223,0.141111 -0.03422,0 -0.101473,-0.0635 -0.14944,-0.141111 z m 1.552222,-0.423333 c -0.04797,-0.07761 -0.02371,-0.141111 0.0539,-0.141111 0.07761,0 0.180356,0.0635 0.228322,0.141111 0.04797,0.07761 0.02371,0.141111 -0.0539,0.141111 -0.07761,0 -0.180355,-0.0635 -0.228322,-0.141111 z"
         id="path3673"
         inkscape:connector-curvature="0" />
      <path
         style="fill:#dcc9a5;stroke-width:0.141111"
         d="M 48.558148,-0.19599332 C 47.585139,-0.87666391 38.303294,-8.153003 37.304537,-9.0180621 c -0.911026,-0.7890735 -1.029139,-1.0559149 -0.674765,-1.5244369 0.203692,-0.269307 0.207254,-0.269002 0.211666,0.01809 0.003,0.193442 0.343567,0.5506802 1.009026,1.0583331 1.628367,1.2422208 1.857053,1.39365 1.985136,1.3144894 0.06697,-0.041389 0.104315,-0.016384 0.08299,0.055565 -0.03883,0.1310047 1.105709,1.1643049 1.279855,1.1554643 0.05086,-0.00258 -0.03452,-0.1161063 -0.18974,-0.2522771 -0.564198,-0.4949472 -0.833477,-0.87202 -0.621593,-0.8704198 0.244605,0.00185 1.415788,1.0359799 3.274031,2.8909093 1.567737,1.5649434 2.947022,2.6109266 3.442895,2.6109266 0.215659,0 0.325223,0.083192 0.325226,0.2469444 3e-6,0.1358195 0.222253,0.424276 0.493889,0.6410156 0.271636,0.2167396 0.493885,0.3266553 0.493885,0.2442562 0,-0.08934 0.142403,-0.1140742 0.352777,-0.061273 0.350158,0.087884 0.352778,0.081477 0.352778,-0.8624415 v -0.950983 l -0.458666,0.074431 c -0.398403,0.064651 -0.505011,0.011402 -0.811389,-0.4053191 -0.402103,-0.5469128 -2.208209,-2.1721853 -2.413872,-2.1721853 -0.07488,0 -0.635091,-0.492125 -1.244907,-1.0936111 -3.277318,-3.232548 -4.390135,-4.26895 -5.12366,-4.77183 -0.451899,-0.309806 -0.810456,-0.662163 -0.811389,-0.797356 -9.18e-4,-0.133231 -0.223922,-0.46449 -0.495561,-0.736128 -0.271639,-0.271639 -0.493889,-0.56229 -0.493889,-0.64589 0,-0.0836 -0.111125,-0.133343 -0.246944,-0.110538 -0.206177,0.03462 -0.254103,-0.08666 -0.290306,-0.734647 -0.02593,-0.46413 0.0074,-0.719387 0.08286,-0.635 0.06942,0.07761 0.591745,0.712611 1.160723,1.411111 0.907773,1.11442 5.162747,5.456417 6.711574,6.8488407 1.629674,1.4651072 4.370802,3.3303322 4.479181,3.0478997 0.03402,-0.088664 0.07282,-2.0208874 0.08622,-4.2938275 0.01339,-2.2729399 0.05964,-4.2245689 0.10277,-4.3369539 0.04313,-0.112384 2.205746,-1.871951 4.805821,-3.910147 6.400616,-5.017437 7.806415,-6.077314 7.915774,-5.967954 0.05123,0.05123 0.0987,2.740166 0.105498,5.975419 0.0068,3.235253 0.06153,6.105649 0.121625,6.378658 l 0.109268,0.4963799 -4.962794,3.9486203 c -6.358525,5.05912527 -7.604673,5.99614817 -7.964039,5.98843927 -0.161338,-0.003457 -0.57909,-0.20618873 -0.92834,-0.45050849 z m 0.423333,-0.65699073 c 0,-0.0693081 -0.104232,-0.16601155 -0.231625,-0.21489665 -0.193673,-0.074319 -0.202402,-0.05367 -0.05328,0.12601358 0.203218,0.24486164 0.284903,0.2703463 0.284903,0.0888831 z M 48.20537,-5.8069702 c -0.04797,-0.077611 -0.02371,-0.1411111 0.0539,-0.1411111 0.07761,0 0.180356,0.0635 0.228322,0.1411111 0.04797,0.077611 0.02371,0.1411111 -0.0539,0.1411111 -0.07761,0 -0.180356,-0.0635 -0.228322,-0.1411111 z M 36.704815,-11.663081 c 0,-0.30443 0.05697,-0.475336 0.141111,-0.423333 0.07761,0.04797 0.141111,0.238466 0.141111,0.423333 0,0.184867 -0.0635,0.375367 -0.141111,0.423333 -0.08414,0.052 -0.141111,-0.118903 -0.141111,-0.423333 z m 10.947978,-0.866625 c -0.07432,-0.193673 -0.05367,-0.202402 0.126014,-0.05328 0.244861,0.203218 0.270346,0.284903 0.08888,0.284903 -0.06931,0 -0.166012,-0.104232 -0.214897,-0.231625 z m -10.947978,-0.409615 c 0,-0.572722 0.01793,-0.580607 0.260143,-0.114411 0.12339,0.237492 0.11231,0.339987 -0.05144,0.47589 -0.177949,0.147685 -0.208701,0.09442 -0.208701,-0.361479 z m 9.747807,-1.41663 c 0.0068,-0.164387 0.04021,-0.197824 0.08525,-0.08526 0.04076,0.101864 0.03575,0.223572 -0.01113,0.270463 -0.04689,0.04689 -0.08024,-0.03645 -0.07411,-0.185208 z M 36.798889,-16.7666 c -0.134859,-0.134858 -0.116002,-0.329259 0.03194,-0.329259 0.06931,0 0.162564,0.09525 0.207238,0.211667 0.08254,0.215093 -0.06778,0.288994 -0.239178,0.117592 z m 14.41325,-1.317914 c -0.907445,-0.698017 -1.769655,-1.269122 -1.916022,-1.269122 -0.146369,0 -0.986455,0.53975 -1.866858,1.199444 -0.880404,0.659694 -1.653945,1.199444 -1.718982,1.199444 -0.06504,0 -0.577997,-0.368943 -1.139911,-0.819875 -0.561914,-0.450932 -2.246518,-1.792865 -3.743563,-2.982075 -1.497045,-1.18921 -2.703545,-2.210133 -2.681111,-2.268717 0.06925,-0.180837 6.955489,-5.639262 8.545887,-6.773956 0.486804,-0.347318 1.212647,-0.869612 1.612985,-1.160654 1.101406,-0.80071 1.248778,-0.722112 1.134062,0.60483 l -0.06754,0.781219 0.80016,0.617319 c 0.440088,0.339526 0.861111,0.731208 0.935607,0.870404 0.0745,0.139197 0.631283,0.684605 1.237306,1.212018 1.345429,1.17091 1.385455,1.20842 3.015367,2.825761 0.72188,0.716312 1.393532,1.303687 1.492561,1.305278 0.275586,0.0044 1.583835,1.026099 1.583835,1.236887 0,0.102286 -0.111125,0.226975 -0.246944,0.277086 -0.13582,0.05011 -0.293695,0.159244 -0.350834,0.242516 -0.113001,0.164683 -0.665416,-0.416738 -1.033108,-1.087354 -0.177076,-0.322961 -0.299263,-0.386415 -0.693015,-0.359897 -0.511859,0.03447 -0.848899,-0.247399 -1.294323,-1.082456 -0.324374,-0.608118 -0.624652,-0.917222 -0.891033,-0.917222 -0.127702,0 -0.588411,-0.3175 -1.0238,-0.705556 -0.435388,-0.388055 -0.84531,-0.705555 -0.910938,-0.705555 -0.06563,0 -0.261544,-0.310012 -0.435369,-0.688915 -0.370821,-0.808315 -0.930529,-1.256713 -1.243968,-0.996581 -0.204987,0.170125 -0.252011,0.103153 -0.213262,-0.303735 0.02142,-0.224918 -0.363178,-0.646922 -0.481628,-0.528472 -0.110579,0.110578 -0.178847,5.881174 -0.08078,6.828597 0.07426,0.717478 0.16176,0.962355 0.404656,1.132486 0.170448,0.119387 0.309907,0.30123 0.309907,0.404097 0,0.217647 1.691885,1.920298 2.362647,2.377682 0.404595,0.275887 0.638151,0.807433 0.353742,0.805074 -0.05821,-4.23e-4 -0.848288,-0.571983 -1.755731,-1.27 z M 37.128148,-21.33752 c 0,-0.08219 -0.06395,-0.109916 -0.142108,-0.06161 -0.07816,0.0483 -0.181254,-0.01419 -0.229099,-0.138869 -0.143944,-0.375112 0.02054,-0.37613 0.37173,-0.0023 0.181992,0.193722 0.256326,0.352221 0.165186,0.352221 -0.09114,0 -0.165709,-0.06725 -0.165709,-0.149439 z m 21.539125,-1.061112 c -0.222009,-0.195231 -0.579898,-0.390214 -0.79531,-0.433297 -0.230062,-0.04601 -0.456297,-0.220197 -0.548319,-0.422167 -0.247767,-0.54379 -1.440764,-1.745648 -1.939715,-1.954123 -0.307128,-0.128326 -0.668443,-0.514741 -1.114742,-1.192181 -0.363181,-0.551273 -0.780739,-1.066756 -0.927906,-1.145518 -0.147168,-0.07876 -0.267578,-0.208432 -0.267578,-0.288157 0,-0.339593 1.519037,0.679255 2.822222,1.892922 0.85646,0.797628 0.963102,0.856997 1.19447,0.664978 0.233143,-0.193491 0.366132,-0.115263 2.227475,1.310255 1.030815,0.789455 1.348526,1.225617 0.892771,1.225617 -0.110463,0 -0.389504,0.15875 -0.620093,0.352778 -0.230589,0.194028 -0.441835,0.350771 -0.469438,0.348318 -0.0276,-0.0025 -0.231829,-0.164193 -0.453837,-0.359425 z m -7.23221,-6.625519 c -0.128719,-0.19645 -0.197338,-0.393877 -0.152487,-0.438727 0.103465,-0.103466 0.944461,0.488154 0.944461,0.664406 0,0.277002 -0.568807,0.114916 -0.791974,-0.225679 z"
         id="path3671"
         inkscape:connector-curvature="0" />
      <path
         style="fill:#dac49e;stroke-width:0.141111"
         d="M 48.558148,-0.19599332 C 47.585139,-0.87666391 38.303294,-8.153003 37.304537,-9.0180621 36.795514,-9.4589454 36.422593,-9.896236 36.422593,-10.052236 c 0,-0.148659 0.0337,-0.27029 0.07488,-0.27029 0.04118,0 0.692059,0.4761671 1.446389,1.0581474 2.799223,2.1596589 4.505734,3.4861344 5.585883,4.3419182 2.408257,1.9080225 3.237552,2.5021567 3.492514,2.5021567 0.146239,0 0.26669,0.079375 0.26767,0.1763889 0.0016,0.1615666 1.210983,1.30201664 1.678502,1.58287148 0.153303,0.0920933 0.180471,0.0499237 0.119081,-0.18483156 -0.04374,-0.16728152 -0.022,-0.33970802 0.04833,-0.38317172 0.152178,-0.094051 0.168839,-1.757471 0.01987,-1.9836905 -0.05702,-0.086587 -0.365717,-0.2902571 -0.685992,-0.4525998 -0.58491,-0.2964814 -0.918724,-0.7305223 -0.561833,-0.7305223 0.103151,0 0.416851,0.1556103 0.697112,0.3457999 0.28026,0.1901909 0.546414,0.2861761 0.591453,0.2133021 0.0696,-0.1126208 0.208364,-5.5441354 0.208364,-8.1559768 v -0.822646 l 2.998611,-2.324937 c 1.649236,-1.278715 4.014611,-3.119041 5.256389,-4.089614 1.241778,-0.970574 2.734028,-2.122721 3.316111,-2.560329 l 1.058333,-0.795649 0.08343,6.025858 c 0.04588,3.314223 0.130392,6.2181 0.187795,6.453061 0.103354,0.4230472 0.0561,0.4656077 -4.856689,4.3744446 -6.35671,5.05768448 -7.602955,5.99476806 -7.962303,5.98706057 -0.161338,-0.003457 -0.57909,-0.20618873 -0.92834,-0.45050849 z M 46.953643,-4.8930133 c -0.06729,-0.1753532 -0.03109,-0.1874309 0.19657,-0.065591 0.327104,0.1750624 0.35811,0.2805232 0.08248,0.2805232 -0.108114,0 -0.233684,-0.096719 -0.279047,-0.2149319 z m -4.039939,-3.4622852 c 0,-0.082192 0.0635,-0.1101937 0.141111,-0.062227 0.07761,0.047967 0.141111,0.1152144 0.141111,0.1494395 0,0.034225 -0.0635,0.062227 -0.141111,0.062227 -0.07761,0 -0.141111,-0.067248 -0.141111,-0.1494395 z m -6.067778,-6.4122265 c 0,-0.116417 0.02496,-0.211667 0.05546,-0.211667 0.0305,0 0.09201,0.09525 0.136683,0.211667 0.04467,0.116416 0.01972,0.211666 -0.05546,0.211666 -0.07518,0 -0.136682,-0.09525 -0.136683,-0.211666 z m 14.366213,-3.316989 c -0.907445,-0.698017 -1.769655,-1.269122 -1.916022,-1.269122 -0.146369,0 -0.986455,0.53975 -1.866858,1.199444 -0.880404,0.659694 -1.623452,1.199444 -1.651219,1.199444 -0.05283,0 -3.410372,-2.608967 -5.996322,-4.659425 -0.830064,-0.658177 -1.512689,-1.269912 -1.516944,-1.359411 -0.0077,-0.162523 0.855945,-0.880709 4.578374,-3.807145 3.837694,-3.017053 6.065463,-4.555555 6.282388,-4.33863 0.07347,0.07347 0.05978,0.385218 -0.03298,0.750641 -0.157063,0.618774 -0.153847,0.628549 0.323752,0.984342 0.265316,0.197649 1.027694,0.900297 1.694176,1.56144 1.020853,1.012676 1.987038,1.927888 4.874782,4.617608 0.183694,0.171097 0.333989,0.377472 0.333989,0.458611 0,0.297666 -0.431688,0.135285 -0.810301,-0.304798 -1.033866,-1.201718 -1.645147,-1.805454 -1.828011,-1.805454 -0.203792,0 -1.736133,-1.369179 -1.736133,-1.55127 0,-0.175963 -1.174209,-1.412064 -1.341361,-1.412064 -0.08892,0 -0.310803,-0.15875 -0.493083,-0.352777 -0.18228,-0.194028 -0.415599,-0.352778 -0.518486,-0.352778 -0.211011,0 -0.214239,0.07506 -0.196307,4.562455 0.01167,2.91878 0.08083,3.402701 0.523726,3.664279 0.105087,0.06206 0.191067,0.208838 0.191067,0.326163 0,0.244804 1.474619,1.712282 2.363611,2.352163 0.530047,0.38152 0.79175,0.808755 0.493889,0.806284 -0.05821,-4.23e-4 -0.848288,-0.571983 -1.755731,-1.27 z m 5.86137,-3.885764 c -0.04596,-0.119764 -0.0455,-0.255812 9.87e-4,-0.30233 0.122014,-0.122013 0.526472,0.245814 0.434294,0.394961 -0.120437,0.194871 -0.343175,0.147474 -0.435312,-0.09263 z m 1.14067,-0.971612 c -0.149434,-0.109269 -0.222662,-0.247709 -0.162728,-0.307643 0.05993,-0.05993 0.214805,-0.0031 0.344157,0.126214 0.305001,0.305002 0.170927,0.439077 -0.181429,0.181429 z m 1.773968,-0.08064 c 0,-0.07761 0.0635,-0.141111 0.141111,-0.141111 0.07761,0 0.141112,0.0635 0.141112,0.141111 0,0.07761 -0.0635,0.141111 -0.141112,0.141111 -0.07761,0 -0.141111,-0.0635 -0.141111,-0.141111 z m -2.469444,-0.533572 c -0.07761,-0.05825 -0.327616,-0.311282 -0.555567,-0.562284 -0.277968,-0.306075 -0.346412,-0.456366 -0.207837,-0.456366 0.244622,0 1.116182,0.765086 1.116182,0.979823 0,0.173328 -0.151387,0.18999 -0.352778,0.03883 z m -2.520474,-2.218095 c -0.04467,-0.116416 -0.02749,-0.211666 0.03818,-0.211666 0.06567,0 0.198454,0.09525 0.295072,0.211666 0.143006,0.172312 0.135907,0.211667 -0.03818,0.211667 -0.117616,0 -0.250397,-0.09525 -0.295072,-0.211667 z"
         id="path3669"
         inkscape:connector-curvature="0" />
      <path
         style="fill:#cabca3;stroke-width:0.141111"
         d="M 48.558148,-0.19599332 C 47.585139,-0.87666391 38.303294,-8.153003 37.304537,-9.0180621 36.795514,-9.4589454 36.422593,-9.896236 36.422593,-10.052236 c 0,-0.285369 0.207373,-0.364447 0.350102,-0.133508 0.04649,0.07523 2.129867,1.7376805 4.629716,3.6943341 2.49985,1.9566551 5.241824,4.1176023 6.093276,4.8021069 0.85145,0.684506 1.597575,1.24455479 1.658055,1.24455479 0.166897,0 0.185161,-0.63022199 0.22526,-7.77281599 l 0.02581,-4.5978158 2.998611,-2.324937 c 1.649236,-1.278715 4.014611,-3.119041 5.256389,-4.089614 1.241778,-0.970574 2.734028,-2.122721 3.316111,-2.560329 l 1.058333,-0.795649 0.08343,6.025858 c 0.04588,3.314223 0.130392,6.2181 0.187795,6.453061 0.103354,0.4230472 0.0561,0.4656077 -4.856689,4.3744446 -6.35671,5.05768448 -7.602955,5.99476806 -7.962303,5.98706057 -0.161338,-0.003457 -0.57909,-0.20618873 -0.928341,-0.45050849 z M 51.212139,-18.084514 c -0.907445,-0.698017 -1.769655,-1.269122 -1.916022,-1.269122 -0.146369,0 -0.986455,0.53975 -1.866858,1.199444 -0.880404,0.659694 -1.623452,1.199444 -1.651219,1.199444 -0.05283,0 -3.410372,-2.608967 -5.996322,-4.659425 -0.830064,-0.658177 -1.512689,-1.269912 -1.516944,-1.359411 -0.0077,-0.162523 0.855945,-0.880709 4.578374,-3.807145 4.123282,-3.241572 5.215139,-3.979534 5.562397,-3.759499 0.129101,0.0818 0.236783,0.372555 0.255483,0.68983 0.05463,0.92694 0.07819,1.003629 0.303286,0.987441 0.190223,-0.01368 0.223175,0.434054 0.258481,3.512099 0.02226,1.940277 0.0778,3.928687 0.123434,4.418688 l 0.08297,0.890911 1.786975,1.422843 c 1.593604,1.268876 2.118848,1.806598 1.762043,1.803902 -0.0639,-4.23e-4 -0.858634,-0.571983 -1.766078,-1.27 z"
         id="path3667"
         inkscape:connector-curvature="0" />
      <path
         style="fill:#b4b1ad;stroke-width:0.141111"
         d="M 48.558148,-0.19599332 C 47.585139,-0.87666391 38.303294,-8.153003 37.304537,-9.0180621 c -0.823826,-0.7135452 -1.052888,-1.0222409 -0.758535,-1.0222409 0.137891,0 1.47116,1.0117493 5.578627,4.2333328 1.533769,1.2029722 3.44396,2.6952221 4.244867,3.316111 0.800909,0.6208888 1.752911,1.3786879 2.115562,1.68399872 0.533287,0.44896615 0.683848,0.51642149 0.7874,0.35277777 0.07042,-0.11128304 0.137184,-1.75808209 0.148367,-3.65955429 0.03493,-5.939749 0.103646,-8.643311 0.222306,-8.746641 0.318124,-0.277025 11.067418,-8.625027 11.600911,-9.009375 0.341491,-0.246024 0.658991,-0.447309 0.705555,-0.447299 0.04656,10e-6 0.07859,1.857385 0.07118,4.127501 -0.01916,5.866584 -0.03774,6.484418 -0.192176,6.388973 -0.07431,-0.04592 -0.23614,0.111887 -0.359629,0.350691 -0.123491,0.238802 -0.401897,0.542503 -0.618683,0.67489 -0.216787,0.132388 -0.666869,0.558205 -1.000182,0.9462603 -0.333314,0.3880555 -0.69261,0.7563357 -0.798437,0.8184006 -0.191246,0.1121608 -0.276969,0.8043771 -0.09961,0.8043771 0.182336,0 1.542298,-1.1233291 2.229961,-1.841947 0.684925,-0.715757 1.135391,-0.747536 0.479306,-0.03382 l -0.332621,0.3618416 0.352778,-0.188753 c 0.51904,-0.2777126 0.705555,-0.2778516 0.705555,-5.645e-4 0,0.1562199 -1.824019,1.6986631 -4.949651,4.1855699 -6.34479,5.04822441 -7.591668,5.98571015 -7.950897,5.97800407 -0.161338,-0.003457 -0.57909,-0.20618873 -0.92834,-0.45050849 z m 10.16283,-9.35383188 c 0.272679,-0.3285588 0.07811,-0.3904756 -0.213714,-0.06801 -0.140905,0.1556978 -0.190624,0.2830872 -0.110487,0.2830872 0.08014,0 0.226027,-0.096784 0.324201,-0.2150772 z m 1.60865,-1.4429778 c 0.934096,-0.890551 1.248548,-1.310625 0.974143,-1.301352 -0.20084,0.0068 -1.10698,0.75121 -1.541107,1.266074 -0.76805,0.910886 -0.815884,0.987778 -0.614482,0.987778 0.100303,0 0.631953,-0.428625 1.181446,-0.9525 z m -9.19492,-7.164603 c -0.86302,-0.657927 -1.69072,-1.19623 -1.839334,-1.19623 -0.148614,0 -0.944943,0.508 -1.769622,1.128888 -0.824679,0.620889 -1.568726,1.128889 -1.653438,1.128889 -0.08471,0 -0.951901,-0.619125 -1.927085,-1.375833 -0.975185,-0.756708 -2.019382,-1.566333 -2.320439,-1.799167 -2.059829,-1.593042 -3.215367,-2.56266 -3.220582,-2.702404 -0.0079,-0.212066 5.308275,-4.478178 7.515368,-6.0309 0.880989,-0.61979 1.368572,-0.751646 1.368572,-0.370102 0,0.08793 0.144546,0.111949 0.355346,0.05904 0.339874,-0.0853 0.34875,-0.07184 0.20384,0.309303 -0.226284,0.595175 -0.06577,1.044506 0.373128,1.044506 0.347017,0 0.358511,0.0256 0.269226,0.599722 -0.0513,0.329848 -0.122962,0.705504 -0.159255,0.834792 -0.03629,0.129288 9.5e-5,0.27591 0.08086,0.325828 0.08077,0.04992 0.146852,0.271566 0.146852,0.492553 0,0.332321 0.0488,0.389034 0.282222,0.327992 0.220839,-0.05775 0.285857,-0.0012 0.298933,0.260155 0.0092,0.183677 0.0016,0.397458 -0.01686,0.475069 -0.08638,0.363149 -0.05838,3.632788 0.03159,3.68836 0.0561,0.03465 0.167722,0.307078 0.248049,0.605394 0.103515,0.384423 0.340947,0.697969 0.815225,1.07656 0.368044,0.29379 0.764421,0.639399 0.880838,0.768019 0.163483,0.18062 1.321921,1.125047 1.681574,1.370916 0.03234,0.02211 0.02849,0.0705 -0.0086,0.107536 -0.03704,0.03704 -0.773449,-0.470961 -1.636469,-1.128888 z"
         id="path3665"
         inkscape:connector-curvature="0" />
      <path
         style="fill:#c4b495;stroke-width:0.141111"
         d="M 48.134814,-0.84534007 C 47.126075,-1.6248491 38.26663,-8.5603386 37.304541,-9.323665 37.052307,-9.5237888 36.845932,-9.7398143 36.84593,-9.8037222 c -4e-6,-0.1228682 0.603164,0.3338844 5.196656,3.9351965 1.57758,1.2368275 3.524153,2.7567776 4.325716,3.3776665 0.801565,0.6208888 1.754105,1.3786879 2.116756,1.68399872 0.533287,0.44896615 0.683848,0.51642149 0.7874,0.35277777 0.07042,-0.11128304 0.137184,-1.75808209 0.148367,-3.65955429 0.03493,-5.939749 0.103646,-8.643311 0.222306,-8.746641 0.318124,-0.277025 11.067418,-8.625027 11.600911,-9.009375 0.341491,-0.246024 0.658991,-0.447309 0.705555,-0.447299 0.04656,10e-6 0.07859,1.857385 0.07118,4.127501 -0.01916,5.866584 -0.03774,6.484418 -0.192176,6.388973 -0.07431,-0.04592 -0.23614,0.111887 -0.359629,0.350691 -0.123491,0.238802 -0.401897,0.542503 -0.618683,0.67489 -0.216787,0.132388 -0.666869,0.558205 -1.000182,0.9462603 -0.333314,0.3880555 -0.69261,0.7563357 -0.798437,0.8184006 -0.191246,0.1121608 -0.276969,0.8043771 -0.09961,0.8043771 0.182336,0 1.542298,-1.1233291 2.229961,-1.841947 0.690614,-0.721703 1.124573,-0.744199 0.479306,-0.02485 l -0.332621,0.3708102 0.388055,-0.2430384 c 0.558459,-0.3497638 0.51309,0.013321 -0.07055,0.5646518 -0.453444,0.4283329 -9.459783,7.6140815 -10.984211,8.76380259 -0.433914,0.32725641 -0.941914,0.59364172 -1.128889,0.59196532 -0.195012,-0.0017498 -0.791189,-0.35173918 -1.398289,-0.82087858 z M 58.720978,-9.5498252 c 0.272679,-0.3285588 0.07811,-0.3904756 -0.213714,-0.06801 -0.140905,0.1556978 -0.190624,0.2830872 -0.110487,0.2830872 0.08014,0 0.226027,-0.096784 0.324201,-0.2150772 z m 1.60865,-1.4429778 c 0.934096,-0.890551 1.248548,-1.310625 0.974143,-1.301352 -0.20084,0.0068 -1.10698,0.75121 -1.541107,1.266074 -0.76805,0.910886 -0.815884,0.987778 -0.614482,0.987778 0.100303,0 0.631953,-0.428625 1.181446,-0.9525 z m -16.287036,-7.39766 c -0.892527,-0.697516 -1.885504,-1.469453 -2.206615,-1.715415 -1.946681,-1.491101 -3.425267,-2.726763 -3.431096,-2.867385 -0.0088,-0.211833 5.30451,-4.476002 7.514695,-6.0309 0.880989,-0.61979 1.368572,-0.751646 1.368572,-0.370102 0,0.08793 0.144546,0.111949 0.355346,0.05904 0.339874,-0.0853 0.34875,-0.07184 0.20384,0.309303 -0.226284,0.595175 -0.06577,1.044506 0.373128,1.044506 0.347017,0 0.358511,0.0256 0.269226,0.599722 -0.0513,0.329848 -0.122962,0.705504 -0.159255,0.834792 -0.03629,0.129288 9.5e-5,0.27591 0.08086,0.325828 0.08077,0.04992 0.146852,0.271566 0.146852,0.492553 0,0.332321 0.0488,0.389034 0.282222,0.327992 0.220839,-0.05775 0.285857,-0.0012 0.298933,0.260155 0.0092,0.183677 0.0013,0.397458 -0.01754,0.475069 -0.11846,0.488 -0.02428,3.573463 0.117087,3.836001 0.09128,0.169523 0.165967,0.417747 0.165967,0.551609 0,0.133862 0.301625,0.529143 0.670278,0.878403 0.654815,0.620368 0.656789,0.624734 0.08553,0.189224 -0.321614,-0.245186 -0.714454,-0.445793 -0.87298,-0.445793 -0.158526,0 -0.896095,0.475168 -1.639042,1.055928 -2.144681,1.67649 -1.731052,1.654758 -3.606006,0.189468 z"
         id="path3663"
         inkscape:connector-curvature="0" />
      <path
         style="fill:#bcac91;stroke-width:0.141111"
         d="m 49.038562,-0.18432908 c -0.06075,-0.0982952 -0.03888,-0.12471258 0.05515,-0.066603 0.395336,0.24433247 0.452215,-0.5675023 0.452215,-6.45451512 v -5.9970318 l 4.268611,-3.302684 c 2.347736,-1.816475 4.459111,-3.419922 4.691945,-3.563215 0.412511,-0.253871 0.410187,-0.24634 -0.09087,0.294605 -0.488394,0.527271 -1.188446,1.721744 -1.075353,1.834837 0.0291,0.0291 0.382778,-0.169242 0.785955,-0.440757 0.403177,-0.271514 0.733048,-0.453682 0.733048,-0.404815 0,0.04887 -0.28575,0.406672 -0.635,0.795122 -0.349249,0.38845 -0.634999,0.796702 -0.634999,0.907225 0,0.369843 0.582896,0.453675 1.086881,0.156316 0.255937,-0.151006 0.465341,-0.213348 0.465341,-0.138537 0,0.169247 -0.508886,0.82344 -1.023056,1.315175 -0.435028,0.416048 -0.499052,0.761671 -0.164847,0.889917 0.310412,0.119117 0.2773,0.133168 0.830214,-0.352298 l 0.4988,-0.437951 v 0.373809 c 0,0.213185 -0.144835,0.507484 -0.337062,0.684896 -1.678489,1.549134 -2.202938,2.091787 -2.202938,2.279403 0,0.301032 0.314937,0.274231 0.74406,-0.06332 0.197333,-0.155222 0.393578,-0.282222 0.436097,-0.282222 0.178224,0 1.164621,-0.751371 1.563779,-1.191184 0.575353,-0.63395 1.323861,-1.066022 1.842175,-1.063385 0.422118,0.0021 0.42151,0.0033 -0.211667,0.409492 -0.34925,0.224036 -0.815007,0.60383 -1.035017,0.843985 -0.22001,0.240156 -0.451515,0.436648 -0.514456,0.436648 -0.06294,0 -0.325376,0.333375 -0.583187,0.740833 -0.257811,0.407458 -0.639576,0.931333 -0.848367,1.164167 -1.129181,1.2592073 -1.391446,1.4954259 -1.615427,1.4549863 -0.164944,-0.029779 -0.339526,0.1457169 -0.543394,0.5462382 -0.399542,0.7849461 -1.209898,1.6434773 -1.973825,2.0911678 -0.62327,0.3652605 -0.939701,0.7759404 -0.597868,0.7759404 0.100002,0 0.395196,-0.1905 0.655986,-0.4233333 0.848027,-0.757119 0.931734,-0.4511449 0.0976,0.356774 -0.599199,0.5803688 -0.750851,0.8010454 -0.592306,0.861884 0.332231,0.1274897 0.890624,-0.064407 0.980745,-0.337041 0.09343,-0.2826554 1.20729,-1.2484114 1.20729,-1.0467664 0,0.073155 -0.381,0.5284724 -0.846666,1.011816 -0.465667,0.4833436 -0.846667,0.9590503 -0.846667,1.0571254 0,0.098075 -0.09678,0.2586425 -0.215077,0.3568163 -0.118292,0.098174 -0.184397,0.2091775 -0.146899,0.2466749 0.0375,0.037498 1.190082,-0.7811755 2.561301,-1.8192749 5.053979,-3.8261839 6.23224,-4.6506047 5.684897,-3.977685 -0.184376,0.2266781 -9.625498,7.7945062 -11.283711,9.0448141 -0.781231,0.5890542 -1.421111,0.75930757 -1.62343,0.43194815 z M 57.589259,-15.825859 c 0,-0.07761 -0.0635,-0.141111 -0.141112,-0.141111 -0.07761,0 -0.141111,0.0635 -0.141111,0.141111 0,0.07761 0.0635,0.141111 0.141111,0.141111 0.07761,0 0.141112,-0.0635 0.141112,-0.141111 z M 47.852592,-1.0487771 C 47.34812,-1.4485999 44.87162,-3.3921443 42.349259,-5.3677647 36.500602,-9.9486842 36.850116,-9.6681962 36.912626,-9.730707 c 0.0772,-0.077202 11.927744,9.22321514 11.927744,9.3610059 0,0.10233942 -0.01382,0.0928398 -0.987778,-0.679076 z m 13.98114,-13.3071739 c 0.0068,-0.164387 0.04021,-0.197824 0.08525,-0.08526 0.04076,0.101864 0.03575,0.223572 -0.01113,0.270463 -0.04689,0.04689 -0.08024,-0.03645 -0.07411,-0.185208 z m -2.268918,-2.669352 c 0.18228,-0.194028 0.363168,-0.352778 0.401973,-0.352778 0.03881,0 -0.07858,0.15875 -0.260862,0.352778 -0.18228,0.194028 -0.363168,0.352778 -0.401973,0.352778 -0.03881,0 0.07858,-0.15875 0.260862,-0.352778 z m -14.064057,-0.246853 c -0.06468,-0.106328 -0.657359,-0.59942 -1.317054,-1.09576 -0.659694,-0.49634 -1.675694,-1.288129 -2.257777,-1.759531 -0.582084,-0.471403 -1.222789,-0.982267 -1.42379,-1.135254 -1.336714,-1.017404 -2.0865,-1.673959 -2.025105,-1.773297 0.107089,-0.173275 5.446281,-4.427305 6.360019,-5.06738 0.437389,-0.306393 0.842117,-0.528115 0.899394,-0.492715 0.05728,0.0354 0.143404,0.260681 0.191393,0.500626 0.07363,0.368135 0.134469,0.421278 0.389599,0.340303 0.283889,-0.0901 0.296147,-0.06272 0.200788,0.448617 -0.05586,0.299518 -0.11185,0.608078 -0.124428,0.685689 -0.01257,0.07761 0.207886,0.127988 0.489922,0.111949 l 0.512793,-0.02916 -0.133601,0.593606 c -0.141469,0.62857 -0.04768,1.462586 0.197887,1.759739 0.08537,0.103306 0.110884,0.44473 0.06063,0.811389 -0.0708,0.516572 -0.04626,0.633033 0.133414,0.633033 0.171231,0 0.199508,0.09411 0.127199,0.423333 -0.05206,0.237009 -0.03437,0.423334 0.04019,0.423334 0.07473,0 0.115526,0.438203 0.09296,0.998581 -0.03436,0.853195 -0.0084,0.986381 0.178146,0.914787 0.120099,-0.04609 0.305563,-0.01142 0.412143,0.07703 0.146122,0.121271 0.247579,0.116175 0.41253,-0.02072 0.180703,-0.149971 0.259589,-0.140704 0.45357,0.05328 0.219023,0.219023 0.214403,0.234822 -0.06867,0.234822 -0.166922,0 -0.911362,0.475168 -1.654309,1.055928 -1.884181,1.472858 -2.003291,1.545382 -2.147841,1.307775 z"
         id="path3661"
         inkscape:connector-curvature="0" />
      <path
         style="fill:#baaa8c;stroke-width:0.141111"
         d="m 49.477489,-0.33891489 c 0.147405,-0.51040169 0.57096,-1.02184341 0.859663,-1.03804151 0.14691,-0.00824 0.458755,-0.1352423 0.692993,-0.2822222 0.582725,-0.3656499 5.2089,-3.8308547 6.780081,-5.0785732 0.703616,-0.5587604 1.814866,-1.390228 2.469444,-1.8477046 1.434801,-1.0027623 1.542922,-1.0705817 1.542922,-0.967795 0,0.076803 -9.517864,7.6983362 -11.1606,8.93697417 -0.897938,0.67705249 -1.329089,0.77801044 -1.184503,0.27736234 z m 1.197325,-1.51694441 c 0,-0.077611 0.06725,-0.1411111 0.14944,-0.1411111 0.08219,0 0.110193,0.0635 0.06223,0.1411111 -0.04797,0.077611 -0.115214,0.1411111 -0.149439,0.1411111 -0.03423,0 -0.06223,-0.0635 -0.06223,-0.1411111 z m 0.564973,-0.5242023 c 0.0023,-0.4873032 1.546586,-2.0157976 2.036598,-2.0157976 0.332356,0 0.209969,0.2931104 -0.233141,0.5583541 -0.200077,0.1197666 -0.569533,0.4583091 -0.821011,0.7523155 -0.458371,0.5358892 -0.983436,0.9127405 -0.982446,0.705128 z M 49.66168,-5.3130814 c -0.0356,-1.1641666 -0.0499,-2.9104165 -0.03178,-3.8805554 0.01813,-0.9701392 0.0384,-2.1520332 0.04505,-2.6264302 l 0.01209,-0.862543 1.023055,-0.751054 c 0.562681,-0.413079 1.277056,-0.978802 1.5875,-1.25716 0.570079,-0.51116 2.114157,-1.720258 3.521863,-2.757812 0.421195,-0.310445 0.975834,-0.721835 1.23253,-0.914201 0.256695,-0.192366 -0.215907,0.341845 -1.050226,1.187138 -0.90679,0.918715 -1.521425,1.65536 -1.528085,1.831421 -0.0061,0.161992 -0.04317,0.215155 -0.08232,0.118141 -0.03914,-0.09701 -0.13663,-0.176388 -0.216631,-0.176388 -0.156533,0 -1.226757,1.129893 -1.236349,1.305277 -0.01209,0.221251 0.414091,0.09374 0.552769,-0.165385 0.24546,-0.458646 0.596245,-0.73681 0.820602,-0.650717 0.117633,0.04514 0.332085,-0.0249 0.476559,-0.155649 0.408384,-0.369583 0.444376,-0.144405 0.05018,0.313959 -0.194332,0.225966 -0.353409,0.46171 -0.353503,0.523875 -9.5e-5,0.06217 -0.226415,0.320293 -0.502932,0.573615 -0.465462,0.426421 -0.489952,0.488695 -0.330126,0.839473 0.09495,0.208387 0.226487,0.378885 0.292313,0.378885 0.137141,0 0.85089,-0.597554 1.380147,-1.155464 0.539339,-0.568546 2.123754,-1.658484 2.123754,-1.460959 0,0.03956 -0.576578,0.65403 -1.281284,1.36548 -1.078339,1.088657 -1.767648,1.892757 -2.59428,3.026303 -0.07487,0.102662 -0.08205,0.23733 -0.01596,0.299261 0.06609,0.06193 0.14851,0.03323 0.183158,-0.06379 0.03465,-0.09701 0.173636,-0.176389 0.308862,-0.176389 0.135225,0 0.392404,-0.155984 0.571508,-0.346631 0.386843,-0.411776 1.398166,-1.130243 1.478222,-1.050164 0.13859,0.138627 -0.696588,1.540868 -0.965578,1.62118 -0.162361,0.04848 -0.570171,0.351196 -0.906244,0.6727107 -0.7261,0.6946476 -1.098169,1.3306947 -0.896431,1.5324327 0.151252,0.1512514 0.668716,-0.1666917 1.657508,-1.0184172 2.927143,-2.5213792 4.026281,-3.4201632 4.096591,-3.3498532 0.146881,0.146881 -1.818669,2.377505 -2.320624,2.6335832 -0.292722,0.149335 -0.715354,0.5462128 -0.939181,0.88195 -0.672824,1.009228 -1.220381,1.5276025 -1.614226,1.5281966 -0.258104,4.233e-4 -0.510546,0.1861185 -0.88954,0.654462 -0.291042,0.3596541 -0.529167,0.7018655 -0.529167,0.7604703 0,0.058603 -0.0994,0.1446968 -0.220894,0.1913171 -0.172474,0.066184 -0.20016,0.019438 -0.126303,-0.2132641 0.0685,-0.2158351 0.04186,-0.279757 -0.09661,-0.231775 -0.105159,0.036439 -0.185692,0.207003 -0.178966,0.3790301 0.0084,0.21394 -0.375585,0.6999294 -1.215032,1.5379417 l -1.227264,1.2251633 z m 3.21712,-2.4291627 c -0.146288,-0.1462885 -0.792875,0.321166 -0.792875,0.5732145 0,0.260865 0.03704,0.2504877 0.421862,-0.1181975 0.232023,-0.2222924 0.398979,-0.4270502 0.371013,-0.455017 z m 0.68864,-4.2733679 c 0.04788,-0.07747 -0.0058,-0.273493 -0.119382,-0.435597 l -0.20644,-0.294735 -0.09307,0.293225 c -0.143187,0.451138 0.193244,0.802202 0.418887,0.437107 z m 6.1201,-1.235893 c 0.189482,-0.354051 0.566939,-0.661725 0.676904,-0.551762 0.109964,0.109965 -0.197711,0.487422 -0.551761,0.676905 -0.236418,0.126527 -0.251671,0.111274 -0.125143,-0.125143 z m 1.147274,-0.88102 c 0,-0.07761 0.06725,-0.141112 0.149439,-0.141112 0.08219,0 0.110194,0.0635 0.06223,0.141112 -0.04797,0.07761 -0.115215,0.141111 -0.14944,0.141111 -0.03422,0 -0.06223,-0.0635 -0.06223,-0.141111 z m -15.338821,-3.294447 c -0.06206,-0.104499 -0.462095,-0.430662 -0.888956,-0.724806 -0.426861,-0.294143 -1.053333,-0.764267 -1.39216,-1.04472 -0.338826,-0.280454 -0.95553,-0.763916 -1.370451,-1.074361 -0.414922,-0.310444 -1.335723,-1.038385 -2.046225,-1.617646 l -1.291821,-1.053202 0.545606,-0.472266 c 0.762866,-0.66032 5.127664,-4.158652 5.551171,-4.449194 0.444408,-0.304881 0.568324,-0.301689 0.568324,0.01464 0,0.347768 0.274054,0.592667 0.663222,0.592667 0.319421,0 0.45378,0.326812 0.199077,0.484227 -0.06901,0.04265 -0.167946,0.246752 -0.21985,0.453554 -0.114455,0.456024 0.103281,0.627573 0.656183,0.516992 0.370526,-0.0741 0.390139,-0.05409 0.320226,0.326754 -0.16453,0.896252 -0.153,1.616019 0.0283,1.766482 0.124242,0.103112 0.157398,0.328658 0.100565,0.684077 -0.05189,0.324491 -0.02414,0.567733 0.07152,0.626852 0.08597,0.05313 0.156312,0.279611 0.156312,0.503284 0,0.223672 0.0635,0.445922 0.141111,0.493889 0.190919,0.117994 0.176246,0.490332 -0.03615,0.917222 -0.09654,0.194028 -0.155622,0.559153 -0.131301,0.811389 0.04405,0.456869 0.168156,0.533888 0.775367,0.48118 0.368357,-0.03197 0.212933,0.147312 -0.95511,1.101755 -1.093985,0.893927 -1.261291,0.970487 -1.444964,0.661229 z m 3.485488,-2.349998 c 0,-0.07761 0.09525,-0.141111 0.211667,-0.141111 0.116416,0 0.211666,0.0635 0.211666,0.141111 0,0.07761 -0.09525,0.141111 -0.211666,0.141111 -0.116417,0 -0.211667,-0.0635 -0.211667,-0.141111 z"
         id="path3659"
         inkscape:connector-curvature="0" />
      <path
         style="fill:#b5a689;stroke-width:0.141111"
         d="m 49.404814,-0.13555544 c 0,-0.22179702 0.362096,-0.56861425 1.169088,-1.11975756 0.448969,-0.3066274 2.469533,-1.8213154 4.490141,-3.3659697 3.374543,-2.5796733 6.624191,-4.9956874 6.719424,-4.9956874 0.02152,0 0.03912,0.032422 0.03912,0.072047 0,0.07087 -9.620151,7.767132 -11.1606,8.92864577 -0.731707,0.55171197 -1.257178,0.75264289 -1.257178,0.48072179 z m 0.846667,-4.25481306 c 0,-0.07459 0.297018,-0.5032149 0.66004,-0.9525 0.966284,-1.1958912 1.188784,-1.3001709 0.810664,-0.3799346 -0.358826,0.8732774 -1.470704,1.8806216 -1.470704,1.3324346 z m -0.568645,-1.9104906 c -0.07989,-2.1283915 0.0452,-6.3582629 0.190696,-6.4483839 0.08736,-0.05411 0.199709,-0.03225 0.249666,0.04858 0.129116,0.208913 0.97495,-0.252181 0.97495,-0.53148 0,-0.12169 0.111125,-0.250349 0.246944,-0.285911 0.13582,-0.03556 0.389022,-0.281509 0.562672,-0.546551 0.323246,-0.49337 1.642782,-1.620148 1.897307,-1.620148 0.144976,0 -0.816482,1.212969 -1.240191,1.564616 -0.12941,0.107401 -0.355482,0.475668 -0.50238,0.818367 -0.146899,0.342701 -0.455723,0.837935 -0.686276,1.10052 -0.417218,0.475186 -0.546982,0.890942 -0.278076,0.890942 0.07761,0 0.141111,-0.09724 0.141111,-0.216095 0,-0.118854 0.111125,-0.255506 0.246944,-0.303671 0.13582,-0.04817 0.358459,-0.183368 0.494754,-0.300448 0.281661,-0.241949 0.527723,-0.110541 0.271949,0.145233 -0.09184,0.09184 -0.166981,0.288343 -0.166981,0.436675 0,0.148332 -0.254,0.573069 -0.564444,0.943861 -0.922058,1.1012976 -0.723477,1.1591771 0.496436,0.144694 0.464265,-0.386084 0.904597,-0.703584 0.978512,-0.705555 0.07392,-0.002 0.342841,-0.205618 0.597609,-0.452549 0.862328,-0.835801 0.623668,-0.301422 -0.302272,0.676809 -0.505814,0.534381 -0.920552,1.0457057 -0.92164,1.1362764 -0.002,0.1694815 0.627058,0.1539706 1.232744,-0.030392 0.174625,-0.053154 0.3175,-0.036673 0.3175,0.036623 0,0.1938175 -2.607735,2.7218723 -2.807661,2.7218723 -0.136319,0 -1.002339,0.772874 -1.002339,0.8945315 0,0.051285 0.09525,0.093246 0.211667,0.093246 0.116416,0 0.211666,0.070383 0.211666,0.1564089 0,0.094945 -0.134041,0.1227667 -0.341099,0.070798 -0.211004,-0.052959 -0.368214,-0.018429 -0.412193,0.090536 -0.0391,0.09688 -0.08301,-0.1413539 -0.09757,-0.5294094 z m 2.08265,-2.2724772 c -0.04689,-0.04689 -0.168599,-0.051902 -0.270463,-0.011134 -0.112569,0.045045 -0.07913,0.078483 0.08525,0.085254 0.148753,0.00612 0.232098,-0.027225 0.185208,-0.074114 z m 0.570323,-0.3116199 c 0.03072,-0.092164 -0.04468,-0.1675694 -0.167569,-0.1675694 -0.122884,0 -0.223426,0.1005416 -0.223426,0.2234254 0,0.2491923 0.303779,0.205795 0.390995,-0.055856 z m -0.249884,2.3027597 c 0,-0.1433986 1.1689,-0.9100354 1.281466,-0.8404648 0.191502,0.1183541 -0.0218,0.4868022 -0.281815,0.4868022 -0.132084,0 -0.363416,0.093231 -0.514069,0.2071794 -0.278105,0.2103472 -0.485582,0.2729356 -0.485582,0.1464832 z m 2.257778,-1.553107 c 0.09662,-0.1164166 0.239168,-0.2116666 0.316779,-0.2116666 0.07872,0 0.06343,0.093593 -0.03456,0.2116666 -0.09662,0.1164167 -0.239168,0.2116667 -0.316779,0.2116667 -0.07872,0 -0.06343,-0.093593 0.03456,-0.2116667 z m -1.620619,-5.0059515 c -0.04259,-0.06891 0.06267,-0.223428 0.233912,-0.34337 0.354237,-0.248117 0.442953,-0.221262 0.320785,0.0971 -0.102448,0.266978 -0.44728,0.420071 -0.554697,0.246267 z m 1.082633,-1.00009 c 0.03395,-0.101865 0.145079,-0.21299 0.246944,-0.246944 0.105834,-0.03528 0.15875,0.01764 0.123473,0.123472 -0.03396,0.101864 -0.145081,0.212989 -0.246945,0.246944 -0.105833,0.03528 -0.15875,-0.01764 -0.123472,-0.123472 z m 0.961319,-2.319514 c 0.182281,-0.194027 0.363168,-0.352777 0.401974,-0.352777 0.0388,0 -0.07858,0.15875 -0.260862,0.352777 -0.182281,0.194028 -0.363168,0.352778 -0.401974,0.352778 -0.03881,0 0.07858,-0.15875 0.260862,-0.352778 z m -9.172221,-0.887248 c 0,-0.220734 1.3563,-1.441085 1.601623,-1.441085 0.138257,0 0.3742,-0.06573 0.52432,-0.146075 0.51329,-0.274706 0.27293,-0.01315 -0.774295,0.842566 -0.982967,0.803211 -1.351648,1.006309 -1.351648,0.744594 z m -0.564445,-0.730565 c 0,-0.07488 0.127,-0.204115 0.282222,-0.287187 0.220988,-0.118269 0.282223,-0.107313 0.282223,0.05049 0,0.110843 -0.100444,0.240078 -0.223208,0.287187 -0.299736,0.115019 -0.341237,0.108878 -0.341237,-0.05049 z m -1.552222,-0.997565 c -0.582083,-0.45951 -1.293728,-0.994729 -1.581433,-1.189376 -0.56098,-0.379532 -0.870297,-0.815916 -0.706658,-0.996953 0.05548,-0.06138 -0.0072,-0.07291 -0.13918,-0.02563 -0.135342,0.04847 -0.379071,-0.02661 -0.558767,-0.172119 l -0.318719,-0.258083 0.474313,-0.546231 c 0.260872,-0.300427 0.61295,-0.622137 0.782396,-0.71491 0.344236,-0.188474 1.342492,-1.354848 1.342492,-1.568584 0,-0.07565 0.0962,-0.174459 0.213785,-0.219579 0.117581,-0.04512 0.273032,-0.237869 0.345445,-0.428331 0.07241,-0.190462 0.35429,-0.451938 0.626392,-0.581059 0.272102,-0.129121 0.568927,-0.324166 0.659611,-0.433433 0.09068,-0.109268 0.322648,-0.198669 0.515476,-0.198669 0.27937,0 0.329509,0.05017 0.246798,0.246945 -0.252336,0.600322 -0.245473,0.881719 0.02188,0.896944 0.874092,0.04978 0.828091,-0.007 0.704102,0.869294 -0.04649,0.328555 -0.01656,0.851373 0.0665,1.161817 0.08306,0.310445 0.186319,0.754945 0.229458,0.987778 0.04314,0.232833 0.135623,0.460352 0.20552,0.505597 0.07451,0.04823 0.06961,0.233436 -0.01184,0.44768 -0.102988,0.270876 -0.08992,0.406096 0.05052,0.522647 0.26577,0.22057 0.123606,0.625461 -0.432957,1.233086 -0.536392,0.585603 -0.647519,0.946537 -0.159847,0.519169 0.174625,-0.153031 0.4445,-0.370475 0.599722,-0.483209 0.267584,-0.194339 0.271464,-0.190332 0.0748,0.07725 -0.418342,0.569194 -0.657052,0.729075 -1.088547,0.729075 -0.242571,0 -0.546872,0.105833 -0.676224,0.235184 -0.129352,0.129352 -0.278274,0.231582 -0.330939,0.227176 -0.05267,-0.0044 -0.57201,-0.38397 -1.154093,-0.84348 z m -1.42839,-2.972699 c 0.335136,-0.312227 0.334751,-0.467963 -8.32e-4,-0.339186 -0.232134,0.08908 -0.604469,0.635597 -0.433026,0.635597 0.06363,0 0.25887,-0.133385 0.433858,-0.296411 z m 1.423425,-0.964312 c 0.200158,-0.373998 0.18339,-0.714833 -0.03517,-0.714833 -0.214121,0 -0.698792,0.766262 -0.567632,0.897422 0.173984,0.173984 0.458009,0.08795 0.602798,-0.182589 z m 5.580276,3.233977 c 0.04875,-0.07888 0.147746,-0.10688 0.219995,-0.06223 0.195727,0.120966 0.159231,0.20564 -0.08864,0.20564 -0.120997,0 -0.180108,-0.06453 -0.13136,-0.143412 z m -9.47051,-3.699265 c 1.049916,-1.249715 4.356483,-3.92752 4.577191,-3.706812 0.04945,0.04945 -0.05562,0.199667 -0.233471,0.333824 -0.177855,0.134156 -0.400746,0.399688 -0.495313,0.590071 -0.09457,0.190383 -0.317418,0.366991 -0.495226,0.392464 -0.314687,0.04508 -1.151315,0.794241 -1.151315,1.030946 0,0.065 -0.269875,0.293706 -0.599722,0.508238 -0.742115,0.48267 -1.085178,0.882842 -0.983656,1.147405 0.06082,0.158487 -0.0072,0.180848 -0.315014,0.103587 -0.281556,-0.07067 -0.476052,-0.02676 -0.687765,0.155268 -0.162355,0.139589 0.01058,-0.110157 0.384291,-0.554991 z"
         id="path3657"
         inkscape:connector-curvature="0" />
      <path
         style="fill:#a49c8d;stroke-width:0.141111"
         d="m 49.545204,-0.23221231 c 0.09622,-0.11593971 1.485121,-1.20783909 3.086446,-2.42644499 1.601323,-1.2186044 3.959247,-3.0166111 5.239831,-3.9955694 2.729537,-2.0866311 3.81,-2.8732239 3.81,-2.7737392 0,0.064285 -10.048192,8.0900902 -11.302208,9.02742779 -0.563949,0.42153415 -1.140836,0.53795646 -0.834069,0.1683258 z"
         id="path3655"
         inkscape:connector-curvature="0" />
      <path
         style="fill:#9a958c;stroke-width:0.141111"
         d="m 49.687037,-0.14800426 c 0,-0.0750852 0.777875,-0.73233418 1.728611,-1.46055214 2.396027,-1.8352403 3.915833,-2.9440024 3.915833,-2.8567647 0,0.087571 -5.040006,4.11847859 -5.3975,4.31682436 -0.158754,0.08808155 -0.246944,0.08825653 -0.246944,4.2334e-4 z"
         id="path3653"
         inkscape:connector-curvature="0" />
    </g>
  </g>
</svg>
