<?xml version="1.0" encoding="UTF-8" standalone="no"?>
<svg
   width="128"
   height="128"
   viewBox="0 0 33.866666 33.866668"
   version="1.1"
   id="svg1443"
   inkscape:version="1.4 (1:1.4+202410161351+e7c3feb100)"
   sodipodi:docname="forticlientsslvpn.svg"
   xmlns:inkscape="http://www.inkscape.org/namespaces/inkscape"
   xmlns:sodipodi="http://sodipodi.sourceforge.net/DTD/sodipodi-0.dtd"
   xmlns:xlink="http://www.w3.org/1999/xlink"
   xmlns="http://www.w3.org/2000/svg"
   xmlns:svg="http://www.w3.org/2000/svg"
   xmlns:rdf="http://www.w3.org/1999/02/22-rdf-syntax-ns#"
   xmlns:cc="http://creativecommons.org/ns#"
   xmlns:dc="http://purl.org/dc/elements/1.1/">
  <defs
     id="defs1437">
    <linearGradient
       inkscape:collect="always"
       id="linearGradient910">
      <stop
         style="stop-color:#e7654b;stop-opacity:1"
         offset="0"
         id="stop906" />
      <stop
         style="stop-color:#e9791e;stop-opacity:1"
         offset="1"
         id="stop908" />
    </linearGradient>
    <linearGradient
       gradientTransform="matrix(0.97573206,0,0,0.97573206,-111.76517,-37.182508)"
       gradientUnits="userSpaceOnUse"
       y2="70.679932"
       x2="132.21078"
       y1="42.151531"
       x1="132.21078"
       id="linearGradient1632"
       xlink:href="#linearGradient1630"
       inkscape:collect="always" />
    <linearGradient
       id="linearGradient1630"
       inkscape:collect="always">
      <stop
         id="stop1626"
         offset="0"
         style="stop-color:#fafafc;stop-opacity:1" />
      <stop
         id="stop1628"
         offset="1"
         style="stop-color:#e2e6ea;stop-opacity:1" />
    </linearGradient>
    <filter
       color-interpolation-filters="sRGB"
       height="1.1311001"
       width="1.1106"
       y="-0.065563001"
       x="-0.055319"
       id="c-9">
      <feGaussianBlur
         id="feGaussianBlur1093"
         stdDeviation="1.1062912" />
    </filter>
    <linearGradient
       gradientUnits="userSpaceOnUse"
       gradientTransform="matrix(0.13235,0,0,0.13075,-32.379,1.0873)"
       y2="269.48999"
       y1="235.14999"
       x2="657.65002"
       x1="319.20999"
       id="a-12">
      <stop
         id="stop1076"
         offset="0"
         stop-color="#e54c18" />
      <stop
         id="stop1078"
         offset="1"
         stop-color="#fec350" />
    </linearGradient>
    <linearGradient
       inkscape:collect="always"
       xlink:href="#linearGradient910"
       id="linearGradient912"
       x1="24.345232"
       y1="21.70439"
       x2="29.93952"
       y2="30.039272"
       gradientUnits="userSpaceOnUse"
       gradientTransform="translate(0.54771983,-0.34714126)" />
  </defs>
  <sodipodi:namedview
     id="base"
     pagecolor="#ffffff"
     bordercolor="#666666"
     borderopacity="1.0"
     inkscape:pageopacity="0.0"
     inkscape:pageshadow="2"
     inkscape:zoom="0.9899495"
     inkscape:cx="-93.43911"
     inkscape:cy="297.48992"
     inkscape:document-units="mm"
     inkscape:current-layer="layer1"
     inkscape:document-rotation="0"
     showgrid="false"
     units="px"
     inkscape:window-width="1920"
     inkscape:window-height="1046"
     inkscape:window-x="0"
     inkscape:window-y="0"
     inkscape:window-maximized="1"
     inkscape:showpageshadow="2"
     inkscape:pagecheckerboard="0"
     inkscape:deskcolor="#d1d1d1" />
  <metadata
     id="metadata1440">
    <rdf:RDF>
      <cc:Work
         rdf:about="">
        <dc:format>image/svg+xml</dc:format>
        <dc:type
           rdf:resource="http://purl.org/dc/dcmitype/StillImage" />
      </cc:Work>
    </rdf:RDF>
  </metadata>
  <g
     inkscape:label="Capa 1"
     inkscape:groupmode="layer"
     id="layer1">
    <g
       style="opacity:0.295"
       transform="matrix(0.97573206,0,0,0.97573206,-65.737228,-37.182508)"
       id="g1702">
      <rect
         ry="6.6098609"
         rx="6.6098609"
         y="40.709618"
         x="69.839508"
         height="29.810888"
         width="29.810888"
         id="rect1634"
         style="fill:none;fill-opacity:1;stroke:#000000;stroke-width:0.1;stroke-linecap:round;stroke-linejoin:round;stroke-miterlimit:4;stroke-dasharray:none;stroke-opacity:0.02" />
      <rect
         style="fill:none;fill-opacity:1;stroke:#000000;stroke-width:0.2;stroke-linecap:round;stroke-linejoin:round;stroke-miterlimit:4;stroke-dasharray:none;stroke-opacity:0.02"
         id="rect1638"
         width="29.810888"
         height="29.810888"
         x="69.839508"
         y="40.709618"
         rx="6.6098609"
         ry="6.6098609" />
      <rect
         ry="6.6098609"
         rx="6.6098609"
         y="40.709618"
         x="69.839508"
         height="29.810888"
         width="29.810888"
         id="rect1640"
         style="fill:none;fill-opacity:1;stroke:#000000;stroke-width:0.3;stroke-linecap:round;stroke-linejoin:round;stroke-miterlimit:4;stroke-dasharray:none;stroke-opacity:0.02" />
      <rect
         style="fill:none;fill-opacity:1;stroke:#000000;stroke-width:0.4;stroke-linecap:round;stroke-linejoin:round;stroke-miterlimit:4;stroke-dasharray:none;stroke-opacity:0.02"
         id="rect1642"
         width="29.810888"
         height="29.810888"
         x="69.839508"
         y="40.709618"
         rx="6.6098609"
         ry="6.6098609" />
      <rect
         ry="6.6098609"
         rx="6.6098609"
         y="40.709618"
         x="69.839508"
         height="29.810888"
         width="29.810888"
         id="rect1644"
         style="fill:none;fill-opacity:1;stroke:#000000;stroke-width:0.5;stroke-linecap:round;stroke-linejoin:round;stroke-miterlimit:4;stroke-dasharray:none;stroke-opacity:0.02" />
      <rect
         style="fill:none;fill-opacity:1;stroke:#000000;stroke-width:0.6;stroke-linecap:round;stroke-linejoin:round;stroke-miterlimit:4;stroke-dasharray:none;stroke-opacity:0.02"
         id="rect1646"
         width="29.810888"
         height="29.810888"
         x="69.839508"
         y="40.709618"
         rx="6.6098609"
         ry="6.6098609" />
      <rect
         ry="6.6098609"
         rx="6.6098609"
         y="40.709618"
         x="69.839508"
         height="29.810888"
         width="29.810888"
         id="rect1648"
         style="fill:none;fill-opacity:1;stroke:#000000;stroke-width:0.7;stroke-linecap:round;stroke-linejoin:round;stroke-miterlimit:4;stroke-dasharray:none;stroke-opacity:0.02" />
      <rect
         style="fill:none;fill-opacity:1;stroke:#000000;stroke-width:0.8;stroke-linecap:round;stroke-linejoin:round;stroke-miterlimit:4;stroke-dasharray:none;stroke-opacity:0.02"
         id="rect1650"
         width="29.810888"
         height="29.810888"
         x="69.839508"
         y="40.709618"
         rx="6.6098609"
         ry="6.6098609" />
      <rect
         ry="6.6098609"
         rx="6.6098609"
         y="40.709618"
         x="69.839508"
         height="29.810888"
         width="29.810888"
         id="rect1652"
         style="fill:none;fill-opacity:1;stroke:#000000;stroke-width:1;stroke-linecap:round;stroke-linejoin:round;stroke-miterlimit:4;stroke-dasharray:none;stroke-opacity:0.02" />
      <rect
         style="fill:none;fill-opacity:1;stroke:#000000;stroke-width:1.2;stroke-linecap:round;stroke-linejoin:round;stroke-miterlimit:4;stroke-dasharray:none;stroke-opacity:0.02"
         id="rect1654"
         width="29.810888"
         height="29.810888"
         x="69.839508"
         y="40.709618"
         rx="6.6098609"
         ry="6.6098609" />
      <rect
         ry="6.6098609"
         rx="6.6098609"
         y="40.709618"
         x="69.839508"
         height="29.810888"
         width="29.810888"
         id="rect1656"
         style="fill:none;fill-opacity:1;stroke:#000000;stroke-width:1.4;stroke-linecap:round;stroke-linejoin:round;stroke-miterlimit:4;stroke-dasharray:none;stroke-opacity:0.02" />
      <rect
         style="fill:none;fill-opacity:1;stroke:#000000;stroke-width:1.6;stroke-linecap:round;stroke-linejoin:round;stroke-miterlimit:4;stroke-dasharray:none;stroke-opacity:0.02"
         id="rect1658"
         width="29.810888"
         height="29.810888"
         x="69.839508"
         y="40.709618"
         rx="6.6098609"
         ry="6.6098609" />
      <rect
         ry="6.6098609"
         rx="6.6098609"
         y="40.709618"
         x="69.839508"
         height="29.810888"
         width="29.810888"
         id="rect1660"
         style="fill:none;fill-opacity:1;stroke:#000000;stroke-width:1.8;stroke-linecap:round;stroke-linejoin:round;stroke-miterlimit:4;stroke-dasharray:none;stroke-opacity:0.02" />
      <rect
         style="fill:none;fill-opacity:1;stroke:#000000;stroke-width:2;stroke-linecap:round;stroke-linejoin:round;stroke-miterlimit:4;stroke-dasharray:none;stroke-opacity:0.02"
         id="rect1662"
         width="29.810888"
         height="29.810888"
         x="69.839508"
         y="40.709618"
         rx="6.6098609"
         ry="6.6098609" />
      <rect
         ry="6.6098609"
         rx="6.6098609"
         y="40.709618"
         x="69.839508"
         height="29.810888"
         width="29.810888"
         id="rect1664"
         style="fill:none;fill-opacity:1;stroke:#000000;stroke-width:2.2;stroke-linecap:round;stroke-linejoin:round;stroke-miterlimit:4;stroke-dasharray:none;stroke-opacity:0.02" />
      <rect
         style="fill:none;fill-opacity:1;stroke:#000000;stroke-width:2.6;stroke-linecap:round;stroke-linejoin:round;stroke-miterlimit:4;stroke-dasharray:none;stroke-opacity:0.02"
         id="rect1666"
         width="29.810888"
         height="29.810888"
         x="69.839508"
         y="40.709618"
         rx="6.6098609"
         ry="6.6098609" />
      <rect
         ry="6.6098609"
         rx="6.6098609"
         y="40.709618"
         x="69.839508"
         height="29.810888"
         width="29.810888"
         id="rect1668"
         style="fill:none;fill-opacity:1;stroke:#000000;stroke-width:3;stroke-linecap:round;stroke-linejoin:round;stroke-miterlimit:4;stroke-dasharray:none;stroke-opacity:0.02" />
      <rect
         style="fill:none;fill-opacity:1;stroke:#000000;stroke-width:3.4;stroke-linecap:round;stroke-linejoin:round;stroke-miterlimit:4;stroke-dasharray:none;stroke-opacity:0.02"
         id="rect1670"
         width="29.810888"
         height="29.810888"
         x="69.839508"
         y="40.709618"
         rx="6.6098609"
         ry="6.6098609" />
      <rect
         ry="6.6098609"
         rx="6.6098609"
         y="40.709618"
         x="69.839508"
         height="29.810888"
         width="29.810888"
         id="rect1672"
         style="fill:none;fill-opacity:1;stroke:#000000;stroke-width:3.8;stroke-linecap:round;stroke-linejoin:round;stroke-miterlimit:4;stroke-dasharray:none;stroke-opacity:0.02" />
      <rect
         style="fill:none;fill-opacity:1;stroke:#000000;stroke-width:4.2;stroke-linecap:round;stroke-linejoin:round;stroke-miterlimit:4;stroke-dasharray:none;stroke-opacity:0.02"
         id="rect1674"
         width="29.810888"
         height="29.810888"
         x="69.839508"
         y="40.709618"
         rx="6.6098609"
         ry="6.6098609" />
      <rect
         ry="6.6098609"
         rx="6.6098609"
         y="40.709618"
         x="69.839508"
         height="29.810888"
         width="29.810888"
         id="rect1676"
         style="fill:none;fill-opacity:1;stroke:#000000;stroke-width:4.6;stroke-linecap:round;stroke-linejoin:round;stroke-miterlimit:4;stroke-dasharray:none;stroke-opacity:0.02" />
      <rect
         style="fill:none;fill-opacity:1;stroke:#000000;stroke-width:5;stroke-linecap:round;stroke-linejoin:round;stroke-miterlimit:4;stroke-dasharray:none;stroke-opacity:0.02"
         id="rect1678"
         width="29.810888"
         height="29.810888"
         x="69.839508"
         y="40.709618"
         rx="6.6098609"
         ry="6.6098609" />
    </g>
    <rect
       ry="6.4494534"
       rx="6.4494534"
       y="2.5391712"
       x="2.4074187"
       height="29.087439"
       width="29.087439"
       id="rect849"
       style="fill:url(#linearGradient1632);fill-opacity:1;stroke-width:2.68768;stroke-linecap:round;stroke-linejoin:round" />
    <g
       id="g1">
      <path
         style="opacity:0.2;stroke-width:0.612033"
         d="m 9.6209092,10.035297 c -1.641328,0 -2.506707,1.104608 -2.506707,2.822287 V 13.7075 h 5.5083038 v -3.672203 z m 4.8376978,0 V 13.7075 h 5.508303 v -3.672203 z m 7.344405,0 V 13.7075 h 5.508303 v -0.849916 c 0,-1.717679 -0.865381,-2.822287 -2.506709,-2.822287 z M 7.1142022,15.543601 v 3.6722 h 5.5083038 v -3.6722 z m 14.6888098,0 v 3.6722 h 5.508303 v -3.6722 z M 7.1142022,21.051903 v 0.849915 c 0,1.717679 0.865379,2.822287 2.506707,2.822287 h 3.0015968 v -3.672202 z m 7.3444048,0 v 3.672202 h 5.508303 v -3.672202 z m 7.344405,0 v 3.672202 h 3.001594 c 1.641328,0 2.506709,-1.104608 2.506709,-2.822287 v -0.849915 z"
         id="path3" />
      <path
         style="fill:#ed5f00;stroke-width:0.612033;fill-opacity:1"
         d="m 9.6209092,9.4232617 c -1.641328,0 -2.506707,1.1046103 -2.506707,2.8222893 v 0.849913 H 12.622506 V 9.4232617 Z m 4.8376978,0 V 13.095464 H 19.96691 V 9.4232617 Z m 7.344405,0 v 3.6722023 h 5.508303 v -0.849913 c 0,-1.717679 -0.865381,-2.8222893 -2.506709,-2.8222893 z M 7.1142022,14.931566 v 3.672202 h 5.5083038 v -3.672202 z m 14.6888098,0 v 3.672202 h 5.508303 V 14.931566 Z M 7.1142022,20.43987 v 0.849915 c 0,1.717677 0.865379,2.822287 2.506707,2.822287 H 12.622506 V 20.43987 Z m 7.3444048,0 v 3.672202 H 19.96691 V 20.43987 Z m 7.344405,0 v 3.672202 h 3.001594 c 1.641328,0 2.506709,-1.10461 2.506709,-2.822287 V 20.43987 Z"
         id="path4" />
    </g>
    <g
       id="g943"
       style="opacity:0.12684"
       transform="translate(0.54771983,-0.34714126)">
      <path
         style="color:#000000;font-style:normal;font-variant:normal;font-weight:normal;font-stretch:normal;font-size:medium;line-height:normal;font-family:sans-serif;font-variant-ligatures:normal;font-variant-position:normal;font-variant-caps:normal;font-variant-numeric:normal;font-variant-alternates:normal;font-variant-east-asian:normal;font-feature-settings:normal;font-variation-settings:normal;text-indent:0;text-align:start;text-decoration:none;text-decoration-line:none;text-decoration-style:solid;text-decoration-color:#000000;letter-spacing:normal;word-spacing:normal;text-transform:none;writing-mode:lr-tb;direction:ltr;text-orientation:mixed;dominant-baseline:auto;baseline-shift:baseline;text-anchor:start;white-space:normal;shape-padding:0;shape-margin:0;inline-size:0;clip-rule:nonzero;display:inline;overflow:visible;visibility:visible;isolation:auto;mix-blend-mode:normal;color-interpolation:sRGB;color-interpolation-filters:linearRGB;solid-color:#000000;solid-opacity:1;vector-effect:none;fill:#081633;fill-opacity:0.137486;fill-rule:nonzero;stroke:none;stroke-linecap:square;stroke-linejoin:round;stroke-miterlimit:4;stroke-dasharray:none;stroke-dashoffset:0;stroke-opacity:1;color-rendering:auto;image-rendering:auto;shape-rendering:auto;text-rendering:auto;enable-background:accumulate;stop-color:#000000"
         d="m 25.683578,17.728991 c -0.22438,0 -0.451084,0.07084 -0.640625,0.208984 v -0.002 c -0.683257,0.4974 -2.840529,1.893429 -5.378906,2.13086 -0.654279,0.06098 -1.166334,0.615931 -1.177735,1.271484 a 0.65154016,0.65154016 0 0 0 0,0.002 c -0.01724,1.124645 0.05555,3.55738 0.941406,5.984375 0.885853,2.426995 2.654461,4.886267 5.921875,5.763672 a 0.65154016,0.65154016 0 0 0 0.002,0 c 0.218113,0.05814 0.44595,0.05814 0.664062,0 a 0.65154016,0.65154016 0 0 0 0.002,0 c 3.267508,-0.876649 5.035926,-3.334571 5.921875,-5.761719 0.88595,-2.427148 0.959835,-4.862214 0.94336,-5.986328 -0.0084,-0.659357 -0.523649,-1.212467 -1.177735,-1.273437 h -0.002 C 29.167088,19.829036 27.012997,18.436817 26.326156,17.937975 26.135269,17.79879 25.907905,17.728991 25.683578,17.728991 Z m 0,1.335938 c 0.846284,0.605486 3.05086,2.029328 5.896484,2.296875 0.01505,1.033536 -0.06935,3.337164 -0.865234,5.517578 -0.795435,2.179174 -2.231579,4.19592 -5.027344,4.949219 v 0.002 c -0.0015,-4.07e-4 -0.0024,-0.0015 -0.0039,-0.002 -6.35e-4,7.5e-5 -0.0011,-2.28e-4 -0.002,0 -2.797087,-0.753598 -4.2338,-2.769773 -5.029297,-4.949219 -0.795773,-2.180201 -0.87902,-4.484559 -0.863281,-5.517578 2.845654,-0.26755 5.048635,-1.690667 5.894531,-2.296875 z"
         id="path925" />
      <path
         style="color:#000000;font-style:normal;font-variant:normal;font-weight:normal;font-stretch:normal;font-size:medium;line-height:normal;font-family:sans-serif;font-variant-ligatures:normal;font-variant-position:normal;font-variant-caps:normal;font-variant-numeric:normal;font-variant-alternates:normal;font-variant-east-asian:normal;font-feature-settings:normal;font-variation-settings:normal;text-indent:0;text-align:start;text-decoration:none;text-decoration-line:none;text-decoration-style:solid;text-decoration-color:#000000;letter-spacing:normal;word-spacing:normal;text-transform:none;writing-mode:lr-tb;direction:ltr;text-orientation:mixed;dominant-baseline:auto;baseline-shift:baseline;text-anchor:start;white-space:normal;shape-padding:0;shape-margin:0;inline-size:0;clip-rule:nonzero;display:inline;overflow:visible;visibility:visible;isolation:auto;mix-blend-mode:normal;color-interpolation:sRGB;color-interpolation-filters:linearRGB;solid-color:#000000;solid-opacity:1;vector-effect:none;fill:#081633;fill-opacity:0.137486;fill-rule:nonzero;stroke:none;stroke-linecap:square;stroke-linejoin:round;stroke-miterlimit:4;stroke-dasharray:none;stroke-dashoffset:0;stroke-opacity:1;color-rendering:auto;image-rendering:auto;shape-rendering:auto;text-rendering:auto;enable-background:accumulate;stop-color:#000000"
         d="m 25.51071,18.003729 c -0.22438,0 -0.451084,0.07084 -0.640625,0.208984 v -0.002 c -0.683257,0.4974 -2.840529,1.893429 -5.378906,2.13086 -0.654279,0.06098 -1.166334,0.615931 -1.177735,1.271484 a 0.65154016,0.65154016 0 0 0 0,0.002 c -0.01724,1.124645 0.05555,3.55738 0.941406,5.984375 0.885853,2.426995 2.654461,4.886267 5.921875,5.763672 a 0.65154016,0.65154016 0 0 0 0.002,0 c 0.218113,0.05814 0.44595,0.05814 0.664062,0 a 0.65154016,0.65154016 0 0 0 0.002,0 c 3.267508,-0.876649 5.035926,-3.334571 5.921875,-5.761719 0.88595,-2.427148 0.959835,-4.862214 0.94336,-5.986328 -0.0084,-0.659357 -0.523649,-1.212467 -1.177735,-1.273437 h -0.002 C 28.99422,20.103774 26.840129,18.711555 26.153288,18.212713 25.962401,18.073528 25.735037,18.003729 25.51071,18.003729 Z m 0,1.335938 c 0.846284,0.605486 3.05086,2.029328 5.896484,2.296875 0.01505,1.033536 -0.06935,3.337164 -0.865234,5.517578 -0.795435,2.179174 -2.231579,4.19592 -5.027344,4.949219 v 0.002 c -0.0015,-4.07e-4 -0.0024,-0.0015 -0.0039,-0.002 -6.35e-4,7.5e-5 -0.0011,-2.28e-4 -0.002,0 -2.797087,-0.753598 -4.2338,-2.769773 -5.029297,-4.949219 -0.795773,-2.180201 -0.87902,-4.484559 -0.863281,-5.517578 2.845654,-0.26755 5.048635,-1.690667 5.894531,-2.296875 z"
         id="path927" />
      <path
         style="color:#000000;font-style:normal;font-variant:normal;font-weight:normal;font-stretch:normal;font-size:medium;line-height:normal;font-family:sans-serif;font-variant-ligatures:normal;font-variant-position:normal;font-variant-caps:normal;font-variant-numeric:normal;font-variant-alternates:normal;font-variant-east-asian:normal;font-feature-settings:normal;font-variation-settings:normal;text-indent:0;text-align:start;text-decoration:none;text-decoration-line:none;text-decoration-style:solid;text-decoration-color:#000000;letter-spacing:normal;word-spacing:normal;text-transform:none;writing-mode:lr-tb;direction:ltr;text-orientation:mixed;dominant-baseline:auto;baseline-shift:baseline;text-anchor:start;white-space:normal;shape-padding:0;shape-margin:0;inline-size:0;clip-rule:nonzero;display:inline;overflow:visible;visibility:visible;isolation:auto;mix-blend-mode:normal;color-interpolation:sRGB;color-interpolation-filters:linearRGB;solid-color:#000000;solid-opacity:1;vector-effect:none;fill:#081633;fill-opacity:0.137486;fill-rule:nonzero;stroke:none;stroke-linecap:square;stroke-linejoin:round;stroke-miterlimit:4;stroke-dasharray:none;stroke-dashoffset:0;stroke-opacity:1;color-rendering:auto;image-rendering:auto;shape-rendering:auto;text-rendering:auto;enable-background:accumulate;stop-color:#000000"
         d="m 25.355427,18.450887 c -0.22438,0 -0.451084,0.07084 -0.640625,0.208984 v -0.002 c -0.683257,0.4974 -2.840529,1.893429 -5.378906,2.13086 -0.654279,0.06098 -1.166334,0.615931 -1.177735,1.271484 a 0.65154016,0.65154016 0 0 0 0,0.002 c -0.01724,1.124645 0.05555,3.55738 0.941406,5.984375 0.885853,2.426995 2.654461,4.886267 5.921875,5.763672 a 0.65154016,0.65154016 0 0 0 0.002,0 c 0.218113,0.05814 0.44595,0.05814 0.664062,0 a 0.65154016,0.65154016 0 0 0 0.002,0 c 3.267508,-0.876649 5.035926,-3.334571 5.921875,-5.761719 0.88595,-2.427148 0.959835,-4.862214 0.94336,-5.986328 -0.0084,-0.659357 -0.523649,-1.212467 -1.177735,-1.273437 h -0.002 c -2.536067,-0.237846 -4.690158,-1.630065 -5.376999,-2.128907 -0.190887,-0.139185 -0.418251,-0.208984 -0.642578,-0.208984 z m 0,1.335938 c 0.846284,0.605486 3.05086,2.029328 5.896484,2.296875 0.01505,1.033536 -0.06935,3.337164 -0.865234,5.517578 -0.795435,2.179174 -2.231579,4.19592 -5.027344,4.949219 v 0.002 c -0.0015,-4.07e-4 -0.0024,-0.0015 -0.0039,-0.002 -6.35e-4,7.5e-5 -0.0011,-2.28e-4 -0.002,0 -2.797087,-0.753598 -4.2338,-2.769773 -5.029297,-4.949219 -0.795773,-2.180201 -0.87902,-4.484559 -0.863281,-5.517578 2.845654,-0.26755 5.048635,-1.690667 5.894531,-2.296875 z"
         id="path929" />
      <path
         style="color:#000000;font-style:normal;font-variant:normal;font-weight:normal;font-stretch:normal;font-size:medium;line-height:normal;font-family:sans-serif;font-variant-ligatures:normal;font-variant-position:normal;font-variant-caps:normal;font-variant-numeric:normal;font-variant-alternates:normal;font-variant-east-asian:normal;font-feature-settings:normal;font-variation-settings:normal;text-indent:0;text-align:start;text-decoration:none;text-decoration-line:none;text-decoration-style:solid;text-decoration-color:#000000;letter-spacing:normal;word-spacing:normal;text-transform:none;writing-mode:lr-tb;direction:ltr;text-orientation:mixed;dominant-baseline:auto;baseline-shift:baseline;text-anchor:start;white-space:normal;shape-padding:0;shape-margin:0;inline-size:0;clip-rule:nonzero;display:inline;overflow:visible;visibility:visible;isolation:auto;mix-blend-mode:normal;color-interpolation:sRGB;color-interpolation-filters:linearRGB;solid-color:#000000;solid-opacity:1;vector-effect:none;fill:#081633;fill-opacity:0.137486;fill-rule:nonzero;stroke:none;stroke-linecap:square;stroke-linejoin:round;stroke-miterlimit:4;stroke-dasharray:none;stroke-dashoffset:0;stroke-opacity:1;color-rendering:auto;image-rendering:auto;shape-rendering:auto;text-rendering:auto;enable-background:accumulate;stop-color:#000000"
         d="m 25.158757,18.773138 c -0.22438,0 -0.451084,0.07084 -0.640625,0.208984 v -0.002 c -0.683257,0.4974 -2.840529,1.893429 -5.378906,2.13086 -0.654279,0.06098 -1.166334,0.615931 -1.177735,1.271484 a 0.65154016,0.65154016 0 0 0 0,0.002 c -0.01724,1.124645 0.05555,3.55738 0.941406,5.984375 0.885853,2.426995 2.654461,4.886267 5.921875,5.763672 a 0.65154016,0.65154016 0 0 0 0.002,0 c 0.218113,0.05814 0.44595,0.05814 0.664062,0 a 0.65154016,0.65154016 0 0 0 0.002,0 c 3.267508,-0.876649 5.035926,-3.334571 5.921875,-5.761719 0.88595,-2.427148 0.959835,-4.862214 0.94336,-5.986328 -0.0084,-0.659357 -0.523649,-1.212467 -1.177735,-1.273437 h -0.002 c -2.536067,-0.237846 -4.690158,-1.630065 -5.376999,-2.128907 -0.190887,-0.139185 -0.418251,-0.208984 -0.642578,-0.208984 z m 0,1.335938 c 0.846284,0.605486 3.05086,2.029328 5.896484,2.296875 0.01505,1.033536 -0.06935,3.337164 -0.865234,5.517578 -0.795435,2.179174 -2.231579,4.19592 -5.027344,4.949219 v 0.002 c -0.0015,-4.07e-4 -0.0024,-0.0015 -0.0039,-0.002 -6.35e-4,7.5e-5 -0.0011,-2.28e-4 -0.002,0 -2.797087,-0.753598 -4.2338,-2.769773 -5.029297,-4.949219 -0.795773,-2.180201 -0.87902,-4.484559 -0.863281,-5.517578 2.845654,-0.26755 5.048635,-1.690667 5.894531,-2.296875 z"
         id="path931" />
    </g>
    <path
       style="color:#000000;font-style:normal;font-variant:normal;font-weight:normal;font-stretch:normal;font-size:medium;line-height:normal;font-family:sans-serif;font-variant-ligatures:normal;font-variant-position:normal;font-variant-caps:normal;font-variant-numeric:normal;font-variant-alternates:normal;font-variant-east-asian:normal;font-feature-settings:normal;font-variation-settings:normal;text-indent:0;text-align:start;text-decoration:none;text-decoration-line:none;text-decoration-style:solid;text-decoration-color:#000000;letter-spacing:normal;word-spacing:normal;text-transform:none;writing-mode:lr-tb;direction:ltr;text-orientation:mixed;dominant-baseline:auto;baseline-shift:baseline;text-anchor:start;white-space:normal;shape-padding:0;shape-margin:0;inline-size:0;clip-rule:nonzero;display:inline;overflow:visible;visibility:visible;isolation:auto;mix-blend-mode:normal;color-interpolation:sRGB;color-interpolation-filters:linearRGB;solid-color:#000000;solid-opacity:1;vector-effect:none;fill:url(#linearGradient912);fill-opacity:1;fill-rule:nonzero;stroke:none;stroke-width:1.30295;stroke-linecap:square;stroke-linejoin:round;stroke-miterlimit:4;stroke-dasharray:none;stroke-dashoffset:0;stroke-opacity:1;color-rendering:auto;image-rendering:auto;shape-rendering:auto;text-rendering:auto;enable-background:accumulate;stop-color:#000000"
       d="m 26.496931,17.977269 c -0.09053,0 -0.180656,0.0279 -0.257545,0.08394 -0.734339,0.534586 -2.966352,1.996006 -5.701086,2.251803 -0.329086,0.03019 -0.581777,0.30357 -0.587525,0.634093 -0.03307,2.157032 0.313021,9.479909 6.381742,11.109554 0.107775,0.02873 0.221628,0.02873 0.329405,0 6.068721,-1.628194 6.414508,-8.952536 6.382893,-11.109554 -0.0042,-0.330523 -0.258457,-0.603899 -0.58753,-0.634093 -2.73473,-0.255797 -4.96647,-1.717217 -5.702233,-2.251803 -0.07687,-0.05605 -0.167582,-0.08394 -0.258121,-0.08394 z"
       id="path916" />
    <g
       aria-label="VPN"
       transform="matrix(0.55264365,0,0,0.76797545,2.5838227,1.2411843)"
       id="text864"
       style="font-style:normal;font-variant:normal;font-weight:bold;font-stretch:normal;font-size:7.77419px;line-height:1.25;font-family:sans-serif;-inkscape-font-specification:'sans-serif Bold';fill:#ffffff;fill-opacity:1;stroke:none;stroke-width:0.194354">
      <path
         d="m 34.286037,28.305989 h 1.469049 l 1.503212,4.183182 1.499417,-4.183182 h 1.469049 l -2.099184,5.667415 h -1.74236 z"
         style="fill:#ffffff;stroke-width:0.194354"
         id="path866" />
      <path
         d="m 40.97837,28.305989 h 2.425638 q 1.081857,0 1.658848,0.482091 0.580787,0.478295 0.580787,1.366557 0,0.892058 -0.580787,1.374149 -0.576991,0.478294 -1.658848,0.478294 h -0.964182 v 1.966324 H 40.97837 Z m 1.461456,1.059082 v 1.582928 h 0.808546 q 0.425151,0 0.656707,-0.204984 0.231555,-0.208779 0.231555,-0.588378 0,-0.379599 -0.231555,-0.584583 -0.231556,-0.204983 -0.656707,-0.204983 z"
         style="fill:#ffffff;stroke-width:0.194354"
         id="path868" />
      <path
         d="m 46.676153,28.305989 h 1.632276 l 2.061223,3.887095 v -3.887095 h 1.385537 v 5.667415 h -1.632276 l -2.061224,-3.887095 v 3.887095 h -1.385536 z"
         style="fill:#ffffff;stroke-width:0.194354"
         id="path870" />
    </g>
    <path
       style="color:#000000;font-style:normal;font-variant:normal;font-weight:normal;font-stretch:normal;font-size:medium;line-height:normal;font-family:sans-serif;font-variant-ligatures:normal;font-variant-position:normal;font-variant-caps:normal;font-variant-numeric:normal;font-variant-alternates:normal;font-variant-east-asian:normal;font-feature-settings:normal;font-variation-settings:normal;text-indent:0;text-align:start;text-decoration:none;text-decoration-line:none;text-decoration-style:solid;text-decoration-color:#000000;letter-spacing:normal;word-spacing:normal;text-transform:none;writing-mode:lr-tb;direction:ltr;text-orientation:mixed;dominant-baseline:auto;baseline-shift:baseline;text-anchor:start;white-space:normal;shape-padding:0;shape-margin:0;inline-size:0;clip-rule:nonzero;display:inline;overflow:visible;visibility:visible;isolation:auto;mix-blend-mode:normal;color-interpolation:sRGB;color-interpolation-filters:linearRGB;solid-color:#000000;solid-opacity:1;vector-effect:none;fill:#111111;fill-opacity:0.03838687;fill-rule:nonzero;stroke:none;stroke-width:0.894825;stroke-linecap:square;stroke-linejoin:round;stroke-miterlimit:4;stroke-dasharray:none;stroke-dashoffset:0;stroke-opacity:1;color-rendering:auto;image-rendering:auto;shape-rendering:auto;text-rendering:auto;enable-background:accumulate;stop-color:#000000"
       d="m 26.497127,18.136688 c -0.20078,0 -0.403641,0.06339 -0.573247,0.187005 v -0.0017 c -0.611396,0.445086 -2.541777,1.694288 -4.81318,1.906747 -0.585466,0.05457 -1.043665,0.551151 -1.053867,1.137756 a 0.58301452,0.58301452 0 0 0 0,0.0017 c -0.01543,1.00636 0.04971,3.183233 0.842394,5.354969 0.792683,2.171736 2.375278,4.372354 5.299042,5.157478 a 0.58301452,0.58301452 0 0 0 0.0017,0 c 0.195173,0.05203 0.399047,0.05203 0.594219,0 a 0.58301452,0.58301452 0 0 0 0.0017,0 c 2.923848,-0.784447 4.506273,-2.983858 5.299042,-5.155731 0.792771,-2.171873 0.858885,-4.350831 0.844143,-5.356716 -0.0075,-0.59001 -0.468575,-1.084946 -1.053867,-1.139504 h -0.0017 c -2.269295,-0.21283 -4.19683,-1.458623 -4.811433,-1.904999 -0.17081,-0.124547 -0.374261,-0.187005 -0.574995,-0.187005 z m 0,1.195431 c 0.757277,0.541804 2.729987,1.815894 5.276323,2.055302 0.01347,0.924834 -0.06205,2.986178 -0.774234,4.937267 -0.711775,1.94998 -1.996873,3.754615 -4.498593,4.428686 v 0.0017 c -0.0014,-3.65e-4 -0.0021,-0.0014 -0.0035,-0.0017 -5.68e-4,6.7e-5 -9.85e-4,-2.04e-4 -0.0017,0 -2.502904,-0.674338 -3.788511,-2.478463 -4.500342,-4.428686 -0.712077,-1.950898 -0.786569,-4.012896 -0.772485,-4.937267 2.546363,-0.239411 4.517645,-1.512851 5.274574,-2.055302 z"
       id="path920" />
    <path
       style="color:#000000;font-style:normal;font-variant:normal;font-weight:normal;font-stretch:normal;font-size:medium;line-height:normal;font-family:sans-serif;font-variant-ligatures:normal;font-variant-position:normal;font-variant-caps:normal;font-variant-numeric:normal;font-variant-alternates:normal;font-variant-east-asian:normal;font-feature-settings:normal;font-variation-settings:normal;text-indent:0;text-align:start;text-decoration:none;text-decoration-line:none;text-decoration-style:solid;text-decoration-color:#000000;letter-spacing:normal;word-spacing:normal;text-transform:none;writing-mode:lr-tb;direction:ltr;text-orientation:mixed;dominant-baseline:auto;baseline-shift:baseline;text-anchor:start;white-space:normal;shape-padding:0;shape-margin:0;inline-size:0;clip-rule:nonzero;display:inline;overflow:visible;visibility:visible;isolation:auto;mix-blend-mode:normal;color-interpolation:sRGB;color-interpolation-filters:linearRGB;solid-color:#000000;solid-opacity:1;vector-effect:none;fill:#ffffff;fill-opacity:1;fill-rule:nonzero;stroke:none;stroke-linecap:square;stroke-linejoin:round;stroke-miterlimit:4;stroke-dasharray:none;stroke-dashoffset:0;stroke-opacity:1;color-rendering:auto;image-rendering:auto;shape-rendering:auto;text-rendering:auto;enable-background:accumulate;stop-color:#000000"
       d="m 26.496939,17.326687 c -0.22438,0 -0.451084,0.07084 -0.640625,0.208984 v -0.002 c -0.683257,0.4974 -2.840529,1.893429 -5.378906,2.13086 -0.654279,0.06098 -1.166334,0.615931 -1.177735,1.271484 a 0.65154016,0.65154016 0 0 0 0,0.002 c -0.01724,1.124645 0.05555,3.55738 0.941406,5.984375 0.885853,2.426995 2.654461,4.886267 5.921875,5.763672 a 0.65154016,0.65154016 0 0 0 0.002,0 c 0.218113,0.05814 0.44595,0.05814 0.664062,0 a 0.65154016,0.65154016 0 0 0 0.002,0 c 3.267508,-0.876649 5.035926,-3.334571 5.921875,-5.761719 0.88595,-2.427148 0.959835,-4.862214 0.94336,-5.986328 -0.0084,-0.659357 -0.523649,-1.212467 -1.177735,-1.273437 h -0.002 C 29.980449,19.426732 27.826358,18.034513 27.139517,17.535671 26.94863,17.396486 26.721266,17.326687 26.496939,17.326687 Z m 0,1.335938 c 0.846284,0.605486 3.05086,2.029328 5.896484,2.296875 0.01505,1.033536 -0.06935,3.337164 -0.865234,5.517578 -0.795435,2.179174 -2.231579,4.19592 -5.027344,4.949219 v 0.002 c -0.0015,-4.07e-4 -0.0024,-0.0015 -0.0039,-0.002 -6.35e-4,7.5e-5 -0.0011,-2.28e-4 -0.002,0 -2.797087,-0.753598 -4.2338,-2.769773 -5.029297,-4.949219 -0.795773,-2.180201 -0.87902,-4.484559 -0.863281,-5.517578 2.845654,-0.26755 5.048635,-1.690667 5.894531,-2.296875 z"
       id="path918" />
  </g>
</svg>
