<?xml version="1.0" encoding="UTF-8" standalone="no"?>
<svg
   xmlns:dc="http://purl.org/dc/elements/1.1/"
   xmlns:cc="http://creativecommons.org/ns#"
   xmlns:rdf="http://www.w3.org/1999/02/22-rdf-syntax-ns#"
   xmlns:svg="http://www.w3.org/2000/svg"
   xmlns="http://www.w3.org/2000/svg"
   xmlns:xlink="http://www.w3.org/1999/xlink"
   xmlns:sodipodi="http://sodipodi.sourceforge.net/DTD/sodipodi-0.dtd"
   xmlns:inkscape="http://www.inkscape.org/namespaces/inkscape"
   width="128"
   height="128"
   viewBox="0 0 33.866666 33.866668"
   version="1.1"
   id="svg2239"
   inkscape:version="1.0.1 (3bc2e813f5, 2020-09-07)"
   sodipodi:docname="gnome-klotski.svg">
  <defs
     id="defs2233">
    <linearGradient
       inkscape:collect="always"
       xlink:href="#linearGradient4110"
       id="linearGradient4112"
       x1="14.722295"
       y1="30.258528"
       x2="14.722295"
       y2="3.130671"
       gradientUnits="userSpaceOnUse"
       gradientTransform="translate(0.06439012,0.01495339)" />
    <linearGradient
       inkscape:collect="always"
       id="linearGradient4110">
      <stop
         style="stop-color:#474747;stop-opacity:1"
         offset="0"
         id="stop4106" />
      <stop
         style="stop-color:#171819;stop-opacity:1"
         offset="1"
         id="stop4108" />
    </linearGradient>
    <filter
       id="filter881"
       x="-0.048640002"
       y="-0.047377001"
       width="1.0973001"
       height="1.0948"
       color-interpolation-filters="sRGB">
      <feGaussianBlur
         stdDeviation="0.76"
         id="feGaussianBlur2" />
    </filter>
    <linearGradient
       id="linearGradient923"
       x1="33.189999"
       x2="33.189999"
       y1="50.470001"
       y2="11.676"
       gradientUnits="userSpaceOnUse"
       gradientTransform="matrix(0.55443201,0,0,0.55443201,-0.86723792,-0.03247811)">
      <stop
         stop-color="#ccc"
         offset="0"
         id="stop25" />
      <stop
         stop-color="#fff"
         stop-opacity=".99471"
         offset="1"
         id="stop27" />
    </linearGradient>
    <linearGradient
       id="linearGradient907"
       x1="23.688"
       x2="23.688"
       y1="45.978001"
       y2="31.186001"
       gradientUnits="userSpaceOnUse"
       gradientTransform="matrix(0.55443201,0,0,0.55443201,-0.86723792,-0.03247811)">
      <stop
         stop-color="#0077c2"
         offset="0"
         id="stop15"
         style="stop-color:#0d49cf;stop-opacity:1" />
      <stop
         stop-color="#1ba7ff"
         offset="1"
         id="stop17"
         style="stop-color:#1bc6ff;stop-opacity:1" />
    </linearGradient>
    <linearGradient
       id="linearGradient899"
       x1="37.200001"
       x2="37.200001"
       y1="36.124001"
       y2="18.096001"
       gradientUnits="userSpaceOnUse"
       gradientTransform="matrix(0.55443201,0,0,0.55443201,-0.86723792,-0.03247811)">
      <stop
         stop-color="#aad22d"
         offset="0"
         id="stop10"
         style="stop-color:#f8c207;stop-opacity:1" />
      <stop
         stop-color="#dbf97c"
         offset="1"
         id="stop12"
         style="stop-color:#edf97c;stop-opacity:1" />
    </linearGradient>
    <linearGradient
       id="linearGradient891"
       x1="26.677999"
       x2="26.677999"
       y1="35.381001"
       y2="17.782"
       gradientUnits="userSpaceOnUse"
       gradientTransform="matrix(0.55443201,0,0,0.55443201,-0.86723792,-0.03247811)">
      <stop
         stop-color="#e14664"
         offset="0"
         id="stop5"
         style="stop-color:#e1462e;stop-opacity:1" />
      <stop
         stop-color="#ff5c7b"
         offset="1"
         id="stop7"
         style="stop-color:#ff5c41;stop-opacity:1" />
    </linearGradient>
    <linearGradient
       id="linearGradient915"
       x1="34.380001"
       x2="34.380001"
       y1="46.935001"
       y2="30.813999"
       gradientUnits="userSpaceOnUse"
       gradientTransform="matrix(0.55443201,0,0,0.55443201,-0.86723792,-0.03247811)">
      <stop
         stop-color="#1abda2"
         offset="0"
         id="stop20"
         style="stop-color:#00a39c;stop-opacity:1" />
      <stop
         stop-color="#27f1d1"
         stop-opacity=".99608"
         offset="1"
         id="stop22" />
    </linearGradient>
    <filter
       id="filter1032"
       x="-0.059999999"
       y="-0.059999999"
       width="1.12"
       height="1.12"
       color-interpolation-filters="sRGB">
      <feGaussianBlur
         stdDeviation="0.6"
         id="feGaussianBlur12" />
    </filter>
    <linearGradient
       id="linearGradient1068"
       x1="17.443001"
       x2="17.709999"
       y1="22.502001"
       y2="13.498"
       gradientUnits="userSpaceOnUse"
       xlink:href="#linearGradient1058" />
    <linearGradient
       id="linearGradient1058">
      <stop
         stop-color="#136de2"
         offset="0"
         id="stop2" />
      <stop
         stop-color="#26bbcf"
         offset="1"
         id="stop4" />
    </linearGradient>
    <linearGradient
       id="linearGradient1060"
       x1="29.919001"
       x2="29.975"
       y1="34.766998"
       y2="25.339001"
       gradientUnits="userSpaceOnUse"
       xlink:href="#linearGradient1058" />
    <linearGradient
       id="linearGradient1052"
       x1="16"
       x2="31.358999"
       y1="39.040001"
       y2="39.040001"
       gradientUnits="userSpaceOnUse"
       xlink:href="#linearGradient1042" />
    <linearGradient
       id="linearGradient1042">
      <stop
         stop-color="#ffb636"
         offset="0"
         id="stop7-3" />
      <stop
         stop-color="#eeed51"
         offset="1"
         id="stop9" />
    </linearGradient>
    <linearGradient
       id="linearGradient1044"
       x1="38.838001"
       x2="38.875"
       y1="31.829"
       y2="15.598"
       gradientUnits="userSpaceOnUse"
       xlink:href="#linearGradient1042" />
  </defs>
  <sodipodi:namedview
     id="base"
     pagecolor="#ffffff"
     bordercolor="#666666"
     borderopacity="1.0"
     inkscape:pageopacity="0.0"
     inkscape:pageshadow="2"
     inkscape:zoom="2.8"
     inkscape:cx="57.487076"
     inkscape:cy="87.458847"
     inkscape:document-units="mm"
     inkscape:current-layer="layer1"
     inkscape:document-rotation="0"
     showgrid="false"
     units="px"
     inkscape:window-width="1514"
     inkscape:window-height="941"
     inkscape:window-x="50"
     inkscape:window-y="27"
     inkscape:window-maximized="0" />
  <metadata
     id="metadata2236">
    <rdf:RDF>
      <cc:Work
         rdf:about="">
        <dc:format>image/svg+xml</dc:format>
        <dc:type
           rdf:resource="http://purl.org/dc/dcmitype/StillImage" />
        <dc:title></dc:title>
      </cc:Work>
    </rdf:RDF>
  </metadata>
  <g
     inkscape:label="Capa 1"
     inkscape:groupmode="layer"
     id="layer1">
    <g
       style="opacity:0.295"
       transform="matrix(0.97573206,0,0,0.97573206,-65.785995,-37.221758)"
       id="g1702">
      <rect
         ry="6.6098609"
         rx="6.6098609"
         y="40.709618"
         x="69.839508"
         height="29.810888"
         width="29.810888"
         id="rect1634"
         style="fill:none;fill-opacity:1;stroke:#000000;stroke-width:0.1;stroke-linecap:round;stroke-linejoin:round;stroke-miterlimit:4;stroke-dasharray:none;stroke-opacity:0.02" />
      <rect
         style="fill:none;fill-opacity:1;stroke:#000000;stroke-width:0.2;stroke-linecap:round;stroke-linejoin:round;stroke-miterlimit:4;stroke-dasharray:none;stroke-opacity:0.02"
         id="rect1638"
         width="29.810888"
         height="29.810888"
         x="69.839508"
         y="40.709618"
         rx="6.6098609"
         ry="6.6098609" />
      <rect
         ry="6.6098609"
         rx="6.6098609"
         y="40.709618"
         x="69.839508"
         height="29.810888"
         width="29.810888"
         id="rect1640"
         style="fill:none;fill-opacity:1;stroke:#000000;stroke-width:0.3;stroke-linecap:round;stroke-linejoin:round;stroke-miterlimit:4;stroke-dasharray:none;stroke-opacity:0.02" />
      <rect
         style="fill:none;fill-opacity:1;stroke:#000000;stroke-width:0.4;stroke-linecap:round;stroke-linejoin:round;stroke-miterlimit:4;stroke-dasharray:none;stroke-opacity:0.02"
         id="rect1642"
         width="29.810888"
         height="29.810888"
         x="69.839508"
         y="40.709618"
         rx="6.6098609"
         ry="6.6098609" />
      <rect
         ry="6.6098609"
         rx="6.6098609"
         y="40.709618"
         x="69.839508"
         height="29.810888"
         width="29.810888"
         id="rect1644"
         style="fill:none;fill-opacity:1;stroke:#000000;stroke-width:0.5;stroke-linecap:round;stroke-linejoin:round;stroke-miterlimit:4;stroke-dasharray:none;stroke-opacity:0.02" />
      <rect
         style="fill:none;fill-opacity:1;stroke:#000000;stroke-width:0.6;stroke-linecap:round;stroke-linejoin:round;stroke-miterlimit:4;stroke-dasharray:none;stroke-opacity:0.02"
         id="rect1646"
         width="29.810888"
         height="29.810888"
         x="69.839508"
         y="40.709618"
         rx="6.6098609"
         ry="6.6098609" />
      <rect
         ry="6.6098609"
         rx="6.6098609"
         y="40.709618"
         x="69.839508"
         height="29.810888"
         width="29.810888"
         id="rect1648"
         style="fill:none;fill-opacity:1;stroke:#000000;stroke-width:0.7;stroke-linecap:round;stroke-linejoin:round;stroke-miterlimit:4;stroke-dasharray:none;stroke-opacity:0.02" />
      <rect
         style="fill:none;fill-opacity:1;stroke:#000000;stroke-width:0.8;stroke-linecap:round;stroke-linejoin:round;stroke-miterlimit:4;stroke-dasharray:none;stroke-opacity:0.02"
         id="rect1650"
         width="29.810888"
         height="29.810888"
         x="69.839508"
         y="40.709618"
         rx="6.6098609"
         ry="6.6098609" />
      <rect
         ry="6.6098609"
         rx="6.6098609"
         y="40.709618"
         x="69.839508"
         height="29.810888"
         width="29.810888"
         id="rect1652"
         style="fill:none;fill-opacity:1;stroke:#000000;stroke-width:1;stroke-linecap:round;stroke-linejoin:round;stroke-miterlimit:4;stroke-dasharray:none;stroke-opacity:0.02" />
      <rect
         style="fill:none;fill-opacity:1;stroke:#000000;stroke-width:1.2;stroke-linecap:round;stroke-linejoin:round;stroke-miterlimit:4;stroke-dasharray:none;stroke-opacity:0.02"
         id="rect1654"
         width="29.810888"
         height="29.810888"
         x="69.839508"
         y="40.709618"
         rx="6.6098609"
         ry="6.6098609" />
      <rect
         ry="6.6098609"
         rx="6.6098609"
         y="40.709618"
         x="69.839508"
         height="29.810888"
         width="29.810888"
         id="rect1656"
         style="fill:none;fill-opacity:1;stroke:#000000;stroke-width:1.4;stroke-linecap:round;stroke-linejoin:round;stroke-miterlimit:4;stroke-dasharray:none;stroke-opacity:0.02" />
      <rect
         style="fill:none;fill-opacity:1;stroke:#000000;stroke-width:1.6;stroke-linecap:round;stroke-linejoin:round;stroke-miterlimit:4;stroke-dasharray:none;stroke-opacity:0.02"
         id="rect1658"
         width="29.810888"
         height="29.810888"
         x="69.839508"
         y="40.709618"
         rx="6.6098609"
         ry="6.6098609" />
      <rect
         ry="6.6098609"
         rx="6.6098609"
         y="40.709618"
         x="69.839508"
         height="29.810888"
         width="29.810888"
         id="rect1660"
         style="fill:none;fill-opacity:1;stroke:#000000;stroke-width:1.8;stroke-linecap:round;stroke-linejoin:round;stroke-miterlimit:4;stroke-dasharray:none;stroke-opacity:0.02" />
      <rect
         style="fill:none;fill-opacity:1;stroke:#000000;stroke-width:2;stroke-linecap:round;stroke-linejoin:round;stroke-miterlimit:4;stroke-dasharray:none;stroke-opacity:0.02"
         id="rect1662"
         width="29.810888"
         height="29.810888"
         x="69.839508"
         y="40.709618"
         rx="6.6098609"
         ry="6.6098609" />
      <rect
         ry="6.6098609"
         rx="6.6098609"
         y="40.709618"
         x="69.839508"
         height="29.810888"
         width="29.810888"
         id="rect1664"
         style="fill:none;fill-opacity:1;stroke:#000000;stroke-width:2.2;stroke-linecap:round;stroke-linejoin:round;stroke-miterlimit:4;stroke-dasharray:none;stroke-opacity:0.02" />
      <rect
         style="fill:none;fill-opacity:1;stroke:#000000;stroke-width:2.6;stroke-linecap:round;stroke-linejoin:round;stroke-miterlimit:4;stroke-dasharray:none;stroke-opacity:0.02"
         id="rect1666"
         width="29.810888"
         height="29.810888"
         x="69.839508"
         y="40.709618"
         rx="6.6098609"
         ry="6.6098609" />
      <rect
         ry="6.6098609"
         rx="6.6098609"
         y="40.709618"
         x="69.839508"
         height="29.810888"
         width="29.810888"
         id="rect1668"
         style="fill:none;fill-opacity:1;stroke:#000000;stroke-width:3;stroke-linecap:round;stroke-linejoin:round;stroke-miterlimit:4;stroke-dasharray:none;stroke-opacity:0.02" />
      <rect
         style="fill:none;fill-opacity:1;stroke:#000000;stroke-width:3.4;stroke-linecap:round;stroke-linejoin:round;stroke-miterlimit:4;stroke-dasharray:none;stroke-opacity:0.02"
         id="rect1670"
         width="29.810888"
         height="29.810888"
         x="69.839508"
         y="40.709618"
         rx="6.6098609"
         ry="6.6098609" />
      <rect
         ry="6.6098609"
         rx="6.6098609"
         y="40.709618"
         x="69.839508"
         height="29.810888"
         width="29.810888"
         id="rect1672"
         style="fill:none;fill-opacity:1;stroke:#000000;stroke-width:3.8;stroke-linecap:round;stroke-linejoin:round;stroke-miterlimit:4;stroke-dasharray:none;stroke-opacity:0.02" />
      <rect
         style="fill:none;fill-opacity:1;stroke:#000000;stroke-width:4.2;stroke-linecap:round;stroke-linejoin:round;stroke-miterlimit:4;stroke-dasharray:none;stroke-opacity:0.02"
         id="rect1674"
         width="29.810888"
         height="29.810888"
         x="69.839508"
         y="40.709618"
         rx="6.6098609"
         ry="6.6098609" />
      <rect
         ry="6.6098609"
         rx="6.6098609"
         y="40.709618"
         x="69.839508"
         height="29.810888"
         width="29.810888"
         id="rect1676"
         style="fill:none;fill-opacity:1;stroke:#000000;stroke-width:4.6;stroke-linecap:round;stroke-linejoin:round;stroke-miterlimit:4;stroke-dasharray:none;stroke-opacity:0.02" />
      <rect
         style="fill:none;fill-opacity:1;stroke:#000000;stroke-width:5;stroke-linecap:round;stroke-linejoin:round;stroke-miterlimit:4;stroke-dasharray:none;stroke-opacity:0.02"
         id="rect1678"
         width="29.810888"
         height="29.810888"
         x="69.839508"
         y="40.709618"
         rx="6.6098609"
         ry="6.6098609" />
    </g>
    <rect
       style="fill:url(#linearGradient4112);fill-opacity:1;stroke-width:2.68769;stroke-linecap:round;stroke-linejoin:round"
       id="rect910"
       width="29.08744"
       height="29.08744"
       x="2.3586516"
       y="2.4999208"
       rx="6.4494534"
       ry="6.4494534" />
    <g
       id="g952"
       transform="translate(-1.6763077,-0.1782292)">
      <g
         transform="matrix(0.82856028,0,0,0.82856028,-1.3067672,-2.6635765)"
         filter="url(#filter1032)"
         opacity="0.25"
         id="g52">
        <path
           d="m 15.332,14 h 5.336 C 21.402,14 22,14.598 22,15.332 v 5.336 C 22,21.402 21.402,22 20.668,22 H 15.332 C 14.598,22 14,21.402 14,20.668 V 15.332 C 14,14.598 14.598,14 15.332,14"
           id="path40" />
        <path
           d="m 27.332,26 h 5.336 C 33.406,26 34,26.598 34,27.332 v 5.336 C 34,33.406 33.406,34 32.668,34 H 27.332 C 26.598,34 26,33.406 26,32.668 V 27.332 C 26,26.598 26.598,26 27.332,26"
           id="path42" />
        <path
           d="m 14,24 c -1.109,0 -2,0.891 -2,2 v 8 c 0,1.109 0.891,2 2,2 h 8 c 1.109,0 2,-0.891 2,-2 v -8 c 0,-1.109 -0.891,-2 -2,-2 m -8,1 h 8 c 0.555,0 1,0.445 1,1 v 8 c 0,0.555 -0.445,1 -1,1 h -8 c -0.555,0 -1,-0.445 -1,-1 v -8 c 0,-0.555 0.445,-1 1,-1"
           id="path44" />
        <path
           d="m 15,26 h 6 c 0.551,0 1,0.449 1,1 v 6 c 0,0.551 -0.449,1 -1,1 h -6 c -0.551,0 -1,-0.449 -1,-1 v -6 c 0,-0.551 0.449,-1 1,-1"
           id="path46" />
        <path
           d="m 26,12 c -1.109,0 -2,0.891 -2,2 v 8 c 0,1.109 0.891,2 2,2 h 8 c 1.109,0 2,-0.891 2,-2 v -8 c 0,-1.109 -0.891,-2 -2,-2 m -8,1 h 8 c 0.555,0 1,0.445 1,1 v 8 c 0,0.555 -0.445,1 -1,1 h -8 c -0.555,0 -1,-0.445 -1,-1 v -8 c 0,-0.555 0.445,-1 1,-1"
           id="path48" />
        <path
           d="m 27,14 h 6 c 0.551,0 1,0.449 1,1 v 6 c 0,0.551 -0.449,1 -1,1 h -6 c -0.551,0 -1,-0.449 -1,-1 v -6 c 0,-0.551 0.449,-1 1,-1"
           id="path50" />
      </g>
      <g
         transform="matrix(0.82856028,0,0,0.82856028,-2.1353274,-3.4921376)"
         id="g62">
        <path
           d="m 15.332,14 h 5.336 C 21.402,14 22,14.598 22,15.332 v 5.336 C 22,21.402 21.402,22 20.668,22 H 15.332 C 14.598,22 14,21.402 14,20.668 V 15.332 C 14,14.598 14.598,14 15.332,14"
           fill="url(#linearGradient1068)"
           id="path54"
           style="fill:url(#linearGradient1068)" />
        <path
           d="m 27.332,26 h 5.336 C 33.406,26 34,26.598 34,27.332 v 5.336 C 34,33.406 33.406,34 32.668,34 H 27.332 C 26.598,34 26,33.406 26,32.668 V 27.332 C 26,26.598 26.598,26 27.332,26"
           fill="url(#linearGradient1060)"
           id="path56"
           style="fill:url(#linearGradient1060)" />
        <path
           transform="matrix(0.78125,0,0,0.78125,-0.5,-0.5)"
           d="m 18.561,31.359 c -1.4195,0 -2.5605,1.141 -2.5605,2.5605 v 10.24 c 0,1.4195 1.141,2.5605 2.5605,2.5605 h 10.24 c 1.4195,0 2.5586,-1.141 2.5586,-2.5605 v -10.24 c 0,-1.4195 -1.1391,-2.5605 -2.5586,-2.5605 z m 0,1.2812 h 10.24 c 0.7104,0 1.2793,0.5689 1.2793,1.2793 v 10.24 c 0,0.7104 -0.5689,1.2793 -1.2793,1.2793 h -10.24 c -0.7104,0 -1.2812,-0.5689 -1.2812,-1.2793 v -10.24 c 0,-0.7104 0.57085,-1.2793 1.2812,-1.2793 z m 1.2793,1.2793 c -0.70528,0 -1.2793,0.57402 -1.2793,1.2793 v 7.6816 c 0,0.70528 0.57402,1.2793 1.2793,1.2793 H 27.52 c 0.70528,0 1.2812,-0.57402 1.2812,-1.2793 v -7.6816 c 0,-0.70528 -0.57597,-1.2793 -1.2812,-1.2793 z"
           fill="url(#linearGradient1052)"
           id="path58"
           style="fill:url(#linearGradient1052)" />
        <path
           transform="matrix(0.78125,0,0,0.78125,-0.5,-0.5)"
           d="m 33.92,16 c -1.4195,0 -2.5605,1.141 -2.5605,2.5605 v 10.24 c 0,1.4195 1.141,2.5586 2.5605,2.5586 h 10.24 c 1.4195,0 2.5605,-1.1391 2.5605,-2.5586 v -10.24 C 46.7205,17.141 45.5795,16 44.16,16 Z m 0,1.2793 h 10.24 c 0.7104,0 1.2793,0.57085 1.2793,1.2812 v 10.24 c 0,0.7104 -0.5689,1.2793 -1.2793,1.2793 H 33.92 c -0.7104,0 -1.2793,-0.5689 -1.2793,-1.2793 v -10.24 c 0,-0.7104 0.5689,-1.2812 1.2793,-1.2812 z m 1.2793,1.2812 c -0.70528,0 -1.2793,0.57402 -1.2793,1.2793 v 7.6797 c 0,0.70528 0.57402,1.2812 1.2793,1.2812 h 7.6816 c 0.70528,0 1.2793,-0.57597 1.2793,-1.2812 v -7.6797 c 0,-0.70528 -0.57402,-1.2793 -1.2793,-1.2793 z"
           fill="url(#linearGradient1044)"
           id="path60"
           style="fill:url(#linearGradient1044)" />
      </g>
    </g>
  </g>
</svg>
