<?xml version="1.0" encoding="UTF-8" standalone="no"?>
<svg
   xmlns:dc="http://purl.org/dc/elements/1.1/"
   xmlns:cc="http://creativecommons.org/ns#"
   xmlns:rdf="http://www.w3.org/1999/02/22-rdf-syntax-ns#"
   xmlns:svg="http://www.w3.org/2000/svg"
   xmlns="http://www.w3.org/2000/svg"
   xmlns:xlink="http://www.w3.org/1999/xlink"
   xmlns:sodipodi="http://sodipodi.sourceforge.net/DTD/sodipodi-0.dtd"
   xmlns:inkscape="http://www.inkscape.org/namespaces/inkscape"
   width="128"
   height="128"
   viewBox="0 0 33.866666 33.866668"
   version="1.1"
   id="svg1083"
   inkscape:version="1.0.1 (3bc2e813f5, 2020-09-07)"
   sodipodi:docname="guake-prefs.svg">
  <defs
     id="defs1077">
    <radialGradient
       inkscape:collect="always"
       xlink:href="#linearGradient1630"
       id="radialGradient999"
       cx="16.921562"
       cy="3.5764127"
       fx="16.921562"
       fy="3.5764127"
       r="14.543719"
       gradientUnits="userSpaceOnUse"
       gradientTransform="matrix(3.212266,0,0,1.9627628,-37.296757,-3.4311506)" />
    <linearGradient
       id="linearGradient1630"
       inkscape:collect="always">
      <stop
         id="stop1626"
         offset="0"
         style="stop-color:#496c7e;stop-opacity:1" />
      <stop
         id="stop1628"
         offset="1"
         style="stop-color:#19587a;stop-opacity:1" />
    </linearGradient>
    <linearGradient
       inkscape:collect="always"
       xlink:href="#linearGradient1017"
       id="linearGradient1019"
       x1="10.331644"
       y1="17.337191"
       x2="14.458952"
       y2="24.485899"
       gradientUnits="userSpaceOnUse"
       gradientTransform="translate(0.1382381,0.01208669)" />
    <linearGradient
       inkscape:collect="always"
       id="linearGradient1017">
      <stop
         style="stop-color:#ffffff;stop-opacity:1;"
         offset="0"
         id="stop1013" />
      <stop
         style="stop-color:#ffffff;stop-opacity:0;"
         offset="1"
         id="stop1015" />
    </linearGradient>
    <linearGradient
       inkscape:collect="always"
       xlink:href="#linearGradient1027"
       id="linearGradient1021"
       x1="22.46747"
       y1="17.985344"
       x2="22.46747"
       y2="20.053162"
       gradientUnits="userSpaceOnUse"
       gradientTransform="translate(0.1382381,0.01208669)" />
    <linearGradient
       inkscape:collect="always"
       id="linearGradient1027">
      <stop
         style="stop-color:#ffffff;stop-opacity:1;"
         offset="0"
         id="stop1023" />
      <stop
         style="stop-color:#bcb9c0;stop-opacity:1"
         offset="1"
         id="stop1025" />
    </linearGradient>
    <radialGradient
       r="9.6332045"
       fy="24.249697"
       fx="24.249012"
       cy="24.249697"
       cx="24.249012"
       gradientTransform="matrix(0.90099289,0,0,0.90099289,2.9129923,3.1152925)"
       gradientUnits="userSpaceOnUse"
       id="radialGradient3771-9"
       xlink:href="#linearGradient1448-5"
       inkscape:collect="always" />
    <linearGradient
       id="linearGradient1448-5"
       inkscape:collect="always">
      <stop
         id="stop1444-0"
         offset="0"
         style="stop-color:#000000;stop-opacity:1;" />
      <stop
         style="stop-color:#000000;stop-opacity:0.87843137;"
         offset="0.59154558"
         id="stop1452-4" />
      <stop
         id="stop3720"
         offset="0.64783847"
         style="stop-color:#000000;stop-opacity:0.56470588;" />
      <stop
         style="stop-color:#000000;stop-opacity:0.5254902;"
         offset="0.68180484"
         id="stop3811" />
      <stop
         id="stop3809"
         offset="0.72749811"
         style="stop-color:#000000;stop-opacity:0.44313725;" />
      <stop
         id="stop3805"
         offset="0.79465342"
         style="stop-color:#000000;stop-opacity:0.28627451;" />
      <stop
         id="stop3801"
         offset="0.84311604"
         style="stop-color:#000000;stop-opacity:0.18431373;" />
      <stop
         style="stop-color:#000000;stop-opacity:0.07843137;"
         offset="0.90334809"
         id="stop3797" />
      <stop
         id="stop3787"
         offset="0.91996384"
         style="stop-color:#000000;stop-opacity:0.0627451;" />
      <stop
         id="stop3785"
         offset="0.931041"
         style="stop-color:#000000;stop-opacity:0.05490196;" />
      <stop
         id="stop3783"
         offset="0.95596462"
         style="stop-color:#000000;stop-opacity:0.03137255;" />
      <stop
         id="stop3781"
         offset="0.9608109"
         style="stop-color:#000000;stop-opacity:0.02745098;" />
      <stop
         id="stop3779"
         offset="0.99196541"
         style="stop-color:#000000;stop-opacity:0;" />
      <stop
         id="stop1446-8"
         offset="1"
         style="stop-color:#000000;stop-opacity:0;" />
    </linearGradient>
    <radialGradient
       r="9.6332045"
       fy="24.249697"
       fx="24.249012"
       cy="24.249697"
       cx="24.249012"
       gradientTransform="matrix(1.0025173,0,0,1.0025173,-0.21702267,0.03485748)"
       gradientUnits="userSpaceOnUse"
       id="radialGradient3815-1"
       xlink:href="#linearGradient5489"
       inkscape:collect="always" />
    <linearGradient
       inkscape:collect="always"
       id="linearGradient5489">
      <stop
         style="stop-color:#000000;stop-opacity:1;"
         offset="0"
         id="stop5461" />
      <stop
         id="stop5463"
         offset="0.7161625"
         style="stop-color:#000000;stop-opacity:0.7876448" />
      <stop
         style="stop-color:#000000;stop-opacity:0.6745098;"
         offset="0.74620646"
         id="stop5515" />
      <stop
         id="stop5517"
         offset="0.76304662"
         style="stop-color:#000000;stop-opacity:0.61960784;" />
      <stop
         id="stop5513"
         offset="0.78594917"
         style="stop-color:#000000;stop-opacity:0.54509804;" />
      <stop
         style="stop-color:#000000;stop-opacity:0.48627451;"
         offset="0.80683094"
         id="stop5509" />
      <stop
         id="stop5505"
         offset="0.86206657"
         style="stop-color:#000000;stop-opacity:0.29803922;" />
      <stop
         id="stop5503"
         offset="0.89035797"
         style="stop-color:#000000;stop-opacity:0.18823529;" />
      <stop
         id="stop5495"
         offset="0.92403823"
         style="stop-color:#000000;stop-opacity:0.08235294;" />
      <stop
         id="stop5493"
         offset="0.94289917"
         style="stop-color:#000000;stop-opacity:0.04313725;" />
      <stop
         style="stop-color:#000000;stop-opacity:0.03137255;"
         offset="0.95596462"
         id="stop5481" />
      <stop
         style="stop-color:#000000;stop-opacity:0.02745098;"
         offset="0.9608109"
         id="stop5483" />
      <stop
         style="stop-color:#000000;stop-opacity:0;"
         offset="0.99196541"
         id="stop5485" />
      <stop
         style="stop-color:#000000;stop-opacity:0;"
         offset="1"
         id="stop5487" />
    </linearGradient>
    <linearGradient
       inkscape:collect="always"
       xlink:href="#linearGradient2048"
       id="linearGradient2050"
       x1="43.56863"
       y1="5.8033667"
       x2="61.67614"
       y2="25.447678"
       gradientUnits="userSpaceOnUse"
       gradientTransform="translate(-32.24606,5.5003822)" />
    <linearGradient
       inkscape:collect="always"
       id="linearGradient2048">
      <stop
         style="stop-color:#bdc3c6;stop-opacity:1"
         offset="0"
         id="stop2044" />
      <stop
         style="stop-color:#ffffff;stop-opacity:1"
         offset="1"
         id="stop2046" />
    </linearGradient>
  </defs>
  <sodipodi:namedview
     id="base"
     pagecolor="#ffffff"
     bordercolor="#666666"
     borderopacity="1.0"
     inkscape:pageopacity="0.0"
     inkscape:pageshadow="2"
     inkscape:zoom="1.4"
     inkscape:cx="-111.95158"
     inkscape:cy="113.67766"
     inkscape:document-units="mm"
     inkscape:current-layer="layer1"
     inkscape:document-rotation="0"
     showgrid="false"
     units="px"
     inkscape:window-width="1920"
     inkscape:window-height="1027"
     inkscape:window-x="0"
     inkscape:window-y="25"
     inkscape:window-maximized="1" />
  <metadata
     id="metadata1080">
    <rdf:RDF>
      <cc:Work
         rdf:about="">
        <dc:format>image/svg+xml</dc:format>
        <dc:type
           rdf:resource="http://purl.org/dc/dcmitype/StillImage" />
        <dc:title></dc:title>
      </cc:Work>
    </rdf:RDF>
  </metadata>
  <g
     inkscape:label="Capa 1"
     inkscape:groupmode="layer"
     id="layer1">
    <g
       style="opacity:0.296765"
       transform="matrix(0.97573206,0,0,0.97573206,-65.610148,-37.191006)"
       id="g1702">
      <rect
         ry="6.6098609"
         rx="6.6098609"
         y="40.709618"
         x="69.839508"
         height="29.810888"
         width="29.810888"
         id="rect1634"
         style="fill:none;fill-opacity:1;stroke:#000000;stroke-width:0.1;stroke-linecap:round;stroke-linejoin:round;stroke-miterlimit:4;stroke-dasharray:none;stroke-opacity:0.02" />
      <rect
         style="fill:none;fill-opacity:1;stroke:#000000;stroke-width:0.2;stroke-linecap:round;stroke-linejoin:round;stroke-miterlimit:4;stroke-dasharray:none;stroke-opacity:0.02"
         id="rect1638"
         width="29.810888"
         height="29.810888"
         x="69.839508"
         y="40.709618"
         rx="6.6098609"
         ry="6.6098609" />
      <rect
         ry="6.6098609"
         rx="6.6098609"
         y="40.709618"
         x="69.839508"
         height="29.810888"
         width="29.810888"
         id="rect1640"
         style="fill:none;fill-opacity:1;stroke:#000000;stroke-width:0.3;stroke-linecap:round;stroke-linejoin:round;stroke-miterlimit:4;stroke-dasharray:none;stroke-opacity:0.02" />
      <rect
         style="fill:none;fill-opacity:1;stroke:#000000;stroke-width:0.4;stroke-linecap:round;stroke-linejoin:round;stroke-miterlimit:4;stroke-dasharray:none;stroke-opacity:0.02"
         id="rect1642"
         width="29.810888"
         height="29.810888"
         x="69.839508"
         y="40.709618"
         rx="6.6098609"
         ry="6.6098609" />
      <rect
         ry="6.6098609"
         rx="6.6098609"
         y="40.709618"
         x="69.839508"
         height="29.810888"
         width="29.810888"
         id="rect1644"
         style="fill:none;fill-opacity:1;stroke:#000000;stroke-width:0.5;stroke-linecap:round;stroke-linejoin:round;stroke-miterlimit:4;stroke-dasharray:none;stroke-opacity:0.02" />
      <rect
         style="fill:none;fill-opacity:1;stroke:#000000;stroke-width:0.6;stroke-linecap:round;stroke-linejoin:round;stroke-miterlimit:4;stroke-dasharray:none;stroke-opacity:0.02"
         id="rect1646"
         width="29.810888"
         height="29.810888"
         x="69.839508"
         y="40.709618"
         rx="6.6098609"
         ry="6.6098609" />
      <rect
         ry="6.6098609"
         rx="6.6098609"
         y="40.709618"
         x="69.839508"
         height="29.810888"
         width="29.810888"
         id="rect1648"
         style="fill:none;fill-opacity:1;stroke:#000000;stroke-width:0.7;stroke-linecap:round;stroke-linejoin:round;stroke-miterlimit:4;stroke-dasharray:none;stroke-opacity:0.02" />
      <rect
         style="fill:none;fill-opacity:1;stroke:#000000;stroke-width:0.8;stroke-linecap:round;stroke-linejoin:round;stroke-miterlimit:4;stroke-dasharray:none;stroke-opacity:0.02"
         id="rect1650"
         width="29.810888"
         height="29.810888"
         x="69.839508"
         y="40.709618"
         rx="6.6098609"
         ry="6.6098609" />
      <rect
         ry="6.6098609"
         rx="6.6098609"
         y="40.709618"
         x="69.839508"
         height="29.810888"
         width="29.810888"
         id="rect1652"
         style="fill:none;fill-opacity:1;stroke:#000000;stroke-width:1;stroke-linecap:round;stroke-linejoin:round;stroke-miterlimit:4;stroke-dasharray:none;stroke-opacity:0.02" />
      <rect
         style="fill:none;fill-opacity:1;stroke:#000000;stroke-width:1.2;stroke-linecap:round;stroke-linejoin:round;stroke-miterlimit:4;stroke-dasharray:none;stroke-opacity:0.02"
         id="rect1654"
         width="29.810888"
         height="29.810888"
         x="69.839508"
         y="40.709618"
         rx="6.6098609"
         ry="6.6098609" />
      <rect
         ry="6.6098609"
         rx="6.6098609"
         y="40.709618"
         x="69.839508"
         height="29.810888"
         width="29.810888"
         id="rect1656"
         style="fill:none;fill-opacity:1;stroke:#000000;stroke-width:1.4;stroke-linecap:round;stroke-linejoin:round;stroke-miterlimit:4;stroke-dasharray:none;stroke-opacity:0.02" />
      <rect
         style="fill:none;fill-opacity:1;stroke:#000000;stroke-width:1.6;stroke-linecap:round;stroke-linejoin:round;stroke-miterlimit:4;stroke-dasharray:none;stroke-opacity:0.02"
         id="rect1658"
         width="29.810888"
         height="29.810888"
         x="69.839508"
         y="40.709618"
         rx="6.6098609"
         ry="6.6098609" />
      <rect
         ry="6.6098609"
         rx="6.6098609"
         y="40.709618"
         x="69.839508"
         height="29.810888"
         width="29.810888"
         id="rect1660"
         style="fill:none;fill-opacity:1;stroke:#000000;stroke-width:1.8;stroke-linecap:round;stroke-linejoin:round;stroke-miterlimit:4;stroke-dasharray:none;stroke-opacity:0.02" />
      <rect
         style="fill:none;fill-opacity:1;stroke:#000000;stroke-width:2;stroke-linecap:round;stroke-linejoin:round;stroke-miterlimit:4;stroke-dasharray:none;stroke-opacity:0.02"
         id="rect1662"
         width="29.810888"
         height="29.810888"
         x="69.839508"
         y="40.709618"
         rx="6.6098609"
         ry="6.6098609" />
      <rect
         ry="6.6098609"
         rx="6.6098609"
         y="40.709618"
         x="69.839508"
         height="29.810888"
         width="29.810888"
         id="rect1664"
         style="fill:none;fill-opacity:1;stroke:#000000;stroke-width:2.2;stroke-linecap:round;stroke-linejoin:round;stroke-miterlimit:4;stroke-dasharray:none;stroke-opacity:0.02" />
      <rect
         style="fill:none;fill-opacity:1;stroke:#000000;stroke-width:2.6;stroke-linecap:round;stroke-linejoin:round;stroke-miterlimit:4;stroke-dasharray:none;stroke-opacity:0.02"
         id="rect1666"
         width="29.810888"
         height="29.810888"
         x="69.839508"
         y="40.709618"
         rx="6.6098609"
         ry="6.6098609" />
      <rect
         ry="6.6098609"
         rx="6.6098609"
         y="40.709618"
         x="69.839508"
         height="29.810888"
         width="29.810888"
         id="rect1668"
         style="fill:none;fill-opacity:1;stroke:#000000;stroke-width:3;stroke-linecap:round;stroke-linejoin:round;stroke-miterlimit:4;stroke-dasharray:none;stroke-opacity:0.02" />
      <rect
         style="fill:none;fill-opacity:1;stroke:#000000;stroke-width:3.4;stroke-linecap:round;stroke-linejoin:round;stroke-miterlimit:4;stroke-dasharray:none;stroke-opacity:0.02"
         id="rect1670"
         width="29.810888"
         height="29.810888"
         x="69.839508"
         y="40.709618"
         rx="6.6098609"
         ry="6.6098609" />
      <rect
         ry="6.6098609"
         rx="6.6098609"
         y="40.709618"
         x="69.839508"
         height="29.810888"
         width="29.810888"
         id="rect1672"
         style="fill:none;fill-opacity:1;stroke:#000000;stroke-width:3.8;stroke-linecap:round;stroke-linejoin:round;stroke-miterlimit:4;stroke-dasharray:none;stroke-opacity:0.02" />
      <rect
         style="fill:none;fill-opacity:1;stroke:#000000;stroke-width:4.2;stroke-linecap:round;stroke-linejoin:round;stroke-miterlimit:4;stroke-dasharray:none;stroke-opacity:0.02"
         id="rect1674"
         width="29.810888"
         height="29.810888"
         x="69.839508"
         y="40.709618"
         rx="6.6098609"
         ry="6.6098609" />
      <rect
         ry="6.6098609"
         rx="6.6098609"
         y="40.709618"
         x="69.839508"
         height="29.810888"
         width="29.810888"
         id="rect1676"
         style="fill:none;fill-opacity:1;stroke:#000000;stroke-width:4.6;stroke-linecap:round;stroke-linejoin:round;stroke-miterlimit:4;stroke-dasharray:none;stroke-opacity:0.02" />
      <rect
         style="fill:none;fill-opacity:1;stroke:#000000;stroke-width:5;stroke-linecap:round;stroke-linejoin:round;stroke-miterlimit:4;stroke-dasharray:none;stroke-opacity:0.02"
         id="rect1678"
         width="29.810888"
         height="29.810888"
         x="69.839508"
         y="40.709618"
         rx="6.6098609"
         ry="6.6098609" />
    </g>
    <rect
       ry="6.4494534"
       rx="6.4494534"
       y="2.5306742"
       x="2.5447848"
       height="29.08744"
       width="29.08744"
       id="rect849"
       style="fill:url(#radialGradient999);fill-opacity:1;stroke-width:2.68769;stroke-linecap:round;stroke-linejoin:round" />
    <path
       style="color:#000000;font-style:normal;font-variant:normal;font-weight:normal;font-stretch:normal;font-size:medium;line-height:normal;font-family:sans-serif;font-variant-ligatures:normal;font-variant-position:normal;font-variant-caps:normal;font-variant-numeric:normal;font-variant-alternates:normal;font-variant-east-asian:normal;font-feature-settings:normal;font-variation-settings:normal;text-indent:0;text-align:start;text-decoration:none;text-decoration-line:none;text-decoration-style:solid;text-decoration-color:#000000;letter-spacing:normal;word-spacing:normal;text-transform:none;writing-mode:lr-tb;direction:ltr;text-orientation:mixed;dominant-baseline:auto;baseline-shift:baseline;text-anchor:start;white-space:normal;shape-padding:0;shape-margin:0;inline-size:0;clip-rule:nonzero;display:inline;overflow:visible;visibility:visible;opacity:1;isolation:auto;mix-blend-mode:normal;color-interpolation:sRGB;color-interpolation-filters:linearRGB;solid-color:#000000;solid-opacity:1;vector-effect:none;fill:#000000;fill-opacity:0.140933;fill-rule:nonzero;stroke:none;stroke-width:1.6;stroke-linecap:round;stroke-linejoin:round;stroke-miterlimit:4;stroke-dasharray:none;stroke-dashoffset:0;stroke-opacity:1;color-rendering:auto;image-rendering:auto;shape-rendering:auto;text-rendering:auto;enable-background:accumulate;stop-color:#000000;stop-opacity:1"
       d="m 11.154339,11.812039 c -0.274306,0.0074 -0.525696,0.154809 -0.666015,0.390625 -0.22518,0.379734 -0.100185,0.870099 0.279296,1.095702 l 5.13086,3.04297 -5.113281,2.871093 c -0.385891,0.216069 -0.523248,0.704255 -0.30664,1.089844 0.216746,0.385176 0.704767,0.521612 1.089843,0.304688 l 6.320312,-3.548828 c 0.536216,-0.301368 0.250838,-1.688239 -0.277555,-2.003122 l -6.456817,-3.242972 c -0.129861,-0.0769 0.150863,-0.0042 0,0 z"
       id="path1009"
       sodipodi:nodetypes="scccccccccss" />
    <path
       style="color:#000000;font-style:normal;font-variant:normal;font-weight:normal;font-stretch:normal;font-size:medium;line-height:normal;font-family:sans-serif;font-variant-ligatures:normal;font-variant-position:normal;font-variant-caps:normal;font-variant-numeric:normal;font-variant-alternates:normal;font-variant-east-asian:normal;font-feature-settings:normal;font-variation-settings:normal;text-indent:0;text-align:start;text-decoration:none;text-decoration-line:none;text-decoration-style:solid;text-decoration-color:#000000;letter-spacing:normal;word-spacing:normal;text-transform:none;writing-mode:lr-tb;direction:ltr;text-orientation:mixed;dominant-baseline:auto;baseline-shift:baseline;text-anchor:start;white-space:normal;shape-padding:0;shape-margin:0;inline-size:0;clip-rule:nonzero;display:inline;overflow:visible;visibility:visible;opacity:1;isolation:auto;mix-blend-mode:normal;color-interpolation:sRGB;color-interpolation-filters:linearRGB;solid-color:#000000;solid-opacity:1;vector-effect:none;fill:url(#linearGradient1019);fill-opacity:1;fill-rule:nonzero;stroke:none;stroke-width:1.6;stroke-linecap:round;stroke-linejoin:round;stroke-miterlimit:4;stroke-dasharray:none;stroke-dashoffset:0;stroke-opacity:1;color-rendering:auto;image-rendering:auto;shape-rendering:auto;text-rendering:auto;enable-background:accumulate;stop-color:#000000;stop-opacity:1"
       d="M 10.038629,10.744509 A 0.80000001,0.80000001 0 0 0 9.3726132,11.135134 0.80000001,0.80000001 0 0 0 9.65191,12.230838 l 5.13086,3.042969 -5.1132819,2.871093 a 0.80000001,0.80000001 0 0 0 -0.3066404,1.089844 0.80000001,0.80000001 0 0 0 1.0898433,0.304688 l 6.320313,-3.548829 a 0.80008002,0.80008002 0 0 0 0.01758,-1.384765 l -6.322264,-3.75 a 0.80000001,0.80000001 0 0 0 -0.429691,-0.111329 z"
       id="path1003" />
    <path
       style="color:#000000;font-style:normal;font-variant:normal;font-weight:normal;font-stretch:normal;font-size:medium;line-height:normal;font-family:sans-serif;font-variant-ligatures:normal;font-variant-position:normal;font-variant-caps:normal;font-variant-numeric:normal;font-variant-alternates:normal;font-variant-east-asian:normal;font-feature-settings:normal;font-variation-settings:normal;text-indent:0;text-align:start;text-decoration:none;text-decoration-line:none;text-decoration-style:solid;text-decoration-color:#000000;letter-spacing:normal;word-spacing:normal;text-transform:none;writing-mode:lr-tb;direction:ltr;text-orientation:mixed;dominant-baseline:auto;baseline-shift:baseline;text-anchor:start;white-space:normal;shape-padding:0;shape-margin:0;inline-size:0;clip-rule:nonzero;display:inline;overflow:visible;visibility:visible;opacity:1;isolation:auto;mix-blend-mode:normal;color-interpolation:sRGB;color-interpolation-filters:linearRGB;solid-color:#000000;solid-opacity:1;vector-effect:none;fill:#000000;fill-opacity:0.140933;fill-rule:nonzero;stroke:none;stroke-width:1.8;stroke-linecap:round;stroke-linejoin:miter;stroke-miterlimit:4;stroke-dasharray:none;stroke-dashoffset:0;stroke-opacity:1;color-rendering:auto;image-rendering:auto;shape-rendering:auto;text-rendering:auto;enable-background:accumulate;stop-color:#000000;stop-opacity:1"
       d="m 19.870149,18.578021 c -0.497362,-2.16e-4 -0.900607,0.403029 -0.900391,0.900391 -2.16e-4,0.497362 0.403029,1.641877 0.900391,1.641661 h 5.974609 c 0.497362,2.16e-4 0.900608,-1.144299 0.900391,-1.641661 2.17e-4,-0.497362 -0.403029,-0.900607 -0.900391,-0.900391 z"
       id="path1011"
       sodipodi:nodetypes="ccccccc" />
    <path
       style="color:#000000;font-style:normal;font-variant:normal;font-weight:normal;font-stretch:normal;font-size:medium;line-height:normal;font-family:sans-serif;font-variant-ligatures:normal;font-variant-position:normal;font-variant-caps:normal;font-variant-numeric:normal;font-variant-alternates:normal;font-variant-east-asian:normal;font-feature-settings:normal;font-variation-settings:normal;text-indent:0;text-align:start;text-decoration:none;text-decoration-line:none;text-decoration-style:solid;text-decoration-color:#000000;letter-spacing:normal;word-spacing:normal;text-transform:none;writing-mode:lr-tb;direction:ltr;text-orientation:mixed;dominant-baseline:auto;baseline-shift:baseline;text-anchor:start;white-space:normal;shape-padding:0;shape-margin:0;inline-size:0;clip-rule:nonzero;display:inline;overflow:visible;visibility:visible;opacity:1;isolation:auto;mix-blend-mode:normal;color-interpolation:sRGB;color-interpolation-filters:linearRGB;solid-color:#000000;solid-opacity:1;vector-effect:none;fill:url(#linearGradient1021);fill-opacity:1;fill-rule:nonzero;stroke:none;stroke-width:1.8;stroke-linecap:round;stroke-linejoin:miter;stroke-miterlimit:4;stroke-dasharray:none;stroke-dashoffset:0;stroke-opacity:1;color-rendering:auto;image-rendering:auto;shape-rendering:auto;text-rendering:auto;enable-background:accumulate;stop-color:#000000;stop-opacity:1"
       d="m 18.567926,18.109744 a 0.9,0.9 0 0 0 -0.900391,0.900391 0.9,0.9 0 0 0 0.900391,0.900391 h 5.974609 a 0.9,0.9 0 0 0 0.900391,-0.900391 0.9,0.9 0 0 0 -0.900391,-0.900391 z"
       id="path1007" />
    <path
       inkscape:connector-curvature="0"
       id="path3767-8"
       d="m 24.76112,16.284708 a 8.6794499,8.6794499 0 0 0 -8.679286,8.679289 8.6794499,8.6794499 0 0 0 8.679286,8.679528 8.6794499,8.6794499 0 0 0 8.679531,-8.679528 8.6794499,8.6794499 0 0 0 -8.679531,-8.679289 z"
       style="opacity:1;fill:url(#radialGradient3771-9);fill-opacity:1;stroke-width:2.05028" />
    <path
       style="opacity:0.172;fill:url(#radialGradient3815-1);fill-opacity:1;stroke-width:2.28131"
       d="m 24.092966,14.688213 a 9.6574562,9.6574562 0 0 0 -9.657274,9.657277 9.6574562,9.6574562 0 0 0 9.657274,9.657543 9.6574562,9.6574562 0 0 0 9.657546,-9.657543 9.6574562,9.6574562 0 0 0 -9.657546,-9.657277 z"
       id="path3813-6"
       inkscape:connector-curvature="0" />
    <path
       inkscape:connector-curvature="0"
       style="fill:url(#linearGradient2050);fill-opacity:1;stroke-width:1.93796"
       d="m 32.451223,24.33314 a 7.6911769,7.6911769 0 0 1 -7.691178,7.691178 7.6911769,7.6911769 0 0 1 -7.691177,-7.691178 7.6911769,7.6911769 0 0 1 7.691177,-7.691178 7.6911769,7.6911769 0 0 1 7.691178,7.691178 z"
       id="circle2973-0-2-9" />
    <path
       inkscape:connector-curvature="0"
       id="rect916-1-7-0"
       d="m 24.516119,19.62087 c -0.102561,0 -0.185132,0.0826 -0.185132,0.18513 v 0.93046 a 3.6268276,3.6268276 0 0 0 -0.997995,0.26673 l -0.464887,-0.80533 c -0.05128,-0.0888 -0.164192,-0.11881 -0.253013,-0.0675 l -0.422717,0.24375 c -0.08882,0.0513 -0.118819,0.1642 -0.06754,0.25302 l 0.464886,0.80498 a 3.6268276,3.6268276 0 0 0 -0.730242,0.73126 l -0.805665,-0.46523 c -0.08882,-0.0513 -0.201389,-0.0213 -0.252669,0.0675 l -0.244101,0.42272 c -0.05128,0.0888 -0.02128,0.20172 0.06754,0.25301 l 0.802579,0.46351 a 3.6268276,3.6268276 0 0 0 -0.265698,0.99903 h -0.928742 c -0.102562,0 -0.185132,0.0826 -0.185132,0.18513 v 0.4882 c 0,0.10255 0.08257,0.18512 0.185132,0.18512 h 0.930457 a 3.6268276,3.6268276 0 0 0 0.267068,0.99766 l -0.805664,0.46523 c -0.08882,0.0513 -0.118819,0.16385 -0.06754,0.25267 l 0.244101,0.42272 c 0.05128,0.0888 0.163849,0.11916 0.252669,0.0679 l 0.805323,-0.46489 a 3.6268276,3.6268276 0 0 0 0.730927,0.7299 l -0.465229,0.80567 c -0.05128,0.0888 -0.02128,0.20173 0.06754,0.25301 l 0.422717,0.24409 c 0.08882,0.0513 0.201734,0.021 0.253013,-0.0679 l 0.463172,-0.80258 a 3.6268276,3.6268276 0 0 0 0.99971,0.26604 v 0.9284 c 0,0.10256 0.08257,0.18513 0.185132,0.18513 h 0.487856 c 0.102561,0 0.185131,-0.0826 0.185131,-0.18513 v -0.93046 a 3.6268276,3.6268276 0 0 0 0.997997,-0.26672 l 0.464886,0.80532 c 0.05128,0.0888 0.164192,0.11916 0.253013,0.0679 l 0.422373,-0.24409 c 0.08882,-0.0513 0.119163,-0.16419 0.06788,-0.25301 l -0.464886,-0.80498 a 3.6268276,3.6268276 0 0 0 0.730242,-0.73093 l 0.805664,0.46523 c 0.08882,0.0513 0.20139,0.021 0.252669,-0.0679 l 0.2441,-0.42272 c 0.05128,-0.0888 0.02093,-0.20139 -0.06788,-0.25267 l -0.802579,-0.46317 a 3.6268276,3.6268276 0 0 0 0.266041,-0.99972 h 0.928743 c 0.10256,0 0.185131,-0.0826 0.185131,-0.18512 v -0.4882 c 0,-0.10256 -0.08257,-0.18513 -0.185131,-0.18513 h -0.930458 a 3.6268276,3.6268276 0 0 0 -0.26707,-0.99766 l 0.805323,-0.46488 c 0.08882,-0.0513 0.119163,-0.1642 0.06788,-0.25301 l -0.2441,-0.42272 c -0.05128,-0.0888 -0.163848,-0.11882 -0.252669,-0.0675 l -0.804979,0.4649 a 3.6268276,3.6268276 0 0 0 -0.731271,-0.73025 l 0.46523,-0.80566 c 0.05128,-0.0888 0.02093,-0.20173 -0.06788,-0.25302 l -0.422373,-0.24375 c -0.08882,-0.0513 -0.201735,-0.0213 -0.253013,0.0675 l -0.463172,0.80259 A 3.6268276,3.6268276 0 0 0 25.189106,20.7344 V 19.806 c 0,-0.10256 -0.08257,-0.18513 -0.185131,-0.18513 z m 0.243756,2.69264 a 2.0195791,2.0195791 0 0 1 2.019648,2.01965 2.0195791,2.0195791 0 0 1 -2.019648,2.01964 2.0195791,2.0195791 0 0 1 -2.019304,-2.01964 2.0195791,2.0195791 0 0 1 2.019304,-2.01965 z"
       style="opacity:1;fill:#1e5a7a;fill-opacity:1;stroke:none;stroke-width:0.70213;stroke-linecap:round;stroke-linejoin:round;stroke-miterlimit:4;stroke-dasharray:none;stroke-dashoffset:0;stroke-opacity:0.0532319;paint-order:fill markers stroke" />
  </g>
</svg>
