<?xml version="1.0" encoding="UTF-8" standalone="no"?>
<svg
   width="128"
   height="128"
   viewBox="0 0 33.866666 33.866668"
   version="1.1"
   id="svg1443"
   inkscape:version="1.1.2 (0a00cf5339, 2022-02-04)"
   sodipodi:docname="half-life2.svg"
   xmlns:inkscape="http://www.inkscape.org/namespaces/inkscape"
   xmlns:sodipodi="http://sodipodi.sourceforge.net/DTD/sodipodi-0.dtd"
   xmlns:xlink="http://www.w3.org/1999/xlink"
   xmlns="http://www.w3.org/2000/svg"
   xmlns:svg="http://www.w3.org/2000/svg"
   xmlns:rdf="http://www.w3.org/1999/02/22-rdf-syntax-ns#"
   xmlns:cc="http://creativecommons.org/ns#"
   xmlns:dc="http://purl.org/dc/elements/1.1/">
  <defs
     id="defs1437">
    <linearGradient
       inkscape:collect="always"
       id="linearGradient960">
      <stop
         style="stop-color:#fbd101;stop-opacity:1"
         offset="0"
         id="stop956" />
      <stop
         style="stop-color:#ffa139;stop-opacity:0.99521941"
         offset="1"
         id="stop958" />
    </linearGradient>
    <linearGradient
       gradientTransform="matrix(0.97573206,0,0,0.97573206,-111.76517,-37.182508)"
       gradientUnits="userSpaceOnUse"
       y2="70.679932"
       x2="132.21078"
       y1="42.151531"
       x1="132.21078"
       id="linearGradient1632"
       xlink:href="#linearGradient1630"
       inkscape:collect="always" />
    <linearGradient
       id="linearGradient1630"
       inkscape:collect="always">
      <stop
         id="stop1626"
         offset="0"
         style="stop-color:#313338;stop-opacity:1" />
      <stop
         id="stop1628"
         offset="1"
         style="stop-color:#292c33;stop-opacity:1" />
    </linearGradient>
    <filter
       color-interpolation-filters="sRGB"
       height="1.1311001"
       width="1.1106"
       y="-0.065563001"
       x="-0.055319"
       id="c-9">
      <feGaussianBlur
         id="feGaussianBlur1093"
         stdDeviation="1.1062912" />
    </filter>
    <linearGradient
       gradientUnits="userSpaceOnUse"
       gradientTransform="matrix(0.13235,0,0,0.13075,-32.379,1.0873)"
       y2="269.48999"
       y1="235.14999"
       x2="657.65002"
       x1="319.20999"
       id="a-12">
      <stop
         id="stop1076"
         offset="0"
         stop-color="#e54c18" />
      <stop
         id="stop1078"
         offset="1"
         stop-color="#fec350" />
    </linearGradient>
    <linearGradient
       inkscape:collect="always"
       xlink:href="#linearGradient960"
       id="linearGradient962"
       x1="5.4192772"
       y1="0.64870965"
       x2="25.948286"
       y2="19.768625"
       gradientUnits="userSpaceOnUse" />
  </defs>
  <sodipodi:namedview
     id="base"
     pagecolor="#ffffff"
     bordercolor="#666666"
     borderopacity="1.0"
     inkscape:pageopacity="0.0"
     inkscape:pageshadow="2"
     inkscape:zoom="1.979899"
     inkscape:cx="-27.779195"
     inkscape:cy="78.034284"
     inkscape:document-units="mm"
     inkscape:current-layer="layer1"
     inkscape:document-rotation="0"
     showgrid="false"
     units="px"
     inkscape:window-width="1920"
     inkscape:window-height="1028"
     inkscape:window-x="0"
     inkscape:window-y="24"
     inkscape:window-maximized="1"
     inkscape:pagecheckerboard="0" />
  <metadata
     id="metadata1440">
    <rdf:RDF>
      <cc:Work
         rdf:about="">
        <dc:format>image/svg+xml</dc:format>
        <dc:type
           rdf:resource="http://purl.org/dc/dcmitype/StillImage" />
      </cc:Work>
    </rdf:RDF>
  </metadata>
  <g
     inkscape:label="Capa 1"
     inkscape:groupmode="layer"
     id="layer1">
    <g
       style="opacity:0.295"
       transform="matrix(0.97573206,0,0,0.97573206,-65.737228,-37.182508)"
       id="g1702">
      <rect
         ry="6.6098609"
         rx="6.6098609"
         y="40.709618"
         x="69.839508"
         height="29.810888"
         width="29.810888"
         id="rect1634"
         style="fill:none;fill-opacity:1;stroke:#000000;stroke-width:0.1;stroke-linecap:round;stroke-linejoin:round;stroke-miterlimit:4;stroke-dasharray:none;stroke-opacity:0.02" />
      <rect
         style="fill:none;fill-opacity:1;stroke:#000000;stroke-width:0.2;stroke-linecap:round;stroke-linejoin:round;stroke-miterlimit:4;stroke-dasharray:none;stroke-opacity:0.02"
         id="rect1638"
         width="29.810888"
         height="29.810888"
         x="69.839508"
         y="40.709618"
         rx="6.6098609"
         ry="6.6098609" />
      <rect
         ry="6.6098609"
         rx="6.6098609"
         y="40.709618"
         x="69.839508"
         height="29.810888"
         width="29.810888"
         id="rect1640"
         style="fill:none;fill-opacity:1;stroke:#000000;stroke-width:0.3;stroke-linecap:round;stroke-linejoin:round;stroke-miterlimit:4;stroke-dasharray:none;stroke-opacity:0.02" />
      <rect
         style="fill:none;fill-opacity:1;stroke:#000000;stroke-width:0.4;stroke-linecap:round;stroke-linejoin:round;stroke-miterlimit:4;stroke-dasharray:none;stroke-opacity:0.02"
         id="rect1642"
         width="29.810888"
         height="29.810888"
         x="69.839508"
         y="40.709618"
         rx="6.6098609"
         ry="6.6098609" />
      <rect
         ry="6.6098609"
         rx="6.6098609"
         y="40.709618"
         x="69.839508"
         height="29.810888"
         width="29.810888"
         id="rect1644"
         style="fill:none;fill-opacity:1;stroke:#000000;stroke-width:0.5;stroke-linecap:round;stroke-linejoin:round;stroke-miterlimit:4;stroke-dasharray:none;stroke-opacity:0.02" />
      <rect
         style="fill:none;fill-opacity:1;stroke:#000000;stroke-width:0.6;stroke-linecap:round;stroke-linejoin:round;stroke-miterlimit:4;stroke-dasharray:none;stroke-opacity:0.02"
         id="rect1646"
         width="29.810888"
         height="29.810888"
         x="69.839508"
         y="40.709618"
         rx="6.6098609"
         ry="6.6098609" />
      <rect
         ry="6.6098609"
         rx="6.6098609"
         y="40.709618"
         x="69.839508"
         height="29.810888"
         width="29.810888"
         id="rect1648"
         style="fill:none;fill-opacity:1;stroke:#000000;stroke-width:0.7;stroke-linecap:round;stroke-linejoin:round;stroke-miterlimit:4;stroke-dasharray:none;stroke-opacity:0.02" />
      <rect
         style="fill:none;fill-opacity:1;stroke:#000000;stroke-width:0.8;stroke-linecap:round;stroke-linejoin:round;stroke-miterlimit:4;stroke-dasharray:none;stroke-opacity:0.02"
         id="rect1650"
         width="29.810888"
         height="29.810888"
         x="69.839508"
         y="40.709618"
         rx="6.6098609"
         ry="6.6098609" />
      <rect
         ry="6.6098609"
         rx="6.6098609"
         y="40.709618"
         x="69.839508"
         height="29.810888"
         width="29.810888"
         id="rect1652"
         style="fill:none;fill-opacity:1;stroke:#000000;stroke-width:1;stroke-linecap:round;stroke-linejoin:round;stroke-miterlimit:4;stroke-dasharray:none;stroke-opacity:0.02" />
      <rect
         style="fill:none;fill-opacity:1;stroke:#000000;stroke-width:1.2;stroke-linecap:round;stroke-linejoin:round;stroke-miterlimit:4;stroke-dasharray:none;stroke-opacity:0.02"
         id="rect1654"
         width="29.810888"
         height="29.810888"
         x="69.839508"
         y="40.709618"
         rx="6.6098609"
         ry="6.6098609" />
      <rect
         ry="6.6098609"
         rx="6.6098609"
         y="40.709618"
         x="69.839508"
         height="29.810888"
         width="29.810888"
         id="rect1656"
         style="fill:none;fill-opacity:1;stroke:#000000;stroke-width:1.4;stroke-linecap:round;stroke-linejoin:round;stroke-miterlimit:4;stroke-dasharray:none;stroke-opacity:0.02" />
      <rect
         style="fill:none;fill-opacity:1;stroke:#000000;stroke-width:1.6;stroke-linecap:round;stroke-linejoin:round;stroke-miterlimit:4;stroke-dasharray:none;stroke-opacity:0.02"
         id="rect1658"
         width="29.810888"
         height="29.810888"
         x="69.839508"
         y="40.709618"
         rx="6.6098609"
         ry="6.6098609" />
      <rect
         ry="6.6098609"
         rx="6.6098609"
         y="40.709618"
         x="69.839508"
         height="29.810888"
         width="29.810888"
         id="rect1660"
         style="fill:none;fill-opacity:1;stroke:#000000;stroke-width:1.8;stroke-linecap:round;stroke-linejoin:round;stroke-miterlimit:4;stroke-dasharray:none;stroke-opacity:0.02" />
      <rect
         style="fill:none;fill-opacity:1;stroke:#000000;stroke-width:2;stroke-linecap:round;stroke-linejoin:round;stroke-miterlimit:4;stroke-dasharray:none;stroke-opacity:0.02"
         id="rect1662"
         width="29.810888"
         height="29.810888"
         x="69.839508"
         y="40.709618"
         rx="6.6098609"
         ry="6.6098609" />
      <rect
         ry="6.6098609"
         rx="6.6098609"
         y="40.709618"
         x="69.839508"
         height="29.810888"
         width="29.810888"
         id="rect1664"
         style="fill:none;fill-opacity:1;stroke:#000000;stroke-width:2.2;stroke-linecap:round;stroke-linejoin:round;stroke-miterlimit:4;stroke-dasharray:none;stroke-opacity:0.02" />
      <rect
         style="fill:none;fill-opacity:1;stroke:#000000;stroke-width:2.6;stroke-linecap:round;stroke-linejoin:round;stroke-miterlimit:4;stroke-dasharray:none;stroke-opacity:0.02"
         id="rect1666"
         width="29.810888"
         height="29.810888"
         x="69.839508"
         y="40.709618"
         rx="6.6098609"
         ry="6.6098609" />
      <rect
         ry="6.6098609"
         rx="6.6098609"
         y="40.709618"
         x="69.839508"
         height="29.810888"
         width="29.810888"
         id="rect1668"
         style="fill:none;fill-opacity:1;stroke:#000000;stroke-width:3;stroke-linecap:round;stroke-linejoin:round;stroke-miterlimit:4;stroke-dasharray:none;stroke-opacity:0.02" />
      <rect
         style="fill:none;fill-opacity:1;stroke:#000000;stroke-width:3.4;stroke-linecap:round;stroke-linejoin:round;stroke-miterlimit:4;stroke-dasharray:none;stroke-opacity:0.02"
         id="rect1670"
         width="29.810888"
         height="29.810888"
         x="69.839508"
         y="40.709618"
         rx="6.6098609"
         ry="6.6098609" />
      <rect
         ry="6.6098609"
         rx="6.6098609"
         y="40.709618"
         x="69.839508"
         height="29.810888"
         width="29.810888"
         id="rect1672"
         style="fill:none;fill-opacity:1;stroke:#000000;stroke-width:3.8;stroke-linecap:round;stroke-linejoin:round;stroke-miterlimit:4;stroke-dasharray:none;stroke-opacity:0.02" />
      <rect
         style="fill:none;fill-opacity:1;stroke:#000000;stroke-width:4.2;stroke-linecap:round;stroke-linejoin:round;stroke-miterlimit:4;stroke-dasharray:none;stroke-opacity:0.02"
         id="rect1674"
         width="29.810888"
         height="29.810888"
         x="69.839508"
         y="40.709618"
         rx="6.6098609"
         ry="6.6098609" />
      <rect
         ry="6.6098609"
         rx="6.6098609"
         y="40.709618"
         x="69.839508"
         height="29.810888"
         width="29.810888"
         id="rect1676"
         style="fill:none;fill-opacity:1;stroke:#000000;stroke-width:4.6;stroke-linecap:round;stroke-linejoin:round;stroke-miterlimit:4;stroke-dasharray:none;stroke-opacity:0.02" />
      <rect
         style="fill:none;fill-opacity:1;stroke:#000000;stroke-width:5;stroke-linecap:round;stroke-linejoin:round;stroke-miterlimit:4;stroke-dasharray:none;stroke-opacity:0.02"
         id="rect1678"
         width="29.810888"
         height="29.810888"
         x="69.839508"
         y="40.709618"
         rx="6.6098609"
         ry="6.6098609" />
    </g>
    <rect
       ry="6.4494534"
       rx="6.4494534"
       y="2.5391712"
       x="2.4074187"
       height="29.087439"
       width="29.087439"
       id="rect849"
       style="fill:url(#linearGradient1632);fill-opacity:1;stroke-width:2.68768;stroke-linecap:round;stroke-linejoin:round" />
    <path
       inkscape:connector-curvature="0"
       style="display:inline;fill:#000000;fill-opacity:0.09288;stroke-width:0.134447;enable-background:new"
       d="m 24.611394,10.348962 c -0.973309,0.0032 -2.013952,0.06913 -2.911756,0.06913 -2.003659,0 -3.969394,-0.07096 -5.708274,0.05763 -2.686561,0.198642 -4.678863,1.371981 -6.055918,2.854136 -1.4066769,1.514114 -2.5026498,3.658059 -2.5026498,6.28832 0,2.741877 1.0641978,4.790924 2.5026498,6.28832 1.36845,1.42444 3.394372,2.683333 5.940677,2.854135 4.696303,0.314749 7.822101,-2.314913 9.200076,-5.64873 0.894763,-2.164934 1.976491,-4.767416 2.911759,-7.045071 0.282601,-0.688124 0.838232,-1.562713 0.931531,-2.387408 0.185864,-1.643615 -0.69329,-2.591188 -1.805443,-3.02892 -0.6243,-0.245726 -1.529341,-0.304742 -2.502652,-0.301546 z m 0.831656,1.048693 c 0.658601,-0.02832 1.347235,0.420957 1.263812,1.290701 -0.09483,0.988859 -1.082899,1.680691 -1.5135,2.329789 h 1.5135 c 0.09096,0.133561 0.09096,0.565632 0,0.699128 -0.759855,-0.07475 -1.607798,-0.06211 -2.44503,-0.05953 -0.356421,-1.307112 1.851906,-2.18382 1.628739,-3.259404 -0.105282,-0.507306 -0.828431,-0.523762 -0.697209,0.232404 h -0.873911 c -0.0151,-0.810952 0.542481,-1.208098 1.123599,-1.233081 z m -8.742952,0.772114 c 2.24251,0.0075 3.861573,0.895739 4.99954,1.916843 1.428068,1.281421 2.749403,3.892029 2.270248,6.755048 -0.391204,2.33727 -1.704231,4.195218 -3.843289,5.356787 -2.327686,1.264148 -5.25075,1.075231 -7.337015,-0.174775 -2.013307,-1.206314 -3.9084223,-3.54457 -3.6108844,-7.221773 0.1582026,-1.955227 1.0083424,-3.312735 2.0973854,-4.425257 1.014736,-1.036678 2.440592,-1.940922 4.425258,-2.153087 0.3463,-0.03702 0.678396,-0.05485 0.998757,-0.05377 z m -2.571797,1.974465 v 1.573039 h 1.340636 c 0.128514,0.453775 0.364131,0.799421 0.464805,1.281097 -1.148844,1.96082 -2.465158,4.098124 -3.608964,5.996375 -0.148008,0.245603 -0.367818,0.539835 -0.349564,0.816292 h 1.978306 c 1.008157,-1.437534 1.875262,-3.016059 2.911755,-4.425257 0.575715,1.637037 1.261936,3.163135 1.805445,4.832442 1.102316,-0.275657 2.215654,-0.539559 3.144157,-0.989153 -0.261887,-0.436931 -0.303359,-1.095325 -0.581965,-1.51542 -0.439332,0.181752 -0.8947,0.349212 -1.39826,0.466726 -0.941166,-2.74673 -2.08577,-5.289532 -3.026997,-8.036141 z"
       id="path1269" />
    <path
       inkscape:connector-curvature="0"
       style="display:inline;fill:#000000;fill-opacity:0.09288;stroke-width:0.134447;enable-background:new"
       d="m 24.086322,9.7699551 c -0.973309,0.0032 -2.013952,0.06913 -2.911756,0.06913 -2.003659,0 -3.969394,-0.07096 -5.708274,0.05763 -2.686561,0.1986419 -4.678863,1.3719809 -6.0559183,2.8541359 -1.4066766,1.514114 -2.5026495,3.658059 -2.5026495,6.28832 0,2.741877 1.0641978,4.790924 2.5026495,6.28832 1.3684503,1.42444 3.3943723,2.683333 5.9406773,2.854135 4.696303,0.314749 7.822101,-2.314913 9.200076,-5.64873 0.894763,-2.164934 1.976491,-4.767416 2.911759,-7.045071 0.282601,-0.688124 0.838232,-1.562713 0.931531,-2.387408 0.185864,-1.643615 -0.69329,-2.591188 -1.805443,-3.02892 -0.6243,-0.2457259 -1.529341,-0.3047419 -2.502652,-0.3015459 z m 0.831656,1.0486929 c 0.658601,-0.02832 1.347235,0.420957 1.263812,1.290701 -0.09483,0.988859 -1.082899,1.680691 -1.5135,2.329789 h 1.5135 c 0.09096,0.133561 0.09096,0.565632 0,0.699128 -0.759855,-0.07475 -1.607798,-0.06211 -2.44503,-0.05953 -0.356421,-1.307112 1.851906,-2.18382 1.628739,-3.259404 -0.105282,-0.507306 -0.828431,-0.523762 -0.697209,0.232404 h -0.873911 c -0.0151,-0.810952 0.542481,-1.208098 1.123599,-1.233081 z m -8.742952,0.772114 c 2.24251,0.0075 3.861573,0.895739 4.99954,1.916843 1.428068,1.281421 2.749403,3.892029 2.270248,6.755048 -0.391204,2.33727 -1.704231,4.195218 -3.843289,5.356787 -2.327686,1.264148 -5.25075,1.075231 -7.337015,-0.174775 -2.013307,-1.206314 -3.9084223,-3.54457 -3.6108844,-7.221773 0.1582026,-1.955227 1.0083428,-3.312735 2.0973854,-4.425257 1.014736,-1.036678 2.440592,-1.940922 4.425258,-2.153087 0.3463,-0.03702 0.678396,-0.05485 0.998757,-0.05377 z m -2.571797,1.974465 v 1.573039 h 1.340636 c 0.128514,0.453775 0.364131,0.799421 0.464805,1.281097 -1.148844,1.96082 -2.465158,4.098124 -3.608964,5.996375 -0.148008,0.245603 -0.367818,0.539835 -0.349564,0.816292 h 1.978306 c 1.008157,-1.437534 1.875262,-3.016059 2.911755,-4.425257 0.575715,1.637037 1.261936,3.163135 1.805445,4.832442 1.102316,-0.275657 2.215654,-0.539559 3.144157,-0.989153 -0.261887,-0.436931 -0.303359,-1.095325 -0.581965,-1.51542 -0.439332,0.181752 -0.8947,0.349212 -1.39826,0.466726 -0.941166,-2.74673 -2.08577,-5.289532 -3.026997,-8.036141 z"
       id="path1177" />
    <path
       inkscape:connector-curvature="0"
       style="display:inline;fill:url(#linearGradient962);fill-opacity:1;stroke-width:0.134447;enable-background:new"
       d="m 23.614964,9.0928397 c -0.973309,0.00318 -2.013952,0.069135 -2.911756,0.069135 -2.003659,0 -3.969394,-0.070963 -5.708274,0.057629 -2.686561,0.1986423 -4.678863,1.3719813 -6.0559187,2.8541363 -1.4066766,1.514114 -2.5026495,3.658059 -2.5026495,6.28832 0,2.741877 1.0641978,4.790924 2.5026495,6.28832 1.3684507,1.42444 3.3943727,2.683333 5.9406777,2.854135 4.696303,0.314749 7.822101,-2.314913 9.200076,-5.64873 0.894763,-2.164934 1.976491,-4.767416 2.911759,-7.045071 0.282601,-0.688124 0.838232,-1.562713 0.931531,-2.387408 0.185864,-1.643615 -0.69329,-2.591188 -1.805443,-3.02892 -0.6243,-0.2457258 -1.529341,-0.3047423 -2.502652,-0.3015463 z m 0.831656,1.0486933 c 0.658601,-0.02832 1.347235,0.420957 1.263812,1.290701 -0.09483,0.988859 -1.082899,1.680691 -1.5135,2.329789 h 1.5135 c 0.09096,0.133561 0.09096,0.565632 0,0.699128 -0.759855,-0.07475 -1.607798,-0.06211 -2.44503,-0.05953 -0.356421,-1.307112 1.851906,-2.18382 1.628739,-3.259404 -0.105282,-0.507306 -0.828431,-0.523762 -0.697209,0.232404 h -0.873911 c -0.0151,-0.810952 0.542481,-1.208098 1.123599,-1.233081 z m -8.742952,0.772114 c 2.24251,0.0075 3.861573,0.895739 4.99954,1.916843 1.428068,1.281421 2.749403,3.892029 2.270248,6.755048 -0.391204,2.33727 -1.704231,4.195218 -3.843289,5.356787 -2.327686,1.264148 -5.25075,1.075231 -7.337015,-0.174775 C 9.779845,23.561236 7.8847293,21.22298 8.1822672,17.545777 8.3404698,15.59055 9.1906097,14.233042 10.279653,13.12052 c 1.014736,-1.036678 2.440592,-1.940922 4.425258,-2.153087 0.3463,-0.03702 0.678396,-0.05485 0.998757,-0.05377 z m -2.571797,1.974465 v 1.573039 h 1.340636 c 0.128514,0.453775 0.364131,0.799421 0.464805,1.281097 -1.148844,1.96082 -2.465158,4.098124 -3.608964,5.996375 -0.148008,0.245603 -0.367818,0.539835 -0.349564,0.816292 h 1.978306 c 1.008157,-1.437534 1.875262,-3.016059 2.911755,-4.425257 0.575715,1.637037 1.261936,3.163135 1.805445,4.832442 1.102316,-0.275657 2.215654,-0.539559 3.144157,-0.989153 -0.261887,-0.436931 -0.303359,-1.095325 -0.581965,-1.51542 -0.439332,0.181752 -0.8947,0.349212 -1.39826,0.466726 -0.941166,-2.74673 -2.08577,-5.289532 -3.026997,-8.036141 z"
       id="path7" />
  </g>
</svg>
