<?xml version="1.0" encoding="UTF-8" standalone="no"?>
<!-- Created with Inkscape (http://www.inkscape.org/) -->

<svg
   width="128"
   height="128"
   viewBox="0 0 33.866666 33.866668"
   version="1.1"
   id="svg1618"
   sodipodi:docname="harmony.svg"
   inkscape:version="1.2.2 (b0a8486541, 2022-12-01)"
   xmlns:inkscape="http://www.inkscape.org/namespaces/inkscape"
   xmlns:sodipodi="http://sodipodi.sourceforge.net/DTD/sodipodi-0.dtd"
   xmlns:xlink="http://www.w3.org/1999/xlink"
   xmlns="http://www.w3.org/2000/svg"
   xmlns:svg="http://www.w3.org/2000/svg">
  <sodipodi:namedview
     id="namedview1620"
     pagecolor="#ffffff"
     bordercolor="#666666"
     borderopacity="1.0"
     inkscape:pageshadow="2"
     inkscape:pageopacity="0.0"
     inkscape:pagecheckerboard="0"
     inkscape:document-units="mm"
     showgrid="false"
     units="px"
     inkscape:zoom="4.6823232"
     inkscape:cx="52.004099"
     inkscape:cy="63.963974"
     inkscape:window-width="1920"
     inkscape:window-height="1020"
     inkscape:window-x="0"
     inkscape:window-y="0"
     inkscape:window-maximized="1"
     inkscape:current-layer="layer1"
     inkscape:showpageshadow="2"
     inkscape:deskcolor="#d1d1d1" />
  <defs
     id="defs1615">
    <linearGradient
       gradientTransform="matrix(0.97573206,0,0,0.97573206,-111.7006,-37.237743)"
       gradientUnits="userSpaceOnUse"
       y2="70.679932"
       x2="132.21078"
       y1="40.94593"
       x1="132.16373"
       id="linearGradient1632"
       xlink:href="#linearGradient1630"
       inkscape:collect="always" />
    <linearGradient
       id="linearGradient1630"
       inkscape:collect="always">
      <stop
         id="stop1626"
         offset="0"
         style="stop-color:#b2194f;stop-opacity:0.89411765" />
      <stop
         id="stop1628"
         offset="1"
         style="stop-color:#fc6465;stop-opacity:1" />
    </linearGradient>
  </defs>
  <g
     inkscape:label="Capa 1"
     inkscape:groupmode="layer"
     id="layer1">
    <g
       style="opacity:0.296765"
       transform="matrix(0.97573206,0,0,0.97573206,-65.68294,-37.237746)"
       id="g1702">
      <rect
         ry="6.6098609"
         rx="6.6098609"
         y="40.709618"
         x="69.839508"
         height="29.810888"
         width="29.810888"
         id="rect1634"
         style="fill:none;fill-opacity:1;stroke:#000000;stroke-width:0.1;stroke-linecap:round;stroke-linejoin:round;stroke-miterlimit:4;stroke-dasharray:none;stroke-opacity:0.02" />
      <rect
         style="fill:none;fill-opacity:1;stroke:#000000;stroke-width:0.2;stroke-linecap:round;stroke-linejoin:round;stroke-miterlimit:4;stroke-dasharray:none;stroke-opacity:0.02"
         id="rect1638"
         width="29.810888"
         height="29.810888"
         x="69.839508"
         y="40.709618"
         rx="6.6098609"
         ry="6.6098609" />
      <rect
         ry="6.6098609"
         rx="6.6098609"
         y="40.709618"
         x="69.839508"
         height="29.810888"
         width="29.810888"
         id="rect1640"
         style="fill:none;fill-opacity:1;stroke:#000000;stroke-width:0.3;stroke-linecap:round;stroke-linejoin:round;stroke-miterlimit:4;stroke-dasharray:none;stroke-opacity:0.02" />
      <rect
         style="fill:none;fill-opacity:1;stroke:#000000;stroke-width:0.4;stroke-linecap:round;stroke-linejoin:round;stroke-miterlimit:4;stroke-dasharray:none;stroke-opacity:0.02"
         id="rect1642"
         width="29.810888"
         height="29.810888"
         x="69.839508"
         y="40.709618"
         rx="6.6098609"
         ry="6.6098609" />
      <rect
         ry="6.6098609"
         rx="6.6098609"
         y="40.709618"
         x="69.839508"
         height="29.810888"
         width="29.810888"
         id="rect1644"
         style="fill:none;fill-opacity:1;stroke:#000000;stroke-width:0.5;stroke-linecap:round;stroke-linejoin:round;stroke-miterlimit:4;stroke-dasharray:none;stroke-opacity:0.02" />
      <rect
         style="fill:none;fill-opacity:1;stroke:#000000;stroke-width:0.6;stroke-linecap:round;stroke-linejoin:round;stroke-miterlimit:4;stroke-dasharray:none;stroke-opacity:0.02"
         id="rect1646"
         width="29.810888"
         height="29.810888"
         x="69.839508"
         y="40.709618"
         rx="6.6098609"
         ry="6.6098609" />
      <rect
         ry="6.6098609"
         rx="6.6098609"
         y="40.709618"
         x="69.839508"
         height="29.810888"
         width="29.810888"
         id="rect1648"
         style="fill:none;fill-opacity:1;stroke:#000000;stroke-width:0.7;stroke-linecap:round;stroke-linejoin:round;stroke-miterlimit:4;stroke-dasharray:none;stroke-opacity:0.02" />
      <rect
         style="fill:none;fill-opacity:1;stroke:#000000;stroke-width:0.8;stroke-linecap:round;stroke-linejoin:round;stroke-miterlimit:4;stroke-dasharray:none;stroke-opacity:0.02"
         id="rect1650"
         width="29.810888"
         height="29.810888"
         x="69.839508"
         y="40.709618"
         rx="6.6098609"
         ry="6.6098609" />
      <rect
         ry="6.6098609"
         rx="6.6098609"
         y="40.709618"
         x="69.839508"
         height="29.810888"
         width="29.810888"
         id="rect1652"
         style="fill:none;fill-opacity:1;stroke:#000000;stroke-width:1;stroke-linecap:round;stroke-linejoin:round;stroke-miterlimit:4;stroke-dasharray:none;stroke-opacity:0.02" />
      <rect
         style="fill:none;fill-opacity:1;stroke:#000000;stroke-width:1.2;stroke-linecap:round;stroke-linejoin:round;stroke-miterlimit:4;stroke-dasharray:none;stroke-opacity:0.02"
         id="rect1654"
         width="29.810888"
         height="29.810888"
         x="69.839508"
         y="40.709618"
         rx="6.6098609"
         ry="6.6098609" />
      <rect
         ry="6.6098609"
         rx="6.6098609"
         y="40.709618"
         x="69.839508"
         height="29.810888"
         width="29.810888"
         id="rect1656"
         style="fill:none;fill-opacity:1;stroke:#000000;stroke-width:1.4;stroke-linecap:round;stroke-linejoin:round;stroke-miterlimit:4;stroke-dasharray:none;stroke-opacity:0.02" />
      <rect
         style="fill:none;fill-opacity:1;stroke:#000000;stroke-width:1.6;stroke-linecap:round;stroke-linejoin:round;stroke-miterlimit:4;stroke-dasharray:none;stroke-opacity:0.02"
         id="rect1658"
         width="29.810888"
         height="29.810888"
         x="69.839508"
         y="40.709618"
         rx="6.6098609"
         ry="6.6098609" />
      <rect
         ry="6.6098609"
         rx="6.6098609"
         y="40.709618"
         x="69.839508"
         height="29.810888"
         width="29.810888"
         id="rect1660"
         style="fill:none;fill-opacity:1;stroke:#000000;stroke-width:1.8;stroke-linecap:round;stroke-linejoin:round;stroke-miterlimit:4;stroke-dasharray:none;stroke-opacity:0.02" />
      <rect
         style="fill:none;fill-opacity:1;stroke:#000000;stroke-width:2;stroke-linecap:round;stroke-linejoin:round;stroke-miterlimit:4;stroke-dasharray:none;stroke-opacity:0.02"
         id="rect1662"
         width="29.810888"
         height="29.810888"
         x="69.839508"
         y="40.709618"
         rx="6.6098609"
         ry="6.6098609" />
      <rect
         ry="6.6098609"
         rx="6.6098609"
         y="40.709618"
         x="69.839508"
         height="29.810888"
         width="29.810888"
         id="rect1664"
         style="fill:none;fill-opacity:1;stroke:#000000;stroke-width:2.2;stroke-linecap:round;stroke-linejoin:round;stroke-miterlimit:4;stroke-dasharray:none;stroke-opacity:0.02" />
      <rect
         style="fill:none;fill-opacity:1;stroke:#000000;stroke-width:2.6;stroke-linecap:round;stroke-linejoin:round;stroke-miterlimit:4;stroke-dasharray:none;stroke-opacity:0.02"
         id="rect1666"
         width="29.810888"
         height="29.810888"
         x="69.839508"
         y="40.709618"
         rx="6.6098609"
         ry="6.6098609" />
      <rect
         ry="6.6098609"
         rx="6.6098609"
         y="40.709618"
         x="69.839508"
         height="29.810888"
         width="29.810888"
         id="rect1668"
         style="fill:none;fill-opacity:1;stroke:#000000;stroke-width:3;stroke-linecap:round;stroke-linejoin:round;stroke-miterlimit:4;stroke-dasharray:none;stroke-opacity:0.02" />
      <rect
         style="fill:none;fill-opacity:1;stroke:#000000;stroke-width:3.4;stroke-linecap:round;stroke-linejoin:round;stroke-miterlimit:4;stroke-dasharray:none;stroke-opacity:0.02"
         id="rect1670"
         width="29.810888"
         height="29.810888"
         x="69.839508"
         y="40.709618"
         rx="6.6098609"
         ry="6.6098609" />
      <rect
         ry="6.6098609"
         rx="6.6098609"
         y="40.709618"
         x="69.839508"
         height="29.810888"
         width="29.810888"
         id="rect1672"
         style="fill:none;fill-opacity:1;stroke:#000000;stroke-width:3.8;stroke-linecap:round;stroke-linejoin:round;stroke-miterlimit:4;stroke-dasharray:none;stroke-opacity:0.02" />
      <rect
         style="fill:none;fill-opacity:1;stroke:#000000;stroke-width:4.2;stroke-linecap:round;stroke-linejoin:round;stroke-miterlimit:4;stroke-dasharray:none;stroke-opacity:0.02"
         id="rect1674"
         width="29.810888"
         height="29.810888"
         x="69.839508"
         y="40.709618"
         rx="6.6098609"
         ry="6.6098609" />
      <rect
         ry="6.6098609"
         rx="6.6098609"
         y="40.709618"
         x="69.839508"
         height="29.810888"
         width="29.810888"
         id="rect1676"
         style="fill:none;fill-opacity:1;stroke:#000000;stroke-width:4.6;stroke-linecap:round;stroke-linejoin:round;stroke-miterlimit:4;stroke-dasharray:none;stroke-opacity:0.02" />
      <rect
         style="fill:none;fill-opacity:1;stroke:#000000;stroke-width:5;stroke-linecap:round;stroke-linejoin:round;stroke-miterlimit:4;stroke-dasharray:none;stroke-opacity:0.02"
         id="rect1678"
         width="29.810888"
         height="29.810888"
         x="69.839508"
         y="40.709618"
         rx="6.6098609"
         ry="6.6098609" />
    </g>
    <path
       id="rect849"
       style="fill:url(#linearGradient1632);stroke-width:2.68768;stroke-linecap:round;stroke-linejoin:round"
       d="M 8.9214425,2.4839361 H 25.109974 c 3.572998,0 6.449454,2.8764562 6.449454,6.4494533 V 25.121921 c 0,3.572997 -2.876456,6.449454 -6.449454,6.449454 H 8.9214425 c -3.5729971,0 -6.4494533,-2.876457 -6.4494533,-6.449454 V 8.9333894 c 0,-3.5729971 2.8764562,-6.4494533 6.4494533,-6.4494533 z" />
    <path
       style="opacity:0.2;stroke-width:0.502185"
       d="m 9.6592151,25.821238 c 0.05335,-0.524536 0.3663399,-1.658697 1.1436609,-4.144282 1.315207,-4.205647 2.139986,-8.985684 1.790268,-10.375012 -0.08693,-0.345409 -0.09653,-0.522548 -0.03261,-0.602253 0.199094,-0.248258 0.997639,-0.518059 1.655282,-0.559246 1.357992,-0.02822 1.290498,0.474106 1.245805,1.567902 -0.04003,0.980353 -0.299389,2.823148 -0.539983,4.05911 -0.07467,0.383504 -0.114469,0.754655 -0.08847,0.82478 0.03919,0.105777 0.403872,0.127262 2.139381,0.126143 1.150693,-7.03e-4 2.138177,-0.03166 2.194421,-0.06869 0.175568,-0.115533 0.278378,-0.506006 1.023742,-3.888371 0.39873,-1.80935 0.793141,-3.4097921 0.876451,-3.5565304 0.190095,-0.3349218 0.657856,-0.5991289 1.060703,-0.5991289 0.411425,0 1.13633,0.2286912 1.384708,0.4368762 l 0.200149,0.1677285 -0.19115,0.5670715 C 23.083884,11.075767 21.869305,16.8681 21.392737,19.929382 c -0.125953,0.809179 -0.303898,1.860169 -0.395446,2.335431 -0.198461,1.030472 -0.203694,1.423576 -0.02526,1.899944 0.282325,0.75371 0.268846,0.827188 -0.190346,1.0374 -0.227436,0.104107 -0.748528,0.247755 -1.158025,0.319205 -1.384807,0.241649 -1.807541,-0.06647 -1.808145,-1.317917 -4.13e-4,-0.842023 0.07774,-1.291705 0.608631,-3.502497 0.233734,-0.973323 0.424964,-1.848419 0.424964,-1.944736 0,-0.16304 -0.04115,-0.170898 -0.597723,-0.114128 -0.328747,0.03352 -1.333586,0.06605 -2.232989,0.07226 -0.899391,0.0063 -1.661509,0.03853 -1.693748,0.0718 -0.03213,0.03327 -0.20985,0.735439 -0.394913,1.560369 -0.185058,0.824959 -0.518117,2.182067 -0.740131,3.015784 -0.222024,0.833698 -0.420275,1.764456 -0.440551,2.068373 -0.02412,0.360957 -0.08579,0.597514 -0.177921,0.68212 -0.209307,0.192225 -1.244097,0.497148 -1.896025,0.558675 -0.7949199,0.08357 -1.0745619,-0.265331 -1.0161079,-0.850069 z"
       id="path170" />
    <path
       style="fill:#ffffff;stroke-width:0.502185"
       d="m 9.6592151,25.319066 c 0.05335,-0.524536 0.3663399,-1.658698 1.1436609,-4.14428 1.315207,-4.205647 2.139986,-8.985686 1.790268,-10.375014 -0.08693,-0.345409 -0.09653,-0.522548 -0.03261,-0.602253 0.199094,-0.2482561 0.997639,-0.518057 1.655282,-0.559246 1.357992,-0.028224 1.290498,0.474106 1.245805,1.567902 -0.04003,0.980353 -0.299389,2.823148 -0.539983,4.05911 -0.07467,0.383506 -0.114469,0.754655 -0.08847,0.82478 0.03919,0.105777 0.403872,0.127262 2.139381,0.126143 1.150693,-7.03e-4 2.138177,-0.03166 2.194421,-0.06869 0.175568,-0.115533 0.278378,-0.506004 1.023742,-3.88837 0.39873,-1.809349 0.793141,-3.4097932 0.876451,-3.5565314 0.190095,-0.3349218 0.657856,-0.5991289 1.060703,-0.5991289 0.411425,0 1.13633,0.2286931 1.384708,0.4368762 l 0.200149,0.1677285 -0.19115,0.5670712 c -0.437689,1.2984334 -1.652268,7.0907644 -2.128836,10.1520464 -0.125953,0.809181 -0.303898,1.860171 -0.395446,2.335433 -0.198461,1.03047 -0.203694,1.423576 -0.02526,1.899942 0.282325,0.75371 0.268846,0.827188 -0.190346,1.0374 -0.227436,0.104107 -0.748528,0.247755 -1.158025,0.319207 -1.384807,0.241647 -1.807541,-0.06647 -1.808145,-1.317919 -4.13e-4,-0.842023 0.07774,-1.291703 0.608631,-3.502495 0.233734,-0.973323 0.424964,-1.848421 0.424964,-1.944738 0,-0.163041 -0.04115,-0.170898 -0.597723,-0.114128 -0.328747,0.03352 -1.333586,0.06605 -2.232989,0.07226 -0.899391,0.0063 -1.661509,0.03853 -1.693748,0.0718 -0.03213,0.03327 -0.20985,0.735441 -0.394913,1.560369 -0.185058,0.824959 -0.518117,2.182067 -0.740131,3.015784 -0.222024,0.833698 -0.420275,1.764456 -0.440551,2.068375 -0.02412,0.360955 -0.08579,0.597512 -0.177921,0.682118 -0.209307,0.192225 -1.244097,0.497148 -1.896025,0.558675 -0.7949179,0.08357 -1.0745619,-0.265331 -1.0161079,-0.850069 z"
       id="path172" />
  </g>
</svg>
