<?xml version="1.0" encoding="UTF-8" standalone="no"?>
<!-- Created with Inkscape (http://www.inkscape.org/) -->

<svg
   xmlns:dc="http://purl.org/dc/elements/1.1/"
   xmlns:cc="http://creativecommons.org/ns#"
   xmlns:rdf="http://www.w3.org/1999/02/22-rdf-syntax-ns#"
   xmlns:svg="http://www.w3.org/2000/svg"
   xmlns="http://www.w3.org/2000/svg"
   xmlns:xlink="http://www.w3.org/1999/xlink"
   xmlns:sodipodi="http://sodipodi.sourceforge.net/DTD/sodipodi-0.dtd"
   xmlns:inkscape="http://www.inkscape.org/namespaces/inkscape"
   version="1.1"
   id="svg2"
   width="128"
   height="128"
   viewBox="0 0 128 128"
   sodipodi:docname="xfce_unknown.svg"
   inkscape:version="0.92.4 (5da689c313, 2019-01-14)">
  <metadata
     id="metadata8">
    <rdf:RDF>
      <cc:Work
         rdf:about="">
        <dc:format>image/svg+xml</dc:format>
        <dc:type
           rdf:resource="http://purl.org/dc/dcmitype/StillImage" />
        <dc:title></dc:title>
      </cc:Work>
    </rdf:RDF>
  </metadata>
  <defs
     id="defs6">
    <linearGradient
       inkscape:collect="always"
       id="linearGradient917">
      <stop
         style="stop-color:#525252;stop-opacity:0.04040404"
         offset="0"
         id="stop913" />
      <stop
         id="stop921"
         offset="0.71985966"
         style="stop-color:#4f4f4f;stop-opacity:0" />
      <stop
         style="stop-color:#4c4c4c;stop-opacity:0.03921569;"
         offset="0.80681622"
         id="stop925" />
      <stop
         id="stop927"
         offset="0.85424703"
         style="stop-color:#484848;stop-opacity:0.10196078;" />
      <stop
         style="stop-color:#313131;stop-opacity:0.47979799"
         offset="1"
         id="stop915" />
    </linearGradient>
    <linearGradient
       inkscape:collect="always"
       id="linearGradient862">
      <stop
         style="stop-color:#606060;stop-opacity:1"
         offset="0"
         id="stop858" />
      <stop
         id="stop872"
         offset="0.45119986"
         style="stop-color:#929292;stop-opacity:1" />
      <stop
         style="stop-color:#8f8f8f;stop-opacity:1"
         offset="0.65778416"
         id="stop874" />
      <stop
         id="stop876"
         offset="0.75089496"
         style="stop-color:#787878;stop-opacity:1" />
      <stop
         id="stop870"
         offset="0.84789252"
         style="stop-color:#646464;stop-opacity:1" />
      <stop
         id="stop868"
         offset="0.93322986"
         style="stop-color:#808080;stop-opacity:1" />
      <stop
         style="stop-color:#343434;stop-opacity:0.94444442"
         offset="1"
         id="stop860" />
    </linearGradient>
    <linearGradient
       id="linearGradient854"
       inkscape:collect="always">
      <stop
         id="stop842"
         offset="0"
         style="stop-color:#807370;stop-opacity:1;" />
      <stop
         style="stop-color:#e3e3e3;stop-opacity:1"
         offset="0.56431442"
         id="stop844" />
      <stop
         id="stop846"
         offset="0.65523905"
         style="stop-color:#ededed;stop-opacity:1" />
      <stop
         id="stop848"
         offset="0.81619924"
         style="stop-color:#e3e3e3;stop-opacity:1" />
      <stop
         style="stop-color:#d4d4d4;stop-opacity:1"
         offset="0.90443051"
         id="stop850" />
      <stop
         id="stop852"
         offset="1"
         style="stop-color:#c5c5c5;stop-opacity:1" />
    </linearGradient>
    <radialGradient
       inkscape:collect="always"
       xlink:href="#linearGradient854"
       id="radialGradient830"
       gradientUnits="userSpaceOnUse"
       gradientTransform="matrix(0.99958771,0.02871247,-0.02935949,1.0221131,-24.476155,101.45983)"
       cx="37.169037"
       cy="11.74477"
       fx="37.169037"
       fy="11.74477"
       r="10.450195" />
    <linearGradient
       inkscape:collect="always"
       xlink:href="#linearGradient862"
       id="linearGradient866"
       x1="15.877543"
       y1="4.6092024"
       x2="20.420353"
       y2="2.5765698"
       gradientUnits="userSpaceOnUse"
       gradientTransform="translate(2.996533,108.60636)" />
    <linearGradient
       inkscape:collect="always"
       xlink:href="#linearGradient862"
       id="linearGradient880"
       gradientUnits="userSpaceOnUse"
       gradientTransform="rotate(-89.165625,66.519854,59.780757)"
       x1="15.877543"
       y1="4.6092024"
       x2="20.420353"
       y2="2.5765698" />
    <linearGradient
       inkscape:collect="always"
       xlink:href="#linearGradient862"
       id="linearGradient884"
       gradientUnits="userSpaceOnUse"
       gradientTransform="rotate(-177.12942,12.677621,61.078877)"
       x1="15.877543"
       y1="4.6092024"
       x2="20.420353"
       y2="2.5765698" />
    <linearGradient
       inkscape:collect="always"
       xlink:href="#linearGradient862"
       id="linearGradient888"
       gradientUnits="userSpaceOnUse"
       gradientTransform="rotate(90.869847,22.622818,25.12447)"
       x1="15.877543"
       y1="4.6092024"
       x2="20.420353"
       y2="2.5765698" />
    <linearGradient
       inkscape:collect="always"
       xlink:href="#linearGradient862"
       id="linearGradient911"
       gradientUnits="userSpaceOnUse"
       gradientTransform="rotate(90.869847,-42.216058,62.653661)"
       x1="15.877543"
       y1="4.6092024"
       x2="20.420353"
       y2="2.5765698" />
    <radialGradient
       inkscape:collect="always"
       xlink:href="#linearGradient917"
       id="radialGradient919"
       cx="41.325439"
       cy="12.607533"
       fx="41.325439"
       fy="12.607533"
       r="6.8610172"
       gradientTransform="matrix(1,0,0,1.0079051,-28.461048,102.83067)"
       gradientUnits="userSpaceOnUse" />
  </defs>
  <sodipodi:namedview
     pagecolor="#ffffff"
     bordercolor="#666666"
     borderopacity="1"
     objecttolerance="10"
     gridtolerance="10"
     guidetolerance="10"
     inkscape:pageopacity="0"
     inkscape:pageshadow="2"
     inkscape:window-width="1920"
     inkscape:window-height="1023"
     id="namedview4"
     showgrid="false"
     inkscape:zoom="2"
     inkscape:cx="8.7125302"
     inkscape:cy="14.486973"
     inkscape:window-x="0"
     inkscape:window-y="29"
     inkscape:window-maximized="1"
     inkscape:current-layer="svg2" />
  <g
     id="g881"
     transform="matrix(5.3009113,0,0,5.3009113,-3.8141292,-547.66836)">
    <g
       transform="translate(-46.359353,105.69643)"
       id="g975">
      <path
         inkscape:connector-curvature="0"
         id="path945"
         d="M 59.069842,5.195584 C 57.716911,5.166456 56.337226,6.044589 56.704608,7.6194123 l 0.0039,-0.002 a 0.59661019,0.59661019 0 0 0 0.59375,0.544922 0.59661019,0.59661019 0 0 0 0.595703,-0.595703 0.59661019,0.59661019 0 0 0 -0.1875,-0.433594 c -0.282355,-0.4844732 -0.200479,-0.8290871 0.02539,-1.0546868 0.681209,-0.5206046 1.536766,-0.4160628 1.957031,-0.1074219 0.362554,0.2388063 0.623905,0.6983023 0.580078,1.5839837 -0.0045,1.245685 -1.772908,2.342318 -1.480468,4.3222657 -0.0012,0.163909 0.233937,0.163498 0.216796,-0.02734 -0.05696,-1.347149 1.518157,-2.4688347 2.132813,-3.5898437 0.383268,-0.723388 0.189785,-1.5589234 -0.04883,-1.9863273 -0.409214,-0.7162615 -1.21167,-1.0606063 -2.023429,-1.078083 z m -0.236328,7.386718 a 0.80000001,0.80000001 0 0 0 -0.798828,0.800781 0.80000001,0.80000001 0 0 0 0.798828,0.800782 0.80000001,0.80000001 0 0 0 0.800781,-0.800782 0.80000001,0.80000001 0 0 0 -0.800781,-0.800781 z"
         style="opacity:1;fill:none;fill-opacity:1;stroke:#000000;stroke-width:0.1;stroke-linecap:round;stroke-linejoin:round;stroke-miterlimit:4;stroke-dasharray:none;stroke-opacity:0.00784314" />
      <path
         style="opacity:1;fill:none;fill-opacity:1;stroke:#000000;stroke-width:0.2;stroke-linecap:round;stroke-linejoin:round;stroke-miterlimit:4;stroke-dasharray:none;stroke-opacity:0.00784314"
         d="M 59.069842,5.195584 C 57.716911,5.166456 56.337226,6.044589 56.704608,7.6194123 l 0.0039,-0.002 a 0.59661019,0.59661019 0 0 0 0.59375,0.544922 0.59661019,0.59661019 0 0 0 0.595703,-0.595703 0.59661019,0.59661019 0 0 0 -0.1875,-0.433594 c -0.282355,-0.4844732 -0.200479,-0.8290871 0.02539,-1.0546868 0.681209,-0.5206046 1.536766,-0.4160628 1.957031,-0.1074219 0.362554,0.2388063 0.623905,0.6983023 0.580078,1.5839837 -0.0045,1.245685 -1.772908,2.342318 -1.480468,4.3222657 -0.0012,0.163909 0.233937,0.163498 0.216796,-0.02734 -0.05696,-1.347149 1.518157,-2.4688347 2.132813,-3.5898437 0.383268,-0.723388 0.189785,-1.5589234 -0.04883,-1.9863273 -0.409214,-0.7162615 -1.21167,-1.0606063 -2.023429,-1.078083 z m -0.236328,7.386718 a 0.80000001,0.80000001 0 0 0 -0.798828,0.800781 0.80000001,0.80000001 0 0 0 0.798828,0.800782 0.80000001,0.80000001 0 0 0 0.800781,-0.800782 0.80000001,0.80000001 0 0 0 -0.800781,-0.800781 z"
         id="path947"
         inkscape:connector-curvature="0" />
      <path
         inkscape:connector-curvature="0"
         id="path949"
         d="M 59.069842,5.195584 C 57.716911,5.166456 56.337226,6.044589 56.704608,7.6194123 l 0.0039,-0.002 a 0.59661019,0.59661019 0 0 0 0.59375,0.544922 0.59661019,0.59661019 0 0 0 0.595703,-0.595703 0.59661019,0.59661019 0 0 0 -0.1875,-0.433594 c -0.282355,-0.4844732 -0.200479,-0.8290871 0.02539,-1.0546868 0.681209,-0.5206046 1.536766,-0.4160628 1.957031,-0.1074219 0.362554,0.2388063 0.623905,0.6983023 0.580078,1.5839837 -0.0045,1.245685 -1.772908,2.342318 -1.480468,4.3222657 -0.0012,0.163909 0.233937,0.163498 0.216796,-0.02734 -0.05696,-1.347149 1.518157,-2.4688347 2.132813,-3.5898437 0.383268,-0.723388 0.189785,-1.5589234 -0.04883,-1.9863273 -0.409214,-0.7162615 -1.21167,-1.0606063 -2.023429,-1.078083 z m -0.236328,7.386718 a 0.80000001,0.80000001 0 0 0 -0.798828,0.800781 0.80000001,0.80000001 0 0 0 0.798828,0.800782 0.80000001,0.80000001 0 0 0 0.800781,-0.800782 0.80000001,0.80000001 0 0 0 -0.800781,-0.800781 z"
         style="opacity:1;fill:none;fill-opacity:1;stroke:#000000;stroke-width:0.30000001;stroke-linecap:round;stroke-linejoin:round;stroke-miterlimit:4;stroke-dasharray:none;stroke-opacity:0.00784314" />
      <path
         style="opacity:1;fill:none;fill-opacity:1;stroke:#000000;stroke-width:0.40000001;stroke-linecap:round;stroke-linejoin:round;stroke-miterlimit:4;stroke-dasharray:none;stroke-opacity:0.00784314"
         d="M 59.069842,5.195584 C 57.716911,5.166456 56.337226,6.044589 56.704608,7.6194123 l 0.0039,-0.002 a 0.59661019,0.59661019 0 0 0 0.59375,0.544922 0.59661019,0.59661019 0 0 0 0.595703,-0.595703 0.59661019,0.59661019 0 0 0 -0.1875,-0.433594 c -0.282355,-0.4844732 -0.200479,-0.8290871 0.02539,-1.0546868 0.681209,-0.5206046 1.536766,-0.4160628 1.957031,-0.1074219 0.362554,0.2388063 0.623905,0.6983023 0.580078,1.5839837 -0.0045,1.245685 -1.772908,2.342318 -1.480468,4.3222657 -0.0012,0.163909 0.233937,0.163498 0.216796,-0.02734 -0.05696,-1.347149 1.518157,-2.4688347 2.132813,-3.5898437 0.383268,-0.723388 0.189785,-1.5589234 -0.04883,-1.9863273 -0.409214,-0.7162615 -1.21167,-1.0606063 -2.023429,-1.078083 z m -0.236328,7.386718 a 0.80000001,0.80000001 0 0 0 -0.798828,0.800781 0.80000001,0.80000001 0 0 0 0.798828,0.800782 0.80000001,0.80000001 0 0 0 0.800781,-0.800782 0.80000001,0.80000001 0 0 0 -0.800781,-0.800781 z"
         id="path951"
         inkscape:connector-curvature="0" />
      <path
         inkscape:connector-curvature="0"
         id="path953"
         d="M 59.069842,5.195584 C 57.716911,5.166456 56.337226,6.044589 56.704608,7.6194123 l 0.0039,-0.002 a 0.59661019,0.59661019 0 0 0 0.59375,0.544922 0.59661019,0.59661019 0 0 0 0.595703,-0.595703 0.59661019,0.59661019 0 0 0 -0.1875,-0.433594 c -0.282355,-0.4844732 -0.200479,-0.8290871 0.02539,-1.0546868 0.681209,-0.5206046 1.536766,-0.4160628 1.957031,-0.1074219 0.362554,0.2388063 0.623905,0.6983023 0.580078,1.5839837 -0.0045,1.245685 -1.772908,2.342318 -1.480468,4.3222657 -0.0012,0.163909 0.233937,0.163498 0.216796,-0.02734 -0.05696,-1.347149 1.518157,-2.4688347 2.132813,-3.5898437 0.383268,-0.723388 0.189785,-1.5589234 -0.04883,-1.9863273 -0.409214,-0.7162615 -1.21167,-1.0606063 -2.023429,-1.078083 z m -0.236328,7.386718 a 0.80000001,0.80000001 0 0 0 -0.798828,0.800781 0.80000001,0.80000001 0 0 0 0.798828,0.800782 0.80000001,0.80000001 0 0 0 0.800781,-0.800782 0.80000001,0.80000001 0 0 0 -0.800781,-0.800781 z"
         style="opacity:1;fill:none;fill-opacity:1;stroke:#000000;stroke-width:0.60000002;stroke-linecap:round;stroke-linejoin:round;stroke-miterlimit:4;stroke-dasharray:none;stroke-opacity:0.00784314" />
      <path
         style="opacity:1;fill:none;fill-opacity:1;stroke:#000000;stroke-width:0.80000001;stroke-linecap:round;stroke-linejoin:round;stroke-miterlimit:4;stroke-dasharray:none;stroke-opacity:0.00784314"
         d="M 59.069842,5.195584 C 57.716911,5.166456 56.337226,6.044589 56.704608,7.6194123 l 0.0039,-0.002 a 0.59661019,0.59661019 0 0 0 0.59375,0.544922 0.59661019,0.59661019 0 0 0 0.595703,-0.595703 0.59661019,0.59661019 0 0 0 -0.1875,-0.433594 c -0.282355,-0.4844732 -0.200479,-0.8290871 0.02539,-1.0546868 0.681209,-0.5206046 1.536766,-0.4160628 1.957031,-0.1074219 0.362554,0.2388063 0.623905,0.6983023 0.580078,1.5839837 -0.0045,1.245685 -1.772908,2.342318 -1.480468,4.3222657 -0.0012,0.163909 0.233937,0.163498 0.216796,-0.02734 -0.05696,-1.347149 1.518157,-2.4688347 2.132813,-3.5898437 0.383268,-0.723388 0.189785,-1.5589234 -0.04883,-1.9863273 -0.409214,-0.7162615 -1.21167,-1.0606063 -2.023429,-1.078083 z m -0.236328,7.386718 a 0.80000001,0.80000001 0 0 0 -0.798828,0.800781 0.80000001,0.80000001 0 0 0 0.798828,0.800782 0.80000001,0.80000001 0 0 0 0.800781,-0.800782 0.80000001,0.80000001 0 0 0 -0.800781,-0.800781 z"
         id="path955"
         inkscape:connector-curvature="0" />
      <path
         inkscape:connector-curvature="0"
         id="path957"
         d="M 59.069842,5.195584 C 57.716911,5.166456 56.337226,6.044589 56.704608,7.6194123 l 0.0039,-0.002 a 0.59661019,0.59661019 0 0 0 0.59375,0.544922 0.59661019,0.59661019 0 0 0 0.595703,-0.595703 0.59661019,0.59661019 0 0 0 -0.1875,-0.433594 c -0.282355,-0.4844732 -0.200479,-0.8290871 0.02539,-1.0546868 0.681209,-0.5206046 1.536766,-0.4160628 1.957031,-0.1074219 0.362554,0.2388063 0.623905,0.6983023 0.580078,1.5839837 -0.0045,1.245685 -1.772908,2.342318 -1.480468,4.3222657 -0.0012,0.163909 0.233937,0.163498 0.216796,-0.02734 -0.05696,-1.347149 1.518157,-2.4688347 2.132813,-3.5898437 0.383268,-0.723388 0.189785,-1.5589234 -0.04883,-1.9863273 -0.409214,-0.7162615 -1.21167,-1.0606063 -2.023429,-1.078083 z m -0.236328,7.386718 a 0.80000001,0.80000001 0 0 0 -0.798828,0.800781 0.80000001,0.80000001 0 0 0 0.798828,0.800782 0.80000001,0.80000001 0 0 0 0.800781,-0.800782 0.80000001,0.80000001 0 0 0 -0.800781,-0.800781 z"
         style="opacity:1;fill:none;fill-opacity:1;stroke:#000000;stroke-width:1;stroke-linecap:round;stroke-linejoin:round;stroke-miterlimit:4;stroke-dasharray:none;stroke-opacity:0.00784314" />
      <path
         style="opacity:1;fill:none;fill-opacity:1;stroke:#000000;stroke-width:1.20000005;stroke-linecap:round;stroke-linejoin:round;stroke-miterlimit:4;stroke-dasharray:none;stroke-opacity:0.00784314"
         d="M 59.069842,5.195584 C 57.716911,5.166456 56.337226,6.044589 56.704608,7.6194123 l 0.0039,-0.002 a 0.59661019,0.59661019 0 0 0 0.59375,0.544922 0.59661019,0.59661019 0 0 0 0.595703,-0.595703 0.59661019,0.59661019 0 0 0 -0.1875,-0.433594 c -0.282355,-0.4844732 -0.200479,-0.8290871 0.02539,-1.0546868 0.681209,-0.5206046 1.536766,-0.4160628 1.957031,-0.1074219 0.362554,0.2388063 0.623905,0.6983023 0.580078,1.5839837 -0.0045,1.245685 -1.772908,2.342318 -1.480468,4.3222657 -0.0012,0.163909 0.233937,0.163498 0.216796,-0.02734 -0.05696,-1.347149 1.518157,-2.4688347 2.132813,-3.5898437 0.383268,-0.723388 0.189785,-1.5589234 -0.04883,-1.9863273 -0.409214,-0.7162615 -1.21167,-1.0606063 -2.023429,-1.078083 z m -0.236328,7.386718 a 0.80000001,0.80000001 0 0 0 -0.798828,0.800781 0.80000001,0.80000001 0 0 0 0.798828,0.800782 0.80000001,0.80000001 0 0 0 0.800781,-0.800782 0.80000001,0.80000001 0 0 0 -0.800781,-0.800781 z"
         id="path959"
         inkscape:connector-curvature="0" />
      <path
         inkscape:connector-curvature="0"
         id="path961"
         d="M 59.069842,5.195584 C 57.716911,5.166456 56.337226,6.044589 56.704608,7.6194123 l 0.0039,-0.002 a 0.59661019,0.59661019 0 0 0 0.59375,0.544922 0.59661019,0.59661019 0 0 0 0.595703,-0.595703 0.59661019,0.59661019 0 0 0 -0.1875,-0.433594 c -0.282355,-0.4844732 -0.200479,-0.8290871 0.02539,-1.0546868 0.681209,-0.5206046 1.536766,-0.4160628 1.957031,-0.1074219 0.362554,0.2388063 0.623905,0.6983023 0.580078,1.5839837 -0.0045,1.245685 -1.772908,2.342318 -1.480468,4.3222657 -0.0012,0.163909 0.233937,0.163498 0.216796,-0.02734 -0.05696,-1.347149 1.518157,-2.4688347 2.132813,-3.5898437 0.383268,-0.723388 0.189785,-1.5589234 -0.04883,-1.9863273 -0.409214,-0.7162615 -1.21167,-1.0606063 -2.023429,-1.078083 z m -0.236328,7.386718 a 0.80000001,0.80000001 0 0 0 -0.798828,0.800781 0.80000001,0.80000001 0 0 0 0.798828,0.800782 0.80000001,0.80000001 0 0 0 0.800781,-0.800782 0.80000001,0.80000001 0 0 0 -0.800781,-0.800781 z"
         style="opacity:1;fill:none;fill-opacity:1;stroke:#000000;stroke-width:1.39999998;stroke-linecap:round;stroke-linejoin:round;stroke-miterlimit:4;stroke-dasharray:none;stroke-opacity:0.00784314" />
      <path
         style="opacity:1;fill:none;fill-opacity:1;stroke:#000000;stroke-width:1.89999998;stroke-linecap:round;stroke-linejoin:round;stroke-miterlimit:4;stroke-dasharray:none;stroke-opacity:0.00784314"
         d="M 59.069842,5.195584 C 57.716911,5.166456 56.337226,6.044589 56.704608,7.6194123 l 0.0039,-0.002 a 0.59661019,0.59661019 0 0 0 0.59375,0.544922 0.59661019,0.59661019 0 0 0 0.595703,-0.595703 0.59661019,0.59661019 0 0 0 -0.1875,-0.433594 c -0.282355,-0.4844732 -0.200479,-0.8290871 0.02539,-1.0546868 0.681209,-0.5206046 1.536766,-0.4160628 1.957031,-0.1074219 0.362554,0.2388063 0.623905,0.6983023 0.580078,1.5839837 -0.0045,1.245685 -1.772908,2.342318 -1.480468,4.3222657 -0.0012,0.163909 0.233937,0.163498 0.216796,-0.02734 -0.05696,-1.347149 1.518157,-2.4688347 2.132813,-3.5898437 0.383268,-0.723388 0.189785,-1.5589234 -0.04883,-1.9863273 -0.409214,-0.7162615 -1.21167,-1.0606063 -2.023429,-1.078083 z m -0.236328,7.386718 a 0.80000001,0.80000001 0 0 0 -0.798828,0.800781 0.80000001,0.80000001 0 0 0 0.798828,0.800782 0.80000001,0.80000001 0 0 0 0.800781,-0.800782 0.80000001,0.80000001 0 0 0 -0.800781,-0.800781 z"
         id="path963"
         inkscape:connector-curvature="0" />
    </g>
    <ellipse
       ry="6.9152546"
       rx="6.8610172"
       cy="115.53786"
       cx="12.864391"
       id="path909"
       style="opacity:1;fill:url(#radialGradient919);fill-opacity:1;stroke:none;stroke-width:0.12095144;stroke-linecap:round;stroke-linejoin:round;stroke-miterlimit:4;stroke-dasharray:none;stroke-opacity:1" />
    <path
       inkscape:connector-curvature="0"
       id="path817"
       d="M 12.833056,105.05888 A 10.450798,10.450798 0 0 0 2.383838,115.51006 10.450798,10.450798 0 0 0 12.833056,125.96123 10.450798,10.450798 0 0 0 23.284227,115.51006 10.450798,10.450798 0 0 0 12.833056,105.05888 Z m 0,4.00782 a 6.4430604,6.4430604 0 0 1 6.443359,6.44336 6.4430604,6.4430604 0 0 1 -6.443359,6.44336 6.4430604,6.4430604 0 0 1 -6.443359,-6.44336 6.4430604,6.4430604 0 0 1 6.443359,-6.44336 z"
       style="opacity:1;fill:url(#radialGradient830);fill-opacity:1;stroke:none;stroke-width:3.28313231;stroke-linecap:round;stroke-linejoin:round;stroke-miterlimit:4;stroke-dasharray:none;stroke-opacity:0.7020202" />
    <path
       inkscape:connector-curvature="0"
       id="path890"
       d="m 14.475414,104.26663 c -1.508963,-0.0784 -3.234209,0.18047 -5.203125,0.87695 l -0.01367,0.004 -1.921875,1 -0.210937,0.084 -0.02539,0.0215 c -1.120453,0.94822 -2.129477,1.52271 -2.941406,2.0918 -0.811928,0.56908 -1.438639,1.15027 -1.710937,2.08007 -0.190978,0.65213 -0.378799,1.39082 -0.498047,2.25 -0.212689,1.53243 -0.207755,3.44655 0.367187,5.9336 l 0.0039,0.0156 0.0059,0.0137 c 1.110058,2.75673 2.440508,5.2842 4.59961,6.78711 2.159101,1.5029 5.130198,1.94426 9.414062,0.57812 l 0.02539,-0.008 0.02148,-0.0156 c 1.855362,-1.17546 4.486605,-2.17738 6.185547,-4.24414 1.698941,-2.06676 2.409508,-5.1958 0.492187,-10.48828 l -0.002,-0.008 -0.0039,-0.006 c -1.009006,-2.29415 -2.462822,-4.51886 -4.675772,-5.82228 -1.106476,-0.65171 -2.39924,-1.06613 -3.908204,-1.14453 z m -0.02539,0.39453 c 1.447975,0.0746 2.676898,0.47516 3.730468,1.09571 2.104651,1.23963 3.519688,3.38231 4.509766,5.63085 1.886745,5.21222 1.183026,8.13664 -0.425781,10.09375 -1.601552,1.94829 -4.152626,2.94002 -6.060547,4.14258 -4.200482,1.33595 -7.002601,0.89699 -9.048828,-0.52734 -2.044759,-1.42331 -3.350453,-3.8664 -4.449219,-6.5918 -0.561412,-2.43625 -0.565307,-4.28969 -0.359375,-5.77344 0.115704,-0.83364 0.296472,-1.55173 0.484375,-2.19335 0.238908,-0.81579 0.77086,-1.31311 1.558594,-1.86524 0.778019,-0.54532 1.798965,-1.13811 2.931641,-2.08984 l 0.183593,-0.0723 1.90625,-0.99219 c 1.926669,-0.68079 3.592684,-0.93191 5.039063,-0.85742 z"
       style="color:#000000;font-style:normal;font-variant:normal;font-weight:normal;font-stretch:normal;font-size:medium;line-height:normal;font-family:sans-serif;font-variant-ligatures:normal;font-variant-position:normal;font-variant-caps:normal;font-variant-numeric:normal;font-variant-alternates:normal;font-feature-settings:normal;text-indent:0;text-align:start;text-decoration:none;text-decoration-line:none;text-decoration-style:solid;text-decoration-color:#000000;letter-spacing:normal;word-spacing:normal;text-transform:none;writing-mode:lr-tb;direction:ltr;text-orientation:mixed;dominant-baseline:auto;baseline-shift:baseline;text-anchor:start;white-space:normal;shape-padding:0;clip-rule:nonzero;display:inline;overflow:visible;visibility:visible;opacity:1;isolation:auto;mix-blend-mode:normal;color-interpolation:sRGB;color-interpolation-filters:linearRGB;solid-color:#000000;solid-opacity:1;vector-effect:none;fill:#f3f3f3;fill-opacity:1;fill-rule:nonzero;stroke:#a5a5a5;stroke-width:0.1;stroke-linecap:butt;stroke-linejoin:miter;stroke-miterlimit:4;stroke-dasharray:none;stroke-dashoffset:0;stroke-opacity:1;color-rendering:auto;image-rendering:auto;shape-rendering:auto;text-rendering:auto;enable-background:accumulate" />
    <path
       inkscape:connector-curvature="0"
       id="path929"
       d="m 22.576061,112.58463 -3.378906,1.94726 a 6.4430604,6.4430604 0 0 1 0.0078,0.0684 l 4.017578,-0.19922 a 10.450798,10.450798 0 0 0 -0.1875,-1.1289 z"
       style="fill:#4c4c4c;fill-opacity:0.17676769;stroke:none;stroke-width:1px;stroke-linecap:butt;stroke-linejoin:miter;stroke-opacity:1" />
    <path
       sodipodi:nodetypes="ccccccc"
       inkscape:connector-curvature="0"
       id="path856"
       d="m 18.107045,112.07751 c 0.756449,0.97815 0.84957,1.7522 0.958788,2.53121 l 4.563835,-0.80539 c 0.417615,-0.0666 0.476833,-0.46731 0.421868,-0.65197 -0.305585,-1.24204 -0.832653,-2.45243 -1.495711,-3.6434 -0.04516,-0.0992 -0.358478,-0.0683 -0.460219,0 z"
       style="fill:url(#linearGradient866);fill-opacity:1;stroke:none;stroke-width:0.2;stroke-linecap:butt;stroke-linejoin:miter;stroke-miterlimit:4;stroke-dasharray:none;stroke-opacity:1" />
    <path
       style="fill:url(#linearGradient880);fill-opacity:1;stroke:none;stroke-width:0.2;stroke-linecap:butt;stroke-linejoin:miter;stroke-miterlimit:4;stroke-dasharray:none;stroke-opacity:1"
       d="m 9.467595,110.36466 c 0.989062,-0.74212 1.764386,-0.82396 2.544895,-0.92182 l -0.738839,-4.57508 c -0.06049,-0.41854 -0.460317,-0.48359 -0.645763,-0.43132 -1.246354,0.28746 -2.464295,0.79685 -3.664792,1.4425 -0.09986,0.0437 -0.07352,0.35744 -0.0067,0.46017 z"
       id="path878"
       inkscape:connector-curvature="0"
       sodipodi:nodetypes="ccccccc" />
    <path
       inkscape:connector-curvature="0"
       id="path940"
       d="m 7.130749,118.49869 -4.275391,0.11133 a 10.450798,10.450798 0 0 0 1.251953,2.63476 l 3.095703,-2.61718 a 6.4430604,6.4430604 0 0 1 -0.072265,-0.12891 z"
       style="fill:#4c4c4c;fill-opacity:0.17676769;stroke:none;stroke-width:1px;stroke-linecap:butt;stroke-linejoin:miter;stroke-opacity:1" />
    <path
       sodipodi:nodetypes="ccccccc"
       inkscape:connector-curvature="0"
       id="path882"
       d="m 7.36278,118.49247 c -0.706514,-1.0148 -0.760753,-1.79254 -0.830822,-2.57604 l -4.598442,0.57582 c -0.420424,0.0456 -0.499638,0.44284 -0.453989,0.63003 0.242999,1.25578 0.70879,2.49105 1.311371,3.71373 0.04013,0.10135 0.354608,0.0862 0.459643,0.023 z"
       style="fill:url(#linearGradient884);fill-opacity:1;stroke:none;stroke-width:0.2;stroke-linecap:butt;stroke-linejoin:miter;stroke-miterlimit:4;stroke-dasharray:none;stroke-opacity:1" />
    <path
       style="fill:url(#linearGradient911);fill-opacity:1;stroke:none;stroke-width:0.2;stroke-linecap:butt;stroke-linejoin:miter;stroke-miterlimit:4;stroke-dasharray:none;stroke-opacity:1"
       d="m 16.089347,120.87208 c -0.989522,0.74151 -1.764896,0.82287 -2.545465,0.92025 l 0.736006,4.57554 c 0.06023,0.41858 0.460018,0.48387 0.645497,0.43172 1.24653,-0.2867 2.464787,-0.79533 3.665684,-1.44023 0.09989,-0.0436 0.07374,-0.3574 0.007,-0.46017 z"
       id="path886"
       inkscape:connector-curvature="0"
       sodipodi:nodetypes="ccccccc" />
    <path
       inkscape:connector-curvature="0"
       id="path894"
       d="m 12.710489,110.89202 c -1.352931,-0.0291 -2.732616,0.849 -2.365234,2.42382 l 0.0039,-0.002 a 0.59661019,0.59661019 0 0 0 0.59375,0.54493 0.59661019,0.59661019 0 0 0 0.595703,-0.59571 0.59661019,0.59661019 0 0 0 -0.1875,-0.43359 c -0.282355,-0.48447 -0.200479,-0.82909 0.02539,-1.05469 0.681209,-0.5206 1.536766,-0.41606 1.957031,-0.10742 0.362554,0.23881 0.623905,0.6983 0.580078,1.58398 -0.0045,1.24569 -1.772908,2.34232 -1.480468,4.32227 -0.0012,0.16391 0.233937,0.1635 0.216796,-0.0273 -0.05696,-1.34715 1.518157,-2.46884 2.132813,-3.58984 0.383268,-0.72339 0.189785,-1.55893 -0.04883,-1.98633 -0.409214,-0.71626 -1.21167,-1.06061 -2.023429,-1.07808 z m -0.236328,7.38671 a 0.80000001,0.80000001 0 0 0 -0.798828,0.80078 0.80000001,0.80000001 0 0 0 0.798828,0.80079 0.80000001,0.80000001 0 0 0 0.800781,-0.80079 0.80000001,0.80000001 0 0 0 -0.800781,-0.80078 z"
       style="opacity:1;fill:#4c4c4c;fill-opacity:1;stroke:none;stroke-width:0.1;stroke-linecap:round;stroke-linejoin:round;stroke-miterlimit:4;stroke-dasharray:none;stroke-opacity:1" />
  </g>
</svg>
