<?xml version="1.0" encoding="UTF-8" standalone="no"?>
<svg
   width="128"
   height="128"
   viewBox="0 0 33.866666 33.866668"
   version="1.1"
   id="svg1443"
   inkscape:version="1.1.2 (0a00cf5339, 2022-02-04)"
   sodipodi:docname="heroesofnewerth.svg"
   xmlns:inkscape="http://www.inkscape.org/namespaces/inkscape"
   xmlns:sodipodi="http://sodipodi.sourceforge.net/DTD/sodipodi-0.dtd"
   xmlns:xlink="http://www.w3.org/1999/xlink"
   xmlns="http://www.w3.org/2000/svg"
   xmlns:svg="http://www.w3.org/2000/svg"
   xmlns:rdf="http://www.w3.org/1999/02/22-rdf-syntax-ns#"
   xmlns:cc="http://creativecommons.org/ns#"
   xmlns:dc="http://purl.org/dc/elements/1.1/">
  <defs
     id="defs1437">
    <linearGradient
       inkscape:collect="always"
       id="linearGradient1204">
      <stop
         style="stop-color:#ffffff;stop-opacity:1;"
         offset="0"
         id="stop1200" />
      <stop
         style="stop-color:#45dfca;stop-opacity:1"
         offset="1"
         id="stop1202" />
    </linearGradient>
    <linearGradient
       inkscape:collect="always"
       id="linearGradient1997">
      <stop
         style="stop-color:#5ed7ec;stop-opacity:1"
         offset="0"
         id="stop1993" />
      <stop
         style="stop-color:#3de1bf;stop-opacity:1"
         offset="1"
         id="stop1995" />
    </linearGradient>
    <filter
       color-interpolation-filters="sRGB"
       height="1.1311001"
       width="1.1106"
       y="-0.065563001"
       x="-0.055319"
       id="c-9">
      <feGaussianBlur
         id="feGaussianBlur1093"
         stdDeviation="1.1062912" />
    </filter>
    <linearGradient
       gradientUnits="userSpaceOnUse"
       gradientTransform="matrix(0.13235,0,0,0.13075,-32.379,1.0873)"
       y2="269.48999"
       y1="235.14999"
       x2="657.65002"
       x1="319.20999"
       id="a-12">
      <stop
         id="stop1076"
         offset="0"
         stop-color="#e54c18" />
      <stop
         id="stop1078"
         offset="1"
         stop-color="#fec350" />
    </linearGradient>
    <radialGradient
       inkscape:collect="always"
       xlink:href="#linearGradient1997"
       id="radialGradient1999"
       cx="17.076008"
       cy="4.6282434"
       fx="17.076008"
       fy="4.6282434"
       r="14.543719"
       gradientUnits="userSpaceOnUse"
       gradientTransform="matrix(4.7283357,0,0,1.6998039,-63.506476,-2.7937172)" />
    <linearGradient
       inkscape:collect="always"
       xlink:href="#linearGradient1204"
       id="linearGradient1206"
       x1="5.6282272"
       y1="12.217903"
       x2="5.6282272"
       y2="63.109715"
       gradientUnits="userSpaceOnUse" />
  </defs>
  <sodipodi:namedview
     id="base"
     pagecolor="#ffffff"
     bordercolor="#666666"
     borderopacity="1.0"
     inkscape:pageopacity="0.0"
     inkscape:pageshadow="2"
     inkscape:zoom="0.36667355"
     inkscape:cx="-411.81046"
     inkscape:cy="178.63301"
     inkscape:document-units="mm"
     inkscape:current-layer="layer1"
     inkscape:document-rotation="0"
     showgrid="false"
     units="px"
     inkscape:window-width="1920"
     inkscape:window-height="1032"
     inkscape:window-x="0"
     inkscape:window-y="24"
     inkscape:window-maximized="1"
     inkscape:pagecheckerboard="0" />
  <metadata
     id="metadata1440">
    <rdf:RDF>
      <cc:Work
         rdf:about="">
        <dc:format>image/svg+xml</dc:format>
        <dc:type
           rdf:resource="http://purl.org/dc/dcmitype/StillImage" />
      </cc:Work>
    </rdf:RDF>
  </metadata>
  <g
     inkscape:label="Capa 1"
     inkscape:groupmode="layer"
     id="layer1">
    <g
       style="opacity:0.18753551"
       transform="matrix(0.97573206,0,0,0.96360993,-65.737228,-36.327649)"
       id="g1702">
      <rect
         ry="6.6098609"
         rx="6.6098609"
         y="40.709618"
         x="69.839508"
         height="29.810888"
         width="29.810888"
         id="rect1634"
         style="fill:none;fill-opacity:1;stroke:#000000;stroke-width:0.1;stroke-linecap:round;stroke-linejoin:round;stroke-miterlimit:4;stroke-dasharray:none;stroke-opacity:0.02" />
      <rect
         style="fill:none;fill-opacity:1;stroke:#000000;stroke-width:0.2;stroke-linecap:round;stroke-linejoin:round;stroke-miterlimit:4;stroke-dasharray:none;stroke-opacity:0.02"
         id="rect1638"
         width="29.810888"
         height="29.810888"
         x="69.839508"
         y="40.709618"
         rx="6.6098609"
         ry="6.6098609" />
      <rect
         ry="6.6098609"
         rx="6.6098609"
         y="40.709618"
         x="69.839508"
         height="29.810888"
         width="29.810888"
         id="rect1640"
         style="fill:none;fill-opacity:1;stroke:#000000;stroke-width:0.3;stroke-linecap:round;stroke-linejoin:round;stroke-miterlimit:4;stroke-dasharray:none;stroke-opacity:0.02" />
      <rect
         style="fill:none;fill-opacity:1;stroke:#000000;stroke-width:0.4;stroke-linecap:round;stroke-linejoin:round;stroke-miterlimit:4;stroke-dasharray:none;stroke-opacity:0.02"
         id="rect1642"
         width="29.810888"
         height="29.810888"
         x="69.839508"
         y="40.709618"
         rx="6.6098609"
         ry="6.6098609" />
      <rect
         ry="6.6098609"
         rx="6.6098609"
         y="40.709618"
         x="69.839508"
         height="29.810888"
         width="29.810888"
         id="rect1644"
         style="fill:none;fill-opacity:1;stroke:#000000;stroke-width:0.5;stroke-linecap:round;stroke-linejoin:round;stroke-miterlimit:4;stroke-dasharray:none;stroke-opacity:0.02" />
      <rect
         style="fill:none;fill-opacity:1;stroke:#000000;stroke-width:0.6;stroke-linecap:round;stroke-linejoin:round;stroke-miterlimit:4;stroke-dasharray:none;stroke-opacity:0.02"
         id="rect1646"
         width="29.810888"
         height="29.810888"
         x="69.839508"
         y="40.709618"
         rx="6.6098609"
         ry="6.6098609" />
      <rect
         ry="6.6098609"
         rx="6.6098609"
         y="40.709618"
         x="69.839508"
         height="29.810888"
         width="29.810888"
         id="rect1648"
         style="fill:none;fill-opacity:1;stroke:#000000;stroke-width:0.7;stroke-linecap:round;stroke-linejoin:round;stroke-miterlimit:4;stroke-dasharray:none;stroke-opacity:0.02" />
      <rect
         style="fill:none;fill-opacity:1;stroke:#000000;stroke-width:0.8;stroke-linecap:round;stroke-linejoin:round;stroke-miterlimit:4;stroke-dasharray:none;stroke-opacity:0.02"
         id="rect1650"
         width="29.810888"
         height="29.810888"
         x="69.839508"
         y="40.709618"
         rx="6.6098609"
         ry="6.6098609" />
      <rect
         ry="6.6098609"
         rx="6.6098609"
         y="40.709618"
         x="69.839508"
         height="29.810888"
         width="29.810888"
         id="rect1652"
         style="fill:none;fill-opacity:1;stroke:#000000;stroke-width:1;stroke-linecap:round;stroke-linejoin:round;stroke-miterlimit:4;stroke-dasharray:none;stroke-opacity:0.02" />
      <rect
         style="fill:none;fill-opacity:1;stroke:#000000;stroke-width:1.2;stroke-linecap:round;stroke-linejoin:round;stroke-miterlimit:4;stroke-dasharray:none;stroke-opacity:0.02"
         id="rect1654"
         width="29.810888"
         height="29.810888"
         x="69.839508"
         y="40.709618"
         rx="6.6098609"
         ry="6.6098609" />
      <rect
         ry="6.6098609"
         rx="6.6098609"
         y="40.709618"
         x="69.839508"
         height="29.810888"
         width="29.810888"
         id="rect1656"
         style="fill:none;fill-opacity:1;stroke:#000000;stroke-width:1.4;stroke-linecap:round;stroke-linejoin:round;stroke-miterlimit:4;stroke-dasharray:none;stroke-opacity:0.02" />
      <rect
         style="fill:none;fill-opacity:1;stroke:#000000;stroke-width:1.6;stroke-linecap:round;stroke-linejoin:round;stroke-miterlimit:4;stroke-dasharray:none;stroke-opacity:0.02"
         id="rect1658"
         width="29.810888"
         height="29.810888"
         x="69.839508"
         y="40.709618"
         rx="6.6098609"
         ry="6.6098609" />
      <rect
         ry="6.6098609"
         rx="6.6098609"
         y="40.709618"
         x="69.839508"
         height="29.810888"
         width="29.810888"
         id="rect1660"
         style="fill:none;fill-opacity:1;stroke:#000000;stroke-width:1.8;stroke-linecap:round;stroke-linejoin:round;stroke-miterlimit:4;stroke-dasharray:none;stroke-opacity:0.02" />
      <rect
         style="fill:none;fill-opacity:1;stroke:#000000;stroke-width:2;stroke-linecap:round;stroke-linejoin:round;stroke-miterlimit:4;stroke-dasharray:none;stroke-opacity:0.02"
         id="rect1662"
         width="29.810888"
         height="29.810888"
         x="69.839508"
         y="40.709618"
         rx="6.6098609"
         ry="6.6098609" />
      <rect
         ry="6.6098609"
         rx="6.6098609"
         y="40.709618"
         x="69.839508"
         height="29.810888"
         width="29.810888"
         id="rect1664"
         style="fill:none;fill-opacity:1;stroke:#000000;stroke-width:2.2;stroke-linecap:round;stroke-linejoin:round;stroke-miterlimit:4;stroke-dasharray:none;stroke-opacity:0.02" />
      <rect
         style="fill:none;fill-opacity:1;stroke:#000000;stroke-width:2.6;stroke-linecap:round;stroke-linejoin:round;stroke-miterlimit:4;stroke-dasharray:none;stroke-opacity:0.02"
         id="rect1666"
         width="29.810888"
         height="29.810888"
         x="69.839508"
         y="40.709618"
         rx="6.6098609"
         ry="6.6098609" />
      <rect
         ry="6.6098609"
         rx="6.6098609"
         y="40.709618"
         x="69.839508"
         height="29.810888"
         width="29.810888"
         id="rect1668"
         style="fill:none;fill-opacity:1;stroke:#000000;stroke-width:3;stroke-linecap:round;stroke-linejoin:round;stroke-miterlimit:4;stroke-dasharray:none;stroke-opacity:0.02" />
      <rect
         style="fill:none;fill-opacity:1;stroke:#000000;stroke-width:3.4;stroke-linecap:round;stroke-linejoin:round;stroke-miterlimit:4;stroke-dasharray:none;stroke-opacity:0.02"
         id="rect1670"
         width="29.810888"
         height="29.810888"
         x="69.839508"
         y="40.709618"
         rx="6.6098609"
         ry="6.6098609" />
      <rect
         ry="6.6098609"
         rx="6.6098609"
         y="40.709618"
         x="69.839508"
         height="29.810888"
         width="29.810888"
         id="rect1672"
         style="fill:none;fill-opacity:1;stroke:#000000;stroke-width:3.8;stroke-linecap:round;stroke-linejoin:round;stroke-miterlimit:4;stroke-dasharray:none;stroke-opacity:0.02" />
      <rect
         style="fill:none;fill-opacity:1;stroke:#000000;stroke-width:4.2;stroke-linecap:round;stroke-linejoin:round;stroke-miterlimit:4;stroke-dasharray:none;stroke-opacity:0.02"
         id="rect1674"
         width="29.810888"
         height="29.810888"
         x="69.839508"
         y="40.709618"
         rx="6.6098609"
         ry="6.6098609" />
      <rect
         ry="6.6098609"
         rx="6.6098609"
         y="40.709618"
         x="69.839508"
         height="29.810888"
         width="29.810888"
         id="rect1676"
         style="fill:none;fill-opacity:1;stroke:#000000;stroke-width:4.6;stroke-linecap:round;stroke-linejoin:round;stroke-miterlimit:4;stroke-dasharray:none;stroke-opacity:0.02" />
      <rect
         style="fill:none;fill-opacity:1;stroke:#000000;stroke-width:5;stroke-linecap:round;stroke-linejoin:round;stroke-miterlimit:4;stroke-dasharray:none;stroke-opacity:0.02"
         id="rect1678"
         width="29.810888"
         height="29.810888"
         x="69.839508"
         y="40.709618"
         rx="6.6098609"
         ry="6.6098609" />
    </g>
    <rect
       ry="6.4494534"
       rx="6.4494534"
       y="2.5391712"
       x="2.4074187"
       height="29.087439"
       width="29.087439"
       id="rect849"
       style="fill:url(#radialGradient1999);fill-opacity:1;stroke-width:2.68768;stroke-linecap:round;stroke-linejoin:round" />
    <g
       id="g3340"
       style="fill:#03002e;fill-opacity:0.02132132">
      <path
         style="fill:#03002e;fill-opacity:0.02132132;stroke-width:0.580298"
         d="m 5.674516,11.18631 v 2.901494 2.321197 6.383286 h 2.3211948 v -6.383286 h 1.1605991 v 4.062091 H 11.477504 V 11.18631 H 9.1563099 v 2.901494 H 7.9957108 V 11.18631 Z m 11.605979,0 a 4.6423249,4.6423249 0 0 0 -4.642392,4.64239 4.6423249,4.6423249 0 0 0 4.642392,4.642392 4.6423249,4.6423249 0 0 0 4.64239,-4.642392 4.6423249,4.6423249 0 0 0 -4.64239,-4.64239 z m 5.802988,0 v 9.284782 h 2.321195 v -4.98581 l 1.160599,2.010646 v 5.296359 h 2.321195 V 11.18631 h -2.321195 v 1.960776 L 25.404678,11.18631 Z m -5.802988,2.321195 A 2.3211625,2.3211625 0 0 1 19.60169,15.8287 2.3211625,2.3211625 0 0 1 17.280495,18.149898 2.3211625,2.3211625 0 0 1 14.959298,15.8287 2.3211625,2.3211625 0 0 1 17.280495,13.507505 Z m -4.642392,8.124186 v 2.321195 h 9.284782 v -2.321195 z"
         id="path3118" />
      <path
         style="fill:#03002e;fill-opacity:0.02132132;stroke-width:0.580298"
         d="m 5.4895236,11.031647 v 2.901494 2.321197 6.383286 h 2.3211948 v -6.383286 h 1.1605991 v 4.062091 H 11.292512 V 11.031647 H 8.9713175 v 2.901494 H 7.8107184 v -2.901494 z m 11.6059794,0 a 4.6423249,4.6423249 0 0 0 -4.642392,4.64239 4.6423249,4.6423249 0 0 0 4.642392,4.642392 4.6423249,4.6423249 0 0 0 4.64239,-4.642392 4.6423249,4.6423249 0 0 0 -4.64239,-4.64239 z m 5.802988,0 v 9.284782 h 2.321195 v -4.98581 l 1.160599,2.010646 v 5.296359 H 28.70148 V 11.031647 h -2.321195 v 1.960776 l -1.160599,-1.960776 z m -5.802988,2.321195 a 2.3211625,2.3211625 0 0 1 2.321195,2.321195 2.3211625,2.3211625 0 0 1 -2.321195,2.321198 2.3211625,2.3211625 0 0 1 -2.321197,-2.321198 2.3211625,2.3211625 0 0 1 2.321197,-2.321195 z m -4.642392,8.124186 v 2.321195 h 9.284782 v -2.321195 z"
         id="path3318" />
      <path
         style="fill:#03002e;fill-opacity:0.02132132;stroke-width:0.580298"
         d="m 5.7250448,11.47499 v 2.901494 2.321197 6.383286 h 2.3211948 v -6.383286 h 1.1605991 v 4.062091 H 11.528033 V 11.47499 H 9.2068387 v 2.901494 H 8.0462396 V 11.47499 Z m 11.6059792,0 a 4.6423249,4.6423249 0 0 0 -4.642392,4.64239 4.6423249,4.6423249 0 0 0 4.642392,4.642392 4.6423249,4.6423249 0 0 0 4.64239,-4.642392 4.6423249,4.6423249 0 0 0 -4.64239,-4.64239 z m 5.802988,0 v 9.284782 h 2.321195 v -4.98581 l 1.160599,2.010646 v 5.296359 h 2.321195 V 11.47499 h -2.321195 v 1.960776 L 25.455207,11.47499 Z m -5.802988,2.321195 a 2.3211625,2.3211625 0 0 1 2.321195,2.321195 2.3211625,2.3211625 0 0 1 -2.321195,2.321198 2.3211625,2.3211625 0 0 1 -2.321197,-2.321198 2.3211625,2.3211625 0 0 1 2.321197,-2.321195 z m -4.642392,8.124186 v 2.321195 h 9.284782 v -2.321195 z"
         id="path3320" />
      <path
         style="fill:#03002e;fill-opacity:0.02132132;stroke-width:0.580298"
         d="m 5.8210543,11.787526 v 2.901494 2.321197 6.383286 h 2.3211948 v -6.383286 h 1.1605991 v 4.062091 H 11.624042 V 11.787526 H 9.3028482 V 14.68902 H 8.1422491 v -2.901494 z m 11.6059787,0 a 4.6423249,4.6423249 0 0 0 -4.642392,4.64239 4.6423249,4.6423249 0 0 0 4.642392,4.642392 4.6423249,4.6423249 0 0 0 4.64239,-4.642392 4.6423249,4.6423249 0 0 0 -4.64239,-4.64239 z m 5.802988,0 v 9.284782 h 2.321195 v -4.98581 l 1.160599,2.010646 v 5.296359 H 29.03301 V 11.787526 h -2.321195 v 1.960776 l -1.160599,-1.960776 z m -5.802988,2.321195 a 2.3211625,2.3211625 0 0 1 2.321195,2.321195 2.3211625,2.3211625 0 0 1 -2.321195,2.321198 2.3211625,2.3211625 0 0 1 -2.321197,-2.321198 2.3211625,2.3211625 0 0 1 2.321197,-2.321195 z m -4.642392,8.124186 v 2.321195 h 9.284782 v -2.321195 z"
         id="path3322" />
      <path
         style="fill:#03002e;fill-opacity:0.02132132;stroke-width:0.580298"
         d="m 5.9396555,12.137668 v 2.901494 2.321197 6.383286 H 8.2608503 V 17.360359 H 9.4214494 V 21.42245 H 11.742643 V 12.137668 H 9.4214494 v 2.901494 H 8.2608503 v -2.901494 z m 11.6059785,0 a 4.6423249,4.6423249 0 0 0 -4.642392,4.64239 4.6423249,4.6423249 0 0 0 4.642392,4.642392 4.6423249,4.6423249 0 0 0 4.64239,-4.642392 4.6423249,4.6423249 0 0 0 -4.64239,-4.64239 z m 5.802988,0 v 9.284782 h 2.321195 v -4.98581 l 1.160599,2.010646 v 5.296359 h 2.321195 V 12.137668 h -2.321195 v 1.960776 l -1.160599,-1.960776 z m -5.802988,2.321195 a 2.3211625,2.3211625 0 0 1 2.321195,2.321195 2.3211625,2.3211625 0 0 1 -2.321195,2.321198 2.3211625,2.3211625 0 0 1 -2.321197,-2.321198 2.3211625,2.3211625 0 0 1 2.321197,-2.321195 z m -4.642392,8.124186 v 2.321195 h 9.284782 v -2.321195 z"
         id="path3324" />
      <path
         style="fill:#03002e;fill-opacity:0.02132132;stroke-width:0.580298"
         d="m 6.1489934,12.540419 v 2.901494 2.321197 6.383286 H 8.4701882 V 17.76311 h 1.1605991 v 4.062091 H 11.951981 V 12.540419 H 9.6307873 v 2.901494 H 8.4701882 v -2.901494 z m 11.6059786,0 a 4.6423249,4.6423249 0 0 0 -4.642392,4.64239 4.6423249,4.6423249 0 0 0 4.642392,4.642392 4.6423249,4.6423249 0 0 0 4.64239,-4.642392 4.6423249,4.6423249 0 0 0 -4.64239,-4.64239 z m 5.802988,0 v 9.284782 h 2.321195 v -4.98581 l 1.160599,2.010646 v 5.296359 h 2.321195 V 12.540419 h -2.321195 v 1.960776 l -1.160599,-1.960776 z m -5.802988,2.321195 a 2.3211625,2.3211625 0 0 1 2.321195,2.321195 2.3211625,2.3211625 0 0 1 -2.321195,2.321198 2.3211625,2.3211625 0 0 1 -2.321197,-2.321198 2.3211625,2.3211625 0 0 1 2.321197,-2.321195 z M 13.11258,22.9858 v 2.321195 h 9.284782 V 22.9858 Z"
         id="path3326" />
      <path
         style="fill:#03002e;fill-opacity:0.02132132;stroke-width:0.580298"
         d="m 5.3705445,10.821722 v 2.901494 2.321197 6.383286 h 2.3211948 v -6.383286 h 1.1605991 v 4.062091 H 11.173532 V 10.821722 H 8.8523384 v 2.901494 H 7.6917393 v -2.901494 z m 11.6059785,0 a 4.6423249,4.6423249 0 0 0 -4.642392,4.64239 4.6423249,4.6423249 0 0 0 4.642392,4.642392 4.6423249,4.6423249 0 0 0 4.64239,-4.642392 4.6423249,4.6423249 0 0 0 -4.64239,-4.64239 z m 5.802988,0 v 9.284782 h 2.321195 v -4.98581 l 1.160599,2.010646 v 5.296359 H 28.5825 V 10.821722 h -2.321195 v 1.960776 l -1.160599,-1.960776 z m -5.802988,2.321195 a 2.3211625,2.3211625 0 0 1 2.321195,2.321195 2.3211625,2.3211625 0 0 1 -2.321195,2.321198 2.3211625,2.3211625 0 0 1 -2.321197,-2.321198 2.3211625,2.3211625 0 0 1 2.321197,-2.321195 z m -4.642392,8.124186 v 2.321195 h 9.284782 v -2.321195 z"
         id="path3328" />
      <path
         style="fill:#03002e;fill-opacity:0.02132132;stroke-width:0.580298"
         d="m 6.1593186,13.278508 v 2.901494 2.321197 6.383286 H 8.4805134 V 18.501199 H 9.6411125 V 22.56329 H 11.962306 V 13.278508 H 9.6411125 v 2.901494 H 8.4805134 v -2.901494 z m 11.6059784,0 a 4.6423249,4.6423249 0 0 0 -4.642392,4.64239 4.6423249,4.6423249 0 0 0 4.642392,4.642392 4.6423249,4.6423249 0 0 0 4.64239,-4.642392 4.6423249,4.6423249 0 0 0 -4.64239,-4.64239 z m 5.802988,0 v 9.284782 h 2.321195 v -4.98581 l 1.160599,2.010646 v 5.296359 h 2.321195 V 13.278508 h -2.321195 v 1.960776 L 25.88948,13.278508 Z m -5.802988,2.321195 a 2.3211625,2.3211625 0 0 1 2.321195,2.321195 2.3211625,2.3211625 0 0 1 -2.321195,2.321198 2.3211625,2.3211625 0 0 1 -2.321197,-2.321198 2.3211625,2.3211625 0 0 1 2.321197,-2.321195 z m -4.642392,8.124186 v 2.321195 h 9.284782 v -2.321195 z"
         id="path3330" />
    </g>
    <path
       style="fill:url(#linearGradient1206);stroke-width:0.580298;fill-opacity:1"
       d="m 5.6282271,11.080332 v 2.901494 2.321197 6.383286 h 2.3211948 v -6.383286 h 1.1605987 v 4.062091 H 11.431215 V 11.080332 H 9.1100206 v 2.901494 H 7.9494219 v -2.901494 z m 11.6059789,0 a 4.6423249,4.6423249 0 0 0 -4.642392,4.64239 4.6423249,4.6423249 0 0 0 4.642392,4.642392 4.6423249,4.6423249 0 0 0 4.64239,-4.642392 4.6423249,4.6423249 0 0 0 -4.64239,-4.64239 z m 5.802988,0 v 9.284782 h 2.321195 v -4.98581 l 1.160599,2.010646 v 5.296359 h 2.321195 V 11.080332 h -2.321195 v 1.960776 l -1.160599,-1.960776 z m -5.802988,2.321195 a 2.3211625,2.3211625 0 0 1 2.321195,2.321195 2.3211625,2.3211625 0 0 1 -2.321195,2.321198 2.3211625,2.3211625 0 0 1 -2.321197,-2.321198 2.3211625,2.3211625 0 0 1 2.321197,-2.321195 z m -4.642392,8.124186 v 2.321195 h 9.284782 v -2.321195 z"
       id="path10" />
  </g>
</svg>
