<?xml version="1.0" encoding="UTF-8" standalone="no"?>
<svg
   width="128"
   height="128"
   viewBox="0 0 33.866666 33.866668"
   version="1.1"
   id="svg1711"
   inkscape:version="1.1.2 (0a00cf5339, 2022-02-04)"
   sodipodi:docname="jasp.svg"
   xmlns:inkscape="http://www.inkscape.org/namespaces/inkscape"
   xmlns:sodipodi="http://sodipodi.sourceforge.net/DTD/sodipodi-0.dtd"
   xmlns:xlink="http://www.w3.org/1999/xlink"
   xmlns="http://www.w3.org/2000/svg"
   xmlns:svg="http://www.w3.org/2000/svg"
   xmlns:rdf="http://www.w3.org/1999/02/22-rdf-syntax-ns#"
   xmlns:cc="http://creativecommons.org/ns#"
   xmlns:dc="http://purl.org/dc/elements/1.1/">
  <defs
     id="defs1705">
    <linearGradient
       gradientUnits="userSpaceOnUse"
       y2="4.0044317"
       x2="17.821186"
       y1="29.110353"
       x1="17.821186"
       id="linearGradient4677"
       xlink:href="#linearGradient4675"
       inkscape:collect="always"
       gradientTransform="translate(-0.07080402,3.2989843e-4)" />
    <linearGradient
       id="linearGradient4675"
       inkscape:collect="always">
      <stop
         id="stop4671"
         offset="0"
         style="stop-color:#5aaf33;stop-opacity:1" />
      <stop
         id="stop4673"
         offset="1"
         style="stop-color:#98d742;stop-opacity:1" />
    </linearGradient>
  </defs>
  <sodipodi:namedview
     id="base"
     pagecolor="#ffffff"
     bordercolor="#666666"
     borderopacity="1.0"
     inkscape:pageopacity="0.0"
     inkscape:pageshadow="2"
     inkscape:zoom="1.979899"
     inkscape:cx="-127.27922"
     inkscape:cy="69.953063"
     inkscape:document-units="mm"
     inkscape:current-layer="layer1"
     inkscape:document-rotation="0"
     showgrid="false"
     units="px"
     inkscape:window-width="1920"
     inkscape:window-height="1030"
     inkscape:window-x="0"
     inkscape:window-y="24"
     inkscape:window-maximized="1"
     inkscape:pagecheckerboard="0" />
  <metadata
     id="metadata1708">
    <rdf:RDF>
      <cc:Work
         rdf:about="">
        <dc:format>image/svg+xml</dc:format>
        <dc:type
           rdf:resource="http://purl.org/dc/dcmitype/StillImage" />
      </cc:Work>
    </rdf:RDF>
  </metadata>
  <g
     inkscape:label="Capa 1"
     inkscape:groupmode="layer"
     id="layer1">
    <g
       id="g1702"
       transform="matrix(0.97573206,0,0,0.97573206,-65.81919,-37.202764)"
       style="opacity:0.295">
      <rect
         style="fill:none;fill-opacity:1;stroke:#000000;stroke-width:0.1;stroke-linecap:round;stroke-linejoin:round;stroke-miterlimit:4;stroke-dasharray:none;stroke-opacity:0.02"
         id="rect1634"
         width="29.810888"
         height="29.810888"
         x="69.839508"
         y="40.709618"
         rx="6.6098609"
         ry="6.6098609" />
      <rect
         ry="6.6098609"
         rx="6.6098609"
         y="40.709618"
         x="69.839508"
         height="29.810888"
         width="29.810888"
         id="rect1638"
         style="fill:none;fill-opacity:1;stroke:#000000;stroke-width:0.2;stroke-linecap:round;stroke-linejoin:round;stroke-miterlimit:4;stroke-dasharray:none;stroke-opacity:0.02" />
      <rect
         style="fill:none;fill-opacity:1;stroke:#000000;stroke-width:0.3;stroke-linecap:round;stroke-linejoin:round;stroke-miterlimit:4;stroke-dasharray:none;stroke-opacity:0.02"
         id="rect1640"
         width="29.810888"
         height="29.810888"
         x="69.839508"
         y="40.709618"
         rx="6.6098609"
         ry="6.6098609" />
      <rect
         ry="6.6098609"
         rx="6.6098609"
         y="40.709618"
         x="69.839508"
         height="29.810888"
         width="29.810888"
         id="rect1642"
         style="fill:none;fill-opacity:1;stroke:#000000;stroke-width:0.4;stroke-linecap:round;stroke-linejoin:round;stroke-miterlimit:4;stroke-dasharray:none;stroke-opacity:0.02" />
      <rect
         style="fill:none;fill-opacity:1;stroke:#000000;stroke-width:0.5;stroke-linecap:round;stroke-linejoin:round;stroke-miterlimit:4;stroke-dasharray:none;stroke-opacity:0.02"
         id="rect1644"
         width="29.810888"
         height="29.810888"
         x="69.839508"
         y="40.709618"
         rx="6.6098609"
         ry="6.6098609" />
      <rect
         ry="6.6098609"
         rx="6.6098609"
         y="40.709618"
         x="69.839508"
         height="29.810888"
         width="29.810888"
         id="rect1646"
         style="fill:none;fill-opacity:1;stroke:#000000;stroke-width:0.6;stroke-linecap:round;stroke-linejoin:round;stroke-miterlimit:4;stroke-dasharray:none;stroke-opacity:0.02" />
      <rect
         style="fill:none;fill-opacity:1;stroke:#000000;stroke-width:0.7;stroke-linecap:round;stroke-linejoin:round;stroke-miterlimit:4;stroke-dasharray:none;stroke-opacity:0.02"
         id="rect1648"
         width="29.810888"
         height="29.810888"
         x="69.839508"
         y="40.709618"
         rx="6.6098609"
         ry="6.6098609" />
      <rect
         ry="6.6098609"
         rx="6.6098609"
         y="40.709618"
         x="69.839508"
         height="29.810888"
         width="29.810888"
         id="rect1650"
         style="fill:none;fill-opacity:1;stroke:#000000;stroke-width:0.8;stroke-linecap:round;stroke-linejoin:round;stroke-miterlimit:4;stroke-dasharray:none;stroke-opacity:0.02" />
      <rect
         style="fill:none;fill-opacity:1;stroke:#000000;stroke-width:1;stroke-linecap:round;stroke-linejoin:round;stroke-miterlimit:4;stroke-dasharray:none;stroke-opacity:0.02"
         id="rect1652"
         width="29.810888"
         height="29.810888"
         x="69.839508"
         y="40.709618"
         rx="6.6098609"
         ry="6.6098609" />
      <rect
         ry="6.6098609"
         rx="6.6098609"
         y="40.709618"
         x="69.839508"
         height="29.810888"
         width="29.810888"
         id="rect1654"
         style="fill:none;fill-opacity:1;stroke:#000000;stroke-width:1.2;stroke-linecap:round;stroke-linejoin:round;stroke-miterlimit:4;stroke-dasharray:none;stroke-opacity:0.02" />
      <rect
         style="fill:none;fill-opacity:1;stroke:#000000;stroke-width:1.4;stroke-linecap:round;stroke-linejoin:round;stroke-miterlimit:4;stroke-dasharray:none;stroke-opacity:0.02"
         id="rect1656"
         width="29.810888"
         height="29.810888"
         x="69.839508"
         y="40.709618"
         rx="6.6098609"
         ry="6.6098609" />
      <rect
         ry="6.6098609"
         rx="6.6098609"
         y="40.709618"
         x="69.839508"
         height="29.810888"
         width="29.810888"
         id="rect1658"
         style="fill:none;fill-opacity:1;stroke:#000000;stroke-width:1.6;stroke-linecap:round;stroke-linejoin:round;stroke-miterlimit:4;stroke-dasharray:none;stroke-opacity:0.02" />
      <rect
         style="fill:none;fill-opacity:1;stroke:#000000;stroke-width:1.8;stroke-linecap:round;stroke-linejoin:round;stroke-miterlimit:4;stroke-dasharray:none;stroke-opacity:0.02"
         id="rect1660"
         width="29.810888"
         height="29.810888"
         x="69.839508"
         y="40.709618"
         rx="6.6098609"
         ry="6.6098609" />
      <rect
         ry="6.6098609"
         rx="6.6098609"
         y="40.709618"
         x="69.839508"
         height="29.810888"
         width="29.810888"
         id="rect1662"
         style="fill:none;fill-opacity:1;stroke:#000000;stroke-width:2;stroke-linecap:round;stroke-linejoin:round;stroke-miterlimit:4;stroke-dasharray:none;stroke-opacity:0.02" />
      <rect
         style="fill:none;fill-opacity:1;stroke:#000000;stroke-width:2.2;stroke-linecap:round;stroke-linejoin:round;stroke-miterlimit:4;stroke-dasharray:none;stroke-opacity:0.02"
         id="rect1664"
         width="29.810888"
         height="29.810888"
         x="69.839508"
         y="40.709618"
         rx="6.6098609"
         ry="6.6098609" />
      <rect
         ry="6.6098609"
         rx="6.6098609"
         y="40.709618"
         x="69.839508"
         height="29.810888"
         width="29.810888"
         id="rect1666"
         style="fill:none;fill-opacity:1;stroke:#000000;stroke-width:2.6;stroke-linecap:round;stroke-linejoin:round;stroke-miterlimit:4;stroke-dasharray:none;stroke-opacity:0.02" />
      <rect
         style="fill:none;fill-opacity:1;stroke:#000000;stroke-width:3;stroke-linecap:round;stroke-linejoin:round;stroke-miterlimit:4;stroke-dasharray:none;stroke-opacity:0.02"
         id="rect1668"
         width="29.810888"
         height="29.810888"
         x="69.839508"
         y="40.709618"
         rx="6.6098609"
         ry="6.6098609" />
      <rect
         ry="6.6098609"
         rx="6.6098609"
         y="40.709618"
         x="69.839508"
         height="29.810888"
         width="29.810888"
         id="rect1670"
         style="fill:none;fill-opacity:1;stroke:#000000;stroke-width:3.4;stroke-linecap:round;stroke-linejoin:round;stroke-miterlimit:4;stroke-dasharray:none;stroke-opacity:0.02" />
      <rect
         style="fill:none;fill-opacity:1;stroke:#000000;stroke-width:3.8;stroke-linecap:round;stroke-linejoin:round;stroke-miterlimit:4;stroke-dasharray:none;stroke-opacity:0.02"
         id="rect1672"
         width="29.810888"
         height="29.810888"
         x="69.839508"
         y="40.709618"
         rx="6.6098609"
         ry="6.6098609" />
      <rect
         ry="6.6098609"
         rx="6.6098609"
         y="40.709618"
         x="69.839508"
         height="29.810888"
         width="29.810888"
         id="rect1674"
         style="fill:none;fill-opacity:1;stroke:#000000;stroke-width:4.2;stroke-linecap:round;stroke-linejoin:round;stroke-miterlimit:4;stroke-dasharray:none;stroke-opacity:0.02" />
      <rect
         style="fill:none;fill-opacity:1;stroke:#000000;stroke-width:4.6;stroke-linecap:round;stroke-linejoin:round;stroke-miterlimit:4;stroke-dasharray:none;stroke-opacity:0.02"
         id="rect1676"
         width="29.810888"
         height="29.810888"
         x="69.839508"
         y="40.709618"
         rx="6.6098609"
         ry="6.6098609" />
      <rect
         ry="6.6098609"
         rx="6.6098609"
         y="40.709618"
         x="69.839508"
         height="29.810888"
         width="29.810888"
         id="rect1678"
         style="fill:none;fill-opacity:1;stroke:#000000;stroke-width:5;stroke-linecap:round;stroke-linejoin:round;stroke-miterlimit:4;stroke-dasharray:none;stroke-opacity:0.02" />
    </g>
    <rect
       style="fill:url(#linearGradient4677);fill-opacity:1;stroke-width:2.68801;stroke-linecap:round;stroke-linejoin:round;stroke-miterlimit:4;stroke-dasharray:none"
       id="rect849"
       width="29.08744"
       height="29.08744"
       x="2.32546"
       y="2.5189149"
       rx="6.4494534"
       ry="6.4494534" />
    <path
       style="fill:#ffffff;stroke-width:0.532307"
       d="m 23.837448,6.110591 c -0.535653,0 -0.991961,0.3834136 -1.084693,0.9115001 -0.0068,0.038549 -0.01147,0.078026 -0.01388,0.1176181 L 19.793212,8.1159793 C 19.603617,7.8715051 19.331443,7.7048322 19.029558,7.6515482 c -0.07144,-0.012775 -0.144795,-0.019234 -0.218156,-0.019234 -0.606333,0 -1.122529,0.4340054 -1.22738,1.0318093 -0.08997,0.5082388 0.149583,1.0184024 0.58881,1.2825325 l -2.807498,14.961819 c -0.372677,0.02123 -0.714902,0.209372 -0.933788,0.509243 l -3.482443,-1.991697 c 0.0052,-0.02038 0.0091,-0.04024 0.01227,-0.05977 0.04704,-0.265696 -0.01207,-0.532482 -0.1661,-0.750676 -0.0818,-0.116306 -0.187748,-0.213721 -0.310677,-0.286114 l 0.275918,-2.456027 c 0.148014,-0.02768 0.287692,-0.088 0.408054,-0.176843 l 4.419118,2.145355 0.1287,-0.731967 -1.924466,-1.079313 0.288892,-1.620724 c 0.402423,-0.05004 0.714834,-0.394614 0.714834,-0.810703 0,-0.450538 -0.366126,-0.81716 -0.816105,-0.81716 -0.397286,0 -0.734792,0.285089 -0.803471,0.685003 0,0 -0.0068,0.05369 -0.0095,0.09098 -0.0022,0.01354 -0.003,0.02707 -0.003,0.04114 l 0.0015,0.02882 c 1.37e-4,0.0038 4.85e-4,0.0076 6.92e-4,0.01119 l -1.743194,0.71133 c -0.0078,-0.01278 -0.0163,-0.02494 -0.02463,-0.03673 -0.153607,-0.220214 -0.383864,-0.366986 -0.647184,-0.413015 -0.05561,-0.01012 -0.114696,-0.01505 -0.175656,-0.01505 -0.487994,0 -0.9031312,0.348843 -0.9870444,0.828596 -0.073936,0.412509 0.1251183,0.830147 0.4810764,1.039619 l -0.2748495,2.452393 c -0.4116933,0.07299 -0.735329,0.391444 -0.8074948,0.810561 -0.047722,0.263948 0.011065,0.530557 0.1651545,0.750406 0.1537875,0.219761 0.3841086,0.366487 0.6482552,0.413154 0.2538656,0.04539 0.5360226,-0.01589 0.7534316,-0.171049 l 3.640206,2.076887 c -0.01609,0.279658 0.06072,0.554237 0.22124,0.783922 0.19153,0.273498 0.477576,0.45595 0.805081,0.513279 0.07355,0.01308 0.144834,0.01931 0.218016,0.01931 0.606153,0 1.122302,-0.433808 1.227246,-1.030334 0.0068,-0.03833 0.01127,-0.07605 0.01388,-0.111418 l 3.156813,-1.351108 c 0.163163,0.180264 0.380172,0.301165 0.623107,0.344259 0.06301,0.01066 0.127613,0.0165 0.191792,0.0165 0.535642,0 0.991955,-0.383461 1.084684,-0.911638 0.051,-0.289766 -0.01388,-0.582207 -0.183181,-0.824294 -0.06329,-0.08993 -0.137692,-0.168554 -0.22178,-0.234699 L 24.103015,8.2817728 c 0.421149,-0.1026076 0.743851,-0.4421719 0.81987,-0.8766404 0.105867,-0.5987247 -0.294949,-1.172019 -0.893577,-1.2779483 l -7.44e-4,-2.81e-4 c -0.06209,-0.010643 -0.128237,-0.016276 -0.190846,-0.016276 z m -1.45e-4,0.7012845 c 0.0238,0 0.0475,0.00223 0.0706,0.00608 0.06565,0.011488 0.127029,0.040988 0.189096,0.091779 0.109445,0.0949 0.160406,0.2343601 0.135982,0.3731775 -0.02479,0.1399216 -0.122121,0.257607 -0.254055,0.306571 -0.06512,0.024635 -0.13892,0.031715 -0.210615,0.019012 -0.208886,-0.036583 -0.35201,-0.2304012 -0.329513,-0.4391338 l 0.0052,-0.02852 C 23.478888,6.9502063 23.6444,6.8117994 23.837391,6.8117994 Z m -0.790685,1.1639653 c 0.05388,0.055966 0.113771,0.105919 0.179137,0.1496551 L 20.463672,23.08351 c -0.456689,0.07643 -0.818127,0.428119 -0.900302,0.894002 -0.0046,0.02875 -0.0084,0.05788 -0.01086,0.08681 l -3.124393,1.339802 c -0.06072,-0.0814 -0.130168,-0.154049 -0.207387,-0.217349 l 2.828057,-15.084693 c 0.502966,-0.09646 0.902286,-0.4942862 0.991628,-1.0040836 0.0076,-0.042809 0.01308,-0.085977 0.0163,-0.1290616 z m -4.235372,0.3577448 c 0.03291,0 0.06438,0.00308 0.09617,0.00905 0.129182,0.022581 0.246706,0.093804 0.330985,0.2009236 0.09568,0.1211831 0.135942,0.2695224 0.114194,0.4185375 l -0.0038,0.026392 c -0.04156,0.20671 -0.199517,0.3709344 -0.40711,0.4210926 -0.08904,0.022356 -0.155296,0.021676 -0.223529,0.00948 -0.0741,-0.013238 -0.144211,-0.041595 -0.207923,-0.084519 -0.180062,-0.120994 -0.272455,-0.3367145 -0.235369,-0.5492118 0.04666,-0.2617431 0.272339,-0.4516471 0.536768,-0.4516471 z m -4.83176,9.0460374 c 0.121296,0 0.219894,0.09864 0.219894,0.21963 0,0.121548 -0.0986,0.220444 -0.219894,0.220444 -0.121195,0 -0.219893,-0.0989 -0.219893,-0.220444 0,-0.120994 0.0987,-0.21963 0.219893,-0.21963 z m -0.614095,0.754044 c 0.02722,0.03034 0.05927,0.06152 0.10007,0.09622 0.03139,0.02562 0.06301,0.04829 0.09494,0.06799 l -0.261055,1.456673 -1.744307,-0.645901 c 0.003,-0.01529 0.0068,-0.03056 0.0095,-0.04615 0.01107,-0.06456 0.01529,-0.13218 0.01227,-0.201999 z m -2.790527,0.453208 c 0.01791,0 0.03664,0.0015 0.05275,0.0046 0.0806,0.0143 0.148235,0.05771 0.195152,0.124482 0.0443,0.06327 0.06285,0.139367 0.05313,0.21277 l -0.01006,0.03012 c -0.01911,0.08204 -0.07182,0.149623 -0.148879,0.190966 l -0.06939,0.0273 c -0.05782,0.01609 -0.09403,0.01529 -0.12359,0.01026 -0.04058,-0.0068 -0.08116,-0.02396 -0.116869,-0.04822 -0.09906,-0.06708 -0.149684,-0.185817 -0.128841,-0.302128 l 2.74e-4,-7.45e-4 c 0.02501,-0.144349 0.149567,-0.249122 0.296289,-0.249122 z m -0.6014043,4.302166 c 0.0169,0 0.035027,0.0022 0.052892,0.0052 0.04058,0.0076 0.08116,0.0244 0.118358,0.04935 0.03253,0.02267 0.05768,0.04716 0.07719,0.07498 0.04414,0.06273 0.06233,0.138397 0.05152,0.214389 -0.006,0.01368 -0.01187,0.02782 -0.01529,0.04022 -0.02591,0.08846 -0.08404,0.156584 -0.165034,0.192315 -0.06671,0.02974 -0.1236695,0.03163 -0.1726787,0.02396 -0.079046,-0.01348 -0.1478323,-0.05756 -0.1944876,-0.124897 -0.046213,-0.06563 -0.063917,-0.145338 -0.049633,-0.225829 0.019515,-0.114656 0.105905,-0.204657 0.2391311,-0.238465 0.023479,-0.006 0.043839,-0.01127 0.057982,-0.01127 z m 10.6819983,0.871661 c 0.225768,0 0.408856,0.183121 0.408856,0.409125 0,0.225911 -0.18308,0.409116 -0.408856,0.409116 -0.225869,0 -0.408996,-0.183201 -0.408996,-0.409116 0,-0.22601 0.183121,-0.409125 0.408996,-0.409125 z m -0.006,0.006 c 0.02517,-3.44e-4 0.04802,0.0022 0.06969,0.0052 0.04575,0.0082 0.08901,0.02434 0.128318,0.04722 -0.03929,-0.02295 -0.08259,-0.03909 -0.128318,-0.04738 -0.02159,-0.0038 -0.04452,-0.0052 -0.06969,-0.0052 z m -0.08339,0.0097 c -0.03762,0.0078 -0.07311,0.02106 -0.105724,0.03847 0.03267,-0.0175 0.0681,-0.03058 0.105724,-0.03847 z m -0.04142,0.77275 c 0.01811,0.006 0.03655,0.01086 0.05541,0.01428 0.0203,0.0038 0.04285,0.0052 0.0652,0.0052 -0.02241,-3.44e-4 -0.04482,-0.0022 -0.0652,-0.0052 -0.01891,-0.003 -0.03732,-0.008 -0.05541,-0.01408 z m -5.088406,1.058391 c 0.03177,0 0.06438,0.003 0.09575,0.0087 0.121195,0.02122 0.23008,0.08418 0.314186,0.181008 l 0.02583,0.02988 c 0.02881,0.03871 0.05207,0.08001 0.06969,0.124212 0.03442,0.08408 0.04756,0.170326 0.03943,0.257051 l -0.0087,0.01006 v 0.04197 c -0.05738,0.287187 -0.332976,0.485586 -0.630912,0.432667 -0.143326,-0.02517 -0.268227,-0.1051 -0.352233,-0.225555 -0.05752,-0.08166 -0.0909,-0.178815 -0.09631,-0.279515 -0.0022,-0.05165 -6.38e-4,-0.09265 0.0052,-0.128398 0.01026,-0.0578 0.03086,-0.115199 0.06172,-0.170506 0.09577,-0.1729 0.277606,-0.280785 0.476109,-0.281408 z"
       id="path8" />
  </g>
</svg>
