<?xml version="1.0" encoding="UTF-8" standalone="no"?>
<svg
   width="128"
   height="128"
   viewBox="0 0 33.866666 33.866668"
   version="1.1"
   id="svg1542"
   inkscape:version="1.1.2 (0a00cf5339, 2022-02-04, custom)"
   sodipodi:docname="jetbrains.svg"
   xmlns:inkscape="http://www.inkscape.org/namespaces/inkscape"
   xmlns:sodipodi="http://sodipodi.sourceforge.net/DTD/sodipodi-0.dtd"
   xmlns:xlink="http://www.w3.org/1999/xlink"
   xmlns="http://www.w3.org/2000/svg"
   xmlns:svg="http://www.w3.org/2000/svg"
   xmlns:rdf="http://www.w3.org/1999/02/22-rdf-syntax-ns#"
   xmlns:cc="http://creativecommons.org/ns#"
   xmlns:dc="http://purl.org/dc/elements/1.1/">
  <defs
     id="defs1536">
    <linearGradient
       gradientUnits="userSpaceOnUse"
       y2="4.8062401"
       x2="4.3908925"
       y1="30.914423"
       x1="13.478057"
       id="linearGradient4677"
       xlink:href="#linearGradient4675"
       inkscape:collect="always"
       gradientTransform="translate(0.088039,-0.03850961)" />
    <linearGradient
       id="linearGradient4675"
       inkscape:collect="always">
      <stop
         id="stop4671"
         offset="0"
         style="stop-color:#ff7d1e;stop-opacity:1" />
      <stop
         id="stop4673"
         offset="1"
         style="stop-color:#ffa53c;stop-opacity:1" />
    </linearGradient>
    <linearGradient
       inkscape:collect="always"
       xlink:href="#linearGradient1456"
       id="linearGradient1458"
       x1="17.201929"
       y1="28.287624"
       x2="17.201929"
       y2="6.3047051"
       gradientUnits="userSpaceOnUse"
       gradientTransform="translate(0.088037,-0.03850961)" />
    <linearGradient
       inkscape:collect="always"
       id="linearGradient1456">
      <stop
         style="stop-color:#0d0d0d;stop-opacity:1;"
         offset="0"
         id="stop1452" />
      <stop
         style="stop-color:#3c3c3c;stop-opacity:1"
         offset="1"
         id="stop1454" />
    </linearGradient>
    <linearGradient
       inkscape:collect="always"
       xlink:href="#linearGradient1464"
       id="linearGradient1466"
       x1="17.266722"
       y1="26.283102"
       x2="17.266722"
       y2="7.6410527"
       gradientUnits="userSpaceOnUse"
       gradientTransform="translate(0.088037,-0.03850961)" />
    <linearGradient
       inkscape:collect="always"
       id="linearGradient1464">
      <stop
         style="stop-color:#343434;stop-opacity:1"
         offset="0"
         id="stop1460" />
      <stop
         style="stop-color:#0d0d0d;stop-opacity:1"
         offset="1"
         id="stop1462" />
    </linearGradient>
  </defs>
  <sodipodi:namedview
     id="base"
     pagecolor="#ffffff"
     bordercolor="#666666"
     borderopacity="1.0"
     inkscape:pageopacity="0.0"
     inkscape:pageshadow="2"
     inkscape:zoom="2.9202559"
     inkscape:cx="58.556512"
     inkscape:cy="42.462032"
     inkscape:document-units="mm"
     inkscape:current-layer="layer1"
     inkscape:document-rotation="0"
     showgrid="false"
     units="px"
     inkscape:window-width="1366"
     inkscape:window-height="703"
     inkscape:window-x="0"
     inkscape:window-y="37"
     inkscape:window-maximized="1"
     inkscape:pagecheckerboard="0" />
  <metadata
     id="metadata1539">
    <rdf:RDF>
      <cc:Work
         rdf:about="">
        <dc:format>image/svg+xml</dc:format>
        <dc:type
           rdf:resource="http://purl.org/dc/dcmitype/StillImage" />
      </cc:Work>
    </rdf:RDF>
  </metadata>
  <g
     inkscape:label="Capa 1"
     inkscape:groupmode="layer"
     id="layer1">
    <g
       id="g1702"
       transform="matrix(0.97573206,0,0,0.97573206,-65.660346,-37.241603)"
       style="opacity:0.295">
      <rect
         style="fill:none;fill-opacity:1;stroke:#000000;stroke-width:0.1;stroke-linecap:round;stroke-linejoin:round;stroke-miterlimit:4;stroke-dasharray:none;stroke-opacity:0.02"
         id="rect1634"
         width="29.810888"
         height="29.810888"
         x="69.839508"
         y="40.709618"
         rx="6.6098609"
         ry="6.6098609" />
      <rect
         ry="6.6098609"
         rx="6.6098609"
         y="40.709618"
         x="69.839508"
         height="29.810888"
         width="29.810888"
         id="rect1638"
         style="fill:none;fill-opacity:1;stroke:#000000;stroke-width:0.2;stroke-linecap:round;stroke-linejoin:round;stroke-miterlimit:4;stroke-dasharray:none;stroke-opacity:0.02" />
      <rect
         style="fill:none;fill-opacity:1;stroke:#000000;stroke-width:0.3;stroke-linecap:round;stroke-linejoin:round;stroke-miterlimit:4;stroke-dasharray:none;stroke-opacity:0.02"
         id="rect1640"
         width="29.810888"
         height="29.810888"
         x="69.839508"
         y="40.709618"
         rx="6.6098609"
         ry="6.6098609" />
      <rect
         ry="6.6098609"
         rx="6.6098609"
         y="40.709618"
         x="69.839508"
         height="29.810888"
         width="29.810888"
         id="rect1642"
         style="fill:none;fill-opacity:1;stroke:#000000;stroke-width:0.4;stroke-linecap:round;stroke-linejoin:round;stroke-miterlimit:4;stroke-dasharray:none;stroke-opacity:0.02" />
      <rect
         style="fill:none;fill-opacity:1;stroke:#000000;stroke-width:0.5;stroke-linecap:round;stroke-linejoin:round;stroke-miterlimit:4;stroke-dasharray:none;stroke-opacity:0.02"
         id="rect1644"
         width="29.810888"
         height="29.810888"
         x="69.839508"
         y="40.709618"
         rx="6.6098609"
         ry="6.6098609" />
      <rect
         ry="6.6098609"
         rx="6.6098609"
         y="40.709618"
         x="69.839508"
         height="29.810888"
         width="29.810888"
         id="rect1646"
         style="fill:none;fill-opacity:1;stroke:#000000;stroke-width:0.6;stroke-linecap:round;stroke-linejoin:round;stroke-miterlimit:4;stroke-dasharray:none;stroke-opacity:0.02" />
      <rect
         style="fill:none;fill-opacity:1;stroke:#000000;stroke-width:0.7;stroke-linecap:round;stroke-linejoin:round;stroke-miterlimit:4;stroke-dasharray:none;stroke-opacity:0.02"
         id="rect1648"
         width="29.810888"
         height="29.810888"
         x="69.839508"
         y="40.709618"
         rx="6.6098609"
         ry="6.6098609" />
      <rect
         ry="6.6098609"
         rx="6.6098609"
         y="40.709618"
         x="69.839508"
         height="29.810888"
         width="29.810888"
         id="rect1650"
         style="fill:none;fill-opacity:1;stroke:#000000;stroke-width:0.8;stroke-linecap:round;stroke-linejoin:round;stroke-miterlimit:4;stroke-dasharray:none;stroke-opacity:0.02" />
      <rect
         style="fill:none;fill-opacity:1;stroke:#000000;stroke-width:1;stroke-linecap:round;stroke-linejoin:round;stroke-miterlimit:4;stroke-dasharray:none;stroke-opacity:0.02"
         id="rect1652"
         width="29.810888"
         height="29.810888"
         x="69.839508"
         y="40.709618"
         rx="6.6098609"
         ry="6.6098609" />
      <rect
         ry="6.6098609"
         rx="6.6098609"
         y="40.709618"
         x="69.839508"
         height="29.810888"
         width="29.810888"
         id="rect1654"
         style="fill:none;fill-opacity:1;stroke:#000000;stroke-width:1.2;stroke-linecap:round;stroke-linejoin:round;stroke-miterlimit:4;stroke-dasharray:none;stroke-opacity:0.02" />
      <rect
         style="fill:none;fill-opacity:1;stroke:#000000;stroke-width:1.4;stroke-linecap:round;stroke-linejoin:round;stroke-miterlimit:4;stroke-dasharray:none;stroke-opacity:0.02"
         id="rect1656"
         width="29.810888"
         height="29.810888"
         x="69.839508"
         y="40.709618"
         rx="6.6098609"
         ry="6.6098609" />
      <rect
         ry="6.6098609"
         rx="6.6098609"
         y="40.709618"
         x="69.839508"
         height="29.810888"
         width="29.810888"
         id="rect1658"
         style="fill:none;fill-opacity:1;stroke:#000000;stroke-width:1.6;stroke-linecap:round;stroke-linejoin:round;stroke-miterlimit:4;stroke-dasharray:none;stroke-opacity:0.02" />
      <rect
         style="fill:none;fill-opacity:1;stroke:#000000;stroke-width:1.8;stroke-linecap:round;stroke-linejoin:round;stroke-miterlimit:4;stroke-dasharray:none;stroke-opacity:0.02"
         id="rect1660"
         width="29.810888"
         height="29.810888"
         x="69.839508"
         y="40.709618"
         rx="6.6098609"
         ry="6.6098609" />
      <rect
         ry="6.6098609"
         rx="6.6098609"
         y="40.709618"
         x="69.839508"
         height="29.810888"
         width="29.810888"
         id="rect1662"
         style="fill:none;fill-opacity:1;stroke:#000000;stroke-width:2;stroke-linecap:round;stroke-linejoin:round;stroke-miterlimit:4;stroke-dasharray:none;stroke-opacity:0.02" />
      <rect
         style="fill:none;fill-opacity:1;stroke:#000000;stroke-width:2.2;stroke-linecap:round;stroke-linejoin:round;stroke-miterlimit:4;stroke-dasharray:none;stroke-opacity:0.02"
         id="rect1664"
         width="29.810888"
         height="29.810888"
         x="69.839508"
         y="40.709618"
         rx="6.6098609"
         ry="6.6098609" />
      <rect
         ry="6.6098609"
         rx="6.6098609"
         y="40.709618"
         x="69.839508"
         height="29.810888"
         width="29.810888"
         id="rect1666"
         style="fill:none;fill-opacity:1;stroke:#000000;stroke-width:2.6;stroke-linecap:round;stroke-linejoin:round;stroke-miterlimit:4;stroke-dasharray:none;stroke-opacity:0.02" />
      <rect
         style="fill:none;fill-opacity:1;stroke:#000000;stroke-width:3;stroke-linecap:round;stroke-linejoin:round;stroke-miterlimit:4;stroke-dasharray:none;stroke-opacity:0.02"
         id="rect1668"
         width="29.810888"
         height="29.810888"
         x="69.839508"
         y="40.709618"
         rx="6.6098609"
         ry="6.6098609" />
      <rect
         ry="6.6098609"
         rx="6.6098609"
         y="40.709618"
         x="69.839508"
         height="29.810888"
         width="29.810888"
         id="rect1670"
         style="fill:none;fill-opacity:1;stroke:#000000;stroke-width:3.4;stroke-linecap:round;stroke-linejoin:round;stroke-miterlimit:4;stroke-dasharray:none;stroke-opacity:0.02" />
      <rect
         style="fill:none;fill-opacity:1;stroke:#000000;stroke-width:3.8;stroke-linecap:round;stroke-linejoin:round;stroke-miterlimit:4;stroke-dasharray:none;stroke-opacity:0.02"
         id="rect1672"
         width="29.810888"
         height="29.810888"
         x="69.839508"
         y="40.709618"
         rx="6.6098609"
         ry="6.6098609" />
      <rect
         ry="6.6098609"
         rx="6.6098609"
         y="40.709618"
         x="69.839508"
         height="29.810888"
         width="29.810888"
         id="rect1674"
         style="fill:none;fill-opacity:1;stroke:#000000;stroke-width:4.2;stroke-linecap:round;stroke-linejoin:round;stroke-miterlimit:4;stroke-dasharray:none;stroke-opacity:0.02" />
      <rect
         style="fill:none;fill-opacity:1;stroke:#000000;stroke-width:4.6;stroke-linecap:round;stroke-linejoin:round;stroke-miterlimit:4;stroke-dasharray:none;stroke-opacity:0.02"
         id="rect1676"
         width="29.810888"
         height="29.810888"
         x="69.839508"
         y="40.709618"
         rx="6.6098609"
         ry="6.6098609" />
      <rect
         ry="6.6098609"
         rx="6.6098609"
         y="40.709618"
         x="69.839508"
         height="29.810888"
         width="29.810888"
         id="rect1678"
         style="fill:none;fill-opacity:1;stroke:#000000;stroke-width:5;stroke-linecap:round;stroke-linejoin:round;stroke-miterlimit:4;stroke-dasharray:none;stroke-opacity:0.02" />
    </g>
    <rect
       style="fill:url(#linearGradient4677);fill-opacity:1;stroke-width:2.68801;stroke-linecap:round;stroke-linejoin:round;stroke-miterlimit:4;stroke-dasharray:none"
       id="rect849"
       width="29.08744"
       height="29.08744"
       x="2.4843028"
       y="2.4800754"
       rx="6.4494534"
       ry="6.4494534" />
    <rect
       style="opacity:1;fill:url(#linearGradient1458);fill-opacity:1;stroke:none;stroke-width:0.670983;stroke-linecap:round;stroke-linejoin:round;stroke-miterlimit:4;stroke-dasharray:none;stroke-opacity:1"
       id="rect1448"
       width="24.711782"
       height="23.96294"
       x="4.6721306"
       y="5.0423245"
       rx="4.0601048"
       ry="4.0601048" />
    <rect
       ry="2.6569397"
       rx="2.6569397"
       y="7.3120284"
       x="7.0127645"
       height="19.423532"
       width="20.030519"
       id="rect1450"
       style="opacity:1;fill:url(#linearGradient1466);fill-opacity:1;stroke:none;stroke-width:0.670983;stroke-linecap:round;stroke-linejoin:round;stroke-miterlimit:4;stroke-dasharray:none;stroke-opacity:1" />
    <path
       id="path2107-0"
       d="m 10.284859,21.696795 h 5.745177 v 1.149034 h -5.745177 z"
       inkscape:connector-curvature="0"
       style="fill:#f9f9f9;stroke-width:0.48941" />
    <g
       transform="matrix(1.7828296,0,0,1.7828296,2.1054689,1.6608017)"
       fill="#ffffff"
       font-family="monospace"
       font-weight="bold"
       letter-spacing="0px"
       word-spacing="0px"
       aria-label="GO"
       id="g60"
       style="fill:#f9f9f9;fill-opacity:1">
      <g
         stroke-width="0.01292"
         style="font-variant-ligatures:normal;font-variant-caps:normal;font-variant-numeric:normal;font-variant-east-asian:normal;fill:#f9f9f9;fill-opacity:1"
         aria-label="J"
         id="g50"
         transform="matrix(1.18675,0,0,1.0040816,-0.97715654,-0.00544524)">
        <g
           shape-rendering="auto"
           id="g48"
           style="fill:#f9f9f9;fill-opacity:1">
          <path
             d="m 6.3035,8.8866 c 0.72908,0 1.0501,-0.52274 1.0501,-1.1601 V 5.4246 H 6.67496 v 2.2468 c 0,0.46771 -0.1559,0.6282 -0.45395,0.6282 -0.19259,0 -0.37142,-0.10546 -0.50439,-0.35308 L 5.25349,8.29043 c 0.22468,0.39434 0.55483,0.5961 1.0501,0.5961 z"
             color="#000000"
             color-rendering="auto"
             dominant-baseline="auto"
             fill="#ffffff"
             image-rendering="auto"
             solid-color="#000000"
             stop-color="#000000"
             style="font-variant-ligatures:normal;font-variant-position:normal;font-variant-caps:normal;font-variant-numeric:normal;font-variant-alternates:normal;font-variant-east-asian:normal;font-feature-settings:normal;font-variation-settings:normal;text-indent:0;text-decoration-line:none;text-decoration-style:solid;text-decoration-color:#000000;text-transform:none;text-orientation:mixed;white-space:normal;shape-padding:0;shape-margin:0;inline-size:0;isolation:auto;mix-blend-mode:normal;fill:#f9f9f9;fill-opacity:1"
             id="path44" />
          <path
             d="m 6.6582,5.4082 v 2.2637 c 0,0.23208 -0.038511,0.38435 -0.11133,0.47852 C 6.474053,8.244589 6.36685,8.28323 6.2207,8.28323 6.03395,8.28323 5.86151,8.183492 5.73047,7.93948 L 5.72266,7.921902 5.23243,8.285182 5.24024,8.298854 c 0.22686,0.39816 0.56293,0.60352 1.0625,0.60352 0.36836,0 0.63812,-0.13166 0.8125,-0.3457 0.17438,-0.21404 0.25391,-0.50871 0.25391,-0.83008 v -2.3184 H 6.65821 Z m 0.033203,0.033203 h 0.64648 v 2.2852 c 0,0.316 -0.079672,0.60193 -0.24805,0.80859 -0.16838,0.20667 -0.42639,0.33594 -0.78711,0.33594 -0.48508,0 -0.80121,-0.19866 -1.0234,-0.58008 l 0.43945,-0.32617 c 0.13379,0.23594 0.30931,0.35156 0.50195,0.35156 0.1519,0 0.27191,-0.043481 0.35156,-0.14648 0.079648,-0.103 0.11914,-0.26241 0.11914,-0.49805 v -2.2305 z"
             color="#000000"
             color-rendering="auto"
             dominant-baseline="auto"
             image-rendering="auto"
             solid-color="#000000"
             stop-color="#000000"
             style="font-variant-ligatures:normal;font-variant-position:normal;font-variant-caps:normal;font-variant-numeric:normal;font-variant-alternates:normal;font-variant-east-asian:normal;font-feature-settings:normal;font-variation-settings:normal;text-indent:0;text-decoration-line:none;text-decoration-style:solid;text-decoration-color:#000000;text-transform:none;text-orientation:mixed;white-space:normal;shape-padding:0;shape-margin:0;inline-size:0;isolation:auto;mix-blend-mode:normal;fill:#f9f9f9;fill-opacity:1"
             id="path46" />
        </g>
      </g>
      <g
         stroke-width="0.013164"
         style="font-variant-ligatures:normal;font-variant-caps:normal;font-variant-numeric:normal;font-variant-east-asian:normal;fill:#f9f9f9;fill-opacity:1"
         aria-label="B"
         id="g58"
         transform="matrix(1.1144371,0,0,1,-1.2677832,0)">
        <g
           shape-rendering="auto"
           id="g56"
           style="fill:#f9f9f9;fill-opacity:1">
          <path
             d="M 8.4856,8.8865 H 9.719 c 0.76155,0 1.3409,-0.32237 1.3409,-1.0185 0,-0.46721 -0.27565,-0.72885 -0.64942,-0.81762 V 7.02702 c 0.29434,-0.10279 0.47188,-0.42983 0.47188,-0.74754 0,-0.64475 -0.54196,-0.85499 -1.2521,-0.85499 H 8.48556 Z M 9.17707,6.8354 V 5.95705 h 0.41114 c 0.41582,0 0.62139,0.12147 0.62139,0.42516 0,0.27565 -0.19156,0.45319 -0.63073,0.45319 z m 0,1.5184 V 7.3446 H 9.6583 c 0.47655,0 0.72885,0.14484 0.72885,0.48123 0,0.35975 -0.25697,0.52795 -0.72885,0.52795 z"
             color="#000000"
             color-rendering="auto"
             dominant-baseline="auto"
             fill="#ffffff"
             image-rendering="auto"
             solid-color="#000000"
             stop-color="#000000"
             style="font-variant-ligatures:normal;font-variant-position:normal;font-variant-caps:normal;font-variant-numeric:normal;font-variant-alternates:normal;font-variant-east-asian:normal;font-feature-settings:normal;font-variation-settings:normal;text-indent:0;text-decoration-line:none;text-decoration-style:solid;text-decoration-color:#000000;text-transform:none;text-orientation:mixed;white-space:normal;shape-padding:0;shape-margin:0;inline-size:0;isolation:auto;mix-blend-mode:normal;fill:#f9f9f9;fill-opacity:1"
             id="path52" />
          <path
             d="m 8.4688,5.4348 v 3.4970827 h 0.017593 1.233452 c 0.383357,0 0.721676,-0.079832 0.965663,-0.2502134 0.243998,-0.1703853 0.392916,-0.4330193 0.392916,-0.7858303 0,-0.236952 -0.07129,-0.4229807 -0.189612,-0.5610284 -0.115489,-0.134735 -0.277387,-0.2198275 -0.461333,-0.2658469 v -0.013684 c 0.291599,-0.1125559 0.473063,-0.4313579 0.473063,-0.7486886 0,-0.327139 -0.139018,-0.5485178 -0.367503,-0.6841735 C 10.304554,5.4867623 9.9888442,5.4347579 9.63188,5.4347579 H 8.468788 Z m 0.033231,0.033232 h 1.1298637 c 0.3538019,0 0.6631453,0.050922 0.8835633,0.1817951 0.220419,0.1308726 0.353822,0.3386488 0.353822,0.6568102 0,0.3120061 -0.176781,0.6329998 -0.463286,0.7330452 l -0.0099,0.00391 v 0.046915 l 0.01173,0.00391 c 0.184467,0.043811 0.344273,0.1299408 0.457419,0.2619434 0.113147,0.1320026 0.179844,0.3088634 0.179844,0.5395202 0,0.3439233 -0.1408,0.5933361 -0.377271,0.7584569 C 10.431344,8.8194689 10.09858,8.9006381 9.7197373,8.9006381 H 8.5019913 V 5.4680163 Z m 0.6587618,0.5004268 v 0.9109369 h 0.017593 0.4007317 c 0.2219294,0 0.3838074,-0.045106 0.4906475,-0.1270583 0.106852,-0.081956 0.158336,-0.2004309 0.158336,-0.3420917 10e-7,-0.1555827 -0.05446,-0.2688794 -0.162249,-0.3401301 C 9.9580612,5.998861 9.7985251,5.9684682 9.5888864,5.9684682 H 9.1607912 Z m 0.033231,0.031277 h 0.3948668 c 0.2065261,0 0.3602573,0.030264 0.4593714,0.095785 0.09912,0.065522 0.146605,0.1663619 0.146605,0.3147185 0,0.1342344 -0.04575,0.2408154 -0.144653,0.31668 C 9.951312,6.8027803 9.7967277,6.8481118 9.579112,6.8481118 H 9.1940145 v -0.848384 z m -0.033231,1.3566571 v 1.0418887 h 0.017593 0.4808801 c 0.238043,0 0.4238311,-0.040992 0.5512501,-0.1309717 0.127419,-0.089981 0.193525,-0.228615 0.193525,-0.4124618 0,-0.1723471 -0.06465,-0.3001961 -0.191574,-0.3811851 C 10.08554,7.3926739 9.8993612,7.356372 9.6592664,7.356372 H 9.1607912 Z m 0.033231,0.033231 h 0.4652368 c 0.236862,0 0.4170354,0.035762 0.5356164,0.111425 0.118571,0.075661 0.177892,0.1894816 0.177892,0.3538218 0,0.1762203 -0.0606,0.3008866 -0.179843,0.3850985 -0.119244,0.084211 -0.2994158,0.1270575 -0.5336556,0.1270575 H 9.1940346 V 7.3896333 Z"
             color="#000000"
             color-rendering="auto"
             dominant-baseline="auto"
             image-rendering="auto"
             solid-color="#000000"
             stop-color="#000000"
             style="font-variant-ligatures:normal;font-variant-position:normal;font-variant-caps:normal;font-variant-numeric:normal;font-variant-alternates:normal;font-variant-east-asian:normal;font-feature-settings:normal;font-variation-settings:normal;text-indent:0;text-decoration-line:none;text-decoration-style:solid;text-decoration-color:#000000;text-transform:none;text-orientation:mixed;white-space:normal;shape-padding:0;shape-margin:0;inline-size:0;isolation:auto;mix-blend-mode:normal;stroke-width:0.0131753;fill:#f9f9f9;fill-opacity:1"
             id="path54" />
        </g>
      </g>
    </g>
  </g>
</svg>
