<?xml version="1.0" encoding="UTF-8" standalone="no"?>
<!-- Created with Inkscape (http://www.inkscape.org/) -->

<svg
   xmlns:dc="http://purl.org/dc/elements/1.1/"
   xmlns:cc="http://creativecommons.org/ns#"
   xmlns:rdf="http://www.w3.org/1999/02/22-rdf-syntax-ns#"
   xmlns:svg="http://www.w3.org/2000/svg"
   xmlns="http://www.w3.org/2000/svg"
   xmlns:xlink="http://www.w3.org/1999/xlink"
   xmlns:sodipodi="http://sodipodi.sourceforge.net/DTD/sodipodi-0.dtd"
   xmlns:inkscape="http://www.inkscape.org/namespaces/inkscape"
   width="128"
   height="128"
   viewBox="0 0 33.866666 33.866668"
   version="1.1"
   id="svg2759"
   inkscape:version="0.92.5 (2060ec1f9f, 2020-04-08)"
   sodipodi:docname="keepassxc.svg">
  <defs
     id="defs2753">
    <linearGradient
       inkscape:collect="always"
       xlink:href="#linearGradient18845"
       id="linearGradient18847"
       x1="16.914434"
       y1="29.85067"
       x2="16.914434"
       y2="7.313839"
       gradientUnits="userSpaceOnUse"
       gradientTransform="translate(-0.33072853,-0.33072853)" />
    <linearGradient
       inkscape:collect="always"
       id="linearGradient18845">
      <stop
         style="stop-color:#1c1c1c;stop-opacity:1"
         offset="0"
         id="stop18841" />
      <stop
         style="stop-color:#444b4b;stop-opacity:1"
         offset="1"
         id="stop18843" />
    </linearGradient>
    <linearGradient
       inkscape:collect="always"
       xlink:href="#linearGradient18857"
       id="linearGradient18859"
       x1="16.445791"
       y1="9.3488083"
       x2="16.445791"
       y2="27.123116"
       gradientUnits="userSpaceOnUse"
       gradientTransform="translate(-0.2358862,-0.10726471)" />
    <linearGradient
       inkscape:collect="always"
       id="linearGradient18857">
      <stop
         style="stop-color:#ffffff;stop-opacity:1"
         offset="0"
         id="stop18853" />
      <stop
         style="stop-color:#f1f1f1;stop-opacity:1"
         offset="1"
         id="stop18855" />
    </linearGradient>
    <linearGradient
       y2="86.356995"
       x2="53.238865"
       y1="12.753036"
       x1="53.238865"
       gradientUnits="userSpaceOnUse"
       id="linearGradient1318"
       xlink:href="#linearGradient1515-3"
       inkscape:collect="always"
       gradientTransform="matrix(0.23135912,0,0,0.23135912,4.8740094,6.2819697)" />
    <linearGradient
       id="linearGradient1515-3"
       inkscape:collect="always">
      <stop
         id="stop1511"
         offset="0"
         style="stop-color:#226e23;stop-opacity:1" />
      <stop
         id="stop1513"
         offset="1"
         style="stop-color:#63ab3a;stop-opacity:1" />
    </linearGradient>
    <linearGradient
       inkscape:collect="always"
       xlink:href="#linearGradient934"
       id="linearGradient936"
       x1="-21.630775"
       y1="23.661308"
       x2="-21.630775"
       y2="-1.6630957"
       gradientUnits="userSpaceOnUse"
       gradientTransform="translate(43.902425,268.78492)" />
    <linearGradient
       inkscape:collect="always"
       id="linearGradient934">
      <stop
         style="stop-color:#444b4b;stop-opacity:1"
         offset="0"
         id="stop930" />
      <stop
         style="stop-color:#1c1c1c;stop-opacity:1"
         offset="1"
         id="stop932" />
    </linearGradient>
  </defs>
  <sodipodi:namedview
     id="base"
     pagecolor="#ffffff"
     bordercolor="#666666"
     borderopacity="1.0"
     inkscape:pageopacity="0.0"
     inkscape:pageshadow="2"
     inkscape:zoom="3.959798"
     inkscape:cx="101.53338"
     inkscape:cy="60.167156"
     inkscape:document-units="mm"
     inkscape:current-layer="layer1"
     showgrid="false"
     units="px"
     inkscape:window-width="1920"
     inkscape:window-height="1019"
     inkscape:window-x="0"
     inkscape:window-y="30"
     inkscape:window-maximized="1" />
  <metadata
     id="metadata2756">
    <rdf:RDF>
      <cc:Work
         rdf:about="">
        <dc:format>image/svg+xml</dc:format>
        <dc:type
           rdf:resource="http://purl.org/dc/dcmitype/StillImage" />
        <dc:title></dc:title>
      </cc:Work>
    </rdf:RDF>
  </metadata>
  <g
     inkscape:label="Capa 1"
     inkscape:groupmode="layer"
     id="layer1"
     transform="translate(0,-263.13332)">
    <g
       id="g1702"
       transform="matrix(0.97573206,0,0,0.97573206,-65.716751,225.8966)"
       style="opacity:0.29676508">
      <rect
         style="fill:none;fill-opacity:1;stroke:#000000;stroke-width:0.1;stroke-linecap:round;stroke-linejoin:round;stroke-miterlimit:4;stroke-dasharray:none;stroke-opacity:0.02000002"
         id="rect1634"
         width="29.810888"
         height="29.810888"
         x="69.839508"
         y="40.709618"
         rx="6.6098609"
         ry="6.6098609" />
      <rect
         ry="6.6098609"
         rx="6.6098609"
         y="40.709618"
         x="69.839508"
         height="29.810888"
         width="29.810888"
         id="rect1638"
         style="fill:none;fill-opacity:1;stroke:#000000;stroke-width:0.2;stroke-linecap:round;stroke-linejoin:round;stroke-miterlimit:4;stroke-dasharray:none;stroke-opacity:0.02000002" />
      <rect
         style="fill:none;fill-opacity:1;stroke:#000000;stroke-width:0.30000001;stroke-linecap:round;stroke-linejoin:round;stroke-miterlimit:4;stroke-dasharray:none;stroke-opacity:0.02000002"
         id="rect1640"
         width="29.810888"
         height="29.810888"
         x="69.839508"
         y="40.709618"
         rx="6.6098609"
         ry="6.6098609" />
      <rect
         ry="6.6098609"
         rx="6.6098609"
         y="40.709618"
         x="69.839508"
         height="29.810888"
         width="29.810888"
         id="rect1642"
         style="fill:none;fill-opacity:1;stroke:#000000;stroke-width:0.40000001;stroke-linecap:round;stroke-linejoin:round;stroke-miterlimit:4;stroke-dasharray:none;stroke-opacity:0.02000002" />
      <rect
         style="fill:none;fill-opacity:1;stroke:#000000;stroke-width:0.5;stroke-linecap:round;stroke-linejoin:round;stroke-miterlimit:4;stroke-dasharray:none;stroke-opacity:0.02000002"
         id="rect1644"
         width="29.810888"
         height="29.810888"
         x="69.839508"
         y="40.709618"
         rx="6.6098609"
         ry="6.6098609" />
      <rect
         ry="6.6098609"
         rx="6.6098609"
         y="40.709618"
         x="69.839508"
         height="29.810888"
         width="29.810888"
         id="rect1646"
         style="fill:none;fill-opacity:1;stroke:#000000;stroke-width:0.60000002;stroke-linecap:round;stroke-linejoin:round;stroke-miterlimit:4;stroke-dasharray:none;stroke-opacity:0.02000002" />
      <rect
         style="fill:none;fill-opacity:1;stroke:#000000;stroke-width:0.69999999;stroke-linecap:round;stroke-linejoin:round;stroke-miterlimit:4;stroke-dasharray:none;stroke-opacity:0.02000002"
         id="rect1648"
         width="29.810888"
         height="29.810888"
         x="69.839508"
         y="40.709618"
         rx="6.6098609"
         ry="6.6098609" />
      <rect
         ry="6.6098609"
         rx="6.6098609"
         y="40.709618"
         x="69.839508"
         height="29.810888"
         width="29.810888"
         id="rect1650"
         style="fill:none;fill-opacity:1;stroke:#000000;stroke-width:0.80000001;stroke-linecap:round;stroke-linejoin:round;stroke-miterlimit:4;stroke-dasharray:none;stroke-opacity:0.02000002" />
      <rect
         style="fill:none;fill-opacity:1;stroke:#000000;stroke-width:1;stroke-linecap:round;stroke-linejoin:round;stroke-miterlimit:4;stroke-dasharray:none;stroke-opacity:0.02000002"
         id="rect1652"
         width="29.810888"
         height="29.810888"
         x="69.839508"
         y="40.709618"
         rx="6.6098609"
         ry="6.6098609" />
      <rect
         ry="6.6098609"
         rx="6.6098609"
         y="40.709618"
         x="69.839508"
         height="29.810888"
         width="29.810888"
         id="rect1654"
         style="fill:none;fill-opacity:1;stroke:#000000;stroke-width:1.20000005;stroke-linecap:round;stroke-linejoin:round;stroke-miterlimit:4;stroke-dasharray:none;stroke-opacity:0.02000002" />
      <rect
         style="fill:none;fill-opacity:1;stroke:#000000;stroke-width:1.39999998;stroke-linecap:round;stroke-linejoin:round;stroke-miterlimit:4;stroke-dasharray:none;stroke-opacity:0.02000002"
         id="rect1656"
         width="29.810888"
         height="29.810888"
         x="69.839508"
         y="40.709618"
         rx="6.6098609"
         ry="6.6098609" />
      <rect
         ry="6.6098609"
         rx="6.6098609"
         y="40.709618"
         x="69.839508"
         height="29.810888"
         width="29.810888"
         id="rect1658"
         style="fill:none;fill-opacity:1;stroke:#000000;stroke-width:1.60000002;stroke-linecap:round;stroke-linejoin:round;stroke-miterlimit:4;stroke-dasharray:none;stroke-opacity:0.02000002" />
      <rect
         style="fill:none;fill-opacity:1;stroke:#000000;stroke-width:1.79999995;stroke-linecap:round;stroke-linejoin:round;stroke-miterlimit:4;stroke-dasharray:none;stroke-opacity:0.02000002"
         id="rect1660"
         width="29.810888"
         height="29.810888"
         x="69.839508"
         y="40.709618"
         rx="6.6098609"
         ry="6.6098609" />
      <rect
         ry="6.6098609"
         rx="6.6098609"
         y="40.709618"
         x="69.839508"
         height="29.810888"
         width="29.810888"
         id="rect1662"
         style="fill:none;fill-opacity:1;stroke:#000000;stroke-width:2;stroke-linecap:round;stroke-linejoin:round;stroke-miterlimit:4;stroke-dasharray:none;stroke-opacity:0.02000002" />
      <rect
         style="fill:none;fill-opacity:1;stroke:#000000;stroke-width:2.20000005;stroke-linecap:round;stroke-linejoin:round;stroke-miterlimit:4;stroke-dasharray:none;stroke-opacity:0.02000002"
         id="rect1664"
         width="29.810888"
         height="29.810888"
         x="69.839508"
         y="40.709618"
         rx="6.6098609"
         ry="6.6098609" />
      <rect
         ry="6.6098609"
         rx="6.6098609"
         y="40.709618"
         x="69.839508"
         height="29.810888"
         width="29.810888"
         id="rect1666"
         style="fill:none;fill-opacity:1;stroke:#000000;stroke-width:2.5999999;stroke-linecap:round;stroke-linejoin:round;stroke-miterlimit:4;stroke-dasharray:none;stroke-opacity:0.02000002" />
      <rect
         style="fill:none;fill-opacity:1;stroke:#000000;stroke-width:3;stroke-linecap:round;stroke-linejoin:round;stroke-miterlimit:4;stroke-dasharray:none;stroke-opacity:0.02000002"
         id="rect1668"
         width="29.810888"
         height="29.810888"
         x="69.839508"
         y="40.709618"
         rx="6.6098609"
         ry="6.6098609" />
      <rect
         ry="6.6098609"
         rx="6.6098609"
         y="40.709618"
         x="69.839508"
         height="29.810888"
         width="29.810888"
         id="rect1670"
         style="fill:none;fill-opacity:1;stroke:#000000;stroke-width:3.4000001;stroke-linecap:round;stroke-linejoin:round;stroke-miterlimit:4;stroke-dasharray:none;stroke-opacity:0.02000002" />
      <rect
         style="fill:none;fill-opacity:1;stroke:#000000;stroke-width:3.79999995;stroke-linecap:round;stroke-linejoin:round;stroke-miterlimit:4;stroke-dasharray:none;stroke-opacity:0.02000002"
         id="rect1672"
         width="29.810888"
         height="29.810888"
         x="69.839508"
         y="40.709618"
         rx="6.6098609"
         ry="6.6098609" />
      <rect
         ry="6.6098609"
         rx="6.6098609"
         y="40.709618"
         x="69.839508"
         height="29.810888"
         width="29.810888"
         id="rect1674"
         style="fill:none;fill-opacity:1;stroke:#000000;stroke-width:4.19999981;stroke-linecap:round;stroke-linejoin:round;stroke-miterlimit:4;stroke-dasharray:none;stroke-opacity:0.02000002" />
      <rect
         style="fill:none;fill-opacity:1;stroke:#000000;stroke-width:4.5999999;stroke-linecap:round;stroke-linejoin:round;stroke-miterlimit:4;stroke-dasharray:none;stroke-opacity:0.02000002"
         id="rect1676"
         width="29.810888"
         height="29.810888"
         x="69.839508"
         y="40.709618"
         rx="6.6098609"
         ry="6.6098609" />
      <rect
         ry="6.6098609"
         rx="6.6098609"
         y="40.709618"
         x="69.839508"
         height="29.810888"
         width="29.810888"
         id="rect1678"
         style="fill:none;fill-opacity:1;stroke:#000000;stroke-width:5;stroke-linecap:round;stroke-linejoin:round;stroke-miterlimit:4;stroke-dasharray:none;stroke-opacity:0.02000002" />
    </g>
    <rect
       style="fill:url(#linearGradient936);fill-opacity:1;stroke-width:2.68768048;stroke-linecap:round;stroke-linejoin:round"
       id="rect849-5"
       width="29.08744"
       height="29.08744"
       x="2.4279006"
       y="265.61829"
       rx="6.4494534"
       ry="6.4494534" />
    <g
       id="g18911"
       transform="translate(0.52965552,262.31208)">
      <circle
         style="opacity:1;fill:#ffffff;fill-opacity:0.08256884;stroke-width:0.3123996"
         id="circle18849"
         cx="16.441965"
         cy="17.849926"
         r="11.575521" />
      <circle
         r="9.7914486"
         cy="17.957195"
         cx="16.677847"
         id="path3336-5"
         style="fill:none;fill-opacity:1;fill-rule:evenodd;stroke:none;stroke-width:0.52371597;stroke-linecap:round;stroke-linejoin:round;stroke-miterlimit:4;stroke-dasharray:none;stroke-opacity:1" />
      <circle
         r="11.244791"
         cy="17.849926"
         cx="16.441965"
         id="path18835"
         style="opacity:1;fill:url(#linearGradient18847);fill-opacity:1;stroke-width:0.30347389" />
      <path
         inkscape:connector-curvature="0"
         id="path4264-6"
         d="M 16.441965,7.7451357 A 10.10495,10.10495 0 0 0 6.3371744,17.849925 10.10495,10.10495 0 0 0 16.441965,27.954716 10.10495,10.10495 0 0 0 26.546756,17.849925 10.10495,10.10495 0 0 0 16.441965,7.7451357 Z m 0,1.552636 c 0.523851,0.0019 1.04653,0.05203 1.561223,0.149571 0.02479,0.111904 0.03886,0.227662 0.03886,0.347039 0,0.8844033 -0.716581,1.6005443 -1.600535,1.6000823 -0.883952,5.08e-4 -1.600083,-0.715219 -1.600083,-1.5996303 0,-0.119868 0.01435,-0.236066 0.03932,-0.348395 0.514725,-0.09721 1.037402,-0.147075 1.561222,-0.148667 z m -4.394467,1.2259323 c -0.05565,0.282064 -0.08591,0.572415 -0.08586,0.87076 0,1.786013 1.047685,3.324158 2.559862,4.044266 v 8.118355 l 1.92001,1.92001 1.920461,-1.920461 -0.110257,-1.7004 0.905554,-0.905102 -0.905554,-0.905103 1.358331,-1.357427 -1.358331,-1.358331 0.110257,-1.891993 c 1.512631,-0.719659 2.560314,-2.257801 2.560314,-4.043814 0,-0.29775 -0.03086,-0.58788 -0.08631,-0.869405 2.575595,1.542597 4.153924,4.322654 4.158138,7.324866 -1.25e-4,4.723102 -3.829053,8.552027 -8.552155,8.552155 -4.723101,-1.28e-4 -8.5520276,-3.829053 -8.5521546,-8.552155 0.0036,-3.002635 1.581832,-5.783235 4.1576876,-7.326221 z m 3.113858,5.99184 h 0.640305 v 6.400785 h -0.639853 l -4.55e-4,-6.400333 v -4.56e-4 z"
         style="fill:url(#linearGradient18859);fill-opacity:1;fill-rule:evenodd;stroke:none;stroke-width:0.87300003;stroke-linecap:round;stroke-linejoin:round;stroke-miterlimit:4;stroke-dasharray:none;stroke-opacity:1" />
      <path
         inkscape:connector-curvature="0"
         id="path3336-3-2-7-2"
         d="m 18.003075,9.4473827 c 0.02479,0.111904 0.03896,0.227808 0.03896,0.347184 0,0.8844053 -0.7166,1.6005243 -1.600554,1.6000613 -0.883951,5.08e-4 -1.600065,-0.715166 -1.600065,-1.5995773 0,-0.119867 0.01449,-0.236314 0.03944,-0.348644 0.514726,-0.09721 1.037292,-0.146923 1.561112,-0.148514 0.52385,0.0019 1.046416,0.05195 1.56111,0.14949 z m -6.04139,1.9472453 c 0,1.786014 1.047635,3.323883 2.559812,4.043991 v 8.118665 l 1.91998,1.919979 1.920471,-1.920466 -0.110049,-1.700374 0.905212,-0.905215 -0.905212,-0.905216 1.35806,-1.357569 -1.35806,-1.358055 0.110046,-1.892235 c 1.512631,-0.719659 2.560301,-2.257491 2.560301,-4.043505 0,-0.29775 -0.03074,-0.588136 -0.08619,-0.869661 2.575595,1.542597 4.153716,4.322752 4.157931,7.324964 -1.26e-4,4.723102 -3.828923,8.551901 -8.552025,8.552027 -4.723101,-1.26e-4 -8.5518986,-3.828925 -8.5520236,-8.552027 0.0036,-3.002635 1.581587,-5.78344 4.1574436,-7.326426 -0.05565,0.282064 -0.08576,0.572778 -0.0857,0.871123 z m 3.199643,5.12107 h 0.640319 v 6.400743 h -0.639833 l -4.56e-4,-6.40026 v -4.56e-4 z"
         style="opacity:0.93999999;fill:url(#linearGradient1318);fill-opacity:1;fill-rule:nonzero;stroke:none;stroke-width:0.27931499;stroke-linecap:round;stroke-linejoin:round;stroke-miterlimit:4;stroke-dasharray:none;stroke-opacity:1" />
      <path
         style="fill:#ffffff;fill-opacity:1;fill-rule:evenodd;stroke:none;stroke-width:0.87300003;stroke-linecap:round;stroke-linejoin:round;stroke-miterlimit:4;stroke-dasharray:none;stroke-opacity:1"
         d="M 16.441965,7.7451357 A 10.10495,10.10495 0 0 0 6.3371744,17.849925 10.10495,10.10495 0 0 0 16.441965,27.954716 10.10495,10.10495 0 0 0 26.546756,17.849925 10.10495,10.10495 0 0 0 16.441965,7.7451357 Z m 0,1.552636 c 0.523851,0.0019 1.04653,0.05203 1.561223,0.149571 0.02479,0.111904 0.03886,0.227662 0.03886,0.347039 0,0.8844033 -0.716581,1.6005443 -1.600535,1.6000823 -0.883952,5.08e-4 -1.600083,-0.715219 -1.600083,-1.5996303 0,-0.119868 0.01435,-0.236066 0.03932,-0.348395 0.514725,-0.09721 1.037402,-0.147075 1.561222,-0.148667 z m -4.394467,1.2259323 c -0.05565,0.282064 -0.08591,0.572415 -0.08586,0.87076 0,1.786013 1.047685,3.324158 2.559862,4.044266 v 8.118355 l 1.92001,1.92001 1.920461,-1.920461 -0.110257,-1.7004 0.905554,-0.905102 -0.905554,-0.905103 1.358331,-1.357427 -1.358331,-1.358331 0.110257,-1.891993 c 1.512631,-0.719659 2.560314,-2.257801 2.560314,-4.043814 0,-0.29775 -0.03086,-0.58788 -0.08631,-0.869405 2.575595,1.542597 4.153924,4.322654 4.158138,7.324866 -1.25e-4,4.723102 -3.829053,8.552027 -8.552155,8.552155 -4.723101,-1.28e-4 -8.5520276,-3.829053 -8.5521546,-8.552155 0.0036,-3.002635 1.581832,-5.783235 4.1576876,-7.326221 z m 3.113858,5.99184 h 0.640305 v 6.400785 h -0.639853 l -4.55e-4,-6.400333 v -4.56e-4 z"
         id="path18861"
         inkscape:connector-curvature="0" />
    </g>
  </g>
</svg>
