<?xml version="1.0" encoding="UTF-8" standalone="no"?>
<svg
   xmlns:dc="http://purl.org/dc/elements/1.1/"
   xmlns:cc="http://creativecommons.org/ns#"
   xmlns:rdf="http://www.w3.org/1999/02/22-rdf-syntax-ns#"
   xmlns:svg="http://www.w3.org/2000/svg"
   xmlns="http://www.w3.org/2000/svg"
   xmlns:sodipodi="http://sodipodi.sourceforge.net/DTD/sodipodi-0.dtd"
   xmlns:inkscape="http://www.inkscape.org/namespaces/inkscape"
   width="128"
   height="128"
   viewBox="0 0 33.866666 33.866668"
   version="1.1"
   id="svg1591"
   inkscape:version="1.0.1 (3bc2e813f5, 2020-09-07)"
   sodipodi:docname="krename.svg">
  <defs
     id="defs1585" />
  <sodipodi:namedview
     id="base"
     pagecolor="#ffffff"
     bordercolor="#666666"
     borderopacity="1.0"
     inkscape:pageopacity="0.0"
     inkscape:pageshadow="2"
     inkscape:zoom="1.4"
     inkscape:cx="44.210557"
     inkscape:cy="-21.196585"
     inkscape:document-units="mm"
     inkscape:current-layer="layer1"
     inkscape:document-rotation="0"
     showgrid="false"
     units="px"
     inkscape:window-width="1514"
     inkscape:window-height="941"
     inkscape:window-x="50"
     inkscape:window-y="27"
     inkscape:window-maximized="0" />
  <metadata
     id="metadata1588">
    <rdf:RDF>
      <cc:Work
         rdf:about="">
        <dc:format>image/svg+xml</dc:format>
        <dc:type
           rdf:resource="http://purl.org/dc/dcmitype/StillImage" />
        <dc:title></dc:title>
      </cc:Work>
    </rdf:RDF>
  </metadata>
  <g
     inkscape:label="Capa 1"
     inkscape:groupmode="layer"
     id="layer1">
    <g
       id="g1702"
       transform="matrix(0.97573206,0,0,0.97573206,-65.724985,-37.235205)"
       style="opacity:0.295">
      <rect
         style="fill:none;fill-opacity:1;stroke:#000000;stroke-width:0.1;stroke-linecap:round;stroke-linejoin:round;stroke-miterlimit:4;stroke-dasharray:none;stroke-opacity:0.02"
         id="rect1634"
         width="29.810888"
         height="29.810888"
         x="69.839508"
         y="40.709618"
         rx="6.6098609"
         ry="6.6098609" />
      <rect
         ry="6.6098609"
         rx="6.6098609"
         y="40.709618"
         x="69.839508"
         height="29.810888"
         width="29.810888"
         id="rect1638"
         style="fill:none;fill-opacity:1;stroke:#000000;stroke-width:0.2;stroke-linecap:round;stroke-linejoin:round;stroke-miterlimit:4;stroke-dasharray:none;stroke-opacity:0.02" />
      <rect
         style="fill:none;fill-opacity:1;stroke:#000000;stroke-width:0.3;stroke-linecap:round;stroke-linejoin:round;stroke-miterlimit:4;stroke-dasharray:none;stroke-opacity:0.02"
         id="rect1640"
         width="29.810888"
         height="29.810888"
         x="69.839508"
         y="40.709618"
         rx="6.6098609"
         ry="6.6098609" />
      <rect
         ry="6.6098609"
         rx="6.6098609"
         y="40.709618"
         x="69.839508"
         height="29.810888"
         width="29.810888"
         id="rect1642"
         style="fill:none;fill-opacity:1;stroke:#000000;stroke-width:0.4;stroke-linecap:round;stroke-linejoin:round;stroke-miterlimit:4;stroke-dasharray:none;stroke-opacity:0.02" />
      <rect
         style="fill:none;fill-opacity:1;stroke:#000000;stroke-width:0.5;stroke-linecap:round;stroke-linejoin:round;stroke-miterlimit:4;stroke-dasharray:none;stroke-opacity:0.02"
         id="rect1644"
         width="29.810888"
         height="29.810888"
         x="69.839508"
         y="40.709618"
         rx="6.6098609"
         ry="6.6098609" />
      <rect
         ry="6.6098609"
         rx="6.6098609"
         y="40.709618"
         x="69.839508"
         height="29.810888"
         width="29.810888"
         id="rect1646"
         style="fill:none;fill-opacity:1;stroke:#000000;stroke-width:0.6;stroke-linecap:round;stroke-linejoin:round;stroke-miterlimit:4;stroke-dasharray:none;stroke-opacity:0.02" />
      <rect
         style="fill:none;fill-opacity:1;stroke:#000000;stroke-width:0.7;stroke-linecap:round;stroke-linejoin:round;stroke-miterlimit:4;stroke-dasharray:none;stroke-opacity:0.02"
         id="rect1648"
         width="29.810888"
         height="29.810888"
         x="69.839508"
         y="40.709618"
         rx="6.6098609"
         ry="6.6098609" />
      <rect
         ry="6.6098609"
         rx="6.6098609"
         y="40.709618"
         x="69.839508"
         height="29.810888"
         width="29.810888"
         id="rect1650"
         style="fill:none;fill-opacity:1;stroke:#000000;stroke-width:0.8;stroke-linecap:round;stroke-linejoin:round;stroke-miterlimit:4;stroke-dasharray:none;stroke-opacity:0.02" />
      <rect
         style="fill:none;fill-opacity:1;stroke:#000000;stroke-width:1;stroke-linecap:round;stroke-linejoin:round;stroke-miterlimit:4;stroke-dasharray:none;stroke-opacity:0.02"
         id="rect1652"
         width="29.810888"
         height="29.810888"
         x="69.839508"
         y="40.709618"
         rx="6.6098609"
         ry="6.6098609" />
      <rect
         ry="6.6098609"
         rx="6.6098609"
         y="40.709618"
         x="69.839508"
         height="29.810888"
         width="29.810888"
         id="rect1654"
         style="fill:none;fill-opacity:1;stroke:#000000;stroke-width:1.2;stroke-linecap:round;stroke-linejoin:round;stroke-miterlimit:4;stroke-dasharray:none;stroke-opacity:0.02" />
      <rect
         style="fill:none;fill-opacity:1;stroke:#000000;stroke-width:1.4;stroke-linecap:round;stroke-linejoin:round;stroke-miterlimit:4;stroke-dasharray:none;stroke-opacity:0.02"
         id="rect1656"
         width="29.810888"
         height="29.810888"
         x="69.839508"
         y="40.709618"
         rx="6.6098609"
         ry="6.6098609" />
      <rect
         ry="6.6098609"
         rx="6.6098609"
         y="40.709618"
         x="69.839508"
         height="29.810888"
         width="29.810888"
         id="rect1658"
         style="fill:none;fill-opacity:1;stroke:#000000;stroke-width:1.6;stroke-linecap:round;stroke-linejoin:round;stroke-miterlimit:4;stroke-dasharray:none;stroke-opacity:0.02" />
      <rect
         style="fill:none;fill-opacity:1;stroke:#000000;stroke-width:1.8;stroke-linecap:round;stroke-linejoin:round;stroke-miterlimit:4;stroke-dasharray:none;stroke-opacity:0.02"
         id="rect1660"
         width="29.810888"
         height="29.810888"
         x="69.839508"
         y="40.709618"
         rx="6.6098609"
         ry="6.6098609" />
      <rect
         ry="6.6098609"
         rx="6.6098609"
         y="40.709618"
         x="69.839508"
         height="29.810888"
         width="29.810888"
         id="rect1662"
         style="fill:none;fill-opacity:1;stroke:#000000;stroke-width:2;stroke-linecap:round;stroke-linejoin:round;stroke-miterlimit:4;stroke-dasharray:none;stroke-opacity:0.02" />
      <rect
         style="fill:none;fill-opacity:1;stroke:#000000;stroke-width:2.2;stroke-linecap:round;stroke-linejoin:round;stroke-miterlimit:4;stroke-dasharray:none;stroke-opacity:0.02"
         id="rect1664"
         width="29.810888"
         height="29.810888"
         x="69.839508"
         y="40.709618"
         rx="6.6098609"
         ry="6.6098609" />
      <rect
         ry="6.6098609"
         rx="6.6098609"
         y="40.709618"
         x="69.839508"
         height="29.810888"
         width="29.810888"
         id="rect1666"
         style="fill:none;fill-opacity:1;stroke:#000000;stroke-width:2.6;stroke-linecap:round;stroke-linejoin:round;stroke-miterlimit:4;stroke-dasharray:none;stroke-opacity:0.02" />
      <rect
         style="fill:none;fill-opacity:1;stroke:#000000;stroke-width:3;stroke-linecap:round;stroke-linejoin:round;stroke-miterlimit:4;stroke-dasharray:none;stroke-opacity:0.02"
         id="rect1668"
         width="29.810888"
         height="29.810888"
         x="69.839508"
         y="40.709618"
         rx="6.6098609"
         ry="6.6098609" />
      <rect
         ry="6.6098609"
         rx="6.6098609"
         y="40.709618"
         x="69.839508"
         height="29.810888"
         width="29.810888"
         id="rect1670"
         style="fill:none;fill-opacity:1;stroke:#000000;stroke-width:3.4;stroke-linecap:round;stroke-linejoin:round;stroke-miterlimit:4;stroke-dasharray:none;stroke-opacity:0.02" />
      <rect
         style="fill:none;fill-opacity:1;stroke:#000000;stroke-width:3.8;stroke-linecap:round;stroke-linejoin:round;stroke-miterlimit:4;stroke-dasharray:none;stroke-opacity:0.02"
         id="rect1672"
         width="29.810888"
         height="29.810888"
         x="69.839508"
         y="40.709618"
         rx="6.6098609"
         ry="6.6098609" />
      <rect
         ry="6.6098609"
         rx="6.6098609"
         y="40.709618"
         x="69.839508"
         height="29.810888"
         width="29.810888"
         id="rect1674"
         style="fill:none;fill-opacity:1;stroke:#000000;stroke-width:4.2;stroke-linecap:round;stroke-linejoin:round;stroke-miterlimit:4;stroke-dasharray:none;stroke-opacity:0.02" />
      <rect
         style="fill:none;fill-opacity:1;stroke:#000000;stroke-width:4.6;stroke-linecap:round;stroke-linejoin:round;stroke-miterlimit:4;stroke-dasharray:none;stroke-opacity:0.02"
         id="rect1676"
         width="29.810888"
         height="29.810888"
         x="69.839508"
         y="40.709618"
         rx="6.6098609"
         ry="6.6098609" />
      <rect
         ry="6.6098609"
         rx="6.6098609"
         y="40.709618"
         x="69.839508"
         height="29.810888"
         width="29.810888"
         id="rect1678"
         style="fill:none;fill-opacity:1;stroke:#000000;stroke-width:5;stroke-linecap:round;stroke-linejoin:round;stroke-miterlimit:4;stroke-dasharray:none;stroke-opacity:0.02" />
    </g>
    <rect
       style="fill:#ffffff;fill-opacity:1;stroke-width:2.68801;stroke-linecap:round;stroke-linejoin:round;stroke-miterlimit:4;stroke-dasharray:none"
       id="rect849"
       width="29.08744"
       height="29.08744"
       x="2.4196622"
       y="2.486474"
       rx="6.4494534"
       ry="6.4494534" />
    <g
       style="stroke-width:1.58682"
       transform="matrix(0.36639344,0,0,0.36639344,5.2321416,4.9934354)"
       id="g1032">
      <path
         style="opacity:0.2;stroke-width:1.58682"
         d="m 2,58 v 2 c 0,1.662 1.338,3 3,3 h 36 c 1.662,0 3,-1.338 3,-3 v -2 c 0,1.662 -1.338,3 -3,3 H 5 C 3.338,61 2,59.662 2,58 Z"
         id="path988" />
      <path
         style="fill:#f3443f;stroke-width:1.58682"
         d="m 5,20 h 36 c 1.662,0 3,1.338 3,3 v 36 c 0,1.662 -1.338,3 -3,3 H 5 C 3.338,62 2,60.662 2,59 V 23 c 0,-1.662 1.338,-3 3,-3 z"
         id="path990" />
      <g
         style="opacity:0.2;stroke-width:1.58682"
         transform="matrix(0.78518,0,0,0.82304,23.16,60.211078)"
         id="g994">
        <path
           style="stroke-width:1.58682"
           d="M 4.4117,-11.192652 H -7.3463 L -9.2018,-6.3315 h -7.5586 l 10.1886585,-29.16 H 3.617005 L 13.8064,-6.3315 H 6.2478 l -1.8359,-4.861152 z m -9.8828,-6.075039 H 2.5172 L -1.4672,-28.6562 Z"
           id="path992" />
      </g>
      <g
         style="fill:#ffffff;stroke-width:1.58682"
         transform="matrix(0.78518,0,0,0.82304,23.16,59.212)"
         id="g998">
        <path
           style="stroke-width:1.58682"
           d="M 4.4117,-11.192652 H -7.3463 L -9.2018,-6.3315 h -7.5586 l 10.1886585,-29.16 H 3.617005 L 13.8064,-6.3315 H 6.2478 l -1.8359,-4.861152 z m -9.8828,-6.075039 H 2.5172 L -1.4672,-28.6562 Z"
           id="path996" />
      </g>
      <path
         style="opacity:0.2;fill:#ffffff;stroke-width:1.58682"
         d="m 5,20 c -1.662,0 -3,1.338 -3,3 v 1 c 0,-1.662 1.338,-3 3,-3 h 36 c 1.662,0 3,1.338 3,3 v -1 c 0,-1.662 -1.338,-3 -3,-3 z"
         id="path1000" />
      <path
         style="opacity:0.2;stroke-width:1.58682"
         d="m 20,40 v 2 c 0,1.662 1.338,3 3,3 h 36 c 1.662,0 3,-1.338 3,-3 v -2 c 0,1.662 -1.338,3 -3,3 H 23 c -1.662,0 -3,-1.338 -3,-3 z"
         id="path1002" />
      <path
         style="fill:#2297fd;stroke-width:1.58682"
         d="m 23,2 h 36 c 1.662,0 3,1.338 3,3 v 36 c 0,1.662 -1.338,3 -3,3 H 23 c -1.662,0 -3,-1.338 -3,-3 V 5 c 0,-1.662 1.338,-3 3,-3 z"
         id="path1004" />
      <path
         style="opacity:0.2;stroke-width:1.58682"
         d="M 32,13 V 37 H 42.398438 C 45.631421,37 48.041031,36.432835 49.625,35.296875 51.208969,34.160915 52,32.435921 52,30.121094 c 0,-1.511047 -0.367753,-2.786673 -1.105469,-3.826172 -0.737715,-1.039544 -1.779715,-1.752875 -3.125,-2.138672 1.052337,-0.396486 1.854908,-1.001926 2.408203,-1.816406 0.553295,-0.82518 0.830078,-1.822121 0.830078,-2.990235 10e-7,-2.218367 -0.758475,-3.830544 -2.277343,-4.83789 C 47.222433,13.504373 44.780266,13 41.40625,13 Z m 6,4 h 3.875 c 1.024932,0 1.800712,0.215953 2.330078,0.648438 C 44.734444,18.070403 45,18.687774 45,19.5 45,20.322784 44.734444,20.94525 44.205078,21.367188 43.675695,21.789124 42.899915,22 41.875,22 H 38 Z m 0,10 h 4.078125 c 1.312743,0 2.294542,0.250592 2.945313,0.751953 C 45.674208,28.242994 46,28.984265 46,29.976562 46,30.989323 45.669785,31.746776 45.007812,32.248047 44.357042,32.749318 43.379666,33 42.078125,33 H 38 Z"
         id="path1006" />
      <path
         style="fill:#ffffff;stroke-width:1.58682"
         d="M 32,12 V 36 H 42.398438 C 45.631421,36 48.041031,35.432835 49.625,34.296875 51.208969,33.160915 52,31.435921 52,29.121094 c 0,-1.511047 -0.367753,-2.786673 -1.105469,-3.826172 -0.737715,-1.039544 -1.779715,-1.752875 -3.125,-2.138672 1.052337,-0.396486 1.854908,-1.001926 2.408203,-1.816406 0.553295,-0.82518 0.830078,-1.822121 0.830078,-2.990235 10e-7,-2.218367 -0.758475,-3.830544 -2.277343,-4.83789 C 47.222433,12.504373 44.780266,12 41.40625,12 Z m 6,4 h 3.875 c 1.024932,0 1.800712,0.215953 2.330078,0.648438 C 44.734444,17.070403 45,17.687774 45,18.5 45,19.322784 44.734444,19.94525 44.205078,20.367188 43.675695,20.789124 42.899915,21 41.875,21 H 38 Z m 0,10 h 4.078125 c 1.312743,0 2.294542,0.250592 2.945313,0.751953 C 45.674208,27.242994 46,27.984265 46,28.976562 46,29.989323 45.669785,30.746776 45.007812,31.248047 44.357042,31.749318 43.379666,32 42.078125,32 H 38 Z"
         id="path1008" />
      <path
         style="opacity:0.2;fill:#ffffff;stroke-width:1.58682"
         d="m 23,2 c -1.662,0 -3,1.338 -3,3 v 1 c 0,-1.662 1.338,-3 3,-3 h 36 c 1.662,0 3,1.338 3,3 V 5 C 62,3.338 60.662,2 59,2 Z"
         id="path1010" />
    </g>
  </g>
</svg>
