<?xml version="1.0" encoding="UTF-8" standalone="no"?>
<svg
   xmlns:dc="http://purl.org/dc/elements/1.1/"
   xmlns:cc="http://creativecommons.org/ns#"
   xmlns:rdf="http://www.w3.org/1999/02/22-rdf-syntax-ns#"
   xmlns:svg="http://www.w3.org/2000/svg"
   xmlns="http://www.w3.org/2000/svg"
   xmlns:xlink="http://www.w3.org/1999/xlink"
   xmlns:sodipodi="http://sodipodi.sourceforge.net/DTD/sodipodi-0.dtd"
   xmlns:inkscape="http://www.inkscape.org/namespaces/inkscape"
   inkscape:version="1.0.1 (3bc2e813f5, 2020-09-07)"
   sodipodi:docname="krusader_root.svg"
   id="svg6"
   version="1.1"
   viewBox="0 0 33.866666 33.866667"
   height="128"
   width="128">
  <metadata
     id="metadata82">
    <rdf:RDF>
      <cc:Work
         rdf:about="">
        <dc:format>image/svg+xml</dc:format>
        <dc:type
           rdf:resource="http://purl.org/dc/dcmitype/StillImage" />
        <dc:title></dc:title>
      </cc:Work>
    </rdf:RDF>
  </metadata>
  <defs
     id="defs2">
    <linearGradient
       id="linearGradient911"
       inkscape:collect="always">
      <stop
         id="stop907"
         offset="0"
         style="stop-color:#facec2;stop-opacity:1" />
      <stop
         id="stop909"
         offset="1"
         style="stop-color:#f7f8f7;stop-opacity:1" />
    </linearGradient>
    <linearGradient
       id="linearGradient2121"
       inkscape:collect="always">
      <stop
         id="stop2117"
         offset="0"
         style="stop-color:#d6e5fa;stop-opacity:1" />
      <stop
         id="stop2119"
         offset="1"
         style="stop-color:#f7f8f7;stop-opacity:1" />
    </linearGradient>
    <linearGradient
       id="linearGradient1630"
       inkscape:collect="always">
      <stop
         id="stop1626"
         offset="0"
         style="stop-color:#fa6f3a;stop-opacity:1" />
      <stop
         id="stop1628"
         offset="1"
         style="stop-color:#dc341b;stop-opacity:1" />
    </linearGradient>
    <linearGradient
       id="lgrad"
       x1="32"
       y1="32"
       x2="32"
       y2="992"
       gradientUnits="userSpaceOnUse"
       gradientTransform="translate(0,-896)">
      <stop
         offset="0%"
         stop-color="#f8f8f8"
         id="stop2" />
      <stop
         offset="100%"
         stop-color="#ccc"
         id="stop4" />
    </linearGradient>
    <radialGradient
       id="rgrad"
       x1="0%"
       y1="0%"
       x2="0%"
       y2="100%"
       fx="512"
       fy="494.39999"
       cx="512"
       cy="512"
       r="440"
       gradientUnits="userSpaceOnUse"
       gradientTransform="translate(0,-896)">
      <stop
         offset="0%"
         stop-color="#00f0ff"
         id="stop7" />
      <stop
         offset="100%"
         stop-color="#0070e0"
         id="stop9" />
    </radialGradient>
    <radialGradient
       gradientTransform="matrix(0.03099337,0,0,0.03032562,85.198869,42.985295)"
       gradientUnits="userSpaceOnUse"
       r="440"
       cy="306.1813"
       cx="523.57568"
       fy="306.1813"
       fx="523.57568"
       y2="100%"
       x2="0%"
       y1="0%"
       x1="0%"
       id="rgrad-3">
      <stop
         style="stop-color:#03d7e4;stop-opacity:1"
         id="stop7-6"
         stop-color="#00f0ff"
         offset="0%" />
      <stop
         id="stop9-7"
         stop-color="#0070e0"
         offset="100%" />
    </radialGradient>
    <linearGradient
       gradientTransform="matrix(0.97573206,0,0,0.97573206,-111.77632,-37.203091)"
       gradientUnits="userSpaceOnUse"
       y2="70.679932"
       x2="132.21078"
       y1="42.151531"
       x1="132.21078"
       id="linearGradient1632"
       xlink:href="#linearGradient1630"
       inkscape:collect="always" />
    <linearGradient
       gradientTransform="translate(-33.334133,3.2334222)"
       gradientUnits="userSpaceOnUse"
       y2="0.84487879"
       x2="57.544464"
       y1="26.410088"
       x1="57.544464"
       id="linearGradient2123"
       xlink:href="#linearGradient2121"
       inkscape:collect="always" />
    <linearGradient
       y2="0.84487879"
       x2="57.544464"
       y1="26.410088"
       x1="57.544464"
       gradientTransform="translate(-33.334133,3.2334218)"
       gradientUnits="userSpaceOnUse"
       id="linearGradient2193"
       xlink:href="#linearGradient911"
       inkscape:collect="always" />
  </defs>
  <sodipodi:namedview
     inkscape:window-maximized="1"
     inkscape:window-y="25"
     inkscape:window-x="0"
     inkscape:window-height="1027"
     inkscape:window-width="1920"
     units="px"
     showgrid="false"
     inkscape:current-layer="layer1"
     inkscape:document-units="mm"
     inkscape:cy="135.42887"
     inkscape:cx="-231.47224"
     inkscape:zoom="0.35"
     inkscape:pageshadow="2"
     inkscape:pageopacity="0.0"
     borderopacity="1.0"
     bordercolor="#666666"
     pagecolor="#ffffff"
     id="base"
     inkscape:document-rotation="0" />
  <g
     id="layer1"
     inkscape:groupmode="layer"
     inkscape:label="Layer 1">
    <g
       style="opacity:0.2967651"
       transform="matrix(0.97573206,0,0,0.97573206,-65.748383,-37.203094)"
       id="g1702">
      <rect
         ry="6.6098609"
         rx="6.6098609"
         y="40.709618"
         x="69.839508"
         height="29.810888"
         width="29.810888"
         id="rect1634"
         style="fill:none;fill-opacity:1;stroke:#000000;stroke-width:0.1;stroke-linecap:round;stroke-linejoin:round;stroke-miterlimit:4;stroke-dasharray:none;stroke-opacity:0.02" />
      <rect
         style="fill:none;fill-opacity:1;stroke:#000000;stroke-width:0.2;stroke-linecap:round;stroke-linejoin:round;stroke-miterlimit:4;stroke-dasharray:none;stroke-opacity:0.02"
         id="rect1638"
         width="29.810888"
         height="29.810888"
         x="69.839508"
         y="40.709618"
         rx="6.6098609"
         ry="6.6098609" />
      <rect
         ry="6.6098609"
         rx="6.6098609"
         y="40.709618"
         x="69.839508"
         height="29.810888"
         width="29.810888"
         id="rect1640"
         style="fill:none;fill-opacity:1;stroke:#000000;stroke-width:0.3;stroke-linecap:round;stroke-linejoin:round;stroke-miterlimit:4;stroke-dasharray:none;stroke-opacity:0.02" />
      <rect
         style="fill:none;fill-opacity:1;stroke:#000000;stroke-width:0.4;stroke-linecap:round;stroke-linejoin:round;stroke-miterlimit:4;stroke-dasharray:none;stroke-opacity:0.02"
         id="rect1642"
         width="29.810888"
         height="29.810888"
         x="69.839508"
         y="40.709618"
         rx="6.6098609"
         ry="6.6098609" />
      <rect
         ry="6.6098609"
         rx="6.6098609"
         y="40.709618"
         x="69.839508"
         height="29.810888"
         width="29.810888"
         id="rect1644"
         style="fill:none;fill-opacity:1;stroke:#000000;stroke-width:0.5;stroke-linecap:round;stroke-linejoin:round;stroke-miterlimit:4;stroke-dasharray:none;stroke-opacity:0.02" />
      <rect
         style="fill:none;fill-opacity:1;stroke:#000000;stroke-width:0.6;stroke-linecap:round;stroke-linejoin:round;stroke-miterlimit:4;stroke-dasharray:none;stroke-opacity:0.02"
         id="rect1646"
         width="29.810888"
         height="29.810888"
         x="69.839508"
         y="40.709618"
         rx="6.6098609"
         ry="6.6098609" />
      <rect
         ry="6.6098609"
         rx="6.6098609"
         y="40.709618"
         x="69.839508"
         height="29.810888"
         width="29.810888"
         id="rect1648"
         style="fill:none;fill-opacity:1;stroke:#000000;stroke-width:0.7;stroke-linecap:round;stroke-linejoin:round;stroke-miterlimit:4;stroke-dasharray:none;stroke-opacity:0.02" />
      <rect
         style="fill:none;fill-opacity:1;stroke:#000000;stroke-width:0.8;stroke-linecap:round;stroke-linejoin:round;stroke-miterlimit:4;stroke-dasharray:none;stroke-opacity:0.02"
         id="rect1650"
         width="29.810888"
         height="29.810888"
         x="69.839508"
         y="40.709618"
         rx="6.6098609"
         ry="6.6098609" />
      <rect
         ry="6.6098609"
         rx="6.6098609"
         y="40.709618"
         x="69.839508"
         height="29.810888"
         width="29.810888"
         id="rect1652"
         style="fill:none;fill-opacity:1;stroke:#000000;stroke-width:1;stroke-linecap:round;stroke-linejoin:round;stroke-miterlimit:4;stroke-dasharray:none;stroke-opacity:0.02" />
      <rect
         style="fill:none;fill-opacity:1;stroke:#000000;stroke-width:1.2;stroke-linecap:round;stroke-linejoin:round;stroke-miterlimit:4;stroke-dasharray:none;stroke-opacity:0.02"
         id="rect1654"
         width="29.810888"
         height="29.810888"
         x="69.839508"
         y="40.709618"
         rx="6.6098609"
         ry="6.6098609" />
      <rect
         ry="6.6098609"
         rx="6.6098609"
         y="40.709618"
         x="69.839508"
         height="29.810888"
         width="29.810888"
         id="rect1656"
         style="fill:none;fill-opacity:1;stroke:#000000;stroke-width:1.4;stroke-linecap:round;stroke-linejoin:round;stroke-miterlimit:4;stroke-dasharray:none;stroke-opacity:0.02" />
      <rect
         style="fill:none;fill-opacity:1;stroke:#000000;stroke-width:1.6;stroke-linecap:round;stroke-linejoin:round;stroke-miterlimit:4;stroke-dasharray:none;stroke-opacity:0.02"
         id="rect1658"
         width="29.810888"
         height="29.810888"
         x="69.839508"
         y="40.709618"
         rx="6.6098609"
         ry="6.6098609" />
      <rect
         ry="6.6098609"
         rx="6.6098609"
         y="40.709618"
         x="69.839508"
         height="29.810888"
         width="29.810888"
         id="rect1660"
         style="fill:none;fill-opacity:1;stroke:#000000;stroke-width:1.8;stroke-linecap:round;stroke-linejoin:round;stroke-miterlimit:4;stroke-dasharray:none;stroke-opacity:0.02" />
      <rect
         style="fill:none;fill-opacity:1;stroke:#000000;stroke-width:2;stroke-linecap:round;stroke-linejoin:round;stroke-miterlimit:4;stroke-dasharray:none;stroke-opacity:0.02"
         id="rect1662"
         width="29.810888"
         height="29.810888"
         x="69.839508"
         y="40.709618"
         rx="6.6098609"
         ry="6.6098609" />
      <rect
         ry="6.6098609"
         rx="6.6098609"
         y="40.709618"
         x="69.839508"
         height="29.810888"
         width="29.810888"
         id="rect1664"
         style="fill:none;fill-opacity:1;stroke:#000000;stroke-width:2.2;stroke-linecap:round;stroke-linejoin:round;stroke-miterlimit:4;stroke-dasharray:none;stroke-opacity:0.02" />
      <rect
         style="fill:none;fill-opacity:1;stroke:#000000;stroke-width:2.6;stroke-linecap:round;stroke-linejoin:round;stroke-miterlimit:4;stroke-dasharray:none;stroke-opacity:0.02"
         id="rect1666"
         width="29.810888"
         height="29.810888"
         x="69.839508"
         y="40.709618"
         rx="6.6098609"
         ry="6.6098609" />
      <rect
         ry="6.6098609"
         rx="6.6098609"
         y="40.709618"
         x="69.839508"
         height="29.810888"
         width="29.810888"
         id="rect1668"
         style="fill:none;fill-opacity:1;stroke:#000000;stroke-width:3;stroke-linecap:round;stroke-linejoin:round;stroke-miterlimit:4;stroke-dasharray:none;stroke-opacity:0.02" />
      <rect
         style="fill:none;fill-opacity:1;stroke:#000000;stroke-width:3.4;stroke-linecap:round;stroke-linejoin:round;stroke-miterlimit:4;stroke-dasharray:none;stroke-opacity:0.02"
         id="rect1670"
         width="29.810888"
         height="29.810888"
         x="69.839508"
         y="40.709618"
         rx="6.6098609"
         ry="6.6098609" />
      <rect
         ry="6.6098609"
         rx="6.6098609"
         y="40.709618"
         x="69.839508"
         height="29.810888"
         width="29.810888"
         id="rect1672"
         style="fill:none;fill-opacity:1;stroke:#000000;stroke-width:3.8;stroke-linecap:round;stroke-linejoin:round;stroke-miterlimit:4;stroke-dasharray:none;stroke-opacity:0.02" />
      <rect
         style="fill:none;fill-opacity:1;stroke:#000000;stroke-width:4.2;stroke-linecap:round;stroke-linejoin:round;stroke-miterlimit:4;stroke-dasharray:none;stroke-opacity:0.02"
         id="rect1674"
         width="29.810888"
         height="29.810888"
         x="69.839508"
         y="40.709618"
         rx="6.6098609"
         ry="6.6098609" />
      <rect
         ry="6.6098609"
         rx="6.6098609"
         y="40.709618"
         x="69.839508"
         height="29.810888"
         width="29.810888"
         id="rect1676"
         style="fill:none;fill-opacity:1;stroke:#000000;stroke-width:4.6;stroke-linecap:round;stroke-linejoin:round;stroke-miterlimit:4;stroke-dasharray:none;stroke-opacity:0.02" />
      <rect
         style="fill:none;fill-opacity:1;stroke:#000000;stroke-width:5;stroke-linecap:round;stroke-linejoin:round;stroke-miterlimit:4;stroke-dasharray:none;stroke-opacity:0.02"
         id="rect1678"
         width="29.810888"
         height="29.810888"
         x="69.839508"
         y="40.709618"
         rx="6.6098609"
         ry="6.6098609" />
    </g>
    <rect
       ry="6.4494534"
       rx="6.4494534"
       y="2.5185876"
       x="2.3962667"
       height="29.087439"
       width="29.087439"
       id="rect849"
       style="fill:url(#linearGradient1632);fill-opacity:1;stroke-width:2.68768;stroke-linecap:round;stroke-linejoin:round" />
    <g
       style="opacity:0.08388507"
       id="g2327">
      <path
         id="rect2112"
         style="fill:url(#linearGradient2123);fill-opacity:1;stroke-width:2.68768;stroke-linecap:round;stroke-linejoin:round"
         d="m 16.943749,2.5190616 h 8.094266 c 3.572997,0 6.449454,2.8764572 6.449454,6.4494538 V 25.157048 c 0,3.572997 -2.876457,6.449453 -6.449454,6.449453 H 19.501257 C 18.588414,28.13311 18.296033,24.362507 17.97577,20.60526 17.875388,19.654044 17.725506,19.430669 17.080232,19.405033 l -2.776763,-0.110315 c -0.707503,-0.05476 -0.782244,-1.086448 -0.736423,-1.94142 0.341774,-4.353589 1.814448,-9.5601312 3.376703,-14.8342364 z"
         sodipodi:nodetypes="csssscccccc" />
      <path
         id="path2137"
         style="fill:#000000;fill-opacity:0.1;stroke-width:10.1582;stroke-linecap:round;stroke-linejoin:round"
         d="M 63.921875 9.5195312 C 58.086765 29.242679 52.437509 49.453419 51.160156 65.724609 C 50.986975 68.956 51.269332 72.855533 53.943359 73.0625 L 64.4375 73.480469 C 66.876331 73.577361 67.442869 74.420478 67.822266 78.015625 C 69.02841 92.16581 70.131439 106.36599 73.552734 119.45508 L 94.617188 119.45508 C 102.61225 119.45508 109.6852 115.64397 114.125 109.73242 C 117.1211 105.68301 118.89062 100.665 118.89062 95.21875 L 118.89062 34.035156 C 118.89062 20.530917 108.01315 10.016793 94.513672 9.6582031 L 89.289062 9.5195312 L 63.921875 9.5195312 z "
         transform="scale(0.26458333)" />
      <path
         id="path2139"
         style="fill:#000000;fill-opacity:0.1;stroke-width:10.1582;stroke-linecap:round;stroke-linejoin:round"
         d="M 63.859375 9.5195312 C 58.019602 29.256756 52.36425 49.486118 51.085938 65.769531 C 50.912756 69.000921 51.195114 72.900455 53.869141 73.107422 L 64.365234 73.525391 C 66.804065 73.622283 67.370603 74.4654 67.75 78.060547 C 68.954768 92.194592 70.05664 106.37839 73.46875 119.45508 L 94.617188 119.45508 C 101.36931 119.45508 107.4632 116.73797 111.86914 112.33203 C 112.08429 112.11688 112.29302 111.89495 112.5 111.67188 C 112.50404 111.66743 112.50769 111.66265 112.51172 111.6582 C 116.4335 107.3351 118.81641 101.58924 118.81641 95.265625 L 118.81641 34.080078 C 118.81641 20.575839 107.94088 10.061715 94.441406 9.703125 L 87.523438 9.5195312 L 63.859375 9.5195312 z "
         transform="scale(0.26458333)" />
      <path
         id="path2141"
         style="fill:#000000;fill-opacity:0.1;stroke-width:10.1582;stroke-linecap:round;stroke-linejoin:round"
         d="M 63.851562 9.5195312 C 58.001375 29.288221 52.329287 49.560341 51.048828 65.871094 C 50.875646 69.102484 51.158004 73.002017 53.832031 73.208984 L 64.328125 73.625 C 66.766956 73.721892 67.333494 74.566962 67.712891 78.162109 C 68.914604 92.260319 70.014468 106.40595 73.40625 119.45508 L 94.617188 119.45508 C 102.56016 119.45508 109.59028 115.69146 114.03516 109.8457 C 117.01764 105.80159 118.7793 100.79788 118.7793 95.365234 L 118.7793 34.179688 C 118.7793 20.675448 107.90378 10.163278 94.404297 9.8046875 L 83.683594 9.5195312 L 63.851562 9.5195312 z "
         transform="scale(0.26458333)" />
      <path
         id="path2143"
         style="fill:#000000;fill-opacity:0.1;stroke-width:10.1582;stroke-linecap:round;stroke-linejoin:round"
         d="M 63.777344 9.5195312 C 57.918797 29.313505 52.233357 49.61843 50.951172 65.951172 C 50.77799 69.182562 51.060348 73.082096 53.734375 73.289062 L 64.228516 73.705078 C 66.667346 73.80197 67.233885 74.64704 67.613281 78.242188 C 68.812547 92.311679 69.911553 106.42807 73.287109 119.45508 L 94.617188 119.45508 C 102.06283 119.45508 108.70384 116.14685 113.16797 110.91797 C 116.61543 106.71476 118.68164 101.33034 118.68164 95.445312 L 118.68164 34.259766 C 118.68164 20.755527 107.80612 10.243356 94.306641 9.8847656 L 80.576172 9.5195312 L 63.777344 9.5195312 z "
         transform="scale(0.26458333)" />
      <path
         id="path2145"
         style="fill:#000000;fill-opacity:0.1;stroke-width:10.1582;stroke-linecap:round;stroke-linejoin:round"
         d="M 63.660156 9.5195312 C 57.790988 29.345659 52.087117 49.692004 50.802734 66.052734 C 50.629553 69.284125 50.91191 73.181705 53.585938 73.388672 L 64.080078 73.806641 C 66.518909 73.903533 67.085447 74.74665 67.464844 78.341797 C 68.661013 92.374962 69.758167 106.45609 73.113281 119.45508 L 94.617188 119.45508 C 101.28949 119.45508 107.31583 116.79866 111.70898 112.48438 C 115.93547 108.10472 118.5332 102.14218 118.5332 95.546875 L 118.5332 34.361328 C 118.5332 20.857089 107.65768 10.344918 94.158203 9.9863281 L 76.609375 9.5195312 L 63.660156 9.5195312 z "
         transform="scale(0.26458333)" />
      <path
         id="path2147"
         style="fill:#000000;fill-opacity:0.1;stroke-width:10.1582;stroke-linecap:round;stroke-linejoin:round"
         d="M 63.664062 9.5195312 C 57.778076 29.396654 52.047637 49.807713 50.759766 66.212891 C 50.586584 69.444281 50.868942 73.343814 53.542969 73.550781 L 64.039062 73.96875 C 66.477893 74.065642 67.044432 74.908759 67.423828 78.503906 C 68.615042 92.478932 69.708659 106.50102 73.03125 119.45508 L 94.617188 119.45508 C 102.14684 119.45508 108.85577 116.07379 113.32031 110.74219 C 116.55829 106.60524 118.49023 101.39326 118.49023 95.708984 L 118.49023 34.523438 C 118.49023 21.019198 107.61471 10.505075 94.115234 10.146484 L 70.488281 9.5195312 L 63.664062 9.5195312 z "
         transform="scale(0.26458333)" />
      <path
         sodipodi:nodetypes="csssscccccc"
         d="m 16.829735,2.5071435 8.04265,0.2136385 c 3.571737,0.094877 6.449454,2.8764572 6.449454,6.4494538 V 25.358769 c 0,3.572997 -2.876457,6.449453 -6.449454,6.449453 H 19.335627 C 18.422784,28.334831 18.130403,24.564228 17.81014,20.806981 17.709758,19.855765 17.559876,19.63239 16.914602,19.606754 L 14.137839,19.496439 C 13.430336,19.441679 13.355595,18.409991 13.401416,17.555019 13.74319,13.20143 15.26748,7.7812487 16.829735,2.5071435 Z"
         style="fill:#000000;fill-opacity:0.1;stroke-width:2.68768;stroke-linecap:round;stroke-linejoin:round"
         id="path2149" />
      <path
         id="path2151"
         style="fill:#000000;fill-opacity:0.1;stroke-width:10.1582;stroke-linecap:round;stroke-linejoin:round"
         d="M 60.570312 9.5195312 C 55.750361 28.650701 51.585702 52.618389 50.496094 66.498047 C 50.322912 69.729437 50.60527 73.628971 53.279297 73.835938 L 63.773438 74.251953 C 66.212268 74.348845 66.778807 75.193915 67.158203 78.789062 C 68.340703 92.66186 69.429339 106.5803 72.695312 119.45508 L 94.617188 119.45508 C 101.91434 119.45508 108.43861 116.27736 112.89844 111.22852 C 116.23215 107.06023 118.22656 101.76879 118.22656 95.992188 L 118.22656 34.806641 C 118.22656 31.873301 118.21364 29.661541 118.18555 27.634766 C 115.43521 17.183803 105.95524 9.5195312 94.617188 9.5195312 L 60.570312 9.5195312 z "
         transform="scale(0.26458333)" />
      <path
         id="path2153"
         style="fill:#000000;fill-opacity:0.1;stroke-width:10.1582;stroke-linecap:round;stroke-linejoin:round"
         d="M 60.445312 9.5195312 C 55.602192 28.685945 51.410133 52.782727 50.316406 66.714844 C 50.143225 69.946234 50.425582 73.845767 53.099609 74.052734 L 63.595703 74.46875 C 66.034534 74.565642 66.601072 75.410712 66.980469 79.005859 C 68.156344 92.800939 69.239476 106.6408 72.462891 119.45508 L 94.617188 119.45508 C 101.85933 119.45508 108.34174 116.32642 112.79883 111.34375 C 116.08403 107.19112 118.04688 101.93893 118.04688 96.208984 L 118.04688 35.023438 C 118.04688 31.734613 118.03816 29.146278 118 26.982422 C 115.03302 16.867169 105.71748 9.5195312 94.617188 9.5195312 L 60.445312 9.5195312 z "
         transform="scale(0.26458333)" />
      <path
         id="path2155"
         style="fill:#000000;fill-opacity:0.1;stroke-width:10.1582;stroke-linecap:round;stroke-linejoin:round"
         d="M 60.173828 9.5195312 C 55.319842 28.702246 51.115191 52.859663 50.019531 66.816406 C 49.84635 70.047796 50.128707 73.94733 52.802734 74.154297 L 63.296875 74.570312 C 65.735706 74.667204 66.302244 75.512275 66.681641 79.107422 C 67.854433 92.866333 68.934922 106.66903 72.138672 119.45508 L 94.617188 119.45508 C 100.97923 119.45508 106.75595 117.04252 111.08789 113.07812 C 115.21807 108.71469 117.75 102.82074 117.75 96.310547 L 117.75 35.125 C 117.75 31.242823 117.73557 28.311605 117.67578 25.962891 C 114.39803 16.377404 105.34093 9.5195312 94.617188 9.5195312 L 60.173828 9.5195312 z "
         transform="scale(0.26458333)" />
      <path
         id="path2157"
         style="fill:#000000;fill-opacity:0.1;stroke-width:10.1582;stroke-linecap:round;stroke-linejoin:round"
         d="M 59.908203 9.5195312 C 55.031515 28.735832 50.798922 53.021046 49.699219 67.029297 C 49.526037 70.260687 49.808395 74.160221 52.482422 74.367188 L 62.976562 74.785156 C 65.415393 74.882048 65.981932 75.725165 66.361328 79.320312 C 67.527588 93.002582 68.603248 106.72898 71.765625 119.45508 L 94.617188 119.45508 C 100.65243 119.45508 106.15808 117.27928 110.40625 113.67188 C 114.75189 109.2742 117.42969 103.22311 117.42969 96.523438 L 117.42969 35.339844 C 117.42969 30.759523 117.41047 27.48196 117.31641 24.980469 C 113.77095 15.912443 104.97084 9.5195312 94.617188 9.5195312 L 59.908203 9.5195312 z "
         transform="scale(0.26458333)" />
      <path
         id="path2159"
         style="fill:#000000;fill-opacity:0.1;stroke-width:10.1582;stroke-linecap:round;stroke-linejoin:round"
         d="M 59.617188 9.5195312 C 54.723033 28.761233 50.470006 53.145431 49.367188 67.193359 C 49.194006 70.42475 49.476364 74.324283 52.150391 74.53125 L 62.646484 74.947266 C 65.085315 75.044158 65.651853 75.889228 66.03125 79.484375 C 67.192489 93.107747 68.261724 106.77519 71.392578 119.45508 L 94.617188 119.45508 C 100.19462 119.45508 105.32108 117.59727 109.41992 114.46875 C 114.14881 110.02806 117.09766 103.71647 117.09766 96.6875 L 117.09766 35.501953 C 117.09766 30.287422 117.08194 26.669795 116.94727 24.083984 C 113.18535 15.493835 104.62639 9.5195312 94.617188 9.5195312 L 59.617188 9.5195312 z "
         transform="scale(0.26458333)" />
      <path
         id="path2161"
         style="fill:#000000;fill-opacity:0.1;stroke-width:10.1582;stroke-linecap:round;stroke-linejoin:round"
         d="M 59.435547 9.5195312 C 54.516579 28.796658 50.232249 53.323361 49.125 67.427734 C 48.951818 70.659125 49.236129 74.556705 51.910156 74.763672 L 62.404297 75.181641 C 64.843128 75.278533 65.409666 76.12165 65.789062 79.716797 C 66.943194 93.256787 68.005167 106.84079 71.091797 119.45508 L 94.617188 119.45508 C 100.2021 119.45508 105.33398 117.59121 109.43555 114.45508 C 114.01299 110.02871 116.85742 103.82183 116.85742 96.921875 L 116.85742 35.736328 C 116.85742 29.818282 116.82841 26.018555 116.63672 23.392578 C 115.11589 20.195981 112.9188 17.389369 110.23047 15.150391 C 109.28083 14.574761 108.21893 13.8631 106.97656 12.867188 C 103.35624 10.741645 99.135554 9.5195312 94.617188 9.5195312 L 59.435547 9.5195312 z "
         transform="scale(0.26458333)" />
      <path
         id="path2163"
         style="fill:#000000;fill-opacity:0.1;stroke-width:10.1582;stroke-linecap:round;stroke-linejoin:round"
         d="M 59.248047 9.5195312 C 54.307317 28.827081 49.99786 53.476906 48.886719 67.630859 C 48.713537 70.86225 48.995895 74.761783 51.669922 74.96875 L 62.164062 75.386719 C 64.602893 75.483611 65.169432 76.326728 65.548828 79.921875 C 66.696698 93.388399 67.754681 106.89877 70.802734 119.45508 L 94.617188 119.45508 C 100.14191 119.45508 105.22536 117.63364 109.30469 114.55859 C 113.81988 110.13912 116.61719 103.97347 116.61719 97.126953 L 116.61719 35.941406 C 116.61719 29.411736 116.58663 25.414221 116.33398 22.792969 C 115.05758 20.291471 113.36306 18.042033 111.33984 16.136719 C 109.86754 15.343507 107.99882 14.204694 105.58789 12.113281 C 102.29303 10.457248 98.569651 9.5195312 94.617188 9.5195312 L 59.248047 9.5195312 z "
         transform="scale(0.26458333)" />
      <path
         id="path2165"
         style="fill:#000000;fill-opacity:0.1;stroke-width:10.1582;stroke-linecap:round;stroke-linejoin:round"
         d="M 59.007812 9.5195312 C 54.035865 28.869656 49.689 53.700579 48.572266 67.925781 C 48.399084 71.157171 48.681442 75.056705 51.355469 75.263672 L 61.849609 75.679688 C 64.28844 75.776579 64.854978 76.62165 65.234375 80.216797 C 66.373228 93.577544 67.420917 106.98257 70.414062 119.45508 L 94.617188 119.45508 C 100.10978 119.45508 105.16717 117.6559 109.23438 114.61328 C 113.60697 110.21184 116.30273 104.14307 116.30273 97.419922 L 116.30273 36.234375 C 116.30273 28.638018 116.25857 24.466794 115.87109 21.925781 C 114.88567 20.173793 113.68875 18.55855 112.31641 17.111328 C 110.53834 16.196798 107.97419 14.924941 104.25 11.486328 C 101.2977 10.221693 98.042774 9.5195312 94.617188 9.5195312 L 59.007812 9.5195312 z "
         transform="scale(0.26458333)" />
      <path
         id="path2167"
         style="fill:#000000;fill-opacity:0.1;stroke-width:10.1582;stroke-linecap:round;stroke-linejoin:round"
         d="M 58.78125 9.5195312 C 53.782432 28.905285 49.404762 53.893035 48.283203 68.179688 C 48.110021 71.411078 48.392379 75.310611 51.066406 75.517578 L 61.560547 75.935547 C 63.999378 76.032439 64.565916 76.875556 64.945312 80.470703 C 66.076437 93.740775 67.11583 107.05468 70.0625 119.45508 L 94.617188 119.45508 C 100.04125 119.45508 105.03931 117.69853 109.08008 114.72461 C 113.37098 110.33493 116.01367 104.32568 116.01367 97.673828 L 116.01367 36.490234 C 116.01367 27.792646 115.96998 23.508513 115.40039 21.121094 C 114.70582 19.990087 113.9191 18.923777 113.05469 17.925781 C 111.20113 16.84597 108.18954 15.810596 103.27539 11.095703 C 100.58673 10.07961 97.670151 9.5195312 94.617188 9.5195312 L 58.78125 9.5195312 z "
         transform="scale(0.26458333)" />
      <path
         id="path2169"
         style="fill:#000000;fill-opacity:0.1;stroke-width:10.1582;stroke-linecap:round;stroke-linejoin:round"
         d="M 58.394531 9.5195312 C 53.352031 28.961165 48.920437 54.206947 47.791016 68.59375 C 47.617834 71.82514 47.900192 75.724674 50.574219 75.931641 L 61.070312 76.347656 C 63.509143 76.444548 64.075682 77.289619 64.455078 80.884766 C 65.573722 94.008419 66.605748 107.17168 69.478516 119.45508 L 94.617188 119.45508 C 99.910141 119.45508 104.79519 117.77972 108.7832 114.93555 C 112.95899 110.56424 115.52344 104.63848 115.52344 98.087891 L 115.52344 36.902344 C 115.52344 11.190654 115.15996 23.993283 101.86133 10.605469 C 99.574343 9.8992173 97.142085 9.5195312 94.617188 9.5195312 L 58.394531 9.5195312 z "
         transform="scale(0.26458333)" />
      <path
         id="path2171"
         style="fill:#000000;fill-opacity:0.1;stroke-width:10.1582;stroke-linecap:round;stroke-linejoin:round"
         d="M 58.109375 9.5195312 C 53.010915 29.028988 48.508672 54.589884 47.369141 69.105469 C 47.195959 72.336859 47.478317 76.236392 50.152344 76.443359 L 60.646484 76.859375 C 63.085315 76.956267 63.651853 77.801337 64.03125 81.396484 C 65.134359 94.337886 66.156722 107.31824 68.939453 119.45508 L 94.617188 119.45508 C 99.977247 119.45508 104.92018 117.73843 108.93555 114.82812 C 112.77082 110.52392 115.09961 104.84472 115.09961 98.599609 L 115.09961 37.414062 C 115.09961 11.185091 114.71175 25.016842 100.60938 10.257812 C 98.693125 9.7767939 96.686754 9.5195312 94.617188 9.5195312 L 58.109375 9.5195312 z "
         transform="scale(0.26458333)" />
      <path
         id="path2173"
         style="fill:#000000;fill-opacity:0.1;stroke-width:10.1582;stroke-linecap:round;stroke-linejoin:round"
         d="M 57.742188 9.5195312 C 52.617897 29.05884 48.083666 54.766577 46.939453 69.341797 C 46.766271 72.573187 47.048629 76.472721 49.722656 76.679688 L 60.216797 77.097656 C 62.655628 77.194548 63.222166 78.037665 63.601562 81.632812 C 64.697497 94.490052 65.715154 107.38627 68.457031 119.45508 L 94.617188 119.45508 C 99.719122 119.45508 104.44545 117.90337 108.35156 115.24414 C 108.35218 115.24346 108.3529 115.24287 108.35352 115.24219 C 112.2814 110.9178 114.66992 105.16701 114.66992 98.837891 L 114.66992 37.652344 C 114.66992 11.1642 114.28065 25.545185 99.763672 10.0625 C 98.105292 9.708695 96.384169 9.5195312 94.617188 9.5195312 L 57.742188 9.5195312 z "
         transform="scale(0.26458333)" />
      <path
         id="path2175"
         style="fill:#000000;fill-opacity:0.1;stroke-width:10.1582;stroke-linecap:round;stroke-linejoin:round"
         d="M 57.470703 9.5195312 C 52.311655 29.097533 47.732559 55.004492 46.582031 69.660156 C 46.40885 72.891546 46.691207 76.79108 49.365234 76.998047 L 59.861328 77.416016 C 62.300159 77.512908 62.866697 78.356025 63.246094 81.951172 C 64.332424 94.695736 65.339453 107.47769 68.027344 119.45508 L 94.617188 119.45508 C 99.635554 119.45508 104.28976 117.95291 108.1582 115.37305 C 111.98841 111.06999 114.3125 105.3948 114.3125 99.154297 L 114.3125 37.970703 C 114.3125 11.222888 113.91504 26.142945 98.974609 9.9101562 C 97.561011 9.6569827 96.1058 9.5195312 94.617188 9.5195312 L 57.470703 9.5195312 z "
         transform="scale(0.26458333)" />
      <path
         id="path2177"
         style="fill:#000000;fill-opacity:0.1;stroke-width:10.1582;stroke-linecap:round;stroke-linejoin:round"
         d="M 56.96875 9.5195312 C 51.764659 29.145109 47.127489 55.313955 45.96875 70.074219 C 45.795568 73.305609 46.077926 77.205142 48.751953 77.412109 L 59.246094 77.828125 C 61.684925 77.925017 62.251463 78.770087 62.630859 82.365234 C 63.70465 94.962679 64.69975 107.59763 67.318359 119.45508 L 94.617188 119.45508 C 99.390795 119.45508 103.83221 118.09324 107.58398 115.74023 C 111.38965 111.44279 113.69922 105.78647 113.69922 99.568359 L 113.69922 38.382812 C 113.69922 11.323369 113.28752 26.901029 97.828125 9.734375 C 96.777311 9.5971981 95.706592 9.5195312 94.617188 9.5195312 L 56.96875 9.5195312 z "
         transform="scale(0.26458333)" />
      <path
         id="path2179"
         style="fill:#000000;fill-opacity:0.1;stroke-width:10.1582;stroke-linecap:round;stroke-linejoin:round"
         d="M 56.259766 9.5195312 C 51.024968 29.175852 46.347949 55.525614 45.183594 70.357422 C 45.010412 73.588812 45.29277 77.488346 47.966797 77.695312 L 58.462891 78.113281 C 60.901721 78.210173 61.46826 79.05329 61.847656 82.648438 C 62.912824 95.144729 63.896988 107.68047 66.46875 119.45508 L 94.617188 119.45508 C 98.92149 119.45508 102.95638 118.34648 106.45898 116.4043 C 110.46834 112.06337 112.91406 106.25595 112.91406 99.853516 L 112.91406 38.667969 C 112.91406 11.393788 112.49968 27.44321 96.675781 9.6113281 C 95.996749 9.5550115 95.311247 9.5195312 94.617188 9.5195312 L 56.259766 9.5195312 z "
         transform="scale(0.26458333)" />
      <path
         id="path2181"
         style="fill:#000000;fill-opacity:0.1;stroke-width:10.1582;stroke-linecap:round;stroke-linejoin:round"
         d="M 55.931641 9.5195312 C 50.667114 29.204288 45.953011 55.731548 44.783203 70.632812 C 44.610021 73.864203 44.892379 77.763736 47.566406 77.970703 L 58.060547 78.388672 C 60.499378 78.485564 61.065916 79.328681 61.445312 82.923828 C 62.502171 95.322631 63.4806 107.7606 66.007812 119.45508 L 94.617188 119.45508 C 98.800458 119.45508 102.73096 118.40994 106.16406 116.56836 C 110.11131 112.23994 112.51367 106.4755 112.51367 100.12891 L 112.51367 38.943359 C 112.51367 11.495869 112.10074 27.940466 95.978516 9.5585938 C 95.527695 9.5339933 95.074362 9.5195312 94.617188 9.5195312 L 55.931641 9.5195312 z "
         transform="scale(0.26458333)" />
      <path
         id="path2183"
         style="fill:#000000;fill-opacity:0.1;stroke-width:10.1582;stroke-linecap:round;stroke-linejoin:round"
         d="M 55.181641 9.5195312 C 49.865444 29.250535 45.085571 56.09084 43.90625 71.113281 C 43.733068 74.344671 44.015426 78.242252 46.689453 78.449219 L 57.183594 78.867188 C 59.622425 78.964079 60.188963 79.80915 60.568359 83.404297 C 61.610925 95.635417 62.585157 107.89908 65.037109 119.45508 L 94.617188 119.45508 C 98.470152 119.45508 102.10685 118.56693 105.33984 116.98828 C 109.25555 112.66647 111.63672 106.92554 111.63672 100.60742 L 111.63672 39.421875 C 111.63672 11.967333 111.22429 28.429887 95.089844 10.025391 C 94.932421 9.8458188 94.799186 9.6980404 94.642578 9.5195312 C 94.634067 9.5195226 94.625701 9.5195312 94.617188 9.5195312 L 55.181641 9.5195312 z "
         transform="scale(0.26458333)" />
      <path
         id="path2185"
         style="fill:#000000;fill-opacity:0.1;stroke-width:10.1582;stroke-linecap:round;stroke-linejoin:round"
         d="M 54.544922 9.5195312 C 49.16509 29.301811 44.302431 56.534508 43.111328 71.707031 C 42.938146 74.938421 43.220504 78.837955 45.894531 79.044922 L 56.388672 79.462891 C 58.827503 79.559783 59.394041 80.4029 59.773438 83.998047 C 60.798217 96.020509 61.762365 108.07254 64.123047 119.45508 L 94.617188 119.45508 C 98.284849 119.45508 101.75491 118.64778 104.86914 117.20898 C 108.58891 112.93203 110.8418 107.34049 110.8418 101.20117 L 110.8418 40.017578 C 110.8418 12.563036 110.42937 29.023637 94.294922 10.619141 C 93.952625 10.228684 93.660716 9.9049705 93.322266 9.5195312 L 54.544922 9.5195312 z "
         transform="scale(0.26458333)" />
      <path
         id="path2187"
         style="fill:#000000;fill-opacity:0.1;stroke-width:10.1582;stroke-linecap:round;stroke-linejoin:round"
         d="M 53.777344 9.5195312 C 48.317169 29.357269 43.344762 57.099459 42.138672 72.462891 C 41.96549 75.694281 42.247848 79.591861 44.921875 79.798828 L 55.417969 80.216797 C 57.8568 80.313689 58.423338 81.158759 58.802734 84.753906 C 59.804981 96.512015 60.755134 108.29408 63.003906 119.45508 L 94.617188 119.45508 C 98.077903 119.45508 101.36358 118.73852 104.33984 117.44922 C 107.79739 113.24304 109.86914 107.8516 109.86914 101.95703 L 109.86914 40.771484 C 109.86914 13.316941 109.45671 29.779496 93.322266 11.375 C 92.745082 10.716609 92.249858 10.163679 91.683594 9.5195312 L 53.777344 9.5195312 z "
         transform="scale(0.26458333)" />
      <path
         id="path2189"
         style="fill:#000000;fill-opacity:0.1;stroke-width:10.1582;stroke-linecap:round;stroke-linejoin:round"
         d="M 52.839844 9.5195312 C 47.297939 29.402593 42.213661 57.651547 40.992188 73.210938 C 40.819006 76.442328 41.101364 80.341861 43.775391 80.548828 L 54.269531 80.966797 C 56.708362 81.063689 57.2749 81.906806 57.654297 85.501953 C 58.634162 96.997492 59.567335 108.51605 61.708984 119.45508 L 94.617188 119.45508 C 97.763261 119.45508 100.7634 118.85914 103.51953 117.7832 C 106.77774 113.63949 108.72266 108.40895 108.72266 102.70508 L 108.72266 41.521484 C 108.72266 14.066943 108.31023 30.527543 92.175781 12.123047 C 91.365591 11.198866 90.66371 10.415695 89.875 9.5195312 L 52.839844 9.5195312 z "
         transform="scale(0.26458333)" />
    </g>
    <path
       id="path2191"
       style="fill:url(#linearGradient2193);fill-opacity:1;stroke-width:2.68768;stroke-linecap:round;stroke-linejoin:round"
       d="m 16.943749,2.5190612 h 8.094266 c 3.572997,0 6.449454,2.8764572 6.449454,6.4494538 v 16.188533 c 0,3.572997 -2.876457,6.449453 -6.449454,6.449453 H 19.501257 C 18.588414,28.13311 18.296033,24.362507 17.97577,20.60526 17.875388,19.654044 17.725506,19.430669 17.080232,19.405033 l -2.776763,-0.110315 c -0.707503,-0.05476 -0.782244,-1.086448 -0.736423,-1.94142 0.341774,-4.353589 1.814448,-9.5601316 3.376703,-14.8342368 z"
       sodipodi:nodetypes="csssscccccc" />
    <g
       transform="translate(-34.332096,48.823112)"
       id="g2341">
      <rect
         style="opacity:1;fill:#000000;fill-opacity:1;stroke:none;stroke-width:4.99999;stroke-linecap:round;stroke-linejoin:round;stroke-miterlimit:4;stroke-dasharray:none;stroke-opacity:0.02"
         id="rect2329"
         width="1.5679744"
         height="3.1400299"
         x="56.488823"
         y="-38.187668"
         rx="0.78398722"
         ry="0.78398722" />
      <rect
         ry="0.78398722"
         rx="0.78398722"
         y="-38.187668"
         x="43.715069"
         height="3.1400299"
         width="1.5679744"
         id="rect2334"
         style="opacity:1;fill:#000000;fill-opacity:1;stroke:none;stroke-width:4.99999;stroke-linecap:round;stroke-linejoin:round;stroke-miterlimit:4;stroke-dasharray:none;stroke-opacity:0.02" />
      <path
         style="fill:none;stroke:#000000;stroke-width:1.2;stroke-linecap:round;stroke-linejoin:miter;stroke-miterlimit:4;stroke-dasharray:none;stroke-opacity:1"
         d="m 43.685257,-26.450257 c 3.03234,3.691132 11.68079,3.856465 15.173649,0.03546"
         id="path2336"
         sodipodi:nodetypes="cc" />
    </g>
  </g>
</svg>
