<?xml version="1.0" encoding="UTF-8" standalone="no"?>
<svg
   width="128"
   height="128"
   viewBox="0 0 33.866666 33.866668"
   version="1.1"
   id="svg1829"
   inkscape:version="1.1.2 (0a00cf5339, 2022-02-04)"
   sodipodi:docname="lazarus.svg"
   xmlns:inkscape="http://www.inkscape.org/namespaces/inkscape"
   xmlns:sodipodi="http://sodipodi.sourceforge.net/DTD/sodipodi-0.dtd"
   xmlns:xlink="http://www.w3.org/1999/xlink"
   xmlns="http://www.w3.org/2000/svg"
   xmlns:svg="http://www.w3.org/2000/svg"
   xmlns:rdf="http://www.w3.org/1999/02/22-rdf-syntax-ns#"
   xmlns:cc="http://creativecommons.org/ns#"
   xmlns:dc="http://purl.org/dc/elements/1.1/">
  <defs
     id="defs1823">
    <linearGradient
       inkscape:collect="always"
       id="linearGradient884">
      <stop
         style="stop-color:#2292ff;stop-opacity:1"
         offset="0"
         id="stop880" />
      <stop
         style="stop-color:#5f45ff;stop-opacity:1"
         offset="1"
         id="stop882" />
    </linearGradient>
    <radialGradient
       inkscape:collect="always"
       xlink:href="#linearGradient884"
       id="radialGradient886"
       cx="17.309874"
       cy="2.5295613"
       fx="17.309874"
       fy="2.5295613"
       r="14.54372"
       gradientUnits="userSpaceOnUse"
       gradientTransform="matrix(7.161795,0,0,1.7510995,-106.65989,-1.8999525)" />
  </defs>
  <sodipodi:namedview
     id="base"
     pagecolor="#ffffff"
     bordercolor="#666666"
     borderopacity="1.0"
     inkscape:pageopacity="0.0"
     inkscape:pageshadow="2"
     inkscape:zoom="1.979899"
     inkscape:cx="-63.63961"
     inkscape:cy="78.53936"
     inkscape:document-units="mm"
     inkscape:current-layer="layer1"
     inkscape:document-rotation="0"
     showgrid="false"
     units="px"
     inkscape:window-width="1920"
     inkscape:window-height="1030"
     inkscape:window-x="0"
     inkscape:window-y="24"
     inkscape:window-maximized="1"
     inkscape:pagecheckerboard="0" />
  <metadata
     id="metadata1826">
    <rdf:RDF>
      <cc:Work
         rdf:about="">
        <dc:format>image/svg+xml</dc:format>
        <dc:type
           rdf:resource="http://purl.org/dc/dcmitype/StillImage" />
      </cc:Work>
    </rdf:RDF>
  </metadata>
  <g
     inkscape:label="Capa 1"
     inkscape:groupmode="layer"
     id="layer1">
    <g
       id="g1702"
       transform="matrix(0.97573206,0,0,0.97573206,-65.58674,-37.192363)"
       style="opacity:0.296765">
      <rect
         style="fill:none;fill-opacity:1;stroke:#000000;stroke-width:0.1;stroke-linecap:round;stroke-linejoin:round;stroke-miterlimit:4;stroke-dasharray:none;stroke-opacity:0.02"
         id="rect1634"
         width="29.810888"
         height="29.810888"
         x="69.839508"
         y="40.709618"
         rx="6.6098609"
         ry="6.6098609" />
      <rect
         ry="6.6098609"
         rx="6.6098609"
         y="40.709618"
         x="69.839508"
         height="29.810888"
         width="29.810888"
         id="rect1638"
         style="fill:none;fill-opacity:1;stroke:#000000;stroke-width:0.2;stroke-linecap:round;stroke-linejoin:round;stroke-miterlimit:4;stroke-dasharray:none;stroke-opacity:0.02" />
      <rect
         style="fill:none;fill-opacity:1;stroke:#000000;stroke-width:0.3;stroke-linecap:round;stroke-linejoin:round;stroke-miterlimit:4;stroke-dasharray:none;stroke-opacity:0.02"
         id="rect1640"
         width="29.810888"
         height="29.810888"
         x="69.839508"
         y="40.709618"
         rx="6.6098609"
         ry="6.6098609" />
      <rect
         ry="6.6098609"
         rx="6.6098609"
         y="40.709618"
         x="69.839508"
         height="29.810888"
         width="29.810888"
         id="rect1642"
         style="fill:none;fill-opacity:1;stroke:#000000;stroke-width:0.4;stroke-linecap:round;stroke-linejoin:round;stroke-miterlimit:4;stroke-dasharray:none;stroke-opacity:0.02" />
      <rect
         style="fill:none;fill-opacity:1;stroke:#000000;stroke-width:0.5;stroke-linecap:round;stroke-linejoin:round;stroke-miterlimit:4;stroke-dasharray:none;stroke-opacity:0.02"
         id="rect1644"
         width="29.810888"
         height="29.810888"
         x="69.839508"
         y="40.709618"
         rx="6.6098609"
         ry="6.6098609" />
      <rect
         ry="6.6098609"
         rx="6.6098609"
         y="40.709618"
         x="69.839508"
         height="29.810888"
         width="29.810888"
         id="rect1646"
         style="fill:none;fill-opacity:1;stroke:#000000;stroke-width:0.6;stroke-linecap:round;stroke-linejoin:round;stroke-miterlimit:4;stroke-dasharray:none;stroke-opacity:0.02" />
      <rect
         style="fill:none;fill-opacity:1;stroke:#000000;stroke-width:0.7;stroke-linecap:round;stroke-linejoin:round;stroke-miterlimit:4;stroke-dasharray:none;stroke-opacity:0.02"
         id="rect1648"
         width="29.810888"
         height="29.810888"
         x="69.839508"
         y="40.709618"
         rx="6.6098609"
         ry="6.6098609" />
      <rect
         ry="6.6098609"
         rx="6.6098609"
         y="40.709618"
         x="69.839508"
         height="29.810888"
         width="29.810888"
         id="rect1650"
         style="fill:none;fill-opacity:1;stroke:#000000;stroke-width:0.8;stroke-linecap:round;stroke-linejoin:round;stroke-miterlimit:4;stroke-dasharray:none;stroke-opacity:0.02" />
      <rect
         style="fill:none;fill-opacity:1;stroke:#000000;stroke-width:1;stroke-linecap:round;stroke-linejoin:round;stroke-miterlimit:4;stroke-dasharray:none;stroke-opacity:0.02"
         id="rect1652"
         width="29.810888"
         height="29.810888"
         x="69.839508"
         y="40.709618"
         rx="6.6098609"
         ry="6.6098609" />
      <rect
         ry="6.6098609"
         rx="6.6098609"
         y="40.709618"
         x="69.839508"
         height="29.810888"
         width="29.810888"
         id="rect1654"
         style="fill:none;fill-opacity:1;stroke:#000000;stroke-width:1.2;stroke-linecap:round;stroke-linejoin:round;stroke-miterlimit:4;stroke-dasharray:none;stroke-opacity:0.02" />
      <rect
         style="fill:none;fill-opacity:1;stroke:#000000;stroke-width:1.4;stroke-linecap:round;stroke-linejoin:round;stroke-miterlimit:4;stroke-dasharray:none;stroke-opacity:0.02"
         id="rect1656"
         width="29.810888"
         height="29.810888"
         x="69.839508"
         y="40.709618"
         rx="6.6098609"
         ry="6.6098609" />
      <rect
         ry="6.6098609"
         rx="6.6098609"
         y="40.709618"
         x="69.839508"
         height="29.810888"
         width="29.810888"
         id="rect1658"
         style="fill:none;fill-opacity:1;stroke:#000000;stroke-width:1.6;stroke-linecap:round;stroke-linejoin:round;stroke-miterlimit:4;stroke-dasharray:none;stroke-opacity:0.02" />
      <rect
         style="fill:none;fill-opacity:1;stroke:#000000;stroke-width:1.8;stroke-linecap:round;stroke-linejoin:round;stroke-miterlimit:4;stroke-dasharray:none;stroke-opacity:0.02"
         id="rect1660"
         width="29.810888"
         height="29.810888"
         x="69.839508"
         y="40.709618"
         rx="6.6098609"
         ry="6.6098609" />
      <rect
         ry="6.6098609"
         rx="6.6098609"
         y="40.709618"
         x="69.839508"
         height="29.810888"
         width="29.810888"
         id="rect1662"
         style="fill:none;fill-opacity:1;stroke:#000000;stroke-width:2;stroke-linecap:round;stroke-linejoin:round;stroke-miterlimit:4;stroke-dasharray:none;stroke-opacity:0.02" />
      <rect
         style="fill:none;fill-opacity:1;stroke:#000000;stroke-width:2.2;stroke-linecap:round;stroke-linejoin:round;stroke-miterlimit:4;stroke-dasharray:none;stroke-opacity:0.02"
         id="rect1664"
         width="29.810888"
         height="29.810888"
         x="69.839508"
         y="40.709618"
         rx="6.6098609"
         ry="6.6098609" />
      <rect
         ry="6.6098609"
         rx="6.6098609"
         y="40.709618"
         x="69.839508"
         height="29.810888"
         width="29.810888"
         id="rect1666"
         style="fill:none;fill-opacity:1;stroke:#000000;stroke-width:2.6;stroke-linecap:round;stroke-linejoin:round;stroke-miterlimit:4;stroke-dasharray:none;stroke-opacity:0.02" />
      <rect
         style="fill:none;fill-opacity:1;stroke:#000000;stroke-width:3;stroke-linecap:round;stroke-linejoin:round;stroke-miterlimit:4;stroke-dasharray:none;stroke-opacity:0.02"
         id="rect1668"
         width="29.810888"
         height="29.810888"
         x="69.839508"
         y="40.709618"
         rx="6.6098609"
         ry="6.6098609" />
      <rect
         ry="6.6098609"
         rx="6.6098609"
         y="40.709618"
         x="69.839508"
         height="29.810888"
         width="29.810888"
         id="rect1670"
         style="fill:none;fill-opacity:1;stroke:#000000;stroke-width:3.4;stroke-linecap:round;stroke-linejoin:round;stroke-miterlimit:4;stroke-dasharray:none;stroke-opacity:0.02" />
      <rect
         style="fill:none;fill-opacity:1;stroke:#000000;stroke-width:3.8;stroke-linecap:round;stroke-linejoin:round;stroke-miterlimit:4;stroke-dasharray:none;stroke-opacity:0.02"
         id="rect1672"
         width="29.810888"
         height="29.810888"
         x="69.839508"
         y="40.709618"
         rx="6.6098609"
         ry="6.6098609" />
      <rect
         ry="6.6098609"
         rx="6.6098609"
         y="40.709618"
         x="69.839508"
         height="29.810888"
         width="29.810888"
         id="rect1674"
         style="fill:none;fill-opacity:1;stroke:#000000;stroke-width:4.2;stroke-linecap:round;stroke-linejoin:round;stroke-miterlimit:4;stroke-dasharray:none;stroke-opacity:0.02" />
      <rect
         style="fill:none;fill-opacity:1;stroke:#000000;stroke-width:4.6;stroke-linecap:round;stroke-linejoin:round;stroke-miterlimit:4;stroke-dasharray:none;stroke-opacity:0.02"
         id="rect1676"
         width="29.810888"
         height="29.810888"
         x="69.839508"
         y="40.709618"
         rx="6.6098609"
         ry="6.6098609" />
      <rect
         ry="6.6098609"
         rx="6.6098609"
         y="40.709618"
         x="69.839508"
         height="29.810888"
         width="29.810888"
         id="rect1678"
         style="fill:none;fill-opacity:1;stroke:#000000;stroke-width:5;stroke-linecap:round;stroke-linejoin:round;stroke-miterlimit:4;stroke-dasharray:none;stroke-opacity:0.02" />
    </g>
    <rect
       style="fill:url(#radialGradient886);fill-opacity:1;stroke-width:2.68769;stroke-linecap:round;stroke-linejoin:round"
       id="rect849-5"
       width="29.08744"
       height="29.08744"
       x="2.5579116"
       y="2.5293181"
       rx="6.4494534"
       ry="6.4494534" />
    <path
       style="fill:#ffffff;stroke-width:0.60994"
       d="m 17.235994,6.0095274 c -0.131494,0 -0.106735,0.5125367 0.03098,0.6289998 0.155054,0.1311248 0.383272,0.5887911 0.450308,0.9053808 l 0.05242,0.2477883 -0.426483,0.090529 c -1.01658,0.2150371 -1.213489,0.9159734 -0.557524,1.9775419 0.230321,0.3727538 0.23075,0.3833558 0.185829,1.1912888 -0.03368,0.605897 -0.01544,0.912922 0.06909,1.203203 0.131332,0.450622 0.498022,0.864721 0.881555,0.995919 0.424182,0.145095 1.575691,0.07665 2.003751,-0.119137 0.46831,-0.214208 1.078566,-0.849948 1.248477,-1.303274 0.200099,-0.533863 0.12384,-1.270079 -0.195373,-1.9132057 C 20.672163,9.2963018 19.872023,8.4552409 19.315988,8.1681428 19.022004,8.0163512 18.883131,7.8870407 18.784672,7.6701847 18.644091,7.3605639 17.384549,6.0095274 17.235994,6.0095274 Z M 9.9476821,8.4492887 c -0.01752,-0.00159 -0.032966,0.00438 -0.04765,0.019134 -0.1521723,0.1526559 -0.2760192,0.9549235 -0.262086,1.7035443 0.01314,0.708486 -0.00507,0.855061 -0.1453253,1.091222 -0.4659216,0.784671 -0.544956,2.222128 -0.1667875,3.037789 0.3343657,0.721177 0.8878907,1.161609 1.7321367,1.372367 0.589349,0.147124 0.987226,0.126469 1.541527,-0.07623 1.527493,-0.558599 1.791706,-1.647653 0.695715,-2.875774 -0.444379,-0.497958 -0.650444,-0.904095 -0.650444,-1.2723 0,-0.448154 -0.164436,-0.886553 -0.440777,-1.181759 -0.248773,-0.265753 -0.262768,-0.2685105 -0.7386,-0.226356 -0.266759,0.02365 -0.581239,0.06607 -0.698096,0.0953 -0.194013,0.04855 -0.224628,0.02236 -0.364535,-0.2882927 C 10.318478,9.6608322 10.248928,9.3462827 10.24789,9.1474563 10.246424,8.8403621 10.070314,8.4604532 9.9476821,8.4493601 Z M 25.448747,9.6715518 c -0.192192,-0.038037 -0.251592,0.4078262 -0.0977,0.7314512 0.07103,0.149291 0.118146,0.402277 0.104844,0.56229 l -0.02384,0.290676 -0.409804,0.0071 c -0.317823,0.006 -0.470924,0.05708 -0.693331,0.226356 -0.260304,0.198093 -0.658105,0.869565 -0.659976,1.115046 -4.15e-4,0.05427 -0.242563,0.582124 -0.538462,1.172229 -0.295898,0.590108 -0.562101,1.191271 -0.593261,1.334245 -0.167111,0.76672 0.296559,1.339775 1.405722,1.739284 0.468358,0.168701 0.958114,0.182025 1.489112,0.0405 0.862995,-0.230022 1.417871,-0.665269 1.753578,-1.377133 0.177029,-0.375535 0.201327,-0.527885 0.197754,-1.210395 -0.0046,-0.884628 -0.171905,-1.443066 -0.624237,-2.079993 C 26.617947,12.024496 26.445173,11.636892 26.375553,11.363185 26.23304,10.802938 25.63276,9.708003 25.448729,9.6715518 Z M 5.5232302,15.770956 c -0.019825,-0.0046 -0.03451,-0.0021 -0.045276,0.0094 -0.1593184,0.171121 0.080408,1.831743 0.3216498,2.227711 0.059223,0.09721 0.1427203,0.42924 0.1882266,0.736216 0.2063463,1.392281 1.1775798,2.692977 2.2801294,3.054469 0.3766423,0.123494 1.1941317,0.07778 1.7226049,-0.0953 0.4370731,-0.143157 0.5829381,-0.241538 0.9125271,-0.612322 0.684006,-0.7695 0.809073,-1.530487 0.350242,-2.146704 C 11.131892,18.781331 10.760363,18.477091 10.428959,18.267844 10.097553,18.058639 9.5199961,17.672435 9.147132,17.410116 8.0549424,16.641732 7.9399732,16.570542 7.638958,16.48091 7.2568613,16.367144 6.8679248,16.488518 6.5501203,16.819236 L 6.2999482,17.076555 6.1450791,16.802558 C 6.0588613,16.650662 5.9879738,16.449662 5.9878355,16.357017 5.9875542,16.19076 5.6621514,15.803158 5.5232325,15.770901 Z m 13.9357108,1.2175 c -0.47977,0.0023 -1.033682,0.07935 -1.672571,0.233491 -1.805565,0.435609 -2.658976,0.95467 -3.04732,1.851265 -0.168147,0.38819 -0.181518,0.522044 -0.135804,1.265151 0.0465,0.755496 0.03414,0.864264 -0.142951,1.241323 -0.179974,0.383157 -0.387802,0.599253 -1.341391,1.400958 -0.3028,0.254573 -0.330514,0.314259 -0.364538,0.781485 -0.03167,0.435077 -1.8e-5,0.578207 0.21921,1.043571 0.468156,0.993936 1.312893,1.660745 2.370667,1.867942 0.500746,0.09807 0.831805,0.09816 1.691634,0.0025 3.342258,-0.372604 7.18418,-1.577029 8.281847,-2.597107 0.573889,-0.533328 0.802645,-1.025055 0.841051,-1.805996 0.07329,-1.490917 -0.598219,-2.384773 -1.796466,-2.389727 -0.93803,-0.0037 -1.881319,-0.548949 -2.268216,-1.31042 -0.286535,-0.563935 -0.867368,-1.126529 -1.410487,-1.365218 -0.33946,-0.149268 -0.744875,-0.221677 -1.224647,-0.219256 z"
       id="path8" />
  </g>
</svg>
