<?xml version="1.0" encoding="UTF-8" standalone="no"?>
<svg
   width="128"
   height="128"
   viewBox="0 0 33.866666 33.866668"
   version="1.1"
   id="svg1711"
   inkscape:version="1.1.2 (0a00cf5339, 2022-02-04)"
   sodipodi:docname="lmms.svg"
   xmlns:inkscape="http://www.inkscape.org/namespaces/inkscape"
   xmlns:sodipodi="http://sodipodi.sourceforge.net/DTD/sodipodi-0.dtd"
   xmlns:xlink="http://www.w3.org/1999/xlink"
   xmlns="http://www.w3.org/2000/svg"
   xmlns:svg="http://www.w3.org/2000/svg"
   xmlns:rdf="http://www.w3.org/1999/02/22-rdf-syntax-ns#"
   xmlns:cc="http://creativecommons.org/ns#"
   xmlns:dc="http://purl.org/dc/elements/1.1/">
  <defs
     id="defs1705">
    <linearGradient
       inkscape:collect="always"
       id="linearGradient1031">
      <stop
         style="stop-color:#ffffff;stop-opacity:1;"
         offset="0"
         id="stop1027" />
      <stop
         style="stop-color:#5cb033;stop-opacity:1"
         offset="1"
         id="stop1029" />
    </linearGradient>
    <linearGradient
       gradientUnits="userSpaceOnUse"
       y2="4.0044317"
       x2="17.821186"
       y1="29.110353"
       x1="17.821186"
       id="linearGradient4677"
       xlink:href="#linearGradient4675"
       inkscape:collect="always"
       gradientTransform="translate(-0.07080402,3.2989843e-4)" />
    <linearGradient
       id="linearGradient4675"
       inkscape:collect="always">
      <stop
         id="stop4671"
         offset="0"
         style="stop-color:#5aaf33;stop-opacity:1" />
      <stop
         id="stop4673"
         offset="1"
         style="stop-color:#98d742;stop-opacity:1" />
    </linearGradient>
    <linearGradient
       id="b"
       x1="32"
       x2="31.999001"
       y1="47.652"
       y2="41.130001"
       gradientUnits="userSpaceOnUse">
      <stop
         offset="0"
         stop-color="#d8dede"
         id="stop17" />
      <stop
         offset="1"
         stop-color="#afc0c0"
         id="stop19" />
    </linearGradient>
    <linearGradient
       id="c"
       x1="15.043"
       x2="48.956001"
       y1="29.391001"
       y2="29.391001"
       gradientUnits="userSpaceOnUse">
      <stop
         offset="0"
         stop-color="#333"
         id="stop12" />
      <stop
         offset="1"
         stop-color="#474747"
         id="stop14" />
    </linearGradient>
    <linearGradient
       id="d"
       x1="17.652"
       x2="46.348"
       y1="29.392"
       y2="29.392"
       gradientUnits="userSpaceOnUse">
      <stop
         offset="0"
         stop-color="#327486"
         id="stop7" />
      <stop
         offset="1"
         stop-color="#325386"
         id="stop9" />
    </linearGradient>
    <linearGradient
       inkscape:collect="always"
       xlink:href="#linearGradient1031"
       id="linearGradient1033"
       x1="7.5241342"
       y1="3.3862746"
       x2="7.5241342"
       y2="55.009705"
       gradientUnits="userSpaceOnUse" />
  </defs>
  <sodipodi:namedview
     id="base"
     pagecolor="#ffffff"
     bordercolor="#666666"
     borderopacity="1.0"
     inkscape:pageopacity="0.0"
     inkscape:pageshadow="2"
     inkscape:zoom="0.9899495"
     inkscape:cx="-221.22341"
     inkscape:cy="18.687822"
     inkscape:document-units="mm"
     inkscape:current-layer="layer1"
     inkscape:document-rotation="0"
     showgrid="false"
     units="px"
     inkscape:window-width="1920"
     inkscape:window-height="1032"
     inkscape:window-x="0"
     inkscape:window-y="24"
     inkscape:window-maximized="1"
     inkscape:pagecheckerboard="0" />
  <metadata
     id="metadata1708">
    <rdf:RDF>
      <cc:Work
         rdf:about="">
        <dc:format>image/svg+xml</dc:format>
        <dc:type
           rdf:resource="http://purl.org/dc/dcmitype/StillImage" />
      </cc:Work>
    </rdf:RDF>
  </metadata>
  <g
     inkscape:label="Capa 1"
     inkscape:groupmode="layer"
     id="layer1">
    <g
       id="g1702"
       transform="matrix(0.97573206,0,0,0.97573206,-65.81919,-37.202764)"
       style="opacity:0.295">
      <rect
         style="fill:none;fill-opacity:1;stroke:#000000;stroke-width:0.1;stroke-linecap:round;stroke-linejoin:round;stroke-miterlimit:4;stroke-dasharray:none;stroke-opacity:0.02"
         id="rect1634"
         width="29.810888"
         height="29.810888"
         x="69.839508"
         y="40.709618"
         rx="6.6098609"
         ry="6.6098609" />
      <rect
         ry="6.6098609"
         rx="6.6098609"
         y="40.709618"
         x="69.839508"
         height="29.810888"
         width="29.810888"
         id="rect1638"
         style="fill:none;fill-opacity:1;stroke:#000000;stroke-width:0.2;stroke-linecap:round;stroke-linejoin:round;stroke-miterlimit:4;stroke-dasharray:none;stroke-opacity:0.02" />
      <rect
         style="fill:none;fill-opacity:1;stroke:#000000;stroke-width:0.3;stroke-linecap:round;stroke-linejoin:round;stroke-miterlimit:4;stroke-dasharray:none;stroke-opacity:0.02"
         id="rect1640"
         width="29.810888"
         height="29.810888"
         x="69.839508"
         y="40.709618"
         rx="6.6098609"
         ry="6.6098609" />
      <rect
         ry="6.6098609"
         rx="6.6098609"
         y="40.709618"
         x="69.839508"
         height="29.810888"
         width="29.810888"
         id="rect1642"
         style="fill:none;fill-opacity:1;stroke:#000000;stroke-width:0.4;stroke-linecap:round;stroke-linejoin:round;stroke-miterlimit:4;stroke-dasharray:none;stroke-opacity:0.02" />
      <rect
         style="fill:none;fill-opacity:1;stroke:#000000;stroke-width:0.5;stroke-linecap:round;stroke-linejoin:round;stroke-miterlimit:4;stroke-dasharray:none;stroke-opacity:0.02"
         id="rect1644"
         width="29.810888"
         height="29.810888"
         x="69.839508"
         y="40.709618"
         rx="6.6098609"
         ry="6.6098609" />
      <rect
         ry="6.6098609"
         rx="6.6098609"
         y="40.709618"
         x="69.839508"
         height="29.810888"
         width="29.810888"
         id="rect1646"
         style="fill:none;fill-opacity:1;stroke:#000000;stroke-width:0.6;stroke-linecap:round;stroke-linejoin:round;stroke-miterlimit:4;stroke-dasharray:none;stroke-opacity:0.02" />
      <rect
         style="fill:none;fill-opacity:1;stroke:#000000;stroke-width:0.7;stroke-linecap:round;stroke-linejoin:round;stroke-miterlimit:4;stroke-dasharray:none;stroke-opacity:0.02"
         id="rect1648"
         width="29.810888"
         height="29.810888"
         x="69.839508"
         y="40.709618"
         rx="6.6098609"
         ry="6.6098609" />
      <rect
         ry="6.6098609"
         rx="6.6098609"
         y="40.709618"
         x="69.839508"
         height="29.810888"
         width="29.810888"
         id="rect1650"
         style="fill:none;fill-opacity:1;stroke:#000000;stroke-width:0.8;stroke-linecap:round;stroke-linejoin:round;stroke-miterlimit:4;stroke-dasharray:none;stroke-opacity:0.02" />
      <rect
         style="fill:none;fill-opacity:1;stroke:#000000;stroke-width:1;stroke-linecap:round;stroke-linejoin:round;stroke-miterlimit:4;stroke-dasharray:none;stroke-opacity:0.02"
         id="rect1652"
         width="29.810888"
         height="29.810888"
         x="69.839508"
         y="40.709618"
         rx="6.6098609"
         ry="6.6098609" />
      <rect
         ry="6.6098609"
         rx="6.6098609"
         y="40.709618"
         x="69.839508"
         height="29.810888"
         width="29.810888"
         id="rect1654"
         style="fill:none;fill-opacity:1;stroke:#000000;stroke-width:1.2;stroke-linecap:round;stroke-linejoin:round;stroke-miterlimit:4;stroke-dasharray:none;stroke-opacity:0.02" />
      <rect
         style="fill:none;fill-opacity:1;stroke:#000000;stroke-width:1.4;stroke-linecap:round;stroke-linejoin:round;stroke-miterlimit:4;stroke-dasharray:none;stroke-opacity:0.02"
         id="rect1656"
         width="29.810888"
         height="29.810888"
         x="69.839508"
         y="40.709618"
         rx="6.6098609"
         ry="6.6098609" />
      <rect
         ry="6.6098609"
         rx="6.6098609"
         y="40.709618"
         x="69.839508"
         height="29.810888"
         width="29.810888"
         id="rect1658"
         style="fill:none;fill-opacity:1;stroke:#000000;stroke-width:1.6;stroke-linecap:round;stroke-linejoin:round;stroke-miterlimit:4;stroke-dasharray:none;stroke-opacity:0.02" />
      <rect
         style="fill:none;fill-opacity:1;stroke:#000000;stroke-width:1.8;stroke-linecap:round;stroke-linejoin:round;stroke-miterlimit:4;stroke-dasharray:none;stroke-opacity:0.02"
         id="rect1660"
         width="29.810888"
         height="29.810888"
         x="69.839508"
         y="40.709618"
         rx="6.6098609"
         ry="6.6098609" />
      <rect
         ry="6.6098609"
         rx="6.6098609"
         y="40.709618"
         x="69.839508"
         height="29.810888"
         width="29.810888"
         id="rect1662"
         style="fill:none;fill-opacity:1;stroke:#000000;stroke-width:2;stroke-linecap:round;stroke-linejoin:round;stroke-miterlimit:4;stroke-dasharray:none;stroke-opacity:0.02" />
      <rect
         style="fill:none;fill-opacity:1;stroke:#000000;stroke-width:2.2;stroke-linecap:round;stroke-linejoin:round;stroke-miterlimit:4;stroke-dasharray:none;stroke-opacity:0.02"
         id="rect1664"
         width="29.810888"
         height="29.810888"
         x="69.839508"
         y="40.709618"
         rx="6.6098609"
         ry="6.6098609" />
      <rect
         ry="6.6098609"
         rx="6.6098609"
         y="40.709618"
         x="69.839508"
         height="29.810888"
         width="29.810888"
         id="rect1666"
         style="fill:none;fill-opacity:1;stroke:#000000;stroke-width:2.6;stroke-linecap:round;stroke-linejoin:round;stroke-miterlimit:4;stroke-dasharray:none;stroke-opacity:0.02" />
      <rect
         style="fill:none;fill-opacity:1;stroke:#000000;stroke-width:3;stroke-linecap:round;stroke-linejoin:round;stroke-miterlimit:4;stroke-dasharray:none;stroke-opacity:0.02"
         id="rect1668"
         width="29.810888"
         height="29.810888"
         x="69.839508"
         y="40.709618"
         rx="6.6098609"
         ry="6.6098609" />
      <rect
         ry="6.6098609"
         rx="6.6098609"
         y="40.709618"
         x="69.839508"
         height="29.810888"
         width="29.810888"
         id="rect1670"
         style="fill:none;fill-opacity:1;stroke:#000000;stroke-width:3.4;stroke-linecap:round;stroke-linejoin:round;stroke-miterlimit:4;stroke-dasharray:none;stroke-opacity:0.02" />
      <rect
         style="fill:none;fill-opacity:1;stroke:#000000;stroke-width:3.8;stroke-linecap:round;stroke-linejoin:round;stroke-miterlimit:4;stroke-dasharray:none;stroke-opacity:0.02"
         id="rect1672"
         width="29.810888"
         height="29.810888"
         x="69.839508"
         y="40.709618"
         rx="6.6098609"
         ry="6.6098609" />
      <rect
         ry="6.6098609"
         rx="6.6098609"
         y="40.709618"
         x="69.839508"
         height="29.810888"
         width="29.810888"
         id="rect1674"
         style="fill:none;fill-opacity:1;stroke:#000000;stroke-width:4.2;stroke-linecap:round;stroke-linejoin:round;stroke-miterlimit:4;stroke-dasharray:none;stroke-opacity:0.02" />
      <rect
         style="fill:none;fill-opacity:1;stroke:#000000;stroke-width:4.6;stroke-linecap:round;stroke-linejoin:round;stroke-miterlimit:4;stroke-dasharray:none;stroke-opacity:0.02"
         id="rect1676"
         width="29.810888"
         height="29.810888"
         x="69.839508"
         y="40.709618"
         rx="6.6098609"
         ry="6.6098609" />
      <rect
         ry="6.6098609"
         rx="6.6098609"
         y="40.709618"
         x="69.839508"
         height="29.810888"
         width="29.810888"
         id="rect1678"
         style="fill:none;fill-opacity:1;stroke:#000000;stroke-width:5;stroke-linecap:round;stroke-linejoin:round;stroke-miterlimit:4;stroke-dasharray:none;stroke-opacity:0.02" />
    </g>
    <rect
       style="fill:url(#linearGradient4677);fill-opacity:1;stroke-width:2.68801;stroke-linecap:round;stroke-linejoin:round;stroke-miterlimit:4;stroke-dasharray:none"
       id="rect849"
       width="29.08744"
       height="29.08744"
       x="2.32546"
       y="2.5189149"
       rx="6.4494534"
       ry="6.4494534" />
    <g
       id="g3067"
       style="fill:#001a01;fill-opacity:0.0240038">
      <path
         id="path2689"
         style="color:#000000;fill:#001a01;fill-opacity:0.0240038;stroke-width:0.499999;stroke-linecap:round;stroke-linejoin:round;-inkscape-stroke:none"
         d="m 16.919798,7.9711905 a 0.250025,0.250025 0 0 0 -0.08062,0.028939 L 7.4935,13.339855 A 0.250025,0.250025 0 0 0 7.3663759,13.556896 V 24.238415 A 0.250025,0.250025 0 0 0 7.4935,24.455455 l 3.115056,1.77922 a 0.250025,0.250025 0 0 0 0.248046,0 l 3.115056,-1.77922 a 0.250025,0.250025 0 0 0 0.125057,-0.21704 V 20.677908 A 0.250025,0.250025 0 0 0 13.971658,20.461384 L 10.981659,18.751928 V 15.48236 l 5.980514,-3.417879 5.980513,3.417879 v 3.269568 l -2.990515,1.709456 a 0.250025,0.250025 0 0 0 -0.125057,0.216524 v 3.560507 a 0.250025,0.250025 0 0 0 0.125057,0.21704 l 3.115572,1.77922 a 0.250025,0.250025 0 0 0 0.248047,0 l 3.115055,-1.77922 a 0.250025,0.250025 0 0 0 0.127124,-0.21704 V 13.556896 A 0.250025,0.250025 0 0 0 26.430845,13.339855 L 17.08723,8.0001293 a 0.250025,0.250025 0 0 0 -0.167432,-0.028939 z" />
      <path
         id="path3048"
         style="color:#000000;fill:#001a01;fill-opacity:0.0240038;stroke-width:0.499999;stroke-linecap:round;stroke-linejoin:round;-inkscape-stroke:none"
         d="m 17.164972,8.1717122 a 0.250025,0.250025 0 0 0 -0.08062,0.028939 L 7.7386743,13.540377 a 0.250025,0.250025 0 0 0 -0.1271241,0.217041 v 10.681519 a 0.250025,0.250025 0 0 0 0.1271241,0.21704 l 3.1150557,1.77922 a 0.250025,0.250025 0 0 0 0.248046,0 l 3.115056,-1.77922 a 0.250025,0.250025 0 0 0 0.125057,-0.21704 V 20.87843 A 0.250025,0.250025 0 0 0 14.216832,20.661906 L 11.226833,18.95245 v -3.269568 l 5.980514,-3.417879 5.980513,3.417879 v 3.269568 l -2.990515,1.709456 a 0.250025,0.250025 0 0 0 -0.125057,0.216524 v 3.560507 a 0.250025,0.250025 0 0 0 0.125057,0.21704 l 3.115572,1.77922 a 0.250025,0.250025 0 0 0 0.248047,0 l 3.115055,-1.77922 a 0.250025,0.250025 0 0 0 0.127124,-0.21704 V 13.757418 A 0.250025,0.250025 0 0 0 26.676019,13.540377 L 17.332404,8.200651 a 0.250025,0.250025 0 0 0 -0.167432,-0.028939 z" />
      <path
         id="path3050"
         style="color:#000000;fill:#001a01;fill-opacity:0.0240038;stroke-width:0.499999;stroke-linecap:round;stroke-linejoin:round;-inkscape-stroke:none"
         d="m 17.431267,8.4087811 a 0.250025,0.250025 0 0 0 -0.08062,0.028939 L 8.0049691,13.777446 A 0.250025,0.250025 0 0 0 7.877845,13.994487 v 10.681519 a 0.250025,0.250025 0 0 0 0.1271241,0.21704 l 3.1150559,1.77922 a 0.250025,0.250025 0 0 0 0.248046,0 l 3.115056,-1.77922 a 0.250025,0.250025 0 0 0 0.125057,-0.21704 v -3.560507 a 0.250025,0.250025 0 0 0 -0.125057,-0.216524 l -2.989999,-1.709456 v -3.269568 l 5.980514,-3.417879 5.980513,3.417879 v 3.269568 l -2.990515,1.709456 a 0.250025,0.250025 0 0 0 -0.125057,0.216524 v 3.560507 a 0.250025,0.250025 0 0 0 0.125057,0.21704 l 3.115572,1.77922 a 0.250025,0.250025 0 0 0 0.248047,0 l 3.115055,-1.77922 a 0.250025,0.250025 0 0 0 0.127124,-0.21704 V 13.994487 A 0.250025,0.250025 0 0 0 26.942314,13.777446 L 17.598699,8.4377199 a 0.250025,0.250025 0 0 0 -0.167432,-0.028939 z" />
      <path
         id="path3052"
         style="color:#000000;fill:#001a01;fill-opacity:0.0240038;stroke-width:0.499999;stroke-linecap:round;stroke-linejoin:round;-inkscape-stroke:none"
         d="m 17.70537,8.618536 a 0.250025,0.250025 0 0 0 -0.08062,0.028939 l -9.3456781,5.339726 a 0.250025,0.250025 0 0 0 -0.1271241,0.217041 v 10.681519 a 0.250025,0.250025 0 0 0 0.1271241,0.21704 l 3.1150561,1.77922 a 0.250025,0.250025 0 0 0 0.248046,0 l 3.115056,-1.77922 a 0.250025,0.250025 0 0 0 0.125057,-0.21704 V 21.325254 A 0.250025,0.250025 0 0 0 14.75723,21.10873 l -2.989999,-1.709456 v -3.269568 l 5.980514,-3.417879 5.980513,3.417879 v 3.269568 l -2.990515,1.709456 a 0.250025,0.250025 0 0 0 -0.125057,0.216524 v 3.560507 a 0.250025,0.250025 0 0 0 0.125057,0.21704 l 3.115572,1.77922 a 0.250025,0.250025 0 0 0 0.248047,0 l 3.115055,-1.77922 a 0.250025,0.250025 0 0 0 0.127124,-0.21704 V 14.204242 A 0.250025,0.250025 0 0 0 27.216417,13.987201 L 17.872802,8.6474748 A 0.250025,0.250025 0 0 0 17.70537,8.618536 Z" />
      <path
         id="path3054"
         style="color:#000000;fill:#001a01;fill-opacity:0.0240038;stroke-width:0.499999;stroke-linecap:round;stroke-linejoin:round;-inkscape-stroke:none"
         d="m 17.941126,8.7948418 a 0.250025,0.250025 0 0 0 -0.08062,0.028939 L 8.5148283,14.163507 a 0.250025,0.250025 0 0 0 -0.1271241,0.217041 v 10.681519 a 0.250025,0.250025 0 0 0 0.1271241,0.21704 l 3.1150557,1.77922 a 0.250025,0.250025 0 0 0 0.248046,0 l 3.115056,-1.77922 a 0.250025,0.250025 0 0 0 0.125057,-0.21704 V 21.50156 A 0.250025,0.250025 0 0 0 14.992986,21.285036 L 12.002987,19.57558 v -3.269568 l 5.980514,-3.417879 5.980513,3.417879 v 3.269568 l -2.990515,1.709456 a 0.250025,0.250025 0 0 0 -0.125057,0.216524 v 3.560507 a 0.250025,0.250025 0 0 0 0.125057,0.21704 l 3.115572,1.77922 a 0.250025,0.250025 0 0 0 0.248047,0 l 3.115055,-1.77922 a 0.250025,0.250025 0 0 0 0.127124,-0.21704 V 14.380548 A 0.250025,0.250025 0 0 0 27.452173,14.163507 L 18.108558,8.8237806 a 0.250025,0.250025 0 0 0 -0.167432,-0.028939 z" />
      <path
         id="path3056"
         style="color:#000000;fill:#001a01;fill-opacity:0.0240038;stroke-width:0.499999;stroke-linecap:round;stroke-linejoin:round;-inkscape-stroke:none"
         d="m 18.116023,8.9660766 a 0.250025,0.250025 0 0 0 -0.08062,0.028939 L 8.6897251,14.334742 A 0.250025,0.250025 0 0 0 8.562601,14.551783 v 10.681519 a 0.250025,0.250025 0 0 0 0.1271241,0.21704 l 3.1150559,1.77922 a 0.250025,0.250025 0 0 0 0.248046,0 l 3.115056,-1.77922 a 0.250025,0.250025 0 0 0 0.125057,-0.21704 v -3.560507 a 0.250025,0.250025 0 0 0 -0.125057,-0.216524 l -2.989999,-1.709456 v -3.269568 l 5.980514,-3.417879 5.980513,3.417879 v 3.269568 l -2.990515,1.709456 a 0.250025,0.250025 0 0 0 -0.125057,0.216524 v 3.560507 a 0.250025,0.250025 0 0 0 0.125057,0.21704 l 3.115572,1.77922 a 0.250025,0.250025 0 0 0 0.248047,0 l 3.115055,-1.77922 a 0.250025,0.250025 0 0 0 0.127124,-0.21704 V 14.551783 A 0.250025,0.250025 0 0 0 27.62707,14.334742 L 18.283455,8.9950154 a 0.250025,0.250025 0 0 0 -0.167432,-0.028939 z" />
      <path
         id="path3058"
         style="color:#000000;fill:#001a01;fill-opacity:0.0240038;stroke-width:0.499999;stroke-linecap:round;stroke-linejoin:round;-inkscape-stroke:none"
         d="m 18.299783,9.1567409 a 0.250025,0.250025 0 0 0 -0.08062,0.028939 L 8.8734846,14.525406 a 0.250025,0.250025 0 0 0 -0.1271241,0.217041 v 10.681519 a 0.250025,0.250025 0 0 0 0.1271241,0.21704 l 3.1150564,1.77922 a 0.250025,0.250025 0 0 0 0.248046,0 l 3.115056,-1.77922 a 0.250025,0.250025 0 0 0 0.125057,-0.21704 v -3.560507 a 0.250025,0.250025 0 0 0 -0.125057,-0.216524 l -2.989999,-1.709456 v -3.269568 l 5.980514,-3.417879 5.980513,3.417879 v 3.269568 l -2.990515,1.709456 a 0.250025,0.250025 0 0 0 -0.125057,0.216524 v 3.560507 a 0.250025,0.250025 0 0 0 0.125057,0.21704 l 3.115572,1.77922 a 0.250025,0.250025 0 0 0 0.248047,0 l 3.115055,-1.77922 a 0.250025,0.250025 0 0 0 0.127124,-0.21704 V 14.742447 A 0.250025,0.250025 0 0 0 27.81083,14.525406 L 18.467215,9.1856797 a 0.250025,0.250025 0 0 0 -0.167432,-0.028939 z" />
    </g>
    <path
       d="M 16.869181,8.1625906 7.5241342,13.502618 v 10.680054 l 3.1150148,1.780008 3.115015,-1.780008 v -3.560019 l -3.115015,-1.780008 v -3.560019 l 6.230032,-3.560016 6.23003,3.560016 v 3.560019 l -3.115015,1.780008 v 3.560019 l 3.115015,1.780008 3.115015,-1.780008 V 13.502618 Z"
       id="path20"
       style="fill:url(#linearGradient1033);fill-opacity:1;stroke-width:0.445002" />
  </g>
</svg>
