<?xml version="1.0" encoding="UTF-8" standalone="no"?>
<svg
   width="128"
   height="128"
   viewBox="0 0 33.866666 33.866668"
   version="1.1"
   id="svg1986"
   inkscape:version="1.1.2 (0a00cf5339, 2022-02-04)"
   sodipodi:docname="logseq.svg"
   xmlns:inkscape="http://www.inkscape.org/namespaces/inkscape"
   xmlns:sodipodi="http://sodipodi.sourceforge.net/DTD/sodipodi-0.dtd"
   xmlns:xlink="http://www.w3.org/1999/xlink"
   xmlns="http://www.w3.org/2000/svg"
   xmlns:svg="http://www.w3.org/2000/svg"
   xmlns:rdf="http://www.w3.org/1999/02/22-rdf-syntax-ns#"
   xmlns:cc="http://creativecommons.org/ns#"
   xmlns:dc="http://purl.org/dc/elements/1.1/">
  <defs
     id="defs1980">
    <linearGradient
       inkscape:collect="always"
       xlink:href="#linearGradient1630"
       id="linearGradient1632"
       x1="123.67213"
       y1="44.82021"
       x2="140.82056"
       y2="67.168037"
       gradientUnits="userSpaceOnUse"
       gradientTransform="matrix(0.97573207,0,0,0.97573207,-111.74883,-37.280277)" />
    <linearGradient
       inkscape:collect="always"
       id="linearGradient1630">
      <stop
         style="stop-color:#32353e;stop-opacity:1"
         offset="0"
         id="stop1626" />
      <stop
         style="stop-color:#4d4747;stop-opacity:1"
         offset="1"
         id="stop1628" />
    </linearGradient>
    <linearGradient
       gradientUnits="userSpaceOnUse"
       y2="8.2018995"
       y1="16.139"
       x2="12.171"
       x1="12.171"
       id="linearGradient919"
       gradientTransform="matrix(3.7239257,0,0,3.7239257,-75.810499,-22.129709)">
      <stop
         id="stop2918"
         offset="0"
         stop-color="#1d1812" />
      <stop
         id="stop2920"
         offset="1"
         stop-color="#393837" />
    </linearGradient>
    <linearGradient
       gradientUnits="userSpaceOnUse"
       gradientTransform="matrix(3.4756516,0,0,3.4756516,-72.789017,-19.108227)"
       y2="8.2018995"
       y1="16.139"
       x2="12.171"
       x1="12.171"
       id="linearGradient923">
      <stop
         id="stop2923"
         offset="0"
         stop-color="#434343" />
      <stop
         id="stop2925"
         offset="1"
         stop-color="#090909" />
    </linearGradient>
    <linearGradient
       gradientUnits="userSpaceOnUse"
       gradientTransform="matrix(1.9860813,0,0,1.9860813,-54.660091,-0.97930059)"
       y2="8.2018995"
       y1="16.139"
       x2="12.171"
       x1="12.171"
       id="linearGradient933">
      <stop
         id="stop2928"
         offset="0"
         stop-color="#5d5d5d" />
      <stop
         id="stop2930"
         offset=".49758"
         stop-color="#2b2b2b" />
      <stop
         id="stop2932"
         offset="1"
         stop-color="#5d5d5d" />
    </linearGradient>
    <linearGradient
       gradientUnits="userSpaceOnUse"
       gradientTransform="matrix(1.2412962,0,0,1.2412962,-45.595683,8.085107)"
       y2="11.178"
       y1="11.178"
       x2="8.2018995"
       x1="16.139"
       id="linearGradient947">
      <stop
         id="stop2935"
         offset="0"
         stop-color="#342993" />
      <stop
         id="stop2937"
         offset=".49758"
         stop-color="#3b3942" />
      <stop
         id="stop2939"
         offset="1"
         stop-color="#2c5940" />
    </linearGradient>
    <linearGradient
       gradientUnits="userSpaceOnUse"
       gradientTransform="matrix(1.0704052,0,0,1.0704052,-43.515498,10.448683)"
       y2="15.113"
       y1="18.226999"
       x2="12.171"
       x1="12.171"
       id="linearGradient973">
      <stop
         id="stop2949"
         offset="0"
         stop-opacity=".82"
         stop-color="#fff" />
      <stop
         id="stop2951"
         offset=".30196"
         stop-opacity=".19"
         stop-color="#fff" />
      <stop
         id="stop2953"
         offset="1"
         stop-opacity="0"
         stop-color="#fff" />
    </linearGradient>
    <linearGradient
       gradientUnits="userSpaceOnUse"
       y2="14.816"
       y1="7.6728001"
       x2="8.7311001"
       x1="10.583"
       id="linearGradient996"
       gradientTransform="matrix(3.7239257,0,0,3.7239257,-75.810499,-22.129709)">
      <stop
         id="stop2956"
         offset="0"
         stop-color="#fff" />
      <stop
         id="stop2958"
         offset="1"
         stop-opacity="0"
         stop-color="#fff" />
    </linearGradient>
    <linearGradient
       gradientUnits="userSpaceOnUse"
       gradientTransform="matrix(1.0584886,0,0,1.0584886,-43.370637,9.9087134)"
       y2="12.136"
       y1="5.3664999"
       x2="12.171"
       x1="12.171"
       id="linearGradient959">
      <stop
         id="stop2942"
         offset="0"
         stop-opacity=".82"
         stop-color="#fff" />
      <stop
         id="stop2944"
         offset=".6"
         stop-opacity=".19"
         stop-color="#fff" />
      <stop
         id="stop2946"
         offset="1"
         stop-opacity="0"
         stop-color="#fff" />
    </linearGradient>
    <filter
       id="b"
       width="1.1421078"
       height="1.158823"
       x="-0.071053922"
       y="-0.079411495"
       color-interpolation-filters="sRGB">
      <feGaussianBlur
         stdDeviation="1.125"
         id="feGaussianBlur7" />
    </filter>
  </defs>
  <sodipodi:namedview
     id="base"
     pagecolor="#ffffff"
     bordercolor="#666666"
     borderopacity="1.0"
     inkscape:pageopacity="0.0"
     inkscape:pageshadow="2"
     inkscape:zoom="2.8"
     inkscape:cx="116.78571"
     inkscape:cy="72.678571"
     inkscape:document-units="mm"
     inkscape:current-layer="layer1"
     inkscape:document-rotation="0"
     showgrid="false"
     units="px"
     inkscape:window-width="1514"
     inkscape:window-height="941"
     inkscape:window-x="50"
     inkscape:window-y="32"
     inkscape:window-maximized="0"
     inkscape:pagecheckerboard="0" />
  <metadata
     id="metadata1983">
    <rdf:RDF>
      <cc:Work
         rdf:about="">
        <dc:format>image/svg+xml</dc:format>
        <dc:type
           rdf:resource="http://purl.org/dc/dcmitype/StillImage" />
      </cc:Work>
    </rdf:RDF>
  </metadata>
  <g
     inkscape:label="Capa 1"
     inkscape:groupmode="layer"
     id="layer1">
    <g
       id="g1702"
       transform="matrix(0.97573206,0,0,0.97573206,-65.720901,-37.280281)"
       style="opacity:0.296765">
      <rect
         style="fill:none;fill-opacity:1;stroke:#000000;stroke-width:0.1;stroke-linecap:round;stroke-linejoin:round;stroke-miterlimit:4;stroke-dasharray:none;stroke-opacity:0.02"
         id="rect1634"
         width="29.810888"
         height="29.810888"
         x="69.839508"
         y="40.709618"
         rx="6.6098609"
         ry="6.6098609" />
      <rect
         ry="6.6098609"
         rx="6.6098609"
         y="40.709618"
         x="69.839508"
         height="29.810888"
         width="29.810888"
         id="rect1638"
         style="fill:none;fill-opacity:1;stroke:#000000;stroke-width:0.2;stroke-linecap:round;stroke-linejoin:round;stroke-miterlimit:4;stroke-dasharray:none;stroke-opacity:0.02" />
      <rect
         style="fill:none;fill-opacity:1;stroke:#000000;stroke-width:0.3;stroke-linecap:round;stroke-linejoin:round;stroke-miterlimit:4;stroke-dasharray:none;stroke-opacity:0.02"
         id="rect1640"
         width="29.810888"
         height="29.810888"
         x="69.839508"
         y="40.709618"
         rx="6.6098609"
         ry="6.6098609" />
      <rect
         ry="6.6098609"
         rx="6.6098609"
         y="40.709618"
         x="69.839508"
         height="29.810888"
         width="29.810888"
         id="rect1642"
         style="fill:none;fill-opacity:1;stroke:#000000;stroke-width:0.4;stroke-linecap:round;stroke-linejoin:round;stroke-miterlimit:4;stroke-dasharray:none;stroke-opacity:0.02" />
      <rect
         style="fill:none;fill-opacity:1;stroke:#000000;stroke-width:0.5;stroke-linecap:round;stroke-linejoin:round;stroke-miterlimit:4;stroke-dasharray:none;stroke-opacity:0.02"
         id="rect1644"
         width="29.810888"
         height="29.810888"
         x="69.839508"
         y="40.709618"
         rx="6.6098609"
         ry="6.6098609" />
      <rect
         ry="6.6098609"
         rx="6.6098609"
         y="40.709618"
         x="69.839508"
         height="29.810888"
         width="29.810888"
         id="rect1646"
         style="fill:none;fill-opacity:1;stroke:#000000;stroke-width:0.6;stroke-linecap:round;stroke-linejoin:round;stroke-miterlimit:4;stroke-dasharray:none;stroke-opacity:0.02" />
      <rect
         style="fill:none;fill-opacity:1;stroke:#000000;stroke-width:0.7;stroke-linecap:round;stroke-linejoin:round;stroke-miterlimit:4;stroke-dasharray:none;stroke-opacity:0.02"
         id="rect1648"
         width="29.810888"
         height="29.810888"
         x="69.839508"
         y="40.709618"
         rx="6.6098609"
         ry="6.6098609" />
      <rect
         ry="6.6098609"
         rx="6.6098609"
         y="40.709618"
         x="69.839508"
         height="29.810888"
         width="29.810888"
         id="rect1650"
         style="fill:none;fill-opacity:1;stroke:#000000;stroke-width:0.8;stroke-linecap:round;stroke-linejoin:round;stroke-miterlimit:4;stroke-dasharray:none;stroke-opacity:0.02" />
      <rect
         style="fill:none;fill-opacity:1;stroke:#000000;stroke-width:1;stroke-linecap:round;stroke-linejoin:round;stroke-miterlimit:4;stroke-dasharray:none;stroke-opacity:0.02"
         id="rect1652"
         width="29.810888"
         height="29.810888"
         x="69.839508"
         y="40.709618"
         rx="6.6098609"
         ry="6.6098609" />
      <rect
         ry="6.6098609"
         rx="6.6098609"
         y="40.709618"
         x="69.839508"
         height="29.810888"
         width="29.810888"
         id="rect1654"
         style="fill:none;fill-opacity:1;stroke:#000000;stroke-width:1.2;stroke-linecap:round;stroke-linejoin:round;stroke-miterlimit:4;stroke-dasharray:none;stroke-opacity:0.02" />
      <rect
         style="fill:none;fill-opacity:1;stroke:#000000;stroke-width:1.4;stroke-linecap:round;stroke-linejoin:round;stroke-miterlimit:4;stroke-dasharray:none;stroke-opacity:0.02"
         id="rect1656"
         width="29.810888"
         height="29.810888"
         x="69.839508"
         y="40.709618"
         rx="6.6098609"
         ry="6.6098609" />
      <rect
         ry="6.6098609"
         rx="6.6098609"
         y="40.709618"
         x="69.839508"
         height="29.810888"
         width="29.810888"
         id="rect1658"
         style="fill:none;fill-opacity:1;stroke:#000000;stroke-width:1.6;stroke-linecap:round;stroke-linejoin:round;stroke-miterlimit:4;stroke-dasharray:none;stroke-opacity:0.02" />
      <rect
         style="fill:none;fill-opacity:1;stroke:#000000;stroke-width:1.8;stroke-linecap:round;stroke-linejoin:round;stroke-miterlimit:4;stroke-dasharray:none;stroke-opacity:0.02"
         id="rect1660"
         width="29.810888"
         height="29.810888"
         x="69.839508"
         y="40.709618"
         rx="6.6098609"
         ry="6.6098609" />
      <rect
         ry="6.6098609"
         rx="6.6098609"
         y="40.709618"
         x="69.839508"
         height="29.810888"
         width="29.810888"
         id="rect1662"
         style="fill:none;fill-opacity:1;stroke:#000000;stroke-width:2;stroke-linecap:round;stroke-linejoin:round;stroke-miterlimit:4;stroke-dasharray:none;stroke-opacity:0.02" />
      <rect
         style="fill:none;fill-opacity:1;stroke:#000000;stroke-width:2.2;stroke-linecap:round;stroke-linejoin:round;stroke-miterlimit:4;stroke-dasharray:none;stroke-opacity:0.02"
         id="rect1664"
         width="29.810888"
         height="29.810888"
         x="69.839508"
         y="40.709618"
         rx="6.6098609"
         ry="6.6098609" />
      <rect
         ry="6.6098609"
         rx="6.6098609"
         y="40.709618"
         x="69.839508"
         height="29.810888"
         width="29.810888"
         id="rect1666"
         style="fill:none;fill-opacity:1;stroke:#000000;stroke-width:2.6;stroke-linecap:round;stroke-linejoin:round;stroke-miterlimit:4;stroke-dasharray:none;stroke-opacity:0.02" />
      <rect
         style="fill:none;fill-opacity:1;stroke:#000000;stroke-width:3;stroke-linecap:round;stroke-linejoin:round;stroke-miterlimit:4;stroke-dasharray:none;stroke-opacity:0.02"
         id="rect1668"
         width="29.810888"
         height="29.810888"
         x="69.839508"
         y="40.709618"
         rx="6.6098609"
         ry="6.6098609" />
      <rect
         ry="6.6098609"
         rx="6.6098609"
         y="40.709618"
         x="69.839508"
         height="29.810888"
         width="29.810888"
         id="rect1670"
         style="fill:none;fill-opacity:1;stroke:#000000;stroke-width:3.4;stroke-linecap:round;stroke-linejoin:round;stroke-miterlimit:4;stroke-dasharray:none;stroke-opacity:0.02" />
      <rect
         style="fill:none;fill-opacity:1;stroke:#000000;stroke-width:3.8;stroke-linecap:round;stroke-linejoin:round;stroke-miterlimit:4;stroke-dasharray:none;stroke-opacity:0.02"
         id="rect1672"
         width="29.810888"
         height="29.810888"
         x="69.839508"
         y="40.709618"
         rx="6.6098609"
         ry="6.6098609" />
      <rect
         ry="6.6098609"
         rx="6.6098609"
         y="40.709618"
         x="69.839508"
         height="29.810888"
         width="29.810888"
         id="rect1674"
         style="fill:none;fill-opacity:1;stroke:#000000;stroke-width:4.2;stroke-linecap:round;stroke-linejoin:round;stroke-miterlimit:4;stroke-dasharray:none;stroke-opacity:0.02" />
      <rect
         style="fill:none;fill-opacity:1;stroke:#000000;stroke-width:4.6;stroke-linecap:round;stroke-linejoin:round;stroke-miterlimit:4;stroke-dasharray:none;stroke-opacity:0.02"
         id="rect1676"
         width="29.810888"
         height="29.810888"
         x="69.839508"
         y="40.709618"
         rx="6.6098609"
         ry="6.6098609" />
      <rect
         ry="6.6098609"
         rx="6.6098609"
         y="40.709618"
         x="69.839508"
         height="29.810888"
         width="29.810888"
         id="rect1678"
         style="fill:none;fill-opacity:1;stroke:#000000;stroke-width:5;stroke-linecap:round;stroke-linejoin:round;stroke-miterlimit:4;stroke-dasharray:none;stroke-opacity:0.02" />
    </g>
    <rect
       style="fill:url(#linearGradient1632);fill-opacity:1;stroke-width:2.68769;stroke-linecap:round;stroke-linejoin:round"
       id="rect849"
       width="29.08744"
       height="29.08744"
       x="2.4237518"
       y="2.4414005"
       rx="6.4494534"
       ry="6.4494534" />
    <path
       d="m 36.021,16 a 3.889,6.07 78.451 0 0 -2.342,0.314 3.889,6.07 78.451 0 0 -4.531,5.245 3.889,6.07 78.451 0 0 7.172,2.125 3.889,6.07 78.451 0 0 4.531,-5.245 A 3.889,6.07 78.451 0 0 36.021,16 Z m -19.758,1.008 a 6.681,5.231 45 0 0 -3.139,1.428 6.681,5.231 45 0 0 1.377,8.457 6.681,5.231 45 0 0 8.373,0.671 6.681,5.231 45 0 0 -1.377,-8.457 6.681,5.231 45 0 0 -5.234,-2.1 z M 35.499,28 a 14.5,11 0 0 0 -14.5,11 14.5,11 0 0 0 14.5,11 14.5,11 0 0 0 14.5,-11 14.5,11 0 0 0 -14.5,-11 z"
       filter="url(#b)"
       opacity="0.2"
       id="path16"
       transform="matrix(0.50067122,0,0,0.50067122,1.1006559,1.8829502)" />
    <path
       d="m 19.135333,9.3930187 a 1.9471104,3.0390743 78.451 0 0 -1.172571,0.1572123 1.9471104,3.0390743 78.451 0 0 -2.268541,2.626021 1.9471104,3.0390743 78.451 0 0 3.590814,1.063925 1.9471104,3.0390743 78.451 0 0 2.268541,-2.626019 1.9471104,3.0390743 78.451 0 0 -2.418243,-1.2211374 z M 9.2430718,9.8976953 a 3.3449844,2.6190112 45 0 0 -1.571607,0.7149587 3.3449844,2.6190112 45 0 0 0.689425,4.234175 3.3449844,2.6190112 45 0 0 4.1921192,0.335952 3.3449844,2.6190112 45 0 0 -0.689424,-4.234178 3.3449844,2.6190112 45 0 0 -2.6205132,-1.0514092 z m 9.6309122,5.5033777 a 7.2597328,5.5073834 0 0 0 -7.259732,5.507384 7.2597328,5.5073834 0 0 0 7.259732,5.507382 7.2597328,5.5073834 0 0 0 7.259732,-5.507382 7.2597328,5.5073834 0 0 0 -7.259732,-5.507384 z"
       id="path18"
       style="stroke-width:0.500671;fill:#f3fafa;fill-opacity:1" />
    <path
       fill="#ffffff"
       d="m 19.135333,9.3930187 a 1.9471104,3.0390743 78.451 0 0 -1.172571,0.1572123 1.9471104,3.0390743 78.451 0 0 -2.300084,2.445779 1.9471104,3.0390743 78.451 0 1 2.300084,-1.945108 1.9471104,3.0390743 78.451 0 1 1.172571,-0.1572127 1.9471104,3.0390743 78.451 0 1 2.418243,1.2216387 1.9471104,3.0390743 78.451 0 1 0.03155,0.17975 1.9471104,3.0390743 78.451 0 0 -0.03155,-0.680912 1.9471104,3.0390743 78.451 0 0 -2.418243,-1.2211379 z M 9.2430718,9.8976953 a 3.3449844,2.6190112 45 0 0 -1.571607,0.7149587 3.3449844,2.6190112 45 0 0 -0.5357179,1.85699 3.3449844,2.6190112 45 0 1 0.5357179,-1.356819 3.3449844,2.6190112 45 0 1 1.571607,-0.714459 3.3449844,2.6190112 45 0 1 2.6205132,1.051409 3.3449844,2.6190112 45 0 1 1.225643,2.376686 3.3449844,2.6190112 45 0 0 -1.225643,-2.877858 3.3449844,2.6190112 45 0 0 -2.6205132,-1.0514092 z m 9.6309122,5.5033777 a 7.2597328,5.5073834 0 0 0 -7.259732,5.507384 7.2597328,5.5073834 0 0 0 0.02503,0.250335 7.2597328,5.5073834 0 0 1 7.2352,-5.257048 7.2597328,5.5073834 0 0 1 7.244212,5.16142 7.2597328,5.5073834 0 0 0 0.01552,-0.154714 7.2597328,5.5073834 0 0 0 -7.259732,-5.507385 z"
       opacity="0.2"
       id="path20"
       style="stroke-width:0.500671" />
  </g>
</svg>
