<?xml version="1.0" encoding="UTF-8" standalone="no"?>
<svg
   xmlns:dc="http://purl.org/dc/elements/1.1/"
   xmlns:cc="http://creativecommons.org/ns#"
   xmlns:rdf="http://www.w3.org/1999/02/22-rdf-syntax-ns#"
   xmlns:svg="http://www.w3.org/2000/svg"
   xmlns="http://www.w3.org/2000/svg"
   xmlns:xlink="http://www.w3.org/1999/xlink"
   xmlns:sodipodi="http://sodipodi.sourceforge.net/DTD/sodipodi-0.dtd"
   xmlns:inkscape="http://www.inkscape.org/namespaces/inkscape"
   inkscape:version="0.92.5 (2060ec1f9f, 2020-04-08)"
   sodipodi:docname="lollypop.svg"
   id="svg6"
   version="1.1"
   viewBox="0 0 33.866666 33.866667"
   height="128"
   width="128">
  <metadata
     id="metadata156">
    <rdf:RDF>
      <cc:Work
         rdf:about="">
        <dc:format>image/svg+xml</dc:format>
        <dc:type
           rdf:resource="http://purl.org/dc/dcmitype/StillImage" />
        <dc:title></dc:title>
      </cc:Work>
    </rdf:RDF>
  </metadata>
  <defs
     id="defs2">
    <linearGradient
       inkscape:collect="always"
       id="linearGradient1165">
      <stop
         style="stop-color:#f73bca;stop-opacity:1"
         offset="0"
         id="stop1161" />
      <stop
         style="stop-color:#f50e80;stop-opacity:0;"
         offset="1"
         id="stop1163" />
    </linearGradient>
    <linearGradient
       inkscape:collect="always"
       id="linearGradient1153">
      <stop
         style="stop-color:#000000;stop-opacity:1;"
         offset="0"
         id="stop1149" />
      <stop
         id="stop1157"
         offset="0.78861296"
         style="stop-color:#000000;stop-opacity:0.8745098;" />
      <stop
         style="stop-color:#000000;stop-opacity:0;"
         offset="1"
         id="stop1151" />
    </linearGradient>
    <linearGradient
       inkscape:collect="always"
       id="linearGradient1137">
      <stop
         style="stop-color:#dfdfdf;stop-opacity:0"
         offset="0"
         id="stop1133" />
      <stop
         id="stop1143"
         offset="0.71751672"
         style="stop-color:#dfdfdf;stop-opacity:0;" />
      <stop
         style="stop-color:#9e9e9e;stop-opacity:0.47272727"
         offset="1"
         id="stop1135" />
    </linearGradient>
    <linearGradient
       inkscape:collect="always"
       id="linearGradient1121">
      <stop
         style="stop-color:#ea3f78;stop-opacity:1"
         offset="0"
         id="stop1117" />
      <stop
         id="stop1127"
         offset="0.49834856"
         style="stop-color:#d11754;stop-opacity:0.49803922" />
      <stop
         style="stop-color:#e82867;stop-opacity:0.78823531"
         offset="0.4983485"
         id="stop1129" />
      <stop
         style="stop-color:#eb477d;stop-opacity:0.90454543"
         offset="1"
         id="stop1119" />
    </linearGradient>
    <linearGradient
       inkscape:collect="always"
       id="linearGradient1108">
      <stop
         style="stop-color:#fafafa;stop-opacity:1;"
         offset="0"
         id="stop1104" />
      <stop
         id="stop1112"
         offset="0.7313568"
         style="stop-color:#fafafa;stop-opacity:0.65882353;" />
      <stop
         style="stop-color:#fafafa;stop-opacity:0.40000001"
         offset="1"
         id="stop1106" />
    </linearGradient>
    <linearGradient
       inkscape:collect="always"
       id="linearGradient1098">
      <stop
         style="stop-color:#fafafa;stop-opacity:1"
         offset="0"
         id="stop1094" />
      <stop
         style="stop-color:#e7e7e7;stop-opacity:0.89999998"
         offset="1"
         id="stop1096" />
    </linearGradient>
    <linearGradient
       inkscape:collect="always"
       id="linearGradient1068">
      <stop
         style="stop-color:#ffffff;stop-opacity:1;"
         offset="0"
         id="stop1064" />
      <stop
         id="stop1072"
         offset="0.91117781"
         style="stop-color:#ffffff;stop-opacity:0.38039216;" />
      <stop
         style="stop-color:#ffffff;stop-opacity:0;"
         offset="1"
         id="stop1066" />
    </linearGradient>
    <linearGradient
       inkscape:collect="always"
       id="linearGradient1052">
      <stop
         style="stop-color:#d9619c;stop-opacity:1"
         offset="0"
         id="stop1048" />
      <stop
         id="stop1058"
         offset="0.85357904"
         style="stop-color:#d9619c;stop-opacity:1" />
      <stop
         style="stop-color:#c9156e;stop-opacity:1"
         offset="1"
         id="stop1050" />
    </linearGradient>
    <linearGradient
       inkscape:collect="always"
       id="linearGradient1042">
      <stop
         style="stop-color:#ec4e9c;stop-opacity:1"
         offset="0"
         id="stop1038" />
      <stop
         style="stop-color:#f283a8;stop-opacity:0.83181816"
         offset="1"
         id="stop1040" />
    </linearGradient>
    <linearGradient
       id="linearGradient1630"
       inkscape:collect="always">
      <stop
         id="stop1626"
         offset="0"
         style="stop-color:#fef0f0;stop-opacity:1" />
      <stop
         id="stop1628"
         offset="1"
         style="stop-color:#fadaed;stop-opacity:1" />
    </linearGradient>
    <linearGradient
       id="lgrad"
       x1="32"
       y1="32"
       x2="32"
       y2="992"
       gradientUnits="userSpaceOnUse"
       gradientTransform="translate(0,-896)">
      <stop
         offset="0%"
         stop-color="#f8f8f8"
         id="stop2" />
      <stop
         offset="100%"
         stop-color="#ccc"
         id="stop4" />
    </linearGradient>
    <radialGradient
       id="rgrad"
       x1="0%"
       y1="0%"
       x2="0%"
       y2="100%"
       fx="512"
       fy="494.39999"
       cx="512"
       cy="512"
       r="440"
       gradientUnits="userSpaceOnUse"
       gradientTransform="translate(0,-896)">
      <stop
         offset="0%"
         stop-color="#00f0ff"
         id="stop7" />
      <stop
         offset="100%"
         stop-color="#0070e0"
         id="stop9" />
    </radialGradient>
    <radialGradient
       gradientTransform="matrix(0.03099337,0,0,0.03032562,85.198869,42.985295)"
       gradientUnits="userSpaceOnUse"
       r="440"
       cy="306.1813"
       cx="523.57568"
       fy="306.1813"
       fx="523.57568"
       y2="100%"
       x2="0%"
       y1="0%"
       x1="0%"
       id="rgrad-3">
      <stop
         style="stop-color:#03d7e4;stop-opacity:1"
         id="stop7-6"
         stop-color="#00f0ff"
         offset="0%" />
      <stop
         id="stop9-7"
         stop-color="#0070e0"
         offset="100%" />
    </radialGradient>
    <linearGradient
       gradientTransform="matrix(0.97573206,0,0,0.97573206,-111.76604,-37.203091)"
       gradientUnits="userSpaceOnUse"
       y2="70.679932"
       x2="132.21078"
       y1="42.151531"
       x1="132.21078"
       id="linearGradient1632"
       xlink:href="#linearGradient1630"
       inkscape:collect="always" />
    <filter
       id="b"
       color-interpolation-filters="sRGB"
       height="1.024007"
       width="1.023993"
       x="-0.011996"
       y="-0.012004">
      <feGaussianBlur
         stdDeviation=".47521291"
         id="feGaussianBlur7" />
    </filter>
    <linearGradient
       id="k"
       gradientUnits="userSpaceOnUse"
       x1="-350.6571"
       x2="-376.36255"
       y1="-73.89106"
       y2="-319.05783">
      <stop
         offset="0"
         stop-color="#83a3d4"
         id="stop50" />
      <stop
         offset="1"
         stop-color="#6bb5e3"
         id="stop52" />
    </linearGradient>
    <linearGradient
       id="i"
       gradientUnits="userSpaceOnUse"
       x1="-206.76952"
       x2="10.51211"
       y1="-12.925184"
       y2="-156.88734">
      <stop
         offset="0"
         stop-color="#70c2bd"
         id="stop40" />
      <stop
         offset="1"
         stop-color="#67c381"
         id="stop42" />
    </linearGradient>
    <linearGradient
       id="e"
       gradientUnits="userSpaceOnUse"
       x1="134.56509"
       x2="148.51404"
       y1="117.30138"
       y2="-149.18999">
      <stop
         offset="0"
         stop-color="#faaa32"
         id="stop20" />
      <stop
         offset="1"
         stop-color="#fdc22b"
         id="stop22" />
    </linearGradient>
    <linearGradient
       id="c"
       gradientUnits="userSpaceOnUse"
       x1="-146.054"
       x2="123.35784"
       y1="144.89951"
       y2="144.89951">
      <stop
         offset="0"
         stop-color="#a0cf63"
         id="stop10" />
      <stop
         offset="1"
         stop-color="#c4da45"
         id="stop12" />
    </linearGradient>
    <linearGradient
       id="m"
       gradientUnits="userSpaceOnUse"
       x1="206.7137"
       x2="28.495264"
       y1="-12.740612"
       y2="-150.01163">
      <stop
         offset="0"
         stop-color="#b28cc0"
         id="stop60" />
      <stop
         offset="1"
         stop-color="#9a8ec4"
         id="stop62" />
    </linearGradient>
    <linearGradient
       id="q"
       gradientUnits="userSpaceOnUse"
       x1="189.94229"
       x2="-19.617525"
       y1="147.05296"
       y2="76.406288">
      <stop
         offset="0"
         stop-color="#f48155"
         id="stop80" />
      <stop
         offset="1"
         stop-color="#f16168"
         id="stop82" />
    </linearGradient>
    <linearGradient
       id="l"
       gradientUnits="userSpaceOnUse"
       x1="116.504"
       x2="21.156284"
       y1="308.30261"
       y2="34.179653">
      <stop
         offset="0"
         stop-color="#735194"
         id="stop55" />
      <stop
         offset="1"
         stop-color="#525da3"
         id="stop57" />
    </linearGradient>
    <linearGradient
       id="j"
       gradientUnits="userSpaceOnUse"
       x1="30.131145"
       x2="123.3283"
       y1="111.50156"
       y2="-107.16671">
      <stop
         offset="0"
         stop-color="#416db9"
         id="stop45" />
      <stop
         offset="1"
         stop-color="#337e8d"
         id="stop47" />
    </linearGradient>
    <linearGradient
       id="h"
       gradientUnits="userSpaceOnUse"
       x1="-103.67039"
       x2="205.55051"
       y1="133.12218"
       y2="0.071801998">
      <stop
         offset="0"
         stop-color="#2e9274"
         id="stop35" />
      <stop
         offset="1"
         stop-color="#469d3c"
         id="stop37" />
    </linearGradient>
    <linearGradient
       id="f"
       gradientUnits="userSpaceOnUse"
       x1="26.97802"
       x2="146.80986"
       y1="120.22743"
       y2="-100.48971">
      <stop
         offset="0"
         stop-color="#ec4001"
         id="stop25" />
      <stop
         offset="1"
         stop-color="#fb6f01"
         id="stop27" />
    </linearGradient>
    <linearGradient
       id="d"
       gradientUnits="userSpaceOnUse"
       x1="-14.298616"
       x2="309.397"
       y1="73.499695"
       y2="73.499695">
      <stop
         offset="0"
         stop-color="#58a920"
         id="stop15" />
      <stop
         offset="1"
         stop-color="#98b811"
         id="stop17" />
    </linearGradient>
    <linearGradient
       id="o"
       gradientUnits="userSpaceOnUse"
       x1="-123.11901"
       x2="145.987"
       y1="144.897"
       y2="144.897">
      <stop
         offset="0"
         stop-color="#d287af"
         id="stop70" />
      <stop
         offset="1"
         stop-color="#e07993"
         id="stop72" />
    </linearGradient>
    <linearGradient
       id="p"
       gradientUnits="userSpaceOnUse"
       x1="-205.78"
       x2="117.81888"
       y1="-71.695564"
       y2="-71.695564">
      <stop
         offset="0"
         stop-color="#bd090f"
         id="stop75" />
      <stop
         offset="1"
         stop-color="#e11f07"
         id="stop77" />
    </linearGradient>
    <linearGradient
       id="n"
       gradientUnits="userSpaceOnUse"
       x1="0.176406"
       x2="-308.72031"
       y1="-14.582834"
       y2="-143.7106">
      <stop
         offset="0"
         stop-color="#c23857"
         id="stop65" />
      <stop
         offset="1"
         stop-color="#914475"
         id="stop67" />
    </linearGradient>
    <linearGradient
       id="g"
       gradientUnits="userSpaceOnUse"
       x1="41.409683"
       x2="117.31723"
       y1="108.52529"
       y2="319.1076">
      <stop
         offset="0"
         stop-color="#e69e08"
         id="stop30" />
      <stop
         offset="1"
         stop-color="#cbc507"
         id="stop32" />
    </linearGradient>
    <linearGradient
       id="a"
       x1="24.087"
       x2="24"
       y1="47.457001"
       y2="1"
       gradientTransform="matrix(0,-0.34509604,0.34509604,0,-32.126938,36.630345)"
       gradientUnits="userSpaceOnUse">
      <stop
         stop-color="#e80b47"
         offset="0"
         id="stop2-3" />
      <stop
         stop-color="#ff4a4a"
         offset="1"
         id="stop4-6" />
    </linearGradient>
    <clipPath
       clipPathUnits="userSpaceOnUse"
       id="clipPath1023">
      <path
         id="path1025"
         d="m 35.793347,36.38716 c 0,2.673554 -2.25749,4.846837 -5.032759,4.846837 -3.078388,0 -4.775884,-2.702292 -5.050493,-5.207669 -0.524485,-4.780377 2.069307,-7.383201 4.337818,-8.72211 0.920666,-0.542253 1.932087,-0.964944 2.987679,-1.274786 0,0 2.445652,7.495922 2.635831,8.660142 0.210293,1.281429 0.119508,1.697495 0.119508,1.697495 M 47.808336,21.353023 c -2.704528,-1.693073 -6.019801,-2.622584 -9.434778,-2.78852 l -0.763536,-2.693314 0.02419,0.02683 c -0.03137,-0.0819 -0.0553,-0.159345 -0.0819,-0.236825 L 37.326599,14.86447 c -0.520063,-2.303966 0.42494,-3.401726 0.911819,-3.795564 0.08413,-0.05987 0.168189,-0.121739 0.258973,-0.181456 2.235284,-1.4274849 5.397853,0.860916 5.575011,0.995932 1.407575,1.307966 3.981479,1.631101 5.371359,0.292158 1.403149,-1.350025 1.071174,-3.8797569 -0.329764,-5.2319159 -2.184378,-2.104711 -8.8968,-5.4798071 -14.600243,-1.814788 -5.130207,3.29327 -5.234163,7.9274739 -4.388788,10.6077629 l 1.024694,3.622889 c -1.717407,0.47582 -3.35726,1.155266 -4.862329,2.042744 -5.616998,3.313032 -8.432235,8.919031 -7.730555,15.346152 0.728119,6.606309 5.853884,11.406668 12.201072,11.406668 6.734737,0 12.218812,-5.280642 12.218812,-11.769514 -0.09075,-1.54701 -0.07306,-1.531517 -0.285505,-2.914704 -0.212448,-1.350024 -2.283988,-7.699574 -2.283988,-7.699574 1.27256,0.283276 2.461145,0.745845 3.487945,1.385431 11.585847,7.252521 6.763479,18.796378 6.548825,19.298666 -3.18909,7.37647 -10.151732,11.780742 -19.090745,12.081619 C 25.526029,58.736157 19.942041,56.6381 15.630942,52.630103 11.085206,48.402982 8.4781222,42.482862 8.4781222,36.387828 c 0,-9.180162 5.9953358,-17.51944 14.9188568,-20.744005 1.858923,-0.670586 3.357139,-2.582846 2.33034,-4.804856 C 24.919524,9.0927871 22.730656,8.4930061 20.869477,9.1658111 9.1574472,13.39742 1.2874481,24.339292 1.2874481,36.388581 c 0,7.962955 3.4082361,15.700245 9.3483459,21.224293 5.479804,5.092475 12.530914,7.863254 19.962611,7.861232 0.336378,0 0.677227,-0.0045 1.013624,-0.01739 11.69879,-0.396117 21.219798,-6.502314 25.460164,-16.304217 2.651319,-5.953349 4.127648,-19.424852 -9.253138,-27.799832"
         style="fill:#f9f9f9;stroke-width:2.24536204"
         inkscape:connector-curvature="0" />
    </clipPath>
    <clipPath
       clipPathUnits="userSpaceOnUse"
       id="clipPath948">
      <path
         sodipodi:nodetypes="ccccccccc"
         inkscape:connector-curvature="0"
         id="path950"
         d="m 10.312501,4.9505311 c -2.2220996,0 -3.9135497,1.789837 -4.0117197,4.009769 L 5.4160213,28.98569 c -0.0869,1.96609 0.32848,2.54883 2.1679601,2.54883 H 61.984377 c 1.839481,0 2.254901,-0.58274 2.167971,-2.54883 L 63.26758,8.9603001 c -0.09815,-2.219932 -1.789618,-4.009769 -4.011719,-4.009769 z"
         style="opacity:1;fill:#ffffff;fill-opacity:1;fill-rule:evenodd;stroke:none;stroke-width:0.37795275;stroke-linecap:square;stroke-miterlimit:4;stroke-dasharray:none;stroke-dashoffset:0;stroke-opacity:1" />
    </clipPath>
    <clipPath
       clipPathUnits="userSpaceOnUse"
       id="clipPath1183">
      <path
         inkscape:connector-curvature="0"
         id="path1185"
         d="m 9.4878251,1.673004 c -2.262285,0 -4.100208,0.846353 -5.511719,2.5390601 C 2.564593,5.9047751 1.858918,8.1118031 1.858918,10.833158 v 0.09766 h 4.0605471 v -0.117203 c 0,-1.3020849 0.314948,-2.3567739 0.94336,-3.1640659 0.638079,-0.820309 1.463384,-1.230467 2.478515,-1.230467 0.9571199,0 1.7405339,0.364574 2.3496089,1.09375 0.618747,0.716145 0.927735,1.640625 0.927735,2.7734359 0,0.92448 -0.245216,1.868489 -0.738281,2.832031 -0.493062,0.963541 -1.475792,2.408855 -2.9453129,4.335938 L 2.105012,26.458145 v 4.121091 H 17.202667 V 25.676905 H 8.0366531 v -0.351571 l 4.0019529,-5.136718 c 1.807897,-2.291668 3.06973,-4.19271 3.785157,-5.703126 0.715419,-1.523437 1.074217,-3.053386 1.074217,-4.5898429 0,-2.421876 -0.69171,-4.394533 -2.074219,-5.917966 C 13.450922,2.441228 11.672767,1.673001 9.4878251,1.673001 Z m 40.1542979,0 c -2.223617,0 -4.049624,0.722653 -5.48047,2.167967 -1.421182,1.4322901 -2.132814,3.2747381 -2.132814,5.5273441 0,1.4973959 0.342879,2.8059929 1.029297,3.9257799 0.686423,1.119795 1.601379,1.855468 2.742191,2.207033 v 0.351571 c -1.401845,0.416663 -2.524131,1.282549 -3.365238,2.597654 -0.831439,1.302082 -1.248045,2.838539 -1.248045,4.609376 0,2.447913 0.779406,4.43359 2.335937,5.957031 1.55653,1.523437 3.591817,2.285155 6.105467,2.285155 2.513651,0 4.552944,-0.761718 6.119142,-2.285155 1.566199,-1.536458 2.349608,-3.541667 2.349608,-6.015625 0,-1.796874 -0.424615,-3.346352 -1.27539,-4.648437 -0.841104,-1.315106 -1.959383,-2.148438 -3.351561,-2.499999 v -0.351571 c 1.150481,-0.364574 2.065437,-1.100262 2.742187,-2.207033 0.686419,-1.119787 1.029298,-2.428384 1.029298,-3.9257799 0,-2.252606 -0.715638,-4.095054 -2.146484,-5.5273441 -1.421182,-1.445314 -3.23918,-2.167967 -5.453125,-2.167967 z m 20.318354,0 c -2.590991,0 -4.626278,1.302085 -6.105464,3.9062481 -1.469518,2.591145 -2.205078,6.2109389 -2.205078,10.8593759 0,4.661458 0.73556,8.307288 2.205078,10.937499 1.479186,2.617187 3.514473,3.92578 6.105464,3.92578 2.590999,0 4.620329,-1.308593 6.089854,-3.92578 1.47918,-2.630211 2.21875,-6.269533 2.21875,-10.91797 0,-4.648437 -0.73957,-8.2747349 -2.21875,-10.8789049 C 74.571138,2.975089 72.541808,1.673004 69.960477,1.673004 Z M 28.817904,2.395657 c -3.886492,7.877605 -6.647381,13.89323 -8.281251,18.046878 v 5.214841 h 10.238282 v 4.921874 h 4.177731 v -4.921874 h 2.740237 V 20.755034 H 34.952666 V 2.395657 Z m 20.810544,3.6523471 c 0.966792,0 1.754207,0.364573 2.363282,1.09375 0.618747,0.716145 0.927734,1.647133 0.927734,2.792969 0,1.1328069 -0.308976,2.0637949 -0.927734,2.7929679 -0.609075,0.716141 -1.39649,1.074218 -2.363282,1.074218 -0.966788,0 -1.756157,-0.358073 -2.365232,-1.074218 -0.609078,-0.729173 -0.912109,-1.660161 -0.912109,-2.7929679 0,-1.145836 0.303042,-2.076824 0.912109,-2.792969 0.609075,-0.729169 1.398444,-1.09375 2.365232,-1.09375 z m 20.332029,0.449216 c 1.218161,0 2.16505,0.852865 2.841801,2.558596 0.686418,1.6927069 1.029301,4.1536479 1.029301,7.3828119 0,3.255209 -0.342879,5.748695 -1.029301,7.480467 -0.676751,1.718748 -1.62364,2.578126 -2.841801,2.578126 -1.218149,0 -2.170998,-0.865886 -2.857421,-2.597658 -0.676747,-1.731768 -1.015623,-4.218747 -1.015623,-7.460935 0,-3.216144 0.342879,-5.677081 1.029294,-7.3828119 0.686419,-1.705731 1.635269,-2.558596 2.84375,-2.558596 z m -39.316404,0.48828 h 0.232441 V 20.930816 H 24.46636 V 20.618324 C 26.351596,16.021969 28.410807,11.4777 30.644092,6.9855121 Z M 49.628448,18.157376 c 1.150481,0 2.087411,0.403646 2.812502,1.210938 0.725091,0.807292 1.087891,1.855472 1.087891,3.144533 0,1.27604 -0.362797,2.317708 -1.087891,3.125 -0.725091,0.807292 -1.662021,1.210938 -2.812502,1.210938 -1.150477,0 -2.08936,-0.403646 -2.814451,-1.210938 -0.715423,-0.807292 -1.072264,-1.84896 -1.072264,-3.125 0,-1.289061 0.356825,-2.337241 1.072264,-3.144533 0.725091,-0.807292 1.663974,-1.210938 2.814451,-1.210938 z"
         style="font-style:normal;font-variant:normal;font-weight:bold;font-stretch:normal;font-size:9.11945534px;line-height:1.25;font-family:'SF UI Text';-inkscape-font-specification:'SF UI Text Bold';letter-spacing:0px;word-spacing:0px;fill:#ffffff;fill-opacity:1;stroke:none;stroke-width:0.86168075" />
    </clipPath>
    <linearGradient
       inkscape:collect="always"
       xlink:href="#linearGradient1042"
       id="linearGradient1044"
       x1="99.60537"
       y1="105.4995"
       x2="37.008823"
       y2="13.575616"
       gradientUnits="userSpaceOnUse" />
    <radialGradient
       inkscape:collect="always"
       xlink:href="#linearGradient1052"
       id="radialGradient1056"
       gradientUnits="userSpaceOnUse"
       cx="16.950266"
       cy="17.062307"
       fx="16.950266"
       fy="17.062307"
       r="10.054166" />
    <radialGradient
       inkscape:collect="always"
       xlink:href="#linearGradient1068"
       id="radialGradient1070"
       cx="40.597401"
       cy="17.161528"
       fx="40.597401"
       fy="17.161528"
       r="10.616405"
       gradientUnits="userSpaceOnUse"
       gradientTransform="matrix(1.0286367,0,0,1.0286367,-24.809712,-0.59066988)" />
    <radialGradient
       inkscape:collect="always"
       xlink:href="#linearGradient1098"
       id="radialGradient1100"
       cx="14.120759"
       cy="12.575444"
       fx="14.120759"
       fy="12.575444"
       r="7.9044967"
       gradientUnits="userSpaceOnUse"
       gradientTransform="matrix(1.8520708,5.5498438e-8,-5.3016084e-8,1.7692307,-12.031886,-9.673419)" />
    <radialGradient
       inkscape:collect="always"
       xlink:href="#linearGradient1108"
       id="radialGradient1110"
       cx="17.511532"
       cy="21.271803"
       fx="17.511532"
       fy="21.271803"
       r="7.9044967"
       gradientUnits="userSpaceOnUse"
       gradientTransform="scale(3.7795276)" />
    <radialGradient
       inkscape:collect="always"
       xlink:href="#linearGradient1121"
       id="radialGradient1125"
       gradientUnits="userSpaceOnUse"
       gradientTransform="matrix(3.8797689,-0.91251957,0.40681099,1.7296425,-58.441432,1.9695256)"
       cx="17.511534"
       cy="19.695293"
       fx="17.511534"
       fy="19.695293"
       r="3.9467182" />
    <radialGradient
       inkscape:collect="always"
       xlink:href="#linearGradient1137"
       id="radialGradient1141"
       gradientUnits="userSpaceOnUse"
       cx="16.950266"
       cy="17.062307"
       fx="16.950266"
       fy="17.062307"
       r="7.9044967" />
    <radialGradient
       inkscape:collect="always"
       xlink:href="#linearGradient1153"
       id="radialGradient1155"
       cx="18.670057"
       cy="15.342516"
       fx="18.670057"
       fy="15.342516"
       r="9.6242886"
       gradientUnits="userSpaceOnUse"
       gradientTransform="translate(-1.7197907,1.7197909)" />
    <radialGradient
       inkscape:collect="always"
       xlink:href="#linearGradient1165"
       id="radialGradient1167"
       cx="31.891102"
       cy="17.463865"
       fx="31.891102"
       fy="17.463865"
       r="54.968753"
       gradientTransform="matrix(1,0,0,0.99998219,0,0.00114859)"
       gradientUnits="userSpaceOnUse" />
  </defs>
  <sodipodi:namedview
     inkscape:window-maximized="1"
     inkscape:window-y="30"
     inkscape:window-x="0"
     inkscape:window-height="1019"
     inkscape:window-width="1920"
     units="px"
     showgrid="false"
     inkscape:current-layer="layer1"
     inkscape:document-units="mm"
     inkscape:cy="36.007158"
     inkscape:cx="105.72711"
     inkscape:zoom="0.5"
     inkscape:pageshadow="2"
     inkscape:pageopacity="0.0"
     borderopacity="1.0"
     bordercolor="#666666"
     pagecolor="#ffffff"
     id="base" />
  <g
     id="layer1"
     inkscape:groupmode="layer"
     inkscape:label="Layer 1">
    <g
       style="opacity:0.2967651"
       transform="matrix(0.97573206,0,0,0.97573206,-65.748383,-37.203094)"
       id="g1702">
      <rect
         ry="6.6098609"
         rx="6.6098609"
         y="40.709618"
         x="69.839508"
         height="29.810888"
         width="29.810888"
         id="rect1634"
         style="fill:none;fill-opacity:1;stroke:#000000;stroke-width:0.1;stroke-linecap:round;stroke-linejoin:round;stroke-miterlimit:4;stroke-dasharray:none;stroke-opacity:0.02" />
      <rect
         style="fill:none;fill-opacity:1;stroke:#000000;stroke-width:0.2;stroke-linecap:round;stroke-linejoin:round;stroke-miterlimit:4;stroke-dasharray:none;stroke-opacity:0.02"
         id="rect1638"
         width="29.810888"
         height="29.810888"
         x="69.839508"
         y="40.709618"
         rx="6.6098609"
         ry="6.6098609" />
      <rect
         ry="6.6098609"
         rx="6.6098609"
         y="40.709618"
         x="69.839508"
         height="29.810888"
         width="29.810888"
         id="rect1640"
         style="fill:none;fill-opacity:1;stroke:#000000;stroke-width:0.3;stroke-linecap:round;stroke-linejoin:round;stroke-miterlimit:4;stroke-dasharray:none;stroke-opacity:0.02" />
      <rect
         style="fill:none;fill-opacity:1;stroke:#000000;stroke-width:0.4;stroke-linecap:round;stroke-linejoin:round;stroke-miterlimit:4;stroke-dasharray:none;stroke-opacity:0.02"
         id="rect1642"
         width="29.810888"
         height="29.810888"
         x="69.839508"
         y="40.709618"
         rx="6.6098609"
         ry="6.6098609" />
      <rect
         ry="6.6098609"
         rx="6.6098609"
         y="40.709618"
         x="69.839508"
         height="29.810888"
         width="29.810888"
         id="rect1644"
         style="fill:none;fill-opacity:1;stroke:#000000;stroke-width:0.5;stroke-linecap:round;stroke-linejoin:round;stroke-miterlimit:4;stroke-dasharray:none;stroke-opacity:0.02" />
      <rect
         style="fill:none;fill-opacity:1;stroke:#000000;stroke-width:0.6;stroke-linecap:round;stroke-linejoin:round;stroke-miterlimit:4;stroke-dasharray:none;stroke-opacity:0.02"
         id="rect1646"
         width="29.810888"
         height="29.810888"
         x="69.839508"
         y="40.709618"
         rx="6.6098609"
         ry="6.6098609" />
      <rect
         ry="6.6098609"
         rx="6.6098609"
         y="40.709618"
         x="69.839508"
         height="29.810888"
         width="29.810888"
         id="rect1648"
         style="fill:none;fill-opacity:1;stroke:#000000;stroke-width:0.7;stroke-linecap:round;stroke-linejoin:round;stroke-miterlimit:4;stroke-dasharray:none;stroke-opacity:0.02" />
      <rect
         style="fill:none;fill-opacity:1;stroke:#000000;stroke-width:0.8;stroke-linecap:round;stroke-linejoin:round;stroke-miterlimit:4;stroke-dasharray:none;stroke-opacity:0.02"
         id="rect1650"
         width="29.810888"
         height="29.810888"
         x="69.839508"
         y="40.709618"
         rx="6.6098609"
         ry="6.6098609" />
      <rect
         ry="6.6098609"
         rx="6.6098609"
         y="40.709618"
         x="69.839508"
         height="29.810888"
         width="29.810888"
         id="rect1652"
         style="fill:none;fill-opacity:1;stroke:#000000;stroke-width:1;stroke-linecap:round;stroke-linejoin:round;stroke-miterlimit:4;stroke-dasharray:none;stroke-opacity:0.02" />
      <rect
         style="fill:none;fill-opacity:1;stroke:#000000;stroke-width:1.2;stroke-linecap:round;stroke-linejoin:round;stroke-miterlimit:4;stroke-dasharray:none;stroke-opacity:0.02"
         id="rect1654"
         width="29.810888"
         height="29.810888"
         x="69.839508"
         y="40.709618"
         rx="6.6098609"
         ry="6.6098609" />
      <rect
         ry="6.6098609"
         rx="6.6098609"
         y="40.709618"
         x="69.839508"
         height="29.810888"
         width="29.810888"
         id="rect1656"
         style="fill:none;fill-opacity:1;stroke:#000000;stroke-width:1.4;stroke-linecap:round;stroke-linejoin:round;stroke-miterlimit:4;stroke-dasharray:none;stroke-opacity:0.02" />
      <rect
         style="fill:none;fill-opacity:1;stroke:#000000;stroke-width:1.6;stroke-linecap:round;stroke-linejoin:round;stroke-miterlimit:4;stroke-dasharray:none;stroke-opacity:0.02"
         id="rect1658"
         width="29.810888"
         height="29.810888"
         x="69.839508"
         y="40.709618"
         rx="6.6098609"
         ry="6.6098609" />
      <rect
         ry="6.6098609"
         rx="6.6098609"
         y="40.709618"
         x="69.839508"
         height="29.810888"
         width="29.810888"
         id="rect1660"
         style="fill:none;fill-opacity:1;stroke:#000000;stroke-width:1.8;stroke-linecap:round;stroke-linejoin:round;stroke-miterlimit:4;stroke-dasharray:none;stroke-opacity:0.02" />
      <rect
         style="fill:none;fill-opacity:1;stroke:#000000;stroke-width:2;stroke-linecap:round;stroke-linejoin:round;stroke-miterlimit:4;stroke-dasharray:none;stroke-opacity:0.02"
         id="rect1662"
         width="29.810888"
         height="29.810888"
         x="69.839508"
         y="40.709618"
         rx="6.6098609"
         ry="6.6098609" />
      <rect
         ry="6.6098609"
         rx="6.6098609"
         y="40.709618"
         x="69.839508"
         height="29.810888"
         width="29.810888"
         id="rect1664"
         style="fill:none;fill-opacity:1;stroke:#000000;stroke-width:2.2;stroke-linecap:round;stroke-linejoin:round;stroke-miterlimit:4;stroke-dasharray:none;stroke-opacity:0.02" />
      <rect
         style="fill:none;fill-opacity:1;stroke:#000000;stroke-width:2.6;stroke-linecap:round;stroke-linejoin:round;stroke-miterlimit:4;stroke-dasharray:none;stroke-opacity:0.02"
         id="rect1666"
         width="29.810888"
         height="29.810888"
         x="69.839508"
         y="40.709618"
         rx="6.6098609"
         ry="6.6098609" />
      <rect
         ry="6.6098609"
         rx="6.6098609"
         y="40.709618"
         x="69.839508"
         height="29.810888"
         width="29.810888"
         id="rect1668"
         style="fill:none;fill-opacity:1;stroke:#000000;stroke-width:3;stroke-linecap:round;stroke-linejoin:round;stroke-miterlimit:4;stroke-dasharray:none;stroke-opacity:0.02" />
      <rect
         style="fill:none;fill-opacity:1;stroke:#000000;stroke-width:3.4;stroke-linecap:round;stroke-linejoin:round;stroke-miterlimit:4;stroke-dasharray:none;stroke-opacity:0.02"
         id="rect1670"
         width="29.810888"
         height="29.810888"
         x="69.839508"
         y="40.709618"
         rx="6.6098609"
         ry="6.6098609" />
      <rect
         ry="6.6098609"
         rx="6.6098609"
         y="40.709618"
         x="69.839508"
         height="29.810888"
         width="29.810888"
         id="rect1672"
         style="fill:none;fill-opacity:1;stroke:#000000;stroke-width:3.8;stroke-linecap:round;stroke-linejoin:round;stroke-miterlimit:4;stroke-dasharray:none;stroke-opacity:0.02" />
      <rect
         style="fill:none;fill-opacity:1;stroke:#000000;stroke-width:4.2;stroke-linecap:round;stroke-linejoin:round;stroke-miterlimit:4;stroke-dasharray:none;stroke-opacity:0.02"
         id="rect1674"
         width="29.810888"
         height="29.810888"
         x="69.839508"
         y="40.709618"
         rx="6.6098609"
         ry="6.6098609" />
      <rect
         ry="6.6098609"
         rx="6.6098609"
         y="40.709618"
         x="69.839508"
         height="29.810888"
         width="29.810888"
         id="rect1676"
         style="fill:none;fill-opacity:1;stroke:#000000;stroke-width:4.6;stroke-linecap:round;stroke-linejoin:round;stroke-miterlimit:4;stroke-dasharray:none;stroke-opacity:0.02" />
      <rect
         style="fill:none;fill-opacity:1;stroke:#000000;stroke-width:5;stroke-linecap:round;stroke-linejoin:round;stroke-miterlimit:4;stroke-dasharray:none;stroke-opacity:0.02"
         id="rect1678"
         width="29.810888"
         height="29.810888"
         x="69.839508"
         y="40.709618"
         rx="6.6098609"
         ry="6.6098609" />
    </g>
    <rect
       ry="6.4494534"
       rx="6.4494534"
       y="2.5185876"
       x="2.4065466"
       height="29.087439"
       width="29.087439"
       id="rect849"
       style="fill:url(#linearGradient1632);fill-opacity:1;stroke-width:2.68768;stroke-linecap:round;stroke-linejoin:round" />
    <path
       style="fill:url(#linearGradient1044);fill-opacity:1;stroke:none;stroke-width:0.99999994px;stroke-linecap:butt;stroke-linejoin:miter;stroke-opacity:1"
       d="M 53.070312,9.5195312 C 46.964733,27.614463 45.101546,44.19773 46.363281,57.826172 45.935242,58.416561 45.520688,59.006867 45.128906,59.597656 35.323776,48.885152 27.356394,32.417021 20.240234,13.40625 13.526848,17.738688 9.0957031,25.276884 9.0957031,33.894531 v 4.421875 C 21.898204,57.177755 36.569276,70.159442 50.236328,77.386719 38.614198,78.951245 24.533152,76.575742 9.0957031,71.988281 v 19.871094 c 19.9740499,1.696552 37.2478009,-0.70617 50.5566409,-5.572266 -10.537616,9.515859 -26.7469,17.042561 -45.546875,23.623051 4.447501,5.80852 11.451822,9.54492 19.365234,9.54492 h 7.605469 C 57.827944,107.9048 69.673599,94.839903 76.650391,82.488281 77.879244,93.129702 76.451726,105.72191 73.445312,119.45508 H 93.353516 C 93.837411,97.66229 89.755454,79.303432 83.261719,65.791016 c 0.323225,-1.494187 0.550463,-2.953012 0.701172,-4.378907 12.028386,6.581889 23.637489,19.411303 35.011719,35.253907 0.0334,-0.524772 0.0586,-1.052441 0.0586,-1.585938 V 68.367188 C 104.70904,57.353169 90.444446,50.601475 77.890625,47.632812 c 11.32893,-3.862118 25.486565,-5.549827 41.142575,-6.0625 v -7.675781 c 0,-4.975638 -1.47987,-9.590703 -4.01953,-13.439453 C 90.665945,25.262775 71.519053,34.539726 58.53125,45.175781 61.141587,34.19281 67.10368,22.146367 74.955078,9.5195312 Z"
       transform="scale(0.26458333)"
       id="path1004"
       inkscape:connector-curvature="0"
       sodipodi:nodetypes="ccccsccccccscccccccscccscccc" />
    <path
       sodipodi:nodetypes="ccccsccccccscccccccscccscccc"
       inkscape:connector-curvature="0"
       id="path1159"
       transform="scale(0.26458333)"
       d="M 53.070312,9.5195312 C 46.964733,27.614463 45.101546,44.19773 46.363281,57.826172 45.935242,58.416561 45.520688,59.006867 45.128906,59.597656 35.323776,48.885152 27.356394,32.417021 20.240234,13.40625 13.526848,17.738688 9.0957031,25.276884 9.0957031,33.894531 v 4.421875 C 21.898204,57.177755 36.569276,70.159442 50.236328,77.386719 38.614198,78.951245 24.533152,76.575742 9.0957031,71.988281 v 19.871094 c 19.9740499,1.696552 37.2478009,-0.70617 50.5566409,-5.572266 -10.537616,9.515859 -26.7469,17.042561 -45.546875,23.623051 4.447501,5.80852 11.451822,9.54492 19.365234,9.54492 h 7.605469 C 57.827944,107.9048 69.673599,94.839903 76.650391,82.488281 77.879244,93.129702 76.451726,105.72191 73.445312,119.45508 H 93.353516 C 93.837411,97.66229 89.755454,79.303432 83.261719,65.791016 c 0.323225,-1.494187 0.550463,-2.953012 0.701172,-4.378907 12.028386,6.581889 23.637489,19.411303 35.011719,35.253907 0.0334,-0.524772 0.0586,-1.052441 0.0586,-1.585938 V 68.367188 C 104.70904,57.353169 90.444446,50.601475 77.890625,47.632812 c 11.32893,-3.862118 25.486565,-5.549827 41.142575,-6.0625 v -7.675781 c 0,-4.975638 -1.47987,-9.590703 -4.01953,-13.439453 C 90.665945,25.262775 71.519053,34.539726 58.53125,45.175781 61.141587,34.19281 67.10368,22.146367 74.955078,9.5195312 Z"
       style="fill:url(#radialGradient1167);fill-opacity:1;stroke:none;stroke-width:0.99999994px;stroke-linecap:butt;stroke-linejoin:miter;stroke-opacity:1" />
    <circle
       r="10.920424"
       cy="17.062307"
       cx="16.950266"
       id="circle1060"
       style="opacity:1;fill:url(#radialGradient1070);fill-opacity:1;stroke:none;stroke-width:0.95431322;stroke-linecap:round;stroke-linejoin:round;stroke-miterlimit:4;stroke-dasharray:none;stroke-opacity:1" />
    <circle
       style="opacity:1;fill:url(#radialGradient1056);fill-opacity:1;stroke:none;stroke-width:0.8786127;stroke-linecap:round;stroke-linejoin:round;stroke-miterlimit:4;stroke-dasharray:none;stroke-opacity:1"
       id="path1046"
       cx="16.950266"
       cy="17.062307"
       r="10.054166" />
    <circle
       style="opacity:0.281;fill:url(#radialGradient1155);fill-opacity:1;stroke:none;stroke-width:1.25469232;stroke-linecap:round;stroke-linejoin:round;stroke-miterlimit:4;stroke-dasharray:none;stroke-opacity:1"
       id="circle1145"
       cx="16.950266"
       cy="17.062307"
       r="9.6242886" />
    <circle
       style="opacity:1;fill:url(#radialGradient1100);fill-opacity:1;stroke:none;stroke-width:1.03048778;stroke-linecap:round;stroke-linejoin:round;stroke-miterlimit:4;stroke-dasharray:none;stroke-opacity:1"
       id="path1074"
       cx="16.950266"
       cy="17.062307"
       r="7.9044967" />
    <path
       style="opacity:1;fill:url(#radialGradient1110);fill-opacity:1;stroke:none;stroke-width:3.89475703;stroke-linecap:round;stroke-linejoin:round;stroke-miterlimit:4;stroke-dasharray:none;stroke-opacity:1"
       d="M 66.185547 50.521484 A 29.875263 29.875263 0 0 0 36.636719 76.244141 A 29.875263 29.875263 0 0 0 64.064453 94.363281 A 29.875263 29.875263 0 0 0 93.613281 68.640625 A 29.875263 29.875263 0 0 0 66.185547 50.521484 z "
       transform="scale(0.26458333)"
       id="circle1102" />
    <path
       style="color:#000000;font-style:normal;font-variant:normal;font-weight:normal;font-stretch:normal;font-size:medium;line-height:normal;font-family:sans-serif;font-variant-ligatures:normal;font-variant-position:normal;font-variant-caps:normal;font-variant-numeric:normal;font-variant-alternates:normal;font-feature-settings:normal;text-indent:0;text-align:start;text-decoration:none;text-decoration-line:none;text-decoration-style:solid;text-decoration-color:#000000;letter-spacing:normal;word-spacing:normal;text-transform:none;writing-mode:lr-tb;direction:ltr;text-orientation:mixed;dominant-baseline:auto;baseline-shift:baseline;text-anchor:start;white-space:normal;shape-padding:0;clip-rule:nonzero;display:inline;overflow:visible;visibility:visible;opacity:1;isolation:auto;mix-blend-mode:normal;color-interpolation:sRGB;color-interpolation-filters:linearRGB;solid-color:#000000;solid-opacity:1;vector-effect:none;fill:url(#radialGradient1125);fill-opacity:1;fill-rule:nonzero;stroke:none;stroke-width:0.90362144;stroke-linecap:round;stroke-linejoin:round;stroke-miterlimit:4;stroke-dasharray:none;stroke-dashoffset:0;stroke-opacity:1;color-rendering:auto;image-rendering:auto;shape-rendering:auto;text-rendering:auto;enable-background:accumulate"
       d="m 14.120759,12.575449 c -0.253643,-0.006 -0.462443,0.198099 -0.4624,0.45181 v 8.069058 c -3.43e-4,0.348002 0.376308,0.565753 0.677716,0.391804 l 6.988948,-4.034528 c 0.302363,-0.173701 0.302363,-0.609908 0,-0.78361 l -6.988948,-4.034529 c -0.06561,-0.03772 -0.139651,-0.05836 -0.215316,-0.06001 z"
       id="path1007-5"
       inkscape:connector-curvature="0"
       sodipodi:nodetypes="ccccccccc" />
    <circle
       r="7.9044967"
       cy="17.062307"
       cx="16.950266"
       id="circle1131"
       style="opacity:0.383;fill:url(#radialGradient1141);fill-opacity:1;stroke:none;stroke-width:1.03048778;stroke-linecap:round;stroke-linejoin:round;stroke-miterlimit:4;stroke-dasharray:none;stroke-opacity:1" />
  </g>
</svg>
