<?xml version="1.0" encoding="UTF-8" standalone="no"?>
<svg
   width="128"
   height="128"
   viewBox="0 0 33.866666 33.866668"
   version="1.1"
   id="svg1443"
   inkscape:version="1.1.2 (0a00cf5339, 2022-02-04)"
   sodipodi:docname="magictree.svg"
   xmlns:inkscape="http://www.inkscape.org/namespaces/inkscape"
   xmlns:sodipodi="http://sodipodi.sourceforge.net/DTD/sodipodi-0.dtd"
   xmlns:xlink="http://www.w3.org/1999/xlink"
   xmlns="http://www.w3.org/2000/svg"
   xmlns:svg="http://www.w3.org/2000/svg"
   xmlns:rdf="http://www.w3.org/1999/02/22-rdf-syntax-ns#"
   xmlns:cc="http://creativecommons.org/ns#"
   xmlns:dc="http://purl.org/dc/elements/1.1/">
  <defs
     id="defs1437">
    <linearGradient
       inkscape:collect="always"
       id="linearGradient1308">
      <stop
         style="stop-color:#ffffff;stop-opacity:1;"
         offset="0"
         id="stop1304" />
      <stop
         style="stop-color:#ffffff;stop-opacity:0;"
         offset="1"
         id="stop1306" />
    </linearGradient>
    <linearGradient
       id="linearGradient1630"
       inkscape:collect="always">
      <stop
         id="stop1626"
         offset="0"
         style="stop-color:#aa5fff;stop-opacity:1" />
      <stop
         id="stop1628"
         offset="1"
         style="stop-color:#5100ea;stop-opacity:1" />
    </linearGradient>
    <filter
       color-interpolation-filters="sRGB"
       height="1.1311001"
       width="1.1106"
       y="-0.065563001"
       x="-0.055319"
       id="c-9">
      <feGaussianBlur
         id="feGaussianBlur1093"
         stdDeviation="1.1062912" />
    </filter>
    <linearGradient
       gradientUnits="userSpaceOnUse"
       gradientTransform="matrix(0.13235,0,0,0.13075,-32.379,1.0873)"
       y2="269.48999"
       y1="235.14999"
       x2="657.65002"
       x1="319.20999"
       id="a-12">
      <stop
         id="stop1076"
         offset="0"
         stop-color="#e54c18" />
      <stop
         id="stop1078"
         offset="1"
         stop-color="#fec350" />
    </linearGradient>
    <radialGradient
       inkscape:collect="always"
       xlink:href="#linearGradient1630"
       id="radialGradient870"
       cx="16.951138"
       cy="2.8905015"
       fx="16.951138"
       fy="2.8905015"
       r="14.543719"
       gradientUnits="userSpaceOnUse"
       gradientTransform="matrix(7.6697301,0,0,2.6553413,-113.05951,-4.7847666)" />
    <linearGradient
       inkscape:collect="always"
       xlink:href="#linearGradient1308"
       id="linearGradient1310"
       x1="14.33662"
       y1="22.584078"
       x2="14.33662"
       y2="49.07061"
       gradientUnits="userSpaceOnUse"
       gradientTransform="matrix(1.4813872,0,0,1.4813872,-13.145036,-16.377995)" />
  </defs>
  <sodipodi:namedview
     id="base"
     pagecolor="#ffffff"
     bordercolor="#666666"
     borderopacity="1.0"
     inkscape:pageopacity="0.0"
     inkscape:pageshadow="2"
     inkscape:zoom="2.8"
     inkscape:cx="31.25"
     inkscape:cy="98.392857"
     inkscape:document-units="mm"
     inkscape:current-layer="layer1"
     inkscape:document-rotation="0"
     showgrid="false"
     units="px"
     inkscape:window-width="1920"
     inkscape:window-height="1006"
     inkscape:window-x="0"
     inkscape:window-y="0"
     inkscape:window-maximized="1"
     inkscape:pagecheckerboard="0" />
  <metadata
     id="metadata1440">
    <rdf:RDF>
      <cc:Work
         rdf:about="">
        <dc:format>image/svg+xml</dc:format>
        <dc:type
           rdf:resource="http://purl.org/dc/dcmitype/StillImage" />
      </cc:Work>
    </rdf:RDF>
  </metadata>
  <g
     inkscape:label="Capa 1"
     inkscape:groupmode="layer"
     id="layer1">
    <g
       style="opacity:0.295"
       transform="matrix(0.97573206,0,0,0.97573206,-65.737228,-37.182508)"
       id="g1702">
      <rect
         ry="6.6098609"
         rx="6.6098609"
         y="40.709618"
         x="69.839508"
         height="29.810888"
         width="29.810888"
         id="rect1634"
         style="fill:none;fill-opacity:1;stroke:#000000;stroke-width:0.1;stroke-linecap:round;stroke-linejoin:round;stroke-miterlimit:4;stroke-dasharray:none;stroke-opacity:0.02" />
      <rect
         style="fill:none;fill-opacity:1;stroke:#000000;stroke-width:0.2;stroke-linecap:round;stroke-linejoin:round;stroke-miterlimit:4;stroke-dasharray:none;stroke-opacity:0.02"
         id="rect1638"
         width="29.810888"
         height="29.810888"
         x="69.839508"
         y="40.709618"
         rx="6.6098609"
         ry="6.6098609" />
      <rect
         ry="6.6098609"
         rx="6.6098609"
         y="40.709618"
         x="69.839508"
         height="29.810888"
         width="29.810888"
         id="rect1640"
         style="fill:none;fill-opacity:1;stroke:#000000;stroke-width:0.3;stroke-linecap:round;stroke-linejoin:round;stroke-miterlimit:4;stroke-dasharray:none;stroke-opacity:0.02" />
      <rect
         style="fill:none;fill-opacity:1;stroke:#000000;stroke-width:0.4;stroke-linecap:round;stroke-linejoin:round;stroke-miterlimit:4;stroke-dasharray:none;stroke-opacity:0.02"
         id="rect1642"
         width="29.810888"
         height="29.810888"
         x="69.839508"
         y="40.709618"
         rx="6.6098609"
         ry="6.6098609" />
      <rect
         ry="6.6098609"
         rx="6.6098609"
         y="40.709618"
         x="69.839508"
         height="29.810888"
         width="29.810888"
         id="rect1644"
         style="fill:none;fill-opacity:1;stroke:#000000;stroke-width:0.5;stroke-linecap:round;stroke-linejoin:round;stroke-miterlimit:4;stroke-dasharray:none;stroke-opacity:0.02" />
      <rect
         style="fill:none;fill-opacity:1;stroke:#000000;stroke-width:0.6;stroke-linecap:round;stroke-linejoin:round;stroke-miterlimit:4;stroke-dasharray:none;stroke-opacity:0.02"
         id="rect1646"
         width="29.810888"
         height="29.810888"
         x="69.839508"
         y="40.709618"
         rx="6.6098609"
         ry="6.6098609" />
      <rect
         ry="6.6098609"
         rx="6.6098609"
         y="40.709618"
         x="69.839508"
         height="29.810888"
         width="29.810888"
         id="rect1648"
         style="fill:none;fill-opacity:1;stroke:#000000;stroke-width:0.7;stroke-linecap:round;stroke-linejoin:round;stroke-miterlimit:4;stroke-dasharray:none;stroke-opacity:0.02" />
      <rect
         style="fill:none;fill-opacity:1;stroke:#000000;stroke-width:0.8;stroke-linecap:round;stroke-linejoin:round;stroke-miterlimit:4;stroke-dasharray:none;stroke-opacity:0.02"
         id="rect1650"
         width="29.810888"
         height="29.810888"
         x="69.839508"
         y="40.709618"
         rx="6.6098609"
         ry="6.6098609" />
      <rect
         ry="6.6098609"
         rx="6.6098609"
         y="40.709618"
         x="69.839508"
         height="29.810888"
         width="29.810888"
         id="rect1652"
         style="fill:none;fill-opacity:1;stroke:#000000;stroke-width:1;stroke-linecap:round;stroke-linejoin:round;stroke-miterlimit:4;stroke-dasharray:none;stroke-opacity:0.02" />
      <rect
         style="fill:none;fill-opacity:1;stroke:#000000;stroke-width:1.2;stroke-linecap:round;stroke-linejoin:round;stroke-miterlimit:4;stroke-dasharray:none;stroke-opacity:0.02"
         id="rect1654"
         width="29.810888"
         height="29.810888"
         x="69.839508"
         y="40.709618"
         rx="6.6098609"
         ry="6.6098609" />
      <rect
         ry="6.6098609"
         rx="6.6098609"
         y="40.709618"
         x="69.839508"
         height="29.810888"
         width="29.810888"
         id="rect1656"
         style="fill:none;fill-opacity:1;stroke:#000000;stroke-width:1.4;stroke-linecap:round;stroke-linejoin:round;stroke-miterlimit:4;stroke-dasharray:none;stroke-opacity:0.02" />
      <rect
         style="fill:none;fill-opacity:1;stroke:#000000;stroke-width:1.6;stroke-linecap:round;stroke-linejoin:round;stroke-miterlimit:4;stroke-dasharray:none;stroke-opacity:0.02"
         id="rect1658"
         width="29.810888"
         height="29.810888"
         x="69.839508"
         y="40.709618"
         rx="6.6098609"
         ry="6.6098609" />
      <rect
         ry="6.6098609"
         rx="6.6098609"
         y="40.709618"
         x="69.839508"
         height="29.810888"
         width="29.810888"
         id="rect1660"
         style="fill:none;fill-opacity:1;stroke:#000000;stroke-width:1.8;stroke-linecap:round;stroke-linejoin:round;stroke-miterlimit:4;stroke-dasharray:none;stroke-opacity:0.02" />
      <rect
         style="fill:none;fill-opacity:1;stroke:#000000;stroke-width:2;stroke-linecap:round;stroke-linejoin:round;stroke-miterlimit:4;stroke-dasharray:none;stroke-opacity:0.02"
         id="rect1662"
         width="29.810888"
         height="29.810888"
         x="69.839508"
         y="40.709618"
         rx="6.6098609"
         ry="6.6098609" />
      <rect
         ry="6.6098609"
         rx="6.6098609"
         y="40.709618"
         x="69.839508"
         height="29.810888"
         width="29.810888"
         id="rect1664"
         style="fill:none;fill-opacity:1;stroke:#000000;stroke-width:2.2;stroke-linecap:round;stroke-linejoin:round;stroke-miterlimit:4;stroke-dasharray:none;stroke-opacity:0.02" />
      <rect
         style="fill:none;fill-opacity:1;stroke:#000000;stroke-width:2.6;stroke-linecap:round;stroke-linejoin:round;stroke-miterlimit:4;stroke-dasharray:none;stroke-opacity:0.02"
         id="rect1666"
         width="29.810888"
         height="29.810888"
         x="69.839508"
         y="40.709618"
         rx="6.6098609"
         ry="6.6098609" />
      <rect
         ry="6.6098609"
         rx="6.6098609"
         y="40.709618"
         x="69.839508"
         height="29.810888"
         width="29.810888"
         id="rect1668"
         style="fill:none;fill-opacity:1;stroke:#000000;stroke-width:3;stroke-linecap:round;stroke-linejoin:round;stroke-miterlimit:4;stroke-dasharray:none;stroke-opacity:0.02" />
      <rect
         style="fill:none;fill-opacity:1;stroke:#000000;stroke-width:3.4;stroke-linecap:round;stroke-linejoin:round;stroke-miterlimit:4;stroke-dasharray:none;stroke-opacity:0.02"
         id="rect1670"
         width="29.810888"
         height="29.810888"
         x="69.839508"
         y="40.709618"
         rx="6.6098609"
         ry="6.6098609" />
      <rect
         ry="6.6098609"
         rx="6.6098609"
         y="40.709618"
         x="69.839508"
         height="29.810888"
         width="29.810888"
         id="rect1672"
         style="fill:none;fill-opacity:1;stroke:#000000;stroke-width:3.8;stroke-linecap:round;stroke-linejoin:round;stroke-miterlimit:4;stroke-dasharray:none;stroke-opacity:0.02" />
      <rect
         style="fill:none;fill-opacity:1;stroke:#000000;stroke-width:4.2;stroke-linecap:round;stroke-linejoin:round;stroke-miterlimit:4;stroke-dasharray:none;stroke-opacity:0.02"
         id="rect1674"
         width="29.810888"
         height="29.810888"
         x="69.839508"
         y="40.709618"
         rx="6.6098609"
         ry="6.6098609" />
      <rect
         ry="6.6098609"
         rx="6.6098609"
         y="40.709618"
         x="69.839508"
         height="29.810888"
         width="29.810888"
         id="rect1676"
         style="fill:none;fill-opacity:1;stroke:#000000;stroke-width:4.6;stroke-linecap:round;stroke-linejoin:round;stroke-miterlimit:4;stroke-dasharray:none;stroke-opacity:0.02" />
      <rect
         style="fill:none;fill-opacity:1;stroke:#000000;stroke-width:5;stroke-linecap:round;stroke-linejoin:round;stroke-miterlimit:4;stroke-dasharray:none;stroke-opacity:0.02"
         id="rect1678"
         width="29.810888"
         height="29.810888"
         x="69.839508"
         y="40.709618"
         rx="6.6098609"
         ry="6.6098609" />
    </g>
    <rect
       ry="6.4494534"
       rx="6.4494534"
       y="2.539171"
       x="2.4074225"
       height="29.087439"
       width="29.087439"
       id="rect849"
       style="fill:url(#radialGradient870);fill-opacity:1;stroke-width:2.68768;stroke-linecap:round;stroke-linejoin:round" />
    <path
       id="path895"
       style="fill:url(#linearGradient1310);fill-opacity:1;stroke-width:1.17474;stroke-linecap:round;stroke-linejoin:round"
       inkscape:transform-center-x="7.8022309e-06"
       inkscape:transform-center-y="-11.733618"
       d="m 16.948473,6.1226221 -0.02985,0.057419 c -0.278561,0.024932 -0.527319,0.1969785 -0.644575,0.4547236 a 0.39198956,0.39198956 0 0 0 0,7.644e-4 l -0.819114,1.808178 -1.974298,0.197506 c -0.322526,0.03209 -0.577098,0.262868 -0.666774,0.532807 -0.08977,0.270237 -0.02398,0.607325 0.215878,0.8260059 l 1.311351,1.194989 -2.887573,5.61821 c 1.641408,1.468949 3.508924,2.191614 5.389317,2.193238 1.907143,0.0016 3.841477,-0.738383 5.573043,-2.257542 l -2.836285,-5.516399 1.332019,-1.187333 c 0.241912,-0.2157929 0.311456,-0.5511459 0.225066,-0.8221779 -0.0864,-0.271033 -0.33772,-0.505997 -0.659886,-0.541993 L 18.504026,8.4620761 17.706346,6.6447133 C 17.582339,6.362589 17.301765,6.1774097 16.993639,6.1754439 h -7.84e-4 c -0.0039,-2.52e-5 -0.0076,7.333e-4 -0.01155,7.644e-4 l -0.02755,-0.053582 z m 0.0398,0.836723 0.888778,2.024821 a 0.39198956,0.39198956 0 0 0 7.85e-4,7.64e-4 l 0.09034,0.205162 0.222768,0.02526 0.373577,0.04134 1.825019,0.20363 -1.650496,1.4705809 a 0.39198956,0.39198956 0 0 0 -0.0024,0.0031 l -0.166119,0.148512 0.491469,2.38615 h -7.84e-4 l -1.908462,-1.114608 -0.19521,-0.114066 -0.195975,0.11177 -1.921475,1.093175 0.470034,-2.16032 0.04823,-0.220472 -0.163824,-0.149278 -0.0031,-0.0031 -0.479986,-0.437117 -1.153651,-1.0526009 a 0.39198956,0.39198956 0 0 0 7.84e-4,-0.0015 l 1.785977,-0.178368 0.413385,-0.04134 0.225066,-0.02221 z m -2.28357,8.0525879 a 1.484712,1.484712 0 0 1 1.485125,1.485125 1.484712,1.484712 0 0 1 -1.485125,1.484359 1.484712,1.484712 0 0 1 -1.484359,-1.484359 1.484712,1.484712 0 0 1 1.484359,-1.485125 z m 3.695205,0.571851 a 0.82184398,0.82184398 0 0 1 0.822175,0.822176 0.82184398,0.82184398 0 0 1 -0.822175,0.821412 0.82184398,0.82184398 0 0 1 -0.821413,-0.821412 0.82184398,0.82184398 0 0 1 0.821413,-0.822176 z m 4.382647,1.879371 c -1.821619,1.542683 -3.884778,2.328975 -5.940498,2.327205 -2.022043,-0.0018 -4.021585,-0.768346 -5.756771,-2.260603 l -1.4231169,2.768148 0.08497,-0.0934 c 4.2018859,3.819613 10.0895909,3.926892 14.5825469,0.267934 z m -1.487421,1.876309 a 0.94127047,0.94127047 0 0 1 0.940833,0.941599 0.94127047,0.94127047 0 0 1 -0.940833,0.940835 0.94127047,0.94127047 0 0 1 -0.9416,-0.940835 0.94127047,0.94127047 0 0 1 0.9416,-0.941599 z m -11.9422379,1.560147 -0.874999,1.701768 c -0.708886,1.244891 -0.397429,2.683424 0.597877,3.263446 2.5055349,1.453081 5.1421859,2.17357 7.7930769,2.167976 h 0.136258 c 2.6601,0.01067 5.307256,-0.709903 7.821402,-2.167976 0.995304,-0.580022 1.306762,-2.018555 0.597877,-3.263446 L 24.695603,21.185152 C 19.993988,24.915127 13.773681,24.809197 9.3528901,20.899611 Z m 7.3674409,0.05435 a 0.70393987,0.70393987 0 0 1 0.703522,0.703521 0.70393987,0.70393987 0 0 1 -0.703522,0.704285 0.70393987,0.70393987 0 0 1 -0.704285,-0.704285 0.70393987,0.70393987 0 0 1 0.704285,-0.703521 z m -5.804998,2.628058 a 0.94127047,0.94127047 0 0 1 0.9416,0.941599 0.94127047,0.94127047 0 0 1 -0.9416,0.940833 0.94127047,0.94127047 0 0 1 -0.9408359,-0.940833 0.94127047,0.94127047 0 0 1 0.9408359,-0.941599 z m 7.935464,0.591753 a 1.2841904,1.2841904 0 0 1 1.284556,1.284555 1.2841904,1.2841904 0 0 1 -1.284556,1.283791 1.2841904,1.2841904 0 0 1 -1.283791,-1.283791 1.2841904,1.2841904 0 0 1 1.283791,-1.284555 z" />
  </g>
</svg>
