<?xml version="1.0" encoding="UTF-8" standalone="no"?>
<svg
   width="128"
   height="128"
   viewBox="0 0 33.866666 33.866668"
   version="1.1"
   id="svg1443"
   inkscape:version="1.1.2 (0a00cf5339, 2022-02-04)"
   sodipodi:docname="mattermost.svg"
   xmlns:inkscape="http://www.inkscape.org/namespaces/inkscape"
   xmlns:sodipodi="http://sodipodi.sourceforge.net/DTD/sodipodi-0.dtd"
   xmlns:xlink="http://www.w3.org/1999/xlink"
   xmlns="http://www.w3.org/2000/svg"
   xmlns:svg="http://www.w3.org/2000/svg"
   xmlns:rdf="http://www.w3.org/1999/02/22-rdf-syntax-ns#"
   xmlns:cc="http://creativecommons.org/ns#"
   xmlns:dc="http://purl.org/dc/elements/1.1/">
  <defs
     id="defs1437">
    <linearGradient
       inkscape:collect="always"
       id="linearGradient1111">
      <stop
         style="stop-color:#2b93fa;stop-opacity:1"
         offset="0"
         id="stop1107" />
      <stop
         style="stop-color:#ecfbf8;stop-opacity:1"
         offset="1"
         id="stop1109" />
    </linearGradient>
    <linearGradient
       inkscape:collect="always"
       id="linearGradient1997">
      <stop
         style="stop-color:#73f4b5;stop-opacity:1"
         offset="0"
         id="stop1993" />
      <stop
         style="stop-color:#2b93fa;stop-opacity:1"
         offset="1"
         id="stop1995" />
    </linearGradient>
    <filter
       color-interpolation-filters="sRGB"
       height="1.1311001"
       width="1.1106"
       y="-0.065563001"
       x="-0.055319"
       id="c-9">
      <feGaussianBlur
         id="feGaussianBlur1093"
         stdDeviation="1.1062912" />
    </filter>
    <linearGradient
       gradientUnits="userSpaceOnUse"
       gradientTransform="matrix(0.13235,0,0,0.13075,-32.379,1.0873)"
       y2="269.48999"
       y1="235.14999"
       x2="657.65002"
       x1="319.20999"
       id="a-12">
      <stop
         id="stop1076"
         offset="0"
         stop-color="#e54c18" />
      <stop
         id="stop1078"
         offset="1"
         stop-color="#fec350" />
    </linearGradient>
    <radialGradient
       inkscape:collect="always"
       xlink:href="#linearGradient1997"
       id="radialGradient1999"
       cx="17.076008"
       cy="4.6282434"
       fx="17.076008"
       fy="4.6282434"
       r="14.543719"
       gradientUnits="userSpaceOnUse"
       gradientTransform="matrix(4.7283357,0,0,1.6998039,-63.506476,-2.7937172)" />
    <linearGradient
       inkscape:collect="always"
       xlink:href="#linearGradient1111"
       id="linearGradient1113"
       x1="19.492851"
       y1="82.013847"
       x2="19.492851"
       y2="11.77781"
       gradientUnits="userSpaceOnUse" />
  </defs>
  <sodipodi:namedview
     id="base"
     pagecolor="#ffffff"
     bordercolor="#666666"
     borderopacity="1.0"
     inkscape:pageopacity="0.0"
     inkscape:pageshadow="2"
     inkscape:zoom="1.4"
     inkscape:cx="-78.571428"
     inkscape:cy="-57.857142"
     inkscape:document-units="mm"
     inkscape:current-layer="layer1"
     inkscape:document-rotation="0"
     showgrid="false"
     units="px"
     inkscape:window-width="1920"
     inkscape:window-height="1033"
     inkscape:window-x="0"
     inkscape:window-y="24"
     inkscape:window-maximized="1"
     inkscape:pagecheckerboard="0" />
  <metadata
     id="metadata1440">
    <rdf:RDF>
      <cc:Work
         rdf:about="">
        <dc:format>image/svg+xml</dc:format>
        <dc:type
           rdf:resource="http://purl.org/dc/dcmitype/StillImage" />
      </cc:Work>
    </rdf:RDF>
  </metadata>
  <g
     inkscape:label="Capa 1"
     inkscape:groupmode="layer"
     id="layer1">
    <g
       style="opacity:0.18753551"
       transform="matrix(0.97573206,0,0,0.96360993,-65.737228,-36.327649)"
       id="g1702">
      <rect
         ry="6.6098609"
         rx="6.6098609"
         y="40.709618"
         x="69.839508"
         height="29.810888"
         width="29.810888"
         id="rect1634"
         style="fill:none;fill-opacity:1;stroke:#000000;stroke-width:0.1;stroke-linecap:round;stroke-linejoin:round;stroke-miterlimit:4;stroke-dasharray:none;stroke-opacity:0.02" />
      <rect
         style="fill:none;fill-opacity:1;stroke:#000000;stroke-width:0.2;stroke-linecap:round;stroke-linejoin:round;stroke-miterlimit:4;stroke-dasharray:none;stroke-opacity:0.02"
         id="rect1638"
         width="29.810888"
         height="29.810888"
         x="69.839508"
         y="40.709618"
         rx="6.6098609"
         ry="6.6098609" />
      <rect
         ry="6.6098609"
         rx="6.6098609"
         y="40.709618"
         x="69.839508"
         height="29.810888"
         width="29.810888"
         id="rect1640"
         style="fill:none;fill-opacity:1;stroke:#000000;stroke-width:0.3;stroke-linecap:round;stroke-linejoin:round;stroke-miterlimit:4;stroke-dasharray:none;stroke-opacity:0.02" />
      <rect
         style="fill:none;fill-opacity:1;stroke:#000000;stroke-width:0.4;stroke-linecap:round;stroke-linejoin:round;stroke-miterlimit:4;stroke-dasharray:none;stroke-opacity:0.02"
         id="rect1642"
         width="29.810888"
         height="29.810888"
         x="69.839508"
         y="40.709618"
         rx="6.6098609"
         ry="6.6098609" />
      <rect
         ry="6.6098609"
         rx="6.6098609"
         y="40.709618"
         x="69.839508"
         height="29.810888"
         width="29.810888"
         id="rect1644"
         style="fill:none;fill-opacity:1;stroke:#000000;stroke-width:0.5;stroke-linecap:round;stroke-linejoin:round;stroke-miterlimit:4;stroke-dasharray:none;stroke-opacity:0.02" />
      <rect
         style="fill:none;fill-opacity:1;stroke:#000000;stroke-width:0.6;stroke-linecap:round;stroke-linejoin:round;stroke-miterlimit:4;stroke-dasharray:none;stroke-opacity:0.02"
         id="rect1646"
         width="29.810888"
         height="29.810888"
         x="69.839508"
         y="40.709618"
         rx="6.6098609"
         ry="6.6098609" />
      <rect
         ry="6.6098609"
         rx="6.6098609"
         y="40.709618"
         x="69.839508"
         height="29.810888"
         width="29.810888"
         id="rect1648"
         style="fill:none;fill-opacity:1;stroke:#000000;stroke-width:0.7;stroke-linecap:round;stroke-linejoin:round;stroke-miterlimit:4;stroke-dasharray:none;stroke-opacity:0.02" />
      <rect
         style="fill:none;fill-opacity:1;stroke:#000000;stroke-width:0.8;stroke-linecap:round;stroke-linejoin:round;stroke-miterlimit:4;stroke-dasharray:none;stroke-opacity:0.02"
         id="rect1650"
         width="29.810888"
         height="29.810888"
         x="69.839508"
         y="40.709618"
         rx="6.6098609"
         ry="6.6098609" />
      <rect
         ry="6.6098609"
         rx="6.6098609"
         y="40.709618"
         x="69.839508"
         height="29.810888"
         width="29.810888"
         id="rect1652"
         style="fill:none;fill-opacity:1;stroke:#000000;stroke-width:1;stroke-linecap:round;stroke-linejoin:round;stroke-miterlimit:4;stroke-dasharray:none;stroke-opacity:0.02" />
      <rect
         style="fill:none;fill-opacity:1;stroke:#000000;stroke-width:1.2;stroke-linecap:round;stroke-linejoin:round;stroke-miterlimit:4;stroke-dasharray:none;stroke-opacity:0.02"
         id="rect1654"
         width="29.810888"
         height="29.810888"
         x="69.839508"
         y="40.709618"
         rx="6.6098609"
         ry="6.6098609" />
      <rect
         ry="6.6098609"
         rx="6.6098609"
         y="40.709618"
         x="69.839508"
         height="29.810888"
         width="29.810888"
         id="rect1656"
         style="fill:none;fill-opacity:1;stroke:#000000;stroke-width:1.4;stroke-linecap:round;stroke-linejoin:round;stroke-miterlimit:4;stroke-dasharray:none;stroke-opacity:0.02" />
      <rect
         style="fill:none;fill-opacity:1;stroke:#000000;stroke-width:1.6;stroke-linecap:round;stroke-linejoin:round;stroke-miterlimit:4;stroke-dasharray:none;stroke-opacity:0.02"
         id="rect1658"
         width="29.810888"
         height="29.810888"
         x="69.839508"
         y="40.709618"
         rx="6.6098609"
         ry="6.6098609" />
      <rect
         ry="6.6098609"
         rx="6.6098609"
         y="40.709618"
         x="69.839508"
         height="29.810888"
         width="29.810888"
         id="rect1660"
         style="fill:none;fill-opacity:1;stroke:#000000;stroke-width:1.8;stroke-linecap:round;stroke-linejoin:round;stroke-miterlimit:4;stroke-dasharray:none;stroke-opacity:0.02" />
      <rect
         style="fill:none;fill-opacity:1;stroke:#000000;stroke-width:2;stroke-linecap:round;stroke-linejoin:round;stroke-miterlimit:4;stroke-dasharray:none;stroke-opacity:0.02"
         id="rect1662"
         width="29.810888"
         height="29.810888"
         x="69.839508"
         y="40.709618"
         rx="6.6098609"
         ry="6.6098609" />
      <rect
         ry="6.6098609"
         rx="6.6098609"
         y="40.709618"
         x="69.839508"
         height="29.810888"
         width="29.810888"
         id="rect1664"
         style="fill:none;fill-opacity:1;stroke:#000000;stroke-width:2.2;stroke-linecap:round;stroke-linejoin:round;stroke-miterlimit:4;stroke-dasharray:none;stroke-opacity:0.02" />
      <rect
         style="fill:none;fill-opacity:1;stroke:#000000;stroke-width:2.6;stroke-linecap:round;stroke-linejoin:round;stroke-miterlimit:4;stroke-dasharray:none;stroke-opacity:0.02"
         id="rect1666"
         width="29.810888"
         height="29.810888"
         x="69.839508"
         y="40.709618"
         rx="6.6098609"
         ry="6.6098609" />
      <rect
         ry="6.6098609"
         rx="6.6098609"
         y="40.709618"
         x="69.839508"
         height="29.810888"
         width="29.810888"
         id="rect1668"
         style="fill:none;fill-opacity:1;stroke:#000000;stroke-width:3;stroke-linecap:round;stroke-linejoin:round;stroke-miterlimit:4;stroke-dasharray:none;stroke-opacity:0.02" />
      <rect
         style="fill:none;fill-opacity:1;stroke:#000000;stroke-width:3.4;stroke-linecap:round;stroke-linejoin:round;stroke-miterlimit:4;stroke-dasharray:none;stroke-opacity:0.02"
         id="rect1670"
         width="29.810888"
         height="29.810888"
         x="69.839508"
         y="40.709618"
         rx="6.6098609"
         ry="6.6098609" />
      <rect
         ry="6.6098609"
         rx="6.6098609"
         y="40.709618"
         x="69.839508"
         height="29.810888"
         width="29.810888"
         id="rect1672"
         style="fill:none;fill-opacity:1;stroke:#000000;stroke-width:3.8;stroke-linecap:round;stroke-linejoin:round;stroke-miterlimit:4;stroke-dasharray:none;stroke-opacity:0.02" />
      <rect
         style="fill:none;fill-opacity:1;stroke:#000000;stroke-width:4.2;stroke-linecap:round;stroke-linejoin:round;stroke-miterlimit:4;stroke-dasharray:none;stroke-opacity:0.02"
         id="rect1674"
         width="29.810888"
         height="29.810888"
         x="69.839508"
         y="40.709618"
         rx="6.6098609"
         ry="6.6098609" />
      <rect
         ry="6.6098609"
         rx="6.6098609"
         y="40.709618"
         x="69.839508"
         height="29.810888"
         width="29.810888"
         id="rect1676"
         style="fill:none;fill-opacity:1;stroke:#000000;stroke-width:4.6;stroke-linecap:round;stroke-linejoin:round;stroke-miterlimit:4;stroke-dasharray:none;stroke-opacity:0.02" />
      <rect
         style="fill:none;fill-opacity:1;stroke:#000000;stroke-width:5;stroke-linecap:round;stroke-linejoin:round;stroke-miterlimit:4;stroke-dasharray:none;stroke-opacity:0.02"
         id="rect1678"
         width="29.810888"
         height="29.810888"
         x="69.839508"
         y="40.709618"
         rx="6.6098609"
         ry="6.6098609" />
    </g>
    <rect
       ry="6.4494534"
       rx="6.4494534"
       y="2.5391712"
       x="2.4074187"
       height="29.087439"
       width="29.087439"
       id="rect849"
       style="fill:url(#radialGradient1999);fill-opacity:1;stroke-width:2.68768;stroke-linecap:round;stroke-linejoin:round" />
    <g
       id="g4646"
       style="opacity:0.4981984">
      <path
         style="fill:#3626ff;fill-opacity:0.086235;stroke-width:0.509453"
         d="M 16.930302,7.5390563 A 10.189055,10.189055 0 0 0 6.7531875,17.727114 10.189055,10.189055 0 0 0 16.942243,27.91617 10.189055,10.189055 0 0 0 27.131298,17.727114 10.189055,10.189055 0 0 0 21.988012,8.8903007 a 2.5475186,2.5475186 0 0 1 0.02885,0.3671628 v 1.9373145 a 7.1323383,7.1323383 0 0 1 2.057714,5.003979 7.1323383,7.1323383 0 0 1 -7.132339,7.132338 7.1323383,7.1323383 0 0 1 -7.1323377,-7.132338 7.1323383,7.1323383 0 0 1 5.7661687,-6.9940303 c 0.325698,-0.4047785 0.69138,-0.8590506 0.85373,-1.0656713 0.1494,-0.1901264 0.293404,-0.36618 0.43383,-0.5273621 0.02056,-0.023624 0.04612,-0.049492 0.06666,-0.072645 z m 2.176118,1.5283578 c -0.04886,-0.00358 -0.09218,5.041e-4 -0.121379,0.013939 -0.05179,0.023786 -0.299147,0.3097402 -0.552241,0.631842 -0.253088,0.3221009 -0.80546,1.0098149 -1.227858,1.5313439 -0.422403,0.521527 -1.224936,1.520602 -1.781096,2.21791 -1.09262,1.369906 -1.266775,1.645875 -1.446765,2.296517 -0.112404,0.406365 -0.122302,1.062553 -0.02197,1.443782 0.275291,1.04509 1.195335,1.828589 2.382089,2.02985 0.05395,0.0092 0.240339,0.02032 0.412937,0.02291 0.719099,0.01084 1.331352,-0.242182 1.84975,-0.765174 0.273219,-0.275638 0.348475,-0.384172 0.516419,-0.736319 0.108223,-0.226886 0.225774,-0.529167 0.262685,-0.670647 0.09469,-0.362879 0.139784,-1.112166 0.09055,-2.827858 V 9.2575105 C 19.450166,9.1562284 19.252909,9.0778262 19.106355,9.0674543 Z"
         id="path4385" />
      <path
         style="fill:#3626ff;fill-opacity:0.086235;stroke-width:0.509453"
         d="M 17.118539,8.1215974 A 10.189055,10.189055 0 0 0 6.9414244,18.309655 10.189055,10.189055 0 0 0 17.13048,28.498711 10.189055,10.189055 0 0 0 27.319535,18.309655 10.189055,10.189055 0 0 0 22.176249,9.4728418 a 2.5475186,2.5475186 0 0 1 0.02885,0.3671628 v 1.9373144 a 7.1323383,7.1323383 0 0 1 2.057714,5.003979 7.1323383,7.1323383 0 0 1 -7.132339,7.132338 7.1323383,7.1323383 0 0 1 -7.1323378,-7.132338 7.1323383,7.1323383 0 0 1 5.7661688,-6.9940302 c 0.325698,-0.4047785 0.69138,-0.8590506 0.85373,-1.0656713 0.1494,-0.1901264 0.293404,-0.36618 0.43383,-0.5273621 0.02056,-0.023624 0.04612,-0.049492 0.06666,-0.072645 z m 2.176118,1.5283578 c -0.04886,-0.00358 -0.09218,5.041e-4 -0.121379,0.013939 -0.05179,0.023786 -0.299147,0.3097402 -0.552241,0.6318418 -0.253088,0.322101 -0.80546,1.009815 -1.227858,1.531344 -0.422403,0.521527 -1.224936,1.520602 -1.781096,2.21791 -1.09262,1.369906 -1.266775,1.645875 -1.446765,2.296517 -0.112404,0.406365 -0.122302,1.062553 -0.02197,1.443782 0.275291,1.04509 1.195335,1.828589 2.382089,2.02985 0.05395,0.0092 0.240339,0.02032 0.412937,0.02291 0.719099,0.01084 1.331352,-0.242182 1.84975,-0.765174 0.273219,-0.275638 0.348475,-0.384172 0.516419,-0.736319 0.108223,-0.226886 0.225774,-0.529167 0.262685,-0.670647 0.09469,-0.362879 0.139784,-1.112166 0.09055,-2.827858 V 9.8400516 C 19.638403,9.7387695 19.441146,9.6603673 19.294592,9.6499954 Z"
         id="path4639" />
      <path
         style="fill:#3626ff;fill-opacity:0.086235;stroke-width:0.509453"
         d="M 17.417374,8.6929076 A 10.189055,10.189055 0 0 0 7.2402593,18.880965 10.189055,10.189055 0 0 0 17.429315,29.070021 10.189055,10.189055 0 0 0 27.61837,18.880965 a 10.189055,10.189055 0 0 0 -5.143286,-8.836813 2.5475186,2.5475186 0 0 1 0.02885,0.367163 v 1.937314 a 7.1323383,7.1323383 0 0 1 2.057714,5.003979 7.1323383,7.1323383 0 0 1 -7.132339,7.132338 7.1323383,7.1323383 0 0 1 -7.132338,-7.132338 7.1323383,7.1323383 0 0 1 5.766169,-6.99403 c 0.325698,-0.4047785 0.69138,-0.8590506 0.85373,-1.0656713 0.1494,-0.1901264 0.293404,-0.36618 0.43383,-0.5273621 0.02056,-0.023624 0.04612,-0.049492 0.06666,-0.072645 z m 2.176118,1.5283574 c -0.04886,-0.0036 -0.09218,5.05e-4 -0.121379,0.01394 -0.05179,0.02379 -0.299147,0.309741 -0.552241,0.631842 -0.253088,0.322101 -0.80546,1.009815 -1.227858,1.531344 -0.422403,0.521527 -1.224936,1.520602 -1.781096,2.21791 -1.09262,1.369906 -1.266775,1.645875 -1.446765,2.296517 -0.112404,0.406365 -0.122302,1.062553 -0.02197,1.443782 0.275291,1.04509 1.195335,1.828589 2.382089,2.02985 0.05395,0.0092 0.240339,0.02032 0.412937,0.02291 0.719099,0.01084 1.331352,-0.242182 1.84975,-0.765174 0.273219,-0.275638 0.348475,-0.384172 0.516419,-0.736319 0.108223,-0.226886 0.225774,-0.529167 0.262685,-0.670647 0.09469,-0.362879 0.139784,-1.112166 0.09055,-2.827858 v -4.997999 c -0.01938,-0.101282 -0.216632,-0.179684 -0.363186,-0.190056 z"
         id="path4641" />
    </g>
    <path
       style="fill:url(#linearGradient1113);stroke-width:0.509453;fill-opacity:1"
       d="M 16.567181,7.3489599 A 10.189055,10.189055 0 0 0 6.3900665,17.537018 10.189055,10.189055 0 0 0 16.579122,27.726074 10.189055,10.189055 0 0 0 26.768177,17.537018 10.189055,10.189055 0 0 0 21.624891,8.7002043 a 2.5475186,2.5475186 0 0 1 0.02885,0.3671628 v 1.9373149 a 7.1323383,7.1323383 0 0 1 2.057714,5.003979 7.1323383,7.1323383 0 0 1 -7.132339,7.132338 7.1323383,7.1323383 0 0 1 -7.1323377,-7.132338 7.1323383,7.1323383 0 0 1 5.7661687,-6.9940307 c 0.325698,-0.4047785 0.69138,-0.8590506 0.85373,-1.0656713 0.1494,-0.1901264 0.293404,-0.36618 0.43383,-0.5273621 0.02056,-0.023624 0.04612,-0.049492 0.06666,-0.072645 z m 2.176118,1.5283578 c -0.04886,-0.00358 -0.09218,5.041e-4 -0.121379,0.013939 -0.05179,0.023786 -0.299147,0.3097402 -0.552241,0.631842 -0.253088,0.3221007 -0.80546,1.0098153 -1.227858,1.5313443 -0.422403,0.521527 -1.224936,1.520602 -1.781096,2.21791 -1.09262,1.369906 -1.266775,1.645875 -1.446765,2.296517 -0.112404,0.406365 -0.122302,1.062553 -0.02197,1.443782 0.275291,1.04509 1.195335,1.828589 2.382089,2.02985 0.05395,0.0092 0.240339,0.02032 0.412937,0.02291 0.719099,0.01084 1.331352,-0.242182 1.84975,-0.765174 0.273219,-0.275638 0.348475,-0.384172 0.516419,-0.736319 0.108223,-0.226886 0.225774,-0.529167 0.262685,-0.670647 0.09469,-0.362879 0.139784,-1.112166 0.09055,-2.827858 V 9.0674141 C 19.087045,8.966132 18.889788,8.8877298 18.743234,8.8773579 Z"
       id="path8" />
  </g>
</svg>
