<?xml version="1.0" encoding="UTF-8" standalone="no"?>
<svg
   width="128"
   height="128"
   viewBox="0 0 33.866666 33.866668"
   version="1.1"
   id="svg1443"
   inkscape:version="1.1.2 (0a00cf5339, 2022-02-04)"
   sodipodi:docname="midterm.svg"
   xmlns:inkscape="http://www.inkscape.org/namespaces/inkscape"
   xmlns:sodipodi="http://sodipodi.sourceforge.net/DTD/sodipodi-0.dtd"
   xmlns:xlink="http://www.w3.org/1999/xlink"
   xmlns="http://www.w3.org/2000/svg"
   xmlns:svg="http://www.w3.org/2000/svg"
   xmlns:rdf="http://www.w3.org/1999/02/22-rdf-syntax-ns#"
   xmlns:cc="http://creativecommons.org/ns#"
   xmlns:dc="http://purl.org/dc/elements/1.1/">
  <defs
     id="defs1437">
    <linearGradient
       inkscape:collect="always"
       id="linearGradient2610">
      <stop
         style="stop-color:#fdfdfd;stop-opacity:1"
         offset="0"
         id="stop2606" />
      <stop
         style="stop-color:#78db56;stop-opacity:1"
         offset="1"
         id="stop2608" />
    </linearGradient>
    <linearGradient
       inkscape:collect="always"
       id="linearGradient1997">
      <stop
         style="stop-color:#80ea9d;stop-opacity:1"
         offset="0"
         id="stop1993" />
      <stop
         style="stop-color:#77d94c;stop-opacity:1"
         offset="1"
         id="stop1995" />
    </linearGradient>
    <filter
       color-interpolation-filters="sRGB"
       height="1.1311001"
       width="1.1106"
       y="-0.065563001"
       x="-0.055319"
       id="c-9">
      <feGaussianBlur
         id="feGaussianBlur1093"
         stdDeviation="1.1062912" />
    </filter>
    <linearGradient
       gradientUnits="userSpaceOnUse"
       gradientTransform="matrix(0.13235,0,0,0.13075,-32.379,1.0873)"
       y2="269.48999"
       y1="235.14999"
       x2="657.65002"
       x1="319.20999"
       id="a-12">
      <stop
         id="stop1076"
         offset="0"
         stop-color="#e54c18" />
      <stop
         id="stop1078"
         offset="1"
         stop-color="#fec350" />
    </linearGradient>
    <radialGradient
       inkscape:collect="always"
       xlink:href="#linearGradient1997"
       id="radialGradient1999"
       cx="17.045631"
       cy="3.9921432"
       fx="17.045631"
       fy="3.9921432"
       r="14.543719"
       gradientUnits="userSpaceOnUse"
       gradientTransform="matrix(6.2215792,0,0,1.6998039,-89.005114,-2.7937172)" />
    <linearGradient
       inkscape:collect="always"
       xlink:href="#linearGradient2610"
       id="linearGradient2612"
       x1="21.667969"
       y1="41.595226"
       x2="21.667969"
       y2="223.35077"
       gradientUnits="userSpaceOnUse"
       gradientTransform="matrix(0.26458333,0,0,0.26458333,8.2232183,-0.91118574)" />
  </defs>
  <sodipodi:namedview
     id="base"
     pagecolor="#ffffff"
     bordercolor="#666666"
     borderopacity="1.0"
     inkscape:pageopacity="0.0"
     inkscape:pageshadow="2"
     inkscape:zoom="0.7"
     inkscape:cx="-451.42857"
     inkscape:cy="-140"
     inkscape:document-units="mm"
     inkscape:current-layer="layer1"
     inkscape:document-rotation="0"
     showgrid="false"
     units="px"
     inkscape:window-width="1920"
     inkscape:window-height="1033"
     inkscape:window-x="0"
     inkscape:window-y="24"
     inkscape:window-maximized="1"
     inkscape:pagecheckerboard="0" />
  <metadata
     id="metadata1440">
    <rdf:RDF>
      <cc:Work
         rdf:about="">
        <dc:format>image/svg+xml</dc:format>
        <dc:type
           rdf:resource="http://purl.org/dc/dcmitype/StillImage" />
      </cc:Work>
    </rdf:RDF>
  </metadata>
  <g
     inkscape:label="Capa 1"
     inkscape:groupmode="layer"
     id="layer1">
    <g
       style="opacity:0.18753551"
       transform="matrix(0.97573206,0,0,0.96360993,-65.737228,-36.327649)"
       id="g1702">
      <rect
         ry="6.6098609"
         rx="6.6098609"
         y="40.709618"
         x="69.839508"
         height="29.810888"
         width="29.810888"
         id="rect1634"
         style="fill:none;fill-opacity:1;stroke:#000000;stroke-width:0.1;stroke-linecap:round;stroke-linejoin:round;stroke-miterlimit:4;stroke-dasharray:none;stroke-opacity:0.02" />
      <rect
         style="fill:none;fill-opacity:1;stroke:#000000;stroke-width:0.2;stroke-linecap:round;stroke-linejoin:round;stroke-miterlimit:4;stroke-dasharray:none;stroke-opacity:0.02"
         id="rect1638"
         width="29.810888"
         height="29.810888"
         x="69.839508"
         y="40.709618"
         rx="6.6098609"
         ry="6.6098609" />
      <rect
         ry="6.6098609"
         rx="6.6098609"
         y="40.709618"
         x="69.839508"
         height="29.810888"
         width="29.810888"
         id="rect1640"
         style="fill:none;fill-opacity:1;stroke:#000000;stroke-width:0.3;stroke-linecap:round;stroke-linejoin:round;stroke-miterlimit:4;stroke-dasharray:none;stroke-opacity:0.02" />
      <rect
         style="fill:none;fill-opacity:1;stroke:#000000;stroke-width:0.4;stroke-linecap:round;stroke-linejoin:round;stroke-miterlimit:4;stroke-dasharray:none;stroke-opacity:0.02"
         id="rect1642"
         width="29.810888"
         height="29.810888"
         x="69.839508"
         y="40.709618"
         rx="6.6098609"
         ry="6.6098609" />
      <rect
         ry="6.6098609"
         rx="6.6098609"
         y="40.709618"
         x="69.839508"
         height="29.810888"
         width="29.810888"
         id="rect1644"
         style="fill:none;fill-opacity:1;stroke:#000000;stroke-width:0.5;stroke-linecap:round;stroke-linejoin:round;stroke-miterlimit:4;stroke-dasharray:none;stroke-opacity:0.02" />
      <rect
         style="fill:none;fill-opacity:1;stroke:#000000;stroke-width:0.6;stroke-linecap:round;stroke-linejoin:round;stroke-miterlimit:4;stroke-dasharray:none;stroke-opacity:0.02"
         id="rect1646"
         width="29.810888"
         height="29.810888"
         x="69.839508"
         y="40.709618"
         rx="6.6098609"
         ry="6.6098609" />
      <rect
         ry="6.6098609"
         rx="6.6098609"
         y="40.709618"
         x="69.839508"
         height="29.810888"
         width="29.810888"
         id="rect1648"
         style="fill:none;fill-opacity:1;stroke:#000000;stroke-width:0.7;stroke-linecap:round;stroke-linejoin:round;stroke-miterlimit:4;stroke-dasharray:none;stroke-opacity:0.02" />
      <rect
         style="fill:none;fill-opacity:1;stroke:#000000;stroke-width:0.8;stroke-linecap:round;stroke-linejoin:round;stroke-miterlimit:4;stroke-dasharray:none;stroke-opacity:0.02"
         id="rect1650"
         width="29.810888"
         height="29.810888"
         x="69.839508"
         y="40.709618"
         rx="6.6098609"
         ry="6.6098609" />
      <rect
         ry="6.6098609"
         rx="6.6098609"
         y="40.709618"
         x="69.839508"
         height="29.810888"
         width="29.810888"
         id="rect1652"
         style="fill:none;fill-opacity:1;stroke:#000000;stroke-width:1;stroke-linecap:round;stroke-linejoin:round;stroke-miterlimit:4;stroke-dasharray:none;stroke-opacity:0.02" />
      <rect
         style="fill:none;fill-opacity:1;stroke:#000000;stroke-width:1.2;stroke-linecap:round;stroke-linejoin:round;stroke-miterlimit:4;stroke-dasharray:none;stroke-opacity:0.02"
         id="rect1654"
         width="29.810888"
         height="29.810888"
         x="69.839508"
         y="40.709618"
         rx="6.6098609"
         ry="6.6098609" />
      <rect
         ry="6.6098609"
         rx="6.6098609"
         y="40.709618"
         x="69.839508"
         height="29.810888"
         width="29.810888"
         id="rect1656"
         style="fill:none;fill-opacity:1;stroke:#000000;stroke-width:1.4;stroke-linecap:round;stroke-linejoin:round;stroke-miterlimit:4;stroke-dasharray:none;stroke-opacity:0.02" />
      <rect
         style="fill:none;fill-opacity:1;stroke:#000000;stroke-width:1.6;stroke-linecap:round;stroke-linejoin:round;stroke-miterlimit:4;stroke-dasharray:none;stroke-opacity:0.02"
         id="rect1658"
         width="29.810888"
         height="29.810888"
         x="69.839508"
         y="40.709618"
         rx="6.6098609"
         ry="6.6098609" />
      <rect
         ry="6.6098609"
         rx="6.6098609"
         y="40.709618"
         x="69.839508"
         height="29.810888"
         width="29.810888"
         id="rect1660"
         style="fill:none;fill-opacity:1;stroke:#000000;stroke-width:1.8;stroke-linecap:round;stroke-linejoin:round;stroke-miterlimit:4;stroke-dasharray:none;stroke-opacity:0.02" />
      <rect
         style="fill:none;fill-opacity:1;stroke:#000000;stroke-width:2;stroke-linecap:round;stroke-linejoin:round;stroke-miterlimit:4;stroke-dasharray:none;stroke-opacity:0.02"
         id="rect1662"
         width="29.810888"
         height="29.810888"
         x="69.839508"
         y="40.709618"
         rx="6.6098609"
         ry="6.6098609" />
      <rect
         ry="6.6098609"
         rx="6.6098609"
         y="40.709618"
         x="69.839508"
         height="29.810888"
         width="29.810888"
         id="rect1664"
         style="fill:none;fill-opacity:1;stroke:#000000;stroke-width:2.2;stroke-linecap:round;stroke-linejoin:round;stroke-miterlimit:4;stroke-dasharray:none;stroke-opacity:0.02" />
      <rect
         style="fill:none;fill-opacity:1;stroke:#000000;stroke-width:2.6;stroke-linecap:round;stroke-linejoin:round;stroke-miterlimit:4;stroke-dasharray:none;stroke-opacity:0.02"
         id="rect1666"
         width="29.810888"
         height="29.810888"
         x="69.839508"
         y="40.709618"
         rx="6.6098609"
         ry="6.6098609" />
      <rect
         ry="6.6098609"
         rx="6.6098609"
         y="40.709618"
         x="69.839508"
         height="29.810888"
         width="29.810888"
         id="rect1668"
         style="fill:none;fill-opacity:1;stroke:#000000;stroke-width:3;stroke-linecap:round;stroke-linejoin:round;stroke-miterlimit:4;stroke-dasharray:none;stroke-opacity:0.02" />
      <rect
         style="fill:none;fill-opacity:1;stroke:#000000;stroke-width:3.4;stroke-linecap:round;stroke-linejoin:round;stroke-miterlimit:4;stroke-dasharray:none;stroke-opacity:0.02"
         id="rect1670"
         width="29.810888"
         height="29.810888"
         x="69.839508"
         y="40.709618"
         rx="6.6098609"
         ry="6.6098609" />
      <rect
         ry="6.6098609"
         rx="6.6098609"
         y="40.709618"
         x="69.839508"
         height="29.810888"
         width="29.810888"
         id="rect1672"
         style="fill:none;fill-opacity:1;stroke:#000000;stroke-width:3.8;stroke-linecap:round;stroke-linejoin:round;stroke-miterlimit:4;stroke-dasharray:none;stroke-opacity:0.02" />
      <rect
         style="fill:none;fill-opacity:1;stroke:#000000;stroke-width:4.2;stroke-linecap:round;stroke-linejoin:round;stroke-miterlimit:4;stroke-dasharray:none;stroke-opacity:0.02"
         id="rect1674"
         width="29.810888"
         height="29.810888"
         x="69.839508"
         y="40.709618"
         rx="6.6098609"
         ry="6.6098609" />
      <rect
         ry="6.6098609"
         rx="6.6098609"
         y="40.709618"
         x="69.839508"
         height="29.810888"
         width="29.810888"
         id="rect1676"
         style="fill:none;fill-opacity:1;stroke:#000000;stroke-width:4.6;stroke-linecap:round;stroke-linejoin:round;stroke-miterlimit:4;stroke-dasharray:none;stroke-opacity:0.02" />
      <rect
         style="fill:none;fill-opacity:1;stroke:#000000;stroke-width:5;stroke-linecap:round;stroke-linejoin:round;stroke-miterlimit:4;stroke-dasharray:none;stroke-opacity:0.02"
         id="rect1678"
         width="29.810888"
         height="29.810888"
         x="69.839508"
         y="40.709618"
         rx="6.6098609"
         ry="6.6098609" />
    </g>
    <rect
       ry="6.4494534"
       rx="6.4494534"
       y="2.5391712"
       x="2.4074187"
       height="29.087439"
       width="29.087439"
       id="rect849"
       style="fill:url(#radialGradient1999);fill-opacity:1;stroke-width:2.68768;stroke-linecap:round;stroke-linejoin:round" />
    <g
       id="g5054"
       style="opacity:0.42270406">
      <g
         id="path1498" />
      <g
         id="g4857"
         transform="translate(-5.2456617,0.33228153)"
         style="fill:#002d0a;fill-opacity:0.0322181">
        <path
           id="path4855"
           style="color:#000000;fill:#002d0a;fill-opacity:0.0322181;stroke-width:2;stroke-linecap:round;stroke-linejoin:round;-inkscape-stroke:none"
           d="m 14.881727,9.1610676 a 1.0001,1.0001 0 0 0 -0.359152,0.09612 1.0001,1.0001 0 0 0 -0.566373,0.9002034 v 3.310393 8.04292 a 1.0001,1.0001 0 0 0 0.293005,0.70745 l 2.36523,2.363163 a 1.0001,1.0001 0 0 0 1.70739,-0.706934 v -6.478676 l 1.931665,1.578199 A 1.0001,1.0001 0 0 0 21.88595,18.198242 V 14.88785 A 1.0001,1.0001 0 0 0 21.509229,14.106503 L 15.579358,9.3760416 a 1.0001,1.0001 0 0 0 -0.697631,-0.214974 z m 15.274519,0 a 1.0001,1.0001 0 0 0 -0.698149,0.214974 l -5.93142,4.7304614 a 1.0001,1.0001 0 0 0 -0.375171,0.781347 v 3.310392 a 1.0001,1.0001 0 0 0 1.630908,0.775664 l 1.933732,-1.578199 v 6.478674 a 1.0001,1.0001 0 0 0 1.706873,0.706934 l 2.36523,-2.363163 a 1.0001,1.0001 0 0 0 0.293005,-0.70745 v -8.04292 -3.310393 a 1.0001,1.0001 0 0 0 -0.566373,-0.9002034 1.0001,1.0001 0 0 0 -0.358635,-0.09612 z" />
      </g>
      <g
         id="g5023"
         transform="translate(-4.8741144,0.90315616)"
         style="fill:#002d0a;fill-opacity:0.0322181">
        <path
           id="path5021"
           style="color:#000000;fill:#002d0a;fill-opacity:0.0322181;stroke-width:2;stroke-linecap:round;stroke-linejoin:round;-inkscape-stroke:none"
           d="m 14.881727,9.1610676 a 1.0001,1.0001 0 0 0 -0.359152,0.09612 1.0001,1.0001 0 0 0 -0.566373,0.9002034 v 3.310393 8.04292 a 1.0001,1.0001 0 0 0 0.293005,0.70745 l 2.36523,2.363163 a 1.0001,1.0001 0 0 0 1.70739,-0.706934 v -6.478676 l 1.931665,1.578199 A 1.0001,1.0001 0 0 0 21.88595,18.198242 V 14.88785 A 1.0001,1.0001 0 0 0 21.509229,14.106503 L 15.579358,9.3760416 a 1.0001,1.0001 0 0 0 -0.697631,-0.214974 z m 15.274519,0 a 1.0001,1.0001 0 0 0 -0.698149,0.214974 l -5.93142,4.7304614 a 1.0001,1.0001 0 0 0 -0.375171,0.781347 v 3.310392 a 1.0001,1.0001 0 0 0 1.630908,0.775664 l 1.933732,-1.578199 v 6.478674 a 1.0001,1.0001 0 0 0 1.706873,0.706934 l 2.36523,-2.363163 a 1.0001,1.0001 0 0 0 0.293005,-0.70745 v -8.04292 -3.310393 a 1.0001,1.0001 0 0 0 -0.566373,-0.9002034 1.0001,1.0001 0 0 0 -0.358635,-0.09612 z" />
      </g>
      <g
         id="g5027"
         transform="translate(-4.526679,1.5665333)"
         style="fill:#002d0a;fill-opacity:0.0322181">
        <path
           id="path5025"
           style="color:#000000;fill:#002d0a;fill-opacity:0.0322181;stroke-width:2;stroke-linecap:round;stroke-linejoin:round;-inkscape-stroke:none"
           d="m 14.881727,9.1610676 a 1.0001,1.0001 0 0 0 -0.359152,0.09612 1.0001,1.0001 0 0 0 -0.566373,0.9002034 v 3.310393 8.04292 a 1.0001,1.0001 0 0 0 0.293005,0.70745 l 2.36523,2.363163 a 1.0001,1.0001 0 0 0 1.70739,-0.706934 v -6.478676 l 1.931665,1.578199 A 1.0001,1.0001 0 0 0 21.88595,18.198242 V 14.88785 A 1.0001,1.0001 0 0 0 21.509229,14.106503 L 15.579358,9.3760416 a 1.0001,1.0001 0 0 0 -0.697631,-0.214974 z m 15.274519,0 a 1.0001,1.0001 0 0 0 -0.698149,0.214974 l -5.93142,4.7304614 a 1.0001,1.0001 0 0 0 -0.375171,0.781347 v 3.310392 a 1.0001,1.0001 0 0 0 1.630908,0.775664 l 1.933732,-1.578199 v 6.478674 a 1.0001,1.0001 0 0 0 1.706873,0.706934 l 2.36523,-2.363163 a 1.0001,1.0001 0 0 0 0.293005,-0.70745 v -8.04292 -3.310393 a 1.0001,1.0001 0 0 0 -0.566373,-0.9002034 1.0001,1.0001 0 0 0 -0.358635,-0.09612 z" />
      </g>
      <g
         id="g5031"
         transform="translate(-4.0791225,2.2873084)"
         style="fill:#002d0a;fill-opacity:0.0322181">
        <path
           id="path5029"
           style="color:#000000;fill:#002d0a;fill-opacity:0.0322181;stroke-width:2;stroke-linecap:round;stroke-linejoin:round;-inkscape-stroke:none"
           d="m 14.881727,9.1610676 a 1.0001,1.0001 0 0 0 -0.359152,0.09612 1.0001,1.0001 0 0 0 -0.566373,0.9002034 v 3.310393 8.04292 a 1.0001,1.0001 0 0 0 0.293005,0.70745 l 2.36523,2.363163 a 1.0001,1.0001 0 0 0 1.70739,-0.706934 v -6.478676 l 1.931665,1.578199 A 1.0001,1.0001 0 0 0 21.88595,18.198242 V 14.88785 A 1.0001,1.0001 0 0 0 21.509229,14.106503 L 15.579358,9.3760416 a 1.0001,1.0001 0 0 0 -0.697631,-0.214974 z m 15.274519,0 a 1.0001,1.0001 0 0 0 -0.698149,0.214974 l -5.93142,4.7304614 a 1.0001,1.0001 0 0 0 -0.375171,0.781347 v 3.310392 a 1.0001,1.0001 0 0 0 1.630908,0.775664 l 1.933732,-1.578199 v 6.478674 a 1.0001,1.0001 0 0 0 1.706873,0.706934 l 2.36523,-2.363163 a 1.0001,1.0001 0 0 0 0.293005,-0.70745 v -8.04292 -3.310393 a 1.0001,1.0001 0 0 0 -0.566373,-0.9002034 1.0001,1.0001 0 0 0 -0.358635,-0.09612 z" />
      </g>
      <g
         id="g5035"
         transform="translate(-3.4554516,3.1556168)"
         style="fill:#002d0a;fill-opacity:0.0322181">
        <path
           id="path5033"
           style="color:#000000;fill:#002d0a;fill-opacity:0.0322181;stroke-width:2;stroke-linecap:round;stroke-linejoin:round;-inkscape-stroke:none"
           d="m 14.881727,9.1610676 a 1.0001,1.0001 0 0 0 -0.359152,0.09612 1.0001,1.0001 0 0 0 -0.566373,0.9002034 v 3.310393 8.04292 a 1.0001,1.0001 0 0 0 0.293005,0.70745 l 2.36523,2.363163 a 1.0001,1.0001 0 0 0 1.70739,-0.706934 v -6.478676 l 1.931665,1.578199 A 1.0001,1.0001 0 0 0 21.88595,18.198242 V 14.88785 A 1.0001,1.0001 0 0 0 21.509229,14.106503 L 15.579358,9.3760416 a 1.0001,1.0001 0 0 0 -0.697631,-0.214974 z m 15.274519,0 a 1.0001,1.0001 0 0 0 -0.698149,0.214974 l -5.93142,4.7304614 a 1.0001,1.0001 0 0 0 -0.375171,0.781347 v 3.310392 a 1.0001,1.0001 0 0 0 1.630908,0.775664 l 1.933732,-1.578199 v 6.478674 a 1.0001,1.0001 0 0 0 1.706873,0.706934 l 2.36523,-2.363163 a 1.0001,1.0001 0 0 0 0.293005,-0.70745 v -8.04292 -3.310393 a 1.0001,1.0001 0 0 0 -0.566373,-0.9002034 1.0001,1.0001 0 0 0 -0.358635,-0.09612 z" />
      </g>
      <g
         id="g5039"
         transform="translate(-2.5922048,4.1167437)"
         style="fill:#002d0a;fill-opacity:0.0322181">
        <path
           id="path5037"
           style="color:#000000;fill:#002d0a;fill-opacity:0.0322181;stroke-width:2;stroke-linecap:round;stroke-linejoin:round;-inkscape-stroke:none"
           d="m 14.881727,9.1610676 a 1.0001,1.0001 0 0 0 -0.359152,0.09612 1.0001,1.0001 0 0 0 -0.566373,0.9002034 v 3.310393 8.04292 a 1.0001,1.0001 0 0 0 0.293005,0.70745 l 2.36523,2.363163 a 1.0001,1.0001 0 0 0 1.70739,-0.706934 v -6.478676 l 1.931665,1.578199 A 1.0001,1.0001 0 0 0 21.88595,18.198242 V 14.88785 A 1.0001,1.0001 0 0 0 21.509229,14.106503 L 15.579358,9.3760416 a 1.0001,1.0001 0 0 0 -0.697631,-0.214974 z m 15.274519,0 a 1.0001,1.0001 0 0 0 -0.698149,0.214974 l -5.93142,4.7304614 a 1.0001,1.0001 0 0 0 -0.375171,0.781347 v 3.310392 a 1.0001,1.0001 0 0 0 1.630908,0.775664 l 1.933732,-1.578199 v 6.478674 a 1.0001,1.0001 0 0 0 1.706873,0.706934 l 2.36523,-2.363163 a 1.0001,1.0001 0 0 0 0.293005,-0.70745 v -8.04292 -3.310393 a 1.0001,1.0001 0 0 0 -0.566373,-0.9002034 1.0001,1.0001 0 0 0 -0.358635,-0.09612 z" />
      </g>
    </g>
    <g
       id="path10"
       transform="translate(-5.56759,0.06659236)"
       style="fill:#ababab;fill-opacity:1">
      <path
         id="path1527"
         style="color:#000000;fill:url(#linearGradient2612);fill-opacity:1;stroke-width:2;stroke-linecap:round;stroke-linejoin:round;-inkscape-stroke:none"
         d="m 14.881727,9.1610676 a 1.0001,1.0001 0 0 0 -0.359152,0.09612 1.0001,1.0001 0 0 0 -0.566373,0.9002034 v 3.310393 8.04292 a 1.0001,1.0001 0 0 0 0.293005,0.70745 l 2.36523,2.363163 a 1.0001,1.0001 0 0 0 1.70739,-0.706934 v -6.478676 l 1.931665,1.578199 A 1.0001,1.0001 0 0 0 21.88595,18.198242 V 14.88785 A 1.0001,1.0001 0 0 0 21.509229,14.106503 L 15.579358,9.3760416 a 1.0001,1.0001 0 0 0 -0.697631,-0.214974 z m 15.274519,0 a 1.0001,1.0001 0 0 0 -0.698149,0.214974 l -5.93142,4.7304614 a 1.0001,1.0001 0 0 0 -0.375171,0.781347 v 3.310392 a 1.0001,1.0001 0 0 0 1.630908,0.775664 l 1.933732,-1.578199 v 6.478674 a 1.0001,1.0001 0 0 0 1.706873,0.706934 l 2.36523,-2.363163 a 1.0001,1.0001 0 0 0 0.293005,-0.70745 v -8.04292 -3.310393 a 1.0001,1.0001 0 0 0 -0.566373,-0.9002034 1.0001,1.0001 0 0 0 -0.358635,-0.09612 z" />
    </g>
  </g>
</svg>
