<?xml version="1.0" encoding="UTF-8" standalone="no"?>
<svg
   xmlns:dc="http://purl.org/dc/elements/1.1/"
   xmlns:cc="http://creativecommons.org/ns#"
   xmlns:rdf="http://www.w3.org/1999/02/22-rdf-syntax-ns#"
   xmlns:svg="http://www.w3.org/2000/svg"
   xmlns="http://www.w3.org/2000/svg"
   xmlns:xlink="http://www.w3.org/1999/xlink"
   xmlns:sodipodi="http://sodipodi.sourceforge.net/DTD/sodipodi-0.dtd"
   xmlns:inkscape="http://www.inkscape.org/namespaces/inkscape"
   width="128"
   height="128"
   viewBox="0 0 33.866666 33.866668"
   version="1.1"
   id="svg1349"
   inkscape:version="1.0.2 (e86c870879, 2021-01-15)"
   sodipodi:docname="lutris_minecraft.svg">
  <defs
     id="defs1343">
    <linearGradient
       inkscape:collect="always"
       xlink:href="#linearGradient1630"
       id="linearGradient1632"
       x1="132.21078"
       y1="42.151531"
       x2="132.21078"
       y2="70.679932"
       gradientUnits="userSpaceOnUse"
       gradientTransform="matrix(0.97573206,0,0,0.97573206,-110.57345,-28.563015)" />
    <linearGradient
       inkscape:collect="always"
       id="linearGradient1630">
      <stop
         style="stop-color:#f6f7f8;stop-opacity:1"
         offset="0"
         id="stop1626" />
      <stop
         style="stop-color:#e1eee8;stop-opacity:1"
         offset="1"
         id="stop1628" />
    </linearGradient>
    <linearGradient
       id="e-3"
       x1="25.68"
       x2="26.448"
       y1="39.395"
       y2="17.375999"
       gradientUnits="userSpaceOnUse">
      <stop
         stop-color="#345f29"
         offset="0"
         id="stop4783" />
      <stop
         stop-color="#59a446"
         offset="1"
         id="stop4785" />
    </linearGradient>
    <linearGradient
       id="a-5"
       x1="15.707"
       x2="25.68"
       y1="32.561001"
       y2="39.395"
       gradientUnits="userSpaceOnUse">
      <stop
         stop-color="#ad7c59"
         offset="0"
         id="stop4788" />
      <stop
         stop-color="#835b41"
         offset="1"
         id="stop4790" />
    </linearGradient>
  </defs>
  <sodipodi:namedview
     id="base"
     pagecolor="#ffffff"
     bordercolor="#666666"
     borderopacity="1.0"
     inkscape:pageopacity="0.0"
     inkscape:pageshadow="2"
     inkscape:zoom="2.8"
     inkscape:cx="108.91271"
     inkscape:cy="50.053437"
     inkscape:document-units="mm"
     inkscape:current-layer="layer1"
     inkscape:document-rotation="0"
     showgrid="false"
     units="px"
     inkscape:window-width="1507"
     inkscape:window-height="1056"
     inkscape:window-x="409"
     inkscape:window-y="24"
     inkscape:window-maximized="0" />
  <metadata
     id="metadata1346">
    <rdf:RDF>
      <cc:Work
         rdf:about="">
        <dc:format>image/svg+xml</dc:format>
        <dc:type
           rdf:resource="http://purl.org/dc/dcmitype/StillImage" />
        <dc:title></dc:title>
      </cc:Work>
    </rdf:RDF>
  </metadata>
  <g
     inkscape:label="Capa 1"
     inkscape:groupmode="layer"
     id="layer1">
    <g
       id="g2218"
       transform="translate(-1.2317677,-8.6913069)">
      <g
         id="g1702"
         transform="matrix(0.97573206,0,0,0.97573206,-64.54551,-28.563018)"
         style="opacity:0.296765">
        <rect
           style="fill:none;fill-opacity:1;stroke:#000000;stroke-width:0.1;stroke-linecap:round;stroke-linejoin:round;stroke-miterlimit:4;stroke-dasharray:none;stroke-opacity:0.02"
           id="rect1634"
           width="29.810888"
           height="29.810888"
           x="69.839508"
           y="40.709618"
           rx="6.6098609"
           ry="6.6098609" />
        <rect
           ry="6.6098609"
           rx="6.6098609"
           y="40.709618"
           x="69.839508"
           height="29.810888"
           width="29.810888"
           id="rect1638"
           style="fill:none;fill-opacity:1;stroke:#000000;stroke-width:0.2;stroke-linecap:round;stroke-linejoin:round;stroke-miterlimit:4;stroke-dasharray:none;stroke-opacity:0.02" />
        <rect
           style="fill:none;fill-opacity:1;stroke:#000000;stroke-width:0.3;stroke-linecap:round;stroke-linejoin:round;stroke-miterlimit:4;stroke-dasharray:none;stroke-opacity:0.02"
           id="rect1640"
           width="29.810888"
           height="29.810888"
           x="69.839508"
           y="40.709618"
           rx="6.6098609"
           ry="6.6098609" />
        <rect
           ry="6.6098609"
           rx="6.6098609"
           y="40.709618"
           x="69.839508"
           height="29.810888"
           width="29.810888"
           id="rect1642"
           style="fill:none;fill-opacity:1;stroke:#000000;stroke-width:0.4;stroke-linecap:round;stroke-linejoin:round;stroke-miterlimit:4;stroke-dasharray:none;stroke-opacity:0.02" />
        <rect
           style="fill:none;fill-opacity:1;stroke:#000000;stroke-width:0.5;stroke-linecap:round;stroke-linejoin:round;stroke-miterlimit:4;stroke-dasharray:none;stroke-opacity:0.02"
           id="rect1644"
           width="29.810888"
           height="29.810888"
           x="69.839508"
           y="40.709618"
           rx="6.6098609"
           ry="6.6098609" />
        <rect
           ry="6.6098609"
           rx="6.6098609"
           y="40.709618"
           x="69.839508"
           height="29.810888"
           width="29.810888"
           id="rect1646"
           style="fill:none;fill-opacity:1;stroke:#000000;stroke-width:0.6;stroke-linecap:round;stroke-linejoin:round;stroke-miterlimit:4;stroke-dasharray:none;stroke-opacity:0.02" />
        <rect
           style="fill:none;fill-opacity:1;stroke:#000000;stroke-width:0.7;stroke-linecap:round;stroke-linejoin:round;stroke-miterlimit:4;stroke-dasharray:none;stroke-opacity:0.02"
           id="rect1648"
           width="29.810888"
           height="29.810888"
           x="69.839508"
           y="40.709618"
           rx="6.6098609"
           ry="6.6098609" />
        <rect
           ry="6.6098609"
           rx="6.6098609"
           y="40.709618"
           x="69.839508"
           height="29.810888"
           width="29.810888"
           id="rect1650"
           style="fill:none;fill-opacity:1;stroke:#000000;stroke-width:0.8;stroke-linecap:round;stroke-linejoin:round;stroke-miterlimit:4;stroke-dasharray:none;stroke-opacity:0.02" />
        <rect
           style="fill:none;fill-opacity:1;stroke:#000000;stroke-width:1;stroke-linecap:round;stroke-linejoin:round;stroke-miterlimit:4;stroke-dasharray:none;stroke-opacity:0.02"
           id="rect1652"
           width="29.810888"
           height="29.810888"
           x="69.839508"
           y="40.709618"
           rx="6.6098609"
           ry="6.6098609" />
        <rect
           ry="6.6098609"
           rx="6.6098609"
           y="40.709618"
           x="69.839508"
           height="29.810888"
           width="29.810888"
           id="rect1654"
           style="fill:none;fill-opacity:1;stroke:#000000;stroke-width:1.2;stroke-linecap:round;stroke-linejoin:round;stroke-miterlimit:4;stroke-dasharray:none;stroke-opacity:0.02" />
        <rect
           style="fill:none;fill-opacity:1;stroke:#000000;stroke-width:1.4;stroke-linecap:round;stroke-linejoin:round;stroke-miterlimit:4;stroke-dasharray:none;stroke-opacity:0.02"
           id="rect1656"
           width="29.810888"
           height="29.810888"
           x="69.839508"
           y="40.709618"
           rx="6.6098609"
           ry="6.6098609" />
        <rect
           ry="6.6098609"
           rx="6.6098609"
           y="40.709618"
           x="69.839508"
           height="29.810888"
           width="29.810888"
           id="rect1658"
           style="fill:none;fill-opacity:1;stroke:#000000;stroke-width:1.6;stroke-linecap:round;stroke-linejoin:round;stroke-miterlimit:4;stroke-dasharray:none;stroke-opacity:0.02" />
        <rect
           style="fill:none;fill-opacity:1;stroke:#000000;stroke-width:1.8;stroke-linecap:round;stroke-linejoin:round;stroke-miterlimit:4;stroke-dasharray:none;stroke-opacity:0.02"
           id="rect1660"
           width="29.810888"
           height="29.810888"
           x="69.839508"
           y="40.709618"
           rx="6.6098609"
           ry="6.6098609" />
        <rect
           ry="6.6098609"
           rx="6.6098609"
           y="40.709618"
           x="69.839508"
           height="29.810888"
           width="29.810888"
           id="rect1662"
           style="fill:none;fill-opacity:1;stroke:#000000;stroke-width:2;stroke-linecap:round;stroke-linejoin:round;stroke-miterlimit:4;stroke-dasharray:none;stroke-opacity:0.02" />
        <rect
           style="fill:none;fill-opacity:1;stroke:#000000;stroke-width:2.2;stroke-linecap:round;stroke-linejoin:round;stroke-miterlimit:4;stroke-dasharray:none;stroke-opacity:0.02"
           id="rect1664"
           width="29.810888"
           height="29.810888"
           x="69.839508"
           y="40.709618"
           rx="6.6098609"
           ry="6.6098609" />
        <rect
           ry="6.6098609"
           rx="6.6098609"
           y="40.709618"
           x="69.839508"
           height="29.810888"
           width="29.810888"
           id="rect1666"
           style="fill:none;fill-opacity:1;stroke:#000000;stroke-width:2.6;stroke-linecap:round;stroke-linejoin:round;stroke-miterlimit:4;stroke-dasharray:none;stroke-opacity:0.02" />
        <rect
           style="fill:none;fill-opacity:1;stroke:#000000;stroke-width:3;stroke-linecap:round;stroke-linejoin:round;stroke-miterlimit:4;stroke-dasharray:none;stroke-opacity:0.02"
           id="rect1668"
           width="29.810888"
           height="29.810888"
           x="69.839508"
           y="40.709618"
           rx="6.6098609"
           ry="6.6098609" />
        <rect
           ry="6.6098609"
           rx="6.6098609"
           y="40.709618"
           x="69.839508"
           height="29.810888"
           width="29.810888"
           id="rect1670"
           style="fill:none;fill-opacity:1;stroke:#000000;stroke-width:3.4;stroke-linecap:round;stroke-linejoin:round;stroke-miterlimit:4;stroke-dasharray:none;stroke-opacity:0.02" />
        <rect
           style="fill:none;fill-opacity:1;stroke:#000000;stroke-width:3.8;stroke-linecap:round;stroke-linejoin:round;stroke-miterlimit:4;stroke-dasharray:none;stroke-opacity:0.02"
           id="rect1672"
           width="29.810888"
           height="29.810888"
           x="69.839508"
           y="40.709618"
           rx="6.6098609"
           ry="6.6098609" />
        <rect
           ry="6.6098609"
           rx="6.6098609"
           y="40.709618"
           x="69.839508"
           height="29.810888"
           width="29.810888"
           id="rect1674"
           style="fill:none;fill-opacity:1;stroke:#000000;stroke-width:4.2;stroke-linecap:round;stroke-linejoin:round;stroke-miterlimit:4;stroke-dasharray:none;stroke-opacity:0.02" />
        <rect
           style="fill:none;fill-opacity:1;stroke:#000000;stroke-width:4.6;stroke-linecap:round;stroke-linejoin:round;stroke-miterlimit:4;stroke-dasharray:none;stroke-opacity:0.02"
           id="rect1676"
           width="29.810888"
           height="29.810888"
           x="69.839508"
           y="40.709618"
           rx="6.6098609"
           ry="6.6098609" />
        <rect
           ry="6.6098609"
           rx="6.6098609"
           y="40.709618"
           x="69.839508"
           height="29.810888"
           width="29.810888"
           id="rect1678"
           style="fill:none;fill-opacity:1;stroke:#000000;stroke-width:5;stroke-linecap:round;stroke-linejoin:round;stroke-miterlimit:4;stroke-dasharray:none;stroke-opacity:0.02" />
      </g>
      <rect
         style="fill:url(#linearGradient1632);fill-opacity:1;stroke-width:2.68768;stroke-linecap:round;stroke-linejoin:round"
         id="rect849"
         width="29.087439"
         height="29.087439"
         x="3.5991402"
         y="11.158664"
         rx="6.4494534"
         ry="6.4494534" />
      <g
         id="g5371"
         transform="matrix(0.46615122,0,0,0.46615122,-11.357709,-1.9971798)">
        <g
           style="opacity:0.672"
           transform="translate(95.506083,-0.326172)"
           id="g5024">
          <path
             inkscape:connector-curvature="0"
             style="fill:none;fill-opacity:1;fill-rule:evenodd;stroke:#000000;stroke-width:0.05;stroke-linecap:round;stroke-linejoin:round;stroke-miterlimit:4;stroke-dasharray:none;stroke-opacity:0.00784314"
             d="m -32.220703,41.082031 -16,9.337891 v 4.666016 13.99414 l 15.998047,9.333984 v -0.0039 l 0.002,0.0039 16,-9.333984 V 55.082031 50.416016 l -0.0039,0.002 z"
             id="path4803-9" />
          <path
             inkscape:connector-curvature="0"
             id="path4912"
             d="m -32.220703,41.082031 -16,9.337891 v 4.666016 13.99414 l 15.998047,9.333984 v -0.0039 l 0.002,0.0039 16,-9.333984 V 55.082031 50.416016 l -0.0039,0.002 z"
             style="fill:none;fill-opacity:1;fill-rule:evenodd;stroke:#000000;stroke-width:0.1;stroke-linecap:round;stroke-linejoin:round;stroke-miterlimit:4;stroke-dasharray:none;stroke-opacity:0.00784314" />
          <path
             inkscape:connector-curvature="0"
             style="fill:none;fill-opacity:1;fill-rule:evenodd;stroke:#000000;stroke-width:0.15;stroke-linecap:round;stroke-linejoin:round;stroke-miterlimit:4;stroke-dasharray:none;stroke-opacity:0.00784314"
             d="m -32.220703,41.082031 -16,9.337891 v 4.666016 13.99414 l 15.998047,9.333984 v -0.0039 l 0.002,0.0039 16,-9.333984 V 55.082031 50.416016 l -0.0039,0.002 z"
             id="path4914" />
          <path
             inkscape:connector-curvature="0"
             id="path4916"
             d="m -32.220703,41.082031 -16,9.337891 v 4.666016 13.99414 l 15.998047,9.333984 v -0.0039 l 0.002,0.0039 16,-9.333984 V 55.082031 50.416016 l -0.0039,0.002 z"
             style="fill:none;fill-opacity:1;fill-rule:evenodd;stroke:#000000;stroke-width:0.2;stroke-linecap:round;stroke-linejoin:round;stroke-miterlimit:4;stroke-dasharray:none;stroke-opacity:0.00784314" />
          <path
             inkscape:connector-curvature="0"
             style="fill:none;fill-opacity:1;fill-rule:evenodd;stroke:#000000;stroke-width:0.25;stroke-linecap:round;stroke-linejoin:round;stroke-miterlimit:4;stroke-dasharray:none;stroke-opacity:0.00784314"
             d="m -32.220703,41.082031 -16,9.337891 v 4.666016 13.99414 l 15.998047,9.333984 v -0.0039 l 0.002,0.0039 16,-9.333984 V 55.082031 50.416016 l -0.0039,0.002 z"
             id="path4918" />
          <path
             inkscape:connector-curvature="0"
             id="path4920"
             d="m -32.220703,41.082031 -16,9.337891 v 4.666016 13.99414 l 15.998047,9.333984 v -0.0039 l 0.002,0.0039 16,-9.333984 V 55.082031 50.416016 l -0.0039,0.002 z"
             style="fill:none;fill-opacity:1;fill-rule:evenodd;stroke:#000000;stroke-width:0.3;stroke-linecap:round;stroke-linejoin:round;stroke-miterlimit:4;stroke-dasharray:none;stroke-opacity:0.00784314" />
          <path
             inkscape:connector-curvature="0"
             style="fill:none;fill-opacity:1;fill-rule:evenodd;stroke:#000000;stroke-width:0.35;stroke-linecap:round;stroke-linejoin:round;stroke-miterlimit:4;stroke-dasharray:none;stroke-opacity:0.00784314"
             d="m -32.220703,41.082031 -16,9.337891 v 4.666016 13.99414 l 15.998047,9.333984 v -0.0039 l 0.002,0.0039 16,-9.333984 V 55.082031 50.416016 l -0.0039,0.002 z"
             id="path4922" />
          <path
             inkscape:connector-curvature="0"
             id="path4924"
             d="m -32.220703,41.082031 -16,9.337891 v 4.666016 13.99414 l 15.998047,9.333984 v -0.0039 l 0.002,0.0039 16,-9.333984 V 55.082031 50.416016 l -0.0039,0.002 z"
             style="fill:none;fill-opacity:1;fill-rule:evenodd;stroke:#000000;stroke-width:0.4;stroke-linecap:round;stroke-linejoin:round;stroke-miterlimit:4;stroke-dasharray:none;stroke-opacity:0.00784314" />
          <path
             inkscape:connector-curvature="0"
             style="fill:none;fill-opacity:1;fill-rule:evenodd;stroke:#000000;stroke-width:0.45;stroke-linecap:round;stroke-linejoin:round;stroke-miterlimit:4;stroke-dasharray:none;stroke-opacity:0.00784314"
             d="m -32.220703,41.082031 -16,9.337891 v 4.666016 13.99414 l 15.998047,9.333984 v -0.0039 l 0.002,0.0039 16,-9.333984 V 55.082031 50.416016 l -0.0039,0.002 z"
             id="path4926" />
          <path
             inkscape:connector-curvature="0"
             id="path4928"
             d="m -32.220703,41.082031 -16,9.337891 v 4.666016 13.99414 l 15.998047,9.333984 v -0.0039 l 0.002,0.0039 16,-9.333984 V 55.082031 50.416016 l -0.0039,0.002 z"
             style="fill:none;fill-opacity:1;fill-rule:evenodd;stroke:#000000;stroke-width:0.5;stroke-linecap:round;stroke-linejoin:round;stroke-miterlimit:4;stroke-dasharray:none;stroke-opacity:0.00784314" />
          <path
             inkscape:connector-curvature="0"
             style="fill:none;fill-opacity:1;fill-rule:evenodd;stroke:#000000;stroke-width:0.6;stroke-linecap:round;stroke-linejoin:round;stroke-miterlimit:4;stroke-dasharray:none;stroke-opacity:0.00784314"
             d="m -32.220703,41.082031 -16,9.337891 v 4.666016 13.99414 l 15.998047,9.333984 v -0.0039 l 0.002,0.0039 16,-9.333984 V 55.082031 50.416016 l -0.0039,0.002 z"
             id="path4930" />
          <path
             inkscape:connector-curvature="0"
             id="path4932"
             d="m -32.220703,41.082031 -16,9.337891 v 4.666016 13.99414 l 15.998047,9.333984 v -0.0039 l 0.002,0.0039 16,-9.333984 V 55.082031 50.416016 l -0.0039,0.002 z"
             style="fill:none;fill-opacity:1;fill-rule:evenodd;stroke:#000000;stroke-width:0.7;stroke-linecap:round;stroke-linejoin:round;stroke-miterlimit:4;stroke-dasharray:none;stroke-opacity:0.00784314" />
          <path
             inkscape:connector-curvature="0"
             style="fill:none;fill-opacity:1;fill-rule:evenodd;stroke:#000000;stroke-width:0.8;stroke-linecap:round;stroke-linejoin:round;stroke-miterlimit:4;stroke-dasharray:none;stroke-opacity:0.00784314"
             d="m -32.220703,41.082031 -16,9.337891 v 4.666016 13.99414 l 15.998047,9.333984 v -0.0039 l 0.002,0.0039 16,-9.333984 V 55.082031 50.416016 l -0.0039,0.002 z"
             id="path4934" />
          <path
             inkscape:connector-curvature="0"
             id="path4936"
             d="m -32.220703,41.082031 -16,9.337891 v 4.666016 13.99414 l 15.998047,9.333984 v -0.0039 l 0.002,0.0039 16,-9.333984 V 55.082031 50.416016 l -0.0039,0.002 z"
             style="fill:none;fill-opacity:1;fill-rule:evenodd;stroke:#000000;stroke-width:0.9;stroke-linecap:round;stroke-linejoin:round;stroke-miterlimit:4;stroke-dasharray:none;stroke-opacity:0.00784314" />
          <path
             inkscape:connector-curvature="0"
             style="fill:none;fill-opacity:1;fill-rule:evenodd;stroke:#000000;stroke-width:1;stroke-linecap:round;stroke-linejoin:round;stroke-miterlimit:4;stroke-dasharray:none;stroke-opacity:0.00784314"
             d="m -32.220703,41.082031 -16,9.337891 v 4.666016 13.99414 l 15.998047,9.333984 v -0.0039 l 0.002,0.0039 16,-9.333984 V 55.082031 50.416016 l -0.0039,0.002 z"
             id="path4938" />
          <path
             inkscape:connector-curvature="0"
             id="path4940"
             d="m -32.220703,41.082031 -16,9.337891 v 4.666016 13.99414 l 15.998047,9.333984 v -0.0039 l 0.002,0.0039 16,-9.333984 V 55.082031 50.416016 l -0.0039,0.002 z"
             style="fill:none;fill-opacity:1;fill-rule:evenodd;stroke:#000000;stroke-width:1.1;stroke-linecap:round;stroke-linejoin:round;stroke-miterlimit:4;stroke-dasharray:none;stroke-opacity:0.00784314" />
          <path
             inkscape:connector-curvature="0"
             style="fill:none;fill-opacity:1;fill-rule:evenodd;stroke:#000000;stroke-width:1.2;stroke-linecap:round;stroke-linejoin:round;stroke-miterlimit:4;stroke-dasharray:none;stroke-opacity:0.00784314"
             d="m -32.220703,41.082031 -16,9.337891 v 4.666016 13.99414 l 15.998047,9.333984 v -0.0039 l 0.002,0.0039 16,-9.333984 V 55.082031 50.416016 l -0.0039,0.002 z"
             id="path4942" />
          <path
             inkscape:connector-curvature="0"
             id="path4944"
             d="m -32.220703,41.082031 -16,9.337891 v 4.666016 13.99414 l 15.998047,9.333984 v -0.0039 l 0.002,0.0039 16,-9.333984 V 55.082031 50.416016 l -0.0039,0.002 z"
             style="fill:none;fill-opacity:1;fill-rule:evenodd;stroke:#000000;stroke-width:1.3;stroke-linecap:round;stroke-linejoin:round;stroke-miterlimit:4;stroke-dasharray:none;stroke-opacity:0.00784314" />
          <path
             inkscape:connector-curvature="0"
             style="fill:none;fill-opacity:1;fill-rule:evenodd;stroke:#000000;stroke-width:1.4;stroke-linecap:round;stroke-linejoin:round;stroke-miterlimit:4;stroke-dasharray:none;stroke-opacity:0.00784314"
             d="m -32.220703,41.082031 -16,9.337891 v 4.666016 13.99414 l 15.998047,9.333984 v -0.0039 l 0.002,0.0039 16,-9.333984 V 55.082031 50.416016 l -0.0039,0.002 z"
             id="path4946" />
          <path
             inkscape:connector-curvature="0"
             id="path4948"
             d="m -32.220703,41.082031 -16,9.337891 v 4.666016 13.99414 l 15.998047,9.333984 v -0.0039 l 0.002,0.0039 16,-9.333984 V 55.082031 50.416016 l -0.0039,0.002 z"
             style="fill:none;fill-opacity:1;fill-rule:evenodd;stroke:#000000;stroke-width:1.5;stroke-linecap:round;stroke-linejoin:round;stroke-miterlimit:4;stroke-dasharray:none;stroke-opacity:0.00784314" />
          <path
             inkscape:connector-curvature="0"
             style="fill:none;fill-opacity:1;fill-rule:evenodd;stroke:#000000;stroke-width:1.6;stroke-linecap:round;stroke-linejoin:round;stroke-miterlimit:4;stroke-dasharray:none;stroke-opacity:0.00784314"
             d="m -32.220703,41.082031 -16,9.337891 v 4.666016 13.99414 l 15.998047,9.333984 v -0.0039 l 0.002,0.0039 16,-9.333984 V 55.082031 50.416016 l -0.0039,0.002 z"
             id="path4950" />
          <path
             inkscape:connector-curvature="0"
             id="path4952"
             d="m -32.220703,41.082031 -16,9.337891 v 4.666016 13.99414 l 15.998047,9.333984 v -0.0039 l 0.002,0.0039 16,-9.333984 V 55.082031 50.416016 l -0.0039,0.002 z"
             style="fill:none;fill-opacity:1;fill-rule:evenodd;stroke:#000000;stroke-width:1.8;stroke-linecap:round;stroke-linejoin:round;stroke-miterlimit:4;stroke-dasharray:none;stroke-opacity:0.00784314" />
          <path
             inkscape:connector-curvature="0"
             style="fill:none;fill-opacity:1;fill-rule:evenodd;stroke:#000000;stroke-width:2;stroke-linecap:round;stroke-linejoin:round;stroke-miterlimit:4;stroke-dasharray:none;stroke-opacity:0.00784314"
             d="m -32.220703,41.082031 -16,9.337891 v 4.666016 13.99414 l 15.998047,9.333984 v -0.0039 l 0.002,0.0039 16,-9.333984 V 55.082031 50.416016 l -0.0039,0.002 z"
             id="path4954" />
          <path
             inkscape:connector-curvature="0"
             id="path4956"
             d="m -32.220703,41.082031 -16,9.337891 v 4.666016 13.99414 l 15.998047,9.333984 v -0.0039 l 0.002,0.0039 16,-9.333984 V 55.082031 50.416016 l -0.0039,0.002 z"
             style="fill:none;fill-opacity:1;fill-rule:evenodd;stroke:#000000;stroke-width:2.2;stroke-linecap:round;stroke-linejoin:round;stroke-miterlimit:4;stroke-dasharray:none;stroke-opacity:0.00784314" />
          <path
             inkscape:connector-curvature="0"
             style="fill:none;fill-opacity:1;fill-rule:evenodd;stroke:#000000;stroke-width:2.4;stroke-linecap:round;stroke-linejoin:round;stroke-miterlimit:4;stroke-dasharray:none;stroke-opacity:0.00784314"
             d="m -32.220703,41.082031 -16,9.337891 v 4.666016 13.99414 l 15.998047,9.333984 v -0.0039 l 0.002,0.0039 16,-9.333984 V 55.082031 50.416016 l -0.0039,0.002 z"
             id="path4958" />
          <path
             inkscape:connector-curvature="0"
             id="path4960"
             d="m -32.220703,41.082031 -16,9.337891 v 4.666016 13.99414 l 15.998047,9.333984 v -0.0039 l 0.002,0.0039 16,-9.333984 V 55.082031 50.416016 l -0.0039,0.002 z"
             style="fill:none;fill-opacity:1;fill-rule:evenodd;stroke:#000000;stroke-width:2.6;stroke-linecap:round;stroke-linejoin:round;stroke-miterlimit:4;stroke-dasharray:none;stroke-opacity:0.00784314" />
          <path
             inkscape:connector-curvature="0"
             style="fill:none;fill-opacity:1;fill-rule:evenodd;stroke:#000000;stroke-width:2.8;stroke-linecap:round;stroke-linejoin:round;stroke-miterlimit:4;stroke-dasharray:none;stroke-opacity:0.00784314"
             d="m -32.220703,41.082031 -16,9.337891 v 4.666016 13.99414 l 15.998047,9.333984 v -0.0039 l 0.002,0.0039 16,-9.333984 V 55.082031 50.416016 l -0.0039,0.002 z"
             id="path4962" />
          <path
             inkscape:connector-curvature="0"
             id="path4964"
             d="m -32.220703,41.082031 -16,9.337891 v 4.666016 13.99414 l 15.998047,9.333984 v -0.0039 l 0.002,0.0039 16,-9.333984 V 55.082031 50.416016 l -0.0039,0.002 z"
             style="fill:none;fill-opacity:1;fill-rule:evenodd;stroke:#000000;stroke-width:3;stroke-linecap:round;stroke-linejoin:round;stroke-miterlimit:4;stroke-dasharray:none;stroke-opacity:0.00784314" />
          <path
             inkscape:connector-curvature="0"
             style="fill:none;fill-opacity:1;fill-rule:evenodd;stroke:#000000;stroke-width:3.2;stroke-linecap:round;stroke-linejoin:round;stroke-miterlimit:4;stroke-dasharray:none;stroke-opacity:0.00784314"
             d="m -32.220703,41.082031 -16,9.337891 v 4.666016 13.99414 l 15.998047,9.333984 v -0.0039 l 0.002,0.0039 16,-9.333984 V 55.082031 50.416016 l -0.0039,0.002 z"
             id="path4966" />
          <path
             inkscape:connector-curvature="0"
             id="path4968"
             d="m -32.220703,41.082031 -16,9.337891 v 4.666016 13.99414 l 15.998047,9.333984 v -0.0039 l 0.002,0.0039 16,-9.333984 V 55.082031 50.416016 l -0.0039,0.002 z"
             style="fill:none;fill-opacity:1;fill-rule:evenodd;stroke:#000000;stroke-width:3.4;stroke-linecap:round;stroke-linejoin:round;stroke-miterlimit:4;stroke-dasharray:none;stroke-opacity:0.00784314" />
          <path
             inkscape:connector-curvature="0"
             style="fill:none;fill-opacity:1;fill-rule:evenodd;stroke:#000000;stroke-width:3.7;stroke-linecap:round;stroke-linejoin:round;stroke-miterlimit:4;stroke-dasharray:none;stroke-opacity:0.00784314"
             d="m -32.220703,41.082031 -16,9.337891 v 4.666016 13.99414 l 15.998047,9.333984 v -0.0039 l 0.002,0.0039 16,-9.333984 V 55.082031 50.416016 l -0.0039,0.002 z"
             id="path4970" />
          <path
             inkscape:connector-curvature="0"
             id="path4972"
             d="m -32.220703,41.082031 -16,9.337891 v 4.666016 13.99414 l 15.998047,9.333984 v -0.0039 l 0.002,0.0039 16,-9.333984 V 55.082031 50.416016 l -0.0039,0.002 z"
             style="fill:none;fill-opacity:1;fill-rule:evenodd;stroke:#000000;stroke-width:4;stroke-linecap:round;stroke-linejoin:round;stroke-miterlimit:4;stroke-dasharray:none;stroke-opacity:0.00784314" />
          <path
             inkscape:connector-curvature="0"
             style="fill:none;fill-opacity:1;fill-rule:evenodd;stroke:#000000;stroke-width:4.3;stroke-linecap:round;stroke-linejoin:round;stroke-miterlimit:4;stroke-dasharray:none;stroke-opacity:0.00784314"
             d="m -32.220703,41.082031 -16,9.337891 v 4.666016 13.99414 l 15.998047,9.333984 v -0.0039 l 0.002,0.0039 16,-9.333984 V 55.082031 50.416016 l -0.0039,0.002 z"
             id="path4974" />
          <path
             inkscape:connector-curvature="0"
             id="path4976"
             d="m -32.220703,41.082031 -16,9.337891 v 4.666016 13.99414 l 15.998047,9.333984 v -0.0039 l 0.002,0.0039 16,-9.333984 V 55.082031 50.416016 l -0.0039,0.002 z"
             style="fill:none;fill-opacity:1;fill-rule:evenodd;stroke:#000000;stroke-width:4.6;stroke-linecap:round;stroke-linejoin:round;stroke-miterlimit:4;stroke-dasharray:none;stroke-opacity:0.00784314" />
          <path
             inkscape:connector-curvature="0"
             style="fill:none;fill-opacity:1;fill-rule:evenodd;stroke:#000000;stroke-width:4.9;stroke-linecap:round;stroke-linejoin:round;stroke-miterlimit:4;stroke-dasharray:none;stroke-opacity:0.00784314"
             d="m -32.220703,41.082031 -16,9.337891 v 4.666016 13.99414 l 15.998047,9.333984 v -0.0039 l 0.002,0.0039 16,-9.333984 V 55.082031 50.416016 l -0.0039,0.002 z"
             id="path4978" />
          <path
             inkscape:connector-curvature="0"
             id="path4980"
             d="m -32.220703,41.082031 -16,9.337891 v 4.666016 13.99414 l 15.998047,9.333984 v -0.0039 l 0.002,0.0039 16,-9.333984 V 55.082031 50.416016 l -0.0039,0.002 z"
             style="fill:none;fill-opacity:1;fill-rule:evenodd;stroke:#000000;stroke-width:5.2;stroke-linecap:round;stroke-linejoin:round;stroke-miterlimit:4;stroke-dasharray:none;stroke-opacity:0.00784314" />
          <path
             inkscape:connector-curvature="0"
             style="fill:none;fill-opacity:1;fill-rule:evenodd;stroke:#000000;stroke-width:5.5;stroke-linecap:round;stroke-linejoin:round;stroke-miterlimit:4;stroke-dasharray:none;stroke-opacity:0.00784314"
             d="m -32.220703,41.082031 -16,9.337891 v 4.666016 13.99414 l 15.998047,9.333984 v -0.0039 l 0.002,0.0039 16,-9.333984 V 55.082031 50.416016 l -0.0039,0.002 z"
             id="path4982" />
          <path
             inkscape:connector-curvature="0"
             id="path4984"
             d="m -32.220703,41.082031 -16,9.337891 v 4.666016 13.99414 l 15.998047,9.333984 v -0.0039 l 0.002,0.0039 16,-9.333984 V 55.082031 50.416016 l -0.0039,0.002 z"
             style="fill:none;fill-opacity:1;fill-rule:evenodd;stroke:#000000;stroke-width:5.8;stroke-linecap:round;stroke-linejoin:round;stroke-miterlimit:4;stroke-dasharray:none;stroke-opacity:0.00784314" />
        </g>
        <g
           id="g4813"
           transform="matrix(1.3035,0,0,1.317,28.810412,19.538989)"
           style="fill-rule:evenodd">
          <path
             style="fill:url(#e-3)"
             id="path4803"
             d="M 14.173,23.2 26.448,44.457 38.721,23.2 26.448,16.11"
             inkscape:connector-curvature="0" />
          <path
             id="path4805"
             d="m 14.173,23.2 v 3.543 l 12.274,7.09 0.001,-3.547 z"
             inkscape:connector-curvature="0"
             style="fill:#59a849" />
          <path
             id="path4807"
             d="M 26.448,33.827 38.722,26.74 v -3.543 l -12.274,7.086 z"
             inkscape:connector-curvature="0"
             style="fill:#3e7231" />
          <path
             style="fill:url(#a-5)"
             id="path4809"
             d="m 14.173,26.74 v 10.63 l 12.274,7.087 v -10.63 z"
             inkscape:connector-curvature="0" />
          <path
             id="path4811"
             d="M 26.448,33.827 38.722,26.74 v 10.63 l -12.274,7.087 z"
             inkscape:connector-curvature="0"
             style="fill:#573d2b" />
        </g>
      </g>
    </g>
  </g>
</svg>
