<?xml version="1.0" encoding="UTF-8" standalone="no"?>
<svg
   xmlns:dc="http://purl.org/dc/elements/1.1/"
   xmlns:cc="http://creativecommons.org/ns#"
   xmlns:rdf="http://www.w3.org/1999/02/22-rdf-syntax-ns#"
   xmlns:svg="http://www.w3.org/2000/svg"
   xmlns="http://www.w3.org/2000/svg"
   xmlns:xlink="http://www.w3.org/1999/xlink"
   xmlns:sodipodi="http://sodipodi.sourceforge.net/DTD/sodipodi-0.dtd"
   xmlns:inkscape="http://www.inkscape.org/namespaces/inkscape"
   width="128"
   height="128"
   viewBox="0 0 33.866666 33.866668"
   version="1.1"
   id="svg2117"
   inkscape:version="1.0.2 (e86c870879, 2021-01-15)"
   sodipodi:docname="motrix.svg">
  <defs
     id="defs2111">
    <linearGradient
       id="linearGradient1630"
       inkscape:collect="always">
      <stop
         id="stop1626"
         offset="0"
         style="stop-color:#846ddf;stop-opacity:1" />
      <stop
         id="stop1628"
         offset="1"
         style="stop-color:#c076d7;stop-opacity:1" />
    </linearGradient>
    <linearGradient
       id="linearGradient895">
      <stop
         id="stop3335"
         offset="0" />
      <stop
         id="stop3337"
         offset="1"
         stop-opacity="0" />
    </linearGradient>
    <linearGradient
       inkscape:collect="always"
       xlink:href="#linearGradient866"
       id="linearGradient953"
       gradientUnits="userSpaceOnUse"
       x1="429.37299"
       y1="323.75916"
       x2="329.28018"
       y2="253.72827"
       gradientTransform="translate(0.50513,0.505127)" />
    <linearGradient
       inkscape:collect="always"
       id="linearGradient866">
      <stop
         style="stop-color:#e5e7ef;stop-opacity:1"
         offset="0"
         id="stop862" />
      <stop
         style="stop-color:#ecedf3;stop-opacity:1"
         offset="1"
         id="stop864" />
    </linearGradient>
    <linearGradient
       inkscape:collect="always"
       xlink:href="#linearGradient858"
       id="linearGradient955"
       gradientUnits="userSpaceOnUse"
       x1="388.84134"
       y1="223.75237"
       x2="388.84134"
       y2="249.39394"
       gradientTransform="translate(0.50513,0.505127)" />
    <linearGradient
       inkscape:collect="always"
       id="linearGradient858">
      <stop
         style="stop-color:#141100;stop-opacity:1"
         offset="0"
         id="stop854" />
      <stop
         style="stop-color:#030200;stop-opacity:1"
         offset="1"
         id="stop856" />
    </linearGradient>
    <radialGradient
       inkscape:collect="always"
       xlink:href="#linearGradient1630"
       id="radialGradient968"
       cx="16.11978"
       cy="27.270945"
       fx="16.11978"
       fy="27.270945"
       r="14.54372"
       gradientUnits="userSpaceOnUse"
       gradientTransform="matrix(4.1118047,-4.1118047,1.5626524,1.5626524,-82.990512,51.088858)" />
  </defs>
  <sodipodi:namedview
     id="base"
     pagecolor="#ffffff"
     bordercolor="#666666"
     borderopacity="1.0"
     inkscape:pageopacity="0.0"
     inkscape:pageshadow="2"
     inkscape:zoom="1.979899"
     inkscape:cx="-95.272965"
     inkscape:cy="101.56835"
     inkscape:document-units="mm"
     inkscape:current-layer="layer1"
     inkscape:document-rotation="0"
     showgrid="false"
     units="px"
     inkscape:window-width="1920"
     inkscape:window-height="1031"
     inkscape:window-x="0"
     inkscape:window-y="24"
     inkscape:window-maximized="1"
     showguides="true"
     inkscape:guide-bbox="true" />
  <metadata
     id="metadata2114">
    <rdf:RDF>
      <cc:Work
         rdf:about="">
        <dc:format>image/svg+xml</dc:format>
        <dc:type
           rdf:resource="http://purl.org/dc/dcmitype/StillImage" />
        <dc:title></dc:title>
      </cc:Work>
    </rdf:RDF>
  </metadata>
  <g
     inkscape:label="Capa 1"
     inkscape:groupmode="layer"
     id="layer1">
    <g
       style="opacity:0.139618"
       transform="matrix(0.97573206,0,0,0.97573206,-65.829986,-36.914633)"
       id="g1702">
      <rect
         ry="6.6098609"
         rx="6.6098609"
         y="40.709618"
         x="69.839508"
         height="29.810888"
         width="29.810888"
         id="rect1634"
         style="fill:none;fill-opacity:1;stroke:#000000;stroke-width:0.1;stroke-linecap:round;stroke-linejoin:round;stroke-miterlimit:4;stroke-dasharray:none;stroke-opacity:0.02" />
      <rect
         style="fill:none;fill-opacity:1;stroke:#000000;stroke-width:0.2;stroke-linecap:round;stroke-linejoin:round;stroke-miterlimit:4;stroke-dasharray:none;stroke-opacity:0.02"
         id="rect1638"
         width="29.810888"
         height="29.810888"
         x="69.839508"
         y="40.709618"
         rx="6.6098609"
         ry="6.6098609" />
      <rect
         ry="6.6098609"
         rx="6.6098609"
         y="40.709618"
         x="69.839508"
         height="29.810888"
         width="29.810888"
         id="rect1640"
         style="fill:none;fill-opacity:1;stroke:#000000;stroke-width:0.3;stroke-linecap:round;stroke-linejoin:round;stroke-miterlimit:4;stroke-dasharray:none;stroke-opacity:0.02" />
      <rect
         style="fill:none;fill-opacity:1;stroke:#000000;stroke-width:0.4;stroke-linecap:round;stroke-linejoin:round;stroke-miterlimit:4;stroke-dasharray:none;stroke-opacity:0.02"
         id="rect1642"
         width="29.810888"
         height="29.810888"
         x="69.839508"
         y="40.709618"
         rx="6.6098609"
         ry="6.6098609" />
      <rect
         ry="6.6098609"
         rx="6.6098609"
         y="40.709618"
         x="69.839508"
         height="29.810888"
         width="29.810888"
         id="rect1644"
         style="fill:none;fill-opacity:1;stroke:#000000;stroke-width:0.5;stroke-linecap:round;stroke-linejoin:round;stroke-miterlimit:4;stroke-dasharray:none;stroke-opacity:0.02" />
      <rect
         style="fill:none;fill-opacity:1;stroke:#000000;stroke-width:0.6;stroke-linecap:round;stroke-linejoin:round;stroke-miterlimit:4;stroke-dasharray:none;stroke-opacity:0.02"
         id="rect1646"
         width="29.810888"
         height="29.810888"
         x="69.839508"
         y="40.709618"
         rx="6.6098609"
         ry="6.6098609" />
      <rect
         ry="6.6098609"
         rx="6.6098609"
         y="40.709618"
         x="69.839508"
         height="29.810888"
         width="29.810888"
         id="rect1648"
         style="fill:none;fill-opacity:1;stroke:#000000;stroke-width:0.7;stroke-linecap:round;stroke-linejoin:round;stroke-miterlimit:4;stroke-dasharray:none;stroke-opacity:0.02" />
      <rect
         style="fill:none;fill-opacity:1;stroke:#000000;stroke-width:0.8;stroke-linecap:round;stroke-linejoin:round;stroke-miterlimit:4;stroke-dasharray:none;stroke-opacity:0.02"
         id="rect1650"
         width="29.810888"
         height="29.810888"
         x="69.839508"
         y="40.709618"
         rx="6.6098609"
         ry="6.6098609" />
      <rect
         ry="6.6098609"
         rx="6.6098609"
         y="40.709618"
         x="69.839508"
         height="29.810888"
         width="29.810888"
         id="rect1652"
         style="fill:none;fill-opacity:1;stroke:#000000;stroke-width:1;stroke-linecap:round;stroke-linejoin:round;stroke-miterlimit:4;stroke-dasharray:none;stroke-opacity:0.02" />
      <rect
         style="fill:none;fill-opacity:1;stroke:#000000;stroke-width:1.2;stroke-linecap:round;stroke-linejoin:round;stroke-miterlimit:4;stroke-dasharray:none;stroke-opacity:0.02"
         id="rect1654"
         width="29.810888"
         height="29.810888"
         x="69.839508"
         y="40.709618"
         rx="6.6098609"
         ry="6.6098609" />
      <rect
         ry="6.6098609"
         rx="6.6098609"
         y="40.709618"
         x="69.839508"
         height="29.810888"
         width="29.810888"
         id="rect1656"
         style="fill:none;fill-opacity:1;stroke:#000000;stroke-width:1.4;stroke-linecap:round;stroke-linejoin:round;stroke-miterlimit:4;stroke-dasharray:none;stroke-opacity:0.02" />
      <rect
         style="fill:none;fill-opacity:1;stroke:#000000;stroke-width:1.6;stroke-linecap:round;stroke-linejoin:round;stroke-miterlimit:4;stroke-dasharray:none;stroke-opacity:0.02"
         id="rect1658"
         width="29.810888"
         height="29.810888"
         x="69.839508"
         y="40.709618"
         rx="6.6098609"
         ry="6.6098609" />
      <rect
         ry="6.6098609"
         rx="6.6098609"
         y="40.709618"
         x="69.839508"
         height="29.810888"
         width="29.810888"
         id="rect1660"
         style="fill:none;fill-opacity:1;stroke:#000000;stroke-width:1.8;stroke-linecap:round;stroke-linejoin:round;stroke-miterlimit:4;stroke-dasharray:none;stroke-opacity:0.02" />
      <rect
         style="fill:none;fill-opacity:1;stroke:#000000;stroke-width:2;stroke-linecap:round;stroke-linejoin:round;stroke-miterlimit:4;stroke-dasharray:none;stroke-opacity:0.02"
         id="rect1662"
         width="29.810888"
         height="29.810888"
         x="69.839508"
         y="40.709618"
         rx="6.6098609"
         ry="6.6098609" />
      <rect
         ry="6.6098609"
         rx="6.6098609"
         y="40.709618"
         x="69.839508"
         height="29.810888"
         width="29.810888"
         id="rect1664"
         style="fill:none;fill-opacity:1;stroke:#000000;stroke-width:2.2;stroke-linecap:round;stroke-linejoin:round;stroke-miterlimit:4;stroke-dasharray:none;stroke-opacity:0.02" />
      <rect
         style="fill:none;fill-opacity:1;stroke:#000000;stroke-width:2.6;stroke-linecap:round;stroke-linejoin:round;stroke-miterlimit:4;stroke-dasharray:none;stroke-opacity:0.02"
         id="rect1666"
         width="29.810888"
         height="29.810888"
         x="69.839508"
         y="40.709618"
         rx="6.6098609"
         ry="6.6098609" />
      <rect
         ry="6.6098609"
         rx="6.6098609"
         y="40.709618"
         x="69.839508"
         height="29.810888"
         width="29.810888"
         id="rect1668"
         style="fill:none;fill-opacity:1;stroke:#000000;stroke-width:3;stroke-linecap:round;stroke-linejoin:round;stroke-miterlimit:4;stroke-dasharray:none;stroke-opacity:0.02" />
      <rect
         style="fill:none;fill-opacity:1;stroke:#000000;stroke-width:3.4;stroke-linecap:round;stroke-linejoin:round;stroke-miterlimit:4;stroke-dasharray:none;stroke-opacity:0.02"
         id="rect1670"
         width="29.810888"
         height="29.810888"
         x="69.839508"
         y="40.709618"
         rx="6.6098609"
         ry="6.6098609" />
      <rect
         ry="6.6098609"
         rx="6.6098609"
         y="40.709618"
         x="69.839508"
         height="29.810888"
         width="29.810888"
         id="rect1672"
         style="fill:none;fill-opacity:1;stroke:#000000;stroke-width:3.8;stroke-linecap:round;stroke-linejoin:round;stroke-miterlimit:4;stroke-dasharray:none;stroke-opacity:0.02" />
      <rect
         style="fill:none;fill-opacity:1;stroke:#000000;stroke-width:4.2;stroke-linecap:round;stroke-linejoin:round;stroke-miterlimit:4;stroke-dasharray:none;stroke-opacity:0.02"
         id="rect1674"
         width="29.810888"
         height="29.810888"
         x="69.839508"
         y="40.709618"
         rx="6.6098609"
         ry="6.6098609" />
      <rect
         ry="6.6098609"
         rx="6.6098609"
         y="40.709618"
         x="69.839508"
         height="29.810888"
         width="29.810888"
         id="rect1676"
         style="fill:none;fill-opacity:1;stroke:#000000;stroke-width:4.6;stroke-linecap:round;stroke-linejoin:round;stroke-miterlimit:4;stroke-dasharray:none;stroke-opacity:0.02" />
      <rect
         style="fill:none;fill-opacity:1;stroke:#000000;stroke-width:5;stroke-linecap:round;stroke-linejoin:round;stroke-miterlimit:4;stroke-dasharray:none;stroke-opacity:0.02"
         id="rect1678"
         width="29.810888"
         height="29.810888"
         x="69.839508"
         y="40.709618"
         rx="6.6098609"
         ry="6.6098609" />
    </g>
    <rect
       style="fill:url(#radialGradient968);fill-opacity:1;stroke-width:2.68769;stroke-linecap:round;stroke-linejoin:round"
       id="rect910"
       width="29.08744"
       height="29.08744"
       x="2.2835085"
       y="2.4875498"
       rx="6.4494534"
       ry="6.4494534" />
    <path
       id="path972"
       style="fill:#2c32d7;fill-opacity:0.05869599;stroke-width:2.81585;stroke-linecap:square;stroke-linejoin:round;stroke-opacity:0.088083"
       d="M 40.238281 9.4023438 A 1.9316091 1.9316091 0 0 0 38.306641 11.333984 A 1.9316091 1.9316091 0 0 0 40.238281 13.265625 A 1.9316091 1.9316091 0 0 0 42.169922 11.333984 A 1.9316091 1.9316091 0 0 0 40.238281 9.4023438 z M 49.859375 9.4023438 A 1.9316091 1.9316091 0 0 0 47.927734 11.333984 A 1.9316091 1.9316091 0 0 0 49.859375 13.265625 A 1.9316091 1.9316091 0 0 0 51.791016 11.333984 A 1.9316091 1.9316091 0 0 0 49.859375 9.4023438 z M 59.480469 9.4023438 A 1.9316091 1.9316091 0 0 0 57.548828 11.333984 A 1.9316091 1.9316091 0 0 0 59.480469 13.265625 A 1.9316091 1.9316091 0 0 0 61.412109 11.333984 A 1.9316091 1.9316091 0 0 0 59.480469 9.4023438 z M 69.099609 9.4023438 A 1.9316091 1.9316091 0 0 0 67.167969 11.333984 A 1.9316091 1.9316091 0 0 0 69.099609 13.265625 A 1.9316091 1.9316091 0 0 0 71.03125 11.333984 A 1.9316091 1.9316091 0 0 0 69.099609 9.4023438 z M 78.720703 9.4023438 A 1.9316091 1.9316091 0 0 0 76.789062 11.333984 A 1.9316091 1.9316091 0 0 0 78.720703 13.265625 A 1.9316091 1.9316091 0 0 0 80.652344 11.333984 A 1.9316091 1.9316091 0 0 0 78.720703 9.4023438 z M 88.339844 9.4023438 A 1.9316091 1.9316091 0 0 0 86.408203 11.333984 A 1.9316091 1.9316091 0 0 0 88.339844 13.265625 A 1.9316091 1.9316091 0 0 0 90.271484 11.333984 A 1.9316091 1.9316091 0 0 0 88.339844 9.4023438 z M 31.15625 9.4785156 C 30.670825 9.5146615 30.189814 9.5630233 29.712891 9.6269531 A 1.9316091 1.9316091 0 0 0 28.6875 11.333984 A 1.9316091 1.9316091 0 0 0 30.619141 13.265625 A 1.9316091 1.9316091 0 0 0 32.550781 11.333984 A 1.9316091 1.9316091 0 0 0 31.15625 9.4785156 z M 97.142578 9.5839844 A 1.9316091 1.9316091 0 0 0 96.029297 11.333984 A 1.9316091 1.9316091 0 0 0 97.960938 13.265625 A 1.9316091 1.9316091 0 0 0 99.892578 11.333984 A 1.9316091 1.9316091 0 0 0 99.292969 9.9355469 C 98.58691 9.7862635 97.870157 9.6710822 97.142578 9.5839844 z M 22.914062 11.576172 C 21.952046 12.012194 21.022525 12.506248 20.132812 13.058594 A 1.9316091 1.9316091 0 0 0 20.998047 13.265625 A 1.9316091 1.9316091 0 0 0 22.914062 11.576172 z M 105.99023 12.429688 A 1.9316091 1.9316091 0 0 0 107.36719 13.253906 C 106.91762 12.965479 106.45954 12.688711 105.99023 12.429688 z M 20.998047 16.529297 A 1.9316091 1.9316091 0 0 0 19.066406 18.460938 A 1.9316091 1.9316091 0 0 0 20.998047 20.392578 A 1.9316091 1.9316091 0 0 0 22.929688 18.460938 A 1.9316091 1.9316091 0 0 0 20.998047 16.529297 z M 30.619141 16.529297 A 1.9316091 1.9316091 0 0 0 28.6875 18.460938 A 1.9316091 1.9316091 0 0 0 30.619141 20.392578 A 1.9316091 1.9316091 0 0 0 32.550781 18.460938 A 1.9316091 1.9316091 0 0 0 30.619141 16.529297 z M 40.238281 16.529297 A 1.9316091 1.9316091 0 0 0 38.306641 18.460938 A 1.9316091 1.9316091 0 0 0 40.238281 20.392578 A 1.9316091 1.9316091 0 0 0 42.169922 18.460938 A 1.9316091 1.9316091 0 0 0 40.238281 16.529297 z M 49.859375 16.529297 A 1.9316091 1.9316091 0 0 0 47.927734 18.460938 A 1.9316091 1.9316091 0 0 0 49.859375 20.392578 A 1.9316091 1.9316091 0 0 0 51.791016 18.460938 A 1.9316091 1.9316091 0 0 0 49.859375 16.529297 z M 59.480469 16.529297 A 1.9316091 1.9316091 0 0 0 57.548828 18.460938 A 1.9316091 1.9316091 0 0 0 59.480469 20.392578 A 1.9316091 1.9316091 0 0 0 61.412109 18.460938 A 1.9316091 1.9316091 0 0 0 59.480469 16.529297 z M 69.099609 16.529297 A 1.9316091 1.9316091 0 0 0 67.167969 18.460938 A 1.9316091 1.9316091 0 0 0 69.099609 20.392578 A 1.9316091 1.9316091 0 0 0 71.03125 18.460938 A 1.9316091 1.9316091 0 0 0 69.099609 16.529297 z M 78.720703 16.529297 A 1.9316091 1.9316091 0 0 0 76.789062 18.460938 A 1.9316091 1.9316091 0 0 0 78.720703 20.392578 A 1.9316091 1.9316091 0 0 0 80.652344 18.460938 A 1.9316091 1.9316091 0 0 0 78.720703 16.529297 z M 88.339844 16.529297 A 1.9316091 1.9316091 0 0 0 86.408203 18.460938 A 1.9316091 1.9316091 0 0 0 88.339844 20.392578 A 1.9316091 1.9316091 0 0 0 90.271484 18.460938 A 1.9316091 1.9316091 0 0 0 88.339844 16.529297 z M 97.960938 16.529297 A 1.9316091 1.9316091 0 0 0 96.029297 18.460938 A 1.9316091 1.9316091 0 0 0 97.960938 20.392578 A 1.9316091 1.9316091 0 0 0 99.892578 18.460938 A 1.9316091 1.9316091 0 0 0 97.960938 16.529297 z M 107.58008 16.529297 A 1.9316091 1.9316091 0 0 0 105.64844 18.460938 A 1.9316091 1.9316091 0 0 0 107.58008 20.392578 A 1.9316091 1.9316091 0 0 0 109.51172 18.460938 A 1.9316091 1.9316091 0 0 0 107.58008 16.529297 z M 11.378906 23.658203 A 1.9316091 1.9316091 0 0 0 10.773438 23.755859 C 10.365923 24.662669 10.005022 25.596233 9.7089844 26.558594 A 1.9316091 1.9316091 0 0 0 11.378906 27.521484 A 1.9316091 1.9316091 0 0 0 13.310547 25.589844 A 1.9316091 1.9316091 0 0 0 11.378906 23.658203 z M 20.998047 23.658203 A 1.9316091 1.9316091 0 0 0 19.066406 25.589844 A 1.9316091 1.9316091 0 0 0 20.998047 27.521484 A 1.9316091 1.9316091 0 0 0 22.929688 25.589844 A 1.9316091 1.9316091 0 0 0 20.998047 23.658203 z M 30.619141 23.658203 A 1.9316091 1.9316091 0 0 0 28.6875 25.589844 A 1.9316091 1.9316091 0 0 0 30.619141 27.521484 A 1.9316091 1.9316091 0 0 0 32.550781 25.589844 A 1.9316091 1.9316091 0 0 0 30.619141 23.658203 z M 40.238281 23.658203 A 1.9316091 1.9316091 0 0 0 38.306641 25.589844 A 1.9316091 1.9316091 0 0 0 40.238281 27.521484 A 1.9316091 1.9316091 0 0 0 42.169922 25.589844 A 1.9316091 1.9316091 0 0 0 40.238281 23.658203 z M 49.859375 23.658203 A 1.9316091 1.9316091 0 0 0 47.927734 25.589844 A 1.9316091 1.9316091 0 0 0 49.859375 27.521484 A 1.9316091 1.9316091 0 0 0 51.791016 25.589844 A 1.9316091 1.9316091 0 0 0 49.859375 23.658203 z M 59.480469 23.658203 A 1.9316091 1.9316091 0 0 0 57.548828 25.589844 A 1.9316091 1.9316091 0 0 0 59.480469 27.521484 A 1.9316091 1.9316091 0 0 0 61.412109 25.589844 A 1.9316091 1.9316091 0 0 0 59.480469 23.658203 z M 69.099609 23.658203 A 1.9316091 1.9316091 0 0 0 67.167969 25.589844 A 1.9316091 1.9316091 0 0 0 69.099609 27.521484 A 1.9316091 1.9316091 0 0 0 71.03125 25.589844 A 1.9316091 1.9316091 0 0 0 69.099609 23.658203 z M 78.720703 23.658203 A 1.9316091 1.9316091 0 0 0 76.789062 25.589844 A 1.9316091 1.9316091 0 0 0 78.720703 27.521484 A 1.9316091 1.9316091 0 0 0 80.652344 25.589844 A 1.9316091 1.9316091 0 0 0 78.720703 23.658203 z M 88.339844 23.658203 A 1.9316091 1.9316091 0 0 0 86.408203 25.589844 A 1.9316091 1.9316091 0 0 0 88.339844 27.521484 A 1.9316091 1.9316091 0 0 0 90.271484 25.589844 A 1.9316091 1.9316091 0 0 0 88.339844 23.658203 z M 97.960938 23.658203 A 1.9316091 1.9316091 0 0 0 96.029297 25.589844 A 1.9316091 1.9316091 0 0 0 97.960938 27.521484 A 1.9316091 1.9316091 0 0 0 99.892578 25.589844 A 1.9316091 1.9316091 0 0 0 97.960938 23.658203 z M 107.58008 23.658203 A 1.9316091 1.9316091 0 0 0 105.64844 25.589844 A 1.9316091 1.9316091 0 0 0 107.58008 27.521484 A 1.9316091 1.9316091 0 0 0 109.51172 25.589844 A 1.9316091 1.9316091 0 0 0 107.58008 23.658203 z M 116.44922 23.810547 A 1.9316091 1.9316091 0 0 0 115.26953 25.589844 A 1.9316091 1.9316091 0 0 0 117.20117 27.521484 A 1.9316091 1.9316091 0 0 0 117.73828 27.445312 C 117.40373 26.189938 116.96972 24.976471 116.44922 23.810547 z M 11.378906 30.785156 A 1.9316091 1.9316091 0 0 0 9.4472656 32.716797 A 1.9316091 1.9316091 0 0 0 11.378906 34.648438 A 1.9316091 1.9316091 0 0 0 13.310547 32.716797 A 1.9316091 1.9316091 0 0 0 11.378906 30.785156 z M 20.998047 30.785156 A 1.9316091 1.9316091 0 0 0 19.066406 32.716797 A 1.9316091 1.9316091 0 0 0 20.998047 34.648438 A 1.9316091 1.9316091 0 0 0 22.929688 32.716797 A 1.9316091 1.9316091 0 0 0 20.998047 30.785156 z M 30.619141 30.785156 A 1.9316091 1.9316091 0 0 0 28.6875 32.716797 A 1.9316091 1.9316091 0 0 0 30.619141 34.648438 A 1.9316091 1.9316091 0 0 0 32.550781 32.716797 A 1.9316091 1.9316091 0 0 0 30.619141 30.785156 z M 40.238281 30.785156 A 1.9316091 1.9316091 0 0 0 38.306641 32.716797 A 1.9316091 1.9316091 0 0 0 40.238281 34.648438 A 1.9316091 1.9316091 0 0 0 42.169922 32.716797 A 1.9316091 1.9316091 0 0 0 40.238281 30.785156 z M 49.859375 30.785156 A 1.9316091 1.9316091 0 0 0 47.927734 32.716797 A 1.9316091 1.9316091 0 0 0 49.859375 34.648438 A 1.9316091 1.9316091 0 0 0 51.791016 32.716797 A 1.9316091 1.9316091 0 0 0 49.859375 30.785156 z M 59.480469 30.785156 A 1.9316091 1.9316091 0 0 0 57.548828 32.716797 A 1.9316091 1.9316091 0 0 0 59.480469 34.648438 A 1.9316091 1.9316091 0 0 0 61.412109 32.716797 A 1.9316091 1.9316091 0 0 0 59.480469 30.785156 z M 69.099609 30.785156 A 1.9316091 1.9316091 0 0 0 67.167969 32.716797 A 1.9316091 1.9316091 0 0 0 69.099609 34.648438 A 1.9316091 1.9316091 0 0 0 71.03125 32.716797 A 1.9316091 1.9316091 0 0 0 69.099609 30.785156 z M 78.720703 30.785156 A 1.9316091 1.9316091 0 0 0 76.789062 32.716797 A 1.9316091 1.9316091 0 0 0 78.720703 34.648438 A 1.9316091 1.9316091 0 0 0 80.652344 32.716797 A 1.9316091 1.9316091 0 0 0 78.720703 30.785156 z M 88.339844 30.785156 A 1.9316091 1.9316091 0 0 0 86.408203 32.716797 A 1.9316091 1.9316091 0 0 0 88.339844 34.648438 A 1.9316091 1.9316091 0 0 0 90.271484 32.716797 A 1.9316091 1.9316091 0 0 0 88.339844 30.785156 z M 97.960938 30.785156 A 1.9316091 1.9316091 0 0 0 96.029297 32.716797 A 1.9316091 1.9316091 0 0 0 97.960938 34.648438 A 1.9316091 1.9316091 0 0 0 99.892578 32.716797 A 1.9316091 1.9316091 0 0 0 97.960938 30.785156 z M 107.58008 30.785156 A 1.9316091 1.9316091 0 0 0 105.64844 32.716797 A 1.9316091 1.9316091 0 0 0 107.58008 34.648438 A 1.9316091 1.9316091 0 0 0 109.51172 32.716797 A 1.9316091 1.9316091 0 0 0 107.58008 30.785156 z M 117.20117 30.785156 A 1.9316091 1.9316091 0 0 0 115.26953 32.716797 A 1.9316091 1.9316091 0 0 0 117.20117 34.648438 A 1.9316091 1.9316091 0 0 0 118.56641 34.082031 L 118.56641 33.777344 C 118.56641 32.916488 118.52177 32.067794 118.43555 31.230469 A 1.9316091 1.9316091 0 0 0 117.20117 30.785156 z M 11.378906 37.914062 A 1.9316091 1.9316091 0 0 0 9.4472656 39.845703 A 1.9316091 1.9316091 0 0 0 11.378906 41.777344 A 1.9316091 1.9316091 0 0 0 13.310547 39.845703 A 1.9316091 1.9316091 0 0 0 11.378906 37.914062 z M 20.998047 37.914062 A 1.9316091 1.9316091 0 0 0 19.066406 39.845703 A 1.9316091 1.9316091 0 0 0 20.998047 41.777344 A 1.9316091 1.9316091 0 0 0 22.929688 39.845703 A 1.9316091 1.9316091 0 0 0 20.998047 37.914062 z M 30.619141 37.914062 A 1.9316091 1.9316091 0 0 0 28.6875 39.845703 A 1.9316091 1.9316091 0 0 0 30.619141 41.777344 A 1.9316091 1.9316091 0 0 0 32.550781 39.845703 A 1.9316091 1.9316091 0 0 0 30.619141 37.914062 z M 40.238281 37.914062 A 1.9316091 1.9316091 0 0 0 38.306641 39.845703 A 1.9316091 1.9316091 0 0 0 40.238281 41.777344 A 1.9316091 1.9316091 0 0 0 42.169922 39.845703 A 1.9316091 1.9316091 0 0 0 40.238281 37.914062 z M 49.859375 37.914062 A 1.9316091 1.9316091 0 0 0 47.927734 39.845703 A 1.9316091 1.9316091 0 0 0 49.859375 41.777344 A 1.9316091 1.9316091 0 0 0 51.791016 39.845703 A 1.9316091 1.9316091 0 0 0 49.859375 37.914062 z M 59.480469 37.914062 A 1.9316091 1.9316091 0 0 0 57.548828 39.845703 A 1.9316091 1.9316091 0 0 0 59.480469 41.777344 A 1.9316091 1.9316091 0 0 0 61.412109 39.845703 A 1.9316091 1.9316091 0 0 0 59.480469 37.914062 z M 69.099609 37.914062 A 1.9316091 1.9316091 0 0 0 67.167969 39.845703 A 1.9316091 1.9316091 0 0 0 69.099609 41.777344 A 1.9316091 1.9316091 0 0 0 71.03125 39.845703 A 1.9316091 1.9316091 0 0 0 69.099609 37.914062 z M 78.720703 37.914062 A 1.9316091 1.9316091 0 0 0 76.789062 39.845703 A 1.9316091 1.9316091 0 0 0 78.720703 41.777344 A 1.9316091 1.9316091 0 0 0 80.652344 39.845703 A 1.9316091 1.9316091 0 0 0 78.720703 37.914062 z M 88.339844 37.914062 A 1.9316091 1.9316091 0 0 0 86.408203 39.845703 A 1.9316091 1.9316091 0 0 0 88.339844 41.777344 A 1.9316091 1.9316091 0 0 0 90.271484 39.845703 A 1.9316091 1.9316091 0 0 0 88.339844 37.914062 z M 97.960938 37.914062 A 1.9316091 1.9316091 0 0 0 96.029297 39.845703 A 1.9316091 1.9316091 0 0 0 97.960938 41.777344 A 1.9316091 1.9316091 0 0 0 99.892578 39.845703 A 1.9316091 1.9316091 0 0 0 97.960938 37.914062 z M 107.58008 37.914062 A 1.9316091 1.9316091 0 0 0 105.64844 39.845703 A 1.9316091 1.9316091 0 0 0 107.58008 41.777344 A 1.9316091 1.9316091 0 0 0 109.51172 39.845703 A 1.9316091 1.9316091 0 0 0 107.58008 37.914062 z M 117.20117 37.914062 A 1.9316091 1.9316091 0 0 0 115.26953 39.845703 A 1.9316091 1.9316091 0 0 0 117.20117 41.777344 A 1.9316091 1.9316091 0 0 0 118.56641 41.210938 L 118.56641 38.478516 A 1.9316091 1.9316091 0 0 0 117.20117 37.914062 z M 11.378906 45.041016 A 1.9316091 1.9316091 0 0 0 9.4472656 46.972656 A 1.9316091 1.9316091 0 0 0 11.378906 48.904297 A 1.9316091 1.9316091 0 0 0 13.310547 46.972656 A 1.9316091 1.9316091 0 0 0 11.378906 45.041016 z M 20.998047 45.041016 A 1.9316091 1.9316091 0 0 0 19.066406 46.972656 A 1.9316091 1.9316091 0 0 0 20.998047 48.904297 A 1.9316091 1.9316091 0 0 0 22.929688 46.972656 A 1.9316091 1.9316091 0 0 0 20.998047 45.041016 z M 30.619141 45.041016 A 1.9316091 1.9316091 0 0 0 28.6875 46.972656 A 1.9316091 1.9316091 0 0 0 30.619141 48.904297 A 1.9316091 1.9316091 0 0 0 32.550781 46.972656 A 1.9316091 1.9316091 0 0 0 30.619141 45.041016 z M 40.238281 45.041016 A 1.9316091 1.9316091 0 0 0 38.306641 46.972656 A 1.9316091 1.9316091 0 0 0 40.238281 48.904297 A 1.9316091 1.9316091 0 0 0 42.169922 46.972656 A 1.9316091 1.9316091 0 0 0 40.238281 45.041016 z M 49.859375 45.041016 A 1.9316091 1.9316091 0 0 0 47.927734 46.972656 A 1.9316091 1.9316091 0 0 0 49.859375 48.904297 A 1.9316091 1.9316091 0 0 0 51.791016 46.972656 A 1.9316091 1.9316091 0 0 0 49.859375 45.041016 z M 59.480469 45.041016 A 1.9316091 1.9316091 0 0 0 57.548828 46.972656 A 1.9316091 1.9316091 0 0 0 59.480469 48.904297 A 1.9316091 1.9316091 0 0 0 61.412109 46.972656 A 1.9316091 1.9316091 0 0 0 59.480469 45.041016 z M 69.099609 45.041016 A 1.9316091 1.9316091 0 0 0 67.167969 46.972656 A 1.9316091 1.9316091 0 0 0 69.099609 48.904297 A 1.9316091 1.9316091 0 0 0 71.03125 46.972656 A 1.9316091 1.9316091 0 0 0 69.099609 45.041016 z M 78.720703 45.041016 A 1.9316091 1.9316091 0 0 0 76.789062 46.972656 A 1.9316091 1.9316091 0 0 0 78.720703 48.904297 A 1.9316091 1.9316091 0 0 0 80.652344 46.972656 A 1.9316091 1.9316091 0 0 0 78.720703 45.041016 z M 88.339844 45.041016 A 1.9316091 1.9316091 0 0 0 86.408203 46.972656 A 1.9316091 1.9316091 0 0 0 88.339844 48.904297 A 1.9316091 1.9316091 0 0 0 90.271484 46.972656 A 1.9316091 1.9316091 0 0 0 88.339844 45.041016 z M 97.960938 45.041016 A 1.9316091 1.9316091 0 0 0 96.029297 46.972656 A 1.9316091 1.9316091 0 0 0 97.960938 48.904297 A 1.9316091 1.9316091 0 0 0 99.892578 46.972656 A 1.9316091 1.9316091 0 0 0 97.960938 45.041016 z M 107.58008 45.041016 A 1.9316091 1.9316091 0 0 0 105.64844 46.972656 A 1.9316091 1.9316091 0 0 0 107.58008 48.904297 A 1.9316091 1.9316091 0 0 0 109.51172 46.972656 A 1.9316091 1.9316091 0 0 0 107.58008 45.041016 z M 117.20117 45.041016 A 1.9316091 1.9316091 0 0 0 115.26953 46.972656 A 1.9316091 1.9316091 0 0 0 117.20117 48.904297 A 1.9316091 1.9316091 0 0 0 118.56641 48.337891 L 118.56641 45.605469 A 1.9316091 1.9316091 0 0 0 117.20117 45.041016 z M 11.378906 52.169922 A 1.9316091 1.9316091 0 0 0 9.4472656 54.099609 A 1.9316091 1.9316091 0 0 0 11.378906 56.03125 A 1.9316091 1.9316091 0 0 0 13.310547 54.099609 A 1.9316091 1.9316091 0 0 0 11.378906 52.169922 z M 20.998047 52.169922 A 1.9316091 1.9316091 0 0 0 19.066406 54.099609 A 1.9316091 1.9316091 0 0 0 20.998047 56.03125 A 1.9316091 1.9316091 0 0 0 22.929688 54.099609 A 1.9316091 1.9316091 0 0 0 20.998047 52.169922 z M 30.619141 52.169922 A 1.9316091 1.9316091 0 0 0 28.6875 54.099609 A 1.9316091 1.9316091 0 0 0 30.619141 56.03125 A 1.9316091 1.9316091 0 0 0 32.550781 54.099609 A 1.9316091 1.9316091 0 0 0 30.619141 52.169922 z M 40.238281 52.169922 A 1.9316091 1.9316091 0 0 0 38.306641 54.099609 A 1.9316091 1.9316091 0 0 0 40.238281 56.03125 A 1.9316091 1.9316091 0 0 0 42.169922 54.099609 A 1.9316091 1.9316091 0 0 0 40.238281 52.169922 z M 49.859375 52.169922 A 1.9316091 1.9316091 0 0 0 47.927734 54.099609 A 1.9316091 1.9316091 0 0 0 49.859375 56.03125 A 1.9316091 1.9316091 0 0 0 51.791016 54.099609 A 1.9316091 1.9316091 0 0 0 49.859375 52.169922 z M 59.480469 52.169922 A 1.9316091 1.9316091 0 0 0 57.548828 54.099609 A 1.9316091 1.9316091 0 0 0 59.480469 56.03125 A 1.9316091 1.9316091 0 0 0 61.412109 54.099609 A 1.9316091 1.9316091 0 0 0 59.480469 52.169922 z M 69.099609 52.169922 A 1.9316091 1.9316091 0 0 0 67.167969 54.099609 A 1.9316091 1.9316091 0 0 0 69.099609 56.03125 A 1.9316091 1.9316091 0 0 0 71.03125 54.099609 A 1.9316091 1.9316091 0 0 0 69.099609 52.169922 z M 78.720703 52.169922 A 1.9316091 1.9316091 0 0 0 76.789062 54.099609 A 1.9316091 1.9316091 0 0 0 78.720703 56.03125 A 1.9316091 1.9316091 0 0 0 80.652344 54.099609 A 1.9316091 1.9316091 0 0 0 78.720703 52.169922 z M 88.339844 52.169922 A 1.9316091 1.9316091 0 0 0 86.408203 54.099609 A 1.9316091 1.9316091 0 0 0 88.339844 56.03125 A 1.9316091 1.9316091 0 0 0 90.271484 54.099609 A 1.9316091 1.9316091 0 0 0 88.339844 52.169922 z M 97.960938 52.169922 A 1.9316091 1.9316091 0 0 0 96.029297 54.099609 A 1.9316091 1.9316091 0 0 0 97.960938 56.03125 A 1.9316091 1.9316091 0 0 0 99.892578 54.099609 A 1.9316091 1.9316091 0 0 0 97.960938 52.169922 z M 107.58008 52.169922 A 1.9316091 1.9316091 0 0 0 105.64844 54.099609 A 1.9316091 1.9316091 0 0 0 107.58008 56.03125 A 1.9316091 1.9316091 0 0 0 109.51172 54.099609 A 1.9316091 1.9316091 0 0 0 107.58008 52.169922 z M 117.20117 52.169922 A 1.9316091 1.9316091 0 0 0 115.26953 54.099609 A 1.9316091 1.9316091 0 0 0 117.20117 56.03125 A 1.9316091 1.9316091 0 0 0 118.56641 55.464844 L 118.56641 52.734375 A 1.9316091 1.9316091 0 0 0 117.20117 52.169922 z M 11.378906 59.296875 A 1.9316091 1.9316091 0 0 0 9.4472656 61.228516 A 1.9316091 1.9316091 0 0 0 11.378906 63.160156 A 1.9316091 1.9316091 0 0 0 13.310547 61.228516 A 1.9316091 1.9316091 0 0 0 11.378906 59.296875 z M 20.998047 59.296875 A 1.9316091 1.9316091 0 0 0 19.066406 61.228516 A 1.9316091 1.9316091 0 0 0 20.998047 63.160156 A 1.9316091 1.9316091 0 0 0 22.929688 61.228516 A 1.9316091 1.9316091 0 0 0 20.998047 59.296875 z M 30.619141 59.296875 A 1.9316091 1.9316091 0 0 0 28.6875 61.228516 A 1.9316091 1.9316091 0 0 0 30.619141 63.160156 A 1.9316091 1.9316091 0 0 0 32.550781 61.228516 A 1.9316091 1.9316091 0 0 0 30.619141 59.296875 z M 40.238281 59.296875 A 1.9316091 1.9316091 0 0 0 38.306641 61.228516 A 1.9316091 1.9316091 0 0 0 40.238281 63.160156 A 1.9316091 1.9316091 0 0 0 42.169922 61.228516 A 1.9316091 1.9316091 0 0 0 40.238281 59.296875 z M 49.859375 59.296875 A 1.9316091 1.9316091 0 0 0 47.927734 61.228516 A 1.9316091 1.9316091 0 0 0 49.859375 63.160156 A 1.9316091 1.9316091 0 0 0 51.791016 61.228516 A 1.9316091 1.9316091 0 0 0 49.859375 59.296875 z M 59.480469 59.296875 A 1.9316091 1.9316091 0 0 0 57.548828 61.228516 A 1.9316091 1.9316091 0 0 0 59.480469 63.160156 A 1.9316091 1.9316091 0 0 0 61.412109 61.228516 A 1.9316091 1.9316091 0 0 0 59.480469 59.296875 z M 69.099609 59.296875 A 1.9316091 1.9316091 0 0 0 67.167969 61.228516 A 1.9316091 1.9316091 0 0 0 69.099609 63.160156 A 1.9316091 1.9316091 0 0 0 71.03125 61.228516 A 1.9316091 1.9316091 0 0 0 69.099609 59.296875 z M 78.720703 59.296875 A 1.9316091 1.9316091 0 0 0 76.789062 61.228516 A 1.9316091 1.9316091 0 0 0 78.720703 63.160156 A 1.9316091 1.9316091 0 0 0 80.652344 61.228516 A 1.9316091 1.9316091 0 0 0 78.720703 59.296875 z M 88.339844 59.296875 A 1.9316091 1.9316091 0 0 0 86.408203 61.228516 A 1.9316091 1.9316091 0 0 0 88.339844 63.160156 A 1.9316091 1.9316091 0 0 0 90.271484 61.228516 A 1.9316091 1.9316091 0 0 0 88.339844 59.296875 z M 97.960938 59.296875 A 1.9316091 1.9316091 0 0 0 96.029297 61.228516 A 1.9316091 1.9316091 0 0 0 97.960938 63.160156 A 1.9316091 1.9316091 0 0 0 99.892578 61.228516 A 1.9316091 1.9316091 0 0 0 97.960938 59.296875 z M 107.58008 59.296875 A 1.9316091 1.9316091 0 0 0 105.64844 61.228516 A 1.9316091 1.9316091 0 0 0 107.58008 63.160156 A 1.9316091 1.9316091 0 0 0 109.51172 61.228516 A 1.9316091 1.9316091 0 0 0 107.58008 59.296875 z M 117.20117 59.296875 A 1.9316091 1.9316091 0 0 0 115.26953 61.228516 A 1.9316091 1.9316091 0 0 0 117.20117 63.160156 A 1.9316091 1.9316091 0 0 0 118.56641 62.59375 L 118.56641 59.861328 A 1.9316091 1.9316091 0 0 0 117.20117 59.296875 z M 11.378906 66.423828 A 1.9316091 1.9316091 0 0 0 9.4472656 68.355469 A 1.9316091 1.9316091 0 0 0 11.378906 70.287109 A 1.9316091 1.9316091 0 0 0 13.310547 68.355469 A 1.9316091 1.9316091 0 0 0 11.378906 66.423828 z M 20.998047 66.423828 A 1.9316091 1.9316091 0 0 0 19.066406 68.355469 A 1.9316091 1.9316091 0 0 0 20.998047 70.287109 A 1.9316091 1.9316091 0 0 0 22.929688 68.355469 A 1.9316091 1.9316091 0 0 0 20.998047 66.423828 z M 30.619141 66.423828 A 1.9316091 1.9316091 0 0 0 28.6875 68.355469 A 1.9316091 1.9316091 0 0 0 30.619141 70.287109 A 1.9316091 1.9316091 0 0 0 32.550781 68.355469 A 1.9316091 1.9316091 0 0 0 30.619141 66.423828 z M 40.238281 66.423828 A 1.9316091 1.9316091 0 0 0 38.306641 68.355469 A 1.9316091 1.9316091 0 0 0 40.238281 70.287109 A 1.9316091 1.9316091 0 0 0 42.169922 68.355469 A 1.9316091 1.9316091 0 0 0 40.238281 66.423828 z M 49.859375 66.423828 A 1.9316091 1.9316091 0 0 0 47.927734 68.355469 A 1.9316091 1.9316091 0 0 0 49.859375 70.287109 A 1.9316091 1.9316091 0 0 0 51.791016 68.355469 A 1.9316091 1.9316091 0 0 0 49.859375 66.423828 z M 59.480469 66.423828 A 1.9316091 1.9316091 0 0 0 57.548828 68.355469 A 1.9316091 1.9316091 0 0 0 59.480469 70.287109 A 1.9316091 1.9316091 0 0 0 61.412109 68.355469 A 1.9316091 1.9316091 0 0 0 59.480469 66.423828 z M 69.099609 66.423828 A 1.9316091 1.9316091 0 0 0 67.167969 68.355469 A 1.9316091 1.9316091 0 0 0 69.099609 70.287109 A 1.9316091 1.9316091 0 0 0 71.03125 68.355469 A 1.9316091 1.9316091 0 0 0 69.099609 66.423828 z M 78.720703 66.423828 A 1.9316091 1.9316091 0 0 0 76.789062 68.355469 A 1.9316091 1.9316091 0 0 0 78.720703 70.287109 A 1.9316091 1.9316091 0 0 0 80.652344 68.355469 A 1.9316091 1.9316091 0 0 0 78.720703 66.423828 z M 88.339844 66.423828 A 1.9316091 1.9316091 0 0 0 86.408203 68.355469 A 1.9316091 1.9316091 0 0 0 88.339844 70.287109 A 1.9316091 1.9316091 0 0 0 90.271484 68.355469 A 1.9316091 1.9316091 0 0 0 88.339844 66.423828 z M 97.960938 66.423828 A 1.9316091 1.9316091 0 0 0 96.029297 68.355469 A 1.9316091 1.9316091 0 0 0 97.960938 70.287109 A 1.9316091 1.9316091 0 0 0 99.892578 68.355469 A 1.9316091 1.9316091 0 0 0 97.960938 66.423828 z M 107.58008 66.423828 A 1.9316091 1.9316091 0 0 0 105.64844 68.355469 A 1.9316091 1.9316091 0 0 0 107.58008 70.287109 A 1.9316091 1.9316091 0 0 0 109.51172 68.355469 A 1.9316091 1.9316091 0 0 0 107.58008 66.423828 z M 117.20117 66.423828 A 1.9316091 1.9316091 0 0 0 115.26953 68.355469 A 1.9316091 1.9316091 0 0 0 117.20117 70.287109 A 1.9316091 1.9316091 0 0 0 118.56641 69.720703 L 118.56641 66.988281 A 1.9316091 1.9316091 0 0 0 117.20117 66.423828 z M 11.378906 73.552734 A 1.9316091 1.9316091 0 0 0 9.4472656 75.484375 A 1.9316091 1.9316091 0 0 0 11.378906 77.416016 A 1.9316091 1.9316091 0 0 0 13.310547 75.484375 A 1.9316091 1.9316091 0 0 0 11.378906 73.552734 z M 20.998047 73.552734 A 1.9316091 1.9316091 0 0 0 19.066406 75.484375 A 1.9316091 1.9316091 0 0 0 20.998047 77.416016 A 1.9316091 1.9316091 0 0 0 22.929688 75.484375 A 1.9316091 1.9316091 0 0 0 20.998047 73.552734 z M 30.619141 73.552734 A 1.9316091 1.9316091 0 0 0 28.6875 75.484375 A 1.9316091 1.9316091 0 0 0 30.619141 77.416016 A 1.9316091 1.9316091 0 0 0 32.550781 75.484375 A 1.9316091 1.9316091 0 0 0 30.619141 73.552734 z M 40.238281 73.552734 A 1.9316091 1.9316091 0 0 0 38.306641 75.484375 A 1.9316091 1.9316091 0 0 0 40.238281 77.416016 A 1.9316091 1.9316091 0 0 0 42.169922 75.484375 A 1.9316091 1.9316091 0 0 0 40.238281 73.552734 z M 49.859375 73.552734 A 1.9316091 1.9316091 0 0 0 47.927734 75.484375 A 1.9316091 1.9316091 0 0 0 49.859375 77.416016 A 1.9316091 1.9316091 0 0 0 51.791016 75.484375 A 1.9316091 1.9316091 0 0 0 49.859375 73.552734 z M 59.480469 73.552734 A 1.9316091 1.9316091 0 0 0 57.548828 75.484375 A 1.9316091 1.9316091 0 0 0 59.480469 77.416016 A 1.9316091 1.9316091 0 0 0 61.412109 75.484375 A 1.9316091 1.9316091 0 0 0 59.480469 73.552734 z M 69.099609 73.552734 A 1.9316091 1.9316091 0 0 0 67.167969 75.484375 A 1.9316091 1.9316091 0 0 0 69.099609 77.416016 A 1.9316091 1.9316091 0 0 0 71.03125 75.484375 A 1.9316091 1.9316091 0 0 0 69.099609 73.552734 z M 78.720703 73.552734 A 1.9316091 1.9316091 0 0 0 76.789062 75.484375 A 1.9316091 1.9316091 0 0 0 78.720703 77.416016 A 1.9316091 1.9316091 0 0 0 80.652344 75.484375 A 1.9316091 1.9316091 0 0 0 78.720703 73.552734 z M 88.339844 73.552734 A 1.9316091 1.9316091 0 0 0 86.408203 75.484375 A 1.9316091 1.9316091 0 0 0 88.339844 77.416016 A 1.9316091 1.9316091 0 0 0 90.271484 75.484375 A 1.9316091 1.9316091 0 0 0 88.339844 73.552734 z M 97.960938 73.552734 A 1.9316091 1.9316091 0 0 0 96.029297 75.484375 A 1.9316091 1.9316091 0 0 0 97.960938 77.416016 A 1.9316091 1.9316091 0 0 0 99.892578 75.484375 A 1.9316091 1.9316091 0 0 0 97.960938 73.552734 z M 107.58008 73.552734 A 1.9316091 1.9316091 0 0 0 105.64844 75.484375 A 1.9316091 1.9316091 0 0 0 107.58008 77.416016 A 1.9316091 1.9316091 0 0 0 109.51172 75.484375 A 1.9316091 1.9316091 0 0 0 107.58008 73.552734 z M 117.20117 73.552734 A 1.9316091 1.9316091 0 0 0 115.26953 75.484375 A 1.9316091 1.9316091 0 0 0 117.20117 77.416016 A 1.9316091 1.9316091 0 0 0 118.56641 76.849609 L 118.56641 74.117188 A 1.9316091 1.9316091 0 0 0 117.20117 73.552734 z M 11.378906 80.679688 A 1.9316091 1.9316091 0 0 0 9.4472656 82.611328 A 1.9316091 1.9316091 0 0 0 11.378906 84.542969 A 1.9316091 1.9316091 0 0 0 13.310547 82.611328 A 1.9316091 1.9316091 0 0 0 11.378906 80.679688 z M 20.998047 80.679688 A 1.9316091 1.9316091 0 0 0 19.066406 82.611328 A 1.9316091 1.9316091 0 0 0 20.998047 84.542969 A 1.9316091 1.9316091 0 0 0 22.929688 82.611328 A 1.9316091 1.9316091 0 0 0 20.998047 80.679688 z M 30.619141 80.679688 A 1.9316091 1.9316091 0 0 0 28.6875 82.611328 A 1.9316091 1.9316091 0 0 0 30.619141 84.542969 A 1.9316091 1.9316091 0 0 0 32.550781 82.611328 A 1.9316091 1.9316091 0 0 0 30.619141 80.679688 z M 40.238281 80.679688 A 1.9316091 1.9316091 0 0 0 38.306641 82.611328 A 1.9316091 1.9316091 0 0 0 40.238281 84.542969 A 1.9316091 1.9316091 0 0 0 42.169922 82.611328 A 1.9316091 1.9316091 0 0 0 40.238281 80.679688 z M 49.859375 80.679688 A 1.9316091 1.9316091 0 0 0 47.927734 82.611328 A 1.9316091 1.9316091 0 0 0 49.859375 84.542969 A 1.9316091 1.9316091 0 0 0 51.791016 82.611328 A 1.9316091 1.9316091 0 0 0 49.859375 80.679688 z M 59.480469 80.679688 A 1.9316091 1.9316091 0 0 0 57.548828 82.611328 A 1.9316091 1.9316091 0 0 0 59.480469 84.542969 A 1.9316091 1.9316091 0 0 0 61.412109 82.611328 A 1.9316091 1.9316091 0 0 0 59.480469 80.679688 z M 69.099609 80.679688 A 1.9316091 1.9316091 0 0 0 67.167969 82.611328 A 1.9316091 1.9316091 0 0 0 69.099609 84.542969 A 1.9316091 1.9316091 0 0 0 71.03125 82.611328 A 1.9316091 1.9316091 0 0 0 69.099609 80.679688 z M 78.720703 80.679688 A 1.9316091 1.9316091 0 0 0 76.789062 82.611328 A 1.9316091 1.9316091 0 0 0 78.720703 84.542969 A 1.9316091 1.9316091 0 0 0 80.652344 82.611328 A 1.9316091 1.9316091 0 0 0 78.720703 80.679688 z M 88.339844 80.679688 A 1.9316091 1.9316091 0 0 0 86.408203 82.611328 A 1.9316091 1.9316091 0 0 0 88.339844 84.542969 A 1.9316091 1.9316091 0 0 0 90.271484 82.611328 A 1.9316091 1.9316091 0 0 0 88.339844 80.679688 z M 97.960938 80.679688 A 1.9316091 1.9316091 0 0 0 96.029297 82.611328 A 1.9316091 1.9316091 0 0 0 97.960938 84.542969 A 1.9316091 1.9316091 0 0 0 99.892578 82.611328 A 1.9316091 1.9316091 0 0 0 97.960938 80.679688 z M 107.58008 80.679688 A 1.9316091 1.9316091 0 0 0 105.64844 82.611328 A 1.9316091 1.9316091 0 0 0 107.58008 84.542969 A 1.9316091 1.9316091 0 0 0 109.51172 82.611328 A 1.9316091 1.9316091 0 0 0 107.58008 80.679688 z M 117.20117 80.679688 A 1.9316091 1.9316091 0 0 0 115.26953 82.611328 A 1.9316091 1.9316091 0 0 0 117.20117 84.542969 A 1.9316091 1.9316091 0 0 0 118.56641 83.976562 L 118.56641 81.244141 A 1.9316091 1.9316091 0 0 0 117.20117 80.679688 z M 11.378906 87.808594 A 1.9316091 1.9316091 0 0 0 9.4472656 89.740234 A 1.9316091 1.9316091 0 0 0 11.378906 91.671875 A 1.9316091 1.9316091 0 0 0 13.310547 89.740234 A 1.9316091 1.9316091 0 0 0 11.378906 87.808594 z M 20.998047 87.808594 A 1.9316091 1.9316091 0 0 0 19.066406 89.740234 A 1.9316091 1.9316091 0 0 0 20.998047 91.671875 A 1.9316091 1.9316091 0 0 0 22.929688 89.740234 A 1.9316091 1.9316091 0 0 0 20.998047 87.808594 z M 30.619141 87.808594 A 1.9316091 1.9316091 0 0 0 28.6875 89.740234 A 1.9316091 1.9316091 0 0 0 30.619141 91.671875 A 1.9316091 1.9316091 0 0 0 32.550781 89.740234 A 1.9316091 1.9316091 0 0 0 30.619141 87.808594 z M 40.238281 87.808594 A 1.9316091 1.9316091 0 0 0 38.306641 89.740234 A 1.9316091 1.9316091 0 0 0 40.238281 91.671875 A 1.9316091 1.9316091 0 0 0 42.169922 89.740234 A 1.9316091 1.9316091 0 0 0 40.238281 87.808594 z M 49.859375 87.808594 A 1.9316091 1.9316091 0 0 0 47.927734 89.740234 A 1.9316091 1.9316091 0 0 0 49.859375 91.671875 A 1.9316091 1.9316091 0 0 0 51.791016 89.740234 A 1.9316091 1.9316091 0 0 0 49.859375 87.808594 z M 59.480469 87.808594 A 1.9316091 1.9316091 0 0 0 57.548828 89.740234 A 1.9316091 1.9316091 0 0 0 59.480469 91.671875 A 1.9316091 1.9316091 0 0 0 61.412109 89.740234 A 1.9316091 1.9316091 0 0 0 59.480469 87.808594 z M 69.099609 87.808594 A 1.9316091 1.9316091 0 0 0 67.167969 89.740234 A 1.9316091 1.9316091 0 0 0 69.099609 91.671875 A 1.9316091 1.9316091 0 0 0 71.03125 89.740234 A 1.9316091 1.9316091 0 0 0 69.099609 87.808594 z M 78.720703 87.808594 A 1.9316091 1.9316091 0 0 0 76.789062 89.740234 A 1.9316091 1.9316091 0 0 0 78.720703 91.671875 A 1.9316091 1.9316091 0 0 0 80.652344 89.740234 A 1.9316091 1.9316091 0 0 0 78.720703 87.808594 z M 88.339844 87.808594 A 1.9316091 1.9316091 0 0 0 86.408203 89.740234 A 1.9316091 1.9316091 0 0 0 88.339844 91.671875 A 1.9316091 1.9316091 0 0 0 90.271484 89.740234 A 1.9316091 1.9316091 0 0 0 88.339844 87.808594 z M 97.960938 87.808594 A 1.9316091 1.9316091 0 0 0 96.029297 89.740234 A 1.9316091 1.9316091 0 0 0 97.960938 91.671875 A 1.9316091 1.9316091 0 0 0 99.892578 89.740234 A 1.9316091 1.9316091 0 0 0 97.960938 87.808594 z M 107.58008 87.808594 A 1.9316091 1.9316091 0 0 0 105.64844 89.740234 A 1.9316091 1.9316091 0 0 0 107.58008 91.671875 A 1.9316091 1.9316091 0 0 0 109.51172 89.740234 A 1.9316091 1.9316091 0 0 0 107.58008 87.808594 z M 117.20117 87.808594 A 1.9316091 1.9316091 0 0 0 115.26953 89.740234 A 1.9316091 1.9316091 0 0 0 117.20117 91.671875 A 1.9316091 1.9316091 0 0 0 118.56641 91.105469 L 118.56641 88.373047 A 1.9316091 1.9316091 0 0 0 117.20117 87.808594 z M 11.378906 94.935547 A 1.9316091 1.9316091 0 0 0 9.4472656 96.867188 A 1.9316091 1.9316091 0 0 0 11.378906 98.798828 A 1.9316091 1.9316091 0 0 0 13.310547 96.867188 A 1.9316091 1.9316091 0 0 0 11.378906 94.935547 z M 20.998047 94.935547 A 1.9316091 1.9316091 0 0 0 19.066406 96.867188 A 1.9316091 1.9316091 0 0 0 20.998047 98.798828 A 1.9316091 1.9316091 0 0 0 22.929688 96.867188 A 1.9316091 1.9316091 0 0 0 20.998047 94.935547 z M 30.619141 94.935547 A 1.9316091 1.9316091 0 0 0 28.6875 96.867188 A 1.9316091 1.9316091 0 0 0 30.619141 98.798828 A 1.9316091 1.9316091 0 0 0 32.550781 96.867188 A 1.9316091 1.9316091 0 0 0 30.619141 94.935547 z M 40.238281 94.935547 A 1.9316091 1.9316091 0 0 0 38.306641 96.867188 A 1.9316091 1.9316091 0 0 0 40.238281 98.798828 A 1.9316091 1.9316091 0 0 0 42.169922 96.867188 A 1.9316091 1.9316091 0 0 0 40.238281 94.935547 z M 49.859375 94.935547 A 1.9316091 1.9316091 0 0 0 47.927734 96.867188 A 1.9316091 1.9316091 0 0 0 49.859375 98.798828 A 1.9316091 1.9316091 0 0 0 51.791016 96.867188 A 1.9316091 1.9316091 0 0 0 49.859375 94.935547 z M 59.480469 94.935547 A 1.9316091 1.9316091 0 0 0 57.548828 96.867188 A 1.9316091 1.9316091 0 0 0 59.480469 98.798828 A 1.9316091 1.9316091 0 0 0 61.412109 96.867188 A 1.9316091 1.9316091 0 0 0 59.480469 94.935547 z M 69.099609 94.935547 A 1.9316091 1.9316091 0 0 0 67.167969 96.867188 A 1.9316091 1.9316091 0 0 0 69.099609 98.798828 A 1.9316091 1.9316091 0 0 0 71.03125 96.867188 A 1.9316091 1.9316091 0 0 0 69.099609 94.935547 z M 78.720703 94.935547 A 1.9316091 1.9316091 0 0 0 76.789062 96.867188 A 1.9316091 1.9316091 0 0 0 78.720703 98.798828 A 1.9316091 1.9316091 0 0 0 80.652344 96.867188 A 1.9316091 1.9316091 0 0 0 78.720703 94.935547 z M 88.339844 94.935547 A 1.9316091 1.9316091 0 0 0 86.408203 96.867188 A 1.9316091 1.9316091 0 0 0 88.339844 98.798828 A 1.9316091 1.9316091 0 0 0 90.271484 96.867188 A 1.9316091 1.9316091 0 0 0 88.339844 94.935547 z M 97.960938 94.935547 A 1.9316091 1.9316091 0 0 0 96.029297 96.867188 A 1.9316091 1.9316091 0 0 0 97.960938 98.798828 A 1.9316091 1.9316091 0 0 0 99.892578 96.867188 A 1.9316091 1.9316091 0 0 0 97.960938 94.935547 z M 107.58008 94.935547 A 1.9316091 1.9316091 0 0 0 105.64844 96.867188 A 1.9316091 1.9316091 0 0 0 107.58008 98.798828 A 1.9316091 1.9316091 0 0 0 109.51172 96.867188 A 1.9316091 1.9316091 0 0 0 107.58008 94.935547 z M 117.20117 94.935547 A 1.9316091 1.9316091 0 0 0 115.26953 96.867188 A 1.9316091 1.9316091 0 0 0 117.20117 98.798828 A 1.9316091 1.9316091 0 0 0 118.31836 98.443359 C 118.45566 97.475677 118.53168 96.489838 118.55273 95.488281 A 1.9316091 1.9316091 0 0 0 117.20117 94.935547 z M 11.378906 102.06445 A 1.9316091 1.9316091 0 0 0 9.9003906 102.75391 C 10.266526 103.84647 10.706693 104.90344 11.216797 105.91992 A 1.9316091 1.9316091 0 0 0 11.378906 105.92773 A 1.9316091 1.9316091 0 0 0 13.310547 103.99609 A 1.9316091 1.9316091 0 0 0 11.378906 102.06445 z M 20.998047 102.06445 A 1.9316091 1.9316091 0 0 0 19.066406 103.99609 A 1.9316091 1.9316091 0 0 0 20.998047 105.92773 A 1.9316091 1.9316091 0 0 0 22.929688 103.99609 A 1.9316091 1.9316091 0 0 0 20.998047 102.06445 z M 30.619141 102.06445 A 1.9316091 1.9316091 0 0 0 28.6875 103.99609 A 1.9316091 1.9316091 0 0 0 30.619141 105.92773 A 1.9316091 1.9316091 0 0 0 32.550781 103.99609 A 1.9316091 1.9316091 0 0 0 30.619141 102.06445 z M 40.238281 102.06445 A 1.9316091 1.9316091 0 0 0 38.306641 103.99609 A 1.9316091 1.9316091 0 0 0 40.238281 105.92773 A 1.9316091 1.9316091 0 0 0 42.169922 103.99609 A 1.9316091 1.9316091 0 0 0 40.238281 102.06445 z M 49.859375 102.06445 A 1.9316091 1.9316091 0 0 0 47.927734 103.99609 A 1.9316091 1.9316091 0 0 0 49.859375 105.92773 A 1.9316091 1.9316091 0 0 0 51.791016 103.99609 A 1.9316091 1.9316091 0 0 0 49.859375 102.06445 z M 59.480469 102.06445 A 1.9316091 1.9316091 0 0 0 57.548828 103.99609 A 1.9316091 1.9316091 0 0 0 59.480469 105.92773 A 1.9316091 1.9316091 0 0 0 61.412109 103.99609 A 1.9316091 1.9316091 0 0 0 59.480469 102.06445 z M 69.099609 102.06445 A 1.9316091 1.9316091 0 0 0 67.167969 103.99609 A 1.9316091 1.9316091 0 0 0 69.099609 105.92773 A 1.9316091 1.9316091 0 0 0 71.03125 103.99609 A 1.9316091 1.9316091 0 0 0 69.099609 102.06445 z M 78.720703 102.06445 A 1.9316091 1.9316091 0 0 0 76.789062 103.99609 A 1.9316091 1.9316091 0 0 0 78.720703 105.92773 A 1.9316091 1.9316091 0 0 0 80.652344 103.99609 A 1.9316091 1.9316091 0 0 0 78.720703 102.06445 z M 88.339844 102.06445 A 1.9316091 1.9316091 0 0 0 86.408203 103.99609 A 1.9316091 1.9316091 0 0 0 88.339844 105.92773 A 1.9316091 1.9316091 0 0 0 90.271484 103.99609 A 1.9316091 1.9316091 0 0 0 88.339844 102.06445 z M 97.960938 102.06445 A 1.9316091 1.9316091 0 0 0 96.029297 103.99609 A 1.9316091 1.9316091 0 0 0 97.960938 105.92773 A 1.9316091 1.9316091 0 0 0 99.892578 103.99609 A 1.9316091 1.9316091 0 0 0 97.960938 102.06445 z M 107.58008 102.06445 A 1.9316091 1.9316091 0 0 0 105.64844 103.99609 A 1.9316091 1.9316091 0 0 0 107.58008 105.92773 A 1.9316091 1.9316091 0 0 0 109.51172 103.99609 A 1.9316091 1.9316091 0 0 0 107.58008 102.06445 z M 117.20117 102.06445 A 1.9316091 1.9316091 0 0 0 115.26953 103.99609 A 1.9316091 1.9316091 0 0 0 116.14062 105.60742 C 116.68542 104.48133 117.14491 103.30555 117.51367 102.08984 A 1.9316091 1.9316091 0 0 0 117.20117 102.06445 z M 20.998047 109.19141 A 1.9316091 1.9316091 0 0 0 19.066406 111.12305 A 1.9316091 1.9316091 0 0 0 20.998047 113.05469 A 1.9316091 1.9316091 0 0 0 22.929688 111.12305 A 1.9316091 1.9316091 0 0 0 20.998047 109.19141 z M 30.619141 109.19141 A 1.9316091 1.9316091 0 0 0 28.6875 111.12305 A 1.9316091 1.9316091 0 0 0 30.619141 113.05469 A 1.9316091 1.9316091 0 0 0 32.550781 111.12305 A 1.9316091 1.9316091 0 0 0 30.619141 109.19141 z M 40.238281 109.19141 A 1.9316091 1.9316091 0 0 0 38.306641 111.12305 A 1.9316091 1.9316091 0 0 0 40.238281 113.05469 A 1.9316091 1.9316091 0 0 0 42.169922 111.12305 A 1.9316091 1.9316091 0 0 0 40.238281 109.19141 z M 49.859375 109.19141 A 1.9316091 1.9316091 0 0 0 47.927734 111.12305 A 1.9316091 1.9316091 0 0 0 49.859375 113.05469 A 1.9316091 1.9316091 0 0 0 51.791016 111.12305 A 1.9316091 1.9316091 0 0 0 49.859375 109.19141 z M 59.480469 109.19141 A 1.9316091 1.9316091 0 0 0 57.548828 111.12305 A 1.9316091 1.9316091 0 0 0 59.480469 113.05469 A 1.9316091 1.9316091 0 0 0 61.412109 111.12305 A 1.9316091 1.9316091 0 0 0 59.480469 109.19141 z M 69.099609 109.19141 A 1.9316091 1.9316091 0 0 0 67.167969 111.12305 A 1.9316091 1.9316091 0 0 0 69.099609 113.05469 A 1.9316091 1.9316091 0 0 0 71.03125 111.12305 A 1.9316091 1.9316091 0 0 0 69.099609 109.19141 z M 78.720703 109.19141 A 1.9316091 1.9316091 0 0 0 76.789062 111.12305 A 1.9316091 1.9316091 0 0 0 78.720703 113.05469 A 1.9316091 1.9316091 0 0 0 80.652344 111.12305 A 1.9316091 1.9316091 0 0 0 78.720703 109.19141 z M 88.339844 109.19141 A 1.9316091 1.9316091 0 0 0 86.408203 111.12305 A 1.9316091 1.9316091 0 0 0 88.339844 113.05469 A 1.9316091 1.9316091 0 0 0 90.271484 111.12305 A 1.9316091 1.9316091 0 0 0 88.339844 109.19141 z M 97.960938 109.19141 A 1.9316091 1.9316091 0 0 0 96.029297 111.12305 A 1.9316091 1.9316091 0 0 0 97.960938 113.05469 A 1.9316091 1.9316091 0 0 0 99.892578 111.12305 A 1.9316091 1.9316091 0 0 0 97.960938 109.19141 z M 107.58008 109.19141 A 1.9316091 1.9316091 0 0 0 105.64844 111.12305 A 1.9316091 1.9316091 0 0 0 107.58008 113.05469 A 1.9316091 1.9316091 0 0 0 109.51172 111.12305 A 1.9316091 1.9316091 0 0 0 107.58008 109.19141 z M 30.619141 116.32031 A 1.9316091 1.9316091 0 0 0 28.6875 118.25195 A 1.9316091 1.9316091 0 0 0 28.832031 118.97852 C 29.940376 119.16839 31.0734 119.28242 32.228516 119.31836 A 1.9316091 1.9316091 0 0 0 32.550781 118.25195 A 1.9316091 1.9316091 0 0 0 30.619141 116.32031 z M 40.238281 116.32031 A 1.9316091 1.9316091 0 0 0 38.306641 118.25195 A 1.9316091 1.9316091 0 0 0 38.642578 119.33789 L 41.835938 119.33789 A 1.9316091 1.9316091 0 0 0 42.169922 118.25195 A 1.9316091 1.9316091 0 0 0 40.238281 116.32031 z M 49.859375 116.32031 A 1.9316091 1.9316091 0 0 0 47.927734 118.25195 A 1.9316091 1.9316091 0 0 0 48.263672 119.33789 L 51.457031 119.33789 A 1.9316091 1.9316091 0 0 0 51.791016 118.25195 A 1.9316091 1.9316091 0 0 0 49.859375 116.32031 z M 59.480469 116.32031 A 1.9316091 1.9316091 0 0 0 57.548828 118.25195 A 1.9316091 1.9316091 0 0 0 57.884766 119.33789 L 61.078125 119.33789 A 1.9316091 1.9316091 0 0 0 61.412109 118.25195 A 1.9316091 1.9316091 0 0 0 59.480469 116.32031 z M 69.099609 116.32031 A 1.9316091 1.9316091 0 0 0 67.167969 118.25195 A 1.9316091 1.9316091 0 0 0 67.503906 119.33789 L 70.697266 119.33789 A 1.9316091 1.9316091 0 0 0 71.03125 118.25195 A 1.9316091 1.9316091 0 0 0 69.099609 116.32031 z M 78.720703 116.32031 A 1.9316091 1.9316091 0 0 0 76.789062 118.25195 A 1.9316091 1.9316091 0 0 0 77.125 119.33789 L 80.318359 119.33789 A 1.9316091 1.9316091 0 0 0 80.652344 118.25195 A 1.9316091 1.9316091 0 0 0 78.720703 116.32031 z M 88.339844 116.32031 A 1.9316091 1.9316091 0 0 0 86.408203 118.25195 A 1.9316091 1.9316091 0 0 0 86.744141 119.33789 L 89.9375 119.33789 A 1.9316091 1.9316091 0 0 0 90.271484 118.25195 A 1.9316091 1.9316091 0 0 0 88.339844 116.32031 z M 97.960938 116.32031 A 1.9316091 1.9316091 0 0 0 96.029297 118.25195 A 1.9316091 1.9316091 0 0 0 96.302734 119.24219 C 97.511508 119.13934 98.692706 118.94921 99.84375 118.67773 A 1.9316091 1.9316091 0 0 0 99.892578 118.25195 A 1.9316091 1.9316091 0 0 0 97.960938 116.32031 z M 21.253906 116.33789 C 21.635304 116.54728 22.020457 116.75022 22.414062 116.93945 A 1.9316091 1.9316091 0 0 0 21.253906 116.33789 z "
       transform="scale(0.26458333)" />
    <g
       id="g1012"
       transform="matrix(0.13671394,0,0,0.13671394,-35.288723,-21.598018)">
      <g
         id="g919"
         style="opacity:0.264478"
         transform="translate(0.50515747,0.50512695)">
        <rect
           style="fill:#000000;fill-opacity:0.055063;stroke-width:4.01704;stroke-linecap:square;stroke-linejoin:round;stroke-opacity:0.088083"
           id="rect888"
           width="119.10062"
           height="119.10062"
           x="320.44876"
           y="221.8"
           rx="8.9582758"
           ry="8.9582758" />
        <rect
           style="fill:#000000;fill-opacity:0.055063;stroke-width:4.03919;stroke-linecap:square;stroke-linejoin:round;stroke-opacity:0.088083"
           id="rect890"
           width="119.75747"
           height="119.75747"
           x="320.44876"
           y="221.8"
           rx="9.0076818"
           ry="9.0076818" />
        <rect
           style="fill:#000000;fill-opacity:0.055063;stroke-width:4.06374;stroke-linecap:square;stroke-linejoin:round;stroke-opacity:0.088083"
           id="rect892"
           width="120.48548"
           height="120.48548"
           x="320.44876"
           y="221.8"
           rx="9.0624399"
           ry="9.0624399" />
        <rect
           style="fill:#000000;fill-opacity:0.055063;stroke-width:4.0872;stroke-linecap:square;stroke-linejoin:round;stroke-opacity:0.088083"
           id="rect894"
           width="121.18118"
           height="121.18118"
           x="320.44876"
           y="221.8"
           rx="9.114768"
           ry="9.114768" />
        <rect
           style="fill:#000000;fill-opacity:0.055063;stroke-width:4.11092;stroke-linecap:square;stroke-linejoin:round;stroke-opacity:0.088083"
           id="rect896"
           width="121.88459"
           height="121.88459"
           x="320.44876"
           y="221.8"
           rx="9.167675"
           ry="9.167675" />
        <rect
           style="fill:#000000;fill-opacity:0.055063;stroke-width:4.13803;stroke-linecap:square;stroke-linejoin:round;stroke-opacity:0.088083"
           id="rect898"
           width="122.68851"
           height="122.68851"
           x="320.44876"
           y="221.8"
           rx="9.2281427"
           ry="9.2281427" />
        <rect
           style="fill:#000000;fill-opacity:0.055063;stroke-width:4.17048;stroke-linecap:square;stroke-linejoin:round;stroke-opacity:0.088083"
           id="rect900"
           width="123.65051"
           height="123.65051"
           x="320.44876"
           y="221.8"
           rx="9.3004999"
           ry="9.3004999" />
        <rect
           style="fill:#000000;fill-opacity:0.055063;stroke-width:4.20917;stroke-linecap:square;stroke-linejoin:round;stroke-opacity:0.088083"
           id="rect902"
           width="124.79766"
           height="124.79766"
           x="320.44876"
           y="221.8"
           rx="9.3867836"
           ry="9.3867836" />
      </g>
      <g
         id="g990"
         style="opacity:0.147349">
        <rect
           style="fill:#000000;fill-opacity:0.103014;stroke-width:4.04128;stroke-linecap:square;stroke-linejoin:round;stroke-opacity:0.088083"
           id="rect971"
           width="119.81927"
           height="119.81927"
           x="319.73013"
           y="221.08136"
           rx="9.0123291"
           ry="9.0123291" />
        <rect
           style="fill:#000000;fill-opacity:0.103014;stroke-width:4.08951;stroke-linecap:square;stroke-linejoin:round;stroke-opacity:0.088083"
           id="rect975"
           width="121.24927"
           height="121.24927"
           x="318.30014"
           y="219.65135"
           rx="9.1198883"
           ry="9.1198883" />
        <rect
           style="fill:#000000;fill-opacity:0.103014;stroke-width:4.14492;stroke-linecap:square;stroke-linejoin:round;stroke-opacity:0.088083"
           id="rect977"
           width="122.89222"
           height="122.89222"
           x="316.65717"
           y="218.00839"
           rx="9.2434654"
           ry="9.2434654" />
      </g>
      <g
         id="g985"
         transform="translate(3.0517578e-5)">
        <rect
           style="fill:url(#linearGradient953);fill-opacity:1;stroke-width:4;stroke-linecap:square;stroke-linejoin:round;stroke-opacity:0.088083"
           id="rect931"
           width="118.5955"
           height="118.5955"
           x="320.95389"
           y="222.30513"
           rx="8.9202824"
           ry="8.9202824" />
        <path
           id="path933"
           style="fill:url(#linearGradient955);fill-opacity:1;stroke-width:4;stroke-linecap:square;stroke-linejoin:round;stroke-opacity:0.088083"
           d="m 342.44879,222.30591 v 20.39649 c 0,3.74884 3.01873,6.76757 6.76758,6.76757 h 62.07031 c 3.74884,0 6.76758,-3.01873 6.76758,-6.76757 v -20.39649 z" />
        <g
           id="g939"
           transform="translate(137.6757,0.505127)">
          <rect
             style="fill:#fae404;fill-opacity:1;stroke-width:4;stroke-linecap:square;stroke-linejoin:round;stroke-opacity:0.088083"
             id="rect935"
             width="16.247383"
             height="7.6116118"
             x="222.44423"
             y="230.8842"
             rx="3.8058059"
             ry="3.8058059" />
          <rect
             style="fill:#fae404;fill-opacity:1;stroke-width:4;stroke-linecap:square;stroke-linejoin:round;stroke-opacity:0.088083"
             id="rect937"
             width="16.247383"
             height="7.6116118"
             x="246.46027"
             y="230.8842"
             rx="3.8058059"
             ry="3.8058059" />
        </g>
        <path
           id="path943"
           style="color:#000000;font-style:normal;font-variant:normal;font-weight:normal;font-stretch:normal;font-size:medium;line-height:normal;font-family:sans-serif;font-variant-ligatures:normal;font-variant-position:normal;font-variant-caps:normal;font-variant-numeric:normal;font-variant-alternates:normal;font-variant-east-asian:normal;font-feature-settings:normal;font-variation-settings:normal;text-indent:0;text-align:start;text-decoration:none;text-decoration-line:none;text-decoration-style:solid;text-decoration-color:#000000;letter-spacing:normal;word-spacing:normal;text-transform:none;writing-mode:lr-tb;direction:ltr;text-orientation:mixed;dominant-baseline:auto;baseline-shift:baseline;text-anchor:start;white-space:normal;shape-padding:0;shape-margin:0;inline-size:0;clip-rule:nonzero;display:inline;overflow:visible;visibility:visible;isolation:auto;mix-blend-mode:normal;color-interpolation:sRGB;color-interpolation-filters:linearRGB;solid-color:#000000;solid-opacity:1;vector-effect:none;fill:#9aa0aa;fill-opacity:1;fill-rule:nonzero;stroke:none;stroke-width:1.26;stroke-linecap:butt;stroke-linejoin:miter;stroke-miterlimit:4;stroke-dasharray:none;stroke-dashoffset:0;stroke-opacity:1;color-rendering:auto;image-rendering:auto;shape-rendering:auto;text-rendering:auto;enable-background:accumulate;stop-color:#000000"
           d="m 376.11755,317.82542 c -1.08079,0 -2.04458,0.33178 -2.70898,0.83008 -0.6644,0.4983 -1.02149,1.12832 -1.02149,1.80859 v 9.17969 h 3.09961 v -8.71875 h 5.61914 v 8.71875 h 3.09961 v -8.71875 h 5.61914 v 8.71875 h 3.09961 v -9.17969 c 0,-0.68027 -0.35708,-1.31029 -1.02148,-1.80859 -0.6644,-0.4983 -1.62624,-0.83008 -2.70703,-0.83008 z m 34.875,0 c -1.08078,0 -2.04263,0.33178 -2.70703,0.83008 -0.6644,0.4983 -1.02148,1.12832 -1.02148,1.80859 v 6.54102 c 0,0.68028 0.35708,1.31029 1.02148,1.80859 0.6644,0.4983 1.62625,0.83008 2.70703,0.83008 h 13.07813 c 1.08078,0 2.04458,-0.33178 2.70898,-0.83008 0.6644,-0.4983 1.02149,-1.12831 1.02149,-1.80859 v -6.54102 c 0,-0.68027 -0.35709,-1.31029 -1.02149,-1.80859 -0.6644,-0.4983 -1.6282,-0.83008 -2.70898,-0.83008 z m -0.6289,3.09961 h 14.33789 v 5.61914 h -14.33789 v -4.99023 z m -10.26954,1.25977 c -0.86946,0 -1.54882,0.67937 -1.54882,1.54882 0,0.86946 0.67936,1.55079 1.54882,1.55079 0.86946,0 1.55079,-0.68133 1.55079,-1.55079 0,-0.86945 -0.68133,-1.54882 -1.55079,-1.54882 z" />
      </g>
    </g>
  </g>
</svg>
