<?xml version="1.0" encoding="UTF-8" standalone="no"?>
<svg
   xmlns:dc="http://purl.org/dc/elements/1.1/"
   xmlns:cc="http://creativecommons.org/ns#"
   xmlns:rdf="http://www.w3.org/1999/02/22-rdf-syntax-ns#"
   xmlns:svg="http://www.w3.org/2000/svg"
   xmlns="http://www.w3.org/2000/svg"
   xmlns:xlink="http://www.w3.org/1999/xlink"
   xmlns:sodipodi="http://sodipodi.sourceforge.net/DTD/sodipodi-0.dtd"
   xmlns:inkscape="http://www.inkscape.org/namespaces/inkscape"
   width="128"
   height="128"
   viewBox="0 0 33.866666 33.866668"
   version="1.1"
   id="svg1773"
   inkscape:version="1.0.1 (3bc2e813f5, 2020-09-07)"
   sodipodi:docname="DCE4_EXCEL.0.svg">
  <defs
     id="defs1767">
    <linearGradient
       gradientUnits="userSpaceOnUse"
       y2="11.317847"
       x2="18.473099"
       y1="31.367924"
       x1="18.473099"
       id="linearGradient2993"
       xlink:href="#linearGradient2991"
       inkscape:collect="always"
       gradientTransform="translate(0.07996951,-0.04315471)" />
    <linearGradient
       id="linearGradient2991"
       inkscape:collect="always">
      <stop
         id="stop2987"
         offset="0"
         style="stop-color:#edfaf3;stop-opacity:1" />
      <stop
         id="stop2989"
         offset="1"
         style="stop-color:#fafafa;stop-opacity:1" />
    </linearGradient>
    <linearGradient
       id="id63"
       gradientUnits="userSpaceOnUse"
       x1="15989.48"
       y1="6228.1201"
       x2="14465.46"
       y2="5429.5601">
      <stop
         offset="0"
         style="stop-opacity:1; stop-color:#159857"
         id="stop1751" />
      <stop
         offset="1"
         style="stop-opacity:1; stop-color:#0D7A46"
         id="stop1753" />
    </linearGradient>
    <linearGradient
       id="id15"
       gradientUnits="userSpaceOnUse"
       x1="17846.039"
       y1="6228.1201"
       x2="16322.02"
       y2="5429.5601">
      <stop
         offset="0"
         style="stop-opacity:1; stop-color:#2CDD93"
         id="stop1529" />
      <stop
         offset="1"
         style="stop-opacity:1; stop-color:#13AB63"
         id="stop1531" />
    </linearGradient>
    <linearGradient
       id="id61"
       gradientUnits="userSpaceOnUse"
       x1="15983.9"
       y1="7303.0698"
       x2="14471.04"
       y2="6496.8901">
      <stop
         offset="0"
         style="stop-opacity:1; stop-color:#14874C"
         id="stop1741" />
      <stop
         offset="1"
         style="stop-opacity:1; stop-color:#0A6E3C"
         id="stop1743" />
    </linearGradient>
    <linearGradient
       id="id13"
       gradientUnits="userSpaceOnUse"
       x1="17840.461"
       y1="7303.0698"
       x2="16327.6"
       y2="6496.8901">
      <stop
         offset="0"
         style="stop-opacity:1; stop-color:#22D885"
         id="stop1519" />
      <stop
         offset="1"
         style="stop-opacity:1; stop-color:#1B9457"
         id="stop1521" />
    </linearGradient>
    <linearGradient
       id="id64"
       gradientUnits="userSpaceOnUse"
       x1="15983.9"
       y1="8365.1104"
       x2="14471.04"
       y2="7558.9302">
      <stop
         offset="0"
         style="stop-opacity:1; stop-color:#164A2C"
         id="stop1756" />
      <stop
         offset="1"
         style="stop-opacity:1; stop-color:#113E26"
         id="stop1758" />
    </linearGradient>
    <linearGradient
       id="id16"
       gradientUnits="userSpaceOnUse"
       x1="17840.461"
       y1="8365.1104"
       x2="16327.6"
       y2="7558.9302">
      <stop
         offset="0"
         style="stop-opacity:1; stop-color:#20C172"
         id="stop1534" />
      <stop
         offset="1"
         style="stop-opacity:1; stop-color:#1A7E4B"
         id="stop1536" />
    </linearGradient>
    <linearGradient
       id="id14"
       gradientUnits="userSpaceOnUse"
       x1="17847.32"
       y1="9443.6396"
       x2="16320.74"
       y2="8646.8604">
      <stop
         offset="0"
         style="stop-opacity:1; stop-color:#2D6E44"
         id="stop1524" />
      <stop
         offset="1"
         style="stop-opacity:1; stop-color:#194B2D"
         id="stop1526" />
    </linearGradient>
    <linearGradient
       id="id62"
       gradientUnits="userSpaceOnUse"
       x1="15990.76"
       y1="9443.6396"
       x2="14464.18"
       y2="8646.8496">
      <stop
         offset="0"
         style="stop-opacity:1; stop-color:#164E30"
         id="stop1746" />
      <stop
         offset="1"
         style="stop-opacity:1; stop-color:#173C27"
         id="stop1748" />
    </linearGradient>
    <linearGradient
       id="id3"
       gradientUnits="userSpaceOnUse"
       x1="15465.01"
       y1="7798.5898"
       x2="13109.52"
       y2="7073.8198">
      <stop
         offset="0"
         style="stop-opacity:1; stop-color:#0B7C3C"
         id="stop1475" />
      <stop
         offset="1"
         style="stop-opacity:1; stop-color:#0A5026"
         id="stop1477" />
    </linearGradient>
    <linearGradient
       id="id57"
       gradientUnits="userSpaceOnUse"
       x1="13055.02"
       y1="7436.21"
       x2="15519.49"
       y2="7436.21">
      <stop
         offset="0"
         style="stop-opacity:1; stop-color:#4C9B6A"
         id="stop1719" />
      <stop
         offset="0.501961"
         style="stop-opacity:1; stop-color:#156C37"
         id="stop1721" />
      <stop
         offset="1"
         style="stop-opacity:1; stop-color:#29A95F"
         id="stop1723" />
    </linearGradient>
    <linearGradient
       id="id33"
       gradientUnits="userSpaceOnUse"
       xlink:href="#id2"
       x1="13704.57"
       y1="7433.1499"
       x2="14865.18"
       y2="7433.1499" />
    <linearGradient
       id="id2"
       gradientUnits="userSpaceOnUse"
       x1="7345.3901"
       y1="7426.4102"
       x2="9031.1504"
       y2="7426.4102">
      <stop
         offset="0"
         style="stop-opacity:1; stop-color:#C1CFCF"
         id="stop1470" />
      <stop
         offset="1"
         style="stop-opacity:1; stop-color:#FEFEFE"
         id="stop1472" />
    </linearGradient>
  </defs>
  <sodipodi:namedview
     id="base"
     pagecolor="#ffffff"
     bordercolor="#666666"
     borderopacity="1.0"
     inkscape:pageopacity="0.0"
     inkscape:pageshadow="2"
     inkscape:zoom="3.959798"
     inkscape:cx="60.355867"
     inkscape:cy="38.27609"
     inkscape:document-units="mm"
     inkscape:current-layer="layer1"
     inkscape:document-rotation="0"
     showgrid="false"
     units="px"
     inkscape:window-width="1514"
     inkscape:window-height="941"
     inkscape:window-x="50"
     inkscape:window-y="27"
     inkscape:window-maximized="0" />
  <metadata
     id="metadata1770">
    <rdf:RDF>
      <cc:Work
         rdf:about="">
        <dc:format>image/svg+xml</dc:format>
        <dc:type
           rdf:resource="http://purl.org/dc/dcmitype/StillImage" />
        <dc:title></dc:title>
      </cc:Work>
    </rdf:RDF>
  </metadata>
  <g
     inkscape:label="Capa 1"
     inkscape:groupmode="layer"
     id="layer1">
    <g
       style="opacity:0.295"
       transform="matrix(0.97573206,0,0,0.97573206,-65.668415,-37.246249)"
       id="g1702">
      <rect
         ry="6.6098609"
         rx="6.6098609"
         y="40.709618"
         x="69.839508"
         height="29.810888"
         width="29.810888"
         id="rect1634"
         style="fill:none;fill-opacity:1;stroke:#000000;stroke-width:0.1;stroke-linecap:round;stroke-linejoin:round;stroke-miterlimit:4;stroke-dasharray:none;stroke-opacity:0.02" />
      <rect
         style="fill:none;fill-opacity:1;stroke:#000000;stroke-width:0.2;stroke-linecap:round;stroke-linejoin:round;stroke-miterlimit:4;stroke-dasharray:none;stroke-opacity:0.02"
         id="rect1638"
         width="29.810888"
         height="29.810888"
         x="69.839508"
         y="40.709618"
         rx="6.6098609"
         ry="6.6098609" />
      <rect
         ry="6.6098609"
         rx="6.6098609"
         y="40.709618"
         x="69.839508"
         height="29.810888"
         width="29.810888"
         id="rect1640"
         style="fill:none;fill-opacity:1;stroke:#000000;stroke-width:0.3;stroke-linecap:round;stroke-linejoin:round;stroke-miterlimit:4;stroke-dasharray:none;stroke-opacity:0.02" />
      <rect
         style="fill:none;fill-opacity:1;stroke:#000000;stroke-width:0.4;stroke-linecap:round;stroke-linejoin:round;stroke-miterlimit:4;stroke-dasharray:none;stroke-opacity:0.02"
         id="rect1642"
         width="29.810888"
         height="29.810888"
         x="69.839508"
         y="40.709618"
         rx="6.6098609"
         ry="6.6098609" />
      <rect
         ry="6.6098609"
         rx="6.6098609"
         y="40.709618"
         x="69.839508"
         height="29.810888"
         width="29.810888"
         id="rect1644"
         style="fill:none;fill-opacity:1;stroke:#000000;stroke-width:0.5;stroke-linecap:round;stroke-linejoin:round;stroke-miterlimit:4;stroke-dasharray:none;stroke-opacity:0.02" />
      <rect
         style="fill:none;fill-opacity:1;stroke:#000000;stroke-width:0.6;stroke-linecap:round;stroke-linejoin:round;stroke-miterlimit:4;stroke-dasharray:none;stroke-opacity:0.02"
         id="rect1646"
         width="29.810888"
         height="29.810888"
         x="69.839508"
         y="40.709618"
         rx="6.6098609"
         ry="6.6098609" />
      <rect
         ry="6.6098609"
         rx="6.6098609"
         y="40.709618"
         x="69.839508"
         height="29.810888"
         width="29.810888"
         id="rect1648"
         style="fill:none;fill-opacity:1;stroke:#000000;stroke-width:0.7;stroke-linecap:round;stroke-linejoin:round;stroke-miterlimit:4;stroke-dasharray:none;stroke-opacity:0.02" />
      <rect
         style="fill:none;fill-opacity:1;stroke:#000000;stroke-width:0.8;stroke-linecap:round;stroke-linejoin:round;stroke-miterlimit:4;stroke-dasharray:none;stroke-opacity:0.02"
         id="rect1650"
         width="29.810888"
         height="29.810888"
         x="69.839508"
         y="40.709618"
         rx="6.6098609"
         ry="6.6098609" />
      <rect
         ry="6.6098609"
         rx="6.6098609"
         y="40.709618"
         x="69.839508"
         height="29.810888"
         width="29.810888"
         id="rect1652"
         style="fill:none;fill-opacity:1;stroke:#000000;stroke-width:1;stroke-linecap:round;stroke-linejoin:round;stroke-miterlimit:4;stroke-dasharray:none;stroke-opacity:0.02" />
      <rect
         style="fill:none;fill-opacity:1;stroke:#000000;stroke-width:1.2;stroke-linecap:round;stroke-linejoin:round;stroke-miterlimit:4;stroke-dasharray:none;stroke-opacity:0.02"
         id="rect1654"
         width="29.810888"
         height="29.810888"
         x="69.839508"
         y="40.709618"
         rx="6.6098609"
         ry="6.6098609" />
      <rect
         ry="6.6098609"
         rx="6.6098609"
         y="40.709618"
         x="69.839508"
         height="29.810888"
         width="29.810888"
         id="rect1656"
         style="fill:none;fill-opacity:1;stroke:#000000;stroke-width:1.4;stroke-linecap:round;stroke-linejoin:round;stroke-miterlimit:4;stroke-dasharray:none;stroke-opacity:0.02" />
      <rect
         style="fill:none;fill-opacity:1;stroke:#000000;stroke-width:1.6;stroke-linecap:round;stroke-linejoin:round;stroke-miterlimit:4;stroke-dasharray:none;stroke-opacity:0.02"
         id="rect1658"
         width="29.810888"
         height="29.810888"
         x="69.839508"
         y="40.709618"
         rx="6.6098609"
         ry="6.6098609" />
      <rect
         ry="6.6098609"
         rx="6.6098609"
         y="40.709618"
         x="69.839508"
         height="29.810888"
         width="29.810888"
         id="rect1660"
         style="fill:none;fill-opacity:1;stroke:#000000;stroke-width:1.8;stroke-linecap:round;stroke-linejoin:round;stroke-miterlimit:4;stroke-dasharray:none;stroke-opacity:0.02" />
      <rect
         style="fill:none;fill-opacity:1;stroke:#000000;stroke-width:2;stroke-linecap:round;stroke-linejoin:round;stroke-miterlimit:4;stroke-dasharray:none;stroke-opacity:0.02"
         id="rect1662"
         width="29.810888"
         height="29.810888"
         x="69.839508"
         y="40.709618"
         rx="6.6098609"
         ry="6.6098609" />
      <rect
         ry="6.6098609"
         rx="6.6098609"
         y="40.709618"
         x="69.839508"
         height="29.810888"
         width="29.810888"
         id="rect1664"
         style="fill:none;fill-opacity:1;stroke:#000000;stroke-width:2.2;stroke-linecap:round;stroke-linejoin:round;stroke-miterlimit:4;stroke-dasharray:none;stroke-opacity:0.02" />
      <rect
         style="fill:none;fill-opacity:1;stroke:#000000;stroke-width:2.6;stroke-linecap:round;stroke-linejoin:round;stroke-miterlimit:4;stroke-dasharray:none;stroke-opacity:0.02"
         id="rect1666"
         width="29.810888"
         height="29.810888"
         x="69.839508"
         y="40.709618"
         rx="6.6098609"
         ry="6.6098609" />
      <rect
         ry="6.6098609"
         rx="6.6098609"
         y="40.709618"
         x="69.839508"
         height="29.810888"
         width="29.810888"
         id="rect1668"
         style="fill:none;fill-opacity:1;stroke:#000000;stroke-width:3;stroke-linecap:round;stroke-linejoin:round;stroke-miterlimit:4;stroke-dasharray:none;stroke-opacity:0.02" />
      <rect
         style="fill:none;fill-opacity:1;stroke:#000000;stroke-width:3.4;stroke-linecap:round;stroke-linejoin:round;stroke-miterlimit:4;stroke-dasharray:none;stroke-opacity:0.02"
         id="rect1670"
         width="29.810888"
         height="29.810888"
         x="69.839508"
         y="40.709618"
         rx="6.6098609"
         ry="6.6098609" />
      <rect
         ry="6.6098609"
         rx="6.6098609"
         y="40.709618"
         x="69.839508"
         height="29.810888"
         width="29.810888"
         id="rect1672"
         style="fill:none;fill-opacity:1;stroke:#000000;stroke-width:3.8;stroke-linecap:round;stroke-linejoin:round;stroke-miterlimit:4;stroke-dasharray:none;stroke-opacity:0.02" />
      <rect
         style="fill:none;fill-opacity:1;stroke:#000000;stroke-width:4.2;stroke-linecap:round;stroke-linejoin:round;stroke-miterlimit:4;stroke-dasharray:none;stroke-opacity:0.02"
         id="rect1674"
         width="29.810888"
         height="29.810888"
         x="69.839508"
         y="40.709618"
         rx="6.6098609"
         ry="6.6098609" />
      <rect
         ry="6.6098609"
         rx="6.6098609"
         y="40.709618"
         x="69.839508"
         height="29.810888"
         width="29.810888"
         id="rect1676"
         style="fill:none;fill-opacity:1;stroke:#000000;stroke-width:4.6;stroke-linecap:round;stroke-linejoin:round;stroke-miterlimit:4;stroke-dasharray:none;stroke-opacity:0.02" />
      <rect
         style="fill:none;fill-opacity:1;stroke:#000000;stroke-width:5;stroke-linecap:round;stroke-linejoin:round;stroke-miterlimit:4;stroke-dasharray:none;stroke-opacity:0.02"
         id="rect1678"
         width="29.810888"
         height="29.810888"
         x="69.839508"
         y="40.709618"
         rx="6.6098609"
         ry="6.6098609" />
    </g>
    <path
       id="rect1558"
       style="fill:url(#linearGradient2993);fill-opacity:1;stroke-width:2.68801;stroke-linecap:round;stroke-linejoin:round;stroke-miterlimit:4;stroke-dasharray:none"
       d="M 8.9259412,2.4755547 H 25.114474 c 3.572997,0 6.449454,2.8764562 6.449454,6.4494533 v 16.188531 c 0,3.572998 -2.876457,6.449453 -6.449454,6.449453 H 8.9259412 c -3.5729971,0 -6.4494532,-2.876455 -6.4494532,-6.449453 V 8.925008 c 0,-3.5729971 2.8764561,-6.4494533 6.4494532,-6.4494533 z" />
    <g
       transform="matrix(0.00438876,0,0,0.00438876,-53.245005,-15.616604)"
       id="g1867"
       style="clip-rule:evenodd;fill-rule:evenodd;image-rendering:optimizeQuality;shape-rendering:geometricPrecision;text-rendering:geometricPrecision">
      <path
         id="path1833"
         d="m 16155.76,5283.74 h -1655.99 c -110.33,0 -200.58,90.26 -200.58,200.57 v 889.51 0.12 h 1856.57 z"
         class="fil1"
         style="fill:url(#id63)" />
      <path
         id="path1835"
         d="m 18012.31,6373.94 v -3.81 -885.82 c 0,-110.31 -90.25,-200.57 -200.57,-200.57 h -1652.23 -3.75 v 1090.2 h 2.84 z"
         class="fil2"
         style="fill:url(#id15)" />
      <polygon
         id="polygon1837"
         points="18012.31,6373.95 16158.6,6373.95 16155.76,6373.95 16155.76,6343.36 16158.62,6343.36 18012.31,6343.36 "
         class="fil3" />
      <polygon
         id="polygon1839"
         points="14299.19,6373.95 14299.19,6343.36 16155.76,6343.36 16155.76,6373.95 "
         class="fil4" />
      <polygon
         id="polygon1841"
         points="14299.19,7435.86 14299.19,7435.98 16155.76,7435.98 16155.76,6363.98 14299.19,6363.98 "
         class="fil5"
         style="fill:url(#id61)" />
      <polygon
         id="polygon1843"
         points="16157.71,7435.98 18012.31,7435.98 18012.31,7432.17 18012.31,6363.98 16158.61,6363.98 16155.76,6363.98 16155.76,7435.98 "
         class="fil6"
         style="fill:url(#id13)" />
      <polygon
         id="polygon1845"
         points="18012.31,7435.97 16157.71,7435.97 16155.76,7435.97 16155.76,7405.39 16157.74,7405.39 18012.31,7405.39 "
         class="fil7" />
      <polygon
         id="polygon1847"
         points="14299.19,7435.97 14299.19,7405.39 16155.76,7405.39 16155.76,7435.97 "
         class="fil8" />
      <polygon
         id="polygon1849"
         points="14299.19,8497.9 14299.19,8498.01 16155.76,8498.01 16155.76,7426.01 14299.19,7426.01 "
         class="fil9"
         style="fill:url(#id64)" />
      <polygon
         id="polygon1851"
         points="16156.83,8498.01 18012.31,8498.01 18012.31,8494.21 18012.31,7426.01 16157.73,7426.01 16155.76,7426.01 16155.76,8498.01 "
         class="fil10"
         style="fill:url(#id16)" />
      <polygon
         id="polygon1853"
         points="18012.31,8498.02 16156.83,8498.02 16155.76,8498.02 16155.76,8467.43 16156.86,8467.43 18012.31,8467.43 "
         class="fil11" />
      <polygon
         id="polygon1855"
         points="14299.19,8498.02 14299.19,8467.43 16155.76,8467.43 16155.76,8498.02 "
         class="fil12" />
      <path
         id="path1857"
         d="m 16155.76,9592.48 h 0.16 1655.82 c 110.32,0 200.57,-90.25 200.57,-200.56 v -893.91 h -1855.48 -1.07 z"
         class="fil13"
         style="fill:url(#id14)" />
      <path
         id="path1859"
         d="m 14499.77,9592.48 h 1655.99 V 8498.01 h -1856.57 v 893.91 c 0,110.31 90.25,200.56 200.58,200.56 z"
         class="fil14"
         style="fill:url(#id62)" />
      <path
         id="path1861"
         d="m 13251.02,8668.44 h 2072.49 c 107.79,0 195.99,-88.2 195.99,-195.99 V 6399.96 c 0,-107.79 -88.2,-195.99 -195.99,-195.99 h -2072.49 c -107.79,0 -195.99,88.2 -195.99,195.99 v 2072.49 c 0,107.79 88.2,195.99 195.99,195.99 z"
         class="fil15"
         style="fill:url(#id3)" />
      <path
         id="path1863"
         d="m 13251.02,8668.44 h 2072.47 c 107.8,0 196,-88.2 196,-196 V 6399.97 c 0,-107.8 -88.2,-195.99 -196,-195.99 h -12.71 c 106.48,0 193.6,87.11 193.6,193.59 v 2059.99 c 0,106.48 -87.12,193.59 -193.6,193.59 h -2047.04 c -106.48,0 -193.6,-87.11 -193.6,-193.59 V 6397.57 c 0,-106.48 87.12,-193.59 193.6,-193.59 h -12.72 c -107.8,0 -195.99,88.19 -195.99,195.99 v 2072.47 c 0,107.8 88.19,196 195.99,196 z"
         class="fil16"
         style="fill:url(#id57)" />
      <polygon
         id="polygon1865"
         points="14558.47,6789.8 14850.88,6789.8 14462.61,7431.05 14865.19,8076.48 14563.65,8076.48 14289.86,7574.61 14016.06,8076.48 13704.58,8076.48 14127.06,7431.05 13738.79,6789.8 14055.47,6789.8 14289.86,7272.36 "
         class="fil17"
         style="fill:url(#id33)" />
    </g>
  </g>
</svg>
