<?xml version="1.0" encoding="UTF-8" standalone="no"?>
<svg
   xmlns:dc="http://purl.org/dc/elements/1.1/"
   xmlns:cc="http://creativecommons.org/ns#"
   xmlns:rdf="http://www.w3.org/1999/02/22-rdf-syntax-ns#"
   xmlns:svg="http://www.w3.org/2000/svg"
   xmlns="http://www.w3.org/2000/svg"
   xmlns:xlink="http://www.w3.org/1999/xlink"
   xmlns:sodipodi="http://sodipodi.sourceforge.net/DTD/sodipodi-0.dtd"
   xmlns:inkscape="http://www.inkscape.org/namespaces/inkscape"
   width="128"
   height="128"
   viewBox="0 0 33.866666 33.866668"
   version="1.1"
   id="svg2988"
   inkscape:version="1.0.1 (3bc2e813f5, 2020-09-07)"
   sodipodi:docname="word-powerpoit.svg">
  <defs
     id="defs2982">
    <linearGradient
       gradientUnits="userSpaceOnUse"
       y2="11.317847"
       x2="18.473099"
       y1="31.367924"
       x1="18.473099"
       id="linearGradient2993"
       xlink:href="#linearGradient2991"
       inkscape:collect="always"
       gradientTransform="translate(-0.03692707,-0.0013143)" />
    <linearGradient
       id="linearGradient2991"
       inkscape:collect="always">
      <stop
         id="stop2987"
         offset="0"
         style="stop-color:#edf1fa;stop-opacity:1" />
      <stop
         id="stop2989"
         offset="1"
         style="stop-color:#fcfcfc;stop-opacity:1" />
    </linearGradient>
    <linearGradient
       xlink:href="#linearGradient5523"
       gradientUnits="userSpaceOnUse"
       gradientTransform="matrix(1.4243525,0,0,1.4243525,3.3685819,39.981589)"
       y2="-8.8634005"
       y1="-16.139"
       x2="16.867001"
       x1="9.5909996"
       id="linearGradient3031" />
    <linearGradient
       id="linearGradient5523">
      <stop
         id="stop2238"
         offset="0"
         stop-color="#ba3921" />
      <stop
         id="stop2240"
         offset="1"
         stop-color="#ed5630" />
    </linearGradient>
    <linearGradient
       xlink:href="#linearGradient5523"
       gradientUnits="userSpaceOnUse"
       y2="-8.8634005"
       y1="-16.139"
       x2="16.867001"
       x1="9.5909996"
       id="linearGradient5525" />
    <linearGradient
       gradientUnits="userSpaceOnUse"
       y2="-21.916"
       y1="-16.552"
       x2="15.368"
       x1="10.004"
       id="linearGradient5509">
      <stop
         id="stop2243"
         offset="0"
         stop-color="#ff9b73" />
      <stop
         id="stop2245"
         offset="1"
         stop-color="#dc8c64" />
    </linearGradient>
    <linearGradient
       gradientUnits="userSpaceOnUse"
       y2="-16.139"
       y1="-8.8634005"
       x2="9.5248003"
       x1="2.3151"
       id="linearGradient5517">
      <stop
         id="stop2248"
         offset="0"
         stop-color="#dd4d2b" />
      <stop
         id="stop2250"
         offset="1"
         stop-color="#bc3a22" />
    </linearGradient>
    <linearGradient
       gradientUnits="userSpaceOnUse"
       y2="-16.139"
       y1="-23.283001"
       x2="9.5248003"
       x1="2.3812001"
       id="linearGradient5501">
      <stop
         id="stop2253"
         offset="0"
         stop-color="#aa5a41" />
      <stop
         id="stop2255"
         offset="1"
         stop-color="#e17855" />
    </linearGradient>
    <linearGradient
       gradientUnits="userSpaceOnUse"
       gradientTransform="matrix(3.7796,0,0,3.7796,-83.75,84.168)"
       y2="-11.827"
       y1="-11.827"
       x2="15.186"
       x1="3.8543"
       id="linearGradient7321">
      <stop
         id="stop2258"
         offset="0"
         stop-color="#9b321e" />
      <stop
         id="stop2260"
         offset="1"
         stop-color="#f55532" />
    </linearGradient>
    <linearGradient
       inkscape:collect="always"
       xlink:href="#linearGradient5985"
       id="linearGradient5987"
       x1="36.020687"
       y1="19.424873"
       x2="37.879578"
       y2="19.424873"
       gradientUnits="userSpaceOnUse"
       gradientTransform="translate(-20.92145,-2.0313827)" />
    <linearGradient
       inkscape:collect="always"
       id="linearGradient5985">
      <stop
         style="stop-color:#000000;stop-opacity:0.8"
         offset="0"
         id="stop5981" />
      <stop
         style="stop-color:#000000;stop-opacity:0;"
         offset="1"
         id="stop5983" />
    </linearGradient>
    <radialGradient
       inkscape:collect="always"
       xlink:href="#linearGradient5995"
       id="radialGradient5997"
       cx="14.327568"
       cy="13.102755"
       fx="14.327568"
       fy="13.102755"
       r="1.3914976"
       gradientUnits="userSpaceOnUse"
       gradientTransform="matrix(1.3520638,-2.2692594e-7,2.2927632e-7,1.3660678,-4.2856723,-4.3523045)" />
    <linearGradient
       inkscape:collect="always"
       id="linearGradient5995">
      <stop
         style="stop-color:#000000;stop-opacity:1;"
         offset="0"
         id="stop5991" />
      <stop
         style="stop-color:#000000;stop-opacity:0;"
         offset="1"
         id="stop5993" />
    </linearGradient>
    <linearGradient
       inkscape:collect="always"
       xlink:href="#linearGradient5985"
       id="linearGradient6026"
       gradientUnits="userSpaceOnUse"
       gradientTransform="translate(-21.808612,-2.0313827)"
       x1="36.020687"
       y1="19.424873"
       x2="37.879578"
       y2="19.424873" />
    <radialGradient
       inkscape:collect="always"
       xlink:href="#linearGradient5995"
       id="radialGradient6028"
       gradientUnits="userSpaceOnUse"
       gradientTransform="matrix(5.1101624,-8.5767284e-7,8.6655617e-7,5.1630909,-19.550871,-16.449655)"
       cx="14.327568"
       cy="13.102755"
       fx="14.327568"
       fy="13.102755"
       r="1.3914976" />
    <radialGradient
       inkscape:collect="always"
       xlink:href="#linearGradient5995"
       id="radialGradient6032"
       gradientUnits="userSpaceOnUse"
       gradientTransform="matrix(2.2692593e-7,1.3520637,-1.3660677,2.2927631e-7,32.960591,2.2485519)"
       cx="14.327568"
       cy="13.102755"
       fx="14.327568"
       fy="13.102755"
       r="1.3914976" />
    <linearGradient
       gradientUnits="userSpaceOnUse"
       gradientTransform="matrix(1.4243431,0,0,1.4243431,-9.1628002,55.055497)"
       y2="-22.754"
       y1="-30.691"
       x2="17.726999"
       x1="9.7894001"
       id="linearGradient5461">
      <stop
         id="stop2263"
         offset="0"
         stop-color="#6d2618" />
      <stop
         id="stop2265"
         offset="1"
         stop-color="#af3d20" />
    </linearGradient>
    <linearGradient
       xlink:href="#linearGradient5463"
       gradientUnits="userSpaceOnUse"
       gradientTransform="matrix(1.4243431,0,0,1.4243431,-9.1628002,55.055497)"
       y2="-23.42"
       y1="-29.806"
       x2="17.764"
       x1="9.7529001"
       id="linearGradient3034" />
    <linearGradient
       gradientUnits="userSpaceOnUse"
       gradientTransform="translate(-16.185,11.33)"
       y2="-23.42"
       y1="-29.806"
       x2="17.764"
       x1="9.7529001"
       id="linearGradient5463">
      <stop
         id="stop2268"
         offset="0"
         stop-color="#6e2313" />
      <stop
         id="stop2270"
         offset="1"
         stop-color="#b74226" />
    </linearGradient>
  </defs>
  <sodipodi:namedview
     id="base"
     pagecolor="#ffffff"
     bordercolor="#666666"
     borderopacity="1.0"
     inkscape:pageopacity="0.0"
     inkscape:pageshadow="2"
     inkscape:zoom="3.959798"
     inkscape:cx="87.427154"
     inkscape:cy="34.435142"
     inkscape:document-units="mm"
     inkscape:current-layer="layer1"
     inkscape:document-rotation="0"
     showgrid="false"
     units="px"
     inkscape:window-width="1514"
     inkscape:window-height="941"
     inkscape:window-x="50"
     inkscape:window-y="27"
     inkscape:window-maximized="0" />
  <metadata
     id="metadata2985">
    <rdf:RDF>
      <cc:Work
         rdf:about="">
        <dc:format>image/svg+xml</dc:format>
        <dc:type
           rdf:resource="http://purl.org/dc/dcmitype/StillImage" />
        <dc:title></dc:title>
      </cc:Work>
    </rdf:RDF>
  </metadata>
  <g
     inkscape:label="Capa 1"
     inkscape:groupmode="layer"
     id="layer1">
    <g
       style="opacity:0.295"
       transform="matrix(0.97573206,0,0,0.97573206,-65.785312,-37.204407)"
       id="g1702">
      <rect
         ry="6.6098609"
         rx="6.6098609"
         y="40.709618"
         x="69.839508"
         height="29.810888"
         width="29.810888"
         id="rect1634"
         style="fill:none;fill-opacity:1;stroke:#000000;stroke-width:0.1;stroke-linecap:round;stroke-linejoin:round;stroke-miterlimit:4;stroke-dasharray:none;stroke-opacity:0.02" />
      <rect
         style="fill:none;fill-opacity:1;stroke:#000000;stroke-width:0.2;stroke-linecap:round;stroke-linejoin:round;stroke-miterlimit:4;stroke-dasharray:none;stroke-opacity:0.02"
         id="rect1638"
         width="29.810888"
         height="29.810888"
         x="69.839508"
         y="40.709618"
         rx="6.6098609"
         ry="6.6098609" />
      <rect
         ry="6.6098609"
         rx="6.6098609"
         y="40.709618"
         x="69.839508"
         height="29.810888"
         width="29.810888"
         id="rect1640"
         style="fill:none;fill-opacity:1;stroke:#000000;stroke-width:0.3;stroke-linecap:round;stroke-linejoin:round;stroke-miterlimit:4;stroke-dasharray:none;stroke-opacity:0.02" />
      <rect
         style="fill:none;fill-opacity:1;stroke:#000000;stroke-width:0.4;stroke-linecap:round;stroke-linejoin:round;stroke-miterlimit:4;stroke-dasharray:none;stroke-opacity:0.02"
         id="rect1642"
         width="29.810888"
         height="29.810888"
         x="69.839508"
         y="40.709618"
         rx="6.6098609"
         ry="6.6098609" />
      <rect
         ry="6.6098609"
         rx="6.6098609"
         y="40.709618"
         x="69.839508"
         height="29.810888"
         width="29.810888"
         id="rect1644"
         style="fill:none;fill-opacity:1;stroke:#000000;stroke-width:0.5;stroke-linecap:round;stroke-linejoin:round;stroke-miterlimit:4;stroke-dasharray:none;stroke-opacity:0.02" />
      <rect
         style="fill:none;fill-opacity:1;stroke:#000000;stroke-width:0.6;stroke-linecap:round;stroke-linejoin:round;stroke-miterlimit:4;stroke-dasharray:none;stroke-opacity:0.02"
         id="rect1646"
         width="29.810888"
         height="29.810888"
         x="69.839508"
         y="40.709618"
         rx="6.6098609"
         ry="6.6098609" />
      <rect
         ry="6.6098609"
         rx="6.6098609"
         y="40.709618"
         x="69.839508"
         height="29.810888"
         width="29.810888"
         id="rect1648"
         style="fill:none;fill-opacity:1;stroke:#000000;stroke-width:0.7;stroke-linecap:round;stroke-linejoin:round;stroke-miterlimit:4;stroke-dasharray:none;stroke-opacity:0.02" />
      <rect
         style="fill:none;fill-opacity:1;stroke:#000000;stroke-width:0.8;stroke-linecap:round;stroke-linejoin:round;stroke-miterlimit:4;stroke-dasharray:none;stroke-opacity:0.02"
         id="rect1650"
         width="29.810888"
         height="29.810888"
         x="69.839508"
         y="40.709618"
         rx="6.6098609"
         ry="6.6098609" />
      <rect
         ry="6.6098609"
         rx="6.6098609"
         y="40.709618"
         x="69.839508"
         height="29.810888"
         width="29.810888"
         id="rect1652"
         style="fill:none;fill-opacity:1;stroke:#000000;stroke-width:1;stroke-linecap:round;stroke-linejoin:round;stroke-miterlimit:4;stroke-dasharray:none;stroke-opacity:0.02" />
      <rect
         style="fill:none;fill-opacity:1;stroke:#000000;stroke-width:1.2;stroke-linecap:round;stroke-linejoin:round;stroke-miterlimit:4;stroke-dasharray:none;stroke-opacity:0.02"
         id="rect1654"
         width="29.810888"
         height="29.810888"
         x="69.839508"
         y="40.709618"
         rx="6.6098609"
         ry="6.6098609" />
      <rect
         ry="6.6098609"
         rx="6.6098609"
         y="40.709618"
         x="69.839508"
         height="29.810888"
         width="29.810888"
         id="rect1656"
         style="fill:none;fill-opacity:1;stroke:#000000;stroke-width:1.4;stroke-linecap:round;stroke-linejoin:round;stroke-miterlimit:4;stroke-dasharray:none;stroke-opacity:0.02" />
      <rect
         style="fill:none;fill-opacity:1;stroke:#000000;stroke-width:1.6;stroke-linecap:round;stroke-linejoin:round;stroke-miterlimit:4;stroke-dasharray:none;stroke-opacity:0.02"
         id="rect1658"
         width="29.810888"
         height="29.810888"
         x="69.839508"
         y="40.709618"
         rx="6.6098609"
         ry="6.6098609" />
      <rect
         ry="6.6098609"
         rx="6.6098609"
         y="40.709618"
         x="69.839508"
         height="29.810888"
         width="29.810888"
         id="rect1660"
         style="fill:none;fill-opacity:1;stroke:#000000;stroke-width:1.8;stroke-linecap:round;stroke-linejoin:round;stroke-miterlimit:4;stroke-dasharray:none;stroke-opacity:0.02" />
      <rect
         style="fill:none;fill-opacity:1;stroke:#000000;stroke-width:2;stroke-linecap:round;stroke-linejoin:round;stroke-miterlimit:4;stroke-dasharray:none;stroke-opacity:0.02"
         id="rect1662"
         width="29.810888"
         height="29.810888"
         x="69.839508"
         y="40.709618"
         rx="6.6098609"
         ry="6.6098609" />
      <rect
         ry="6.6098609"
         rx="6.6098609"
         y="40.709618"
         x="69.839508"
         height="29.810888"
         width="29.810888"
         id="rect1664"
         style="fill:none;fill-opacity:1;stroke:#000000;stroke-width:2.2;stroke-linecap:round;stroke-linejoin:round;stroke-miterlimit:4;stroke-dasharray:none;stroke-opacity:0.02" />
      <rect
         style="fill:none;fill-opacity:1;stroke:#000000;stroke-width:2.6;stroke-linecap:round;stroke-linejoin:round;stroke-miterlimit:4;stroke-dasharray:none;stroke-opacity:0.02"
         id="rect1666"
         width="29.810888"
         height="29.810888"
         x="69.839508"
         y="40.709618"
         rx="6.6098609"
         ry="6.6098609" />
      <rect
         ry="6.6098609"
         rx="6.6098609"
         y="40.709618"
         x="69.839508"
         height="29.810888"
         width="29.810888"
         id="rect1668"
         style="fill:none;fill-opacity:1;stroke:#000000;stroke-width:3;stroke-linecap:round;stroke-linejoin:round;stroke-miterlimit:4;stroke-dasharray:none;stroke-opacity:0.02" />
      <rect
         style="fill:none;fill-opacity:1;stroke:#000000;stroke-width:3.4;stroke-linecap:round;stroke-linejoin:round;stroke-miterlimit:4;stroke-dasharray:none;stroke-opacity:0.02"
         id="rect1670"
         width="29.810888"
         height="29.810888"
         x="69.839508"
         y="40.709618"
         rx="6.6098609"
         ry="6.6098609" />
      <rect
         ry="6.6098609"
         rx="6.6098609"
         y="40.709618"
         x="69.839508"
         height="29.810888"
         width="29.810888"
         id="rect1672"
         style="fill:none;fill-opacity:1;stroke:#000000;stroke-width:3.8;stroke-linecap:round;stroke-linejoin:round;stroke-miterlimit:4;stroke-dasharray:none;stroke-opacity:0.02" />
      <rect
         style="fill:none;fill-opacity:1;stroke:#000000;stroke-width:4.2;stroke-linecap:round;stroke-linejoin:round;stroke-miterlimit:4;stroke-dasharray:none;stroke-opacity:0.02"
         id="rect1674"
         width="29.810888"
         height="29.810888"
         x="69.839508"
         y="40.709618"
         rx="6.6098609"
         ry="6.6098609" />
      <rect
         ry="6.6098609"
         rx="6.6098609"
         y="40.709618"
         x="69.839508"
         height="29.810888"
         width="29.810888"
         id="rect1676"
         style="fill:none;fill-opacity:1;stroke:#000000;stroke-width:4.6;stroke-linecap:round;stroke-linejoin:round;stroke-miterlimit:4;stroke-dasharray:none;stroke-opacity:0.02" />
      <rect
         style="fill:none;fill-opacity:1;stroke:#000000;stroke-width:5;stroke-linecap:round;stroke-linejoin:round;stroke-miterlimit:4;stroke-dasharray:none;stroke-opacity:0.02"
         id="rect1678"
         width="29.810888"
         height="29.810888"
         x="69.839508"
         y="40.709618"
         rx="6.6098609"
         ry="6.6098609" />
    </g>
    <path
       id="rect1558"
       style="fill:url(#linearGradient2993);fill-opacity:1;stroke-width:2.68801;stroke-linecap:round;stroke-linejoin:round;stroke-miterlimit:4;stroke-dasharray:none"
       d="M 8.8090444,2.5173951 H 24.997577 c 3.572997,0 6.449454,2.8764562 6.449454,6.4494536 V 25.155381 c 0,3.572998 -2.876457,6.449453 -6.449454,6.449453 H 8.8090444 c -3.5729971,0 -6.4494532,-2.876455 -6.4494532,-6.449453 V 8.9668487 c 0,-3.5729974 2.8764561,-6.4494536 6.4494532,-6.4494536 z" />
    <path
       id="path3827"
       d="M 17.029492,6.6301235 A 10.363449,10.363449 0 0 0 6.6660433,16.993574 h -7.409e-4 a 10.363449,10.363449 0 0 0 0.8184864,4.035716 10.363449,10.363449 0 0 0 7.409e-4,7.41e-4 10.363449,10.363449 0 0 0 0.9907082,1.815074 10.363449,10.363449 0 0 0 7.408e-4,7.4e-4 10.363449,10.363449 0 0 0 2.1109773,2.265526 10.363449,10.363449 0 0 0 0.240685,0.172233 10.363449,10.363449 0 0 0 0.602097,0.430592 10.363449,10.363449 0 0 0 7.41e-4,0 10.363449,10.363449 0 0 0 1.843036,0.938439 10.363449,10.363449 0 0 0 0.657269,0.218604 10.363449,10.363449 0 0 0 0.326064,0.108199 10.363449,10.363449 0 0 0 7.41e-4,0 10.363449,10.363449 0 0 0 0.2267,0.05078 10.363449,10.363449 0 0 0 1.687019,0.285583 10.363449,10.363449 0 0 0 0.124391,0.01545 10.363449,10.363449 0 0 0 7.41e-4,0 10.363449,10.363449 0 0 0 0.02576,7.94e-4 10.363449,10.363449 0 0 0 0.707352,0.02577 10.363449,10.363449 0 0 0 1.034122,-0.05226 10.363449,10.363449 0 0 0 1.024588,-0.154572 10.363449,10.363449 0 0 0 1.976253,-0.611632 10.363449,10.363449 0 0 0 7.67e-4,0 10.363449,10.363449 0 0 0 1.815073,-0.992176 10.363449,10.363449 0 0 0 7.41e-4,0 10.363449,10.363449 0 0 0 1.58248,-1.332966 10.363449,10.363449 0 0 0 2.929427,-7.219744 A 10.363449,10.363449 0 0 0 17.029554,6.6310236 v -7.408e-4 z"
       inkscape:connector-curvature="0"
       style="fill:url(#linearGradient3031);stroke-width:1.42435" />
    <g
       id="g3839"
       transform="matrix(1.4243431,0,0,1.4243431,3.3685711,39.981674)">
      <path
         id="path3829"
         d="m 9.591,-16.139 v 7.2759 a 7.2759,7.2759 0 0 0 7.2759,-7.2759 z"
         inkscape:connector-curvature="0"
         style="fill:url(#linearGradient5525)" />
      <path
         id="path3831"
         d="m 9.591,-16.139 h 7.2759 A 7.2759,7.2759 0 0 0 9.591,-23.4149 Z"
         inkscape:connector-curvature="0"
         style="fill:url(#linearGradient5509)" />
      <path
         id="path3833"
         d="M 9.591,-16.139 H 2.3151 a 7.2759,7.2759 0 0 0 7.2759,7.2759 z"
         inkscape:connector-curvature="0"
         style="fill:url(#linearGradient5517)" />
      <path
         id="path3835"
         d="m 9.591,-23.415 a 7.2759,7.2759 0 0 0 -7.2759,7.2759 H 9.591 Z"
         inkscape:connector-curvature="0"
         style="fill:url(#linearGradient5501)" />
      <path
         id="path3837"
         d="m -75,23.168 a 27.5,27.5 0 0 0 27.5,27.5 27.5,27.5 0 0 0 27.5,-27.5 h -27.5 z"
         transform="matrix(0.26458,0,0,0.26458,22.158,-22.269)"
         inkscape:connector-curvature="0"
         style="fill:url(#linearGradient7321)" />
    </g>
    <g
       id="g7014"
       transform="translate(-0.03692707,-0.0013143)">
      <rect
         rx="0.048864499"
         ry="0.048864499"
         y="13.522"
         x="11.33563"
         height="8.2655058"
         width="6.2008142"
         id="rect5979"
         style="opacity:1;fill:url(#linearGradient5987);fill-opacity:1;stroke:none;stroke-width:0.3;stroke-linecap:round;stroke-linejoin:round;stroke-miterlimit:4;stroke-dasharray:none;stroke-opacity:1" />
      <path
         inkscape:connector-curvature="0"
         id="path5989"
         d="m 16.484143,11.668021 a 1.8573618,1.8573618 0 0 0 -1.857768,1.854151 h 2.861324 c 0.02707,0 0.04858,0.02151 0.04858,0.04858 v 1.483113 a 1.8573618,1.8573618 0 0 0 0.805119,-1.528588 1.8573618,1.8573618 0 0 0 -1.857251,-1.857252 z"
         style="opacity:0.8;fill:url(#radialGradient5997);fill-opacity:1;stroke:none;stroke-width:0.400438;stroke-linecap:round;stroke-linejoin:round;stroke-miterlimit:4;stroke-dasharray:none;stroke-opacity:1" />
      <g
         transform="matrix(0,1,1,0,-6.5316611,7.402889)"
         id="g6024">
        <rect
           rx="0.048864499"
           ry="0.048864499"
           y="13.522"
           x="13.75771"
           height="8.0957785"
           width="2.891572"
           id="rect6010"
           style="opacity:1;fill:url(#linearGradient6026);fill-opacity:1;stroke:none;stroke-width:0.3;stroke-linecap:round;stroke-linejoin:round;stroke-miterlimit:4;stroke-dasharray:none;stroke-opacity:1" />
        <path
           inkscape:connector-curvature="0"
           id="path6012"
           d="m 58.949219,44.099609 a 7.0199501,7.0199501 0 0 0 -7.021485,7.007813 h 10.814454 c 0.102315,0 0.183593,0.08128 0.183593,0.183594 v 5.605468 a 7.0199501,7.0199501 0 0 0 3.042969,-5.777343 7.0199501,7.0199501 0 0 0 -7.019531,-7.019532 z"
           style="opacity:0.8;fill:url(#radialGradient6028);fill-opacity:1;stroke:none;stroke-width:1.51347;stroke-linecap:round;stroke-linejoin:round;stroke-miterlimit:4;stroke-dasharray:none;stroke-opacity:1"
           transform="scale(0.26458333)" />
      </g>
      <path
         inkscape:connector-curvature="0"
         id="path6030"
         d="m 17.536275,20.269564 v 1.46916 c 0,0.02707 -0.02151,0.04858 -0.04858,0.04858 h -2.401403 v 1.230933 0.984953 0.0186 c 0,0.02707 -0.0215,0.04858 -0.04858,0.04858 h -1.483114 a 1.8573617,1.8573617 0 0 0 1.528589,0.805119 1.8573617,1.8573617 0 0 0 1.857251,-1.857251 h 0.609782 c 0.02707,0 0.04909,-0.0215 0.04909,-0.04858 v -2.651001 c 0,-0.02707 -0.02202,-0.04909 -0.04909,-0.04909 z"
         style="opacity:0.8;fill:url(#radialGradient6032);fill-opacity:1;stroke:none;stroke-width:0.400438;stroke-linecap:round;stroke-linejoin:round;stroke-miterlimit:4;stroke-dasharray:none;stroke-opacity:1" />
    </g>
    <rect
       style="fill:url(#linearGradient5461);stroke:url(#linearGradient3034);stroke-width:0.0753705"
       x="4.7813768"
       y="11.340981"
       width="11.305439"
       height="11.305439"
       ry="1.1305438"
       id="rect3843" />
    <g
       transform="matrix(1.4992635,0,0,1.3531402,13.890193,38.91769)"
       style="font-variant-ligatures:normal;font-variant-caps:normal;font-variant-numeric:normal;font-feature-settings:normal;fill:#ffffff;stroke-width:0.15282"
       aria-label="P"
       id="g3847">
      <path
         inkscape:connector-curvature="0"
         d="m -2.8947,-17.691 v 1.3072 h 0.36113 q 0.43276,0 0.60587,-0.14624 0.17609,-0.14624 0.17609,-0.50738 0,-0.36114 -0.17609,-0.50738 -0.17311,-0.14624 -0.60587,-0.14624 z m -0.88045,-0.74017 h 1.2088 q 0.92223,0 1.3251,0.3283 0.4059,0.3283 0.4059,1.0655 0,0.7372 -0.4059,1.0655 -0.40292,0.3283 -1.3251,0.3283 h -0.3283 v 1.6684 H -3.7751 Z"
         style="font-variant-ligatures:normal;font-variant-caps:normal;font-variant-numeric:normal;font-feature-settings:normal;fill:#ffffff;stroke-width:0.15282"
         id="path3845" />
    </g>
  </g>
</svg>
