<?xml version="1.0" encoding="UTF-8" standalone="no"?>
<svg
   width="128"
   height="128"
   viewBox="0 0 33.866666 33.866668"
   version="1.1"
   id="svg1443"
   inkscape:version="1.1.2 (0a00cf5339, 2022-02-04)"
   sodipodi:docname="muffon.svg"
   xmlns:inkscape="http://www.inkscape.org/namespaces/inkscape"
   xmlns:sodipodi="http://sodipodi.sourceforge.net/DTD/sodipodi-0.dtd"
   xmlns:xlink="http://www.w3.org/1999/xlink"
   xmlns="http://www.w3.org/2000/svg"
   xmlns:svg="http://www.w3.org/2000/svg"
   xmlns:rdf="http://www.w3.org/1999/02/22-rdf-syntax-ns#"
   xmlns:cc="http://creativecommons.org/ns#"
   xmlns:dc="http://purl.org/dc/elements/1.1/">
  <defs
     id="defs1437">
    <linearGradient
       inkscape:collect="always"
       id="linearGradient1040">
      <stop
         style="stop-color:#7223f2;stop-opacity:1"
         offset="0"
         id="stop1036" />
      <stop
         style="stop-color:#ffffff;stop-opacity:1"
         offset="1"
         id="stop1038" />
    </linearGradient>
    <linearGradient
       id="linearGradient1630"
       inkscape:collect="always">
      <stop
         id="stop1626"
         offset="0"
         style="stop-color:#aa5fff;stop-opacity:1" />
      <stop
         id="stop1628"
         offset="1"
         style="stop-color:#5100ea;stop-opacity:1" />
    </linearGradient>
    <filter
       color-interpolation-filters="sRGB"
       height="1.1311001"
       width="1.1106"
       y="-0.065563001"
       x="-0.055319"
       id="c-9">
      <feGaussianBlur
         id="feGaussianBlur1093"
         stdDeviation="1.1062912" />
    </filter>
    <linearGradient
       gradientUnits="userSpaceOnUse"
       gradientTransform="matrix(0.13235,0,0,0.13075,-32.379,1.0873)"
       y2="269.48999"
       y1="235.14999"
       x2="657.65002"
       x1="319.20999"
       id="a-12">
      <stop
         id="stop1076"
         offset="0"
         stop-color="#e54c18" />
      <stop
         id="stop1078"
         offset="1"
         stop-color="#fec350" />
    </linearGradient>
    <radialGradient
       inkscape:collect="always"
       xlink:href="#linearGradient1630"
       id="radialGradient870"
       cx="16.951138"
       cy="2.8905015"
       fx="16.951138"
       fy="2.8905015"
       r="14.543719"
       gradientUnits="userSpaceOnUse"
       gradientTransform="matrix(7.6697301,0,0,2.6553413,-113.05951,-4.7847666)" />
    <linearGradient
       inkscape:collect="always"
       xlink:href="#linearGradient1040"
       id="linearGradient1042"
       x1="18.839739"
       y1="92.852234"
       x2="18.839739"
       y2="8.6782551"
       gradientUnits="userSpaceOnUse" />
  </defs>
  <sodipodi:namedview
     id="base"
     pagecolor="#ffffff"
     bordercolor="#666666"
     borderopacity="1.0"
     inkscape:pageopacity="0.0"
     inkscape:pageshadow="2"
     inkscape:zoom="0.98994951"
     inkscape:cx="-214.65741"
     inkscape:cy="-4.0406101"
     inkscape:document-units="mm"
     inkscape:current-layer="layer1"
     inkscape:document-rotation="0"
     showgrid="false"
     units="px"
     inkscape:window-width="1920"
     inkscape:window-height="1002"
     inkscape:window-x="0"
     inkscape:window-y="0"
     inkscape:window-maximized="1"
     inkscape:pagecheckerboard="0" />
  <metadata
     id="metadata1440">
    <rdf:RDF>
      <cc:Work
         rdf:about="">
        <dc:format>image/svg+xml</dc:format>
        <dc:type
           rdf:resource="http://purl.org/dc/dcmitype/StillImage" />
      </cc:Work>
    </rdf:RDF>
  </metadata>
  <g
     inkscape:label="Capa 1"
     inkscape:groupmode="layer"
     id="layer1">
    <g
       style="opacity:0.295"
       transform="matrix(0.97573206,0,0,0.97573206,-65.737228,-37.182508)"
       id="g1702">
      <rect
         ry="6.6098609"
         rx="6.6098609"
         y="40.709618"
         x="69.839508"
         height="29.810888"
         width="29.810888"
         id="rect1634"
         style="fill:none;fill-opacity:1;stroke:#000000;stroke-width:0.1;stroke-linecap:round;stroke-linejoin:round;stroke-miterlimit:4;stroke-dasharray:none;stroke-opacity:0.02" />
      <rect
         style="fill:none;fill-opacity:1;stroke:#000000;stroke-width:0.2;stroke-linecap:round;stroke-linejoin:round;stroke-miterlimit:4;stroke-dasharray:none;stroke-opacity:0.02"
         id="rect1638"
         width="29.810888"
         height="29.810888"
         x="69.839508"
         y="40.709618"
         rx="6.6098609"
         ry="6.6098609" />
      <rect
         ry="6.6098609"
         rx="6.6098609"
         y="40.709618"
         x="69.839508"
         height="29.810888"
         width="29.810888"
         id="rect1640"
         style="fill:none;fill-opacity:1;stroke:#000000;stroke-width:0.3;stroke-linecap:round;stroke-linejoin:round;stroke-miterlimit:4;stroke-dasharray:none;stroke-opacity:0.02" />
      <rect
         style="fill:none;fill-opacity:1;stroke:#000000;stroke-width:0.4;stroke-linecap:round;stroke-linejoin:round;stroke-miterlimit:4;stroke-dasharray:none;stroke-opacity:0.02"
         id="rect1642"
         width="29.810888"
         height="29.810888"
         x="69.839508"
         y="40.709618"
         rx="6.6098609"
         ry="6.6098609" />
      <rect
         ry="6.6098609"
         rx="6.6098609"
         y="40.709618"
         x="69.839508"
         height="29.810888"
         width="29.810888"
         id="rect1644"
         style="fill:none;fill-opacity:1;stroke:#000000;stroke-width:0.5;stroke-linecap:round;stroke-linejoin:round;stroke-miterlimit:4;stroke-dasharray:none;stroke-opacity:0.02" />
      <rect
         style="fill:none;fill-opacity:1;stroke:#000000;stroke-width:0.6;stroke-linecap:round;stroke-linejoin:round;stroke-miterlimit:4;stroke-dasharray:none;stroke-opacity:0.02"
         id="rect1646"
         width="29.810888"
         height="29.810888"
         x="69.839508"
         y="40.709618"
         rx="6.6098609"
         ry="6.6098609" />
      <rect
         ry="6.6098609"
         rx="6.6098609"
         y="40.709618"
         x="69.839508"
         height="29.810888"
         width="29.810888"
         id="rect1648"
         style="fill:none;fill-opacity:1;stroke:#000000;stroke-width:0.7;stroke-linecap:round;stroke-linejoin:round;stroke-miterlimit:4;stroke-dasharray:none;stroke-opacity:0.02" />
      <rect
         style="fill:none;fill-opacity:1;stroke:#000000;stroke-width:0.8;stroke-linecap:round;stroke-linejoin:round;stroke-miterlimit:4;stroke-dasharray:none;stroke-opacity:0.02"
         id="rect1650"
         width="29.810888"
         height="29.810888"
         x="69.839508"
         y="40.709618"
         rx="6.6098609"
         ry="6.6098609" />
      <rect
         ry="6.6098609"
         rx="6.6098609"
         y="40.709618"
         x="69.839508"
         height="29.810888"
         width="29.810888"
         id="rect1652"
         style="fill:none;fill-opacity:1;stroke:#000000;stroke-width:1;stroke-linecap:round;stroke-linejoin:round;stroke-miterlimit:4;stroke-dasharray:none;stroke-opacity:0.02" />
      <rect
         style="fill:none;fill-opacity:1;stroke:#000000;stroke-width:1.2;stroke-linecap:round;stroke-linejoin:round;stroke-miterlimit:4;stroke-dasharray:none;stroke-opacity:0.02"
         id="rect1654"
         width="29.810888"
         height="29.810888"
         x="69.839508"
         y="40.709618"
         rx="6.6098609"
         ry="6.6098609" />
      <rect
         ry="6.6098609"
         rx="6.6098609"
         y="40.709618"
         x="69.839508"
         height="29.810888"
         width="29.810888"
         id="rect1656"
         style="fill:none;fill-opacity:1;stroke:#000000;stroke-width:1.4;stroke-linecap:round;stroke-linejoin:round;stroke-miterlimit:4;stroke-dasharray:none;stroke-opacity:0.02" />
      <rect
         style="fill:none;fill-opacity:1;stroke:#000000;stroke-width:1.6;stroke-linecap:round;stroke-linejoin:round;stroke-miterlimit:4;stroke-dasharray:none;stroke-opacity:0.02"
         id="rect1658"
         width="29.810888"
         height="29.810888"
         x="69.839508"
         y="40.709618"
         rx="6.6098609"
         ry="6.6098609" />
      <rect
         ry="6.6098609"
         rx="6.6098609"
         y="40.709618"
         x="69.839508"
         height="29.810888"
         width="29.810888"
         id="rect1660"
         style="fill:none;fill-opacity:1;stroke:#000000;stroke-width:1.8;stroke-linecap:round;stroke-linejoin:round;stroke-miterlimit:4;stroke-dasharray:none;stroke-opacity:0.02" />
      <rect
         style="fill:none;fill-opacity:1;stroke:#000000;stroke-width:2;stroke-linecap:round;stroke-linejoin:round;stroke-miterlimit:4;stroke-dasharray:none;stroke-opacity:0.02"
         id="rect1662"
         width="29.810888"
         height="29.810888"
         x="69.839508"
         y="40.709618"
         rx="6.6098609"
         ry="6.6098609" />
      <rect
         ry="6.6098609"
         rx="6.6098609"
         y="40.709618"
         x="69.839508"
         height="29.810888"
         width="29.810888"
         id="rect1664"
         style="fill:none;fill-opacity:1;stroke:#000000;stroke-width:2.2;stroke-linecap:round;stroke-linejoin:round;stroke-miterlimit:4;stroke-dasharray:none;stroke-opacity:0.02" />
      <rect
         style="fill:none;fill-opacity:1;stroke:#000000;stroke-width:2.6;stroke-linecap:round;stroke-linejoin:round;stroke-miterlimit:4;stroke-dasharray:none;stroke-opacity:0.02"
         id="rect1666"
         width="29.810888"
         height="29.810888"
         x="69.839508"
         y="40.709618"
         rx="6.6098609"
         ry="6.6098609" />
      <rect
         ry="6.6098609"
         rx="6.6098609"
         y="40.709618"
         x="69.839508"
         height="29.810888"
         width="29.810888"
         id="rect1668"
         style="fill:none;fill-opacity:1;stroke:#000000;stroke-width:3;stroke-linecap:round;stroke-linejoin:round;stroke-miterlimit:4;stroke-dasharray:none;stroke-opacity:0.02" />
      <rect
         style="fill:none;fill-opacity:1;stroke:#000000;stroke-width:3.4;stroke-linecap:round;stroke-linejoin:round;stroke-miterlimit:4;stroke-dasharray:none;stroke-opacity:0.02"
         id="rect1670"
         width="29.810888"
         height="29.810888"
         x="69.839508"
         y="40.709618"
         rx="6.6098609"
         ry="6.6098609" />
      <rect
         ry="6.6098609"
         rx="6.6098609"
         y="40.709618"
         x="69.839508"
         height="29.810888"
         width="29.810888"
         id="rect1672"
         style="fill:none;fill-opacity:1;stroke:#000000;stroke-width:3.8;stroke-linecap:round;stroke-linejoin:round;stroke-miterlimit:4;stroke-dasharray:none;stroke-opacity:0.02" />
      <rect
         style="fill:none;fill-opacity:1;stroke:#000000;stroke-width:4.2;stroke-linecap:round;stroke-linejoin:round;stroke-miterlimit:4;stroke-dasharray:none;stroke-opacity:0.02"
         id="rect1674"
         width="29.810888"
         height="29.810888"
         x="69.839508"
         y="40.709618"
         rx="6.6098609"
         ry="6.6098609" />
      <rect
         ry="6.6098609"
         rx="6.6098609"
         y="40.709618"
         x="69.839508"
         height="29.810888"
         width="29.810888"
         id="rect1676"
         style="fill:none;fill-opacity:1;stroke:#000000;stroke-width:4.6;stroke-linecap:round;stroke-linejoin:round;stroke-miterlimit:4;stroke-dasharray:none;stroke-opacity:0.02" />
      <rect
         style="fill:none;fill-opacity:1;stroke:#000000;stroke-width:5;stroke-linecap:round;stroke-linejoin:round;stroke-miterlimit:4;stroke-dasharray:none;stroke-opacity:0.02"
         id="rect1678"
         width="29.810888"
         height="29.810888"
         x="69.839508"
         y="40.709618"
         rx="6.6098609"
         ry="6.6098609" />
    </g>
    <rect
       ry="6.4494534"
       rx="6.4494534"
       y="2.539171"
       x="2.4074225"
       height="29.087439"
       width="29.087439"
       id="rect849"
       style="fill:url(#radialGradient870);fill-opacity:1;stroke-width:2.68768;stroke-linecap:round;stroke-linejoin:round" />
    <path
       id="path2897"
       style="fill:#440040;fill-opacity:0.06273744;stroke-width:0.202356"
       d="m 12.704985,10.762347 c -0.468703,0.05157 -0.927706,0.202052 -1.347721,0.447518 v 14.415657 c 0.420016,0.245467 0.879017,0.395944 1.347721,0.447518 z m 9.266101,0 c -0.468702,0.05157 -0.927706,0.202052 -1.347721,0.447518 v 6.267318 c -0.140808,-0.492346 -0.395098,-0.959272 -0.761711,-1.362191 v -4.308264 l -1.347721,1.347721 v 1.60197 l -0.76171,-0.761711 v -0.07855 l -0.03927,0.03927 -0.02791,-0.02791 v 0.05581 l -0.761194,0.761194 v -1.578198 l -1.347721,-1.347722 v 4.282943 c -0.362956,0.394857 -0.61714,0.852444 -0.761711,1.335319 V 11.2171 C 14.3947,10.969545 13.935767,10.817134 13.466696,10.763897 v 15.307076 c 0.469074,-0.05324 0.928001,-0.20513 1.347721,-0.452685 v -6.219776 c 0.144556,0.482827 0.398813,0.939973 0.761711,1.334803 v 4.283459 l 1.347721,-1.347721 v -1.578715 l 0.761194,0.761194 v 0.05581 l 0.02791,-0.02791 0.03927,0.03927 v -0.07855 l 0.76171,-0.761194 v 1.601452 l 1.347721,1.347722 v -4.307748 c 0.366671,-0.402945 0.620889,-0.870313 0.761711,-1.362707 v 6.267834 c 0.420016,0.245467 0.879019,0.395944 1.347721,0.447518 z m 0.761711,0.0015 v 15.307076 c 0.469074,-0.05324 0.928001,-0.20513 1.347721,-0.452685 V 11.2171 c -0.419719,-0.247555 -0.878649,-0.399966 -1.347721,-0.453203 z m -12.137244,1.042831 -1.3477211,1.347721 v 10.525972 l 1.3477211,1.347722 z m 14.246159,0.01188 V 25.016769 L 26.18995,23.669048 V 13.166335 Z M 8.4866381,13.91616 7.1389168,15.263881 v 6.307108 l 1.3477213,1.347722 z m 18.4645069,0.01137 v 8.979814 l 1.348237,-1.347721 V 15.275767 Z M 6.377206,16.029209 c -1.2971788,1.333838 -1.2971788,3.443129 0,4.776969 z m 22.683369,0.0124 v 4.751648 c 1.281078,-1.330331 1.281078,-3.421314 0,-4.751648 z" />
    <path
       id="path2697"
       style="fill:#440040;fill-opacity:0.168758;stroke-width:0.202356"
       d="m 12.136614,9.9006162 c -0.468703,0.05157 -0.927706,0.2020518 -1.347721,0.4475178 v 14.415657 c 0.420016,0.245467 0.879017,0.395944 1.347721,0.447518 z m 9.266101,0 c -0.468702,0.05157 -0.927706,0.2020518 -1.347721,0.4475178 v 6.267318 C 19.914186,16.123106 19.659896,15.65618 19.293283,15.253261 v -4.308264 l -1.347721,1.347721 v 1.60197 l -0.76171,-0.761711 v -0.07855 l -0.03927,0.03927 -0.02791,-0.02791 v 0.05581 l -0.761194,0.761194 v -1.578198 l -1.347721,-1.347722 v 4.282943 c -0.362956,0.394857 -0.61714,0.852444 -0.761711,1.335319 V 10.355369 C 13.826329,10.107814 13.367396,9.9554034 12.898325,9.9021664 V 25.209242 c 0.469074,-0.05324 0.928001,-0.20513 1.347721,-0.452685 v -6.219776 c 0.144556,0.482827 0.398813,0.939973 0.761711,1.334803 v 4.283459 l 1.347721,-1.347721 v -1.578715 l 0.761194,0.761194 v 0.05581 l 0.02791,-0.02791 0.03927,0.03927 v -0.07855 l 0.76171,-0.761194 v 1.601452 l 1.347721,1.347722 v -4.307748 c 0.366671,-0.402945 0.620889,-0.870313 0.761711,-1.362707 v 6.267834 c 0.420016,0.245467 0.879019,0.395944 1.347721,0.447518 z m 0.761711,0.00155 V 25.209242 c 0.469074,-0.05324 0.928001,-0.20513 1.347721,-0.452685 V 10.355369 C 23.092428,10.107814 22.633498,9.9554034 22.164426,9.9021662 Z M 10.027182,10.944997 8.6794609,12.292718 V 22.81869 l 1.3477211,1.347722 z m 14.246159,0.01188 v 13.198161 l 1.348238,-1.347721 V 12.304604 Z M 7.9182671,13.054429 6.5705458,14.40215 v 6.307108 l 1.3477213,1.347722 z m 18.4645069,0.01137 v 8.979814 l 1.348237,-1.347721 V 14.414036 Z M 5.808835,15.167478 c -1.2971788,1.333838 -1.2971788,3.443129 0,4.776969 z m 22.683369,0.0124 v 4.751648 c 1.281078,-1.330331 1.281078,-3.421314 0,-4.751648 z" />
    <path
       id="rect849-3"
       style="fill:url(#linearGradient1042);fill-opacity:1;stroke-width:0.202356"
       d="m 11.943274,9.4275439 c -0.468703,0.05157 -0.927706,0.2020517 -1.347721,0.4475178 V 24.290719 c 0.420016,0.245467 0.879017,0.395944 1.347721,0.447518 z m 9.266101,0 c -0.468702,0.05157 -0.927706,0.2020517 -1.347721,0.4475178 V 16.14238 c -0.140808,-0.492346 -0.395098,-0.959272 -0.761711,-1.362191 v -4.308264 l -1.347721,1.347721 v 1.60197 l -0.76171,-0.761711 v -0.07855 l -0.03927,0.03927 -0.02791,-0.02791 v 0.05581 l -0.761194,0.761194 v -1.578198 l -1.347721,-1.347722 v 4.282943 c -0.362956,0.394857 -0.61714,0.852444 -0.761711,1.335319 V 9.8822967 C 13.632989,9.6347415 13.174056,9.4823311 12.704985,9.4290941 V 24.73617 c 0.469074,-0.05324 0.928001,-0.20513 1.347721,-0.452685 v -6.219776 c 0.144556,0.482827 0.398813,0.939973 0.761711,1.334803 v 4.283459 l 1.347721,-1.347721 v -1.578715 l 0.761194,0.761194 v 0.05581 l 0.02791,-0.02791 0.03927,0.03927 v -0.07855 l 0.76171,-0.761194 v 1.601452 l 1.347721,1.347722 v -4.307748 c 0.366671,-0.402945 0.620889,-0.870313 0.761711,-1.362707 v 6.267834 c 0.420016,0.245467 0.879019,0.395944 1.347721,0.447518 z m 0.761711,0.00155 V 24.73617 c 0.469074,-0.05324 0.928001,-0.20513 1.347721,-0.452685 V 9.8822967 C 22.899088,9.6347415 22.440158,9.4823311 21.971086,9.4290939 Z M 9.8338426,10.471925 8.4861212,11.819646 v 10.525972 l 1.3477214,1.347722 z m 14.2461584,0.01188 v 13.198161 l 1.348238,-1.347721 V 11.831532 Z M 7.7249274,12.581357 6.3772061,13.929078 v 6.307108 l 1.3477213,1.347722 z m 18.4645066,0.01137 v 8.979814 L 27.537671,20.22482 V 13.940964 Z M 5.6154953,14.694406 c -1.2971788,1.333838 -1.2971788,3.443129 0,4.776969 z m 22.6833687,0.0124 v 4.751648 c 1.281078,-1.330331 1.281078,-3.421314 0,-4.751648 z" />
  </g>
</svg>
