<?xml version="1.0" encoding="UTF-8" standalone="no"?>
<svg
   width="128"
   height="128"
   viewBox="0 0 33.866666 33.866668"
   version="1.1"
   id="svg2547"
   inkscape:version="1.1.2 (0a00cf5339, 2022-02-04)"
   sodipodi:docname="mullvad-vpn.svg"
   xmlns:inkscape="http://www.inkscape.org/namespaces/inkscape"
   xmlns:sodipodi="http://sodipodi.sourceforge.net/DTD/sodipodi-0.dtd"
   xmlns:xlink="http://www.w3.org/1999/xlink"
   xmlns="http://www.w3.org/2000/svg"
   xmlns:svg="http://www.w3.org/2000/svg"
   xmlns:rdf="http://www.w3.org/1999/02/22-rdf-syntax-ns#"
   xmlns:cc="http://creativecommons.org/ns#"
   xmlns:dc="http://purl.org/dc/elements/1.1/">
  <defs
     id="defs2541">
    <linearGradient
       inkscape:collect="always"
       xlink:href="#linearGradient934"
       id="linearGradient936"
       x1="-27.205925"
       y1="-1.3796136"
       x2="-27.205925"
       y2="25.267708"
       gradientUnits="userSpaceOnUse"
       gradientTransform="translate(43.841853,5.63249)" />
    <linearGradient
       inkscape:collect="always"
       id="linearGradient934">
      <stop
         style="stop-color:#f5f9fb;stop-opacity:1"
         offset="0"
         id="stop930" />
      <stop
         style="stop-color:#f5eeec;stop-opacity:1"
         offset="1"
         id="stop932" />
    </linearGradient>
    <linearGradient
       xlink:href="#a"
       id="c"
       x1="24.671"
       x2="4.0320001"
       y1="32.264999"
       y2="-3.0280001"
       gradientTransform="translate(14.798,18.572)"
       gradientUnits="userSpaceOnUse" />
    <linearGradient
       id="a"
       x1="24.671"
       x2="4.0320001"
       y1="32.264999"
       y2="-3.0280001"
       gradientUnits="userSpaceOnUse">
      <stop
         offset=".066"
         stop-color="#ABFFEF"
         id="stop11" />
      <stop
         offset=".45"
         stop-color="#CAC9FF"
         id="stop13" />
      <stop
         offset="1"
         stop-color="#6D4AFF"
         id="stop15" />
    </linearGradient>
    <filter
       id="d"
       width="1.303435"
       height="1.3324105"
       x="-0.15171751"
       y="-0.16620524"
       color-interpolation-filters="sRGB">
      <feGaussianBlur
         stdDeviation="2.081"
         id="feGaussianBlur24" />
    </filter>
    <linearGradient
       id="e"
       x1="21.374001"
       x2="22.493999"
       y1="-17.476"
       y2="20.608999"
       gradientTransform="matrix(0.61533792,0,0,0.61533792,4.5975304,8.3295091)"
       gradientUnits="userSpaceOnUse">
      <stop
         offset=".989"
         stop-color="#6D4AFF"
         id="stop2" />
    </linearGradient>
    <linearGradient
       id="f"
       x1="21.591999"
       x2="12.284"
       y1="-12.203"
       y2="27.874001"
       gradientTransform="matrix(0.61533792,0,0,0.61533792,4.5975304,8.3295091)"
       gradientUnits="userSpaceOnUse">
      <stop
         offset=".48"
         stop-color="#24ECC6"
         stop-opacity="0"
         id="stop5" />
      <stop
         offset=".994"
         stop-color="#24ECC6"
         id="stop7" />
    </linearGradient>
    <linearGradient
       xlink:href="#a"
       id="g"
       x1="24.671"
       x2="4.0320001"
       y1="32.264999"
       y2="-3.0280001"
       gradientTransform="matrix(0.61533792,0,0,0.61533792,4.5975304,8.3295091)"
       gradientUnits="userSpaceOnUse" />
    <filter
       id="b"
       width="1.299904"
       height="1.2883692"
       x="-0.149952"
       y="-0.14418462"
       color-interpolation-filters="sRGB">
      <feGaussianBlur
         stdDeviation="1.562"
         id="feGaussianBlur22" />
    </filter>
    <linearGradient
       id="c-3"
       x1="19.570999"
       x2="43.064999"
       y1="34.216999"
       y2="34.216999"
       gradientUnits="userSpaceOnUse">
      <stop
         offset="0"
         stop-color="#e9be35"
         id="stop7-6" />
      <stop
         offset="1"
         stop-color="#cc7533"
         id="stop9" />
    </linearGradient>
    <filter
       id="d-7"
       width="1.2307799"
       height="1.6013072"
       x="-0.11538997"
       y="-0.30065359"
       color-interpolation-filters="sRGB">
      <feGaussianBlur
         stdDeviation="1.035"
         id="feGaussianBlur25" />
    </filter>
    <linearGradient
       id="e-5"
       x1="18.070999"
       x2="21.070999"
       y1="24.716999"
       y2="24.716999"
       gradientUnits="userSpaceOnUse">
      <stop
         offset="0"
         stop-color="#ffc086"
         id="stop17" />
      <stop
         offset="1"
         stop-color="#ffd59c"
         id="stop19" />
    </linearGradient>
    <linearGradient
       id="f-3"
       x1="25.070999"
       x2="43.070999"
       y1="25.216999"
       y2="25.216999"
       gradientUnits="userSpaceOnUse">
      <stop
         offset="0"
         stop-color="#fdfa21"
         id="stop12" />
      <stop
         offset="1"
         stop-color="#fdbe21"
         id="stop14" />
    </linearGradient>
    <filter
       id="g-5"
       width="2.6559999"
       height="2.242"
       x="-0.82799997"
       y="-0.62099998"
       color-interpolation-filters="sRGB">
      <feGaussianBlur
         stdDeviation="1.035"
         id="feGaussianBlur28" />
    </filter>
  </defs>
  <sodipodi:namedview
     id="base"
     pagecolor="#ffffff"
     bordercolor="#666666"
     borderopacity="1.0"
     inkscape:pageopacity="0.0"
     inkscape:pageshadow="2"
     inkscape:zoom="1.979899"
     inkscape:cx="53.033008"
     inkscape:cy="46.972093"
     inkscape:document-units="mm"
     inkscape:current-layer="layer1"
     inkscape:document-rotation="0"
     showgrid="false"
     units="px"
     inkscape:window-width="1514"
     inkscape:window-height="941"
     inkscape:window-x="50"
     inkscape:window-y="27"
     inkscape:window-maximized="0"
     inkscape:pagecheckerboard="0" />
  <metadata
     id="metadata2544">
    <rdf:RDF>
      <cc:Work
         rdf:about="">
        <dc:format>image/svg+xml</dc:format>
        <dc:type
           rdf:resource="http://purl.org/dc/dcmitype/StillImage" />
      </cc:Work>
    </rdf:RDF>
  </metadata>
  <g
     inkscape:label="Capa 1"
     inkscape:groupmode="layer"
     id="layer1">
    <g
       id="g1702"
       transform="matrix(0.97573206,0,0,0.97573206,-65.777323,-37.255828)"
       style="opacity:0.296765">
      <rect
         style="fill:none;fill-opacity:1;stroke:#000000;stroke-width:0.1;stroke-linecap:round;stroke-linejoin:round;stroke-miterlimit:4;stroke-dasharray:none;stroke-opacity:0.02"
         id="rect1634"
         width="29.810888"
         height="29.810888"
         x="69.839508"
         y="40.709618"
         rx="6.6098609"
         ry="6.6098609" />
      <rect
         ry="6.6098609"
         rx="6.6098609"
         y="40.709618"
         x="69.839508"
         height="29.810888"
         width="29.810888"
         id="rect1638"
         style="fill:none;fill-opacity:1;stroke:#000000;stroke-width:0.2;stroke-linecap:round;stroke-linejoin:round;stroke-miterlimit:4;stroke-dasharray:none;stroke-opacity:0.02" />
      <rect
         style="fill:none;fill-opacity:1;stroke:#000000;stroke-width:0.3;stroke-linecap:round;stroke-linejoin:round;stroke-miterlimit:4;stroke-dasharray:none;stroke-opacity:0.02"
         id="rect1640"
         width="29.810888"
         height="29.810888"
         x="69.839508"
         y="40.709618"
         rx="6.6098609"
         ry="6.6098609" />
      <rect
         ry="6.6098609"
         rx="6.6098609"
         y="40.709618"
         x="69.839508"
         height="29.810888"
         width="29.810888"
         id="rect1642"
         style="fill:none;fill-opacity:1;stroke:#000000;stroke-width:0.4;stroke-linecap:round;stroke-linejoin:round;stroke-miterlimit:4;stroke-dasharray:none;stroke-opacity:0.02" />
      <rect
         style="fill:none;fill-opacity:1;stroke:#000000;stroke-width:0.5;stroke-linecap:round;stroke-linejoin:round;stroke-miterlimit:4;stroke-dasharray:none;stroke-opacity:0.02"
         id="rect1644"
         width="29.810888"
         height="29.810888"
         x="69.839508"
         y="40.709618"
         rx="6.6098609"
         ry="6.6098609" />
      <rect
         ry="6.6098609"
         rx="6.6098609"
         y="40.709618"
         x="69.839508"
         height="29.810888"
         width="29.810888"
         id="rect1646"
         style="fill:none;fill-opacity:1;stroke:#000000;stroke-width:0.6;stroke-linecap:round;stroke-linejoin:round;stroke-miterlimit:4;stroke-dasharray:none;stroke-opacity:0.02" />
      <rect
         style="fill:none;fill-opacity:1;stroke:#000000;stroke-width:0.7;stroke-linecap:round;stroke-linejoin:round;stroke-miterlimit:4;stroke-dasharray:none;stroke-opacity:0.02"
         id="rect1648"
         width="29.810888"
         height="29.810888"
         x="69.839508"
         y="40.709618"
         rx="6.6098609"
         ry="6.6098609" />
      <rect
         ry="6.6098609"
         rx="6.6098609"
         y="40.709618"
         x="69.839508"
         height="29.810888"
         width="29.810888"
         id="rect1650"
         style="fill:none;fill-opacity:1;stroke:#000000;stroke-width:0.8;stroke-linecap:round;stroke-linejoin:round;stroke-miterlimit:4;stroke-dasharray:none;stroke-opacity:0.02" />
      <rect
         style="fill:none;fill-opacity:1;stroke:#000000;stroke-width:1;stroke-linecap:round;stroke-linejoin:round;stroke-miterlimit:4;stroke-dasharray:none;stroke-opacity:0.02"
         id="rect1652"
         width="29.810888"
         height="29.810888"
         x="69.839508"
         y="40.709618"
         rx="6.6098609"
         ry="6.6098609" />
      <rect
         ry="6.6098609"
         rx="6.6098609"
         y="40.709618"
         x="69.839508"
         height="29.810888"
         width="29.810888"
         id="rect1654"
         style="fill:none;fill-opacity:1;stroke:#000000;stroke-width:1.2;stroke-linecap:round;stroke-linejoin:round;stroke-miterlimit:4;stroke-dasharray:none;stroke-opacity:0.02" />
      <rect
         style="fill:none;fill-opacity:1;stroke:#000000;stroke-width:1.4;stroke-linecap:round;stroke-linejoin:round;stroke-miterlimit:4;stroke-dasharray:none;stroke-opacity:0.02"
         id="rect1656"
         width="29.810888"
         height="29.810888"
         x="69.839508"
         y="40.709618"
         rx="6.6098609"
         ry="6.6098609" />
      <rect
         ry="6.6098609"
         rx="6.6098609"
         y="40.709618"
         x="69.839508"
         height="29.810888"
         width="29.810888"
         id="rect1658"
         style="fill:none;fill-opacity:1;stroke:#000000;stroke-width:1.6;stroke-linecap:round;stroke-linejoin:round;stroke-miterlimit:4;stroke-dasharray:none;stroke-opacity:0.02" />
      <rect
         style="fill:none;fill-opacity:1;stroke:#000000;stroke-width:1.8;stroke-linecap:round;stroke-linejoin:round;stroke-miterlimit:4;stroke-dasharray:none;stroke-opacity:0.02"
         id="rect1660"
         width="29.810888"
         height="29.810888"
         x="69.839508"
         y="40.709618"
         rx="6.6098609"
         ry="6.6098609" />
      <rect
         ry="6.6098609"
         rx="6.6098609"
         y="40.709618"
         x="69.839508"
         height="29.810888"
         width="29.810888"
         id="rect1662"
         style="fill:none;fill-opacity:1;stroke:#000000;stroke-width:2;stroke-linecap:round;stroke-linejoin:round;stroke-miterlimit:4;stroke-dasharray:none;stroke-opacity:0.02" />
      <rect
         style="fill:none;fill-opacity:1;stroke:#000000;stroke-width:2.2;stroke-linecap:round;stroke-linejoin:round;stroke-miterlimit:4;stroke-dasharray:none;stroke-opacity:0.02"
         id="rect1664"
         width="29.810888"
         height="29.810888"
         x="69.839508"
         y="40.709618"
         rx="6.6098609"
         ry="6.6098609" />
      <rect
         ry="6.6098609"
         rx="6.6098609"
         y="40.709618"
         x="69.839508"
         height="29.810888"
         width="29.810888"
         id="rect1666"
         style="fill:none;fill-opacity:1;stroke:#000000;stroke-width:2.6;stroke-linecap:round;stroke-linejoin:round;stroke-miterlimit:4;stroke-dasharray:none;stroke-opacity:0.02" />
      <rect
         style="fill:none;fill-opacity:1;stroke:#000000;stroke-width:3;stroke-linecap:round;stroke-linejoin:round;stroke-miterlimit:4;stroke-dasharray:none;stroke-opacity:0.02"
         id="rect1668"
         width="29.810888"
         height="29.810888"
         x="69.839508"
         y="40.709618"
         rx="6.6098609"
         ry="6.6098609" />
      <rect
         ry="6.6098609"
         rx="6.6098609"
         y="40.709618"
         x="69.839508"
         height="29.810888"
         width="29.810888"
         id="rect1670"
         style="fill:none;fill-opacity:1;stroke:#000000;stroke-width:3.4;stroke-linecap:round;stroke-linejoin:round;stroke-miterlimit:4;stroke-dasharray:none;stroke-opacity:0.02" />
      <rect
         style="fill:none;fill-opacity:1;stroke:#000000;stroke-width:3.8;stroke-linecap:round;stroke-linejoin:round;stroke-miterlimit:4;stroke-dasharray:none;stroke-opacity:0.02"
         id="rect1672"
         width="29.810888"
         height="29.810888"
         x="69.839508"
         y="40.709618"
         rx="6.6098609"
         ry="6.6098609" />
      <rect
         ry="6.6098609"
         rx="6.6098609"
         y="40.709618"
         x="69.839508"
         height="29.810888"
         width="29.810888"
         id="rect1674"
         style="fill:none;fill-opacity:1;stroke:#000000;stroke-width:4.2;stroke-linecap:round;stroke-linejoin:round;stroke-miterlimit:4;stroke-dasharray:none;stroke-opacity:0.02" />
      <rect
         style="fill:none;fill-opacity:1;stroke:#000000;stroke-width:4.6;stroke-linecap:round;stroke-linejoin:round;stroke-miterlimit:4;stroke-dasharray:none;stroke-opacity:0.02"
         id="rect1676"
         width="29.810888"
         height="29.810888"
         x="69.839508"
         y="40.709618"
         rx="6.6098609"
         ry="6.6098609" />
      <rect
         ry="6.6098609"
         rx="6.6098609"
         y="40.709618"
         x="69.839508"
         height="29.810888"
         width="29.810888"
         id="rect1678"
         style="fill:none;fill-opacity:1;stroke:#000000;stroke-width:5;stroke-linecap:round;stroke-linejoin:round;stroke-miterlimit:4;stroke-dasharray:none;stroke-opacity:0.02" />
    </g>
    <rect
       style="fill:url(#linearGradient936);fill-opacity:1;stroke-width:2.68769;stroke-linecap:round;stroke-linejoin:round"
       id="rect849-5"
       width="29.08744"
       height="29.08744"
       x="2.3673291"
       y="2.4658532"
       rx="6.4494534"
       ry="6.4494534" />
    <g
       transform="matrix(0.7147662,0,0,0.7147662,-6.3822766,-4.8992027)"
       id="g55">
      <path
         d="m 37.071,19.217 c -1.48,0 -2.7,0.4 -3.648,1.072 a 0.9,0.9 0 0 0 -0.352,-0.072 c -0.828,0 -2,1 -2,2.5 0,0.186 0.03,0.345 0.064,0.5 h -5.064 l 5,2 h -9.088 a 1.5,1.5 0 0 0 -1.412,-1 1.5,1.5 0 0 0 -1.5,1.5 1.5,1.5 0 0 0 1.5,1.5 c 3.933,4.684 4.5,8 10.5,8 2,0 3.373,-0.834 5,-2 l 1,1 -1,-0.5 c -0.575,1 -1.877,2.5 -5,2.5 -2,0 -3.206,-0.501 -4,-1 0,2 1,1 1,2.5 0,1.413 -1.488,2.75 -2.836,3.813 a 15,15 0 0 0 9.836,3.687 15,15 0 0 0 8.994,-3.014 c -0.957,-2.866 -1.904,-3.959 -1.98,-9.328 0.536,0.196 0.986,0.342 0.986,0.342 0,-5 1,-4 1,-8 0,-3.314 -3.134,-6 -7,-6 z"
         filter="url(#b)"
         opacity="0.15"
         id="path41" />
      <path
         fill="url(#c)"
         d="m 20.071,24.217 -0.5,2 c 3.933,4.684 4.5,8 10.5,8 2,0 3.373,-0.834 5,-2 l 1,1 -1,-0.5 c -0.575,1 -1.877,2.5 -5,2.5 -2,0 -3.206,-0.501 -4,-1 0,2 1,1 1,2.5 0,1.413 -1.488,2.75 -2.836,3.813 a 15,15 0 0 0 9.836,3.687 15,15 0 0 0 8.994,-3.014 c -0.998,-2.988 -1.994,-3.997 -1.994,-9.986 l -7,-7 z"
         id="path43"
         style="fill:url(#c-3)" />
      <path
         d="m 20.571,24.217 a 1.5,1.5 0 0 0 -0.523,0.098 l -0.477,1.902 c 0.286,0.34 0.522,0.657 0.775,0.982 a 1.5,1.5 0 0 0 0.225,0.018 1.5,1.5 0 0 0 1.5,-1.5 1.5,1.5 0 0 0 -1.5,-1.5 z m 8,0 2.5,1 c 3.367,4.04 7.595,6.238 10.027,7.262 -0.012,-0.41 -0.027,-0.796 -0.027,-1.262 l -7,-7 z"
         filter="url(#d)"
         opacity="0.1"
         id="path45"
         style="filter:url(#d-7)" />
      <circle
         cx="19.570999"
         cy="24.716999"
         r="1.5"
         fill="url(#e)"
         id="circle47"
         style="fill:url(#e-5)" />
      <path
         fill="url(#f)"
         d="m 36.071,18.217 c -3.047,0 -5.013,1.67 -5.71,4 h -5.29 l 5,2 c 5,6 12,8 12,8 0,-5 1,-4 1,-8 0,-3.314 -3.134,-6 -7,-6 z"
         id="path49"
         style="fill:url(#f-3)" />
      <path
         d="m 34.071,21.717 c 0,1.5 -1,2.5 -2,2.5 -0.529,0 -1,-0.563 -1,-1.5 0,-1.5 1.172,-2.5 2,-2.5 0.673,0 1,0.6 1,1.5 z"
         filter="url(#g)"
         opacity="0.1"
         id="path51"
         style="filter:url(#g-5)" />
      <path
         fill="#f9f9f9"
         d="m 33.071,20.717 c 0,1.5 -1,2.5 -2,2.5 -0.529,0 -1,-0.563 -1,-1.5 0,-1.5 1.172,-2.5 2,-2.5 0.673,0 1,0.6 1,1.5 z"
         id="path53" />
    </g>
  </g>
</svg>
