<?xml version="1.0" encoding="UTF-8" standalone="no"?>
<svg
   xmlns:dc="http://purl.org/dc/elements/1.1/"
   xmlns:cc="http://creativecommons.org/ns#"
   xmlns:rdf="http://www.w3.org/1999/02/22-rdf-syntax-ns#"
   xmlns:svg="http://www.w3.org/2000/svg"
   xmlns="http://www.w3.org/2000/svg"
   xmlns:xlink="http://www.w3.org/1999/xlink"
   xmlns:sodipodi="http://sodipodi.sourceforge.net/DTD/sodipodi-0.dtd"
   xmlns:inkscape="http://www.inkscape.org/namespaces/inkscape"
   width="128"
   height="128"
   viewBox="0 0 33.866666 33.866668"
   version="1.1"
   id="svg1443"
   inkscape:version="1.0.2 (e86c870879, 2021-01-15)"
   sodipodi:docname="netbeans.svg">
  <defs
     id="defs1437">
    <linearGradient
       inkscape:collect="always"
       id="linearGradient903">
      <stop
         style="stop-color:#ffffff;stop-opacity:1;"
         offset="0"
         id="stop899" />
      <stop
         style="stop-color:#e1faf1;stop-opacity:1"
         offset="1"
         id="stop901" />
    </linearGradient>
    <linearGradient
       id="linearGradient1630"
       inkscape:collect="always">
      <stop
         id="stop1626"
         offset="0"
         style="stop-color:#8af55d;stop-opacity:1" />
      <stop
         id="stop1628"
         offset="1"
         style="stop-color:#00c6a1;stop-opacity:1" />
    </linearGradient>
    <filter
       color-interpolation-filters="sRGB"
       height="1.1311001"
       width="1.1106"
       y="-0.065563001"
       x="-0.055319"
       id="c-9">
      <feGaussianBlur
         id="feGaussianBlur1093"
         stdDeviation="1.1062912" />
    </filter>
    <linearGradient
       gradientUnits="userSpaceOnUse"
       gradientTransform="matrix(0.13235,0,0,0.13075,-32.379,1.0873)"
       y2="269.48999"
       y1="235.14999"
       x2="657.65002"
       x1="319.20999"
       id="a-12">
      <stop
         id="stop1076"
         offset="0"
         stop-color="#e54c18" />
      <stop
         id="stop1078"
         offset="1"
         stop-color="#fec350" />
    </linearGradient>
    <radialGradient
       inkscape:collect="always"
       xlink:href="#linearGradient1630"
       id="radialGradient948"
       cx="16.951138"
       cy="6.0443439"
       fx="16.951138"
       fy="6.0443439"
       r="14.543719"
       gradientUnits="userSpaceOnUse"
       gradientTransform="matrix(3.1335146,0,0,1.987443,-36.165498,-5.9684452)" />
    <linearGradient
       id="b"
       x2="1"
       gradientTransform="matrix(1.790745,-9.6748334,9.6748334,1.790745,422.75083,95.789749)"
       gradientUnits="userSpaceOnUse">
      <stop
         stop-color="#cdd0d1"
         stop-opacity=".98"
         offset="0"
         id="stop7" />
      <stop
         stop-color="#f6f6f7"
         stop-opacity=".98"
         offset="1"
         id="stop9" />
    </linearGradient>
    <linearGradient
       inkscape:collect="always"
       xlink:href="#linearGradient903"
       id="linearGradient905"
       x1="15.546783"
       y1="10.397964"
       x2="15.546783"
       y2="25.912857"
       gradientUnits="userSpaceOnUse" />
  </defs>
  <sodipodi:namedview
     id="base"
     pagecolor="#ffffff"
     bordercolor="#666666"
     borderopacity="1.0"
     inkscape:pageopacity="0.0"
     inkscape:pageshadow="2"
     inkscape:zoom="1.4"
     inkscape:cx="-177.03638"
     inkscape:cy="-20.54722"
     inkscape:document-units="mm"
     inkscape:current-layer="layer1"
     inkscape:document-rotation="0"
     showgrid="false"
     units="px"
     inkscape:window-width="1920"
     inkscape:window-height="1028"
     inkscape:window-x="0"
     inkscape:window-y="24"
     inkscape:window-maximized="1" />
  <metadata
     id="metadata1440">
    <rdf:RDF>
      <cc:Work
         rdf:about="">
        <dc:format>image/svg+xml</dc:format>
        <dc:type
           rdf:resource="http://purl.org/dc/dcmitype/StillImage" />
        <dc:title></dc:title>
      </cc:Work>
    </rdf:RDF>
  </metadata>
  <g
     inkscape:label="Capa 1"
     inkscape:groupmode="layer"
     id="layer1">
    <g
       style="opacity:0.18753551"
       transform="matrix(0.97573206,0,0,0.96360993,-65.737228,-36.327649)"
       id="g1702">
      <rect
         ry="6.6098609"
         rx="6.6098609"
         y="40.709618"
         x="69.839508"
         height="29.810888"
         width="29.810888"
         id="rect1634"
         style="fill:none;fill-opacity:1;stroke:#000000;stroke-width:0.1;stroke-linecap:round;stroke-linejoin:round;stroke-miterlimit:4;stroke-dasharray:none;stroke-opacity:0.02" />
      <rect
         style="fill:none;fill-opacity:1;stroke:#000000;stroke-width:0.2;stroke-linecap:round;stroke-linejoin:round;stroke-miterlimit:4;stroke-dasharray:none;stroke-opacity:0.02"
         id="rect1638"
         width="29.810888"
         height="29.810888"
         x="69.839508"
         y="40.709618"
         rx="6.6098609"
         ry="6.6098609" />
      <rect
         ry="6.6098609"
         rx="6.6098609"
         y="40.709618"
         x="69.839508"
         height="29.810888"
         width="29.810888"
         id="rect1640"
         style="fill:none;fill-opacity:1;stroke:#000000;stroke-width:0.3;stroke-linecap:round;stroke-linejoin:round;stroke-miterlimit:4;stroke-dasharray:none;stroke-opacity:0.02" />
      <rect
         style="fill:none;fill-opacity:1;stroke:#000000;stroke-width:0.4;stroke-linecap:round;stroke-linejoin:round;stroke-miterlimit:4;stroke-dasharray:none;stroke-opacity:0.02"
         id="rect1642"
         width="29.810888"
         height="29.810888"
         x="69.839508"
         y="40.709618"
         rx="6.6098609"
         ry="6.6098609" />
      <rect
         ry="6.6098609"
         rx="6.6098609"
         y="40.709618"
         x="69.839508"
         height="29.810888"
         width="29.810888"
         id="rect1644"
         style="fill:none;fill-opacity:1;stroke:#000000;stroke-width:0.5;stroke-linecap:round;stroke-linejoin:round;stroke-miterlimit:4;stroke-dasharray:none;stroke-opacity:0.02" />
      <rect
         style="fill:none;fill-opacity:1;stroke:#000000;stroke-width:0.6;stroke-linecap:round;stroke-linejoin:round;stroke-miterlimit:4;stroke-dasharray:none;stroke-opacity:0.02"
         id="rect1646"
         width="29.810888"
         height="29.810888"
         x="69.839508"
         y="40.709618"
         rx="6.6098609"
         ry="6.6098609" />
      <rect
         ry="6.6098609"
         rx="6.6098609"
         y="40.709618"
         x="69.839508"
         height="29.810888"
         width="29.810888"
         id="rect1648"
         style="fill:none;fill-opacity:1;stroke:#000000;stroke-width:0.7;stroke-linecap:round;stroke-linejoin:round;stroke-miterlimit:4;stroke-dasharray:none;stroke-opacity:0.02" />
      <rect
         style="fill:none;fill-opacity:1;stroke:#000000;stroke-width:0.8;stroke-linecap:round;stroke-linejoin:round;stroke-miterlimit:4;stroke-dasharray:none;stroke-opacity:0.02"
         id="rect1650"
         width="29.810888"
         height="29.810888"
         x="69.839508"
         y="40.709618"
         rx="6.6098609"
         ry="6.6098609" />
      <rect
         ry="6.6098609"
         rx="6.6098609"
         y="40.709618"
         x="69.839508"
         height="29.810888"
         width="29.810888"
         id="rect1652"
         style="fill:none;fill-opacity:1;stroke:#000000;stroke-width:1;stroke-linecap:round;stroke-linejoin:round;stroke-miterlimit:4;stroke-dasharray:none;stroke-opacity:0.02" />
      <rect
         style="fill:none;fill-opacity:1;stroke:#000000;stroke-width:1.2;stroke-linecap:round;stroke-linejoin:round;stroke-miterlimit:4;stroke-dasharray:none;stroke-opacity:0.02"
         id="rect1654"
         width="29.810888"
         height="29.810888"
         x="69.839508"
         y="40.709618"
         rx="6.6098609"
         ry="6.6098609" />
      <rect
         ry="6.6098609"
         rx="6.6098609"
         y="40.709618"
         x="69.839508"
         height="29.810888"
         width="29.810888"
         id="rect1656"
         style="fill:none;fill-opacity:1;stroke:#000000;stroke-width:1.4;stroke-linecap:round;stroke-linejoin:round;stroke-miterlimit:4;stroke-dasharray:none;stroke-opacity:0.02" />
      <rect
         style="fill:none;fill-opacity:1;stroke:#000000;stroke-width:1.6;stroke-linecap:round;stroke-linejoin:round;stroke-miterlimit:4;stroke-dasharray:none;stroke-opacity:0.02"
         id="rect1658"
         width="29.810888"
         height="29.810888"
         x="69.839508"
         y="40.709618"
         rx="6.6098609"
         ry="6.6098609" />
      <rect
         ry="6.6098609"
         rx="6.6098609"
         y="40.709618"
         x="69.839508"
         height="29.810888"
         width="29.810888"
         id="rect1660"
         style="fill:none;fill-opacity:1;stroke:#000000;stroke-width:1.8;stroke-linecap:round;stroke-linejoin:round;stroke-miterlimit:4;stroke-dasharray:none;stroke-opacity:0.02" />
      <rect
         style="fill:none;fill-opacity:1;stroke:#000000;stroke-width:2;stroke-linecap:round;stroke-linejoin:round;stroke-miterlimit:4;stroke-dasharray:none;stroke-opacity:0.02"
         id="rect1662"
         width="29.810888"
         height="29.810888"
         x="69.839508"
         y="40.709618"
         rx="6.6098609"
         ry="6.6098609" />
      <rect
         ry="6.6098609"
         rx="6.6098609"
         y="40.709618"
         x="69.839508"
         height="29.810888"
         width="29.810888"
         id="rect1664"
         style="fill:none;fill-opacity:1;stroke:#000000;stroke-width:2.2;stroke-linecap:round;stroke-linejoin:round;stroke-miterlimit:4;stroke-dasharray:none;stroke-opacity:0.02" />
      <rect
         style="fill:none;fill-opacity:1;stroke:#000000;stroke-width:2.6;stroke-linecap:round;stroke-linejoin:round;stroke-miterlimit:4;stroke-dasharray:none;stroke-opacity:0.02"
         id="rect1666"
         width="29.810888"
         height="29.810888"
         x="69.839508"
         y="40.709618"
         rx="6.6098609"
         ry="6.6098609" />
      <rect
         ry="6.6098609"
         rx="6.6098609"
         y="40.709618"
         x="69.839508"
         height="29.810888"
         width="29.810888"
         id="rect1668"
         style="fill:none;fill-opacity:1;stroke:#000000;stroke-width:3;stroke-linecap:round;stroke-linejoin:round;stroke-miterlimit:4;stroke-dasharray:none;stroke-opacity:0.02" />
      <rect
         style="fill:none;fill-opacity:1;stroke:#000000;stroke-width:3.4;stroke-linecap:round;stroke-linejoin:round;stroke-miterlimit:4;stroke-dasharray:none;stroke-opacity:0.02"
         id="rect1670"
         width="29.810888"
         height="29.810888"
         x="69.839508"
         y="40.709618"
         rx="6.6098609"
         ry="6.6098609" />
      <rect
         ry="6.6098609"
         rx="6.6098609"
         y="40.709618"
         x="69.839508"
         height="29.810888"
         width="29.810888"
         id="rect1672"
         style="fill:none;fill-opacity:1;stroke:#000000;stroke-width:3.8;stroke-linecap:round;stroke-linejoin:round;stroke-miterlimit:4;stroke-dasharray:none;stroke-opacity:0.02" />
      <rect
         style="fill:none;fill-opacity:1;stroke:#000000;stroke-width:4.2;stroke-linecap:round;stroke-linejoin:round;stroke-miterlimit:4;stroke-dasharray:none;stroke-opacity:0.02"
         id="rect1674"
         width="29.810888"
         height="29.810888"
         x="69.839508"
         y="40.709618"
         rx="6.6098609"
         ry="6.6098609" />
      <rect
         ry="6.6098609"
         rx="6.6098609"
         y="40.709618"
         x="69.839508"
         height="29.810888"
         width="29.810888"
         id="rect1676"
         style="fill:none;fill-opacity:1;stroke:#000000;stroke-width:4.6;stroke-linecap:round;stroke-linejoin:round;stroke-miterlimit:4;stroke-dasharray:none;stroke-opacity:0.02" />
      <rect
         style="fill:none;fill-opacity:1;stroke:#000000;stroke-width:5;stroke-linecap:round;stroke-linejoin:round;stroke-miterlimit:4;stroke-dasharray:none;stroke-opacity:0.02"
         id="rect1678"
         width="29.810888"
         height="29.810888"
         x="69.839508"
         y="40.709618"
         rx="6.6098609"
         ry="6.6098609" />
    </g>
    <rect
       ry="6.4494534"
       rx="6.4494534"
       y="2.5391712"
       x="2.4074187"
       height="29.087439"
       width="29.087439"
       id="rect849"
       style="fill:url(#radialGradient948);fill-opacity:1;stroke-width:2.68768;stroke-linecap:round;stroke-linejoin:round" />
    <g
       id="g949"
       style="opacity:0.34384026">
      <path
         id="path916"
         style="color:#000000;font-style:normal;font-variant:normal;font-weight:normal;font-stretch:normal;font-size:medium;line-height:normal;font-family:sans-serif;font-variant-ligatures:normal;font-variant-position:normal;font-variant-caps:normal;font-variant-numeric:normal;font-variant-alternates:normal;font-variant-east-asian:normal;font-feature-settings:normal;font-variation-settings:normal;text-indent:0;text-align:start;text-decoration:none;text-decoration-line:none;text-decoration-style:solid;text-decoration-color:#000000;letter-spacing:normal;word-spacing:normal;text-transform:none;writing-mode:lr-tb;direction:ltr;text-orientation:mixed;dominant-baseline:auto;baseline-shift:baseline;text-anchor:start;white-space:normal;shape-padding:0;shape-margin:0;inline-size:0;clip-rule:nonzero;display:inline;overflow:visible;visibility:visible;isolation:auto;mix-blend-mode:normal;color-interpolation:sRGB;color-interpolation-filters:linearRGB;solid-color:#000000;solid-opacity:1;vector-effect:none;fill:#0c4f43;fill-opacity:0.0456149;fill-rule:nonzero;stroke:none;stroke-width:0.2;stroke-linecap:round;stroke-linejoin:round;stroke-miterlimit:4;stroke-dasharray:none;stroke-dashoffset:0;stroke-opacity:1;color-rendering:auto;image-rendering:auto;shape-rendering:auto;text-rendering:auto;enable-background:accumulate;stop-color:#000000"
         d="m 19.133622,6.0475512 c -0.08487,0.002 -0.168998,0.02013 -0.246496,0.05478 -0.245316,0.107692 -0.370126,0.163208 -0.427364,0.187585 -0.01416,0.006 -0.02541,0.0089 -0.03152,0.01137 -9.16e-4,3.79e-4 -0.0014,0.0018 -0.0021,0.0021 -4.18e-4,1.7e-4 -0.0017,-1.59e-4 -0.0021,0 -9.68e-4,3.98e-4 -0.002,0.0014 -0.0036,0.0021 -0.005,0.0015 -0.0083,3.03e-4 -0.0217,0.0057 -0.02127,0.0085 -0.04058,0.01702 -0.0739,0.03152 -0.06654,0.02895 -0.189965,0.08336 -0.437699,0.19327 L 9.7894461,10.141441 h 0.01964 a 0.10001,0.10001 0 0 0 -0.04082,0.0098 c -0.07427,0.03345 -0.126253,0.05663 -0.160197,0.07235 -0.01709,0.0079 -0.0285,0.01342 -0.04134,0.01964 -0.01346,0.0064 -0.01796,0.0092 -0.02532,0.01343 -0.0074,0.0043 -0.0142,0.0082 -0.01344,0.0078 -0.08953,0.03893 -0.26456,0.112336 -0.581877,0.250114 -0.198671,0.08584 -0.340954,0.267216 -0.377237,0.480591 l -0.06821,0.399975 a 0.10001,0.10001 0 0 0 -0.0021,0 l -1.290878,7.531323 -0.209289,1.207162 c -0.03648,0.211153 0.03606,0.426992 0.191719,0.574124 l 7.2166139,6.822324 c 0.0037,0.0036 0.0089,0.007 0.01189,0.0098 0.171997,0.154823 0.262071,0.234622 0.310575,0.277503 0.02423,0.02142 0.03853,0.03494 0.05478,0.04857 10e-4,8.58e-4 0.0026,0.0012 0.0036,0.0021 0.0013,0.0011 0.0028,0.003 0.0041,0.0041 0.0025,0.0024 0.0038,0.0039 0.0057,0.0057 6.26e-4,5.92e-4 0.0019,0.0019 0.0021,0.0021 5.62e-4,4.26e-4 0.003,0.0012 0.0041,0.0021 l 0.0016,0.0021 c 0.003,0.0024 0.0089,0.0078 0.01757,0.0155 0.03917,0.03509 0.124033,0.109765 0.287321,0.257866 0.18461,0.167423 0.450119,0.212579 0.679544,0.115239 0.208014,-0.0884 0.241548,-0.10164 0.361219,-0.152445 l 0.0021,-0.0021 c 9.31e-4,-2.46e-4 0.0012,2.33e-4 0.0021,0 a 0.10001,0.10001 0 0 0 0.0041,-0.0021 c 0.0028,-9.16e-4 0.0027,-0.0017 0.0036,-0.0021 2.6e-4,-1.11e-4 0.0038,-4.15e-4 0.0062,-0.0015 9.9e-4,-4.66e-4 0.0018,-0.0019 0.0021,-0.0021 a 0.10001,0.10001 0 0 0 0.0016,0 0.10001,0.10001 0 0 0 0.0021,0 c 0.0027,-0.0012 -0.0043,0.0033 0.01757,-0.0062 a 0.10001,0.10001 0 0 0 0,-0.0021 l 0.0098,-0.0021 0.433566,-0.173633 a 0.10001,0.10001 0 0 0 0.0057,-0.0036 c 0.0048,-0.0023 0.01057,-0.0053 0.0155,-0.0078 l 7.812443,-3.459221 0.0062,-0.0021 a 0.10001,0.10001 0 0 0 0.0057,-0.0021 c 1.13e-4,-4.8e-5 0.0038,-0.0035 0.0078,-0.0057 0.0018,-9.87e-4 0.0028,-0.0013 0.0041,-0.0021 l 0.0021,-0.0021 h 0.0021 c 0.0011,-6.35e-4 3.86e-4,-0.0014 0.0016,-0.0021 l 0.04703,-0.01912 c 0.0064,-0.0015 0.01124,-0.0035 0.01757,-0.0062 l 0.02739,-0.01188 c 0.05195,-0.02305 0.272728,-0.121563 0.363285,-0.161748 l 0.01189,-0.0041 a 0.10001,0.10001 0 0 0 0.0078,-0.0036 c 0.02168,-0.0096 0.06021,-0.02586 0.08578,-0.03721 a 0.10001,0.10001 0 0 0 0.0021,-0.0021 c 1.32e-4,-6.1e-5 0.0027,-0.0013 0.0041,-0.0021 l 0.03669,-0.01757 a 0.10001,0.10001 0 0 0 0.0041,-0.0021 0.10001,0.10001 0 0 0 0.0057,-0.0021 0.10001,0.10001 0 0 0 0.0041,0 c 0.0031,-0.0014 0.0055,-0.0025 0.0078,-0.0036 0.0024,-0.0011 0.005,-0.0027 0.0078,-0.0041 0.0014,-6.83e-4 0.0012,-4.55e-4 0.0041,-0.0021 0.0048,-0.0023 0.007,-0.002 0.0098,-0.0036 2.54e-4,-1.5e-4 -2.14e-4,-0.0019 0,-0.0021 9.89e-4,-5.9e-4 0.0037,-0.0021 0.0036,-0.0021 l 0.0041,-0.0021 c 0.0019,-9.26e-4 0.0019,-9.98e-4 0.0036,-0.0021 0.18188,-0.08068 0.256283,-0.112027 0.580326,-0.255799 0.196192,-0.08661 0.33486,-0.265075 0.371037,-0.476456 L 27.6749,14.306148 c 0.03438,-0.200516 -0.02885,-0.40594 -0.170015,-0.552421 -0.106737,-0.111048 -0.160259,-0.16498 -0.181385,-0.187585 -0.0016,-0.0022 -0.0028,-0.0044 -0.0041,-0.0062 -0.0049,-0.0053 -0.0033,-0.0054 -0.0036,-0.0057 -0.04178,-0.05266 -0.08499,-0.09199 -0.34985,-0.365352 l -0.0036,-0.0057 c -0.0044,-0.0051 -0.008,-0.01116 -0.01188,-0.0155 a 0.10001,0.10001 0 0 0 -0.0062,-0.0062 C 24.907179,11.23233 26.633744,12.866076 19.586277,6.2212652 19.474731,6.1156942 19.3278,6.0546102 19.174416,6.0476322 c -0.01299,-6.18e-4 -0.02626,-1.77e-4 -0.03927,0 a 0.10001,0.10001 0 0 0 -0.0016,0 z m -0.326595,2.605526 5.523694,5.2399898 -6.82439,3.027722 -5.540746,-5.246191 z m -8.337475,4.7712848 5.470467,5.181595 -1.066602,6.197555 L 9.4070851,19.6276 Z M 27.242688,13.6259 c 0,0 0.0067,0.0011 0.0078,0.0015 -0.0022,0.0018 -0.003,0.0026 -0.0041,0.0036 -1.28e-4,-1.38e-4 -9.07e-4,-8.98e-4 -0.001,-10e-4 -0.0076,-0.0082 -0.0033,-0.0048 -0.0026,-0.0041 z m -2.193148,2.466516 -1.04128,6.043043 -6.880717,3.05666 1.039213,-6.04511 z" />
      <path
         id="path927"
         style="color:#000000;font-style:normal;font-variant:normal;font-weight:normal;font-stretch:normal;font-size:medium;line-height:normal;font-family:sans-serif;font-variant-ligatures:normal;font-variant-position:normal;font-variant-caps:normal;font-variant-numeric:normal;font-variant-alternates:normal;font-variant-east-asian:normal;font-feature-settings:normal;font-variation-settings:normal;text-indent:0;text-align:start;text-decoration:none;text-decoration-line:none;text-decoration-style:solid;text-decoration-color:#000000;letter-spacing:normal;word-spacing:normal;text-transform:none;writing-mode:lr-tb;direction:ltr;text-orientation:mixed;dominant-baseline:auto;baseline-shift:baseline;text-anchor:start;white-space:normal;shape-padding:0;shape-margin:0;inline-size:0;clip-rule:nonzero;display:inline;overflow:visible;visibility:visible;isolation:auto;mix-blend-mode:normal;color-interpolation:sRGB;color-interpolation-filters:linearRGB;solid-color:#000000;solid-opacity:1;vector-effect:none;fill:#0c4f43;fill-opacity:0.0456149;fill-rule:nonzero;stroke:none;stroke-width:0.2;stroke-linecap:round;stroke-linejoin:round;stroke-miterlimit:4;stroke-dasharray:none;stroke-dashoffset:0;stroke-opacity:1;color-rendering:auto;image-rendering:auto;shape-rendering:auto;text-rendering:auto;enable-background:accumulate;stop-color:#000000"
         d="m 19.398024,6.1219281 c -0.08487,0.002 -0.168998,0.02013 -0.246496,0.05478 -0.245316,0.107692 -0.370126,0.163208 -0.427364,0.187585 -0.01416,0.006 -0.02541,0.0089 -0.03152,0.01137 -9.16e-4,3.79e-4 -0.0014,0.0018 -0.0021,0.0021 -4.18e-4,1.7e-4 -0.0017,-1.59e-4 -0.0021,0 -9.68e-4,3.98e-4 -0.002,0.0014 -0.0036,0.0021 -0.005,0.0015 -0.0083,3.03e-4 -0.0217,0.0057 -0.02127,0.0085 -0.04058,0.01702 -0.0739,0.03152 -0.06654,0.02895 -0.189965,0.08336 -0.437699,0.19327 l -8.097697,3.6054649 h 0.01964 a 0.10001,0.10001 0 0 0 -0.04082,0.0098 c -0.07427,0.03345 -0.1262531,0.05663 -0.1601971,0.07235 -0.01709,0.0079 -0.0285,0.01342 -0.04134,0.01964 -0.01346,0.0064 -0.01796,0.0092 -0.02532,0.01343 -0.0074,0.0043 -0.0142,0.0082 -0.01344,0.0078 -0.08953,0.03893 -0.26456,0.112336 -0.581877,0.250114 -0.198671,0.08584 -0.340954,0.267216 -0.377237,0.480591 l -0.06821,0.399975 a 0.10001,0.10001 0 0 0 -0.0021,0 l -1.290878,7.531323 -0.209289,1.207162 c -0.03648,0.211153 0.03606,0.426992 0.191719,0.574124 l 7.2166141,6.822324 c 0.0037,0.0036 0.0089,0.007 0.01189,0.0098 0.171997,0.154823 0.262071,0.234622 0.310575,0.277503 0.02423,0.02142 0.03853,0.03494 0.05478,0.04857 10e-4,8.58e-4 0.0026,0.0012 0.0036,0.0021 0.0013,0.0011 0.0028,0.003 0.0041,0.0041 0.0025,0.0024 0.0038,0.0039 0.0057,0.0057 6.26e-4,5.92e-4 0.0019,0.0019 0.0021,0.0021 5.62e-4,4.26e-4 0.003,0.0012 0.0041,0.0021 l 0.0016,0.0021 c 0.003,0.0024 0.0089,0.0078 0.01757,0.0155 0.03917,0.03509 0.124033,0.109765 0.287321,0.257866 0.18461,0.167423 0.450119,0.212579 0.679544,0.115239 0.208014,-0.0884 0.241548,-0.10164 0.361219,-0.152445 l 0.0021,-0.0021 c 9.31e-4,-2.46e-4 0.0012,2.33e-4 0.0021,0 a 0.10001,0.10001 0 0 0 0.0041,-0.0021 c 0.0028,-9.16e-4 0.0027,-0.0017 0.0036,-0.0021 2.6e-4,-1.11e-4 0.0038,-4.15e-4 0.0062,-0.0015 9.9e-4,-4.66e-4 0.0018,-0.0019 0.0021,-0.0021 a 0.10001,0.10001 0 0 0 0.0016,0 0.10001,0.10001 0 0 0 0.0021,0 c 0.0027,-0.0012 -0.0043,0.0033 0.01757,-0.0062 a 0.10001,0.10001 0 0 0 0,-0.0021 l 0.0098,-0.0021 0.433566,-0.173633 a 0.10001,0.10001 0 0 0 0.0057,-0.0036 c 0.0048,-0.0023 0.01057,-0.0053 0.0155,-0.0078 l 7.812443,-3.459221 0.0062,-0.0021 a 0.10001,0.10001 0 0 0 0.0057,-0.0021 c 1.13e-4,-4.8e-5 0.0038,-0.0035 0.0078,-0.0057 0.0018,-9.87e-4 0.0028,-0.0013 0.0041,-0.0021 l 0.0021,-0.0021 h 0.0021 c 0.0011,-6.35e-4 3.86e-4,-0.0014 0.0016,-0.0021 l 0.04703,-0.01912 c 0.0064,-0.0015 0.01124,-0.0035 0.01757,-0.0062 l 0.02739,-0.01188 c 0.05195,-0.02305 0.272728,-0.121563 0.363285,-0.161748 l 0.01189,-0.0041 a 0.10001,0.10001 0 0 0 0.0078,-0.0036 c 0.02168,-0.0096 0.06021,-0.02586 0.08578,-0.03721 a 0.10001,0.10001 0 0 0 0.0021,-0.0021 c 1.32e-4,-6.1e-5 0.0027,-0.0013 0.0041,-0.0021 l 0.03669,-0.01757 a 0.10001,0.10001 0 0 0 0.0041,-0.0021 0.10001,0.10001 0 0 0 0.0057,-0.0021 0.10001,0.10001 0 0 0 0.0041,0 c 0.0031,-0.0014 0.0055,-0.0025 0.0078,-0.0036 0.0024,-0.0011 0.005,-0.0027 0.0078,-0.0041 0.0014,-6.83e-4 0.0012,-4.55e-4 0.0041,-0.0021 0.0048,-0.0023 0.007,-0.002 0.0098,-0.0036 2.54e-4,-1.5e-4 -2.14e-4,-0.0019 0,-0.0021 9.89e-4,-5.9e-4 0.0037,-0.0021 0.0036,-0.0021 l 0.0041,-0.0021 c 0.0019,-9.26e-4 0.0019,-9.98e-4 0.0036,-0.0021 0.18188,-0.08068 0.256283,-0.112027 0.580326,-0.255799 0.196192,-0.08661 0.33486,-0.265075 0.371037,-0.476456 l 1.566313,-9.109522 c 0.03438,-0.200516 -0.02885,-0.40594 -0.170015,-0.552421 -0.106737,-0.111048 -0.160259,-0.16498 -0.181385,-0.187585 -0.0016,-0.0022 -0.0028,-0.0044 -0.0041,-0.0062 -0.0049,-0.0053 -0.0033,-0.0054 -0.0036,-0.0057 -0.04178,-0.05266 -0.08499,-0.09199 -0.34985,-0.365352 l -0.0036,-0.0057 c -0.0044,-0.0051 -0.008,-0.01116 -0.01188,-0.0155 a 0.10001,0.10001 0 0 0 -0.0062,-0.0062 c -2.037091,-1.92916 -0.310526,-0.295414 -7.357993,-6.9402249 -0.111546,-0.105571 -0.258477,-0.166655 -0.411861,-0.173633 -0.01299,-6.18e-4 -0.02626,-1.77e-4 -0.03927,0 a 0.10001,0.10001 0 0 0 -0.0016,0 z m -0.326595,2.605526 5.523694,5.2399899 -6.82439,3.027722 -5.540746,-5.246191 z m -8.337475,4.7712849 5.470467,5.181595 -1.066602,6.197555 -5.4663321,-5.175912 z m 16.773136,0.201538 c 0,0 0.0067,0.0011 0.0078,0.0015 -0.0022,0.0018 -0.003,0.0026 -0.0041,0.0036 -1.28e-4,-1.38e-4 -9.07e-4,-8.98e-4 -0.001,-0.001 -0.0076,-0.0082 -0.0033,-0.0048 -0.0026,-0.0041 z m -2.193148,2.466516 -1.04128,6.043043 -6.880717,3.05666 1.039213,-6.04511 z" />
      <path
         id="path933"
         style="color:#000000;font-style:normal;font-variant:normal;font-weight:normal;font-stretch:normal;font-size:medium;line-height:normal;font-family:sans-serif;font-variant-ligatures:normal;font-variant-position:normal;font-variant-caps:normal;font-variant-numeric:normal;font-variant-alternates:normal;font-variant-east-asian:normal;font-feature-settings:normal;font-variation-settings:normal;text-indent:0;text-align:start;text-decoration:none;text-decoration-line:none;text-decoration-style:solid;text-decoration-color:#000000;letter-spacing:normal;word-spacing:normal;text-transform:none;writing-mode:lr-tb;direction:ltr;text-orientation:mixed;dominant-baseline:auto;baseline-shift:baseline;text-anchor:start;white-space:normal;shape-padding:0;shape-margin:0;inline-size:0;clip-rule:nonzero;display:inline;overflow:visible;visibility:visible;isolation:auto;mix-blend-mode:normal;color-interpolation:sRGB;color-interpolation-filters:linearRGB;solid-color:#000000;solid-opacity:1;vector-effect:none;fill:#0c4f43;fill-opacity:0.0456149;fill-rule:nonzero;stroke:none;stroke-width:0.4;stroke-linecap:round;stroke-linejoin:round;stroke-miterlimit:4;stroke-dasharray:none;stroke-dashoffset:0;stroke-opacity:1;color-rendering:auto;image-rendering:auto;shape-rendering:auto;text-rendering:auto;enable-background:accumulate;stop-color:#000000"
         d="m 20.003763,6.2543536 c -0.110217,0.0026 -0.219458,0.025777 -0.322461,0.07183 -0.245618,0.1078249 -0.370792,0.1629654 -0.423747,0.1855185 -2.97e-4,1.259e-4 -0.01068,0.00507 -0.01964,0.00827 -0.0026,9.43e-4 -5.43e-4,-4.49e-4 -0.0057,0.00155 -0.0031,0.0012 3.1e-5,-0.00169 -0.0041,0 a 0.20002,0.20002 0 0 0 -0.0016,0.00207 c -2.56e-4,-4.05e-5 -0.0026,0.00173 -0.0041,0.00207 -0.0085,0.00193 -0.0034,-0.0023 -0.02325,0.00568 -0.02463,0.00988 -0.04626,0.02109 -0.07855,0.03514 -0.06764,0.029428 -0.191372,0.083296 -0.43925,0.1932699 l -8.097697,3.605466 a 0.20002,0.20002 0 0 0 -0.01757,0.0098 c -0.0012,5.12e-4 -0.0025,-5.27e-4 -0.0036,0 -0.0011,4.83e-4 -10e-4,0.0016 -0.0021,0.0021 -0.07224,0.03253 -0.12416,0.05566 -0.160197,0.07235 -0.01852,0.0086 -0.03206,0.01339 -0.04496,0.01964 -0.01493,0.0072 -0.02464,0.01601 -0.031,0.01964 -0.0011,5.99e-4 -0.0055,0.0017 -0.0062,0.0021 a 0.20002,0.20002 0 0 0 -0.0021,0 c -8e-4,4.65e-4 -7.6e-4,0.0011 -0.0015,0.0016 l -0.0041,0.0021 c -0.0012,6.83e-4 -0.0026,0.0015 -0.0036,0.0021 l -0.0021,0.0021 c -0.08954,0.03876 -0.255548,0.106906 -0.5627559,0.240295 -0.2609179,0.112735 -0.4463977,0.348805 -0.4940264,0.628902 l -0.064595,0.376722 a 0.20002,0.20002 0 0 0 -0.00568,0.02377 L 7.8867065,19.29976 7.6774169,20.506405 c -0.047945,0.277512 0.046037,0.561061 0.2501141,0.753959 l 7.216613,6.822322 c 0.01835,0.01732 0.0333,0.02738 0.01395,0.0093 a 0.20002,0.20002 0 0 0 0.0021,0.0041 c 0.172405,0.155192 0.263945,0.234453 0.312642,0.277503 0.02142,0.01894 0.03569,0.03321 0.05633,0.05064 7.49e-4,6.32e-4 0.0013,0.0014 0.0021,0.0021 a 0.20002,0.20002 0 0 0 0.0021,0.0021 0.20002,0.20002 0 0 0 0.0036,0.0021 0.20002,0.20002 0 0 0 0.0021,0.0015 0.20002,0.20002 0 0 0 0.0062,0.0062 0.20002,0.20002 0 0 0 0.0021,0.0021 l 0.0057,0.0036 a 0.20002,0.20002 0 0 0 0.0021,0.0021 0.20002,0.20002 0 0 0 0.0021,0.0021 c -0.01,-0.008 -7.95e-4,2.91e-4 0.0078,0.0078 0.04107,0.03679 0.124279,0.110456 0.286804,0.257866 0.24204,0.219506 0.591998,0.278074 0.892969,0.150379 0.203298,-0.0864 0.238747,-0.101714 0.353467,-0.150379 a 0.20002,0.20002 0 0 0 0.0057,-0.0041 c 0.0016,-3.87e-4 0.0027,3.54e-4 0.0041,0 h 0.0021 a 0.20002,0.20002 0 0 0 0.0036,-0.0016 c 0.0018,-5.74e-4 0.0026,-0.0015 0.0041,-0.0021 0.0022,-7.33e-4 0.0039,-0.0014 0.0057,-0.0021 0.0011,-3.91e-4 0.0031,3.71e-4 0.0041,0 0.0074,-0.0028 0.01401,-0.0066 0.02119,-0.0098 a 0.20002,0.20002 0 0 0 0.0041,-0.0021 l 0.433565,-0.173633 a 0.20002,0.20002 0 0 0 0.01757,-0.0078 c 0.0046,-0.0022 0.0066,-0.0025 0.0098,-0.0041 0.0013,-7.51e-4 0.0023,-0.0013 0.0036,-0.0021 8.08e-4,-4.89e-4 0.0013,-0.0016 0.0021,-0.0021 0.0013,-7.81e-4 0.0029,-0.0013 0.0041,-0.0021 l 7.792806,-3.450953 c -5.76e-4,1.96e-4 -0.0015,-1.93e-4 -0.0021,0 h -0.04082 a 0.20002,0.20002 0 0 0 0.07596,-0.01757 l 0.01189,-0.0041 c 0.0012,-7.2e-4 8.72e-4,-7.51e-4 0.0021,-0.0016 0.0038,-0.0022 0.0053,-0.0025 0.0078,-0.0041 h -0.0041 c 0.0026,-6.21e-4 0.0036,-0.0014 0.0062,-0.0021 -2.69e-4,1.89e-4 2.85e-4,0.0019 0,0.0021 l 0.0021,-0.0021 c 8.96e-4,-5.58e-4 7.51e-4,-0.0016 0.0016,-0.0021 2.17e-4,-2.07e-4 0.0017,-0.0018 0.0021,-0.0021 a 0.20002,0.20002 0 0 0 0.0078,-0.0057 c 0.0167,-0.01612 0.05167,-0.05172 0.05478,-0.05478 -3.67e-4,6.9e-4 -0.0021,0.0041 -0.0021,0.0041 1.01e-4,-1.49e-4 -0.03733,0.03622 -0.05271,0.05064 5.01e-4,-4.2e-4 0.0018,2.46e-4 0.0021,0 a 0.20002,0.20002 0 0 0 0.01395,-0.01034 l -0.01395,0.01447 c 0.01075,-0.0037 0.02521,-0.008 0.02946,-0.0098 a 0.20002,0.20002 0 0 0 0.0021,0 l 0.02739,-0.01188 c 0.05082,-0.02255 0.251125,-0.113358 0.347266,-0.156063 l 0.0098,-0.0041 c 4.21e-4,-1.87e-4 0.0016,1.85e-4 0.0021,0 a 0.20002,0.20002 0 0 0 0.01188,-0.0041 c 0.004,-0.0016 0.008,-0.0039 0.01189,-0.0057 l 0.01137,-0.0057 c 0.01998,-0.0087 0.04953,-0.02048 0.07441,-0.03152 a 0.20002,0.20002 0 0 0 0.0057,-0.0036 c 3.7e-5,-1.7e-5 0.0054,-0.0017 0.0062,-0.0021 a 0.20002,0.20002 0 0 0 0,-0.0021 0.20002,0.20002 0 0 0 0.01757,-0.0098 0.20002,0.20002 0 0 0 0.0021,0 l 0.0057,-0.0021 0.0021,-0.0021 h 0.0021 a 0.20002,0.20002 0 0 0 0.0057,-0.0021 0.20002,0.20002 0 0 0 0.01189,-0.0036 c 0.0036,-0.0016 0.0076,-0.002 0.01189,-0.0041 0.01163,-0.0055 0.01362,-0.0074 0.0098,-0.0057 -0.0011,5.57e-4 0.0016,-0.0021 0.0015,-0.0021 l 0.0098,-0.0041 c 0.0023,-0.0012 0.0025,-0.0011 0.0041,-0.0021 0.0047,-0.0022 0.0049,-8.17e-4 0.0098,-0.0036 a 0.20002,0.20002 0 0 0 0,-0.0021 c 5.56e-4,-3.04e-4 0.0014,3.45e-4 0.0021,0 0,0 1.4e-5,-0.002 0,-0.0021 -5e-4,2.21e-4 -0.0016,-2.22e-4 -0.0021,0 -0.0027,-0.0045 -0.09973,-0.170015 -0.09973,-0.170015 0,-1e-6 0.002,10e-7 0.0021,0 l 0.09973,0.167949 v 0.0021 c 2.49e-4,-1.42e-4 0.0017,1.98e-4 0.0021,0 0.001,-5.92e-4 9.43e-4,-0.0014 0.0021,-0.0021 3.99e-4,-2.36e-4 4.09e-4,-8.51e-4 0.0016,-0.0016 0.0018,-0.0011 0.0041,-0.002 0.0041,-0.0021 2e-6,-1e-6 0.002,4.4e-5 0.0021,0 l 0.0078,-0.0041 c 0.161691,-0.07157 0.246025,-0.105054 0.550871,-0.240295 l 0.0021,-0.0021 c 0.2558,-0.113988 0.439085,-0.34903 0.486276,-0.624768 l 1.566312,-9.109521 c 0.04513,-0.263197 -0.03744,-0.532236 -0.222726,-0.724504 -0.09999,-0.104024 -0.148913,-0.152124 -0.167947,-0.172082 l 0.0041,0.0062 c 0.0027,0.0043 0.0057,0.0099 0.0057,0.0098 -1.51e-4,-2.7e-4 0.0135,0.03118 0.01343,0.03101 -1.24e-4,-3.62e-4 0.0061,0.109689 0.0062,0.109553 0,0 -0.03688,-0.0086 -0.06666,-0.0155 a 0.20002,0.20002 0 0 0 -0.04858,-0.09405 l 0.0739,-0.06046 c 1.99e-4,2.24e-4 0.0018,-2.38e-4 0.0021,0 -8.41e-4,-0.0011 -0.0048,-0.0046 -0.0057,-0.0057 -0.04885,-0.06107 -0.116907,-0.124584 -0.333831,-0.347783 a 0.20002,0.20002 0 0 0 -0.0041,-0.0041 0.20002,0.20002 0 0 0 -0.01344,-0.01912 c 0.01154,0.01338 0.0085,0.0099 -0.01602,-0.01757 a 0.20002,0.20002 0 0 0 0,-0.0021 c -0.0053,-0.0058 -0.01179,-0.01219 -0.01757,-0.01757 l -0.0021,-0.0021 C 25.920931,11.493335 27.645813,13.12547 20.600312,6.4825114 20.453057,6.3431438 20.259786,6.2632243 20.05926,6.2541014 c -0.01564,-6.667e-4 -0.02554,-1.997e-4 -0.03514,0 a 0.20002,0.20002 0 0 0 -0.01602,0 0.20002,0.20002 0 0 0 -0.0036,0 z m -0.789099,0.2749188 c 5.53e-4,-2.744e-4 0.0016,2.426e-4 0.0021,0 -0.01278,0.00865 -0.0422,0.029358 -0.05064,0.03514 0.0038,-0.00371 0.0078,-0.00778 0.0078,-0.00775 -7e-5,5.79e-5 0.03023,-0.020895 0.04082,-0.027389 z m 0.425813,2.7677895 5.211052,4.9413011 -6.429582,2.851506 -5.225004,-4.946985 z m -9.269718,1.3224011 c 0.01418,0.02166 0.03359,0.05064 0.03359,0.05064 v 5.16e-4 c -2.4e-5,1.7e-5 -0.0011,5.47e-4 -10e-4,5.17e-4 -9.49e-4,4.13e-4 -0.0052,0.0022 -0.0062,0.0026 z m 17.75809,3.276286 0.0155,10e-4 -10e-4,0.01395 c -0.0019,-0.0022 -0.01244,-0.01269 -0.01447,-0.01499 z m -16.648597,0.338997 5.119067,4.849316 -0.984436,5.724715 -5.117,-4.845699 z m 14.185697,2.597257 -0.961181,5.57072 -6.441467,2.861324 0.957047,-5.57072 z m 0.554489,7.724593 c -2.92e-4,0.0081 -8e-6,0.02745 0,0.02739 0,0 -0.161822,-0.01831 -0.185519,-0.02119 0.0238,-6.68e-4 0.18552,-0.0061 0.185519,-0.0062 z m -9.16895,3.959966 -10e-4,0.001 c -1e-6,-8e-6 0,-3.26e-4 0,-5.16e-4 1.66e-4,-7.4e-5 9.31e-4,-4.82e-4 10e-4,-5.16e-4 z m 0.07545,0.182933 a 0.20002,0.20002 0 0 0 0.0021,0 c -7.43e-4,3.07e-4 -0.001,0.0017 -0.0021,0.0021 a 0.20002,0.20002 0 0 0 0,-0.0021 z" />
      <path
         id="path940"
         style="color:#000000;font-style:normal;font-variant:normal;font-weight:normal;font-stretch:normal;font-size:medium;line-height:normal;font-family:sans-serif;font-variant-ligatures:normal;font-variant-position:normal;font-variant-caps:normal;font-variant-numeric:normal;font-variant-alternates:normal;font-variant-east-asian:normal;font-feature-settings:normal;font-variation-settings:normal;text-indent:0;text-align:start;text-decoration:none;text-decoration-line:none;text-decoration-style:solid;text-decoration-color:#000000;letter-spacing:normal;word-spacing:normal;text-transform:none;writing-mode:lr-tb;direction:ltr;text-orientation:mixed;dominant-baseline:auto;baseline-shift:baseline;text-anchor:start;white-space:normal;shape-padding:0;shape-margin:0;inline-size:0;clip-rule:nonzero;display:inline;overflow:visible;visibility:visible;isolation:auto;mix-blend-mode:normal;color-interpolation:sRGB;color-interpolation-filters:linearRGB;solid-color:#000000;solid-opacity:1;vector-effect:none;fill:#0c4f43;fill-opacity:0.0456149;fill-rule:nonzero;stroke:none;stroke-width:0.4;stroke-linecap:round;stroke-linejoin:round;stroke-miterlimit:4;stroke-dasharray:none;stroke-dashoffset:0;stroke-opacity:1;color-rendering:auto;image-rendering:auto;shape-rendering:auto;text-rendering:auto;enable-background:accumulate;stop-color:#000000"
         d="m 20.722178,6.5324725 c -0.110217,0.0026 -0.219458,0.025777 -0.322461,0.07183 -0.245618,0.1078249 -0.370792,0.1629654 -0.423747,0.1855185 -2.97e-4,1.259e-4 -0.01068,0.00507 -0.01964,0.00827 -0.0026,9.43e-4 -5.43e-4,-4.49e-4 -0.0057,0.00155 -0.0031,0.0012 3.1e-5,-0.00169 -0.0041,0 a 0.20002,0.20002 0 0 0 -0.0016,0.00207 c -2.56e-4,-4.05e-5 -0.0026,0.00173 -0.0041,0.00207 -0.0085,0.00193 -0.0034,-0.0023 -0.02325,0.00568 -0.02463,0.00988 -0.04626,0.02109 -0.07855,0.03514 -0.06764,0.029428 -0.191372,0.083296 -0.43925,0.1932699 l -8.097697,3.6054661 a 0.20002,0.20002 0 0 0 -0.01757,0.0098 c -0.0012,5.12e-4 -0.0025,-5.27e-4 -0.0036,0 -0.0011,4.83e-4 -10e-4,0.0016 -0.0021,0.0021 -0.07224,0.03253 -0.12416,0.05566 -0.160197,0.07235 -0.01852,0.0086 -0.03206,0.01339 -0.04496,0.01964 -0.01493,0.0072 -0.02464,0.01601 -0.031,0.01964 -0.0011,5.99e-4 -0.0055,0.0017 -0.0062,0.0021 a 0.20002,0.20002 0 0 0 -0.0021,0 c -8e-4,4.65e-4 -7.6e-4,0.0011 -0.0015,0.0016 l -0.0041,0.0021 c -0.0012,6.83e-4 -0.0026,0.0015 -0.0036,0.0021 l -0.0021,0.0021 c -0.08954,0.03876 -0.255548,0.106906 -0.562756,0.240295 -0.260917,0.112735 -0.446397,0.348805 -0.494026,0.628902 l -0.06459,0.376722 a 0.20002,0.20002 0 0 0 -0.0057,0.02377 l -1.2908621,7.531323 -0.2092896,1.206645 c -0.047945,0.277512 0.046037,0.561061 0.2501141,0.753959 l 7.2166126,6.822322 c 0.01835,0.01732 0.0333,0.02738 0.01395,0.0093 a 0.20002,0.20002 0 0 0 0.0021,0.0041 c 0.172405,0.155192 0.263945,0.234453 0.312642,0.277503 0.02142,0.01894 0.03569,0.03321 0.05633,0.05064 7.49e-4,6.32e-4 0.0013,0.0014 0.0021,0.0021 a 0.20002,0.20002 0 0 0 0.0021,0.0021 0.20002,0.20002 0 0 0 0.0036,0.0021 0.20002,0.20002 0 0 0 0.0021,0.0015 0.20002,0.20002 0 0 0 0.0062,0.0062 0.20002,0.20002 0 0 0 0.0021,0.0021 l 0.0057,0.0036 a 0.20002,0.20002 0 0 0 0.0021,0.0021 0.20002,0.20002 0 0 0 0.0021,0.0021 c -0.01,-0.008 -7.95e-4,2.91e-4 0.0078,0.0078 0.04107,0.03679 0.124279,0.110456 0.286804,0.257866 0.24204,0.219506 0.591998,0.278074 0.892969,0.150379 0.203298,-0.0864 0.238747,-0.101714 0.353467,-0.150379 a 0.20002,0.20002 0 0 0 0.0057,-0.0041 c 0.0016,-3.87e-4 0.0027,3.54e-4 0.0041,0 h 0.0021 a 0.20002,0.20002 0 0 0 0.0036,-0.0016 c 0.0018,-5.74e-4 0.0026,-0.0015 0.0041,-0.0021 0.0022,-7.33e-4 0.0039,-0.0014 0.0057,-0.0021 0.0011,-3.91e-4 0.0031,3.71e-4 0.0041,0 0.0074,-0.0028 0.01401,-0.0066 0.02119,-0.0098 a 0.20002,0.20002 0 0 0 0.0041,-0.0021 l 0.433565,-0.173633 a 0.20002,0.20002 0 0 0 0.01757,-0.0078 c 0.0046,-0.0022 0.0066,-0.0025 0.0098,-0.0041 0.0013,-7.51e-4 0.0023,-0.0013 0.0036,-0.0021 8.08e-4,-4.89e-4 0.0013,-0.0016 0.0021,-0.0021 0.0013,-7.81e-4 0.0029,-0.0013 0.0041,-0.0021 l 7.792806,-3.450953 c -5.76e-4,1.96e-4 -0.0015,-1.93e-4 -0.0021,0 h -0.04082 a 0.20002,0.20002 0 0 0 0.07596,-0.01757 l 0.01189,-0.0041 c 0.0012,-7.2e-4 8.72e-4,-7.51e-4 0.0021,-0.0016 0.0038,-0.0022 0.0053,-0.0025 0.0078,-0.0041 h -0.0041 c 0.0026,-6.21e-4 0.0036,-0.0014 0.0062,-0.0021 -2.69e-4,1.89e-4 2.85e-4,0.0019 0,0.0021 l 0.0021,-0.0021 c 8.96e-4,-5.58e-4 7.51e-4,-0.0016 0.0016,-0.0021 2.17e-4,-2.07e-4 0.0017,-0.0018 0.0021,-0.0021 a 0.20002,0.20002 0 0 0 0.0078,-0.0057 c 0.0167,-0.01612 0.05167,-0.05172 0.05478,-0.05478 -3.67e-4,6.9e-4 -0.0021,0.0041 -0.0021,0.0041 1.01e-4,-1.49e-4 -0.03733,0.03622 -0.05271,0.05064 5.01e-4,-4.2e-4 0.0018,2.46e-4 0.0021,0 a 0.20002,0.20002 0 0 0 0.01395,-0.01034 l -0.01395,0.01447 c 0.01075,-0.0037 0.02521,-0.008 0.02946,-0.0098 a 0.20002,0.20002 0 0 0 0.0021,0 l 0.02739,-0.01188 c 0.05082,-0.02255 0.251125,-0.113358 0.347266,-0.156063 l 0.0098,-0.0041 c 4.21e-4,-1.87e-4 0.0016,1.85e-4 0.0021,0 a 0.20002,0.20002 0 0 0 0.01188,-0.0041 c 0.004,-0.0016 0.008,-0.0039 0.01189,-0.0057 l 0.01137,-0.0057 c 0.01998,-0.0087 0.04953,-0.02048 0.07441,-0.03152 a 0.20002,0.20002 0 0 0 0.0057,-0.0036 c 3.7e-5,-1.7e-5 0.0054,-0.0017 0.0062,-0.0021 a 0.20002,0.20002 0 0 0 0,-0.0021 0.20002,0.20002 0 0 0 0.01757,-0.0098 0.20002,0.20002 0 0 0 0.0021,0 l 0.0057,-0.0021 0.0021,-0.0021 h 0.0021 a 0.20002,0.20002 0 0 0 0.0057,-0.0021 0.20002,0.20002 0 0 0 0.01189,-0.0036 c 0.0036,-0.0016 0.0076,-0.002 0.01189,-0.0041 0.01163,-0.0055 0.01362,-0.0074 0.0098,-0.0057 -0.0011,5.57e-4 0.0016,-0.0021 0.0015,-0.0021 l 0.0098,-0.0041 c 0.0023,-0.0012 0.0025,-0.0011 0.0041,-0.0021 0.0047,-0.0022 0.0049,-8.17e-4 0.0098,-0.0036 a 0.20002,0.20002 0 0 0 0,-0.0021 c 5.56e-4,-3.04e-4 0.0014,3.45e-4 0.0021,0 0,0 1.4e-5,-0.002 0,-0.0021 -5e-4,2.21e-4 -0.0016,-2.22e-4 -0.0021,0 -0.0027,-0.0045 -0.09973,-0.170015 -0.09973,-0.170015 0,-1e-6 0.002,10e-7 0.0021,0 l 0.09973,0.167949 v 0.0021 c 2.49e-4,-1.42e-4 0.0017,1.98e-4 0.0021,0 10e-4,-5.92e-4 9.43e-4,-0.0014 0.0021,-0.0021 3.99e-4,-2.36e-4 4.09e-4,-8.51e-4 0.0016,-0.0016 0.0018,-0.0011 0.0041,-0.002 0.0041,-0.0021 2e-6,-1e-6 0.002,4.4e-5 0.0021,0 l 0.0078,-0.0041 c 0.161691,-0.07157 0.246025,-0.105054 0.550871,-0.240295 l 0.0021,-0.0021 c 0.2558,-0.113988 0.439085,-0.34903 0.486276,-0.624768 l 1.566312,-9.109521 c 0.04513,-0.263197 -0.03744,-0.532236 -0.222726,-0.724504 -0.09999,-0.104024 -0.148913,-0.152124 -0.167947,-0.172082 l 0.0041,0.0062 c 0.0027,0.0043 0.0057,0.0099 0.0057,0.0098 -1.51e-4,-2.7e-4 0.0135,0.03118 0.01343,0.03101 -1.24e-4,-3.62e-4 0.0061,0.109689 0.0062,0.109553 0,0 -0.03688,-0.0086 -0.06666,-0.0155 a 0.20002,0.20002 0 0 0 -0.04858,-0.09405 l 0.0739,-0.06046 c 1.99e-4,2.24e-4 0.0018,-2.38e-4 0.0021,0 -8.41e-4,-0.0011 -0.0048,-0.0046 -0.0057,-0.0057 -0.04885,-0.06107 -0.116907,-0.124584 -0.333831,-0.347783 a 0.20002,0.20002 0 0 0 -0.0041,-0.0041 0.20002,0.20002 0 0 0 -0.01344,-0.01912 c 0.01154,0.01338 0.0085,0.0099 -0.01602,-0.01757 a 0.20002,0.20002 0 0 0 0,-0.0021 c -0.0053,-0.0058 -0.01179,-0.01219 -0.01757,-0.01757 l -0.0021,-0.0021 c -2.036037,-1.925705 -0.311155,-0.29357 -7.356656,-6.9365288 -0.147255,-0.1393676 -0.340526,-0.2192871 -0.541052,-0.22841 -0.01564,-6.667e-4 -0.02554,-1.997e-4 -0.03514,0 a 0.20002,0.20002 0 0 0 -0.01602,0 0.20002,0.20002 0 0 0 -0.0036,0 z m -0.789099,0.2749188 c 5.53e-4,-2.744e-4 0.0016,2.426e-4 0.0021,0 -0.01278,0.00865 -0.0422,0.029358 -0.05064,0.03514 0.0038,-0.00371 0.0078,-0.00778 0.0078,-0.00775 -7e-5,5.79e-5 0.03023,-0.020895 0.04082,-0.027389 z m 0.425813,2.7677895 5.211052,4.9413012 -6.429582,2.851506 -5.225004,-4.946985 z m -9.269718,1.3224012 c 0.01418,0.02166 0.03359,0.05064 0.03359,0.05064 v 5.16e-4 c -2.4e-5,1.7e-5 -0.0011,5.47e-4 -10e-4,5.17e-4 -9.49e-4,4.13e-4 -0.0052,0.0022 -0.0062,0.0026 z m 17.75809,3.276286 0.0155,10e-4 -10e-4,0.01395 c -0.0019,-0.0022 -0.01244,-0.01269 -0.01447,-0.01499 z m -16.648597,0.338997 5.119067,4.849316 -0.984436,5.724715 -5.117,-4.845699 z m 14.185697,2.597257 -0.961181,5.57072 -6.441467,2.861324 0.957047,-5.57072 z m 0.554489,7.724593 c -2.92e-4,0.0081 -8e-6,0.02745 0,0.02739 0,0 -0.161822,-0.01831 -0.185519,-0.02119 0.0238,-6.68e-4 0.18552,-0.0061 0.185519,-0.0062 z m -9.16895,3.959966 -10e-4,10e-4 c -1e-6,-8e-6 0,-3.26e-4 0,-5.16e-4 1.66e-4,-7.4e-5 9.31e-4,-4.82e-4 10e-4,-5.16e-4 z m 0.07545,0.182933 a 0.20002,0.20002 0 0 0 0.0021,0 c -7.43e-4,3.07e-4 -0.001,0.0017 -0.0021,0.0021 a 0.20002,0.20002 0 0 0 0,-0.0021 z" />
      <path
         id="path942"
         style="color:#000000;font-style:normal;font-variant:normal;font-weight:normal;font-stretch:normal;font-size:medium;line-height:normal;font-family:sans-serif;font-variant-ligatures:normal;font-variant-position:normal;font-variant-caps:normal;font-variant-numeric:normal;font-variant-alternates:normal;font-variant-east-asian:normal;font-feature-settings:normal;font-variation-settings:normal;text-indent:0;text-align:start;text-decoration:none;text-decoration-line:none;text-decoration-style:solid;text-decoration-color:#000000;letter-spacing:normal;word-spacing:normal;text-transform:none;writing-mode:lr-tb;direction:ltr;text-orientation:mixed;dominant-baseline:auto;baseline-shift:baseline;text-anchor:start;white-space:normal;shape-padding:0;shape-margin:0;inline-size:0;clip-rule:nonzero;display:inline;overflow:visible;visibility:visible;isolation:auto;mix-blend-mode:normal;color-interpolation:sRGB;color-interpolation-filters:linearRGB;solid-color:#000000;solid-opacity:1;vector-effect:none;fill:#0c4f43;fill-opacity:0.0456149;fill-rule:nonzero;stroke:none;stroke-width:0.4;stroke-linecap:round;stroke-linejoin:round;stroke-miterlimit:4;stroke-dasharray:none;stroke-dashoffset:0;stroke-opacity:1;color-rendering:auto;image-rendering:auto;shape-rendering:auto;text-rendering:auto;enable-background:accumulate;stop-color:#000000"
         d="m 21.929109,7.504581 c -0.110217,0.0026 -0.219458,0.025777 -0.322461,0.07183 -0.245618,0.1078249 -0.370792,0.1629654 -0.423747,0.1855185 -2.97e-4,1.259e-4 -0.01068,0.00507 -0.01964,0.00827 -0.0026,9.43e-4 -5.43e-4,-4.49e-4 -0.0057,0.00155 -0.0031,0.0012 3.1e-5,-0.00169 -0.0041,0 a 0.20002,0.20002 0 0 0 -0.0016,0.00207 c -2.56e-4,-4.05e-5 -0.0026,0.00173 -0.0041,0.00207 -0.0085,0.00193 -0.0034,-0.0023 -0.02325,0.00568 -0.02463,0.00988 -0.04626,0.02109 -0.07855,0.03514 -0.06764,0.029428 -0.191372,0.083296 -0.43925,0.1932699 l -8.097697,3.6054656 a 0.20002,0.20002 0 0 0 -0.01757,0.0098 c -0.0012,5.12e-4 -0.0025,-5.27e-4 -0.0036,0 -0.0011,4.83e-4 -0.001,0.0016 -0.0021,0.0021 -0.07224,0.03253 -0.12416,0.05566 -0.160197,0.07235 -0.01852,0.0086 -0.03206,0.01339 -0.04496,0.01964 -0.01493,0.0072 -0.02464,0.01601 -0.031,0.01964 -0.0011,5.99e-4 -0.0055,0.0017 -0.0062,0.0021 a 0.20002,0.20002 0 0 0 -0.0021,0 c -8e-4,4.65e-4 -7.6e-4,0.0011 -0.0015,0.0016 l -0.0041,0.0021 c -0.0012,6.83e-4 -0.0026,0.0015 -0.0036,0.0021 l -0.0021,0.0021 c -0.08954,0.03876 -0.255548,0.106906 -0.562756,0.240295 -0.260918,0.112735 -0.446398,0.348805 -0.494026,0.628902 l -0.06459,0.376722 a 0.20002,0.20002 0 0 0 -0.0057,0.02377 l -1.2908775,7.531323 -0.2092896,1.206645 c -0.047945,0.277512 0.046037,0.561061 0.2501141,0.753959 l 7.216613,6.822322 c 0.01835,0.01732 0.0333,0.02738 0.01395,0.0093 a 0.20002,0.20002 0 0 0 0.0021,0.0041 c 0.172405,0.155192 0.263945,0.234453 0.312642,0.277503 0.02142,0.01894 0.03569,0.03321 0.05633,0.05064 7.49e-4,6.32e-4 0.0013,0.0014 0.0021,0.0021 a 0.20002,0.20002 0 0 0 0.0021,0.0021 0.20002,0.20002 0 0 0 0.0036,0.0021 0.20002,0.20002 0 0 0 0.0021,0.0015 0.20002,0.20002 0 0 0 0.0062,0.0062 0.20002,0.20002 0 0 0 0.0021,0.0021 l 0.0057,0.0036 a 0.20002,0.20002 0 0 0 0.0021,0.0021 0.20002,0.20002 0 0 0 0.0021,0.0021 c -0.01,-0.008 -7.95e-4,2.91e-4 0.0078,0.0078 0.04107,0.03679 0.124279,0.110456 0.286804,0.257866 0.24204,0.219506 0.591998,0.278074 0.892969,0.150379 0.203298,-0.0864 0.238747,-0.101714 0.353467,-0.150379 a 0.20002,0.20002 0 0 0 0.0057,-0.0041 c 0.0016,-3.87e-4 0.0027,3.54e-4 0.0041,0 h 0.0021 a 0.20002,0.20002 0 0 0 0.0036,-0.0016 c 0.0018,-5.74e-4 0.0026,-0.0015 0.0041,-0.0021 0.0022,-7.33e-4 0.0039,-0.0014 0.0057,-0.0021 0.0011,-3.91e-4 0.0031,3.71e-4 0.0041,0 0.0074,-0.0028 0.01401,-0.0066 0.02119,-0.0098 a 0.20002,0.20002 0 0 0 0.0041,-0.0021 l 0.433565,-0.173633 a 0.20002,0.20002 0 0 0 0.01757,-0.0078 c 0.0046,-0.0022 0.0066,-0.0025 0.0098,-0.0041 0.0013,-7.51e-4 0.0023,-0.0013 0.0036,-0.0021 8.08e-4,-4.89e-4 0.0013,-0.0016 0.0021,-0.0021 0.0013,-7.81e-4 0.0029,-0.0013 0.0041,-0.0021 l 7.792806,-3.450953 c -5.76e-4,1.96e-4 -0.0015,-1.93e-4 -0.0021,0 h -0.04082 a 0.20002,0.20002 0 0 0 0.07596,-0.01757 l 0.01189,-0.0041 c 0.0012,-7.2e-4 8.72e-4,-7.51e-4 0.0021,-0.0016 0.0038,-0.0022 0.0053,-0.0025 0.0078,-0.0041 h -0.0041 c 0.0026,-6.21e-4 0.0036,-0.0014 0.0062,-0.0021 -2.69e-4,1.89e-4 2.85e-4,0.0019 0,0.0021 l 0.0021,-0.0021 c 8.96e-4,-5.58e-4 7.51e-4,-0.0016 0.0016,-0.0021 2.17e-4,-2.07e-4 0.0017,-0.0018 0.0021,-0.0021 a 0.20002,0.20002 0 0 0 0.0078,-0.0057 c 0.0167,-0.01612 0.05167,-0.05172 0.05478,-0.05478 -3.67e-4,6.9e-4 -0.0021,0.0041 -0.0021,0.0041 1.01e-4,-1.49e-4 -0.03733,0.03622 -0.05271,0.05064 5.01e-4,-4.2e-4 0.0018,2.46e-4 0.0021,0 a 0.20002,0.20002 0 0 0 0.01395,-0.01034 l -0.01395,0.01447 c 0.01075,-0.0037 0.02521,-0.008 0.02946,-0.0098 a 0.20002,0.20002 0 0 0 0.0021,0 l 0.02739,-0.01188 c 0.05082,-0.02255 0.251125,-0.113358 0.347266,-0.156063 l 0.0098,-0.0041 c 4.21e-4,-1.87e-4 0.0016,1.85e-4 0.0021,0 a 0.20002,0.20002 0 0 0 0.01188,-0.0041 c 0.004,-0.0016 0.008,-0.0039 0.01189,-0.0057 l 0.01137,-0.0057 c 0.01998,-0.0087 0.04953,-0.02048 0.07441,-0.03152 a 0.20002,0.20002 0 0 0 0.0057,-0.0036 c 3.7e-5,-1.7e-5 0.0054,-0.0017 0.0062,-0.0021 a 0.20002,0.20002 0 0 0 0,-0.0021 0.20002,0.20002 0 0 0 0.01757,-0.0098 0.20002,0.20002 0 0 0 0.0021,0 l 0.0057,-0.0021 0.0021,-0.0021 h 0.0021 a 0.20002,0.20002 0 0 0 0.0057,-0.0021 0.20002,0.20002 0 0 0 0.01189,-0.0036 c 0.0036,-0.0016 0.0076,-0.002 0.01189,-0.0041 0.01163,-0.0055 0.01362,-0.0074 0.0098,-0.0057 -0.0011,5.57e-4 0.0016,-0.0021 0.0015,-0.0021 l 0.0098,-0.0041 c 0.0023,-0.0012 0.0025,-0.0011 0.0041,-0.0021 0.0047,-0.0022 0.0049,-8.17e-4 0.0098,-0.0036 a 0.20002,0.20002 0 0 0 0,-0.0021 c 5.56e-4,-3.04e-4 0.0014,3.45e-4 0.0021,0 0,0 1.4e-5,-0.002 0,-0.0021 -5e-4,2.21e-4 -0.0016,-2.22e-4 -0.0021,0 -0.0027,-0.0045 -0.09973,-0.170015 -0.09973,-0.170015 0,-1e-6 0.002,1e-6 0.0021,0 l 0.09973,0.167949 v 0.0021 c 2.49e-4,-1.42e-4 0.0017,1.98e-4 0.0021,0 0.001,-5.92e-4 9.43e-4,-0.0014 0.0021,-0.0021 3.99e-4,-2.36e-4 4.09e-4,-8.51e-4 0.0016,-0.0016 0.0018,-0.0011 0.0041,-0.002 0.0041,-0.0021 2e-6,-1e-6 0.002,4.4e-5 0.0021,0 l 0.0078,-0.0041 c 0.161691,-0.07157 0.246025,-0.105054 0.550871,-0.240295 l 0.0021,-0.0021 c 0.2558,-0.113988 0.439085,-0.34903 0.486276,-0.624768 l 1.566312,-9.109521 c 0.04513,-0.263197 -0.03744,-0.532236 -0.222726,-0.724504 -0.09999,-0.104024 -0.148913,-0.152124 -0.167947,-0.172082 l 0.0041,0.0062 c 0.0027,0.0043 0.0057,0.0099 0.0057,0.0098 -1.51e-4,-2.7e-4 0.0135,0.03118 0.01343,0.03101 -1.24e-4,-3.62e-4 0.0061,0.109689 0.0062,0.109553 0,0 -0.03688,-0.0086 -0.06666,-0.0155 a 0.20002,0.20002 0 0 0 -0.04858,-0.09405 l 0.0739,-0.06046 c 1.99e-4,2.24e-4 0.0018,-2.38e-4 0.0021,0 -8.41e-4,-0.0011 -0.0048,-0.0046 -0.0057,-0.0057 -0.04885,-0.06107 -0.116907,-0.124584 -0.333831,-0.347783 a 0.20002,0.20002 0 0 0 -0.0041,-0.0041 0.20002,0.20002 0 0 0 -0.01344,-0.01912 c 0.01154,0.01338 0.0085,0.0099 -0.01602,-0.01757 a 0.20002,0.20002 0 0 0 0,-0.0021 c -0.0053,-0.0058 -0.01179,-0.01219 -0.01757,-0.01757 l -0.0021,-0.0021 c -2.036037,-1.925705 -0.311155,-0.29357 -7.356656,-6.9365282 -0.147255,-0.1393676 -0.340526,-0.2192871 -0.541052,-0.22841 -0.01564,-6.667e-4 -0.02554,-1.997e-4 -0.03514,0 a 0.20002,0.20002 0 0 0 -0.01602,0 0.20002,0.20002 0 0 0 -0.0036,0 z M 21.14001,7.7794998 c 5.53e-4,-2.744e-4 0.0016,2.426e-4 0.0021,0 -0.01278,0.00865 -0.0422,0.029358 -0.05064,0.03514 0.0038,-0.00371 0.0078,-0.00778 0.0078,-0.00775 -7e-5,5.79e-5 0.03023,-0.020895 0.04082,-0.027389 z m 0.425813,2.7677892 5.211052,4.941301 -6.429582,2.851506 -5.225004,-4.946985 z m -9.269718,1.322401 c 0.01418,0.02166 0.03359,0.05064 0.03359,0.05064 v 5.16e-4 c -2.4e-5,1.7e-5 -0.0011,5.47e-4 -10e-4,5.17e-4 -9.49e-4,4.13e-4 -0.0052,0.0022 -0.0062,0.0026 z m 17.75809,3.276286 0.0155,0.001 -10e-4,0.01395 c -0.0019,-0.0022 -0.01244,-0.01269 -0.01447,-0.01499 z m -16.648597,0.338997 5.119067,4.849316 -0.984436,5.724715 -5.117,-4.845699 z m 14.185697,2.597257 -0.961181,5.57072 -6.441467,2.861324 0.957047,-5.57072 z m 0.554489,7.724593 c -2.92e-4,0.0081 -8e-6,0.02745 0,0.02739 0,0 -0.161822,-0.01831 -0.185519,-0.02119 0.0238,-6.68e-4 0.18552,-0.0061 0.185519,-0.0062 z m -9.16895,3.959966 -0.001,0.001 c -10e-7,-8e-6 0,-3.26e-4 0,-5.16e-4 1.66e-4,-7.4e-5 9.31e-4,-4.82e-4 0.001,-5.16e-4 z m 0.07545,0.182933 a 0.20002,0.20002 0 0 0 0.0021,0 c -7.43e-4,3.07e-4 -10e-4,0.0017 -0.0021,0.0021 a 0.20002,0.20002 0 0 0 0,-0.0021 z" />
    </g>
    <g
       id="g925">
      <path
         id="path892"
         style="color:#000000;font-style:normal;font-variant:normal;font-weight:normal;font-stretch:normal;font-size:medium;line-height:normal;font-family:sans-serif;font-variant-ligatures:normal;font-variant-position:normal;font-variant-caps:normal;font-variant-numeric:normal;font-variant-alternates:normal;font-variant-east-asian:normal;font-feature-settings:normal;font-variation-settings:normal;text-indent:0;text-align:start;text-decoration:none;text-decoration-line:none;text-decoration-style:solid;text-decoration-color:#000000;letter-spacing:normal;word-spacing:normal;text-transform:none;writing-mode:lr-tb;direction:ltr;text-orientation:mixed;dominant-baseline:auto;baseline-shift:baseline;text-anchor:start;white-space:normal;shape-padding:0;shape-margin:0;inline-size:0;clip-rule:nonzero;display:inline;overflow:visible;visibility:visible;isolation:auto;mix-blend-mode:normal;color-interpolation:sRGB;color-interpolation-filters:linearRGB;solid-color:#000000;solid-opacity:1;vector-effect:none;fill:url(#linearGradient905);fill-opacity:1;fill-rule:nonzero;stroke:none;stroke-width:1.08;stroke-linecap:round;stroke-linejoin:round;stroke-miterlimit:4;stroke-dasharray:none;stroke-dashoffset:0;stroke-opacity:1;color-rendering:auto;image-rendering:auto;shape-rendering:auto;text-rendering:auto;enable-background:accumulate;stop-color:#000000"
         d="m 18.750737,6.0445312 c -0.07161,0.0017 -0.142158,0.01763 -0.207546,0.046865 -0.24732,0.1085764 -0.371792,0.1626047 -0.430155,0.1874607 -0.02918,0.012428 -0.04339,0.017993 -0.03571,0.015064 -0.0059,0.00233 -0.02125,0.00661 -0.02566,0.00837 -0.02208,0.00879 -0.03841,0.015212 -0.07141,0.02957 -0.06601,0.028716 -0.190871,0.08372 -0.438524,0.1935976 L 9.4251334,10.139655 c -7.333e-4,-10e-7 -0.00147,-10e-7 -0.0022,0 -0.07397,0.03331 -0.124247,0.05639 -0.157891,0.07197 -0.01682,0.0078 -0.02786,0.01301 -0.04017,0.01897 -0.0069,0.0033 -0.02818,0.0163 -0.037939,0.0212 -0.00238,0.001 -0.00142,0.0011 -0.00391,0.0022 -0.090981,0.03956 -0.2655488,0.1129 -0.5824668,0.250505 -0.167718,0.0725 -0.2873827,0.224917 -0.3180135,0.405049 l -0.06974,0.400585 -1.2926973,7.530227 -0.2086614,1.207894 c -0.030888,0.178799 0.030107,0.361156 0.1623542,0.485389 l 7.2177914,6.821671 c 0.0029,0.0028 0.0059,0.0056 0.0089,0.0084 0.171714,0.15457 0.260949,0.233122 0.309645,0.27617 0.02435,0.02153 0.03822,0.0339 0.053,0.04631 0.01478,0.01241 0.07013,0.05244 0.07755,0.05691 0.0075,0.0044 -0.06086,-0.04221 -0.06304,-0.04408 -0.0022,-0.0018 0.0075,0.0051 0.02734,0.02288 0.03964,0.03552 0.123444,0.111297 0.28677,0.259432 0.155911,0.141395 0.379781,0.179288 0.57354,0.09708 0.209392,-0.08899 0.241065,-0.10237 0.362647,-0.153987 0.0021,-8.72e-4 0.0046,-0.0014 0.0067,-0.0022 0.0019,-8.32e-4 0.0023,-0.0015 0.0039,-0.0022 7.44e-4,-3.15e-4 0.0036,-0.0018 0.0045,-0.0022 -0.0027,0.0012 0.0065,-0.0023 0.0061,-0.0022 0.0027,-0.0012 0.01315,-0.0043 0.0173,-0.0061 l 0.01004,-0.0045 0.43685,-0.174626 c 0.0056,-0.0027 0.01121,-0.0055 0.01674,-0.0084 l 7.814754,-3.460874 c 0.0026,-0.0011 0.0037,-0.0012 0.0045,-0.0017 l 0.0061,-0.0022 c 0.0017,-7.52e-4 0.0038,-0.0035 0.0061,-0.0045 5.2e-5,-2.4e-5 0.0044,-0.0021 0.0045,-0.0022 l 0.06304,-0.02734 c 0.0035,-0.0015 0.0045,-4.31e-4 0.0084,-0.0022 l 0.0279,-0.01227 c 0.05052,-0.02242 0.271297,-0.121816 0.362647,-0.162354 l 0.01897,-0.0067 c 0.02224,-0.0098 0.06167,-0.02693 0.08648,-0.03794 0.0019,-8.73e-4 0.0041,-0.003 0.0061,-0.0039 l 0.04017,-0.0173 c 0.0069,-0.003 0.0021,-0.0012 0.0084,-0.0039 7.33e-4,1e-6 0.0015,1e-6 0.0022,0 0.0044,-0.0019 0.02132,-0.0099 0.0084,-0.0045 0.0032,-0.0014 0.0073,-0.0025 0.0106,-0.0039 0.0024,-0.001 0.0015,-0.0013 0.0084,-0.0045 0.0024,-0.0011 0.0033,-0.0025 0.0061,-0.0039 0.187692,-0.08328 0.257982,-0.113733 0.586372,-0.259433 0.16562,-0.07311 0.283568,-0.224372 0.314108,-0.402817 l 1.566636,-9.109694 c 0.02902,-0.169254 -0.02422,-0.342217 -0.143387,-0.465862 -0.109208,-0.113621 -0.164185,-0.169038 -0.18746,-0.194156 -0.02328,-0.02512 0.01042,0.01141 -0.0084,-0.01227 -0.03758,-0.04737 -0.07301,-0.08082 -0.348141,-0.364878 -0.0047,-0.0057 -0.0096,-0.01126 -0.01451,-0.01674 -2.036564,-1.93049 -0.309769,-0.296766 -7.357256,-6.9415964 -0.09451,-0.089448 -0.218136,-0.1417534 -0.348141,-0.1472905 -0.01096,-5.206e-4 -0.02194,-7.067e-4 -0.03292,-5.579e-4 z m -0.502685,0.217588 c 8.27e-4,-8.48e-5 0.0084,0 0.0084,0 -2.73e-4,2.3e-6 0.171211,0.025982 0.168491,0.025107 -0.0026,-8.45e-4 -0.165206,-0.023544 -0.17686,-0.025107 z m -0.05691,0.00837 c -0.0314,0.00428 -0.05895,0.00683 -0.07365,0.010601 0.0067,-0.00192 0.0015,-0.00174 0.01227,-0.00446 0.01085,-0.00272 0.03355,-0.00292 0.06137,-0.00614 z m 0.251063,2.1613763 5.680726,5.3900515 -7.019731,3.114301 -0.03794,-0.03403 -5.663989,-5.359924 z M 9.4251254,10.184288 c 0,0 -5e-6,0.0059 0,0.0061 -0.05192,0.004 -0.09503,0.007 -0.10712,0.0084 0.0089,-0.0021 0.01905,-0.0039 0.01897,-0.0039 -1.49e-4,3e-5 0.08824,-0.0106 0.08815,-0.0106 z m 0.5925096,2.939115 5.607081,5.308037 c 0.0083,0.0079 0.01687,0.01552 0.02566,0.02287 l 0.01227,0.0106 -1.106911,6.437822 -5.6427876,-5.341512 z m 14.775915,2.699209 -1.080131,6.279932 -7.101745,3.154471 1.079573,-6.281605 z"
         sodipodi:nodetypes="ccsccccccccccccccccccssccsccccccccccccccscccccccccccccccccccscccccccccccccccscccccccccccccccccccccccc" />
      <path
         id="path907"
         style="color:#000000;font-style:normal;font-variant:normal;font-weight:normal;font-stretch:normal;font-size:medium;line-height:normal;font-family:sans-serif;font-variant-ligatures:normal;font-variant-position:normal;font-variant-caps:normal;font-variant-numeric:normal;font-variant-alternates:normal;font-variant-east-asian:normal;font-feature-settings:normal;font-variation-settings:normal;text-indent:0;text-align:start;text-decoration:none;text-decoration-line:none;text-decoration-style:solid;text-decoration-color:#000000;letter-spacing:normal;word-spacing:normal;text-transform:none;writing-mode:lr-tb;direction:ltr;text-orientation:mixed;dominant-baseline:auto;baseline-shift:baseline;text-anchor:start;white-space:normal;shape-padding:0;shape-margin:0;inline-size:0;clip-rule:nonzero;display:inline;overflow:visible;visibility:visible;isolation:auto;mix-blend-mode:normal;color-interpolation:sRGB;color-interpolation-filters:linearRGB;solid-color:#000000;solid-opacity:1;vector-effect:none;fill:#41dc81;fill-opacity:0.28484;fill-rule:nonzero;stroke:none;stroke-width:4.08189;stroke-linecap:round;stroke-linejoin:round;stroke-miterlimit:4;stroke-dasharray:none;stroke-dashoffset:0;stroke-opacity:1;color-rendering:auto;image-rendering:auto;shape-rendering:auto;text-rendering:auto;enable-background:accumulate;stop-color:#000000"
         d="m 67.027344,29.322266 -26.611328,11.755859 2.685546,2.542969 26.601563,-11.751953 18.789063,17.826171 0.0059,-0.002 z m -31.841797,17.732422 -4.173828,24.332031 2.677734,2.535156 4.171875,-24.322266 18.65625,17.66211 0.0039,-0.01953 -0.04687,-0.03906 c -0.03283,-0.02827 -0.06474,-0.05759 -0.0957,-0.08789 z m 62.433594,0.230468 c 0.796367,0.820646 1.062648,1.089653 1.191406,1.251953 0.07113,0.0895 -0.05478,-0.05002 0.0332,0.04492 0.08797,0.09493 0.294277,0.304942 0.707031,0.734375 0.451072,0.46735 0.652692,1.121531 0.542972,1.761719 L 94.171872,85.50781 c -0.115792,0.674143 -0.561668,1.245422 -1.1875,1.521485 -1.241159,0.550677 -1.505457,0.66571 -2.214844,0.980469 -0.01058,0.0053 -0.01437,0.01147 -0.02344,0.01563 -0.02608,0.01209 -0.02218,0.0138 -0.03125,0.01758 -0.01247,0.0053 -0.02892,0.0084 -0.04102,0.01367 0.04883,-0.02041 -0.01462,0.0104 -0.03125,0.01758 -0.0026,5e-6 -0.0052,5e-6 -0.0078,0 -0.02381,0.0102 -0.0071,0.0023 -0.0332,0.01367 l -0.15039,0.06641 c -0.0076,0.0034 -0.01626,0.01037 -0.02344,0.01367 -0.09377,0.04161 -0.244068,0.107492 -0.328125,0.144531 l -0.07031,0.02539 c -0.34526,0.153214 -1.180152,0.528544 -1.371094,0.613281 l -0.105469,0.04687 c -0.01474,0.0067 -0.01802,0.0021 -0.03125,0.0078 l -0.238281,0.103516 c -3.78e-4,3.78e-4 -0.01738,0.0077 -0.01758,0.0078 -0.0087,0.0038 -0.01701,0.01474 -0.02344,0.01758 l -0.02344,0.0078 c -0.003,0.0019 -0.0058,0.0017 -0.01563,0.0059 L 58.666016,102.23047 c -0.02065,0.0108 -0.04149,0.0212 -0.0625,0.0312 l -1.650391,0.66016 -0.03906,0.0176 c -0.01568,0.007 -0.05425,0.017 -0.06445,0.0215 0.0015,-3.8e-4 -0.03364,0.0143 -0.02344,0.01 -0.0034,0.002 -0.01477,0.007 -0.01758,0.008 -0.006,0.003 -0.0065,0.005 -0.01367,0.008 -0.0079,0.003 -0.01745,0.005 -0.02539,0.008 -0.459522,0.19509 -0.579691,0.24569 -1.371093,0.58203 -0.73244,0.31075 -1.578706,0.16741 -2.167969,-0.36719 -0.617295,-0.55988 -0.934164,-0.84622 -1.083985,-0.98046 -0.07498,-0.0672 -0.11183,-0.0928 -0.103515,-0.0859 0.0082,0.007 0.266627,0.18264 0.238281,0.16601 -0.02804,-0.0169 -0.237107,-0.16794 -0.292969,-0.21484 -0.05586,-0.0469 -0.10914,-0.0924 -0.201172,-0.17383 -0.184047,-0.1627 -0.520924,-0.46072 -1.169921,-1.04492 -0.01118,-0.0103 -0.02225,-0.0207 -0.0332,-0.0312 L 25.818359,77.4375 c 0.05073,0.05971 0.104856,0.116441 0.16211,0.169922 l 27.279297,25.783198 c 0.01095,0.0105 0.02202,0.021 0.0332,0.0313 0.648998,0.5842 0.985874,0.88026 1.169922,1.04296 0.09203,0.0814 0.14531,0.12888 0.201171,0.17578 0.05586,0.0469 0.264925,0.19795 0.292969,0.21485 0.02835,0.0166 -0.230042,-0.15895 -0.238281,-0.16602 -0.0083,-0.007 0.02853,0.0187 0.103516,0.0859 0.14982,0.13425 0.466689,0.42059 1.083984,0.98047 0.589263,0.5346 1.435529,0.67794 2.167969,0.36719 0.791403,-0.33634 0.909618,-0.38695 1.36914,-0.58203 0.0079,-0.003 0.01745,-0.005 0.02539,-0.008 0.0072,-0.003 0.0096,-0.005 0.01563,-0.008 0.0028,-0.001 0.01418,-0.008 0.01758,-0.01 -0.0102,0.005 0.023,-0.008 0.02148,-0.008 0.0102,-0.005 0.05072,-0.0166 0.06641,-0.0234 l 0.03711,-0.0156 1.652344,-0.66016 c 0.02102,-0.0107 0.04186,-0.0218 0.0625,-0.0332 L 90.878906,91.695312 c 0.0098,-0.0042 0.0126,-0.004 0.01563,-0.0059 l 0.02344,-0.0078 c 0.0064,-0.0028 0.01474,-0.0138 0.02344,-0.01758 1.97e-4,-9e-5 0.0172,-0.0074 0.01758,-0.0078 l 0.238282,-0.103516 c 0.01323,-0.0057 0.01651,-0.0031 0.03125,-0.0098 l 0.105468,-0.04492 c 0.190942,-0.08474 1.025834,-0.460067 1.371094,-0.613281 l 0.07031,-0.02539 c 0.08406,-0.03704 0.234355,-0.102919 0.328125,-0.144531 0.0072,-0.0033 0.01393,-0.01027 0.02148,-0.01367 l 0.152344,-0.06641 c 0.02608,-0.01134 0.0074,-0.0035 0.03125,-0.01367 0.0033,8e-6 0.0065,8e-6 0.0098,0 0.01663,-0.0072 0.08008,-0.03799 0.03125,-0.01758 0.0121,-0.0053 0.02659,-0.01033 0.03906,-0.01563 0.0091,-0.0038 0.0071,-0.0035 0.0332,-0.01563 0.0091,-0.0042 0.01286,-0.01033 0.02344,-0.01563 0.709388,-0.314759 0.973685,-0.429792 2.214844,-0.980469 0.625832,-0.276063 1.071708,-0.847341 1.1875,-1.521484 L 102.76957,53.62298 c 0.10907,-0.639552 -0.0925,-1.292857 -0.54297,-1.759766 -0.41275,-0.429433 -0.62101,-0.639441 -0.70898,-0.734375 -0.088,-0.09494 0.0399,0.04262 -0.0312,-0.04687 -0.14204,-0.179036 -0.27459,-0.305301 -1.31445,-1.378906 -0.0185,-0.02122 -0.0373,-0.04206 -0.0567,-0.0625 -0.690997,-0.655008 -2.00007,-1.885205 -2.496092,-2.355469 z m -3.911234,12.516843 -29.518454,9.369876 -1.405173,26.28771 v 0 L 66.865234,71.71875 90.337891,61.298828 Z"
         transform="scale(0.26458333)"
         sodipodi:nodetypes="ccccccccccccccccccsccccccccccccccccccccccccccccccccccsccscccccccssccsccccccccccccccscccccccccccccccccccscccccccccccc" />
    </g>
  </g>
</svg>
