<?xml version="1.0" encoding="UTF-8" standalone="no"?>
<svg
   xmlns:dc="http://purl.org/dc/elements/1.1/"
   xmlns:cc="http://creativecommons.org/ns#"
   xmlns:rdf="http://www.w3.org/1999/02/22-rdf-syntax-ns#"
   xmlns:svg="http://www.w3.org/2000/svg"
   xmlns="http://www.w3.org/2000/svg"
   xmlns:xlink="http://www.w3.org/1999/xlink"
   xmlns:sodipodi="http://sodipodi.sourceforge.net/DTD/sodipodi-0.dtd"
   xmlns:inkscape="http://www.inkscape.org/namespaces/inkscape"
   width="128"
   height="128"
   viewBox="0 0 33.866666 33.866668"
   version="1.1"
   id="svg1443"
   inkscape:version="1.0.2 (e86c870879, 2021-01-15)"
   sodipodi:docname="notable.svg">
  <defs
     id="defs1437">
    <linearGradient
       gradientTransform="matrix(0.97573206,0,0,0.97573206,-111.76517,-37.182508)"
       gradientUnits="userSpaceOnUse"
       y2="70.679932"
       x2="132.21078"
       y1="42.151531"
       x1="132.21078"
       id="linearGradient1632"
       xlink:href="#linearGradient1630"
       inkscape:collect="always" />
    <linearGradient
       id="linearGradient1630"
       inkscape:collect="always">
      <stop
         id="stop1626"
         offset="0"
         style="stop-color:#fafafc;stop-opacity:1" />
      <stop
         id="stop1628"
         offset="1"
         style="stop-color:#eae6e5;stop-opacity:1" />
    </linearGradient>
    <filter
       color-interpolation-filters="sRGB"
       height="1.1311001"
       width="1.1106"
       y="-0.065563001"
       x="-0.055319"
       id="c-9">
      <feGaussianBlur
         id="feGaussianBlur1093"
         stdDeviation="1.1062912" />
    </filter>
    <linearGradient
       gradientUnits="userSpaceOnUse"
       gradientTransform="matrix(0.13235,0,0,0.13075,-32.379,1.0873)"
       y2="269.48999"
       y1="235.14999"
       x2="657.65002"
       x1="319.20999"
       id="a-12">
      <stop
         id="stop1076"
         offset="0"
         stop-color="#e54c18" />
      <stop
         id="stop1078"
         offset="1"
         stop-color="#fec350" />
    </linearGradient>
  </defs>
  <sodipodi:namedview
     id="base"
     pagecolor="#ffffff"
     bordercolor="#666666"
     borderopacity="1.0"
     inkscape:pageopacity="0.0"
     inkscape:pageshadow="2"
     inkscape:zoom="1.4"
     inkscape:cx="-129.82461"
     inkscape:cy="27.034719"
     inkscape:document-units="mm"
     inkscape:current-layer="layer1"
     inkscape:document-rotation="0"
     showgrid="false"
     units="px"
     inkscape:window-width="1920"
     inkscape:window-height="1028"
     inkscape:window-x="0"
     inkscape:window-y="24"
     inkscape:window-maximized="1" />
  <metadata
     id="metadata1440">
    <rdf:RDF>
      <cc:Work
         rdf:about="">
        <dc:format>image/svg+xml</dc:format>
        <dc:type
           rdf:resource="http://purl.org/dc/dcmitype/StillImage" />
        <dc:title></dc:title>
      </cc:Work>
    </rdf:RDF>
  </metadata>
  <g
     inkscape:label="Capa 1"
     inkscape:groupmode="layer"
     id="layer1">
    <g
       style="opacity:0.18753551"
       transform="matrix(0.97573206,0,0,0.96360993,-65.737228,-36.327649)"
       id="g1702">
      <rect
         ry="6.6098609"
         rx="6.6098609"
         y="40.709618"
         x="69.839508"
         height="29.810888"
         width="29.810888"
         id="rect1634"
         style="fill:none;fill-opacity:1;stroke:#000000;stroke-width:0.1;stroke-linecap:round;stroke-linejoin:round;stroke-miterlimit:4;stroke-dasharray:none;stroke-opacity:0.02" />
      <rect
         style="fill:none;fill-opacity:1;stroke:#000000;stroke-width:0.2;stroke-linecap:round;stroke-linejoin:round;stroke-miterlimit:4;stroke-dasharray:none;stroke-opacity:0.02"
         id="rect1638"
         width="29.810888"
         height="29.810888"
         x="69.839508"
         y="40.709618"
         rx="6.6098609"
         ry="6.6098609" />
      <rect
         ry="6.6098609"
         rx="6.6098609"
         y="40.709618"
         x="69.839508"
         height="29.810888"
         width="29.810888"
         id="rect1640"
         style="fill:none;fill-opacity:1;stroke:#000000;stroke-width:0.3;stroke-linecap:round;stroke-linejoin:round;stroke-miterlimit:4;stroke-dasharray:none;stroke-opacity:0.02" />
      <rect
         style="fill:none;fill-opacity:1;stroke:#000000;stroke-width:0.4;stroke-linecap:round;stroke-linejoin:round;stroke-miterlimit:4;stroke-dasharray:none;stroke-opacity:0.02"
         id="rect1642"
         width="29.810888"
         height="29.810888"
         x="69.839508"
         y="40.709618"
         rx="6.6098609"
         ry="6.6098609" />
      <rect
         ry="6.6098609"
         rx="6.6098609"
         y="40.709618"
         x="69.839508"
         height="29.810888"
         width="29.810888"
         id="rect1644"
         style="fill:none;fill-opacity:1;stroke:#000000;stroke-width:0.5;stroke-linecap:round;stroke-linejoin:round;stroke-miterlimit:4;stroke-dasharray:none;stroke-opacity:0.02" />
      <rect
         style="fill:none;fill-opacity:1;stroke:#000000;stroke-width:0.6;stroke-linecap:round;stroke-linejoin:round;stroke-miterlimit:4;stroke-dasharray:none;stroke-opacity:0.02"
         id="rect1646"
         width="29.810888"
         height="29.810888"
         x="69.839508"
         y="40.709618"
         rx="6.6098609"
         ry="6.6098609" />
      <rect
         ry="6.6098609"
         rx="6.6098609"
         y="40.709618"
         x="69.839508"
         height="29.810888"
         width="29.810888"
         id="rect1648"
         style="fill:none;fill-opacity:1;stroke:#000000;stroke-width:0.7;stroke-linecap:round;stroke-linejoin:round;stroke-miterlimit:4;stroke-dasharray:none;stroke-opacity:0.02" />
      <rect
         style="fill:none;fill-opacity:1;stroke:#000000;stroke-width:0.8;stroke-linecap:round;stroke-linejoin:round;stroke-miterlimit:4;stroke-dasharray:none;stroke-opacity:0.02"
         id="rect1650"
         width="29.810888"
         height="29.810888"
         x="69.839508"
         y="40.709618"
         rx="6.6098609"
         ry="6.6098609" />
      <rect
         ry="6.6098609"
         rx="6.6098609"
         y="40.709618"
         x="69.839508"
         height="29.810888"
         width="29.810888"
         id="rect1652"
         style="fill:none;fill-opacity:1;stroke:#000000;stroke-width:1;stroke-linecap:round;stroke-linejoin:round;stroke-miterlimit:4;stroke-dasharray:none;stroke-opacity:0.02" />
      <rect
         style="fill:none;fill-opacity:1;stroke:#000000;stroke-width:1.2;stroke-linecap:round;stroke-linejoin:round;stroke-miterlimit:4;stroke-dasharray:none;stroke-opacity:0.02"
         id="rect1654"
         width="29.810888"
         height="29.810888"
         x="69.839508"
         y="40.709618"
         rx="6.6098609"
         ry="6.6098609" />
      <rect
         ry="6.6098609"
         rx="6.6098609"
         y="40.709618"
         x="69.839508"
         height="29.810888"
         width="29.810888"
         id="rect1656"
         style="fill:none;fill-opacity:1;stroke:#000000;stroke-width:1.4;stroke-linecap:round;stroke-linejoin:round;stroke-miterlimit:4;stroke-dasharray:none;stroke-opacity:0.02" />
      <rect
         style="fill:none;fill-opacity:1;stroke:#000000;stroke-width:1.6;stroke-linecap:round;stroke-linejoin:round;stroke-miterlimit:4;stroke-dasharray:none;stroke-opacity:0.02"
         id="rect1658"
         width="29.810888"
         height="29.810888"
         x="69.839508"
         y="40.709618"
         rx="6.6098609"
         ry="6.6098609" />
      <rect
         ry="6.6098609"
         rx="6.6098609"
         y="40.709618"
         x="69.839508"
         height="29.810888"
         width="29.810888"
         id="rect1660"
         style="fill:none;fill-opacity:1;stroke:#000000;stroke-width:1.8;stroke-linecap:round;stroke-linejoin:round;stroke-miterlimit:4;stroke-dasharray:none;stroke-opacity:0.02" />
      <rect
         style="fill:none;fill-opacity:1;stroke:#000000;stroke-width:2;stroke-linecap:round;stroke-linejoin:round;stroke-miterlimit:4;stroke-dasharray:none;stroke-opacity:0.02"
         id="rect1662"
         width="29.810888"
         height="29.810888"
         x="69.839508"
         y="40.709618"
         rx="6.6098609"
         ry="6.6098609" />
      <rect
         ry="6.6098609"
         rx="6.6098609"
         y="40.709618"
         x="69.839508"
         height="29.810888"
         width="29.810888"
         id="rect1664"
         style="fill:none;fill-opacity:1;stroke:#000000;stroke-width:2.2;stroke-linecap:round;stroke-linejoin:round;stroke-miterlimit:4;stroke-dasharray:none;stroke-opacity:0.02" />
      <rect
         style="fill:none;fill-opacity:1;stroke:#000000;stroke-width:2.6;stroke-linecap:round;stroke-linejoin:round;stroke-miterlimit:4;stroke-dasharray:none;stroke-opacity:0.02"
         id="rect1666"
         width="29.810888"
         height="29.810888"
         x="69.839508"
         y="40.709618"
         rx="6.6098609"
         ry="6.6098609" />
      <rect
         ry="6.6098609"
         rx="6.6098609"
         y="40.709618"
         x="69.839508"
         height="29.810888"
         width="29.810888"
         id="rect1668"
         style="fill:none;fill-opacity:1;stroke:#000000;stroke-width:3;stroke-linecap:round;stroke-linejoin:round;stroke-miterlimit:4;stroke-dasharray:none;stroke-opacity:0.02" />
      <rect
         style="fill:none;fill-opacity:1;stroke:#000000;stroke-width:3.4;stroke-linecap:round;stroke-linejoin:round;stroke-miterlimit:4;stroke-dasharray:none;stroke-opacity:0.02"
         id="rect1670"
         width="29.810888"
         height="29.810888"
         x="69.839508"
         y="40.709618"
         rx="6.6098609"
         ry="6.6098609" />
      <rect
         ry="6.6098609"
         rx="6.6098609"
         y="40.709618"
         x="69.839508"
         height="29.810888"
         width="29.810888"
         id="rect1672"
         style="fill:none;fill-opacity:1;stroke:#000000;stroke-width:3.8;stroke-linecap:round;stroke-linejoin:round;stroke-miterlimit:4;stroke-dasharray:none;stroke-opacity:0.02" />
      <rect
         style="fill:none;fill-opacity:1;stroke:#000000;stroke-width:4.2;stroke-linecap:round;stroke-linejoin:round;stroke-miterlimit:4;stroke-dasharray:none;stroke-opacity:0.02"
         id="rect1674"
         width="29.810888"
         height="29.810888"
         x="69.839508"
         y="40.709618"
         rx="6.6098609"
         ry="6.6098609" />
      <rect
         ry="6.6098609"
         rx="6.6098609"
         y="40.709618"
         x="69.839508"
         height="29.810888"
         width="29.810888"
         id="rect1676"
         style="fill:none;fill-opacity:1;stroke:#000000;stroke-width:4.6;stroke-linecap:round;stroke-linejoin:round;stroke-miterlimit:4;stroke-dasharray:none;stroke-opacity:0.02" />
      <rect
         style="fill:none;fill-opacity:1;stroke:#000000;stroke-width:5;stroke-linecap:round;stroke-linejoin:round;stroke-miterlimit:4;stroke-dasharray:none;stroke-opacity:0.02"
         id="rect1678"
         width="29.810888"
         height="29.810888"
         x="69.839508"
         y="40.709618"
         rx="6.6098609"
         ry="6.6098609" />
    </g>
    <rect
       ry="6.4494534"
       rx="6.4494534"
       y="2.5391712"
       x="2.4074187"
       height="29.087439"
       width="29.087439"
       id="rect849"
       style="fill:url(#linearGradient1632);fill-opacity:1;stroke-width:2.68768;stroke-linecap:round;stroke-linejoin:round" />
    <path
       style="opacity:0.2;stroke-width:0.335922"
       d="m 9.0897149,8.7331872 c -0.1046809,0 -0.2071589,0.00952 -0.3057424,0.028211 -0.098269,0.018727 -0.1932059,0.04652 -0.2834341,0.082018 -0.090487,0.0356 -0.1767958,0.079949 -0.2571917,0.1305636 C 7.8416452,9.2270795 7.5780625,9.6555412 7.5780625,10.143805 v 12.698142 l 1.9958534,2.687381 1.5313351,2.015536 1.531335,-2.015536 1.995853,-2.687381 v -2.040469 l 4.931241,6.072196 c 0.265833,0.402156 0.737848,0.67119 1.28333,0.67119 h 0.839806 2.351459 0.839808 c 0.837455,0 1.511652,-0.628989 1.511652,-1.410613 V 10.143805 c 0,-0.7816258 -0.674197,-1.4106127 -1.511652,-1.4106127 H 24.038275 21.686816 20.84701 c -0.837456,0 -1.511652,0.6289869 -1.511652,1.4106127 v 5.301281 L 14.400836,9.3263062 C 14.340783,9.2518422 14.270912,9.1985126 14.196134,9.154407 14.125974,9.0880308 14.050264,9.0263446 13.967155,8.97398 h -6.72e-4 C 13.805902,8.8729048 13.623356,8.7989197 13.426514,8.7614047 c -2.94e-4,-5.59e-5 -9.64e-4,5.47e-5 -0.0012,0 -0.09854,-0.018727 -0.199734,-0.028211 -0.304416,-0.028211 h -0.83985 -2.3514578 z"
       id="path2" />
    <path
       style="fill:#fabe5c;stroke-width:0.335922"
       d="m 9.0899778,8.6324104 c -0.090093,0 -0.1779108,0.008 -0.261784,0.023882 -0.084123,0.016036 -0.1653156,0.039803 -0.2415759,0.069805 C 8.510454,8.7560599 8.43645,8.7941488 8.3680068,8.8372399 8.0284522,9.0511826 7.8132089,9.4044152 7.8132089,9.8081352 V 22.427938 l 2.3046141,3.071594 0.987428,1.317185 0.987429,-1.317185 2.304614,-3.071594 v -1.962916 a 0.23516942,0.23516942 0 0 1 0.417935,-0.147885 l 4.929797,6.070621 a 0.23516942,0.23516942 0 0 1 0.01378,0.01837 c 0.22157,0.336301 0.619717,0.567658 1.088466,0.567658 h 0.839544 2.351459 0.839544 c 0.719667,0 1.276769,-0.529374 1.276769,-1.175728 V 9.8081392 c 0,-0.6463544 -0.557102,-1.1757288 -1.276769,-1.1757288 h -0.839547 -2.351459 -0.839544 c -0.719667,0 -1.276769,0.5293744 -1.276769,1.1757288 v 5.3008868 a 0.23516942,0.23516942 0 0 1 -0.417932,0.147885 l -4.93439,-6.1183857 c -0.03961,-0.049122 -0.08763,-0.085788 -0.151558,-0.1221638 a 0.23516942,0.23516942 0 0 1 -0.04317,-0.031233 c -0.06466,-0.06004 -0.122571,-0.1101023 -0.179117,-0.146048 a 0.23516942,0.23516942 0 0 1 -0.0019,-0.00178 0.23516942,0.23516942 0 0 0 -9.64e-4,0 C 13.705664,8.7517937 13.550407,8.6883376 13.383174,8.6563518 a 0.23516942,0.23516942 0 0 1 -0.0019,0 c -0.08409,-0.015985 -0.17079,-0.023882 -0.260884,-0.023882 H 12.280846 9.9293879 Z"
       id="path4" />
    <path
       style="fill:#faab00;stroke-width:0.335922"
       d="M 12.64396,8.755718 C 12.54701,8.800523 12.202528,8.4978678 12.116562,8.5671934 L 11.463481,9.0944348 25.413965,26.393071 25.821002,26.27695 25.887902,25.703424 26.067129,23.85627 25.855405,23.193721 14.400968,8.9906401 C 14.178129,8.714318 13.829416,8.6950349 13.536578,8.5764908 Z"
       id="path6" />
    <path
       style="fill:#ffcd6e;stroke-width:0.335922"
       d="m 9.6328345,10.570526 -0.6530808,0.526323 c -0.6518887,0.525712 -0.6831405,1.56153 -0.069805,2.322066 l 10.7517053,13.23882 0.869958,0.156902 2.519239,0.3943 z"
       id="path8" />
    <path
       style="fill:#f5b94a;stroke-width:0.335922"
       d="M 11.463481,9.0944348 9.6328345,10.570526 23.050846,27.208937 25.413965,26.393071 25.122411,26.031544 Z"
       id="path10" />
    <path
       style="fill:#faab00;stroke-width:0.335922"
       d="M 24.038275,8.3972636 V 27.208937 h 0.839545 c 0.837455,0 1.511915,-0.629251 1.511915,-1.410876 V 9.8081392 c 0,-0.7816244 -0.67446,-1.4108756 -1.511915,-1.4108756 z"
       id="path12" />
    <path
       style="fill:#f5b94a;stroke-width:0.335922"
       d="M 9.929522,8.3972636 V 25.64099 l 1.175729,1.567947 1.175729,-1.567947 V 8.3972636 Z"
       id="path14" />
    <path
       style="fill:#faab00;stroke-width:0.335922"
       d="M 12.28098,8.3972636 V 25.64099 l 2.351459,-3.134972 V 9.8081392 c 0,-0.488263 -0.26332,-0.9171193 -0.665021,-1.1702186 -2.29e-4,-1.435e-4 -7.06e-4,1.447e-4 -9.65e-4,0 -0.160581,-0.1010625 -0.343258,-0.1746667 -0.5401,-0.2121817 -2.93e-4,-5.59e-5 -6.04e-4,5.58e-5 -9.65e-4,0 -0.09855,-0.018727 -0.200229,-0.028477 -0.304911,-0.028477 z"
       id="path16" />
    <path
       style="fill:#ffcd6e;stroke-width:0.335922"
       d="m 9.0899778,8.3972636 c -0.1046808,0 -0.2072912,0.00978 -0.3058738,0.028478 -0.09827,0.018727 -0.1935986,0.046252 -0.2838285,0.081751 -0.090487,0.0356 -0.1767959,0.079822 -0.25719,0.1304315 -0.4017015,0.253099 -0.665023,0.6819561 -0.665023,1.1702181 V 22.506022 L 9.929522,25.640994 V 8.3972636 Z"
       id="path18" />
    <path
       style="fill:#ffcd6e;stroke-width:0.335922"
       d="m 20.847273,8.3972636 c -0.837456,0 -1.511915,0.6292512 -1.511915,1.4108756 V 25.798061 c 0,0.781625 0.674459,1.410876 1.511915,1.410876 h 0.839543 V 8.3972636 Z"
       id="path20" />
    <rect
       style="fill:#f5b94a;stroke-width:0.335922"
       width="2.351459"
       height="18.811672"
       x="21.686815"
       y="8.3972645"
       id="rect22" />
    <rect
       style="fill:#8d8d8d;stroke-width:0.335922"
       width="7.0543776"
       height="2.0155363"
       x="19.335358"
       y="12.092413"
       id="rect24" />
    <path
       style="fill:#ff7863;stroke-width:0.335922"
       d="m 20.847273,8.3972636 c -0.837456,0 -1.511915,0.6292512 -1.511915,1.4108756 v 2.2842748 h 7.054377 V 9.8081392 c 0,-0.7816244 -0.67446,-1.4108756 -1.511915,-1.4108756 z"
       id="path26" />
    <path
       style="fill:#f8e2c8;stroke-width:0.335922"
       d="M 7.5780625,22.506018 9.5740474,25.1934 h 3.0624076 l 1.995984,-2.687382 z"
       id="path28" />
    <path
       style="fill:#8d6e63;stroke-width:0.335922"
       d="M 9.5740474,25.1934 11.105251,27.208937 12.636455,25.1934 Z"
       id="path30" />
    <path
       style="opacity:0.2;fill:#ffffff;stroke-width:0.335922"
       d="m 9.0897149,8.3972636 c -0.1046809,0 -0.2071589,0.00952 -0.3057424,0.028211 -0.098269,0.018727 -0.1932059,0.046519 -0.2834341,0.082018 -0.090487,0.0356 -0.1767958,0.079949 -0.2571917,0.1305636 -0.4017015,0.2530998 -0.6652842,0.681562 -0.6652842,1.169825 v 0.3359228 c 0,-0.4882638 0.2635827,-0.9167257 0.6652842,-1.169825 0.080398,-0.050607 0.166705,-0.094956 0.2571917,-0.1305636 0.090233,-0.035499 0.18516,-0.063278 0.2834341,-0.082018 0.098587,-0.018727 0.2010615,-0.028211 0.3057424,-0.028211 h 0.8398071 2.351458 0.839807 c 0.104681,0 0.205899,0.00952 0.30443,0.028211 3.35e-4,5.59e-5 0.0011,-5.59e-5 0.0012,0 0.196842,0.037518 0.379388,0.1115116 0.53997,0.2125765 h 6.71e-4 c 0.08311,0.052359 0.158821,0.1140509 0.228979,0.180427 0.07478,0.044107 0.14465,0.097431 0.204702,0.1718973 L 19.335247,15.44508 V 15.109156 L 14.400795,8.990376 C 14.340742,8.9159126 14.270871,8.8625828 14.196093,8.8184784 14.125934,8.7521021 14.050224,8.690416 13.967114,8.6380514 h -6.71e-4 c -0.160582,-0.1010752 -0.343128,-0.1750603 -0.53997,-0.2125766 -2.93e-4,-5.59e-5 -9.65e-4,5.59e-5 -0.0012,0 -0.09854,-0.018727 -0.199735,-0.028211 -0.304417,-0.028211 H 12.281022 9.9295641 Z"
       id="path32" />
    <path
       style="opacity:0.2;fill:#ffffff;stroke-width:0.335922"
       d="m 20.84701,8.3972636 c -0.837456,0 -1.511652,0.6289883 -1.511652,1.4106136 V 10.1438 c 0,-0.7816258 0.674196,-1.4106128 1.511652,-1.4106128 h 4.031073 c 0.837455,0 1.511652,0.628987 1.511652,1.4106128 V 9.8078772 c 0,-0.7816253 -0.674197,-1.4106136 -1.511652,-1.4106136 z"
       id="path34" />
    <rect
       style="opacity:0.2;stroke-width:0.335922"
       width="7.0543776"
       height="0.33592272"
       x="19.335358"
       y="12.092413"
       id="rect36" />
    <rect
       style="opacity:0.2;fill:#ffffff;stroke-width:0.335922"
       width="7.0543776"
       height="0.33592272"
       x="19.335358"
       y="14.107949"
       id="rect38" />
    <path
       style="opacity:0.2;fill:#ffffff;stroke-width:0.335922"
       d="m 7.5780625,22.506018 0.2493185,0.335923 h 6.555741 l 0.249317,-0.335923 z"
       id="path40" />
  </g>
</svg>
