<?xml version="1.0" encoding="UTF-8" standalone="no"?>
<svg
   width="128"
   height="128"
   viewBox="0 0 33.866666 33.866668"
   version="1.1"
   id="svg1312"
   inkscape:version="1.1.2 (0a00cf5339, 2022-02-04)"
   sodipodi:docname="olympus.svg"
   xmlns:inkscape="http://www.inkscape.org/namespaces/inkscape"
   xmlns:sodipodi="http://sodipodi.sourceforge.net/DTD/sodipodi-0.dtd"
   xmlns:xlink="http://www.w3.org/1999/xlink"
   xmlns="http://www.w3.org/2000/svg"
   xmlns:svg="http://www.w3.org/2000/svg"
   xmlns:rdf="http://www.w3.org/1999/02/22-rdf-syntax-ns#"
   xmlns:cc="http://creativecommons.org/ns#"
   xmlns:dc="http://purl.org/dc/elements/1.1/">
  <defs
     id="defs1306">
    <linearGradient
       inkscape:collect="always"
       id="linearGradient1140">
      <stop
         style="stop-color:#ffffff;stop-opacity:1;"
         offset="0"
         id="stop1136" />
      <stop
         style="stop-color:#3f1608;stop-opacity:1"
         offset="1"
         id="stop1138" />
    </linearGradient>
    <linearGradient
       id="linearGradient1630"
       inkscape:collect="always">
      <stop
         id="stop1626"
         offset="0"
         style="stop-color:#cd6b00;stop-opacity:1" />
      <stop
         id="stop1628"
         offset="1"
         style="stop-color:#6e2e17;stop-opacity:1" />
    </linearGradient>
    <radialGradient
       inkscape:collect="always"
       xlink:href="#linearGradient1630"
       id="radialGradient1161"
       cx="16.974262"
       cy="2.3754315"
       fx="16.974262"
       fy="2.3754315"
       r="14.543719"
       gradientUnits="userSpaceOnUse"
       gradientTransform="matrix(7.3381891,0,0,1.9255963,-107.58608,-2.1986907)" />
    <linearGradient
       inkscape:collect="always"
       xlink:href="#linearGradient1140"
       id="linearGradient1142"
       x1="6.3271012"
       y1="13.032879"
       x2="6.3271012"
       y2="60.053818"
       gradientUnits="userSpaceOnUse" />
  </defs>
  <sodipodi:namedview
     id="base"
     pagecolor="#ffffff"
     bordercolor="#666666"
     borderopacity="1.0"
     inkscape:pageopacity="0.0"
     inkscape:pageshadow="2"
     inkscape:zoom="0.7"
     inkscape:cx="-107.85714"
     inkscape:cy="9.2857143"
     inkscape:document-units="mm"
     inkscape:current-layer="layer1"
     inkscape:document-rotation="0"
     showgrid="false"
     units="px"
     inkscape:window-width="1920"
     inkscape:window-height="995"
     inkscape:window-x="0"
     inkscape:window-y="0"
     inkscape:window-maximized="1"
     inkscape:pagecheckerboard="0" />
  <metadata
     id="metadata1309">
    <rdf:RDF>
      <cc:Work
         rdf:about="">
        <dc:format>image/svg+xml</dc:format>
        <dc:type
           rdf:resource="http://purl.org/dc/dcmitype/StillImage" />
      </cc:Work>
    </rdf:RDF>
  </metadata>
  <g
     inkscape:label="Capa 1"
     inkscape:groupmode="layer"
     id="layer1">
    <g
       style="opacity:0.295"
       transform="matrix(0.97573206,0,0,0.97573206,-65.714103,-37.237124)"
       id="g1702">
      <rect
         ry="6.6098609"
         rx="6.6098609"
         y="40.709618"
         x="69.839508"
         height="29.810888"
         width="29.810888"
         id="rect1634"
         style="fill:none;fill-opacity:1;stroke:#000000;stroke-width:0.1;stroke-linecap:round;stroke-linejoin:round;stroke-miterlimit:4;stroke-dasharray:none;stroke-opacity:0.02" />
      <rect
         style="fill:none;fill-opacity:1;stroke:#000000;stroke-width:0.2;stroke-linecap:round;stroke-linejoin:round;stroke-miterlimit:4;stroke-dasharray:none;stroke-opacity:0.02"
         id="rect1638"
         width="29.810888"
         height="29.810888"
         x="69.839508"
         y="40.709618"
         rx="6.6098609"
         ry="6.6098609" />
      <rect
         ry="6.6098609"
         rx="6.6098609"
         y="40.709618"
         x="69.839508"
         height="29.810888"
         width="29.810888"
         id="rect1640"
         style="fill:none;fill-opacity:1;stroke:#000000;stroke-width:0.3;stroke-linecap:round;stroke-linejoin:round;stroke-miterlimit:4;stroke-dasharray:none;stroke-opacity:0.02" />
      <rect
         style="fill:none;fill-opacity:1;stroke:#000000;stroke-width:0.4;stroke-linecap:round;stroke-linejoin:round;stroke-miterlimit:4;stroke-dasharray:none;stroke-opacity:0.02"
         id="rect1642"
         width="29.810888"
         height="29.810888"
         x="69.839508"
         y="40.709618"
         rx="6.6098609"
         ry="6.6098609" />
      <rect
         ry="6.6098609"
         rx="6.6098609"
         y="40.709618"
         x="69.839508"
         height="29.810888"
         width="29.810888"
         id="rect1644"
         style="fill:none;fill-opacity:1;stroke:#000000;stroke-width:0.5;stroke-linecap:round;stroke-linejoin:round;stroke-miterlimit:4;stroke-dasharray:none;stroke-opacity:0.02" />
      <rect
         style="fill:none;fill-opacity:1;stroke:#000000;stroke-width:0.6;stroke-linecap:round;stroke-linejoin:round;stroke-miterlimit:4;stroke-dasharray:none;stroke-opacity:0.02"
         id="rect1646"
         width="29.810888"
         height="29.810888"
         x="69.839508"
         y="40.709618"
         rx="6.6098609"
         ry="6.6098609" />
      <rect
         ry="6.6098609"
         rx="6.6098609"
         y="40.709618"
         x="69.839508"
         height="29.810888"
         width="29.810888"
         id="rect1648"
         style="fill:none;fill-opacity:1;stroke:#000000;stroke-width:0.7;stroke-linecap:round;stroke-linejoin:round;stroke-miterlimit:4;stroke-dasharray:none;stroke-opacity:0.02" />
      <rect
         style="fill:none;fill-opacity:1;stroke:#000000;stroke-width:0.8;stroke-linecap:round;stroke-linejoin:round;stroke-miterlimit:4;stroke-dasharray:none;stroke-opacity:0.02"
         id="rect1650"
         width="29.810888"
         height="29.810888"
         x="69.839508"
         y="40.709618"
         rx="6.6098609"
         ry="6.6098609" />
      <rect
         ry="6.6098609"
         rx="6.6098609"
         y="40.709618"
         x="69.839508"
         height="29.810888"
         width="29.810888"
         id="rect1652"
         style="fill:none;fill-opacity:1;stroke:#000000;stroke-width:1;stroke-linecap:round;stroke-linejoin:round;stroke-miterlimit:4;stroke-dasharray:none;stroke-opacity:0.02" />
      <rect
         style="fill:none;fill-opacity:1;stroke:#000000;stroke-width:1.2;stroke-linecap:round;stroke-linejoin:round;stroke-miterlimit:4;stroke-dasharray:none;stroke-opacity:0.02"
         id="rect1654"
         width="29.810888"
         height="29.810888"
         x="69.839508"
         y="40.709618"
         rx="6.6098609"
         ry="6.6098609" />
      <rect
         ry="6.6098609"
         rx="6.6098609"
         y="40.709618"
         x="69.839508"
         height="29.810888"
         width="29.810888"
         id="rect1656"
         style="fill:none;fill-opacity:1;stroke:#000000;stroke-width:1.4;stroke-linecap:round;stroke-linejoin:round;stroke-miterlimit:4;stroke-dasharray:none;stroke-opacity:0.02" />
      <rect
         style="fill:none;fill-opacity:1;stroke:#000000;stroke-width:1.6;stroke-linecap:round;stroke-linejoin:round;stroke-miterlimit:4;stroke-dasharray:none;stroke-opacity:0.02"
         id="rect1658"
         width="29.810888"
         height="29.810888"
         x="69.839508"
         y="40.709618"
         rx="6.6098609"
         ry="6.6098609" />
      <rect
         ry="6.6098609"
         rx="6.6098609"
         y="40.709618"
         x="69.839508"
         height="29.810888"
         width="29.810888"
         id="rect1660"
         style="fill:none;fill-opacity:1;stroke:#000000;stroke-width:1.8;stroke-linecap:round;stroke-linejoin:round;stroke-miterlimit:4;stroke-dasharray:none;stroke-opacity:0.02" />
      <rect
         style="fill:none;fill-opacity:1;stroke:#000000;stroke-width:2;stroke-linecap:round;stroke-linejoin:round;stroke-miterlimit:4;stroke-dasharray:none;stroke-opacity:0.02"
         id="rect1662"
         width="29.810888"
         height="29.810888"
         x="69.839508"
         y="40.709618"
         rx="6.6098609"
         ry="6.6098609" />
      <rect
         ry="6.6098609"
         rx="6.6098609"
         y="40.709618"
         x="69.839508"
         height="29.810888"
         width="29.810888"
         id="rect1664"
         style="fill:none;fill-opacity:1;stroke:#000000;stroke-width:2.2;stroke-linecap:round;stroke-linejoin:round;stroke-miterlimit:4;stroke-dasharray:none;stroke-opacity:0.02" />
      <rect
         style="fill:none;fill-opacity:1;stroke:#000000;stroke-width:2.6;stroke-linecap:round;stroke-linejoin:round;stroke-miterlimit:4;stroke-dasharray:none;stroke-opacity:0.02"
         id="rect1666"
         width="29.810888"
         height="29.810888"
         x="69.839508"
         y="40.709618"
         rx="6.6098609"
         ry="6.6098609" />
      <rect
         ry="6.6098609"
         rx="6.6098609"
         y="40.709618"
         x="69.839508"
         height="29.810888"
         width="29.810888"
         id="rect1668"
         style="fill:none;fill-opacity:1;stroke:#000000;stroke-width:3;stroke-linecap:round;stroke-linejoin:round;stroke-miterlimit:4;stroke-dasharray:none;stroke-opacity:0.02" />
      <rect
         style="fill:none;fill-opacity:1;stroke:#000000;stroke-width:3.4;stroke-linecap:round;stroke-linejoin:round;stroke-miterlimit:4;stroke-dasharray:none;stroke-opacity:0.02"
         id="rect1670"
         width="29.810888"
         height="29.810888"
         x="69.839508"
         y="40.709618"
         rx="6.6098609"
         ry="6.6098609" />
      <rect
         ry="6.6098609"
         rx="6.6098609"
         y="40.709618"
         x="69.839508"
         height="29.810888"
         width="29.810888"
         id="rect1672"
         style="fill:none;fill-opacity:1;stroke:#000000;stroke-width:3.8;stroke-linecap:round;stroke-linejoin:round;stroke-miterlimit:4;stroke-dasharray:none;stroke-opacity:0.02" />
      <rect
         style="fill:none;fill-opacity:1;stroke:#000000;stroke-width:4.2;stroke-linecap:round;stroke-linejoin:round;stroke-miterlimit:4;stroke-dasharray:none;stroke-opacity:0.02"
         id="rect1674"
         width="29.810888"
         height="29.810888"
         x="69.839508"
         y="40.709618"
         rx="6.6098609"
         ry="6.6098609" />
      <rect
         ry="6.6098609"
         rx="6.6098609"
         y="40.709618"
         x="69.839508"
         height="29.810888"
         width="29.810888"
         id="rect1676"
         style="fill:none;fill-opacity:1;stroke:#000000;stroke-width:4.6;stroke-linecap:round;stroke-linejoin:round;stroke-miterlimit:4;stroke-dasharray:none;stroke-opacity:0.02" />
      <rect
         style="fill:none;fill-opacity:1;stroke:#000000;stroke-width:5;stroke-linecap:round;stroke-linejoin:round;stroke-miterlimit:4;stroke-dasharray:none;stroke-opacity:0.02"
         id="rect1678"
         width="29.810888"
         height="29.810888"
         x="69.839508"
         y="40.709618"
         rx="6.6098609"
         ry="6.6098609" />
    </g>
    <rect
       ry="6.4494534"
       rx="6.4494534"
       y="2.4845543"
       x="2.4305434"
       height="29.087439"
       width="29.087439"
       id="rect849"
       style="fill:url(#radialGradient1161);fill-opacity:1;stroke-width:2.68768;stroke-linecap:round;stroke-linejoin:round" />
    <g
       id="g2651"
       style="opacity:0.81410136">
      <path
         style="fill:#1b0700;fill-opacity:0.0752987;stroke-width:0.521413"
         d="m 16.656837,9.459403 c -0.213019,-0.018919 -0.397198,0.4336044 -0.851371,1.478696 -0.327543,0.753706 -0.745536,1.791284 -0.928767,2.307662 l -0.334031,0.93895 -0.682318,0.863592 c -0.375741,0.474696 -1.025854,1.356007 -1.444071,1.957335 -0.418221,0.601323 -0.764636,1.100305 -0.771936,1.11004 -0.0073,0.0099 -0.08913,-0.05747 -0.181264,-0.150719 -0.133279,-0.134933 -0.196439,-0.169046 -0.307553,-0.169046 -0.17959,0 -0.208904,0.03384 -0.509193,0.635473 l -0.248485,0.501045 -0.211824,-0.248487 C 9.9840609,18.450056 9.9651999,18.438096 9.8112569,18.449715 l -0.1609082,0.01419 -1.582569,1.943081 c -0.904242,1.111092 -1.615125,2.019591 -1.659969,2.122313 -0.109531,0.250915 -0.08941,0.324101 0.120173,0.411429 0.169126,0.07049 0.612485,0.07321 10.4099373,0.07536 7.149573,0.0015 10.241278,-0.01084 10.259216,-0.04073 0.01419,-0.02353 -0.03914,-0.197318 -0.118124,-0.386986 -0.132431,-0.318015 -0.229149,-0.450629 -1.260761,-1.700705 -0.844538,-1.023382 -1.212124,-1.501865 -1.49499,-1.951227 -0.206079,-0.327382 -0.418887,-0.645516 -0.474567,-0.706759 -0.155271,-0.1708 -0.308847,-0.152591 -0.545855,0.06722 l -0.195533,0.181265 -0.554002,-0.576407 -0.554,-0.572333 -0.790267,-1.376857 c -0.433496,-0.757224 -0.82031,-1.413582 -0.861555,-1.456291 -0.115502,-0.119523 -0.281218,-0.09605 -0.476605,0.06517 -0.09438,0.0779 -0.226529,0.180791 -0.293294,0.228118 l -0.122203,0.08555 -0.334031,-0.472532 -0.334029,-0.476605 -0.401244,-1.356489 c -0.220858,-0.746105 -0.43217,-1.389356 -0.470494,-1.433894 -0.03835,-0.04456 -0.293872,-0.422434 -0.566222,-0.837112 -0.344287,-0.5242036 -0.52682,-0.8243717 -0.692503,-0.839146 z m 0.132391,6.25696 c 0.227042,5.6e-5 0.45569,0.0089 0.534654,0.02749 0.01123,0.0028 0.01971,0.0049 0.02444,0.0081 0.04221,0.02668 0.06314,0.130874 0.07333,0.354399 l 0.01537,0.31468 0.268855,0.1049 c 0.148649,0.05808 0.288557,0.103876 0.308569,0.103876 0.02004,1.8e-5 0.11499,-0.07851 0.211824,-0.177205 0.231536,-0.23593 0.354726,-0.240805 0.620198,-0.02138 0.208843,0.172613 0.437976,0.442685 0.475586,0.561132 0.03112,0.09804 -0.03535,0.220219 -0.226082,0.418556 l -0.155803,0.162937 0.09777,0.216917 c 0.05274,0.119148 0.105038,0.245109 0.117119,0.281074 0.01734,0.05171 0.08945,0.06986 0.345232,0.08147 0.230997,0.01044 0.333712,0.0309 0.360509,0.07333 0.02071,0.03269 0.03869,0.284955 0.03871,0.559095 1.2e-5,0.274133 -0.01813,0.523354 -0.03871,0.556038 -0.02674,0.04229 -0.130499,0.06403 -0.357452,0.07433 l -0.318757,0.01537 -0.06111,0.185344 c -0.03466,0.101904 -0.08783,0.227347 -0.118123,0.282093 -0.05244,0.09479 -0.0468,0.113276 0.158857,0.328939 0.287823,0.301784 0.286427,0.378507 -0.03157,0.75666 -0.192636,0.229076 -0.421435,0.391067 -0.549929,0.391059 -0.06356,-2e-6 -0.172298,-0.07609 -0.320792,-0.223027 l -0.226082,-0.223026 -0.152749,0.07841 c -0.08511,0.0428 -0.22136,0.09936 -0.301441,0.125258 l -0.14664,0.04684 -0.0132,0.359491 c -0.01025,0.263933 -0.02932,0.367329 -0.07333,0.395132 -0.03289,0.02075 -0.285004,0.03872 -0.559094,0.0387 -0.274095,-1.9e-5 -0.523149,-0.01793 -0.556038,-0.0387 -0.04414,-0.02787 -0.06497,-0.132313 -0.07536,-0.400225 -0.01143,-0.29363 -0.02631,-0.367097 -0.07944,-0.38495 -0.03614,-0.01222 -0.162721,-0.06677 -0.281075,-0.119148 l -0.214879,-0.09268 -0.225065,0.213862 c -0.123563,0.117887 -0.262085,0.226268 -0.309588,0.241357 -0.146167,0.04639 -0.426232,-0.146876 -0.706759,-0.488825 -0.213825,-0.260642 -0.196774,-0.371441 0.09574,-0.660932 l 0.236265,-0.235248 -0.07128,-0.14258 c -0.03955,-0.07877 -0.09528,-0.210139 -0.121198,-0.290238 l -0.04481,-0.14461 -0.359489,-0.01419 c -0.263898,-0.01025 -0.369365,-0.0293 -0.397172,-0.07333 -0.02075,-0.03289 -0.03665,-0.28292 -0.03665,-0.557057 -1.2e-5,-0.274136 0.01793,-0.528239 0.03871,-0.56113 0.02787,-0.04412 0.132351,-0.06093 0.400224,-0.07128 0.293579,-0.01123 0.365068,-0.02631 0.382914,-0.07944 0.01202,-0.03614 0.06838,-0.164849 0.121198,-0.284129 l 0.09471,-0.216917 -0.219973,-0.223027 c -0.145181,-0.146738 -0.219967,-0.256317 -0.219971,-0.319771 -6e-6,-0.128509 0.159981,-0.35523 0.389023,-0.547893 0.378922,-0.318715 0.457387,-0.321892 0.762772,-0.03055 0.126361,0.120547 0.241081,0.209047 0.253577,0.196557 0.01242,-0.01261 0.125474,-0.06515 0.25358,-0.117118 l 0.232191,-0.09471 0.02241,-0.323846 c 0.01478,-0.221672 0.03955,-0.334278 0.07944,-0.359491 0.03825,-0.02432 0.296604,-0.03683 0.556038,-0.03665 z m -0.01833,2.085653 a 1.0428269,1.0428269 0 0 0 -1.042827,1.042828 1.0428269,1.0428269 0 0 0 1.042827,1.042827 1.0428269,1.0428269 0 0 0 1.042826,-1.042827 1.0428269,1.0428269 0 0 0 -1.042826,-1.042828 z"
         id="path2510" />
      <path
         style="fill:#1b0700;fill-opacity:0.0752987;stroke-width:0.521413"
         d="m 16.701754,9.7549507 c -0.213019,-0.018919 -0.397198,0.4336043 -0.851371,1.4786963 -0.327543,0.753706 -0.745536,1.791284 -0.928767,2.307662 l -0.334031,0.93895 -0.682318,0.863592 c -0.375741,0.474696 -1.025854,1.356007 -1.444071,1.957335 -0.418221,0.601323 -0.764636,1.100305 -0.771936,1.11004 -0.0073,0.0099 -0.08913,-0.05747 -0.181264,-0.150719 -0.133279,-0.134933 -0.196439,-0.169046 -0.307553,-0.169046 -0.17959,0 -0.208904,0.03384 -0.509193,0.635473 l -0.248485,0.501045 -0.211824,-0.248487 C 10.028978,18.745604 10.010117,18.733644 9.8561739,18.745263 l -0.1609082,0.01419 -1.582569,1.943081 c -0.904242,1.111092 -1.615125,2.019591 -1.659969,2.122313 -0.109531,0.250915 -0.08941,0.324101 0.120173,0.411429 0.169126,0.07049 0.612485,0.07321 10.4099373,0.07536 7.149573,0.0015 10.241278,-0.01084 10.259216,-0.04073 0.01419,-0.02353 -0.03914,-0.197318 -0.118124,-0.386986 -0.132431,-0.318015 -0.229149,-0.450629 -1.260761,-1.700705 -0.844538,-1.023382 -1.212124,-1.501865 -1.49499,-1.951227 -0.206079,-0.327382 -0.418887,-0.645516 -0.474567,-0.706759 -0.155271,-0.1708 -0.308847,-0.152591 -0.545855,0.06722 l -0.195533,0.181265 -0.554002,-0.576407 -0.554,-0.572333 -0.790267,-1.376857 c -0.433496,-0.757224 -0.82031,-1.413582 -0.861555,-1.456291 -0.115502,-0.119523 -0.281218,-0.09605 -0.476605,0.06517 -0.09438,0.0779 -0.226529,0.180791 -0.293294,0.228118 l -0.122203,0.08555 -0.334031,-0.472532 -0.334029,-0.476605 -0.401244,-1.356489 C 18.210136,12.118933 17.998824,11.475682 17.9605,11.431144 17.92215,11.386584 17.666628,11.00871 17.394278,10.594032 17.049991,10.069828 16.867458,9.76966 16.701775,9.7548857 Z m 0.132391,6.2569603 c 0.227042,5.6e-5 0.45569,0.0089 0.534654,0.02749 0.01123,0.0028 0.01971,0.0049 0.02444,0.0081 0.04221,0.02668 0.06314,0.130874 0.07333,0.354399 l 0.01537,0.31468 0.268855,0.1049 c 0.148649,0.05808 0.288557,0.103876 0.308569,0.103876 0.02004,1.8e-5 0.11499,-0.07851 0.211824,-0.177205 0.231536,-0.23593 0.354726,-0.240805 0.620198,-0.02138 0.208843,0.172613 0.437976,0.442685 0.475586,0.561132 0.03112,0.09804 -0.03535,0.220219 -0.226082,0.418556 l -0.155803,0.162937 0.09777,0.216917 c 0.05274,0.119148 0.105038,0.245109 0.117119,0.281074 0.01734,0.05171 0.08945,0.06986 0.345232,0.08147 0.230997,0.01044 0.333712,0.0309 0.360509,0.07333 0.02071,0.03269 0.03869,0.284955 0.03871,0.559095 1.2e-5,0.274133 -0.01813,0.523354 -0.03871,0.556038 -0.02674,0.04229 -0.130499,0.06403 -0.357452,0.07433 l -0.318757,0.01537 -0.06111,0.185344 c -0.03466,0.101904 -0.08783,0.227347 -0.118123,0.282093 -0.05244,0.09479 -0.0468,0.113276 0.158857,0.328939 0.287823,0.301784 0.286427,0.378507 -0.03157,0.75666 -0.192636,0.229076 -0.421435,0.391067 -0.549929,0.391059 -0.06356,-2e-6 -0.172298,-0.07609 -0.320792,-0.223027 l -0.226082,-0.223026 -0.152749,0.07841 c -0.08511,0.0428 -0.22136,0.09936 -0.301441,0.125258 l -0.14664,0.04684 -0.0132,0.359491 c -0.01025,0.263933 -0.02932,0.367329 -0.07333,0.395132 -0.03289,0.02075 -0.285004,0.03872 -0.559094,0.0387 -0.274095,-1.9e-5 -0.523149,-0.01793 -0.556038,-0.0387 -0.04414,-0.02787 -0.06497,-0.132313 -0.07536,-0.400225 -0.01143,-0.29363 -0.02631,-0.367097 -0.07944,-0.38495 -0.03614,-0.01222 -0.162721,-0.06677 -0.281075,-0.119148 l -0.214879,-0.09268 -0.225065,0.213862 c -0.123563,0.117887 -0.262085,0.226268 -0.309588,0.241357 -0.146167,0.04639 -0.426232,-0.146876 -0.706759,-0.488825 -0.213825,-0.260642 -0.196774,-0.371441 0.09574,-0.660932 l 0.236265,-0.235248 -0.07128,-0.14258 c -0.03955,-0.07877 -0.09528,-0.210139 -0.121198,-0.290238 l -0.04481,-0.14461 -0.359489,-0.01419 c -0.263898,-0.01025 -0.369365,-0.0293 -0.397172,-0.07333 -0.02075,-0.03289 -0.03665,-0.28292 -0.03665,-0.557057 -1.2e-5,-0.274136 0.01793,-0.528239 0.03871,-0.56113 0.02787,-0.04412 0.132351,-0.06093 0.400224,-0.07128 0.293579,-0.01123 0.365068,-0.02631 0.382914,-0.07944 0.01202,-0.03614 0.06838,-0.164849 0.121198,-0.284129 l 0.09471,-0.216917 -0.219973,-0.223027 c -0.145181,-0.146738 -0.219967,-0.256317 -0.219971,-0.319771 -6e-6,-0.128509 0.159981,-0.35523 0.389023,-0.547893 0.378922,-0.318715 0.457387,-0.321892 0.762772,-0.03055 0.126361,0.120547 0.241081,0.209047 0.253577,0.196557 0.01242,-0.01261 0.125474,-0.06515 0.25358,-0.117118 l 0.232191,-0.09471 0.02241,-0.323846 c 0.01478,-0.221672 0.03955,-0.334278 0.07944,-0.359491 0.03825,-0.02432 0.296604,-0.03683 0.556038,-0.03665 z m -0.01833,2.085653 a 1.0428269,1.0428269 0 0 0 -1.042827,1.042828 1.0428269,1.0428269 0 0 0 1.042827,1.042827 1.0428269,1.0428269 0 0 0 1.042826,-1.042827 1.0428269,1.0428269 0 0 0 -1.042826,-1.042828 z"
         id="path2638" />
      <path
         style="fill:#1b0700;fill-opacity:0.0752987;stroke-width:0.521413"
         d="m 16.69038,10.1198 c -0.213019,-0.01892 -0.397198,0.433605 -0.851371,1.478697 -0.327543,0.753706 -0.745536,1.791284 -0.928767,2.307662 l -0.334031,0.93895 -0.682318,0.863592 c -0.375741,0.474696 -1.025854,1.356007 -1.444071,1.957335 -0.418221,0.601323 -0.764636,1.100305 -0.771936,1.11004 -0.0073,0.0099 -0.08913,-0.05747 -0.181264,-0.150719 -0.133279,-0.134933 -0.196439,-0.169046 -0.307553,-0.169046 -0.17959,0 -0.208904,0.03384 -0.509193,0.635473 l -0.248485,0.501045 -0.211824,-0.248487 C 10.017604,19.110454 9.9987434,19.098494 9.8448004,19.110113 l -0.1609082,0.01419 -1.582569,1.943081 c -0.904242,1.111092 -1.615125,2.019591 -1.659969,2.122313 -0.109531,0.250915 -0.08941,0.324101 0.120173,0.411429 0.169126,0.07049 0.612485,0.07321 10.4099368,0.07536 7.149573,0.0015 10.241278,-0.01084 10.259216,-0.04073 0.01419,-0.02353 -0.03914,-0.197318 -0.118124,-0.386986 -0.132431,-0.318015 -0.229149,-0.450629 -1.260761,-1.700705 -0.844538,-1.023382 -1.212124,-1.501865 -1.49499,-1.951227 -0.206079,-0.327382 -0.418887,-0.645516 -0.474567,-0.706759 -0.155271,-0.1708 -0.308847,-0.152591 -0.545855,0.06722 l -0.195533,0.181265 -0.554002,-0.576407 -0.554,-0.572333 -0.790267,-1.376857 c -0.433496,-0.757224 -0.82031,-1.413582 -0.861555,-1.456291 -0.115502,-0.119523 -0.281218,-0.09605 -0.476605,0.06517 -0.09438,0.0779 -0.226529,0.180791 -0.293294,0.228118 l -0.122203,0.08555 -0.334031,-0.472532 -0.334029,-0.476605 -0.401244,-1.356489 c -0.220858,-0.746105 -0.43217,-1.389356 -0.470494,-1.433894 -0.03835,-0.04456 -0.293872,-0.422434 -0.566222,-0.837112 -0.344287,-0.524204 -0.52682,-0.824372 -0.692503,-0.839147 z m 0.132391,6.256961 c 0.227042,5.6e-5 0.45569,0.0089 0.534654,0.02749 0.01123,0.0028 0.01971,0.0049 0.02444,0.0081 0.04221,0.02668 0.06314,0.130874 0.07333,0.354399 l 0.01537,0.31468 0.268855,0.1049 c 0.148649,0.05808 0.288557,0.103876 0.308569,0.103876 0.02004,1.8e-5 0.11499,-0.07851 0.211824,-0.177205 0.231536,-0.23593 0.354726,-0.240805 0.620198,-0.02138 0.208843,0.172613 0.437976,0.442685 0.475586,0.561132 0.03112,0.09804 -0.03535,0.220219 -0.226082,0.418556 l -0.155803,0.162937 0.09777,0.216917 c 0.05274,0.119148 0.105038,0.245109 0.117119,0.281074 0.01734,0.05171 0.08945,0.06986 0.345232,0.08147 0.230997,0.01044 0.333712,0.0309 0.360509,0.07333 0.02071,0.03269 0.03869,0.284955 0.03871,0.559095 1.2e-5,0.274133 -0.01813,0.523354 -0.03871,0.556038 -0.02674,0.04229 -0.130499,0.06403 -0.357452,0.07433 l -0.318757,0.01537 -0.06111,0.185344 c -0.03466,0.101904 -0.08783,0.227347 -0.118123,0.282093 -0.05244,0.09479 -0.0468,0.113276 0.158857,0.328939 0.287823,0.301784 0.286427,0.378507 -0.03157,0.75666 -0.192636,0.229076 -0.421435,0.391067 -0.549929,0.391059 -0.06356,-2e-6 -0.172298,-0.07609 -0.320792,-0.223027 l -0.226082,-0.223026 -0.152749,0.07841 c -0.08511,0.0428 -0.22136,0.09936 -0.301441,0.125258 l -0.14664,0.04684 -0.0132,0.359491 c -0.01025,0.263933 -0.02932,0.367329 -0.07333,0.395132 -0.03289,0.02075 -0.285004,0.03872 -0.559094,0.0387 -0.274095,-1.9e-5 -0.523149,-0.01793 -0.556038,-0.0387 -0.04414,-0.02787 -0.06497,-0.132313 -0.07536,-0.400225 -0.01143,-0.29363 -0.02631,-0.367097 -0.07944,-0.38495 -0.03614,-0.01222 -0.162721,-0.06677 -0.281075,-0.119148 l -0.214879,-0.09268 -0.225065,0.213862 c -0.123563,0.117887 -0.262085,0.226268 -0.309588,0.241357 -0.146167,0.04639 -0.426232,-0.146876 -0.706759,-0.488825 -0.213825,-0.260642 -0.196774,-0.371441 0.09574,-0.660932 l 0.236265,-0.235248 -0.07128,-0.14258 c -0.03955,-0.07877 -0.09528,-0.210139 -0.121198,-0.290238 l -0.04481,-0.14461 -0.359489,-0.01419 c -0.263898,-0.01025 -0.369365,-0.0293 -0.397172,-0.07333 -0.02075,-0.03289 -0.03665,-0.28292 -0.03665,-0.557057 -1.2e-5,-0.274136 0.01793,-0.528239 0.03871,-0.56113 0.02787,-0.04412 0.132351,-0.06093 0.400224,-0.07128 0.293579,-0.01123 0.365068,-0.02631 0.382914,-0.07944 0.01202,-0.03614 0.06838,-0.164849 0.121198,-0.284129 l 0.09471,-0.216917 -0.219973,-0.223027 c -0.145181,-0.146738 -0.219967,-0.256317 -0.219971,-0.319771 -6e-6,-0.128509 0.159981,-0.35523 0.389023,-0.547893 0.378922,-0.318715 0.457387,-0.321892 0.762772,-0.03055 0.126361,0.120547 0.241081,0.209047 0.253577,0.196557 0.01242,-0.01261 0.125474,-0.06515 0.25358,-0.117118 l 0.232191,-0.09471 0.02241,-0.323846 c 0.01478,-0.221672 0.03955,-0.334278 0.07944,-0.359491 0.03825,-0.02432 0.296604,-0.03683 0.556038,-0.03665 z m -0.01833,2.085653 a 1.0428269,1.0428269 0 0 0 -1.042827,1.042828 1.0428269,1.0428269 0 0 0 1.042827,1.042827 1.0428269,1.0428269 0 0 0 1.042826,-1.042827 1.0428269,1.0428269 0 0 0 -1.042826,-1.042828 z"
         id="path2640" />
      <path
         style="fill:#1b0700;fill-opacity:0.0752987;stroke-width:0.521413"
         d="m 16.811912,10.598153 c -0.213019,-0.01892 -0.397198,0.433605 -0.851371,1.478697 -0.327543,0.753706 -0.745536,1.791284 -0.928767,2.307662 l -0.334031,0.93895 -0.682318,0.863592 c -0.375741,0.474696 -1.025854,1.356007 -1.444071,1.957335 -0.418221,0.601323 -0.764636,1.100305 -0.771936,1.11004 -0.0073,0.0099 -0.08913,-0.05747 -0.181264,-0.150719 -0.133279,-0.134933 -0.196439,-0.169046 -0.307553,-0.169046 -0.17959,0 -0.208904,0.03384 -0.509193,0.635473 l -0.248485,0.501045 -0.211824,-0.248487 C 10.139136,19.588807 10.120275,19.576847 9.9663323,19.588466 l -0.1609082,0.01419 -1.582569,1.943081 c -0.904242,1.111092 -1.615125,2.019591 -1.659969,2.122313 -0.109531,0.250915 -0.08941,0.324101 0.120173,0.411429 0.169126,0.07049 0.612485,0.07321 10.4099369,0.07536 7.149573,0.0015 10.241278,-0.01084 10.259216,-0.04073 0.01419,-0.02353 -0.03914,-0.197318 -0.118124,-0.386986 -0.132431,-0.318015 -0.229149,-0.450629 -1.260761,-1.700705 -0.844538,-1.023382 -1.212124,-1.501865 -1.49499,-1.951227 -0.206079,-0.327382 -0.418887,-0.645516 -0.474567,-0.706759 -0.155271,-0.1708 -0.308847,-0.152591 -0.545855,0.06722 l -0.195533,0.181265 -0.554002,-0.576407 -0.554,-0.572333 -0.790267,-1.376857 c -0.433496,-0.757224 -0.82031,-1.413582 -0.861555,-1.456291 -0.115502,-0.119523 -0.281218,-0.09605 -0.476605,0.06517 -0.09438,0.0779 -0.226529,0.180791 -0.293294,0.228118 l -0.122203,0.08555 -0.334031,-0.472532 -0.334029,-0.476605 -0.401244,-1.356489 c -0.220858,-0.746105 -0.43217,-1.389356 -0.470494,-1.433894 -0.03835,-0.04456 -0.293872,-0.422434 -0.566222,-0.837112 -0.344287,-0.524204 -0.52682,-0.824372 -0.692503,-0.839147 z m 0.132391,6.256961 c 0.227042,5.6e-5 0.45569,0.0089 0.534654,0.02749 0.01123,0.0028 0.01971,0.0049 0.02444,0.0081 0.04221,0.02668 0.06314,0.130874 0.07333,0.354399 l 0.01537,0.31468 0.268855,0.1049 c 0.148649,0.05808 0.288557,0.103876 0.308569,0.103876 0.02004,1.8e-5 0.11499,-0.07851 0.211824,-0.177205 0.231536,-0.23593 0.354726,-0.240805 0.620198,-0.02138 0.208843,0.172613 0.437976,0.442685 0.475586,0.561132 0.03112,0.09804 -0.03535,0.220219 -0.226082,0.418556 l -0.155803,0.162937 0.09777,0.216917 c 0.05274,0.119148 0.105038,0.245109 0.117119,0.281074 0.01734,0.05171 0.08945,0.06986 0.345232,0.08147 0.230997,0.01044 0.333712,0.0309 0.360509,0.07333 0.02071,0.03269 0.03869,0.284955 0.03871,0.559095 1.2e-5,0.274133 -0.01813,0.523354 -0.03871,0.556038 -0.02674,0.04229 -0.130499,0.06403 -0.357452,0.07433 l -0.318757,0.01537 -0.06111,0.185344 c -0.03466,0.101904 -0.08783,0.227347 -0.118123,0.282093 -0.05244,0.09479 -0.0468,0.113276 0.158857,0.328939 0.287823,0.301784 0.286427,0.378507 -0.03157,0.75666 -0.192636,0.229076 -0.421435,0.391067 -0.549929,0.391059 -0.06356,-2e-6 -0.172298,-0.07609 -0.320792,-0.223027 l -0.226082,-0.223026 -0.152749,0.07841 c -0.08511,0.0428 -0.22136,0.09936 -0.301441,0.125258 l -0.14664,0.04684 -0.0132,0.359491 c -0.01025,0.263933 -0.02932,0.367329 -0.07333,0.395132 -0.03289,0.02075 -0.285004,0.03872 -0.559094,0.0387 -0.274095,-1.9e-5 -0.523149,-0.01793 -0.556038,-0.0387 -0.04414,-0.02787 -0.06497,-0.132313 -0.07536,-0.400225 -0.01143,-0.29363 -0.02631,-0.367097 -0.07944,-0.38495 -0.03614,-0.01222 -0.162721,-0.06677 -0.281075,-0.119148 l -0.214879,-0.09268 -0.225065,0.213862 c -0.123563,0.117887 -0.262085,0.226268 -0.309588,0.241357 -0.146167,0.04639 -0.426232,-0.146876 -0.706759,-0.488825 -0.213825,-0.260642 -0.196774,-0.371441 0.09574,-0.660932 l 0.236265,-0.235248 -0.07128,-0.14258 c -0.03955,-0.07877 -0.09528,-0.210139 -0.121198,-0.290238 l -0.04481,-0.14461 -0.359489,-0.01419 c -0.263898,-0.01025 -0.369365,-0.0293 -0.397172,-0.07333 -0.02075,-0.03289 -0.03665,-0.28292 -0.03665,-0.557057 -1.2e-5,-0.274136 0.01793,-0.528239 0.03871,-0.56113 0.02787,-0.04412 0.132351,-0.06093 0.400224,-0.07128 0.293579,-0.01123 0.365068,-0.02631 0.382914,-0.07944 0.01202,-0.03614 0.06838,-0.164849 0.121198,-0.284129 l 0.09471,-0.216917 -0.219973,-0.223027 c -0.145181,-0.146738 -0.219967,-0.256317 -0.219971,-0.319771 -6e-6,-0.128509 0.159981,-0.35523 0.389023,-0.547893 0.378922,-0.318715 0.457387,-0.321892 0.762772,-0.03055 0.126361,0.120547 0.241081,0.209047 0.253577,0.196557 0.01242,-0.01261 0.125474,-0.06515 0.25358,-0.117118 l 0.232191,-0.09471 0.02241,-0.323846 c 0.01478,-0.221672 0.03955,-0.334278 0.07944,-0.359491 0.03825,-0.02432 0.296604,-0.03683 0.556038,-0.03665 z m -0.01833,2.085653 a 1.0428269,1.0428269 0 0 0 -1.042827,1.042828 1.0428269,1.0428269 0 0 0 1.042827,1.042827 1.0428269,1.0428269 0 0 0 1.042826,-1.042827 1.0428269,1.0428269 0 0 0 -1.042826,-1.042828 z"
         id="path2642" />
      <path
         style="fill:#1b0700;fill-opacity:0.0752987;stroke-width:0.521413"
         d="m 16.811912,10.598153 c -0.213019,-0.01892 -0.397198,0.433605 -0.851371,1.478697 -0.327543,0.753706 -0.745536,1.791284 -0.928767,2.307662 l -0.334031,0.93895 -0.682318,0.863592 c -0.375741,0.474696 -1.025854,1.356007 -1.444071,1.957335 -0.418221,0.601323 -0.764636,1.100305 -0.771936,1.11004 -0.0073,0.0099 -0.08913,-0.05747 -0.181264,-0.150719 -0.133279,-0.134933 -0.196439,-0.169046 -0.307553,-0.169046 -0.17959,0 -0.208904,0.03384 -0.509193,0.635473 l -0.248485,0.501045 -0.211824,-0.248487 C 10.139136,19.588807 10.120275,19.576847 9.9663323,19.588466 l -0.1609082,0.01419 -1.582569,1.943081 c -0.904242,1.111092 -1.615125,2.019591 -1.659969,2.122313 -0.109531,0.250915 -0.08941,0.324101 0.120173,0.411429 0.169126,0.07049 0.612485,0.07321 10.4099369,0.07536 7.149573,0.0015 10.241278,-0.01084 10.259216,-0.04073 0.01419,-0.02353 -0.03914,-0.197318 -0.118124,-0.386986 -0.132431,-0.318015 -0.229149,-0.450629 -1.260761,-1.700705 -0.844538,-1.023382 -1.212124,-1.501865 -1.49499,-1.951227 -0.206079,-0.327382 -0.418887,-0.645516 -0.474567,-0.706759 -0.155271,-0.1708 -0.308847,-0.152591 -0.545855,0.06722 l -0.195533,0.181265 -0.554002,-0.576407 -0.554,-0.572333 -0.790267,-1.376857 c -0.433496,-0.757224 -0.82031,-1.413582 -0.861555,-1.456291 -0.115502,-0.119523 -0.281218,-0.09605 -0.476605,0.06517 -0.09438,0.0779 -0.226529,0.180791 -0.293294,0.228118 l -0.122203,0.08555 -0.334031,-0.472532 -0.334029,-0.476605 -0.401244,-1.356489 c -0.220858,-0.746105 -0.43217,-1.389356 -0.470494,-1.433894 -0.03835,-0.04456 -0.293872,-0.422434 -0.566222,-0.837112 -0.344287,-0.524204 -0.52682,-0.824372 -0.692503,-0.839147 z m 0.132391,6.256961 c 0.227042,5.6e-5 0.45569,0.0089 0.534654,0.02749 0.01123,0.0028 0.01971,0.0049 0.02444,0.0081 0.04221,0.02668 0.06314,0.130874 0.07333,0.354399 l 0.01537,0.31468 0.268855,0.1049 c 0.148649,0.05808 0.288557,0.103876 0.308569,0.103876 0.02004,1.8e-5 0.11499,-0.07851 0.211824,-0.177205 0.231536,-0.23593 0.354726,-0.240805 0.620198,-0.02138 0.208843,0.172613 0.437976,0.442685 0.475586,0.561132 0.03112,0.09804 -0.03535,0.220219 -0.226082,0.418556 l -0.155803,0.162937 0.09777,0.216917 c 0.05274,0.119148 0.105038,0.245109 0.117119,0.281074 0.01734,0.05171 0.08945,0.06986 0.345232,0.08147 0.230997,0.01044 0.333712,0.0309 0.360509,0.07333 0.02071,0.03269 0.03869,0.284955 0.03871,0.559095 1.2e-5,0.274133 -0.01813,0.523354 -0.03871,0.556038 -0.02674,0.04229 -0.130499,0.06403 -0.357452,0.07433 l -0.318757,0.01537 -0.06111,0.185344 c -0.03466,0.101904 -0.08783,0.227347 -0.118123,0.282093 -0.05244,0.09479 -0.0468,0.113276 0.158857,0.328939 0.287823,0.301784 0.286427,0.378507 -0.03157,0.75666 -0.192636,0.229076 -0.421435,0.391067 -0.549929,0.391059 -0.06356,-2e-6 -0.172298,-0.07609 -0.320792,-0.223027 l -0.226082,-0.223026 -0.152749,0.07841 c -0.08511,0.0428 -0.22136,0.09936 -0.301441,0.125258 l -0.14664,0.04684 -0.0132,0.359491 c -0.01025,0.263933 -0.02932,0.367329 -0.07333,0.395132 -0.03289,0.02075 -0.285004,0.03872 -0.559094,0.0387 -0.274095,-1.9e-5 -0.523149,-0.01793 -0.556038,-0.0387 -0.04414,-0.02787 -0.06497,-0.132313 -0.07536,-0.400225 -0.01143,-0.29363 -0.02631,-0.367097 -0.07944,-0.38495 -0.03614,-0.01222 -0.162721,-0.06677 -0.281075,-0.119148 l -0.214879,-0.09268 -0.225065,0.213862 c -0.123563,0.117887 -0.262085,0.226268 -0.309588,0.241357 -0.146167,0.04639 -0.426232,-0.146876 -0.706759,-0.488825 -0.213825,-0.260642 -0.196774,-0.371441 0.09574,-0.660932 l 0.236265,-0.235248 -0.07128,-0.14258 c -0.03955,-0.07877 -0.09528,-0.210139 -0.121198,-0.290238 l -0.04481,-0.14461 -0.359489,-0.01419 c -0.263898,-0.01025 -0.369365,-0.0293 -0.397172,-0.07333 -0.02075,-0.03289 -0.03665,-0.28292 -0.03665,-0.557057 -1.2e-5,-0.274136 0.01793,-0.528239 0.03871,-0.56113 0.02787,-0.04412 0.132351,-0.06093 0.400224,-0.07128 0.293579,-0.01123 0.365068,-0.02631 0.382914,-0.07944 0.01202,-0.03614 0.06838,-0.164849 0.121198,-0.284129 l 0.09471,-0.216917 -0.219973,-0.223027 c -0.145181,-0.146738 -0.219967,-0.256317 -0.219971,-0.319771 -6e-6,-0.128509 0.159981,-0.35523 0.389023,-0.547893 0.378922,-0.318715 0.457387,-0.321892 0.762772,-0.03055 0.126361,0.120547 0.241081,0.209047 0.253577,0.196557 0.01242,-0.01261 0.125474,-0.06515 0.25358,-0.117118 l 0.232191,-0.09471 0.02241,-0.323846 c 0.01478,-0.221672 0.03955,-0.334278 0.07944,-0.359491 0.03825,-0.02432 0.296604,-0.03683 0.556038,-0.03665 z m -0.01833,2.085653 a 1.0428269,1.0428269 0 0 0 -1.042827,1.042828 1.0428269,1.0428269 0 0 0 1.042827,1.042827 1.0428269,1.0428269 0 0 0 1.042826,-1.042827 1.0428269,1.0428269 0 0 0 -1.042826,-1.042828 z"
         id="path2644" />
    </g>
    <path
       style="fill:url(#linearGradient1142);stroke-width:0.521413;fill-opacity:1"
       d="m 16.641573,9.1873966 c -0.213019,-0.018919 -0.397198,0.4336044 -0.851371,1.4786964 -0.327543,0.753706 -0.745536,1.791284 -0.928767,2.307662 l -0.334031,0.93895 -0.682318,0.863592 c -0.375741,0.474696 -1.025854,1.356007 -1.444071,1.957335 -0.418221,0.601323 -0.764636,1.100305 -0.771936,1.11004 -0.0073,0.0099 -0.08913,-0.05747 -0.181264,-0.150719 -0.133279,-0.134933 -0.196439,-0.169046 -0.307553,-0.169046 -0.17959,0 -0.208904,0.03384 -0.509193,0.635473 L 10.382584,18.660425 10.17076,18.411938 C 9.9687968,18.17805 9.9499358,18.16609 9.7959928,18.177709 l -0.160908,0.01419 -1.582569,1.943081 c -0.904242,1.111092 -1.615125,2.019591 -1.659969,2.122313 -0.109531,0.250915 -0.08941,0.324101 0.120173,0.411429 0.169126,0.07049 0.612485,0.07321 10.4099372,0.07536 7.149573,0.0015 10.241278,-0.01084 10.259216,-0.04073 0.01419,-0.02353 -0.03914,-0.197318 -0.118124,-0.386986 -0.132431,-0.318015 -0.229149,-0.450629 -1.260761,-1.700705 -0.844538,-1.023382 -1.212124,-1.501865 -1.49499,-1.951227 -0.206079,-0.327382 -0.418887,-0.645516 -0.474567,-0.706759 -0.155271,-0.1708 -0.308847,-0.152591 -0.545855,0.06722 l -0.195533,0.181265 -0.554002,-0.576407 -0.554,-0.572333 -0.790267,-1.376857 c -0.433496,-0.757224 -0.82031,-1.413582 -0.861555,-1.456291 -0.115502,-0.119523 -0.281218,-0.09605 -0.476605,0.06517 -0.09438,0.0779 -0.226529,0.180791 -0.293294,0.228118 l -0.122203,0.08555 -0.334031,-0.472532 -0.334029,-0.476605 -0.401244,-1.356489 C 18.149955,11.551379 17.938643,10.908128 17.900319,10.86359 17.861969,10.819033 17.606447,10.441156 17.334097,10.026478 16.98981,9.5022744 16.807277,9.2021059 16.641594,9.1873316 Z m 0.132391,6.2569604 c 0.227042,5.6e-5 0.45569,0.0089 0.534654,0.02749 0.01123,0.0028 0.01971,0.0049 0.02444,0.0081 0.04221,0.02668 0.06314,0.130874 0.07333,0.354399 l 0.01537,0.31468 0.268855,0.1049 c 0.148649,0.05808 0.288557,0.103876 0.308569,0.103876 0.02004,1.8e-5 0.11499,-0.07851 0.211824,-0.177205 0.231536,-0.23593 0.354726,-0.240805 0.620198,-0.02138 0.208843,0.172613 0.437976,0.442685 0.475586,0.561132 0.03112,0.09804 -0.03535,0.220219 -0.226082,0.418556 l -0.155803,0.162937 0.09777,0.216917 c 0.05274,0.119148 0.105038,0.245109 0.117119,0.281074 0.01734,0.05171 0.08945,0.06986 0.345232,0.08147 0.230997,0.01044 0.333712,0.0309 0.360509,0.07333 0.02071,0.03269 0.03869,0.284955 0.03871,0.559095 1.2e-5,0.274133 -0.01813,0.523354 -0.03871,0.556038 -0.02674,0.04229 -0.130499,0.06403 -0.357452,0.07433 l -0.318757,0.01537 -0.06111,0.185344 c -0.03466,0.101904 -0.08783,0.227347 -0.118123,0.282093 -0.05244,0.09479 -0.0468,0.113276 0.158857,0.328939 0.287823,0.301784 0.286427,0.378507 -0.03157,0.75666 -0.192636,0.229076 -0.421435,0.391067 -0.549929,0.391059 -0.06356,-2e-6 -0.172298,-0.07609 -0.320792,-0.223027 l -0.226082,-0.223026 -0.152749,0.07841 c -0.08511,0.0428 -0.22136,0.09936 -0.301441,0.125258 l -0.14664,0.04684 -0.0132,0.359491 c -0.01025,0.263933 -0.02932,0.367329 -0.07333,0.395132 -0.03289,0.02075 -0.285004,0.03872 -0.559094,0.0387 -0.274095,-1.9e-5 -0.523149,-0.01793 -0.556038,-0.0387 -0.04414,-0.02787 -0.06497,-0.132313 -0.07536,-0.400225 -0.01143,-0.29363 -0.02631,-0.367097 -0.07944,-0.38495 -0.03614,-0.01222 -0.162721,-0.06677 -0.281075,-0.119148 l -0.214879,-0.09268 -0.225065,0.213862 c -0.123563,0.117887 -0.262085,0.226268 -0.309588,0.241357 -0.146167,0.04639 -0.426232,-0.146876 -0.706759,-0.488825 -0.213825,-0.260642 -0.196774,-0.371441 0.09574,-0.660932 l 0.236265,-0.235248 -0.07128,-0.14258 c -0.03955,-0.07877 -0.09528,-0.210139 -0.121198,-0.290238 l -0.04481,-0.14461 -0.359489,-0.01419 c -0.263898,-0.01025 -0.369365,-0.0293 -0.397172,-0.07333 -0.02075,-0.03289 -0.03665,-0.28292 -0.03665,-0.557057 -1.2e-5,-0.274136 0.01793,-0.528239 0.03871,-0.56113 0.02787,-0.04412 0.132351,-0.06093 0.400224,-0.07128 0.293579,-0.01123 0.365068,-0.02631 0.382914,-0.07944 0.01202,-0.03614 0.06838,-0.164849 0.121198,-0.284129 l 0.09471,-0.216917 -0.219973,-0.223027 c -0.145181,-0.146738 -0.219967,-0.256317 -0.219971,-0.319771 -6e-6,-0.128509 0.159981,-0.35523 0.389023,-0.547893 0.378922,-0.318715 0.457387,-0.321892 0.762772,-0.03055 0.126361,0.120547 0.241081,0.209047 0.253577,0.196557 0.01242,-0.01261 0.125474,-0.06515 0.25358,-0.117118 l 0.232191,-0.09471 0.02241,-0.323846 c 0.01478,-0.221672 0.03955,-0.334278 0.07944,-0.359491 0.03825,-0.02432 0.296604,-0.03683 0.556038,-0.03665 z m -0.01833,2.085653 a 1.0428269,1.0428269 0 0 0 -1.042827,1.042828 1.0428269,1.0428269 0 0 0 1.042827,1.042827 1.0428269,1.0428269 0 0 0 1.042826,-1.042827 1.0428269,1.0428269 0 0 0 -1.042826,-1.042828 z"
       id="path10" />
  </g>
</svg>
