<?xml version="1.0" encoding="UTF-8" standalone="no"?>
<!-- Created with Inkscape (http://www.inkscape.org/) -->

<svg
   width="128"
   height="128"
   viewBox="0 0 33.866666 33.866668"
   version="1.1"
   id="svg1618"
   sodipodi:docname="opensnitch-ui.svg"
   inkscape:version="1.1.2 (0a00cf5339, 2022-02-04)"
   xmlns:inkscape="http://www.inkscape.org/namespaces/inkscape"
   xmlns:sodipodi="http://sodipodi.sourceforge.net/DTD/sodipodi-0.dtd"
   xmlns:xlink="http://www.w3.org/1999/xlink"
   xmlns="http://www.w3.org/2000/svg"
   xmlns:svg="http://www.w3.org/2000/svg">
  <sodipodi:namedview
     id="namedview1620"
     pagecolor="#ffffff"
     bordercolor="#666666"
     borderopacity="1.0"
     inkscape:pageshadow="2"
     inkscape:pageopacity="0.0"
     inkscape:pagecheckerboard="0"
     inkscape:document-units="mm"
     showgrid="false"
     units="px"
     inkscape:zoom="4.6823232"
     inkscape:cx="68.769281"
     inkscape:cy="63.750405"
     inkscape:window-width="1920"
     inkscape:window-height="1032"
     inkscape:window-x="0"
     inkscape:window-y="24"
     inkscape:window-maximized="1"
     inkscape:current-layer="layer1" />
  <defs
     id="defs1615">
    <linearGradient
       gradientTransform="matrix(0.97573206,0,0,0.97573206,-111.7006,-37.237743)"
       gradientUnits="userSpaceOnUse"
       y2="70.679932"
       x2="132.21078"
       y1="40.94593"
       x1="132.16373"
       id="linearGradient1632"
       xlink:href="#linearGradient1630"
       inkscape:collect="always" />
    <linearGradient
       id="linearGradient1630"
       inkscape:collect="always">
      <stop
         id="stop1626"
         offset="0"
         style="stop-color:#b2194f;stop-opacity:0.89411765" />
      <stop
         id="stop1628"
         offset="1"
         style="stop-color:#fc6465;stop-opacity:1" />
    </linearGradient>
    <linearGradient
       id="a"
       x1="7.9369998"
       x2="7.9369998"
       y1="15.081"
       y2="1.852"
       gradientTransform="matrix(1.0000192,0,0,1.0000192,9.4091964,10.7536)"
       gradientUnits="userSpaceOnUse">
      <stop
         offset="0"
         stop-color="#b81e31"
         id="stop2" />
      <stop
         offset="1"
         stop-color="#ff5c5c"
         id="stop4" />
    </linearGradient>
    <filter
       id="b"
       width="1.2580279"
       height="1.3414857"
       x="-0.12901397"
       y="-0.17074286"
       color-interpolation-filters="sRGB">
      <feGaussianBlur
         stdDeviation="2.419"
         id="feGaussianBlur7" />
    </filter>
  </defs>
  <g
     inkscape:label="Capa 1"
     inkscape:groupmode="layer"
     id="layer1">
    <g
       style="opacity:0.296765"
       transform="matrix(0.97573206,0,0,0.97573206,-65.68294,-37.237746)"
       id="g1702">
      <rect
         ry="6.6098609"
         rx="6.6098609"
         y="40.709618"
         x="69.839508"
         height="29.810888"
         width="29.810888"
         id="rect1634"
         style="fill:none;fill-opacity:1;stroke:#000000;stroke-width:0.1;stroke-linecap:round;stroke-linejoin:round;stroke-miterlimit:4;stroke-dasharray:none;stroke-opacity:0.02" />
      <rect
         style="fill:none;fill-opacity:1;stroke:#000000;stroke-width:0.2;stroke-linecap:round;stroke-linejoin:round;stroke-miterlimit:4;stroke-dasharray:none;stroke-opacity:0.02"
         id="rect1638"
         width="29.810888"
         height="29.810888"
         x="69.839508"
         y="40.709618"
         rx="6.6098609"
         ry="6.6098609" />
      <rect
         ry="6.6098609"
         rx="6.6098609"
         y="40.709618"
         x="69.839508"
         height="29.810888"
         width="29.810888"
         id="rect1640"
         style="fill:none;fill-opacity:1;stroke:#000000;stroke-width:0.3;stroke-linecap:round;stroke-linejoin:round;stroke-miterlimit:4;stroke-dasharray:none;stroke-opacity:0.02" />
      <rect
         style="fill:none;fill-opacity:1;stroke:#000000;stroke-width:0.4;stroke-linecap:round;stroke-linejoin:round;stroke-miterlimit:4;stroke-dasharray:none;stroke-opacity:0.02"
         id="rect1642"
         width="29.810888"
         height="29.810888"
         x="69.839508"
         y="40.709618"
         rx="6.6098609"
         ry="6.6098609" />
      <rect
         ry="6.6098609"
         rx="6.6098609"
         y="40.709618"
         x="69.839508"
         height="29.810888"
         width="29.810888"
         id="rect1644"
         style="fill:none;fill-opacity:1;stroke:#000000;stroke-width:0.5;stroke-linecap:round;stroke-linejoin:round;stroke-miterlimit:4;stroke-dasharray:none;stroke-opacity:0.02" />
      <rect
         style="fill:none;fill-opacity:1;stroke:#000000;stroke-width:0.6;stroke-linecap:round;stroke-linejoin:round;stroke-miterlimit:4;stroke-dasharray:none;stroke-opacity:0.02"
         id="rect1646"
         width="29.810888"
         height="29.810888"
         x="69.839508"
         y="40.709618"
         rx="6.6098609"
         ry="6.6098609" />
      <rect
         ry="6.6098609"
         rx="6.6098609"
         y="40.709618"
         x="69.839508"
         height="29.810888"
         width="29.810888"
         id="rect1648"
         style="fill:none;fill-opacity:1;stroke:#000000;stroke-width:0.7;stroke-linecap:round;stroke-linejoin:round;stroke-miterlimit:4;stroke-dasharray:none;stroke-opacity:0.02" />
      <rect
         style="fill:none;fill-opacity:1;stroke:#000000;stroke-width:0.8;stroke-linecap:round;stroke-linejoin:round;stroke-miterlimit:4;stroke-dasharray:none;stroke-opacity:0.02"
         id="rect1650"
         width="29.810888"
         height="29.810888"
         x="69.839508"
         y="40.709618"
         rx="6.6098609"
         ry="6.6098609" />
      <rect
         ry="6.6098609"
         rx="6.6098609"
         y="40.709618"
         x="69.839508"
         height="29.810888"
         width="29.810888"
         id="rect1652"
         style="fill:none;fill-opacity:1;stroke:#000000;stroke-width:1;stroke-linecap:round;stroke-linejoin:round;stroke-miterlimit:4;stroke-dasharray:none;stroke-opacity:0.02" />
      <rect
         style="fill:none;fill-opacity:1;stroke:#000000;stroke-width:1.2;stroke-linecap:round;stroke-linejoin:round;stroke-miterlimit:4;stroke-dasharray:none;stroke-opacity:0.02"
         id="rect1654"
         width="29.810888"
         height="29.810888"
         x="69.839508"
         y="40.709618"
         rx="6.6098609"
         ry="6.6098609" />
      <rect
         ry="6.6098609"
         rx="6.6098609"
         y="40.709618"
         x="69.839508"
         height="29.810888"
         width="29.810888"
         id="rect1656"
         style="fill:none;fill-opacity:1;stroke:#000000;stroke-width:1.4;stroke-linecap:round;stroke-linejoin:round;stroke-miterlimit:4;stroke-dasharray:none;stroke-opacity:0.02" />
      <rect
         style="fill:none;fill-opacity:1;stroke:#000000;stroke-width:1.6;stroke-linecap:round;stroke-linejoin:round;stroke-miterlimit:4;stroke-dasharray:none;stroke-opacity:0.02"
         id="rect1658"
         width="29.810888"
         height="29.810888"
         x="69.839508"
         y="40.709618"
         rx="6.6098609"
         ry="6.6098609" />
      <rect
         ry="6.6098609"
         rx="6.6098609"
         y="40.709618"
         x="69.839508"
         height="29.810888"
         width="29.810888"
         id="rect1660"
         style="fill:none;fill-opacity:1;stroke:#000000;stroke-width:1.8;stroke-linecap:round;stroke-linejoin:round;stroke-miterlimit:4;stroke-dasharray:none;stroke-opacity:0.02" />
      <rect
         style="fill:none;fill-opacity:1;stroke:#000000;stroke-width:2;stroke-linecap:round;stroke-linejoin:round;stroke-miterlimit:4;stroke-dasharray:none;stroke-opacity:0.02"
         id="rect1662"
         width="29.810888"
         height="29.810888"
         x="69.839508"
         y="40.709618"
         rx="6.6098609"
         ry="6.6098609" />
      <rect
         ry="6.6098609"
         rx="6.6098609"
         y="40.709618"
         x="69.839508"
         height="29.810888"
         width="29.810888"
         id="rect1664"
         style="fill:none;fill-opacity:1;stroke:#000000;stroke-width:2.2;stroke-linecap:round;stroke-linejoin:round;stroke-miterlimit:4;stroke-dasharray:none;stroke-opacity:0.02" />
      <rect
         style="fill:none;fill-opacity:1;stroke:#000000;stroke-width:2.6;stroke-linecap:round;stroke-linejoin:round;stroke-miterlimit:4;stroke-dasharray:none;stroke-opacity:0.02"
         id="rect1666"
         width="29.810888"
         height="29.810888"
         x="69.839508"
         y="40.709618"
         rx="6.6098609"
         ry="6.6098609" />
      <rect
         ry="6.6098609"
         rx="6.6098609"
         y="40.709618"
         x="69.839508"
         height="29.810888"
         width="29.810888"
         id="rect1668"
         style="fill:none;fill-opacity:1;stroke:#000000;stroke-width:3;stroke-linecap:round;stroke-linejoin:round;stroke-miterlimit:4;stroke-dasharray:none;stroke-opacity:0.02" />
      <rect
         style="fill:none;fill-opacity:1;stroke:#000000;stroke-width:3.4;stroke-linecap:round;stroke-linejoin:round;stroke-miterlimit:4;stroke-dasharray:none;stroke-opacity:0.02"
         id="rect1670"
         width="29.810888"
         height="29.810888"
         x="69.839508"
         y="40.709618"
         rx="6.6098609"
         ry="6.6098609" />
      <rect
         ry="6.6098609"
         rx="6.6098609"
         y="40.709618"
         x="69.839508"
         height="29.810888"
         width="29.810888"
         id="rect1672"
         style="fill:none;fill-opacity:1;stroke:#000000;stroke-width:3.8;stroke-linecap:round;stroke-linejoin:round;stroke-miterlimit:4;stroke-dasharray:none;stroke-opacity:0.02" />
      <rect
         style="fill:none;fill-opacity:1;stroke:#000000;stroke-width:4.2;stroke-linecap:round;stroke-linejoin:round;stroke-miterlimit:4;stroke-dasharray:none;stroke-opacity:0.02"
         id="rect1674"
         width="29.810888"
         height="29.810888"
         x="69.839508"
         y="40.709618"
         rx="6.6098609"
         ry="6.6098609" />
      <rect
         ry="6.6098609"
         rx="6.6098609"
         y="40.709618"
         x="69.839508"
         height="29.810888"
         width="29.810888"
         id="rect1676"
         style="fill:none;fill-opacity:1;stroke:#000000;stroke-width:4.6;stroke-linecap:round;stroke-linejoin:round;stroke-miterlimit:4;stroke-dasharray:none;stroke-opacity:0.02" />
      <rect
         style="fill:none;fill-opacity:1;stroke:#000000;stroke-width:5;stroke-linecap:round;stroke-linejoin:round;stroke-miterlimit:4;stroke-dasharray:none;stroke-opacity:0.02"
         id="rect1678"
         width="29.810888"
         height="29.810888"
         x="69.839508"
         y="40.709618"
         rx="6.6098609"
         ry="6.6098609" />
    </g>
    <path
       id="rect849"
       style="fill:url(#linearGradient1632);stroke-width:2.68768;stroke-linecap:round;stroke-linejoin:round"
       d="M 8.9214425,2.4839361 H 25.109974 c 3.572998,0 6.449454,2.8764562 6.449454,6.4494533 V 25.121921 c 0,3.572997 -2.876456,6.449454 -6.449454,6.449454 H 8.9214425 c -3.5729971,0 -6.4494533,-2.876457 -6.4494533,-6.449454 V 8.9333894 c 0,-3.5729971 2.8764562,-6.4494533 6.4494533,-6.4494533 z" />
    <path
       d="m 37.486,17.014 c -2.172,0.105 -4.008,0.715 -5.814,1.932 -0.769,0.517 -1.925,1.473 -2.436,2.125 -0.257,0.328 -0.258,0.327 -0.652,0.226 -0.223,-0.056 -1.045,-0.1 -1.889,-0.098 -1.324,0.003 -1.595,0.03 -2.348,0.233 a 10.025,10.025 0 0 0 -7.44,9.17 l -0.05,0.986 -0.338,0.102 c -1.21,0.365 -2.722,1.318 -3.785,2.388 -1.268,1.277 -2.123,2.789 -2.606,4.602 -0.204,0.767 -0.228,1.018 -0.228,2.406 0,1.389 0.024,1.64 0.228,2.406 1.05,3.945 4.228,6.848 8.127,7.42 v -0.004 c 0.287,0.043 6.3,0.08 13.367,0.088 13.768,0.011 13.568,0.017 15.182,-0.431 1.525,-0.424 3.611,-1.67 4.805,-2.871 1.25,-1.258 2.454,-3.342 2.889,-4.993 C 55.563,38.655 54.485,34.6 51.57,31.689 51.055,31.175 50.312,30.541 49.92,30.281 l -0.715,-0.473 0.045,-0.996 a 10.956,10.956 0 0 0 -1.12,-5.404 c -1.165,-2.4 -2.856,-4.1 -5.24,-5.273 a 10.704,10.704 0 0 0 -5.404,-1.121 z m 0.143,2.996 h 0.002 c 1.47,-0.07 2.617,0.168 3.935,0.817 1.857,0.913 2.957,2.017 3.867,3.892 0.637,1.311 0.883,2.502 0.819,3.961 l -0.043,0.996 a 3,3 0 0 0 1.34,2.633 l 0.712,0.473 c -0.024,-0.017 0.824,0.665 1.19,1.03 2.19,2.188 2.959,5.038 2.146,8.126 -0.244,0.93 -1.355,2.874 -2.117,3.64 -0.693,0.699 -2.737,1.89 -3.478,2.096 -0.835,0.232 -0.551,0.231 -2.317,0.281 -1.765,0.05 -5.176,0.047 -12.06,0.041 a 1755.38,1755.38 0 0 1 -9.21,-0.03 457.072,457.072 0 0 1 -2.904,-0.026 c -0.351,-0.005 -0.63,-0.01 -0.814,-0.014 -0.027,0 -0.06,-0.007 -0.096,-0.01 C 15.954,47.489 13.774,45.532 13.027,42.723 12.85,42.057 12.9,42.44 12.9,41.086 c 0,-1.354 -0.05,-0.97 0.127,-1.637 0.362,-1.36 0.927,-2.342 1.836,-3.257 0.688,-0.694 2.031,-1.481 2.521,-1.63 a 3,3 0 0 0 0.004,-10e-4 l 0.338,-0.102 a 3,3 0 0 0 2.127,-2.713 l 0.05,-0.982 v -0.002 c 0.167,-3.061 2.2,-5.62 5.221,-6.432 a 3,3 0 0 0 0.002,0 c 0.643,-0.173 0.29,-0.128 1.574,-0.13 a 3,3 0 0 0 0.002,0 c 0.37,-0.002 0.743,0.009 1.016,0.023 0.103,0.005 0.195,0.021 0.27,0.033 0.279,0.106 0.855,0.306 1.96,-0.08 1.314,-0.458 1.519,-1.09 1.647,-1.256 l 0.002,-0.002 c 0.035,-0.044 1.245,-1.144 1.75,-1.484 1.41,-0.95 2.589,-1.342 4.281,-1.424 z M 35.076,28 v 3 H 24 v 3 h 11.076 v 3 L 42,32.717 Z M 30.924,37 24,41.717 30.924,46 V 43 H 42 V 40 H 30.924 Z"
       filter="url(#b)"
       opacity="0.15"
       id="path16"
       transform="matrix(0.40723008,0,0,0.40723008,3.6945947,3.6100584)" />
    <path
       fill="#ffffff"
       d="m 18.960021,9.316981 c -0.884504,0.042757 -1.632178,0.2911694 -2.367635,0.786769 -0.31316,0.210537 -0.783918,0.599849 -0.992012,0.865363 -0.104662,0.133566 -0.105062,0.133166 -0.265515,0.09204 -0.09081,-0.02281 -0.425555,-0.04073 -0.769258,-0.0395 -0.539172,8.14e-4 -0.649531,0.01216 -0.956175,0.09447 a 4.0824816,4.0824816 0 0 0 -3.029792,3.734299 l -0.02036,0.401529 -0.137645,0.04154 c -0.4927468,0.148635 -1.1084788,0.53673 -1.5413638,0.972466 -0.516369,0.520032 -0.864551,1.135764 -1.061243,1.874072 -0.08307,0.312346 -0.09286,0.41456 -0.09286,0.979796 0,0.565642 0.0099,0.667856 0.09286,0.979795 0.427592,1.606522 1.72177,2.788712 3.3095588,3.021648 v -0.0017 c 0.116882,0.01751 2.56555,0.03258 5.443444,0.03583 5.606745,0.0045 5.525298,0.0069 6.182568,-0.175517 0.621025,-0.172665 1.470508,-0.680074 1.95674,-1.169158 0.509038,-0.512294 0.999343,-1.360962 1.176488,-2.033299 0.4337,-1.647653 -0.0052,-3.298971 -1.192369,-4.484418 -0.209725,-0.209317 -0.512296,-0.467501 -0.671931,-0.57338 l -0.291169,-0.192619 0.01833,-0.405602 A 4.4616128,4.4616128 0 0 0 23.294583,11.920752 C 22.820159,10.9434 22.131534,10.251108 21.160697,9.7734276 a 4.3589908,4.3589908 0 0 0 -2.200671,-0.456505 z m 0.05824,1.22006 h 8.14e-4 c 0.598628,-0.02851 1.065721,0.06841 1.60245,0.332708 0.756226,0.371802 1.20418,0.821384 1.574759,1.584939 0.259405,0.533879 0.359584,1.018891 0.333522,1.613039 l -0.01751,0.405602 a 1.2216902,1.2216902 0 0 0 0.545689,1.072237 l 0.289947,0.19262 c -0.0099,-0.0069 0.335152,0.270808 0.484605,0.419447 0.891833,0.891019 1.204994,2.051624 0.873914,3.309151 -0.09977,0.378723 -0.551796,1.170379 -0.862104,1.482317 -0.282618,0.284654 -1.11459,0.769666 -1.416347,0.853555 -0.340037,0.09447 -0.224384,0.09407 -0.943553,0.114435 -0.71876,0.02036 -2.107822,0.01913 -4.911194,0.0167 a 714.84355,714.84355 0 0 1 -3.750589,-0.01216 186.12817,186.12817 0 0 1 -1.182596,-0.01062 c -0.14294,-0.002 -0.256556,-0.004 -0.331893,-0.0057 -0.01093,0 -0.02443,-0.0029 -0.03868,-0.004 -1.077938,-0.173887 -1.9656998,-0.970837 -2.2699008,-2.114746 -0.07249,-0.271216 -0.05172,-0.11525 -0.05172,-0.666636 0,-0.551389 -0.02036,-0.395013 0.05172,-0.666635 0.147418,-0.553834 0.377096,-0.953733 0.747268,-1.326349 0.2809878,-0.282618 0.8274908,-0.603108 1.0270338,-0.663785 a 1.2216902,1.2216902 0 0 0 0.0017,-4.08e-4 l 0.137645,-0.04154 a 1.2216902,1.2216902 0 0 0 0.866177,-1.104816 l 0.02036,-0.399899 v -8.16e-4 c 0.06802,-1.24653 0.895907,-2.288632 2.126149,-2.619304 a 1.2216902,1.2216902 0 0 0 8.14e-4,0 c 0.261849,-0.07045 0.118098,-0.05213 0.64098,-0.05293 a 1.2216902,1.2216902 0 0 0 8.14e-4,0 c 0.150682,-4.08e-4 0.302573,0.0037 0.413747,0.0094 0.04194,0.002 0.0794,0.0086 0.109956,0.01339 0.113619,0.04317 0.34818,0.124608 0.79817,-0.03258 0.5351,-0.186512 0.618582,-0.443881 0.670708,-0.511481 l 8.15e-4,-8.14e-4 c 0.01431,-0.01792 0.507001,-0.465873 0.712653,-0.60433 0.574193,-0.386869 1.054318,-0.546504 1.743351,-0.579897 z m -1.039659,3.25377 v 1.22169 h -4.510481 v 1.22169 h 4.510481 v 1.22169 l 2.819661,-1.744166 z m -1.69082,3.66507 -2.819661,1.920905 2.819661,1.744166 v -1.22169 h 4.510481 v -1.22169 h -4.510481 z"
       id="path18"
       style="stroke-width:0.40723" />
  </g>
</svg>
