<?xml version="1.0" encoding="UTF-8" standalone="no"?>
<svg
   width="128"
   height="128"
   viewBox="0 0 33.866666 33.866668"
   version="1.1"
   id="svg1443"
   inkscape:version="1.1.2 (0a00cf5339, 2022-02-04)"
   sodipodi:docname="org.flycast.Flycast.svg"
   xmlns:inkscape="http://www.inkscape.org/namespaces/inkscape"
   xmlns:sodipodi="http://sodipodi.sourceforge.net/DTD/sodipodi-0.dtd"
   xmlns:xlink="http://www.w3.org/1999/xlink"
   xmlns="http://www.w3.org/2000/svg"
   xmlns:svg="http://www.w3.org/2000/svg"
   xmlns:rdf="http://www.w3.org/1999/02/22-rdf-syntax-ns#"
   xmlns:cc="http://creativecommons.org/ns#"
   xmlns:dc="http://purl.org/dc/elements/1.1/">
  <defs
     id="defs1437">
    <linearGradient
       inkscape:collect="always"
       id="linearGradient1399">
      <stop
         style="stop-color:#fcfcfc;stop-opacity:1"
         offset="0"
         id="stop1395" />
      <stop
         style="stop-color:#7e00dd;stop-opacity:1"
         offset="1"
         id="stop1397" />
    </linearGradient>
    <linearGradient
       gradientTransform="matrix(0.97573206,0,0,0.97573206,-111.76517,-37.182508)"
       gradientUnits="userSpaceOnUse"
       y2="70.679932"
       x2="132.21078"
       y1="42.151531"
       x1="132.21078"
       id="linearGradient1632"
       xlink:href="#linearGradient1630"
       inkscape:collect="always" />
    <linearGradient
       id="linearGradient1630"
       inkscape:collect="always">
      <stop
         id="stop1626"
         offset="0"
         style="stop-color:#c500e5;stop-opacity:1" />
      <stop
         id="stop1628"
         offset="1"
         style="stop-color:#7a00dd;stop-opacity:1" />
    </linearGradient>
    <filter
       color-interpolation-filters="sRGB"
       height="1.1311001"
       width="1.1106"
       y="-0.065563001"
       x="-0.055319"
       id="c-9">
      <feGaussianBlur
         id="feGaussianBlur1093"
         stdDeviation="1.1062912" />
    </filter>
    <linearGradient
       gradientUnits="userSpaceOnUse"
       gradientTransform="matrix(0.13235,0,0,0.13075,-32.379,1.0873)"
       y2="269.48999"
       y1="235.14999"
       x2="657.65002"
       x1="319.20999"
       id="a-12">
      <stop
         id="stop1076"
         offset="0"
         stop-color="#e54c18" />
      <stop
         id="stop1078"
         offset="1"
         stop-color="#fec350" />
    </linearGradient>
    <linearGradient
       inkscape:collect="always"
       id="linearGradient2050">
      <stop
         style="stop-color:#6a2b0c;stop-opacity:1;"
         offset="0"
         id="stop2046" />
      <stop
         style="stop-color:#6a2b0c;stop-opacity:0.82352941;"
         offset="0.46019328"
         id="stop2054" />
      <stop
         style="stop-color:#6a2b0c;stop-opacity:0.61960784;"
         offset="0.55980784"
         id="stop2074" />
      <stop
         style="stop-color:#6a2b0c;stop-opacity:0.55294118;"
         offset="0.59674543"
         id="stop2092" />
      <stop
         style="stop-color:#6a2b0c;stop-opacity:0.45882353;"
         offset="0.6603334"
         id="stop2102" />
      <stop
         style="stop-color:#6a2b0c;stop-opacity:0.35294118;"
         offset="0.73342222"
         id="stop2100" />
      <stop
         style="stop-color:#6a2b0c;stop-opacity:0.25882353;"
         offset="0.79290068"
         id="stop2098" />
      <stop
         style="stop-color:#6a2b0c;stop-opacity:0.19215686;"
         offset="0.83187062"
         id="stop2086" />
      <stop
         style="stop-color:#6a2b0c;stop-opacity:0.11372549;"
         offset="0.89167756"
         id="stop2088" />
      <stop
         style="stop-color:#6a2b0c;stop-opacity:0.0627451;"
         offset="0.93840277"
         id="stop2090" />
      <stop
         style="stop-color:#6a2b0c;stop-opacity:0.03921569;"
         offset="0.96329844"
         id="stop2056" />
      <stop
         style="stop-color:#6a2b0c;stop-opacity:0;"
         offset="1"
         id="stop2048" />
    </linearGradient>
    <radialGradient
       inkscape:collect="always"
       xlink:href="#linearGradient2050"
       id="radialGradient2270"
       cx="-571.09357"
       cy="434.78534"
       fx="-571.09357"
       fy="434.78534"
       r="229.44476"
       gradientUnits="userSpaceOnUse"
       gradientTransform="matrix(1.0612895,0,0,1.0612895,400.72106,-182.52731)" />
    <linearGradient
       id="b"
       x2="1"
       gradientTransform="matrix(0.33688162,-19.859257,19.859257,0.33688162,15.949012,26.785076)"
       gradientUnits="userSpaceOnUse">
      <stop
         stop-color="#ff9300"
         offset="0"
         id="stop7" />
      <stop
         stop-color="#ffd702"
         offset="1"
         id="stop9" />
    </linearGradient>
    <linearGradient
       inkscape:collect="always"
       xlink:href="#linearGradient1399"
       id="linearGradient1401"
       x1="6.9469728"
       y1="7.5193329"
       x2="6.9469728"
       y2="49.583897"
       gradientUnits="userSpaceOnUse" />
  </defs>
  <sodipodi:namedview
     id="base"
     pagecolor="#ffffff"
     bordercolor="#666666"
     borderopacity="1.0"
     inkscape:pageopacity="0.0"
     inkscape:pageshadow="2"
     inkscape:zoom="1.9570313"
     inkscape:cx="-18.906188"
     inkscape:cy="46.754491"
     inkscape:document-units="mm"
     inkscape:current-layer="layer1"
     inkscape:document-rotation="0"
     showgrid="false"
     units="px"
     inkscape:window-width="1920"
     inkscape:window-height="1022"
     inkscape:window-x="0"
     inkscape:window-y="32"
     inkscape:window-maximized="1"
     inkscape:pagecheckerboard="0" />
  <metadata
     id="metadata1440">
    <rdf:RDF>
      <cc:Work
         rdf:about="">
        <dc:format>image/svg+xml</dc:format>
        <dc:type
           rdf:resource="http://purl.org/dc/dcmitype/StillImage" />
      </cc:Work>
    </rdf:RDF>
  </metadata>
  <g
     inkscape:label="Capa 1"
     inkscape:groupmode="layer"
     id="layer1">
    <g
       style="opacity:0.295"
       transform="matrix(0.97573206,0,0,0.97573206,-65.737228,-37.182508)"
       id="g1702">
      <rect
         ry="6.6098609"
         rx="6.6098609"
         y="40.709618"
         x="69.839508"
         height="29.810888"
         width="29.810888"
         id="rect1634"
         style="fill:none;fill-opacity:1;stroke:#000000;stroke-width:0.1;stroke-linecap:round;stroke-linejoin:round;stroke-miterlimit:4;stroke-dasharray:none;stroke-opacity:0.02" />
      <rect
         style="fill:none;fill-opacity:1;stroke:#000000;stroke-width:0.2;stroke-linecap:round;stroke-linejoin:round;stroke-miterlimit:4;stroke-dasharray:none;stroke-opacity:0.02"
         id="rect1638"
         width="29.810888"
         height="29.810888"
         x="69.839508"
         y="40.709618"
         rx="6.6098609"
         ry="6.6098609" />
      <rect
         ry="6.6098609"
         rx="6.6098609"
         y="40.709618"
         x="69.839508"
         height="29.810888"
         width="29.810888"
         id="rect1640"
         style="fill:none;fill-opacity:1;stroke:#000000;stroke-width:0.3;stroke-linecap:round;stroke-linejoin:round;stroke-miterlimit:4;stroke-dasharray:none;stroke-opacity:0.02" />
      <rect
         style="fill:none;fill-opacity:1;stroke:#000000;stroke-width:0.4;stroke-linecap:round;stroke-linejoin:round;stroke-miterlimit:4;stroke-dasharray:none;stroke-opacity:0.02"
         id="rect1642"
         width="29.810888"
         height="29.810888"
         x="69.839508"
         y="40.709618"
         rx="6.6098609"
         ry="6.6098609" />
      <rect
         ry="6.6098609"
         rx="6.6098609"
         y="40.709618"
         x="69.839508"
         height="29.810888"
         width="29.810888"
         id="rect1644"
         style="fill:none;fill-opacity:1;stroke:#000000;stroke-width:0.5;stroke-linecap:round;stroke-linejoin:round;stroke-miterlimit:4;stroke-dasharray:none;stroke-opacity:0.02" />
      <rect
         style="fill:none;fill-opacity:1;stroke:#000000;stroke-width:0.6;stroke-linecap:round;stroke-linejoin:round;stroke-miterlimit:4;stroke-dasharray:none;stroke-opacity:0.02"
         id="rect1646"
         width="29.810888"
         height="29.810888"
         x="69.839508"
         y="40.709618"
         rx="6.6098609"
         ry="6.6098609" />
      <rect
         ry="6.6098609"
         rx="6.6098609"
         y="40.709618"
         x="69.839508"
         height="29.810888"
         width="29.810888"
         id="rect1648"
         style="fill:none;fill-opacity:1;stroke:#000000;stroke-width:0.7;stroke-linecap:round;stroke-linejoin:round;stroke-miterlimit:4;stroke-dasharray:none;stroke-opacity:0.02" />
      <rect
         style="fill:none;fill-opacity:1;stroke:#000000;stroke-width:0.8;stroke-linecap:round;stroke-linejoin:round;stroke-miterlimit:4;stroke-dasharray:none;stroke-opacity:0.02"
         id="rect1650"
         width="29.810888"
         height="29.810888"
         x="69.839508"
         y="40.709618"
         rx="6.6098609"
         ry="6.6098609" />
      <rect
         ry="6.6098609"
         rx="6.6098609"
         y="40.709618"
         x="69.839508"
         height="29.810888"
         width="29.810888"
         id="rect1652"
         style="fill:none;fill-opacity:1;stroke:#000000;stroke-width:1;stroke-linecap:round;stroke-linejoin:round;stroke-miterlimit:4;stroke-dasharray:none;stroke-opacity:0.02" />
      <rect
         style="fill:none;fill-opacity:1;stroke:#000000;stroke-width:1.2;stroke-linecap:round;stroke-linejoin:round;stroke-miterlimit:4;stroke-dasharray:none;stroke-opacity:0.02"
         id="rect1654"
         width="29.810888"
         height="29.810888"
         x="69.839508"
         y="40.709618"
         rx="6.6098609"
         ry="6.6098609" />
      <rect
         ry="6.6098609"
         rx="6.6098609"
         y="40.709618"
         x="69.839508"
         height="29.810888"
         width="29.810888"
         id="rect1656"
         style="fill:none;fill-opacity:1;stroke:#000000;stroke-width:1.4;stroke-linecap:round;stroke-linejoin:round;stroke-miterlimit:4;stroke-dasharray:none;stroke-opacity:0.02" />
      <rect
         style="fill:none;fill-opacity:1;stroke:#000000;stroke-width:1.6;stroke-linecap:round;stroke-linejoin:round;stroke-miterlimit:4;stroke-dasharray:none;stroke-opacity:0.02"
         id="rect1658"
         width="29.810888"
         height="29.810888"
         x="69.839508"
         y="40.709618"
         rx="6.6098609"
         ry="6.6098609" />
      <rect
         ry="6.6098609"
         rx="6.6098609"
         y="40.709618"
         x="69.839508"
         height="29.810888"
         width="29.810888"
         id="rect1660"
         style="fill:none;fill-opacity:1;stroke:#000000;stroke-width:1.8;stroke-linecap:round;stroke-linejoin:round;stroke-miterlimit:4;stroke-dasharray:none;stroke-opacity:0.02" />
      <rect
         style="fill:none;fill-opacity:1;stroke:#000000;stroke-width:2;stroke-linecap:round;stroke-linejoin:round;stroke-miterlimit:4;stroke-dasharray:none;stroke-opacity:0.02"
         id="rect1662"
         width="29.810888"
         height="29.810888"
         x="69.839508"
         y="40.709618"
         rx="6.6098609"
         ry="6.6098609" />
      <rect
         ry="6.6098609"
         rx="6.6098609"
         y="40.709618"
         x="69.839508"
         height="29.810888"
         width="29.810888"
         id="rect1664"
         style="fill:none;fill-opacity:1;stroke:#000000;stroke-width:2.2;stroke-linecap:round;stroke-linejoin:round;stroke-miterlimit:4;stroke-dasharray:none;stroke-opacity:0.02" />
      <rect
         style="fill:none;fill-opacity:1;stroke:#000000;stroke-width:2.6;stroke-linecap:round;stroke-linejoin:round;stroke-miterlimit:4;stroke-dasharray:none;stroke-opacity:0.02"
         id="rect1666"
         width="29.810888"
         height="29.810888"
         x="69.839508"
         y="40.709618"
         rx="6.6098609"
         ry="6.6098609" />
      <rect
         ry="6.6098609"
         rx="6.6098609"
         y="40.709618"
         x="69.839508"
         height="29.810888"
         width="29.810888"
         id="rect1668"
         style="fill:none;fill-opacity:1;stroke:#000000;stroke-width:3;stroke-linecap:round;stroke-linejoin:round;stroke-miterlimit:4;stroke-dasharray:none;stroke-opacity:0.02" />
      <rect
         style="fill:none;fill-opacity:1;stroke:#000000;stroke-width:3.4;stroke-linecap:round;stroke-linejoin:round;stroke-miterlimit:4;stroke-dasharray:none;stroke-opacity:0.02"
         id="rect1670"
         width="29.810888"
         height="29.810888"
         x="69.839508"
         y="40.709618"
         rx="6.6098609"
         ry="6.6098609" />
      <rect
         ry="6.6098609"
         rx="6.6098609"
         y="40.709618"
         x="69.839508"
         height="29.810888"
         width="29.810888"
         id="rect1672"
         style="fill:none;fill-opacity:1;stroke:#000000;stroke-width:3.8;stroke-linecap:round;stroke-linejoin:round;stroke-miterlimit:4;stroke-dasharray:none;stroke-opacity:0.02" />
      <rect
         style="fill:none;fill-opacity:1;stroke:#000000;stroke-width:4.2;stroke-linecap:round;stroke-linejoin:round;stroke-miterlimit:4;stroke-dasharray:none;stroke-opacity:0.02"
         id="rect1674"
         width="29.810888"
         height="29.810888"
         x="69.839508"
         y="40.709618"
         rx="6.6098609"
         ry="6.6098609" />
      <rect
         ry="6.6098609"
         rx="6.6098609"
         y="40.709618"
         x="69.839508"
         height="29.810888"
         width="29.810888"
         id="rect1676"
         style="fill:none;fill-opacity:1;stroke:#000000;stroke-width:4.6;stroke-linecap:round;stroke-linejoin:round;stroke-miterlimit:4;stroke-dasharray:none;stroke-opacity:0.02" />
      <rect
         style="fill:none;fill-opacity:1;stroke:#000000;stroke-width:5;stroke-linecap:round;stroke-linejoin:round;stroke-miterlimit:4;stroke-dasharray:none;stroke-opacity:0.02"
         id="rect1678"
         width="29.810888"
         height="29.810888"
         x="69.839508"
         y="40.709618"
         rx="6.6098609"
         ry="6.6098609" />
    </g>
    <rect
       ry="6.4494534"
       rx="6.4494534"
       y="2.5391712"
       x="2.4074187"
       height="29.087439"
       width="29.087439"
       id="rect849"
       style="fill:url(#linearGradient1632);fill-opacity:1;stroke-width:2.68768;stroke-linecap:round;stroke-linejoin:round" />
    <path
       d="m 17.377743,8.2609855 c -5.282687,0 -10.4307701,4.4963485 -10.4307701,10.6627915 0,4.74888 4.2240181,9.039774 9.5615391,9.039774 1.940055,0 4.101204,-0.668997 5.857122,-1.912759 1.75592,-1.243765 3.12493,-3.144805 3.12493,-5.505129 0,-4.511722 -3.501758,-8.807754 -8.112821,-8.807754 -3.715135,0 -6.840375,2.936993 -6.953847,6.344933 -0.04959,1.489185 0.280259,3.071296 1.268761,4.323518 0.988499,1.252224 2.643264,2.08027 4.873578,2.08027 2.351239,0 4.867918,-1.820772 4.867918,-4.751343 0,-2.19156 -1.794996,-3.940966 -3.974919,-3.940966 -0.503606,0 -1.139691,0.02749 -1.771284,0.336147 -0.631593,0.308653 -1.207644,1.068625 -1.207644,1.981801 0,1.495629 0.916057,2.457162 1.75544,2.748037 0.839382,0.290876 1.603777,0.136953 1.603777,0.136953 a 0.86961216,0.86961216 0 1 0 -0.297667,-1.713561 c 0,0 -0.405627,0.04912 -0.73681,-0.06564 -0.331183,-0.114766 -0.586278,-0.167572 -0.586278,-1.105781 0,-0.358747 0.03205,-0.322179 0.232022,-0.419902 0.199965,-0.09772 0.619637,-0.159577 1.008444,-0.159577 1.283237,0 2.236458,0.9309 2.236458,2.202504 0,1.937119 -1.656276,3.01288 -3.129457,3.01288 -1.826098,0 -2.852279,-0.58672 -3.508616,-1.418159 -0.656333,-0.831439 -0.934765,-2.001886 -0.89526,-3.188311 0.07786,-2.338243 2.440263,-4.665326 5.215384,-4.665326 3.501758,0 6.374358,3.468193 6.374358,7.069292 0,1.696088 -0.955682,3.0696 -2.390384,4.085837 -1.434702,1.016238 -3.330099,1.593592 -4.853205,1.593592 -4.397864,0 -7.8230768,-3.601773 -7.8230768,-7.301315 0,-5.191507 4.4062968,-8.9243293 8.6923078,-8.9243293 5.026574,0 7.169467,2.0217363 8.261089,4.0360383 1.091621,2.014303 1.011838,4.03717 1.011838,4.03717 a 0.86931777,0.86931777 0 1 0 1.736198,0.07922 c 0,0 0.123263,-2.46816 -1.21896,-4.944883 -1.342224,-2.476722 -4.270072,-4.9460147 -9.790165,-4.9460147 z"
       style="opacity:0.1;stroke-width:0.579486"
       id="path8" />
    <path
       d="m 17.377743,7.681499 c -5.282687,0 -10.4307701,4.496349 -10.4307701,10.662792 0,4.74888 4.2240181,9.039774 9.5615391,9.039774 1.940055,0 4.101204,-0.668998 5.857122,-1.91276 1.75592,-1.243764 3.12493,-3.144805 3.12493,-5.50513 0,-4.51172 -3.501758,-8.807752 -8.112821,-8.807752 -3.715135,0 -6.840375,2.936993 -6.953847,6.344933 -0.04959,1.489185 0.280259,3.071294 1.268761,4.323516 0.988499,1.252222 2.643264,2.080269 4.873578,2.080269 2.351239,0 4.867918,-1.820769 4.867918,-4.751342 0,-2.191558 -1.794996,-3.940967 -3.974919,-3.940967 -0.503606,0 -1.139691,0.02749 -1.771284,0.336148 -0.631593,0.308655 -1.207644,1.068625 -1.207644,1.981803 0,1.495626 0.916057,2.45716 1.75544,2.748035 0.839382,0.290877 1.603777,0.136952 1.603777,0.136952 a 0.86961216,0.86961216 0 1 0 -0.297667,-1.713561 c 0,0 -0.405627,0.04912 -0.73681,-0.06564 -0.331183,-0.114765 -0.586278,-0.167571 -0.586278,-1.105778 0,-0.35875 0.03205,-0.322179 0.232022,-0.419902 0.199965,-0.09772 0.619637,-0.159577 1.008444,-0.159577 1.283237,0 2.236458,0.930901 2.236458,2.202504 0,1.937119 -1.656276,3.01288 -3.129457,3.01288 -1.826098,0 -2.852279,-0.586721 -3.508616,-1.418159 -0.656333,-0.831437 -0.934765,-2.001885 -0.89526,-3.188312 0.07786,-2.33824 2.440263,-4.665324 5.215384,-4.665324 3.501758,0 6.374358,3.468192 6.374358,7.069292 0,1.696086 -0.955682,3.069601 -2.390384,4.085838 -1.434702,1.016236 -3.330099,1.593589 -4.853205,1.593589 -4.397864,0 -7.8230768,-3.60177 -7.8230768,-7.301312 0,-5.191508 4.4062968,-8.9243304 8.6923078,-8.9243304 5.026574,0 7.169467,2.0217354 8.261089,4.0360394 1.091621,2.014303 1.011838,4.037169 1.011838,4.037169 a 0.86931777,0.86931777 0 1 0 1.736198,0.07922 c 0,0 0.123263,-2.468159 -1.21896,-4.944882 -1.342224,-2.476723 -4.270072,-4.9460141 -9.790165,-4.9460141 z"
       style="fill:url(#linearGradient1401);stroke-width:0.579486;fill-opacity:1"
       id="path10" />
  </g>
</svg>
