<?xml version="1.0" encoding="UTF-8" standalone="no"?>
<svg
   width="128"
   height="128"
   viewBox="0 0 33.866666 33.866668"
   version="1.1"
   id="svg1829"
   inkscape:version="1.1.2 (0a00cf5339, 2022-02-04)"
   sodipodi:docname="picom.svg"
   xmlns:inkscape="http://www.inkscape.org/namespaces/inkscape"
   xmlns:sodipodi="http://sodipodi.sourceforge.net/DTD/sodipodi-0.dtd"
   xmlns:xlink="http://www.w3.org/1999/xlink"
   xmlns="http://www.w3.org/2000/svg"
   xmlns:svg="http://www.w3.org/2000/svg"
   xmlns:rdf="http://www.w3.org/1999/02/22-rdf-syntax-ns#"
   xmlns:cc="http://creativecommons.org/ns#"
   xmlns:dc="http://purl.org/dc/elements/1.1/">
  <defs
     id="defs1823">
    <linearGradient
       inkscape:collect="always"
       id="linearGradient1114">
      <stop
         style="stop-color:#e4e4e4;stop-opacity:1;"
         offset="0"
         id="stop1110" />
      <stop
         style="stop-color:#dae0fb;stop-opacity:1"
         offset="0.24398187"
         id="stop2527" />
      <stop
         style="stop-color:#b372ff;stop-opacity:1"
         offset="1"
         id="stop1112" />
    </linearGradient>
    <linearGradient
       inkscape:collect="always"
       id="linearGradient884">
      <stop
         style="stop-color:#00afd2;stop-opacity:1"
         offset="0"
         id="stop880" />
      <stop
         style="stop-color:#9c45ff;stop-opacity:1"
         offset="1"
         id="stop882" />
    </linearGradient>
    <radialGradient
       inkscape:collect="always"
       xlink:href="#linearGradient884"
       id="radialGradient886"
       cx="17.309874"
       cy="2.5295613"
       fx="17.309874"
       fy="2.5295613"
       r="14.54372"
       gradientUnits="userSpaceOnUse"
       gradientTransform="matrix(7.161795,0,0,1.7510995,-106.65989,-1.8999525)" />
    <linearGradient
       inkscape:collect="always"
       xlink:href="#linearGradient1114"
       id="linearGradient2461"
       gradientUnits="userSpaceOnUse"
       x1="7.7588243"
       y1="7.4449978"
       x2="7.7588243"
       y2="42.547142" />
  </defs>
  <sodipodi:namedview
     id="base"
     pagecolor="#ffffff"
     bordercolor="#666666"
     borderopacity="1.0"
     inkscape:pageopacity="0.0"
     inkscape:pageshadow="2"
     inkscape:zoom="0.49497475"
     inkscape:cx="-398.0001"
     inkscape:cy="67.68022"
     inkscape:document-units="mm"
     inkscape:current-layer="layer1"
     inkscape:document-rotation="0"
     showgrid="false"
     units="px"
     inkscape:window-width="1920"
     inkscape:window-height="1032"
     inkscape:window-x="0"
     inkscape:window-y="24"
     inkscape:window-maximized="1"
     inkscape:pagecheckerboard="0" />
  <metadata
     id="metadata1826">
    <rdf:RDF>
      <cc:Work
         rdf:about="">
        <dc:format>image/svg+xml</dc:format>
        <dc:type
           rdf:resource="http://purl.org/dc/dcmitype/StillImage" />
      </cc:Work>
    </rdf:RDF>
  </metadata>
  <g
     inkscape:label="Capa 1"
     inkscape:groupmode="layer"
     id="layer1">
    <g
       id="g1702"
       transform="matrix(0.97573206,0,0,0.97573206,-65.58674,-37.192363)"
       style="opacity:0.296765">
      <rect
         style="fill:none;fill-opacity:1;stroke:#000000;stroke-width:0.1;stroke-linecap:round;stroke-linejoin:round;stroke-miterlimit:4;stroke-dasharray:none;stroke-opacity:0.02"
         id="rect1634"
         width="29.810888"
         height="29.810888"
         x="69.839508"
         y="40.709618"
         rx="6.6098609"
         ry="6.6098609" />
      <rect
         ry="6.6098609"
         rx="6.6098609"
         y="40.709618"
         x="69.839508"
         height="29.810888"
         width="29.810888"
         id="rect1638"
         style="fill:none;fill-opacity:1;stroke:#000000;stroke-width:0.2;stroke-linecap:round;stroke-linejoin:round;stroke-miterlimit:4;stroke-dasharray:none;stroke-opacity:0.02" />
      <rect
         style="fill:none;fill-opacity:1;stroke:#000000;stroke-width:0.3;stroke-linecap:round;stroke-linejoin:round;stroke-miterlimit:4;stroke-dasharray:none;stroke-opacity:0.02"
         id="rect1640"
         width="29.810888"
         height="29.810888"
         x="69.839508"
         y="40.709618"
         rx="6.6098609"
         ry="6.6098609" />
      <rect
         ry="6.6098609"
         rx="6.6098609"
         y="40.709618"
         x="69.839508"
         height="29.810888"
         width="29.810888"
         id="rect1642"
         style="fill:none;fill-opacity:1;stroke:#000000;stroke-width:0.4;stroke-linecap:round;stroke-linejoin:round;stroke-miterlimit:4;stroke-dasharray:none;stroke-opacity:0.02" />
      <rect
         style="fill:none;fill-opacity:1;stroke:#000000;stroke-width:0.5;stroke-linecap:round;stroke-linejoin:round;stroke-miterlimit:4;stroke-dasharray:none;stroke-opacity:0.02"
         id="rect1644"
         width="29.810888"
         height="29.810888"
         x="69.839508"
         y="40.709618"
         rx="6.6098609"
         ry="6.6098609" />
      <rect
         ry="6.6098609"
         rx="6.6098609"
         y="40.709618"
         x="69.839508"
         height="29.810888"
         width="29.810888"
         id="rect1646"
         style="fill:none;fill-opacity:1;stroke:#000000;stroke-width:0.6;stroke-linecap:round;stroke-linejoin:round;stroke-miterlimit:4;stroke-dasharray:none;stroke-opacity:0.02" />
      <rect
         style="fill:none;fill-opacity:1;stroke:#000000;stroke-width:0.7;stroke-linecap:round;stroke-linejoin:round;stroke-miterlimit:4;stroke-dasharray:none;stroke-opacity:0.02"
         id="rect1648"
         width="29.810888"
         height="29.810888"
         x="69.839508"
         y="40.709618"
         rx="6.6098609"
         ry="6.6098609" />
      <rect
         ry="6.6098609"
         rx="6.6098609"
         y="40.709618"
         x="69.839508"
         height="29.810888"
         width="29.810888"
         id="rect1650"
         style="fill:none;fill-opacity:1;stroke:#000000;stroke-width:0.8;stroke-linecap:round;stroke-linejoin:round;stroke-miterlimit:4;stroke-dasharray:none;stroke-opacity:0.02" />
      <rect
         style="fill:none;fill-opacity:1;stroke:#000000;stroke-width:1;stroke-linecap:round;stroke-linejoin:round;stroke-miterlimit:4;stroke-dasharray:none;stroke-opacity:0.02"
         id="rect1652"
         width="29.810888"
         height="29.810888"
         x="69.839508"
         y="40.709618"
         rx="6.6098609"
         ry="6.6098609" />
      <rect
         ry="6.6098609"
         rx="6.6098609"
         y="40.709618"
         x="69.839508"
         height="29.810888"
         width="29.810888"
         id="rect1654"
         style="fill:none;fill-opacity:1;stroke:#000000;stroke-width:1.2;stroke-linecap:round;stroke-linejoin:round;stroke-miterlimit:4;stroke-dasharray:none;stroke-opacity:0.02" />
      <rect
         style="fill:none;fill-opacity:1;stroke:#000000;stroke-width:1.4;stroke-linecap:round;stroke-linejoin:round;stroke-miterlimit:4;stroke-dasharray:none;stroke-opacity:0.02"
         id="rect1656"
         width="29.810888"
         height="29.810888"
         x="69.839508"
         y="40.709618"
         rx="6.6098609"
         ry="6.6098609" />
      <rect
         ry="6.6098609"
         rx="6.6098609"
         y="40.709618"
         x="69.839508"
         height="29.810888"
         width="29.810888"
         id="rect1658"
         style="fill:none;fill-opacity:1;stroke:#000000;stroke-width:1.6;stroke-linecap:round;stroke-linejoin:round;stroke-miterlimit:4;stroke-dasharray:none;stroke-opacity:0.02" />
      <rect
         style="fill:none;fill-opacity:1;stroke:#000000;stroke-width:1.8;stroke-linecap:round;stroke-linejoin:round;stroke-miterlimit:4;stroke-dasharray:none;stroke-opacity:0.02"
         id="rect1660"
         width="29.810888"
         height="29.810888"
         x="69.839508"
         y="40.709618"
         rx="6.6098609"
         ry="6.6098609" />
      <rect
         ry="6.6098609"
         rx="6.6098609"
         y="40.709618"
         x="69.839508"
         height="29.810888"
         width="29.810888"
         id="rect1662"
         style="fill:none;fill-opacity:1;stroke:#000000;stroke-width:2;stroke-linecap:round;stroke-linejoin:round;stroke-miterlimit:4;stroke-dasharray:none;stroke-opacity:0.02" />
      <rect
         style="fill:none;fill-opacity:1;stroke:#000000;stroke-width:2.2;stroke-linecap:round;stroke-linejoin:round;stroke-miterlimit:4;stroke-dasharray:none;stroke-opacity:0.02"
         id="rect1664"
         width="29.810888"
         height="29.810888"
         x="69.839508"
         y="40.709618"
         rx="6.6098609"
         ry="6.6098609" />
      <rect
         ry="6.6098609"
         rx="6.6098609"
         y="40.709618"
         x="69.839508"
         height="29.810888"
         width="29.810888"
         id="rect1666"
         style="fill:none;fill-opacity:1;stroke:#000000;stroke-width:2.6;stroke-linecap:round;stroke-linejoin:round;stroke-miterlimit:4;stroke-dasharray:none;stroke-opacity:0.02" />
      <rect
         style="fill:none;fill-opacity:1;stroke:#000000;stroke-width:3;stroke-linecap:round;stroke-linejoin:round;stroke-miterlimit:4;stroke-dasharray:none;stroke-opacity:0.02"
         id="rect1668"
         width="29.810888"
         height="29.810888"
         x="69.839508"
         y="40.709618"
         rx="6.6098609"
         ry="6.6098609" />
      <rect
         ry="6.6098609"
         rx="6.6098609"
         y="40.709618"
         x="69.839508"
         height="29.810888"
         width="29.810888"
         id="rect1670"
         style="fill:none;fill-opacity:1;stroke:#000000;stroke-width:3.4;stroke-linecap:round;stroke-linejoin:round;stroke-miterlimit:4;stroke-dasharray:none;stroke-opacity:0.02" />
      <rect
         style="fill:none;fill-opacity:1;stroke:#000000;stroke-width:3.8;stroke-linecap:round;stroke-linejoin:round;stroke-miterlimit:4;stroke-dasharray:none;stroke-opacity:0.02"
         id="rect1672"
         width="29.810888"
         height="29.810888"
         x="69.839508"
         y="40.709618"
         rx="6.6098609"
         ry="6.6098609" />
      <rect
         ry="6.6098609"
         rx="6.6098609"
         y="40.709618"
         x="69.839508"
         height="29.810888"
         width="29.810888"
         id="rect1674"
         style="fill:none;fill-opacity:1;stroke:#000000;stroke-width:4.2;stroke-linecap:round;stroke-linejoin:round;stroke-miterlimit:4;stroke-dasharray:none;stroke-opacity:0.02" />
      <rect
         style="fill:none;fill-opacity:1;stroke:#000000;stroke-width:4.6;stroke-linecap:round;stroke-linejoin:round;stroke-miterlimit:4;stroke-dasharray:none;stroke-opacity:0.02"
         id="rect1676"
         width="29.810888"
         height="29.810888"
         x="69.839508"
         y="40.709618"
         rx="6.6098609"
         ry="6.6098609" />
      <rect
         ry="6.6098609"
         rx="6.6098609"
         y="40.709618"
         x="69.839508"
         height="29.810888"
         width="29.810888"
         id="rect1678"
         style="fill:none;fill-opacity:1;stroke:#000000;stroke-width:5;stroke-linecap:round;stroke-linejoin:round;stroke-miterlimit:4;stroke-dasharray:none;stroke-opacity:0.02" />
    </g>
    <rect
       style="fill:url(#radialGradient886);fill-opacity:1;stroke-width:2.68769;stroke-linecap:round;stroke-linejoin:round"
       id="rect849-5"
       width="29.08744"
       height="29.08744"
       x="2.5579116"
       y="2.5293181"
       rx="6.4494534"
       ry="6.4494534" />
    <g
       id="g5215"
       style="fill:#000348;fill-opacity:0.02006321">
      <path
         id="path4939"
         style="fill:#000348;fill-opacity:0.02006321;stroke-width:0.363475"
         d="m 16.847398,7.2863855 c -1.127646,0 -2.03532,0.9076733 -2.03532,2.03532 v 0.9541225 a 7.6329832,7.6329832 0 0 0 -2.407315,1.39072 L 11.577715,11.189486 C 10.601144,10.625663 9.3608098,10.958325 8.7969858,11.934895 l -0.509008,0.880292 c -0.563823,0.976571 -0.231161,2.216905 0.745409,2.780729 l 0.8234994,0.475641 a 7.6329832,7.6329832 0 0 0 -0.1334644,1.39214 7.6329832,7.6329832 0 0 0 0.1334644,1.392139 l -0.8234994,0.475641 c -0.97657,0.563822 -1.309232,1.804159 -0.745409,2.780729 l 0.509008,0.880292 c 0.563824,0.976571 1.8041582,1.309232 2.7807292,0.745409 l 0.690035,-0.398262 v -5.875948 a 5.0886555,5.0886555 0 0 1 5.088656,-5.088656 5.0886555,5.0886555 0 0 1 5.088655,5.088656 5.0886555,5.0886555 0 0 1 -5.088655,5.088655 5.0886555,5.0886555 0 0 1 -2.907804,-0.920047 v 2.874437 a 7.6329832,7.6329832 0 0 0 0.363476,0.142693 v 0.956252 c 0,1.127646 0.907674,2.03532 2.03532,2.03532 h 1.018015 c 1.127647,0 2.03532,-0.907674 2.03532,-2.03532 v -0.959802 a 7.6329832,7.6329832 0 0 0 2.407315,-1.38504 l 0.827048,0.477062 c 0.97657,0.563823 2.216905,0.231162 2.780729,-0.745409 l 0.509007,-0.880292 c 0.563823,-0.97657 0.231162,-2.216907 -0.745408,-2.780729 l -0.823499,-0.475641 a 7.6329832,7.6329832 0 0 0 0.133464,-1.392139 7.6329832,7.6329832 0 0 0 -0.133464,-1.39214 l 0.823499,-0.475641 c 0.97657,-0.563824 1.309231,-1.804158 0.745408,-2.780729 l -0.509007,-0.880292 c -0.563824,-0.97657 -1.804159,-1.309232 -2.780729,-0.745409 l -0.821369,0.474222 A 7.6329832,7.6329832 0 0 0 19.900733,10.277249 V 9.3217055 c 0,-1.1276467 -0.907673,-2.03532 -2.03532,-2.03532 z m 0.509008,7.2695075 a 2.907803,2.907803 0 0 0 -2.907804,2.907804 2.907803,2.907803 0 0 0 2.907804,2.907803 2.907803,2.907803 0 0 0 2.907803,-2.907803 2.907803,2.907803 0 0 0 -2.907803,-2.907804 z m -4.561191,9.020863 a 7.6329832,7.6329832 0 0 0 0.219363,0.153342 7.6329832,7.6329832 0 0 1 -0.219363,-0.153342 z m 0.426658,0.293194 a 7.6329832,7.6329832 0 0 0 0.254149,0.154051 7.6329832,7.6329832 0 0 1 -0.254149,-0.154051 z m 0.423818,0.252019 a 7.6329832,7.6329832 0 0 0 0.315911,0.1647 7.6329832,7.6329832 0 0 1 -0.315911,-0.1647 z m 0.423818,0.216524 a 7.6329832,7.6329832 0 0 0 0.363475,0.16186 7.6329832,7.6329832 0 0 1 -0.363475,-0.16186 z" />
      <path
         id="path5193"
         style="fill:#000348;fill-opacity:0.02006321;stroke-width:0.363475"
         d="m 17.011624,7.5185648 c -1.127646,0 -2.03532,0.9076733 -2.03532,2.03532 v 0.9541222 a 7.6329832,7.6329832 0 0 0 -2.407315,1.39072 L 11.741941,11.421665 C 10.76537,10.857842 9.5250357,11.190504 8.9612117,12.167074 l -0.509008,0.880292 c -0.563823,0.976571 -0.231161,2.216905 0.745409,2.780729 l 0.8234993,0.475641 a 7.6329832,7.6329832 0 0 0 -0.1334643,1.39214 7.6329832,7.6329832 0 0 0 0.1334643,1.392139 l -0.8234993,0.475641 c -0.97657,0.563822 -1.309232,1.804159 -0.745409,2.780729 l 0.509008,0.880292 c 0.563824,0.976571 1.8041583,1.309232 2.7807293,0.745409 l 0.690035,-0.398262 v -5.875948 a 5.0886555,5.0886555 0 0 1 5.088656,-5.088656 5.0886555,5.0886555 0 0 1 5.088655,5.088656 5.0886555,5.0886555 0 0 1 -5.088655,5.088655 5.0886555,5.0886555 0 0 1 -2.907804,-0.920047 v 2.874437 a 7.6329832,7.6329832 0 0 0 0.363476,0.142693 v 0.956252 c 0,1.127646 0.907674,2.03532 2.03532,2.03532 h 1.018015 c 1.127647,0 2.03532,-0.907674 2.03532,-2.03532 v -0.959802 a 7.6329832,7.6329832 0 0 0 2.407315,-1.38504 l 0.827048,0.477062 c 0.97657,0.563823 2.216905,0.231162 2.780729,-0.745409 l 0.509007,-0.880292 c 0.563823,-0.97657 0.231162,-2.216907 -0.745408,-2.780729 l -0.823499,-0.475641 a 7.6329832,7.6329832 0 0 0 0.133464,-1.392139 7.6329832,7.6329832 0 0 0 -0.133464,-1.39214 l 0.823499,-0.475641 c 0.97657,-0.563824 1.309231,-1.804158 0.745408,-2.780729 l -0.509007,-0.880292 c -0.563824,-0.97657 -1.804159,-1.309232 -2.780729,-0.745409 l -0.821369,0.474222 A 7.6329832,7.6329832 0 0 0 20.064959,10.509428 V 9.5538848 c 0,-1.1276467 -0.907673,-2.03532 -2.03532,-2.03532 z m 0.509008,7.2695072 a 2.907803,2.907803 0 0 0 -2.907804,2.907804 2.907803,2.907803 0 0 0 2.907804,2.907803 2.907803,2.907803 0 0 0 2.907803,-2.907803 2.907803,2.907803 0 0 0 -2.907803,-2.907804 z m -4.561191,9.020863 a 7.6329832,7.6329832 0 0 0 0.219363,0.153342 7.6329832,7.6329832 0 0 1 -0.219363,-0.153342 z m 0.426658,0.293194 a 7.6329832,7.6329832 0 0 0 0.254149,0.154051 7.6329832,7.6329832 0 0 1 -0.254149,-0.154051 z m 0.423818,0.252019 a 7.6329832,7.6329832 0 0 0 0.315911,0.1647 7.6329832,7.6329832 0 0 1 -0.315911,-0.1647 z m 0.423818,0.216524 a 7.6329832,7.6329832 0 0 0 0.363475,0.16186 7.6329832,7.6329832 0 0 1 -0.363475,-0.16186 z" />
      <path
         id="path5195"
         style="fill:#000348;fill-opacity:0.02006321;stroke-width:0.363475"
         d="m 17.119203,7.7818971 c -1.127646,0 -2.03532,0.9076733 -2.03532,2.03532 v 0.9541219 a 7.6329832,7.6329832 0 0 0 -2.407315,1.39072 L 11.84952,11.684997 C 10.872949,11.121174 9.6326143,11.453836 9.0687903,12.430406 l -0.509008,0.880292 c -0.563823,0.976571 -0.231161,2.216905 0.745409,2.780729 l 0.8234997,0.475641 a 7.6329832,7.6329832 0 0 0 -0.1334647,1.39214 7.6329832,7.6329832 0 0 0 0.1334647,1.392139 l -0.8234997,0.475641 c -0.97657,0.563822 -1.309232,1.804159 -0.745409,2.780729 l 0.509008,0.880292 c 0.563824,0.976571 1.8041587,1.309232 2.7807297,0.745409 l 0.690035,-0.398262 v -5.875948 a 5.0886555,5.0886555 0 0 1 5.088656,-5.088656 5.0886555,5.0886555 0 0 1 5.088655,5.088656 5.0886555,5.0886555 0 0 1 -5.088655,5.088655 5.0886555,5.0886555 0 0 1 -2.907804,-0.920047 v 2.874437 a 7.6329832,7.6329832 0 0 0 0.363476,0.142693 v 0.956252 c 0,1.127646 0.907674,2.03532 2.03532,2.03532 h 1.018015 c 1.127647,0 2.03532,-0.907674 2.03532,-2.03532 v -0.959802 a 7.6329832,7.6329832 0 0 0 2.407315,-1.38504 l 0.827048,0.477062 c 0.97657,0.563823 2.216905,0.231162 2.780729,-0.745409 l 0.509007,-0.880292 c 0.563823,-0.97657 0.231162,-2.216907 -0.745408,-2.780729 L 25.12773,19.351347 a 7.6329832,7.6329832 0 0 0 0.133464,-1.392139 7.6329832,7.6329832 0 0 0 -0.133464,-1.39214 l 0.823499,-0.475641 c 0.97657,-0.563824 1.309231,-1.804158 0.745408,-2.780729 L 26.18763,12.430406 c -0.563824,-0.97657 -1.804159,-1.309232 -2.780729,-0.745409 l -0.821369,0.474222 A 7.6329832,7.6329832 0 0 0 20.172538,10.77276 V 9.8172171 c 0,-1.1276467 -0.907673,-2.03532 -2.03532,-2.03532 z m 0.509008,7.2695069 a 2.907803,2.907803 0 0 0 -2.907804,2.907804 2.907803,2.907803 0 0 0 2.907804,2.907803 2.907803,2.907803 0 0 0 2.907803,-2.907803 2.907803,2.907803 0 0 0 -2.907803,-2.907804 z m -4.561191,9.020863 a 7.6329832,7.6329832 0 0 0 0.219363,0.153342 7.6329832,7.6329832 0 0 1 -0.219363,-0.153342 z m 0.426658,0.293194 a 7.6329832,7.6329832 0 0 0 0.254149,0.154051 7.6329832,7.6329832 0 0 1 -0.254149,-0.154051 z m 0.423818,0.252019 a 7.6329832,7.6329832 0 0 0 0.315911,0.1647 7.6329832,7.6329832 0 0 1 -0.315911,-0.1647 z m 0.423818,0.216524 a 7.6329832,7.6329832 0 0 0 0.363475,0.16186 7.6329832,7.6329832 0 0 1 -0.363475,-0.16186 z" />
      <path
         id="path5197"
         style="fill:#000348;fill-opacity:0.02006321;stroke-width:0.363475"
         d="m 17.2153,8.0245478 c -1.127646,0 -2.03532,0.9076733 -2.03532,2.0353202 v 0.954122 a 7.6329832,7.6329832 0 0 0 -2.407315,1.39072 L 11.945617,11.927648 C 10.969046,11.363825 9.7287112,11.696487 9.1648872,12.673057 l -0.509008,0.880292 c -0.563823,0.976571 -0.231161,2.216905 0.745409,2.780729 l 0.8234998,0.475641 a 7.6329832,7.6329832 0 0 0 -0.133465,1.39214 7.6329832,7.6329832 0 0 0 0.133465,1.392139 l -0.8234998,0.475641 c -0.97657,0.563822 -1.309232,1.804159 -0.745409,2.780729 l 0.509008,0.880292 c 0.563824,0.976571 1.8041588,1.309232 2.7807298,0.745409 l 0.690035,-0.398262 v -5.875948 a 5.0886555,5.0886555 0 0 1 5.088656,-5.088656 5.0886555,5.0886555 0 0 1 5.088655,5.088656 5.0886555,5.0886555 0 0 1 -5.088655,5.088655 5.0886555,5.0886555 0 0 1 -2.907804,-0.920047 v 2.874437 a 7.6329832,7.6329832 0 0 0 0.363476,0.142693 v 0.956252 c 0,1.127646 0.907674,2.03532 2.03532,2.03532 h 1.018015 c 1.127647,0 2.03532,-0.907674 2.03532,-2.03532 v -0.959802 a 7.6329832,7.6329832 0 0 0 2.407315,-1.38504 l 0.827048,0.477062 c 0.97657,0.563823 2.216905,0.231162 2.780729,-0.745409 l 0.509007,-0.880292 c 0.563823,-0.97657 0.231162,-2.216907 -0.745408,-2.780729 l -0.823499,-0.475641 a 7.6329832,7.6329832 0 0 0 0.133464,-1.392139 7.6329832,7.6329832 0 0 0 -0.133464,-1.39214 l 0.823499,-0.475641 c 0.97657,-0.563824 1.309231,-1.804158 0.745408,-2.780729 l -0.509007,-0.880292 c -0.563824,-0.97657 -1.804159,-1.309232 -2.780729,-0.745409 l -0.821369,0.474222 a 7.6329832,7.6329832 0 0 0 -2.412994,-1.386459 v -0.955543 c 0,-1.1276469 -0.907673,-2.0353202 -2.03532,-2.0353202 z m 0.509008,7.2695072 a 2.907803,2.907803 0 0 0 -2.907804,2.907804 2.907803,2.907803 0 0 0 2.907804,2.907803 2.907803,2.907803 0 0 0 2.907803,-2.907803 2.907803,2.907803 0 0 0 -2.907803,-2.907804 z m -4.561191,9.020863 a 7.6329832,7.6329832 0 0 0 0.219363,0.153342 7.6329832,7.6329832 0 0 1 -0.219363,-0.153342 z m 0.426658,0.293194 a 7.6329832,7.6329832 0 0 0 0.254149,0.154051 7.6329832,7.6329832 0 0 1 -0.254149,-0.154051 z m 0.423818,0.252019 a 7.6329832,7.6329832 0 0 0 0.315911,0.1647 7.6329832,7.6329832 0 0 1 -0.315911,-0.1647 z m 0.423818,0.216524 a 7.6329832,7.6329832 0 0 0 0.363475,0.16186 7.6329832,7.6329832 0 0 1 -0.363475,-0.16186 z" />
      <path
         id="path5199"
         style="fill:#000348;fill-opacity:0.02006321;stroke-width:0.363475"
         d="m 17.343612,8.2151712 c -1.127646,0 -2.03532,0.9076733 -2.03532,2.0353198 v 0.954122 a 7.6329832,7.6329832 0 0 0 -2.407315,1.39072 L 12.073929,12.118271 C 11.097358,11.554448 9.8570229,11.88711 9.2931989,12.86368 l -0.509008,0.880292 c -0.563823,0.976571 -0.231161,2.216905 0.745409,2.780729 L 10.3531,17.000342 a 7.6329832,7.6329832 0 0 0 -0.133465,1.39214 7.6329832,7.6329832 0 0 0 0.133465,1.392139 l -0.8235001,0.475641 c -0.97657,0.563822 -1.309232,1.804159 -0.745409,2.780729 l 0.509008,0.880292 c 0.563824,0.976571 1.8041591,1.309232 2.7807301,0.745409 l 0.690035,-0.398262 v -5.875948 a 5.0886555,5.0886555 0 0 1 5.088656,-5.088656 5.0886555,5.0886555 0 0 1 5.088655,5.088656 5.0886555,5.0886555 0 0 1 -5.088655,5.088655 5.0886555,5.0886555 0 0 1 -2.907804,-0.920047 v 2.874437 a 7.6329832,7.6329832 0 0 0 0.363476,0.142693 v 0.956252 c 0,1.127646 0.907674,2.03532 2.03532,2.03532 h 1.018015 c 1.127647,0 2.03532,-0.907674 2.03532,-2.03532 V 25.57467 a 7.6329832,7.6329832 0 0 0 2.407315,-1.38504 l 0.827048,0.477062 c 0.97657,0.563823 2.216905,0.231162 2.780729,-0.745409 l 0.509007,-0.880292 c 0.563823,-0.97657 0.231162,-2.216907 -0.745408,-2.780729 l -0.823499,-0.475641 a 7.6329832,7.6329832 0 0 0 0.133464,-1.392139 7.6329832,7.6329832 0 0 0 -0.133464,-1.39214 l 0.823499,-0.475641 c 0.97657,-0.563824 1.309231,-1.804158 0.745408,-2.780729 L 26.412039,12.86368 C 25.848215,11.88711 24.60788,11.554448 23.63131,12.118271 l -0.821369,0.474222 a 7.6329832,7.6329832 0 0 0 -2.412994,-1.386459 v -0.955543 c 0,-1.1276465 -0.907673,-2.0353198 -2.03532,-2.0353198 z m 0.509008,7.2695068 a 2.907803,2.907803 0 0 0 -2.907804,2.907804 2.907803,2.907803 0 0 0 2.907804,2.907803 2.907803,2.907803 0 0 0 2.907803,-2.907803 2.907803,2.907803 0 0 0 -2.907803,-2.907804 z m -4.561191,9.020863 a 7.6329832,7.6329832 0 0 0 0.219363,0.153342 7.6329832,7.6329832 0 0 1 -0.219363,-0.153342 z m 0.426658,0.293194 a 7.6329832,7.6329832 0 0 0 0.254149,0.154051 7.6329832,7.6329832 0 0 1 -0.254149,-0.154051 z m 0.423818,0.252019 a 7.6329832,7.6329832 0 0 0 0.315911,0.1647 7.6329832,7.6329832 0 0 1 -0.315911,-0.1647 z m 0.423818,0.216524 a 7.6329832,7.6329832 0 0 0 0.363475,0.16186 7.6329832,7.6329832 0 0 1 -0.363475,-0.16186 z" />
      <path
         id="path5201"
         style="fill:#000348;fill-opacity:0.02006321;stroke-width:0.363475"
         d="m 17.451449,8.3999778 c -1.127646,0 -2.03532,0.9076733 -2.03532,2.0353202 v 0.954122 a 7.6329832,7.6329832 0 0 0 -2.407315,1.39072 L 12.181766,12.303078 C 11.205195,11.739255 9.9648594,12.071917 9.4010354,13.048487 l -0.509008,0.880292 c -0.563823,0.976571 -0.231161,2.216905 0.745409,2.780729 l 0.8235006,0.475641 a 7.6329832,7.6329832 0 0 0 -0.133465,1.39214 7.6329832,7.6329832 0 0 0 0.133465,1.392139 l -0.8235006,0.475641 c -0.97657,0.563822 -1.309232,1.804159 -0.745409,2.780729 l 0.509008,0.880292 c 0.563824,0.976571 1.8041596,1.309232 2.7807306,0.745409 l 0.690035,-0.398262 v -5.875948 a 5.0886555,5.0886555 0 0 1 5.088656,-5.088656 5.0886555,5.0886555 0 0 1 5.088655,5.088656 5.0886555,5.0886555 0 0 1 -5.088655,5.088655 5.0886555,5.0886555 0 0 1 -2.907804,-0.920047 v 2.874437 a 7.6329832,7.6329832 0 0 0 0.363476,0.142693 v 0.956252 c 0,1.127646 0.907674,2.03532 2.03532,2.03532 h 1.018015 c 1.127647,0 2.03532,-0.907674 2.03532,-2.03532 v -0.959802 a 7.6329832,7.6329832 0 0 0 2.407315,-1.38504 l 0.827048,0.477062 c 0.97657,0.563823 2.216905,0.231162 2.780729,-0.745409 l 0.509007,-0.880292 c 0.563823,-0.97657 0.231162,-2.216907 -0.745408,-2.780729 l -0.823499,-0.475641 a 7.6329832,7.6329832 0 0 0 0.133464,-1.392139 7.6329832,7.6329832 0 0 0 -0.133464,-1.39214 l 0.823499,-0.475641 c 0.97657,-0.563824 1.309231,-1.804158 0.745408,-2.780729 l -0.509007,-0.880292 c -0.563824,-0.97657 -1.804159,-1.309232 -2.780729,-0.745409 L 22.917778,12.7773 a 7.6329832,7.6329832 0 0 0 -2.412994,-1.386459 v -0.955543 c 0,-1.1276469 -0.907673,-2.0353202 -2.03532,-2.0353202 z m 0.509008,7.2695072 a 2.907803,2.907803 0 0 0 -2.907804,2.907804 2.907803,2.907803 0 0 0 2.907804,2.907803 2.907803,2.907803 0 0 0 2.907803,-2.907803 2.907803,2.907803 0 0 0 -2.907803,-2.907804 z m -4.561191,9.020863 a 7.6329832,7.6329832 0 0 0 0.219363,0.153342 7.6329832,7.6329832 0 0 1 -0.219363,-0.153342 z m 0.426658,0.293194 a 7.6329832,7.6329832 0 0 0 0.254149,0.154051 7.6329832,7.6329832 0 0 1 -0.254149,-0.154051 z m 0.423818,0.252019 a 7.6329832,7.6329832 0 0 0 0.315911,0.1647 7.6329832,7.6329832 0 0 1 -0.315911,-0.1647 z m 0.423818,0.216524 a 7.6329832,7.6329832 0 0 0 0.363475,0.16186 7.6329832,7.6329832 0 0 1 -0.363475,-0.16186 z" />
      <path
         id="path5203"
         style="fill:#000348;fill-opacity:0.02006321;stroke-width:0.363475"
         d="m 17.525588,8.5166426 c -1.127646,0 -2.03532,0.9076733 -2.03532,2.0353204 v 0.954122 a 7.6329832,7.6329832 0 0 0 -2.407315,1.39072 L 12.255905,12.419743 C 11.279334,11.85592 10.038998,12.188582 9.4751739,13.165152 l -0.509008,0.880292 c -0.563823,0.976571 -0.231161,2.216905 0.745409,2.780729 l 0.8235011,0.475641 a 7.6329832,7.6329832 0 0 0 -0.133465,1.39214 7.6329832,7.6329832 0 0 0 0.133465,1.392139 l -0.8235011,0.475641 c -0.97657,0.563822 -1.309232,1.804159 -0.745409,2.780729 l 0.509008,0.880292 c 0.5638241,0.976571 1.8041601,1.309232 2.7807311,0.745409 l 0.690035,-0.398262 v -5.875948 a 5.0886555,5.0886555 0 0 1 5.088656,-5.088656 5.0886555,5.0886555 0 0 1 5.088655,5.088656 5.0886555,5.0886555 0 0 1 -5.088655,5.088655 5.0886555,5.0886555 0 0 1 -2.907804,-0.920047 v 2.874437 a 7.6329832,7.6329832 0 0 0 0.363476,0.142693 v 0.956252 c 0,1.127646 0.907674,2.03532 2.03532,2.03532 h 1.018015 c 1.127647,0 2.03532,-0.907674 2.03532,-2.03532 v -0.959802 a 7.6329832,7.6329832 0 0 0 2.407315,-1.38504 l 0.827048,0.477062 c 0.97657,0.563823 2.216905,0.231162 2.780729,-0.745409 l 0.509007,-0.880292 c 0.563823,-0.97657 0.231162,-2.216907 -0.745408,-2.780729 l -0.823499,-0.475641 a 7.6329832,7.6329832 0 0 0 0.133464,-1.392139 7.6329832,7.6329832 0 0 0 -0.133464,-1.39214 l 0.823499,-0.475641 c 0.97657,-0.563824 1.309231,-1.804158 0.745408,-2.780729 l -0.509007,-0.880292 c -0.563824,-0.97657 -1.804159,-1.309232 -2.780729,-0.745409 l -0.821369,0.474222 a 7.6329832,7.6329832 0 0 0 -2.412994,-1.386459 v -0.955543 c 0,-1.1276471 -0.907673,-2.0353204 -2.03532,-2.0353204 z m 0.509008,7.2695074 a 2.907803,2.907803 0 0 0 -2.907804,2.907804 2.907803,2.907803 0 0 0 2.907804,2.907803 2.907803,2.907803 0 0 0 2.907803,-2.907803 2.907803,2.907803 0 0 0 -2.907803,-2.907804 z m -4.561191,9.020863 a 7.6329832,7.6329832 0 0 0 0.219363,0.153342 7.6329832,7.6329832 0 0 1 -0.219363,-0.153342 z m 0.426658,0.293194 a 7.6329832,7.6329832 0 0 0 0.254149,0.154051 7.6329832,7.6329832 0 0 1 -0.254149,-0.154051 z m 0.423818,0.252019 a 7.6329832,7.6329832 0 0 0 0.315911,0.1647 7.6329832,7.6329832 0 0 1 -0.315911,-0.1647 z m 0.423818,0.216524 a 7.6329832,7.6329832 0 0 0 0.363475,0.16186 7.6329832,7.6329832 0 0 1 -0.363475,-0.16186 z" />
      <path
         id="path5205"
         style="fill:#000348;fill-opacity:0.02006321;stroke-width:0.363475"
         d="m 17.578025,8.6316836 c -1.127646,0 -2.03532,0.9076733 -2.03532,2.0353204 v 0.954122 a 7.6329832,7.6329832 0 0 0 -2.407315,1.39072 l -0.827048,-0.477062 c -0.976571,-0.563823 -2.216907,-0.231161 -2.7807311,0.745409 l -0.509008,0.880292 c -0.563823,0.976571 -0.231161,2.216905 0.745409,2.780729 l 0.8235011,0.475641 a 7.6329832,7.6329832 0 0 0 -0.133465,1.39214 7.6329832,7.6329832 0 0 0 0.133465,1.392139 l -0.8235011,0.475641 c -0.97657,0.563822 -1.309232,1.804159 -0.745409,2.780729 l 0.509008,0.880292 c 0.5638241,0.976571 1.8041601,1.309232 2.7807311,0.745409 l 0.690035,-0.398262 v -5.875948 a 5.0886555,5.0886555 0 0 1 5.088656,-5.088656 5.0886555,5.0886555 0 0 1 5.088655,5.088656 5.0886555,5.0886555 0 0 1 -5.088655,5.088655 5.0886555,5.0886555 0 0 1 -2.907804,-0.920047 v 2.874437 a 7.6329832,7.6329832 0 0 0 0.363476,0.142693 v 0.956252 c 0,1.127646 0.907674,2.03532 2.03532,2.03532 h 1.018015 c 1.127647,0 2.03532,-0.907674 2.03532,-2.03532 v -0.959802 a 7.6329832,7.6329832 0 0 0 2.407315,-1.38504 l 0.827048,0.477062 c 0.97657,0.563823 2.216905,0.231162 2.780729,-0.745409 l 0.509007,-0.880292 c 0.563823,-0.97657 0.231162,-2.216907 -0.745408,-2.780729 l -0.823499,-0.475641 a 7.6329832,7.6329832 0 0 0 0.133464,-1.392139 7.6329832,7.6329832 0 0 0 -0.133464,-1.39214 l 0.823499,-0.475641 c 0.97657,-0.563824 1.309231,-1.804158 0.745408,-2.780729 l -0.509007,-0.880292 c -0.563824,-0.97657 -1.804159,-1.309232 -2.780729,-0.745409 l -0.821369,0.474222 A 7.6329832,7.6329832 0 0 0 20.63136,11.622547 v -0.955543 c 0,-1.1276471 -0.907673,-2.0353204 -2.03532,-2.0353204 z m 0.509008,7.2695074 a 2.907803,2.907803 0 0 0 -2.907804,2.907804 2.907803,2.907803 0 0 0 2.907804,2.907803 2.907803,2.907803 0 0 0 2.907803,-2.907803 2.907803,2.907803 0 0 0 -2.907803,-2.907804 z m -4.561191,9.020863 a 7.6329832,7.6329832 0 0 0 0.219363,0.153342 7.6329832,7.6329832 0 0 1 -0.219363,-0.153342 z m 0.426658,0.293194 a 7.6329832,7.6329832 0 0 0 0.254149,0.154051 7.6329832,7.6329832 0 0 1 -0.254149,-0.154051 z m 0.423818,0.252019 a 7.6329832,7.6329832 0 0 0 0.315911,0.1647 7.6329832,7.6329832 0 0 1 -0.315911,-0.1647 z m 0.423818,0.216524 a 7.6329832,7.6329832 0 0 0 0.363475,0.16186 7.6329832,7.6329832 0 0 1 -0.363475,-0.16186 z" />
    </g>
    <path
       id="path4"
       style="fill:url(#linearGradient2461);stroke-width:0.363475;fill-opacity:1"
       d="m 16.592625,6.8957276 c -1.127646,0 -2.03532,0.9076733 -2.03532,2.03532 V 9.8851701 A 7.6329832,7.6329832 0 0 0 12.14999,11.27589 L 11.322942,10.798828 C 10.346371,10.235005 9.1060366,10.567667 8.5422126,11.544237 l -0.509008,0.880292 c -0.563823,0.976571 -0.231161,2.216905 0.745409,2.780729 l 0.8234993,0.475641 a 7.6329832,7.6329832 0 0 0 -0.1334643,1.39214 7.6329832,7.6329832 0 0 0 0.1334643,1.392139 l -0.8234993,0.475641 c -0.97657,0.563822 -1.309232,1.804159 -0.745409,2.780729 l 0.509008,0.880292 c 0.563824,0.976571 1.8041584,1.309232 2.7807294,0.745409 l 0.690035,-0.398262 v -5.875948 a 5.0886555,5.0886555 0 0 1 5.088656,-5.088656 5.0886555,5.0886555 0 0 1 5.088655,5.088656 5.0886555,5.0886555 0 0 1 -5.088655,5.088655 5.0886555,5.0886555 0 0 1 -2.907804,-0.920047 v 2.874437 a 7.6329832,7.6329832 0 0 0 0.363476,0.142693 v 0.956252 c 0,1.127646 0.907674,2.03532 2.03532,2.03532 h 1.018015 c 1.127647,0 2.03532,-0.907674 2.03532,-2.03532 v -0.959802 a 7.6329832,7.6329832 0 0 0 2.407315,-1.38504 l 0.827048,0.477062 c 0.97657,0.563823 2.216905,0.231162 2.780729,-0.745409 l 0.509007,-0.880292 c 0.563823,-0.97657 0.231162,-2.216907 -0.745408,-2.780729 l -0.823499,-0.475641 a 7.6329832,7.6329832 0 0 0 0.133464,-1.392139 7.6329832,7.6329832 0 0 0 -0.133464,-1.39214 l 0.823499,-0.475641 c 0.97657,-0.563824 1.309231,-1.804158 0.745408,-2.780729 l -0.509007,-0.880292 c -0.563824,-0.97657 -1.804159,-1.309232 -2.780729,-0.745409 L 22.058954,11.27305 A 7.6329832,7.6329832 0 0 0 19.64596,9.8865911 V 8.9310476 c 0,-1.1276467 -0.907673,-2.03532 -2.03532,-2.03532 z m 0.509008,7.2695074 a 2.907803,2.907803 0 0 0 -2.907804,2.907804 2.907803,2.907803 0 0 0 2.907804,2.907803 2.907803,2.907803 0 0 0 2.907803,-2.907803 2.907803,2.907803 0 0 0 -2.907803,-2.907804 z m -4.561191,9.020863 a 7.6329832,7.6329832 0 0 0 0.219363,0.153342 7.6329832,7.6329832 0 0 1 -0.219363,-0.153342 z m 0.426658,0.293194 a 7.6329832,7.6329832 0 0 0 0.254149,0.154051 7.6329832,7.6329832 0 0 1 -0.254149,-0.154051 z m 0.423818,0.252019 a 7.6329832,7.6329832 0 0 0 0.315911,0.1647 7.6329832,7.6329832 0 0 1 -0.315911,-0.1647 z m 0.423818,0.216524 a 7.6329832,7.6329832 0 0 0 0.363475,0.16186 7.6329832,7.6329832 0 0 1 -0.363475,-0.16186 z" />
  </g>
</svg>
