<?xml version="1.0" encoding="UTF-8" standalone="no"?>
<svg
   width="128"
   height="128"
   viewBox="0 0 33.866666 33.866667"
   version="1.1"
   id="svg6"
   sodipodi:docname="pling-store.svg"
   inkscape:version="1.1.2 (0a00cf5339, 2022-02-04)"
   xmlns:inkscape="http://www.inkscape.org/namespaces/inkscape"
   xmlns:sodipodi="http://sodipodi.sourceforge.net/DTD/sodipodi-0.dtd"
   xmlns:xlink="http://www.w3.org/1999/xlink"
   xmlns="http://www.w3.org/2000/svg"
   xmlns:svg="http://www.w3.org/2000/svg"
   xmlns:rdf="http://www.w3.org/1999/02/22-rdf-syntax-ns#"
   xmlns:cc="http://creativecommons.org/ns#"
   xmlns:dc="http://purl.org/dc/elements/1.1/">
  <metadata
     id="metadata112">
    <rdf:RDF>
      <cc:Work
         rdf:about="">
        <dc:format>image/svg+xml</dc:format>
        <dc:type
           rdf:resource="http://purl.org/dc/dcmitype/StillImage" />
      </cc:Work>
    </rdf:RDF>
  </metadata>
  <defs
     id="defs2">
    <linearGradient
       inkscape:collect="always"
       id="linearGradient4205">
      <stop
         style="stop-color:#ffffff;stop-opacity:1;"
         offset="0"
         id="stop4201" />
      <stop
         style="stop-color:#ee4501;stop-opacity:1"
         offset="1"
         id="stop4203" />
    </linearGradient>
    <linearGradient
       inkscape:collect="always"
       id="linearGradient3839">
      <stop
         style="stop-color:#fa7816;stop-opacity:1;"
         offset="0"
         id="stop3835" />
      <stop
         style="stop-color:#dd650a;stop-opacity:1"
         offset="1"
         id="stop3837" />
    </linearGradient>
    <linearGradient
       inkscape:collect="always"
       id="linearGradient1516">
      <stop
         style="stop-color:#b83201;stop-opacity:1;"
         offset="0"
         id="stop1512" />
      <stop
         style="stop-color:#8d0159;stop-opacity:1"
         offset="1"
         id="stop1514" />
    </linearGradient>
    <linearGradient
       inkscape:collect="always"
       id="linearGradient9598">
      <stop
         style="stop-color:#e6f9ff;stop-opacity:1"
         offset="0"
         id="stop9594" />
      <stop
         style="stop-color:#caf9fe;stop-opacity:1"
         offset="1"
         id="stop9596" />
    </linearGradient>
    <linearGradient
       gradientTransform="translate(0,-896)"
       gradientUnits="userSpaceOnUse"
       y2="992"
       x2="32"
       y1="32"
       x1="32"
       id="lgrad">
      <stop
         id="stop2"
         stop-color="#f8f8f8"
         offset="0%" />
      <stop
         id="stop4"
         stop-color="#ccc"
         offset="100%" />
    </linearGradient>
    <radialGradient
       gradientTransform="translate(0,-896)"
       gradientUnits="userSpaceOnUse"
       r="440"
       cy="512"
       cx="512"
       fy="494.39999"
       fx="512"
       y2="100%"
       x2="0%"
       y1="0%"
       x1="0%"
       id="rgrad">
      <stop
         id="stop7"
         stop-color="#00f0ff"
         offset="0%" />
      <stop
         id="stop9"
         stop-color="#0070e0"
         offset="100%" />
    </radialGradient>
    <radialGradient
       id="rgrad-3"
       x1="0%"
       y1="0%"
       x2="0%"
       y2="100%"
       fx="523.57568"
       fy="306.1813"
       cx="523.57568"
       cy="306.1813"
       r="440"
       gradientUnits="userSpaceOnUse"
       gradientTransform="matrix(0.03099337,0,0,0.03032562,85.198869,42.985295)">
      <stop
         offset="0%"
         stop-color="#00f0ff"
         id="stop7-6"
         style="stop-color:#03d7e4;stop-opacity:1" />
      <stop
         offset="100%"
         stop-color="#0070e0"
         id="stop9-7" />
    </radialGradient>
    <filter
       y="-0.012004"
       x="-0.011996"
       width="1.023993"
       height="1.024007"
       color-interpolation-filters="sRGB"
       id="b">
      <feGaussianBlur
         id="feGaussianBlur7"
         stdDeviation=".47521291" />
    </filter>
    <linearGradient
       y2="-319.05783"
       y1="-73.89106"
       x2="-376.36255"
       x1="-350.6571"
       gradientUnits="userSpaceOnUse"
       id="k">
      <stop
         id="stop50"
         stop-color="#83a3d4"
         offset="0" />
      <stop
         id="stop52"
         stop-color="#6bb5e3"
         offset="1" />
    </linearGradient>
    <linearGradient
       y2="-156.88734"
       y1="-12.925184"
       x2="10.51211"
       x1="-206.76952"
       gradientUnits="userSpaceOnUse"
       id="i">
      <stop
         id="stop40"
         stop-color="#70c2bd"
         offset="0" />
      <stop
         id="stop42"
         stop-color="#67c381"
         offset="1" />
    </linearGradient>
    <linearGradient
       y2="-149.18999"
       y1="117.30138"
       x2="148.51404"
       x1="134.56509"
       gradientUnits="userSpaceOnUse"
       id="e">
      <stop
         id="stop20"
         stop-color="#faaa32"
         offset="0" />
      <stop
         id="stop22"
         stop-color="#fdc22b"
         offset="1" />
    </linearGradient>
    <linearGradient
       y2="144.89951"
       y1="144.89951"
       x2="123.35784"
       x1="-146.054"
       gradientUnits="userSpaceOnUse"
       id="c">
      <stop
         id="stop10"
         stop-color="#a0cf63"
         offset="0" />
      <stop
         id="stop12"
         stop-color="#c4da45"
         offset="1" />
    </linearGradient>
    <linearGradient
       y2="-150.01163"
       y1="-12.740612"
       x2="28.495264"
       x1="206.7137"
       gradientUnits="userSpaceOnUse"
       id="m">
      <stop
         id="stop60"
         stop-color="#b28cc0"
         offset="0" />
      <stop
         id="stop62"
         stop-color="#9a8ec4"
         offset="1" />
    </linearGradient>
    <linearGradient
       y2="76.406288"
       y1="147.05296"
       x2="-19.617525"
       x1="189.94229"
       gradientUnits="userSpaceOnUse"
       id="q">
      <stop
         id="stop80"
         stop-color="#f48155"
         offset="0" />
      <stop
         id="stop82"
         stop-color="#f16168"
         offset="1" />
    </linearGradient>
    <linearGradient
       y2="34.179653"
       y1="308.30261"
       x2="21.156284"
       x1="116.504"
       gradientUnits="userSpaceOnUse"
       id="l">
      <stop
         id="stop55"
         stop-color="#735194"
         offset="0" />
      <stop
         id="stop57"
         stop-color="#525da3"
         offset="1" />
    </linearGradient>
    <linearGradient
       y2="-107.16671"
       y1="111.50156"
       x2="123.3283"
       x1="30.131145"
       gradientUnits="userSpaceOnUse"
       id="j">
      <stop
         id="stop45"
         stop-color="#416db9"
         offset="0" />
      <stop
         id="stop47"
         stop-color="#337e8d"
         offset="1" />
    </linearGradient>
    <linearGradient
       y2="0.071801998"
       y1="133.12218"
       x2="205.55051"
       x1="-103.67039"
       gradientUnits="userSpaceOnUse"
       id="h">
      <stop
         id="stop35"
         stop-color="#2e9274"
         offset="0" />
      <stop
         id="stop37"
         stop-color="#469d3c"
         offset="1" />
    </linearGradient>
    <linearGradient
       y2="-100.48971"
       y1="120.22743"
       x2="146.80986"
       x1="26.97802"
       gradientUnits="userSpaceOnUse"
       id="f">
      <stop
         id="stop25"
         stop-color="#ec4001"
         offset="0" />
      <stop
         id="stop27"
         stop-color="#fb6f01"
         offset="1" />
    </linearGradient>
    <linearGradient
       y2="73.499695"
       y1="73.499695"
       x2="309.397"
       x1="-14.298616"
       gradientUnits="userSpaceOnUse"
       id="d">
      <stop
         id="stop15"
         stop-color="#58a920"
         offset="0" />
      <stop
         id="stop17"
         stop-color="#98b811"
         offset="1" />
    </linearGradient>
    <linearGradient
       y2="144.897"
       y1="144.897"
       x2="145.987"
       x1="-123.11901"
       gradientUnits="userSpaceOnUse"
       id="o">
      <stop
         id="stop70"
         stop-color="#d287af"
         offset="0" />
      <stop
         id="stop72"
         stop-color="#e07993"
         offset="1" />
    </linearGradient>
    <linearGradient
       y2="-71.695564"
       y1="-71.695564"
       x2="117.81888"
       x1="-205.78"
       gradientUnits="userSpaceOnUse"
       id="p">
      <stop
         id="stop75"
         stop-color="#bd090f"
         offset="0" />
      <stop
         id="stop77"
         stop-color="#e11f07"
         offset="1" />
    </linearGradient>
    <linearGradient
       y2="-143.7106"
       y1="-14.582834"
       x2="-308.72031"
       x1="0.176406"
       gradientUnits="userSpaceOnUse"
       id="n">
      <stop
         id="stop65"
         stop-color="#c23857"
         offset="0" />
      <stop
         id="stop67"
         stop-color="#914475"
         offset="1" />
    </linearGradient>
    <linearGradient
       y2="319.1076"
       y1="108.52529"
       x2="117.31723"
       x1="41.409683"
       gradientUnits="userSpaceOnUse"
       id="g">
      <stop
         id="stop30"
         stop-color="#e69e08"
         offset="0" />
      <stop
         id="stop32"
         stop-color="#cbc507"
         offset="1" />
    </linearGradient>
    <clipPath
       clipPathUnits="userSpaceOnUse"
       id="clipPath988">
      <path
         inkscape:connector-curvature="0"
         id="path990"
         d="m 35.277533,4.8347742 c -1.06882,0 -1.309413,0.04675 -2.013853,0.392625 -1.020627,0.501128 -1.883036,1.364674 -2.336311,2.339206 -0.481406,1.03502 -0.568641,2.6184458 -0.197896,3.5922488 0.140901,0.370015 1.429682,2.698881 2.86402,5.175363 1.434338,2.476487 2.611234,4.595724 2.61541,4.709424 0.0042,0.113688 -3.531125,6.334964 -7.856213,13.824976 l -7.863836,13.618156 -7.139025,0.03916 -7.139025,0.03916 -0.8073291,0.376593 c -1.051601,0.490639 -1.970446,1.40527 -2.445113,2.434046 -0.3216,0.696997 -0.379476,0.996457 -0.380012,1.966023 0,0.971641 0.05616,1.265185 0.376327,1.951045 0.637629,1.365989 1.898733,2.419094 3.2892361,2.746809 0.281273,0.06633 10.618178,0.124914 23.325022,0.132473 l 22.819654,0.01361 0.256479,-0.283805 c 0.216038,-0.239093 0.255118,-0.487596 0.248882,-1.581025 -0.0189,-3.316188 -1.931637,-6.482045 -4.549373,-7.530599 -0.489196,-0.195931 -1.533509,-0.231269 -8.637256,-0.29144 l -8.08091,-0.0683 2.306623,-3.969369 c 14.3518,-24.696073 18.987433,-32.733748 19.206907,-33.302314 0.20262,-0.52495 0.24771,-0.909294 0.204472,-1.7492148 -0.09808,-1.904613 -1.044956,-3.351023 -2.737875,-4.18224 -0.704012,-0.345675 -0.945268,-0.392625 -2.010963,-0.392625 -1.052802,0 -1.321515,0.05095 -2.057484,0.390785 -1.167076,0.538919 -1.872808,1.368347 -3.31446,3.895786 -0.660329,1.1576538 -1.242524,2.1047838 -1.293778,2.1047838 -0.05125,0 -0.630999,-0.945267 -1.28852,-2.1005778 -1.448648,-2.545391 -2.050182,-3.257155 -3.253497,-3.849543 -0.812451,-0.399969 -1.01046,-0.441249 -2.110307,-0.441249 z M 49.110404,23.744718 c -0.285052,-0.0087 -1.023209,0.716568 -1.535558,1.509279 -1.775618,2.747225 -2.483305,8.398153 -1.495344,11.941736 0.187616,0.672892 2.517264,4.805847 10.124725,17.962541 5.434495,9.398653 10.088246,17.318774 10.3418,17.600398 1.359961,1.510458 3.608912,1.953759 5.532775,1.090367 1.81737,-0.815577 2.951799,-2.750339 2.783338,-4.747257 -0.04135,-0.490442 -0.197291,-1.164166 -0.346356,-1.497188 -0.149102,-0.333014 -1.413335,-2.573367 -2.80936,-4.978533 l -2.538146,-4.373023 4.245585,-0.06724 4.245578,-0.06724 0.80731,-0.376856 c 1.05162,-0.490659 1.97046,-1.405301 2.44512,-2.434077 0.3216,-0.696994 0.37922,-0.996189 0.37974,-1.965762 0,-0.971433 -0.0559,-1.265326 -0.37579,-1.951045 -0.49034,-1.050928 -1.40549,-1.970162 -2.43432,-2.445638 l -0.82208,-0.3801 -7.067028,-0.03916 -7.067025,-0.03916 -7.128514,-12.368531 C 52.476142,29.315485 49.197231,23.747405 49.110404,23.744688 Z M 15.439636,60.404073 c -0.763389,0.0016 -1.409144,0.06781 -1.678779,0.206022 -0.288567,0.147968 -0.803312,0.910405 -1.996774,2.957843 -2.398908,4.115433 -2.580215,4.526623 -2.57704,5.844722 0.0049,2.086968 1.140506,3.734498 3.126035,4.535698 0.906267,0.365707 2.788868,0.284787 3.720231,-0.159799 1.242573,-0.593091 1.82259,-1.364647 4.446614,-5.914889 l 2.444326,-4.238441 -0.216302,-0.385009 c -0.575391,-1.024661 -2.29615,-2.042038 -4.291037,-2.537091 -0.820147,-0.203528 -1.99578,-0.310526 -2.977289,-0.309052 z"
         style="opacity:1;fill:url(#linearGradient992);fill-opacity:1;stroke:none;stroke-width:0.10764397;stroke-linecap:round;stroke-linejoin:round;stroke-miterlimit:4;stroke-dasharray:none;stroke-opacity:1" />
    </clipPath>
    <linearGradient
       inkscape:collect="always"
       xlink:href="#linearGradient9598"
       id="linearGradient992"
       gradientUnits="userSpaceOnUse"
       gradientTransform="matrix(3.7795276,0,0,3.7795276,-23.738441,-24.999971)"
       x1="17.757063"
       y1="25.057371"
       x2="17.757063"
       y2="11.635189" />
    <linearGradient
       inkscape:collect="always"
       xlink:href="#f"
       id="linearGradient1263"
       x1="18.405279"
       y1="31.461508"
       x2="18.405279"
       y2="13.075595"
       gradientUnits="userSpaceOnUse" />
    <linearGradient
       inkscape:collect="always"
       xlink:href="#linearGradient1516"
       id="linearGradient1518"
       x1="16.492344"
       y1="6.8743372"
       x2="16.492344"
       y2="18.200363"
       gradientUnits="userSpaceOnUse" />
    <linearGradient
       inkscape:collect="always"
       xlink:href="#linearGradient3839"
       id="linearGradient3841"
       x1="15.392855"
       y1="10.203135"
       x2="15.392855"
       y2="14.465489"
       gradientUnits="userSpaceOnUse" />
    <linearGradient
       inkscape:collect="always"
       xlink:href="#linearGradient4205"
       id="linearGradient4207"
       x1="12.639739"
       y1="14.507621"
       x2="12.639739"
       y2="44.830364"
       gradientUnits="userSpaceOnUse" />
  </defs>
  <sodipodi:namedview
     id="base"
     pagecolor="#ffffff"
     bordercolor="#666666"
     borderopacity="1.0"
     inkscape:pageopacity="0.0"
     inkscape:pageshadow="2"
     inkscape:zoom="0.93981675"
     inkscape:cx="-251.11278"
     inkscape:cy="140.45291"
     inkscape:document-units="mm"
     inkscape:current-layer="layer1"
     showgrid="false"
     units="px"
     inkscape:window-width="1920"
     inkscape:window-height="1050"
     inkscape:window-x="0"
     inkscape:window-y="0"
     inkscape:window-maximized="1"
     inkscape:pagecheckerboard="0" />
  <g
     inkscape:label="Layer 1"
     inkscape:groupmode="layer"
     id="layer1">
    <g
       id="g1702"
       transform="matrix(0.97573206,0,0,0.97573206,-65.682675,-37.233224)"
       style="opacity:0.296765">
      <rect
         style="fill:none;fill-opacity:1;stroke:#000000;stroke-width:0.1;stroke-linecap:round;stroke-linejoin:round;stroke-miterlimit:4;stroke-dasharray:none;stroke-opacity:0.02"
         id="rect1634"
         width="29.810888"
         height="29.810888"
         x="69.839508"
         y="40.709618"
         rx="6.6098609"
         ry="6.6098609" />
      <rect
         ry="6.6098609"
         rx="6.6098609"
         y="40.709618"
         x="69.839508"
         height="29.810888"
         width="29.810888"
         id="rect1638"
         style="fill:none;fill-opacity:1;stroke:#000000;stroke-width:0.2;stroke-linecap:round;stroke-linejoin:round;stroke-miterlimit:4;stroke-dasharray:none;stroke-opacity:0.02" />
      <rect
         style="fill:none;fill-opacity:1;stroke:#000000;stroke-width:0.3;stroke-linecap:round;stroke-linejoin:round;stroke-miterlimit:4;stroke-dasharray:none;stroke-opacity:0.02"
         id="rect1640"
         width="29.810888"
         height="29.810888"
         x="69.839508"
         y="40.709618"
         rx="6.6098609"
         ry="6.6098609" />
      <rect
         ry="6.6098609"
         rx="6.6098609"
         y="40.709618"
         x="69.839508"
         height="29.810888"
         width="29.810888"
         id="rect1642"
         style="fill:none;fill-opacity:1;stroke:#000000;stroke-width:0.4;stroke-linecap:round;stroke-linejoin:round;stroke-miterlimit:4;stroke-dasharray:none;stroke-opacity:0.02" />
      <rect
         style="fill:none;fill-opacity:1;stroke:#000000;stroke-width:0.5;stroke-linecap:round;stroke-linejoin:round;stroke-miterlimit:4;stroke-dasharray:none;stroke-opacity:0.02"
         id="rect1644"
         width="29.810888"
         height="29.810888"
         x="69.839508"
         y="40.709618"
         rx="6.6098609"
         ry="6.6098609" />
      <rect
         ry="6.6098609"
         rx="6.6098609"
         y="40.709618"
         x="69.839508"
         height="29.810888"
         width="29.810888"
         id="rect1646"
         style="fill:none;fill-opacity:1;stroke:#000000;stroke-width:0.6;stroke-linecap:round;stroke-linejoin:round;stroke-miterlimit:4;stroke-dasharray:none;stroke-opacity:0.02" />
      <rect
         style="fill:none;fill-opacity:1;stroke:#000000;stroke-width:0.7;stroke-linecap:round;stroke-linejoin:round;stroke-miterlimit:4;stroke-dasharray:none;stroke-opacity:0.02"
         id="rect1648"
         width="29.810888"
         height="29.810888"
         x="69.839508"
         y="40.709618"
         rx="6.6098609"
         ry="6.6098609" />
      <rect
         ry="6.6098609"
         rx="6.6098609"
         y="40.709618"
         x="69.839508"
         height="29.810888"
         width="29.810888"
         id="rect1650"
         style="fill:none;fill-opacity:1;stroke:#000000;stroke-width:0.8;stroke-linecap:round;stroke-linejoin:round;stroke-miterlimit:4;stroke-dasharray:none;stroke-opacity:0.02" />
      <rect
         style="fill:none;fill-opacity:1;stroke:#000000;stroke-width:1;stroke-linecap:round;stroke-linejoin:round;stroke-miterlimit:4;stroke-dasharray:none;stroke-opacity:0.02"
         id="rect1652"
         width="29.810888"
         height="29.810888"
         x="69.839508"
         y="40.709618"
         rx="6.6098609"
         ry="6.6098609" />
      <rect
         ry="6.6098609"
         rx="6.6098609"
         y="40.709618"
         x="69.839508"
         height="29.810888"
         width="29.810888"
         id="rect1654"
         style="fill:none;fill-opacity:1;stroke:#000000;stroke-width:1.2;stroke-linecap:round;stroke-linejoin:round;stroke-miterlimit:4;stroke-dasharray:none;stroke-opacity:0.02" />
      <rect
         style="fill:none;fill-opacity:1;stroke:#000000;stroke-width:1.4;stroke-linecap:round;stroke-linejoin:round;stroke-miterlimit:4;stroke-dasharray:none;stroke-opacity:0.02"
         id="rect1656"
         width="29.810888"
         height="29.810888"
         x="69.839508"
         y="40.709618"
         rx="6.6098609"
         ry="6.6098609" />
      <rect
         ry="6.6098609"
         rx="6.6098609"
         y="40.709618"
         x="69.839508"
         height="29.810888"
         width="29.810888"
         id="rect1658"
         style="fill:none;fill-opacity:1;stroke:#000000;stroke-width:1.6;stroke-linecap:round;stroke-linejoin:round;stroke-miterlimit:4;stroke-dasharray:none;stroke-opacity:0.02" />
      <rect
         style="fill:none;fill-opacity:1;stroke:#000000;stroke-width:1.8;stroke-linecap:round;stroke-linejoin:round;stroke-miterlimit:4;stroke-dasharray:none;stroke-opacity:0.02"
         id="rect1660"
         width="29.810888"
         height="29.810888"
         x="69.839508"
         y="40.709618"
         rx="6.6098609"
         ry="6.6098609" />
      <rect
         ry="6.6098609"
         rx="6.6098609"
         y="40.709618"
         x="69.839508"
         height="29.810888"
         width="29.810888"
         id="rect1662"
         style="fill:none;fill-opacity:1;stroke:#000000;stroke-width:2;stroke-linecap:round;stroke-linejoin:round;stroke-miterlimit:4;stroke-dasharray:none;stroke-opacity:0.02" />
      <rect
         style="fill:none;fill-opacity:1;stroke:#000000;stroke-width:2.2;stroke-linecap:round;stroke-linejoin:round;stroke-miterlimit:4;stroke-dasharray:none;stroke-opacity:0.02"
         id="rect1664"
         width="29.810888"
         height="29.810888"
         x="69.839508"
         y="40.709618"
         rx="6.6098609"
         ry="6.6098609" />
      <rect
         ry="6.6098609"
         rx="6.6098609"
         y="40.709618"
         x="69.839508"
         height="29.810888"
         width="29.810888"
         id="rect1666"
         style="fill:none;fill-opacity:1;stroke:#000000;stroke-width:2.6;stroke-linecap:round;stroke-linejoin:round;stroke-miterlimit:4;stroke-dasharray:none;stroke-opacity:0.02" />
      <rect
         style="fill:none;fill-opacity:1;stroke:#000000;stroke-width:3;stroke-linecap:round;stroke-linejoin:round;stroke-miterlimit:4;stroke-dasharray:none;stroke-opacity:0.02"
         id="rect1668"
         width="29.810888"
         height="29.810888"
         x="69.839508"
         y="40.709618"
         rx="6.6098609"
         ry="6.6098609" />
      <rect
         ry="6.6098609"
         rx="6.6098609"
         y="40.709618"
         x="69.839508"
         height="29.810888"
         width="29.810888"
         id="rect1670"
         style="fill:none;fill-opacity:1;stroke:#000000;stroke-width:3.4;stroke-linecap:round;stroke-linejoin:round;stroke-miterlimit:4;stroke-dasharray:none;stroke-opacity:0.02" />
      <rect
         style="fill:none;fill-opacity:1;stroke:#000000;stroke-width:3.8;stroke-linecap:round;stroke-linejoin:round;stroke-miterlimit:4;stroke-dasharray:none;stroke-opacity:0.02"
         id="rect1672"
         width="29.810888"
         height="29.810888"
         x="69.839508"
         y="40.709618"
         rx="6.6098609"
         ry="6.6098609" />
      <rect
         ry="6.6098609"
         rx="6.6098609"
         y="40.709618"
         x="69.839508"
         height="29.810888"
         width="29.810888"
         id="rect1674"
         style="fill:none;fill-opacity:1;stroke:#000000;stroke-width:4.2;stroke-linecap:round;stroke-linejoin:round;stroke-miterlimit:4;stroke-dasharray:none;stroke-opacity:0.02" />
      <rect
         style="fill:none;fill-opacity:1;stroke:#000000;stroke-width:4.6;stroke-linecap:round;stroke-linejoin:round;stroke-miterlimit:4;stroke-dasharray:none;stroke-opacity:0.02"
         id="rect1676"
         width="29.810888"
         height="29.810888"
         x="69.839508"
         y="40.709618"
         rx="6.6098609"
         ry="6.6098609" />
      <rect
         ry="6.6098609"
         rx="6.6098609"
         y="40.709618"
         x="69.839508"
         height="29.810888"
         width="29.810888"
         id="rect1678"
         style="fill:none;fill-opacity:1;stroke:#000000;stroke-width:5;stroke-linecap:round;stroke-linejoin:round;stroke-miterlimit:4;stroke-dasharray:none;stroke-opacity:0.02" />
    </g>
    <rect
       style="fill:url(#linearGradient1518);fill-opacity:1;stroke-width:2.68768;stroke-linecap:round;stroke-linejoin:round"
       id="rect849"
       width="29.087439"
       height="29.087439"
       x="2.4619725"
       y="2.4884555"
       rx="6.4494534"
       ry="6.4494534" />
    <path
       style="fill:none;stroke:url(#linearGradient3841);stroke-width:2;stroke-linecap:butt;stroke-linejoin:miter;stroke-miterlimit:4;stroke-dasharray:none;stroke-opacity:1"
       d="m 9.566308,14.604515 c 0,0 -0.215254,-7.3990638 7.439391,-7.3563296 7.654645,0.042734 7.439391,7.5224536 7.439391,7.5224536"
       id="path1553"
       sodipodi:nodetypes="czc" />
    <path
       id="rect1025"
       style="fill:url(#linearGradient1263);stroke-width:2.68768;stroke-linecap:round;stroke-linejoin:round;fill-opacity:1"
       d="m 31.549411,12.985042 v 12.141399 c 0,3.572997 -2.876456,6.449453 -6.449453,6.449453 H 8.9114258 c -3.5729971,0 -6.4494533,-2.876456 -6.4494533,-6.449453 V 12.985042 Z"
       sodipodi:nodetypes="ccssccc" />
    <path
       id="path3976"
       style="fill:#fafafa;fill-opacity:0.0952845;stroke-width:10.1582;stroke-linecap:round;stroke-linejoin:round"
       d="M 9.3046875 49.078125 L 9.3046875 51.837891 L 119.24219 51.837891 L 119.24219 49.078125 L 9.3046875 49.078125 z "
       transform="scale(0.26458333)" />
    <g
       id="g5906"
       style="opacity:0.32535078">
      <path
         style="fill:#550000;fill-opacity:0.130965;stroke-width:0.459571"
         d="m 17.499616,15.462509 c -0.265388,0.0069 -0.535209,0.04061 -0.805147,0.102326 -0.874717,0.196222 -1.764307,0.424272 -2.553676,0.624731 -0.720045,0.148494 -1.430768,0.935519 -1.308703,1.578881 l 2.384029,10.595288 c 0.147243,0.654633 0.887344,1.026844 1.659665,0.832973 0.772318,-0.193869 1.276417,-0.876674 1.129181,-1.531308 l -0.878751,-3.900975 c 0.409198,-0.111775 0.86642,-0.216994 1.25754,-0.291721 2.184794,-0.548065 3.557579,-2.759728 3.067105,-4.939501 -0.42425,-1.876253 -2.093521,-3.119766 -3.951243,-3.070694 z m 0.122074,2.296962 a 1.5018923,1.8283818 78.314213 0 1 1.595936,1.103153 1.5018923,1.8283818 78.314213 0 1 -1.426289,1.873294 1.5018923,1.8283818 78.314213 0 1 -0.03052,0.0045 l -1.014287,0.235155 -0.7109,-2.919 1.04391,-0.240557 a 1.5018923,1.8283818 78.314213 0 1 0.542152,-0.05656 z"
         id="path5750" />
      <path
         style="fill:#550000;fill-opacity:0.130965;stroke-width:0.459571"
         d="m 17.691346,15.651496 c -0.265388,0.0069 -0.535209,0.04061 -0.805147,0.102326 -0.874717,0.196222 -1.764307,0.424272 -2.553676,0.624731 -0.720045,0.148494 -1.430768,0.935519 -1.308703,1.578881 l 2.384029,10.595288 c 0.147243,0.654633 0.887344,1.026844 1.659665,0.832973 0.772318,-0.193869 1.276417,-0.876674 1.129181,-1.531308 l -0.878751,-3.900975 c 0.409198,-0.111775 0.86642,-0.216994 1.25754,-0.291721 2.184794,-0.548065 3.557579,-2.759728 3.067105,-4.939501 -0.42425,-1.876253 -2.093521,-3.119766 -3.951243,-3.070694 z m 0.122074,2.296962 a 1.5018923,1.8283818 78.314213 0 1 1.595936,1.103153 1.5018923,1.8283818 78.314213 0 1 -1.426289,1.873294 1.5018923,1.8283818 78.314213 0 1 -0.03052,0.0045 l -1.014287,0.235155 -0.7109,-2.919 1.04391,-0.240557 a 1.5018923,1.8283818 78.314213 0 1 0.542152,-0.05656 z"
         id="path5896" />
      <path
         style="fill:#550000;fill-opacity:0.130965;stroke-width:0.459571"
         d="m 17.91948,15.950689 c -0.265388,0.0069 -0.535209,0.04061 -0.805147,0.102326 -0.874717,0.196222 -1.764307,0.424272 -2.553676,0.624731 -0.720045,0.148494 -1.430768,0.935519 -1.308703,1.578881 l 2.384029,10.595288 c 0.147243,0.654633 0.887344,1.026844 1.659665,0.832973 0.772318,-0.193869 1.276417,-0.876674 1.129181,-1.531308 l -0.878751,-3.900975 c 0.409198,-0.111775 0.86642,-0.216994 1.25754,-0.291721 2.184794,-0.548065 3.557579,-2.759728 3.067105,-4.939501 -0.42425,-1.876253 -2.093521,-3.119766 -3.951243,-3.070694 z m 0.122074,2.296962 a 1.5018923,1.8283818 78.314213 0 1 1.595936,1.103153 1.5018923,1.8283818 78.314213 0 1 -1.426289,1.873294 1.5018923,1.8283818 78.314213 0 1 -0.03052,0.0045 l -1.014287,0.235155 -0.7109,-2.919 1.04391,-0.240557 a 1.5018923,1.8283818 78.314213 0 1 0.542152,-0.05656 z"
         id="path5898" />
      <path
         style="fill:#550000;fill-opacity:0.130965;stroke-width:0.459571"
         d="m 18.161043,16.2973 c -0.265388,0.0069 -0.535209,0.04061 -0.805147,0.102326 -0.874717,0.196222 -1.764307,0.424272 -2.553676,0.624731 -0.720045,0.148494 -1.430768,0.935519 -1.308703,1.578881 l 2.384029,10.595288 c 0.147243,0.654633 0.887344,1.026844 1.659665,0.832973 0.772318,-0.193869 1.276417,-0.876674 1.129181,-1.531308 l -0.878751,-3.900975 c 0.409198,-0.111775 0.86642,-0.216994 1.25754,-0.291721 2.184794,-0.548065 3.557579,-2.759728 3.067105,-4.939501 -0.42425,-1.876253 -2.093521,-3.119766 -3.951243,-3.070694 z m 0.122074,2.296962 a 1.5018923,1.8283818 78.314213 0 1 1.595936,1.103153 1.5018923,1.8283818 78.314213 0 1 -1.426289,1.873294 1.5018923,1.8283818 78.314213 0 1 -0.03052,0.0045 l -1.014287,0.235155 -0.7109,-2.919 1.04391,-0.240557 a 1.5018923,1.8283818 78.314213 0 1 0.542152,-0.05656 z"
         id="path5900" />
    </g>
    <path
       style="fill:url(#linearGradient4207);stroke-width:0.459571;fill-opacity:1"
       d="m 17.321027,15.328826 c -0.265388,0.0069 -0.535209,0.04061 -0.805147,0.102326 -0.874717,0.196222 -1.764307,0.424272 -2.553676,0.624731 -0.720045,0.148494 -1.430768,0.935519 -1.308703,1.578881 l 2.384029,10.595288 c 0.147243,0.654633 0.887344,1.026844 1.659665,0.832973 0.772318,-0.193869 1.276417,-0.876674 1.129181,-1.531308 l -0.878751,-3.900975 c 0.409198,-0.111775 0.86642,-0.216994 1.25754,-0.291721 2.184794,-0.548065 3.557579,-2.759728 3.067105,-4.939501 -0.42425,-1.876253 -2.093521,-3.119766 -3.951243,-3.070693 z m 0.122074,2.296962 a 1.5018923,1.8283818 78.314213 0 1 1.595936,1.103153 1.5018923,1.8283818 78.314213 0 1 -1.426289,1.873294 1.5018923,1.8283818 78.314213 0 1 -0.03052,0.0045 l -1.014287,0.235155 -0.7109,-2.919 1.04391,-0.240557 a 1.5018923,1.8283818 78.314213 0 1 0.542152,-0.05656 z"
       id="path14" />
  </g>
</svg>
