<?xml version="1.0" encoding="UTF-8" standalone="no"?>
<svg
   width="128"
   height="128"
   viewBox="0 0 33.866666 33.866668"
   version="1.1"
   id="svg2312"
   inkscape:version="1.1.2 (0a00cf5339, 2022-02-04)"
   sodipodi:docname="polychromatic.svg"
   xmlns:inkscape="http://www.inkscape.org/namespaces/inkscape"
   xmlns:sodipodi="http://sodipodi.sourceforge.net/DTD/sodipodi-0.dtd"
   xmlns:xlink="http://www.w3.org/1999/xlink"
   xmlns="http://www.w3.org/2000/svg"
   xmlns:svg="http://www.w3.org/2000/svg"
   xmlns:rdf="http://www.w3.org/1999/02/22-rdf-syntax-ns#"
   xmlns:cc="http://creativecommons.org/ns#"
   xmlns:dc="http://purl.org/dc/elements/1.1/">
  <defs
     id="defs2306">
    <linearGradient
       inkscape:collect="always"
       id="linearGradient1181">
      <stop
         style="stop-color:#ffffff;stop-opacity:1;"
         offset="0"
         id="stop1177" />
      <stop
         style="stop-color:#8d1cc8;stop-opacity:1"
         offset="1"
         id="stop1179" />
    </linearGradient>
    <linearGradient
       inkscape:collect="always"
       xlink:href="#linearGradient1630"
       id="linearGradient1632"
       x1="132.21078"
       y1="42.151531"
       x2="132.21078"
       y2="70.679932"
       gradientUnits="userSpaceOnUse"
       gradientTransform="matrix(0.97573207,0,0,0.97573207,-111.79545,-37.254996)" />
    <linearGradient
       inkscape:collect="always"
       id="linearGradient1630">
      <stop
         style="stop-color:#ef5bf6;stop-opacity:1"
         offset="0"
         id="stop1626" />
      <stop
         style="stop-color:#8416c4;stop-opacity:1"
         offset="1"
         id="stop1628" />
    </linearGradient>
    <linearGradient
       inkscape:collect="always"
       xlink:href="#linearGradient1181"
       id="linearGradient1183"
       x1="15.730485"
       y1="6.4469814"
       x2="15.730485"
       y2="69.079849"
       gradientUnits="userSpaceOnUse"
       gradientTransform="translate(0,-1.4139964)" />
  </defs>
  <sodipodi:namedview
     id="base"
     pagecolor="#ffffff"
     bordercolor="#666666"
     borderopacity="1.0"
     inkscape:pageopacity="0.0"
     inkscape:pageshadow="2"
     inkscape:zoom="2.8"
     inkscape:cx="69.642857"
     inkscape:cy="62.857143"
     inkscape:document-units="mm"
     inkscape:current-layer="layer1"
     inkscape:document-rotation="0"
     showgrid="false"
     units="px"
     inkscape:window-width="1514"
     inkscape:window-height="941"
     inkscape:window-x="50"
     inkscape:window-y="32"
     inkscape:window-maximized="0"
     inkscape:pagecheckerboard="0" />
  <metadata
     id="metadata2309">
    <rdf:RDF>
      <cc:Work
         rdf:about="">
        <dc:format>image/svg+xml</dc:format>
        <dc:type
           rdf:resource="http://purl.org/dc/dcmitype/StillImage" />
      </cc:Work>
    </rdf:RDF>
  </metadata>
  <g
     inkscape:label="Capa 1"
     inkscape:groupmode="layer"
     id="layer1">
    <g
       id="g1702"
       transform="matrix(0.97573206,0,0,0.97573206,-65.76752,-37.255)"
       style="opacity:0.296765">
      <rect
         style="fill:none;fill-opacity:1;stroke:#000000;stroke-width:0.1;stroke-linecap:round;stroke-linejoin:round;stroke-miterlimit:4;stroke-dasharray:none;stroke-opacity:0.02"
         id="rect1634"
         width="29.810888"
         height="29.810888"
         x="69.839508"
         y="40.709618"
         rx="6.6098609"
         ry="6.6098609" />
      <rect
         ry="6.6098609"
         rx="6.6098609"
         y="40.709618"
         x="69.839508"
         height="29.810888"
         width="29.810888"
         id="rect1638"
         style="fill:none;fill-opacity:1;stroke:#000000;stroke-width:0.2;stroke-linecap:round;stroke-linejoin:round;stroke-miterlimit:4;stroke-dasharray:none;stroke-opacity:0.02" />
      <rect
         style="fill:none;fill-opacity:1;stroke:#000000;stroke-width:0.3;stroke-linecap:round;stroke-linejoin:round;stroke-miterlimit:4;stroke-dasharray:none;stroke-opacity:0.02"
         id="rect1640"
         width="29.810888"
         height="29.810888"
         x="69.839508"
         y="40.709618"
         rx="6.6098609"
         ry="6.6098609" />
      <rect
         ry="6.6098609"
         rx="6.6098609"
         y="40.709618"
         x="69.839508"
         height="29.810888"
         width="29.810888"
         id="rect1642"
         style="fill:none;fill-opacity:1;stroke:#000000;stroke-width:0.4;stroke-linecap:round;stroke-linejoin:round;stroke-miterlimit:4;stroke-dasharray:none;stroke-opacity:0.02" />
      <rect
         style="fill:none;fill-opacity:1;stroke:#000000;stroke-width:0.5;stroke-linecap:round;stroke-linejoin:round;stroke-miterlimit:4;stroke-dasharray:none;stroke-opacity:0.02"
         id="rect1644"
         width="29.810888"
         height="29.810888"
         x="69.839508"
         y="40.709618"
         rx="6.6098609"
         ry="6.6098609" />
      <rect
         ry="6.6098609"
         rx="6.6098609"
         y="40.709618"
         x="69.839508"
         height="29.810888"
         width="29.810888"
         id="rect1646"
         style="fill:none;fill-opacity:1;stroke:#000000;stroke-width:0.6;stroke-linecap:round;stroke-linejoin:round;stroke-miterlimit:4;stroke-dasharray:none;stroke-opacity:0.02" />
      <rect
         style="fill:none;fill-opacity:1;stroke:#000000;stroke-width:0.7;stroke-linecap:round;stroke-linejoin:round;stroke-miterlimit:4;stroke-dasharray:none;stroke-opacity:0.02"
         id="rect1648"
         width="29.810888"
         height="29.810888"
         x="69.839508"
         y="40.709618"
         rx="6.6098609"
         ry="6.6098609" />
      <rect
         ry="6.6098609"
         rx="6.6098609"
         y="40.709618"
         x="69.839508"
         height="29.810888"
         width="29.810888"
         id="rect1650"
         style="fill:none;fill-opacity:1;stroke:#000000;stroke-width:0.8;stroke-linecap:round;stroke-linejoin:round;stroke-miterlimit:4;stroke-dasharray:none;stroke-opacity:0.02" />
      <rect
         style="fill:none;fill-opacity:1;stroke:#000000;stroke-width:1;stroke-linecap:round;stroke-linejoin:round;stroke-miterlimit:4;stroke-dasharray:none;stroke-opacity:0.02"
         id="rect1652"
         width="29.810888"
         height="29.810888"
         x="69.839508"
         y="40.709618"
         rx="6.6098609"
         ry="6.6098609" />
      <rect
         ry="6.6098609"
         rx="6.6098609"
         y="40.709618"
         x="69.839508"
         height="29.810888"
         width="29.810888"
         id="rect1654"
         style="fill:none;fill-opacity:1;stroke:#000000;stroke-width:1.2;stroke-linecap:round;stroke-linejoin:round;stroke-miterlimit:4;stroke-dasharray:none;stroke-opacity:0.02" />
      <rect
         style="fill:none;fill-opacity:1;stroke:#000000;stroke-width:1.4;stroke-linecap:round;stroke-linejoin:round;stroke-miterlimit:4;stroke-dasharray:none;stroke-opacity:0.02"
         id="rect1656"
         width="29.810888"
         height="29.810888"
         x="69.839508"
         y="40.709618"
         rx="6.6098609"
         ry="6.6098609" />
      <rect
         ry="6.6098609"
         rx="6.6098609"
         y="40.709618"
         x="69.839508"
         height="29.810888"
         width="29.810888"
         id="rect1658"
         style="fill:none;fill-opacity:1;stroke:#000000;stroke-width:1.6;stroke-linecap:round;stroke-linejoin:round;stroke-miterlimit:4;stroke-dasharray:none;stroke-opacity:0.02" />
      <rect
         style="fill:none;fill-opacity:1;stroke:#000000;stroke-width:1.8;stroke-linecap:round;stroke-linejoin:round;stroke-miterlimit:4;stroke-dasharray:none;stroke-opacity:0.02"
         id="rect1660"
         width="29.810888"
         height="29.810888"
         x="69.839508"
         y="40.709618"
         rx="6.6098609"
         ry="6.6098609" />
      <rect
         ry="6.6098609"
         rx="6.6098609"
         y="40.709618"
         x="69.839508"
         height="29.810888"
         width="29.810888"
         id="rect1662"
         style="fill:none;fill-opacity:1;stroke:#000000;stroke-width:2;stroke-linecap:round;stroke-linejoin:round;stroke-miterlimit:4;stroke-dasharray:none;stroke-opacity:0.02" />
      <rect
         style="fill:none;fill-opacity:1;stroke:#000000;stroke-width:2.2;stroke-linecap:round;stroke-linejoin:round;stroke-miterlimit:4;stroke-dasharray:none;stroke-opacity:0.02"
         id="rect1664"
         width="29.810888"
         height="29.810888"
         x="69.839508"
         y="40.709618"
         rx="6.6098609"
         ry="6.6098609" />
      <rect
         ry="6.6098609"
         rx="6.6098609"
         y="40.709618"
         x="69.839508"
         height="29.810888"
         width="29.810888"
         id="rect1666"
         style="fill:none;fill-opacity:1;stroke:#000000;stroke-width:2.6;stroke-linecap:round;stroke-linejoin:round;stroke-miterlimit:4;stroke-dasharray:none;stroke-opacity:0.02" />
      <rect
         style="fill:none;fill-opacity:1;stroke:#000000;stroke-width:3;stroke-linecap:round;stroke-linejoin:round;stroke-miterlimit:4;stroke-dasharray:none;stroke-opacity:0.02"
         id="rect1668"
         width="29.810888"
         height="29.810888"
         x="69.839508"
         y="40.709618"
         rx="6.6098609"
         ry="6.6098609" />
      <rect
         ry="6.6098609"
         rx="6.6098609"
         y="40.709618"
         x="69.839508"
         height="29.810888"
         width="29.810888"
         id="rect1670"
         style="fill:none;fill-opacity:1;stroke:#000000;stroke-width:3.4;stroke-linecap:round;stroke-linejoin:round;stroke-miterlimit:4;stroke-dasharray:none;stroke-opacity:0.02" />
      <rect
         style="fill:none;fill-opacity:1;stroke:#000000;stroke-width:3.8;stroke-linecap:round;stroke-linejoin:round;stroke-miterlimit:4;stroke-dasharray:none;stroke-opacity:0.02"
         id="rect1672"
         width="29.810888"
         height="29.810888"
         x="69.839508"
         y="40.709618"
         rx="6.6098609"
         ry="6.6098609" />
      <rect
         ry="6.6098609"
         rx="6.6098609"
         y="40.709618"
         x="69.839508"
         height="29.810888"
         width="29.810888"
         id="rect1674"
         style="fill:none;fill-opacity:1;stroke:#000000;stroke-width:4.2;stroke-linecap:round;stroke-linejoin:round;stroke-miterlimit:4;stroke-dasharray:none;stroke-opacity:0.02" />
      <rect
         style="fill:none;fill-opacity:1;stroke:#000000;stroke-width:4.6;stroke-linecap:round;stroke-linejoin:round;stroke-miterlimit:4;stroke-dasharray:none;stroke-opacity:0.02"
         id="rect1676"
         width="29.810888"
         height="29.810888"
         x="69.839508"
         y="40.709618"
         rx="6.6098609"
         ry="6.6098609" />
      <rect
         ry="6.6098609"
         rx="6.6098609"
         y="40.709618"
         x="69.839508"
         height="29.810888"
         width="29.810888"
         id="rect1678"
         style="fill:none;fill-opacity:1;stroke:#000000;stroke-width:5;stroke-linecap:round;stroke-linejoin:round;stroke-miterlimit:4;stroke-dasharray:none;stroke-opacity:0.02" />
    </g>
    <rect
       style="fill:url(#linearGradient1632);fill-opacity:1;stroke-width:2.68769;stroke-linecap:round;stroke-linejoin:round"
       id="rect849"
       width="29.08744"
       height="29.08744"
       x="2.3771317"
       y="2.4666815"
       rx="6.4494534"
       ry="6.4494534" />
    <path
       id="path2659"
       style="fill:#1d0047;fill-opacity:0.028682;stroke:none;stroke-width:3.97206;stroke-linecap:round;stroke-linejoin:round;stroke-opacity:1"
       d="m 9.8305598,9.1301031 c -1.2472932,0 -2.2514456,1.0041529 -2.2514456,2.2514459 v 7.864882 c 0,1.247293 1.0041524,2.251348 2.2514456,2.251348 h 7.4878492 c 0.08495,-1.056824 0.477638,-2.029928 1.086885,-2.830283 h -3.478459 c -0.425872,0 -0.768712,-0.342841 -0.768712,-0.768713 0,-0.425872 0.34284,-0.768713 0.768712,-0.768713 h 3.882549 c 0.31205,0 0.578084,0.184999 0.698795,0.450929 0.897079,-0.662687 2.003331,-1.056435 3.198008,-1.056435 1.27166,0 2.443561,0.445856 3.369459,1.187641 v -6.330656 c 0,-1.247293 -1.004152,-2.2514459 -2.251445,-2.2514459 z m 1.1289722,2.7909119 a 0.75581116,0.75581116 0 0 1 0.755815,0.755815 0.75581116,0.75581116 0 0 1 -0.755815,0.755816 0.75581116,0.75581116 0 0 1 -0.755816,-0.755816 0.75581116,0.75581116 0 0 1 0.755816,-0.755815 z m 3.932296,0 a 0.75581116,0.75581116 0 0 1 0.755718,0.755815 0.75581116,0.75581116 0 0 1 -0.755718,0.755816 0.75581116,0.75581116 0 0 1 -0.755815,-0.755816 0.75581116,0.75581116 0 0 1 0.755815,-0.755815 z m 3.932199,0 a 0.75581116,0.75581116 0 0 1 0.755815,0.755815 0.75581116,0.75581116 0 0 1 -0.755815,0.755816 0.75581116,0.75581116 0 0 1 -0.755815,-0.755816 0.75581116,0.75581116 0 0 1 0.755815,-0.755815 z m 3.932199,0 a 0.75581116,0.75581116 0 0 1 0.755815,0.755815 0.75581116,0.75581116 0 0 1 -0.755815,0.755816 0.75581116,0.75581116 0 0 1 -0.755816,-0.755816 0.75581116,0.75581116 0 0 1 0.755816,-0.755815 z m -9.809212,2.588527 a 0.75581116,0.75581116 0 0 1 0.755815,0.755815 0.75581116,0.75581116 0 0 1 -0.755815,0.755816 0.75581116,0.75581116 0 0 1 -0.755815,-0.755816 0.75581116,0.75581116 0 0 1 0.755815,-0.755815 z m 3.922017,0 a 0.75581116,0.75581116 0 0 1 0.755816,0.755815 0.75581116,0.75581116 0 0 1 -0.755816,0.755816 0.75581116,0.75581116 0 0 1 -0.755815,-0.755816 0.75581116,0.75581116 0 0 1 0.755815,-0.755815 z m 3.922017,0 a 0.75581116,0.75581116 0 0 1 0.755815,0.755815 0.75581116,0.75581116 0 0 1 -0.755815,0.755816 0.75581116,0.75581116 0 0 1 -0.755816,-0.755816 0.75581116,0.75581116 0 0 1 0.755816,-0.755815 z m 1.915139,3.25629 c -2.30769,0 -4.165518,1.857828 -4.165518,4.165518 v 0.08049 h 8.331036 v -0.08049 c 0,-2.30769 -1.857828,-4.165518 -4.165518,-4.165518 z m 0,1.955965 c 0.396949,0 0.716541,0.319594 0.716541,0.716542 v 0.434249 c 0,0.396948 -0.319592,0.716541 -0.716541,0.716541 -0.396948,0 -0.716541,-0.319593 -0.716541,-0.716541 v -0.434249 c 0,-0.396948 0.319593,-0.716542 0.716541,-0.716542 z m -4.165518,4.000178 v 1.972355 c 0,2.30769 1.857828,4.165518 4.165518,4.165518 2.30769,0 4.165518,-1.857828 4.165518,-4.165518 v -1.972355 z" />
    <path
       id="path2859"
       style="fill:#1d0047;fill-opacity:0.028682;stroke:none;stroke-width:3.97206;stroke-linecap:round;stroke-linejoin:round;stroke-opacity:1"
       d="m 9.9007926,9.2309598 c -1.2472932,0 -2.2514456,1.0041532 -2.2514456,2.2514462 v 7.864882 c 0,1.247293 1.0041524,2.251348 2.2514456,2.251348 h 7.4878494 c 0.08495,-1.056824 0.477638,-2.029928 1.086885,-2.830283 h -3.478459 c -0.425872,0 -0.768712,-0.342841 -0.768712,-0.768713 0,-0.425872 0.34284,-0.768713 0.768712,-0.768713 h 3.882549 c 0.31205,0 0.578084,0.184999 0.698795,0.450929 0.897079,-0.662687 2.003331,-1.056435 3.198008,-1.056435 1.27166,0 2.443561,0.445856 3.369459,1.187641 v -6.330656 c 0,-1.247293 -1.004152,-2.2514462 -2.251445,-2.2514462 z m 1.1289724,2.7909122 a 0.75581116,0.75581116 0 0 1 0.755815,0.755815 0.75581116,0.75581116 0 0 1 -0.755815,0.755816 0.75581116,0.75581116 0 0 1 -0.755816,-0.755816 0.75581116,0.75581116 0 0 1 0.755816,-0.755815 z m 3.932296,0 a 0.75581116,0.75581116 0 0 1 0.755718,0.755815 0.75581116,0.75581116 0 0 1 -0.755718,0.755816 0.75581116,0.75581116 0 0 1 -0.755815,-0.755816 0.75581116,0.75581116 0 0 1 0.755815,-0.755815 z m 3.932199,0 a 0.75581116,0.75581116 0 0 1 0.755815,0.755815 0.75581116,0.75581116 0 0 1 -0.755815,0.755816 0.75581116,0.75581116 0 0 1 -0.755815,-0.755816 0.75581116,0.75581116 0 0 1 0.755815,-0.755815 z m 3.932199,0 a 0.75581116,0.75581116 0 0 1 0.755815,0.755815 0.75581116,0.75581116 0 0 1 -0.755815,0.755816 0.75581116,0.75581116 0 0 1 -0.755816,-0.755816 0.75581116,0.75581116 0 0 1 0.755816,-0.755815 z m -9.809212,2.588527 a 0.75581116,0.75581116 0 0 1 0.755815,0.755815 0.75581116,0.75581116 0 0 1 -0.755815,0.755816 0.75581116,0.75581116 0 0 1 -0.755815,-0.755816 0.75581116,0.75581116 0 0 1 0.755815,-0.755815 z m 3.922017,0 a 0.75581116,0.75581116 0 0 1 0.755816,0.755815 0.75581116,0.75581116 0 0 1 -0.755816,0.755816 0.75581116,0.75581116 0 0 1 -0.755815,-0.755816 0.75581116,0.75581116 0 0 1 0.755815,-0.755815 z m 3.922017,0 a 0.75581116,0.75581116 0 0 1 0.755815,0.755815 0.75581116,0.75581116 0 0 1 -0.755815,0.755816 0.75581116,0.75581116 0 0 1 -0.755816,-0.755816 0.75581116,0.75581116 0 0 1 0.755816,-0.755815 z m 1.915139,3.25629 c -2.30769,0 -4.165518,1.857828 -4.165518,4.165518 v 0.08049 h 8.331036 v -0.08049 c 0,-2.30769 -1.857828,-4.165518 -4.165518,-4.165518 z m 0,1.955965 c 0.396949,0 0.716541,0.319594 0.716541,0.716542 v 0.434249 c 0,0.396948 -0.319592,0.716541 -0.716541,0.716541 -0.396948,0 -0.716541,-0.319593 -0.716541,-0.716541 v -0.434249 c 0,-0.396948 0.319593,-0.716542 0.716541,-0.716542 z m -4.165518,4.000178 v 1.972355 c 0,2.30769 1.857828,4.165518 4.165518,4.165518 2.30769,0 4.165518,-1.857828 4.165518,-4.165518 v -1.972355 z" />
    <path
       id="path2861"
       style="fill:#1d0047;fill-opacity:0.028682;stroke:none;stroke-width:3.97206;stroke-linecap:round;stroke-linejoin:round;stroke-opacity:1"
       d="m 9.942022,9.4162497 c -1.2472932,0 -2.2514456,1.0041533 -2.2514456,2.2514463 v 7.864882 c 0,1.247293 1.0041524,2.251348 2.2514456,2.251348 h 7.487849 c 0.08495,-1.056824 0.477638,-2.029928 1.086885,-2.830283 h -3.478459 c -0.425872,0 -0.768712,-0.342841 -0.768712,-0.768713 0,-0.425872 0.34284,-0.768713 0.768712,-0.768713 h 3.882549 c 0.31205,0 0.578084,0.184999 0.698795,0.450929 0.897079,-0.662687 2.003331,-1.056435 3.198008,-1.056435 1.27166,0 2.443561,0.445856 3.369459,1.187641 v -6.330656 c 0,-1.247293 -1.004152,-2.2514463 -2.251445,-2.2514463 z m 1.128972,2.7909123 a 0.75581116,0.75581116 0 0 1 0.755815,0.755815 0.75581116,0.75581116 0 0 1 -0.755815,0.755816 0.75581116,0.75581116 0 0 1 -0.755816,-0.755816 0.75581116,0.75581116 0 0 1 0.755816,-0.755815 z m 3.932296,0 a 0.75581116,0.75581116 0 0 1 0.755718,0.755815 0.75581116,0.75581116 0 0 1 -0.755718,0.755816 0.75581116,0.75581116 0 0 1 -0.755815,-0.755816 0.75581116,0.75581116 0 0 1 0.755815,-0.755815 z m 3.932199,0 a 0.75581116,0.75581116 0 0 1 0.755815,0.755815 0.75581116,0.75581116 0 0 1 -0.755815,0.755816 0.75581116,0.75581116 0 0 1 -0.755815,-0.755816 0.75581116,0.75581116 0 0 1 0.755815,-0.755815 z m 3.932199,0 a 0.75581116,0.75581116 0 0 1 0.755815,0.755815 0.75581116,0.75581116 0 0 1 -0.755815,0.755816 0.75581116,0.75581116 0 0 1 -0.755816,-0.755816 0.75581116,0.75581116 0 0 1 0.755816,-0.755815 z m -9.809212,2.588527 a 0.75581116,0.75581116 0 0 1 0.755815,0.755815 0.75581116,0.75581116 0 0 1 -0.755815,0.755816 0.75581116,0.75581116 0 0 1 -0.755815,-0.755816 0.75581116,0.75581116 0 0 1 0.755815,-0.755815 z m 3.922017,0 a 0.75581116,0.75581116 0 0 1 0.755816,0.755815 0.75581116,0.75581116 0 0 1 -0.755816,0.755816 0.75581116,0.75581116 0 0 1 -0.755815,-0.755816 0.75581116,0.75581116 0 0 1 0.755815,-0.755815 z m 3.922017,0 a 0.75581116,0.75581116 0 0 1 0.755815,0.755815 0.75581116,0.75581116 0 0 1 -0.755815,0.755816 0.75581116,0.75581116 0 0 1 -0.755816,-0.755816 0.75581116,0.75581116 0 0 1 0.755816,-0.755815 z m 1.915139,3.25629 c -2.30769,0 -4.165518,1.857828 -4.165518,4.165518 v 0.08049 h 8.331036 v -0.08049 c 0,-2.30769 -1.857828,-4.165518 -4.165518,-4.165518 z m 0,1.955965 c 0.396949,0 0.716541,0.319594 0.716541,0.716542 v 0.434249 c 0,0.396948 -0.319592,0.716541 -0.716541,0.716541 -0.396948,0 -0.716541,-0.319593 -0.716541,-0.716541 v -0.434249 c 0,-0.396948 0.319593,-0.716542 0.716541,-0.716542 z m -4.165518,4.000178 v 1.972355 c 0,2.30769 1.857828,4.165518 4.165518,4.165518 2.30769,0 4.165518,-1.857828 4.165518,-4.165518 v -1.972355 z" />
    <path
       id="path2863"
       style="fill:#1d0047;fill-opacity:0.028682;stroke:none;stroke-width:3.97206;stroke-linecap:round;stroke-linejoin:round;stroke-opacity:1"
       d="m 10.001127,9.652766 c -1.2472933,0 -2.2514457,1.004153 -2.2514457,2.251446 v 7.864882 c 0,1.247293 1.0041524,2.251348 2.2514457,2.251348 h 7.487849 c 0.08495,-1.056824 0.477638,-2.029928 1.086885,-2.830283 h -3.478459 c -0.425872,0 -0.768712,-0.342841 -0.768712,-0.768713 0,-0.425872 0.34284,-0.768713 0.768712,-0.768713 h 3.882549 c 0.31205,0 0.578084,0.184999 0.698795,0.450929 0.897079,-0.662687 2.003331,-1.056435 3.198008,-1.056435 1.27166,0 2.443561,0.445856 3.369459,1.187641 v -6.330656 c 0,-1.247293 -1.004152,-2.251446 -2.251445,-2.251446 z m 1.128972,2.790912 a 0.75581116,0.75581116 0 0 1 0.755815,0.755815 0.75581116,0.75581116 0 0 1 -0.755815,0.755816 0.75581116,0.75581116 0 0 1 -0.755816,-0.755816 0.75581116,0.75581116 0 0 1 0.755816,-0.755815 z m 3.932296,0 a 0.75581116,0.75581116 0 0 1 0.755718,0.755815 0.75581116,0.75581116 0 0 1 -0.755718,0.755816 0.75581116,0.75581116 0 0 1 -0.755815,-0.755816 0.75581116,0.75581116 0 0 1 0.755815,-0.755815 z m 3.932199,0 a 0.75581116,0.75581116 0 0 1 0.755815,0.755815 0.75581116,0.75581116 0 0 1 -0.755815,0.755816 0.75581116,0.75581116 0 0 1 -0.755815,-0.755816 0.75581116,0.75581116 0 0 1 0.755815,-0.755815 z m 3.932199,0 a 0.75581116,0.75581116 0 0 1 0.755815,0.755815 0.75581116,0.75581116 0 0 1 -0.755815,0.755816 0.75581116,0.75581116 0 0 1 -0.755816,-0.755816 0.75581116,0.75581116 0 0 1 0.755816,-0.755815 z m -9.809212,2.588527 a 0.75581116,0.75581116 0 0 1 0.755815,0.755815 0.75581116,0.75581116 0 0 1 -0.755815,0.755816 0.75581116,0.75581116 0 0 1 -0.755815,-0.755816 0.75581116,0.75581116 0 0 1 0.755815,-0.755815 z m 3.922017,0 a 0.75581116,0.75581116 0 0 1 0.755816,0.755815 0.75581116,0.75581116 0 0 1 -0.755816,0.755816 0.75581116,0.75581116 0 0 1 -0.755815,-0.755816 0.75581116,0.75581116 0 0 1 0.755815,-0.755815 z m 3.922017,0 a 0.75581116,0.75581116 0 0 1 0.755815,0.755815 0.75581116,0.75581116 0 0 1 -0.755815,0.755816 0.75581116,0.75581116 0 0 1 -0.755816,-0.755816 0.75581116,0.75581116 0 0 1 0.755816,-0.755815 z m 1.915139,3.25629 c -2.30769,0 -4.165518,1.857828 -4.165518,4.165518 v 0.08049 h 8.331036 v -0.08049 c 0,-2.30769 -1.857828,-4.165518 -4.165518,-4.165518 z m 0,1.955965 c 0.396949,0 0.716541,0.319594 0.716541,0.716542 v 0.434249 c 0,0.396948 -0.319592,0.716541 -0.716541,0.716541 -0.396948,0 -0.716541,-0.319593 -0.716541,-0.716541 v -0.434249 c 0,-0.396948 0.319593,-0.716542 0.716541,-0.716542 z m -4.165518,4.000178 v 1.972355 c 0,2.30769 1.857828,4.165518 4.165518,4.165518 2.30769,0 4.165518,-1.857828 4.165518,-4.165518 v -1.972355 z" />
    <path
       id="path2865"
       style="fill:#1d0047;fill-opacity:0.028682;stroke:none;stroke-width:3.97206;stroke-linecap:round;stroke-linejoin:round;stroke-opacity:1"
       d="m 10.139872,9.9381912 c -1.2472937,0 -2.2514461,1.0041528 -2.2514461,2.2514458 v 7.864882 c 0,1.247293 1.0041524,2.251348 2.2514461,2.251348 h 7.487849 c 0.08495,-1.056824 0.477638,-2.029928 1.086885,-2.830283 h -3.478459 c -0.425872,0 -0.768712,-0.342841 -0.768712,-0.768713 0,-0.425872 0.34284,-0.768713 0.768712,-0.768713 h 3.882549 c 0.31205,0 0.578084,0.184999 0.698795,0.450929 0.897079,-0.662687 2.003331,-1.056435 3.198008,-1.056435 1.27166,0 2.443561,0.445856 3.369459,1.187641 v -6.330656 c 0,-1.247293 -1.004152,-2.2514458 -2.251445,-2.2514458 z m 1.128972,2.7909118 a 0.75581116,0.75581116 0 0 1 0.755815,0.755815 0.75581116,0.75581116 0 0 1 -0.755815,0.755816 0.75581116,0.75581116 0 0 1 -0.755816,-0.755816 0.75581116,0.75581116 0 0 1 0.755816,-0.755815 z m 3.932296,0 a 0.75581116,0.75581116 0 0 1 0.755718,0.755815 0.75581116,0.75581116 0 0 1 -0.755718,0.755816 0.75581116,0.75581116 0 0 1 -0.755815,-0.755816 0.75581116,0.75581116 0 0 1 0.755815,-0.755815 z m 3.932199,0 a 0.75581116,0.75581116 0 0 1 0.755815,0.755815 0.75581116,0.75581116 0 0 1 -0.755815,0.755816 0.75581116,0.75581116 0 0 1 -0.755815,-0.755816 0.75581116,0.75581116 0 0 1 0.755815,-0.755815 z m 3.932199,0 a 0.75581116,0.75581116 0 0 1 0.755815,0.755815 0.75581116,0.75581116 0 0 1 -0.755815,0.755816 0.75581116,0.75581116 0 0 1 -0.755816,-0.755816 0.75581116,0.75581116 0 0 1 0.755816,-0.755815 z m -9.809212,2.588527 a 0.75581116,0.75581116 0 0 1 0.755815,0.755815 0.75581116,0.75581116 0 0 1 -0.755815,0.755816 0.75581116,0.75581116 0 0 1 -0.755815,-0.755816 0.75581116,0.75581116 0 0 1 0.755815,-0.755815 z m 3.922017,0 a 0.75581116,0.75581116 0 0 1 0.755816,0.755815 0.75581116,0.75581116 0 0 1 -0.755816,0.755816 0.75581116,0.75581116 0 0 1 -0.755815,-0.755816 0.75581116,0.75581116 0 0 1 0.755815,-0.755815 z m 3.922017,0 a 0.75581116,0.75581116 0 0 1 0.755815,0.755815 0.75581116,0.75581116 0 0 1 -0.755815,0.755816 0.75581116,0.75581116 0 0 1 -0.755816,-0.755816 0.75581116,0.75581116 0 0 1 0.755816,-0.755815 z m 1.915139,3.25629 c -2.30769,0 -4.165518,1.857828 -4.165518,4.165518 v 0.08049 h 8.331036 v -0.08049 c 0,-2.30769 -1.857828,-4.165518 -4.165518,-4.165518 z m 0,1.955965 c 0.396949,0 0.716541,0.319594 0.716541,0.716542 v 0.434249 c 0,0.396948 -0.319592,0.716541 -0.716541,0.716541 -0.396948,0 -0.716541,-0.319593 -0.716541,-0.716541 v -0.434249 c 0,-0.396948 0.319593,-0.716542 0.716541,-0.716542 z m -4.165518,4.000178 v 1.972355 c 0,2.30769 1.857828,4.165518 4.165518,4.165518 2.30769,0 4.165518,-1.857828 4.165518,-4.165518 v -1.972355 z" />
    <path
       id="rect856"
       style="fill:url(#linearGradient1183);fill-opacity:1;stroke:none;stroke-width:3.97206;stroke-linecap:round;stroke-linejoin:round;stroke-opacity:1"
       d="m 9.7762036,9.0283036 c -1.2472936,0 -2.251446,1.0041534 -2.251446,2.2514464 v 7.864882 c 0,1.247293 1.0041524,2.251348 2.251446,2.251348 h 7.4878484 c 0.08495,-1.056824 0.477638,-2.029928 1.086885,-2.830283 h -3.478459 c -0.425872,0 -0.768712,-0.342841 -0.768712,-0.768713 0,-0.425872 0.34284,-0.768713 0.768712,-0.768713 h 3.882549 c 0.31205,0 0.578084,0.184999 0.698795,0.450929 0.897079,-0.662687 2.003331,-1.056435 3.198008,-1.056435 1.27166,0 2.443561,0.445856 3.369459,1.187641 V 11.27975 c 0,-1.247293 -1.004152,-2.2514464 -2.251445,-2.2514464 z m 1.1289714,2.7909124 a 0.75581116,0.75581116 0 0 1 0.755815,0.755815 0.75581116,0.75581116 0 0 1 -0.755815,0.755816 0.75581116,0.75581116 0 0 1 -0.755816,-0.755816 0.75581116,0.75581116 0 0 1 0.755816,-0.755815 z m 3.932296,0 a 0.75581116,0.75581116 0 0 1 0.755718,0.755815 0.75581116,0.75581116 0 0 1 -0.755718,0.755816 0.75581116,0.75581116 0 0 1 -0.755815,-0.755816 0.75581116,0.75581116 0 0 1 0.755815,-0.755815 z m 3.932199,0 a 0.75581116,0.75581116 0 0 1 0.755815,0.755815 0.75581116,0.75581116 0 0 1 -0.755815,0.755816 0.75581116,0.75581116 0 0 1 -0.755815,-0.755816 0.75581116,0.75581116 0 0 1 0.755815,-0.755815 z m 3.932199,0 a 0.75581116,0.75581116 0 0 1 0.755815,0.755815 0.75581116,0.75581116 0 0 1 -0.755815,0.755816 0.75581116,0.75581116 0 0 1 -0.755816,-0.755816 0.75581116,0.75581116 0 0 1 0.755816,-0.755815 z m -9.809212,2.588527 a 0.75581116,0.75581116 0 0 1 0.755815,0.755815 0.75581116,0.75581116 0 0 1 -0.755815,0.755816 0.75581116,0.75581116 0 0 1 -0.755815,-0.755816 0.75581116,0.75581116 0 0 1 0.755815,-0.755815 z m 3.922017,0 a 0.75581116,0.75581116 0 0 1 0.755816,0.755815 0.75581116,0.75581116 0 0 1 -0.755816,0.755816 0.75581116,0.75581116 0 0 1 -0.755815,-0.755816 0.75581116,0.75581116 0 0 1 0.755815,-0.755815 z m 3.922017,0 a 0.75581116,0.75581116 0 0 1 0.755815,0.755815 0.75581116,0.75581116 0 0 1 -0.755815,0.755816 0.75581116,0.75581116 0 0 1 -0.755816,-0.755816 0.75581116,0.75581116 0 0 1 0.755816,-0.755815 z m 1.915139,3.25629 c -2.30769,0 -4.165518,1.857828 -4.165518,4.165518 v 0.08049 h 8.331036 v -0.08049 c 0,-2.30769 -1.857828,-4.165518 -4.165518,-4.165518 z m 0,1.955965 c 0.396949,0 0.716541,0.319594 0.716541,0.716542 v 0.434249 c 0,0.396948 -0.319592,0.716541 -0.716541,0.716541 -0.396948,0 -0.716541,-0.319593 -0.716541,-0.716541 V 20.33654 c 0,-0.396948 0.319593,-0.716542 0.716541,-0.716542 z m -4.165518,4.000178 v 1.972355 c 0,2.30769 1.857828,4.165518 4.165518,4.165518 2.30769,0 4.165518,-1.857828 4.165518,-4.165518 v -1.972355 z" />
  </g>
</svg>
