<?xml version="1.0" encoding="UTF-8" standalone="no"?>
<svg
   width="128"
   height="128"
   viewBox="0 0 33.866666 33.866668"
   version="1.1"
   id="svg1443"
   inkscape:version="1.1.2 (0a00cf5339, 2022-02-04)"
   sodipodi:docname="powder-player.svg"
   xmlns:inkscape="http://www.inkscape.org/namespaces/inkscape"
   xmlns:sodipodi="http://sodipodi.sourceforge.net/DTD/sodipodi-0.dtd"
   xmlns:xlink="http://www.w3.org/1999/xlink"
   xmlns="http://www.w3.org/2000/svg"
   xmlns:svg="http://www.w3.org/2000/svg"
   xmlns:rdf="http://www.w3.org/1999/02/22-rdf-syntax-ns#"
   xmlns:cc="http://creativecommons.org/ns#"
   xmlns:dc="http://purl.org/dc/elements/1.1/">
  <defs
     id="defs1437">
    <linearGradient
       gradientTransform="matrix(0.97573206,0,0,0.97573206,-111.76517,-37.182508)"
       gradientUnits="userSpaceOnUse"
       y2="70.679932"
       x2="132.21078"
       y1="42.151531"
       x1="132.21078"
       id="linearGradient1632"
       xlink:href="#linearGradient1630"
       inkscape:collect="always" />
    <linearGradient
       id="linearGradient1630"
       inkscape:collect="always">
      <stop
         id="stop1626"
         offset="0"
         style="stop-color:#282635;stop-opacity:1" />
      <stop
         id="stop1628"
         offset="1"
         style="stop-color:#1e2429;stop-opacity:1" />
    </linearGradient>
    <filter
       color-interpolation-filters="sRGB"
       height="1.1311001"
       width="1.1106"
       y="-0.065563001"
       x="-0.055319"
       id="c-9">
      <feGaussianBlur
         id="feGaussianBlur1093"
         stdDeviation="1.1062912" />
    </filter>
    <linearGradient
       gradientUnits="userSpaceOnUse"
       gradientTransform="matrix(0.13235,0,0,0.13075,-32.379,1.0873)"
       y2="269.48999"
       y1="235.14999"
       x2="657.65002"
       x1="319.20999"
       id="a-12">
      <stop
         id="stop1076"
         offset="0"
         stop-color="#e54c18" />
      <stop
         id="stop1078"
         offset="1"
         stop-color="#fec350" />
    </linearGradient>
  </defs>
  <sodipodi:namedview
     id="base"
     pagecolor="#ffffff"
     bordercolor="#666666"
     borderopacity="1.0"
     inkscape:pageopacity="0.0"
     inkscape:pageshadow="2"
     inkscape:zoom="1.979899"
     inkscape:cx="42.426407"
     inkscape:cy="75.003826"
     inkscape:document-units="mm"
     inkscape:current-layer="layer1"
     inkscape:document-rotation="0"
     showgrid="false"
     units="px"
     inkscape:window-width="1920"
     inkscape:window-height="1032"
     inkscape:window-x="0"
     inkscape:window-y="24"
     inkscape:window-maximized="1"
     inkscape:pagecheckerboard="0" />
  <metadata
     id="metadata1440">
    <rdf:RDF>
      <cc:Work
         rdf:about="">
        <dc:format>image/svg+xml</dc:format>
        <dc:type
           rdf:resource="http://purl.org/dc/dcmitype/StillImage" />
      </cc:Work>
    </rdf:RDF>
  </metadata>
  <g
     inkscape:label="Capa 1"
     inkscape:groupmode="layer"
     id="layer1">
    <g
       style="opacity:0.295"
       transform="matrix(0.97573206,0,0,0.97573206,-65.737228,-37.182508)"
       id="g1702">
      <rect
         ry="6.6098609"
         rx="6.6098609"
         y="40.709618"
         x="69.839508"
         height="29.810888"
         width="29.810888"
         id="rect1634"
         style="fill:none;fill-opacity:1;stroke:#000000;stroke-width:0.1;stroke-linecap:round;stroke-linejoin:round;stroke-miterlimit:4;stroke-dasharray:none;stroke-opacity:0.02" />
      <rect
         style="fill:none;fill-opacity:1;stroke:#000000;stroke-width:0.2;stroke-linecap:round;stroke-linejoin:round;stroke-miterlimit:4;stroke-dasharray:none;stroke-opacity:0.02"
         id="rect1638"
         width="29.810888"
         height="29.810888"
         x="69.839508"
         y="40.709618"
         rx="6.6098609"
         ry="6.6098609" />
      <rect
         ry="6.6098609"
         rx="6.6098609"
         y="40.709618"
         x="69.839508"
         height="29.810888"
         width="29.810888"
         id="rect1640"
         style="fill:none;fill-opacity:1;stroke:#000000;stroke-width:0.3;stroke-linecap:round;stroke-linejoin:round;stroke-miterlimit:4;stroke-dasharray:none;stroke-opacity:0.02" />
      <rect
         style="fill:none;fill-opacity:1;stroke:#000000;stroke-width:0.4;stroke-linecap:round;stroke-linejoin:round;stroke-miterlimit:4;stroke-dasharray:none;stroke-opacity:0.02"
         id="rect1642"
         width="29.810888"
         height="29.810888"
         x="69.839508"
         y="40.709618"
         rx="6.6098609"
         ry="6.6098609" />
      <rect
         ry="6.6098609"
         rx="6.6098609"
         y="40.709618"
         x="69.839508"
         height="29.810888"
         width="29.810888"
         id="rect1644"
         style="fill:none;fill-opacity:1;stroke:#000000;stroke-width:0.5;stroke-linecap:round;stroke-linejoin:round;stroke-miterlimit:4;stroke-dasharray:none;stroke-opacity:0.02" />
      <rect
         style="fill:none;fill-opacity:1;stroke:#000000;stroke-width:0.6;stroke-linecap:round;stroke-linejoin:round;stroke-miterlimit:4;stroke-dasharray:none;stroke-opacity:0.02"
         id="rect1646"
         width="29.810888"
         height="29.810888"
         x="69.839508"
         y="40.709618"
         rx="6.6098609"
         ry="6.6098609" />
      <rect
         ry="6.6098609"
         rx="6.6098609"
         y="40.709618"
         x="69.839508"
         height="29.810888"
         width="29.810888"
         id="rect1648"
         style="fill:none;fill-opacity:1;stroke:#000000;stroke-width:0.7;stroke-linecap:round;stroke-linejoin:round;stroke-miterlimit:4;stroke-dasharray:none;stroke-opacity:0.02" />
      <rect
         style="fill:none;fill-opacity:1;stroke:#000000;stroke-width:0.8;stroke-linecap:round;stroke-linejoin:round;stroke-miterlimit:4;stroke-dasharray:none;stroke-opacity:0.02"
         id="rect1650"
         width="29.810888"
         height="29.810888"
         x="69.839508"
         y="40.709618"
         rx="6.6098609"
         ry="6.6098609" />
      <rect
         ry="6.6098609"
         rx="6.6098609"
         y="40.709618"
         x="69.839508"
         height="29.810888"
         width="29.810888"
         id="rect1652"
         style="fill:none;fill-opacity:1;stroke:#000000;stroke-width:1;stroke-linecap:round;stroke-linejoin:round;stroke-miterlimit:4;stroke-dasharray:none;stroke-opacity:0.02" />
      <rect
         style="fill:none;fill-opacity:1;stroke:#000000;stroke-width:1.2;stroke-linecap:round;stroke-linejoin:round;stroke-miterlimit:4;stroke-dasharray:none;stroke-opacity:0.02"
         id="rect1654"
         width="29.810888"
         height="29.810888"
         x="69.839508"
         y="40.709618"
         rx="6.6098609"
         ry="6.6098609" />
      <rect
         ry="6.6098609"
         rx="6.6098609"
         y="40.709618"
         x="69.839508"
         height="29.810888"
         width="29.810888"
         id="rect1656"
         style="fill:none;fill-opacity:1;stroke:#000000;stroke-width:1.4;stroke-linecap:round;stroke-linejoin:round;stroke-miterlimit:4;stroke-dasharray:none;stroke-opacity:0.02" />
      <rect
         style="fill:none;fill-opacity:1;stroke:#000000;stroke-width:1.6;stroke-linecap:round;stroke-linejoin:round;stroke-miterlimit:4;stroke-dasharray:none;stroke-opacity:0.02"
         id="rect1658"
         width="29.810888"
         height="29.810888"
         x="69.839508"
         y="40.709618"
         rx="6.6098609"
         ry="6.6098609" />
      <rect
         ry="6.6098609"
         rx="6.6098609"
         y="40.709618"
         x="69.839508"
         height="29.810888"
         width="29.810888"
         id="rect1660"
         style="fill:none;fill-opacity:1;stroke:#000000;stroke-width:1.8;stroke-linecap:round;stroke-linejoin:round;stroke-miterlimit:4;stroke-dasharray:none;stroke-opacity:0.02" />
      <rect
         style="fill:none;fill-opacity:1;stroke:#000000;stroke-width:2;stroke-linecap:round;stroke-linejoin:round;stroke-miterlimit:4;stroke-dasharray:none;stroke-opacity:0.02"
         id="rect1662"
         width="29.810888"
         height="29.810888"
         x="69.839508"
         y="40.709618"
         rx="6.6098609"
         ry="6.6098609" />
      <rect
         ry="6.6098609"
         rx="6.6098609"
         y="40.709618"
         x="69.839508"
         height="29.810888"
         width="29.810888"
         id="rect1664"
         style="fill:none;fill-opacity:1;stroke:#000000;stroke-width:2.2;stroke-linecap:round;stroke-linejoin:round;stroke-miterlimit:4;stroke-dasharray:none;stroke-opacity:0.02" />
      <rect
         style="fill:none;fill-opacity:1;stroke:#000000;stroke-width:2.6;stroke-linecap:round;stroke-linejoin:round;stroke-miterlimit:4;stroke-dasharray:none;stroke-opacity:0.02"
         id="rect1666"
         width="29.810888"
         height="29.810888"
         x="69.839508"
         y="40.709618"
         rx="6.6098609"
         ry="6.6098609" />
      <rect
         ry="6.6098609"
         rx="6.6098609"
         y="40.709618"
         x="69.839508"
         height="29.810888"
         width="29.810888"
         id="rect1668"
         style="fill:none;fill-opacity:1;stroke:#000000;stroke-width:3;stroke-linecap:round;stroke-linejoin:round;stroke-miterlimit:4;stroke-dasharray:none;stroke-opacity:0.02" />
      <rect
         style="fill:none;fill-opacity:1;stroke:#000000;stroke-width:3.4;stroke-linecap:round;stroke-linejoin:round;stroke-miterlimit:4;stroke-dasharray:none;stroke-opacity:0.02"
         id="rect1670"
         width="29.810888"
         height="29.810888"
         x="69.839508"
         y="40.709618"
         rx="6.6098609"
         ry="6.6098609" />
      <rect
         ry="6.6098609"
         rx="6.6098609"
         y="40.709618"
         x="69.839508"
         height="29.810888"
         width="29.810888"
         id="rect1672"
         style="fill:none;fill-opacity:1;stroke:#000000;stroke-width:3.8;stroke-linecap:round;stroke-linejoin:round;stroke-miterlimit:4;stroke-dasharray:none;stroke-opacity:0.02" />
      <rect
         style="fill:none;fill-opacity:1;stroke:#000000;stroke-width:4.2;stroke-linecap:round;stroke-linejoin:round;stroke-miterlimit:4;stroke-dasharray:none;stroke-opacity:0.02"
         id="rect1674"
         width="29.810888"
         height="29.810888"
         x="69.839508"
         y="40.709618"
         rx="6.6098609"
         ry="6.6098609" />
      <rect
         ry="6.6098609"
         rx="6.6098609"
         y="40.709618"
         x="69.839508"
         height="29.810888"
         width="29.810888"
         id="rect1676"
         style="fill:none;fill-opacity:1;stroke:#000000;stroke-width:4.6;stroke-linecap:round;stroke-linejoin:round;stroke-miterlimit:4;stroke-dasharray:none;stroke-opacity:0.02" />
      <rect
         style="fill:none;fill-opacity:1;stroke:#000000;stroke-width:5;stroke-linecap:round;stroke-linejoin:round;stroke-miterlimit:4;stroke-dasharray:none;stroke-opacity:0.02"
         id="rect1678"
         width="29.810888"
         height="29.810888"
         x="69.839508"
         y="40.709618"
         rx="6.6098609"
         ry="6.6098609" />
    </g>
    <rect
       ry="6.4494534"
       rx="6.4494534"
       y="2.5391712"
       x="2.4074187"
       height="29.087439"
       width="29.087439"
       id="rect849"
       style="fill:url(#linearGradient1632);fill-opacity:1;stroke-width:2.68768;stroke-linecap:round;stroke-linejoin:round" />
    <g
       id="g957"
       transform="matrix(1.1997779,0,0,1.2470898,37.57277,-0.0705442)">
      <path
         style="opacity:0.2;stroke-width:0.37756"
         d="m -17.151987,3.7841646 v 0.00103 a 2.3941906,2.4039395 0 0 0 -1.253619,0.3200373 l -7.04443,4.0841235 a 2.3941906,2.4039395 0 0 0 -1.197286,2.0823266 v 8.168247 a 2.3941906,2.4039395 0 0 0 1.197286,2.081293 l 7.04443,4.084125 a 2.3941906,2.4039395 0 0 0 2.394574,0 l 7.0444284,-4.084125 a 2.3941906,2.4039395 0 0 0 1.1972877,-2.081293 V 10.271687 A 2.3941906,2.4039395 0 0 0 -8.9666036,8.18936 L -16.011032,4.1052365 a 2.3941906,2.4039395 0 0 0 -1.140955,-0.3210719 z"
         id="path2-3" />
      <path
         style="fill:#23252f;stroke-width:0.37756;fill-opacity:1"
         d="m -17.229753,3.8294718 v 9.961e-4 a 2.298423,2.3077819 0 0 0 -1.203474,0.3072328 l -6.762652,3.9207607 a 2.298423,2.3077819 0 0 0 -1.149394,1.9990316 v 7.841517 a 2.298423,2.3077819 0 0 0 1.149394,1.998041 l 6.762652,3.920759 a 2.298423,2.3077819 0 0 0 2.298792,0 l 6.7626508,-3.920759 A 2.298423,2.3077819 0 0 0 -8.222388,17.89901 V 10.057493 A 2.298423,2.3077819 0 0 0 -9.3717842,8.0584614 L -16.134435,4.1377007 a 2.298423,2.3077819 0 0 0 -1.095318,-0.3082289 z"
         id="path4-6" />
      <path
         style="fill:#f1d41a;stroke-width:0.37756"
         d="m -17.152274,3.4066035 v 0.00147 c -0.301684,-0.00678 -0.601923,0.043757 -0.884907,0.1489592 l -0.303818,0.1755089 -6.040962,3.4880062 v 2.6163738 l 7.173643,-4.1413633 2.300756,-1.3273586 -1.103183,-0.6400832 c -0.243485,-0.139903 -0.509563,-0.2357504 -0.786092,-0.2831697 -0.01717,-0.00314 -0.03438,-0.00609 -0.05162,-0.00885 -0.05384,-0.00825 -0.107952,-0.014637 -0.162231,-0.019173 -0.04611,-0.00479 -0.09234,-0.00823 -0.138633,-0.010317 z"
         id="path6" />
      <path
         style="fill:#aed447;stroke-width:0.37756"
         d="m -24.381961,7.1925285 -1.067786,0.6194345 c -0.741138,0.4294097 -1.197692,1.2233191 -1.197575,2.0824794 v 6.9170206 l 2.265361,1.308187 V 9.8369244 Z"
         id="path8" />
      <path
         style="fill:#d25e91;stroke-width:0.37756"
         d="m -10.034677,9.8369244 v 1.1208816 9.804764 l 1.0677866,-0.619435 c 0.7406823,-0.429145 1.1971664,-1.222371 1.1975745,-2.081005 v -6.917019 z"
         id="path10" />
      <path
         style="fill:#7acdcb;stroke-width:0.37756"
         d="m -10.034677,18.11965 -7.173641,4.141361 -2.300758,1.327359 1.103183,0.640083 c 0.616601,0.356543 1.359198,0.419237 2.026437,0.171082 l 0.303818,-0.175507 6.040961,-3.486531 z"
         id="path12" />
      <path
         style="fill:#ec8239;stroke-width:0.37756"
         d="m -14.941483,4.3873756 -2.266835,1.3081855 9.4390021,5.4495499 V 9.8944424 C -7.769958,9.1433073 -8.1202449,8.4356486 -8.7161653,7.9815704 Z"
         id="path14" />
      <path
         style="fill:#5e8a93;stroke-width:0.37756"
         d="m -26.647322,16.811463 v 1.250667 c 9.06e-4,0.754767 0.354799,1.465288 0.9557,1.918773 l 0.17698,0.101759 6.038013,3.486532 2.268311,-1.308187 -7.173643,-4.141362 z"
         id="path16" />
      <path
         style="opacity:0.2;fill:#ffffff;stroke-width:0.37756"
         d="m -17.152274,3.4066034 v 0.00147 a 2.3941906,2.4039395 0 0 0 -1.253619,0.3200403 l -7.043854,4.0838438 a 2.3941906,2.4039395 0 0 0 -1.197575,2.0824794 v 0.3775591 a 2.3941906,2.4039395 0 0 1 1.197575,-2.0824803 l 7.043854,-4.0838438 a 2.3941906,2.4039395 0 0 1 1.253619,-0.3200401 v -0.00143 a 2.3941906,2.4039395 0 0 1 1.141529,0.3215157 l 7.043856,4.0838438 a 2.3941906,2.4039395 0 0 1 1.1975731,2.0824807 V 9.8944424 A 2.3941906,2.4039395 0 0 0 -8.966889,7.811963 l -7.043856,-4.0838438 a 2.3941906,2.4039395 0 0 0 -1.141529,-0.3215158 z"
         id="path18-7" />
      <path
         style="opacity:0.2;stroke-width:0.37756"
         d="m -17.208318,7.5597653 a 1.1326803,1.1326803 0 0 0 -1.132681,1.1326803 1.1326803,1.1326803 0 0 0 1.132681,1.1326803 1.1326803,1.1326803 0 0 0 1.13268,-1.1326803 1.1326803,1.1326803 0 0 0 -1.13268,-1.1326803 z m -1.510242,3.0204797 a 1.1326803,1.1326803 0 0 0 -1.13268,1.132681 1.1326803,1.1326803 0 0 0 1.13268,1.13268 1.1326803,1.1326803 0 0 0 1.132681,-1.13268 1.1326803,1.1326803 0 0 0 -1.132681,-1.132681 z m 3.020482,0 a 1.1326803,1.1326803 0 0 0 -1.132681,1.132681 1.1326803,1.1326803 0 0 0 1.132681,1.13268 1.1326803,1.1326803 0 0 0 1.13268,-1.13268 1.1326803,1.1326803 0 0 0 -1.13268,-1.132681 z m -4.530722,3.020482 a 1.1326803,1.1326803 0 0 0 -1.13268,1.13268 1.1326803,1.1326803 0 0 0 1.13268,1.13268 1.1326803,1.1326803 0 0 0 1.132681,-1.13268 1.1326803,1.1326803 0 0 0 -1.132681,-1.13268 z m 3.020482,0 a 1.1326803,1.1326803 0 0 0 -1.132681,1.13268 1.1326803,1.1326803 0 0 0 1.132681,1.13268 1.1326803,1.1326803 0 0 0 1.13268,-1.13268 1.1326803,1.1326803 0 0 0 -1.13268,-1.13268 z m 3.02048,0 a 1.1326803,1.1326803 0 0 0 -1.132681,1.13268 1.1326803,1.1326803 0 0 0 1.132681,1.13268 1.1326803,1.1326803 0 0 0 1.13268,-1.13268 1.1326803,1.1326803 0 0 0 -1.13268,-1.13268 z m -7.551202,3.02048 a 1.1326803,1.1326803 0 0 0 -1.13268,1.13268 1.1326803,1.1326803 0 0 0 1.13268,1.13268 1.1326803,1.1326803 0 0 0 1.132681,-1.13268 1.1326803,1.1326803 0 0 0 -1.132681,-1.13268 z m 3.02048,0 a 1.1326803,1.1326803 0 0 0 -1.13268,1.13268 1.1326803,1.1326803 0 0 0 1.13268,1.13268 1.1326803,1.1326803 0 0 0 1.132681,-1.13268 1.1326803,1.1326803 0 0 0 -1.132681,-1.13268 z m 3.020482,0 a 1.1326803,1.1326803 0 0 0 -1.132681,1.13268 1.1326803,1.1326803 0 0 0 1.132681,1.13268 1.1326803,1.1326803 0 0 0 1.13268,-1.13268 1.1326803,1.1326803 0 0 0 -1.13268,-1.13268 z m 3.020481,0 a 1.1326803,1.1326803 0 0 0 -1.13268,1.13268 1.1326803,1.1326803 0 0 0 1.13268,1.13268 1.1326803,1.1326803 0 0 0 1.13268,-1.13268 1.1326803,1.1326803 0 0 0 -1.13268,-1.13268 z"
         id="path20-5" />
      <circle
         style="fill:#ffffff;stroke-width:0.37756"
         cx="-21.73904"
         cy="17.376326"
         r="1.1326803"
         id="circle22" />
      <circle
         style="fill:#ffffff;stroke-width:0.37756"
         cx="-18.718559"
         cy="17.376326"
         r="1.1326803"
         id="circle24" />
      <circle
         style="fill:#ffffff;stroke-width:0.37756"
         cx="-15.698079"
         cy="17.376326"
         r="1.1326803"
         id="circle26" />
      <circle
         style="fill:#ffffff;stroke-width:0.37756"
         cx="-12.677598"
         cy="17.376326"
         r="1.1326803"
         id="circle28" />
      <circle
         style="fill:#ffffff;stroke-width:0.37756"
         cx="-20.2288"
         cy="14.355845"
         r="1.1326803"
         id="circle30" />
      <circle
         style="fill:#ffffff;stroke-width:0.37756"
         cx="-17.208319"
         cy="14.355845"
         r="1.1326803"
         id="circle32" />
      <circle
         style="fill:#ffffff;stroke-width:0.37756"
         cx="-14.187837"
         cy="14.355845"
         r="1.1326803"
         id="circle34" />
      <circle
         style="fill:#ffffff;stroke-width:0.37756"
         cx="-18.718559"
         cy="11.335365"
         r="1.1326803"
         id="circle36" />
      <circle
         style="fill:#ffffff;stroke-width:0.37756"
         cx="-15.698079"
         cy="11.335365"
         r="1.1326803"
         id="circle38" />
      <circle
         style="fill:#ffffff;stroke-width:0.37756"
         cx="-17.208319"
         cy="8.3148842"
         r="1.1326803"
         id="circle40" />
    </g>
  </g>
</svg>
