<?xml version="1.0" encoding="UTF-8" standalone="no"?>
<svg
   width="128"
   height="128"
   viewBox="0 0 33.866666 33.866668"
   version="1.1"
   id="svg1443"
   inkscape:version="1.1.2 (0a00cf5339, 2022-02-04)"
   sodipodi:docname="project-zomboid.svg"
   xmlns:inkscape="http://www.inkscape.org/namespaces/inkscape"
   xmlns:sodipodi="http://sodipodi.sourceforge.net/DTD/sodipodi-0.dtd"
   xmlns:xlink="http://www.w3.org/1999/xlink"
   xmlns="http://www.w3.org/2000/svg"
   xmlns:svg="http://www.w3.org/2000/svg"
   xmlns:rdf="http://www.w3.org/1999/02/22-rdf-syntax-ns#"
   xmlns:cc="http://creativecommons.org/ns#"
   xmlns:dc="http://purl.org/dc/elements/1.1/">
  <defs
     id="defs1437">
    <linearGradient
       inkscape:collect="always"
       id="linearGradient961">
      <stop
         style="stop-color:#ff9c38;stop-opacity:1"
         offset="0"
         id="stop957" />
      <stop
         style="stop-color:#ea3d1c;stop-opacity:0.96862745"
         offset="1"
         id="stop959" />
    </linearGradient>
    <filter
       color-interpolation-filters="sRGB"
       height="1.1311001"
       width="1.1106"
       y="-0.065563001"
       x="-0.055319"
       id="c-9">
      <feGaussianBlur
         id="feGaussianBlur1093"
         stdDeviation="1.1062912" />
    </filter>
    <linearGradient
       gradientUnits="userSpaceOnUse"
       gradientTransform="matrix(0.13235,0,0,0.13075,-32.379,1.0873)"
       y2="269.48999"
       y1="235.14999"
       x2="657.65002"
       x1="319.20999"
       id="a-12">
      <stop
         id="stop1076"
         offset="0"
         stop-color="#e54c18" />
      <stop
         id="stop1078"
         offset="1"
         stop-color="#fec350" />
    </linearGradient>
    <radialGradient
       inkscape:collect="always"
       xlink:href="#linearGradient961"
       id="radialGradient963"
       cx="16.951138"
       cy="2.5104072"
       fx="16.951138"
       fy="2.5104072"
       r="14.543719"
       gradientUnits="userSpaceOnUse"
       gradientTransform="matrix(7.138573,0,0,2.2345134,-104.05579,-3.0991313)" />
    <linearGradient
       id="linearGradient4146-2">
      <stop
         style="stop-color:#f6f6f6;stop-opacity:1;"
         offset="0"
         id="stop4148-2" />
      <stop
         style="stop-color:#e2e2e2;stop-opacity:1;"
         offset="1"
         id="stop4150-8" />
    </linearGradient>
  </defs>
  <sodipodi:namedview
     id="base"
     pagecolor="#ffffff"
     bordercolor="#666666"
     borderopacity="1.0"
     inkscape:pageopacity="0.0"
     inkscape:pageshadow="2"
     inkscape:zoom="1.979899"
     inkscape:cx="-65.407377"
     inkscape:cy="73.488597"
     inkscape:document-units="mm"
     inkscape:current-layer="layer1"
     inkscape:document-rotation="0"
     showgrid="false"
     units="px"
     inkscape:window-width="1920"
     inkscape:window-height="1002"
     inkscape:window-x="0"
     inkscape:window-y="0"
     inkscape:window-maximized="1"
     showguides="true"
     inkscape:guide-bbox="true"
     inkscape:pagecheckerboard="0" />
  <metadata
     id="metadata1440">
    <rdf:RDF>
      <cc:Work
         rdf:about="">
        <dc:format>image/svg+xml</dc:format>
        <dc:type
           rdf:resource="http://purl.org/dc/dcmitype/StillImage" />
      </cc:Work>
    </rdf:RDF>
  </metadata>
  <g
     inkscape:label="Capa 1"
     inkscape:groupmode="layer"
     id="layer1">
    <g
       style="opacity:0.295"
       transform="matrix(0.97573206,0,0,0.97573206,-65.737228,-37.182508)"
       id="g1702">
      <rect
         ry="6.6098609"
         rx="6.6098609"
         y="40.709618"
         x="69.839508"
         height="29.810888"
         width="29.810888"
         id="rect1634"
         style="fill:none;fill-opacity:1;stroke:#000000;stroke-width:0.1;stroke-linecap:round;stroke-linejoin:round;stroke-miterlimit:4;stroke-dasharray:none;stroke-opacity:0.02" />
      <rect
         style="fill:none;fill-opacity:1;stroke:#000000;stroke-width:0.2;stroke-linecap:round;stroke-linejoin:round;stroke-miterlimit:4;stroke-dasharray:none;stroke-opacity:0.02"
         id="rect1638"
         width="29.810888"
         height="29.810888"
         x="69.839508"
         y="40.709618"
         rx="6.6098609"
         ry="6.6098609" />
      <rect
         ry="6.6098609"
         rx="6.6098609"
         y="40.709618"
         x="69.839508"
         height="29.810888"
         width="29.810888"
         id="rect1640"
         style="fill:none;fill-opacity:1;stroke:#000000;stroke-width:0.3;stroke-linecap:round;stroke-linejoin:round;stroke-miterlimit:4;stroke-dasharray:none;stroke-opacity:0.02" />
      <rect
         style="fill:none;fill-opacity:1;stroke:#000000;stroke-width:0.4;stroke-linecap:round;stroke-linejoin:round;stroke-miterlimit:4;stroke-dasharray:none;stroke-opacity:0.02"
         id="rect1642"
         width="29.810888"
         height="29.810888"
         x="69.839508"
         y="40.709618"
         rx="6.6098609"
         ry="6.6098609" />
      <rect
         ry="6.6098609"
         rx="6.6098609"
         y="40.709618"
         x="69.839508"
         height="29.810888"
         width="29.810888"
         id="rect1644"
         style="fill:none;fill-opacity:1;stroke:#000000;stroke-width:0.5;stroke-linecap:round;stroke-linejoin:round;stroke-miterlimit:4;stroke-dasharray:none;stroke-opacity:0.02" />
      <rect
         style="fill:none;fill-opacity:1;stroke:#000000;stroke-width:0.6;stroke-linecap:round;stroke-linejoin:round;stroke-miterlimit:4;stroke-dasharray:none;stroke-opacity:0.02"
         id="rect1646"
         width="29.810888"
         height="29.810888"
         x="69.839508"
         y="40.709618"
         rx="6.6098609"
         ry="6.6098609" />
      <rect
         ry="6.6098609"
         rx="6.6098609"
         y="40.709618"
         x="69.839508"
         height="29.810888"
         width="29.810888"
         id="rect1648"
         style="fill:none;fill-opacity:1;stroke:#000000;stroke-width:0.7;stroke-linecap:round;stroke-linejoin:round;stroke-miterlimit:4;stroke-dasharray:none;stroke-opacity:0.02" />
      <rect
         style="fill:none;fill-opacity:1;stroke:#000000;stroke-width:0.8;stroke-linecap:round;stroke-linejoin:round;stroke-miterlimit:4;stroke-dasharray:none;stroke-opacity:0.02"
         id="rect1650"
         width="29.810888"
         height="29.810888"
         x="69.839508"
         y="40.709618"
         rx="6.6098609"
         ry="6.6098609" />
      <rect
         ry="6.6098609"
         rx="6.6098609"
         y="40.709618"
         x="69.839508"
         height="29.810888"
         width="29.810888"
         id="rect1652"
         style="fill:none;fill-opacity:1;stroke:#000000;stroke-width:1;stroke-linecap:round;stroke-linejoin:round;stroke-miterlimit:4;stroke-dasharray:none;stroke-opacity:0.02" />
      <rect
         style="fill:none;fill-opacity:1;stroke:#000000;stroke-width:1.2;stroke-linecap:round;stroke-linejoin:round;stroke-miterlimit:4;stroke-dasharray:none;stroke-opacity:0.02"
         id="rect1654"
         width="29.810888"
         height="29.810888"
         x="69.839508"
         y="40.709618"
         rx="6.6098609"
         ry="6.6098609" />
      <rect
         ry="6.6098609"
         rx="6.6098609"
         y="40.709618"
         x="69.839508"
         height="29.810888"
         width="29.810888"
         id="rect1656"
         style="fill:none;fill-opacity:1;stroke:#000000;stroke-width:1.4;stroke-linecap:round;stroke-linejoin:round;stroke-miterlimit:4;stroke-dasharray:none;stroke-opacity:0.02" />
      <rect
         style="fill:none;fill-opacity:1;stroke:#000000;stroke-width:1.6;stroke-linecap:round;stroke-linejoin:round;stroke-miterlimit:4;stroke-dasharray:none;stroke-opacity:0.02"
         id="rect1658"
         width="29.810888"
         height="29.810888"
         x="69.839508"
         y="40.709618"
         rx="6.6098609"
         ry="6.6098609" />
      <rect
         ry="6.6098609"
         rx="6.6098609"
         y="40.709618"
         x="69.839508"
         height="29.810888"
         width="29.810888"
         id="rect1660"
         style="fill:none;fill-opacity:1;stroke:#000000;stroke-width:1.8;stroke-linecap:round;stroke-linejoin:round;stroke-miterlimit:4;stroke-dasharray:none;stroke-opacity:0.02" />
      <rect
         style="fill:none;fill-opacity:1;stroke:#000000;stroke-width:2;stroke-linecap:round;stroke-linejoin:round;stroke-miterlimit:4;stroke-dasharray:none;stroke-opacity:0.02"
         id="rect1662"
         width="29.810888"
         height="29.810888"
         x="69.839508"
         y="40.709618"
         rx="6.6098609"
         ry="6.6098609" />
      <rect
         ry="6.6098609"
         rx="6.6098609"
         y="40.709618"
         x="69.839508"
         height="29.810888"
         width="29.810888"
         id="rect1664"
         style="fill:none;fill-opacity:1;stroke:#000000;stroke-width:2.2;stroke-linecap:round;stroke-linejoin:round;stroke-miterlimit:4;stroke-dasharray:none;stroke-opacity:0.02" />
      <rect
         style="fill:none;fill-opacity:1;stroke:#000000;stroke-width:2.6;stroke-linecap:round;stroke-linejoin:round;stroke-miterlimit:4;stroke-dasharray:none;stroke-opacity:0.02"
         id="rect1666"
         width="29.810888"
         height="29.810888"
         x="69.839508"
         y="40.709618"
         rx="6.6098609"
         ry="6.6098609" />
      <rect
         ry="6.6098609"
         rx="6.6098609"
         y="40.709618"
         x="69.839508"
         height="29.810888"
         width="29.810888"
         id="rect1668"
         style="fill:none;fill-opacity:1;stroke:#000000;stroke-width:3;stroke-linecap:round;stroke-linejoin:round;stroke-miterlimit:4;stroke-dasharray:none;stroke-opacity:0.02" />
      <rect
         style="fill:none;fill-opacity:1;stroke:#000000;stroke-width:3.4;stroke-linecap:round;stroke-linejoin:round;stroke-miterlimit:4;stroke-dasharray:none;stroke-opacity:0.02"
         id="rect1670"
         width="29.810888"
         height="29.810888"
         x="69.839508"
         y="40.709618"
         rx="6.6098609"
         ry="6.6098609" />
      <rect
         ry="6.6098609"
         rx="6.6098609"
         y="40.709618"
         x="69.839508"
         height="29.810888"
         width="29.810888"
         id="rect1672"
         style="fill:none;fill-opacity:1;stroke:#000000;stroke-width:3.8;stroke-linecap:round;stroke-linejoin:round;stroke-miterlimit:4;stroke-dasharray:none;stroke-opacity:0.02" />
      <rect
         style="fill:none;fill-opacity:1;stroke:#000000;stroke-width:4.2;stroke-linecap:round;stroke-linejoin:round;stroke-miterlimit:4;stroke-dasharray:none;stroke-opacity:0.02"
         id="rect1674"
         width="29.810888"
         height="29.810888"
         x="69.839508"
         y="40.709618"
         rx="6.6098609"
         ry="6.6098609" />
      <rect
         ry="6.6098609"
         rx="6.6098609"
         y="40.709618"
         x="69.839508"
         height="29.810888"
         width="29.810888"
         id="rect1676"
         style="fill:none;fill-opacity:1;stroke:#000000;stroke-width:4.6;stroke-linecap:round;stroke-linejoin:round;stroke-miterlimit:4;stroke-dasharray:none;stroke-opacity:0.02" />
      <rect
         style="fill:none;fill-opacity:1;stroke:#000000;stroke-width:5;stroke-linecap:round;stroke-linejoin:round;stroke-miterlimit:4;stroke-dasharray:none;stroke-opacity:0.02"
         id="rect1678"
         width="29.810888"
         height="29.810888"
         x="69.839508"
         y="40.709618"
         rx="6.6098609"
         ry="6.6098609" />
    </g>
    <rect
       ry="6.4494534"
       rx="6.4494534"
       y="2.5391712"
       x="2.4074187"
       height="29.087439"
       width="29.087439"
       id="rect849"
       style="fill:url(#radialGradient963);fill-opacity:1;stroke-width:2.68768;stroke-linecap:round;stroke-linejoin:round" />
    <path
       style="fill:#ffffff;stroke-width:0.495103"
       d="m 15.18031,7.2700014 -0.253529,0.077919 c -0.360728,0.05625 -0.401961,0.3850467 -0.543125,0.6773427 -0.27572,0.4122641 -0.291321,0.6892775 -0.128948,1.0928141 0.18009,0.4441859 0.436074,0.825099 0.760595,1.2222188 l 0.532118,0.650625 v 0.158327 0.158327 l -0.315945,0.139035 -0.315694,0.139277 -0.595348,0.08237 c -0.387626,0.03123 -0.451052,0.07537 -0.601198,0.393838 -0.169816,0.252854 -0.147174,0.490081 -0.148128,0.780258 l -0.0014,0.469042 -0.196989,0.696637 c -0.31471,0.834283 -0.187187,1.724064 -0.179079,2.596562 -0.01329,0.87788 -0.124832,1.658256 0.32183,2.41721 0.162743,0.262135 0.182504,0.517284 0.50654,0.517284 0.338303,0.05195 0.15973,-0.254556 0.121519,-0.485617 -0.02738,-0.307571 -0.219504,-0.485618 0.141729,-0.485618 0.291368,0.02846 0.204566,-0.05552 0.132261,-0.284988 -0.03413,-0.221727 -0.142496,-0.343028 -0.288829,-0.504175 -0.181287,-0.181474 -0.223759,-0.18878 -0.07113,-0.379983 0.252614,-0.298084 0.224631,-0.740984 0.286276,-1.110761 l 0.158346,-0.949964 0.09184,-0.433666 c 0.05248,-0.222244 0.147106,-0.406435 0.376333,-0.478945 l 0.143263,-0.04528 0.413419,0.750069 c 0.295047,0.41009 0.413415,0.735862 0.413415,1.212443 0.0546,0.365657 -0.04246,0.520962 -0.24866,0.805481 -0.277178,0.279839 -0.277008,0.567019 -0.323626,0.93537 l -0.07496,0.592244 -0.581499,0.927691 c -0.401031,0.49418 -0.58316,0.941193 -0.668228,1.53924 l -0.08698,0.61154 -0.45051,0.48215 c -0.452296,0.356646 -0.491598,0.697125 -0.592502,1.224563 l -0.141991,0.742154 -0.144274,0.254068 -0.144555,0.253817 -0.0097,0.506643 c -0.128219,0.36486 0.07594,0.463963 0.17732,0.728305 0.311099,0.534401 1.165593,1.324475 1.859362,1.083802 l -0.08209,-0.260496 -0.0898,-0.284989 -0.186751,-0.205825 -0.18649,-0.206074 -0.077,-0.458903 -0.077,-0.459147 h 0.135329 0.135329 l 0.285505,-0.918299 c 0.09927,-0.595503 0.313284,-0.946493 0.722201,-1.361607 0.389708,-0.292573 0.472543,-0.575239 0.590713,-1.013293 l 0.153742,-0.569976 0.280646,-0.443317 0.280383,-0.443316 0.44233,-0.473993 c 0.40631,-0.374581 0.675642,-0.779424 0.675642,0.02773 -0.05187,0.361624 0.123783,0.641405 0.267346,0.965552 0.334603,0.53526 0.207654,0.74618 -0.02096,1.290854 -0.347354,0.562227 -0.243937,0.966701 -0.145322,1.583026 l 0.143526,0.895286 -0.187775,0.351042 c -0.262248,0.420943 -0.246389,0.732899 0.02021,1.101362 l 0.208249,0.287465 -0.07266,0.182822 c -0.0012,0.507535 0.523789,0.411858 0.881904,0.414124 h 2.293694 c -0.02178,-0.477465 -1.063439,-0.652685 -1.505297,-0.715445 l -0.173185,-0.201864 -0.172942,-0.201619 -0.04068,-0.853235 -0.04042,-0.853237 0.197504,-0.846059 0.197494,-0.846304 c 0.383593,-0.245129 0.320567,-0.371778 0.232805,-0.810438 L 19.4884,21.164428 19.47362,19.834478 19.45846,18.504531 19.36611,17.522905 c 0.06929,-0.303849 -0.3604,-0.981626 0.0829,-0.981626 l 0.07957,0.200378 0.07957,0.200386 v 0.365636 c 0.01216,0.282896 -0.09409,0.40052 0.209524,0.28796 l 0.209778,-0.07792 0.115905,0.17689 0.115625,0.176628 0.0021,0.292408 c 0.02144,0.191561 -0.08241,0.343213 0.133027,0.214235 l 0.130988,-0.07818 0.0041,-0.340897 0.0041,-0.340902 0.192384,0.2459 c 0.113398,0.09538 0.192389,0.374768 0.192389,0.114054 0.01441,-0.187702 -0.08207,-0.359669 -0.144797,-0.53361 -0.06793,-0.287423 -0.129697,-0.393686 -0.380676,-0.523712 l -0.236128,-0.122212 0.0683,-0.492045 c 0.166659,-0.578181 -0.173891,-1.030356 -0.409378,-1.553582 l -0.47741,-0.920095 -0.251482,-0.50665 -0.251732,-0.506643 -0.08903,-0.488344 c -0.03099,-0.461587 -0.114296,-0.498549 -0.52599,-0.66497 -0.2563,-0.145209 -0.476747,-0.176628 -0.761345,-0.176628 h -0.324131 l -0.2039,-0.422713 -0.20389,-0.281529 v -0.153125 -0.153368 l 0.261964,-0.08039 c 0.41038,-0.06132 0.261969,-0.4073651 0.261969,-0.7441427 0.03604,-0.3818357 0.03583,-0.6181268 -0.192384,-0.9098801 L 16.865643,8.4983134 16.861543,8.2133266 C 16.898483,7.9380029 16.796143,7.8690303 16.604956,7.684165 16.38264,7.389545 16.119874,7.4063264 15.766354,7.3551456 Z"
       id="path8" />
  </g>
</svg>
