<?xml version="1.0" encoding="UTF-8" standalone="no"?>
<svg
   width="128"
   height="128"
   viewBox="0 0 33.866666 33.866668"
   version="1.1"
   id="svg1829"
   inkscape:version="1.1.2 (0a00cf5339, 2022-02-04)"
   sodipodi:docname="pyrit.svg"
   xmlns:inkscape="http://www.inkscape.org/namespaces/inkscape"
   xmlns:sodipodi="http://sodipodi.sourceforge.net/DTD/sodipodi-0.dtd"
   xmlns:xlink="http://www.w3.org/1999/xlink"
   xmlns="http://www.w3.org/2000/svg"
   xmlns:svg="http://www.w3.org/2000/svg"
   xmlns:rdf="http://www.w3.org/1999/02/22-rdf-syntax-ns#"
   xmlns:cc="http://creativecommons.org/ns#"
   xmlns:dc="http://purl.org/dc/elements/1.1/">
  <defs
     id="defs1823">
    <linearGradient
       inkscape:collect="always"
       id="linearGradient35755">
      <stop
         style="stop-color:#fefefe;stop-opacity:1;"
         offset="0"
         id="stop35751" />
      <stop
         style="stop-color:#ffcece;stop-opacity:1"
         offset="1"
         id="stop35753" />
    </linearGradient>
    <linearGradient
       inkscape:collect="always"
       id="linearGradient33684">
      <stop
         style="stop-color:#ffc1bf;stop-opacity:1"
         offset="0"
         id="stop33680" />
      <stop
         style="stop-color:#ffffff;stop-opacity:0.98126769"
         offset="1"
         id="stop33682" />
    </linearGradient>
    <linearGradient
       inkscape:collect="always"
       id="linearGradient11579">
      <stop
         style="stop-color:#ff6541;stop-opacity:1"
         offset="0"
         id="stop11575" />
      <stop
         style="stop-color:#ff743c;stop-opacity:1"
         offset="1"
         id="stop11577" />
    </linearGradient>
    <linearGradient
       inkscape:collect="always"
       id="linearGradient884">
      <stop
         style="stop-color:#ffa72a;stop-opacity:1"
         offset="0"
         id="stop880" />
      <stop
         style="stop-color:#ff444d;stop-opacity:1"
         offset="1"
         id="stop882" />
    </linearGradient>
    <radialGradient
       inkscape:collect="always"
       xlink:href="#linearGradient884"
       id="radialGradient886"
       cx="17.309874"
       cy="2.5295613"
       fx="17.309874"
       fy="2.5295613"
       r="14.54372"
       gradientUnits="userSpaceOnUse"
       gradientTransform="matrix(7.161795,0,0,1.7510995,-106.65989,-1.8999525)" />
    <linearGradient
       id="linearGradient895">
      <stop
         id="stop3335"
         offset="0" />
      <stop
         id="stop3337"
         offset="1"
         stop-opacity="0" />
    </linearGradient>
    <linearGradient
       inkscape:collect="always"
       xlink:href="#linearGradient11579"
       id="linearGradient11581"
       x1="68.185455"
       y1="72.629387"
       x2="68.185455"
       y2="59.195976"
       gradientUnits="userSpaceOnUse" />
    <linearGradient
       inkscape:collect="always"
       xlink:href="#linearGradient33684"
       id="linearGradient33686"
       x1="18.620644"
       y1="26.42403"
       x2="19.263184"
       y2="9.4595013"
       gradientUnits="userSpaceOnUse" />
    <linearGradient
       inkscape:collect="always"
       xlink:href="#linearGradient35755"
       id="linearGradient35757"
       x1="55.779617"
       y1="36.517216"
       x2="55.779617"
       y2="94.234283"
       gradientUnits="userSpaceOnUse" />
  </defs>
  <sodipodi:namedview
     id="base"
     pagecolor="#ffffff"
     bordercolor="#666666"
     borderopacity="1.0"
     inkscape:pageopacity="0.0"
     inkscape:pageshadow="2"
     inkscape:zoom="5.6568543"
     inkscape:cx="13.258252"
     inkscape:cy="61.606678"
     inkscape:document-units="mm"
     inkscape:current-layer="layer1"
     inkscape:document-rotation="0"
     showgrid="false"
     units="px"
     inkscape:window-width="1920"
     inkscape:window-height="1028"
     inkscape:window-x="0"
     inkscape:window-y="24"
     inkscape:window-maximized="1"
     inkscape:pagecheckerboard="0"
     inkscape:lockguides="true" />
  <metadata
     id="metadata1826">
    <rdf:RDF>
      <cc:Work
         rdf:about="">
        <dc:format>image/svg+xml</dc:format>
        <dc:type
           rdf:resource="http://purl.org/dc/dcmitype/StillImage" />
      </cc:Work>
    </rdf:RDF>
  </metadata>
  <g
     inkscape:label="Capa 1"
     inkscape:groupmode="layer"
     id="layer1">
    <g
       id="g1702"
       transform="matrix(0.97573206,0,0,0.97573206,-65.58674,-37.192363)"
       style="opacity:0.296765">
      <rect
         style="fill:none;fill-opacity:1;stroke:#000000;stroke-width:0.1;stroke-linecap:round;stroke-linejoin:round;stroke-miterlimit:4;stroke-dasharray:none;stroke-opacity:0.02"
         id="rect1634"
         width="29.810888"
         height="29.810888"
         x="69.839508"
         y="40.709618"
         rx="6.6098609"
         ry="6.6098609" />
      <rect
         ry="6.6098609"
         rx="6.6098609"
         y="40.709618"
         x="69.839508"
         height="29.810888"
         width="29.810888"
         id="rect1638"
         style="fill:none;fill-opacity:1;stroke:#000000;stroke-width:0.2;stroke-linecap:round;stroke-linejoin:round;stroke-miterlimit:4;stroke-dasharray:none;stroke-opacity:0.02" />
      <rect
         style="fill:none;fill-opacity:1;stroke:#000000;stroke-width:0.3;stroke-linecap:round;stroke-linejoin:round;stroke-miterlimit:4;stroke-dasharray:none;stroke-opacity:0.02"
         id="rect1640"
         width="29.810888"
         height="29.810888"
         x="69.839508"
         y="40.709618"
         rx="6.6098609"
         ry="6.6098609" />
      <rect
         ry="6.6098609"
         rx="6.6098609"
         y="40.709618"
         x="69.839508"
         height="29.810888"
         width="29.810888"
         id="rect1642"
         style="fill:none;fill-opacity:1;stroke:#000000;stroke-width:0.4;stroke-linecap:round;stroke-linejoin:round;stroke-miterlimit:4;stroke-dasharray:none;stroke-opacity:0.02" />
      <rect
         style="fill:none;fill-opacity:1;stroke:#000000;stroke-width:0.5;stroke-linecap:round;stroke-linejoin:round;stroke-miterlimit:4;stroke-dasharray:none;stroke-opacity:0.02"
         id="rect1644"
         width="29.810888"
         height="29.810888"
         x="69.839508"
         y="40.709618"
         rx="6.6098609"
         ry="6.6098609" />
      <rect
         ry="6.6098609"
         rx="6.6098609"
         y="40.709618"
         x="69.839508"
         height="29.810888"
         width="29.810888"
         id="rect1646"
         style="fill:none;fill-opacity:1;stroke:#000000;stroke-width:0.6;stroke-linecap:round;stroke-linejoin:round;stroke-miterlimit:4;stroke-dasharray:none;stroke-opacity:0.02" />
      <rect
         style="fill:none;fill-opacity:1;stroke:#000000;stroke-width:0.7;stroke-linecap:round;stroke-linejoin:round;stroke-miterlimit:4;stroke-dasharray:none;stroke-opacity:0.02"
         id="rect1648"
         width="29.810888"
         height="29.810888"
         x="69.839508"
         y="40.709618"
         rx="6.6098609"
         ry="6.6098609" />
      <rect
         ry="6.6098609"
         rx="6.6098609"
         y="40.709618"
         x="69.839508"
         height="29.810888"
         width="29.810888"
         id="rect1650"
         style="fill:none;fill-opacity:1;stroke:#000000;stroke-width:0.8;stroke-linecap:round;stroke-linejoin:round;stroke-miterlimit:4;stroke-dasharray:none;stroke-opacity:0.02" />
      <rect
         style="fill:none;fill-opacity:1;stroke:#000000;stroke-width:1;stroke-linecap:round;stroke-linejoin:round;stroke-miterlimit:4;stroke-dasharray:none;stroke-opacity:0.02"
         id="rect1652"
         width="29.810888"
         height="29.810888"
         x="69.839508"
         y="40.709618"
         rx="6.6098609"
         ry="6.6098609" />
      <rect
         ry="6.6098609"
         rx="6.6098609"
         y="40.709618"
         x="69.839508"
         height="29.810888"
         width="29.810888"
         id="rect1654"
         style="fill:none;fill-opacity:1;stroke:#000000;stroke-width:1.2;stroke-linecap:round;stroke-linejoin:round;stroke-miterlimit:4;stroke-dasharray:none;stroke-opacity:0.02" />
      <rect
         style="fill:none;fill-opacity:1;stroke:#000000;stroke-width:1.4;stroke-linecap:round;stroke-linejoin:round;stroke-miterlimit:4;stroke-dasharray:none;stroke-opacity:0.02"
         id="rect1656"
         width="29.810888"
         height="29.810888"
         x="69.839508"
         y="40.709618"
         rx="6.6098609"
         ry="6.6098609" />
      <rect
         ry="6.6098609"
         rx="6.6098609"
         y="40.709618"
         x="69.839508"
         height="29.810888"
         width="29.810888"
         id="rect1658"
         style="fill:none;fill-opacity:1;stroke:#000000;stroke-width:1.6;stroke-linecap:round;stroke-linejoin:round;stroke-miterlimit:4;stroke-dasharray:none;stroke-opacity:0.02" />
      <rect
         style="fill:none;fill-opacity:1;stroke:#000000;stroke-width:1.8;stroke-linecap:round;stroke-linejoin:round;stroke-miterlimit:4;stroke-dasharray:none;stroke-opacity:0.02"
         id="rect1660"
         width="29.810888"
         height="29.810888"
         x="69.839508"
         y="40.709618"
         rx="6.6098609"
         ry="6.6098609" />
      <rect
         ry="6.6098609"
         rx="6.6098609"
         y="40.709618"
         x="69.839508"
         height="29.810888"
         width="29.810888"
         id="rect1662"
         style="fill:none;fill-opacity:1;stroke:#000000;stroke-width:2;stroke-linecap:round;stroke-linejoin:round;stroke-miterlimit:4;stroke-dasharray:none;stroke-opacity:0.02" />
      <rect
         style="fill:none;fill-opacity:1;stroke:#000000;stroke-width:2.2;stroke-linecap:round;stroke-linejoin:round;stroke-miterlimit:4;stroke-dasharray:none;stroke-opacity:0.02"
         id="rect1664"
         width="29.810888"
         height="29.810888"
         x="69.839508"
         y="40.709618"
         rx="6.6098609"
         ry="6.6098609" />
      <rect
         ry="6.6098609"
         rx="6.6098609"
         y="40.709618"
         x="69.839508"
         height="29.810888"
         width="29.810888"
         id="rect1666"
         style="fill:none;fill-opacity:1;stroke:#000000;stroke-width:2.6;stroke-linecap:round;stroke-linejoin:round;stroke-miterlimit:4;stroke-dasharray:none;stroke-opacity:0.02" />
      <rect
         style="fill:none;fill-opacity:1;stroke:#000000;stroke-width:3;stroke-linecap:round;stroke-linejoin:round;stroke-miterlimit:4;stroke-dasharray:none;stroke-opacity:0.02"
         id="rect1668"
         width="29.810888"
         height="29.810888"
         x="69.839508"
         y="40.709618"
         rx="6.6098609"
         ry="6.6098609" />
      <rect
         ry="6.6098609"
         rx="6.6098609"
         y="40.709618"
         x="69.839508"
         height="29.810888"
         width="29.810888"
         id="rect1670"
         style="fill:none;fill-opacity:1;stroke:#000000;stroke-width:3.4;stroke-linecap:round;stroke-linejoin:round;stroke-miterlimit:4;stroke-dasharray:none;stroke-opacity:0.02" />
      <rect
         style="fill:none;fill-opacity:1;stroke:#000000;stroke-width:3.8;stroke-linecap:round;stroke-linejoin:round;stroke-miterlimit:4;stroke-dasharray:none;stroke-opacity:0.02"
         id="rect1672"
         width="29.810888"
         height="29.810888"
         x="69.839508"
         y="40.709618"
         rx="6.6098609"
         ry="6.6098609" />
      <rect
         ry="6.6098609"
         rx="6.6098609"
         y="40.709618"
         x="69.839508"
         height="29.810888"
         width="29.810888"
         id="rect1674"
         style="fill:none;fill-opacity:1;stroke:#000000;stroke-width:4.2;stroke-linecap:round;stroke-linejoin:round;stroke-miterlimit:4;stroke-dasharray:none;stroke-opacity:0.02" />
      <rect
         style="fill:none;fill-opacity:1;stroke:#000000;stroke-width:4.6;stroke-linecap:round;stroke-linejoin:round;stroke-miterlimit:4;stroke-dasharray:none;stroke-opacity:0.02"
         id="rect1676"
         width="29.810888"
         height="29.810888"
         x="69.839508"
         y="40.709618"
         rx="6.6098609"
         ry="6.6098609" />
      <rect
         ry="6.6098609"
         rx="6.6098609"
         y="40.709618"
         x="69.839508"
         height="29.810888"
         width="29.810888"
         id="rect1678"
         style="fill:none;fill-opacity:1;stroke:#000000;stroke-width:5;stroke-linecap:round;stroke-linejoin:round;stroke-miterlimit:4;stroke-dasharray:none;stroke-opacity:0.02" />
    </g>
    <rect
       style="fill:url(#radialGradient886);fill-opacity:1;stroke-width:2.68769;stroke-linecap:round;stroke-linejoin:round"
       id="rect849-5"
       width="29.08744"
       height="29.08744"
       x="2.5579116"
       y="2.5293181"
       rx="6.4494534"
       ry="6.4494534" />
    <path
       id="path6810"
       style="color:#000000;fill:url(#linearGradient33686);stroke-width:1;-inkscape-stroke:none;stroke:none;stroke-opacity:1;fill-opacity:1"
       d="m 22.605001,9.4278481 -2.648417,4.5878339 0.865063,0.499711 2.359546,-4.087606 h 4.097941 V 9.4278481 Z m -0.556555,7.1344479 v 1.000456 h 6.341731 v -1.000456 z m -0.716752,1.976624 -0.865064,0.500228 2.304252,3.994071 h 1.64021 l 0.455786,1.699121 2.18476,0 v -0.999939 l -1.417365,0 -0.32091,-1.198893 0.280086,-1.045414 h 3.767727 v -0.999939 h -4.535639 l -0.413928,1.545125 h -1.062467 z"
       sodipodi:nodetypes="cccccccccccccccccccccccccccc" />
    <path
       id="path7014"
       style="color:#000000;fill:url(#linearGradient35757);stroke-width:3.77953;-inkscape-stroke:none;fill-opacity:1"
       d="M 24.763672 35.632812 L 24.763672 39.412109 L 37.394531 39.412109 L 38.607422 43.943359 L 37.548828 47.894531 L 31.978516 47.894531 L 31.978516 51.673828 L 40.451172 51.673828 L 42.015625 45.833984 L 46.03125 45.833984 L 53.65625 59.041016 L 56.925781 57.150391 L 48.216797 42.054688 L 42.017578 42.054688 L 40.294922 35.632812 L 24.763672 35.632812 z M 21.791016 62.730469 L 21.791016 66.511719 L 45.759766 66.511719 L 45.759766 62.730469 L 21.791016 62.730469 z M 50.396484 74.248047 L 41.478516 89.697266 L 25.990234 89.697266 L 25.990234 93.476562 L 43.65625 93.476562 L 53.666016 76.136719 L 50.396484 74.248047 z "
       transform="scale(0.26458333)" />
    <rect
       style="fill:#ffffff;fill-opacity:1;stroke-width:1.5;stroke-linecap:round;stroke-linejoin:round"
       id="rect1125"
       width="16.56189"
       height="8.4906263"
       x="8.8206873"
       y="12.827725"
       rx="4.2453132"
       ry="4.2453132" />
    <path
       id="path8023"
       style="color:#000000;-inkscape-font-specification:'sans-serif Bold';fill:url(#linearGradient11581);stroke-width:0.973822;stroke-linecap:round;stroke-linejoin:round;-inkscape-stroke:none;fill-opacity:1"
       d="M 40.544922 59.978516 A 0.48695955 0.48695955 0 0 0 40.072266 60.576172 L 42.582031 71.125 A 0.48695955 0.48695955 0 0 0 43.054688 71.501953 L 46.191406 71.501953 A 0.48695955 0.48695955 0 0 0 46.664062 71.125 L 48.087891 65.09375 L 49.527344 71.125 A 0.48695955 0.48695955 0 0 0 50 71.501953 L 53.136719 71.501953 A 0.48695955 0.48695955 0 0 0 53.609375 71.125 L 56.097656 60.576172 A 0.48695955 0.48695955 0 0 0 55.625 59.978516 L 53.041016 59.978516 A 0.48695955 0.48695955 0 0 0 52.5625 60.355469 L 51.21875 66.017578 L 49.882812 60.355469 A 0.48695955 0.48695955 0 0 0 49.410156 59.978516 L 46.789062 59.978516 A 0.48695955 0.48695955 0 0 0 46.308594 60.355469 L 44.972656 66.009766 L 43.628906 60.355469 A 0.48695955 0.48695955 0 0 0 43.158203 59.978516 L 40.544922 59.978516 z M 59.228516 59.978516 A 0.48695955 0.48695955 0 0 0 58.740234 60.466797 L 58.740234 71.015625 A 0.48695955 0.48695955 0 0 0 59.228516 71.501953 L 61.951172 71.501953 A 0.48695955 0.48695955 0 0 0 62.439453 71.015625 L 62.439453 60.466797 A 0.48695955 0.48695955 0 0 0 61.951172 59.978516 L 59.228516 59.978516 z M 73.126953 59.978516 A 0.48695955 0.48695955 0 0 0 72.640625 60.466797 L 72.640625 71.015625 A 0.48695955 0.48695955 0 0 0 73.126953 71.501953 L 75.84375 71.501953 A 0.48695955 0.48695955 0 0 0 76.332031 71.015625 L 76.332031 67.029297 L 80.191406 67.029297 A 0.48695955 0.48695955 0 0 0 80.679688 66.541016 L 80.679688 64.490234 A 0.48695955 0.48695955 0 0 0 80.191406 64.001953 L 76.332031 64.001953 L 76.332031 63.005859 L 80.464844 63.005859 A 0.48695955 0.48695955 0 0 0 80.953125 62.517578 L 80.953125 60.466797 A 0.48695955 0.48695955 0 0 0 80.464844 59.978516 L 73.126953 59.978516 z M 84.421875 59.978516 A 0.48695955 0.48695955 0 0 0 83.935547 60.466797 L 83.935547 71.015625 A 0.48695955 0.48695955 0 0 0 84.421875 71.501953 L 87.138672 71.501953 A 0.48695955 0.48695955 0 0 0 87.625 71.015625 L 87.625 60.466797 A 0.48695955 0.48695955 0 0 0 87.138672 59.978516 L 84.421875 59.978516 z M 65.214844 65.330078 A 0.48695955 0.48695955 0 0 0 64.726562 65.818359 L 64.726562 67.876953 A 0.48695955 0.48695955 0 0 0 65.214844 68.365234 L 69.650391 68.365234 A 0.48695955 0.48695955 0 0 0 70.138672 67.876953 L 70.138672 65.818359 A 0.48695955 0.48695955 0 0 0 69.650391 65.330078 L 65.214844 65.330078 z "
       transform="scale(0.26458333)" />
    <circle
       style="opacity:1;fill:#ffffff;fill-opacity:1;stroke:#000000;stroke-width:1;stroke-linecap:round;stroke-linejoin:round;stroke-miterlimit:4;stroke-dasharray:none;stroke-opacity:1"
       id="path7092"
       cx="6.2273183"
       cy="24.231617"
       r="1.3231791" />
    <circle
       style="opacity:1;fill:#ff5148;fill-opacity:1;stroke:#ffd1d1;stroke-width:1;stroke-linecap:round;stroke-linejoin:round;stroke-miterlimit:4;stroke-dasharray:none;stroke-opacity:1"
       id="circle7174"
       cx="6.2273183"
       cy="24.231617"
       r="1.3231791" />
    <circle
       style="opacity:1;fill:#ff723d;fill-opacity:1;stroke:#fee7e7;stroke-width:1;stroke-linecap:round;stroke-linejoin:round;stroke-miterlimit:4;stroke-dasharray:none;stroke-opacity:1"
       id="circle7176"
       cx="5.6716251"
       cy="17.02282"
       r="1.3231791" />
    <circle
       style="opacity:1;fill:#ff8c33;fill-opacity:1;stroke:#fefdfd;stroke-width:1;stroke-linecap:round;stroke-linejoin:round;stroke-miterlimit:4;stroke-dasharray:none;stroke-opacity:1"
       id="circle7178"
       cx="5.008872"
       cy="9.798831"
       r="1.3231791" />
    <circle
       style="opacity:1;fill:#ff7a3a;fill-opacity:1;stroke:#fef4f4;stroke-width:1;stroke-linecap:round;stroke-linejoin:round;stroke-miterlimit:4;stroke-dasharray:none;stroke-opacity:1"
       id="circle7180"
       cx="7.6023903"
       cy="13.167016"
       r="1.3231791" />
    <circle
       style="opacity:1;fill:#ff4f49;fill-opacity:1;stroke:#ffc1be;stroke-width:1;stroke-linecap:round;stroke-linejoin:round;stroke-miterlimit:4;stroke-dasharray:none;stroke-opacity:1"
       id="circle7785"
       cx="27.716953"
       cy="24.258755"
       r="1.3231791" />
    <circle
       style="opacity:1;fill:#ff6342;fill-opacity:1;stroke:#ffd1c7;stroke-width:1;stroke-linecap:round;stroke-linejoin:round;stroke-miterlimit:4;stroke-dasharray:none;stroke-opacity:1"
       id="circle7787"
       cx="29.415852"
       cy="20.653572"
       r="1.3231791" />
    <circle
       style="opacity:1;fill:#ff6d3f;fill-opacity:1;stroke:#fff2ee;stroke-width:1;stroke-linecap:round;stroke-linejoin:round;stroke-miterlimit:4;stroke-dasharray:none;stroke-opacity:1"
       id="circle7789"
       cx="27.74515"
       cy="16.807102"
       r="1.3231791" />
    <circle
       style="opacity:1;fill:#ff8536;fill-opacity:1;stroke:#ffffff;stroke-width:1;stroke-linecap:round;stroke-linejoin:round;stroke-miterlimit:4;stroke-dasharray:none;stroke-opacity:1"
       id="circle7791"
       cx="27.674149"
       cy="9.8306847"
       r="1.3231791" />
  </g>
</svg>
