<?xml version="1.0" encoding="UTF-8" standalone="no"?>
<svg
   xmlns:dc="http://purl.org/dc/elements/1.1/"
   xmlns:cc="http://creativecommons.org/ns#"
   xmlns:rdf="http://www.w3.org/1999/02/22-rdf-syntax-ns#"
   xmlns:svg="http://www.w3.org/2000/svg"
   xmlns="http://www.w3.org/2000/svg"
   xmlns:xlink="http://www.w3.org/1999/xlink"
   xmlns:sodipodi="http://sodipodi.sourceforge.net/DTD/sodipodi-0.dtd"
   xmlns:inkscape="http://www.inkscape.org/namespaces/inkscape"
   width="128"
   height="128"
   viewBox="0 0 33.866666 33.866668"
   version="1.1"
   id="svg1559"
   inkscape:version="1.0.1 (3bc2e813f5, 2020-09-07)"
   sodipodi:docname="python3.2.svg">
  <defs
     id="defs1553">
    <radialGradient
       inkscape:collect="always"
       xlink:href="#linearGradient4675"
       id="radialGradient1506"
       cx="17.080746"
       cy="3.8305573"
       fx="17.080746"
       fy="3.8305573"
       r="14.543719"
       gradientUnits="userSpaceOnUse"
       gradientTransform="matrix(1.7355759,0,0,1.4452169,-12.482061,-1.6932423)" />
    <linearGradient
       id="linearGradient4675"
       inkscape:collect="always">
      <stop
         id="stop4671"
         offset="0"
         style="stop-color:#f7f7f7;stop-opacity:1" />
      <stop
         id="stop4673"
         offset="1"
         style="stop-color:#e8e9ea;stop-opacity:1" />
    </linearGradient>
    <linearGradient
       inkscape:collect="always"
       xlink:href="#linearGradient1528"
       id="linearGradient1644"
       gradientUnits="userSpaceOnUse"
       gradientTransform="translate(0.50668752,0.222486)"
       x1="11.984499"
       y1="12.320895"
       x2="21.046818"
       y2="21.383215" />
    <linearGradient
       inkscape:collect="always"
       id="linearGradient1528">
      <stop
         style="stop-color:#ffb551;stop-opacity:1"
         offset="0"
         id="stop1524" />
      <stop
         style="stop-color:#ffd374;stop-opacity:0.91363639"
         offset="1"
         id="stop1526" />
    </linearGradient>
    <linearGradient
       inkscape:collect="always"
       xlink:href="#linearGradient2352"
       id="linearGradient1634"
       gradientUnits="userSpaceOnUse"
       gradientTransform="translate(-29.883976,-0.73533)"
       x1="11.984499"
       y1="12.320895"
       x2="21.046818"
       y2="21.383215" />
    <linearGradient
       id="linearGradient2352"
       inkscape:collect="always">
      <stop
         id="stop2348"
         offset="0"
         style="stop-color:#ffa935;stop-opacity:1" />
      <stop
         id="stop2350"
         offset="1"
         style="stop-color:#ffd986;stop-opacity:0.9137255" />
    </linearGradient>
    <linearGradient
       inkscape:collect="always"
       xlink:href="#linearGradient1520"
       id="linearGradient1636"
       gradientUnits="userSpaceOnUse"
       gradientTransform="translate(-29.883976,-0.73533)"
       x1="16.262156"
       y1="18.567862"
       x2="9.7994022"
       y2="8.8134651" />
    <linearGradient
       inkscape:collect="always"
       id="linearGradient1520">
      <stop
         style="stop-color:#237df5;stop-opacity:1"
         offset="0"
         id="stop1516" />
      <stop
         style="stop-color:#32bfe6;stop-opacity:0.91764706"
         offset="1"
         id="stop1518" />
    </linearGradient>
  </defs>
  <sodipodi:namedview
     id="base"
     pagecolor="#ffffff"
     bordercolor="#666666"
     borderopacity="1.0"
     inkscape:pageopacity="0.0"
     inkscape:pageshadow="2"
     inkscape:zoom="5.6"
     inkscape:cx="68.270524"
     inkscape:cy="44.015293"
     inkscape:document-units="mm"
     inkscape:current-layer="layer1"
     inkscape:document-rotation="0"
     showgrid="false"
     units="px"
     inkscape:window-width="1514"
     inkscape:window-height="941"
     inkscape:window-x="50"
     inkscape:window-y="27"
     inkscape:window-maximized="0" />
  <metadata
     id="metadata1556">
    <rdf:RDF>
      <cc:Work
         rdf:about="">
        <dc:format>image/svg+xml</dc:format>
        <dc:type
           rdf:resource="http://purl.org/dc/dcmitype/StillImage" />
        <dc:title></dc:title>
      </cc:Work>
    </rdf:RDF>
  </metadata>
  <g
     inkscape:label="Capa 1"
     inkscape:groupmode="layer"
     id="layer1">
    <g
       id="g1702"
       transform="matrix(0.97573206,0,0,0.97573206,-65.666261,-37.190907)"
       style="opacity:0.295">
      <rect
         style="fill:none;fill-opacity:1;stroke:#000000;stroke-width:0.1;stroke-linecap:round;stroke-linejoin:round;stroke-miterlimit:4;stroke-dasharray:none;stroke-opacity:0.02"
         id="rect1634"
         width="29.810888"
         height="29.810888"
         x="69.839508"
         y="40.709618"
         rx="6.6098609"
         ry="6.6098609" />
      <rect
         ry="6.6098609"
         rx="6.6098609"
         y="40.709618"
         x="69.839508"
         height="29.810888"
         width="29.810888"
         id="rect1638"
         style="fill:none;fill-opacity:1;stroke:#000000;stroke-width:0.2;stroke-linecap:round;stroke-linejoin:round;stroke-miterlimit:4;stroke-dasharray:none;stroke-opacity:0.02" />
      <rect
         style="fill:none;fill-opacity:1;stroke:#000000;stroke-width:0.3;stroke-linecap:round;stroke-linejoin:round;stroke-miterlimit:4;stroke-dasharray:none;stroke-opacity:0.02"
         id="rect1640"
         width="29.810888"
         height="29.810888"
         x="69.839508"
         y="40.709618"
         rx="6.6098609"
         ry="6.6098609" />
      <rect
         ry="6.6098609"
         rx="6.6098609"
         y="40.709618"
         x="69.839508"
         height="29.810888"
         width="29.810888"
         id="rect1642"
         style="fill:none;fill-opacity:1;stroke:#000000;stroke-width:0.4;stroke-linecap:round;stroke-linejoin:round;stroke-miterlimit:4;stroke-dasharray:none;stroke-opacity:0.02" />
      <rect
         style="fill:none;fill-opacity:1;stroke:#000000;stroke-width:0.5;stroke-linecap:round;stroke-linejoin:round;stroke-miterlimit:4;stroke-dasharray:none;stroke-opacity:0.02"
         id="rect1644"
         width="29.810888"
         height="29.810888"
         x="69.839508"
         y="40.709618"
         rx="6.6098609"
         ry="6.6098609" />
      <rect
         ry="6.6098609"
         rx="6.6098609"
         y="40.709618"
         x="69.839508"
         height="29.810888"
         width="29.810888"
         id="rect1646"
         style="fill:none;fill-opacity:1;stroke:#000000;stroke-width:0.6;stroke-linecap:round;stroke-linejoin:round;stroke-miterlimit:4;stroke-dasharray:none;stroke-opacity:0.02" />
      <rect
         style="fill:none;fill-opacity:1;stroke:#000000;stroke-width:0.7;stroke-linecap:round;stroke-linejoin:round;stroke-miterlimit:4;stroke-dasharray:none;stroke-opacity:0.02"
         id="rect1648"
         width="29.810888"
         height="29.810888"
         x="69.839508"
         y="40.709618"
         rx="6.6098609"
         ry="6.6098609" />
      <rect
         ry="6.6098609"
         rx="6.6098609"
         y="40.709618"
         x="69.839508"
         height="29.810888"
         width="29.810888"
         id="rect1650"
         style="fill:none;fill-opacity:1;stroke:#000000;stroke-width:0.8;stroke-linecap:round;stroke-linejoin:round;stroke-miterlimit:4;stroke-dasharray:none;stroke-opacity:0.02" />
      <rect
         style="fill:none;fill-opacity:1;stroke:#000000;stroke-width:1;stroke-linecap:round;stroke-linejoin:round;stroke-miterlimit:4;stroke-dasharray:none;stroke-opacity:0.02"
         id="rect1652"
         width="29.810888"
         height="29.810888"
         x="69.839508"
         y="40.709618"
         rx="6.6098609"
         ry="6.6098609" />
      <rect
         ry="6.6098609"
         rx="6.6098609"
         y="40.709618"
         x="69.839508"
         height="29.810888"
         width="29.810888"
         id="rect1654"
         style="fill:none;fill-opacity:1;stroke:#000000;stroke-width:1.2;stroke-linecap:round;stroke-linejoin:round;stroke-miterlimit:4;stroke-dasharray:none;stroke-opacity:0.02" />
      <rect
         style="fill:none;fill-opacity:1;stroke:#000000;stroke-width:1.4;stroke-linecap:round;stroke-linejoin:round;stroke-miterlimit:4;stroke-dasharray:none;stroke-opacity:0.02"
         id="rect1656"
         width="29.810888"
         height="29.810888"
         x="69.839508"
         y="40.709618"
         rx="6.6098609"
         ry="6.6098609" />
      <rect
         ry="6.6098609"
         rx="6.6098609"
         y="40.709618"
         x="69.839508"
         height="29.810888"
         width="29.810888"
         id="rect1658"
         style="fill:none;fill-opacity:1;stroke:#000000;stroke-width:1.6;stroke-linecap:round;stroke-linejoin:round;stroke-miterlimit:4;stroke-dasharray:none;stroke-opacity:0.02" />
      <rect
         style="fill:none;fill-opacity:1;stroke:#000000;stroke-width:1.8;stroke-linecap:round;stroke-linejoin:round;stroke-miterlimit:4;stroke-dasharray:none;stroke-opacity:0.02"
         id="rect1660"
         width="29.810888"
         height="29.810888"
         x="69.839508"
         y="40.709618"
         rx="6.6098609"
         ry="6.6098609" />
      <rect
         ry="6.6098609"
         rx="6.6098609"
         y="40.709618"
         x="69.839508"
         height="29.810888"
         width="29.810888"
         id="rect1662"
         style="fill:none;fill-opacity:1;stroke:#000000;stroke-width:2;stroke-linecap:round;stroke-linejoin:round;stroke-miterlimit:4;stroke-dasharray:none;stroke-opacity:0.02" />
      <rect
         style="fill:none;fill-opacity:1;stroke:#000000;stroke-width:2.2;stroke-linecap:round;stroke-linejoin:round;stroke-miterlimit:4;stroke-dasharray:none;stroke-opacity:0.02"
         id="rect1664"
         width="29.810888"
         height="29.810888"
         x="69.839508"
         y="40.709618"
         rx="6.6098609"
         ry="6.6098609" />
      <rect
         ry="6.6098609"
         rx="6.6098609"
         y="40.709618"
         x="69.839508"
         height="29.810888"
         width="29.810888"
         id="rect1666"
         style="fill:none;fill-opacity:1;stroke:#000000;stroke-width:2.6;stroke-linecap:round;stroke-linejoin:round;stroke-miterlimit:4;stroke-dasharray:none;stroke-opacity:0.02" />
      <rect
         style="fill:none;fill-opacity:1;stroke:#000000;stroke-width:3;stroke-linecap:round;stroke-linejoin:round;stroke-miterlimit:4;stroke-dasharray:none;stroke-opacity:0.02"
         id="rect1668"
         width="29.810888"
         height="29.810888"
         x="69.839508"
         y="40.709618"
         rx="6.6098609"
         ry="6.6098609" />
      <rect
         ry="6.6098609"
         rx="6.6098609"
         y="40.709618"
         x="69.839508"
         height="29.810888"
         width="29.810888"
         id="rect1670"
         style="fill:none;fill-opacity:1;stroke:#000000;stroke-width:3.4;stroke-linecap:round;stroke-linejoin:round;stroke-miterlimit:4;stroke-dasharray:none;stroke-opacity:0.02" />
      <rect
         style="fill:none;fill-opacity:1;stroke:#000000;stroke-width:3.8;stroke-linecap:round;stroke-linejoin:round;stroke-miterlimit:4;stroke-dasharray:none;stroke-opacity:0.02"
         id="rect1672"
         width="29.810888"
         height="29.810888"
         x="69.839508"
         y="40.709618"
         rx="6.6098609"
         ry="6.6098609" />
      <rect
         ry="6.6098609"
         rx="6.6098609"
         y="40.709618"
         x="69.839508"
         height="29.810888"
         width="29.810888"
         id="rect1674"
         style="fill:none;fill-opacity:1;stroke:#000000;stroke-width:4.2;stroke-linecap:round;stroke-linejoin:round;stroke-miterlimit:4;stroke-dasharray:none;stroke-opacity:0.02" />
      <rect
         style="fill:none;fill-opacity:1;stroke:#000000;stroke-width:4.6;stroke-linecap:round;stroke-linejoin:round;stroke-miterlimit:4;stroke-dasharray:none;stroke-opacity:0.02"
         id="rect1676"
         width="29.810888"
         height="29.810888"
         x="69.839508"
         y="40.709618"
         rx="6.6098609"
         ry="6.6098609" />
      <rect
         ry="6.6098609"
         rx="6.6098609"
         y="40.709618"
         x="69.839508"
         height="29.810888"
         width="29.810888"
         id="rect1678"
         style="fill:none;fill-opacity:1;stroke:#000000;stroke-width:5;stroke-linecap:round;stroke-linejoin:round;stroke-miterlimit:4;stroke-dasharray:none;stroke-opacity:0.02" />
    </g>
    <rect
       style="fill:url(#radialGradient1506);fill-opacity:1;stroke-width:2.68801;stroke-linecap:round;stroke-linejoin:round;stroke-miterlimit:4;stroke-dasharray:none"
       id="rect849"
       width="29.08744"
       height="29.08744"
       x="2.4783885"
       y="2.5307715"
       rx="6.4494534"
       ry="6.4494534" />
    <path
       style="fill:url(#linearGradient1644);fill-opacity:1;stroke:#ffffff;stroke-width:0.378;stroke-miterlimit:4;stroke-dasharray:none;stroke-opacity:0.809091"
       d="m 16.455802,8.0122147 c -2.196101,0 -3.964616,1.2629539 -3.964616,2.8318683 v 1.699121 h -1.699121 c -1.5689149,0 -2.8318682,1.769031 -2.8318682,3.965133 v 1.132747 c 0,2.196102 1.2629533,3.964616 2.8318682,3.964616 h 1.699121 v 1.699121 c 0,1.569293 1.768515,2.831869 3.964616,2.831869 h 1.132748 c 2.196102,0 3.965132,-1.262576 3.965132,-2.831869 V 21.6057 h 1.699121 c 1.569291,0 2.831869,-1.768514 2.831869,-3.964616 v -1.132747 c 0,-2.196102 -1.262578,-3.965133 -2.831869,-3.965133 h -1.699121 v -1.699121 c 0,-1.5689144 -1.76903,-2.8318683 -3.965132,-2.8318683 z m 3.667477,8.9022993 c -0.228331,0.09022 -0.475049,0.143586 -0.733289,0.155029 0.142863,-0.01042 0.421871,-0.04631 0.733289,-0.155029 z m -5.472535,0.165364 c -0.147142,0.01092 -0.432895,0.04819 -0.750858,0.162265 0.233029,-0.09478 0.486106,-0.150091 0.750858,-0.162265 z"
       id="path1638" />
    <g
       id="g1568"
       transform="translate(30.390663,0.957816)">
      <path
         inkscape:connector-curvature="0"
         style="fill:url(#linearGradient1634);fill-opacity:1;stroke-width:0.377597"
         d="m -8.8371582,11.585565 v 2.26558 c 0,1.255131 -1.010449,2.26558 -2.2655798,2.26558 h -4.53116 c 0,0 -2.265579,0 -2.265579,2.26558 v 3.964764 c 0,1.569292 1.768664,2.831975 3.964765,2.831975 h 1.13279 c 2.196102,0 3.9647638,-1.262683 3.9647638,-2.831975 v -1.699185 h 1.699185 c 1.569291,0 2.831974,-1.768664 2.831974,-3.964765 v -1.13279 c 0,-2.196102 -1.262683,-3.964764 -2.831974,-3.964764 z"
         id="path1562" />
      <path
         inkscape:connector-curvature="0"
         style="fill:url(#linearGradient1636);fill-opacity:1;stroke-width:0.377597"
         d="m -13.934712,7.0544061 c -2.196101,0 -3.964765,1.2630606 -3.964765,2.8319749 v 1.699184 h -1.699185 c -1.568915,0 -2.831976,1.768662 -2.831976,3.964764 v 1.13279 c 0,2.196101 1.263061,3.964765 2.831976,3.964765 h 1.699185 v -2.265579 c 0,-1.255132 1.010448,-2.26558 2.265579,-2.26558 h 4.53116 c 0,0 2.2655798,0 2.2655798,-2.26558 V 9.886381 c 0,-1.5689143 -1.7686618,-2.8319749 -3.9647638,-2.8319749 z"
         id="path1564" />
    </g>
    <g
       id="g1632"
       style="opacity:0.426"
       transform="translate(0.08212432,0.0121863)">
      <g
         id="g1612">
        <path
           style="color:#000000;font-style:normal;font-variant:normal;font-weight:normal;font-stretch:normal;font-size:medium;line-height:normal;font-family:sans-serif;font-variant-ligatures:normal;font-variant-position:normal;font-variant-caps:normal;font-variant-numeric:normal;font-variant-alternates:normal;font-feature-settings:normal;text-indent:0;text-align:start;text-decoration:none;text-decoration-line:none;text-decoration-style:solid;text-decoration-color:#000000;letter-spacing:normal;word-spacing:normal;text-transform:none;writing-mode:lr-tb;direction:ltr;text-orientation:mixed;dominant-baseline:auto;baseline-shift:baseline;text-anchor:start;white-space:normal;shape-padding:0;clip-rule:nonzero;display:inline;overflow:visible;visibility:visible;opacity:0.1;isolation:auto;mix-blend-mode:normal;color-interpolation:sRGB;color-interpolation-filters:linearRGB;solid-color:#000000;solid-opacity:1;vector-effect:none;fill:#000000;fill-opacity:0.0909091;fill-rule:nonzero;stroke:none;stroke-width:0.377597;stroke-linecap:round;stroke-linejoin:round;stroke-miterlimit:4;stroke-dasharray:none;stroke-dashoffset:0;stroke-opacity:1;color-rendering:auto;image-rendering:auto;shape-rendering:auto;text-rendering:auto;enable-background:accumulate"
           d="m 21.470703,12.341797 c -0.104015,7.25e-4 -0.187853,0.08544 -0.1875,0.189453 v 0.376953 c -3.53e-4,0.104016 0.08348,0.188728 0.1875,0.189453 h 1.699219 c 0.713717,0 1.366241,0.400521 1.851562,1.080078 0.485322,0.679558 0.792969,1.633446 0.792969,2.695313 0.01423,0.236639 0.362718,0.236639 0.376953,0 v -0.376953 c 0,-1.134235 -0.324938,-2.162217 -0.863281,-2.916016 -0.538343,-0.753799 -1.30263,-1.238281 -2.158203,-1.238281 z"
           id="path1480"
           inkscape:connector-curvature="0"
           sodipodi:nodetypes="ccccssccsssc" />
        <path
           id="path1532"
           transform="scale(0.26458333)"
           d="m 61.884766,30.236328 c -8.300225,0 -14.984375,4.773369 -14.984375,10.703125 v 6.421875 h -6.421875 c -5.929756,0 -10.703125,6.6861 -10.703125,14.986328 v 4.28125 c 0,8.300221 4.773369,14.984375 10.703125,14.984375 h 6.421875 v 6.421875 c 0,5.931183 6.68415,10.703125 14.984375,10.703125 h 4.28125 c 8.300228,0 14.986328,-4.771942 14.986328,-10.703125 v -6.421875 h 6.421875 c 5.931178,0 10.703125,-6.684154 10.703125,-14.984375 v -4.28125 c 0,-8.300228 -4.771947,-14.986328 -10.703125,-14.986328 h -6.421875 v -6.421875 c 0,-5.929756 -6.6861,-10.703125 -14.986328,-10.703125 z m -0.002,0.56836 h 4.28125 c 4.041438,0 7.678281,1.164574 10.275391,3.019531 2.597114,1.854956 4.140625,4.363375 4.140625,7.115234 v 6.421875 c -7.9e-4,0.314268 0.254126,0.569149 0.56836,0.56836 h 6.423828 c 2.752558,0 5.259962,1.544973 7.115234,4.142578 1.855272,2.597601 3.027344,6.233964 3.027344,10.27539 v 4.28125 c 0,4.041423 -1.172091,7.678285 -3.027344,10.275391 -1.855249,2.597106 -4.362612,4.140625 -7.115234,4.140625 h -6.423828 c -0.314268,-7.9e-4 -0.56915,0.254126 -0.56836,0.568359 v 6.423828 c 0,2.752623 -1.54353,5.260466 -4.140625,7.115235 -2.597091,1.854773 -6.233919,3.019531 -10.275391,3.019531 h -4.28125 c -4.041467,0 -7.678299,-1.164758 -10.27539,-3.019531 -2.597091,-1.854769 -4.142578,-4.362612 -4.142578,-7.115235 v -6.423828 c 7.9e-4,-0.31423 -0.254126,-0.569149 -0.56836,-0.568359 h -6.421875 c -2.751858,0 -5.254418,-1.543511 -7.109375,-4.140625 -1.854956,-2.59711 -3.025391,-6.233957 -3.02539,-10.275391 v -4.28125 c -10e-7,-4.041437 1.170413,-7.677785 3.02539,-10.27539 1.854978,-2.597609 4.357579,-4.142579 7.109375,-4.142578 h 6.421875 c 0.314268,7.89e-4 0.56915,-0.254126 0.56836,-0.56836 v -6.421875 c 0,-2.751859 1.545468,-5.260278 4.142578,-7.115234 2.59711,-1.854957 6.233957,-3.019532 10.27539,-3.019531 z"
           style="color:#000000;font-style:normal;font-variant:normal;font-weight:normal;font-stretch:normal;font-size:medium;line-height:normal;font-family:sans-serif;font-variant-ligatures:normal;font-variant-position:normal;font-variant-caps:normal;font-variant-numeric:normal;font-variant-alternates:normal;font-feature-settings:normal;text-indent:0;text-align:start;text-decoration:none;text-decoration-line:none;text-decoration-style:solid;text-decoration-color:#000000;letter-spacing:normal;word-spacing:normal;text-transform:none;writing-mode:lr-tb;direction:ltr;text-orientation:mixed;dominant-baseline:auto;baseline-shift:baseline;text-anchor:start;white-space:normal;shape-padding:0;clip-rule:nonzero;display:inline;overflow:visible;visibility:visible;opacity:1;isolation:auto;mix-blend-mode:normal;color-interpolation:sRGB;color-interpolation-filters:linearRGB;solid-color:#000000;solid-opacity:1;vector-effect:none;fill:#000000;fill-opacity:0.0909091;fill-rule:nonzero;stroke:none;stroke-width:1.13386;stroke-linecap:round;stroke-linejoin:round;stroke-miterlimit:4;stroke-dasharray:none;stroke-dashoffset:0;stroke-opacity:1;color-rendering:auto;image-rendering:auto;shape-rendering:auto;text-rendering:auto;enable-background:accumulate" />
        <path
           id="path1539"
           transform="scale(0.26458333)"
           d="m 61.884766,30.236328 c -8.300225,0 -14.984375,4.773369 -14.984375,10.703125 v 6.421875 h -6.421875 c -5.929756,0 -10.703125,6.6861 -10.703125,14.986328 v 4.28125 c 0,8.300221 4.773369,14.984375 10.703125,14.984375 h 6.421875 v 6.421875 c 0,5.931183 6.68415,10.703125 14.984375,10.703125 h 4.28125 c 8.300228,0 14.986328,-4.771942 14.986328,-10.703125 v -6.421875 h 6.421875 c 5.931178,0 10.703125,-6.684154 10.703125,-14.984375 v -4.28125 c 0,-8.300228 -4.771947,-14.986328 -10.703125,-14.986328 h -6.421875 v -6.421875 c 0,-5.929756 -6.6861,-10.703125 -14.986328,-10.703125 z m -0.002,0.945313 h 4.28125 c 3.968984,0 7.53188,1.151238 10.054688,2.953125 2.522804,1.801886 3.986328,4.19484 3.986328,6.804687 v 6.421875 c 5.3e-5,0.521821 0.421539,0.94526 0.94336,0.945313 h 6.423828 c 2.610538,0 5.002484,1.463021 6.804687,3.986328 1.802207,2.523303 2.953125,6.085722 2.953125,10.054687 v 4.28125 c 0,3.968962 -1.150955,7.531887 -2.953125,10.054688 -1.802169,2.522804 -4.194043,3.986328 -6.804687,3.986328 h -6.423828 c -0.521821,5.3e-5 -0.943307,0.421539 -0.94336,0.943359 v 6.423828 c 0,2.610645 -1.463554,5.002991 -3.986328,6.804688 -2.522778,1.801697 -6.085647,2.953125 -10.054688,2.953125 h -4.28125 c -3.969036,0 -7.531913,-1.151428 -10.054687,-2.953125 -2.522778,-1.801697 -3.986328,-4.194043 -3.986328,-6.804688 v -6.423828 c -5.3e-5,-0.52182 -0.423492,-0.943306 -0.945313,-0.943359 h -6.421875 c -2.609847,0 -5.004754,-1.46352 -6.80664,-3.986328 -1.801886,-2.522805 -2.951172,-6.085704 -2.951172,-10.054688 v -4.28125 c -10e-7,-3.968984 1.14925,-7.531376 2.951172,-10.054687 1.801922,-2.523315 4.196895,-3.986328 6.80664,-3.986328 h 6.421875 c 0.521821,-5.3e-5 0.94526,-0.423492 0.945313,-0.945313 v -6.421875 c 0,-2.609847 1.46352,-5.002801 3.986328,-6.804687 2.522804,-1.801887 6.085704,-2.953125 10.054687,-2.953125 z"
           style="color:#000000;font-style:normal;font-variant:normal;font-weight:normal;font-stretch:normal;font-size:medium;line-height:normal;font-family:sans-serif;font-variant-ligatures:normal;font-variant-position:normal;font-variant-caps:normal;font-variant-numeric:normal;font-variant-alternates:normal;font-feature-settings:normal;text-indent:0;text-align:start;text-decoration:none;text-decoration-line:none;text-decoration-style:solid;text-decoration-color:#000000;letter-spacing:normal;word-spacing:normal;text-transform:none;writing-mode:lr-tb;direction:ltr;text-orientation:mixed;dominant-baseline:auto;baseline-shift:baseline;text-anchor:start;white-space:normal;shape-padding:0;clip-rule:nonzero;display:inline;overflow:visible;visibility:visible;opacity:1;isolation:auto;mix-blend-mode:normal;color-interpolation:sRGB;color-interpolation-filters:linearRGB;solid-color:#000000;solid-opacity:1;vector-effect:none;fill:#000000;fill-opacity:0.0909091;fill-rule:nonzero;stroke:none;stroke-width:1.88976;stroke-linecap:round;stroke-linejoin:round;stroke-miterlimit:4;stroke-dasharray:none;stroke-dashoffset:0;stroke-opacity:1;color-rendering:auto;image-rendering:auto;shape-rendering:auto;text-rendering:auto;enable-background:accumulate" />
        <path
           id="path1541"
           transform="scale(0.26458333)"
           d="m 61.884766,30.236328 c -8.300225,0 -14.984375,4.773369 -14.984375,10.703125 v 6.421875 h -6.421875 c -5.929756,0 -10.703125,6.6861 -10.703125,14.986328 v 4.28125 c 0,8.300221 4.773369,14.984375 10.703125,14.984375 h 6.421875 v 6.421875 c 0,5.931183 6.68415,10.703125 14.984375,10.703125 h 4.28125 c 8.300228,0 14.986328,-4.771942 14.986328,-10.703125 v -6.421875 h 6.421875 c 5.931178,0 10.703125,-6.684154 10.703125,-14.984375 v -4.28125 c 0,-8.300228 -4.771947,-14.986328 -10.703125,-14.986328 h -6.421875 v -6.421875 c 0,-5.929756 -6.6861,-10.703125 -14.986328,-10.703125 z m -0.002,1.513672 h 4.28125 c 3.860308,0 7.317162,1.119516 9.728516,2.841797 2.411354,1.722281 3.744145,3.950827 3.744141,6.347656 v 6.421875 c -7.33e-4,0.836069 0.675649,1.514405 1.511719,1.513672 h 6.423828 c 2.397509,0 4.625053,1.330331 6.347656,3.742188 1.722606,2.411856 2.849609,5.870195 2.849609,9.730468 v 4.28125 c 0,3.860274 -1.127059,7.317174 -2.849609,9.728516 -1.722546,2.411342 -3.949981,3.74414 -6.347656,3.74414 h -6.423828 c -0.83607,-7.33e-4 -1.512452,0.67565 -1.511719,1.511719 v 6.423828 c 0,2.39768 -1.332836,4.617759 -3.744141,6.339844 -2.411301,1.722085 -5.868121,2.849609 -9.728516,2.849609 h -4.28125 c -3.86039,0 -7.311351,-1.127524 -9.722656,-2.849609 -2.411301,-1.722085 -3.75,-3.942164 -3.75,-6.339844 v -6.423828 c 7.33e-4,-0.836069 -0.677602,-1.512452 -1.513672,-1.511719 H 40.474609 C 33.828793,79.307835 31.343114,71.890557 31.285156,66.628906 v -4.28125 c -1e-6,-3.860307 1.127272,-7.318601 2.84961,-9.730468 C 35.857104,50.20532 38.077947,48.875 40.474609,48.875 h 6.421875 c 0.83607,7.33e-4 1.514405,-0.677603 1.513672,-1.513672 v -6.421875 c 0,-2.396829 1.33865,-4.625375 3.75,-6.347656 C 54.57151,32.869516 58.022509,31.75 61.882812,31.75 Z"
           style="color:#000000;font-style:normal;font-variant:normal;font-weight:normal;font-stretch:normal;font-size:medium;line-height:normal;font-family:sans-serif;font-variant-ligatures:normal;font-variant-position:normal;font-variant-caps:normal;font-variant-numeric:normal;font-variant-alternates:normal;font-feature-settings:normal;text-indent:0;text-align:start;text-decoration:none;text-decoration-line:none;text-decoration-style:solid;text-decoration-color:#000000;letter-spacing:normal;word-spacing:normal;text-transform:none;writing-mode:lr-tb;direction:ltr;text-orientation:mixed;dominant-baseline:auto;baseline-shift:baseline;text-anchor:start;white-space:normal;shape-padding:0;clip-rule:nonzero;display:inline;overflow:visible;visibility:visible;opacity:1;isolation:auto;mix-blend-mode:normal;color-interpolation:sRGB;color-interpolation-filters:linearRGB;solid-color:#000000;solid-opacity:1;vector-effect:none;fill:#000000;fill-opacity:0.0909091;fill-rule:nonzero;stroke:none;stroke-width:3.02362;stroke-linecap:round;stroke-linejoin:round;stroke-miterlimit:4;stroke-dasharray:none;stroke-dashoffset:0;stroke-opacity:1;color-rendering:auto;image-rendering:auto;shape-rendering:auto;text-rendering:auto;enable-background:accumulate" />
        <path
           id="path1543"
           transform="scale(0.26458333)"
           d="m 61.884766,30.236328 c -8.300225,0 -14.984375,4.773369 -14.984375,10.703125 v 6.421875 h -6.421875 c -5.929756,0 -10.703125,6.6861 -10.703125,14.986328 v 4.28125 c 0,8.300221 4.773369,14.984375 10.703125,14.984375 h 6.421875 v 6.421875 c 0,5.931183 6.68415,10.703125 14.984375,10.703125 h 4.28125 c 8.300228,0 14.986328,-4.771942 14.986328,-10.703125 v -6.421875 h 6.421875 c 5.931178,0 10.703125,-6.684154 10.703125,-14.984375 v -4.28125 c 0,-8.300228 -4.771947,-14.986328 -10.703125,-14.986328 h -6.421875 v -6.421875 c 0,-5.929756 -6.6861,-10.703125 -14.986328,-10.703125 z m -0.002,2.265625 h 4.28125 c 3.715405,0 7.024363,1.092844 9.28711,2.708985 2.262746,1.61614 3.43164,3.61571 3.43164,5.728515 v 6.421875 c 9.42e-4,1.25122 1.014405,2.266637 2.265626,2.267578 h 6.423828 c 2.11347,0 4.117901,1.168388 5.734375,3.431641 1.616473,2.263257 2.703125,5.571754 2.703125,9.287109 v 4.28125 c 0,3.715351 -1.086739,7.024378 -2.703125,9.28711 -1.616387,2.262727 -3.620656,3.43164 -5.734375,3.43164 h -6.423828 c -1.251221,9.41e-4 -2.264684,1.014405 -2.265626,2.265625 v 6.423828 c 0,2.113724 -1.168969,4.112579 -3.43164,5.728516 -2.262671,1.615937 -5.571577,2.708984 -9.28711,2.708984 h -4.28125 c -3.715528,0 -7.024438,-1.093047 -9.287109,-2.708984 -2.262671,-1.615937 -3.425781,-3.614792 -3.425781,-5.728516 v -6.423828 c -9.37e-4,-1.254107 -1.019334,-2.268766 -2.273438,-2.265625 h -6.421875 c -2.112805,0 -4.112375,-1.168894 -5.728515,-3.43164 -1.616141,-2.262751 -2.701172,-5.571709 -2.701172,-9.28711 v -4.28125 c -1e-6,-3.7154 1.084946,-7.023834 2.701172,-9.287109 1.616226,-2.263272 3.61596,-3.431641 5.728515,-3.431641 h 6.421875 c 1.254104,0.0031 2.272501,-1.01347 2.273438,-2.267578 v -6.421875 c 0,-2.112805 1.163035,-4.112375 3.425781,-5.728515 2.262743,-1.616141 5.571709,-2.708985 9.287109,-2.708985 z"
           style="color:#000000;font-style:normal;font-variant:normal;font-weight:normal;font-stretch:normal;font-size:medium;line-height:normal;font-family:sans-serif;font-variant-ligatures:normal;font-variant-position:normal;font-variant-caps:normal;font-variant-numeric:normal;font-variant-alternates:normal;font-feature-settings:normal;text-indent:0;text-align:start;text-decoration:none;text-decoration-line:none;text-decoration-style:solid;text-decoration-color:#000000;letter-spacing:normal;word-spacing:normal;text-transform:none;writing-mode:lr-tb;direction:ltr;text-orientation:mixed;dominant-baseline:auto;baseline-shift:baseline;text-anchor:start;white-space:normal;shape-padding:0;clip-rule:nonzero;display:inline;overflow:visible;visibility:visible;opacity:1;isolation:auto;mix-blend-mode:normal;color-interpolation:sRGB;color-interpolation-filters:linearRGB;solid-color:#000000;solid-opacity:1;vector-effect:none;fill:#000000;fill-opacity:0.0909091;fill-rule:nonzero;stroke:none;stroke-width:4.53543;stroke-linecap:round;stroke-linejoin:round;stroke-miterlimit:4;stroke-dasharray:none;stroke-dashoffset:0;stroke-opacity:1;color-rendering:auto;image-rendering:auto;shape-rendering:auto;text-rendering:auto;enable-background:accumulate" />
      </g>
    </g>
  </g>
</svg>
