<?xml version="1.0" encoding="UTF-8" standalone="no"?>
<svg
   xmlns:dc="http://purl.org/dc/elements/1.1/"
   xmlns:cc="http://creativecommons.org/ns#"
   xmlns:rdf="http://www.w3.org/1999/02/22-rdf-syntax-ns#"
   xmlns:svg="http://www.w3.org/2000/svg"
   xmlns="http://www.w3.org/2000/svg"
   xmlns:xlink="http://www.w3.org/1999/xlink"
   xmlns:sodipodi="http://sodipodi.sourceforge.net/DTD/sodipodi-0.dtd"
   xmlns:inkscape="http://www.inkscape.org/namespaces/inkscape"
   width="128"
   height="128"
   viewBox="0 0 33.866666 33.866668"
   version="1.1"
   id="svg2781"
   inkscape:version="1.0.1 (3bc2e813f5, 2020-09-07)"
   sodipodi:docname="xload.svg">
  <defs
     id="defs2775">
    <linearGradient
       inkscape:collect="always"
       xlink:href="#linearGradient1938"
       id="linearGradient1940"
       x1="16.937525"
       y1="5.6268363"
       x2="16.937525"
       y2="30.152269"
       gradientUnits="userSpaceOnUse"
       gradientTransform="translate(0.07806566,-0.03895087)" />
    <linearGradient
       inkscape:collect="always"
       id="linearGradient1938">
      <stop
         style="stop-color:#cbd3d6;stop-opacity:1"
         offset="0"
         id="stop1934" />
      <stop
         style="stop-color:#9cabb7;stop-opacity:1"
         offset="1"
         id="stop1936" />
    </linearGradient>
  </defs>
  <sodipodi:namedview
     id="base"
     pagecolor="#ffffff"
     bordercolor="#666666"
     borderopacity="1.0"
     inkscape:pageopacity="0.0"
     inkscape:pageshadow="2"
     inkscape:zoom="5.6"
     inkscape:cx="21.566988"
     inkscape:cy="62.927372"
     inkscape:document-units="mm"
     inkscape:current-layer="layer1"
     inkscape:document-rotation="0"
     showgrid="false"
     units="px"
     inkscape:window-width="1514"
     inkscape:window-height="941"
     inkscape:window-x="50"
     inkscape:window-y="27"
     inkscape:window-maximized="0" />
  <metadata
     id="metadata2778">
    <rdf:RDF>
      <cc:Work
         rdf:about="">
        <dc:format>image/svg+xml</dc:format>
        <dc:type
           rdf:resource="http://purl.org/dc/dcmitype/StillImage" />
        <dc:title></dc:title>
      </cc:Work>
    </rdf:RDF>
  </metadata>
  <g
     inkscape:label="Capa 1"
     inkscape:groupmode="layer"
     id="layer1">
    <g
       id="g1702"
       transform="matrix(0.97573206,0,0,0.97573206,-65.67032,-37.242045)"
       style="opacity:0.296765">
      <rect
         style="fill:none;fill-opacity:1;stroke:#000000;stroke-width:0.1;stroke-linecap:round;stroke-linejoin:round;stroke-miterlimit:4;stroke-dasharray:none;stroke-opacity:0.02"
         id="rect1634"
         width="29.810888"
         height="29.810888"
         x="69.839508"
         y="40.709618"
         rx="6.6098609"
         ry="6.6098609" />
      <rect
         ry="6.6098609"
         rx="6.6098609"
         y="40.709618"
         x="69.839508"
         height="29.810888"
         width="29.810888"
         id="rect1638"
         style="fill:none;fill-opacity:1;stroke:#000000;stroke-width:0.2;stroke-linecap:round;stroke-linejoin:round;stroke-miterlimit:4;stroke-dasharray:none;stroke-opacity:0.02" />
      <rect
         style="fill:none;fill-opacity:1;stroke:#000000;stroke-width:0.3;stroke-linecap:round;stroke-linejoin:round;stroke-miterlimit:4;stroke-dasharray:none;stroke-opacity:0.02"
         id="rect1640"
         width="29.810888"
         height="29.810888"
         x="69.839508"
         y="40.709618"
         rx="6.6098609"
         ry="6.6098609" />
      <rect
         ry="6.6098609"
         rx="6.6098609"
         y="40.709618"
         x="69.839508"
         height="29.810888"
         width="29.810888"
         id="rect1642"
         style="fill:none;fill-opacity:1;stroke:#000000;stroke-width:0.4;stroke-linecap:round;stroke-linejoin:round;stroke-miterlimit:4;stroke-dasharray:none;stroke-opacity:0.02" />
      <rect
         style="fill:none;fill-opacity:1;stroke:#000000;stroke-width:0.5;stroke-linecap:round;stroke-linejoin:round;stroke-miterlimit:4;stroke-dasharray:none;stroke-opacity:0.02"
         id="rect1644"
         width="29.810888"
         height="29.810888"
         x="69.839508"
         y="40.709618"
         rx="6.6098609"
         ry="6.6098609" />
      <rect
         ry="6.6098609"
         rx="6.6098609"
         y="40.709618"
         x="69.839508"
         height="29.810888"
         width="29.810888"
         id="rect1646"
         style="fill:none;fill-opacity:1;stroke:#000000;stroke-width:0.6;stroke-linecap:round;stroke-linejoin:round;stroke-miterlimit:4;stroke-dasharray:none;stroke-opacity:0.02" />
      <rect
         style="fill:none;fill-opacity:1;stroke:#000000;stroke-width:0.7;stroke-linecap:round;stroke-linejoin:round;stroke-miterlimit:4;stroke-dasharray:none;stroke-opacity:0.02"
         id="rect1648"
         width="29.810888"
         height="29.810888"
         x="69.839508"
         y="40.709618"
         rx="6.6098609"
         ry="6.6098609" />
      <rect
         ry="6.6098609"
         rx="6.6098609"
         y="40.709618"
         x="69.839508"
         height="29.810888"
         width="29.810888"
         id="rect1650"
         style="fill:none;fill-opacity:1;stroke:#000000;stroke-width:0.8;stroke-linecap:round;stroke-linejoin:round;stroke-miterlimit:4;stroke-dasharray:none;stroke-opacity:0.02" />
      <rect
         style="fill:none;fill-opacity:1;stroke:#000000;stroke-width:1;stroke-linecap:round;stroke-linejoin:round;stroke-miterlimit:4;stroke-dasharray:none;stroke-opacity:0.02"
         id="rect1652"
         width="29.810888"
         height="29.810888"
         x="69.839508"
         y="40.709618"
         rx="6.6098609"
         ry="6.6098609" />
      <rect
         ry="6.6098609"
         rx="6.6098609"
         y="40.709618"
         x="69.839508"
         height="29.810888"
         width="29.810888"
         id="rect1654"
         style="fill:none;fill-opacity:1;stroke:#000000;stroke-width:1.2;stroke-linecap:round;stroke-linejoin:round;stroke-miterlimit:4;stroke-dasharray:none;stroke-opacity:0.02" />
      <rect
         style="fill:none;fill-opacity:1;stroke:#000000;stroke-width:1.4;stroke-linecap:round;stroke-linejoin:round;stroke-miterlimit:4;stroke-dasharray:none;stroke-opacity:0.02"
         id="rect1656"
         width="29.810888"
         height="29.810888"
         x="69.839508"
         y="40.709618"
         rx="6.6098609"
         ry="6.6098609" />
      <rect
         ry="6.6098609"
         rx="6.6098609"
         y="40.709618"
         x="69.839508"
         height="29.810888"
         width="29.810888"
         id="rect1658"
         style="fill:none;fill-opacity:1;stroke:#000000;stroke-width:1.6;stroke-linecap:round;stroke-linejoin:round;stroke-miterlimit:4;stroke-dasharray:none;stroke-opacity:0.02" />
      <rect
         style="fill:none;fill-opacity:1;stroke:#000000;stroke-width:1.8;stroke-linecap:round;stroke-linejoin:round;stroke-miterlimit:4;stroke-dasharray:none;stroke-opacity:0.02"
         id="rect1660"
         width="29.810888"
         height="29.810888"
         x="69.839508"
         y="40.709618"
         rx="6.6098609"
         ry="6.6098609" />
      <rect
         ry="6.6098609"
         rx="6.6098609"
         y="40.709618"
         x="69.839508"
         height="29.810888"
         width="29.810888"
         id="rect1662"
         style="fill:none;fill-opacity:1;stroke:#000000;stroke-width:2;stroke-linecap:round;stroke-linejoin:round;stroke-miterlimit:4;stroke-dasharray:none;stroke-opacity:0.02" />
      <rect
         style="fill:none;fill-opacity:1;stroke:#000000;stroke-width:2.2;stroke-linecap:round;stroke-linejoin:round;stroke-miterlimit:4;stroke-dasharray:none;stroke-opacity:0.02"
         id="rect1664"
         width="29.810888"
         height="29.810888"
         x="69.839508"
         y="40.709618"
         rx="6.6098609"
         ry="6.6098609" />
      <rect
         ry="6.6098609"
         rx="6.6098609"
         y="40.709618"
         x="69.839508"
         height="29.810888"
         width="29.810888"
         id="rect1666"
         style="fill:none;fill-opacity:1;stroke:#000000;stroke-width:2.6;stroke-linecap:round;stroke-linejoin:round;stroke-miterlimit:4;stroke-dasharray:none;stroke-opacity:0.02" />
      <rect
         style="fill:none;fill-opacity:1;stroke:#000000;stroke-width:3;stroke-linecap:round;stroke-linejoin:round;stroke-miterlimit:4;stroke-dasharray:none;stroke-opacity:0.02"
         id="rect1668"
         width="29.810888"
         height="29.810888"
         x="69.839508"
         y="40.709618"
         rx="6.6098609"
         ry="6.6098609" />
      <rect
         ry="6.6098609"
         rx="6.6098609"
         y="40.709618"
         x="69.839508"
         height="29.810888"
         width="29.810888"
         id="rect1670"
         style="fill:none;fill-opacity:1;stroke:#000000;stroke-width:3.4;stroke-linecap:round;stroke-linejoin:round;stroke-miterlimit:4;stroke-dasharray:none;stroke-opacity:0.02" />
      <rect
         style="fill:none;fill-opacity:1;stroke:#000000;stroke-width:3.8;stroke-linecap:round;stroke-linejoin:round;stroke-miterlimit:4;stroke-dasharray:none;stroke-opacity:0.02"
         id="rect1672"
         width="29.810888"
         height="29.810888"
         x="69.839508"
         y="40.709618"
         rx="6.6098609"
         ry="6.6098609" />
      <rect
         ry="6.6098609"
         rx="6.6098609"
         y="40.709618"
         x="69.839508"
         height="29.810888"
         width="29.810888"
         id="rect1674"
         style="fill:none;fill-opacity:1;stroke:#000000;stroke-width:4.2;stroke-linecap:round;stroke-linejoin:round;stroke-miterlimit:4;stroke-dasharray:none;stroke-opacity:0.02" />
      <rect
         style="fill:none;fill-opacity:1;stroke:#000000;stroke-width:4.6;stroke-linecap:round;stroke-linejoin:round;stroke-miterlimit:4;stroke-dasharray:none;stroke-opacity:0.02"
         id="rect1676"
         width="29.810888"
         height="29.810888"
         x="69.839508"
         y="40.709618"
         rx="6.6098609"
         ry="6.6098609" />
      <rect
         ry="6.6098609"
         rx="6.6098609"
         y="40.709618"
         x="69.839508"
         height="29.810888"
         width="29.810888"
         id="rect1678"
         style="fill:none;fill-opacity:1;stroke:#000000;stroke-width:5;stroke-linecap:round;stroke-linejoin:round;stroke-miterlimit:4;stroke-dasharray:none;stroke-opacity:0.02" />
    </g>
    <rect
       style="fill:url(#linearGradient1940);fill-opacity:1;stroke-width:2.68769;stroke-linecap:round;stroke-linejoin:round"
       id="rect849"
       width="29.08744"
       height="29.08744"
       x="2.4743323"
       y="2.4796367"
       rx="6.4494534"
       ry="6.4494534" />
    <rect
       style="fill:#030000;stroke-width:1.77501"
       x="3.8609662"
       y="3.8806157"
       width="26.314171"
       height="26.285482"
       rx="5.5669675"
       ry="5.5669675"
       id="rect2807-7" />
    <rect
       style="fill:#1a211f;stroke-width:1.57114"
       x="5.377995"
       y="5.3987947"
       width="23.280495"
       height="23.280495"
       rx="4.0485992"
       ry="4.0485992"
       id="rect2809-5" />
    <path
       style="opacity:0.35;fill:#a1fbe6;stroke-width:0.506084"
       inkscape:connector-curvature="0"
       d="m 10.035529,5.3988313 v 1.549884 H 6.7350988 v -0.524861 c -0.051204,0.04558 -0.1034222,0.09028 -0.1522163,0.138384 v 0.386481 h -0.342001 c -0.038829,0.04949 -0.076166,0.09992 -0.1126805,0.151234 H 6.5828877 V 10.401343 H 5.3779514 v 0.152218 H 6.582888 v 3.30043 H 5.3779514 v 0.152215 H 6.582888 V 17.3076 H 5.3779514 v 0.15124 H 6.582888 v 3.301391 H 5.3779514 v 0.152217 H 6.582888 v 3.301388 H 5.3779514 v 0.151242 H 6.582888 v 3.150172 c 0.048814,0.0481 0.1010126,0.09281 0.1522164,0.138388 v -3.288537 h 3.3004296 v 3.30139 H 6.7499322 c 0.059352,0.05232 0.1194887,0.103426 0.181864,0.152215 h 3.1037148 v 0.859941 h 0.15222 v -0.859941 h 3.301393 v 0.859941 h 0.151241 v -0.859941 h 3.30139 v 0.859941 h 0.152216 v -0.859941 h 3.301394 v 0.859938 h 0.151241 v -0.859938 h 3.301393 v 0.859938 h 0.152217 v -0.859938 h 3.103713 c 0.06237,-0.0488 0.122531,-0.0999 0.181864,-0.152217 h -3.2856 v -3.301391 h 3.300427 v 3.288537 c 0.0512,-0.04558 0.103426,-0.09028 0.152217,-0.138387 v -3.150173 h 1.204937 v -0.15124 h -1.204921 v -3.301384 h 1.204937 v -0.152216 h -1.204937 v -3.30139 H 28.65779 V 17.307603 H 27.452853 V 14.00621 H 28.65779 V 13.853994 H 27.452853 V 10.553565 H 28.65779 V 10.401343 H 27.45284 V 7.0999533 h 0.454687 c -0.03651,-0.05133 -0.07387,-0.101743 -0.112684,-0.151233 h -0.342006 v -0.386482 c -0.04881,-0.04811 -0.101017,-0.0928 -0.152214,-0.138383 v 0.52486 h -3.300431 v -1.549884 h -0.152217 v 1.549884 H 20.54658 v -1.549884 h -0.151241 v 1.549884 h -3.301385 v -1.549884 h -0.152217 v 1.549884 h -3.301393 v -1.549884 h -0.151241 v 1.549884 H 10.187717 V 5.3988313 H 10.035498 Z M 6.7350988,7.0999323 H 10.035529 V 10.401325 H 6.7350988 Z m 3.4526592,0 h 3.301392 v 3.3013927 h -3.301392 z m 3.452663,0 h 3.301389 v 3.3013927 h -3.301389 z m 3.453619,0 h 3.301391 V 10.401325 H 17.09404 Z m 3.45266,0 h 3.301391 V 10.401325 H 20.5467 Z m 3.453624,0 h 3.300428 V 10.401325 H 24.000324 Z M 6.7352518,10.553555 H 10.03568 v 3.30043 H 6.7352518 Z m 3.4526562,0 h 3.301396 v 3.30043 h -3.301396 z m 3.452663,0 h 3.30139 v 3.30043 H 13.64057 Z m 3.453623,0 h 3.301391 v 3.30043 h -3.301391 z m 3.452657,0 h 3.301394 v 3.30043 h -3.301394 z m 3.453623,0 h 3.300429 v 3.30043 h -3.300429 z m -17.2650712,3.45266 h 3.3004292 v 3.301392 H 6.7354028 Z m 3.4526592,0 h 3.301394 v 3.301392 h -3.301394 z m 3.45266,0 h 3.301393 v 3.301392 h -3.301394 z m 3.453623,0 h 3.30139 v 3.301392 h -3.30139 z m 3.45266,0 h 3.301391 v 3.301392 h -3.301391 z m 3.453621,0 h 3.300431 v 3.301392 h -3.300432 z m -17.2650721,3.45266 h 3.3004301 v 3.301392 H 6.7355539 Z m 3.4526601,0 h 3.301392 v 3.301392 h -3.301392 z m 3.452662,0 h 3.30139 v 3.301392 h -3.30139 z m 3.453619,0 h 3.301391 v 3.301392 h -3.301391 z m 3.452661,0 h 3.301393 v 3.301392 h -3.301393 z m 3.453623,0 h 3.300428 v 3.301392 H 24.000779 Z M 6.7357068,20.912497 h 3.3004292 v 3.301389 H 6.7357068 Z m 3.4526592,0 h 3.301393 v 3.301389 h -3.301393 z m 3.452661,0 h 3.301392 v 3.301389 h -3.301392 z m 3.453622,0 h 3.301391 v 3.301389 h -3.301391 z m 3.45266,0 H 23.8487 v 3.301389 h -3.301391 z m 3.453621,0 h 3.300431 v 3.301389 H 24.00093 Z m -13.812564,3.452659 h 3.301393 v 3.301391 h -3.301393 z m 3.452661,0 h 3.301392 v 3.301391 h -3.301392 z m 3.453622,0 h 3.301391 v 3.301391 h -3.301391 z m 3.45266,0 H 23.8487 v 3.301391 h -3.301391 z"
       id="path2811-3" />
    <path
       style="fill:#c1fdee;stroke-width:0.882764"
       inkscape:connector-curvature="0"
       d="m 14.531078,10.563422 c -0.05126,0.0079 -0.09193,0.08307 -0.146288,0.243159 -0.105107,0.309593 -0.129875,0.755433 -0.26787,4.913574 -0.07282,2.194637 -0.231107,4.161332 -0.367701,4.563668 -0.176832,0.520813 -0.472104,0.358152 -1.21283,-0.669195 -0.381193,-0.528706 -0.812468,-1.067129 -0.958777,-1.196029 -0.251854,-0.221833 -0.280062,-0.223149 -0.535741,-0.03558 -0.148564,0.109003 -0.342008,0.393409 -0.429975,0.632603 -0.227172,0.617679 -0.538728,0.951897 -0.9716325,1.042788 -0.2062234,0.04343 -1.2706257,0.0099 -2.3643759,-0.07414 L 5.3780702,19.838964 c 3.175e-4,0.118782 0.00106,0.23803 9.79e-4,0.356831 l 0.994355,0.09587 c 0.5962184,0.0582 1.6576802,0.106752 2.358454,0.106752 1.4859148,0 1.7397688,-0.117342 2.0697858,-0.952854 0.112549,-0.284907 0.251362,-0.550621 0.308398,-0.590097 0.21905,-0.151604 0.522786,0.100133 1.145625,0.949921 0.355117,0.484514 0.763073,0.967281 0.906397,1.072443 0.348848,0.255965 0.678456,0.123315 0.852043,-0.342993 0.17666,-0.474595 0.352589,-2.458913 0.42602,-4.814736 0.06346,-2.035877 0.117839,-2.510988 0.260949,-2.251671 0.08271,0.149882 0.164439,0.989041 0.264903,2.725164 0.02072,0.358247 0.114244,1.611019 0.207578,2.783466 0.313285,3.935868 0.425955,4.638261 0.725522,4.527074 0.157743,-0.05859 0.366237,-1.033877 0.379562,-1.777214 0.0056,-0.311495 0.07881,-0.751688 0.163101,-0.977554 0.174059,-0.466488 0.258781,-0.483963 1.286972,-0.271822 0.933524,0.192635 1.131201,0.07147 1.53207,-0.938028 0.538373,-1.355649 0.55902,-1.388899 0.869857,-1.429284 0.242283,-0.0314 0.386791,0.08022 0.841163,0.651381 1.668409,2.097011 1.857583,2.180314 2.762716,1.221738 0.307521,-0.325678 0.605227,-0.592068 0.66125,-0.592068 0.05602,0 0.35264,0.239648 0.659276,0.532756 0.416674,0.379275 0.753155,0.534577 1.217741,0.589134 0.135154,-1.72e-4 0.244518,-0.109984 0.244143,-0.245138 -1.7e-4,-0.134771 -0.10939,-0.243975 -0.244143,-0.244144 -0.443148,0.172989 -0.862116,-0.2394 -1.089247,-0.454687 -0.75037,-0.717225 -0.998706,-0.708975 -1.629944,0.05832 -0.713428,0.867225 -0.747336,0.854775 -2.079706,-0.809534 -1.368654,-1.709705 -1.685564,-1.687943 -2.325811,0.15914 -0.135461,0.390814 -0.357611,0.840404 -0.493236,1.000326 -0.23842,0.281096 -0.266478,0.286222 -0.862924,0.148277 -0.902702,-0.208792 -1.251293,-0.181481 -1.498465,0.115647 -0.117935,0.141734 -0.242106,0.354673 -0.275776,0.473466 -0.07757,0.273706 -0.226534,0.278316 -0.299502,0.009 -0.08454,-0.312053 -0.263462,-2.089979 -0.324198,-3.227302 -0.07707,-1.442949 -0.466055,-6.039612 -0.543638,-6.421199 -0.03605,-0.177121 -0.130698,-0.383432 -0.210539,-0.457654 -0.04313,-0.04007 -0.07799,-0.05908 -0.108737,-0.05436 z"
       id="path2815-6" />
  </g>
</svg>
