<?xml version="1.0" encoding="UTF-8" standalone="no"?>
<!-- Created with Inkscape (http://www.inkscape.org/) -->

<svg
   xmlns:osb="http://www.openswatchbook.org/uri/2009/osb"
   xmlns:dc="http://purl.org/dc/elements/1.1/"
   xmlns:cc="http://creativecommons.org/ns#"
   xmlns:rdf="http://www.w3.org/1999/02/22-rdf-syntax-ns#"
   xmlns:svg="http://www.w3.org/2000/svg"
   xmlns="http://www.w3.org/2000/svg"
   xmlns:xlink="http://www.w3.org/1999/xlink"
   xmlns:sodipodi="http://sodipodi.sourceforge.net/DTD/sodipodi-0.dtd"
   xmlns:inkscape="http://www.inkscape.org/namespaces/inkscape"
   width="128"
   height="128"
   viewBox="0 0 33.866666 33.866668"
   version="1.1"
   id="svg880"
   inkscape:version="0.92.4 (5da689c313, 2019-01-14)"
   sodipodi:docname="qtop.svg">
  <defs
     id="defs874">
    <linearGradient
       osb:paint="solid"
       id="linearGradient6987">
      <stop
         id="stop6985"
         offset="0"
         style="stop-color:#77d2fb;stop-opacity:1;" />
    </linearGradient>
    <linearGradient
       inkscape:collect="always"
       id="linearGradient939">
      <stop
         style="stop-color:#d4e8ee;stop-opacity:1"
         offset="0"
         id="stop935" />
      <stop
         style="stop-color:#757574;stop-opacity:1"
         offset="1"
         id="stop937" />
    </linearGradient>
    <linearGradient
       inkscape:collect="always"
       xlink:href="#linearGradient939"
       id="linearGradient1025"
       gradientUnits="userSpaceOnUse"
       x1="-218.42142"
       y1="84.454018"
       x2="-219.88927"
       y2="220.38788"
       gradientTransform="matrix(0.20257414,0,0,0.20257414,58.484054,249.50442)" />
  </defs>
  <sodipodi:namedview
     id="base"
     pagecolor="#ffffff"
     bordercolor="#666666"
     borderopacity="1.0"
     inkscape:pageopacity="0.0"
     inkscape:pageshadow="2"
     inkscape:zoom="4.7795999"
     inkscape:cx="8.11928"
     inkscape:cy="52.583794"
     inkscape:document-units="mm"
     inkscape:current-layer="layer1"
     showgrid="false"
     inkscape:window-width="1920"
     inkscape:window-height="1023"
     inkscape:window-x="0"
     inkscape:window-y="29"
     inkscape:window-maximized="1"
     units="px" />
  <metadata
     id="metadata877">
    <rdf:RDF>
      <cc:Work
         rdf:about="">
        <dc:format>image/svg+xml</dc:format>
        <dc:type
           rdf:resource="http://purl.org/dc/dcmitype/StillImage" />
        <dc:title></dc:title>
      </cc:Work>
    </rdf:RDF>
  </metadata>
  <g
     inkscape:label="Layer 1"
     inkscape:groupmode="layer"
     id="layer1"
     transform="translate(0,-263.13332)">
    <g
       id="g888"
       transform="matrix(0.99670236,0,0,0.99670236,1.5968966,0.48535626)">
      <rect
         style="opacity:0.25;fill:#000000;fill-opacity:1;fill-rule:nonzero;stroke:none;stroke-width:0.2;stroke-linecap:round;stroke-linejoin:round;stroke-miterlimit:4;stroke-dasharray:none;stroke-dashoffset:0;stroke-opacity:1"
         id="rect863"
         width="31.655046"
         height="27.710756"
         x="-0.44034511"
         y="266.96552"
         ry="1.4646505" />
      <rect
         ry="1.4646505"
         y="266.43634"
         x="-0.44034511"
         height="27.710756"
         width="31.655046"
         id="rect1015"
         style="opacity:1;fill:url(#linearGradient1025);fill-opacity:1;fill-rule:nonzero;stroke:#666666;stroke-width:0.2;stroke-linecap:round;stroke-linejoin:round;stroke-miterlimit:4;stroke-dasharray:none;stroke-dashoffset:0;stroke-opacity:1" />
      <rect
         style="opacity:1;fill:#000000;fill-opacity:1;fill-rule:nonzero;stroke:none;stroke-width:0.08071546;stroke-linecap:round;stroke-linejoin:round;stroke-miterlimit:4;stroke-dasharray:none;stroke-dashoffset:0;stroke-opacity:1"
         id="rect1017"
         width="30.844788"
         height="27.001461"
         x="-0.035222434"
         y="266.79102"
         ry="1.1374229" />
      <g
         transform="matrix(0.94953267,0,0,0.94953267,-0.6915752,14.359289)"
         id="g1213">
        <rect
           y="267.87656"
           x="2.715378"
           height="24.380209"
           width="28.435896"
           id="rect1019-4"
           style="opacity:1;fill:#262626;fill-opacity:1;fill-rule:nonzero;stroke:none;stroke-width:0.12322024;stroke-linecap:round;stroke-linejoin:round;stroke-miterlimit:4;stroke-dasharray:none;stroke-dashoffset:0;stroke-opacity:1" />
        <path
           style="fill:none;stroke:#42d2b2;stroke-width:0.09999997;stroke-linecap:butt;stroke-linejoin:miter;stroke-miterlimit:4;stroke-dasharray:none;stroke-opacity:1"
           d="m 3.1608734,267.88836 -0.034335,24.36426"
           id="path918"
           inkscape:connector-curvature="0" />
        <path
           inkscape:connector-curvature="0"
           id="path920"
           d="m 6.5208615,267.88836 -0.034335,24.36426"
           style="fill:none;stroke:#42d2b2;stroke-width:0.09999997;stroke-linecap:butt;stroke-linejoin:miter;stroke-miterlimit:4;stroke-dasharray:none;stroke-opacity:1" />
        <path
           style="fill:none;stroke:#42d2b2;stroke-width:0.09999997;stroke-linecap:butt;stroke-linejoin:miter;stroke-miterlimit:4;stroke-dasharray:none;stroke-opacity:1"
           d="m 9.9541981,267.88836 -0.034335,24.36426"
           id="path922"
           inkscape:connector-curvature="0" />
        <path
           inkscape:connector-curvature="0"
           id="path924"
           d="m 13.377305,267.88836 -0.03434,24.36426"
           style="fill:none;stroke:#42d2b2;stroke-width:0.09999997;stroke-linecap:butt;stroke-linejoin:miter;stroke-miterlimit:4;stroke-dasharray:none;stroke-opacity:1" />
        <path
           style="fill:none;stroke:#42d2b2;stroke-width:0.09999997;stroke-linecap:butt;stroke-linejoin:miter;stroke-miterlimit:4;stroke-dasharray:none;stroke-opacity:1"
           d="m 16.776135,267.88836 -0.03433,24.36426"
           id="path926"
           inkscape:connector-curvature="0" />
        <path
           inkscape:connector-curvature="0"
           id="path928"
           d="m 20.211381,267.88836 -0.03433,24.36426"
           style="fill:none;stroke:#42d2b2;stroke-width:0.09999997;stroke-linecap:butt;stroke-linejoin:miter;stroke-miterlimit:4;stroke-dasharray:none;stroke-opacity:1" />
        <path
           style="fill:none;stroke:#42d2b2;stroke-width:0.09999997;stroke-linecap:butt;stroke-linejoin:miter;stroke-miterlimit:4;stroke-dasharray:none;stroke-opacity:1"
           d="m 23.658766,267.88836 -0.03433,24.36426"
           id="path930"
           inkscape:connector-curvature="0" />
        <path
           inkscape:connector-curvature="0"
           id="path932"
           d="m 27.033319,267.88836 -0.03433,24.36426"
           style="fill:none;stroke:#42d2b2;stroke-width:0.09999997;stroke-linecap:butt;stroke-linejoin:miter;stroke-miterlimit:4;stroke-dasharray:none;stroke-opacity:1" />
        <path
           style="fill:none;stroke:#42d2b2;stroke-width:0.09999997;stroke-linecap:butt;stroke-linejoin:miter;stroke-miterlimit:4;stroke-dasharray:none;stroke-opacity:1"
           d="m 30.456426,267.88836 -0.03433,24.36426"
           id="path934"
           inkscape:connector-curvature="0" />
        <path
           style="fill:none;stroke:#42d2b2;stroke-width:0.09999997;stroke-linecap:butt;stroke-linejoin:miter;stroke-miterlimit:4;stroke-dasharray:none;stroke-opacity:1"
           d="M 2.7231228,269.86731 H 31.146858"
           id="path936"
           inkscape:connector-curvature="0" />
        <path
           inkscape:connector-curvature="0"
           id="path938"
           d="M 2.7231228,273.27903 H 31.146858"
           style="fill:none;stroke:#42d2b2;stroke-width:0.09999997;stroke-linecap:butt;stroke-linejoin:miter;stroke-miterlimit:4;stroke-dasharray:none;stroke-opacity:1" />
        <path
           style="fill:none;stroke:#42d2b2;stroke-width:0.09999997;stroke-linecap:butt;stroke-linejoin:miter;stroke-miterlimit:4;stroke-dasharray:none;stroke-opacity:1"
           d="M 2.7231228,276.6957 H 31.146858"
           id="path940"
           inkscape:connector-curvature="0" />
        <path
           inkscape:connector-curvature="0"
           id="path942"
           d="M 2.7231228,280.0988 H 31.146858"
           style="fill:none;stroke:#42d2b2;stroke-width:0.09999997;stroke-linecap:butt;stroke-linejoin:miter;stroke-miterlimit:4;stroke-dasharray:none;stroke-opacity:1" />
        <path
           style="fill:none;stroke:#42d2b2;stroke-width:0.09999997;stroke-linecap:butt;stroke-linejoin:miter;stroke-miterlimit:4;stroke-dasharray:none;stroke-opacity:1"
           d="M 2.7231228,283.5067 H 31.146858"
           id="path944"
           inkscape:connector-curvature="0" />
        <path
           inkscape:connector-curvature="0"
           id="path946"
           d="M 2.7231228,286.91632 H 31.146858"
           style="fill:none;stroke:#42d2b2;stroke-width:0.09999997;stroke-linecap:butt;stroke-linejoin:miter;stroke-miterlimit:4;stroke-dasharray:none;stroke-opacity:1" />
        <path
           style="fill:none;stroke:#42d2b2;stroke-width:0.09999997;stroke-linecap:butt;stroke-linejoin:miter;stroke-miterlimit:4;stroke-dasharray:none;stroke-opacity:1"
           d="M 2.7231228,290.33287 H 31.146858"
           id="path948"
           inkscape:connector-curvature="0" />
      </g>
      <path
         id="path1217"
         style="opacity:0.25;fill:#000000;fill-opacity:1;stroke-width:0.94953269"
         d="m 12.315034,272.74814 c -0.05841,0.008 -0.105158,0.0847 -0.16709,0.24726 -0.119757,0.31439 -0.147316,0.76696 -0.304547,4.98953 -0.08298,2.22863 -0.263742,4.22568 -0.419369,4.63421 -0.201468,0.52889 -0.537234,0.36345 -1.381162,-0.6798 -0.4343068,-0.5369 -0.925932,-1.08331 -1.0926662,-1.21422 -0.2869445,-0.22527 -0.3194362,-0.22707 -0.61074,-0.0366 -0.1692675,0.11069 -0.3899302,0.39995 -0.4901559,0.64285 -0.2588238,0.62726 -0.6134395,0.96701 -1.1066585,1.05934 -0.2349613,0.0441 -1.4470418,0.0102 -2.6931839,-0.0752 l -2.1626966,-0.14788 c 3.591e-4,0.12064 8.763e-4,0.24125 7.973e-4,0.36189 l 1.1334084,0.0982 c 0.6792959,0.0591 1.8882265,0.10762 2.6865991,0.10762 1.6929634,0 1.9825574,-0.11888 2.358594,-0.96736 0.1282327,-0.28932 0.2864852,-0.5588 0.3514637,-0.59888 0.2495691,-0.15394 0.5954087,0.10153 1.3050258,0.96446 0.4045998,0.49202 0.8692618,0.98213 1.0325798,1.08894 0.397459,0.25992 0.773503,0.12477 0.971258,-0.34875 0.201284,-0.48194 0.401146,-2.49657 0.484806,-4.88888 0.0723,-2.06744 0.134899,-2.54962 0.297962,-2.2863 0.09424,0.15221 0.187196,1.00428 0.301667,2.76731 0.02361,0.36379 0.129903,1.63542 0.236229,2.82604 0.356937,3.99686 0.485087,4.71053 0.826393,4.59765 0.179725,-0.0595 0.416947,-1.05044 0.432127,-1.80529 0.0064,-0.31632 0.0904,-0.76261 0.186432,-0.99199 0.198314,-0.47373 0.2945,-0.49188 1.465942,-0.27645 1.063619,0.19561 1.289462,0.0722 1.746207,-0.95296 0.61337,-1.37664 0.636475,-1.41022 0.990601,-1.45122 0.276043,-0.0319 0.4404,0.0813 0.95809,0.66132 1.900881,2.12951 2.117116,2.21477 3.148358,1.24133 0.350367,-0.33074 0.688896,-0.60136 0.752724,-0.60136 0.06383,0 0.402109,0.24331 0.751492,0.54098 0.519123,0.44226 0.72173,0.54137 1.109127,0.54137 h 0.112767 v -0.36065 h -0.04034 c -0.299436,0 -0.559315,-0.13609 -1.035047,-0.54138 -0.8549,-0.72833 -1.138102,-0.71928 -1.857325,0.0599 -0.812819,0.88068 -0.851721,0.86738 -2.369708,-0.82275 -1.559361,-1.73621 -1.920077,-1.71428 -2.64956,0.16144 -0.154347,0.39686 -0.407244,0.85425 -0.561765,1.01661 -0.27164,0.28545 -0.304064,0.29045 -0.983605,0.15035 -1.028501,-0.21203 -1.425049,-0.18467 -1.706698,0.11707 -0.134368,0.14394 -0.275652,0.36038 -0.314013,0.48101 -0.0884,0.27794 -0.258867,0.28253 -0.341999,0.009 -0.09632,-0.31693 -0.29955,-2.12256 -0.368749,-3.27747 -0.08779,-1.46529 -0.5318,-6.13318 -0.620204,-6.52044 -0.04108,-0.17986 -0.148962,-0.38879 -0.239935,-0.46415 -0.04913,-0.0407 -0.08842,-0.0607 -0.123464,-0.0559 z"
         inkscape:connector-curvature="0" />
      <path
         inkscape:connector-curvature="0"
         d="m 12.315034,272.61841 c -0.05841,0.008 -0.105158,0.0847 -0.16709,0.24727 -0.119757,0.31439 -0.147316,0.76695 -0.304547,4.98953 -0.08298,2.22863 -0.263742,4.22567 -0.419369,4.63421 -0.201468,0.52889 -0.537234,0.36344 -1.381162,-0.67981 -0.4343068,-0.53689 -0.925932,-1.0833 -1.0926662,-1.21421 -0.2869445,-0.22527 -0.3194362,-0.22707 -0.61074,-0.0366 -0.1692675,0.11069 -0.3899302,0.39994 -0.4901559,0.64284 -0.2588238,0.62726 -0.6134395,0.96702 -1.1066585,1.05935 -0.2349613,0.0441 -1.4470418,0.0102 -2.6931839,-0.0752 l -2.1626966,-0.14788 c 3.591e-4,0.12063 8.763e-4,0.24124 7.973e-4,0.36188 l 1.1334084,0.0982 c 0.6792959,0.0591 1.8882265,0.10762 2.6865991,0.10762 1.6929634,0 1.9825574,-0.11888 2.358594,-0.96735 0.1282327,-0.28932 0.2864852,-0.5588 0.3514637,-0.59888 0.2495691,-0.15395 0.5954087,0.10152 1.3050258,0.96446 0.4045998,0.49202 0.8692618,0.98213 1.0325798,1.08893 0.397459,0.25993 0.773503,0.12478 0.971258,-0.34874 0.201284,-0.48195 0.401146,-2.49657 0.484806,-4.88888 0.0723,-2.06745 0.134899,-2.54963 0.297962,-2.28631 0.09424,0.15221 0.187196,1.00429 0.301667,2.76731 0.02361,0.3638 0.129903,1.63542 0.236229,2.82604 0.356937,3.99687 0.485087,4.71054 0.826393,4.59766 0.179725,-0.0595 0.416947,-1.05044 0.432127,-1.80529 0.0064,-0.31632 0.0904,-0.76261 0.186432,-0.992 0.198314,-0.47372 0.2945,-0.49188 1.465942,-0.27645 1.063619,0.19562 1.289462,0.0722 1.746207,-0.95296 0.61337,-1.37664 0.636475,-1.41021 0.990601,-1.45121 0.276043,-0.0319 0.4404,0.0813 0.95809,0.66132 1.900881,2.1295 2.117116,2.21476 3.148358,1.24132 0.350367,-0.33073 0.688896,-0.60136 0.752724,-0.60136 0.06383,0 0.402109,0.24331 0.751492,0.54098 0.519123,0.44226 0.72173,0.54138 1.109127,0.54138 h 0.112767 v -0.36066 h -0.04034 c -0.299436,0 -0.559315,-0.13608 -1.035047,-0.54137 -0.8549,-0.72833 -1.138102,-0.71928 -1.857325,0.0599 -0.812819,0.88069 -0.851721,0.86738 -2.369708,-0.82275 -1.559361,-1.73621 -1.920077,-1.71427 -2.64956,0.16144 -0.154347,0.39687 -0.407244,0.85426 -0.561765,1.01662 -0.27164,0.28545 -0.304064,0.29044 -0.983605,0.15035 -1.028501,-0.21203 -1.425049,-0.18468 -1.706698,0.11707 -0.134368,0.14394 -0.275652,0.36037 -0.314013,0.481 -0.0884,0.27795 -0.258867,0.28253 -0.341999,0.009 -0.09632,-0.31694 -0.29955,-2.12257 -0.368749,-3.27748 -0.08779,-1.46529 -0.5318,-6.13318 -0.620204,-6.52044 -0.04108,-0.17986 -0.148962,-0.38878 -0.239935,-0.46415 -0.04913,-0.0407 -0.08842,-0.0607 -0.123464,-0.0559 z"
         style="fill:#00e6b5;fill-opacity:1;stroke-width:0.94953269"
         id="path1056" />
    </g>
  </g>
</svg>
