<?xml version="1.0" encoding="UTF-8" standalone="no"?>
<svg
   xmlns:dc="http://purl.org/dc/elements/1.1/"
   xmlns:cc="http://creativecommons.org/ns#"
   xmlns:rdf="http://www.w3.org/1999/02/22-rdf-syntax-ns#"
   xmlns:svg="http://www.w3.org/2000/svg"
   xmlns="http://www.w3.org/2000/svg"
   xmlns:xlink="http://www.w3.org/1999/xlink"
   xmlns:sodipodi="http://sodipodi.sourceforge.net/DTD/sodipodi-0.dtd"
   xmlns:inkscape="http://www.inkscape.org/namespaces/inkscape"
   height="128"
   viewBox="0 0 33.867 33.867"
   width="128"
   version="1.1"
   id="svg155"
   sodipodi:docname="qtransmission.svg"
   inkscape:version="0.92.5 (2060ec1f9f, 2020-04-08)">
  <metadata
     id="metadata161">
    <rdf:RDF>
      <cc:Work
         rdf:about="">
        <dc:format>image/svg+xml</dc:format>
        <dc:type
           rdf:resource="http://purl.org/dc/dcmitype/StillImage" />
      </cc:Work>
    </rdf:RDF>
  </metadata>
  <defs
     id="defs159" />
  <sodipodi:namedview
     pagecolor="#ffffff"
     bordercolor="#666666"
     borderopacity="1"
     objecttolerance="10"
     gridtolerance="10"
     guidetolerance="10"
     inkscape:pageopacity="0"
     inkscape:pageshadow="2"
     inkscape:window-width="640"
     inkscape:window-height="480"
     id="namedview157"
     showgrid="false"
     inkscape:zoom="1.84375"
     inkscape:cx="-69.966102"
     inkscape:cy="64"
     inkscape:current-layer="svg155" />
  <linearGradient
     id="j"
     gradientUnits="userSpaceOnUse"
     spreadMethod="pad"
     x1="-47.703"
     x2="-44.01"
     y1="68.741"
     y2="32.945">
    <stop
       offset="0"
       stop-color="#0d2944"
       id="stop2" />
    <stop
       offset=".311"
       stop-color="#0c4c8c"
       id="stop4" />
    <stop
       offset="1"
       stop-color="#176fc6"
       stop-opacity="0"
       id="stop6" />
  </linearGradient>
  <linearGradient
     id="i"
     gradientUnits="userSpaceOnUse"
     spreadMethod="pad"
     x1="-49.511"
     x2="-43.106"
     y1="23.182"
     y2="47.77">
    <stop
       offset="0"
       stop-color="#1764b2"
       stop-opacity=".996"
       id="stop9" />
    <stop
       offset=".087"
       stop-color="#1d78d3"
       id="stop11" />
    <stop
       offset="1"
       stop-color="#176fc6"
       id="stop13" />
  </linearGradient>
  <linearGradient
     id="h"
     gradientUnits="userSpaceOnUse"
     x1="98.436"
     x2="67.627"
     xlink:href="#a"
     y1="50.305"
     y2="50.305" />
  <linearGradient
     id="g"
     gradientUnits="userSpaceOnUse"
     x1="66.082"
     x2="66.082"
     y1="59.254"
     y2="37.905">
    <stop
       offset="0"
       stop-color="#464747"
       id="stop17" />
    <stop
       offset="1"
       stop-color="#7f8082"
       id="stop19" />
  </linearGradient>
  <linearGradient
     id="f"
     gradientUnits="userSpaceOnUse"
     x1="69.045"
     x2="69.045"
     y1="35.604"
     y2="63.345">
    <stop
       offset="0"
       stop-color="#eee"
       id="stop22" />
    <stop
       offset=".468"
       stop-color="#cacaca"
       id="stop24" />
    <stop
       offset=".505"
       stop-color="#b3b3b3"
       id="stop26" />
    <stop
       offset=".578"
       stop-color="#b0b0b0"
       id="stop28" />
    <stop
       offset="1"
       stop-color="#454646"
       id="stop30" />
  </linearGradient>
  <linearGradient
     id="o"
     gradientUnits="userSpaceOnUse"
     x1="16.819"
     x2="16.819"
     y1="1.004"
     y2="17.97">
    <stop
       offset="0"
       stop-color="#c3c3c3"
       stop-opacity=".996"
       id="stop33" />
    <stop
       offset=".042"
       stop-color="#c4c4c4"
       id="stop35" />
    <stop
       offset=".085"
       stop-color="#999"
       id="stop37" />
    <stop
       offset=".139"
       stop-color="#9f9f9f"
       id="stop39" />
    <stop
       offset=".201"
       stop-color="#dedede"
       id="stop41" />
    <stop
       offset=".23"
       stop-color="#e9e9e9"
       id="stop43" />
    <stop
       offset=".275"
       stop-color="#bebdbd"
       id="stop45" />
    <stop
       offset=".309"
       stop-color="#888686"
       id="stop47" />
    <stop
       offset=".456"
       stop-color="#545353"
       id="stop49" />
    <stop
       offset=".535"
       stop-color="#4e4e4e"
       id="stop51" />
    <stop
       offset=".857"
       stop-color="#a1a1a1"
       id="stop53" />
    <stop
       offset="1"
       stop-color="#737373"
       id="stop55" />
  </linearGradient>
  <linearGradient
     id="a">
    <stop
       offset="0"
       id="stop58" />
    <stop
       offset="1"
       stop-opacity="0"
       id="stop60" />
  </linearGradient>
  <linearGradient
     id="n"
     gradientUnits="userSpaceOnUse"
     x1="17.192"
     x2="17.192"
     y1="16.337"
     y2="20.445">
    <stop
       offset="0"
       stop-color="#0d0d0d"
       id="stop63" />
    <stop
       offset="1"
       stop-color="#2c2c2c"
       stop-opacity="0"
       id="stop65" />
  </linearGradient>
  <linearGradient
     id="m"
     gradientUnits="userSpaceOnUse"
     x1="-.155"
     x2="-26.654"
     y1="45.781"
     y2="42.527">
    <stop
       offset="0"
       stop-color="#0d2944"
       id="stop68" />
    <stop
       offset="1"
       stop-color="#0d2944"
       stop-opacity="0"
       id="stop70" />
  </linearGradient>
  <linearGradient
     id="k"
     gradientUnits="userSpaceOnUse"
     x1="-94.708"
     x2="-75.286"
     y1="46.143"
     y2="46.143">
    <stop
       offset="0"
       stop-color="#0d2944"
       id="stop73" />
    <stop
       offset="1"
       stop-color="#0d2944"
       stop-opacity="0"
       id="stop75" />
  </linearGradient>
  <linearGradient
     id="c"
     gradientUnits="userSpaceOnUse"
     x1="17.751"
     x2="17.751"
     y1="4.29"
     y2="28.983">
    <stop
       offset="0"
       stop-color="#bbbfc3"
       id="stop78" />
    <stop
       offset="1"
       stop-color="#f1f3f6"
       stop-opacity=".941"
       id="stop80" />
  </linearGradient>
  <linearGradient
     id="b"
     gradientUnits="userSpaceOnUse"
     x1="16.938"
     x2="16.938"
     y1="5.627"
     y2="30.152">
    <stop
       offset="0"
       stop-color="#a2acb0"
       id="stop83" />
    <stop
       offset="1"
       stop-color="#9cabb7"
       id="stop85" />
  </linearGradient>
  <radialGradient
     id="l"
     cx="3.512"
     cy="47.23"
     gradientTransform="matrix(2.54236 0 0 1.47905 -60.842 -28.344)"
     gradientUnits="userSpaceOnUse"
     r="12.017"
     spreadMethod="pad">
    <stop
       offset="0"
       stop-color="#1766b5"
       stop-opacity=".118"
       id="stop88" />
    <stop
       offset=".82"
       stop-color="#1764b2"
       stop-opacity="0"
       id="stop90" />
    <stop
       offset="1"
       stop-color="#0f4a84"
       id="stop92" />
  </radialGradient>
  <radialGradient
     id="d"
     cx="16.994"
     cy="4.308"
     gradientTransform="matrix(3.77953 0 0 9.2084 0 -23.39)"
     gradientUnits="userSpaceOnUse"
     r="6.579"
     xlink:href="#a" />
  <radialGradient
     id="e"
     cx="16.993"
     cy="1.557"
     gradientTransform="matrix(2.81492 0 0 1.19422 14.815 14.385)"
     gradientUnits="userSpaceOnUse"
     r="19.382">
    <stop
       offset="0"
       stop-color="#2a76c1"
       id="stop96" />
    <stop
       offset="1"
       stop-color="#2a76c1"
       stop-opacity="0"
       id="stop98" />
  </radialGradient>
  <g
     id="g1702"
     transform="matrix(0.97574166,0,0,0.97574166,-65.75568,-37.332433)"
     style="opacity:0.29676508">
    <rect
       style="fill:none;fill-opacity:1;stroke:#000000;stroke-width:0.1;stroke-linecap:round;stroke-linejoin:round;stroke-miterlimit:4;stroke-dasharray:none;stroke-opacity:0.02000002"
       id="rect1634"
       width="29.810888"
       height="29.810888"
       x="69.839508"
       y="40.709618"
       rx="6.6098609"
       ry="6.6098609" />
    <rect
       ry="6.6098609"
       rx="6.6098609"
       y="40.709618"
       x="69.839508"
       height="29.810888"
       width="29.810888"
       id="rect1638"
       style="fill:none;fill-opacity:1;stroke:#000000;stroke-width:0.2;stroke-linecap:round;stroke-linejoin:round;stroke-miterlimit:4;stroke-dasharray:none;stroke-opacity:0.02000002" />
    <rect
       style="fill:none;fill-opacity:1;stroke:#000000;stroke-width:0.30000001;stroke-linecap:round;stroke-linejoin:round;stroke-miterlimit:4;stroke-dasharray:none;stroke-opacity:0.02000002"
       id="rect1640"
       width="29.810888"
       height="29.810888"
       x="69.839508"
       y="40.709618"
       rx="6.6098609"
       ry="6.6098609" />
    <rect
       ry="6.6098609"
       rx="6.6098609"
       y="40.709618"
       x="69.839508"
       height="29.810888"
       width="29.810888"
       id="rect1642"
       style="fill:none;fill-opacity:1;stroke:#000000;stroke-width:0.40000001;stroke-linecap:round;stroke-linejoin:round;stroke-miterlimit:4;stroke-dasharray:none;stroke-opacity:0.02000002" />
    <rect
       style="fill:none;fill-opacity:1;stroke:#000000;stroke-width:0.5;stroke-linecap:round;stroke-linejoin:round;stroke-miterlimit:4;stroke-dasharray:none;stroke-opacity:0.02000002"
       id="rect1644"
       width="29.810888"
       height="29.810888"
       x="69.839508"
       y="40.709618"
       rx="6.6098609"
       ry="6.6098609" />
    <rect
       ry="6.6098609"
       rx="6.6098609"
       y="40.709618"
       x="69.839508"
       height="29.810888"
       width="29.810888"
       id="rect1646"
       style="fill:none;fill-opacity:1;stroke:#000000;stroke-width:0.60000002;stroke-linecap:round;stroke-linejoin:round;stroke-miterlimit:4;stroke-dasharray:none;stroke-opacity:0.02000002" />
    <rect
       style="fill:none;fill-opacity:1;stroke:#000000;stroke-width:0.69999999;stroke-linecap:round;stroke-linejoin:round;stroke-miterlimit:4;stroke-dasharray:none;stroke-opacity:0.02000002"
       id="rect1648"
       width="29.810888"
       height="29.810888"
       x="69.839508"
       y="40.709618"
       rx="6.6098609"
       ry="6.6098609" />
    <rect
       ry="6.6098609"
       rx="6.6098609"
       y="40.709618"
       x="69.839508"
       height="29.810888"
       width="29.810888"
       id="rect1650"
       style="fill:none;fill-opacity:1;stroke:#000000;stroke-width:0.80000001;stroke-linecap:round;stroke-linejoin:round;stroke-miterlimit:4;stroke-dasharray:none;stroke-opacity:0.02000002" />
    <rect
       style="fill:none;fill-opacity:1;stroke:#000000;stroke-width:1;stroke-linecap:round;stroke-linejoin:round;stroke-miterlimit:4;stroke-dasharray:none;stroke-opacity:0.02000002"
       id="rect1652"
       width="29.810888"
       height="29.810888"
       x="69.839508"
       y="40.709618"
       rx="6.6098609"
       ry="6.6098609" />
    <rect
       ry="6.6098609"
       rx="6.6098609"
       y="40.709618"
       x="69.839508"
       height="29.810888"
       width="29.810888"
       id="rect1654"
       style="fill:none;fill-opacity:1;stroke:#000000;stroke-width:1.20000005;stroke-linecap:round;stroke-linejoin:round;stroke-miterlimit:4;stroke-dasharray:none;stroke-opacity:0.02000002" />
    <rect
       style="fill:none;fill-opacity:1;stroke:#000000;stroke-width:1.39999998;stroke-linecap:round;stroke-linejoin:round;stroke-miterlimit:4;stroke-dasharray:none;stroke-opacity:0.02000002"
       id="rect1656"
       width="29.810888"
       height="29.810888"
       x="69.839508"
       y="40.709618"
       rx="6.6098609"
       ry="6.6098609" />
    <rect
       ry="6.6098609"
       rx="6.6098609"
       y="40.709618"
       x="69.839508"
       height="29.810888"
       width="29.810888"
       id="rect1658"
       style="fill:none;fill-opacity:1;stroke:#000000;stroke-width:1.60000002;stroke-linecap:round;stroke-linejoin:round;stroke-miterlimit:4;stroke-dasharray:none;stroke-opacity:0.02000002" />
    <rect
       style="fill:none;fill-opacity:1;stroke:#000000;stroke-width:1.79999995;stroke-linecap:round;stroke-linejoin:round;stroke-miterlimit:4;stroke-dasharray:none;stroke-opacity:0.02000002"
       id="rect1660"
       width="29.810888"
       height="29.810888"
       x="69.839508"
       y="40.709618"
       rx="6.6098609"
       ry="6.6098609" />
    <rect
       ry="6.6098609"
       rx="6.6098609"
       y="40.709618"
       x="69.839508"
       height="29.810888"
       width="29.810888"
       id="rect1662"
       style="fill:none;fill-opacity:1;stroke:#000000;stroke-width:2;stroke-linecap:round;stroke-linejoin:round;stroke-miterlimit:4;stroke-dasharray:none;stroke-opacity:0.02000002" />
    <rect
       style="fill:none;fill-opacity:1;stroke:#000000;stroke-width:2.20000005;stroke-linecap:round;stroke-linejoin:round;stroke-miterlimit:4;stroke-dasharray:none;stroke-opacity:0.02000002"
       id="rect1664"
       width="29.810888"
       height="29.810888"
       x="69.839508"
       y="40.709618"
       rx="6.6098609"
       ry="6.6098609" />
    <rect
       ry="6.6098609"
       rx="6.6098609"
       y="40.709618"
       x="69.839508"
       height="29.810888"
       width="29.810888"
       id="rect1666"
       style="fill:none;fill-opacity:1;stroke:#000000;stroke-width:2.5999999;stroke-linecap:round;stroke-linejoin:round;stroke-miterlimit:4;stroke-dasharray:none;stroke-opacity:0.02000002" />
    <rect
       style="fill:none;fill-opacity:1;stroke:#000000;stroke-width:3;stroke-linecap:round;stroke-linejoin:round;stroke-miterlimit:4;stroke-dasharray:none;stroke-opacity:0.02000002"
       id="rect1668"
       width="29.810888"
       height="29.810888"
       x="69.839508"
       y="40.709618"
       rx="6.6098609"
       ry="6.6098609" />
    <rect
       ry="6.6098609"
       rx="6.6098609"
       y="40.709618"
       x="69.839508"
       height="29.810888"
       width="29.810888"
       id="rect1670"
       style="fill:none;fill-opacity:1;stroke:#000000;stroke-width:3.4000001;stroke-linecap:round;stroke-linejoin:round;stroke-miterlimit:4;stroke-dasharray:none;stroke-opacity:0.02000002" />
    <rect
       style="fill:none;fill-opacity:1;stroke:#000000;stroke-width:3.79999995;stroke-linecap:round;stroke-linejoin:round;stroke-miterlimit:4;stroke-dasharray:none;stroke-opacity:0.02000002"
       id="rect1672"
       width="29.810888"
       height="29.810888"
       x="69.839508"
       y="40.709618"
       rx="6.6098609"
       ry="6.6098609" />
    <rect
       ry="6.6098609"
       rx="6.6098609"
       y="40.709618"
       x="69.839508"
       height="29.810888"
       width="29.810888"
       id="rect1674"
       style="fill:none;fill-opacity:1;stroke:#000000;stroke-width:4.19999981;stroke-linecap:round;stroke-linejoin:round;stroke-miterlimit:4;stroke-dasharray:none;stroke-opacity:0.02000002" />
    <rect
       style="fill:none;fill-opacity:1;stroke:#000000;stroke-width:4.5999999;stroke-linecap:round;stroke-linejoin:round;stroke-miterlimit:4;stroke-dasharray:none;stroke-opacity:0.02000002"
       id="rect1676"
       width="29.810888"
       height="29.810888"
       x="69.839508"
       y="40.709618"
       rx="6.6098609"
       ry="6.6098609" />
    <rect
       ry="6.6098609"
       rx="6.6098609"
       y="40.709618"
       x="69.839508"
       height="29.810888"
       width="29.810888"
       id="rect1678"
       style="fill:none;fill-opacity:1;stroke:#000000;stroke-width:5;stroke-linecap:round;stroke-linejoin:round;stroke-miterlimit:4;stroke-dasharray:none;stroke-opacity:0.02000002" />
  </g>
  <rect
     fill="url(#b)"
     height="29.087"
     rx="6.449"
     width="29.087"
     x="2.396"
     y="2.519"
     id="rect101" />
  <rect
     fill="url(#c)"
     height="26.285"
     rx="5.567"
     width="26.314"
     x="3.783"
     y="3.92"
     id="rect103" />
  <path
     d="M16.95 7.127a.639.639 0 00-.443.185l-4.51 4.318c-.497.477-.35.922 0 .932h1.777v9.855h-1.776c-.35.01-.498.456 0 .932l4.509 4.319a.639.639 0 00.443.185.639.639 0 00.443-.185l4.509-4.319c.497-.476.35-.921 0-.932h-1.776v-9.855h1.776c.35-.01.497-.455 0-.932l-4.509-4.318a.639.639 0 00-.443-.185z"
     fill="#fff"
     id="path105" />
  <path
     d="M16.95 7.127a.639.639 0 00-.443.185l-4.51 4.318c-.497.477-.35.922 0 .932h1.777v9.855h-1.776c-.35.01-.498.456 0 .932l4.509 4.319a.639.639 0 00.443.185.639.639 0 00.443-.185l4.509-4.319c.497-.476.35-.921 0-.932h-1.776v-9.855h1.776c.35-.01.497-.455 0-.932l-4.509-4.318a.639.639 0 00-.443-.185z"
     fill="#484848"
     id="path107" />
  <path
     d="M39.531 9.52a24.867 60.586 0 00-.168 6.763A24.867 60.586 0 0064.23 76.87a24.867 60.586 0 0024.867-60.586 24.867 60.586 0 00-.184-6.763h-49.38z"
     fill="url(#d)"
     opacity=".735"
     transform="scale(.26458)"
     id="path109" />
  <path
     d="M16.95 7.127a.639.639 0 00-.443.185l-4.51 4.318c-.497.477-.35.922 0 .932h1.777v9.855h-1.776c-.351.01-.498.456 0 .932l4.509 4.319a.639.639 0 00.443.185.639.639 0 00.443-.185l4.509-4.319c.497-.476.35-.921 0-.932h-1.776v-9.855h1.776c.35-.01.497-.455 0-.932l-4.51-4.318a.639.639 0 00-.442-.185zm0 .863l3.942 3.776h-.766a.796.796 0 00-.796.796v9.855a.796.796 0 00.796.796h.766L16.95 26.99l-3.943-3.777h.767a.796.796 0 00.796-.796v-9.855a.796.796 0 00-.796-.796h-.767z"
     fill-opacity=".128"
     id="path111" />
  <path
     d="M33.434 9.52A24.323 24.323 0 009.057 33.895v5.585a92.84 23.46 0 0053.972 4.397 92.84 23.46 0 0055.965-4.768v-5.214A24.323 24.323 0 0094.617 9.52z"
     fill="url(#e)"
     opacity=".747"
     transform="scale(.26458)"
     id="path113" />
  <g
     stroke-linecap="round"
     stroke-linejoin="round"
     id="g119">
    <path
       d="M58.934 41.056l15.98-7.042c.98-.432 1.917.906 1.917 2.032v25.459c0 1.125-.926 2.434-1.918 2.031l-15.98-6.5c-.991-.404-1.917-.906-1.917-2.031V43.087c0-1.125.937-1.599 1.918-2.03z"
       fill="url(#f)"
       stroke="url(#g)"
       transform="translate(-1.264 -.89) scale(.10616)"
       id="path115" />
    <path
       d="M58.934 41.056l15.98-7.042c.98-.432 1.917.906 1.917 2.032v25.459c0 1.125-.926 2.434-1.918 2.031l-15.98-6.5c-.991-.404-1.917-.906-1.917-2.031V43.087c0-1.125.937-1.599 1.918-2.03z"
       fill="url(#h)"
       opacity=".654"
       transform="translate(-1.264 -.89) scale(.10616)"
       id="path117" />
  </g>
  <path
     d="M13.218 7.204c-2.095-.09-4.208-.487-6.287-1.135-.275-.09-.523-.217-.573-.561a15.274 15.274 0 01-.014-2.649c.034-.264.317-.366.558-.442 2.123-.652 4.323-1.113 6.75-1.157z"
     fill="#186ac7"
     id="path121" />
  <path
     d="M-16.643 74.14c-19.733-.845-39.643-4.587-59.227-10.692-2.582-.858-4.924-2.05-5.395-5.288-.776-7.678-.797-17.273-.128-24.95.32-2.487 2.984-3.45 5.252-4.166 20-6.145 40.723-10.485 63.589-10.898z"
     fill="url(#i)"
     transform="translate(14.985 -.666) scale(.10616)"
     id="path123" />
  <path
     d="M-16.643 74.14c-19.733-.845-39.643-4.587-59.227-10.692-2.582-.858-4.924-2.05-5.395-5.288-.776-7.678-.797-17.273-.128-24.95.32-2.487 2.984-3.45 5.252-4.166 20-6.145 40.723-10.485 63.589-10.898z"
     fill="url(#j)"
     transform="translate(14.985 -.666) scale(.10616)"
     id="path125" />
  <path
     d="M-16.643 74.14c-19.733-.845-39.643-4.587-59.227-10.692-2.582-.858-4.924-2.05-5.395-5.288-.776-7.678-.797-17.273-.128-24.95.32-2.487 2.984-3.45 5.252-4.166 20-6.145 40.723-10.485 63.589-10.898z"
     fill="url(#k)"
     transform="translate(14.985 -.666) scale(.10616)"
     id="path127" />
  <path
     d="M-67.578 26.548a310.687 310.687 0 00-8.563 2.496c-2.268.716-4.932 1.68-5.252 4.166-.336 3.863-.497 8.21-.476 12.555a12.017 12.017 0 006.433 1.883 12.017 12.017 0 0012.018-12.016 12.017 12.017 0 00-4.16-9.084z"
     fill="url(#l)"
     opacity=".392"
     transform="translate(14.985 -.666) scale(.10616)"
     id="path129" />
  <path
     d="M-16.643 74.14c-19.733-.845-39.643-4.587-59.227-10.692-2.582-.858-4.924-2.05-5.395-5.288-.776-7.678-.797-17.273-.128-24.95.32-2.487 2.984-3.45 5.252-4.166 20-6.145 40.723-10.485 63.589-10.898z"
     fill="url(#m)"
     opacity=".315"
     transform="translate(14.985 -.666) scale(.10616)"
     id="path131" />
  <g
     stroke-linecap="round"
     stroke-linejoin="round"
     id="g137">
    <path
       d="M58.934 41.056l15.98-7.042c.98-.432 1.917.906 1.917 2.032v25.459c0 1.125-.926 2.434-1.918 2.031l-15.98-6.5c-.991-.404-1.917-.906-1.917-2.031V43.087c0-1.125.937-1.599 1.918-2.03z"
       fill="url(#f)"
       stroke="url(#g)"
       transform="matrix(-.10616 0 0 .10616 35.042 -.89)"
       id="path133" />
    <path
       d="M58.934 41.056l15.98-7.042c.98-.432 1.917.906 1.917 2.032v25.459c0 1.125-.926 2.434-1.918 2.031l-15.98-6.5c-.991-.404-1.917-.906-1.917-2.031V43.087c0-1.125.937-1.599 1.918-2.03z"
       fill="url(#h)"
       opacity=".654"
       transform="matrix(-.10616 0 0 .10616 35.042 -.89)"
       id="path135" />
  </g>
  <path
     d="M20.56 7.204c2.095-.09 4.208-.487 6.287-1.135.275-.09.523-.217.573-.561.083-.815.085-1.834.014-2.649-.034-.264-.317-.366-.558-.442-2.123-.652-4.323-1.113-6.75-1.157z"
     fill="#186ac7"
     id="path139" />
  <path
     d="M-16.643 74.14c-19.733-.845-39.643-4.587-59.227-10.692-2.582-.858-4.924-2.05-5.395-5.288-.776-7.678-.797-17.273-.128-24.95.32-2.487 2.984-3.45 5.252-4.166 20-6.145 40.723-10.485 63.589-10.898z"
     fill="url(#i)"
     transform="matrix(-.10616 0 0 .10616 18.793 -.666)"
     id="path141" />
  <path
     d="M-16.643 74.14c-19.733-.845-39.643-4.587-59.227-10.692-2.582-.858-4.924-2.05-5.395-5.288-.776-7.678-.797-17.273-.128-24.95.32-2.487 2.984-3.45 5.252-4.166 20-6.145 40.723-10.485 63.589-10.898z"
     fill="url(#j)"
     transform="matrix(-.10616 0 0 .10616 18.793 -.666)"
     id="path143" />
  <path
     d="M-16.643 74.14c-19.733-.845-39.643-4.587-59.227-10.692-2.582-.858-4.924-2.05-5.395-5.288-.776-7.678-.797-17.273-.128-24.95.32-2.487 2.984-3.45 5.252-4.166 20-6.145 40.723-10.485 63.589-10.898z"
     fill="url(#k)"
     transform="matrix(-.10616 0 0 .10616 18.793 -.666)"
     id="path145" />
  <path
     d="M-67.578 26.548a310.687 310.687 0 00-8.563 2.496c-2.268.716-4.932 1.68-5.252 4.166-.336 3.863-.497 8.21-.476 12.555a12.017 12.017 0 006.433 1.883 12.017 12.017 0 0012.018-12.016 12.017 12.017 0 00-4.16-9.084z"
     fill="url(#l)"
     opacity=".392"
     transform="matrix(-.10616 0 0 .10616 18.793 -.666)"
     id="path147" />
  <path
     d="M-16.643 74.14c-19.733-.845-39.643-4.587-59.227-10.692-2.582-.858-4.924-2.05-5.395-5.288-.776-7.678-.797-17.273-.128-24.95.32-2.487 2.984-3.45 5.252-4.166 20-6.145 40.723-10.485 63.589-10.898z"
     fill="url(#m)"
     opacity=".315"
     transform="matrix(-.10616 0 0 .10616 18.793 -.666)"
     id="path149" />
  <path
     d="M13.774 15.748v6.67h-1.776c-.351.01-.498.455 0 .931l4.509 4.319a.639.639 0 00.443.185.639.639 0 00.443-.185l4.509-4.319c.497-.476.35-.921 0-.932h-1.776v-6.67z"
     fill="url(#n)"
     id="path151" />
  <path
     d="M13.818.953c-1.63.553-.43 8.888-.108 14.518v2.067c0 .226.181.407.407.407h5.537a.406.406 0 00.407-.407v-1.737c-.04-2.994 1.82-14.33-.217-14.848z"
     fill="url(#o)"
     id="path153" />
</svg>
