<?xml version="1.0" encoding="UTF-8" standalone="no"?>
<svg
   inkscape:version="1.1.2 (0a00cf5339, 2022-02-04)"
   sodipodi:docname="quaternion.svg"
   id="svg6"
   version="1.1"
   viewBox="0 0 33.866666 33.866667"
   height="128"
   width="128"
   xmlns:inkscape="http://www.inkscape.org/namespaces/inkscape"
   xmlns:sodipodi="http://sodipodi.sourceforge.net/DTD/sodipodi-0.dtd"
   xmlns:xlink="http://www.w3.org/1999/xlink"
   xmlns="http://www.w3.org/2000/svg"
   xmlns:svg="http://www.w3.org/2000/svg">
  <defs
     id="defs2">
    <linearGradient
       id="lgrad"
       x1="32"
       y1="32"
       x2="32"
       y2="992"
       gradientUnits="userSpaceOnUse"
       gradientTransform="translate(0,-896)">
      <stop
         offset="0%"
         stop-color="#f8f8f8"
         id="stop2" />
      <stop
         offset="100%"
         stop-color="#ccc"
         id="stop4" />
    </linearGradient>
    <radialGradient
       id="rgrad"
       x1="0%"
       y1="0%"
       x2="0%"
       y2="100%"
       fx="512"
       fy="494.39999"
       cx="512"
       cy="512"
       r="440"
       gradientUnits="userSpaceOnUse"
       gradientTransform="translate(0,-896)">
      <stop
         offset="0%"
         stop-color="#00f0ff"
         id="stop7" />
      <stop
         offset="100%"
         stop-color="#0070e0"
         id="stop9" />
    </radialGradient>
    <radialGradient
       gradientTransform="matrix(0.03099337,0,0,0.03032562,85.198869,42.985295)"
       gradientUnits="userSpaceOnUse"
       r="440"
       cy="306.1813"
       cx="523.57568"
       fy="306.1813"
       fx="523.57568"
       y2="100%"
       x2="0%"
       y1="0%"
       x1="0%"
       id="rgrad-3">
      <stop
         style="stop-color:#03d7e4;stop-opacity:1"
         id="stop7-6"
         stop-color="#00f0ff"
         offset="0%" />
      <stop
         id="stop9-7"
         stop-color="#0070e0"
         offset="100%" />
    </radialGradient>
    <filter
       id="b"
       color-interpolation-filters="sRGB"
       height="1.024007"
       width="1.023993"
       x="-0.011996"
       y="-0.012004">
      <feGaussianBlur
         stdDeviation=".47521291"
         id="feGaussianBlur7" />
    </filter>
    <linearGradient
       id="k"
       gradientUnits="userSpaceOnUse"
       x1="-350.6571"
       x2="-376.36255"
       y1="-73.89106"
       y2="-319.05783">
      <stop
         offset="0"
         stop-color="#83a3d4"
         id="stop50" />
      <stop
         offset="1"
         stop-color="#6bb5e3"
         id="stop52" />
    </linearGradient>
    <linearGradient
       id="i"
       gradientUnits="userSpaceOnUse"
       x1="-206.76952"
       x2="10.51211"
       y1="-12.925184"
       y2="-156.88734">
      <stop
         offset="0"
         stop-color="#70c2bd"
         id="stop40" />
      <stop
         offset="1"
         stop-color="#67c381"
         id="stop42" />
    </linearGradient>
    <linearGradient
       id="e"
       gradientUnits="userSpaceOnUse"
       x1="134.56509"
       x2="148.51404"
       y1="117.30138"
       y2="-149.18999">
      <stop
         offset="0"
         stop-color="#faaa32"
         id="stop20" />
      <stop
         offset="1"
         stop-color="#fdc22b"
         id="stop22" />
    </linearGradient>
    <linearGradient
       id="c"
       gradientUnits="userSpaceOnUse"
       x1="-146.054"
       x2="123.35784"
       y1="144.89951"
       y2="144.89951">
      <stop
         offset="0"
         stop-color="#a0cf63"
         id="stop10" />
      <stop
         offset="1"
         stop-color="#c4da45"
         id="stop12" />
    </linearGradient>
    <linearGradient
       id="m"
       gradientUnits="userSpaceOnUse"
       x1="206.7137"
       x2="28.495264"
       y1="-12.740612"
       y2="-150.01163">
      <stop
         offset="0"
         stop-color="#b28cc0"
         id="stop60" />
      <stop
         offset="1"
         stop-color="#9a8ec4"
         id="stop62" />
    </linearGradient>
    <linearGradient
       id="q"
       gradientUnits="userSpaceOnUse"
       x1="189.94229"
       x2="-19.617525"
       y1="147.05296"
       y2="76.406288">
      <stop
         offset="0"
         stop-color="#f48155"
         id="stop80" />
      <stop
         offset="1"
         stop-color="#f16168"
         id="stop82" />
    </linearGradient>
    <linearGradient
       id="l"
       gradientUnits="userSpaceOnUse"
       x1="116.504"
       x2="21.156284"
       y1="308.30261"
       y2="34.179653">
      <stop
         offset="0"
         stop-color="#735194"
         id="stop55" />
      <stop
         offset="1"
         stop-color="#525da3"
         id="stop57" />
    </linearGradient>
    <linearGradient
       id="j"
       gradientUnits="userSpaceOnUse"
       x1="30.131145"
       x2="123.3283"
       y1="111.50156"
       y2="-107.16671">
      <stop
         offset="0"
         stop-color="#416db9"
         id="stop45" />
      <stop
         offset="1"
         stop-color="#337e8d"
         id="stop47" />
    </linearGradient>
    <linearGradient
       id="h"
       gradientUnits="userSpaceOnUse"
       x1="-103.67039"
       x2="205.55051"
       y1="133.12218"
       y2="0.071801998">
      <stop
         offset="0"
         stop-color="#2e9274"
         id="stop35" />
      <stop
         offset="1"
         stop-color="#469d3c"
         id="stop37" />
    </linearGradient>
    <linearGradient
       id="f"
       gradientUnits="userSpaceOnUse"
       x1="26.97802"
       x2="146.80986"
       y1="120.22743"
       y2="-100.48971">
      <stop
         offset="0"
         stop-color="#ec4001"
         id="stop25" />
      <stop
         offset="1"
         stop-color="#fb6f01"
         id="stop27" />
    </linearGradient>
    <linearGradient
       id="d"
       gradientUnits="userSpaceOnUse"
       x1="-14.298616"
       x2="309.397"
       y1="73.499695"
       y2="73.499695">
      <stop
         offset="0"
         stop-color="#58a920"
         id="stop15" />
      <stop
         offset="1"
         stop-color="#98b811"
         id="stop17" />
    </linearGradient>
    <linearGradient
       id="o"
       gradientUnits="userSpaceOnUse"
       x1="-123.11901"
       x2="145.987"
       y1="144.897"
       y2="144.897">
      <stop
         offset="0"
         stop-color="#d287af"
         id="stop70" />
      <stop
         offset="1"
         stop-color="#e07993"
         id="stop72" />
    </linearGradient>
    <linearGradient
       id="p"
       gradientUnits="userSpaceOnUse"
       x1="-205.78"
       x2="117.81888"
       y1="-71.695564"
       y2="-71.695564">
      <stop
         offset="0"
         stop-color="#bd090f"
         id="stop75" />
      <stop
         offset="1"
         stop-color="#e11f07"
         id="stop77" />
    </linearGradient>
    <linearGradient
       id="n"
       gradientUnits="userSpaceOnUse"
       x1="0.176406"
       x2="-308.72031"
       y1="-14.582834"
       y2="-143.7106">
      <stop
         offset="0"
         stop-color="#c23857"
         id="stop65" />
      <stop
         offset="1"
         stop-color="#914475"
         id="stop67" />
    </linearGradient>
    <linearGradient
       id="g"
       gradientUnits="userSpaceOnUse"
       x1="41.409683"
       x2="117.31723"
       y1="108.52529"
       y2="319.1076">
      <stop
         offset="0"
         stop-color="#e69e08"
         id="stop30" />
      <stop
         offset="1"
         stop-color="#cbc507"
         id="stop32" />
    </linearGradient>
    <rect
       id="path-1"
       x="0"
       y="0"
       width="120"
       height="120"
       rx="28" />
    <path
       d="M125 104c21.54 0 39-17.46 39-39s-17.46-39-39-39-39 17.46-39 39 17.46 39 39 39zm0 26c-35.899 0-65-29.101-65-65S89.101 0 125 0s65 29.101 65 65-29.101 65-65 65z"
       id="path-3" />
    <path
       id="path-4"
       d="M0 75l129 90.787v35L0 110z" />
    <path
       id="path-5"
       d="M22 65h27v120H22z" />
    <filter
       x="-5.6%"
       y="-1.2%"
       width="111.1%"
       height="102.5%"
       filterUnits="objectBoundingBox"
       id="filter-6">
      <feMorphology
         radius="0.5"
         operator="dilate"
         in="SourceAlpha"
         result="shadowSpreadOuter1"
         id="feMorphology12690" />
      <feOffset
         dx="0"
         dy="0"
         in="shadowSpreadOuter1"
         result="shadowOffsetOuter1"
         id="feOffset12692" />
      <feColorMatrix
         values="0 0 0 0 0 0 0 0 0 0 0 0 0 0 0 0 0 0 0.139945652 0"
         type="matrix"
         in="shadowOffsetOuter1"
         id="feColorMatrix12694" />
    </filter>
    <circle
       id="path-7"
       cx="21"
       cy="21"
       r="21" />
    <filter
       x="-16.7%"
       y="-11.9%"
       width="133.3%"
       height="133.3%"
       filterUnits="objectBoundingBox"
       id="filter-8">
      <feOffset
         dx="0"
         dy="2"
         in="SourceAlpha"
         result="shadowOffsetOuter1"
         id="feOffset12698" />
      <feGaussianBlur
         stdDeviation="2"
         in="shadowOffsetOuter1"
         result="shadowBlurOuter1"
         id="feGaussianBlur12700" />
      <feColorMatrix
         values="0 0 0 0 0 0 0 0 0 0 0 0 0 0 0 0 0 0 0.15197577 0"
         type="matrix"
         in="shadowBlurOuter1"
         id="feColorMatrix12702" />
    </filter>
    <path
       d="M40.74 1.31A21.591 21.591 0 0 1 45 14.2c0 12.155-10.074 22.01-22.5 22.01S0 26.354 0 14.2C0 9.385 1.58 4.932 4.26 1.31 6.447 2.922 9.553 3.928 13 3.928c3.866 0 7.305-1.267 9.5-3.234 2.195 1.967 5.634 3.234 9.5 3.234 3.446 0 6.552-1.006 8.74-2.618z"
       id="path-9" />
    <rect
       id="path-1-2"
       x="0"
       y="0"
       width="120"
       height="120"
       rx="28" />
    <linearGradient
       gradientUnits="userSpaceOnUse"
       y2="27.926708"
       x2="21.169323"
       y1="8.8553925"
       x1="9.2416649"
       id="linearGradient14855"
       xlink:href="#i"
       inkscape:collect="always" />
  </defs>
  <sodipodi:namedview
     inkscape:window-maximized="1"
     inkscape:window-y="0"
     inkscape:window-x="0"
     inkscape:window-height="995"
     inkscape:window-width="1920"
     units="px"
     showgrid="false"
     inkscape:current-layer="layer1"
     inkscape:document-units="mm"
     inkscape:cy="77.917625"
     inkscape:cx="59.412189"
     inkscape:zoom="3.5935387"
     inkscape:pageshadow="2"
     inkscape:pageopacity="0.0"
     borderopacity="1.0"
     bordercolor="#666666"
     pagecolor="#ffffff"
     id="base"
     inkscape:pagecheckerboard="0" />
  <g
     id="layer1"
     inkscape:groupmode="layer"
     inkscape:label="Layer 1">
    <g
       style="opacity:0.2967651"
       transform="matrix(0.97573206,0,0,0.97573206,-65.748383,-37.203094)"
       id="g1702">
      <path
         d="m 76.449369,40.709618 h 16.591166 c 3.661863,0 6.609861,2.947998 6.609861,6.609861 v 16.591166 c 0,3.661863 -2.947998,6.609861 -6.609861,6.609861 H 76.449369 c -3.661863,0 -6.609861,-2.947998 -6.609861,-6.609861 V 47.319479 c 0,-3.661863 2.947998,-6.609861 6.609861,-6.609861 z"
         style="fill:none;fill-opacity:1;stroke:#000000;stroke-width:0.1;stroke-linecap:round;stroke-linejoin:round;stroke-miterlimit:4;stroke-dasharray:none;stroke-opacity:0.02"
         id="rect1634" />
      <path
         d="m 76.449369,40.709618 h 16.591166 c 3.661863,0 6.609861,2.947998 6.609861,6.609861 v 16.591166 c 0,3.661863 -2.947998,6.609861 -6.609861,6.609861 H 76.449369 c -3.661863,0 -6.609861,-2.947998 -6.609861,-6.609861 V 47.319479 c 0,-3.661863 2.947998,-6.609861 6.609861,-6.609861 z"
         style="fill:none;fill-opacity:1;stroke:#000000;stroke-width:0.2;stroke-linecap:round;stroke-linejoin:round;stroke-miterlimit:4;stroke-dasharray:none;stroke-opacity:0.02"
         id="rect1638" />
      <path
         d="m 76.449369,40.709618 h 16.591166 c 3.661863,0 6.609861,2.947998 6.609861,6.609861 v 16.591166 c 0,3.661863 -2.947998,6.609861 -6.609861,6.609861 H 76.449369 c -3.661863,0 -6.609861,-2.947998 -6.609861,-6.609861 V 47.319479 c 0,-3.661863 2.947998,-6.609861 6.609861,-6.609861 z"
         style="fill:none;fill-opacity:1;stroke:#000000;stroke-width:0.3;stroke-linecap:round;stroke-linejoin:round;stroke-miterlimit:4;stroke-dasharray:none;stroke-opacity:0.02"
         id="rect1640" />
      <path
         d="m 76.449369,40.709618 h 16.591166 c 3.661863,0 6.609861,2.947998 6.609861,6.609861 v 16.591166 c 0,3.661863 -2.947998,6.609861 -6.609861,6.609861 H 76.449369 c -3.661863,0 -6.609861,-2.947998 -6.609861,-6.609861 V 47.319479 c 0,-3.661863 2.947998,-6.609861 6.609861,-6.609861 z"
         style="fill:none;fill-opacity:1;stroke:#000000;stroke-width:0.4;stroke-linecap:round;stroke-linejoin:round;stroke-miterlimit:4;stroke-dasharray:none;stroke-opacity:0.02"
         id="rect1642" />
      <path
         d="m 76.449369,40.709618 h 16.591166 c 3.661863,0 6.609861,2.947998 6.609861,6.609861 v 16.591166 c 0,3.661863 -2.947998,6.609861 -6.609861,6.609861 H 76.449369 c -3.661863,0 -6.609861,-2.947998 -6.609861,-6.609861 V 47.319479 c 0,-3.661863 2.947998,-6.609861 6.609861,-6.609861 z"
         style="fill:none;fill-opacity:1;stroke:#000000;stroke-width:0.5;stroke-linecap:round;stroke-linejoin:round;stroke-miterlimit:4;stroke-dasharray:none;stroke-opacity:0.02"
         id="rect1644" />
      <path
         d="m 76.449369,40.709618 h 16.591166 c 3.661863,0 6.609861,2.947998 6.609861,6.609861 v 16.591166 c 0,3.661863 -2.947998,6.609861 -6.609861,6.609861 H 76.449369 c -3.661863,0 -6.609861,-2.947998 -6.609861,-6.609861 V 47.319479 c 0,-3.661863 2.947998,-6.609861 6.609861,-6.609861 z"
         style="fill:none;fill-opacity:1;stroke:#000000;stroke-width:0.6;stroke-linecap:round;stroke-linejoin:round;stroke-miterlimit:4;stroke-dasharray:none;stroke-opacity:0.02"
         id="rect1646" />
      <path
         d="m 76.449369,40.709618 h 16.591166 c 3.661863,0 6.609861,2.947998 6.609861,6.609861 v 16.591166 c 0,3.661863 -2.947998,6.609861 -6.609861,6.609861 H 76.449369 c -3.661863,0 -6.609861,-2.947998 -6.609861,-6.609861 V 47.319479 c 0,-3.661863 2.947998,-6.609861 6.609861,-6.609861 z"
         style="fill:none;fill-opacity:1;stroke:#000000;stroke-width:0.7;stroke-linecap:round;stroke-linejoin:round;stroke-miterlimit:4;stroke-dasharray:none;stroke-opacity:0.02"
         id="rect1648" />
      <path
         d="m 76.449369,40.709618 h 16.591166 c 3.661863,0 6.609861,2.947998 6.609861,6.609861 v 16.591166 c 0,3.661863 -2.947998,6.609861 -6.609861,6.609861 H 76.449369 c -3.661863,0 -6.609861,-2.947998 -6.609861,-6.609861 V 47.319479 c 0,-3.661863 2.947998,-6.609861 6.609861,-6.609861 z"
         style="fill:none;fill-opacity:1;stroke:#000000;stroke-width:0.8;stroke-linecap:round;stroke-linejoin:round;stroke-miterlimit:4;stroke-dasharray:none;stroke-opacity:0.02"
         id="rect1650" />
      <path
         d="m 76.449369,40.709618 h 16.591166 c 3.661863,0 6.609861,2.947998 6.609861,6.609861 v 16.591166 c 0,3.661863 -2.947998,6.609861 -6.609861,6.609861 H 76.449369 c -3.661863,0 -6.609861,-2.947998 -6.609861,-6.609861 V 47.319479 c 0,-3.661863 2.947998,-6.609861 6.609861,-6.609861 z"
         style="fill:none;fill-opacity:1;stroke:#000000;stroke-width:1;stroke-linecap:round;stroke-linejoin:round;stroke-miterlimit:4;stroke-dasharray:none;stroke-opacity:0.02"
         id="rect1652" />
      <path
         d="m 76.449369,40.709618 h 16.591166 c 3.661863,0 6.609861,2.947998 6.609861,6.609861 v 16.591166 c 0,3.661863 -2.947998,6.609861 -6.609861,6.609861 H 76.449369 c -3.661863,0 -6.609861,-2.947998 -6.609861,-6.609861 V 47.319479 c 0,-3.661863 2.947998,-6.609861 6.609861,-6.609861 z"
         style="fill:none;fill-opacity:1;stroke:#000000;stroke-width:1.2;stroke-linecap:round;stroke-linejoin:round;stroke-miterlimit:4;stroke-dasharray:none;stroke-opacity:0.02"
         id="rect1654" />
      <path
         d="m 76.449369,40.709618 h 16.591166 c 3.661863,0 6.609861,2.947998 6.609861,6.609861 v 16.591166 c 0,3.661863 -2.947998,6.609861 -6.609861,6.609861 H 76.449369 c -3.661863,0 -6.609861,-2.947998 -6.609861,-6.609861 V 47.319479 c 0,-3.661863 2.947998,-6.609861 6.609861,-6.609861 z"
         style="fill:none;fill-opacity:1;stroke:#000000;stroke-width:1.4;stroke-linecap:round;stroke-linejoin:round;stroke-miterlimit:4;stroke-dasharray:none;stroke-opacity:0.02"
         id="rect1656" />
      <path
         d="m 76.449369,40.709618 h 16.591166 c 3.661863,0 6.609861,2.947998 6.609861,6.609861 v 16.591166 c 0,3.661863 -2.947998,6.609861 -6.609861,6.609861 H 76.449369 c -3.661863,0 -6.609861,-2.947998 -6.609861,-6.609861 V 47.319479 c 0,-3.661863 2.947998,-6.609861 6.609861,-6.609861 z"
         style="fill:none;fill-opacity:1;stroke:#000000;stroke-width:1.6;stroke-linecap:round;stroke-linejoin:round;stroke-miterlimit:4;stroke-dasharray:none;stroke-opacity:0.02"
         id="rect1658" />
      <path
         d="m 76.449369,40.709618 h 16.591166 c 3.661863,0 6.609861,2.947998 6.609861,6.609861 v 16.591166 c 0,3.661863 -2.947998,6.609861 -6.609861,6.609861 H 76.449369 c -3.661863,0 -6.609861,-2.947998 -6.609861,-6.609861 V 47.319479 c 0,-3.661863 2.947998,-6.609861 6.609861,-6.609861 z"
         style="fill:none;fill-opacity:1;stroke:#000000;stroke-width:1.8;stroke-linecap:round;stroke-linejoin:round;stroke-miterlimit:4;stroke-dasharray:none;stroke-opacity:0.02"
         id="rect1660" />
      <path
         d="m 76.449369,40.709618 h 16.591166 c 3.661863,0 6.609861,2.947998 6.609861,6.609861 v 16.591166 c 0,3.661863 -2.947998,6.609861 -6.609861,6.609861 H 76.449369 c -3.661863,0 -6.609861,-2.947998 -6.609861,-6.609861 V 47.319479 c 0,-3.661863 2.947998,-6.609861 6.609861,-6.609861 z"
         style="fill:none;fill-opacity:1;stroke:#000000;stroke-width:2;stroke-linecap:round;stroke-linejoin:round;stroke-miterlimit:4;stroke-dasharray:none;stroke-opacity:0.02"
         id="rect1662" />
      <path
         d="m 76.449369,40.709618 h 16.591166 c 3.661863,0 6.609861,2.947998 6.609861,6.609861 v 16.591166 c 0,3.661863 -2.947998,6.609861 -6.609861,6.609861 H 76.449369 c -3.661863,0 -6.609861,-2.947998 -6.609861,-6.609861 V 47.319479 c 0,-3.661863 2.947998,-6.609861 6.609861,-6.609861 z"
         style="fill:none;fill-opacity:1;stroke:#000000;stroke-width:2.2;stroke-linecap:round;stroke-linejoin:round;stroke-miterlimit:4;stroke-dasharray:none;stroke-opacity:0.02"
         id="rect1664" />
      <path
         d="m 76.449369,40.709618 h 16.591166 c 3.661863,0 6.609861,2.947998 6.609861,6.609861 v 16.591166 c 0,3.661863 -2.947998,6.609861 -6.609861,6.609861 H 76.449369 c -3.661863,0 -6.609861,-2.947998 -6.609861,-6.609861 V 47.319479 c 0,-3.661863 2.947998,-6.609861 6.609861,-6.609861 z"
         style="fill:none;fill-opacity:1;stroke:#000000;stroke-width:2.6;stroke-linecap:round;stroke-linejoin:round;stroke-miterlimit:4;stroke-dasharray:none;stroke-opacity:0.02"
         id="rect1666" />
      <path
         d="m 76.449369,40.709618 h 16.591166 c 3.661863,0 6.609861,2.947998 6.609861,6.609861 v 16.591166 c 0,3.661863 -2.947998,6.609861 -6.609861,6.609861 H 76.449369 c -3.661863,0 -6.609861,-2.947998 -6.609861,-6.609861 V 47.319479 c 0,-3.661863 2.947998,-6.609861 6.609861,-6.609861 z"
         style="fill:none;fill-opacity:1;stroke:#000000;stroke-width:3;stroke-linecap:round;stroke-linejoin:round;stroke-miterlimit:4;stroke-dasharray:none;stroke-opacity:0.02"
         id="rect1668" />
      <path
         d="m 76.449369,40.709618 h 16.591166 c 3.661863,0 6.609861,2.947998 6.609861,6.609861 v 16.591166 c 0,3.661863 -2.947998,6.609861 -6.609861,6.609861 H 76.449369 c -3.661863,0 -6.609861,-2.947998 -6.609861,-6.609861 V 47.319479 c 0,-3.661863 2.947998,-6.609861 6.609861,-6.609861 z"
         style="fill:none;fill-opacity:1;stroke:#000000;stroke-width:3.4;stroke-linecap:round;stroke-linejoin:round;stroke-miterlimit:4;stroke-dasharray:none;stroke-opacity:0.02"
         id="rect1670" />
      <path
         d="m 76.449369,40.709618 h 16.591166 c 3.661863,0 6.609861,2.947998 6.609861,6.609861 v 16.591166 c 0,3.661863 -2.947998,6.609861 -6.609861,6.609861 H 76.449369 c -3.661863,0 -6.609861,-2.947998 -6.609861,-6.609861 V 47.319479 c 0,-3.661863 2.947998,-6.609861 6.609861,-6.609861 z"
         style="fill:none;fill-opacity:1;stroke:#000000;stroke-width:3.8;stroke-linecap:round;stroke-linejoin:round;stroke-miterlimit:4;stroke-dasharray:none;stroke-opacity:0.02"
         id="rect1672" />
      <path
         d="m 76.449369,40.709618 h 16.591166 c 3.661863,0 6.609861,2.947998 6.609861,6.609861 v 16.591166 c 0,3.661863 -2.947998,6.609861 -6.609861,6.609861 H 76.449369 c -3.661863,0 -6.609861,-2.947998 -6.609861,-6.609861 V 47.319479 c 0,-3.661863 2.947998,-6.609861 6.609861,-6.609861 z"
         style="fill:none;fill-opacity:1;stroke:#000000;stroke-width:4.2;stroke-linecap:round;stroke-linejoin:round;stroke-miterlimit:4;stroke-dasharray:none;stroke-opacity:0.02"
         id="rect1674" />
      <path
         d="m 76.449369,40.709618 h 16.591166 c 3.661863,0 6.609861,2.947998 6.609861,6.609861 v 16.591166 c 0,3.661863 -2.947998,6.609861 -6.609861,6.609861 H 76.449369 c -3.661863,0 -6.609861,-2.947998 -6.609861,-6.609861 V 47.319479 c 0,-3.661863 2.947998,-6.609861 6.609861,-6.609861 z"
         style="fill:none;fill-opacity:1;stroke:#000000;stroke-width:4.6;stroke-linecap:round;stroke-linejoin:round;stroke-miterlimit:4;stroke-dasharray:none;stroke-opacity:0.02"
         id="rect1676" />
      <path
         d="m 76.449369,40.709618 h 16.591166 c 3.661863,0 6.609861,2.947998 6.609861,6.609861 v 16.591166 c 0,3.661863 -2.947998,6.609861 -6.609861,6.609861 H 76.449369 c -3.661863,0 -6.609861,-2.947998 -6.609861,-6.609861 V 47.319479 c 0,-3.661863 2.947998,-6.609861 6.609861,-6.609861 z"
         style="fill:none;fill-opacity:1;stroke:#000000;stroke-width:5;stroke-linecap:round;stroke-linejoin:round;stroke-miterlimit:4;stroke-dasharray:none;stroke-opacity:0.02"
         id="rect1678" />
    </g>
    <rect
       ry="6.4494534"
       rx="6.4494534"
       y="2.5185876"
       x="2.4065466"
       height="29.087439"
       width="29.087439"
       id="rect849"
       style="fill:url(#linearGradient14855);fill-opacity:1;stroke-width:2.68768;stroke-linecap:round;stroke-linejoin:round" />
    <path
       style="color:#000000;fill:none;stroke-width:0.6"
       d="m 63.366089,-13.641431 -7.522293,-7.600555"
       id="path6697" />
    <path
       style="color:#000000;fill:none;stroke-width:0.7"
       d="m 41.242367,-29.283552 8.855577,8.832529 c 1.749841,1.578263 2.915695,1.69766 4.709005,0.100743 l 11.968714,-11.16793"
       id="path6691" />
    <g
       transform="scale(0.26458333)"
       id="g13037" />
    <path
       id="path4"
       style="fill:#f4ffff;stroke-width:1.34545;fill-opacity:1"
       d="M 61.5 23.59375 A 39.017979 39.017979 0 0 0 22.480469 62.613281 A 39.017979 39.017979 0 0 0 61.5 101.63086 L 96.615234 101.63086 C 98.776833 101.63086 100.51758 99.890114 100.51758 97.728516 L 100.51758 62.613281 A 39.017979 39.017979 0 0 0 61.5 23.59375 z M 61.550781 34.453125 C 62.103573 34.447744 62.657666 34.460278 63.210938 34.488281 L 63.210938 34.480469 C 66.161732 34.62996 69.104997 35.253113 71.929688 36.371094 L 68.650391 38.873047 C 59.24309 36.095079 48.736098 39.257287 42.527344 47.611328 C 40.934057 49.755454 39.797074 52.080956 39.011719 54.480469 L 50.466797 52.791016 L 44.839844 57.103516 L 38.087891 58.09375 L 34.53125 58.619141 C 35.095632 54.041955 36.800218 49.538142 39.757812 45.556641 C 45.109797 38.358855 53.258911 34.533835 61.550781 34.453125 z M 77.28125 39.765625 C 81.146845 42.285697 84.445355 45.801907 86.722656 50.210938 C 92.065778 60.555625 90.21535 72.615318 83.029297 80.869141 L 89.746094 88.648438 L 87.074219 90.960938 L 78.367188 80.878906 C 78.425543 80.824368 78.483189 80.763485 78.541016 80.708984 L 78.525391 80.597656 C 86.374203 73.433301 88.772931 61.708097 83.652344 51.794922 C 82.426503 49.421405 80.841519 47.378099 79.03125 45.619141 L 75.433594 56.908203 L 74.386719 48.861328 L 76.1875 43.201172 L 77.28125 39.777344 L 77.28125 39.765625 z M 34.03125 66.71875 L 37.800781 68.291016 C 40.014606 78.149055 48.288678 85.896795 58.919922 86.947266 C 61.578075 87.210192 64.161569 86.986867 66.623047 86.425781 L 58.953125 77.089844 L 65.716797 79.896484 L 70.199219 85.359375 L 70.210938 85.359375 L 72.490234 88.136719 C 68.272962 90.008677 63.518054 90.85942 58.580078 90.371094 C 45.601131 89.087468 35.699386 79.080923 34.03125 66.71875 z "
       transform="scale(0.26458333)" />
  </g>
</svg>
