<?xml version="1.0" encoding="UTF-8" standalone="no"?>
<svg
   xmlns:dc="http://purl.org/dc/elements/1.1/"
   xmlns:cc="http://creativecommons.org/ns#"
   xmlns:rdf="http://www.w3.org/1999/02/22-rdf-syntax-ns#"
   xmlns:svg="http://www.w3.org/2000/svg"
   xmlns="http://www.w3.org/2000/svg"
   xmlns:xlink="http://www.w3.org/1999/xlink"
   xmlns:sodipodi="http://sodipodi.sourceforge.net/DTD/sodipodi-0.dtd"
   xmlns:inkscape="http://www.inkscape.org/namespaces/inkscape"
   inkscape:version="0.92.5 (2060ec1f9f, 2020-04-08)"
   sodipodi:docname="quickusbformatter.svg"
   id="svg6"
   version="1.1"
   viewBox="0 0 33.866666 33.866667"
   height="128"
   width="128">
  <metadata
     id="metadata102">
    <rdf:RDF>
      <cc:Work
         rdf:about="">
        <dc:format>image/svg+xml</dc:format>
        <dc:type
           rdf:resource="http://purl.org/dc/dcmitype/StillImage" />
        <dc:title></dc:title>
      </cc:Work>
    </rdf:RDF>
  </metadata>
  <defs
     id="defs2">
    <linearGradient
       inkscape:collect="always"
       id="linearGradient1206">
      <stop
         style="stop-color:#f26530;stop-opacity:1"
         offset="0"
         id="stop1202" />
      <stop
         style="stop-color:#f8b654;stop-opacity:1"
         offset="1"
         id="stop1204" />
    </linearGradient>
    <linearGradient
       inkscape:collect="always"
       id="linearGradient1010">
      <stop
         style="stop-color:#646464;stop-opacity:1"
         offset="0"
         id="stop1006" />
      <stop
         style="stop-color:#c9c9c9;stop-opacity:0.92941177"
         offset="1"
         id="stop1008" />
    </linearGradient>
    <linearGradient
       inkscape:collect="always"
       id="linearGradient990">
      <stop
         style="stop-color:#9becbc;stop-opacity:1"
         offset="0"
         id="stop986" />
      <stop
         id="stop994"
         offset="0.8727259"
         style="stop-color:#4ebc87;stop-opacity:0.98431373" />
      <stop
         style="stop-color:#328b5f;stop-opacity:0.98369563"
         offset="1"
         id="stop988" />
    </linearGradient>
    <linearGradient
       inkscape:collect="always"
       id="linearGradient975">
      <stop
         style="stop-color:#dce2e4;stop-opacity:1"
         offset="0"
         id="stop971" />
      <stop
         style="stop-color:#acaeae;stop-opacity:1"
         offset="1"
         id="stop973" />
    </linearGradient>
    <linearGradient
       inkscape:collect="always"
       id="linearGradient949">
      <stop
         style="stop-color:#bac0c3;stop-opacity:1"
         offset="0"
         id="stop945" />
      <stop
         id="stop959"
         offset="0.13492267"
         style="stop-color:#eaeced;stop-opacity:1" />
      <stop
         id="stop957"
         offset="0.25187299"
         style="stop-color:#d1d6d8;stop-opacity:1" />
      <stop
         id="stop955"
         offset="0.78464675"
         style="stop-color:#c8cbcb;stop-opacity:1" />
      <stop
         id="stop953"
         offset="0.91134298"
         style="stop-color:#d2d7da;stop-opacity:1" />
      <stop
         style="stop-color:#afb5b8;stop-opacity:1"
         offset="1"
         id="stop947" />
    </linearGradient>
    <linearGradient
       id="lgrad"
       x1="32"
       y1="32"
       x2="32"
       y2="992"
       gradientUnits="userSpaceOnUse"
       gradientTransform="translate(0,-896)">
      <stop
         offset="0%"
         stop-color="#f8f8f8"
         id="stop2" />
      <stop
         offset="100%"
         stop-color="#ccc"
         id="stop4" />
    </linearGradient>
    <radialGradient
       id="rgrad"
       x1="0%"
       y1="0%"
       x2="0%"
       y2="100%"
       fx="512"
       fy="494.39999"
       cx="512"
       cy="512"
       r="440"
       gradientUnits="userSpaceOnUse"
       gradientTransform="translate(0,-896)">
      <stop
         offset="0%"
         stop-color="#00f0ff"
         id="stop7" />
      <stop
         offset="100%"
         stop-color="#0070e0"
         id="stop9" />
    </radialGradient>
    <radialGradient
       gradientTransform="matrix(0.03099337,0,0,0.03032562,85.198869,42.985295)"
       gradientUnits="userSpaceOnUse"
       r="440"
       cy="306.1813"
       cx="523.57568"
       fy="306.1813"
       fx="523.57568"
       y2="100%"
       x2="0%"
       y1="0%"
       x1="0%"
       id="rgrad-3">
      <stop
         style="stop-color:#03d7e4;stop-opacity:1"
         id="stop7-6"
         stop-color="#00f0ff"
         offset="0%" />
      <stop
         id="stop9-7"
         stop-color="#0070e0"
         offset="100%" />
    </radialGradient>
    <filter
       id="b"
       color-interpolation-filters="sRGB"
       height="1.024007"
       width="1.023993"
       x="-0.011996"
       y="-0.012004">
      <feGaussianBlur
         stdDeviation=".47521291"
         id="feGaussianBlur7" />
    </filter>
    <linearGradient
       id="k"
       gradientUnits="userSpaceOnUse"
       x1="-350.6571"
       x2="-376.36255"
       y1="-73.89106"
       y2="-319.05783">
      <stop
         offset="0"
         stop-color="#83a3d4"
         id="stop50" />
      <stop
         offset="1"
         stop-color="#6bb5e3"
         id="stop52" />
    </linearGradient>
    <linearGradient
       id="i"
       gradientUnits="userSpaceOnUse"
       x1="-206.76952"
       x2="10.51211"
       y1="-12.925184"
       y2="-156.88734">
      <stop
         offset="0"
         stop-color="#70c2bd"
         id="stop40" />
      <stop
         offset="1"
         stop-color="#67c381"
         id="stop42" />
    </linearGradient>
    <linearGradient
       id="e"
       gradientUnits="userSpaceOnUse"
       x1="134.56509"
       x2="148.51404"
       y1="117.30138"
       y2="-149.18999">
      <stop
         offset="0"
         stop-color="#faaa32"
         id="stop20" />
      <stop
         offset="1"
         stop-color="#fdc22b"
         id="stop22" />
    </linearGradient>
    <linearGradient
       id="c"
       gradientUnits="userSpaceOnUse"
       x1="-146.054"
       x2="123.35784"
       y1="144.89951"
       y2="144.89951">
      <stop
         offset="0"
         stop-color="#a0cf63"
         id="stop10" />
      <stop
         offset="1"
         stop-color="#c4da45"
         id="stop12" />
    </linearGradient>
    <linearGradient
       id="m"
       gradientUnits="userSpaceOnUse"
       x1="206.7137"
       x2="28.495264"
       y1="-12.740612"
       y2="-150.01163">
      <stop
         offset="0"
         stop-color="#b28cc0"
         id="stop60" />
      <stop
         offset="1"
         stop-color="#9a8ec4"
         id="stop62" />
    </linearGradient>
    <linearGradient
       id="q"
       gradientUnits="userSpaceOnUse"
       x1="189.94229"
       x2="-19.617525"
       y1="147.05296"
       y2="76.406288">
      <stop
         offset="0"
         stop-color="#f48155"
         id="stop80" />
      <stop
         offset="1"
         stop-color="#f16168"
         id="stop82" />
    </linearGradient>
    <linearGradient
       id="l"
       gradientUnits="userSpaceOnUse"
       x1="116.504"
       x2="21.156284"
       y1="308.30261"
       y2="34.179653">
      <stop
         offset="0"
         stop-color="#735194"
         id="stop55" />
      <stop
         offset="1"
         stop-color="#525da3"
         id="stop57" />
    </linearGradient>
    <linearGradient
       id="j"
       gradientUnits="userSpaceOnUse"
       x1="30.131145"
       x2="123.3283"
       y1="111.50156"
       y2="-107.16671">
      <stop
         offset="0"
         stop-color="#416db9"
         id="stop45" />
      <stop
         offset="1"
         stop-color="#337e8d"
         id="stop47" />
    </linearGradient>
    <linearGradient
       id="h"
       gradientUnits="userSpaceOnUse"
       x1="-103.67039"
       x2="205.55051"
       y1="133.12218"
       y2="0.071801998">
      <stop
         offset="0"
         stop-color="#2e9274"
         id="stop35" />
      <stop
         offset="1"
         stop-color="#469d3c"
         id="stop37" />
    </linearGradient>
    <linearGradient
       id="f"
       gradientUnits="userSpaceOnUse"
       x1="26.97802"
       x2="146.80986"
       y1="120.22743"
       y2="-100.48971">
      <stop
         offset="0"
         stop-color="#ec4001"
         id="stop25" />
      <stop
         offset="1"
         stop-color="#fb6f01"
         id="stop27" />
    </linearGradient>
    <linearGradient
       id="d"
       gradientUnits="userSpaceOnUse"
       x1="-14.298616"
       x2="309.397"
       y1="73.499695"
       y2="73.499695">
      <stop
         offset="0"
         stop-color="#58a920"
         id="stop15" />
      <stop
         offset="1"
         stop-color="#98b811"
         id="stop17" />
    </linearGradient>
    <linearGradient
       id="o"
       gradientUnits="userSpaceOnUse"
       x1="-123.11901"
       x2="145.987"
       y1="144.897"
       y2="144.897">
      <stop
         offset="0"
         stop-color="#d287af"
         id="stop70" />
      <stop
         offset="1"
         stop-color="#e07993"
         id="stop72" />
    </linearGradient>
    <linearGradient
       id="p"
       gradientUnits="userSpaceOnUse"
       x1="-205.78"
       x2="117.81888"
       y1="-71.695564"
       y2="-71.695564">
      <stop
         offset="0"
         stop-color="#bd090f"
         id="stop75" />
      <stop
         offset="1"
         stop-color="#e11f07"
         id="stop77" />
    </linearGradient>
    <linearGradient
       id="n"
       gradientUnits="userSpaceOnUse"
       x1="0.176406"
       x2="-308.72031"
       y1="-14.582834"
       y2="-143.7106">
      <stop
         offset="0"
         stop-color="#c23857"
         id="stop65" />
      <stop
         offset="1"
         stop-color="#914475"
         id="stop67" />
    </linearGradient>
    <linearGradient
       id="g"
       gradientUnits="userSpaceOnUse"
       x1="41.409683"
       x2="117.31723"
       y1="108.52529"
       y2="319.1076">
      <stop
         offset="0"
         stop-color="#e69e08"
         id="stop30" />
      <stop
         offset="1"
         stop-color="#cbc507"
         id="stop32" />
    </linearGradient>
    <linearGradient
       inkscape:collect="always"
       xlink:href="#linearGradient949"
       id="linearGradient951"
       x1="2.4065466"
       y1="17.062307"
       x2="31.493985"
       y2="17.062307"
       gradientUnits="userSpaceOnUse" />
    <linearGradient
       inkscape:collect="always"
       xlink:href="#linearGradient975"
       id="linearGradient977"
       x1="6.2808027"
       y1="5.4867864"
       x2="25.549223"
       y2="24.755207"
       gradientUnits="userSpaceOnUse" />
    <radialGradient
       inkscape:collect="always"
       xlink:href="#linearGradient990"
       id="radialGradient992"
       cx="24.54483"
       cy="29.496315"
       fx="24.54483"
       fy="29.496315"
       r="1.2992932"
       gradientUnits="userSpaceOnUse"
       gradientTransform="translate(0.02505684,-0.00835228)" />
    <linearGradient
       inkscape:collect="always"
       xlink:href="#linearGradient1010"
       id="linearGradient1012"
       x1="27.755539"
       y1="23.968704"
       x2="27.755539"
       y2="22.331678"
       gradientUnits="userSpaceOnUse" />
    <linearGradient
       inkscape:collect="always"
       xlink:href="#linearGradient1010"
       id="linearGradient1063"
       gradientUnits="userSpaceOnUse"
       x1="27.755539"
       y1="23.968704"
       x2="27.755539"
       y2="22.331678" />
    <linearGradient
       inkscape:collect="always"
       xlink:href="#linearGradient1010"
       id="linearGradient1065"
       gradientUnits="userSpaceOnUse"
       x1="27.755539"
       y1="23.968704"
       x2="27.755539"
       y2="22.331678" />
    <linearGradient
       inkscape:collect="always"
       xlink:href="#linearGradient1010"
       id="linearGradient1200"
       gradientUnits="userSpaceOnUse"
       x1="27.755539"
       y1="23.968704"
       x2="27.755539"
       y2="22.331678" />
    <linearGradient
       inkscape:collect="always"
       xlink:href="#linearGradient1206"
       id="linearGradient1208"
       x1="18.431149"
       y1="22.99913"
       x2="18.431149"
       y2="5.6266117"
       gradientUnits="userSpaceOnUse" />
    <linearGradient
       inkscape:collect="always"
       xlink:href="#linearGradient1156"
       id="linearGradient1158"
       x1="7.3316803"
       y1="23.357281"
       x2="7.3316803"
       y2="28.435402"
       gradientUnits="userSpaceOnUse"
       gradientTransform="translate(1.750195,-1.6798553)" />
    <linearGradient
       inkscape:collect="always"
       id="linearGradient1156">
      <stop
         style="stop-color:#ffffff;stop-opacity:1;"
         offset="0"
         id="stop1152" />
      <stop
         style="stop-color:#fcecd0;stop-opacity:1"
         offset="1"
         id="stop1154" />
    </linearGradient>
    <radialGradient
       inkscape:collect="always"
       xlink:href="#linearGradient1119"
       id="radialGradient1121"
       cx="-5.646019"
       cy="27.559189"
       fx="-5.646019"
       fy="27.559189"
       r="9.3785343"
       gradientUnits="userSpaceOnUse"
       gradientTransform="matrix(0.95465995,0,0,0.95465995,-0.77570809,2.9031809)" />
    <linearGradient
       inkscape:collect="always"
       id="linearGradient1119">
      <stop
         style="stop-color:#000000;stop-opacity:1;"
         offset="0"
         id="stop1115" />
      <stop
         id="stop1123"
         offset="0.59193951"
         style="stop-color:#000000;stop-opacity:0.83529412;" />
      <stop
         style="stop-color:#000000;stop-opacity:0.60784314;"
         offset="0.7380352"
         id="stop1125" />
      <stop
         id="stop1131"
         offset="0.8035264"
         style="stop-color:#000000;stop-opacity:0.50196078;" />
      <stop
         style="stop-color:#000000;stop-opacity:0.20784314;"
         offset="0.92947096"
         id="stop1129" />
      <stop
         style="stop-color:#000000;stop-opacity:0;"
         offset="1"
         id="stop1117" />
    </linearGradient>
    <linearGradient
       inkscape:collect="always"
       xlink:href="#linearGradient1105"
       id="linearGradient1107"
       x1="-5.6024752"
       y1="21.923889"
       x2="-5.6024752"
       y2="36.617714"
       gradientUnits="userSpaceOnUse" />
    <linearGradient
       inkscape:collect="always"
       id="linearGradient1105">
      <stop
         style="stop-color:#e78d0a;stop-opacity:1"
         offset="0"
         id="stop1101" />
      <stop
         style="stop-color:#fab219;stop-opacity:1"
         offset="1"
         id="stop1103" />
    </linearGradient>
    <linearGradient
       inkscape:collect="always"
       xlink:href="#linearGradient1097"
       id="linearGradient1099"
       x1="-6.4529214"
       y1="23.435795"
       x2="-6.4529214"
       y2="35.861763"
       gradientUnits="userSpaceOnUse" />
    <linearGradient
       inkscape:collect="always"
       id="linearGradient1097">
      <stop
         style="stop-color:#fab219;stop-opacity:1;"
         offset="0"
         id="stop1093" />
      <stop
         style="stop-color:#e78d0a;stop-opacity:1"
         offset="1"
         id="stop1095" />
    </linearGradient>
    <linearGradient
       inkscape:collect="always"
       xlink:href="#linearGradient1010"
       id="linearGradient1023"
       gradientUnits="userSpaceOnUse"
       x1="27.755539"
       y1="23.968704"
       x2="27.755539"
       y2="22.331678" />
  </defs>
  <sodipodi:namedview
     inkscape:window-maximized="1"
     inkscape:window-y="30"
     inkscape:window-x="0"
     inkscape:window-height="1019"
     inkscape:window-width="1920"
     units="px"
     showgrid="false"
     inkscape:current-layer="layer1"
     inkscape:document-units="mm"
     inkscape:cy="23.407139"
     inkscape:cx="-22.497888"
     inkscape:zoom="1.4"
     inkscape:pageshadow="2"
     inkscape:pageopacity="0.0"
     borderopacity="1.0"
     bordercolor="#666666"
     pagecolor="#ffffff"
     id="base" />
  <g
     id="layer1"
     inkscape:groupmode="layer"
     inkscape:label="Layer 1">
    <g
       style="opacity:0.2967651"
       transform="matrix(0.97573206,0,0,0.97573206,-65.748383,-37.203094)"
       id="g1702">
      <rect
         ry="6.6098609"
         rx="6.6098609"
         y="40.709618"
         x="69.839508"
         height="29.810888"
         width="29.810888"
         id="rect1634"
         style="fill:none;fill-opacity:1;stroke:#000000;stroke-width:0.1;stroke-linecap:round;stroke-linejoin:round;stroke-miterlimit:4;stroke-dasharray:none;stroke-opacity:0.02" />
      <rect
         style="fill:none;fill-opacity:1;stroke:#000000;stroke-width:0.2;stroke-linecap:round;stroke-linejoin:round;stroke-miterlimit:4;stroke-dasharray:none;stroke-opacity:0.02"
         id="rect1638"
         width="29.810888"
         height="29.810888"
         x="69.839508"
         y="40.709618"
         rx="6.6098609"
         ry="6.6098609" />
      <rect
         ry="6.6098609"
         rx="6.6098609"
         y="40.709618"
         x="69.839508"
         height="29.810888"
         width="29.810888"
         id="rect1640"
         style="fill:none;fill-opacity:1;stroke:#000000;stroke-width:0.3;stroke-linecap:round;stroke-linejoin:round;stroke-miterlimit:4;stroke-dasharray:none;stroke-opacity:0.02" />
      <rect
         style="fill:none;fill-opacity:1;stroke:#000000;stroke-width:0.4;stroke-linecap:round;stroke-linejoin:round;stroke-miterlimit:4;stroke-dasharray:none;stroke-opacity:0.02"
         id="rect1642"
         width="29.810888"
         height="29.810888"
         x="69.839508"
         y="40.709618"
         rx="6.6098609"
         ry="6.6098609" />
      <rect
         ry="6.6098609"
         rx="6.6098609"
         y="40.709618"
         x="69.839508"
         height="29.810888"
         width="29.810888"
         id="rect1644"
         style="fill:none;fill-opacity:1;stroke:#000000;stroke-width:0.5;stroke-linecap:round;stroke-linejoin:round;stroke-miterlimit:4;stroke-dasharray:none;stroke-opacity:0.02" />
      <rect
         style="fill:none;fill-opacity:1;stroke:#000000;stroke-width:0.6;stroke-linecap:round;stroke-linejoin:round;stroke-miterlimit:4;stroke-dasharray:none;stroke-opacity:0.02"
         id="rect1646"
         width="29.810888"
         height="29.810888"
         x="69.839508"
         y="40.709618"
         rx="6.6098609"
         ry="6.6098609" />
      <rect
         ry="6.6098609"
         rx="6.6098609"
         y="40.709618"
         x="69.839508"
         height="29.810888"
         width="29.810888"
         id="rect1648"
         style="fill:none;fill-opacity:1;stroke:#000000;stroke-width:0.7;stroke-linecap:round;stroke-linejoin:round;stroke-miterlimit:4;stroke-dasharray:none;stroke-opacity:0.02" />
      <rect
         style="fill:none;fill-opacity:1;stroke:#000000;stroke-width:0.8;stroke-linecap:round;stroke-linejoin:round;stroke-miterlimit:4;stroke-dasharray:none;stroke-opacity:0.02"
         id="rect1650"
         width="29.810888"
         height="29.810888"
         x="69.839508"
         y="40.709618"
         rx="6.6098609"
         ry="6.6098609" />
      <rect
         ry="6.6098609"
         rx="6.6098609"
         y="40.709618"
         x="69.839508"
         height="29.810888"
         width="29.810888"
         id="rect1652"
         style="fill:none;fill-opacity:1;stroke:#000000;stroke-width:1;stroke-linecap:round;stroke-linejoin:round;stroke-miterlimit:4;stroke-dasharray:none;stroke-opacity:0.02" />
      <rect
         style="fill:none;fill-opacity:1;stroke:#000000;stroke-width:1.2;stroke-linecap:round;stroke-linejoin:round;stroke-miterlimit:4;stroke-dasharray:none;stroke-opacity:0.02"
         id="rect1654"
         width="29.810888"
         height="29.810888"
         x="69.839508"
         y="40.709618"
         rx="6.6098609"
         ry="6.6098609" />
      <rect
         ry="6.6098609"
         rx="6.6098609"
         y="40.709618"
         x="69.839508"
         height="29.810888"
         width="29.810888"
         id="rect1656"
         style="fill:none;fill-opacity:1;stroke:#000000;stroke-width:1.4;stroke-linecap:round;stroke-linejoin:round;stroke-miterlimit:4;stroke-dasharray:none;stroke-opacity:0.02" />
      <rect
         style="fill:none;fill-opacity:1;stroke:#000000;stroke-width:1.6;stroke-linecap:round;stroke-linejoin:round;stroke-miterlimit:4;stroke-dasharray:none;stroke-opacity:0.02"
         id="rect1658"
         width="29.810888"
         height="29.810888"
         x="69.839508"
         y="40.709618"
         rx="6.6098609"
         ry="6.6098609" />
      <rect
         ry="6.6098609"
         rx="6.6098609"
         y="40.709618"
         x="69.839508"
         height="29.810888"
         width="29.810888"
         id="rect1660"
         style="fill:none;fill-opacity:1;stroke:#000000;stroke-width:1.8;stroke-linecap:round;stroke-linejoin:round;stroke-miterlimit:4;stroke-dasharray:none;stroke-opacity:0.02" />
      <rect
         style="fill:none;fill-opacity:1;stroke:#000000;stroke-width:2;stroke-linecap:round;stroke-linejoin:round;stroke-miterlimit:4;stroke-dasharray:none;stroke-opacity:0.02"
         id="rect1662"
         width="29.810888"
         height="29.810888"
         x="69.839508"
         y="40.709618"
         rx="6.6098609"
         ry="6.6098609" />
      <rect
         ry="6.6098609"
         rx="6.6098609"
         y="40.709618"
         x="69.839508"
         height="29.810888"
         width="29.810888"
         id="rect1664"
         style="fill:none;fill-opacity:1;stroke:#000000;stroke-width:2.2;stroke-linecap:round;stroke-linejoin:round;stroke-miterlimit:4;stroke-dasharray:none;stroke-opacity:0.02" />
      <rect
         style="fill:none;fill-opacity:1;stroke:#000000;stroke-width:2.6;stroke-linecap:round;stroke-linejoin:round;stroke-miterlimit:4;stroke-dasharray:none;stroke-opacity:0.02"
         id="rect1666"
         width="29.810888"
         height="29.810888"
         x="69.839508"
         y="40.709618"
         rx="6.6098609"
         ry="6.6098609" />
      <rect
         ry="6.6098609"
         rx="6.6098609"
         y="40.709618"
         x="69.839508"
         height="29.810888"
         width="29.810888"
         id="rect1668"
         style="fill:none;fill-opacity:1;stroke:#000000;stroke-width:3;stroke-linecap:round;stroke-linejoin:round;stroke-miterlimit:4;stroke-dasharray:none;stroke-opacity:0.02" />
      <rect
         style="fill:none;fill-opacity:1;stroke:#000000;stroke-width:3.4;stroke-linecap:round;stroke-linejoin:round;stroke-miterlimit:4;stroke-dasharray:none;stroke-opacity:0.02"
         id="rect1670"
         width="29.810888"
         height="29.810888"
         x="69.839508"
         y="40.709618"
         rx="6.6098609"
         ry="6.6098609" />
      <rect
         ry="6.6098609"
         rx="6.6098609"
         y="40.709618"
         x="69.839508"
         height="29.810888"
         width="29.810888"
         id="rect1672"
         style="fill:none;fill-opacity:1;stroke:#000000;stroke-width:3.8;stroke-linecap:round;stroke-linejoin:round;stroke-miterlimit:4;stroke-dasharray:none;stroke-opacity:0.02" />
      <rect
         style="fill:none;fill-opacity:1;stroke:#000000;stroke-width:4.2;stroke-linecap:round;stroke-linejoin:round;stroke-miterlimit:4;stroke-dasharray:none;stroke-opacity:0.02"
         id="rect1674"
         width="29.810888"
         height="29.810888"
         x="69.839508"
         y="40.709618"
         rx="6.6098609"
         ry="6.6098609" />
      <rect
         ry="6.6098609"
         rx="6.6098609"
         y="40.709618"
         x="69.839508"
         height="29.810888"
         width="29.810888"
         id="rect1676"
         style="fill:none;fill-opacity:1;stroke:#000000;stroke-width:4.6;stroke-linecap:round;stroke-linejoin:round;stroke-miterlimit:4;stroke-dasharray:none;stroke-opacity:0.02" />
      <rect
         style="fill:none;fill-opacity:1;stroke:#000000;stroke-width:5;stroke-linecap:round;stroke-linejoin:round;stroke-miterlimit:4;stroke-dasharray:none;stroke-opacity:0.02"
         id="rect1678"
         width="29.810888"
         height="29.810888"
         x="69.839508"
         y="40.709618"
         rx="6.6098609"
         ry="6.6098609" />
    </g>
    <rect
       ry="6.4494534"
       rx="6.4494534"
       y="2.5185876"
       x="2.4065466"
       height="29.087439"
       width="29.087439"
       id="rect849"
       style="fill:url(#linearGradient951);fill-opacity:1;stroke-width:2.68768;stroke-linecap:round;stroke-linejoin:round" />
    <rect
       style="fill:url(#linearGradient977);fill-opacity:1;stroke-width:2.68768001;stroke-linecap:round;stroke-linejoin:round"
       id="rect969"
       width="29.087437"
       height="24.45723"
       x="2.4065466"
       y="2.5185876"
       rx="6.4494534"
       ry="6.4494534" />
    <path
       style="fill:url(#linearGradient1208);fill-opacity:1;stroke-width:2.68767977;stroke-linecap:round;stroke-linejoin:round"
       d="m 9.1564249,3.9884893 c -3.091778,0 -5.580538,2.4892765 -5.580538,5.5810547 v 4.008541 0.467155 5.946923 c 0,2.351141 1.892528,4.244186 4.243669,4.244186 H 26.080456 c 2.351141,0 4.244187,-1.893045 4.244187,-4.244186 V 14.04524 13.578085 9.569544 c -3e-6,-3.0917782 -2.489277,-5.5810547 -5.581056,-5.5810547 z"
       id="rect1179"
       inkscape:connector-curvature="0" />
    <path
       style="fill:#f1f3f4;fill-opacity:1;stroke-width:10.15816021;stroke-linecap:round;stroke-linejoin:round"
       d="M 9.0957031 75.347656 L 9.0957031 77.580078 C 9.0957031 91.084319 19.966462 101.95508 33.470703 101.95508 L 94.65625 101.95508 C 108.16049 101.95508 119.0332 91.084319 119.0332 77.580078 L 119.0332 75.347656 C 119.0332 88.851897 108.16049 99.724609 94.65625 99.724609 L 33.470703 99.724609 C 19.966462 99.724609 9.0957031 88.851897 9.0957031 75.347656 z "
       transform="scale(0.26458333)"
       id="rect979" />
    <g
       id="g1002"
       transform="translate(0.70870533,-0.33072917)">
      <circle
         style="opacity:1;fill:#ffffff;fill-opacity:0.36413048;fill-rule:evenodd;stroke:none;stroke-width:0.88742411;stroke-linecap:round;stroke-linejoin:round;stroke-miterlimit:4;stroke-dasharray:none;stroke-dashoffset:0;stroke-opacity:1"
         id="circle996"
         cx="24.569887"
         cy="29.487963"
         r="1.4412801" />
      <circle
         r="1.2992932"
         cy="29.487963"
         cx="24.569887"
         id="path984"
         style="opacity:1;fill:url(#radialGradient992);fill-opacity:1;fill-rule:evenodd;stroke:none;stroke-width:0.80000001;stroke-linecap:round;stroke-linejoin:round;stroke-miterlimit:4;stroke-dasharray:none;stroke-dashoffset:0;stroke-opacity:1" />
    </g>
    <g
       id="g1029"
       transform="translate(0,-0.15802334)">
      <circle
         style="opacity:1;fill:#ffffff;fill-opacity:0.47826089;fill-rule:evenodd;stroke:none;stroke-width:0.92795265;stroke-linecap:round;stroke-linejoin:round;stroke-miterlimit:4;stroke-dasharray:none;stroke-dashoffset:0;stroke-opacity:1"
         id="circle1019"
         cx="27.436438"
         cy="22.974794"
         r="1.1508788" />
      <g
         transform="translate(-0.10857582,-0.02505684)"
         id="g1023">
        <circle
           style="opacity:1;fill:url(#linearGradient1012);fill-opacity:1;fill-rule:evenodd;stroke:none;stroke-width:0.80000001;stroke-linecap:round;stroke-linejoin:round;stroke-miterlimit:4;stroke-dasharray:none;stroke-dashoffset:0;stroke-opacity:1"
           id="path1004"
           cx="27.545013"
           cy="22.999851"
           r="0.9921875" />
        <path
           style="opacity:1;fill:#646464;fill-opacity:1;fill-rule:evenodd;stroke:none;stroke-width:1.21626472;stroke-linecap:round;stroke-linejoin:round;stroke-miterlimit:4;stroke-dasharray:none;stroke-dashoffset:0;stroke-opacity:1"
           d="m 27.031961,22.550418 c -0.03216,0.03216 -0.03159,0.08395 5.6e-4,0.116108 l 0.333323,0.333323 -0.333323,0.333326 c -0.03216,0.03216 -0.03272,0.08395 -5.6e-4,0.116107 l 0.06334,0.06334 c 0.03216,0.03216 0.08451,0.03216 0.11667,0 l 0.333324,-0.333323 0.333324,0.333324 c 0.03216,0.03216 0.08339,0.03216 0.115546,0 l 0.06334,-0.06334 c 0.03216,-0.03216 0.03272,-0.08395 5.6e-4,-0.116107 l -0.333325,-0.333325 0.333325,-0.333324 c 0.03216,-0.03216 0.03159,-0.08395 -5.6e-4,-0.116107 l -0.06334,-0.06334 c -0.03216,-0.03216 -0.08339,-0.03216 -0.115546,0 l -0.333324,0.333325 -0.333324,-0.333323 c -0.03216,-0.03216 -0.08451,-0.03216 -0.11667,0 z"
           id="rect1014"
           inkscape:connector-curvature="0" />
      </g>
    </g>
    <g
       id="g1051"
       transform="translate(0,-16.81994)">
      <circle
         r="1.1508788"
         cy="22.974794"
         cx="27.436438"
         id="circle1043"
         style="opacity:1;fill:#ffffff;fill-opacity:0.47826089;fill-rule:evenodd;stroke:none;stroke-width:0.92795265;stroke-linecap:round;stroke-linejoin:round;stroke-miterlimit:4;stroke-dasharray:none;stroke-dashoffset:0;stroke-opacity:1" />
      <g
         id="g1049"
         transform="translate(-0.10857582,-0.02505684)">
        <circle
           r="0.9921875"
           cy="22.999851"
           cx="27.545013"
           id="circle1045"
           style="opacity:1;fill:url(#linearGradient1063);fill-opacity:1;fill-rule:evenodd;stroke:none;stroke-width:0.80000001;stroke-linecap:round;stroke-linejoin:round;stroke-miterlimit:4;stroke-dasharray:none;stroke-dashoffset:0;stroke-opacity:1" />
        <path
           inkscape:connector-curvature="0"
           id="path1047"
           d="m 27.031961,22.550418 c -0.03216,0.03216 -0.03159,0.08395 5.6e-4,0.116108 l 0.333323,0.333323 -0.333323,0.333326 c -0.03216,0.03216 -0.03272,0.08395 -5.6e-4,0.116107 l 0.06334,0.06334 c 0.03216,0.03216 0.08451,0.03216 0.11667,0 l 0.333324,-0.333323 0.333324,0.333324 c 0.03216,0.03216 0.08339,0.03216 0.115546,0 l 0.06334,-0.06334 c 0.03216,-0.03216 0.03272,-0.08395 5.6e-4,-0.116107 l -0.333325,-0.333325 0.333325,-0.333324 c 0.03216,-0.03216 0.03159,-0.08395 -5.6e-4,-0.116107 l -0.06334,-0.06334 c -0.03216,-0.03216 -0.08339,-0.03216 -0.115546,0 l -0.333324,0.333325 -0.333324,-0.333323 c -0.03216,-0.03216 -0.08451,-0.03216 -0.11667,0 z"
           style="opacity:1;fill:#646464;fill-opacity:1;fill-rule:evenodd;stroke:none;stroke-width:1.21626472;stroke-linecap:round;stroke-linejoin:round;stroke-miterlimit:4;stroke-dasharray:none;stroke-dashoffset:0;stroke-opacity:1" />
      </g>
    </g>
    <g
       transform="translate(-21.072173,-16.81994)"
       id="g1061">
      <circle
         style="opacity:1;fill:#ffffff;fill-opacity:0.47826089;fill-rule:evenodd;stroke:none;stroke-width:0.92795265;stroke-linecap:round;stroke-linejoin:round;stroke-miterlimit:4;stroke-dasharray:none;stroke-dashoffset:0;stroke-opacity:1"
         id="circle1053"
         cx="27.436438"
         cy="22.974794"
         r="1.1508788" />
      <g
         transform="translate(-0.10857582,-0.02505684)"
         id="g1059">
        <circle
           style="opacity:1;fill:url(#linearGradient1065);fill-opacity:1;fill-rule:evenodd;stroke:none;stroke-width:0.80000001;stroke-linecap:round;stroke-linejoin:round;stroke-miterlimit:4;stroke-dasharray:none;stroke-dashoffset:0;stroke-opacity:1"
           id="circle1055"
           cx="27.545013"
           cy="22.999851"
           r="0.9921875" />
        <path
           style="opacity:1;fill:#646464;fill-opacity:1;fill-rule:evenodd;stroke:none;stroke-width:1.21626472;stroke-linecap:round;stroke-linejoin:round;stroke-miterlimit:4;stroke-dasharray:none;stroke-dashoffset:0;stroke-opacity:1"
           d="m 27.031961,22.550418 c -0.03216,0.03216 -0.03159,0.08395 5.6e-4,0.116108 l 0.333323,0.333323 -0.333323,0.333326 c -0.03216,0.03216 -0.03272,0.08395 -5.6e-4,0.116107 l 0.06334,0.06334 c 0.03216,0.03216 0.08451,0.03216 0.11667,0 l 0.333324,-0.333323 0.333324,0.333324 c 0.03216,0.03216 0.08339,0.03216 0.115546,0 l 0.06334,-0.06334 c 0.03216,-0.03216 0.03272,-0.08395 5.6e-4,-0.116107 l -0.333325,-0.333325 0.333325,-0.333324 c 0.03216,-0.03216 0.03159,-0.08395 -5.6e-4,-0.116107 l -0.06334,-0.06334 c -0.03216,-0.03216 -0.08339,-0.03216 -0.115546,0 l -0.333324,0.333325 -0.333324,-0.333323 c -0.03216,-0.03216 -0.08451,-0.03216 -0.11667,0 z"
           id="path1057"
           inkscape:connector-curvature="0" />
      </g>
    </g>
    <g
       id="g1198"
       transform="translate(-21.072173,-0.15802334)">
      <circle
         r="1.1508788"
         cy="22.974794"
         cx="27.436438"
         id="circle1190"
         style="opacity:1;fill:#ffffff;fill-opacity:0.47826089;fill-rule:evenodd;stroke:none;stroke-width:0.92795265;stroke-linecap:round;stroke-linejoin:round;stroke-miterlimit:4;stroke-dasharray:none;stroke-dashoffset:0;stroke-opacity:1" />
      <g
         id="g1196"
         transform="translate(-0.10857582,-0.02505684)">
        <circle
           r="0.9921875"
           cy="22.999851"
           cx="27.545013"
           id="circle1192"
           style="opacity:1;fill:url(#linearGradient1200);fill-opacity:1;fill-rule:evenodd;stroke:none;stroke-width:0.80000001;stroke-linecap:round;stroke-linejoin:round;stroke-miterlimit:4;stroke-dasharray:none;stroke-dashoffset:0;stroke-opacity:1" />
        <path
           inkscape:connector-curvature="0"
           id="path1194"
           d="m 27.031961,22.550418 c -0.03216,0.03216 -0.03159,0.08395 5.6e-4,0.116108 l 0.333323,0.333323 -0.333323,0.333326 c -0.03216,0.03216 -0.03272,0.08395 -5.6e-4,0.116107 l 0.06334,0.06334 c 0.03216,0.03216 0.08451,0.03216 0.11667,0 l 0.333324,-0.333323 0.333324,0.333324 c 0.03216,0.03216 0.08339,0.03216 0.115546,0 l 0.06334,-0.06334 c 0.03216,-0.03216 0.03272,-0.08395 5.6e-4,-0.116107 l -0.333325,-0.333325 0.333325,-0.333324 c 0.03216,-0.03216 0.03159,-0.08395 -5.6e-4,-0.116107 l -0.06334,-0.06334 c -0.03216,-0.03216 -0.08339,-0.03216 -0.115546,0 l -0.333324,0.333325 -0.333324,-0.333323 c -0.03216,-0.03216 -0.08451,-0.03216 -0.11667,0 z"
           style="opacity:1;fill:#646464;fill-opacity:1;fill-rule:evenodd;stroke:none;stroke-width:1.21626472;stroke-linecap:round;stroke-linejoin:round;stroke-miterlimit:4;stroke-dasharray:none;stroke-dashoffset:0;stroke-opacity:1" />
      </g>
    </g>
    <path
       style="color:#000000;font-style:normal;font-variant:normal;font-weight:normal;font-stretch:normal;font-size:medium;line-height:normal;font-family:sans-serif;font-variant-ligatures:normal;font-variant-position:normal;font-variant-caps:normal;font-variant-numeric:normal;font-variant-alternates:normal;font-feature-settings:normal;text-indent:0;text-align:start;text-decoration:none;text-decoration-line:none;text-decoration-style:solid;text-decoration-color:#000000;letter-spacing:normal;word-spacing:normal;text-transform:none;writing-mode:lr-tb;direction:ltr;text-orientation:mixed;dominant-baseline:auto;baseline-shift:baseline;text-anchor:start;white-space:normal;shape-padding:0;clip-rule:nonzero;display:inline;overflow:visible;visibility:visible;opacity:1;isolation:auto;mix-blend-mode:normal;color-interpolation:sRGB;color-interpolation-filters:linearRGB;solid-color:#000000;solid-opacity:1;vector-effect:none;fill:#ffffff;fill-opacity:1;fill-rule:nonzero;stroke:none;stroke-width:0.5;stroke-linecap:butt;stroke-linejoin:miter;stroke-miterlimit:4;stroke-dasharray:none;stroke-dashoffset:0;stroke-opacity:1;color-rendering:auto;image-rendering:auto;shape-rendering:auto;text-rendering:auto;enable-background:accumulate"
       d="m 17.110474,6.4432643 -0.95343,2.092526 h 0.723839 v 7.0361147 c -0.02323,0.04272 -0.04761,0.08683 -0.04761,0.175331 h 0.04761 v 1.544757 L 15.255291,15.6664 C 15.003043,15.414153 14.85496,15.236145 14.772853,15.076181 14.690743,14.916217 14.66101,14.764113 14.66101,14.507002 v -0.891787 a 1.2149235,1.2149235 0 0 0 0.939035,-1.181546 1.2149235,1.2149235 0 0 0 -1.214764,-1.215134 1.2149235,1.2149235 0 0 0 -1.214765,1.215134 1.2149235,1.2149235 0 0 0 0.989973,1.192988 v 0.880345 c 0,0.302188 0.04593,0.558875 0.168685,0.798032 0.122757,0.239158 0.308584,0.449586 0.57324,0.714242 l 1.955953,1.957429 0.02251,-0.02251 v 1.26312 a 1.2992931,1.2992931 0 0 0 -1.010643,1.264966 1.2992931,1.2992931 0 0 0 1.299293,1.299293 1.2992931,1.2992931 0 0 0 1.299293,-1.299293 1.2992931,1.2992931 0 0 0 -1.08742,-1.280469 v -3.486685 c 0.05094,-0.06834 0.130409,-0.162082 0.228853,-0.269086 0.199074,-0.216385 0.471394,-0.485821 0.743771,-0.746356 0.544756,-0.52107 1.090742,-1.008798 1.090742,-1.008798 l 0.01144,-0.0096 0.0081,-0.01 c 0.1918,-0.21404 0.430961,-0.500783 0.446633,-0.969305 v -0.0044 -1.276407 h 0.759274 c 0.03305,0 0.0598,-0.02674 0.0598,-0.0598 V 9.4220371 c 0,-0.03305 -0.02674,-0.05943 -0.0598,-0.05943 h -1.939342 c -0.03305,0 -0.0598,0.02638 -0.0598,0.05943 V 11.36138 c 0,0.03305 0.02674,0.0598 0.0598,0.0598 h 0.679176 v 1.26681 c -0.01174,0.322113 -0.128844,0.438729 -0.318179,0.650016 -0.02039,0.01819 -0.541666,0.48146 -1.084098,1.000308 -0.22286,0.213169 -0.43691,0.426674 -0.626392,0.624547 V 8.5357893 h 0.682497 z"
       id="path1067"
       inkscape:connector-curvature="0" />
    <g
       id="g1039"
       transform="translate(-21.072173,0.20087066)">
      <circle
         r="1.1508788"
         cy="22.974794"
         cx="27.436438"
         id="circle1031"
         style="opacity:1;fill:#ffffff;fill-opacity:0.47826089;fill-rule:evenodd;stroke:none;stroke-width:0.92795265;stroke-linecap:round;stroke-linejoin:round;stroke-miterlimit:4;stroke-dasharray:none;stroke-dashoffset:0;stroke-opacity:1" />
      <g
         id="g1037"
         transform="translate(-0.10857582,-0.02505684)">
        <circle
           r="0.9921875"
           cy="22.999851"
           cx="27.545013"
           id="circle1033"
           style="opacity:1;fill:url(#linearGradient1023);fill-opacity:1;fill-rule:evenodd;stroke:none;stroke-width:0.80000001;stroke-linecap:round;stroke-linejoin:round;stroke-miterlimit:4;stroke-dasharray:none;stroke-dashoffset:0;stroke-opacity:1" />
        <path
           inkscape:connector-curvature="0"
           id="path1035"
           d="m 27.031961,22.550418 c -0.03216,0.03216 -0.03159,0.08395 5.6e-4,0.116108 l 0.333323,0.333323 -0.333323,0.333326 c -0.03216,0.03216 -0.03272,0.08395 -5.6e-4,0.116107 l 0.06334,0.06334 c 0.03216,0.03216 0.08451,0.03216 0.11667,0 l 0.333324,-0.333323 0.333324,0.333324 c 0.03216,0.03216 0.08339,0.03216 0.115546,0 l 0.06334,-0.06334 c 0.03216,-0.03216 0.03272,-0.08395 5.6e-4,-0.116107 l -0.333325,-0.333325 0.333325,-0.333324 c 0.03216,-0.03216 0.03159,-0.08395 -5.6e-4,-0.116107 l -0.06334,-0.06334 c -0.03216,-0.03216 -0.08339,-0.03216 -0.115546,0 l -0.333324,0.333325 -0.333324,-0.333323 c -0.03216,-0.03216 -0.08451,-0.03216 -0.11667,0 z"
           style="opacity:1;fill:#646464;fill-opacity:1;fill-rule:evenodd;stroke:none;stroke-width:1.21626472;stroke-linecap:round;stroke-linejoin:round;stroke-miterlimit:4;stroke-dasharray:none;stroke-dashoffset:0;stroke-opacity:1" />
      </g>
    </g>
    <g
       id="g1137"
       transform="translate(15.591518,-4.6183253)">
      <circle
         r="8.953311"
         cy="29.212835"
         cx="-6.1657362"
         id="path1113"
         style="opacity:0.34299999;fill:url(#radialGradient1121);fill-opacity:1;fill-rule:evenodd;stroke:none;stroke-width:0.66826195;stroke-linecap:round;stroke-linejoin:round;stroke-miterlimit:4;stroke-dasharray:none;stroke-dashoffset:0;stroke-opacity:1" />
      <g
         id="g1111">
        <circle
           style="opacity:1;fill:url(#linearGradient1107);fill-opacity:1;fill-rule:evenodd;stroke:none;stroke-width:0.81052631;stroke-linecap:round;stroke-linejoin:round;stroke-miterlimit:4;stroke-dasharray:none;stroke-dashoffset:0;stroke-opacity:1"
           id="path1089"
           cx="-6.436779"
           cy="29.436167"
           r="7.7174072" />
        <circle
           r="7.1504431"
           cy="29.436167"
           cx="-6.436779"
           id="circle1091"
           style="opacity:1;fill:url(#linearGradient1099);fill-opacity:1;fill-rule:evenodd;stroke:none;stroke-width:0.7509805;stroke-linecap:round;stroke-linejoin:round;stroke-miterlimit:4;stroke-dasharray:none;stroke-dashoffset:0;stroke-opacity:1" />
      </g>
    </g>
    <path
       style="opacity:1;fill:url(#linearGradient1158);fill-opacity:1;fill-rule:evenodd;stroke:none;stroke-width:0.69999999;stroke-linecap:round;stroke-linejoin:round;stroke-miterlimit:4;stroke-dasharray:none;stroke-dashoffset:0;stroke-opacity:1"
       d="m 7.6014072,20.845506 c -0.1758289,0 -0.3178096,0.141464 -0.3178096,0.317294 v 2.67322 l -1.3678744,0.0093 a 0.50005001,0.50005001 0 0 0 -0.3808571,0.820105 l 3.2731866,3.94343 a 0.50005001,0.50005001 0 0 0 0.7756633,-0.0062 l 3.197218,-3.989937 a 0.50005001,0.50005001 0 0 0 -0.394805,-0.812353 l -1.360641,0.0093 V 21.1628 c 0,-0.17583 -0.141465,-0.317294 -0.317294,-0.317294 z"
       id="rect1139"
       inkscape:connector-curvature="0" />
  </g>
</svg>
