<?xml version="1.0" encoding="UTF-8" standalone="no"?>
<svg
   width="128"
   height="128"
   viewBox="0 0 33.866666 33.866668"
   version="1.1"
   id="svg1443"
   inkscape:version="1.1.2 (0a00cf5339, 2022-02-04)"
   sodipodi:docname="qv2ray.svg"
   xmlns:inkscape="http://www.inkscape.org/namespaces/inkscape"
   xmlns:sodipodi="http://sodipodi.sourceforge.net/DTD/sodipodi-0.dtd"
   xmlns:xlink="http://www.w3.org/1999/xlink"
   xmlns="http://www.w3.org/2000/svg"
   xmlns:svg="http://www.w3.org/2000/svg"
   xmlns:rdf="http://www.w3.org/1999/02/22-rdf-syntax-ns#"
   xmlns:cc="http://creativecommons.org/ns#"
   xmlns:dc="http://purl.org/dc/elements/1.1/">
  <defs
     id="defs1437">
    <linearGradient
       inkscape:collect="always"
       id="linearGradient1209">
      <stop
         style="stop-color:#0d55d3;stop-opacity:1;"
         offset="0"
         id="stop1205" />
      <stop
         style="stop-color:#083ebd;stop-opacity:1"
         offset="1"
         id="stop1207" />
    </linearGradient>
    <linearGradient
       inkscape:collect="always"
       id="linearGradient1011">
      <stop
         style="stop-color:#ff5597;stop-opacity:1"
         offset="0"
         id="stop1007" />
      <stop
         style="stop-color:#ff9044;stop-opacity:1"
         offset="1"
         id="stop1009" />
    </linearGradient>
    <linearGradient
       gradientTransform="matrix(0.97573206,0,0,0.97573206,-111.76517,-37.182508)"
       gradientUnits="userSpaceOnUse"
       y2="70.679932"
       x2="132.21078"
       y1="42.151531"
       x1="132.21078"
       id="linearGradient1632"
       xlink:href="#linearGradient1630"
       inkscape:collect="always" />
    <linearGradient
       id="linearGradient1630"
       inkscape:collect="always">
      <stop
         id="stop1626"
         offset="0"
         style="stop-color:#fafafc;stop-opacity:1" />
      <stop
         id="stop1628"
         offset="1"
         style="stop-color:#e2e6ea;stop-opacity:1" />
    </linearGradient>
    <filter
       color-interpolation-filters="sRGB"
       height="1.1311001"
       width="1.1106"
       y="-0.065563001"
       x="-0.055319"
       id="c-9">
      <feGaussianBlur
         id="feGaussianBlur1093"
         stdDeviation="1.1062912" />
    </filter>
    <linearGradient
       gradientUnits="userSpaceOnUse"
       gradientTransform="matrix(0.13235,0,0,0.13075,-32.379,1.0873)"
       y2="269.48999"
       y1="235.14999"
       x2="657.65002"
       x1="319.20999"
       id="a-12">
      <stop
         id="stop1076"
         offset="0"
         stop-color="#e54c18" />
      <stop
         id="stop1078"
         offset="1"
         stop-color="#fec350" />
    </linearGradient>
    <linearGradient
       inkscape:collect="always"
       xlink:href="#linearGradient1011"
       id="linearGradient1013"
       x1="9.819191"
       y1="13.978628"
       x2="7.7289023"
       y2="10.797752"
       gradientUnits="userSpaceOnUse" />
    <linearGradient
       inkscape:collect="always"
       xlink:href="#linearGradient1209"
       id="linearGradient1211"
       x1="11.577075"
       y1="21.413792"
       x2="16.876566"
       y2="18.35413"
       gradientUnits="userSpaceOnUse" />
  </defs>
  <sodipodi:namedview
     id="base"
     pagecolor="#ffffff"
     bordercolor="#666666"
     borderopacity="1.0"
     inkscape:pageopacity="0.0"
     inkscape:pageshadow="2"
     inkscape:zoom="2.8"
     inkscape:cx="36.785714"
     inkscape:cy="93.75"
     inkscape:document-units="mm"
     inkscape:current-layer="layer1"
     inkscape:document-rotation="0"
     showgrid="false"
     units="px"
     inkscape:window-width="1920"
     inkscape:window-height="1032"
     inkscape:window-x="0"
     inkscape:window-y="24"
     inkscape:window-maximized="1"
     inkscape:pagecheckerboard="0" />
  <metadata
     id="metadata1440">
    <rdf:RDF>
      <cc:Work
         rdf:about="">
        <dc:format>image/svg+xml</dc:format>
        <dc:type
           rdf:resource="http://purl.org/dc/dcmitype/StillImage" />
      </cc:Work>
    </rdf:RDF>
  </metadata>
  <g
     inkscape:label="Capa 1"
     inkscape:groupmode="layer"
     id="layer1">
    <g
       style="opacity:0.295"
       transform="matrix(0.97573206,0,0,0.97573206,-65.737228,-37.182508)"
       id="g1702">
      <rect
         ry="6.6098609"
         rx="6.6098609"
         y="40.709618"
         x="69.839508"
         height="29.810888"
         width="29.810888"
         id="rect1634"
         style="fill:none;fill-opacity:1;stroke:#000000;stroke-width:0.1;stroke-linecap:round;stroke-linejoin:round;stroke-miterlimit:4;stroke-dasharray:none;stroke-opacity:0.02" />
      <rect
         style="fill:none;fill-opacity:1;stroke:#000000;stroke-width:0.2;stroke-linecap:round;stroke-linejoin:round;stroke-miterlimit:4;stroke-dasharray:none;stroke-opacity:0.02"
         id="rect1638"
         width="29.810888"
         height="29.810888"
         x="69.839508"
         y="40.709618"
         rx="6.6098609"
         ry="6.6098609" />
      <rect
         ry="6.6098609"
         rx="6.6098609"
         y="40.709618"
         x="69.839508"
         height="29.810888"
         width="29.810888"
         id="rect1640"
         style="fill:none;fill-opacity:1;stroke:#000000;stroke-width:0.3;stroke-linecap:round;stroke-linejoin:round;stroke-miterlimit:4;stroke-dasharray:none;stroke-opacity:0.02" />
      <rect
         style="fill:none;fill-opacity:1;stroke:#000000;stroke-width:0.4;stroke-linecap:round;stroke-linejoin:round;stroke-miterlimit:4;stroke-dasharray:none;stroke-opacity:0.02"
         id="rect1642"
         width="29.810888"
         height="29.810888"
         x="69.839508"
         y="40.709618"
         rx="6.6098609"
         ry="6.6098609" />
      <rect
         ry="6.6098609"
         rx="6.6098609"
         y="40.709618"
         x="69.839508"
         height="29.810888"
         width="29.810888"
         id="rect1644"
         style="fill:none;fill-opacity:1;stroke:#000000;stroke-width:0.5;stroke-linecap:round;stroke-linejoin:round;stroke-miterlimit:4;stroke-dasharray:none;stroke-opacity:0.02" />
      <rect
         style="fill:none;fill-opacity:1;stroke:#000000;stroke-width:0.6;stroke-linecap:round;stroke-linejoin:round;stroke-miterlimit:4;stroke-dasharray:none;stroke-opacity:0.02"
         id="rect1646"
         width="29.810888"
         height="29.810888"
         x="69.839508"
         y="40.709618"
         rx="6.6098609"
         ry="6.6098609" />
      <rect
         ry="6.6098609"
         rx="6.6098609"
         y="40.709618"
         x="69.839508"
         height="29.810888"
         width="29.810888"
         id="rect1648"
         style="fill:none;fill-opacity:1;stroke:#000000;stroke-width:0.7;stroke-linecap:round;stroke-linejoin:round;stroke-miterlimit:4;stroke-dasharray:none;stroke-opacity:0.02" />
      <rect
         style="fill:none;fill-opacity:1;stroke:#000000;stroke-width:0.8;stroke-linecap:round;stroke-linejoin:round;stroke-miterlimit:4;stroke-dasharray:none;stroke-opacity:0.02"
         id="rect1650"
         width="29.810888"
         height="29.810888"
         x="69.839508"
         y="40.709618"
         rx="6.6098609"
         ry="6.6098609" />
      <rect
         ry="6.6098609"
         rx="6.6098609"
         y="40.709618"
         x="69.839508"
         height="29.810888"
         width="29.810888"
         id="rect1652"
         style="fill:none;fill-opacity:1;stroke:#000000;stroke-width:1;stroke-linecap:round;stroke-linejoin:round;stroke-miterlimit:4;stroke-dasharray:none;stroke-opacity:0.02" />
      <rect
         style="fill:none;fill-opacity:1;stroke:#000000;stroke-width:1.2;stroke-linecap:round;stroke-linejoin:round;stroke-miterlimit:4;stroke-dasharray:none;stroke-opacity:0.02"
         id="rect1654"
         width="29.810888"
         height="29.810888"
         x="69.839508"
         y="40.709618"
         rx="6.6098609"
         ry="6.6098609" />
      <rect
         ry="6.6098609"
         rx="6.6098609"
         y="40.709618"
         x="69.839508"
         height="29.810888"
         width="29.810888"
         id="rect1656"
         style="fill:none;fill-opacity:1;stroke:#000000;stroke-width:1.4;stroke-linecap:round;stroke-linejoin:round;stroke-miterlimit:4;stroke-dasharray:none;stroke-opacity:0.02" />
      <rect
         style="fill:none;fill-opacity:1;stroke:#000000;stroke-width:1.6;stroke-linecap:round;stroke-linejoin:round;stroke-miterlimit:4;stroke-dasharray:none;stroke-opacity:0.02"
         id="rect1658"
         width="29.810888"
         height="29.810888"
         x="69.839508"
         y="40.709618"
         rx="6.6098609"
         ry="6.6098609" />
      <rect
         ry="6.6098609"
         rx="6.6098609"
         y="40.709618"
         x="69.839508"
         height="29.810888"
         width="29.810888"
         id="rect1660"
         style="fill:none;fill-opacity:1;stroke:#000000;stroke-width:1.8;stroke-linecap:round;stroke-linejoin:round;stroke-miterlimit:4;stroke-dasharray:none;stroke-opacity:0.02" />
      <rect
         style="fill:none;fill-opacity:1;stroke:#000000;stroke-width:2;stroke-linecap:round;stroke-linejoin:round;stroke-miterlimit:4;stroke-dasharray:none;stroke-opacity:0.02"
         id="rect1662"
         width="29.810888"
         height="29.810888"
         x="69.839508"
         y="40.709618"
         rx="6.6098609"
         ry="6.6098609" />
      <rect
         ry="6.6098609"
         rx="6.6098609"
         y="40.709618"
         x="69.839508"
         height="29.810888"
         width="29.810888"
         id="rect1664"
         style="fill:none;fill-opacity:1;stroke:#000000;stroke-width:2.2;stroke-linecap:round;stroke-linejoin:round;stroke-miterlimit:4;stroke-dasharray:none;stroke-opacity:0.02" />
      <rect
         style="fill:none;fill-opacity:1;stroke:#000000;stroke-width:2.6;stroke-linecap:round;stroke-linejoin:round;stroke-miterlimit:4;stroke-dasharray:none;stroke-opacity:0.02"
         id="rect1666"
         width="29.810888"
         height="29.810888"
         x="69.839508"
         y="40.709618"
         rx="6.6098609"
         ry="6.6098609" />
      <rect
         ry="6.6098609"
         rx="6.6098609"
         y="40.709618"
         x="69.839508"
         height="29.810888"
         width="29.810888"
         id="rect1668"
         style="fill:none;fill-opacity:1;stroke:#000000;stroke-width:3;stroke-linecap:round;stroke-linejoin:round;stroke-miterlimit:4;stroke-dasharray:none;stroke-opacity:0.02" />
      <rect
         style="fill:none;fill-opacity:1;stroke:#000000;stroke-width:3.4;stroke-linecap:round;stroke-linejoin:round;stroke-miterlimit:4;stroke-dasharray:none;stroke-opacity:0.02"
         id="rect1670"
         width="29.810888"
         height="29.810888"
         x="69.839508"
         y="40.709618"
         rx="6.6098609"
         ry="6.6098609" />
      <rect
         ry="6.6098609"
         rx="6.6098609"
         y="40.709618"
         x="69.839508"
         height="29.810888"
         width="29.810888"
         id="rect1672"
         style="fill:none;fill-opacity:1;stroke:#000000;stroke-width:3.8;stroke-linecap:round;stroke-linejoin:round;stroke-miterlimit:4;stroke-dasharray:none;stroke-opacity:0.02" />
      <rect
         style="fill:none;fill-opacity:1;stroke:#000000;stroke-width:4.2;stroke-linecap:round;stroke-linejoin:round;stroke-miterlimit:4;stroke-dasharray:none;stroke-opacity:0.02"
         id="rect1674"
         width="29.810888"
         height="29.810888"
         x="69.839508"
         y="40.709618"
         rx="6.6098609"
         ry="6.6098609" />
      <rect
         ry="6.6098609"
         rx="6.6098609"
         y="40.709618"
         x="69.839508"
         height="29.810888"
         width="29.810888"
         id="rect1676"
         style="fill:none;fill-opacity:1;stroke:#000000;stroke-width:4.6;stroke-linecap:round;stroke-linejoin:round;stroke-miterlimit:4;stroke-dasharray:none;stroke-opacity:0.02" />
      <rect
         style="fill:none;fill-opacity:1;stroke:#000000;stroke-width:5;stroke-linecap:round;stroke-linejoin:round;stroke-miterlimit:4;stroke-dasharray:none;stroke-opacity:0.02"
         id="rect1678"
         width="29.810888"
         height="29.810888"
         x="69.839508"
         y="40.709618"
         rx="6.6098609"
         ry="6.6098609" />
    </g>
    <rect
       ry="6.4494534"
       rx="6.4494534"
       y="2.5391712"
       x="2.4074187"
       height="29.087439"
       width="29.087439"
       id="rect849"
       style="fill:url(#linearGradient1632);fill-opacity:1;stroke-width:2.68768;stroke-linecap:round;stroke-linejoin:round" />
    <path
       d="m 7.7289023,10.797752 c -1.6618432,0 -2.7697403,1.661844 -2.7697403,3.323688 0,1.107897 0.7478772,2.769742 1.6618442,2.769742 1.6081083,-1.929731 2.2885839,-2.735412 3.7640338,-3.074845 -1.5833865,1.795263 -2.6561377,4.736688 -2.6561377,4.736688 0,0 1.2617542,-1.259203 4.5127297,-1.585027 l -1.189041,1.585027 c 0,0 0.599321,0.126227 1.608831,0.463066 -0.15692,0.858552 -0.781473,2.723917 -3.2706755,3.968519 3.2056325,0 6.1639805,-1.13958 7.8807755,-1.957211 2.68577,1.428071 5.965309,3.616438 9.291612,6.942743 L 22.63032,19.231395 c 3.444277,1.512269 6.148608,3.199265 6.148608,3.199265 0,0 -6.12087,-6.119894 -11.702152,-8.770121 4.980262,0.494231 11.702152,2.953667 11.702152,2.953667 0,0 -9.417117,-5.816454 -21.0500257,-5.816454 z"
       style="opacity:0.1;stroke-width:0.553947"
       id="path6" />
    <path
       d="m 12.714435,17.999078 c 0,0 0,2.769738 -3.3236885,4.431582 4.9855325,0 9.4171175,-2.769738 9.4171175,-2.769738 z"
       style="fill:url(#linearGradient1211);stroke-width:0.553947;fill-opacity:1"
       id="path8" />
    <path
       d="m 12.714435,17.999078 c 0,0 0,2.769738 -3.3236885,4.431582 0.3305181,0 0.6578755,-0.01403 0.9823925,-0.03679 2.33513,-1.653549 2.341296,-3.840848 2.341296,-3.840848 l 5.429122,1.481161 c 0.373124,-0.201976 0.664307,-0.373265 0.664307,-0.373265 z"
       style="opacity:0.1;fill:#ffffff;stroke-width:0.553947"
       id="path10" />
    <path
       d="m 12.714435,17.999078 c 0,0 -0.0013,0.394857 -0.179594,0.97482 0.99395,0.325518 2.434748,0.877363 4.164347,1.75597 1.288339,-0.570625 2.108682,-1.068946 2.108682,-1.068946 z"
       style="opacity:0.2;stroke-width:0.553947"
       id="path12" />
    <path
       d="m 11.052591,17.999078 c 0,0 7.644482,1.551054 15.510543,9.417115 L 21.577602,16.337234 12.714435,15.783285 Z"
       style="fill:#15a5ff;stroke-width:0.553947;fill-opacity:1"
       id="path14" />
    <path
       d="m 12.714435,15.783285 -1.661844,2.215793 c 0,0 0.123861,0.02564 0.351628,0.0844 l 1.310216,-1.746233 8.863167,0.553947 4.548434,10.108469 c 0.145908,0.141783 0.290998,0.270443 0.437098,0.416542 L 21.577602,16.33724 Z"
       style="opacity:0.2;fill:#ffffff;stroke-width:0.553947"
       id="path16" />
    <path
       d="m 12.714435,15.783285 -0.93046,1.240974 c 0.603338,-0.08122 1.277225,-0.133074 2.038356,-0.133074 2.833749,0 6.258889,1.199091 9.120668,2.480866 l -1.340511,-2.978558 c -0.02864,-0.02031 -0.05785,-0.04028 -0.08656,-0.06059 z"
       style="opacity:0.2;stroke-width:0.553947"
       id="path18" />
    <path
       d="m 7.7289023,17.999078 c 0,0 2.2157914,-6.093429 4.9855327,-6.093429 6.093429,0 16.064493,9.971064 16.064493,9.971064 0,0 -8.86317,-5.539479 -14.956597,-5.539479 -4.4315845,0 -6.0934287,1.661844 -6.0934287,1.661844 z"
       style="fill:#9c2bff;stroke-width:0.553947;fill-opacity:1"
       id="path20" />
    <path
       d="m 12.714435,11.905649 c -2.7697413,0 -4.9855327,6.093429 -4.9855327,6.093429 0,0 0.1063581,-0.105499 0.3343165,-0.262909 0.68662,-1.612922 2.4755912,-5.276573 4.6512162,-5.276573 4.64219,0 11.506089,5.763615 14.525988,8.520197 0.955935,0.534732 1.538505,0.89692 1.538505,0.89692 0,0 -9.971064,-9.971064 -16.064493,-9.971064 z"
       style="opacity:0.2;fill:#ffffff;stroke-width:0.553947"
       id="path22" />
    <path
       d="m 12.714435,11.905649 c -1.084194,0 -2.080487,0.936583 -2.8952439,2.072979 1.1068649,-0.410827 2.6296439,-0.411135 5.6649839,-0.411135 0.903438,0 1.917395,0.102317 2.969897,0.266154 -2.01463,-1.129722 -4.029687,-1.927998 -5.739637,-1.927998 z"
       style="opacity:0.2;stroke-width:0.553947"
       id="path24" />
    <path
       d="m 6.6210062,16.337234 c -0.913967,0 -1.6618442,-1.661844 -1.6618442,-2.769741 0,-1.661844 1.1078971,-3.323688 2.7697403,-3.323688 11.6329087,0 21.0500227,5.816454 21.0500227,5.816454 0,0 -8.309217,-3.046713 -13.29475,-3.046713 -6.0934285,0 -6.0934285,0 -8.8631688,3.323688 z"
       style="fill:url(#linearGradient1013);stroke-width:0.553947;fill-opacity:1"
       id="path26" />
    <path
       d="m 7.7289023,10.243805 c -1.6618432,0 -2.7697403,1.661844 -2.7697403,3.323688 0,0.09082 0.01193,0.189665 0.021629,0.286712 0.1114242,-1.567742 1.1757962,-3.056453 2.7481024,-3.056453 7.7364026,0 14.4738666,2.567571 18.1320586,4.290935 1.736512,0.538988 2.917965,0.971572 2.917965,0.971572 0,0 -9.417116,-5.816454 -21.0500236,-5.816454 z"
       style="opacity:0.2;fill:#ffffff;stroke-width:0.553947"
       id="path30" />
  </g>
</svg>
