<?xml version="1.0" encoding="UTF-8" standalone="no"?>
<svg
   width="128"
   height="128"
   viewBox="0 0 33.866666 33.866668"
   version="1.1"
   id="svg1312"
   inkscape:version="1.1.2 (0a00cf5339, 2022-02-04)"
   sodipodi:docname="rambox.svg"
   xmlns:inkscape="http://www.inkscape.org/namespaces/inkscape"
   xmlns:sodipodi="http://sodipodi.sourceforge.net/DTD/sodipodi-0.dtd"
   xmlns:xlink="http://www.w3.org/1999/xlink"
   xmlns="http://www.w3.org/2000/svg"
   xmlns:svg="http://www.w3.org/2000/svg"
   xmlns:rdf="http://www.w3.org/1999/02/22-rdf-syntax-ns#"
   xmlns:cc="http://creativecommons.org/ns#"
   xmlns:dc="http://purl.org/dc/elements/1.1/">
  <defs
     id="defs1306">
    <linearGradient
       inkscape:collect="always"
       id="linearGradient1247">
      <stop
         style="stop-color:#ffffff;stop-opacity:1;"
         offset="0"
         id="stop1243" />
      <stop
         style="stop-color:#12869a;stop-opacity:1"
         offset="1"
         id="stop1245" />
    </linearGradient>
    <linearGradient
       id="linearGradient1630"
       inkscape:collect="always">
      <stop
         id="stop1626"
         offset="0"
         style="stop-color:#00cdb4;stop-opacity:1" />
      <stop
         id="stop1628"
         offset="1"
         style="stop-color:#138198;stop-opacity:1" />
    </linearGradient>
    <radialGradient
       inkscape:collect="always"
       xlink:href="#linearGradient1630"
       id="radialGradient1161"
       cx="16.974262"
       cy="2.3754315"
       fx="16.974262"
       fy="2.3754315"
       r="14.543719"
       gradientUnits="userSpaceOnUse"
       gradientTransform="matrix(7.3381891,0,0,1.9255963,-107.58608,-2.1986907)" />
    <linearGradient
       inkscape:collect="always"
       xlink:href="#linearGradient1247"
       id="linearGradient1249"
       x1="16.381998"
       y1="11.42553"
       x2="16.381998"
       y2="46.743477"
       gradientUnits="userSpaceOnUse" />
  </defs>
  <sodipodi:namedview
     id="base"
     pagecolor="#ffffff"
     bordercolor="#666666"
     borderopacity="1.0"
     inkscape:pageopacity="0.0"
     inkscape:pageshadow="2"
     inkscape:zoom="1.4"
     inkscape:cx="-52.5"
     inkscape:cy="-68.571428"
     inkscape:document-units="mm"
     inkscape:current-layer="layer1"
     inkscape:document-rotation="0"
     showgrid="false"
     units="px"
     inkscape:window-width="1920"
     inkscape:window-height="1022"
     inkscape:window-x="0"
     inkscape:window-y="0"
     inkscape:window-maximized="1"
     inkscape:pagecheckerboard="0" />
  <metadata
     id="metadata1309">
    <rdf:RDF>
      <cc:Work
         rdf:about="">
        <dc:format>image/svg+xml</dc:format>
        <dc:type
           rdf:resource="http://purl.org/dc/dcmitype/StillImage" />
      </cc:Work>
    </rdf:RDF>
  </metadata>
  <g
     inkscape:label="Capa 1"
     inkscape:groupmode="layer"
     id="layer1">
    <g
       style="opacity:0.295"
       transform="matrix(0.97573206,0,0,0.97573206,-65.714103,-37.237124)"
       id="g1702">
      <rect
         ry="6.6098609"
         rx="6.6098609"
         y="40.709618"
         x="69.839508"
         height="29.810888"
         width="29.810888"
         id="rect1634"
         style="fill:none;fill-opacity:1;stroke:#000000;stroke-width:0.1;stroke-linecap:round;stroke-linejoin:round;stroke-miterlimit:4;stroke-dasharray:none;stroke-opacity:0.02" />
      <rect
         style="fill:none;fill-opacity:1;stroke:#000000;stroke-width:0.2;stroke-linecap:round;stroke-linejoin:round;stroke-miterlimit:4;stroke-dasharray:none;stroke-opacity:0.02"
         id="rect1638"
         width="29.810888"
         height="29.810888"
         x="69.839508"
         y="40.709618"
         rx="6.6098609"
         ry="6.6098609" />
      <rect
         ry="6.6098609"
         rx="6.6098609"
         y="40.709618"
         x="69.839508"
         height="29.810888"
         width="29.810888"
         id="rect1640"
         style="fill:none;fill-opacity:1;stroke:#000000;stroke-width:0.3;stroke-linecap:round;stroke-linejoin:round;stroke-miterlimit:4;stroke-dasharray:none;stroke-opacity:0.02" />
      <rect
         style="fill:none;fill-opacity:1;stroke:#000000;stroke-width:0.4;stroke-linecap:round;stroke-linejoin:round;stroke-miterlimit:4;stroke-dasharray:none;stroke-opacity:0.02"
         id="rect1642"
         width="29.810888"
         height="29.810888"
         x="69.839508"
         y="40.709618"
         rx="6.6098609"
         ry="6.6098609" />
      <rect
         ry="6.6098609"
         rx="6.6098609"
         y="40.709618"
         x="69.839508"
         height="29.810888"
         width="29.810888"
         id="rect1644"
         style="fill:none;fill-opacity:1;stroke:#000000;stroke-width:0.5;stroke-linecap:round;stroke-linejoin:round;stroke-miterlimit:4;stroke-dasharray:none;stroke-opacity:0.02" />
      <rect
         style="fill:none;fill-opacity:1;stroke:#000000;stroke-width:0.6;stroke-linecap:round;stroke-linejoin:round;stroke-miterlimit:4;stroke-dasharray:none;stroke-opacity:0.02"
         id="rect1646"
         width="29.810888"
         height="29.810888"
         x="69.839508"
         y="40.709618"
         rx="6.6098609"
         ry="6.6098609" />
      <rect
         ry="6.6098609"
         rx="6.6098609"
         y="40.709618"
         x="69.839508"
         height="29.810888"
         width="29.810888"
         id="rect1648"
         style="fill:none;fill-opacity:1;stroke:#000000;stroke-width:0.7;stroke-linecap:round;stroke-linejoin:round;stroke-miterlimit:4;stroke-dasharray:none;stroke-opacity:0.02" />
      <rect
         style="fill:none;fill-opacity:1;stroke:#000000;stroke-width:0.8;stroke-linecap:round;stroke-linejoin:round;stroke-miterlimit:4;stroke-dasharray:none;stroke-opacity:0.02"
         id="rect1650"
         width="29.810888"
         height="29.810888"
         x="69.839508"
         y="40.709618"
         rx="6.6098609"
         ry="6.6098609" />
      <rect
         ry="6.6098609"
         rx="6.6098609"
         y="40.709618"
         x="69.839508"
         height="29.810888"
         width="29.810888"
         id="rect1652"
         style="fill:none;fill-opacity:1;stroke:#000000;stroke-width:1;stroke-linecap:round;stroke-linejoin:round;stroke-miterlimit:4;stroke-dasharray:none;stroke-opacity:0.02" />
      <rect
         style="fill:none;fill-opacity:1;stroke:#000000;stroke-width:1.2;stroke-linecap:round;stroke-linejoin:round;stroke-miterlimit:4;stroke-dasharray:none;stroke-opacity:0.02"
         id="rect1654"
         width="29.810888"
         height="29.810888"
         x="69.839508"
         y="40.709618"
         rx="6.6098609"
         ry="6.6098609" />
      <rect
         ry="6.6098609"
         rx="6.6098609"
         y="40.709618"
         x="69.839508"
         height="29.810888"
         width="29.810888"
         id="rect1656"
         style="fill:none;fill-opacity:1;stroke:#000000;stroke-width:1.4;stroke-linecap:round;stroke-linejoin:round;stroke-miterlimit:4;stroke-dasharray:none;stroke-opacity:0.02" />
      <rect
         style="fill:none;fill-opacity:1;stroke:#000000;stroke-width:1.6;stroke-linecap:round;stroke-linejoin:round;stroke-miterlimit:4;stroke-dasharray:none;stroke-opacity:0.02"
         id="rect1658"
         width="29.810888"
         height="29.810888"
         x="69.839508"
         y="40.709618"
         rx="6.6098609"
         ry="6.6098609" />
      <rect
         ry="6.6098609"
         rx="6.6098609"
         y="40.709618"
         x="69.839508"
         height="29.810888"
         width="29.810888"
         id="rect1660"
         style="fill:none;fill-opacity:1;stroke:#000000;stroke-width:1.8;stroke-linecap:round;stroke-linejoin:round;stroke-miterlimit:4;stroke-dasharray:none;stroke-opacity:0.02" />
      <rect
         style="fill:none;fill-opacity:1;stroke:#000000;stroke-width:2;stroke-linecap:round;stroke-linejoin:round;stroke-miterlimit:4;stroke-dasharray:none;stroke-opacity:0.02"
         id="rect1662"
         width="29.810888"
         height="29.810888"
         x="69.839508"
         y="40.709618"
         rx="6.6098609"
         ry="6.6098609" />
      <rect
         ry="6.6098609"
         rx="6.6098609"
         y="40.709618"
         x="69.839508"
         height="29.810888"
         width="29.810888"
         id="rect1664"
         style="fill:none;fill-opacity:1;stroke:#000000;stroke-width:2.2;stroke-linecap:round;stroke-linejoin:round;stroke-miterlimit:4;stroke-dasharray:none;stroke-opacity:0.02" />
      <rect
         style="fill:none;fill-opacity:1;stroke:#000000;stroke-width:2.6;stroke-linecap:round;stroke-linejoin:round;stroke-miterlimit:4;stroke-dasharray:none;stroke-opacity:0.02"
         id="rect1666"
         width="29.810888"
         height="29.810888"
         x="69.839508"
         y="40.709618"
         rx="6.6098609"
         ry="6.6098609" />
      <rect
         ry="6.6098609"
         rx="6.6098609"
         y="40.709618"
         x="69.839508"
         height="29.810888"
         width="29.810888"
         id="rect1668"
         style="fill:none;fill-opacity:1;stroke:#000000;stroke-width:3;stroke-linecap:round;stroke-linejoin:round;stroke-miterlimit:4;stroke-dasharray:none;stroke-opacity:0.02" />
      <rect
         style="fill:none;fill-opacity:1;stroke:#000000;stroke-width:3.4;stroke-linecap:round;stroke-linejoin:round;stroke-miterlimit:4;stroke-dasharray:none;stroke-opacity:0.02"
         id="rect1670"
         width="29.810888"
         height="29.810888"
         x="69.839508"
         y="40.709618"
         rx="6.6098609"
         ry="6.6098609" />
      <rect
         ry="6.6098609"
         rx="6.6098609"
         y="40.709618"
         x="69.839508"
         height="29.810888"
         width="29.810888"
         id="rect1672"
         style="fill:none;fill-opacity:1;stroke:#000000;stroke-width:3.8;stroke-linecap:round;stroke-linejoin:round;stroke-miterlimit:4;stroke-dasharray:none;stroke-opacity:0.02" />
      <rect
         style="fill:none;fill-opacity:1;stroke:#000000;stroke-width:4.2;stroke-linecap:round;stroke-linejoin:round;stroke-miterlimit:4;stroke-dasharray:none;stroke-opacity:0.02"
         id="rect1674"
         width="29.810888"
         height="29.810888"
         x="69.839508"
         y="40.709618"
         rx="6.6098609"
         ry="6.6098609" />
      <rect
         ry="6.6098609"
         rx="6.6098609"
         y="40.709618"
         x="69.839508"
         height="29.810888"
         width="29.810888"
         id="rect1676"
         style="fill:none;fill-opacity:1;stroke:#000000;stroke-width:4.6;stroke-linecap:round;stroke-linejoin:round;stroke-miterlimit:4;stroke-dasharray:none;stroke-opacity:0.02" />
      <rect
         style="fill:none;fill-opacity:1;stroke:#000000;stroke-width:5;stroke-linecap:round;stroke-linejoin:round;stroke-miterlimit:4;stroke-dasharray:none;stroke-opacity:0.02"
         id="rect1678"
         width="29.810888"
         height="29.810888"
         x="69.839508"
         y="40.709618"
         rx="6.6098609"
         ry="6.6098609" />
    </g>
    <rect
       ry="6.4494534"
       rx="6.4494534"
       y="2.4845543"
       x="2.4305434"
       height="29.087439"
       width="29.087439"
       id="rect849"
       style="fill:url(#radialGradient1161);fill-opacity:1;stroke-width:2.68768;stroke-linecap:round;stroke-linejoin:round" />
    <g
       id="g2990"
       style="opacity:0.37001917">
      <path
         style="opacity:1;fill:#061037;fill-opacity:0.0696947;stroke-width:0.472461"
         d="m 15.175176,8.783694 c -2.629359,0 -4.654478,1.962242 -4.654478,4.591731 v 1.059347 c 0,1.942144 1.165344,3.612923 2.834764,4.355499 V 16.869053 C 12.668483,16.29868 12.41054,15.420109 12.41054,14.434772 v -1.059347 c 0,-1.715921 1.048714,-2.701887 2.764636,-2.701887 h 3.918106 c 1.715919,0 2.766481,0.985966 2.766481,2.701887 v 1.059347 c 0,1.715918 -1.05057,2.858257 -2.766481,2.853221 H 17.135153 16.503974 16.19023 c 0,-0.521866 -0.423056,-0.944923 -0.944923,-0.944923 -0.521866,0 -0.944921,0.423057 -0.944921,0.944923 v 0.387566 1.980276 3.357058 c 0,0.411919 -0.306412,0.889557 -0.944924,0.889557 -0.63851,0 -0.944922,-0.308807 -0.944922,-0.86372 v -2.092854 -0.913548 c 0,-0.486021 -0.466282,-0.854491 -0.952305,-0.854491 -0.48589,0 -0.937537,0.36847 -0.937537,0.854491 v 3.109752 c 0,1.457935 1.376833,2.650213 2.834764,2.650213 1.457934,0 2.834768,-1.098093 2.834768,-2.650213 v -1.777264 -0.391256 -0.812044 -0.3525 -0.631179 h 1.889843 v 3.964243 c 0,1.457935 1.376834,2.650213 2.834767,2.650213 1.457933,0 2.871444,-1.192741 2.834767,-2.650213 v -2.196204 -0.913548 c 0,-0.486021 -0.458901,-0.854491 -0.944922,-0.854491 -0.48589,0 -0.944922,0.36847 -0.944922,0.854491 v 3.006402 c 0,0.554913 -0.471002,0.86372 -0.944923,0.86372 -0.473919,0 -0.971156,-0.38435 -0.944921,-0.795434 v -2.683431 -1.282658 -0.05905 c 2.11807,-0.485369 3.779688,-2.38382 3.779688,-4.647098 v -1.059348 c 0,-2.629487 -2.026967,-4.5917313 -4.656325,-4.5917295 z M 8.6308529,15.39815 c -0.5197417,0 -0.9449226,0.431555 -0.9449226,0.950458 v 3.3183 c 0,1.226071 0.7917291,2.276114 1.8898433,2.666822 v -2.805236 -2.205436 -0.97445 c 0,-0.518903 -0.4253183,-0.950458 -0.9449207,-0.950458 z m 17.0085981,0 c -0.519742,0 -0.944922,0.431555 -0.944922,0.950458 v 5.985122 c 1.098115,-0.390708 1.889844,-1.440751 1.889844,-2.666822 v -2.34385 -0.97445 c 0,-0.518903 -0.425318,-0.950458 -0.944922,-0.950458 z"
         id="path2849" />
      <path
         style="opacity:1;fill:#061037;fill-opacity:0.0696947;stroke-width:0.472461"
         d="m 15.476376,8.9395538 c -2.629359,0 -4.654478,1.9622422 -4.654478,4.5917312 v 1.059347 c 0,1.942144 1.165344,3.612923 2.834764,4.355499 V 17.024913 C 12.969683,16.45454 12.71174,15.575969 12.71174,14.590632 v -1.059347 c 0,-1.715921 1.048714,-2.701887 2.764636,-2.701887 h 3.918106 c 1.715919,0 2.766481,0.985966 2.766481,2.701887 v 1.059347 c 0,1.715918 -1.05057,2.858257 -2.766481,2.853221 H 17.436353 16.805174 16.49143 c 0,-0.521866 -0.423056,-0.944923 -0.944923,-0.944923 -0.521866,0 -0.944921,0.423057 -0.944921,0.944923 v 0.387566 1.980276 3.357058 c 0,0.411919 -0.306412,0.889557 -0.944924,0.889557 -0.63851,0 -0.944922,-0.308807 -0.944922,-0.86372 v -2.092854 -0.913548 c 0,-0.486021 -0.466282,-0.854491 -0.952305,-0.854491 -0.48589,0 -0.937537,0.36847 -0.937537,0.854491 v 3.109752 c 0,1.457935 1.376833,2.650213 2.834764,2.650213 1.457934,0 2.834768,-1.098093 2.834768,-2.650213 v -1.777264 -0.391256 -0.812044 -0.3525 -0.631179 h 1.889843 v 3.964243 c 0,1.457935 1.376834,2.650213 2.834767,2.650213 1.457933,0 2.871444,-1.192741 2.834767,-2.650213 v -2.196204 -0.913548 c 0,-0.486021 -0.458901,-0.854491 -0.944922,-0.854491 -0.48589,0 -0.944922,0.36847 -0.944922,0.854491 v 3.006402 c 0,0.554913 -0.471002,0.86372 -0.944923,0.86372 -0.473919,0 -0.971156,-0.38435 -0.944921,-0.795434 v -2.683431 -1.282658 -0.05905 c 2.11807,-0.485369 3.779688,-2.38382 3.779688,-4.647098 v -1.059348 c 0,-2.629487 -2.026967,-4.5917315 -4.656325,-4.5917297 z M 8.9320527,15.55401 c -0.5197417,0 -0.9449226,0.431555 -0.9449226,0.950458 v 3.3183 c 0,1.226071 0.7917291,2.276114 1.8898433,2.666822 v -2.805236 -2.205436 -0.97445 c 0,-0.518903 -0.4253183,-0.950458 -0.9449207,-0.950458 z m 17.0085983,0 c -0.519742,0 -0.944922,0.431555 -0.944922,0.950458 v 5.985122 c 1.098115,-0.390708 1.889844,-1.440751 1.889844,-2.666822 v -2.34385 -0.97445 c 0,-0.518903 -0.425318,-0.950458 -0.944922,-0.950458 z"
         id="path2977" />
      <path
         style="opacity:1;fill:#061037;fill-opacity:0.0696947;stroke-width:0.472461"
         d="m 15.740433,9.2976899 c -2.629359,0 -4.654478,1.9622421 -4.654478,4.5917311 v 1.059347 c 0,1.942144 1.165344,3.612923 2.834764,4.355499 V 17.383049 C 13.23374,16.812676 12.975797,15.934105 12.975797,14.948768 v -1.059347 c 0,-1.715921 1.048714,-2.701887 2.764636,-2.701887 h 3.918106 c 1.715919,0 2.766481,0.985966 2.766481,2.701887 v 1.059347 c 0,1.715918 -1.05057,2.858257 -2.766481,2.853221 H 17.70041 17.069231 16.755487 c 0,-0.521866 -0.423056,-0.944923 -0.944923,-0.944923 -0.521866,0 -0.944921,0.423057 -0.944921,0.944923 v 0.387566 1.980276 3.357058 c 0,0.411919 -0.306412,0.889557 -0.944924,0.889557 -0.63851,0 -0.944922,-0.308807 -0.944922,-0.86372 v -2.092854 -0.913548 c 0,-0.486021 -0.466282,-0.854491 -0.952305,-0.854491 -0.48589,0 -0.937537,0.36847 -0.937537,0.854491 v 3.109752 c 0,1.457935 1.376833,2.650213 2.834764,2.650213 1.457934,0 2.834768,-1.098093 2.834768,-2.650213 v -1.777264 -0.391256 -0.812044 -0.3525 -0.631179 h 1.889843 v 3.964243 c 0,1.457935 1.376834,2.650213 2.834767,2.650213 1.457933,0 2.871444,-1.192741 2.834767,-2.650213 v -2.196204 -0.913548 c 0,-0.486021 -0.458901,-0.854491 -0.944922,-0.854491 -0.48589,0 -0.944922,0.36847 -0.944922,0.854491 v 3.006402 c 0,0.554913 -0.471002,0.86372 -0.944923,0.86372 -0.473919,0 -0.971156,-0.38435 -0.944921,-0.795434 v -2.683431 -1.282658 -0.05905 c 2.11807,-0.485369 3.779688,-2.38382 3.779688,-4.647098 v -1.059348 c 0,-2.629487 -2.026967,-4.5917314 -4.656325,-4.5917296 z M 9.19611,15.912146 c -0.5197417,0 -0.9449226,0.431555 -0.9449226,0.950458 v 3.3183 c 0,1.226071 0.7917291,2.276114 1.8898436,2.666822 v -2.805236 -2.205436 -0.97445 c 0,-0.518903 -0.4253186,-0.950458 -0.944921,-0.950458 z m 17.008598,0 c -0.519742,0 -0.944922,0.431555 -0.944922,0.950458 v 5.985122 c 1.098115,-0.390708 1.889844,-1.440751 1.889844,-2.666822 v -2.34385 -0.97445 c 0,-0.518903 -0.425318,-0.950458 -0.944922,-0.950458 z"
         id="path2979" />
      <path
         style="opacity:1;fill:#061037;fill-opacity:0.0696947;stroke-width:0.472461"
         d="m 16.001307,9.6044726 c -2.629359,0 -4.654478,1.9622424 -4.654478,4.5917314 v 1.059347 c 0,1.942144 1.165344,3.612923 2.834764,4.355499 v -1.921218 c -0.686979,-0.570373 -0.944922,-1.448944 -0.944922,-2.434281 v -1.059347 c 0,-1.715921 1.048714,-2.701887 2.764636,-2.701887 h 3.918106 c 1.715919,0 2.766481,0.985966 2.766481,2.701887 v 1.059347 c 0,1.715918 -1.05057,2.858257 -2.766481,2.853221 h -1.958129 -0.631179 -0.313744 c 0,-0.521866 -0.423056,-0.944923 -0.944923,-0.944923 -0.521866,0 -0.944921,0.423057 -0.944921,0.944923 v 0.387566 1.980276 3.357058 c 0,0.411919 -0.306412,0.889557 -0.944924,0.889557 -0.63851,0 -0.944922,-0.308807 -0.944922,-0.86372 v -2.092854 -0.913548 c 0,-0.486021 -0.466282,-0.854491 -0.952305,-0.854491 -0.48589,0 -0.937537,0.36847 -0.937537,0.854491 v 3.109752 c 0,1.457935 1.376833,2.650213 2.834764,2.650213 1.457934,0 2.834768,-1.098093 2.834768,-2.650213 v -1.777264 -0.391256 -0.812044 -0.3525 -0.631179 h 1.889843 v 3.964243 c 0,1.457935 1.376834,2.650213 2.834767,2.650213 1.457933,0 2.871444,-1.192741 2.834767,-2.650213 v -2.196204 -0.913548 c 0,-0.486021 -0.458901,-0.854491 -0.944922,-0.854491 -0.48589,0 -0.944922,0.36847 -0.944922,0.854491 v 3.006402 c 0,0.554913 -0.471002,0.86372 -0.944923,0.86372 -0.473919,0 -0.971156,-0.38435 -0.944921,-0.795434 v -2.683431 -1.282658 -0.05905 c 2.11807,-0.485369 3.779688,-2.38382 3.779688,-4.647098 V 14.19621 c 0,-2.629487 -2.026967,-4.5917317 -4.656325,-4.5917299 z M 9.4569837,16.218929 c -0.5197417,0 -0.9449226,0.431555 -0.9449226,0.950458 v 3.3183 c 0,1.226071 0.7917291,2.276114 1.8898439,2.666822 v -2.805236 -2.205436 -0.97445 c 0,-0.518903 -0.4253189,-0.950458 -0.9449213,-0.950458 z m 17.0085983,0 c -0.519742,0 -0.944922,0.431555 -0.944922,0.950458 v 5.985122 c 1.098115,-0.390708 1.889844,-1.440751 1.889844,-2.666822 v -2.34385 -0.97445 c 0,-0.518903 -0.425318,-0.950458 -0.944922,-0.950458 z"
         id="path2981" />
      <path
         style="opacity:1;fill:#061037;fill-opacity:0.0696947;stroke-width:0.472461"
         d="m 16.256275,9.9390314 c -2.629359,0 -4.654478,1.9622426 -4.654478,4.5917316 v 1.059347 c 0,1.942144 1.165344,3.612923 2.834764,4.355499 V 18.024391 C 13.749582,17.454018 13.491639,16.575447 13.491639,15.59011 v -1.059347 c 0,-1.715921 1.048714,-2.701887 2.764636,-2.701887 h 3.918106 c 1.715919,0 2.766481,0.985966 2.766481,2.701887 v 1.059347 c 0,1.715918 -1.05057,2.858257 -2.766481,2.853221 h -1.958129 -0.631179 -0.313744 c 0,-0.521866 -0.423056,-0.944923 -0.944923,-0.944923 -0.521866,0 -0.944921,0.423057 -0.944921,0.944923 v 0.387566 1.980276 3.357058 c 0,0.411919 -0.306412,0.889557 -0.944924,0.889557 -0.63851,0 -0.944922,-0.308807 -0.944922,-0.86372 v -2.092854 -0.913548 c 0,-0.486021 -0.466282,-0.854491 -0.952305,-0.854491 -0.48589,0 -0.937537,0.36847 -0.937537,0.854491 v 3.109752 c 0,1.457935 1.376833,2.650213 2.834764,2.650213 1.457934,0 2.834768,-1.098093 2.834768,-2.650213 v -1.777264 -0.391256 -0.812044 -0.3525 -0.631179 h 1.889843 v 3.964243 c 0,1.457935 1.376834,2.650213 2.834767,2.650213 1.457933,0 2.871444,-1.192741 2.834767,-2.650213 v -2.196204 -0.913548 c 0,-0.486021 -0.458901,-0.854491 -0.944922,-0.854491 -0.48589,0 -0.944922,0.36847 -0.944922,0.854491 v 3.006402 c 0,0.554913 -0.471002,0.86372 -0.944923,0.86372 -0.473919,0 -0.971156,-0.38435 -0.944921,-0.795434 v -2.683431 -1.282658 -0.05905 c 2.11807,-0.485369 3.779688,-2.38382 3.779688,-4.647098 v -1.059348 c 0,-2.629487 -2.026967,-4.5917319 -4.656325,-4.5917301 z M 9.7119515,16.553488 c -0.5197417,0 -0.9449226,0.431555 -0.9449226,0.950458 v 3.3183 c 0,1.226071 0.7917291,2.276114 1.8898441,2.666822 v -2.805236 -2.205436 -0.97445 c 0,-0.518903 -0.425319,-0.950458 -0.9449215,-0.950458 z m 17.0085985,0 c -0.519742,0 -0.944922,0.431555 -0.944922,0.950458 v 5.985122 c 1.098115,-0.390708 1.889844,-1.440751 1.889844,-2.666822 v -2.34385 -0.97445 c 0,-0.518903 -0.425318,-0.950458 -0.944922,-0.950458 z"
         id="path2983" />
    </g>
    <path
       style="opacity:1;fill:url(#linearGradient1249);fill-opacity:1;stroke-width:0.472461"
       d="m 15.014287,8.5239738 c -2.629359,0 -4.654478,1.9622422 -4.654478,4.5917312 v 1.059347 c 0,1.942144 1.165344,3.612923 2.834764,4.355499 V 16.609333 C 12.507594,16.03896 12.249651,15.160389 12.249651,14.175052 v -1.059347 c 0,-1.715921 1.048714,-2.701887 2.764636,-2.701887 h 3.918106 c 1.715919,0 2.766481,0.985966 2.766481,2.701887 v 1.059347 c 0,1.715918 -1.05057,2.858257 -2.766481,2.853221 h -1.958129 -0.631179 -0.313744 c 0,-0.521866 -0.423056,-0.944923 -0.944923,-0.944923 -0.521866,0 -0.944921,0.423057 -0.944921,0.944923 v 0.387566 1.980276 3.357058 c 0,0.411919 -0.306412,0.889557 -0.944924,0.889557 -0.63851,0 -0.944922,-0.308807 -0.944922,-0.86372 v -2.092854 -0.913548 c 0,-0.486021 -0.466282,-0.854491 -0.952305,-0.854491 -0.48589,0 -0.937537,0.36847 -0.937537,0.854491 v 3.109752 c 0,1.457935 1.376833,2.650213 2.834764,2.650213 1.457934,0 2.834768,-1.098093 2.834768,-2.650213 v -1.777264 -0.391256 -0.812044 -0.3525 -0.631179 h 1.889843 v 3.964243 c 0,1.457935 1.376834,2.650213 2.834767,2.650213 1.457933,0 2.871444,-1.192741 2.834767,-2.650213 v -2.196204 -0.913548 c 0,-0.486021 -0.458901,-0.854491 -0.944922,-0.854491 -0.48589,0 -0.944922,0.36847 -0.944922,0.854491 v 3.006402 c 0,0.554913 -0.471002,0.86372 -0.944923,0.86372 -0.473919,0 -0.971156,-0.38435 -0.944921,-0.795434 v -2.683431 -1.282658 -0.05905 c 2.11807,-0.485369 3.779688,-2.38382 3.779688,-4.647098 v -1.059348 c 0,-2.629487 -2.026967,-4.5917315 -4.656325,-4.5917297 z M 8.4699639,15.13843 c -0.5197417,0 -0.9449226,0.431555 -0.9449226,0.950458 v 3.3183 c 0,1.226071 0.7917291,2.276114 1.8898433,2.666822 v -2.805236 -2.205436 -0.97445 c 0,-0.518903 -0.4253183,-0.950458 -0.9449207,-0.950458 z m 17.0085981,0 c -0.519742,0 -0.944922,0.431555 -0.944922,0.950458 v 5.985122 c 1.098115,-0.390708 1.889844,-1.440751 1.889844,-2.666822 v -2.34385 -0.97445 c 0,-0.518903 -0.425318,-0.950458 -0.944922,-0.950458 z"
       id="path6" />
  </g>
</svg>
