<?xml version="1.0" encoding="UTF-8" standalone="no"?>
<svg
   xmlns:dc="http://purl.org/dc/elements/1.1/"
   xmlns:cc="http://creativecommons.org/ns#"
   xmlns:rdf="http://www.w3.org/1999/02/22-rdf-syntax-ns#"
   xmlns:svg="http://www.w3.org/2000/svg"
   xmlns="http://www.w3.org/2000/svg"
   xmlns:xlink="http://www.w3.org/1999/xlink"
   xmlns:sodipodi="http://sodipodi.sourceforge.net/DTD/sodipodi-0.dtd"
   xmlns:inkscape="http://www.inkscape.org/namespaces/inkscape"
   width="128"
   height="128"
   viewBox="0 0 33.866666 33.866668"
   version="1.1"
   id="svg2117"
   inkscape:version="1.0.1 (3bc2e813f5, 2020-09-07)"
   sodipodi:docname="redream.svg">
  <defs
     id="defs2111">
    <linearGradient
       id="linearGradient1630"
       inkscape:collect="always">
      <stop
         id="stop1626"
         offset="0"
         style="stop-color:#3bd7ff;stop-opacity:1" />
      <stop
         id="stop1628"
         offset="1"
         style="stop-color:#0054f6;stop-opacity:1" />
    </linearGradient>
    <linearGradient
       id="linearGradient895">
      <stop
         id="stop3335"
         offset="0" />
      <stop
         id="stop3337"
         offset="1"
         stop-opacity="0" />
    </linearGradient>
    <filter
       id="e"
       x="-0.12752999"
       y="-0.098103002"
       width="1.2551"
       height="1.1962"
       color-interpolation-filters="sRGB">
      <feGaussianBlur
         stdDeviation="1.062784"
         id="feGaussianBlur7" />
    </filter>
    <radialGradient
       id="radialGradient879"
       cx="31.396999"
       cy="37.736"
       r="10"
       gradientTransform="matrix(1,0,0,1.8994,0,-32.571)"
       gradientUnits="userSpaceOnUse">
      <stop
         stop-color="#fff"
         offset="0"
         id="stop15" />
      <stop
         stop-color="#d1d1d1"
         offset="1"
         id="stop17"
         style="stop-color:#fafafa;stop-opacity:1" />
    </radialGradient>
    <radialGradient
       inkscape:collect="always"
       xlink:href="#linearGradient1630"
       id="radialGradient1328"
       cx="16.778961"
       cy="3.7295215"
       fx="16.778961"
       fy="3.7295215"
       r="14.54372"
       gradientUnits="userSpaceOnUse"
       gradientTransform="matrix(4.2072182,0,0,2.7809707,-53.340322,-7.1713848)" />
    <linearGradient
       id="linearGradient965"
       x1="27.870001"
       x2="27.870001"
       y1="16.322001"
       y2="48.792999"
       gradientUnits="userSpaceOnUse"
       gradientTransform="matrix(0.26458333,0,0,0.26458333,7.3022354,12.079468)">
      <stop
         stop-color="#ffffff"
         offset="0"
         id="stop12" />
      <stop
         stop-color="#ffffff"
         stop-opacity=".68"
         offset="1"
         id="stop14" />
    </linearGradient>
    <filter
       id="filter960"
       x="-0.10362"
       y="-0.11276"
       width="1.2072001"
       height="1.2255"
       color-interpolation-filters="sRGB">
      <feGaussianBlur
         stdDeviation="1.5975"
         id="feGaussianBlur22" />
    </filter>
    <linearGradient
       id="linearGradient952"
       x1="32.414001"
       x2="32.414001"
       y1="37.157001"
       y2="27.471001"
       gradientTransform="matrix(1.4167,0,0,1.4167,-13.92,-13.639)"
       gradientUnits="userSpaceOnUse">
      <stop
         stop-color="#d28360"
         offset="0"
         id="stop17-3" />
      <stop
         stop-color="#d7ad8e"
         offset="1"
         id="stop19" />
    </linearGradient>
    <linearGradient
       id="linearGradient944"
       x1="32.404999"
       x2="32.404999"
       y1="47.428001"
       y2="16.370001"
       gradientUnits="userSpaceOnUse"
       xlink:href="#linearGradient952"
       gradientTransform="matrix(1.8871627,0,0,1.8871627,-25.84625,-18.134289)">
      <stop
         stop-color="#5c5c5c"
         offset="0"
         id="stop12-6"
         style="stop-color:#dddddd;stop-opacity:1" />
      <stop
         stop-color="#8f8f8f"
         offset="1"
         id="stop14-7"
         style="stop-color:#fbfbfb;stop-opacity:1" />
    </linearGradient>
    <linearGradient
       id="linearGradient964"
       x1="197.27"
       x2="278.64999"
       y1="-382.35001"
       y2="-9.2612"
       gradientTransform="matrix(0.02275311,0,0,0.02286106,29.726075,17.163013)"
       gradientUnits="userSpaceOnUse">
      <stop
         stop-color="#327890"
         offset="0"
         id="stop7" />
      <stop
         stop-color="#2d5795"
         offset="1"
         id="stop9" />
    </linearGradient>
    <linearGradient
       id="linearGradient875"
       x1="31.591"
       x2="31.591"
       y1="15.469"
       y2="50.304001"
       gradientUnits="userSpaceOnUse"
       gradientTransform="matrix(0.47554617,0,0,0.47554617,1.6096553,1.8134977)">
      <stop
         stop-color="#2e2e2e"
         offset="0"
         id="stop7-3"
         style="stop-color:#3b3b3b;stop-opacity:1" />
      <stop
         stop-color="#1a1a1a"
         stop-opacity=".98447"
         offset="1"
         id="stop9-6"
         style="stop-color:#0d0d0d;stop-opacity:0.98431373" />
    </linearGradient>
    <radialGradient
       inkscape:collect="always"
       xlink:href="#linearGradient875"
       id="radialGradient912"
       gradientUnits="userSpaceOnUse"
       gradientTransform="matrix(1.6401484,-0.90075543,0.65463853,1.1920043,-16.448208,9.5841742)"
       cx="13.038353"
       cy="11.250815"
       fx="13.038353"
       fy="11.250815"
       r="9.5109129" />
  </defs>
  <sodipodi:namedview
     id="base"
     pagecolor="#ffffff"
     bordercolor="#666666"
     borderopacity="1.0"
     inkscape:pageopacity="0.0"
     inkscape:pageshadow="2"
     inkscape:zoom="0.98994949"
     inkscape:cx="-119.15602"
     inkscape:cy="-117.04394"
     inkscape:document-units="mm"
     inkscape:current-layer="layer1"
     inkscape:document-rotation="0"
     showgrid="false"
     units="px"
     inkscape:window-width="1920"
     inkscape:window-height="1030"
     inkscape:window-x="0"
     inkscape:window-y="25"
     inkscape:window-maximized="1" />
  <metadata
     id="metadata2114">
    <rdf:RDF>
      <cc:Work
         rdf:about="">
        <dc:format>image/svg+xml</dc:format>
        <dc:type
           rdf:resource="http://purl.org/dc/dcmitype/StillImage" />
        <dc:title></dc:title>
      </cc:Work>
    </rdf:RDF>
  </metadata>
  <g
     inkscape:label="Capa 1"
     inkscape:groupmode="layer"
     id="layer1">
    <g
       style="opacity:0.13961803"
       transform="matrix(0.97573206,0,0,0.97573206,-65.861139,-37.234129)"
       id="g1702">
      <rect
         ry="6.6098609"
         rx="6.6098609"
         y="40.709618"
         x="69.839508"
         height="29.810888"
         width="29.810888"
         id="rect1634"
         style="fill:none;fill-opacity:1;stroke:#000000;stroke-width:0.1;stroke-linecap:round;stroke-linejoin:round;stroke-miterlimit:4;stroke-dasharray:none;stroke-opacity:0.02" />
      <rect
         style="fill:none;fill-opacity:1;stroke:#000000;stroke-width:0.2;stroke-linecap:round;stroke-linejoin:round;stroke-miterlimit:4;stroke-dasharray:none;stroke-opacity:0.02"
         id="rect1638"
         width="29.810888"
         height="29.810888"
         x="69.839508"
         y="40.709618"
         rx="6.6098609"
         ry="6.6098609" />
      <rect
         ry="6.6098609"
         rx="6.6098609"
         y="40.709618"
         x="69.839508"
         height="29.810888"
         width="29.810888"
         id="rect1640"
         style="fill:none;fill-opacity:1;stroke:#000000;stroke-width:0.3;stroke-linecap:round;stroke-linejoin:round;stroke-miterlimit:4;stroke-dasharray:none;stroke-opacity:0.02" />
      <rect
         style="fill:none;fill-opacity:1;stroke:#000000;stroke-width:0.4;stroke-linecap:round;stroke-linejoin:round;stroke-miterlimit:4;stroke-dasharray:none;stroke-opacity:0.02"
         id="rect1642"
         width="29.810888"
         height="29.810888"
         x="69.839508"
         y="40.709618"
         rx="6.6098609"
         ry="6.6098609" />
      <rect
         ry="6.6098609"
         rx="6.6098609"
         y="40.709618"
         x="69.839508"
         height="29.810888"
         width="29.810888"
         id="rect1644"
         style="fill:none;fill-opacity:1;stroke:#000000;stroke-width:0.5;stroke-linecap:round;stroke-linejoin:round;stroke-miterlimit:4;stroke-dasharray:none;stroke-opacity:0.02" />
      <rect
         style="fill:none;fill-opacity:1;stroke:#000000;stroke-width:0.6;stroke-linecap:round;stroke-linejoin:round;stroke-miterlimit:4;stroke-dasharray:none;stroke-opacity:0.02"
         id="rect1646"
         width="29.810888"
         height="29.810888"
         x="69.839508"
         y="40.709618"
         rx="6.6098609"
         ry="6.6098609" />
      <rect
         ry="6.6098609"
         rx="6.6098609"
         y="40.709618"
         x="69.839508"
         height="29.810888"
         width="29.810888"
         id="rect1648"
         style="fill:none;fill-opacity:1;stroke:#000000;stroke-width:0.7;stroke-linecap:round;stroke-linejoin:round;stroke-miterlimit:4;stroke-dasharray:none;stroke-opacity:0.02" />
      <rect
         style="fill:none;fill-opacity:1;stroke:#000000;stroke-width:0.8;stroke-linecap:round;stroke-linejoin:round;stroke-miterlimit:4;stroke-dasharray:none;stroke-opacity:0.02"
         id="rect1650"
         width="29.810888"
         height="29.810888"
         x="69.839508"
         y="40.709618"
         rx="6.6098609"
         ry="6.6098609" />
      <rect
         ry="6.6098609"
         rx="6.6098609"
         y="40.709618"
         x="69.839508"
         height="29.810888"
         width="29.810888"
         id="rect1652"
         style="fill:none;fill-opacity:1;stroke:#000000;stroke-width:1;stroke-linecap:round;stroke-linejoin:round;stroke-miterlimit:4;stroke-dasharray:none;stroke-opacity:0.02" />
      <rect
         style="fill:none;fill-opacity:1;stroke:#000000;stroke-width:1.2;stroke-linecap:round;stroke-linejoin:round;stroke-miterlimit:4;stroke-dasharray:none;stroke-opacity:0.02"
         id="rect1654"
         width="29.810888"
         height="29.810888"
         x="69.839508"
         y="40.709618"
         rx="6.6098609"
         ry="6.6098609" />
      <rect
         ry="6.6098609"
         rx="6.6098609"
         y="40.709618"
         x="69.839508"
         height="29.810888"
         width="29.810888"
         id="rect1656"
         style="fill:none;fill-opacity:1;stroke:#000000;stroke-width:1.4;stroke-linecap:round;stroke-linejoin:round;stroke-miterlimit:4;stroke-dasharray:none;stroke-opacity:0.02" />
      <rect
         style="fill:none;fill-opacity:1;stroke:#000000;stroke-width:1.6;stroke-linecap:round;stroke-linejoin:round;stroke-miterlimit:4;stroke-dasharray:none;stroke-opacity:0.02"
         id="rect1658"
         width="29.810888"
         height="29.810888"
         x="69.839508"
         y="40.709618"
         rx="6.6098609"
         ry="6.6098609" />
      <rect
         ry="6.6098609"
         rx="6.6098609"
         y="40.709618"
         x="69.839508"
         height="29.810888"
         width="29.810888"
         id="rect1660"
         style="fill:none;fill-opacity:1;stroke:#000000;stroke-width:1.8;stroke-linecap:round;stroke-linejoin:round;stroke-miterlimit:4;stroke-dasharray:none;stroke-opacity:0.02" />
      <rect
         style="fill:none;fill-opacity:1;stroke:#000000;stroke-width:2;stroke-linecap:round;stroke-linejoin:round;stroke-miterlimit:4;stroke-dasharray:none;stroke-opacity:0.02"
         id="rect1662"
         width="29.810888"
         height="29.810888"
         x="69.839508"
         y="40.709618"
         rx="6.6098609"
         ry="6.6098609" />
      <rect
         ry="6.6098609"
         rx="6.6098609"
         y="40.709618"
         x="69.839508"
         height="29.810888"
         width="29.810888"
         id="rect1664"
         style="fill:none;fill-opacity:1;stroke:#000000;stroke-width:2.2;stroke-linecap:round;stroke-linejoin:round;stroke-miterlimit:4;stroke-dasharray:none;stroke-opacity:0.02" />
      <rect
         style="fill:none;fill-opacity:1;stroke:#000000;stroke-width:2.6;stroke-linecap:round;stroke-linejoin:round;stroke-miterlimit:4;stroke-dasharray:none;stroke-opacity:0.02"
         id="rect1666"
         width="29.810888"
         height="29.810888"
         x="69.839508"
         y="40.709618"
         rx="6.6098609"
         ry="6.6098609" />
      <rect
         ry="6.6098609"
         rx="6.6098609"
         y="40.709618"
         x="69.839508"
         height="29.810888"
         width="29.810888"
         id="rect1668"
         style="fill:none;fill-opacity:1;stroke:#000000;stroke-width:3;stroke-linecap:round;stroke-linejoin:round;stroke-miterlimit:4;stroke-dasharray:none;stroke-opacity:0.02" />
      <rect
         style="fill:none;fill-opacity:1;stroke:#000000;stroke-width:3.4;stroke-linecap:round;stroke-linejoin:round;stroke-miterlimit:4;stroke-dasharray:none;stroke-opacity:0.02"
         id="rect1670"
         width="29.810888"
         height="29.810888"
         x="69.839508"
         y="40.709618"
         rx="6.6098609"
         ry="6.6098609" />
      <rect
         ry="6.6098609"
         rx="6.6098609"
         y="40.709618"
         x="69.839508"
         height="29.810888"
         width="29.810888"
         id="rect1672"
         style="fill:none;fill-opacity:1;stroke:#000000;stroke-width:3.8;stroke-linecap:round;stroke-linejoin:round;stroke-miterlimit:4;stroke-dasharray:none;stroke-opacity:0.02" />
      <rect
         style="fill:none;fill-opacity:1;stroke:#000000;stroke-width:4.2;stroke-linecap:round;stroke-linejoin:round;stroke-miterlimit:4;stroke-dasharray:none;stroke-opacity:0.02"
         id="rect1674"
         width="29.810888"
         height="29.810888"
         x="69.839508"
         y="40.709618"
         rx="6.6098609"
         ry="6.6098609" />
      <rect
         ry="6.6098609"
         rx="6.6098609"
         y="40.709618"
         x="69.839508"
         height="29.810888"
         width="29.810888"
         id="rect1676"
         style="fill:none;fill-opacity:1;stroke:#000000;stroke-width:4.6;stroke-linecap:round;stroke-linejoin:round;stroke-miterlimit:4;stroke-dasharray:none;stroke-opacity:0.02" />
      <rect
         style="fill:none;fill-opacity:1;stroke:#000000;stroke-width:5;stroke-linecap:round;stroke-linejoin:round;stroke-miterlimit:4;stroke-dasharray:none;stroke-opacity:0.02"
         id="rect1678"
         width="29.810888"
         height="29.810888"
         x="69.839508"
         y="40.709618"
         rx="6.6098609"
         ry="6.6098609" />
    </g>
    <rect
       style="fill:url(#radialGradient1328);fill-opacity:1;stroke-width:2.68769;stroke-linecap:round;stroke-linejoin:round"
       id="rect910"
       width="29.08744"
       height="29.08744"
       x="2.2835085"
       y="2.4875498"
       rx="6.4494534"
       ry="6.4494534" />
    <g
       id="g918"
       style="opacity:0.467436"
       transform="translate(0.12697677,0.18759626)">
      <path
         d="M 9.602879,28.081365 C 7.2076193,22.560002 6.5497105,16.372853 7.9679573,12.707315 c 0.2604986,-0.673314 0.1552079,-0.620464 2.7891297,-1.400273 0.148114,-0.04386 0.720718,-0.522239 1.272428,-1.063084 3.12347,-3.0618777 7.304485,-3.0278988 10.583361,0.08601 0.923486,0.877025 1.19254,1.035096 2.255444,1.324841 1.096267,0.29884 1.231513,0.381782 1.475544,0.904746 0.147756,0.316671 0.389555,1.20022 0.537309,1.963436 0.352007,1.818191 0.238105,5.679861 -0.229194,7.769985 -0.655974,2.934548 -2.191146,6.975915 -2.601055,6.847635 -0.111379,-0.03492 -0.452996,-0.566237 -0.759198,-1.180657 -0.531549,-1.212677 -1.469435,-2.297549 -2.424054,-2.669296 -1.62633,-0.633291 -5.555816,-0.401548 -7.202702,-0.0231 -1.886396,0.433524 -1.930683,1.298762 -2.534823,2.669826 -0.34748,0.788606 -0.637106,1.236793 -0.799263,1.236793 -0.159899,0 -0.4301975,-0.405499 -0.728265,-1.09261 z"
         fill="url(#linearGradient875)"
         id="path900"
         style="fill:#111111;fill-opacity:0.09141883;stroke-width:0.513015" />
      <path
         d="M 9.54841,27.549308 C 7.1599551,22.338777 6.5039153,16.499941 7.918133,13.040758 8.1778915,12.405349 8.0729,12.455224 10.69934,11.719315 c 0.147693,-0.04139 0.71867,-0.492839 1.268813,-1.003236 3.114596,-2.8895058 7.283733,-2.8574398 10.553294,0.08117 0.920862,0.827652 1.189152,0.976825 2.249037,1.250257 1.093151,0.282017 1.228014,0.36029 1.471352,0.853813 0.147336,0.298843 0.388448,1.132652 0.535782,1.852902 0.351007,1.715833 0.237428,5.360106 -0.228543,7.332564 -0.65411,2.769344 -2.184921,6.583198 -2.593666,6.462139 -0.111062,-0.03295 -0.451709,-0.53436 -0.75704,-1.11419 -0.53004,-1.144408 -1.465261,-2.168205 -2.417168,-2.519024 -1.62171,-0.597639 -5.540032,-0.378943 -7.18224,-0.0218 -1.881037,0.409118 -1.925198,1.225646 -2.527621,2.519525 -0.346494,0.74421 -0.635296,1.167167 -0.796992,1.167167 -0.159445,0 -0.428976,-0.382672 -0.7261973,-1.031101 z"
         fill="url(#linearGradient875)"
         id="path904"
         style="fill:#111111;fill-opacity:0.13108359;stroke-width:0.497657" />
      <path
         d="M 9.4080618,26.771752 C 7.0196069,21.665455 6.3635671,15.943421 7.7777848,12.553437 c 0.2597585,-0.622698 0.154767,-0.573821 2.7812072,-1.295008 0.147693,-0.04056 0.71867,-0.48298 1.268813,-0.983167 3.114596,-2.8317031 7.283733,-2.8002785 10.553294,0.07955 0.920862,0.811095 1.189152,0.957284 2.249037,1.225247 1.093151,0.276375 1.228014,0.353082 1.471352,0.836733 0.147336,0.292864 0.388448,1.109994 0.535782,1.815835 0.351007,1.681509 0.237428,5.252881 -0.228543,7.185881 -0.65411,2.713945 -2.184921,6.451505 -2.593666,6.332868 -0.111062,-0.03229 -0.451709,-0.523671 -0.75704,-1.091902 -0.53004,-1.121514 -1.465261,-2.124831 -2.417168,-2.468632 -1.62171,-0.585684 -5.540032,-0.371363 -7.18224,-0.02136 -1.881037,0.400934 -1.925198,1.201128 -2.527621,2.469123 -0.346494,0.729323 -0.635296,1.143819 -0.796992,1.143819 -0.1594452,0 -0.4289762,-0.375017 -0.7261975,-1.010474 z"
         fill="url(#linearGradient875)"
         id="path906"
         style="fill:#111111;fill-opacity:0.24052647;stroke-width:0.492654" />
      <path
         d="M 9.4337717,26.105625 C 7.0453168,20.999328 6.389277,15.277294 7.8034947,11.88731 c 0.2597585,-0.622698 0.154767,-0.573821 2.7812073,-1.295008 0.147693,-0.04056 0.71867,-0.48298 1.268813,-0.9831671 3.114596,-2.8317031 7.283733,-2.8002785 10.553294,0.07955 0.920862,0.8110951 1.189152,0.9572841 2.249037,1.2252471 1.093151,0.276375 1.228014,0.353082 1.471352,0.836733 0.147336,0.292864 0.388448,1.109994 0.535782,1.815835 0.351007,1.681509 0.237428,5.252881 -0.228543,7.185881 -0.65411,2.713945 -2.184921,6.451505 -2.593666,6.332868 -0.111062,-0.03229 -0.451709,-0.523671 -0.75704,-1.091902 -0.53004,-1.121514 -1.465261,-2.124831 -2.417168,-2.468632 -1.62171,-0.585684 -5.540032,-0.371363 -7.18224,-0.02136 -1.881037,0.400934 -1.925198,1.201128 -2.527621,2.469123 -0.346494,0.729323 -0.635296,1.143819 -0.796992,1.143819 -0.159445,0 -0.4289763,-0.375017 -0.7261976,-1.010474 z"
         fill="url(#linearGradient875)"
         id="path908"
         style="fill:#111111;fill-opacity:0.42167;stroke-width:0.492654" />
    </g>
    <path
       d="m 9.5916991,25.561797 c -2.294179,-4.953288 -2.924324,-10.503862 -1.565927,-13.792265 0.249505,-0.604039 0.148658,-0.556627 2.6714279,-1.256204 0.141864,-0.03935 0.690304,-0.468507 1.218732,-0.9537058 2.991659,-2.7468512 6.996234,-2.7163683 10.136741,0.07716 0.884515,0.7867908 1.142215,0.9285978 2.160264,1.1885318 1.050005,0.268093 1.179543,0.342501 1.413276,0.81166 0.141521,0.284089 0.373116,1.076733 0.514635,1.761424 0.337152,1.631124 0.228057,5.095479 -0.219522,6.970557 -0.628292,2.632622 -2.09868,6.258186 -2.49129,6.143104 -0.106679,-0.03133 -0.43388,-0.507978 -0.72716,-1.059183 -0.509118,-1.087908 -1.407425,-2.061161 -2.321759,-2.39466 -1.557698,-0.568135 -5.32136,-0.360235 -6.898747,-0.02072 -1.80679,0.388921 -1.849208,1.165137 -2.427853,2.395137 -0.332816,0.707469 -0.61022,1.109543 -0.765534,1.109543 -0.153151,0 -0.4120439,-0.363778 -0.6975329,-0.980195 z"
       fill="url(#linearGradient875)"
       id="path910"
       style="fill:url(#radialGradient912);fill-opacity:1;stroke-width:0.475545" />
  </g>
</svg>
