<?xml version="1.0" encoding="UTF-8" standalone="no"?>
<svg
   xmlns:dc="http://purl.org/dc/elements/1.1/"
   xmlns:cc="http://creativecommons.org/ns#"
   xmlns:rdf="http://www.w3.org/1999/02/22-rdf-syntax-ns#"
   xmlns:svg="http://www.w3.org/2000/svg"
   xmlns="http://www.w3.org/2000/svg"
   xmlns:xlink="http://www.w3.org/1999/xlink"
   xmlns:sodipodi="http://sodipodi.sourceforge.net/DTD/sodipodi-0.dtd"
   xmlns:inkscape="http://www.inkscape.org/namespaces/inkscape"
   width="128"
   height="128"
   viewBox="0 0 33.866666 33.866668"
   version="1.1"
   id="svg1540"
   inkscape:version="1.0.1 (3bc2e813f5, 2020-09-07)"
   sodipodi:docname="resharper.svg">
  <defs
     id="defs1534">
    <linearGradient
       gradientUnits="userSpaceOnUse"
       y2="4.8062401"
       x2="4.3908925"
       y1="30.914423"
       x1="13.478057"
       id="linearGradient4677"
       xlink:href="#linearGradient4675"
       inkscape:collect="always"
       gradientTransform="translate(-0.06330403,-0.0606885)" />
    <linearGradient
       id="linearGradient4675"
       inkscape:collect="always">
      <stop
         id="stop4671"
         offset="0"
         style="stop-color:#d7742f;stop-opacity:1" />
      <stop
         id="stop4673"
         offset="1"
         style="stop-color:#ffec66;stop-opacity:1" />
    </linearGradient>
    <linearGradient
       inkscape:collect="always"
       xlink:href="#linearGradient1456"
       id="linearGradient1458"
       x1="17.201929"
       y1="28.287624"
       x2="17.201929"
       y2="6.3047051"
       gradientUnits="userSpaceOnUse"
       gradientTransform="translate(-0.06330603,-0.0606885)" />
    <linearGradient
       inkscape:collect="always"
       id="linearGradient1456">
      <stop
         style="stop-color:#0d0d0d;stop-opacity:1;"
         offset="0"
         id="stop1452" />
      <stop
         style="stop-color:#3c3c3c;stop-opacity:1"
         offset="1"
         id="stop1454" />
    </linearGradient>
    <linearGradient
       inkscape:collect="always"
       xlink:href="#linearGradient1464"
       id="linearGradient1466"
       x1="17.266722"
       y1="26.283102"
       x2="17.266722"
       y2="7.6410527"
       gradientUnits="userSpaceOnUse"
       gradientTransform="translate(-0.06330603,-0.0606885)" />
    <linearGradient
       inkscape:collect="always"
       id="linearGradient1464">
      <stop
         style="stop-color:#343434;stop-opacity:1"
         offset="0"
         id="stop1460" />
      <stop
         style="stop-color:#0d0d0d;stop-opacity:1"
         offset="1"
         id="stop1462" />
    </linearGradient>
  </defs>
  <sodipodi:namedview
     id="base"
     pagecolor="#ffffff"
     bordercolor="#666666"
     borderopacity="1.0"
     inkscape:pageopacity="0.0"
     inkscape:pageshadow="2"
     inkscape:zoom="2.8"
     inkscape:cx="60.172477"
     inkscape:cy="39.652751"
     inkscape:document-units="mm"
     inkscape:current-layer="layer1"
     inkscape:document-rotation="0"
     showgrid="false"
     units="px"
     inkscape:window-width="1514"
     inkscape:window-height="941"
     inkscape:window-x="50"
     inkscape:window-y="27"
     inkscape:window-maximized="0" />
  <metadata
     id="metadata1537">
    <rdf:RDF>
      <cc:Work
         rdf:about="">
        <dc:format>image/svg+xml</dc:format>
        <dc:type
           rdf:resource="http://purl.org/dc/dcmitype/StillImage" />
        <dc:title></dc:title>
      </cc:Work>
    </rdf:RDF>
  </metadata>
  <g
     inkscape:label="Capa 1"
     inkscape:groupmode="layer"
     id="layer1">
    <g
       id="g1702"
       transform="matrix(0.97573206,0,0,0.97573206,-65.81169,-37.263781)"
       style="opacity:0.295">
      <rect
         style="fill:none;fill-opacity:1;stroke:#000000;stroke-width:0.1;stroke-linecap:round;stroke-linejoin:round;stroke-miterlimit:4;stroke-dasharray:none;stroke-opacity:0.02"
         id="rect1634"
         width="29.810888"
         height="29.810888"
         x="69.839508"
         y="40.709618"
         rx="6.6098609"
         ry="6.6098609" />
      <rect
         ry="6.6098609"
         rx="6.6098609"
         y="40.709618"
         x="69.839508"
         height="29.810888"
         width="29.810888"
         id="rect1638"
         style="fill:none;fill-opacity:1;stroke:#000000;stroke-width:0.2;stroke-linecap:round;stroke-linejoin:round;stroke-miterlimit:4;stroke-dasharray:none;stroke-opacity:0.02" />
      <rect
         style="fill:none;fill-opacity:1;stroke:#000000;stroke-width:0.3;stroke-linecap:round;stroke-linejoin:round;stroke-miterlimit:4;stroke-dasharray:none;stroke-opacity:0.02"
         id="rect1640"
         width="29.810888"
         height="29.810888"
         x="69.839508"
         y="40.709618"
         rx="6.6098609"
         ry="6.6098609" />
      <rect
         ry="6.6098609"
         rx="6.6098609"
         y="40.709618"
         x="69.839508"
         height="29.810888"
         width="29.810888"
         id="rect1642"
         style="fill:none;fill-opacity:1;stroke:#000000;stroke-width:0.4;stroke-linecap:round;stroke-linejoin:round;stroke-miterlimit:4;stroke-dasharray:none;stroke-opacity:0.02" />
      <rect
         style="fill:none;fill-opacity:1;stroke:#000000;stroke-width:0.5;stroke-linecap:round;stroke-linejoin:round;stroke-miterlimit:4;stroke-dasharray:none;stroke-opacity:0.02"
         id="rect1644"
         width="29.810888"
         height="29.810888"
         x="69.839508"
         y="40.709618"
         rx="6.6098609"
         ry="6.6098609" />
      <rect
         ry="6.6098609"
         rx="6.6098609"
         y="40.709618"
         x="69.839508"
         height="29.810888"
         width="29.810888"
         id="rect1646"
         style="fill:none;fill-opacity:1;stroke:#000000;stroke-width:0.6;stroke-linecap:round;stroke-linejoin:round;stroke-miterlimit:4;stroke-dasharray:none;stroke-opacity:0.02" />
      <rect
         style="fill:none;fill-opacity:1;stroke:#000000;stroke-width:0.7;stroke-linecap:round;stroke-linejoin:round;stroke-miterlimit:4;stroke-dasharray:none;stroke-opacity:0.02"
         id="rect1648"
         width="29.810888"
         height="29.810888"
         x="69.839508"
         y="40.709618"
         rx="6.6098609"
         ry="6.6098609" />
      <rect
         ry="6.6098609"
         rx="6.6098609"
         y="40.709618"
         x="69.839508"
         height="29.810888"
         width="29.810888"
         id="rect1650"
         style="fill:none;fill-opacity:1;stroke:#000000;stroke-width:0.8;stroke-linecap:round;stroke-linejoin:round;stroke-miterlimit:4;stroke-dasharray:none;stroke-opacity:0.02" />
      <rect
         style="fill:none;fill-opacity:1;stroke:#000000;stroke-width:1;stroke-linecap:round;stroke-linejoin:round;stroke-miterlimit:4;stroke-dasharray:none;stroke-opacity:0.02"
         id="rect1652"
         width="29.810888"
         height="29.810888"
         x="69.839508"
         y="40.709618"
         rx="6.6098609"
         ry="6.6098609" />
      <rect
         ry="6.6098609"
         rx="6.6098609"
         y="40.709618"
         x="69.839508"
         height="29.810888"
         width="29.810888"
         id="rect1654"
         style="fill:none;fill-opacity:1;stroke:#000000;stroke-width:1.2;stroke-linecap:round;stroke-linejoin:round;stroke-miterlimit:4;stroke-dasharray:none;stroke-opacity:0.02" />
      <rect
         style="fill:none;fill-opacity:1;stroke:#000000;stroke-width:1.4;stroke-linecap:round;stroke-linejoin:round;stroke-miterlimit:4;stroke-dasharray:none;stroke-opacity:0.02"
         id="rect1656"
         width="29.810888"
         height="29.810888"
         x="69.839508"
         y="40.709618"
         rx="6.6098609"
         ry="6.6098609" />
      <rect
         ry="6.6098609"
         rx="6.6098609"
         y="40.709618"
         x="69.839508"
         height="29.810888"
         width="29.810888"
         id="rect1658"
         style="fill:none;fill-opacity:1;stroke:#000000;stroke-width:1.6;stroke-linecap:round;stroke-linejoin:round;stroke-miterlimit:4;stroke-dasharray:none;stroke-opacity:0.02" />
      <rect
         style="fill:none;fill-opacity:1;stroke:#000000;stroke-width:1.8;stroke-linecap:round;stroke-linejoin:round;stroke-miterlimit:4;stroke-dasharray:none;stroke-opacity:0.02"
         id="rect1660"
         width="29.810888"
         height="29.810888"
         x="69.839508"
         y="40.709618"
         rx="6.6098609"
         ry="6.6098609" />
      <rect
         ry="6.6098609"
         rx="6.6098609"
         y="40.709618"
         x="69.839508"
         height="29.810888"
         width="29.810888"
         id="rect1662"
         style="fill:none;fill-opacity:1;stroke:#000000;stroke-width:2;stroke-linecap:round;stroke-linejoin:round;stroke-miterlimit:4;stroke-dasharray:none;stroke-opacity:0.02" />
      <rect
         style="fill:none;fill-opacity:1;stroke:#000000;stroke-width:2.2;stroke-linecap:round;stroke-linejoin:round;stroke-miterlimit:4;stroke-dasharray:none;stroke-opacity:0.02"
         id="rect1664"
         width="29.810888"
         height="29.810888"
         x="69.839508"
         y="40.709618"
         rx="6.6098609"
         ry="6.6098609" />
      <rect
         ry="6.6098609"
         rx="6.6098609"
         y="40.709618"
         x="69.839508"
         height="29.810888"
         width="29.810888"
         id="rect1666"
         style="fill:none;fill-opacity:1;stroke:#000000;stroke-width:2.6;stroke-linecap:round;stroke-linejoin:round;stroke-miterlimit:4;stroke-dasharray:none;stroke-opacity:0.02" />
      <rect
         style="fill:none;fill-opacity:1;stroke:#000000;stroke-width:3;stroke-linecap:round;stroke-linejoin:round;stroke-miterlimit:4;stroke-dasharray:none;stroke-opacity:0.02"
         id="rect1668"
         width="29.810888"
         height="29.810888"
         x="69.839508"
         y="40.709618"
         rx="6.6098609"
         ry="6.6098609" />
      <rect
         ry="6.6098609"
         rx="6.6098609"
         y="40.709618"
         x="69.839508"
         height="29.810888"
         width="29.810888"
         id="rect1670"
         style="fill:none;fill-opacity:1;stroke:#000000;stroke-width:3.4;stroke-linecap:round;stroke-linejoin:round;stroke-miterlimit:4;stroke-dasharray:none;stroke-opacity:0.02" />
      <rect
         style="fill:none;fill-opacity:1;stroke:#000000;stroke-width:3.8;stroke-linecap:round;stroke-linejoin:round;stroke-miterlimit:4;stroke-dasharray:none;stroke-opacity:0.02"
         id="rect1672"
         width="29.810888"
         height="29.810888"
         x="69.839508"
         y="40.709618"
         rx="6.6098609"
         ry="6.6098609" />
      <rect
         ry="6.6098609"
         rx="6.6098609"
         y="40.709618"
         x="69.839508"
         height="29.810888"
         width="29.810888"
         id="rect1674"
         style="fill:none;fill-opacity:1;stroke:#000000;stroke-width:4.2;stroke-linecap:round;stroke-linejoin:round;stroke-miterlimit:4;stroke-dasharray:none;stroke-opacity:0.02" />
      <rect
         style="fill:none;fill-opacity:1;stroke:#000000;stroke-width:4.6;stroke-linecap:round;stroke-linejoin:round;stroke-miterlimit:4;stroke-dasharray:none;stroke-opacity:0.02"
         id="rect1676"
         width="29.810888"
         height="29.810888"
         x="69.839508"
         y="40.709618"
         rx="6.6098609"
         ry="6.6098609" />
      <rect
         ry="6.6098609"
         rx="6.6098609"
         y="40.709618"
         x="69.839508"
         height="29.810888"
         width="29.810888"
         id="rect1678"
         style="fill:none;fill-opacity:1;stroke:#000000;stroke-width:5;stroke-linecap:round;stroke-linejoin:round;stroke-miterlimit:4;stroke-dasharray:none;stroke-opacity:0.02" />
    </g>
    <rect
       style="fill:url(#linearGradient4677);fill-opacity:1;stroke-width:2.68801;stroke-linecap:round;stroke-linejoin:round;stroke-miterlimit:4;stroke-dasharray:none"
       id="rect849"
       width="29.08744"
       height="29.08744"
       x="2.3329599"
       y="2.4578965"
       rx="6.4494534"
       ry="6.4494534" />
    <rect
       style="opacity:1;fill:url(#linearGradient1458);fill-opacity:1;stroke:none;stroke-width:0.670983;stroke-linecap:round;stroke-linejoin:round;stroke-miterlimit:4;stroke-dasharray:none;stroke-opacity:1"
       id="rect1448"
       width="24.711782"
       height="23.96294"
       x="4.5207872"
       y="5.0201454"
       rx="4.0601048"
       ry="4.0601048" />
    <rect
       ry="2.6569397"
       rx="2.6569397"
       y="7.2898498"
       x="6.8614211"
       height="19.423532"
       width="20.030519"
       id="rect1450"
       style="opacity:1;fill:url(#linearGradient1466);fill-opacity:1;stroke:none;stroke-width:0.670983;stroke-linecap:round;stroke-linejoin:round;stroke-miterlimit:4;stroke-dasharray:none;stroke-opacity:1" />
    <path
       id="path957-9"
       d="m 15.380736,22.273306 0.0094,-0.500783 -2.85061,-0.05359 -2.8506111,-0.05354 -0.03144,0.414106 c -0.017251,0.227597 -0.013949,0.462343 0.0074,0.521319 0.03224,0.0891 0.5187901,0.114153 2.8726221,0.140246 l 2.833784,0.03304 z m 2.687357,-4.002045 c 0.02703,-0.06652 0.05388,-0.376796 0.05972,-0.689507 l 0.01067,-0.568538 0.674568,-0.0097 0.67457,-0.0097 0.01229,-0.65488 0.01229,-0.654859 -0.673706,-0.03496 -0.673704,-0.03496 0.01067,-0.568514 c 0.01556,-0.828808 0.03017,-0.812006 -0.716647,-0.826038 -0.746808,-0.01403 -0.731566,-0.03042 -0.747182,0.798527 l -0.01066,0.568514 -0.674566,0.0097 -0.674569,0.0097 -0.01228,0.654847 -0.0123,0.654892 0.673707,0.03496 0.673703,0.03496 -0.01066,0.568514 c -0.01557,0.828774 -0.03014,0.811981 0.716655,0.826005 0.511051,0.0096 0.648195,-0.01229 0.687401,-0.108847 z m -6.92107,-0.668716 c 0.09706,-0.0934 0.126704,-0.298057 0.139177,-0.960759 l 0.01582,-0.841984 0.52877,0.01 0.528773,0.01 0.548022,0.863699 c 0.301412,0.475023 0.617748,0.914489 0.702975,0.976556 0.228672,0.166676 1.49423,0.182907 1.560245,0.02011 0.02979,-0.07354 -0.196356,-0.49268 -0.598925,-1.109505 -0.355788,-0.545169 -0.645622,-1.025859 -0.644074,-1.068211 0.0015,-0.04248 0.143633,-0.153924 0.315758,-0.248021 1.091882,-0.596642 1.284849,-2.387568 0.355057,-3.29526 -0.336232,-0.328273 -0.621784,-0.470486 -1.167585,-0.582155 -0.581338,-0.120186 -3.235259,-0.172177 -3.4369767,-0.06906 -0.1448974,0.07391 -0.1526394,0.190619 -0.2082995,3.152162 -0.06629,3.528508 -0.1328989,3.229348 0.7234172,3.249348 0.367435,0.0086 0.549768,-0.02202 0.637833,-0.106753 z m 0.198438,-4.115717 0.01621,-0.862054 0.930416,0.04501 0.93041,0.04502 0.22001,0.255592 c 0.304233,0.353576 0.296378,0.772423 -0.02087,1.114602 l -0.229341,0.247311 -0.931502,0.0082 -0.931504,0.0082 0.01621,-0.862056 z m 9.100529,1.28386 c 0.02705,-0.06664 0.05387,-0.378165 0.05978,-0.692512 l 0.01073,-0.571534 0.563068,0.0107 c 0.780596,0.01464 0.837838,-0.03804 0.822668,-0.756974 l -0.01216,-0.576562 -0.673706,-0.03496 -0.673706,-0.03496 0.01068,-0.568549 c 0.01555,-0.828762 0.03017,-0.811963 -0.716655,-0.826005 -0.746805,-0.01402 -0.731646,-0.0301 -0.747174,0.798505 l -0.01068,0.568549 -0.674566,0.0097 -0.674566,0.0097 -0.03421,0.60924 c -0.02442,0.435387 -0.0061,0.627807 0.06439,0.674407 0.05406,0.03648 0.367002,0.07179 0.695647,0.07758 l 0.597081,0.01232 -0.01073,0.571533 c -0.01563,0.832162 -0.03049,0.814975 0.716594,0.829012 0.511056,0.0096 0.6482,-0.01229 0.687404,-0.108847 z"
       inkscape:connector-curvature="0"
       style="fill:#ffffff;stroke-width:0.575315" />
  </g>
</svg>
