<?xml version="1.0" encoding="UTF-8" standalone="no"?>
<svg
   xmlns:svg="http://www.w3.org/2000/svg"
   xmlns="http://www.w3.org/2000/svg"
   xmlns:xlink="http://www.w3.org/1999/xlink"
   xmlns:sodipodi="http://sodipodi.sourceforge.net/DTD/sodipodi-0.dtd"
   xmlns:inkscape="http://www.inkscape.org/namespaces/inkscape"
   inkscape:version="1.1-dev (1:0.92.0+devel+202004260039+9758c7a)"
   sodipodi:docname="rhythmbox.svg"
   id="svg6"
   version="1.1"
   viewBox="0 0 33.866666 33.866667"
   height="128"
   width="128">
  <defs
     id="defs2">
    <linearGradient
       id="linearGradient1630"
       inkscape:collect="always">
      <stop
         id="stop1626"
         offset="0"
         style="stop-color:#f5f9fb;stop-opacity:1" />
      <stop
         id="stop1628"
         offset="1"
         style="stop-color:#f9fafc;stop-opacity:1" />
    </linearGradient>
    <linearGradient
       id="lgrad"
       x1="32"
       y1="32"
       x2="32"
       y2="992"
       gradientUnits="userSpaceOnUse"
       gradientTransform="translate(0,-896)">
      <stop
         offset="0%"
         stop-color="#f8f8f8"
         id="stop2" />
      <stop
         offset="100%"
         stop-color="#ccc"
         id="stop4" />
    </linearGradient>
    <radialGradient
       id="rgrad"
       x1="0%"
       y1="0%"
       x2="0%"
       y2="100%"
       fx="512"
       fy="494.39999"
       cx="512"
       cy="512"
       r="440"
       gradientUnits="userSpaceOnUse"
       gradientTransform="translate(0,-896)">
      <stop
         offset="0%"
         stop-color="#00f0ff"
         id="stop7" />
      <stop
         offset="100%"
         stop-color="#0070e0"
         id="stop9" />
    </radialGradient>
    <radialGradient
       gradientTransform="matrix(0.03099337,0,0,0.03032562,85.198869,42.985295)"
       gradientUnits="userSpaceOnUse"
       r="440"
       cy="306.1813"
       cx="523.57568"
       fy="306.1813"
       fx="523.57568"
       y2="100%"
       x2="0%"
       y1="0%"
       x1="0%"
       id="rgrad-3">
      <stop
         style="stop-color:#03d7e4;stop-opacity:1"
         id="stop7-6"
         stop-color="#00f0ff"
         offset="0%" />
      <stop
         id="stop9-7"
         stop-color="#0070e0"
         offset="100%" />
    </radialGradient>
    <linearGradient
       gradientTransform="matrix(0.97573206,0,0,0.97573206,-111.77632,-37.203091)"
       gradientUnits="userSpaceOnUse"
       y2="70.679932"
       x2="132.21078"
       y1="42.151531"
       x1="132.21078"
       id="linearGradient1632"
       xlink:href="#linearGradient1630"
       inkscape:collect="always" />
    <linearGradient
       inkscape:collect="always"
       id="linearGradient945">
      <stop
         style="stop-color:#8763fe;stop-opacity:1;"
         offset="0"
         id="stop941" />
      <stop
         id="stop967"
         offset="0.18737273"
         style="stop-color:#7e68fe;stop-opacity:1" />
      <stop
         id="stop965"
         offset="0.30629727"
         style="stop-color:#7d69fd;stop-opacity:1" />
      <stop
         id="stop963"
         offset="0.5528459"
         style="stop-color:#8b61f4;stop-opacity:1" />
      <stop
         id="stop961"
         offset="0.71020466"
         style="stop-color:#a359df;stop-opacity:1" />
      <stop
         id="stop951"
         offset="0.87117851"
         style="stop-color:#c754c0;stop-opacity:1" />
      <stop
         style="stop-color:#de549e;stop-opacity:0"
         offset="1"
         id="stop943" />
    </linearGradient>
    <linearGradient
       inkscape:collect="always"
       id="linearGradient935">
      <stop
         style="stop-color:#5793fa;stop-opacity:1;"
         offset="0"
         id="stop931" />
      <stop
         style="stop-color:#5793fa;stop-opacity:0;"
         offset="1"
         id="stop933" />
    </linearGradient>
    <linearGradient
       inkscape:collect="always"
       id="linearGradient917">
      <stop
         style="stop-color:#49abf5;stop-opacity:1;"
         offset="0"
         id="stop913" />
      <stop
         id="stop927"
         offset="0.30243069"
         style="stop-color:#4daaf6;stop-opacity:1" />
      <stop
         id="stop925"
         offset="0.5655883"
         style="stop-color:#7f85e1;stop-opacity:1" />
      <stop
         id="stop923"
         offset="0.79700154"
         style="stop-color:#ba6ab8;stop-opacity:1" />
      <stop
         style="stop-color:#d4629f;stop-opacity:0"
         offset="1"
         id="stop915" />
    </linearGradient>
    <linearGradient
       inkscape:collect="always"
       id="linearGradient907">
      <stop
         style="stop-color:#f4587a;stop-opacity:1"
         offset="0"
         id="stop903" />
      <stop
         style="stop-color:#f15c7c;stop-opacity:1"
         offset="1"
         id="stop905" />
    </linearGradient>
    <linearGradient
       inkscape:collect="always"
       id="linearGradient899">
      <stop
         style="stop-color:#f05c7c;stop-opacity:1"
         offset="0"
         id="stop895" />
      <stop
         style="stop-color:#e4618a;stop-opacity:1"
         offset="1"
         id="stop897" />
    </linearGradient>
    <linearGradient
       inkscape:collect="always"
       xlink:href="#linearGradient899"
       id="linearGradient901"
       x1="338.65604"
       y1="39.819786"
       x2="361.4238"
       y2="35.209618"
       gradientUnits="userSpaceOnUse" />
    <linearGradient
       inkscape:collect="always"
       xlink:href="#linearGradient907"
       id="linearGradient909"
       x1="318.56171"
       y1="43.831882"
       x2="338.9473"
       y2="38.408154"
       gradientUnits="userSpaceOnUse" />
    <linearGradient
       inkscape:collect="always"
       xlink:href="#linearGradient917"
       id="linearGradient921"
       gradientUnits="userSpaceOnUse"
       x1="353.23526"
       y1="92.65889"
       x2="349.17056"
       y2="47.787571" />
    <linearGradient
       inkscape:collect="always"
       xlink:href="#linearGradient935"
       id="linearGradient937"
       x1="337.89465"
       y1="97.452835"
       x2="346.86948"
       y2="90.166039"
       gradientUnits="userSpaceOnUse" />
    <linearGradient
       inkscape:collect="always"
       xlink:href="#linearGradient945"
       id="linearGradient949"
       gradientUnits="userSpaceOnUse"
       x1="311.51086"
       y1="107.01833"
       x2="324.03204"
       y2="54.408154" />
  </defs>
  <sodipodi:namedview
     inkscape:window-maximized="1"
     inkscape:window-y="30"
     inkscape:window-x="0"
     inkscape:window-height="1024"
     inkscape:window-width="1920"
     units="px"
     showgrid="false"
     inkscape:current-layer="layer1"
     inkscape:document-units="mm"
     inkscape:cy="93.122961"
     inkscape:cx="88.787759"
     inkscape:zoom="0.49497475"
     inkscape:pageshadow="2"
     inkscape:pageopacity="0.0"
     borderopacity="1.0"
     bordercolor="#666666"
     pagecolor="#ffffff"
     id="base" />
  <g
     id="layer1"
     inkscape:groupmode="layer"
     inkscape:label="Layer 1">
    <g
       style="opacity:0.2967651"
       transform="matrix(0.97573206,0,0,0.97573206,-65.748383,-37.203094)"
       id="g1702">
      <rect
         ry="6.6098609"
         rx="6.6098609"
         y="40.709618"
         x="69.839508"
         height="29.810888"
         width="29.810888"
         id="rect1634"
         style="fill:none;fill-opacity:1;stroke:#000000;stroke-width:0.1;stroke-linecap:round;stroke-linejoin:round;stroke-miterlimit:4;stroke-dasharray:none;stroke-opacity:0.02" />
      <rect
         style="fill:none;fill-opacity:1;stroke:#000000;stroke-width:0.2;stroke-linecap:round;stroke-linejoin:round;stroke-miterlimit:4;stroke-dasharray:none;stroke-opacity:0.02"
         id="rect1638"
         width="29.810888"
         height="29.810888"
         x="69.839508"
         y="40.709618"
         rx="6.6098609"
         ry="6.6098609" />
      <rect
         ry="6.6098609"
         rx="6.6098609"
         y="40.709618"
         x="69.839508"
         height="29.810888"
         width="29.810888"
         id="rect1640"
         style="fill:none;fill-opacity:1;stroke:#000000;stroke-width:0.3;stroke-linecap:round;stroke-linejoin:round;stroke-miterlimit:4;stroke-dasharray:none;stroke-opacity:0.02" />
      <rect
         style="fill:none;fill-opacity:1;stroke:#000000;stroke-width:0.4;stroke-linecap:round;stroke-linejoin:round;stroke-miterlimit:4;stroke-dasharray:none;stroke-opacity:0.02"
         id="rect1642"
         width="29.810888"
         height="29.810888"
         x="69.839508"
         y="40.709618"
         rx="6.6098609"
         ry="6.6098609" />
      <rect
         ry="6.6098609"
         rx="6.6098609"
         y="40.709618"
         x="69.839508"
         height="29.810888"
         width="29.810888"
         id="rect1644"
         style="fill:none;fill-opacity:1;stroke:#000000;stroke-width:0.5;stroke-linecap:round;stroke-linejoin:round;stroke-miterlimit:4;stroke-dasharray:none;stroke-opacity:0.02" />
      <rect
         style="fill:none;fill-opacity:1;stroke:#000000;stroke-width:0.6;stroke-linecap:round;stroke-linejoin:round;stroke-miterlimit:4;stroke-dasharray:none;stroke-opacity:0.02"
         id="rect1646"
         width="29.810888"
         height="29.810888"
         x="69.839508"
         y="40.709618"
         rx="6.6098609"
         ry="6.6098609" />
      <rect
         ry="6.6098609"
         rx="6.6098609"
         y="40.709618"
         x="69.839508"
         height="29.810888"
         width="29.810888"
         id="rect1648"
         style="fill:none;fill-opacity:1;stroke:#000000;stroke-width:0.7;stroke-linecap:round;stroke-linejoin:round;stroke-miterlimit:4;stroke-dasharray:none;stroke-opacity:0.02" />
      <rect
         style="fill:none;fill-opacity:1;stroke:#000000;stroke-width:0.8;stroke-linecap:round;stroke-linejoin:round;stroke-miterlimit:4;stroke-dasharray:none;stroke-opacity:0.02"
         id="rect1650"
         width="29.810888"
         height="29.810888"
         x="69.839508"
         y="40.709618"
         rx="6.6098609"
         ry="6.6098609" />
      <rect
         ry="6.6098609"
         rx="6.6098609"
         y="40.709618"
         x="69.839508"
         height="29.810888"
         width="29.810888"
         id="rect1652"
         style="fill:none;fill-opacity:1;stroke:#000000;stroke-width:1;stroke-linecap:round;stroke-linejoin:round;stroke-miterlimit:4;stroke-dasharray:none;stroke-opacity:0.02" />
      <rect
         style="fill:none;fill-opacity:1;stroke:#000000;stroke-width:1.2;stroke-linecap:round;stroke-linejoin:round;stroke-miterlimit:4;stroke-dasharray:none;stroke-opacity:0.02"
         id="rect1654"
         width="29.810888"
         height="29.810888"
         x="69.839508"
         y="40.709618"
         rx="6.6098609"
         ry="6.6098609" />
      <rect
         ry="6.6098609"
         rx="6.6098609"
         y="40.709618"
         x="69.839508"
         height="29.810888"
         width="29.810888"
         id="rect1656"
         style="fill:none;fill-opacity:1;stroke:#000000;stroke-width:1.4;stroke-linecap:round;stroke-linejoin:round;stroke-miterlimit:4;stroke-dasharray:none;stroke-opacity:0.02" />
      <rect
         style="fill:none;fill-opacity:1;stroke:#000000;stroke-width:1.6;stroke-linecap:round;stroke-linejoin:round;stroke-miterlimit:4;stroke-dasharray:none;stroke-opacity:0.02"
         id="rect1658"
         width="29.810888"
         height="29.810888"
         x="69.839508"
         y="40.709618"
         rx="6.6098609"
         ry="6.6098609" />
      <rect
         ry="6.6098609"
         rx="6.6098609"
         y="40.709618"
         x="69.839508"
         height="29.810888"
         width="29.810888"
         id="rect1660"
         style="fill:none;fill-opacity:1;stroke:#000000;stroke-width:1.8;stroke-linecap:round;stroke-linejoin:round;stroke-miterlimit:4;stroke-dasharray:none;stroke-opacity:0.02" />
      <rect
         style="fill:none;fill-opacity:1;stroke:#000000;stroke-width:2;stroke-linecap:round;stroke-linejoin:round;stroke-miterlimit:4;stroke-dasharray:none;stroke-opacity:0.02"
         id="rect1662"
         width="29.810888"
         height="29.810888"
         x="69.839508"
         y="40.709618"
         rx="6.6098609"
         ry="6.6098609" />
      <rect
         ry="6.6098609"
         rx="6.6098609"
         y="40.709618"
         x="69.839508"
         height="29.810888"
         width="29.810888"
         id="rect1664"
         style="fill:none;fill-opacity:1;stroke:#000000;stroke-width:2.2;stroke-linecap:round;stroke-linejoin:round;stroke-miterlimit:4;stroke-dasharray:none;stroke-opacity:0.02" />
      <rect
         style="fill:none;fill-opacity:1;stroke:#000000;stroke-width:2.6;stroke-linecap:round;stroke-linejoin:round;stroke-miterlimit:4;stroke-dasharray:none;stroke-opacity:0.02"
         id="rect1666"
         width="29.810888"
         height="29.810888"
         x="69.839508"
         y="40.709618"
         rx="6.6098609"
         ry="6.6098609" />
      <rect
         ry="6.6098609"
         rx="6.6098609"
         y="40.709618"
         x="69.839508"
         height="29.810888"
         width="29.810888"
         id="rect1668"
         style="fill:none;fill-opacity:1;stroke:#000000;stroke-width:3;stroke-linecap:round;stroke-linejoin:round;stroke-miterlimit:4;stroke-dasharray:none;stroke-opacity:0.02" />
      <rect
         style="fill:none;fill-opacity:1;stroke:#000000;stroke-width:3.4;stroke-linecap:round;stroke-linejoin:round;stroke-miterlimit:4;stroke-dasharray:none;stroke-opacity:0.02"
         id="rect1670"
         width="29.810888"
         height="29.810888"
         x="69.839508"
         y="40.709618"
         rx="6.6098609"
         ry="6.6098609" />
      <rect
         ry="6.6098609"
         rx="6.6098609"
         y="40.709618"
         x="69.839508"
         height="29.810888"
         width="29.810888"
         id="rect1672"
         style="fill:none;fill-opacity:1;stroke:#000000;stroke-width:3.8;stroke-linecap:round;stroke-linejoin:round;stroke-miterlimit:4;stroke-dasharray:none;stroke-opacity:0.02" />
      <rect
         style="fill:none;fill-opacity:1;stroke:#000000;stroke-width:4.2;stroke-linecap:round;stroke-linejoin:round;stroke-miterlimit:4;stroke-dasharray:none;stroke-opacity:0.02"
         id="rect1674"
         width="29.810888"
         height="29.810888"
         x="69.839508"
         y="40.709618"
         rx="6.6098609"
         ry="6.6098609" />
      <rect
         ry="6.6098609"
         rx="6.6098609"
         y="40.709618"
         x="69.839508"
         height="29.810888"
         width="29.810888"
         id="rect1676"
         style="fill:none;fill-opacity:1;stroke:#000000;stroke-width:4.6;stroke-linecap:round;stroke-linejoin:round;stroke-miterlimit:4;stroke-dasharray:none;stroke-opacity:0.02" />
      <rect
         style="fill:none;fill-opacity:1;stroke:#000000;stroke-width:5;stroke-linecap:round;stroke-linejoin:round;stroke-miterlimit:4;stroke-dasharray:none;stroke-opacity:0.02"
         id="rect1678"
         width="29.810888"
         height="29.810888"
         x="69.839508"
         y="40.709618"
         rx="6.6098609"
         ry="6.6098609" />
    </g>
    <rect
       ry="6.4494534"
       rx="6.4494534"
       y="2.5185876"
       x="2.3962667"
       height="29.087439"
       width="29.087439"
       id="rect849"
       style="fill:url(#linearGradient1632);fill-opacity:1;stroke-width:2.68768;stroke-linecap:round;stroke-linejoin:round" />
    <g
       transform="matrix(0.94486709,0,0,0.94486709,0.32805663,0.52896112)"
       id="g4273">
      <g
         id="g1066"
         transform="matrix(0.26458333,0,0,0.26458333,-75.963322,27.5965)"
         style="opacity:0.538">
        <path
           id="path863-2"
           d="m 377.5082,-79.329457 c -0.7,-0.01403 -1.57748,0.109171 -2.67578,0.357422 l -18.19922,3.69336 -17.34179,3.425781 c -3.0722,0.65674 -3.66824,2.371606 -3.59571,5.082031 l 0.0469,42.306641 c -0.13962,2.973501 -0.46207,4.605067 -3.88282,5.152343 -12.10602,1.801889 -14.4545,5.552265 -14.38085,10.882813 0.0733,5.308775 4.37571,9.562544 10.30664,8.964844 5.20132,-0.57853 9.07593,-2.093615 11.45703,-6.904297 0.92183,-1.811914 1.23577,-5.581152 1.00781,-9.396485 l -0.0488,-33.652343 c 0.01,-2.355753 -0.38947,-3.667024 2.73242,-4.314454 l 16.34961,-3.294921 2.44336,-0.492188 v -0.0039 l 11.15821,-2.25 c 1.81449,-0.365976 2.66769,0.253898 2.69531,2.300781 l 0.0488,25.144531 c -0.13962,2.973501 -0.42887,4.335537 -3.84961,4.882813 -12.10603,1.801889 -14.48967,5.821796 -14.41602,11.152344 0.0733,5.308775 4.44407,9.293012 10.375,8.695312 5.20132,-0.57853 8.94117,-1.9236929 11.32227,-6.734375 0.92183,-1.811914 0.9971,-5.411792 1.07422,-9.294922 l -0.0312,-51.482422 c -0.002,-2.895455 -0.4957,-4.178618 -2.59571,-4.220703 z"
           style="fill:none;stroke:#111214;stroke-width:0.1;stroke-linecap:round;stroke-linejoin:round;stroke-miterlimit:4;stroke-dasharray:none;stroke-opacity:0.0117647"
           inkscape:connector-curvature="0" />
        <path
           style="fill:none;stroke:#111214;stroke-width:0.2;stroke-linecap:round;stroke-linejoin:round;stroke-miterlimit:4;stroke-dasharray:none;stroke-opacity:0.0117647"
           d="m 377.5082,-79.329457 c -0.7,-0.01403 -1.57748,0.109171 -2.67578,0.357422 l -18.19922,3.69336 -17.34179,3.425781 c -3.0722,0.65674 -3.66824,2.371606 -3.59571,5.082031 l 0.0469,42.306641 c -0.13962,2.973501 -0.46207,4.605067 -3.88282,5.152343 -12.10602,1.801889 -14.4545,5.552265 -14.38085,10.882813 0.0733,5.308775 4.37571,9.562544 10.30664,8.964844 5.20132,-0.57853 9.07593,-2.093615 11.45703,-6.904297 0.92183,-1.811914 1.23577,-5.581152 1.00781,-9.396485 l -0.0488,-33.652343 c 0.01,-2.355753 -0.38947,-3.667024 2.73242,-4.314454 l 16.34961,-3.294921 2.44336,-0.492188 v -0.0039 l 11.15821,-2.25 c 1.81449,-0.365976 2.66769,0.253898 2.69531,2.300781 l 0.0488,25.144531 c -0.13962,2.973501 -0.42887,4.335537 -3.84961,4.882813 -12.10603,1.801889 -14.48967,5.821796 -14.41602,11.152344 0.0733,5.308775 4.44407,9.293012 10.375,8.695312 5.20132,-0.57853 8.94117,-1.9236929 11.32227,-6.734375 0.92183,-1.811914 0.9971,-5.411792 1.07422,-9.294922 l -0.0312,-51.482422 c -0.002,-2.895455 -0.4957,-4.178618 -2.59571,-4.220703 z"
           id="path976"
           inkscape:connector-curvature="0" />
        <path
           id="path978"
           d="m 377.5082,-79.329457 c -0.7,-0.01403 -1.57748,0.109171 -2.67578,0.357422 l -18.19922,3.69336 -17.34179,3.425781 c -3.0722,0.65674 -3.66824,2.371606 -3.59571,5.082031 l 0.0469,42.306641 c -0.13962,2.973501 -0.46207,4.605067 -3.88282,5.152343 -12.10602,1.801889 -14.4545,5.552265 -14.38085,10.882813 0.0733,5.308775 4.37571,9.562544 10.30664,8.964844 5.20132,-0.57853 9.07593,-2.093615 11.45703,-6.904297 0.92183,-1.811914 1.23577,-5.581152 1.00781,-9.396485 l -0.0488,-33.652343 c 0.01,-2.355753 -0.38947,-3.667024 2.73242,-4.314454 l 16.34961,-3.294921 2.44336,-0.492188 v -0.0039 l 11.15821,-2.25 c 1.81449,-0.365976 2.66769,0.253898 2.69531,2.300781 l 0.0488,25.144531 c -0.13962,2.973501 -0.42887,4.335537 -3.84961,4.882813 -12.10603,1.801889 -14.48967,5.821796 -14.41602,11.152344 0.0733,5.308775 4.44407,9.293012 10.375,8.695312 5.20132,-0.57853 8.94117,-1.9236929 11.32227,-6.734375 0.92183,-1.811914 0.9971,-5.411792 1.07422,-9.294922 l -0.0312,-51.482422 c -0.002,-2.895455 -0.4957,-4.178618 -2.59571,-4.220703 z"
           style="fill:none;stroke:#111214;stroke-width:0.3;stroke-linecap:round;stroke-linejoin:round;stroke-miterlimit:4;stroke-dasharray:none;stroke-opacity:0.0117647"
           inkscape:connector-curvature="0" />
        <path
           style="fill:none;stroke:#111214;stroke-width:0.5;stroke-linecap:round;stroke-linejoin:round;stroke-miterlimit:4;stroke-dasharray:none;stroke-opacity:0.0117647"
           d="m 377.5082,-79.329457 c -0.7,-0.01403 -1.57748,0.109171 -2.67578,0.357422 l -18.19922,3.69336 -17.34179,3.425781 c -3.0722,0.65674 -3.66824,2.371606 -3.59571,5.082031 l 0.0469,42.306641 c -0.13962,2.973501 -0.46207,4.605067 -3.88282,5.152343 -12.10602,1.801889 -14.4545,5.552265 -14.38085,10.882813 0.0733,5.308775 4.37571,9.562544 10.30664,8.964844 5.20132,-0.57853 9.07593,-2.093615 11.45703,-6.904297 0.92183,-1.811914 1.23577,-5.581152 1.00781,-9.396485 l -0.0488,-33.652343 c 0.01,-2.355753 -0.38947,-3.667024 2.73242,-4.314454 l 16.34961,-3.294921 2.44336,-0.492188 v -0.0039 l 11.15821,-2.25 c 1.81449,-0.365976 2.66769,0.253898 2.69531,2.300781 l 0.0488,25.144531 c -0.13962,2.973501 -0.42887,4.335537 -3.84961,4.882813 -12.10603,1.801889 -14.48967,5.821796 -14.41602,11.152344 0.0733,5.308775 4.44407,9.293012 10.375,8.695312 5.20132,-0.57853 8.94117,-1.9236929 11.32227,-6.734375 0.92183,-1.811914 0.9971,-5.411792 1.07422,-9.294922 l -0.0312,-51.482422 c -0.002,-2.895455 -0.4957,-4.178618 -2.59571,-4.220703 z"
           id="path980"
           inkscape:connector-curvature="0" />
        <path
           id="path982"
           d="m 377.5082,-79.329457 c -0.7,-0.01403 -1.57748,0.109171 -2.67578,0.357422 l -18.19922,3.69336 -17.34179,3.425781 c -3.0722,0.65674 -3.66824,2.371606 -3.59571,5.082031 l 0.0469,42.306641 c -0.13962,2.973501 -0.46207,4.605067 -3.88282,5.152343 -12.10602,1.801889 -14.4545,5.552265 -14.38085,10.882813 0.0733,5.308775 4.37571,9.562544 10.30664,8.964844 5.20132,-0.57853 9.07593,-2.093615 11.45703,-6.904297 0.92183,-1.811914 1.23577,-5.581152 1.00781,-9.396485 l -0.0488,-33.652343 c 0.01,-2.355753 -0.38947,-3.667024 2.73242,-4.314454 l 16.34961,-3.294921 2.44336,-0.492188 v -0.0039 l 11.15821,-2.25 c 1.81449,-0.365976 2.66769,0.253898 2.69531,2.300781 l 0.0488,25.144531 c -0.13962,2.973501 -0.42887,4.335537 -3.84961,4.882813 -12.10603,1.801889 -14.48967,5.821796 -14.41602,11.152344 0.0733,5.308775 4.44407,9.293012 10.375,8.695312 5.20132,-0.57853 8.94117,-1.9236929 11.32227,-6.734375 0.92183,-1.811914 0.9971,-5.411792 1.07422,-9.294922 l -0.0312,-51.482422 c -0.002,-2.895455 -0.4957,-4.178618 -2.59571,-4.220703 z"
           style="fill:none;stroke:#111214;stroke-width:0.7;stroke-linecap:round;stroke-linejoin:round;stroke-miterlimit:4;stroke-dasharray:none;stroke-opacity:0.0117647"
           inkscape:connector-curvature="0" />
        <path
           style="fill:none;stroke:#111214;stroke-width:0.9;stroke-linecap:round;stroke-linejoin:round;stroke-miterlimit:4;stroke-dasharray:none;stroke-opacity:0.0117647"
           d="m 377.5082,-79.329457 c -0.7,-0.01403 -1.57748,0.109171 -2.67578,0.357422 l -18.19922,3.69336 -17.34179,3.425781 c -3.0722,0.65674 -3.66824,2.371606 -3.59571,5.082031 l 0.0469,42.306641 c -0.13962,2.973501 -0.46207,4.605067 -3.88282,5.152343 -12.10602,1.801889 -14.4545,5.552265 -14.38085,10.882813 0.0733,5.308775 4.37571,9.562544 10.30664,8.964844 5.20132,-0.57853 9.07593,-2.093615 11.45703,-6.904297 0.92183,-1.811914 1.23577,-5.581152 1.00781,-9.396485 l -0.0488,-33.652343 c 0.01,-2.355753 -0.38947,-3.667024 2.73242,-4.314454 l 16.34961,-3.294921 2.44336,-0.492188 v -0.0039 l 11.15821,-2.25 c 1.81449,-0.365976 2.66769,0.253898 2.69531,2.300781 l 0.0488,25.144531 c -0.13962,2.973501 -0.42887,4.335537 -3.84961,4.882813 -12.10603,1.801889 -14.48967,5.821796 -14.41602,11.152344 0.0733,5.308775 4.44407,9.293012 10.375,8.695312 5.20132,-0.57853 8.94117,-1.9236929 11.32227,-6.734375 0.92183,-1.811914 0.9971,-5.411792 1.07422,-9.294922 l -0.0312,-51.482422 c -0.002,-2.895455 -0.4957,-4.178618 -2.59571,-4.220703 z"
           id="path984"
           inkscape:connector-curvature="0" />
        <path
           id="path986"
           d="m 377.5082,-79.329457 c -0.7,-0.01403 -1.57748,0.109171 -2.67578,0.357422 l -18.19922,3.69336 -17.34179,3.425781 c -3.0722,0.65674 -3.66824,2.371606 -3.59571,5.082031 l 0.0469,42.306641 c -0.13962,2.973501 -0.46207,4.605067 -3.88282,5.152343 -12.10602,1.801889 -14.4545,5.552265 -14.38085,10.882813 0.0733,5.308775 4.37571,9.562544 10.30664,8.964844 5.20132,-0.57853 9.07593,-2.093615 11.45703,-6.904297 0.92183,-1.811914 1.23577,-5.581152 1.00781,-9.396485 l -0.0488,-33.652343 c 0.01,-2.355753 -0.38947,-3.667024 2.73242,-4.314454 l 16.34961,-3.294921 2.44336,-0.492188 v -0.0039 l 11.15821,-2.25 c 1.81449,-0.365976 2.66769,0.253898 2.69531,2.300781 l 0.0488,25.144531 c -0.13962,2.973501 -0.42887,4.335537 -3.84961,4.882813 -12.10603,1.801889 -14.48967,5.821796 -14.41602,11.152344 0.0733,5.308775 4.44407,9.293012 10.375,8.695312 5.20132,-0.57853 8.94117,-1.9236929 11.32227,-6.734375 0.92183,-1.811914 0.9971,-5.411792 1.07422,-9.294922 l -0.0312,-51.482422 c -0.002,-2.895455 -0.4957,-4.178618 -2.59571,-4.220703 z"
           style="fill:none;stroke:#111214;stroke-width:1.1;stroke-linecap:round;stroke-linejoin:round;stroke-miterlimit:4;stroke-dasharray:none;stroke-opacity:0.0117647"
           inkscape:connector-curvature="0" />
        <path
           style="fill:none;stroke:#111214;stroke-width:1.6;stroke-linecap:round;stroke-linejoin:round;stroke-miterlimit:4;stroke-dasharray:none;stroke-opacity:0.0117647"
           d="m 377.5082,-79.329457 c -0.7,-0.01403 -1.57748,0.109171 -2.67578,0.357422 l -18.19922,3.69336 -17.34179,3.425781 c -3.0722,0.65674 -3.66824,2.371606 -3.59571,5.082031 l 0.0469,42.306641 c -0.13962,2.973501 -0.46207,4.605067 -3.88282,5.152343 -12.10602,1.801889 -14.4545,5.552265 -14.38085,10.882813 0.0733,5.308775 4.37571,9.562544 10.30664,8.964844 5.20132,-0.57853 9.07593,-2.093615 11.45703,-6.904297 0.92183,-1.811914 1.23577,-5.581152 1.00781,-9.396485 l -0.0488,-33.652343 c 0.01,-2.355753 -0.38947,-3.667024 2.73242,-4.314454 l 16.34961,-3.294921 2.44336,-0.492188 v -0.0039 l 11.15821,-2.25 c 1.81449,-0.365976 2.66769,0.253898 2.69531,2.300781 l 0.0488,25.144531 c -0.13962,2.973501 -0.42887,4.335537 -3.84961,4.882813 -12.10603,1.801889 -14.48967,5.821796 -14.41602,11.152344 0.0733,5.308775 4.44407,9.293012 10.375,8.695312 5.20132,-0.57853 8.94117,-1.9236929 11.32227,-6.734375 0.92183,-1.811914 0.9971,-5.411792 1.07422,-9.294922 l -0.0312,-51.482422 c -0.002,-2.895455 -0.4957,-4.178618 -2.59571,-4.220703 z"
           id="path988"
           inkscape:connector-curvature="0" />
        <path
           id="path990"
           d="m 377.5082,-79.329457 c -0.7,-0.01403 -1.57748,0.109171 -2.67578,0.357422 l -18.19922,3.69336 -17.34179,3.425781 c -3.0722,0.65674 -3.66824,2.371606 -3.59571,5.082031 l 0.0469,42.306641 c -0.13962,2.973501 -0.46207,4.605067 -3.88282,5.152343 -12.10602,1.801889 -14.4545,5.552265 -14.38085,10.882813 0.0733,5.308775 4.37571,9.562544 10.30664,8.964844 5.20132,-0.57853 9.07593,-2.093615 11.45703,-6.904297 0.92183,-1.811914 1.23577,-5.581152 1.00781,-9.396485 l -0.0488,-33.652343 c 0.01,-2.355753 -0.38947,-3.667024 2.73242,-4.314454 l 16.34961,-3.294921 2.44336,-0.492188 v -0.0039 l 11.15821,-2.25 c 1.81449,-0.365976 2.66769,0.253898 2.69531,2.300781 l 0.0488,25.144531 c -0.13962,2.973501 -0.42887,4.335537 -3.84961,4.882813 -12.10603,1.801889 -14.48967,5.821796 -14.41602,11.152344 0.0733,5.308775 4.44407,9.293012 10.375,8.695312 5.20132,-0.57853 8.94117,-1.9236929 11.32227,-6.734375 0.92183,-1.811914 0.9971,-5.411792 1.07422,-9.294922 l -0.0312,-51.482422 c -0.002,-2.895455 -0.4957,-4.178618 -2.59571,-4.220703 z"
           style="fill:none;stroke:#111214;stroke-width:2.1;stroke-linecap:round;stroke-linejoin:round;stroke-miterlimit:4;stroke-dasharray:none;stroke-opacity:0.0117647"
           inkscape:connector-curvature="0" />
        <path
           style="fill:none;stroke:#111214;stroke-width:2.6;stroke-linecap:round;stroke-linejoin:round;stroke-miterlimit:4;stroke-dasharray:none;stroke-opacity:0.0117647"
           d="m 377.5082,-79.329457 c -0.7,-0.01403 -1.57748,0.109171 -2.67578,0.357422 l -18.19922,3.69336 -17.34179,3.425781 c -3.0722,0.65674 -3.66824,2.371606 -3.59571,5.082031 l 0.0469,42.306641 c -0.13962,2.973501 -0.46207,4.605067 -3.88282,5.152343 -12.10602,1.801889 -14.4545,5.552265 -14.38085,10.882813 0.0733,5.308775 4.37571,9.562544 10.30664,8.964844 5.20132,-0.57853 9.07593,-2.093615 11.45703,-6.904297 0.92183,-1.811914 1.23577,-5.581152 1.00781,-9.396485 l -0.0488,-33.652343 c 0.01,-2.355753 -0.38947,-3.667024 2.73242,-4.314454 l 16.34961,-3.294921 2.44336,-0.492188 v -0.0039 l 11.15821,-2.25 c 1.81449,-0.365976 2.66769,0.253898 2.69531,2.300781 l 0.0488,25.144531 c -0.13962,2.973501 -0.42887,4.335537 -3.84961,4.882813 -12.10603,1.801889 -14.48967,5.821796 -14.41602,11.152344 0.0733,5.308775 4.44407,9.293012 10.375,8.695312 5.20132,-0.57853 8.94117,-1.9236929 11.32227,-6.734375 0.92183,-1.811914 0.9971,-5.411792 1.07422,-9.294922 l -0.0312,-51.482422 c -0.002,-2.895455 -0.4957,-4.178618 -2.59571,-4.220703 z"
           id="path992"
           inkscape:connector-curvature="0" />
        <path
           id="path994"
           d="m 377.5082,-79.329457 c -0.7,-0.01403 -1.57748,0.109171 -2.67578,0.357422 l -18.19922,3.69336 -17.34179,3.425781 c -3.0722,0.65674 -3.66824,2.371606 -3.59571,5.082031 l 0.0469,42.306641 c -0.13962,2.973501 -0.46207,4.605067 -3.88282,5.152343 -12.10602,1.801889 -14.4545,5.552265 -14.38085,10.882813 0.0733,5.308775 4.37571,9.562544 10.30664,8.964844 5.20132,-0.57853 9.07593,-2.093615 11.45703,-6.904297 0.92183,-1.811914 1.23577,-5.581152 1.00781,-9.396485 l -0.0488,-33.652343 c 0.01,-2.355753 -0.38947,-3.667024 2.73242,-4.314454 l 16.34961,-3.294921 2.44336,-0.492188 v -0.0039 l 11.15821,-2.25 c 1.81449,-0.365976 2.66769,0.253898 2.69531,2.300781 l 0.0488,25.144531 c -0.13962,2.973501 -0.42887,4.335537 -3.84961,4.882813 -12.10603,1.801889 -14.48967,5.821796 -14.41602,11.152344 0.0733,5.308775 4.44407,9.293012 10.375,8.695312 5.20132,-0.57853 8.94117,-1.9236929 11.32227,-6.734375 0.92183,-1.811914 0.9971,-5.411792 1.07422,-9.294922 l -0.0312,-51.482422 c -0.002,-2.895455 -0.4957,-4.178618 -2.59571,-4.220703 z"
           style="fill:none;stroke:#111214;stroke-width:3.1;stroke-linecap:round;stroke-linejoin:round;stroke-miterlimit:4;stroke-dasharray:none;stroke-opacity:0.0117647"
           inkscape:connector-curvature="0" />
        <path
           style="fill:none;stroke:#111214;stroke-width:3.9;stroke-linecap:round;stroke-linejoin:round;stroke-miterlimit:4;stroke-dasharray:none;stroke-opacity:0.0117647"
           d="m 377.5082,-79.329457 c -0.7,-0.01403 -1.57748,0.109171 -2.67578,0.357422 l -18.19922,3.69336 -17.34179,3.425781 c -3.0722,0.65674 -3.66824,2.371606 -3.59571,5.082031 l 0.0469,42.306641 c -0.13962,2.973501 -0.46207,4.605067 -3.88282,5.152343 -12.10602,1.801889 -14.4545,5.552265 -14.38085,10.882813 0.0733,5.308775 4.37571,9.562544 10.30664,8.964844 5.20132,-0.57853 9.07593,-2.093615 11.45703,-6.904297 0.92183,-1.811914 1.23577,-5.581152 1.00781,-9.396485 l -0.0488,-33.652343 c 0.01,-2.355753 -0.38947,-3.667024 2.73242,-4.314454 l 16.34961,-3.294921 2.44336,-0.492188 v -0.0039 l 11.15821,-2.25 c 1.81449,-0.365976 2.66769,0.253898 2.69531,2.300781 l 0.0488,25.144531 c -0.13962,2.973501 -0.42887,4.335537 -3.84961,4.882813 -12.10603,1.801889 -14.48967,5.821796 -14.41602,11.152344 0.0733,5.308775 4.44407,9.293012 10.375,8.695312 5.20132,-0.57853 8.94117,-1.9236929 11.32227,-6.734375 0.92183,-1.811914 0.9971,-5.411792 1.07422,-9.294922 l -0.0312,-51.482422 c -0.002,-2.895455 -0.4957,-4.178618 -2.59571,-4.220703 z"
           id="path996"
           inkscape:connector-curvature="0" />
        <path
           id="path998"
           d="m 377.5082,-79.329457 c -0.7,-0.01403 -1.57748,0.109171 -2.67578,0.357422 l -18.19922,3.69336 -17.34179,3.425781 c -3.0722,0.65674 -3.66824,2.371606 -3.59571,5.082031 l 0.0469,42.306641 c -0.13962,2.973501 -0.46207,4.605067 -3.88282,5.152343 -12.10602,1.801889 -14.4545,5.552265 -14.38085,10.882813 0.0733,5.308775 4.37571,9.562544 10.30664,8.964844 5.20132,-0.57853 9.07593,-2.093615 11.45703,-6.904297 0.92183,-1.811914 1.23577,-5.581152 1.00781,-9.396485 l -0.0488,-33.652343 c 0.01,-2.355753 -0.38947,-3.667024 2.73242,-4.314454 l 16.34961,-3.294921 2.44336,-0.492188 v -0.0039 l 11.15821,-2.25 c 1.81449,-0.365976 2.66769,0.253898 2.69531,2.300781 l 0.0488,25.144531 c -0.13962,2.973501 -0.42887,4.335537 -3.84961,4.882813 -12.10603,1.801889 -14.48967,5.821796 -14.41602,11.152344 0.0733,5.308775 4.44407,9.293012 10.375,8.695312 5.20132,-0.57853 8.94117,-1.9236929 11.32227,-6.734375 0.92183,-1.811914 0.9971,-5.411792 1.07422,-9.294922 l -0.0312,-51.482422 c -0.002,-2.895455 -0.4957,-4.178618 -2.59571,-4.220703 z"
           style="fill:none;stroke:#111214;stroke-width:4.7;stroke-linecap:round;stroke-linejoin:round;stroke-miterlimit:4;stroke-dasharray:none;stroke-opacity:0.0117647"
           inkscape:connector-curvature="0" />
        <path
           style="fill:none;stroke:#111214;stroke-width:5.5;stroke-linecap:round;stroke-linejoin:round;stroke-miterlimit:4;stroke-dasharray:none;stroke-opacity:0.0117647"
           d="m 377.5082,-79.329457 c -0.7,-0.01403 -1.57748,0.109171 -2.67578,0.357422 l -18.19922,3.69336 -17.34179,3.425781 c -3.0722,0.65674 -3.66824,2.371606 -3.59571,5.082031 l 0.0469,42.306641 c -0.13962,2.973501 -0.46207,4.605067 -3.88282,5.152343 -12.10602,1.801889 -14.4545,5.552265 -14.38085,10.882813 0.0733,5.308775 4.37571,9.562544 10.30664,8.964844 5.20132,-0.57853 9.07593,-2.093615 11.45703,-6.904297 0.92183,-1.811914 1.23577,-5.581152 1.00781,-9.396485 l -0.0488,-33.652343 c 0.01,-2.355753 -0.38947,-3.667024 2.73242,-4.314454 l 16.34961,-3.294921 2.44336,-0.492188 v -0.0039 l 11.15821,-2.25 c 1.81449,-0.365976 2.66769,0.253898 2.69531,2.300781 l 0.0488,25.144531 c -0.13962,2.973501 -0.42887,4.335537 -3.84961,4.882813 -12.10603,1.801889 -14.48967,5.821796 -14.41602,11.152344 0.0733,5.308775 4.44407,9.293012 10.375,8.695312 5.20132,-0.57853 8.94117,-1.9236929 11.32227,-6.734375 0.92183,-1.811914 0.9971,-5.411792 1.07422,-9.294922 l -0.0312,-51.482422 c -0.002,-2.895455 -0.4957,-4.178618 -2.59571,-4.220703 z"
           id="path1000"
           inkscape:connector-curvature="0" />
        <path
           id="path1002"
           d="m 377.5082,-79.329457 c -0.7,-0.01403 -1.57748,0.109171 -2.67578,0.357422 l -18.19922,3.69336 -17.34179,3.425781 c -3.0722,0.65674 -3.66824,2.371606 -3.59571,5.082031 l 0.0469,42.306641 c -0.13962,2.973501 -0.46207,4.605067 -3.88282,5.152343 -12.10602,1.801889 -14.4545,5.552265 -14.38085,10.882813 0.0733,5.308775 4.37571,9.562544 10.30664,8.964844 5.20132,-0.57853 9.07593,-2.093615 11.45703,-6.904297 0.92183,-1.811914 1.23577,-5.581152 1.00781,-9.396485 l -0.0488,-33.652343 c 0.01,-2.355753 -0.38947,-3.667024 2.73242,-4.314454 l 16.34961,-3.294921 2.44336,-0.492188 v -0.0039 l 11.15821,-2.25 c 1.81449,-0.365976 2.66769,0.253898 2.69531,2.300781 l 0.0488,25.144531 c -0.13962,2.973501 -0.42887,4.335537 -3.84961,4.882813 -12.10603,1.801889 -14.48967,5.821796 -14.41602,11.152344 0.0733,5.308775 4.44407,9.293012 10.375,8.695312 5.20132,-0.57853 8.94117,-1.9236929 11.32227,-6.734375 0.92183,-1.811914 0.9971,-5.411792 1.07422,-9.294922 l -0.0312,-51.482422 c -0.002,-2.895455 -0.4957,-4.178618 -2.59571,-4.220703 z"
           style="fill:none;stroke:#111214;stroke-width:6.5;stroke-linecap:round;stroke-linejoin:round;stroke-miterlimit:4;stroke-dasharray:none;stroke-opacity:0.0117647"
           inkscape:connector-curvature="0" />
        <path
           style="fill:none;stroke:#111214;stroke-width:7.5;stroke-linecap:round;stroke-linejoin:round;stroke-miterlimit:4;stroke-dasharray:none;stroke-opacity:0.0117647"
           d="m 377.5082,-79.329457 c -0.7,-0.01403 -1.57748,0.109171 -2.67578,0.357422 l -18.19922,3.69336 -17.34179,3.425781 c -3.0722,0.65674 -3.66824,2.371606 -3.59571,5.082031 l 0.0469,42.306641 c -0.13962,2.973501 -0.46207,4.605067 -3.88282,5.152343 -12.10602,1.801889 -14.4545,5.552265 -14.38085,10.882813 0.0733,5.308775 4.37571,9.562544 10.30664,8.964844 5.20132,-0.57853 9.07593,-2.093615 11.45703,-6.904297 0.92183,-1.811914 1.23577,-5.581152 1.00781,-9.396485 l -0.0488,-33.652343 c 0.01,-2.355753 -0.38947,-3.667024 2.73242,-4.314454 l 16.34961,-3.294921 2.44336,-0.492188 v -0.0039 l 11.15821,-2.25 c 1.81449,-0.365976 2.66769,0.253898 2.69531,2.300781 l 0.0488,25.144531 c -0.13962,2.973501 -0.42887,4.335537 -3.84961,4.882813 -12.10603,1.801889 -14.48967,5.821796 -14.41602,11.152344 0.0733,5.308775 4.44407,9.293012 10.375,8.695312 5.20132,-0.57853 8.94117,-1.9236929 11.32227,-6.734375 0.92183,-1.811914 0.9971,-5.411792 1.07422,-9.294922 l -0.0312,-51.482422 c -0.002,-2.895455 -0.4957,-4.178618 -2.59571,-4.220703 z"
           id="path1004"
           inkscape:connector-curvature="0" />
        <path
           id="path1006"
           d="m 377.5082,-79.329457 c -0.7,-0.01403 -1.57748,0.109171 -2.67578,0.357422 l -18.19922,3.69336 -17.34179,3.425781 c -3.0722,0.65674 -3.66824,2.371606 -3.59571,5.082031 l 0.0469,42.306641 c -0.13962,2.973501 -0.46207,4.605067 -3.88282,5.152343 -12.10602,1.801889 -14.4545,5.552265 -14.38085,10.882813 0.0733,5.308775 4.37571,9.562544 10.30664,8.964844 5.20132,-0.57853 9.07593,-2.093615 11.45703,-6.904297 0.92183,-1.811914 1.23577,-5.581152 1.00781,-9.396485 l -0.0488,-33.652343 c 0.01,-2.355753 -0.38947,-3.667024 2.73242,-4.314454 l 16.34961,-3.294921 2.44336,-0.492188 v -0.0039 l 11.15821,-2.25 c 1.81449,-0.365976 2.66769,0.253898 2.69531,2.300781 l 0.0488,25.144531 c -0.13962,2.973501 -0.42887,4.335537 -3.84961,4.882813 -12.10603,1.801889 -14.48967,5.821796 -14.41602,11.152344 0.0733,5.308775 4.44407,9.293012 10.375,8.695312 5.20132,-0.57853 8.94117,-1.9236929 11.32227,-6.734375 0.92183,-1.811914 0.9971,-5.411792 1.07422,-9.294922 l -0.0312,-51.482422 c -0.002,-2.895455 -0.4957,-4.178618 -2.59571,-4.220703 z"
           style="fill:none;stroke:#111214;stroke-width:9;stroke-linecap:round;stroke-linejoin:round;stroke-miterlimit:4;stroke-dasharray:none;stroke-opacity:0.0117647"
           inkscape:connector-curvature="0" />
        <path
           style="fill:none;stroke:#111214;stroke-width:10.5;stroke-linecap:round;stroke-linejoin:round;stroke-miterlimit:4;stroke-dasharray:none;stroke-opacity:0.0117647"
           d="m 377.5082,-79.329457 c -0.7,-0.01403 -1.57748,0.109171 -2.67578,0.357422 l -18.19922,3.69336 -17.34179,3.425781 c -3.0722,0.65674 -3.66824,2.371606 -3.59571,5.082031 l 0.0469,42.306641 c -0.13962,2.973501 -0.46207,4.605067 -3.88282,5.152343 -12.10602,1.801889 -14.4545,5.552265 -14.38085,10.882813 0.0733,5.308775 4.37571,9.562544 10.30664,8.964844 5.20132,-0.57853 9.07593,-2.093615 11.45703,-6.904297 0.92183,-1.811914 1.23577,-5.581152 1.00781,-9.396485 l -0.0488,-33.652343 c 0.01,-2.355753 -0.38947,-3.667024 2.73242,-4.314454 l 16.34961,-3.294921 2.44336,-0.492188 v -0.0039 l 11.15821,-2.25 c 1.81449,-0.365976 2.66769,0.253898 2.69531,2.300781 l 0.0488,25.144531 c -0.13962,2.973501 -0.42887,4.335537 -3.84961,4.882813 -12.10603,1.801889 -14.48967,5.821796 -14.41602,11.152344 0.0733,5.308775 4.44407,9.293012 10.375,8.695312 5.20132,-0.57853 8.94117,-1.9236929 11.32227,-6.734375 0.92183,-1.811914 0.9971,-5.411792 1.07422,-9.294922 l -0.0312,-51.482422 c -0.002,-2.895455 -0.4957,-4.178618 -2.59571,-4.220703 z"
           id="path1008"
           inkscape:connector-curvature="0" />
      </g>
      <g
         id="g974"
         transform="matrix(0.26458333,0,0,0.26458333,-70.510202,-0.24304891)">
        <path
           sodipodi:nodetypes="cccccscccccccc"
           inkscape:connector-curvature="0"
           id="path863"
           d="m 337.85679,29.580322 -19.17577,3.787215 c -3.0722,0.65674 -3.66799,2.371157 -3.59546,5.081582 l 0.048,42.306559 c -0.13962,2.973501 -0.46236,4.606214 -3.8831,5.15349 -12.10603,1.801889 -14.45566,5.551709 -14.38201,10.882257 0.0733,5.308775 4.37623,9.562375 10.30716,8.964675 5.20132,-0.57853 9.07643,-2.0926 11.45753,-6.903282 0.92183,-1.811914 1.23469,-5.580798 1.00673,-9.396131 l -0.0479,-33.653489 c 0.01,-2.355753 -0.38934,-3.66712 2.73255,-4.31455 l 16.34863,-3.29475 2.44363,-0.492467 z"
           style="fill:url(#linearGradient909);fill-opacity:1;stroke:none;stroke-width:0.1;stroke-linecap:butt;stroke-linejoin:miter;stroke-miterlimit:4;stroke-dasharray:none;stroke-opacity:1" />
        <path
           style="fill:url(#linearGradient901);fill-opacity:1;stroke:none;stroke-width:0.1;stroke-linecap:butt;stroke-linejoin:miter;stroke-miterlimit:4;stroke-dasharray:none;stroke-opacity:1"
           d="m 354.97118,47.749371 0.048,25.144238 c -0.13962,2.973501 -0.42846,4.335028 -3.8492,4.882304 -12.10603,1.801889 -14.48956,5.822895 -14.41591,11.153443 0.0733,5.308775 4.44403,9.291189 10.37496,8.693489 5.20132,-0.57853 8.94083,-1.923109 11.32193,-6.733791 0.92183,-1.811914 0.99741,-5.411306 1.07453,-9.294436 l -0.032,-51.482558 c -0.002,-3.860607 -0.87855,-4.856317 -5.27176,-3.863311 l -18.81993,3.819392 3.35487,18.105993 13.51798,-2.726528 c 1.81449,-0.365976 2.66887,0.254882 2.69649,2.301765 z"
           id="path865"
           inkscape:connector-curvature="0"
           sodipodi:nodetypes="cccscccccccscc" />
        <path
           sodipodi:nodetypes="cccscccccccscc"
           inkscape:connector-curvature="0"
           id="path911"
           d="m 354.97118,47.749371 0.048,25.144238 c -0.13962,2.973501 -0.42846,4.335028 -3.8492,4.882304 -12.10603,1.801889 -14.48956,5.822895 -14.41591,11.153443 0.0733,5.308775 4.44403,9.291189 10.37496,8.693489 5.20132,-0.57853 8.94083,-1.923109 11.32193,-6.733791 0.92183,-1.811914 0.99741,-5.411306 1.07453,-9.294436 l -0.032,-51.482558 c -0.002,-3.860607 -0.87855,-4.856317 -5.27176,-3.863311 l -18.81993,3.819392 3.35487,18.105993 13.51798,-2.726528 c 1.81449,-0.365976 2.66887,0.254882 2.69649,2.301765 z"
           style="fill:url(#linearGradient921);fill-opacity:1;stroke:none;stroke-width:0.1;stroke-linecap:butt;stroke-linejoin:miter;stroke-miterlimit:4;stroke-dasharray:none;stroke-opacity:1" />
        <path
           style="fill:url(#linearGradient937);fill-opacity:1;stroke:none;stroke-width:0.1;stroke-linecap:butt;stroke-linejoin:miter;stroke-miterlimit:4;stroke-dasharray:none;stroke-opacity:1"
           d="m 354.97118,47.749371 0.048,25.144238 c -0.13962,2.973501 -0.42846,4.335028 -3.8492,4.882304 -12.10603,1.801889 -14.48956,5.822895 -14.41591,11.153443 0.0733,5.308775 4.44403,9.291189 10.37496,8.693489 5.20132,-0.57853 8.94083,-1.923109 11.32193,-6.733791 0.92183,-1.811914 0.99741,-5.411306 1.07453,-9.294436 l -0.032,-51.482558 c -0.002,-3.860607 -0.87855,-4.856317 -5.27176,-3.863311 l -18.81993,3.819392 3.35487,18.105993 13.51798,-2.726528 c 1.81449,-0.365976 2.66887,0.254882 2.69649,2.301765 z"
           id="path929"
           inkscape:connector-curvature="0"
           sodipodi:nodetypes="cccscccccccscc" />
        <path
           style="fill:url(#linearGradient949);fill-opacity:1;stroke:none;stroke-width:0.1;stroke-linecap:butt;stroke-linejoin:miter;stroke-miterlimit:4;stroke-dasharray:none;stroke-opacity:1"
           d="m 337.85679,29.580322 -19.17577,3.787215 c -3.0722,0.65674 -3.66799,2.371157 -3.59546,5.081582 l 0.048,42.306559 c -0.13962,2.973501 -0.46236,4.606214 -3.8831,5.15349 -12.10603,1.801889 -14.45566,5.551709 -14.38201,10.882257 0.0733,5.308775 4.37623,9.562375 10.30716,8.964675 5.20132,-0.57853 9.07643,-2.0926 11.45753,-6.903282 0.92183,-1.811914 1.23469,-5.580798 1.00673,-9.396131 l -0.0479,-33.653489 c 0.01,-2.355753 -0.38934,-3.66712 2.73255,-4.31455 l 16.34863,-3.29475 2.44363,-0.492467 z"
           id="path939"
           inkscape:connector-curvature="0"
           sodipodi:nodetypes="cccccscccccccc" />
      </g>
    </g>
  </g>
</svg>
