<?xml version="1.0" encoding="UTF-8" standalone="no"?>
<svg
   width="128"
   height="128"
   viewBox="0 0 33.866666 33.866668"
   version="1.1"
   id="svg1829"
   inkscape:version="1.1.2 (0a00cf5339, 2022-02-04)"
   sodipodi:docname="scantailor.svg"
   xmlns:inkscape="http://www.inkscape.org/namespaces/inkscape"
   xmlns:sodipodi="http://sodipodi.sourceforge.net/DTD/sodipodi-0.dtd"
   xmlns:xlink="http://www.w3.org/1999/xlink"
   xmlns="http://www.w3.org/2000/svg"
   xmlns:svg="http://www.w3.org/2000/svg"
   xmlns:rdf="http://www.w3.org/1999/02/22-rdf-syntax-ns#"
   xmlns:cc="http://creativecommons.org/ns#"
   xmlns:dc="http://purl.org/dc/elements/1.1/">
  <defs
     id="defs1823">
    <linearGradient
       inkscape:collect="always"
       id="linearGradient2558">
      <stop
         style="stop-color:#ffffff;stop-opacity:1;"
         offset="0"
         id="stop2554" />
      <stop
         style="stop-color:#ffbe0d;stop-opacity:1"
         offset="1"
         id="stop2556" />
    </linearGradient>
    <linearGradient
       inkscape:collect="always"
       id="linearGradient934">
      <stop
         style="stop-color:#ffe447;stop-opacity:1"
         offset="0"
         id="stop930" />
      <stop
         style="stop-color:#ffb702;stop-opacity:1"
         offset="1"
         id="stop932" />
    </linearGradient>
    <radialGradient
       inkscape:collect="always"
       xlink:href="#linearGradient934"
       id="radialGradient908"
       cx="16.936953"
       cy="3.2428353"
       fx="16.936953"
       fy="3.2428353"
       r="14.54372"
       gradientUnits="userSpaceOnUse"
       gradientTransform="matrix(4.4791718,0,0,2.0391647,-58.926568,-3.3698399)" />
    <linearGradient
       inkscape:collect="always"
       xlink:href="#linearGradient2558"
       id="linearGradient2560"
       x1="22.793826"
       y1="63.877813"
       x2="21.394985"
       y2="147.80638"
       gradientUnits="userSpaceOnUse" />
  </defs>
  <sodipodi:namedview
     id="base"
     pagecolor="#ffffff"
     bordercolor="#666666"
     borderopacity="1.0"
     inkscape:pageopacity="0.0"
     inkscape:pageshadow="2"
     inkscape:zoom="0.49497475"
     inkscape:cx="-148.49242"
     inkscape:cy="-89.903576"
     inkscape:document-units="mm"
     inkscape:current-layer="layer1"
     inkscape:document-rotation="0"
     showgrid="false"
     units="px"
     inkscape:window-width="1920"
     inkscape:window-height="1032"
     inkscape:window-x="0"
     inkscape:window-y="0"
     inkscape:window-maximized="1"
     inkscape:pagecheckerboard="0" />
  <metadata
     id="metadata1826">
    <rdf:RDF>
      <cc:Work
         rdf:about="">
        <dc:format>image/svg+xml</dc:format>
        <dc:type
           rdf:resource="http://purl.org/dc/dcmitype/StillImage" />
      </cc:Work>
    </rdf:RDF>
  </metadata>
  <g
     inkscape:label="Capa 1"
     inkscape:groupmode="layer"
     id="layer1">
    <g
       id="g1702"
       transform="matrix(0.97573206,0,0,0.97573206,-65.58674,-37.192363)"
       style="opacity:0.296765">
      <rect
         style="fill:none;fill-opacity:1;stroke:#000000;stroke-width:0.1;stroke-linecap:round;stroke-linejoin:round;stroke-miterlimit:4;stroke-dasharray:none;stroke-opacity:0.02"
         id="rect1634"
         width="29.810888"
         height="29.810888"
         x="69.839508"
         y="40.709618"
         rx="6.6098609"
         ry="6.6098609" />
      <rect
         ry="6.6098609"
         rx="6.6098609"
         y="40.709618"
         x="69.839508"
         height="29.810888"
         width="29.810888"
         id="rect1638"
         style="fill:none;fill-opacity:1;stroke:#000000;stroke-width:0.2;stroke-linecap:round;stroke-linejoin:round;stroke-miterlimit:4;stroke-dasharray:none;stroke-opacity:0.02" />
      <rect
         style="fill:none;fill-opacity:1;stroke:#000000;stroke-width:0.3;stroke-linecap:round;stroke-linejoin:round;stroke-miterlimit:4;stroke-dasharray:none;stroke-opacity:0.02"
         id="rect1640"
         width="29.810888"
         height="29.810888"
         x="69.839508"
         y="40.709618"
         rx="6.6098609"
         ry="6.6098609" />
      <rect
         ry="6.6098609"
         rx="6.6098609"
         y="40.709618"
         x="69.839508"
         height="29.810888"
         width="29.810888"
         id="rect1642"
         style="fill:none;fill-opacity:1;stroke:#000000;stroke-width:0.4;stroke-linecap:round;stroke-linejoin:round;stroke-miterlimit:4;stroke-dasharray:none;stroke-opacity:0.02" />
      <rect
         style="fill:none;fill-opacity:1;stroke:#000000;stroke-width:0.5;stroke-linecap:round;stroke-linejoin:round;stroke-miterlimit:4;stroke-dasharray:none;stroke-opacity:0.02"
         id="rect1644"
         width="29.810888"
         height="29.810888"
         x="69.839508"
         y="40.709618"
         rx="6.6098609"
         ry="6.6098609" />
      <rect
         ry="6.6098609"
         rx="6.6098609"
         y="40.709618"
         x="69.839508"
         height="29.810888"
         width="29.810888"
         id="rect1646"
         style="fill:none;fill-opacity:1;stroke:#000000;stroke-width:0.6;stroke-linecap:round;stroke-linejoin:round;stroke-miterlimit:4;stroke-dasharray:none;stroke-opacity:0.02" />
      <rect
         style="fill:none;fill-opacity:1;stroke:#000000;stroke-width:0.7;stroke-linecap:round;stroke-linejoin:round;stroke-miterlimit:4;stroke-dasharray:none;stroke-opacity:0.02"
         id="rect1648"
         width="29.810888"
         height="29.810888"
         x="69.839508"
         y="40.709618"
         rx="6.6098609"
         ry="6.6098609" />
      <rect
         ry="6.6098609"
         rx="6.6098609"
         y="40.709618"
         x="69.839508"
         height="29.810888"
         width="29.810888"
         id="rect1650"
         style="fill:none;fill-opacity:1;stroke:#000000;stroke-width:0.8;stroke-linecap:round;stroke-linejoin:round;stroke-miterlimit:4;stroke-dasharray:none;stroke-opacity:0.02" />
      <rect
         style="fill:none;fill-opacity:1;stroke:#000000;stroke-width:1;stroke-linecap:round;stroke-linejoin:round;stroke-miterlimit:4;stroke-dasharray:none;stroke-opacity:0.02"
         id="rect1652"
         width="29.810888"
         height="29.810888"
         x="69.839508"
         y="40.709618"
         rx="6.6098609"
         ry="6.6098609" />
      <rect
         ry="6.6098609"
         rx="6.6098609"
         y="40.709618"
         x="69.839508"
         height="29.810888"
         width="29.810888"
         id="rect1654"
         style="fill:none;fill-opacity:1;stroke:#000000;stroke-width:1.2;stroke-linecap:round;stroke-linejoin:round;stroke-miterlimit:4;stroke-dasharray:none;stroke-opacity:0.02" />
      <rect
         style="fill:none;fill-opacity:1;stroke:#000000;stroke-width:1.4;stroke-linecap:round;stroke-linejoin:round;stroke-miterlimit:4;stroke-dasharray:none;stroke-opacity:0.02"
         id="rect1656"
         width="29.810888"
         height="29.810888"
         x="69.839508"
         y="40.709618"
         rx="6.6098609"
         ry="6.6098609" />
      <rect
         ry="6.6098609"
         rx="6.6098609"
         y="40.709618"
         x="69.839508"
         height="29.810888"
         width="29.810888"
         id="rect1658"
         style="fill:none;fill-opacity:1;stroke:#000000;stroke-width:1.6;stroke-linecap:round;stroke-linejoin:round;stroke-miterlimit:4;stroke-dasharray:none;stroke-opacity:0.02" />
      <rect
         style="fill:none;fill-opacity:1;stroke:#000000;stroke-width:1.8;stroke-linecap:round;stroke-linejoin:round;stroke-miterlimit:4;stroke-dasharray:none;stroke-opacity:0.02"
         id="rect1660"
         width="29.810888"
         height="29.810888"
         x="69.839508"
         y="40.709618"
         rx="6.6098609"
         ry="6.6098609" />
      <rect
         ry="6.6098609"
         rx="6.6098609"
         y="40.709618"
         x="69.839508"
         height="29.810888"
         width="29.810888"
         id="rect1662"
         style="fill:none;fill-opacity:1;stroke:#000000;stroke-width:2;stroke-linecap:round;stroke-linejoin:round;stroke-miterlimit:4;stroke-dasharray:none;stroke-opacity:0.02" />
      <rect
         style="fill:none;fill-opacity:1;stroke:#000000;stroke-width:2.2;stroke-linecap:round;stroke-linejoin:round;stroke-miterlimit:4;stroke-dasharray:none;stroke-opacity:0.02"
         id="rect1664"
         width="29.810888"
         height="29.810888"
         x="69.839508"
         y="40.709618"
         rx="6.6098609"
         ry="6.6098609" />
      <rect
         ry="6.6098609"
         rx="6.6098609"
         y="40.709618"
         x="69.839508"
         height="29.810888"
         width="29.810888"
         id="rect1666"
         style="fill:none;fill-opacity:1;stroke:#000000;stroke-width:2.6;stroke-linecap:round;stroke-linejoin:round;stroke-miterlimit:4;stroke-dasharray:none;stroke-opacity:0.02" />
      <rect
         style="fill:none;fill-opacity:1;stroke:#000000;stroke-width:3;stroke-linecap:round;stroke-linejoin:round;stroke-miterlimit:4;stroke-dasharray:none;stroke-opacity:0.02"
         id="rect1668"
         width="29.810888"
         height="29.810888"
         x="69.839508"
         y="40.709618"
         rx="6.6098609"
         ry="6.6098609" />
      <rect
         ry="6.6098609"
         rx="6.6098609"
         y="40.709618"
         x="69.839508"
         height="29.810888"
         width="29.810888"
         id="rect1670"
         style="fill:none;fill-opacity:1;stroke:#000000;stroke-width:3.4;stroke-linecap:round;stroke-linejoin:round;stroke-miterlimit:4;stroke-dasharray:none;stroke-opacity:0.02" />
      <rect
         style="fill:none;fill-opacity:1;stroke:#000000;stroke-width:3.8;stroke-linecap:round;stroke-linejoin:round;stroke-miterlimit:4;stroke-dasharray:none;stroke-opacity:0.02"
         id="rect1672"
         width="29.810888"
         height="29.810888"
         x="69.839508"
         y="40.709618"
         rx="6.6098609"
         ry="6.6098609" />
      <rect
         ry="6.6098609"
         rx="6.6098609"
         y="40.709618"
         x="69.839508"
         height="29.810888"
         width="29.810888"
         id="rect1674"
         style="fill:none;fill-opacity:1;stroke:#000000;stroke-width:4.2;stroke-linecap:round;stroke-linejoin:round;stroke-miterlimit:4;stroke-dasharray:none;stroke-opacity:0.02" />
      <rect
         style="fill:none;fill-opacity:1;stroke:#000000;stroke-width:4.6;stroke-linecap:round;stroke-linejoin:round;stroke-miterlimit:4;stroke-dasharray:none;stroke-opacity:0.02"
         id="rect1676"
         width="29.810888"
         height="29.810888"
         x="69.839508"
         y="40.709618"
         rx="6.6098609"
         ry="6.6098609" />
      <rect
         ry="6.6098609"
         rx="6.6098609"
         y="40.709618"
         x="69.839508"
         height="29.810888"
         width="29.810888"
         id="rect1678"
         style="fill:none;fill-opacity:1;stroke:#000000;stroke-width:5;stroke-linecap:round;stroke-linejoin:round;stroke-miterlimit:4;stroke-dasharray:none;stroke-opacity:0.02" />
    </g>
    <rect
       style="fill:url(#radialGradient908);fill-opacity:1;stroke-width:2.68769;stroke-linecap:round;stroke-linejoin:round"
       id="rect849-5"
       width="29.08744"
       height="29.08744"
       x="2.5579116"
       y="2.5293181"
       rx="6.4494534"
       ry="6.4494534" />
    <g
       id="g4443"
       style="opacity:0.5040783">
      <path
         id="path4122"
         style="color:#000000;fill:#320000;fill-opacity:0.0514706;stroke-width:0.600001;stroke-linecap:round;-inkscape-stroke:none"
         d="m 17.374788,8.1099319 c -0.347868,0.00875 -0.625285,0.2917687 -0.625285,0.6418214 v 1.2836417 c 0,0.355609 0.286212,0.641821 0.641821,0.641821 0.35561,0 0.641822,-0.286212 0.641822,-0.641821 V 8.7517533 c 0,-0.3556092 -0.286212,-0.6418214 -0.641822,-0.6418214 -0.0056,0 -0.01101,-1.39e-4 -0.01654,0 z m 0.01654,3.8509271 c -0.355609,0 -0.641821,0.286212 -0.641821,0.641821 v 1.284159 c 0,0.35561 0.286212,0.641822 0.641821,0.641822 0.35561,0 0.641822,-0.286212 0.641822,-0.641822 V 12.60268 c 0,-0.355609 -0.286212,-0.641821 -0.641822,-0.641821 z m 3.681946,0.621667 c -1.588147,0 -1.577662,2.568319 0,2.568319 h 2.095996 v 7.452775 c 0,1.177268 2.566769,1.217785 2.566769,0 v -7.452775 h 2.190047 c 1.37941,0 1.461635,-2.568319 0,-2.568319 z m -11.6401161,0.04496 c -1.0455208,0 -1.979164,0.392737 -2.5548827,1.082104 -0.5637311,0.675011 -0.7335507,1.491529 -0.7265707,2.207101 8e-7,6.99e-4 -8e-7,0.0014 0,0.0021 5.8e-6,5.71e-4 -5.9e-6,10e-4 0,0.0016 0.0022,1.240951 0.3625344,2.300792 1.2071614,2.852022 0.816768,0.533048 1.6397952,0.433652 2.1114991,0.415995 0.366116,0 0.486622,0.07626 0.552421,0.161748 0.0658,0.08548 0.105638,0.265738 0.107487,0.541052 -5.99e-4,0.272841 -0.08959,0.476884 -0.1384927,0.535368 -0.0461,0.05513 -0.06125,0.07247 -0.1271243,0.09974 -0.06588,0.02727 -0.195455,0.05625 -0.4314981,0.05633 -1.4832496,4.77e-4 -2.3616128,0 -2.3616128,0 -0.3285837,0 -0.5941446,0.211916 -0.7400065,0.458886 -0.1458616,0.246973 -0.210162,0.539427 -0.214974,0.831991 -0.00481,0.292563 0.049789,0.586651 0.1953369,0.838191 0.145275,0.25107 0.4229227,0.46017 0.7580934,0.460954 0,0 0.8809178,4.78e-4 2.3652302,0 1.0414289,-3.37e-4 1.9721739,-0.401752 2.5445469,-1.086238 0.562359,-0.672509 0.738457,-1.482579 0.738457,-2.197282 0,-1.248657 -0.359427,-2.311576 -1.205095,-2.867009 C 10.692895,16.483327 9.860523,16.583524 9.3881994,16.60046 h -0.00568 -0.0062 C 9.0635826,16.623304 8.9511651,16.556504 8.8724648,16.459292 8.7940275,16.362406 8.7417384,16.171846 8.7396562,15.910488 v -0.0057 -0.0078 -0.0021 c -0.00334,-0.278407 0.08188,-0.471782 0.1250571,-0.523483 0.043975,-0.05266 0.057572,-0.06989 0.1250569,-0.09767 0.067485,-0.02778 0.2001925,-0.05839 0.4433837,-0.05839 h 2.4158731 c 0.333412,0 0.605928,-0.205806 0.759644,-0.453202 0.153715,-0.247396 0.223827,-0.541431 0.228926,-0.836125 0.0051,-0.294693 -0.05345,-0.593252 -0.207222,-0.845426 C 12.4766,12.828418 12.191512,12.62739 11.849027,12.62739 Z m 7.9581701,3.184818 c -0.355609,0 -0.641821,0.286212 -0.641821,0.641822 v 1.284159 c 0,0.355609 0.286212,0.641821 0.641821,0.641821 0.35561,0 0.641822,-0.286212 0.641822,-0.641821 v -1.284159 c 0,-0.35561 -0.286212,-0.641822 -0.641822,-0.641822 z m -0.01654,3.851445 c -0.347868,0.0088 -0.625285,0.291768 -0.625285,0.641821 v 1.283643 c 0,0.355609 0.286212,0.642337 0.641821,0.642337 0.35561,0 0.641822,-0.286728 0.641822,-0.642337 V 20.30557 c 0,-0.355609 -0.286212,-0.641821 -0.641822,-0.641821 -0.0056,0 -0.01101,-1.39e-4 -0.01654,0 z m 0,3.851444 c -0.347868,0.0088 -0.625285,0.291769 -0.625285,0.641821 v 1.283643 c 0,0.355609 0.286212,0.641821 0.641821,0.641821 0.35561,0 0.641822,-0.286212 0.641822,-0.641821 v -1.283643 c 0,-0.355609 -0.286212,-0.641821 -0.641822,-0.641821 -0.0056,0 -0.01101,-1.39e-4 -0.01654,0 z" />
      <path
         id="path4430"
         style="color:#000000;fill:#320000;fill-opacity:0.0514706;stroke-width:0.600001;stroke-linecap:round;-inkscape-stroke:none"
         d="m 17.550184,8.3604971 c -0.347868,0.00875 -0.625285,0.2917687 -0.625285,0.6418214 V 10.28596 c 0,0.355609 0.286212,0.641821 0.641821,0.641821 0.35561,0 0.641822,-0.286212 0.641822,-0.641821 V 9.0023185 c 0,-0.3556092 -0.286212,-0.6418214 -0.641822,-0.6418214 -0.0056,0 -0.01101,-1.39e-4 -0.01654,0 z m 0.01654,3.8509269 c -0.355609,0 -0.641821,0.286212 -0.641821,0.641821 v 1.284159 c 0,0.35561 0.286212,0.641822 0.641821,0.641822 0.35561,0 0.641822,-0.286212 0.641822,-0.641822 v -1.284159 c 0,-0.355609 -0.286212,-0.641821 -0.641822,-0.641821 z m 3.681946,0.621667 c -1.588147,0 -1.577662,2.568319 0,2.568319 h 2.095996 v 7.452775 c 0,1.177268 2.566769,1.217785 2.566769,0 V 15.40141 h 2.190047 c 1.37941,0 1.461635,-2.568319 0,-2.568319 z m -11.6401165,0.04496 c -1.0455208,0 -1.979164,0.392737 -2.5548827,1.082104 -0.5637311,0.675011 -0.7335507,1.491529 -0.7265707,2.207101 8e-7,6.99e-4 -8e-7,0.0014 0,0.0021 5.8e-6,5.71e-4 -5.9e-6,0.001 0,0.0016 0.0022,1.240951 0.3625344,2.300792 1.2071614,2.852022 0.816768,0.533048 1.6397952,0.433652 2.1114991,0.415995 0.3661164,0 0.4866224,0.07626 0.5524214,0.161748 0.0658,0.08548 0.105638,0.265738 0.107487,0.541052 -5.99e-4,0.272841 -0.08959,0.476884 -0.138493,0.535368 -0.0461,0.05513 -0.06125,0.07247 -0.127124,0.09974 -0.06588,0.02727 -0.1954554,0.05625 -0.4314985,0.05633 -1.4832496,4.77e-4 -2.3616128,0 -2.3616128,0 -0.3285837,0 -0.5941446,0.211916 -0.7400065,0.458886 -0.1458616,0.246973 -0.210162,0.539427 -0.214974,0.831991 -0.00481,0.292563 0.049789,0.586651 0.1953369,0.838191 0.145275,0.25107 0.4229227,0.46017 0.7580934,0.460954 0,0 0.8809178,4.78e-4 2.3652302,0 1.0414293,-3.37e-4 1.9721743,-0.401752 2.5445473,-1.086238 0.562359,-0.672509 0.738457,-1.482579 0.738457,-2.197282 0,-1.248657 -0.359427,-2.311576 -1.205095,-2.867009 -0.820239,-0.538812 -1.652611,-0.438615 -2.124935,-0.421679 h -0.00568 -0.0062 C 9.2389782,16.873869 9.1265607,16.807069 9.0478604,16.709857 8.9694231,16.612971 8.917134,16.422411 8.9150518,16.161053 v -0.0057 -0.0078 -0.0021 c -0.00334,-0.278407 0.08188,-0.471782 0.1250571,-0.523483 0.043975,-0.05266 0.057572,-0.06989 0.1250569,-0.09767 0.067485,-0.02778 0.2001925,-0.05839 0.4433837,-0.05839 h 2.4158735 c 0.333412,0 0.605928,-0.205806 0.759644,-0.453202 0.153715,-0.247396 0.223827,-0.541431 0.228926,-0.836125 0.0051,-0.294693 -0.05345,-0.593252 -0.207222,-0.845426 -0.153775,-0.252174 -0.438863,-0.453202 -0.781348,-0.453202 z m 7.9581705,3.184818 c -0.355609,0 -0.641821,0.286212 -0.641821,0.641822 v 1.284159 c 0,0.355609 0.286212,0.641821 0.641821,0.641821 0.35561,0 0.641822,-0.286212 0.641822,-0.641821 v -1.284159 c 0,-0.35561 -0.286212,-0.641822 -0.641822,-0.641822 z m -0.01654,3.851445 c -0.347868,0.0088 -0.625285,0.291768 -0.625285,0.641821 v 1.283643 c 0,0.355609 0.286212,0.642337 0.641821,0.642337 0.35561,0 0.641822,-0.286728 0.641822,-0.642337 v -1.283643 c 0,-0.355609 -0.286212,-0.641821 -0.641822,-0.641821 -0.0056,0 -0.01101,-1.39e-4 -0.01654,0 z m 0,3.851444 c -0.347868,0.0088 -0.625285,0.291769 -0.625285,0.641821 v 1.283643 c 0,0.355609 0.286212,0.641821 0.641821,0.641821 0.35561,0 0.641822,-0.286212 0.641822,-0.641821 v -1.283643 c 0,-0.355609 -0.286212,-0.641821 -0.641822,-0.641821 -0.0056,0 -0.01101,-1.39e-4 -0.01654,0 z" />
      <path
         id="path4432"
         style="color:#000000;fill:#320000;fill-opacity:0.0514706;stroke-width:0.600001;stroke-linecap:round;-inkscape-stroke:none"
         d="m 17.700523,8.6528231 c -0.347868,0.00875 -0.625285,0.2917687 -0.625285,0.6418214 v 1.2836415 c 0,0.355609 0.286212,0.641821 0.641821,0.641821 0.35561,0 0.641822,-0.286212 0.641822,-0.641821 V 9.2946445 c 0,-0.3556092 -0.286212,-0.6418214 -0.641822,-0.6418214 -0.0056,0 -0.01101,-1.39e-4 -0.01654,0 z m 0.01654,3.8509269 c -0.355609,0 -0.641821,0.286212 -0.641821,0.641821 v 1.284159 c 0,0.35561 0.286212,0.641822 0.641821,0.641822 0.35561,0 0.641822,-0.286212 0.641822,-0.641822 v -1.284159 c 0,-0.355609 -0.286212,-0.641821 -0.641822,-0.641821 z m 3.681946,0.621667 c -1.588147,0 -1.577662,2.568319 0,2.568319 h 2.095996 v 7.452775 c 0,1.177268 2.566769,1.217785 2.566769,0 v -7.452775 h 2.190047 c 1.37941,0 1.461635,-2.568319 0,-2.568319 z m -11.6401164,0.04496 c -1.0455208,0 -1.979164,0.392737 -2.5548827,1.082104 -0.5637311,0.675011 -0.7335507,1.491529 -0.7265707,2.207101 8e-7,6.99e-4 -8e-7,0.0014 0,0.0021 5.8e-6,5.71e-4 -5.9e-6,0.001 0,0.0016 0.0022,1.240951 0.3625344,2.300792 1.2071614,2.852022 0.816768,0.533048 1.6397952,0.433652 2.1114991,0.415995 0.3661163,0 0.4866223,0.07626 0.5524213,0.161748 0.0658,0.08548 0.105638,0.265738 0.107487,0.541052 -5.99e-4,0.272841 -0.08959,0.476884 -0.138493,0.535368 -0.0461,0.05513 -0.06125,0.07247 -0.127124,0.09974 -0.06588,0.02727 -0.1954553,0.05625 -0.4314984,0.05633 -1.4832496,4.77e-4 -2.3616128,0 -2.3616128,0 -0.3285837,0 -0.5941446,0.211916 -0.7400065,0.458886 -0.1458616,0.246973 -0.210162,0.539427 -0.214974,0.831991 -0.00481,0.292563 0.049789,0.586651 0.1953369,0.838191 0.145275,0.25107 0.4229227,0.46017 0.7580934,0.460954 0,0 0.8809178,4.78e-4 2.3652302,0 1.0414292,-3.37e-4 1.9721742,-0.401752 2.5445472,-1.086238 0.562359,-0.672509 0.738457,-1.482579 0.738457,-2.197282 0,-1.248657 -0.359427,-2.311576 -1.205095,-2.867009 -0.820239,-0.538812 -1.652611,-0.438615 -2.1249349,-0.421679 h -0.00568 -0.0062 C 9.3893173,17.166195 9.2768998,17.099395 9.1981995,17.002183 9.1197622,16.905297 9.0674731,16.714737 9.0653909,16.453379 v -0.0057 -0.0078 -0.0021 c -0.00334,-0.278407 0.08188,-0.471782 0.1250571,-0.523483 0.043975,-0.05266 0.057572,-0.06989 0.1250569,-0.09767 0.067485,-0.02778 0.2001925,-0.05839 0.4433837,-0.05839 h 2.4158734 c 0.333412,0 0.605928,-0.205806 0.759644,-0.453202 0.153715,-0.247396 0.223827,-0.541431 0.228926,-0.836125 0.0051,-0.294693 -0.05345,-0.593252 -0.207222,-0.845426 -0.153775,-0.252174 -0.438863,-0.453202 -0.781348,-0.453202 z m 7.9581704,3.184818 c -0.355609,0 -0.641821,0.286212 -0.641821,0.641822 v 1.284159 c 0,0.355609 0.286212,0.641821 0.641821,0.641821 0.35561,0 0.641822,-0.286212 0.641822,-0.641821 v -1.284159 c 0,-0.35561 -0.286212,-0.641822 -0.641822,-0.641822 z m -0.01654,3.851445 c -0.347868,0.0088 -0.625285,0.291768 -0.625285,0.641821 v 1.283643 c 0,0.355609 0.286212,0.642337 0.641821,0.642337 0.35561,0 0.641822,-0.286728 0.641822,-0.642337 v -1.283643 c 0,-0.355609 -0.286212,-0.641821 -0.641822,-0.641821 -0.0056,0 -0.01101,-1.39e-4 -0.01654,0 z m 0,3.851444 c -0.347868,0.0088 -0.625285,0.291769 -0.625285,0.641821 v 1.283643 c 0,0.355609 0.286212,0.641821 0.641821,0.641821 0.35561,0 0.641822,-0.286212 0.641822,-0.641821 v -1.283643 c 0,-0.355609 -0.286212,-0.641821 -0.641822,-0.641821 -0.0056,0 -0.01101,-1.39e-4 -0.01654,0 z" />
      <path
         id="path4434"
         style="color:#000000;fill:#320000;fill-opacity:0.0514706;stroke-width:0.600001;stroke-linecap:round;-inkscape-stroke:none"
         d="M 17.913135,9.1489168 C 17.565267,9.1576668 17.28785,9.4406855 17.28785,9.7907382 V 11.07438 c 0,0.355609 0.286212,0.641821 0.641821,0.641821 0.35561,0 0.641822,-0.286212 0.641822,-0.641821 V 9.7907382 c 0,-0.3556092 -0.286212,-0.6418214 -0.641822,-0.6418214 -0.0056,0 -0.01101,-1.39e-4 -0.01654,0 z m 0.01654,3.8509272 c -0.355609,0 -0.641821,0.286212 -0.641821,0.641821 v 1.284159 c 0,0.35561 0.286212,0.641822 0.641821,0.641822 0.35561,0 0.641822,-0.286212 0.641822,-0.641822 v -1.284159 c 0,-0.355609 -0.286212,-0.641821 -0.641822,-0.641821 z m 3.681946,0.621667 c -1.588147,0 -1.577662,2.568319 0,2.568319 h 2.095996 v 7.452775 c 0,1.177268 2.566769,1.217785 2.566769,0 V 16.18983 h 2.190047 c 1.37941,0 1.461635,-2.568319 0,-2.568319 z m -11.6401168,0.04496 c -1.0455208,0 -1.979164,0.392737 -2.5548827,1.082104 -0.5637311,0.675011 -0.7335507,1.491529 -0.7265707,2.207101 8e-7,6.99e-4 -8e-7,0.0014 0,0.0021 5.8e-6,5.71e-4 -5.9e-6,0.001 0,0.0016 0.0022,1.240951 0.3625344,2.300792 1.2071614,2.852022 0.816768,0.533048 1.6397952,0.433652 2.1114988,0.415995 0.366117,0 0.486623,0.07626 0.552422,0.161748 0.0658,0.08548 0.105638,0.265738 0.107487,0.541052 -5.99e-4,0.272841 -0.08959,0.476884 -0.138493,0.535368 -0.0461,0.05513 -0.06125,0.07247 -0.127124,0.09974 -0.06588,0.02727 -0.195456,0.05625 -0.4314988,0.05633 -1.4832496,4.77e-4 -2.3616128,0 -2.3616128,0 -0.3285837,0 -0.5941446,0.211916 -0.7400065,0.458886 -0.1458616,0.246973 -0.210162,0.539427 -0.214974,0.831991 -0.00481,0.292563 0.049789,0.586651 0.1953369,0.838191 0.145275,0.25107 0.4229227,0.46017 0.7580934,0.460954 0,0 0.8809178,4.78e-4 2.3652302,0 1.0414296,-3.37e-4 1.9721746,-0.401752 2.5445476,-1.086238 0.562359,-0.672509 0.738457,-1.482579 0.738457,-2.197282 0,-1.248657 -0.359427,-2.311576 -1.205095,-2.867009 -0.820239,-0.538812 -1.652611,-0.438615 -2.1249353,-0.421679 h -0.00568 -0.0062 C 9.6019289,17.662289 9.4895114,17.595489 9.4108111,17.498277 9.3323738,17.401391 9.2800847,17.210831 9.2780025,16.949473 v -0.0057 -0.0078 -0.0021 c -0.00334,-0.278407 0.08188,-0.471782 0.1250571,-0.523483 0.043975,-0.05266 0.057572,-0.06989 0.1250569,-0.09767 0.067485,-0.02778 0.2001925,-0.05839 0.4433837,-0.05839 h 2.4158738 c 0.333412,0 0.605928,-0.205806 0.759644,-0.453202 0.153715,-0.247396 0.223827,-0.541431 0.228926,-0.836125 0.0051,-0.294693 -0.05345,-0.593252 -0.207222,-0.845426 -0.153775,-0.252174 -0.438863,-0.453202 -0.781348,-0.453202 z m 7.9581708,3.184818 c -0.355609,0 -0.641821,0.286212 -0.641821,0.641822 v 1.284159 c 0,0.355609 0.286212,0.641821 0.641821,0.641821 0.35561,0 0.641822,-0.286212 0.641822,-0.641821 v -1.284159 c 0,-0.35561 -0.286212,-0.641822 -0.641822,-0.641822 z m -0.01654,3.851445 c -0.347868,0.0088 -0.625285,0.291768 -0.625285,0.641821 v 1.283643 c 0,0.355609 0.286212,0.642337 0.641821,0.642337 0.35561,0 0.641822,-0.286728 0.641822,-0.642337 v -1.283643 c 0,-0.355609 -0.286212,-0.641821 -0.641822,-0.641821 -0.0056,0 -0.01101,-1.39e-4 -0.01654,0 z m 0,3.851444 c -0.347868,0.0088 -0.625285,0.291769 -0.625285,0.641821 v 1.283643 c 0,0.355609 0.286212,0.641821 0.641821,0.641821 0.35561,0 0.641822,-0.286212 0.641822,-0.641821 v -1.283643 c 0,-0.355609 -0.286212,-0.641821 -0.641822,-0.641821 -0.0056,0 -0.01101,-1.39e-4 -0.01654,0 z" />
      <path
         id="path4436"
         style="color:#000000;fill:#320000;fill-opacity:0.0514706;stroke-width:0.600001;stroke-linecap:round;-inkscape-stroke:none"
         d="m 18.066688,9.5505165 c -0.347868,0.00875 -0.625285,0.2917687 -0.625285,0.6418215 v 1.283642 c 0,0.355609 0.286212,0.641821 0.641821,0.641821 0.35561,0 0.641822,-0.286212 0.641822,-0.641821 v -1.283642 c 0,-0.3556093 -0.286212,-0.6418215 -0.641822,-0.6418215 -0.0056,0 -0.01101,-1.39e-4 -0.01654,0 z m 0.01654,3.8509275 c -0.355609,0 -0.641821,0.286212 -0.641821,0.641821 v 1.284159 c 0,0.35561 0.286212,0.641822 0.641821,0.641822 0.35561,0 0.641822,-0.286212 0.641822,-0.641822 v -1.284159 c 0,-0.355609 -0.286212,-0.641821 -0.641822,-0.641821 z m 3.681946,0.621667 c -1.588147,0 -1.577662,2.568319 0,2.568319 h 2.095996 v 7.452775 c 0,1.177268 2.566769,1.217785 2.566769,0 V 16.59143 h 2.190047 c 1.37941,0 1.461635,-2.568319 0,-2.568319 z m -11.640117,0.04496 c -1.0455208,0 -1.979164,0.392737 -2.5548827,1.082104 -0.5637311,0.675011 -0.7335507,1.491529 -0.7265707,2.207101 8e-7,6.99e-4 -8e-7,0.0014 0,0.0021 5.8e-6,5.71e-4 -5.9e-6,10e-4 0,0.0016 0.0022,1.240951 0.3625344,2.300792 1.2071614,2.852022 0.816768,0.533048 1.6397952,0.433652 2.111499,0.415995 0.366117,0 0.486623,0.07626 0.552422,0.161748 0.0658,0.08548 0.105638,0.265738 0.107487,0.541052 -5.99e-4,0.272841 -0.08959,0.476884 -0.138493,0.535368 -0.0461,0.05513 -0.06125,0.07247 -0.127124,0.09974 -0.06588,0.02727 -0.195456,0.05625 -0.431499,0.05633 -1.4832496,4.77e-4 -2.3616128,0 -2.3616128,0 -0.3285837,0 -0.5941446,0.211916 -0.7400065,0.458886 -0.1458616,0.246973 -0.210162,0.539427 -0.214974,0.831991 -0.00481,0.292563 0.049789,0.586651 0.1953369,0.838191 0.145275,0.25107 0.4229227,0.46017 0.7580934,0.460954 0,0 0.8809178,4.78e-4 2.36523,0 1.04143,-3.37e-4 1.972175,-0.401752 2.544548,-1.086238 0.562359,-0.672509 0.738457,-1.482579 0.738457,-2.197282 0,-1.248657 -0.359427,-2.311576 -1.205095,-2.867009 -0.820239,-0.538812 -1.652611,-0.438615 -2.124935,-0.421679 h -0.0057 -0.0062 C 9.7554817,18.063889 9.6430642,17.997089 9.5643639,17.899877 9.4859266,17.802991 9.4336375,17.612431 9.4315553,17.351073 v -0.0057 -0.0078 -0.0021 c -0.00334,-0.278407 0.08188,-0.471782 0.1250571,-0.523483 0.043975,-0.05266 0.057572,-0.06989 0.1250569,-0.09767 0.067485,-0.02778 0.2001925,-0.05839 0.4433837,-0.05839 h 2.415874 c 0.333412,0 0.605928,-0.205806 0.759644,-0.453202 0.153715,-0.247396 0.223827,-0.541431 0.228926,-0.836125 0.0051,-0.294693 -0.05345,-0.593252 -0.207222,-0.845426 -0.153775,-0.252174 -0.438863,-0.453202 -0.781348,-0.453202 z m 7.958171,3.184818 c -0.355609,0 -0.641821,0.286212 -0.641821,0.641822 v 1.284159 c 0,0.355609 0.286212,0.641821 0.641821,0.641821 0.35561,0 0.641822,-0.286212 0.641822,-0.641821 v -1.284159 c 0,-0.35561 -0.286212,-0.641822 -0.641822,-0.641822 z m -0.01654,3.851445 c -0.347868,0.0088 -0.625285,0.291768 -0.625285,0.641821 v 1.283643 c 0,0.355609 0.286212,0.642337 0.641821,0.642337 0.35561,0 0.641822,-0.286728 0.641822,-0.642337 v -1.283643 c 0,-0.355609 -0.286212,-0.641821 -0.641822,-0.641821 -0.0056,0 -0.01101,-1.39e-4 -0.01654,0 z m 0,3.851444 c -0.347868,0.0088 -0.625285,0.291769 -0.625285,0.641821 v 1.283643 c 0,0.355609 0.286212,0.641821 0.641821,0.641821 0.35561,0 0.641822,-0.286212 0.641822,-0.641821 v -1.283643 c 0,-0.355609 -0.286212,-0.641821 -0.641822,-0.641821 -0.0056,0 -0.01101,-1.39e-4 -0.01654,0 z" />
    </g>
    <path
       id="path2374"
       style="color:#000000;fill:url(#linearGradient2560);stroke-width:2.26772;stroke-linecap:round;-inkscape-stroke:none;fill-opacity:1"
       d="M 65.345703 29.914062 C 64.030926 29.94715 62.982422 31.01681 62.982422 32.339844 L 62.982422 37.191406 C 62.982422 38.535441 64.064168 39.617188 65.408203 39.617188 C 66.752238 39.617188 67.833984 38.535441 67.833984 37.191406 L 67.833984 32.339844 C 67.833984 30.995809 66.752238 29.914062 65.408203 29.914062 C 65.387203 29.914062 65.366573 29.913537 65.345703 29.914062 z M 65.408203 44.46875 C 64.064168 44.46875 62.982422 45.550496 62.982422 46.894531 L 62.982422 51.748047 C 62.982422 53.092082 64.064168 54.173828 65.408203 54.173828 C 66.752238 54.173828 67.833984 53.092082 67.833984 51.748047 L 67.833984 46.894531 C 67.833984 45.550496 66.752238 44.46875 65.408203 44.46875 z M 79.324219 46.818359 C 73.321773 46.818359 73.361402 56.525391 79.324219 56.525391 L 87.246094 56.525391 L 87.246094 84.693359 C 87.246094 89.142876 96.947266 89.296011 96.947266 84.693359 L 96.947266 56.525391 L 105.22461 56.525391 C 110.43813 56.525391 110.7489 46.818359 105.22461 46.818359 L 79.324219 46.818359 z M 35.330078 46.988281 C 31.378503 46.988281 27.849773 48.472643 25.673828 51.078125 C 23.543191 53.629348 22.901353 56.715398 22.927734 59.419922 C 22.927737 59.422564 22.927731 59.425089 22.927734 59.427734 C 22.927756 59.429892 22.927712 59.431515 22.927734 59.433594 C 22.936049 64.123802 24.297943 68.129502 27.490234 70.212891 C 30.577231 72.22756 33.687885 71.851888 35.470703 71.785156 C 36.854449 71.785156 37.309906 72.073384 37.558594 72.396484 C 37.807283 72.719558 37.957855 73.400849 37.964844 74.441406 C 37.96258 75.472616 37.626252 76.243802 37.441406 76.464844 C 37.26717 76.673209 37.209917 76.738729 36.960938 76.841797 C 36.711957 76.944865 36.222208 77.054385 35.330078 77.054688 C 29.724095 77.05649 26.404297 77.054688 26.404297 77.054688 C 25.162406 77.054688 24.158711 77.855633 23.607422 78.789062 C 23.056134 79.722504 22.813109 80.82784 22.794922 81.933594 C 22.776742 83.039344 22.983101 84.150856 23.533203 85.101562 C 24.082274 86.050485 25.131651 86.840787 26.398438 86.84375 C 26.398438 86.84375 29.727891 86.845557 35.337891 86.84375 C 39.274001 86.842473 42.791775 85.325315 44.955078 82.738281 C 47.080529 80.196515 47.746094 77.134833 47.746094 74.433594 C 47.746094 69.71426 46.387632 65.696927 43.191406 63.597656 C 40.09129 61.561201 36.945315 61.939896 35.160156 62.003906 L 35.138672 62.003906 L 35.115234 62.003906 C 33.933273 62.09059 33.508388 61.838119 33.210938 61.470703 C 32.914482 61.10452 32.716854 60.384294 32.708984 59.396484 L 32.708984 59.375 L 32.708984 59.345703 L 32.708984 59.337891 C 32.696361 58.285644 33.018451 57.55478 33.181641 57.359375 C 33.347845 57.160345 33.399236 57.09523 33.654297 56.990234 C 33.909358 56.885239 34.41093 56.769531 35.330078 56.769531 L 44.460938 56.769531 C 45.721077 56.769531 46.751057 55.991681 47.332031 55.056641 C 47.913001 54.121601 48.177994 53.010285 48.197266 51.896484 C 48.216541 50.782684 47.995252 49.65427 47.414062 48.701172 C 46.832866 47.748073 45.755369 46.988281 44.460938 46.988281 L 35.330078 46.988281 z M 65.408203 59.025391 C 64.064168 59.025391 62.982422 60.107137 62.982422 61.451172 L 62.982422 66.304688 C 62.982422 67.648722 64.064168 68.730469 65.408203 68.730469 C 66.752238 68.730469 67.833984 67.648722 67.833984 66.304688 L 67.833984 61.451172 C 67.833984 60.107137 66.752238 59.025391 65.408203 59.025391 z M 65.345703 73.582031 C 64.030926 73.615119 62.982422 74.684778 62.982422 76.007812 L 62.982422 80.859375 C 62.982422 82.20341 64.064168 83.287109 65.408203 83.287109 C 66.752238 83.287109 67.833984 82.20341 67.833984 80.859375 L 67.833984 76.007812 C 67.833984 74.663778 66.752238 73.582031 65.408203 73.582031 C 65.387203 73.582031 65.366573 73.581506 65.345703 73.582031 z M 65.345703 88.138672 C 64.030926 88.17176 62.982422 89.241419 62.982422 90.564453 L 62.982422 95.416016 C 62.982422 96.76005 64.064168 97.841797 65.408203 97.841797 C 66.752238 97.841797 67.833984 96.76005 67.833984 95.416016 L 67.833984 90.564453 C 67.833984 89.220418 66.752238 88.138672 65.408203 88.138672 C 65.387203 88.138672 65.366573 88.138147 65.345703 88.138672 z "
       transform="scale(0.26458333)" />
  </g>
</svg>
