<?xml version="1.0" encoding="UTF-8" standalone="no"?>
<svg
   width="128"
   height="128"
   viewBox="0 0 33.866666 33.866668"
   version="1.1"
   id="svg1443"
   inkscape:version="1.1.2 (0a00cf5339, 2022-02-04)"
   sodipodi:docname="sengi.svg"
   xmlns:inkscape="http://www.inkscape.org/namespaces/inkscape"
   xmlns:sodipodi="http://sodipodi.sourceforge.net/DTD/sodipodi-0.dtd"
   xmlns:xlink="http://www.w3.org/1999/xlink"
   xmlns="http://www.w3.org/2000/svg"
   xmlns:svg="http://www.w3.org/2000/svg"
   xmlns:rdf="http://www.w3.org/1999/02/22-rdf-syntax-ns#"
   xmlns:cc="http://creativecommons.org/ns#"
   xmlns:dc="http://purl.org/dc/elements/1.1/">
  <defs
     id="defs1437">
    <linearGradient
       gradientTransform="matrix(0.97573206,0,0,0.97573206,-111.76517,-37.182508)"
       gradientUnits="userSpaceOnUse"
       y2="70.679932"
       x2="132.21078"
       y1="42.151531"
       x1="132.21078"
       id="linearGradient1632"
       xlink:href="#linearGradient1630"
       inkscape:collect="always" />
    <linearGradient
       id="linearGradient1630"
       inkscape:collect="always">
      <stop
         id="stop1626"
         offset="0"
         style="stop-color:#fafafc;stop-opacity:1" />
      <stop
         id="stop1628"
         offset="1"
         style="stop-color:#e2e6ea;stop-opacity:1" />
    </linearGradient>
    <filter
       color-interpolation-filters="sRGB"
       height="1.1311001"
       width="1.1106"
       y="-0.065563001"
       x="-0.055319"
       id="c-9">
      <feGaussianBlur
         id="feGaussianBlur1093"
         stdDeviation="1.1062912" />
    </filter>
    <linearGradient
       gradientUnits="userSpaceOnUse"
       gradientTransform="matrix(0.13235,0,0,0.13075,-32.379,1.0873)"
       y2="269.48999"
       y1="235.14999"
       x2="657.65002"
       x1="319.20999"
       id="a-12">
      <stop
         id="stop1076"
         offset="0"
         stop-color="#e54c18" />
      <stop
         id="stop1078"
         offset="1"
         stop-color="#fec350" />
    </linearGradient>
    <linearGradient
       id="linearGradient861"
       x1="21.589001"
       x2="24.059999"
       y1="36.700001"
       y2="26.864"
       gradientTransform="matrix(0.55116065,0,0,0.55116065,3.8665517,4.1360331)"
       gradientUnits="userSpaceOnUse"
       xlink:href="#linearGradient859" />
    <linearGradient
       id="linearGradient859">
      <stop
         style="stop-color:#0c8df2"
         offset="0"
         id="stop7" />
      <stop
         style="stop-color:#0c8df2;stop-opacity:0"
         offset="1"
         id="stop9" />
    </linearGradient>
    <linearGradient
       id="linearGradient869"
       x1="38.323002"
       x2="30.099001"
       y1="27.66"
       y2="22.787001"
       gradientTransform="matrix(0.56244867,0,0,0.56244867,3.9909868,3.6499169)"
       gradientUnits="userSpaceOnUse"
       xlink:href="#linearGradient867" />
    <linearGradient
       id="linearGradient867">
      <stop
         style="stop-color:#00e6ff"
         offset="0"
         id="stop2" />
      <stop
         style="stop-color:#00e6ff;stop-opacity:0"
         offset="1"
         id="stop4" />
    </linearGradient>
    <linearGradient
       id="linearGradient891"
       x1="27.827999"
       x2="19.208"
       y1="20.905001"
       y2="23.493"
       gradientTransform="matrix(0.56244867,0,0,0.56244867,3.6857797,3.8791287)"
       gradientUnits="userSpaceOnUse"
       xlink:href="#linearGradient867" />
  </defs>
  <sodipodi:namedview
     id="base"
     pagecolor="#ffffff"
     bordercolor="#666666"
     borderopacity="1.0"
     inkscape:pageopacity="0.0"
     inkscape:pageshadow="2"
     inkscape:zoom="2.8"
     inkscape:cx="-35.714286"
     inkscape:cy="126.60714"
     inkscape:document-units="mm"
     inkscape:current-layer="layer1"
     inkscape:document-rotation="0"
     showgrid="false"
     units="px"
     inkscape:window-width="1920"
     inkscape:window-height="1028"
     inkscape:window-x="0"
     inkscape:window-y="24"
     inkscape:window-maximized="1"
     inkscape:pagecheckerboard="0" />
  <metadata
     id="metadata1440">
    <rdf:RDF>
      <cc:Work
         rdf:about="">
        <dc:format>image/svg+xml</dc:format>
        <dc:type
           rdf:resource="http://purl.org/dc/dcmitype/StillImage" />
      </cc:Work>
    </rdf:RDF>
  </metadata>
  <g
     inkscape:label="Capa 1"
     inkscape:groupmode="layer"
     id="layer1">
    <g
       style="opacity:0.295"
       transform="matrix(0.97573206,0,0,0.97573206,-65.737228,-37.182508)"
       id="g1702">
      <rect
         ry="6.6098609"
         rx="6.6098609"
         y="40.709618"
         x="69.839508"
         height="29.810888"
         width="29.810888"
         id="rect1634"
         style="fill:none;fill-opacity:1;stroke:#000000;stroke-width:0.1;stroke-linecap:round;stroke-linejoin:round;stroke-miterlimit:4;stroke-dasharray:none;stroke-opacity:0.02" />
      <rect
         style="fill:none;fill-opacity:1;stroke:#000000;stroke-width:0.2;stroke-linecap:round;stroke-linejoin:round;stroke-miterlimit:4;stroke-dasharray:none;stroke-opacity:0.02"
         id="rect1638"
         width="29.810888"
         height="29.810888"
         x="69.839508"
         y="40.709618"
         rx="6.6098609"
         ry="6.6098609" />
      <rect
         ry="6.6098609"
         rx="6.6098609"
         y="40.709618"
         x="69.839508"
         height="29.810888"
         width="29.810888"
         id="rect1640"
         style="fill:none;fill-opacity:1;stroke:#000000;stroke-width:0.3;stroke-linecap:round;stroke-linejoin:round;stroke-miterlimit:4;stroke-dasharray:none;stroke-opacity:0.02" />
      <rect
         style="fill:none;fill-opacity:1;stroke:#000000;stroke-width:0.4;stroke-linecap:round;stroke-linejoin:round;stroke-miterlimit:4;stroke-dasharray:none;stroke-opacity:0.02"
         id="rect1642"
         width="29.810888"
         height="29.810888"
         x="69.839508"
         y="40.709618"
         rx="6.6098609"
         ry="6.6098609" />
      <rect
         ry="6.6098609"
         rx="6.6098609"
         y="40.709618"
         x="69.839508"
         height="29.810888"
         width="29.810888"
         id="rect1644"
         style="fill:none;fill-opacity:1;stroke:#000000;stroke-width:0.5;stroke-linecap:round;stroke-linejoin:round;stroke-miterlimit:4;stroke-dasharray:none;stroke-opacity:0.02" />
      <rect
         style="fill:none;fill-opacity:1;stroke:#000000;stroke-width:0.6;stroke-linecap:round;stroke-linejoin:round;stroke-miterlimit:4;stroke-dasharray:none;stroke-opacity:0.02"
         id="rect1646"
         width="29.810888"
         height="29.810888"
         x="69.839508"
         y="40.709618"
         rx="6.6098609"
         ry="6.6098609" />
      <rect
         ry="6.6098609"
         rx="6.6098609"
         y="40.709618"
         x="69.839508"
         height="29.810888"
         width="29.810888"
         id="rect1648"
         style="fill:none;fill-opacity:1;stroke:#000000;stroke-width:0.7;stroke-linecap:round;stroke-linejoin:round;stroke-miterlimit:4;stroke-dasharray:none;stroke-opacity:0.02" />
      <rect
         style="fill:none;fill-opacity:1;stroke:#000000;stroke-width:0.8;stroke-linecap:round;stroke-linejoin:round;stroke-miterlimit:4;stroke-dasharray:none;stroke-opacity:0.02"
         id="rect1650"
         width="29.810888"
         height="29.810888"
         x="69.839508"
         y="40.709618"
         rx="6.6098609"
         ry="6.6098609" />
      <rect
         ry="6.6098609"
         rx="6.6098609"
         y="40.709618"
         x="69.839508"
         height="29.810888"
         width="29.810888"
         id="rect1652"
         style="fill:none;fill-opacity:1;stroke:#000000;stroke-width:1;stroke-linecap:round;stroke-linejoin:round;stroke-miterlimit:4;stroke-dasharray:none;stroke-opacity:0.02" />
      <rect
         style="fill:none;fill-opacity:1;stroke:#000000;stroke-width:1.2;stroke-linecap:round;stroke-linejoin:round;stroke-miterlimit:4;stroke-dasharray:none;stroke-opacity:0.02"
         id="rect1654"
         width="29.810888"
         height="29.810888"
         x="69.839508"
         y="40.709618"
         rx="6.6098609"
         ry="6.6098609" />
      <rect
         ry="6.6098609"
         rx="6.6098609"
         y="40.709618"
         x="69.839508"
         height="29.810888"
         width="29.810888"
         id="rect1656"
         style="fill:none;fill-opacity:1;stroke:#000000;stroke-width:1.4;stroke-linecap:round;stroke-linejoin:round;stroke-miterlimit:4;stroke-dasharray:none;stroke-opacity:0.02" />
      <rect
         style="fill:none;fill-opacity:1;stroke:#000000;stroke-width:1.6;stroke-linecap:round;stroke-linejoin:round;stroke-miterlimit:4;stroke-dasharray:none;stroke-opacity:0.02"
         id="rect1658"
         width="29.810888"
         height="29.810888"
         x="69.839508"
         y="40.709618"
         rx="6.6098609"
         ry="6.6098609" />
      <rect
         ry="6.6098609"
         rx="6.6098609"
         y="40.709618"
         x="69.839508"
         height="29.810888"
         width="29.810888"
         id="rect1660"
         style="fill:none;fill-opacity:1;stroke:#000000;stroke-width:1.8;stroke-linecap:round;stroke-linejoin:round;stroke-miterlimit:4;stroke-dasharray:none;stroke-opacity:0.02" />
      <rect
         style="fill:none;fill-opacity:1;stroke:#000000;stroke-width:2;stroke-linecap:round;stroke-linejoin:round;stroke-miterlimit:4;stroke-dasharray:none;stroke-opacity:0.02"
         id="rect1662"
         width="29.810888"
         height="29.810888"
         x="69.839508"
         y="40.709618"
         rx="6.6098609"
         ry="6.6098609" />
      <rect
         ry="6.6098609"
         rx="6.6098609"
         y="40.709618"
         x="69.839508"
         height="29.810888"
         width="29.810888"
         id="rect1664"
         style="fill:none;fill-opacity:1;stroke:#000000;stroke-width:2.2;stroke-linecap:round;stroke-linejoin:round;stroke-miterlimit:4;stroke-dasharray:none;stroke-opacity:0.02" />
      <rect
         style="fill:none;fill-opacity:1;stroke:#000000;stroke-width:2.6;stroke-linecap:round;stroke-linejoin:round;stroke-miterlimit:4;stroke-dasharray:none;stroke-opacity:0.02"
         id="rect1666"
         width="29.810888"
         height="29.810888"
         x="69.839508"
         y="40.709618"
         rx="6.6098609"
         ry="6.6098609" />
      <rect
         ry="6.6098609"
         rx="6.6098609"
         y="40.709618"
         x="69.839508"
         height="29.810888"
         width="29.810888"
         id="rect1668"
         style="fill:none;fill-opacity:1;stroke:#000000;stroke-width:3;stroke-linecap:round;stroke-linejoin:round;stroke-miterlimit:4;stroke-dasharray:none;stroke-opacity:0.02" />
      <rect
         style="fill:none;fill-opacity:1;stroke:#000000;stroke-width:3.4;stroke-linecap:round;stroke-linejoin:round;stroke-miterlimit:4;stroke-dasharray:none;stroke-opacity:0.02"
         id="rect1670"
         width="29.810888"
         height="29.810888"
         x="69.839508"
         y="40.709618"
         rx="6.6098609"
         ry="6.6098609" />
      <rect
         ry="6.6098609"
         rx="6.6098609"
         y="40.709618"
         x="69.839508"
         height="29.810888"
         width="29.810888"
         id="rect1672"
         style="fill:none;fill-opacity:1;stroke:#000000;stroke-width:3.8;stroke-linecap:round;stroke-linejoin:round;stroke-miterlimit:4;stroke-dasharray:none;stroke-opacity:0.02" />
      <rect
         style="fill:none;fill-opacity:1;stroke:#000000;stroke-width:4.2;stroke-linecap:round;stroke-linejoin:round;stroke-miterlimit:4;stroke-dasharray:none;stroke-opacity:0.02"
         id="rect1674"
         width="29.810888"
         height="29.810888"
         x="69.839508"
         y="40.709618"
         rx="6.6098609"
         ry="6.6098609" />
      <rect
         ry="6.6098609"
         rx="6.6098609"
         y="40.709618"
         x="69.839508"
         height="29.810888"
         width="29.810888"
         id="rect1676"
         style="fill:none;fill-opacity:1;stroke:#000000;stroke-width:4.6;stroke-linecap:round;stroke-linejoin:round;stroke-miterlimit:4;stroke-dasharray:none;stroke-opacity:0.02" />
      <rect
         style="fill:none;fill-opacity:1;stroke:#000000;stroke-width:5;stroke-linecap:round;stroke-linejoin:round;stroke-miterlimit:4;stroke-dasharray:none;stroke-opacity:0.02"
         id="rect1678"
         width="29.810888"
         height="29.810888"
         x="69.839508"
         y="40.709618"
         rx="6.6098609"
         ry="6.6098609" />
    </g>
    <rect
       ry="6.4494534"
       rx="6.4494534"
       y="2.5391712"
       x="2.4074187"
       height="29.087439"
       width="29.087439"
       id="rect849"
       style="fill:url(#linearGradient1632);fill-opacity:1;stroke-width:2.68768;stroke-linecap:round;stroke-linejoin:round" />
    <path
       style="opacity:0.2;stroke-width:0.381572"
       d="m 22.084994,13.169238 c 0,0 -0.595665,1.310844 -0.645395,4.31356 3.513367,0.03727 4.269772,-1.491799 7.281182,1.252036 -1.193248,-3.013647 -3.472806,-3.958902 -6.635787,-5.565596 z m -0.810843,11.071571 v 1.687267 h 5.623725 c 0,0 -1.124135,-1.687267 -5.623725,-1.687267 z"
       id="path17" />
    <path
       style="opacity:0.2;stroke-width:0.381572"
       d="M 15.213503,28.17448 C 14.108368,28.08318 12.872368,27.738975 11.79818,27.223373 9.6143835,26.175166 7.8582215,24.317305 6.9510365,22.095542 6.3528134,20.630447 6.1249498,19.01009 6.2961551,17.438622 6.5327979,15.266555 7.4714455,13.29344 9.0290075,11.69392 9.7645065,10.93861 10.784828,10.201691 11.712179,9.7560231 11.902872,9.6643731 11.93,9.6560951 11.86036,9.7107391 11.81348,9.7475291 11.667678,9.8619933 11.536368,9.9651023 10.031817,11.14646 8.9207275,12.834895 8.4306785,14.684563 c -0.204816,0.773086 -0.288954,1.433836 -0.289238,2.271486 -2.13e-4,0.640941 0.02383,0.943225 0.120926,1.520131 0.325216,1.93225 1.306842,3.722011 2.7377265,5.049192 0.337589,0.313123 0.700186,0.600497 1.08507,0.857918 0.14028,0.09383 0.152954,0.09485 0.131194,0.01053 -0.131194,-0.01053 -0.265058,-0.197249 -0.29862,-0.41622 -0.0763,-0.497871 -0.378568,-0.645338 -0.334947,-1.102128 0,-2.712683 1.749206,-4.60615 3.593847,-5.876422 0.704277,-0.474851 1.425838,-0.793701 2.334394,-1.031537 0.690758,-0.180827 1.055606,-0.466566 1.486575,-0.825612 0.09094,-0.07577 0.153787,-0.145082 0.142024,-0.156643 -0.03497,-0.03434 -0.661697,-0.229143 -0.98994,-0.307696 -0.735992,-0.176141 -1.251499,-0.197542 -2.113076,-0.19669 -0.922204,9.16e-4 -1.639467,0.05356 -1.952201,0.203821 -0.145865,0.07009 -0.811336,0.146663 -1.088908,0.48375 -0.908948,1.103814 -1.274536,2.16097 -1.561906,3.551003 -0.06928,0.335158 0.08131,-0.07403 0,0 -0.155364,0.141448 0.08509,0.190646 0,0 -0.08878,-0.1989 -0.289311,-0.416951 -0.339066,-1.005347 -0.03137,-0.370984 -0.107801,-0.9977 -0.06459,-1.354828 0.201744,-1.667433 1.0644,-2.843572 2.11887,-4.1547 0.284411,-0.353632 0.767741,-0.921986 1.120272,-1.198629 0.762938,-0.598705 1.643997,-0.83729 2.521521,-1.1652392 l -0.05372,-0.7319866 0.0026,-0.2446531 c 0.0022,-0.1982631 0.01527,-0.2812553 0.06941,-0.4376855 0.104225,-0.3011139 0.272643,-0.5447791 0.490764,-0.7100281 l 0.12942,-0.098053 0.13304,0.03839 c 0.395382,0.1141185 0.769278,0.4178326 0.947656,0.7697943 0.05384,0.1062299 0.104745,0.4395819 0.113109,0.4710125 0.01384,0.052019 0.08393,0.7091484 0.169194,0.6922347 0.05151,-0.010239 0.806894,0.1286122 1.162498,0.1269393 l 0.61639,-0.2407328 -0.07209,-0.6026446 C 20.81254,8.2986421 20.985103,8.014837 21.625884,7.8174595 v 0 l 0.313826,0.1461086 c 0.214183,0.1425868 0.358223,0.1249059 0.506695,0.3604431 0.146095,0.231753 0.06385,0.3650768 0.126305,0.6374685 0.06184,0.269705 0.08643,0.5855016 0.01885,0.8547451 -0.07666,0.3054372 -0.130977,0.6031352 -0.280429,0.8261942 -0.524401,-0.01139 0.261306,0.320523 0.261306,0.328354 0,0.0078 0.13976,0.138765 0.310591,0.290958 0.877613,0.781949 1.655139,1.803139 2.19526,2.883233 0,0 0.995216,1.910325 1.003017,4.500076 0.01882,0.909516 -0.172597,1.879669 -0.415599,2.681225 -0.747657,2.195422 -2.176382,3.92137 -3.913592,5.207775 l -0.193772,0.127776 0.267485,0.06706 c 0.98465,0.331938 1.754665,0.846661 2.418983,1.487872 h -7.016489 c 0,0 -1.388609,0.0097 -2.014794,-0.04231 z"
       id="path19" />
    <path
       style="fill:#0c8df2;stroke-width:0.381572"
       d="m 21.273984,23.859158 c 4.499589,0 5.624487,1.687346 5.624487,1.687346 h -5.624487 z"
       id="path21" />
    <path
       style="fill:#0c8df2;stroke-width:0.381572"
       d="m 22.085402,12.788134 c 3.162983,1.606694 5.442281,2.551032 6.635529,5.564679 -3.01141,-2.743835 -3.767858,-1.214481 -7.281225,-1.251741 0.04972,-3.002718 0.645696,-4.312938 0.645696,-4.312938 z"
       id="path23" />
    <path
       style="fill:#0cb7f2;stroke-width:0.381572"
       d="M 15.213503,27.792906 C 14.108368,27.701602 12.872368,27.357402 11.79818,26.841801 9.6143835,25.793594 7.8582215,23.935733 6.9510365,21.713968 6.3528134,20.248873 6.1249498,18.628517 6.2961551,17.05705 6.5327979,14.884981 7.4714455,12.911867 9.0290075,11.312347 9.7645065,10.557037 10.784828,9.8201186 11.712179,9.3744493 11.902872,9.2828003 11.93,9.2745223 11.86036,9.3291653 c -0.04688,0.03679 -0.192682,0.1512542 -0.323992,0.2543632 -1.504551,1.1813585 -2.6156405,2.8697945 -3.1056895,4.7194625 -0.204816,0.773085 -0.288954,1.433836 -0.289238,2.271484 -2.13e-4,0.640943 0.02383,0.943227 0.120926,1.520131 0.325216,1.932252 1.306842,3.722011 2.7377265,5.049194 0.337589,0.313122 0.700186,0.600495 1.08507,0.857917 0.14028,0.09383 0.152954,0.09485 0.131194,0.01053 -0.131194,-0.01053 -0.265058,-0.197249 -0.29862,-0.416222 -0.0763,-0.497869 -0.378568,-0.645337 -0.334947,-1.102128 0,-2.712681 1.749206,-4.60615 3.593847,-5.87642 0.704277,-0.474851 1.425838,-0.793701 2.334394,-1.031537 0.690758,-0.180827 1.055606,-0.466568 1.486575,-0.825612 0.09094,-0.07577 0.153787,-0.145083 0.142024,-0.156644 -0.03497,-0.03434 -0.661697,-0.229142 -0.98994,-0.307696 -0.735992,-0.17614 -1.251499,-0.197542 -2.113076,-0.196691 -0.922204,9.16e-4 -1.639467,0.05356 -1.952201,0.203823 -0.145865,0.07009 -0.811336,0.146661 -1.088908,0.483748 -0.908948,1.103816 -1.274536,2.160971 -1.561906,3.551003 -0.06928,0.335159 -0.04807,0.626862 -0.129376,0.700887 -0.155366,0.141447 -0.0029,-0.115575 -0.08803,-0.306215 -0.08878,-0.198901 -0.07191,-0.811622 -0.121661,-1.400018 -0.03137,-0.370985 -0.107802,-0.997701 -0.06459,-1.354827 0.201745,-1.667434 1.0644,-2.843574 2.118871,-4.154702 0.28441,-0.353632 0.76774,-0.921984 1.120272,-1.198629 0.762938,-0.598705 1.643997,-0.8372894 2.521521,-1.1652391 l -0.05372,-0.7319851 0.0026,-0.2446546 c 0.0022,-0.1982615 0.01527,-0.2812552 0.06941,-0.4376854 0.104226,-0.3011124 0.272643,-0.5447777 0.490765,-0.7100282 l 0.12942,-0.098053 0.133039,0.03839 c 0.395383,0.1141185 0.769278,0.4178326 0.947657,0.7697943 0.05384,0.1062299 0.104744,0.4395834 0.113109,0.4710125 0.01384,0.052019 0.08393,0.7091484 0.169193,0.6922361 0.05151,-0.010239 0.806894,0.1286123 1.162499,0.1269394 l 0.616397,-0.2407305 -0.07209,-0.602646 c 0.313649,-0.5746476 0.486213,-0.8584541 1.126994,-1.0558316 v 0 l 0.313825,0.1461086 c 0.214183,0.1425868 0.358224,0.1249059 0.506696,0.3604431 0.146094,0.231753 0.06385,0.3650768 0.126305,0.6374685 0.06184,0.269705 0.08643,0.585503 0.01885,0.8547465 -0.07667,0.3054361 -0.130977,0.6031335 -0.280429,0.8261935 -0.524401,-0.01139 0.261306,0.320524 0.261306,0.328353 0,0.0078 0.13976,0.138765 0.31059,0.290958 0.877614,0.781949 1.655139,1.80314 2.19526,2.883234 0,0 0.995217,1.910324 1.003017,4.500077 0.01882,0.909516 -0.172597,1.879668 -0.415598,2.681224 -0.747658,2.195421 -2.176383,3.921369 -3.913593,5.207776 l -0.193772,0.127776 0.267486,0.06706 c 0.984649,0.331939 1.754664,0.846661 2.418983,1.487872 h -7.016489 c 0,0 -1.38861,0.0097 -2.014795,-0.04233 z"
       id="path25" />
    <path
       style="opacity:0.2;fill:#ffffff;stroke-width:0.381572"
       d="m 17.429359,7.2369738 -0.12968,0.097635 c -0.218122,0.1652505 -0.386897,0.4091191 -0.491126,0.710233 -0.05414,0.1564301 -0.06721,0.2392046 -0.06931,0.4374662 l -0.0023,0.2451911 0.0059,0.081237 c 0.0045,-0.1532458 0.01781,-0.2443214 0.06558,-0.3823178 0.104225,-0.3011125 0.273005,-0.5449825 0.491126,-0.7102315 l 0.12968,-0.097635 0.13265,0.038016 c 0.395382,0.1141185 0.769593,0.4178917 0.947971,0.7698535 0.05384,0.1062298 0.104168,0.4395732 0.112532,0.4710037 0.01384,0.052019 0.08392,0.7092595 0.169173,0.6923458 0.05151,-0.010239 0.807001,0.1283671 1.162606,0.1266942 L 20.57049,9.4757456 20.527268,9.1113134 19.954165,9.3348922 C 19.59856,9.3366228 18.843071,9.1979731 18.79156,9.208198 18.706299,9.2251146 18.63624,8.5678755 18.622386,8.5158523 18.614022,8.4844275 18.56369,8.1510726 18.509854,8.0448485 18.331476,7.6928868 17.957266,7.3891106 17.561883,7.274995 Z m 4.196555,0.1989841 c -0.640783,0.1973776 -0.813171,0.4813845 -1.126833,1.0560323 l 0.03727,0.3159898 c 0.289628,-0.526341 0.476352,-0.8015623 1.089568,-0.9904484 l 0.313753,0.1460697 c 0.214183,0.1425868 0.358306,0.1251799 0.506777,0.3607055 0.146094,0.231753 0.0635,0.3648057 0.125944,0.6371974 0.02217,0.09664 0.03689,0.1998451 0.04696,0.3040646 0.02602,-0.2268626 0.0025,-0.4703952 -0.04696,-0.6856383 C 22.509929,8.3075388 22.592536,8.1744876 22.446445,7.9427346 22.297974,7.7072017 22.153851,7.7246187 21.939668,7.582029 Z M 11.883883,9.296871 c -0.02192,0.00663 -0.07606,0.031684 -0.171408,0.077502 -0.927351,0.4456693 -1.9481795,1.182364 -2.6836795,1.937674 -1.557562,1.59952 -2.4962219,3.573136 -2.7328648,5.745203 -0.045893,0.421242 -0.060836,0.845589 -0.049932,1.269923 0.00421,-0.296994 0.017805,-0.593451 0.049932,-0.888349 0.2366429,-2.172067 1.1753028,-4.145684 2.7328648,-5.745204 0.472289,-0.485011 1.0644735,-0.953557 1.6716175,-1.351155 0.263893,-0.269147 0.540072,-0.5261723 0.83618,-0.7586738 0.131309,-0.1031148 0.276559,-0.2180856 0.323443,-0.2548781 0.03481,-0.027329 0.04576,-0.038751 0.02385,-0.032045 z m 4.879214,0.1721541 c -0.868405,0.3227189 -1.738681,0.5627109 -2.493638,1.1551519 -0.352533,0.276645 -0.83646,0.84549 -1.120869,1.199123 -1.054471,1.311127 -1.917028,2.486641 -2.118772,4.154075 -0.01608,0.132909 -0.01298,0.306891 -0.0045,0.487399 0.002,-0.03399 8e-4,-0.07543 0.0045,-0.105826 0.201744,-1.667433 1.064301,-2.842946 2.118772,-4.154074 0.284409,-0.353632 0.768336,-0.922478 1.120869,-1.199123 0.762938,-0.598703 1.643688,-0.83689 2.521212,-1.1648393 z m 5.627452,1.0247319 c -0.02381,0.05192 -0.04885,0.102927 -0.07974,0.149052 -0.524401,-0.01139 0.261586,0.320084 0.261586,0.327913 0,0.0078 0.139947,0.139198 0.310773,0.291397 0.877614,0.781949 1.654666,1.802569 2.194789,2.882664 0,0 0.938969,1.809148 0.997901,4.290457 4.2e-4,-0.05695 0.0063,-0.114883 0.0052,-0.17141 -0.0078,-2.589753 -1.003118,-4.500621 -1.003118,-4.500621 -0.540122,-1.080093 -1.317176,-2.100715 -2.19479,-2.882662 -0.170824,-0.152199 -0.310772,-0.283573 -0.310772,-0.291397 0,-0.0022 -0.105437,-0.05746 -0.181844,-0.0954 z m -3.543708,4.387342 c -0.370862,0.300713 -0.726716,0.545646 -1.335504,0.705015 -0.908557,0.237836 -1.63062,0.556587 -2.334898,1.031437 -1.844641,1.270272 -3.593639,3.163689 -3.593639,5.87637 -0.0074,0.07698 -0.0022,0.143121 0.0075,0.205692 0.07455,-2.617771 1.782159,-4.458184 3.586188,-5.700488 0.704277,-0.474851 1.42634,-0.793603 2.334896,-1.031439 0.69076,-0.180827 1.055081,-0.466702 1.486048,-0.825747 0.09094,-0.07577 0.15411,-0.144944 0.142342,-0.156504 -0.01327,-0.01312 -0.157484,-0.06011 -0.292888,-0.104341 z M 8.1464085,16.75468 c -0.0012,0.068 -0.0052,0.130905 -0.0052,0.201221 -2.12e-4,0.640941 0.02437,0.943422 0.121473,1.520328 0.325217,1.93225 1.306451,3.721949 2.7373365,5.049131 0.337589,0.313123 0.700214,0.600372 1.085098,0.857794 0.140279,0.09383 0.152919,0.09472 0.131164,0.01038 -0.131193,-0.01053 -0.265287,-0.196882 -0.298848,-0.415854 -0.0065,-0.04249 -0.01664,-0.0792 -0.02609,-0.117003 -0.311923,-0.22139 -0.612087,-0.457934 -0.891329,-0.716938 C 9.5691275,21.816557 8.5878935,20.026858 8.2626765,18.094607 8.1767365,17.584053 8.1517305,17.260094 8.1464085,16.754631 Z M 21.93594,26.388646 c -0.06195,0.04763 -0.1213,0.09883 -0.184078,0.145326 l -0.193768,0.12818 0.267548,0.06708 c 0.778733,0.26252 1.420503,0.642636 1.984626,1.105965 h 0.434487 C 23.605952,27.21861 22.867069,26.721255 21.93594,26.388643 Z"
       id="path27" />
    <path
       style="opacity:0.1;stroke-width:0.381572"
       d="m 13.507422,15.36265 c -0.89411,1.151935 -1.491099,2.47223 -1.773778,3.922859 -0.06816,0.349769 -0.07695,0.375121 -0.156934,0.452373 -0.15283,0.147618 -0.388621,0.09644 -0.472319,-0.102509 -0.08732,-0.20757 -0.219087,-1.00204 -0.268028,-1.616087 -0.03085,-0.387157 -0.01703,-1.289254 0.02547,-1.66195 0.198451,-1.740123 0.809658,-3.277611 1.846914,-4.645895 0.279769,-0.369048 0.962905,-1.086209 1.309684,-1.374914 1.638873,-1.4480136 3.453667,-1.9041285 5.44431,-1.9325016 l 0.636006,-0.00317 0.07743,-0.227924 c 0.308537,-0.599701 0.834339,-1.0509154 1.464659,-1.2568969 l 0.203791,-0.066599 0.134582,0.095039 c 0.210686,0.148804 0.530401,0.5024445 0.676449,0.7482456 0.143712,0.2418553 0.2705,0.5670361 0.331935,0.8513026 0.06083,0.2814629 0.05533,0.8280794 -0.01111,1.1090607 -0.07541,0.3187515 -0.188187,0.5984186 -0.335192,0.8312026 -0.07078,0.112086 -0.128685,0.210468 -0.128685,0.218639 0,0 -0.369517,0.959264 -1.758906,1.552268 -1.301067,0.555307 -2.396841,0.182702 -3.565922,0.556953 -1.528676,0.388213 -2.808127,1.389088 -3.680351,2.550494 z"
       id="path29" />
    <path
       style="fill:#00e6ff;stroke-width:0.381572"
       d="m 13.507422,14.981078 c -0.89411,1.151935 -1.491099,2.47223 -1.773778,3.922858 -0.06816,0.34977 -0.07695,0.375122 -0.156934,0.452374 -0.15283,0.147617 -0.388621,0.09644 -0.472319,-0.102509 -0.08732,-0.207572 -0.219087,-1.00204 -0.268028,-1.616087 -0.03085,-0.387158 -0.01703,-1.289255 0.02547,-1.66195 0.198451,-1.740123 0.809658,-3.277611 1.846914,-4.645895 0.279769,-0.369048 0.962905,-1.086208 1.309684,-1.3749138 1.638871,-1.4480141 3.453665,-1.9041289 5.444308,-1.9325021 l 0.636006,-0.00317 0.07743,-0.2279241 c 0.308541,-0.5996996 0.834343,-1.050914 1.464663,-1.2568955 l 0.203791,-0.066599 0.134582,0.095053 c 0.210686,0.148804 0.530401,0.5024444 0.676449,0.7482455 0.143712,0.2418553 0.2705,0.5670361 0.331935,0.8513026 0.06083,0.2814629 0.05533,0.8280794 -0.01111,1.1090593 -0.07541,0.318753 -0.188187,0.5984204 -0.335192,0.8312041 -0.07078,0.112085 -0.128685,0.210467 -0.128685,0.218638 0,0 -0.369517,0.959265 -1.758906,1.552269 -1.301067,0.555307 -2.396841,0.182702 -3.565922,0.556952 -1.528676,0.388214 -2.808127,1.389089 -3.680351,2.550495 z"
       id="path31" />
    <circle
       style="fill:url(#linearGradient861);stroke-width:0.381572"
       cx="16.543247"
       cy="22.875492"
       r="4.9604454"
       id="circle33" />
    <path
       style="fill:url(#linearGradient869);stroke-width:0.381572"
       d="m 21.771963,15.504604 c 3.162982,1.606694 5.302975,3.944094 6.496224,6.957741 -3.011412,-2.743837 -4.882309,-3.965777 -8.395676,-4.003038 0.04973,-3.002718 1.899452,-2.954703 1.899452,-2.954703 z"
       id="path35" />
    <path
       style="fill:url(#linearGradient891);stroke-width:0.381572"
       d="m 19.063712,14.565854 c 1.59e-4,2.92e-4 -0.003,0.0026 -0.003,0.003 8.4e-4,6.11e-4 0.01139,0.0039 0.01197,0.0045 5.35e-4,5.35e-4 -0.0062,0.0068 -0.0059,0.0075 0.0072,0.0035 0.05809,0.01702 0.06111,0.01938 -0.02306,-0.01096 -0.03989,-0.02364 -0.06409,-0.03428 z m 0.07453,0.03875 c 0.01024,0.01255 -0.05007,0.08 -0.140106,0.155014 -0.430968,0.359046 -0.79678,0.644921 -1.487538,0.825748 -0.908557,0.237837 -1.629876,0.556587 -2.334153,1.031439 -0.511365,0.344782 -0.978425,0.800765 -1.398106,1.314637 0.806021,-0.278823 1.586721,-0.55362 2.566672,-0.680744 1.148131,-0.148939 1.827495,-0.03226 2.332663,-0.151806 0.442799,-0.06046 1.270863,-0.788932 1.299732,-1.464542 0.01566,-0.366426 -0.23219,-0.739858 -0.839161,-1.029746 z"
       id="path37" />
    <path
       style="opacity:0.2;fill:#ffffff;stroke-width:0.381572"
       d="m 21.845019,6.4678659 -0.204201,0.067075 c -0.630321,0.2059815 -1.156639,0.656808 -1.46518,1.2565076 l -0.0775,0.2280495 -0.63496,0.00303 c -1.990643,0.028367 -3.805993,0.4851889 -5.444866,1.933203 -0.346777,0.288704 -1.030398,1.005209 -1.310165,1.374257 -1.037256,1.368284 -1.648301,2.905822 -1.846752,4.645947 -0.02605,0.228419 -0.03334,0.618952 -0.03205,0.991194 0.005,-0.237207 0.01524,-0.462267 0.03205,-0.609622 0.198451,-1.740125 0.809496,-3.277661 1.846752,-4.645946 0.279767,-0.369049 0.963388,-1.085554 1.310165,-1.374258 1.638873,-1.4480139 3.454223,-1.9048296 5.444866,-1.9332028 l 0.63496,-0.00303 0.0775,-0.2280495 c 0.308541,-0.5996982 0.834859,-1.0505247 1.46518,-1.2565076 l 0.204201,-0.067075 0.13415,0.095385 c 0.210686,0.1488054 0.530647,0.50244 0.676695,0.7482411 0.143712,0.2418554 0.270951,0.5668198 0.332386,0.8510863 0.01211,0.055725 0.02107,0.1207525 0.02682,0.1907854 0.0079,-0.2120977 0.0055,-0.4227561 -0.02682,-0.5723591 C 22.926814,7.8783102 22.799573,7.5533472 22.655864,7.3114919 22.509816,7.0656908 22.189855,6.7120561 21.979169,6.5632507 Z"
       id="path39" />
  </g>
</svg>
