<?xml version="1.0" encoding="UTF-8" standalone="no"?>
<svg
   width="128"
   height="128"
   viewBox="0 0 33.866666 33.866668"
   version="1.1"
   id="svg1443"
   inkscape:version="1.1.2 (0a00cf5339, 2022-02-04)"
   sodipodi:docname="shadwen.svg"
   xmlns:inkscape="http://www.inkscape.org/namespaces/inkscape"
   xmlns:sodipodi="http://sodipodi.sourceforge.net/DTD/sodipodi-0.dtd"
   xmlns:xlink="http://www.w3.org/1999/xlink"
   xmlns="http://www.w3.org/2000/svg"
   xmlns:svg="http://www.w3.org/2000/svg"
   xmlns:rdf="http://www.w3.org/1999/02/22-rdf-syntax-ns#"
   xmlns:cc="http://creativecommons.org/ns#"
   xmlns:dc="http://purl.org/dc/elements/1.1/">
  <defs
     id="defs1437">
    <linearGradient
       inkscape:collect="always"
       id="linearGradient1015">
      <stop
         style="stop-color:#ffffff;stop-opacity:1;"
         offset="0"
         id="stop1011" />
      <stop
         style="stop-color:#980eec;stop-opacity:1"
         offset="1"
         id="stop1013" />
    </linearGradient>
    <linearGradient
       id="linearGradient1630"
       inkscape:collect="always">
      <stop
         id="stop1626"
         offset="0"
         style="stop-color:#ff53f9;stop-opacity:1" />
      <stop
         id="stop1628"
         offset="1"
         style="stop-color:#8400ea;stop-opacity:1" />
    </linearGradient>
    <filter
       color-interpolation-filters="sRGB"
       height="1.1311001"
       width="1.1106"
       y="-0.065563001"
       x="-0.055319"
       id="c-9">
      <feGaussianBlur
         id="feGaussianBlur1093"
         stdDeviation="1.1062912" />
    </filter>
    <linearGradient
       gradientUnits="userSpaceOnUse"
       gradientTransform="matrix(0.13235,0,0,0.13075,-32.379,1.0873)"
       y2="269.48999"
       y1="235.14999"
       x2="657.65002"
       x1="319.20999"
       id="a-12">
      <stop
         id="stop1076"
         offset="0"
         stop-color="#e54c18" />
      <stop
         id="stop1078"
         offset="1"
         stop-color="#fec350" />
    </linearGradient>
    <radialGradient
       inkscape:collect="always"
       xlink:href="#linearGradient1630"
       id="radialGradient948"
       cx="16.951138"
       cy="6.0443439"
       fx="16.951138"
       fy="6.0443439"
       r="14.543719"
       gradientUnits="userSpaceOnUse"
       gradientTransform="matrix(3.1335146,0,0,1.987443,-36.165498,-5.9684452)" />
    <linearGradient
       inkscape:collect="always"
       xlink:href="#linearGradient1015"
       id="linearGradient1017"
       x1="8.5445814"
       y1="12.298345"
       x2="8.5445814"
       y2="64.360504"
       gradientUnits="userSpaceOnUse" />
  </defs>
  <sodipodi:namedview
     id="base"
     pagecolor="#ffffff"
     bordercolor="#666666"
     borderopacity="1.0"
     inkscape:pageopacity="0.0"
     inkscape:pageshadow="2"
     inkscape:zoom="2.8"
     inkscape:cx="-10.178571"
     inkscape:cy="90"
     inkscape:document-units="mm"
     inkscape:current-layer="layer1"
     inkscape:document-rotation="0"
     showgrid="false"
     units="px"
     inkscape:window-width="1920"
     inkscape:window-height="1024"
     inkscape:window-x="0"
     inkscape:window-y="0"
     inkscape:window-maximized="1"
     inkscape:pagecheckerboard="0" />
  <metadata
     id="metadata1440">
    <rdf:RDF>
      <cc:Work
         rdf:about="">
        <dc:format>image/svg+xml</dc:format>
        <dc:type
           rdf:resource="http://purl.org/dc/dcmitype/StillImage" />
      </cc:Work>
    </rdf:RDF>
  </metadata>
  <g
     inkscape:label="Capa 1"
     inkscape:groupmode="layer"
     id="layer1">
    <g
       style="opacity:0.18753551"
       transform="matrix(0.97573206,0,0,0.96360993,-65.737228,-36.327649)"
       id="g1702">
      <rect
         ry="6.6098609"
         rx="6.6098609"
         y="40.709618"
         x="69.839508"
         height="29.810888"
         width="29.810888"
         id="rect1634"
         style="fill:none;fill-opacity:1;stroke:#000000;stroke-width:0.1;stroke-linecap:round;stroke-linejoin:round;stroke-miterlimit:4;stroke-dasharray:none;stroke-opacity:0.02" />
      <rect
         style="fill:none;fill-opacity:1;stroke:#000000;stroke-width:0.2;stroke-linecap:round;stroke-linejoin:round;stroke-miterlimit:4;stroke-dasharray:none;stroke-opacity:0.02"
         id="rect1638"
         width="29.810888"
         height="29.810888"
         x="69.839508"
         y="40.709618"
         rx="6.6098609"
         ry="6.6098609" />
      <rect
         ry="6.6098609"
         rx="6.6098609"
         y="40.709618"
         x="69.839508"
         height="29.810888"
         width="29.810888"
         id="rect1640"
         style="fill:none;fill-opacity:1;stroke:#000000;stroke-width:0.3;stroke-linecap:round;stroke-linejoin:round;stroke-miterlimit:4;stroke-dasharray:none;stroke-opacity:0.02" />
      <rect
         style="fill:none;fill-opacity:1;stroke:#000000;stroke-width:0.4;stroke-linecap:round;stroke-linejoin:round;stroke-miterlimit:4;stroke-dasharray:none;stroke-opacity:0.02"
         id="rect1642"
         width="29.810888"
         height="29.810888"
         x="69.839508"
         y="40.709618"
         rx="6.6098609"
         ry="6.6098609" />
      <rect
         ry="6.6098609"
         rx="6.6098609"
         y="40.709618"
         x="69.839508"
         height="29.810888"
         width="29.810888"
         id="rect1644"
         style="fill:none;fill-opacity:1;stroke:#000000;stroke-width:0.5;stroke-linecap:round;stroke-linejoin:round;stroke-miterlimit:4;stroke-dasharray:none;stroke-opacity:0.02" />
      <rect
         style="fill:none;fill-opacity:1;stroke:#000000;stroke-width:0.6;stroke-linecap:round;stroke-linejoin:round;stroke-miterlimit:4;stroke-dasharray:none;stroke-opacity:0.02"
         id="rect1646"
         width="29.810888"
         height="29.810888"
         x="69.839508"
         y="40.709618"
         rx="6.6098609"
         ry="6.6098609" />
      <rect
         ry="6.6098609"
         rx="6.6098609"
         y="40.709618"
         x="69.839508"
         height="29.810888"
         width="29.810888"
         id="rect1648"
         style="fill:none;fill-opacity:1;stroke:#000000;stroke-width:0.7;stroke-linecap:round;stroke-linejoin:round;stroke-miterlimit:4;stroke-dasharray:none;stroke-opacity:0.02" />
      <rect
         style="fill:none;fill-opacity:1;stroke:#000000;stroke-width:0.8;stroke-linecap:round;stroke-linejoin:round;stroke-miterlimit:4;stroke-dasharray:none;stroke-opacity:0.02"
         id="rect1650"
         width="29.810888"
         height="29.810888"
         x="69.839508"
         y="40.709618"
         rx="6.6098609"
         ry="6.6098609" />
      <rect
         ry="6.6098609"
         rx="6.6098609"
         y="40.709618"
         x="69.839508"
         height="29.810888"
         width="29.810888"
         id="rect1652"
         style="fill:none;fill-opacity:1;stroke:#000000;stroke-width:1;stroke-linecap:round;stroke-linejoin:round;stroke-miterlimit:4;stroke-dasharray:none;stroke-opacity:0.02" />
      <rect
         style="fill:none;fill-opacity:1;stroke:#000000;stroke-width:1.2;stroke-linecap:round;stroke-linejoin:round;stroke-miterlimit:4;stroke-dasharray:none;stroke-opacity:0.02"
         id="rect1654"
         width="29.810888"
         height="29.810888"
         x="69.839508"
         y="40.709618"
         rx="6.6098609"
         ry="6.6098609" />
      <rect
         ry="6.6098609"
         rx="6.6098609"
         y="40.709618"
         x="69.839508"
         height="29.810888"
         width="29.810888"
         id="rect1656"
         style="fill:none;fill-opacity:1;stroke:#000000;stroke-width:1.4;stroke-linecap:round;stroke-linejoin:round;stroke-miterlimit:4;stroke-dasharray:none;stroke-opacity:0.02" />
      <rect
         style="fill:none;fill-opacity:1;stroke:#000000;stroke-width:1.6;stroke-linecap:round;stroke-linejoin:round;stroke-miterlimit:4;stroke-dasharray:none;stroke-opacity:0.02"
         id="rect1658"
         width="29.810888"
         height="29.810888"
         x="69.839508"
         y="40.709618"
         rx="6.6098609"
         ry="6.6098609" />
      <rect
         ry="6.6098609"
         rx="6.6098609"
         y="40.709618"
         x="69.839508"
         height="29.810888"
         width="29.810888"
         id="rect1660"
         style="fill:none;fill-opacity:1;stroke:#000000;stroke-width:1.8;stroke-linecap:round;stroke-linejoin:round;stroke-miterlimit:4;stroke-dasharray:none;stroke-opacity:0.02" />
      <rect
         style="fill:none;fill-opacity:1;stroke:#000000;stroke-width:2;stroke-linecap:round;stroke-linejoin:round;stroke-miterlimit:4;stroke-dasharray:none;stroke-opacity:0.02"
         id="rect1662"
         width="29.810888"
         height="29.810888"
         x="69.839508"
         y="40.709618"
         rx="6.6098609"
         ry="6.6098609" />
      <rect
         ry="6.6098609"
         rx="6.6098609"
         y="40.709618"
         x="69.839508"
         height="29.810888"
         width="29.810888"
         id="rect1664"
         style="fill:none;fill-opacity:1;stroke:#000000;stroke-width:2.2;stroke-linecap:round;stroke-linejoin:round;stroke-miterlimit:4;stroke-dasharray:none;stroke-opacity:0.02" />
      <rect
         style="fill:none;fill-opacity:1;stroke:#000000;stroke-width:2.6;stroke-linecap:round;stroke-linejoin:round;stroke-miterlimit:4;stroke-dasharray:none;stroke-opacity:0.02"
         id="rect1666"
         width="29.810888"
         height="29.810888"
         x="69.839508"
         y="40.709618"
         rx="6.6098609"
         ry="6.6098609" />
      <rect
         ry="6.6098609"
         rx="6.6098609"
         y="40.709618"
         x="69.839508"
         height="29.810888"
         width="29.810888"
         id="rect1668"
         style="fill:none;fill-opacity:1;stroke:#000000;stroke-width:3;stroke-linecap:round;stroke-linejoin:round;stroke-miterlimit:4;stroke-dasharray:none;stroke-opacity:0.02" />
      <rect
         style="fill:none;fill-opacity:1;stroke:#000000;stroke-width:3.4;stroke-linecap:round;stroke-linejoin:round;stroke-miterlimit:4;stroke-dasharray:none;stroke-opacity:0.02"
         id="rect1670"
         width="29.810888"
         height="29.810888"
         x="69.839508"
         y="40.709618"
         rx="6.6098609"
         ry="6.6098609" />
      <rect
         ry="6.6098609"
         rx="6.6098609"
         y="40.709618"
         x="69.839508"
         height="29.810888"
         width="29.810888"
         id="rect1672"
         style="fill:none;fill-opacity:1;stroke:#000000;stroke-width:3.8;stroke-linecap:round;stroke-linejoin:round;stroke-miterlimit:4;stroke-dasharray:none;stroke-opacity:0.02" />
      <rect
         style="fill:none;fill-opacity:1;stroke:#000000;stroke-width:4.2;stroke-linecap:round;stroke-linejoin:round;stroke-miterlimit:4;stroke-dasharray:none;stroke-opacity:0.02"
         id="rect1674"
         width="29.810888"
         height="29.810888"
         x="69.839508"
         y="40.709618"
         rx="6.6098609"
         ry="6.6098609" />
      <rect
         ry="6.6098609"
         rx="6.6098609"
         y="40.709618"
         x="69.839508"
         height="29.810888"
         width="29.810888"
         id="rect1676"
         style="fill:none;fill-opacity:1;stroke:#000000;stroke-width:4.6;stroke-linecap:round;stroke-linejoin:round;stroke-miterlimit:4;stroke-dasharray:none;stroke-opacity:0.02" />
      <rect
         style="fill:none;fill-opacity:1;stroke:#000000;stroke-width:5;stroke-linecap:round;stroke-linejoin:round;stroke-miterlimit:4;stroke-dasharray:none;stroke-opacity:0.02"
         id="rect1678"
         width="29.810888"
         height="29.810888"
         x="69.839508"
         y="40.709618"
         rx="6.6098609"
         ry="6.6098609" />
    </g>
    <rect
       ry="6.4494534"
       rx="6.4494534"
       y="2.5391712"
       x="2.4074187"
       height="29.087439"
       width="29.087439"
       id="rect849"
       style="fill:url(#radialGradient948);fill-opacity:1;stroke-width:2.68768;stroke-linecap:round;stroke-linejoin:round" />
    <path
       style="opacity:0.2;stroke-width:0.637301"
       d="m 8.5450472,26.956527 c -0.01277,-0.02023 0.238534,-0.326304 0.557894,-0.680275 2.1771518,-2.413533 2.4921698,-2.819608 2.7396968,-3.531697 0.07814,-0.224756 0.16201,-0.415326 0.18641,-0.423457 0.02421,-0.0082 0.161238,0.140572 0.30412,0.330428 0.142956,0.189854 0.50965,0.643747 0.815046,1.008641 0.308454,0.368632 0.53782,0.679988 0.516214,0.700693 -0.02168,0.02047 -0.190625,0.08775 -0.375945,0.14946 -0.185253,0.06169 -0.522142,0.217915 -0.748446,0.347137 -0.454715,0.259613 -1.070222,0.791148 -1.016626,0.877904 0.02548,0.04097 1.107887,0.05347 4.637392,0.05347 4.095114,0 4.615343,-0.0077 4.703545,-0.06944 0.0548,-0.03818 0.09909,-0.103888 0.09909,-0.145992 0,-0.04213 -0.157216,-0.296906 -0.349495,-0.566223 C 20.421732,24.737858 19.615102,23.604162 18.821406,22.487852 17.273399,20.31061 13.193137,14.595177 12.573869,13.736526 12.367131,13.4499 11.635953,12.428495 10.94894,11.466749 9.8677572,9.953088 9.6594882,9.6857005 9.3988312,9.4767987 9.2332572,9.3440793 9.0977702,9.2162519 9.0977702,9.1927598 c 0,-0.02428 0.188842,-0.042706 0.438272,-0.042706 0.397995,0 0.446622,0.00915 0.5287048,0.1003705 0.04972,0.055183 2.505618,3.5028437 5.457601,7.6614227 2.951983,4.158581 5.75522,8.10709 6.229438,8.774459 0.474215,0.667364 0.862204,1.234442 0.862204,1.260177 0,0.05692 -14.0338378,0.06694 -14.0689518,0.01012 z M 22.8354,26.625201 C 21.16777,24.327485 10.407371,9.2084598 10.421902,9.1834791 c 0.01084,-0.018306 3.059303,-0.033457 6.77484,-0.033457 5.809009,0 6.755464,0.00891 6.755464,0.063421 0,0.034854 -0.316163,0.360185 -0.70256,0.7229185 -1.796684,1.6865364 -2.574383,2.5600304 -2.95721,3.3213694 -0.09763,0.194214 -0.202403,0.352314 -0.232753,0.351338 -0.08259,-0.0026 -1.391803,-1.780131 -1.344453,-1.825304 0.0224,-0.0212 0.180677,-0.113859 0.352367,-0.206208 0.448151,-0.240952 0.957863,-0.605789 1.174037,-0.840285 0.203993,-0.221336 0.222299,-0.270348 0.115979,-0.311137 -0.03888,-0.01493 -1.611481,-0.02707 -3.494837,-0.02707 -3.323468,0 -3.426519,0.0027 -3.501974,0.08589 -0.04271,0.04724 -0.07094,0.113377 -0.06246,0.146979 0.0082,0.03358 0.346248,0.536786 0.751062,1.11821 0.784456,1.126692 0.856469,1.229413 1.650485,2.354397 0.282134,0.399748 0.605181,0.858695 0.717921,1.019868 0.112679,0.16119 0.401882,0.574075 0.642655,0.917563 0.473387,0.675431 0.828492,1.193379 1.610145,2.348611 0.276461,0.408492 0.600655,0.880222 0.720531,1.048286 0.247147,0.346475 1.953459,2.832584 3.176951,4.628902 0.449874,0.660432 0.952386,1.397699 1.116809,1.638377 0.334393,0.489493 0.542218,0.727762 0.883109,1.012475 0.127589,0.106585 0.220758,0.211966 0.207052,0.234198 -0.01397,0.02216 -0.395699,0.04039 -0.848693,0.04039 h -0.823714 z"
       id="path8" />
    <path
       style="fill:url(#linearGradient1017);stroke-width:0.637301;fill-opacity:1"
       d="m 8.5450472,26.319238 c -0.01277,-0.02023 0.238534,-0.326305 0.557894,-0.680275 2.1771518,-2.413535 2.4921698,-2.819611 2.7396968,-3.5317 0.07814,-0.224756 0.16201,-0.415323 0.18641,-0.423455 0.02421,-0.0082 0.161238,0.140572 0.30412,0.330428 0.142956,0.189854 0.50965,0.643745 0.815046,1.008639 0.308454,0.368635 0.53782,0.679988 0.516214,0.700694 -0.02168,0.02047 -0.190625,0.08775 -0.375945,0.14946 -0.185253,0.06169 -0.522142,0.217915 -0.748446,0.347139 -0.454715,0.25961 -1.070222,0.791145 -1.016626,0.877902 0.02548,0.04097 1.107887,0.05347 4.637392,0.05347 4.095114,0 4.615343,-0.0077 4.703545,-0.06944 0.0548,-0.03818 0.09909,-0.103887 0.09909,-0.145991 0,-0.04213 -0.157216,-0.296906 -0.349495,-0.566223 C 20.421732,24.100569 19.615102,22.96687 18.821406,21.85056 17.273399,19.673319 13.193137,13.957886 12.573869,13.099237 12.367131,12.812609 11.635953,11.791206 10.94894,10.82946 9.8677572,9.3157963 9.6594882,9.0484088 9.3988312,8.8395094 9.2332572,8.70679 9.0977702,8.5789602 9.0977702,8.5554706 c 0,-0.02428 0.188842,-0.042706 0.438272,-0.042706 0.397995,0 0.446622,0.00915 0.5287048,0.1003706 0.04972,0.055183 2.505618,3.5028408 5.457601,7.6614228 2.951983,4.158581 5.75522,8.107087 6.229438,8.774459 0.474215,0.667361 0.862204,1.234439 0.862204,1.260174 0,0.05692 -14.0338378,0.06694 -14.0689518,0.01012 z M 22.8354,25.987911 C 21.16777,23.690194 10.407371,8.5711705 10.421902,8.5461874 c 0.01084,-0.018306 3.059303,-0.033457 6.77484,-0.033457 5.809009,0 6.755464,0.00891 6.755464,0.063421 0,0.034854 -0.316163,0.3601827 -0.70256,0.7229162 -1.796684,1.6865364 -2.574383,2.5600304 -2.95721,3.3213694 -0.09763,0.194214 -0.202403,0.352314 -0.232753,0.351338 -0.08259,-0.0026 -1.391803,-1.780131 -1.344453,-1.825301 0.0224,-0.0212 0.180677,-0.11386 0.352367,-0.206209 0.448151,-0.240952 0.957863,-0.605788 1.174037,-0.840283 0.203993,-0.2213352 0.222299,-0.2703499 0.115979,-0.3111364 -0.03888,-0.014934 -1.611481,-0.027074 -3.494837,-0.027074 -3.323468,0 -3.426519,0.00265 -3.501974,0.085894 -0.04271,0.047235 -0.07094,0.1133776 -0.06246,0.146979 0.0082,0.033577 0.346248,0.5367864 0.751062,1.1182104 0.784456,1.126694 0.856469,1.229413 1.650485,2.354399 0.282134,0.399748 0.605181,0.858695 0.717921,1.019868 0.112679,0.161166 0.401882,0.574076 0.642655,0.917561 0.473387,0.675434 0.828492,1.193381 1.610145,2.348611 0.276461,0.408492 0.600655,0.880224 0.720531,1.048286 0.247147,0.346475 1.953459,2.832584 3.176951,4.628904 0.449874,0.66043 0.952386,1.397699 1.116809,1.638377 0.334393,0.489491 0.542218,0.72776 0.883109,1.012476 0.127589,0.106585 0.220758,0.211965 0.207052,0.234198 -0.01397,0.02216 -0.395699,0.04039 -0.848693,0.04039 h -0.823714 z"
       id="path10" />
  </g>
</svg>
