<?xml version="1.0" encoding="UTF-8" standalone="no"?>
<svg
   xmlns:dc="http://purl.org/dc/elements/1.1/"
   xmlns:cc="http://creativecommons.org/ns#"
   xmlns:rdf="http://www.w3.org/1999/02/22-rdf-syntax-ns#"
   xmlns:svg="http://www.w3.org/2000/svg"
   xmlns="http://www.w3.org/2000/svg"
   xmlns:xlink="http://www.w3.org/1999/xlink"
   xmlns:sodipodi="http://sodipodi.sourceforge.net/DTD/sodipodi-0.dtd"
   xmlns:inkscape="http://www.inkscape.org/namespaces/inkscape"
   width="128"
   height="128"
   viewBox="0 0 33.866666 33.866667"
   version="1.1"
   id="svg6"
   sodipodi:docname="slack.svg"
   inkscape:version="0.92.5 (2060ec1f9f, 2020-04-08)">
  <metadata
     id="metadata99">
    <rdf:RDF>
      <cc:Work
         rdf:about="">
        <dc:format>image/svg+xml</dc:format>
        <dc:type
           rdf:resource="http://purl.org/dc/dcmitype/StillImage" />
        <dc:title></dc:title>
      </cc:Work>
    </rdf:RDF>
  </metadata>
  <defs
     id="defs2">
    <linearGradient
       inkscape:collect="always"
       id="linearGradient1630">
      <stop
         style="stop-color:#f5f9fb;stop-opacity:1"
         offset="0"
         id="stop1626" />
      <stop
         style="stop-color:#f9fafc;stop-opacity:1"
         offset="1"
         id="stop1628" />
    </linearGradient>
    <linearGradient
       gradientTransform="translate(0,-896)"
       gradientUnits="userSpaceOnUse"
       y2="992"
       x2="32"
       y1="32"
       x1="32"
       id="lgrad">
      <stop
         id="stop2"
         stop-color="#f8f8f8"
         offset="0%" />
      <stop
         id="stop4"
         stop-color="#ccc"
         offset="100%" />
    </linearGradient>
    <radialGradient
       gradientTransform="translate(0,-896)"
       gradientUnits="userSpaceOnUse"
       r="440"
       cy="512"
       cx="512"
       fy="494.39999"
       fx="512"
       y2="100%"
       x2="0%"
       y1="0%"
       x1="0%"
       id="rgrad">
      <stop
         id="stop7"
         stop-color="#00f0ff"
         offset="0%" />
      <stop
         id="stop9"
         stop-color="#0070e0"
         offset="100%" />
    </radialGradient>
    <radialGradient
       id="rgrad-3"
       x1="0%"
       y1="0%"
       x2="0%"
       y2="100%"
       fx="523.57568"
       fy="306.1813"
       cx="523.57568"
       cy="306.1813"
       r="440"
       gradientUnits="userSpaceOnUse"
       gradientTransform="matrix(0.03099337,0,0,0.03032562,85.198869,42.985295)">
      <stop
         offset="0%"
         stop-color="#00f0ff"
         id="stop7-6"
         style="stop-color:#03d7e4;stop-opacity:1" />
      <stop
         offset="100%"
         stop-color="#0070e0"
         id="stop9-7" />
    </radialGradient>
    <linearGradient
       inkscape:collect="always"
       xlink:href="#linearGradient1630"
       id="linearGradient1632"
       x1="132.21078"
       y1="42.151531"
       x2="132.21078"
       y2="70.679932"
       gradientUnits="userSpaceOnUse"
       gradientTransform="matrix(0.97573206,0,0,0.97573206,-111.77632,-37.203091)" />
  </defs>
  <sodipodi:namedview
     id="base"
     pagecolor="#ffffff"
     bordercolor="#666666"
     borderopacity="1.0"
     inkscape:pageopacity="0.0"
     inkscape:pageshadow="2"
     inkscape:zoom="3.959798"
     inkscape:cx="93.256004"
     inkscape:cy="69.041875"
     inkscape:document-units="mm"
     inkscape:current-layer="layer1"
     showgrid="false"
     units="px"
     inkscape:window-width="1920"
     inkscape:window-height="1023"
     inkscape:window-x="0"
     inkscape:window-y="29"
     inkscape:window-maximized="1" />
  <g
     inkscape:label="Layer 1"
     inkscape:groupmode="layer"
     id="layer1">
    <g
       id="g1702"
       transform="matrix(0.97573206,0,0,0.97573206,-65.748383,-37.203094)"
       style="opacity:0.2967651">
      <rect
         style="fill:none;fill-opacity:1;stroke:#000000;stroke-width:0.1;stroke-linecap:round;stroke-linejoin:round;stroke-miterlimit:4;stroke-dasharray:none;stroke-opacity:0.02"
         id="rect1634"
         width="29.810888"
         height="29.810888"
         x="69.839508"
         y="40.709618"
         rx="6.6098609"
         ry="6.6098609" />
      <rect
         ry="6.6098609"
         rx="6.6098609"
         y="40.709618"
         x="69.839508"
         height="29.810888"
         width="29.810888"
         id="rect1638"
         style="fill:none;fill-opacity:1;stroke:#000000;stroke-width:0.2;stroke-linecap:round;stroke-linejoin:round;stroke-miterlimit:4;stroke-dasharray:none;stroke-opacity:0.02" />
      <rect
         style="fill:none;fill-opacity:1;stroke:#000000;stroke-width:0.3;stroke-linecap:round;stroke-linejoin:round;stroke-miterlimit:4;stroke-dasharray:none;stroke-opacity:0.02"
         id="rect1640"
         width="29.810888"
         height="29.810888"
         x="69.839508"
         y="40.709618"
         rx="6.6098609"
         ry="6.6098609" />
      <rect
         ry="6.6098609"
         rx="6.6098609"
         y="40.709618"
         x="69.839508"
         height="29.810888"
         width="29.810888"
         id="rect1642"
         style="fill:none;fill-opacity:1;stroke:#000000;stroke-width:0.4;stroke-linecap:round;stroke-linejoin:round;stroke-miterlimit:4;stroke-dasharray:none;stroke-opacity:0.02" />
      <rect
         style="fill:none;fill-opacity:1;stroke:#000000;stroke-width:0.5;stroke-linecap:round;stroke-linejoin:round;stroke-miterlimit:4;stroke-dasharray:none;stroke-opacity:0.02"
         id="rect1644"
         width="29.810888"
         height="29.810888"
         x="69.839508"
         y="40.709618"
         rx="6.6098609"
         ry="6.6098609" />
      <rect
         ry="6.6098609"
         rx="6.6098609"
         y="40.709618"
         x="69.839508"
         height="29.810888"
         width="29.810888"
         id="rect1646"
         style="fill:none;fill-opacity:1;stroke:#000000;stroke-width:0.6;stroke-linecap:round;stroke-linejoin:round;stroke-miterlimit:4;stroke-dasharray:none;stroke-opacity:0.02" />
      <rect
         style="fill:none;fill-opacity:1;stroke:#000000;stroke-width:0.7;stroke-linecap:round;stroke-linejoin:round;stroke-miterlimit:4;stroke-dasharray:none;stroke-opacity:0.02"
         id="rect1648"
         width="29.810888"
         height="29.810888"
         x="69.839508"
         y="40.709618"
         rx="6.6098609"
         ry="6.6098609" />
      <rect
         ry="6.6098609"
         rx="6.6098609"
         y="40.709618"
         x="69.839508"
         height="29.810888"
         width="29.810888"
         id="rect1650"
         style="fill:none;fill-opacity:1;stroke:#000000;stroke-width:0.8;stroke-linecap:round;stroke-linejoin:round;stroke-miterlimit:4;stroke-dasharray:none;stroke-opacity:0.02" />
      <rect
         style="fill:none;fill-opacity:1;stroke:#000000;stroke-width:1;stroke-linecap:round;stroke-linejoin:round;stroke-miterlimit:4;stroke-dasharray:none;stroke-opacity:0.02"
         id="rect1652"
         width="29.810888"
         height="29.810888"
         x="69.839508"
         y="40.709618"
         rx="6.6098609"
         ry="6.6098609" />
      <rect
         ry="6.6098609"
         rx="6.6098609"
         y="40.709618"
         x="69.839508"
         height="29.810888"
         width="29.810888"
         id="rect1654"
         style="fill:none;fill-opacity:1;stroke:#000000;stroke-width:1.2;stroke-linecap:round;stroke-linejoin:round;stroke-miterlimit:4;stroke-dasharray:none;stroke-opacity:0.02" />
      <rect
         style="fill:none;fill-opacity:1;stroke:#000000;stroke-width:1.4;stroke-linecap:round;stroke-linejoin:round;stroke-miterlimit:4;stroke-dasharray:none;stroke-opacity:0.02"
         id="rect1656"
         width="29.810888"
         height="29.810888"
         x="69.839508"
         y="40.709618"
         rx="6.6098609"
         ry="6.6098609" />
      <rect
         ry="6.6098609"
         rx="6.6098609"
         y="40.709618"
         x="69.839508"
         height="29.810888"
         width="29.810888"
         id="rect1658"
         style="fill:none;fill-opacity:1;stroke:#000000;stroke-width:1.6;stroke-linecap:round;stroke-linejoin:round;stroke-miterlimit:4;stroke-dasharray:none;stroke-opacity:0.02" />
      <rect
         style="fill:none;fill-opacity:1;stroke:#000000;stroke-width:1.8;stroke-linecap:round;stroke-linejoin:round;stroke-miterlimit:4;stroke-dasharray:none;stroke-opacity:0.02"
         id="rect1660"
         width="29.810888"
         height="29.810888"
         x="69.839508"
         y="40.709618"
         rx="6.6098609"
         ry="6.6098609" />
      <rect
         ry="6.6098609"
         rx="6.6098609"
         y="40.709618"
         x="69.839508"
         height="29.810888"
         width="29.810888"
         id="rect1662"
         style="fill:none;fill-opacity:1;stroke:#000000;stroke-width:2;stroke-linecap:round;stroke-linejoin:round;stroke-miterlimit:4;stroke-dasharray:none;stroke-opacity:0.02" />
      <rect
         style="fill:none;fill-opacity:1;stroke:#000000;stroke-width:2.2;stroke-linecap:round;stroke-linejoin:round;stroke-miterlimit:4;stroke-dasharray:none;stroke-opacity:0.02"
         id="rect1664"
         width="29.810888"
         height="29.810888"
         x="69.839508"
         y="40.709618"
         rx="6.6098609"
         ry="6.6098609" />
      <rect
         ry="6.6098609"
         rx="6.6098609"
         y="40.709618"
         x="69.839508"
         height="29.810888"
         width="29.810888"
         id="rect1666"
         style="fill:none;fill-opacity:1;stroke:#000000;stroke-width:2.6;stroke-linecap:round;stroke-linejoin:round;stroke-miterlimit:4;stroke-dasharray:none;stroke-opacity:0.02" />
      <rect
         style="fill:none;fill-opacity:1;stroke:#000000;stroke-width:3;stroke-linecap:round;stroke-linejoin:round;stroke-miterlimit:4;stroke-dasharray:none;stroke-opacity:0.02"
         id="rect1668"
         width="29.810888"
         height="29.810888"
         x="69.839508"
         y="40.709618"
         rx="6.6098609"
         ry="6.6098609" />
      <rect
         ry="6.6098609"
         rx="6.6098609"
         y="40.709618"
         x="69.839508"
         height="29.810888"
         width="29.810888"
         id="rect1670"
         style="fill:none;fill-opacity:1;stroke:#000000;stroke-width:3.4;stroke-linecap:round;stroke-linejoin:round;stroke-miterlimit:4;stroke-dasharray:none;stroke-opacity:0.02" />
      <rect
         style="fill:none;fill-opacity:1;stroke:#000000;stroke-width:3.8;stroke-linecap:round;stroke-linejoin:round;stroke-miterlimit:4;stroke-dasharray:none;stroke-opacity:0.02"
         id="rect1672"
         width="29.810888"
         height="29.810888"
         x="69.839508"
         y="40.709618"
         rx="6.6098609"
         ry="6.6098609" />
      <rect
         ry="6.6098609"
         rx="6.6098609"
         y="40.709618"
         x="69.839508"
         height="29.810888"
         width="29.810888"
         id="rect1674"
         style="fill:none;fill-opacity:1;stroke:#000000;stroke-width:4.2;stroke-linecap:round;stroke-linejoin:round;stroke-miterlimit:4;stroke-dasharray:none;stroke-opacity:0.02" />
      <rect
         style="fill:none;fill-opacity:1;stroke:#000000;stroke-width:4.6;stroke-linecap:round;stroke-linejoin:round;stroke-miterlimit:4;stroke-dasharray:none;stroke-opacity:0.02"
         id="rect1676"
         width="29.810888"
         height="29.810888"
         x="69.839508"
         y="40.709618"
         rx="6.6098609"
         ry="6.6098609" />
      <rect
         ry="6.6098609"
         rx="6.6098609"
         y="40.709618"
         x="69.839508"
         height="29.810888"
         width="29.810888"
         id="rect1678"
         style="fill:none;fill-opacity:1;stroke:#000000;stroke-width:5;stroke-linecap:round;stroke-linejoin:round;stroke-miterlimit:4;stroke-dasharray:none;stroke-opacity:0.02" />
    </g>
    <rect
       style="fill:url(#linearGradient1632);fill-opacity:1;stroke-width:2.68768;stroke-linecap:round;stroke-linejoin:round"
       id="rect849"
       width="29.087439"
       height="29.087439"
       x="2.3962667"
       y="2.5185876"
       rx="6.4494534"
       ry="6.4494534" />
    <g
       id="g934"
       transform="translate(1.7264441,-0.26790152)">
      <path
         inkscape:connector-curvature="0"
         id="path22-5"
         style="fill:#e01e5a;fill-opacity:1;fill-rule:nonzero;stroke:none;stroke-width:0.0464337"
         d="m 10.057298,19.684915 c 0,1.035517 -0.8369209,1.872438 -1.8724387,1.872438 -1.0354715,0 -1.8723925,-0.836921 -1.8723925,-1.872438 0,-1.035518 0.836921,-1.872439 1.8723925,-1.872439 h 1.8724387 z" />
      <path
         inkscape:connector-curvature="0"
         id="path26-2"
         style="fill:#e01e5a;fill-opacity:1;fill-rule:nonzero;stroke:none;stroke-width:0.0464337"
         d="m 10.993508,19.684915 c 0,-1.035518 0.836921,-1.872439 1.872439,-1.872439 1.035472,0 1.872393,0.836921 1.872393,1.872439 v 4.681027 c 0,1.035518 -0.836921,1.872439 -1.872393,1.872439 -1.035518,0 -1.872439,-0.836921 -1.872439,-1.872439 z" />
      <path
         inkscape:connector-curvature="0"
         id="path30-1"
         style="fill:#36c5f0;fill-opacity:1;fill-rule:nonzero;stroke:none;stroke-width:0.0464337"
         d="m 12.865924,12.166867 c -1.035518,0 -1.872439,-0.836921 -1.872439,-1.872439 0,-1.0354712 0.836921,-1.8723922 1.872439,-1.8723922 1.035518,0 1.872439,0.836921 1.872439,1.8723922 v 1.872439 z" />
      <path
         inkscape:connector-curvature="0"
         id="path34-7"
         style="fill:#36c5f0;fill-opacity:1;fill-rule:nonzero;stroke:none;stroke-width:0.0464337"
         d="m 12.865924,13.117263 c 1.035518,0 1.872439,0.836921 1.872439,1.872438 0,1.035472 -0.836921,1.872393 -1.872439,1.872393 H 8.1706876 c -1.035518,0 -1.8724389,-0.836921 -1.8724389,-1.872393 0,-1.035517 0.8369209,-1.872438 1.8724389,-1.872438 z" />
      <path
         inkscape:connector-curvature="0"
         id="path38-9"
         style="fill:#2eb67d;fill-opacity:1;fill-rule:nonzero;stroke:none;stroke-width:0.0464337"
         d="m 20.369786,14.989683 c 0,-1.035518 0.836921,-1.872439 1.872439,-1.872439 1.035471,0 1.872392,0.836921 1.872392,1.872439 0,1.035518 -0.836921,1.872439 -1.872392,1.872439 h -1.872439 z" />
      <path
         inkscape:connector-curvature="0"
         id="path42-6"
         style="fill:#2eb67d;fill-opacity:1;fill-rule:nonzero;stroke:none;stroke-width:0.0464337"
         d="m 19.433581,14.989683 c 0,1.035518 -0.836921,1.872439 -1.872439,1.872439 -1.035472,0 -1.872393,-0.836921 -1.872393,-1.872439 v -4.695236 c 0,-1.0355182 0.836921,-1.8723927 1.872393,-1.8723927 1.035518,0 1.872439,0.8368745 1.872439,1.8723927 z" />
      <path
         inkscape:connector-curvature="0"
         id="path46-6"
         style="fill:#ecb22e;fill-opacity:1;fill-rule:nonzero;stroke:none;stroke-width:0.0464337"
         d="m 17.56116,22.493545 c 1.035518,0 1.872439,0.836921 1.872439,1.872439 0,1.035471 -0.836921,1.872392 -1.872439,1.872392 -1.035518,0 -1.872439,-0.836921 -1.872439,-1.872392 v -1.872439 z" />
      <path
         inkscape:connector-curvature="0"
         id="path50-6"
         style="fill:#ecb22e;fill-opacity:1;fill-rule:nonzero;stroke:none;stroke-width:0.0464337"
         d="m 17.56116,21.557335 c -1.035518,0 -1.872439,-0.836921 -1.872439,-1.872439 0,-1.035471 0.836921,-1.872393 1.872439,-1.872393 h 4.695237 c 1.035517,0 1.872438,0.836922 1.872438,1.872393 0,1.035518 -0.836921,1.872439 -1.872438,1.872439 z" />
    </g>
    <path
       style="fill:#000000;fill-opacity:0.07608695;fill-rule:nonzero;stroke:none;stroke-width:0.17549744"
       d="M 55.152344 30.818359 C 51.238575 30.818359 48.076172 33.982894 48.076172 37.896484 C 48.076172 38.061981 48.090436 38.224092 48.101562 38.386719 C 48.354513 34.704342 51.404729 31.800781 55.152344 31.800781 C 59.066113 31.800781 62.228516 34.965315 62.228516 38.878906 L 62.228516 37.896484 C 62.228516 33.982894 59.066113 30.818359 55.152344 30.818359 z M 72.898438 30.818359 C 68.984843 30.818359 65.820313 33.982717 65.820312 37.896484 L 65.820312 38.878906 C 65.820313 34.965138 68.984843 31.800781 72.898438 31.800781 C 76.812206 31.800781 79.974609 34.965138 79.974609 38.878906 L 79.974609 37.896484 C 79.974609 33.982717 76.812205 30.818359 72.898438 30.818359 z M 37.40625 48.564453 C 33.492481 48.564453 30.330078 51.72686 30.330078 55.640625 C 30.330078 55.806771 30.344254 55.969551 30.355469 56.132812 C 30.607479 52.449532 33.657977 49.546875 37.40625 49.546875 L 55.152344 49.546875 C 58.900616 49.546875 61.951115 52.449532 62.203125 56.132812 C 62.21434 55.969551 62.228516 55.806771 62.228516 55.640625 C 62.228516 51.72686 59.066113 48.564453 55.152344 48.564453 L 37.40625 48.564453 z M 90.589844 48.564453 C 86.676075 48.564453 83.513672 51.726856 83.513672 55.640625 L 83.513672 56.623047 C 83.513672 52.709278 86.676075 49.546875 90.589844 49.546875 C 94.337946 49.546875 97.390403 52.449526 97.642578 56.132812 C 97.6538 55.969545 97.667969 55.806779 97.667969 55.640625 C 97.667969 51.726856 94.503435 48.564453 90.589844 48.564453 z M 37.460938 66.310547 C 33.547344 66.310547 30.382813 69.47295 30.382812 73.386719 C 30.382812 73.552872 30.396981 73.715639 30.408203 73.878906 C 30.660378 70.195619 33.712832 67.292969 37.460938 67.292969 L 44.537109 67.292969 L 44.537109 66.310547 L 37.460938 66.310547 z M 55.152344 66.310547 C 51.238575 66.310547 48.076172 69.47295 48.076172 73.386719 L 48.076172 74.369141 C 48.076172 70.455372 51.238575 67.292969 55.152344 67.292969 C 59.065939 67.292969 62.228516 70.455372 62.228516 74.369141 L 62.228516 73.386719 C 62.228516 69.47295 59.065939 66.310547 55.152344 66.310547 z M 72.898438 66.310547 C 68.984669 66.310547 65.820313 69.473128 65.820312 73.386719 C 65.820312 73.552872 65.834482 73.715639 65.845703 73.878906 C 66.097865 70.195762 69.150165 67.292969 72.898438 67.292969 L 90.644531 67.292969 C 94.3928 67.292969 97.443302 70.195762 97.695312 73.878906 C 97.706527 73.715639 97.720703 73.552872 97.720703 73.386719 C 97.720703 69.473128 94.558296 66.310547 90.644531 66.310547 L 72.898438 66.310547 z M 65.820312 84.001953 L 65.820312 84.984375 L 72.898438 84.984375 C 76.646053 84.984375 79.696268 87.887794 79.949219 91.570312 C 79.960346 91.407692 79.974609 91.245567 79.974609 91.080078 C 79.974609 87.166309 76.812205 84.001953 72.898438 84.001953 L 65.820312 84.001953 z "
       transform="scale(0.26458333)"
       id="path936" />
    <path
       style="fill:#ffffff;fill-opacity:0.98369565;fill-rule:nonzero;stroke:none;stroke-width:0.17549744"
       d="M 48.103516 38.390625 C 48.090937 38.563417 48.076172 38.736066 48.076172 38.912109 C 48.076172 42.825878 51.238575 45.988281 55.152344 45.988281 L 62.228516 45.988281 L 62.228516 44.947266 L 55.152344 44.947266 C 51.413969 44.947266 48.369631 42.060048 48.103516 38.390625 z M 65.820312 55.615234 L 65.820312 56.65625 C 65.820316 60.570019 68.984843 63.734375 72.898438 63.734375 C 76.812206 63.734375 79.974609 60.570019 79.974609 56.65625 L 79.974609 55.615234 C 79.974609 59.529003 76.812206 62.693359 72.898438 62.693359 C 68.984843 62.693359 65.820316 59.529003 65.820312 55.615234 z M 30.357422 56.136719 C 30.344936 56.308877 30.330078 56.480856 30.330078 56.65625 C 30.330078 60.569845 33.492481 63.734375 37.40625 63.734375 L 55.152344 63.734375 C 59.066113 63.734375 62.228516 60.569845 62.228516 56.65625 C 62.228516 56.480856 62.213657 56.308877 62.201172 56.136719 C 61.934123 59.805244 58.890061 62.693359 55.152344 62.693359 L 37.40625 62.693359 C 33.668533 62.693359 30.624471 59.805244 30.357422 56.136719 z M 97.640625 56.136719 C 97.373402 59.805381 94.327391 62.693359 90.589844 62.693359 L 83.513672 62.693359 L 83.513672 63.734375 L 90.589844 63.734375 C 94.503435 63.734375 97.667969 60.570019 97.667969 56.65625 C 97.667969 56.480856 97.653119 56.308878 97.640625 56.136719 z M 44.537109 73.361328 C 44.537109 77.275093 41.374702 80.439453 37.460938 80.439453 C 33.723387 80.439453 30.67738 77.551472 30.410156 73.882812 C 30.397663 74.054971 30.382812 74.22695 30.382812 74.402344 C 30.382812 78.316109 33.547344 81.480469 37.460938 81.480469 C 41.374702 81.480469 44.537109 78.316109 44.537109 74.402344 L 44.537109 73.361328 z M 65.847656 73.882812 C 65.835163 74.054965 65.820312 74.226958 65.820312 74.402344 C 65.820312 78.316116 68.984669 81.480469 72.898438 81.480469 L 90.644531 81.480469 C 94.558296 81.480469 97.720703 78.316116 97.720703 74.402344 C 97.720703 74.226958 97.705845 74.054965 97.693359 73.882812 C 97.42631 77.551478 94.382245 80.439453 90.644531 80.439453 L 72.898438 80.439453 C 69.16072 80.439453 66.114866 77.551478 65.847656 73.882812 z M 48.076172 91.054688 L 48.076172 92.095703 C 48.076172 96.009472 51.238575 99.171875 55.152344 99.171875 C 59.065939 99.171875 62.228516 96.009472 62.228516 92.095703 L 62.228516 91.054688 C 62.228516 94.968456 59.065939 98.130859 55.152344 98.130859 C 51.238575 98.130859 48.076172 94.968456 48.076172 91.054688 z M 65.820312 91.054688 L 65.820312 92.095703 C 65.820312 96.009294 68.984669 99.171875 72.898438 99.171875 C 76.812206 99.171875 79.974609 96.009294 79.974609 92.095703 C 79.974609 91.919652 79.959844 91.747018 79.947266 91.574219 C 79.68115 95.243502 76.636812 98.130859 72.898438 98.130859 C 68.984669 98.130859 65.820312 94.968279 65.820312 91.054688 z "
       transform="scale(0.26458333)"
       id="path968" />
  </g>
</svg>
