<?xml version="1.0" encoding="UTF-8" standalone="no"?>
<svg
   xmlns:dc="http://purl.org/dc/elements/1.1/"
   xmlns:cc="http://creativecommons.org/ns#"
   xmlns:rdf="http://www.w3.org/1999/02/22-rdf-syntax-ns#"
   xmlns:svg="http://www.w3.org/2000/svg"
   xmlns="http://www.w3.org/2000/svg"
   xmlns:xlink="http://www.w3.org/1999/xlink"
   xmlns:sodipodi="http://sodipodi.sourceforge.net/DTD/sodipodi-0.dtd"
   xmlns:inkscape="http://www.inkscape.org/namespaces/inkscape"
   width="128"
   height="128"
   viewBox="0 0 33.866666 33.866668"
   version="1.1"
   id="svg1829"
   inkscape:version="1.0.2 (e86c870879, 2021-01-15)"
   sodipodi:docname="somiibo.svg">
  <defs
     id="defs1823">
    <linearGradient
       inkscape:collect="always"
       id="linearGradient944">
      <stop
         style="stop-color:#ffffff;stop-opacity:1;"
         offset="0"
         id="stop940" />
      <stop
         style="stop-color:#3575fc;stop-opacity:1"
         offset="1"
         id="stop942" />
    </linearGradient>
    <linearGradient
       inkscape:collect="always"
       id="linearGradient928">
      <stop
         style="stop-color:#080026;stop-opacity:0"
         offset="0"
         id="stop924" />
      <stop
         style="stop-color:#0a0630;stop-opacity:0"
         offset="0.58134812"
         id="stop932" />
      <stop
         style="stop-color:#0d0f40;stop-opacity:0.07843137;"
         offset="0.7208994"
         id="stop934" />
      <stop
         style="stop-color:#10174e;stop-opacity:0.14901961;"
         offset="0.77644628"
         id="stop936" />
      <stop
         style="stop-color:#152567;stop-opacity:0.2745098;"
         offset="0.83714169"
         id="stop938" />
      <stop
         style="stop-color:#377afc;stop-opacity:1"
         offset="1"
         id="stop926" />
    </linearGradient>
    <linearGradient
       inkscape:collect="always"
       id="linearGradient884">
      <stop
         style="stop-color:#50ceff;stop-opacity:1"
         offset="0"
         id="stop880" />
      <stop
         style="stop-color:#3471fc;stop-opacity:1"
         offset="1"
         id="stop882" />
    </linearGradient>
    <radialGradient
       inkscape:collect="always"
       xlink:href="#linearGradient884"
       id="radialGradient886"
       cx="17.309874"
       cy="2.5295613"
       fx="17.309874"
       fy="2.5295613"
       r="14.54372"
       gradientUnits="userSpaceOnUse"
       gradientTransform="matrix(7.161795,0,0,1.7510995,-106.65989,-1.8999525)" />
    <linearGradient
       id="linearGradient895">
      <stop
         id="stop3335"
         offset="0" />
      <stop
         id="stop3337"
         offset="1"
         stop-opacity="0" />
    </linearGradient>
    <radialGradient
       inkscape:collect="always"
       xlink:href="#linearGradient928"
       id="radialGradient930"
       cx="16.506893"
       cy="19.109884"
       fx="16.506893"
       fy="19.109884"
       r="7.4737916"
       gradientUnits="userSpaceOnUse"
       gradientTransform="matrix(1.2457049,0,0,1.2209488,-4.0459915,-4.425031)" />
    <linearGradient
       inkscape:collect="always"
       xlink:href="#linearGradient944"
       id="linearGradient946"
       x1="21.535116"
       y1="9.5615215"
       x2="21.535116"
       y2="103.69704"
       gradientUnits="userSpaceOnUse" />
  </defs>
  <sodipodi:namedview
     id="base"
     pagecolor="#ffffff"
     bordercolor="#666666"
     borderopacity="1.0"
     inkscape:pageopacity="0.0"
     inkscape:pageshadow="2"
     inkscape:zoom="2.8"
     inkscape:cx="-80.086639"
     inkscape:cy="64.36692"
     inkscape:document-units="mm"
     inkscape:current-layer="layer1"
     inkscape:document-rotation="0"
     showgrid="false"
     units="px"
     inkscape:window-width="1920"
     inkscape:window-height="1028"
     inkscape:window-x="0"
     inkscape:window-y="24"
     inkscape:window-maximized="1" />
  <metadata
     id="metadata1826">
    <rdf:RDF>
      <cc:Work
         rdf:about="">
        <dc:format>image/svg+xml</dc:format>
        <dc:type
           rdf:resource="http://purl.org/dc/dcmitype/StillImage" />
        <dc:title></dc:title>
      </cc:Work>
    </rdf:RDF>
  </metadata>
  <g
     inkscape:label="Capa 1"
     inkscape:groupmode="layer"
     id="layer1">
    <g
       id="g1702"
       transform="matrix(0.97573206,0,0,0.97573206,-65.58674,-37.192363)"
       style="opacity:0.296765">
      <rect
         style="fill:none;fill-opacity:1;stroke:#000000;stroke-width:0.1;stroke-linecap:round;stroke-linejoin:round;stroke-miterlimit:4;stroke-dasharray:none;stroke-opacity:0.02"
         id="rect1634"
         width="29.810888"
         height="29.810888"
         x="69.839508"
         y="40.709618"
         rx="6.6098609"
         ry="6.6098609" />
      <rect
         ry="6.6098609"
         rx="6.6098609"
         y="40.709618"
         x="69.839508"
         height="29.810888"
         width="29.810888"
         id="rect1638"
         style="fill:none;fill-opacity:1;stroke:#000000;stroke-width:0.2;stroke-linecap:round;stroke-linejoin:round;stroke-miterlimit:4;stroke-dasharray:none;stroke-opacity:0.02" />
      <rect
         style="fill:none;fill-opacity:1;stroke:#000000;stroke-width:0.3;stroke-linecap:round;stroke-linejoin:round;stroke-miterlimit:4;stroke-dasharray:none;stroke-opacity:0.02"
         id="rect1640"
         width="29.810888"
         height="29.810888"
         x="69.839508"
         y="40.709618"
         rx="6.6098609"
         ry="6.6098609" />
      <rect
         ry="6.6098609"
         rx="6.6098609"
         y="40.709618"
         x="69.839508"
         height="29.810888"
         width="29.810888"
         id="rect1642"
         style="fill:none;fill-opacity:1;stroke:#000000;stroke-width:0.4;stroke-linecap:round;stroke-linejoin:round;stroke-miterlimit:4;stroke-dasharray:none;stroke-opacity:0.02" />
      <rect
         style="fill:none;fill-opacity:1;stroke:#000000;stroke-width:0.5;stroke-linecap:round;stroke-linejoin:round;stroke-miterlimit:4;stroke-dasharray:none;stroke-opacity:0.02"
         id="rect1644"
         width="29.810888"
         height="29.810888"
         x="69.839508"
         y="40.709618"
         rx="6.6098609"
         ry="6.6098609" />
      <rect
         ry="6.6098609"
         rx="6.6098609"
         y="40.709618"
         x="69.839508"
         height="29.810888"
         width="29.810888"
         id="rect1646"
         style="fill:none;fill-opacity:1;stroke:#000000;stroke-width:0.6;stroke-linecap:round;stroke-linejoin:round;stroke-miterlimit:4;stroke-dasharray:none;stroke-opacity:0.02" />
      <rect
         style="fill:none;fill-opacity:1;stroke:#000000;stroke-width:0.7;stroke-linecap:round;stroke-linejoin:round;stroke-miterlimit:4;stroke-dasharray:none;stroke-opacity:0.02"
         id="rect1648"
         width="29.810888"
         height="29.810888"
         x="69.839508"
         y="40.709618"
         rx="6.6098609"
         ry="6.6098609" />
      <rect
         ry="6.6098609"
         rx="6.6098609"
         y="40.709618"
         x="69.839508"
         height="29.810888"
         width="29.810888"
         id="rect1650"
         style="fill:none;fill-opacity:1;stroke:#000000;stroke-width:0.8;stroke-linecap:round;stroke-linejoin:round;stroke-miterlimit:4;stroke-dasharray:none;stroke-opacity:0.02" />
      <rect
         style="fill:none;fill-opacity:1;stroke:#000000;stroke-width:1;stroke-linecap:round;stroke-linejoin:round;stroke-miterlimit:4;stroke-dasharray:none;stroke-opacity:0.02"
         id="rect1652"
         width="29.810888"
         height="29.810888"
         x="69.839508"
         y="40.709618"
         rx="6.6098609"
         ry="6.6098609" />
      <rect
         ry="6.6098609"
         rx="6.6098609"
         y="40.709618"
         x="69.839508"
         height="29.810888"
         width="29.810888"
         id="rect1654"
         style="fill:none;fill-opacity:1;stroke:#000000;stroke-width:1.2;stroke-linecap:round;stroke-linejoin:round;stroke-miterlimit:4;stroke-dasharray:none;stroke-opacity:0.02" />
      <rect
         style="fill:none;fill-opacity:1;stroke:#000000;stroke-width:1.4;stroke-linecap:round;stroke-linejoin:round;stroke-miterlimit:4;stroke-dasharray:none;stroke-opacity:0.02"
         id="rect1656"
         width="29.810888"
         height="29.810888"
         x="69.839508"
         y="40.709618"
         rx="6.6098609"
         ry="6.6098609" />
      <rect
         ry="6.6098609"
         rx="6.6098609"
         y="40.709618"
         x="69.839508"
         height="29.810888"
         width="29.810888"
         id="rect1658"
         style="fill:none;fill-opacity:1;stroke:#000000;stroke-width:1.6;stroke-linecap:round;stroke-linejoin:round;stroke-miterlimit:4;stroke-dasharray:none;stroke-opacity:0.02" />
      <rect
         style="fill:none;fill-opacity:1;stroke:#000000;stroke-width:1.8;stroke-linecap:round;stroke-linejoin:round;stroke-miterlimit:4;stroke-dasharray:none;stroke-opacity:0.02"
         id="rect1660"
         width="29.810888"
         height="29.810888"
         x="69.839508"
         y="40.709618"
         rx="6.6098609"
         ry="6.6098609" />
      <rect
         ry="6.6098609"
         rx="6.6098609"
         y="40.709618"
         x="69.839508"
         height="29.810888"
         width="29.810888"
         id="rect1662"
         style="fill:none;fill-opacity:1;stroke:#000000;stroke-width:2;stroke-linecap:round;stroke-linejoin:round;stroke-miterlimit:4;stroke-dasharray:none;stroke-opacity:0.02" />
      <rect
         style="fill:none;fill-opacity:1;stroke:#000000;stroke-width:2.2;stroke-linecap:round;stroke-linejoin:round;stroke-miterlimit:4;stroke-dasharray:none;stroke-opacity:0.02"
         id="rect1664"
         width="29.810888"
         height="29.810888"
         x="69.839508"
         y="40.709618"
         rx="6.6098609"
         ry="6.6098609" />
      <rect
         ry="6.6098609"
         rx="6.6098609"
         y="40.709618"
         x="69.839508"
         height="29.810888"
         width="29.810888"
         id="rect1666"
         style="fill:none;fill-opacity:1;stroke:#000000;stroke-width:2.6;stroke-linecap:round;stroke-linejoin:round;stroke-miterlimit:4;stroke-dasharray:none;stroke-opacity:0.02" />
      <rect
         style="fill:none;fill-opacity:1;stroke:#000000;stroke-width:3;stroke-linecap:round;stroke-linejoin:round;stroke-miterlimit:4;stroke-dasharray:none;stroke-opacity:0.02"
         id="rect1668"
         width="29.810888"
         height="29.810888"
         x="69.839508"
         y="40.709618"
         rx="6.6098609"
         ry="6.6098609" />
      <rect
         ry="6.6098609"
         rx="6.6098609"
         y="40.709618"
         x="69.839508"
         height="29.810888"
         width="29.810888"
         id="rect1670"
         style="fill:none;fill-opacity:1;stroke:#000000;stroke-width:3.4;stroke-linecap:round;stroke-linejoin:round;stroke-miterlimit:4;stroke-dasharray:none;stroke-opacity:0.02" />
      <rect
         style="fill:none;fill-opacity:1;stroke:#000000;stroke-width:3.8;stroke-linecap:round;stroke-linejoin:round;stroke-miterlimit:4;stroke-dasharray:none;stroke-opacity:0.02"
         id="rect1672"
         width="29.810888"
         height="29.810888"
         x="69.839508"
         y="40.709618"
         rx="6.6098609"
         ry="6.6098609" />
      <rect
         ry="6.6098609"
         rx="6.6098609"
         y="40.709618"
         x="69.839508"
         height="29.810888"
         width="29.810888"
         id="rect1674"
         style="fill:none;fill-opacity:1;stroke:#000000;stroke-width:4.2;stroke-linecap:round;stroke-linejoin:round;stroke-miterlimit:4;stroke-dasharray:none;stroke-opacity:0.02" />
      <rect
         style="fill:none;fill-opacity:1;stroke:#000000;stroke-width:4.6;stroke-linecap:round;stroke-linejoin:round;stroke-miterlimit:4;stroke-dasharray:none;stroke-opacity:0.02"
         id="rect1676"
         width="29.810888"
         height="29.810888"
         x="69.839508"
         y="40.709618"
         rx="6.6098609"
         ry="6.6098609" />
      <rect
         ry="6.6098609"
         rx="6.6098609"
         y="40.709618"
         x="69.839508"
         height="29.810888"
         width="29.810888"
         id="rect1678"
         style="fill:none;fill-opacity:1;stroke:#000000;stroke-width:5;stroke-linecap:round;stroke-linejoin:round;stroke-miterlimit:4;stroke-dasharray:none;stroke-opacity:0.02" />
    </g>
    <rect
       style="fill:url(#radialGradient886);fill-opacity:1;stroke-width:2.68769;stroke-linecap:round;stroke-linejoin:round"
       id="rect849-5"
       width="29.08744"
       height="29.08744"
       x="2.5579116"
       y="2.5293181"
       rx="6.4494534"
       ry="6.4494534" />
    <g
       id="g957"
       style="opacity:0.32997048">
      <path
         style="fill:#083161;fill-opacity:0.13189937;stroke-width:0.533645"
         d="m 17.041872,7.1173476 a 2.4014065,2.4014065 0 0 0 -2.401407,2.4014064 2.4014065,2.4014065 0 0 0 1.600938,2.260697 v 1.768745 a 7.4710422,7.4710422 0 0 0 -6.9373964,7.443943 7.4710422,7.4710422 0 0 0 7.4710414,7.471043 7.4710422,7.4710422 0 0 0 7.471043,-7.471043 7.4710422,7.4710422 0 0 0 -3.152888,-6.085856 l 1.152758,-1.481076 a 2.4014065,2.4014065 0 0 0 0.666016,0.09588 2.4014065,2.4014065 0 0 0 2.401406,-2.401406 2.4014065,2.4014065 0 0 0 -2.401406,-2.4014069 2.4014065,2.4014065 0 0 0 -2.401407,2.4014069 2.4014065,2.4014065 0 0 0 0.433588,1.371634 l -1.265325,1.625959 A 7.4710422,7.4710422 0 0 0 17.84234,13.605515 v -1.82607 A 2.4014065,2.4014065 0 0 0 19.443278,9.518748 2.4014065,2.4014065 0 0 0 17.041872,7.1173415 Z m -0.266824,9.6056254 a 4.2691669,4.2691669 0 0 1 4.269168,4.269166 4.2691669,4.2691669 0 0 1 -4.269168,4.269168 4.2691669,4.2691669 0 0 1 -4.269166,-4.269168 4.2691669,4.2691669 0 0 1 4.269166,-4.269166 z m 0,1.600938 a 2.6682293,2.6682293 0 0 0 -2.668228,2.668228 2.6682293,2.6682293 0 0 0 2.668228,2.66823 2.6682293,2.6682293 0 0 0 2.66823,-2.66823 2.6682293,2.6682293 0 0 0 -0.792131,-1.894859 1.3341147,1.3341147 0 0 1 0.12507,0.560745 1.3341147,1.3341147 0 0 1 -1.334114,1.334114 1.3341147,1.3341147 0 0 1 -1.334116,-1.334114 1.3341147,1.3341147 0 0 1 1.053743,-1.302846 2.6682293,2.6682293 0 0 0 -0.386686,-0.03126 z"
         id="path948" />
      <path
         style="fill:#083161;fill-opacity:0.09228227;stroke-width:0.533645"
         d="m 17.428554,7.1486156 a 2.4014065,2.4014065 0 0 0 -2.401407,2.4014064 2.4014065,2.4014065 0 0 0 1.600938,2.260697 v 1.768745 a 7.4710422,7.4710422 0 0 0 -6.9373964,7.443943 7.4710422,7.4710422 0 0 0 7.4710414,7.471043 7.4710422,7.4710422 0 0 0 7.471043,-7.471043 7.4710422,7.4710422 0 0 0 -3.152888,-6.085856 l 1.152758,-1.481076 a 2.4014065,2.4014065 0 0 0 0.666016,0.09588 2.4014065,2.4014065 0 0 0 2.401406,-2.401406 2.4014065,2.4014065 0 0 0 -2.401406,-2.4014069 2.4014065,2.4014065 0 0 0 -2.401407,2.4014069 2.4014065,2.4014065 0 0 0 0.433588,1.371634 l -1.265325,1.625959 a 7.4710422,7.4710422 0 0 0 -1.836493,-0.511759 v -1.82607 A 2.4014065,2.4014065 0 0 0 19.82996,9.550016 2.4014065,2.4014065 0 0 0 17.428554,7.1486095 Z M 17.16173,16.754241 a 4.2691669,4.2691669 0 0 1 4.269168,4.269166 4.2691669,4.2691669 0 0 1 -4.269168,4.269168 4.2691669,4.2691669 0 0 1 -4.269166,-4.269168 4.2691669,4.2691669 0 0 1 4.269166,-4.269166 z m 0,1.600938 a 2.6682293,2.6682293 0 0 0 -2.668228,2.668228 2.6682293,2.6682293 0 0 0 2.668228,2.66823 2.6682293,2.6682293 0 0 0 2.66823,-2.66823 2.6682293,2.6682293 0 0 0 -0.792131,-1.894859 1.3341147,1.3341147 0 0 1 0.12507,0.560745 1.3341147,1.3341147 0 0 1 -1.334114,1.334114 1.3341147,1.3341147 0 0 1 -1.334116,-1.334114 1.3341147,1.3341147 0 0 1 1.053743,-1.302846 2.6682293,2.6682293 0 0 0 -0.386686,-0.03126 z"
         id="path950" />
      <path
         style="fill:#083161;fill-opacity:0.05626912;stroke-width:0.533645"
         d="m 17.712143,7.8740725 a 2.4014065,2.4014065 0 0 0 -2.401407,2.4014065 2.4014065,2.4014065 0 0 0 1.600938,2.260697 v 1.768745 a 7.4710422,7.4710422 0 0 0 -6.9373966,7.443943 7.4710422,7.4710422 0 0 0 7.4710416,7.471043 7.4710422,7.4710422 0 0 0 7.471043,-7.471043 7.4710422,7.4710422 0 0 0 -3.152888,-6.085856 l 1.152758,-1.481076 a 2.4014065,2.4014065 0 0 0 0.666016,0.09588 2.4014065,2.4014065 0 0 0 2.401406,-2.401406 2.4014065,2.4014065 0 0 0 -2.401406,-2.401407 2.4014065,2.4014065 0 0 0 -2.401407,2.401407 2.4014065,2.4014065 0 0 0 0.433588,1.371634 l -1.265325,1.625959 A 7.4710422,7.4710422 0 0 0 18.512611,14.36224 v -1.82607 a 2.4014065,2.4014065 0 0 0 1.600938,-2.260697 2.4014065,2.4014065 0 0 0 -2.401406,-2.4014066 z m -0.266824,9.6056255 a 4.2691669,4.2691669 0 0 1 4.269168,4.269166 4.2691669,4.2691669 0 0 1 -4.269168,4.269168 4.2691669,4.2691669 0 0 1 -4.269166,-4.269168 4.2691669,4.2691669 0 0 1 4.269166,-4.269166 z m 0,1.600938 a 2.6682293,2.6682293 0 0 0 -2.668228,2.668228 2.6682293,2.6682293 0 0 0 2.668228,2.66823 2.6682293,2.6682293 0 0 0 2.66823,-2.66823 2.6682293,2.6682293 0 0 0 -0.792131,-1.894859 1.3341147,1.3341147 0 0 1 0.12507,0.560745 1.3341147,1.3341147 0 0 1 -1.334114,1.334114 1.3341147,1.3341147 0 0 1 -1.334116,-1.334114 1.3341147,1.3341147 0 0 1 1.053743,-1.302846 2.6682293,2.6682293 0 0 0 -0.386686,-0.03126 z"
         id="path952" />
    </g>
    <path
       style="fill:url(#linearGradient946);stroke-width:0.533645;fill-opacity:1"
       d="m 16.763579,6.6106925 a 2.4014065,2.4014065 0 0 0 -2.401407,2.4014064 2.4014065,2.4014065 0 0 0 1.600938,2.2606971 v 1.768745 a 7.4710422,7.4710422 0 0 0 -6.9373961,7.443943 7.4710422,7.4710422 0 0 0 7.4710411,7.471043 7.4710422,7.4710422 0 0 0 7.471043,-7.471043 7.4710422,7.4710422 0 0 0 -3.152888,-6.085856 l 1.152758,-1.481076 a 2.4014065,2.4014065 0 0 0 0.666016,0.09588 2.4014065,2.4014065 0 0 0 2.401406,-2.401406 2.4014065,2.4014065 0 0 0 -2.401406,-2.401407 2.4014065,2.4014065 0 0 0 -2.401407,2.401407 2.4014065,2.4014065 0 0 0 0.433588,1.371634 L 19.40054,13.610619 A 7.4710422,7.4710422 0 0 0 17.564047,13.09886 V 11.27279 A 2.4014065,2.4014065 0 0 0 19.164985,9.0120929 2.4014065,2.4014065 0 0 0 16.763579,6.6106864 Z m -0.266824,9.6056255 a 4.2691669,4.2691669 0 0 1 4.269168,4.269166 4.2691669,4.2691669 0 0 1 -4.269168,4.269168 4.2691669,4.2691669 0 0 1 -4.269166,-4.269168 4.2691669,4.2691669 0 0 1 4.269166,-4.269166 z m 0,1.600938 a 2.6682293,2.6682293 0 0 0 -2.668228,2.668228 2.6682293,2.6682293 0 0 0 2.668228,2.66823 2.6682293,2.6682293 0 0 0 2.66823,-2.66823 2.6682293,2.6682293 0 0 0 -0.792131,-1.894859 1.3341147,1.3341147 0 0 1 0.12507,0.560745 1.3341147,1.3341147 0 0 1 -1.334114,1.334114 1.3341147,1.3341147 0 0 1 -1.334116,-1.334114 1.3341147,1.3341147 0 0 1 1.053743,-1.302846 2.6682293,2.6682293 0 0 0 -0.386686,-0.03126 z"
       id="path8" />
    <circle
       style="opacity:0.501009;fill:url(#radialGradient930);fill-opacity:1;stroke:none;stroke-width:0.982462;stroke-linecap:round;stroke-linejoin:round;stroke-opacity:0.976471"
       id="path922"
       cx="16.475779"
       cy="20.51668"
       r="7.4737916" />
  </g>
</svg>
