<?xml version="1.0" encoding="UTF-8" standalone="no"?>
<svg
   width="128"
   height="128"
   viewBox="0 0 33.866666 33.866668"
   version="1.1"
   id="svg1443"
   inkscape:version="1.1.2 (0a00cf5339, 2022-02-04)"
   sodipodi:docname="soundcloud.svg"
   xmlns:inkscape="http://www.inkscape.org/namespaces/inkscape"
   xmlns:sodipodi="http://sodipodi.sourceforge.net/DTD/sodipodi-0.dtd"
   xmlns:xlink="http://www.w3.org/1999/xlink"
   xmlns="http://www.w3.org/2000/svg"
   xmlns:svg="http://www.w3.org/2000/svg"
   xmlns:rdf="http://www.w3.org/1999/02/22-rdf-syntax-ns#"
   xmlns:cc="http://creativecommons.org/ns#"
   xmlns:dc="http://purl.org/dc/elements/1.1/">
  <defs
     id="defs1437">
    <linearGradient
       inkscape:collect="always"
       id="linearGradient3354">
      <stop
         style="stop-color:#ee4d21;stop-opacity:1;"
         offset="0"
         id="stop3350" />
      <stop
         style="stop-color:#ee4d21;stop-opacity:0;"
         offset="1"
         id="stop3352" />
    </linearGradient>
    <linearGradient
       inkscape:collect="always"
       id="linearGradient1129">
      <stop
         style="stop-color:#ffffff;stop-opacity:1"
         offset="0"
         id="stop1125" />
      <stop
         style="stop-color:#f15a25;stop-opacity:0.97647059"
         offset="1"
         id="stop1127" />
    </linearGradient>
    <linearGradient
       inkscape:collect="always"
       id="linearGradient961">
      <stop
         style="stop-color:#ff9c38;stop-opacity:1"
         offset="0"
         id="stop957" />
      <stop
         style="stop-color:#ea3d1c;stop-opacity:0.96862745"
         offset="1"
         id="stop959" />
    </linearGradient>
    <filter
       color-interpolation-filters="sRGB"
       height="1.1311001"
       width="1.1106"
       y="-0.065563001"
       x="-0.055319"
       id="c-9">
      <feGaussianBlur
         id="feGaussianBlur1093"
         stdDeviation="1.1062912" />
    </filter>
    <linearGradient
       gradientUnits="userSpaceOnUse"
       gradientTransform="matrix(0.13235,0,0,0.13075,-32.379,1.0873)"
       y2="269.48999"
       y1="235.14999"
       x2="657.65002"
       x1="319.20999"
       id="a-12">
      <stop
         id="stop1076"
         offset="0"
         stop-color="#e54c18" />
      <stop
         id="stop1078"
         offset="1"
         stop-color="#fec350" />
    </linearGradient>
    <radialGradient
       inkscape:collect="always"
       xlink:href="#linearGradient961"
       id="radialGradient963"
       cx="16.951138"
       cy="2.5104072"
       fx="16.951138"
       fy="2.5104072"
       r="14.543719"
       gradientUnits="userSpaceOnUse"
       gradientTransform="matrix(7.138573,0,0,2.2345134,-104.05579,-3.0991313)" />
    <linearGradient
       id="linearGradient4146-2">
      <stop
         style="stop-color:#f6f6f6;stop-opacity:1;"
         offset="0"
         id="stop4148-2" />
      <stop
         style="stop-color:#e2e2e2;stop-opacity:1;"
         offset="1"
         id="stop4150-8" />
    </linearGradient>
    <linearGradient
       inkscape:collect="always"
       xlink:href="#linearGradient1129"
       id="linearGradient1131"
       x1="3.7828252"
       y1="10.72474"
       x2="3.7828252"
       y2="55.016644"
       gradientUnits="userSpaceOnUse" />
    <linearGradient
       inkscape:collect="always"
       xlink:href="#linearGradient3354"
       id="linearGradient3356"
       x1="22.975348"
       y1="31.524529"
       x2="22.975348"
       y2="20.221727"
       gradientUnits="userSpaceOnUse" />
  </defs>
  <sodipodi:namedview
     id="base"
     pagecolor="#ffffff"
     bordercolor="#666666"
     borderopacity="1.0"
     inkscape:pageopacity="0.0"
     inkscape:pageshadow="2"
     inkscape:zoom="3.959798"
     inkscape:cx="60.861691"
     inkscape:cy="68.564104"
     inkscape:document-units="mm"
     inkscape:current-layer="layer1"
     inkscape:document-rotation="0"
     showgrid="false"
     units="px"
     inkscape:window-width="1920"
     inkscape:window-height="1028"
     inkscape:window-x="0"
     inkscape:window-y="24"
     inkscape:window-maximized="1"
     showguides="true"
     inkscape:guide-bbox="true"
     inkscape:pagecheckerboard="0" />
  <metadata
     id="metadata1440">
    <rdf:RDF>
      <cc:Work
         rdf:about="">
        <dc:format>image/svg+xml</dc:format>
        <dc:type
           rdf:resource="http://purl.org/dc/dcmitype/StillImage" />
      </cc:Work>
    </rdf:RDF>
  </metadata>
  <g
     inkscape:label="Capa 1"
     inkscape:groupmode="layer"
     id="layer1">
    <g
       style="opacity:0.295"
       transform="matrix(0.97573206,0,0,0.97573206,-65.737228,-37.182508)"
       id="g1702">
      <rect
         ry="6.6098609"
         rx="6.6098609"
         y="40.709618"
         x="69.839508"
         height="29.810888"
         width="29.810888"
         id="rect1634"
         style="fill:none;fill-opacity:1;stroke:#000000;stroke-width:0.1;stroke-linecap:round;stroke-linejoin:round;stroke-miterlimit:4;stroke-dasharray:none;stroke-opacity:0.02" />
      <rect
         style="fill:none;fill-opacity:1;stroke:#000000;stroke-width:0.2;stroke-linecap:round;stroke-linejoin:round;stroke-miterlimit:4;stroke-dasharray:none;stroke-opacity:0.02"
         id="rect1638"
         width="29.810888"
         height="29.810888"
         x="69.839508"
         y="40.709618"
         rx="6.6098609"
         ry="6.6098609" />
      <rect
         ry="6.6098609"
         rx="6.6098609"
         y="40.709618"
         x="69.839508"
         height="29.810888"
         width="29.810888"
         id="rect1640"
         style="fill:none;fill-opacity:1;stroke:#000000;stroke-width:0.3;stroke-linecap:round;stroke-linejoin:round;stroke-miterlimit:4;stroke-dasharray:none;stroke-opacity:0.02" />
      <rect
         style="fill:none;fill-opacity:1;stroke:#000000;stroke-width:0.4;stroke-linecap:round;stroke-linejoin:round;stroke-miterlimit:4;stroke-dasharray:none;stroke-opacity:0.02"
         id="rect1642"
         width="29.810888"
         height="29.810888"
         x="69.839508"
         y="40.709618"
         rx="6.6098609"
         ry="6.6098609" />
      <rect
         ry="6.6098609"
         rx="6.6098609"
         y="40.709618"
         x="69.839508"
         height="29.810888"
         width="29.810888"
         id="rect1644"
         style="fill:none;fill-opacity:1;stroke:#000000;stroke-width:0.5;stroke-linecap:round;stroke-linejoin:round;stroke-miterlimit:4;stroke-dasharray:none;stroke-opacity:0.02" />
      <rect
         style="fill:none;fill-opacity:1;stroke:#000000;stroke-width:0.6;stroke-linecap:round;stroke-linejoin:round;stroke-miterlimit:4;stroke-dasharray:none;stroke-opacity:0.02"
         id="rect1646"
         width="29.810888"
         height="29.810888"
         x="69.839508"
         y="40.709618"
         rx="6.6098609"
         ry="6.6098609" />
      <rect
         ry="6.6098609"
         rx="6.6098609"
         y="40.709618"
         x="69.839508"
         height="29.810888"
         width="29.810888"
         id="rect1648"
         style="fill:none;fill-opacity:1;stroke:#000000;stroke-width:0.7;stroke-linecap:round;stroke-linejoin:round;stroke-miterlimit:4;stroke-dasharray:none;stroke-opacity:0.02" />
      <rect
         style="fill:none;fill-opacity:1;stroke:#000000;stroke-width:0.8;stroke-linecap:round;stroke-linejoin:round;stroke-miterlimit:4;stroke-dasharray:none;stroke-opacity:0.02"
         id="rect1650"
         width="29.810888"
         height="29.810888"
         x="69.839508"
         y="40.709618"
         rx="6.6098609"
         ry="6.6098609" />
      <rect
         ry="6.6098609"
         rx="6.6098609"
         y="40.709618"
         x="69.839508"
         height="29.810888"
         width="29.810888"
         id="rect1652"
         style="fill:none;fill-opacity:1;stroke:#000000;stroke-width:1;stroke-linecap:round;stroke-linejoin:round;stroke-miterlimit:4;stroke-dasharray:none;stroke-opacity:0.02" />
      <rect
         style="fill:none;fill-opacity:1;stroke:#000000;stroke-width:1.2;stroke-linecap:round;stroke-linejoin:round;stroke-miterlimit:4;stroke-dasharray:none;stroke-opacity:0.02"
         id="rect1654"
         width="29.810888"
         height="29.810888"
         x="69.839508"
         y="40.709618"
         rx="6.6098609"
         ry="6.6098609" />
      <rect
         ry="6.6098609"
         rx="6.6098609"
         y="40.709618"
         x="69.839508"
         height="29.810888"
         width="29.810888"
         id="rect1656"
         style="fill:none;fill-opacity:1;stroke:#000000;stroke-width:1.4;stroke-linecap:round;stroke-linejoin:round;stroke-miterlimit:4;stroke-dasharray:none;stroke-opacity:0.02" />
      <rect
         style="fill:none;fill-opacity:1;stroke:#000000;stroke-width:1.6;stroke-linecap:round;stroke-linejoin:round;stroke-miterlimit:4;stroke-dasharray:none;stroke-opacity:0.02"
         id="rect1658"
         width="29.810888"
         height="29.810888"
         x="69.839508"
         y="40.709618"
         rx="6.6098609"
         ry="6.6098609" />
      <rect
         ry="6.6098609"
         rx="6.6098609"
         y="40.709618"
         x="69.839508"
         height="29.810888"
         width="29.810888"
         id="rect1660"
         style="fill:none;fill-opacity:1;stroke:#000000;stroke-width:1.8;stroke-linecap:round;stroke-linejoin:round;stroke-miterlimit:4;stroke-dasharray:none;stroke-opacity:0.02" />
      <rect
         style="fill:none;fill-opacity:1;stroke:#000000;stroke-width:2;stroke-linecap:round;stroke-linejoin:round;stroke-miterlimit:4;stroke-dasharray:none;stroke-opacity:0.02"
         id="rect1662"
         width="29.810888"
         height="29.810888"
         x="69.839508"
         y="40.709618"
         rx="6.6098609"
         ry="6.6098609" />
      <rect
         ry="6.6098609"
         rx="6.6098609"
         y="40.709618"
         x="69.839508"
         height="29.810888"
         width="29.810888"
         id="rect1664"
         style="fill:none;fill-opacity:1;stroke:#000000;stroke-width:2.2;stroke-linecap:round;stroke-linejoin:round;stroke-miterlimit:4;stroke-dasharray:none;stroke-opacity:0.02" />
      <rect
         style="fill:none;fill-opacity:1;stroke:#000000;stroke-width:2.6;stroke-linecap:round;stroke-linejoin:round;stroke-miterlimit:4;stroke-dasharray:none;stroke-opacity:0.02"
         id="rect1666"
         width="29.810888"
         height="29.810888"
         x="69.839508"
         y="40.709618"
         rx="6.6098609"
         ry="6.6098609" />
      <rect
         ry="6.6098609"
         rx="6.6098609"
         y="40.709618"
         x="69.839508"
         height="29.810888"
         width="29.810888"
         id="rect1668"
         style="fill:none;fill-opacity:1;stroke:#000000;stroke-width:3;stroke-linecap:round;stroke-linejoin:round;stroke-miterlimit:4;stroke-dasharray:none;stroke-opacity:0.02" />
      <rect
         style="fill:none;fill-opacity:1;stroke:#000000;stroke-width:3.4;stroke-linecap:round;stroke-linejoin:round;stroke-miterlimit:4;stroke-dasharray:none;stroke-opacity:0.02"
         id="rect1670"
         width="29.810888"
         height="29.810888"
         x="69.839508"
         y="40.709618"
         rx="6.6098609"
         ry="6.6098609" />
      <rect
         ry="6.6098609"
         rx="6.6098609"
         y="40.709618"
         x="69.839508"
         height="29.810888"
         width="29.810888"
         id="rect1672"
         style="fill:none;fill-opacity:1;stroke:#000000;stroke-width:3.8;stroke-linecap:round;stroke-linejoin:round;stroke-miterlimit:4;stroke-dasharray:none;stroke-opacity:0.02" />
      <rect
         style="fill:none;fill-opacity:1;stroke:#000000;stroke-width:4.2;stroke-linecap:round;stroke-linejoin:round;stroke-miterlimit:4;stroke-dasharray:none;stroke-opacity:0.02"
         id="rect1674"
         width="29.810888"
         height="29.810888"
         x="69.839508"
         y="40.709618"
         rx="6.6098609"
         ry="6.6098609" />
      <rect
         ry="6.6098609"
         rx="6.6098609"
         y="40.709618"
         x="69.839508"
         height="29.810888"
         width="29.810888"
         id="rect1676"
         style="fill:none;fill-opacity:1;stroke:#000000;stroke-width:4.6;stroke-linecap:round;stroke-linejoin:round;stroke-miterlimit:4;stroke-dasharray:none;stroke-opacity:0.02" />
      <rect
         style="fill:none;fill-opacity:1;stroke:#000000;stroke-width:5;stroke-linecap:round;stroke-linejoin:round;stroke-miterlimit:4;stroke-dasharray:none;stroke-opacity:0.02"
         id="rect1678"
         width="29.810888"
         height="29.810888"
         x="69.839508"
         y="40.709618"
         rx="6.6098609"
         ry="6.6098609" />
    </g>
    <rect
       ry="6.4494534"
       rx="6.4494534"
       y="2.5391712"
       x="2.4074187"
       height="29.087439"
       width="29.087439"
       id="rect849"
       style="fill:url(#radialGradient963);fill-opacity:1;stroke-width:2.68768;stroke-linecap:round;stroke-linejoin:round" />
    <g
       id="g3656"
       style="opacity:0.50024435">
      <path
         sodipodi:nodetypes="scccsccccccscscccscccccccsccccccscccscccsscccscccsscccccscccscccccscccccscccscccsscccscccsccccsccccccscccscccsccccscccscccccsccccssccccccscccccc"
         inkscape:connector-curvature="0"
         d="m 4.5529269,18.611246 c -0.056194,0 -0.1008025,0.0437 -0.1080455,0.106125 l -0.196957,1.50577 0.196957,1.479843 c 0.0073,0.06237 0.051846,0.105819 0.1080455,0.105819 0.054425,0 0.098765,-0.04316 0.1074508,-0.105255 v 0 0 0 L 4.8938395,20.223131 4.6603772,18.717078 c -0.00835,-0.06209 -0.053303,-0.105843 -0.1074508,-0.105843 z m 1.1075982,-0.822701 c -0.00927,-0.06473 -0.055325,-0.109326 -0.1120906,-0.109326 -0.057047,0 -0.1042701,0.04607 -0.1120906,0.109326 0,4.94e-4 -0.2647381,2.434586 -0.2647381,2.434586 l 0.2647381,2.380676 c 0.00753,0.06386 0.054707,0.109889 0.1120906,0.109889 0.056497,0 0.1025412,-0.04489 0.1117988,-0.109301 l 0.3012374,-2.38126 z m 4.172072,-2.245684 c -0.108626,0 -0.198412,0.0895 -0.203629,0.203183 l -0.21086,4.47912 0.21086,2.894621 c 0.0055,0.113139 0.095,0.202336 0.203629,0.202336 0.108026,0 0.1975419,-0.08947 0.2039039,-0.202886 v 0.0023 l 0.238378,-2.894942 -0.238378,-4.479113 c -0.0064,-0.113716 -0.09587,-0.203183 -0.2039039,-0.203183 z M 7.6732839,17.09965 c -0.083429,0 -0.1514802,0.06706 -0.1581604,0.156549 l -0.2375134,2.967799 0.2375134,2.871325 c 0.00638,0.08892 0.074735,0.155977 0.1581604,0.155977 0.082534,0 0.1506122,-0.06706 0.1578442,-0.155977 l 0.269951,-2.871325 -0.269951,-2.968376 c -0.0072,-0.08892 -0.07531,-0.155977 -0.1578442,-0.155977 z m 4.3536751,6.222201 c 0.134686,0 0.244168,-0.109325 0.249674,-0.24925 l 0.20681,-2.845975 -0.206513,-5.963306 c -0.0055,-0.139923 -0.115003,-0.249258 -0.249678,-0.249258 -0.135851,0 -0.24562,0.10962 -0.249964,0.249561 0,3.71e-4 -0.183354,5.962723 -0.183354,5.962723 l 0.183354,2.847096 c 0.0044,0.138799 0.11412,0.248415 0.249678,0.248415 z m 4.492409,0.01315 c 0.185369,0 0.338307,-0.153644 0.341787,-0.342557 v 0.0023 -0.0023 l 0.144228,-2.764328 -0.144228,-6.887185 c -0.0027,-0.188613 -0.156422,-0.34254 -0.341787,-0.34254 -0.185666,0 -0.338883,0.153645 -0.341777,0.342837 l -0.128895,6.884547 c 0,0.0044 0.128895,2.768418 0.128895,2.768418 0.0027,0.187172 0.156401,0.340808 0.341777,0.340808 z m -2.263296,-0.01079 c 0.161342,0 0.291391,-0.130317 0.295733,-0.296514 v 0.0023 l 0.175529,-2.802808 -0.175805,-6.006454 c -0.0044,-0.166179 -0.134389,-0.2962 -0.295729,-0.2962 -0.162487,0 -0.292544,0.13002 -0.296018,0.2962 l -0.156126,6.006748 0.156423,2.802241 c 0.0034,0.164396 0.13354,0.294723 0.296012,0.294723 z m -5.5073349,-0.02622 c 0.09587,0 0.173494,-0.07724 0.180747,-0.178965 l 0.254307,-2.895217 -0.254307,-2.754111 c -0.007,-0.101724 -0.08457,-0.178413 -0.180747,-0.178413 -0.09732,0 -0.174935,0.07726 -0.181022,0.17958 l -0.223901,2.752944 0.223901,2.894941 c 0.0064,0.10203 0.0837,0.179262 0.181022,0.179262 z M 6.6065108,23.139426 c 0.0701,0 0.1268697,-0.05572 0.1349771,-0.13265 L 7.0270821,20.223193 6.7417736,17.334685 c -0.00846,-0.07726 -0.065171,-0.132945 -0.1352628,-0.132945 -0.070959,0 -0.1277342,0.05601 -0.1349723,0.132945 0,3.78e-4 -0.2514108,2.888508 -0.2514108,2.888508 l 0.2514108,2.782994 c 0.00699,0.07726 0.063724,0.133222 0.1349723,0.133222 z m 8.7768652,-9.018693 c -0.175233,0 -0.315718,0.140241 -0.319192,0.319822 l -0.14251,5.787222 0.14251,2.784729 c 0.0034,0.177269 0.143677,0.317476 0.319192,0.317476 0.174956,0 0.314554,-0.139922 0.318615,-0.319511 v 0.0023 l 0.159878,-2.784753 -0.159878,-5.78785 c -0.0044,-0.179008 -0.143656,-0.31922 -0.318615,-0.31922 z M 10.92572,23.32765 c 0.121072,0 0.220998,-0.09939 0.226794,-0.226232 l 0.222447,-2.875403 -0.222447,-5.503553 c -0.0061,-0.127114 -0.105721,-0.226229 -0.226794,-0.226229 -0.122237,0 -0.221871,0.09942 -0.227084,0.226229 0,3.82e-4 -0.196949,5.503553 -0.196949,5.503553 l 0.197246,2.876577 c 0.0051,0.125651 0.104543,0.225058 0.226787,0.225058 z m 2.484008,-0.271388 v -0.0023 l 0.191158,-2.827879 -0.191158,-6.164172 c -0.0051,-0.153051 -0.124548,-0.273167 -0.272559,-0.273167 -0.148873,0 -0.26879,0.119846 -0.272846,0.273167 l -0.16974,6.163883 0.170015,2.829337 c 0.0044,0.151608 0.123976,0.271409 0.272556,0.271409 0.148299,0 0.267631,-0.119798 0.272559,-0.272313 v 0.0023 z m 14.458566,-6.382566 c -0.45388,0 -0.886901,0.09242 -1.281398,0.258879 -0.263576,-3.005127 -2.767279,-5.362458 -5.821309,-5.362458 -0.747289,0 -1.475747,0.148089 -2.119059,0.398522 -0.249959,0.09738 -0.316583,0.197669 -0.318901,0.392124 v 10.582662 c 0.0023,0.204074 0.159901,0.374022 0.357718,0.394115 0.0085,0.0023 9.123569,0.0055 9.182658,0.0055 1.829406,0 3.312685,-1.492933 3.312685,-3.334568 0,-1.841606 -1.482992,-3.334843 -3.312394,-3.334843 z M 17.650442,12.351633 c -0.198984,0 -0.362352,0.164417 -0.365248,0.366455 l -0.149467,7.511351 0.149743,2.72614 c 0.0023,0.199112 0.165965,0.363261 0.364961,0.363261 0.198412,0 0.361762,-0.164141 0.364659,-0.36618 v 0.0027 l 0.162488,-2.726432 -0.162488,-7.511935 c -0.0027,-0.201445 -0.166261,-0.365864 -0.364659,-0.365864 z"
         id="path3649"
         style="display:inline;fill:#2e0006;fill-opacity:0.0823955;stroke-width:0.561097;enable-background:new" />
      <path
         sodipodi:nodetypes="scccsccccccscscccscccccccsccccccscccscccsscccscccsscccccscccscccccscccccscccscccsscccscccsccccsccccccscccscccsccccscccscccccsccccssccccccscccccc"
         inkscape:connector-curvature="0"
         d="m 4.3690459,17.868463 c -0.056194,0 -0.1008025,0.0437 -0.1080455,0.106125 l -0.196957,1.50577 0.196957,1.479843 c 0.0073,0.06237 0.051846,0.105819 0.1080455,0.105819 0.054425,0 0.098765,-0.04316 0.1074508,-0.105255 v 0 0 0 L 4.7099585,19.480348 4.4764962,17.974295 c -0.00835,-0.06209 -0.053303,-0.105843 -0.1074508,-0.105843 z m 1.1075982,-0.822701 c -0.00927,-0.06473 -0.055325,-0.109326 -0.1120906,-0.109326 -0.057047,0 -0.1042701,0.04607 -0.1120906,0.109326 0,4.94e-4 -0.2647381,2.434586 -0.2647381,2.434586 l 0.2647381,2.380676 c 0.00753,0.06386 0.054707,0.109889 0.1120906,0.109889 0.056497,0 0.1025412,-0.04489 0.1117988,-0.109301 l 0.3012374,-2.38126 z m 4.172072,-2.245684 c -0.108626,0 -0.198412,0.0895 -0.203629,0.203183 l -0.21086,4.47912 0.21086,2.894621 c 0.0055,0.113139 0.095,0.202336 0.203629,0.202336 0.108026,0 0.197542,-0.08947 0.203904,-0.202886 v 0.0023 L 10.090998,19.48381 9.8526201,15.004697 c -0.0064,-0.113716 -0.09587,-0.203183 -0.203904,-0.203183 z m -2.1593132,1.556789 c -0.083429,0 -0.1514802,0.06706 -0.1581604,0.156549 l -0.2375134,2.967799 0.2375134,2.871325 c 0.00638,0.08892 0.074735,0.155977 0.1581604,0.155977 0.082534,0 0.1506122,-0.06706 0.1578442,-0.155977 l 0.269951,-2.871325 -0.269951,-2.968376 c -0.0072,-0.08892 -0.07531,-0.155977 -0.1578442,-0.155977 z m 4.3536751,6.222201 c 0.134686,0 0.244168,-0.109325 0.249674,-0.24925 l 0.20681,-2.845975 -0.206513,-5.963306 c -0.0055,-0.139923 -0.115003,-0.249258 -0.249678,-0.249258 -0.135851,0 -0.24562,0.10962 -0.249964,0.249561 0,3.71e-4 -0.183354,5.962723 -0.183354,5.962723 l 0.183354,2.847096 c 0.0044,0.138799 0.11412,0.248415 0.249678,0.248415 z m 4.492409,0.01315 c 0.185369,0 0.338307,-0.153644 0.341787,-0.342557 v 0.0023 -0.0023 l 0.144228,-2.764328 -0.144228,-6.887185 c -0.0027,-0.188613 -0.156422,-0.34254 -0.341787,-0.34254 -0.185666,0 -0.338883,0.153645 -0.341777,0.342837 l -0.128895,6.884547 c 0,0.0044 0.128895,2.768418 0.128895,2.768418 0.0027,0.187172 0.156401,0.340808 0.341777,0.340808 z m -2.263296,-0.01079 c 0.161342,0 0.291391,-0.130317 0.295733,-0.296514 v 0.0023 l 0.175529,-2.802808 -0.175805,-6.006454 c -0.0044,-0.166179 -0.134389,-0.2962 -0.295729,-0.2962 -0.162487,0 -0.292544,0.13002 -0.296018,0.2962 l -0.156126,6.006748 0.156423,2.802241 c 0.0034,0.164396 0.13354,0.294723 0.296012,0.294723 z m -5.5073349,-0.02622 c 0.09587,0 0.173494,-0.07724 0.180747,-0.178965 l 0.254307,-2.895217 -0.254307,-2.754111 c -0.007,-0.101724 -0.08457,-0.178413 -0.180747,-0.178413 -0.09732,0 -0.174935,0.07726 -0.181022,0.17958 l -0.223901,2.752944 0.223901,2.894941 c 0.0064,0.10203 0.0837,0.179262 0.181022,0.179262 z M 6.4226298,22.396643 c 0.0701,0 0.1268697,-0.05572 0.1349771,-0.13265 L 6.8432011,19.48041 6.5578926,16.591902 c -0.00846,-0.07726 -0.065171,-0.132945 -0.1352628,-0.132945 -0.070959,0 -0.1277342,0.05601 -0.1349723,0.132945 0,3.78e-4 -0.2514108,2.888508 -0.2514108,2.888508 l 0.2514108,2.782994 c 0.00699,0.07726 0.063724,0.133222 0.1349723,0.133222 z M 15.199495,13.37795 c -0.175233,0 -0.315718,0.140241 -0.319192,0.319822 l -0.14251,5.787222 0.14251,2.784729 c 0.0034,0.177269 0.143677,0.317476 0.319192,0.317476 0.174956,0 0.314554,-0.139922 0.318615,-0.319511 v 0.0023 l 0.159878,-2.784753 -0.159878,-5.78785 c -0.0044,-0.179008 -0.143656,-0.31922 -0.318615,-0.31922 z m -4.457656,9.206917 c 0.121072,0 0.220998,-0.09939 0.226794,-0.226232 l 0.222447,-2.875403 -0.222447,-5.503553 c -0.0061,-0.127114 -0.105721,-0.226229 -0.226794,-0.226229 -0.122237,0 -0.221871,0.09942 -0.227084,0.226229 0,3.82e-4 -0.196949,5.503553 -0.196949,5.503553 l 0.197246,2.876577 c 0.0051,0.125651 0.104543,0.225058 0.226787,0.225058 z m 2.484008,-0.271388 v -0.0023 L 13.417005,19.4833 13.225847,13.319128 c -0.0051,-0.153051 -0.124548,-0.273167 -0.272559,-0.273167 -0.148873,0 -0.26879,0.119846 -0.272846,0.273167 l -0.16974,6.163883 0.170015,2.829337 c 0.0044,0.151608 0.123976,0.271409 0.272556,0.271409 0.148299,0 0.267631,-0.119798 0.272559,-0.272313 v 0.0023 z m 14.458566,-6.382566 c -0.45388,0 -0.886901,0.09242 -1.281398,0.258879 -0.263576,-3.005127 -2.767279,-5.362458 -5.821309,-5.362458 -0.747289,0 -1.475747,0.148089 -2.119059,0.398522 -0.249959,0.09738 -0.316583,0.197669 -0.318901,0.392124 v 10.582662 c 0.0023,0.204074 0.159901,0.374022 0.357718,0.394115 0.0085,0.0023 9.123569,0.0055 9.182658,0.0055 1.829406,0 3.312685,-1.492933 3.312685,-3.334568 0,-1.841606 -1.482992,-3.334843 -3.312394,-3.334843 z M 17.466561,11.60885 c -0.198984,0 -0.362352,0.164417 -0.365248,0.366455 l -0.149467,7.511351 0.149743,2.72614 c 0.0023,0.199112 0.165965,0.363261 0.364961,0.363261 0.198412,0 0.361762,-0.164141 0.364659,-0.36618 v 0.0027 l 0.162488,-2.726432 -0.162488,-7.511935 c -0.0027,-0.201445 -0.166261,-0.365864 -0.364659,-0.365864 z"
         id="path3358"
         style="display:inline;fill:#2e0006;fill-opacity:0.0823955;stroke-width:0.561097;enable-background:new" />
      <path
         sodipodi:nodetypes="scccsccccccscscccscccccccsccccccscccscccsscccscccsscccccscccscccccscccccscccscccsscccscccsccccsccccccscccscccsccccscccscccccsccccssccccccscccccc"
         inkscape:connector-curvature="0"
         d="m 4.8650997,20.101602 c -0.056194,0 -0.1008025,0.0437 -0.1080455,0.106125 l -0.196957,1.50577 0.196957,1.479843 c 0.0073,0.06237 0.051846,0.105819 0.1080455,0.105819 0.054425,0 0.098765,-0.04316 0.1074508,-0.105255 v 0 0 0 L 5.2060123,21.713487 4.97255,20.207434 C 4.9642,20.145344 4.919247,20.101591 4.8650992,20.101591 Z m 1.1075982,-0.822701 c -0.00927,-0.06473 -0.055325,-0.109326 -0.1120906,-0.109326 -0.057047,0 -0.1042701,0.04607 -0.1120906,0.109326 0,4.94e-4 -0.2647381,2.434586 -0.2647381,2.434586 l 0.2647381,2.380676 c 0.00753,0.06386 0.054707,0.109889 0.1120906,0.109889 0.056497,0 0.1025412,-0.04489 0.1117988,-0.109301 l 0.3012374,-2.38126 z M 10.14477,17.033217 c -0.108626,0 -0.1984122,0.0895 -0.2036292,0.203183 l -0.2108599,4.47912 0.2108599,2.894621 c 0.0055,0.113139 0.095,0.202336 0.2036292,0.202336 0.108026,0 0.197542,-0.08947 0.203904,-0.202886 v 0.0023 l 0.238378,-2.894942 -0.238378,-4.479113 c -0.0064,-0.113716 -0.09587,-0.203183 -0.203904,-0.203183 z m -2.1593133,1.556789 c -0.083429,0 -0.1514802,0.06706 -0.1581604,0.156549 l -0.2375134,2.967799 0.2375134,2.871325 c 0.00638,0.08892 0.074735,0.155977 0.1581604,0.155977 0.082534,0 0.1506122,-0.06706 0.1578442,-0.155977 l 0.269951,-2.871325 -0.269951,-2.968376 c -0.0072,-0.08892 -0.07531,-0.155977 -0.1578442,-0.155977 z m 4.3536753,6.222201 c 0.134686,0 0.244168,-0.109325 0.249674,-0.24925 l 0.20681,-2.845975 -0.206513,-5.963306 c -0.0055,-0.139923 -0.115003,-0.249258 -0.249678,-0.249258 -0.135851,0 -0.24562,0.10962 -0.249964,0.249561 0,3.71e-4 -0.183354,5.962723 -0.183354,5.962723 l 0.183354,2.847096 c 0.0044,0.138799 0.11412,0.248415 0.249678,0.248415 z m 4.492409,0.01315 c 0.185369,0 0.338307,-0.153644 0.341787,-0.342557 v 0.0023 -0.0023 l 0.144228,-2.764328 -0.144228,-6.887185 c -0.0027,-0.188613 -0.156422,-0.34254 -0.341787,-0.34254 -0.185666,0 -0.338883,0.153645 -0.341777,0.342837 l -0.128895,6.884547 c 0,0.0044 0.128895,2.768418 0.128895,2.768418 0.0027,0.187172 0.156401,0.340808 0.341777,0.340808 z m -2.263296,-0.01079 c 0.161342,0 0.291391,-0.130317 0.295733,-0.296514 v 0.0023 l 0.175529,-2.802808 -0.175805,-6.006454 c -0.0044,-0.166179 -0.134389,-0.2962 -0.295729,-0.2962 -0.162487,0 -0.292544,0.13002 -0.296018,0.2962 l -0.156126,6.006748 0.156423,2.802241 c 0.0034,0.164396 0.13354,0.294723 0.296012,0.294723 z m -5.5073351,-0.02622 c 0.09587,0 0.173494,-0.07724 0.180747,-0.178965 l 0.254307,-2.895217 -0.254307,-2.754111 c -0.007,-0.101724 -0.08457,-0.178413 -0.180747,-0.178413 -0.09732,0 -0.174935,0.07726 -0.181022,0.17958 l -0.223901,2.752944 0.223901,2.894941 c 0.0064,0.10203 0.0837,0.179262 0.181022,0.179262 z M 6.9186836,24.629782 c 0.0701,0 0.1268697,-0.05572 0.1349771,-0.13265 L 7.3392549,21.713549 7.0539464,18.825041 c -0.00846,-0.07726 -0.065171,-0.132945 -0.1352628,-0.132945 -0.070959,0 -0.1277342,0.05601 -0.1349723,0.132945 0,3.78e-4 -0.2514108,2.888508 -0.2514108,2.888508 l 0.2514108,2.782994 c 0.00699,0.07726 0.063724,0.133222 0.1349723,0.133222 z m 8.7768654,-9.018693 c -0.175233,0 -0.315718,0.140241 -0.319192,0.319822 l -0.14251,5.787222 0.14251,2.784729 c 0.0034,0.177269 0.143677,0.317476 0.319192,0.317476 0.174956,0 0.314554,-0.139922 0.318615,-0.319511 v 0.0023 l 0.159878,-2.784753 -0.159878,-5.78785 c -0.0044,-0.179008 -0.143656,-0.31922 -0.318615,-0.31922 z m -4.457656,9.206917 c 0.121072,0 0.220998,-0.09939 0.226794,-0.226232 l 0.222447,-2.875403 -0.222447,-5.503553 c -0.0061,-0.127114 -0.105721,-0.226229 -0.226794,-0.226229 -0.122237,0 -0.221871,0.09942 -0.227084,0.226229 0,3.82e-4 -0.196949,5.503553 -0.196949,5.503553 l 0.197246,2.876577 c 0.0051,0.125651 0.104543,0.225058 0.226787,0.225058 z m 2.484008,-0.271388 v -0.0023 l 0.191158,-2.827879 -0.191158,-6.164172 c -0.0051,-0.153051 -0.124548,-0.273167 -0.272559,-0.273167 -0.148873,0 -0.26879,0.119846 -0.272846,0.273167 l -0.16974,6.163883 0.170015,2.829337 c 0.0044,0.151608 0.123976,0.271409 0.272556,0.271409 0.148299,0 0.267631,-0.119798 0.272559,-0.272313 v 0.0023 z m 14.458566,-6.382566 c -0.45388,0 -0.886901,0.09242 -1.281398,0.258879 -0.263576,-3.005127 -2.767279,-5.362458 -5.821309,-5.362458 -0.747289,0 -1.475747,0.148089 -2.119059,0.398522 -0.249959,0.09738 -0.316583,0.197669 -0.318901,0.392124 v 10.582662 c 0.0023,0.204074 0.159901,0.374022 0.357718,0.394115 0.0085,0.0023 9.123569,0.0055 9.182658,0.0055 1.829406,0 3.312685,-1.492933 3.312685,-3.334568 0,-1.841606 -1.482992,-3.334843 -3.312394,-3.334843 z M 17.962615,13.841989 c -0.198984,0 -0.362352,0.164417 -0.365248,0.366455 l -0.149467,7.511351 0.149743,2.72614 c 0.0023,0.199112 0.165965,0.363261 0.364961,0.363261 0.198412,0 0.361762,-0.164141 0.364659,-0.36618 v 0.0027 l 0.162488,-2.726432 -0.162488,-7.511935 c -0.0027,-0.201445 -0.166261,-0.365864 -0.364659,-0.365864 z"
         id="path3651"
         style="display:inline;fill:#2e0006;fill-opacity:0.0823955;stroke-width:0.561097;enable-background:new" />
    </g>
    <path
       sodipodi:nodetypes="scccsccccccscscccscccccccsccccccscccscccsscccscccsscccccscccscccccscccccscccscccsscccscccsccccsccccccscccscccsccccscccscccccsccccssccccccscccccc"
       inkscape:connector-curvature="0"
       d="m 4.0878278,17.410044 c -0.056194,0 -0.1008025,0.0437 -0.1080455,0.106125 l -0.196957,1.50577 0.196957,1.479843 c 0.0073,0.06237 0.051846,0.105819 0.1080455,0.105819 0.054425,0 0.098765,-0.04316 0.1074508,-0.105255 v 0 0 0 L 4.4287404,19.021929 4.1952781,17.515876 c -0.00835,-0.06209 -0.053303,-0.105843 -0.1074508,-0.105843 z M 5.195426,16.587343 c -0.00927,-0.06473 -0.055325,-0.109326 -0.1120906,-0.109326 -0.057047,0 -0.1042701,0.04607 -0.1120906,0.109326 0,4.94e-4 -0.2647381,2.434586 -0.2647381,2.434586 l 0.2647381,2.380676 c 0.00753,0.06386 0.054707,0.109889 0.1120906,0.109889 0.056497,0 0.1025412,-0.04489 0.1117988,-0.109301 l 0.3012374,-2.38126 z m 4.172072,-2.245684 c -0.108626,0 -0.198412,0.0895 -0.203629,0.203183 l -0.21086,4.47912 0.21086,2.894621 c 0.0055,0.113139 0.095,0.202336 0.203629,0.202336 0.108026,0 0.197542,-0.08947 0.203904,-0.202886 v 0.0023 L 9.80978,19.025391 9.571402,14.546278 c -0.0064,-0.113716 -0.09587,-0.203183 -0.203904,-0.203183 z m -2.1593132,1.556789 c -0.083429,0 -0.1514802,0.06706 -0.1581604,0.156549 l -0.2375134,2.967799 0.2375134,2.871325 c 0.00638,0.08892 0.074735,0.155977 0.1581604,0.155977 0.082534,0 0.1506122,-0.06706 0.1578442,-0.155977 L 7.63598,19.022796 7.366029,16.05442 C 7.358829,15.9655 7.290719,15.898443 7.2081848,15.898443 Z m 4.3536752,6.222201 c 0.134686,0 0.244168,-0.109325 0.249674,-0.24925 l 0.20681,-2.845975 -0.206513,-5.963306 c -0.0055,-0.139923 -0.115003,-0.249258 -0.249678,-0.249258 -0.135851,0 -0.24562,0.10962 -0.249964,0.249561 0,3.71e-4 -0.183354,5.962723 -0.183354,5.962723 l 0.183354,2.847096 c 0.0044,0.138799 0.11412,0.248415 0.249678,0.248415 z m 4.492409,0.01315 c 0.185369,0 0.338307,-0.153644 0.341787,-0.342557 v 0.0023 -0.0023 l 0.144228,-2.764328 -0.144228,-6.887185 c -0.0027,-0.188613 -0.156422,-0.34254 -0.341787,-0.34254 -0.185666,0 -0.338883,0.153645 -0.341777,0.342837 l -0.128895,6.884547 c 0,0.0044 0.128895,2.768418 0.128895,2.768418 0.0027,0.187172 0.156401,0.340808 0.341777,0.340808 z m -2.263296,-0.01079 c 0.161342,0 0.291391,-0.130317 0.295733,-0.296514 v 0.0023 l 0.175529,-2.802808 -0.175805,-6.006454 c -0.0044,-0.166179 -0.134389,-0.2962 -0.295729,-0.2962 -0.162487,0 -0.292544,0.13002 -0.296018,0.2962 l -0.156126,6.006748 0.156423,2.802241 c 0.0034,0.164396 0.13354,0.294723 0.296012,0.294723 z m -5.507335,-0.02622 c 0.09587,0 0.173494,-0.07724 0.180747,-0.178965 L 8.718692,19.022607 8.464385,16.268496 c -0.007,-0.101724 -0.08457,-0.178413 -0.180747,-0.178413 -0.09732,0 -0.174935,0.07726 -0.181022,0.17958 l -0.223901,2.752944 0.223901,2.894941 c 0.0064,0.10203 0.0837,0.179262 0.181022,0.179262 z M 6.1414117,21.938224 c 0.0701,0 0.1268697,-0.05572 0.1349771,-0.13265 L 6.561983,19.021991 6.2766745,16.133483 c -0.00846,-0.07726 -0.065171,-0.132945 -0.1352628,-0.132945 -0.070959,0 -0.1277342,0.05601 -0.1349723,0.132945 0,3.78e-4 -0.2514108,2.888508 -0.2514108,2.888508 l 0.2514108,2.782994 c 0.00699,0.07726 0.063724,0.133222 0.1349723,0.133222 z m 8.7768653,-9.018693 c -0.175233,0 -0.315718,0.140241 -0.319192,0.319822 l -0.14251,5.787222 0.14251,2.784729 c 0.0034,0.177269 0.143677,0.317476 0.319192,0.317476 0.174956,0 0.314554,-0.139922 0.318615,-0.319511 v 0.0023 l 0.159878,-2.784753 -0.159878,-5.78785 c -0.0044,-0.179008 -0.143656,-0.31922 -0.318615,-0.31922 z m -4.457656,9.206917 c 0.121072,0 0.220998,-0.09939 0.226794,-0.226232 l 0.222447,-2.875403 -0.222447,-5.503553 c -0.0061,-0.127114 -0.105721,-0.226229 -0.226794,-0.226229 -0.122237,0 -0.221871,0.09942 -0.227084,0.226229 0,3.82e-4 -0.196949,5.503553 -0.196949,5.503553 l 0.197246,2.876577 c 0.0051,0.125651 0.104543,0.225058 0.226787,0.225058 z m 2.484008,-0.271388 v -0.0023 l 0.191158,-2.827879 -0.191158,-6.164172 c -0.0051,-0.153051 -0.124548,-0.273167 -0.272559,-0.273167 -0.148873,0 -0.26879,0.119846 -0.272846,0.273167 l -0.16974,6.163883 0.170015,2.829337 c 0.0044,0.151608 0.123976,0.271409 0.272556,0.271409 0.148299,0 0.267631,-0.119798 0.272559,-0.272313 v 0.0023 z m 14.458566,-6.382566 c -0.45388,0 -0.886901,0.09242 -1.281398,0.258879 -0.263576,-3.005127 -2.767279,-5.362458 -5.821309,-5.362458 -0.747289,0 -1.475747,0.148089 -2.119059,0.398522 -0.249959,0.09738 -0.316583,0.197669 -0.318901,0.392124 v 10.582662 c 0.0023,0.204074 0.159901,0.374022 0.357718,0.394115 0.0085,0.0023 9.123569,0.0055 9.182658,0.0055 1.829406,0 3.312685,-1.492933 3.312685,-3.334568 0,-1.841606 -1.482992,-3.334843 -3.312394,-3.334843 z M 17.185343,11.150431 c -0.198984,0 -0.362352,0.164417 -0.365248,0.366455 l -0.149467,7.511351 0.149743,2.72614 c 0.0023,0.199112 0.165965,0.363261 0.364961,0.363261 0.198412,0 0.361762,-0.164141 0.364659,-0.36618 v 0.0027 l 0.162488,-2.726432 -0.162488,-7.511935 c -0.0027,-0.201445 -0.166261,-0.365864 -0.364659,-0.365864 z"
       id="path3850"
       style="display:inline;fill:url(#linearGradient1131);fill-opacity:1;stroke-width:0.561097;enable-background:new" />
    <path
       sodipodi:nodetypes="scccsccccccscscccscccccccsccccccscccscccsscccscccsscccccscccscccccscccccscccscccsscccscccsccccsccccccscccscccsccccscccscccccsccccssccccccscccccc"
       inkscape:connector-curvature="0"
       d="m 4.0878278,17.410044 c -0.056194,0 -0.1008025,0.0437 -0.1080455,0.106125 l -0.196957,1.50577 0.196957,1.479843 c 0.0073,0.06237 0.051846,0.105819 0.1080455,0.105819 0.054425,0 0.098765,-0.04316 0.1074508,-0.105255 v 0 0 0 L 4.4287404,19.021929 4.1952781,17.515876 c -0.00835,-0.06209 -0.053303,-0.105843 -0.1074508,-0.105843 z M 5.195426,16.587343 c -0.00927,-0.06473 -0.055325,-0.109326 -0.1120906,-0.109326 -0.057047,0 -0.1042701,0.04607 -0.1120906,0.109326 0,4.94e-4 -0.2647381,2.434586 -0.2647381,2.434586 l 0.2647381,2.380676 c 0.00753,0.06386 0.054707,0.109889 0.1120906,0.109889 0.056497,0 0.1025412,-0.04489 0.1117988,-0.109301 l 0.3012374,-2.38126 z m 4.172072,-2.245684 c -0.108626,0 -0.198412,0.0895 -0.203629,0.203183 l -0.21086,4.47912 0.21086,2.894621 c 0.0055,0.113139 0.095,0.202336 0.203629,0.202336 0.108026,0 0.197542,-0.08947 0.203904,-0.202886 v 0.0023 L 9.80978,19.025391 9.571402,14.546278 c -0.0064,-0.113716 -0.09587,-0.203183 -0.203904,-0.203183 z m -2.1593132,1.556789 c -0.083429,0 -0.1514802,0.06706 -0.1581604,0.156549 l -0.2375134,2.967799 0.2375134,2.871325 c 0.00638,0.08892 0.074735,0.155977 0.1581604,0.155977 0.082534,0 0.1506122,-0.06706 0.1578442,-0.155977 L 7.63598,19.022796 7.366029,16.05442 C 7.358829,15.9655 7.290719,15.898443 7.2081848,15.898443 Z m 4.3536752,6.222201 c 0.134686,0 0.244168,-0.109325 0.249674,-0.24925 l 0.20681,-2.845975 -0.206513,-5.963306 c -0.0055,-0.139923 -0.115003,-0.249258 -0.249678,-0.249258 -0.135851,0 -0.24562,0.10962 -0.249964,0.249561 0,3.71e-4 -0.183354,5.962723 -0.183354,5.962723 l 0.183354,2.847096 c 0.0044,0.138799 0.11412,0.248415 0.249678,0.248415 z m 4.492409,0.01315 c 0.185369,0 0.338307,-0.153644 0.341787,-0.342557 v 0.0023 -0.0023 l 0.144228,-2.764328 -0.144228,-6.887185 c -0.0027,-0.188613 -0.156422,-0.34254 -0.341787,-0.34254 -0.185666,0 -0.338883,0.153645 -0.341777,0.342837 l -0.128895,6.884547 c 0,0.0044 0.128895,2.768418 0.128895,2.768418 0.0027,0.187172 0.156401,0.340808 0.341777,0.340808 z m -2.263296,-0.01079 c 0.161342,0 0.291391,-0.130317 0.295733,-0.296514 v 0.0023 l 0.175529,-2.802808 -0.175805,-6.006454 c -0.0044,-0.166179 -0.134389,-0.2962 -0.295729,-0.2962 -0.162487,0 -0.292544,0.13002 -0.296018,0.2962 l -0.156126,6.006748 0.156423,2.802241 c 0.0034,0.164396 0.13354,0.294723 0.296012,0.294723 z m -5.507335,-0.02622 c 0.09587,0 0.173494,-0.07724 0.180747,-0.178965 L 8.718692,19.022607 8.464385,16.268496 c -0.007,-0.101724 -0.08457,-0.178413 -0.180747,-0.178413 -0.09732,0 -0.174935,0.07726 -0.181022,0.17958 l -0.223901,2.752944 0.223901,2.894941 c 0.0064,0.10203 0.0837,0.179262 0.181022,0.179262 z M 6.1414117,21.938224 c 0.0701,0 0.1268697,-0.05572 0.1349771,-0.13265 L 6.561983,19.021991 6.2766745,16.133483 c -0.00846,-0.07726 -0.065171,-0.132945 -0.1352628,-0.132945 -0.070959,0 -0.1277342,0.05601 -0.1349723,0.132945 0,3.78e-4 -0.2514108,2.888508 -0.2514108,2.888508 l 0.2514108,2.782994 c 0.00699,0.07726 0.063724,0.133222 0.1349723,0.133222 z m 8.7768653,-9.018693 c -0.175233,0 -0.315718,0.140241 -0.319192,0.319822 l -0.14251,5.787222 0.14251,2.784729 c 0.0034,0.177269 0.143677,0.317476 0.319192,0.317476 0.174956,0 0.314554,-0.139922 0.318615,-0.319511 v 0.0023 l 0.159878,-2.784753 -0.159878,-5.78785 c -0.0044,-0.179008 -0.143656,-0.31922 -0.318615,-0.31922 z m -4.457656,9.206917 c 0.121072,0 0.220998,-0.09939 0.226794,-0.226232 l 0.222447,-2.875403 -0.222447,-5.503553 c -0.0061,-0.127114 -0.105721,-0.226229 -0.226794,-0.226229 -0.122237,0 -0.221871,0.09942 -0.227084,0.226229 0,3.82e-4 -0.196949,5.503553 -0.196949,5.503553 l 0.197246,2.876577 c 0.0051,0.125651 0.104543,0.225058 0.226787,0.225058 z m 2.484008,-0.271388 v -0.0023 l 0.191158,-2.827879 -0.191158,-6.164172 c -0.0051,-0.153051 -0.124548,-0.273167 -0.272559,-0.273167 -0.148873,0 -0.26879,0.119846 -0.272846,0.273167 l -0.16974,6.163883 0.170015,2.829337 c 0.0044,0.151608 0.123976,0.271409 0.272556,0.271409 0.148299,0 0.267631,-0.119798 0.272559,-0.272313 v 0.0023 z m 14.458566,-6.382566 c -0.45388,0 -0.886901,0.09242 -1.281398,0.258879 -0.263576,-3.005127 -2.767279,-5.362458 -5.821309,-5.362458 -0.747289,0 -1.475747,0.148089 -2.119059,0.398522 -0.249959,0.09738 -0.316583,0.197669 -0.318901,0.392124 v 10.582662 c 0.0023,0.204074 0.159901,0.374022 0.357718,0.394115 0.0085,0.0023 9.123569,0.0055 9.182658,0.0055 1.829406,0 3.312685,-1.492933 3.312685,-3.334568 0,-1.841606 -1.482992,-3.334843 -3.312394,-3.334843 z M 17.185343,11.150431 c -0.198984,0 -0.362352,0.164417 -0.365248,0.366455 l -0.149467,7.511351 0.149743,2.72614 c 0.0023,0.199112 0.165965,0.363261 0.364961,0.363261 0.198412,0 0.361762,-0.164141 0.364659,-0.36618 v 0.0027 l 0.162488,-2.726432 -0.162488,-7.511935 c -0.0027,-0.201445 -0.166261,-0.365864 -0.364659,-0.365864 z"
       id="path2413"
       style="display:inline;fill:url(#linearGradient3356);fill-opacity:1;stroke-width:0.561097;enable-background:new" />
  </g>
</svg>
