<?xml version="1.0" encoding="UTF-8" standalone="no"?>
<svg
   width="128"
   height="128"
   viewBox="0 0 33.866666 33.866668"
   version="1.1"
   id="svg1555"
   inkscape:version="1.1.2 (0a00cf5339, 2022-02-04)"
   sodipodi:docname="sticky.svg"
   xmlns:inkscape="http://www.inkscape.org/namespaces/inkscape"
   xmlns:sodipodi="http://sodipodi.sourceforge.net/DTD/sodipodi-0.dtd"
   xmlns:xlink="http://www.w3.org/1999/xlink"
   xmlns="http://www.w3.org/2000/svg"
   xmlns:svg="http://www.w3.org/2000/svg"
   xmlns:rdf="http://www.w3.org/1999/02/22-rdf-syntax-ns#"
   xmlns:cc="http://creativecommons.org/ns#"
   xmlns:dc="http://purl.org/dc/elements/1.1/">
  <defs
     id="defs1549">
    <linearGradient
       inkscape:collect="always"
       xlink:href="#linearGradient1451"
       id="linearGradient1453"
       x1="5.4708757"
       y1="4.3405485"
       x2="13.118995"
       y2="11.906581"
       gradientUnits="userSpaceOnUse"
       gradientTransform="translate(0.05731657,-0.07786231)" />
    <linearGradient
       inkscape:collect="always"
       id="linearGradient1451">
      <stop
         style="stop-color:#ffc300;stop-opacity:1"
         offset="0"
         id="stop1447" />
      <stop
         style="stop-color:#ffe000;stop-opacity:1"
         offset="1"
         id="stop1449" />
    </linearGradient>
    <linearGradient
       inkscape:collect="always"
       xlink:href="#linearGradient1479"
       id="linearGradient1481"
       x1="18.838228"
       y1="30.952929"
       x2="17.87656"
       y2="5.9120059"
       gradientUnits="userSpaceOnUse"
       gradientTransform="translate(0.05731657,-0.07786231)" />
    <linearGradient
       inkscape:collect="always"
       id="linearGradient1479">
      <stop
         style="stop-color:#e7e9eb;stop-opacity:1"
         offset="0"
         id="stop1475" />
      <stop
         style="stop-color:#f0f0f3;stop-opacity:1"
         offset="1"
         id="stop1477" />
    </linearGradient>
    <radialGradient
       inkscape:collect="always"
       xlink:href="#linearGradient1471"
       id="radialGradient1473"
       cx="2.3962641"
       cy="2.5185852"
       fx="2.3962641"
       fy="2.5185852"
       r="14.543719"
       gradientUnits="userSpaceOnUse"
       gradientTransform="translate(0.05731657,-0.07786231)" />
    <linearGradient
       inkscape:collect="always"
       id="linearGradient1471">
      <stop
         style="stop-color:#000000;stop-opacity:0.37345679"
         offset="0"
         id="stop1467" />
      <stop
         style="stop-color:#000000;stop-opacity:0;"
         offset="1"
         id="stop1469" />
    </linearGradient>
    <radialGradient
       inkscape:collect="always"
       xlink:href="#linearGradient1459"
       id="radialGradient1463"
       cx="13.09079"
       cy="12.879486"
       fx="13.09079"
       fy="12.879486"
       r="7.2718596"
       gradientUnits="userSpaceOnUse"
       gradientTransform="matrix(3.5015416,3.3115279,-4.835177,5.112617,27.541623,-98.338541)" />
    <linearGradient
       inkscape:collect="always"
       id="linearGradient1459">
      <stop
         style="stop-color:#ffffff;stop-opacity:1"
         offset="0"
         id="stop1455" />
      <stop
         id="stop1504"
         offset="0.07639215"
         style="stop-color:#f3f3f1;stop-opacity:0.99607843;" />
      <stop
         style="stop-color:#272727;stop-opacity:0.98823529"
         offset="1"
         id="stop1457" />
    </linearGradient>
    <filter
       id="d"
       width="1.0772162"
       height="1.125846"
       x="-0.038608101"
       y="-0.062923021"
       color-interpolation-filters="sRGB">
      <feGaussianBlur
         stdDeviation=".141"
         id="feGaussianBlur17" />
    </filter>
  </defs>
  <sodipodi:namedview
     id="base"
     pagecolor="#ffffff"
     bordercolor="#666666"
     borderopacity="1.0"
     inkscape:pageopacity="0.0"
     inkscape:pageshadow="2"
     inkscape:zoom="0.9899495"
     inkscape:cx="6.0609152"
     inkscape:cy="-17.172593"
     inkscape:document-units="mm"
     inkscape:current-layer="layer1"
     inkscape:document-rotation="0"
     showgrid="false"
     units="px"
     inkscape:window-width="1514"
     inkscape:window-height="941"
     inkscape:window-x="50"
     inkscape:window-y="27"
     inkscape:window-maximized="0"
     inkscape:pagecheckerboard="0" />
  <metadata
     id="metadata1552">
    <rdf:RDF>
      <cc:Work
         rdf:about="">
        <dc:format>image/svg+xml</dc:format>
        <dc:type
           rdf:resource="http://purl.org/dc/dcmitype/StillImage" />
      </cc:Work>
    </rdf:RDF>
  </metadata>
  <g
     inkscape:label="Capa 1"
     inkscape:groupmode="layer"
     id="layer1">
    <g
       id="g1702"
       transform="matrix(0.97573206,0,0,0.97573206,-65.691069,-37.280956)"
       style="opacity:0.295">
      <rect
         style="fill:none;fill-opacity:1;stroke:#000000;stroke-width:0.1;stroke-linecap:round;stroke-linejoin:round;stroke-miterlimit:4;stroke-dasharray:none;stroke-opacity:0.02"
         id="rect1634"
         width="29.810888"
         height="29.810888"
         x="69.839508"
         y="40.709618"
         rx="6.6098609"
         ry="6.6098609" />
      <rect
         ry="6.6098609"
         rx="6.6098609"
         y="40.709618"
         x="69.839508"
         height="29.810888"
         width="29.810888"
         id="rect1638"
         style="fill:none;fill-opacity:1;stroke:#000000;stroke-width:0.2;stroke-linecap:round;stroke-linejoin:round;stroke-miterlimit:4;stroke-dasharray:none;stroke-opacity:0.02" />
      <rect
         style="fill:none;fill-opacity:1;stroke:#000000;stroke-width:0.3;stroke-linecap:round;stroke-linejoin:round;stroke-miterlimit:4;stroke-dasharray:none;stroke-opacity:0.02"
         id="rect1640"
         width="29.810888"
         height="29.810888"
         x="69.839508"
         y="40.709618"
         rx="6.6098609"
         ry="6.6098609" />
      <rect
         ry="6.6098609"
         rx="6.6098609"
         y="40.709618"
         x="69.839508"
         height="29.810888"
         width="29.810888"
         id="rect1642"
         style="fill:none;fill-opacity:1;stroke:#000000;stroke-width:0.4;stroke-linecap:round;stroke-linejoin:round;stroke-miterlimit:4;stroke-dasharray:none;stroke-opacity:0.02" />
      <rect
         style="fill:none;fill-opacity:1;stroke:#000000;stroke-width:0.5;stroke-linecap:round;stroke-linejoin:round;stroke-miterlimit:4;stroke-dasharray:none;stroke-opacity:0.02"
         id="rect1644"
         width="29.810888"
         height="29.810888"
         x="69.839508"
         y="40.709618"
         rx="6.6098609"
         ry="6.6098609" />
      <rect
         ry="6.6098609"
         rx="6.6098609"
         y="40.709618"
         x="69.839508"
         height="29.810888"
         width="29.810888"
         id="rect1646"
         style="fill:none;fill-opacity:1;stroke:#000000;stroke-width:0.6;stroke-linecap:round;stroke-linejoin:round;stroke-miterlimit:4;stroke-dasharray:none;stroke-opacity:0.02" />
      <rect
         style="fill:none;fill-opacity:1;stroke:#000000;stroke-width:0.7;stroke-linecap:round;stroke-linejoin:round;stroke-miterlimit:4;stroke-dasharray:none;stroke-opacity:0.02"
         id="rect1648"
         width="29.810888"
         height="29.810888"
         x="69.839508"
         y="40.709618"
         rx="6.6098609"
         ry="6.6098609" />
      <rect
         ry="6.6098609"
         rx="6.6098609"
         y="40.709618"
         x="69.839508"
         height="29.810888"
         width="29.810888"
         id="rect1650"
         style="fill:none;fill-opacity:1;stroke:#000000;stroke-width:0.8;stroke-linecap:round;stroke-linejoin:round;stroke-miterlimit:4;stroke-dasharray:none;stroke-opacity:0.02" />
      <rect
         style="fill:none;fill-opacity:1;stroke:#000000;stroke-width:1;stroke-linecap:round;stroke-linejoin:round;stroke-miterlimit:4;stroke-dasharray:none;stroke-opacity:0.02"
         id="rect1652"
         width="29.810888"
         height="29.810888"
         x="69.839508"
         y="40.709618"
         rx="6.6098609"
         ry="6.6098609" />
      <rect
         ry="6.6098609"
         rx="6.6098609"
         y="40.709618"
         x="69.839508"
         height="29.810888"
         width="29.810888"
         id="rect1654"
         style="fill:none;fill-opacity:1;stroke:#000000;stroke-width:1.2;stroke-linecap:round;stroke-linejoin:round;stroke-miterlimit:4;stroke-dasharray:none;stroke-opacity:0.02" />
      <rect
         style="fill:none;fill-opacity:1;stroke:#000000;stroke-width:1.4;stroke-linecap:round;stroke-linejoin:round;stroke-miterlimit:4;stroke-dasharray:none;stroke-opacity:0.02"
         id="rect1656"
         width="29.810888"
         height="29.810888"
         x="69.839508"
         y="40.709618"
         rx="6.6098609"
         ry="6.6098609" />
      <rect
         ry="6.6098609"
         rx="6.6098609"
         y="40.709618"
         x="69.839508"
         height="29.810888"
         width="29.810888"
         id="rect1658"
         style="fill:none;fill-opacity:1;stroke:#000000;stroke-width:1.6;stroke-linecap:round;stroke-linejoin:round;stroke-miterlimit:4;stroke-dasharray:none;stroke-opacity:0.02" />
      <rect
         style="fill:none;fill-opacity:1;stroke:#000000;stroke-width:1.8;stroke-linecap:round;stroke-linejoin:round;stroke-miterlimit:4;stroke-dasharray:none;stroke-opacity:0.02"
         id="rect1660"
         width="29.810888"
         height="29.810888"
         x="69.839508"
         y="40.709618"
         rx="6.6098609"
         ry="6.6098609" />
      <rect
         ry="6.6098609"
         rx="6.6098609"
         y="40.709618"
         x="69.839508"
         height="29.810888"
         width="29.810888"
         id="rect1662"
         style="fill:none;fill-opacity:1;stroke:#000000;stroke-width:2;stroke-linecap:round;stroke-linejoin:round;stroke-miterlimit:4;stroke-dasharray:none;stroke-opacity:0.02" />
      <rect
         style="fill:none;fill-opacity:1;stroke:#000000;stroke-width:2.2;stroke-linecap:round;stroke-linejoin:round;stroke-miterlimit:4;stroke-dasharray:none;stroke-opacity:0.02"
         id="rect1664"
         width="29.810888"
         height="29.810888"
         x="69.839508"
         y="40.709618"
         rx="6.6098609"
         ry="6.6098609" />
      <rect
         ry="6.6098609"
         rx="6.6098609"
         y="40.709618"
         x="69.839508"
         height="29.810888"
         width="29.810888"
         id="rect1666"
         style="fill:none;fill-opacity:1;stroke:#000000;stroke-width:2.6;stroke-linecap:round;stroke-linejoin:round;stroke-miterlimit:4;stroke-dasharray:none;stroke-opacity:0.02" />
      <rect
         style="fill:none;fill-opacity:1;stroke:#000000;stroke-width:3;stroke-linecap:round;stroke-linejoin:round;stroke-miterlimit:4;stroke-dasharray:none;stroke-opacity:0.02"
         id="rect1668"
         width="29.810888"
         height="29.810888"
         x="69.839508"
         y="40.709618"
         rx="6.6098609"
         ry="6.6098609" />
      <rect
         ry="6.6098609"
         rx="6.6098609"
         y="40.709618"
         x="69.839508"
         height="29.810888"
         width="29.810888"
         id="rect1670"
         style="fill:none;fill-opacity:1;stroke:#000000;stroke-width:3.4;stroke-linecap:round;stroke-linejoin:round;stroke-miterlimit:4;stroke-dasharray:none;stroke-opacity:0.02" />
      <rect
         style="fill:none;fill-opacity:1;stroke:#000000;stroke-width:3.8;stroke-linecap:round;stroke-linejoin:round;stroke-miterlimit:4;stroke-dasharray:none;stroke-opacity:0.02"
         id="rect1672"
         width="29.810888"
         height="29.810888"
         x="69.839508"
         y="40.709618"
         rx="6.6098609"
         ry="6.6098609" />
      <rect
         ry="6.6098609"
         rx="6.6098609"
         y="40.709618"
         x="69.839508"
         height="29.810888"
         width="29.810888"
         id="rect1674"
         style="fill:none;fill-opacity:1;stroke:#000000;stroke-width:4.2;stroke-linecap:round;stroke-linejoin:round;stroke-miterlimit:4;stroke-dasharray:none;stroke-opacity:0.02" />
      <rect
         style="fill:none;fill-opacity:1;stroke:#000000;stroke-width:4.6;stroke-linecap:round;stroke-linejoin:round;stroke-miterlimit:4;stroke-dasharray:none;stroke-opacity:0.02"
         id="rect1676"
         width="29.810888"
         height="29.810888"
         x="69.839508"
         y="40.709618"
         rx="6.6098609"
         ry="6.6098609" />
      <rect
         ry="6.6098609"
         rx="6.6098609"
         y="40.709618"
         x="69.839508"
         height="29.810888"
         width="29.810888"
         id="rect1678"
         style="fill:none;fill-opacity:1;stroke:#000000;stroke-width:5;stroke-linecap:round;stroke-linejoin:round;stroke-miterlimit:4;stroke-dasharray:none;stroke-opacity:0.02" />
    </g>
    <rect
       ry="6.4494534"
       rx="6.4494534"
       y="2.4407227"
       x="2.4535801"
       height="29.08744"
       width="29.08744"
       id="rect1436"
       style="fill:url(#linearGradient1453);fill-opacity:1;stroke-width:2.68801;stroke-linecap:round;stroke-linejoin:round;stroke-miterlimit:4;stroke-dasharray:none" />
    <path
       d="m 4.632,5.877 c -0.304,0 -0.548,0.222 -0.548,0.498 0,0.276 0.244,0.498 0.548,0.498 h 7.67 c 0.303,0 0.547,-0.222 0.547,-0.498 0,-0.276 -0.244,-0.498 -0.548,-0.498 z M 4.627,8.068 c -0.3,0 -0.543,0.222 -0.543,0.498 0,0.276 0.242,0.498 0.543,0.498 h 4.89 c 0.3,0 0.543,-0.222 0.543,-0.498 0,-0.276 -0.242,-0.498 -0.543,-0.498 z m -0.002,2.191 c -0.3,0 -0.54,0.222 -0.54,0.498 0,0.276 0.24,0.498 0.54,0.498 h 2.703 c 0.3,0 0.54,-0.222 0.54,-0.498 0,-0.276 -0.24,-0.498 -0.54,-0.498 z"
       filter="url(#d)"
       opacity="0.15"
       id="path34"
       transform="matrix(2.2712518,0,0,2.2712518,-1.2305721,-1.4801998)" />
    <path
       style="fill:url(#linearGradient1481);fill-opacity:1;stroke-width:2.68801;stroke-linecap:round;stroke-linejoin:round;stroke-miterlimit:4;stroke-dasharray:none"
       d="m 16.9973,2.4407227 h 8.094266 c 3.572997,0 6.449454,2.8764561 6.449454,6.4494535 V 25.078708 c 0,3.572998 -2.876457,6.449455 -6.449454,6.449455 H 8.9030338 c -3.5729971,0 -6.4494532,-2.876457 -6.4494532,-6.449455 V 16.984442 C 3.8942853,10.532737 8.59362,3.3557286 16.9973,2.4407227 Z"
       id="rect1441"
       inkscape:connector-curvature="0"
       sodipodi:nodetypes="csssssscc" />
    <path
       fill="#4f4f4f"
       d="m 9.289867,11.415968 c -0.6904606,0 -1.2446466,0.504217 -1.2446466,1.131083 0,0.626865 0.554186,1.131084 1.2446466,1.131084 h 17.420501 c 0.688189,0 1.242373,-0.504219 1.242373,-1.131084 0,-0.626866 -0.554184,-1.131083 -1.244645,-1.131083 z m -0.01136,4.974041 c -0.6813736,0 -1.2332876,0.50649 -1.2332876,1.133355 0,0.626864 0.549643,1.131084 1.2332876,1.131084 h 11.106422 c 0.681376,0 1.233289,-0.50422 1.233289,-1.131084 0,-0.626865 -0.549642,-1.131084 -1.233289,-1.131084 z m -0.0045,4.978583 c -0.6813726,0 -1.2264736,0.50422 -1.2264736,1.131084 0,0.626867 0.545101,1.131084 1.2264736,1.131084 h 6.139196 c 0.681375,0 1.226474,-0.504217 1.226474,-1.131084 0,-0.626864 -0.545099,-1.131084 -1.226474,-1.131084 z"
       id="path36"
       style="stroke-width:2.27125" />
    <path
       sodipodi:nodetypes="csssssscc"
       inkscape:connector-curvature="0"
       id="path1465"
       d="m 16.9973,2.4407227 h 8.094266 c 3.572997,0 6.449454,2.8764561 6.449454,6.4494535 V 25.078708 c 0,3.572998 -2.876457,6.449455 -6.449454,6.449455 H 8.9030338 c -3.5729971,0 -6.4494532,-2.876457 -6.4494532,-6.449455 V 16.984442 C 3.8942853,10.532737 8.59362,3.3557286 16.9973,2.4407227 Z"
       style="fill:url(#radialGradient1473);fill-opacity:1;stroke-width:2.68801;stroke-linecap:round;stroke-linejoin:round;stroke-miterlimit:4;stroke-dasharray:none" />
    <path
       style="fill:url(#radialGradient1463);fill-opacity:1;stroke-width:2.68801;stroke-linecap:round;stroke-linejoin:round;stroke-miterlimit:4;stroke-dasharray:none"
       d="M 8.8568259,11.867947 C 5.8256984,11.953027 3.2110587,13.139362 2.4535806,16.984442 3.9604724,9.6740564 9.0840456,3.3951029 16.9973,2.4407227 12.818869,2.8709543 11.862072,5.8525251 12.107233,8.6214844 12.130853,10.871565 10.965166,11.773452 8.8568259,11.867947 Z"
       id="rect849"
       inkscape:connector-curvature="0"
       sodipodi:nodetypes="ccccc" />
  </g>
</svg>
