<?xml version="1.0" encoding="UTF-8" standalone="no"?>
<svg
   width="128"
   height="128"
   viewBox="0 0 33.866666 33.866668"
   version="1.1"
   id="svg2547"
   inkscape:version="1.1.2 (0a00cf5339, 2022-02-04)"
   sodipodi:docname="swatchbooker.svg"
   xmlns:inkscape="http://www.inkscape.org/namespaces/inkscape"
   xmlns:sodipodi="http://sodipodi.sourceforge.net/DTD/sodipodi-0.dtd"
   xmlns:xlink="http://www.w3.org/1999/xlink"
   xmlns="http://www.w3.org/2000/svg"
   xmlns:svg="http://www.w3.org/2000/svg"
   xmlns:rdf="http://www.w3.org/1999/02/22-rdf-syntax-ns#"
   xmlns:cc="http://creativecommons.org/ns#"
   xmlns:dc="http://purl.org/dc/elements/1.1/">
  <defs
     id="defs2541">
    <linearGradient
       inkscape:collect="always"
       xlink:href="#linearGradient934"
       id="linearGradient936"
       x1="-27.205925"
       y1="-1.3796136"
       x2="-27.205925"
       y2="25.267708"
       gradientUnits="userSpaceOnUse"
       gradientTransform="translate(43.841853,5.63249)" />
    <linearGradient
       inkscape:collect="always"
       id="linearGradient934">
      <stop
         style="stop-color:#f5f9fb;stop-opacity:1"
         offset="0"
         id="stop930" />
      <stop
         style="stop-color:#f5eeec;stop-opacity:1"
         offset="1"
         id="stop932" />
    </linearGradient>
    <linearGradient
       id="b"
       x1="32"
       x2="32"
       y1="48"
       y2="22"
       gradientTransform="matrix(0.51392977,0,0,0.51392977,0.8488955,0.28621556)"
       gradientUnits="userSpaceOnUse">
      <stop
         offset="0"
         stop-color="#425576"
         id="stop17" />
      <stop
         offset="1"
         stop-color="#5a7da5"
         id="stop19" />
    </linearGradient>
    <linearGradient
       id="c"
       x1="32"
       x2="32"
       y1="44"
       y2="18"
       gradientTransform="matrix(0.51392977,0,0,0.51392977,0.8488955,0.14161106)"
       gradientUnits="userSpaceOnUse">
      <stop
         offset="0"
         stop-color="#ff8652"
         id="stop12" />
      <stop
         offset="1"
         stop-color="#ffc55c"
         id="stop14" />
    </linearGradient>
    <linearGradient
       id="d"
       x1="32"
       x2="32"
       y1="39"
       y2="18"
       gradientTransform="matrix(0.51392977,0,0,0.51392977,0.8488955,0.01281406)"
       gradientUnits="userSpaceOnUse">
      <stop
         offset="0"
         stop-color="#5486d4"
         id="stop7" />
      <stop
         offset="1"
         stop-color="#78c7e3"
         id="stop9" />
    </linearGradient>
  </defs>
  <sodipodi:namedview
     id="base"
     pagecolor="#ffffff"
     bordercolor="#666666"
     borderopacity="1.0"
     inkscape:pageopacity="0.0"
     inkscape:pageshadow="2"
     inkscape:zoom="2.8"
     inkscape:cx="64.285713"
     inkscape:cy="62.499999"
     inkscape:document-units="mm"
     inkscape:current-layer="layer1"
     inkscape:document-rotation="0"
     showgrid="false"
     units="px"
     inkscape:window-width="1514"
     inkscape:window-height="941"
     inkscape:window-x="50"
     inkscape:window-y="27"
     inkscape:window-maximized="0"
     inkscape:pagecheckerboard="0" />
  <metadata
     id="metadata2544">
    <rdf:RDF>
      <cc:Work
         rdf:about="">
        <dc:format>image/svg+xml</dc:format>
        <dc:type
           rdf:resource="http://purl.org/dc/dcmitype/StillImage" />
      </cc:Work>
    </rdf:RDF>
  </metadata>
  <g
     inkscape:label="Capa 1"
     inkscape:groupmode="layer"
     id="layer1">
    <g
       id="g1702"
       transform="matrix(0.97573206,0,0,0.97573206,-65.777323,-37.255828)"
       style="opacity:0.296765">
      <rect
         style="fill:none;fill-opacity:1;stroke:#000000;stroke-width:0.1;stroke-linecap:round;stroke-linejoin:round;stroke-miterlimit:4;stroke-dasharray:none;stroke-opacity:0.02"
         id="rect1634"
         width="29.810888"
         height="29.810888"
         x="69.839508"
         y="40.709618"
         rx="6.6098609"
         ry="6.6098609" />
      <rect
         ry="6.6098609"
         rx="6.6098609"
         y="40.709618"
         x="69.839508"
         height="29.810888"
         width="29.810888"
         id="rect1638"
         style="fill:none;fill-opacity:1;stroke:#000000;stroke-width:0.2;stroke-linecap:round;stroke-linejoin:round;stroke-miterlimit:4;stroke-dasharray:none;stroke-opacity:0.02" />
      <rect
         style="fill:none;fill-opacity:1;stroke:#000000;stroke-width:0.3;stroke-linecap:round;stroke-linejoin:round;stroke-miterlimit:4;stroke-dasharray:none;stroke-opacity:0.02"
         id="rect1640"
         width="29.810888"
         height="29.810888"
         x="69.839508"
         y="40.709618"
         rx="6.6098609"
         ry="6.6098609" />
      <rect
         ry="6.6098609"
         rx="6.6098609"
         y="40.709618"
         x="69.839508"
         height="29.810888"
         width="29.810888"
         id="rect1642"
         style="fill:none;fill-opacity:1;stroke:#000000;stroke-width:0.4;stroke-linecap:round;stroke-linejoin:round;stroke-miterlimit:4;stroke-dasharray:none;stroke-opacity:0.02" />
      <rect
         style="fill:none;fill-opacity:1;stroke:#000000;stroke-width:0.5;stroke-linecap:round;stroke-linejoin:round;stroke-miterlimit:4;stroke-dasharray:none;stroke-opacity:0.02"
         id="rect1644"
         width="29.810888"
         height="29.810888"
         x="69.839508"
         y="40.709618"
         rx="6.6098609"
         ry="6.6098609" />
      <rect
         ry="6.6098609"
         rx="6.6098609"
         y="40.709618"
         x="69.839508"
         height="29.810888"
         width="29.810888"
         id="rect1646"
         style="fill:none;fill-opacity:1;stroke:#000000;stroke-width:0.6;stroke-linecap:round;stroke-linejoin:round;stroke-miterlimit:4;stroke-dasharray:none;stroke-opacity:0.02" />
      <rect
         style="fill:none;fill-opacity:1;stroke:#000000;stroke-width:0.7;stroke-linecap:round;stroke-linejoin:round;stroke-miterlimit:4;stroke-dasharray:none;stroke-opacity:0.02"
         id="rect1648"
         width="29.810888"
         height="29.810888"
         x="69.839508"
         y="40.709618"
         rx="6.6098609"
         ry="6.6098609" />
      <rect
         ry="6.6098609"
         rx="6.6098609"
         y="40.709618"
         x="69.839508"
         height="29.810888"
         width="29.810888"
         id="rect1650"
         style="fill:none;fill-opacity:1;stroke:#000000;stroke-width:0.8;stroke-linecap:round;stroke-linejoin:round;stroke-miterlimit:4;stroke-dasharray:none;stroke-opacity:0.02" />
      <rect
         style="fill:none;fill-opacity:1;stroke:#000000;stroke-width:1;stroke-linecap:round;stroke-linejoin:round;stroke-miterlimit:4;stroke-dasharray:none;stroke-opacity:0.02"
         id="rect1652"
         width="29.810888"
         height="29.810888"
         x="69.839508"
         y="40.709618"
         rx="6.6098609"
         ry="6.6098609" />
      <rect
         ry="6.6098609"
         rx="6.6098609"
         y="40.709618"
         x="69.839508"
         height="29.810888"
         width="29.810888"
         id="rect1654"
         style="fill:none;fill-opacity:1;stroke:#000000;stroke-width:1.2;stroke-linecap:round;stroke-linejoin:round;stroke-miterlimit:4;stroke-dasharray:none;stroke-opacity:0.02" />
      <rect
         style="fill:none;fill-opacity:1;stroke:#000000;stroke-width:1.4;stroke-linecap:round;stroke-linejoin:round;stroke-miterlimit:4;stroke-dasharray:none;stroke-opacity:0.02"
         id="rect1656"
         width="29.810888"
         height="29.810888"
         x="69.839508"
         y="40.709618"
         rx="6.6098609"
         ry="6.6098609" />
      <rect
         ry="6.6098609"
         rx="6.6098609"
         y="40.709618"
         x="69.839508"
         height="29.810888"
         width="29.810888"
         id="rect1658"
         style="fill:none;fill-opacity:1;stroke:#000000;stroke-width:1.6;stroke-linecap:round;stroke-linejoin:round;stroke-miterlimit:4;stroke-dasharray:none;stroke-opacity:0.02" />
      <rect
         style="fill:none;fill-opacity:1;stroke:#000000;stroke-width:1.8;stroke-linecap:round;stroke-linejoin:round;stroke-miterlimit:4;stroke-dasharray:none;stroke-opacity:0.02"
         id="rect1660"
         width="29.810888"
         height="29.810888"
         x="69.839508"
         y="40.709618"
         rx="6.6098609"
         ry="6.6098609" />
      <rect
         ry="6.6098609"
         rx="6.6098609"
         y="40.709618"
         x="69.839508"
         height="29.810888"
         width="29.810888"
         id="rect1662"
         style="fill:none;fill-opacity:1;stroke:#000000;stroke-width:2;stroke-linecap:round;stroke-linejoin:round;stroke-miterlimit:4;stroke-dasharray:none;stroke-opacity:0.02" />
      <rect
         style="fill:none;fill-opacity:1;stroke:#000000;stroke-width:2.2;stroke-linecap:round;stroke-linejoin:round;stroke-miterlimit:4;stroke-dasharray:none;stroke-opacity:0.02"
         id="rect1664"
         width="29.810888"
         height="29.810888"
         x="69.839508"
         y="40.709618"
         rx="6.6098609"
         ry="6.6098609" />
      <rect
         ry="6.6098609"
         rx="6.6098609"
         y="40.709618"
         x="69.839508"
         height="29.810888"
         width="29.810888"
         id="rect1666"
         style="fill:none;fill-opacity:1;stroke:#000000;stroke-width:2.6;stroke-linecap:round;stroke-linejoin:round;stroke-miterlimit:4;stroke-dasharray:none;stroke-opacity:0.02" />
      <rect
         style="fill:none;fill-opacity:1;stroke:#000000;stroke-width:3;stroke-linecap:round;stroke-linejoin:round;stroke-miterlimit:4;stroke-dasharray:none;stroke-opacity:0.02"
         id="rect1668"
         width="29.810888"
         height="29.810888"
         x="69.839508"
         y="40.709618"
         rx="6.6098609"
         ry="6.6098609" />
      <rect
         ry="6.6098609"
         rx="6.6098609"
         y="40.709618"
         x="69.839508"
         height="29.810888"
         width="29.810888"
         id="rect1670"
         style="fill:none;fill-opacity:1;stroke:#000000;stroke-width:3.4;stroke-linecap:round;stroke-linejoin:round;stroke-miterlimit:4;stroke-dasharray:none;stroke-opacity:0.02" />
      <rect
         style="fill:none;fill-opacity:1;stroke:#000000;stroke-width:3.8;stroke-linecap:round;stroke-linejoin:round;stroke-miterlimit:4;stroke-dasharray:none;stroke-opacity:0.02"
         id="rect1672"
         width="29.810888"
         height="29.810888"
         x="69.839508"
         y="40.709618"
         rx="6.6098609"
         ry="6.6098609" />
      <rect
         ry="6.6098609"
         rx="6.6098609"
         y="40.709618"
         x="69.839508"
         height="29.810888"
         width="29.810888"
         id="rect1674"
         style="fill:none;fill-opacity:1;stroke:#000000;stroke-width:4.2;stroke-linecap:round;stroke-linejoin:round;stroke-miterlimit:4;stroke-dasharray:none;stroke-opacity:0.02" />
      <rect
         style="fill:none;fill-opacity:1;stroke:#000000;stroke-width:4.6;stroke-linecap:round;stroke-linejoin:round;stroke-miterlimit:4;stroke-dasharray:none;stroke-opacity:0.02"
         id="rect1676"
         width="29.810888"
         height="29.810888"
         x="69.839508"
         y="40.709618"
         rx="6.6098609"
         ry="6.6098609" />
      <rect
         ry="6.6098609"
         rx="6.6098609"
         y="40.709618"
         x="69.839508"
         height="29.810888"
         width="29.810888"
         id="rect1678"
         style="fill:none;fill-opacity:1;stroke:#000000;stroke-width:5;stroke-linecap:round;stroke-linejoin:round;stroke-miterlimit:4;stroke-dasharray:none;stroke-opacity:0.02" />
    </g>
    <rect
       style="fill:url(#linearGradient936);fill-opacity:1;stroke-width:2.68769;stroke-linecap:round;stroke-linejoin:round"
       id="rect849-5"
       width="29.08744"
       height="29.08744"
       x="2.3673291"
       y="2.4658532"
       rx="6.4494534"
       ry="6.4494534" />
    <path
       style="opacity:0.2;stroke-width:0.326998"
       d="m 16.964291,10.539824 c -1.040429,0.06298 -2.020316,0.62169 -2.57511,1.582619 l -5.9523841,10.3081 c -0.2893561,0.50118 -0.4101847,1.048187 -0.4087474,1.589006 h 5.2166395 v 2.64153 c 0.338862,-0.250776 0.633025,-0.57246 0.857092,-0.960557 l 5.951107,-10.308098 c 0.887669,-1.537488 0.338791,-3.504857 -1.230074,-4.410641 -0.588325,-0.33967 -1.234266,-0.479747 -1.858523,-0.441959 z"
       id="path2" />
    <path
       style="opacity:0.2;stroke-width:0.326998"
       d="m 21.741526,14.835555 c -0.618738,-0.0491 -1.255142,0.08098 -1.831699,0.413858 L 9.6017271,21.200519 C 8.5665737,21.798166 8.0127464,22.891195 8.0280495,24.0196 h 5.2166395 v 2.630034 l 9.935117,-5.736515 c 1.537488,-0.887668 2.046445,-2.864768 1.140661,-4.433632 -0.566114,-0.98054 -1.547708,-1.562096 -2.578941,-1.643932 z"
       id="path4" />
    <rect
       style="opacity:0.2;stroke-width:0.326998"
       width="18.311886"
       height="6.539959"
       x="8.012722"
       y="20.749609"
       rx="3.2045801"
       ry="3.2699795"
       id="rect6" />
    <path
       style="fill:#4f4f4f;stroke-width:0.326998"
       d="m 11.282701,8.6506854 c -1.8115686,0 -3.2699796,1.4294986 -3.2699796,3.2048346 v 11.837071 h 5.2319676 v 2.618539 c 0.790763,-0.583857 1.307992,-1.504073 1.307992,-2.553395 V 11.85552 c 0,-1.775336 -1.458412,-3.2048346 -3.26998,-3.2048346 z"
       id="path8" />
    <path
       style="opacity:0.1;fill:#ffffff;stroke-width:0.326998"
       d="m 11.282701,8.6506854 c -1.8115686,0 -3.2699796,1.4294986 -3.2699796,3.2048346 v 0.326999 c 0,-1.775337 1.458411,-3.2048361 3.2699796,-3.2048361 1.811568,0 3.26998,1.4294991 3.26998,3.2048361 V 11.85552 c 0,-1.775336 -1.458412,-3.2048346 -3.26998,-3.2048346 z"
       id="path10" />
    <path
       style="fill:#4d4e99;stroke-width:0.326998"
       d="m 16.964291,10.212868 c -1.040429,0.06298 -2.020316,0.621688 -2.57511,1.582618 L 8.4367969,22.103585 c -0.2893561,0.50118 -0.4101847,1.048188 -0.4087474,1.589006 h 5.2166395 v 2.64153 c 0.338862,-0.250776 0.633025,-0.572459 0.857092,-0.960556 l 5.951107,-10.308099 c 0.887669,-1.537488 0.338791,-3.504857 -1.230074,-4.410641 -0.588325,-0.339668 -1.234266,-0.479747 -1.858523,-0.441957 z"
       id="path12" />
    <path
       style="fill:#e74949;stroke-width:0.326998"
       d="m 21.741526,14.508547 c -0.618738,-0.0491 -1.255142,0.08098 -1.831699,0.413857 L 9.6017271,20.873512 c -1.0351534,0.597645 -1.5889807,1.690676 -1.5736776,2.819079 h 5.2166395 v 2.630035 l 9.935117,-5.736515 c 1.537488,-0.887669 2.046445,-2.864769 1.140661,-4.433632 -0.566114,-0.980541 -1.547708,-1.562095 -2.578941,-1.643932 z"
       id="path14" />
    <rect
       style="fill:#ffc255;stroke-width:0.326998"
       width="18.311886"
       height="6.539959"
       x="8.012722"
       y="20.422611"
       rx="3.2045801"
       ry="3.2699795"
       id="rect16" />
    <circle
       style="opacity:0.2;stroke-width:0.326998"
       cx="11.282701"
       cy="24.01959"
       r="1.3079917"
       id="circle18" />
    <circle
       style="fill:#ffffff;stroke-width:0.326998"
       cx="11.282701"
       cy="23.692591"
       r="1.3079917"
       id="circle20" />
    <path
       style="opacity:0.1;fill:#ffffff;stroke-width:0.326998"
       d="m 17.19932,10.207119 c -0.07855,-8.77e-4 -0.156997,0.001 -0.235029,0.0058 -1.040429,0.06298 -2.020316,0.621689 -2.57511,1.582619 l -5.9523841,10.3081 c -0.2893561,0.50118 -0.4101847,1.048187 -0.4087474,1.589005 h 0.017882 c 0.039658,-0.432284 0.1597429,-0.861692 0.3908649,-1.262008 l 5.9523846,-10.3081 c 0.554794,-0.960931 1.534681,-1.519637 2.57511,-1.582619 0.624257,-0.03779 1.270198,0.102295 1.858523,0.441958 1.007574,0.581723 1.591306,1.601517 1.647124,2.663884 C 20.52957,12.469529 19.93356,11.296175 18.822814,10.654885 18.30803,10.357675 17.749206,10.21332 17.19932,10.20718 Z"
       id="path22" />
    <path
       style="opacity:0.1;fill:#ffffff;stroke-width:0.326998"
       d="m 21.509051,14.498328 c -0.544201,-0.0035 -1.094736,0.13281 -1.599224,0.424076 L 9.6017271,20.873512 c -1.0351534,0.597645 -1.5889807,1.690676 -1.5736776,2.819079 h 0.016605 c 0.085248,-1.008692 0.6224538,-1.952479 1.5570728,-2.492082 L 19.909827,15.249402 c 0.576557,-0.332876 1.212959,-0.462959 1.831699,-0.413857 1.031233,0.08184 2.012827,0.663391 2.578941,1.643931 0.275484,0.477152 0.418615,0.992244 0.443236,1.502785 0.03191,-0.615257 -0.108759,-1.250447 -0.443236,-1.829782 -0.566114,-0.980541 -1.547708,-1.562095 -2.578941,-1.643932 -0.07734,-0.0062 -0.154732,-0.0098 -0.232475,-0.01026 z"
       id="path24" />
    <path
       style="opacity:0.1;fill:#ffffff;stroke-width:0.326998"
       d="m 11.217557,20.422612 c -1.7753375,0 -3.2048356,1.458411 -3.2048356,3.269979 0,0.05521 0.00567,0.108969 0.00831,0.163499 0.08349,-1.734488 1.4753042,-3.106481 3.1965326,-3.106481 h 11.902211 c 1.721227,0 3.113041,1.371993 3.196532,3.106481 0.0026,-0.05453 0.0083,-0.108289 0.0083,-0.163499 0,-1.811568 -1.429499,-3.269979 -3.204835,-3.269979 z"
       id="path26" />
  </g>
</svg>
