<?xml version="1.0" encoding="UTF-8" standalone="no"?>
<svg
   width="128"
   height="128"
   viewBox="0 0 33.866666 33.866668"
   version="1.1"
   id="svg1443"
   inkscape:version="1.2.2 (b0a8486541, 2022-12-01)"
   sodipodi:docname="syncplay.svg"
   xmlns:inkscape="http://www.inkscape.org/namespaces/inkscape"
   xmlns:sodipodi="http://sodipodi.sourceforge.net/DTD/sodipodi-0.dtd"
   xmlns:xlink="http://www.w3.org/1999/xlink"
   xmlns="http://www.w3.org/2000/svg"
   xmlns:svg="http://www.w3.org/2000/svg"
   xmlns:rdf="http://www.w3.org/1999/02/22-rdf-syntax-ns#"
   xmlns:cc="http://creativecommons.org/ns#"
   xmlns:dc="http://purl.org/dc/elements/1.1/">
  <defs
     id="defs1437">
    <linearGradient
       gradientTransform="matrix(0.97573206,0,0,0.97573206,-111.76517,-37.182508)"
       gradientUnits="userSpaceOnUse"
       y2="70.679932"
       x2="132.21078"
       y1="42.151531"
       x1="132.21078"
       id="linearGradient1632"
       xlink:href="#linearGradient1630"
       inkscape:collect="always" />
    <linearGradient
       id="linearGradient1630"
       inkscape:collect="always">
      <stop
         id="stop1626"
         offset="0"
         style="stop-color:#fafafc;stop-opacity:1" />
      <stop
         id="stop1628"
         offset="1"
         style="stop-color:#e2e6ea;stop-opacity:1" />
    </linearGradient>
    <filter
       color-interpolation-filters="sRGB"
       height="1.1311001"
       width="1.1106"
       y="-0.065563001"
       x="-0.055319"
       id="c-9">
      <feGaussianBlur
         id="feGaussianBlur1093"
         stdDeviation="1.1062912" />
    </filter>
    <linearGradient
       gradientUnits="userSpaceOnUse"
       gradientTransform="matrix(0.13235,0,0,0.13075,-32.379,1.0873)"
       y2="269.48999"
       y1="235.14999"
       x2="657.65002"
       x1="319.20999"
       id="a-12">
      <stop
         id="stop1076"
         offset="0"
         stop-color="#e54c18" />
      <stop
         id="stop1078"
         offset="1"
         stop-color="#fec350" />
    </linearGradient>
  </defs>
  <sodipodi:namedview
     id="base"
     pagecolor="#ffffff"
     bordercolor="#666666"
     borderopacity="1.0"
     inkscape:pageopacity="0.0"
     inkscape:pageshadow="2"
     inkscape:zoom="3.959798"
     inkscape:cx="105.56094"
     inkscape:cy="46.214479"
     inkscape:document-units="mm"
     inkscape:current-layer="layer1"
     inkscape:document-rotation="0"
     showgrid="false"
     units="px"
     inkscape:window-width="1920"
     inkscape:window-height="1024"
     inkscape:window-x="0"
     inkscape:window-y="0"
     inkscape:window-maximized="1"
     inkscape:pagecheckerboard="0"
     inkscape:lockguides="true"
     inkscape:showpageshadow="2"
     inkscape:deskcolor="#d1d1d1" />
  <metadata
     id="metadata1440">
    <rdf:RDF>
      <cc:Work
         rdf:about="">
        <dc:format>image/svg+xml</dc:format>
        <dc:type
           rdf:resource="http://purl.org/dc/dcmitype/StillImage" />
      </cc:Work>
    </rdf:RDF>
  </metadata>
  <g
     inkscape:label="Capa 1"
     inkscape:groupmode="layer"
     id="layer1">
    <g
       style="opacity:0.295"
       transform="matrix(0.97573206,0,0,0.97573206,-65.737228,-37.182508)"
       id="g1702">
      <rect
         ry="6.6098609"
         rx="6.6098609"
         y="40.709618"
         x="69.839508"
         height="29.810888"
         width="29.810888"
         id="rect1634"
         style="fill:none;fill-opacity:1;stroke:#000000;stroke-width:0.1;stroke-linecap:round;stroke-linejoin:round;stroke-miterlimit:4;stroke-dasharray:none;stroke-opacity:0.02" />
      <rect
         style="fill:none;fill-opacity:1;stroke:#000000;stroke-width:0.2;stroke-linecap:round;stroke-linejoin:round;stroke-miterlimit:4;stroke-dasharray:none;stroke-opacity:0.02"
         id="rect1638"
         width="29.810888"
         height="29.810888"
         x="69.839508"
         y="40.709618"
         rx="6.6098609"
         ry="6.6098609" />
      <rect
         ry="6.6098609"
         rx="6.6098609"
         y="40.709618"
         x="69.839508"
         height="29.810888"
         width="29.810888"
         id="rect1640"
         style="fill:none;fill-opacity:1;stroke:#000000;stroke-width:0.3;stroke-linecap:round;stroke-linejoin:round;stroke-miterlimit:4;stroke-dasharray:none;stroke-opacity:0.02" />
      <rect
         style="fill:none;fill-opacity:1;stroke:#000000;stroke-width:0.4;stroke-linecap:round;stroke-linejoin:round;stroke-miterlimit:4;stroke-dasharray:none;stroke-opacity:0.02"
         id="rect1642"
         width="29.810888"
         height="29.810888"
         x="69.839508"
         y="40.709618"
         rx="6.6098609"
         ry="6.6098609" />
      <rect
         ry="6.6098609"
         rx="6.6098609"
         y="40.709618"
         x="69.839508"
         height="29.810888"
         width="29.810888"
         id="rect1644"
         style="fill:none;fill-opacity:1;stroke:#000000;stroke-width:0.5;stroke-linecap:round;stroke-linejoin:round;stroke-miterlimit:4;stroke-dasharray:none;stroke-opacity:0.02" />
      <rect
         style="fill:none;fill-opacity:1;stroke:#000000;stroke-width:0.6;stroke-linecap:round;stroke-linejoin:round;stroke-miterlimit:4;stroke-dasharray:none;stroke-opacity:0.02"
         id="rect1646"
         width="29.810888"
         height="29.810888"
         x="69.839508"
         y="40.709618"
         rx="6.6098609"
         ry="6.6098609" />
      <rect
         ry="6.6098609"
         rx="6.6098609"
         y="40.709618"
         x="69.839508"
         height="29.810888"
         width="29.810888"
         id="rect1648"
         style="fill:none;fill-opacity:1;stroke:#000000;stroke-width:0.7;stroke-linecap:round;stroke-linejoin:round;stroke-miterlimit:4;stroke-dasharray:none;stroke-opacity:0.02" />
      <rect
         style="fill:none;fill-opacity:1;stroke:#000000;stroke-width:0.8;stroke-linecap:round;stroke-linejoin:round;stroke-miterlimit:4;stroke-dasharray:none;stroke-opacity:0.02"
         id="rect1650"
         width="29.810888"
         height="29.810888"
         x="69.839508"
         y="40.709618"
         rx="6.6098609"
         ry="6.6098609" />
      <rect
         ry="6.6098609"
         rx="6.6098609"
         y="40.709618"
         x="69.839508"
         height="29.810888"
         width="29.810888"
         id="rect1652"
         style="fill:none;fill-opacity:1;stroke:#000000;stroke-width:1;stroke-linecap:round;stroke-linejoin:round;stroke-miterlimit:4;stroke-dasharray:none;stroke-opacity:0.02" />
      <rect
         style="fill:none;fill-opacity:1;stroke:#000000;stroke-width:1.2;stroke-linecap:round;stroke-linejoin:round;stroke-miterlimit:4;stroke-dasharray:none;stroke-opacity:0.02"
         id="rect1654"
         width="29.810888"
         height="29.810888"
         x="69.839508"
         y="40.709618"
         rx="6.6098609"
         ry="6.6098609" />
      <rect
         ry="6.6098609"
         rx="6.6098609"
         y="40.709618"
         x="69.839508"
         height="29.810888"
         width="29.810888"
         id="rect1656"
         style="fill:none;fill-opacity:1;stroke:#000000;stroke-width:1.4;stroke-linecap:round;stroke-linejoin:round;stroke-miterlimit:4;stroke-dasharray:none;stroke-opacity:0.02" />
      <rect
         style="fill:none;fill-opacity:1;stroke:#000000;stroke-width:1.6;stroke-linecap:round;stroke-linejoin:round;stroke-miterlimit:4;stroke-dasharray:none;stroke-opacity:0.02"
         id="rect1658"
         width="29.810888"
         height="29.810888"
         x="69.839508"
         y="40.709618"
         rx="6.6098609"
         ry="6.6098609" />
      <rect
         ry="6.6098609"
         rx="6.6098609"
         y="40.709618"
         x="69.839508"
         height="29.810888"
         width="29.810888"
         id="rect1660"
         style="fill:none;fill-opacity:1;stroke:#000000;stroke-width:1.8;stroke-linecap:round;stroke-linejoin:round;stroke-miterlimit:4;stroke-dasharray:none;stroke-opacity:0.02" />
      <rect
         style="fill:none;fill-opacity:1;stroke:#000000;stroke-width:2;stroke-linecap:round;stroke-linejoin:round;stroke-miterlimit:4;stroke-dasharray:none;stroke-opacity:0.02"
         id="rect1662"
         width="29.810888"
         height="29.810888"
         x="69.839508"
         y="40.709618"
         rx="6.6098609"
         ry="6.6098609" />
      <rect
         ry="6.6098609"
         rx="6.6098609"
         y="40.709618"
         x="69.839508"
         height="29.810888"
         width="29.810888"
         id="rect1664"
         style="fill:none;fill-opacity:1;stroke:#000000;stroke-width:2.2;stroke-linecap:round;stroke-linejoin:round;stroke-miterlimit:4;stroke-dasharray:none;stroke-opacity:0.02" />
      <rect
         style="fill:none;fill-opacity:1;stroke:#000000;stroke-width:2.6;stroke-linecap:round;stroke-linejoin:round;stroke-miterlimit:4;stroke-dasharray:none;stroke-opacity:0.02"
         id="rect1666"
         width="29.810888"
         height="29.810888"
         x="69.839508"
         y="40.709618"
         rx="6.6098609"
         ry="6.6098609" />
      <rect
         ry="6.6098609"
         rx="6.6098609"
         y="40.709618"
         x="69.839508"
         height="29.810888"
         width="29.810888"
         id="rect1668"
         style="fill:none;fill-opacity:1;stroke:#000000;stroke-width:3;stroke-linecap:round;stroke-linejoin:round;stroke-miterlimit:4;stroke-dasharray:none;stroke-opacity:0.02" />
      <rect
         style="fill:none;fill-opacity:1;stroke:#000000;stroke-width:3.4;stroke-linecap:round;stroke-linejoin:round;stroke-miterlimit:4;stroke-dasharray:none;stroke-opacity:0.02"
         id="rect1670"
         width="29.810888"
         height="29.810888"
         x="69.839508"
         y="40.709618"
         rx="6.6098609"
         ry="6.6098609" />
      <rect
         ry="6.6098609"
         rx="6.6098609"
         y="40.709618"
         x="69.839508"
         height="29.810888"
         width="29.810888"
         id="rect1672"
         style="fill:none;fill-opacity:1;stroke:#000000;stroke-width:3.8;stroke-linecap:round;stroke-linejoin:round;stroke-miterlimit:4;stroke-dasharray:none;stroke-opacity:0.02" />
      <rect
         style="fill:none;fill-opacity:1;stroke:#000000;stroke-width:4.2;stroke-linecap:round;stroke-linejoin:round;stroke-miterlimit:4;stroke-dasharray:none;stroke-opacity:0.02"
         id="rect1674"
         width="29.810888"
         height="29.810888"
         x="69.839508"
         y="40.709618"
         rx="6.6098609"
         ry="6.6098609" />
      <rect
         ry="6.6098609"
         rx="6.6098609"
         y="40.709618"
         x="69.839508"
         height="29.810888"
         width="29.810888"
         id="rect1676"
         style="fill:none;fill-opacity:1;stroke:#000000;stroke-width:4.6;stroke-linecap:round;stroke-linejoin:round;stroke-miterlimit:4;stroke-dasharray:none;stroke-opacity:0.02" />
      <rect
         style="fill:none;fill-opacity:1;stroke:#000000;stroke-width:5;stroke-linecap:round;stroke-linejoin:round;stroke-miterlimit:4;stroke-dasharray:none;stroke-opacity:0.02"
         id="rect1678"
         width="29.810888"
         height="29.810888"
         x="69.839508"
         y="40.709618"
         rx="6.6098609"
         ry="6.6098609" />
    </g>
    <rect
       ry="6.4494534"
       rx="6.4494534"
       y="2.5391712"
       x="2.4074187"
       height="29.087439"
       width="29.087439"
       id="rect849"
       style="fill:url(#linearGradient1632);fill-opacity:1;stroke-width:2.68768;stroke-linecap:round;stroke-linejoin:round" />
    <path
       style="opacity:0.2;stroke-width:0.392229"
       d="m 27.472129,6.3150577 c -0.46282,-0.00187 -1.337962,0.090271 -2.319647,0.2344163 -0.06251,0.0092 -0.120273,0.029282 -0.180792,0.042896 -1.14637,0.1705184 -2.386981,0.3915647 -3.314002,0.6297065 -0.272406,0.069977 -0.542387,0.1422995 -0.808965,0.2175635 -0.19911,0.056216 -0.381944,0.1201397 -0.574549,0.1792588 -0.177559,0.053549 -0.35377,0.1080323 -0.528586,0.1639366 -0.114486,0.037882 -0.231073,0.074431 -0.343198,0.1133793 -0.83232,0.2764533 -1.63328,0.5795732 -2.399319,0.9085532 v -0.00453 c -0.04123,0.017721 -0.08,0.037282 -0.121046,0.055163 -0.06754,0.029388 -0.138297,0.056016 -0.205306,0.085805 -0.09738,0.043269 -0.182844,0.089458 -0.277316,0.1333003 C 11.421629,11.356648 7.9678265,14.74937 6.6060172,18.847978 6.2481461,19.92505 6.0224499,21.21459 5.951797,22.304466 c -0.00596,0.03211 -0.018084,0.06536 -0.019918,0.09653 -0.00424,0.07196 0.00119,0.127846 -0.00153,0.197645 -0.00141,0.03621 -0.00665,0.07778 -0.00767,0.113379 l 0.00767,-0.0031 c -0.01558,0.569651 0.00984,1.07675 0.1087817,1.401901 0.3454989,1.135521 1.1056918,2.003543 2.3043258,2.661313 0.03098,0.01843 0.04694,0.03852 0.08121,0.05668 0.346958,0.183833 0.729609,0.350893 1.150631,0.501005 1.0250315,0.365469 2.5169315,0.653711 4.0524875,0.818158 0.06647,0.0112 0.115353,0.02913 0.191517,0.03676 0.309935,0.03112 0.621083,0.0575 0.930003,0.07662 1.008319,0.06244 3.457095,-0.03728 4.263924,-0.17313 2.900454,-0.488352 5.246868,-1.794828 6.726058,-3.746063 1.082915,-1.428495 1.759353,-3.368227 1.325295,-3.801217 -0.154313,-0.153935 -0.325541,-0.09326 -0.597531,0.212965 -0.578977,0.651861 -1.708812,1.379493 -2.739453,1.809448 -0.666945,0.268778 -1.907312,0.480782 -2.599638,0.386097 l 0.202243,-0.704783 0.456575,-0.617449 c 0.156608,-0.0088 0.554271,-0.02105 0.722776,-0.03676 1.281538,-0.119553 2.772308,-1.371321 3.53616,-2.439153 0.883965,-1.235745 1.50176,-3.048869 1.527535,-4.479953 0.0116,-0.638895 -0.01349,-0.818961 -0.130233,-0.936135 -0.03391,-0.034 -0.06139,-0.05759 -0.08886,-0.06895 -0.08241,-0.03408 -0.165299,0.04898 -0.4244,0.344729 -1.305422,1.449193 -3.269236,2.884948 -4.840004,3.735339 l -0.804374,-0.501018 0.277318,-0.720103 c 0.717202,-0.418883 1.656226,-1.000562 2.324242,-1.457056 0.03306,-0.0228 0.06383,-0.04871 0.09652,-0.07202 6.67e-4,-0.0019 8.63e-4,-0.0041 0.0016,-0.0061 2.217047,-1.583324 3.573614,-4.337856 3.867103,-7.8843521 0.04931,-0.5959088 0.03738,-0.7168912 -0.07507,-0.7599361 -0.05454,-0.020868 -0.158818,-0.030015 -0.304896,-0.030642 z"
       id="path323" />
    <path
       style="fill:#d81b60;stroke-width:0.392229"
       d="M 27.471408,5.922745 C 27.008588,5.920875 26.134336,6.013563 25.15265,6.1577081 23.965421,6.3320306 23.149986,7.3507749 22.186216,7.5983533 14.372527,9.6055724 9.0793185,13.035886 7.2787555,18.454916 c -0.601588,1.810549 -0.3858,3.842881 -0.08544,4.830005 0.452686,1.487775 2.65262,2.287077 4.5939405,2.979226 1.06833,0.380898 0.428217,1.367411 2.031971,1.52843 0.309934,0.03112 0.621063,0.05655 0.929986,0.07568 1.008319,0.06244 3.4575,-0.03683 4.26433,-0.172671 2.900455,-0.488352 5.246569,-1.79501 6.725759,-3.746245 1.082913,-1.428496 1.75969,-3.367952 1.325631,-3.800942 -0.154312,-0.153935 -0.326473,-0.0928 -0.598465,0.213427 -0.578977,0.651861 -1.708261,1.379586 -2.738902,1.80954 -0.666947,0.268779 -1.671449,0.479848 -2.363775,0.385162 l 0.202302,-0.703842 0.45602,-0.617242 c 0.156608,-0.0088 0.318952,-0.02091 0.487457,-0.03662 1.281538,-0.119553 2.771546,-1.371481 3.535399,-2.439314 0.883965,-1.235744 1.502563,-3.04875 1.528337,-4.479835 0.0116,-0.638895 -0.01408,-0.81912 -0.130833,-0.936295 -0.03391,-0.034 -0.06155,-0.05835 -0.08902,-0.06972 -0.08241,-0.03408 -0.164542,0.0496 -0.423645,0.345346 -1.305422,1.449192 -3.268888,2.88431 -4.839655,3.734702 L 21.284882,16.852904 21.5634,16.133496 c 0.717202,-0.418885 1.655658,-1.001582 2.323676,-1.458077 2.277918,-1.570858 3.667111,-4.361382 3.965098,-7.9622463 0.04931,-0.5959088 0.03736,-0.7162844 -0.07508,-0.7593307 C 27.722554,5.932974 27.617503,5.92336 27.471426,5.922747 Z"
       id="path325" />
    <path
       style="fill:#fd5450;stroke-width:0.392229"
       d="m 25.462274,6.1222302 c -1.263948,0.1744425 -2.747203,0.4349816 -3.805232,0.7067786 -0.272408,0.069977 -0.541928,0.1426248 -0.808506,0.2178888 -7.37977,2.0836431 -10.245255,6.1779144 -11.9830175,11.4080184 -0.601578,1.810549 -1.347467,4.323722 -1.04712,5.310845 0.354501,1.165111 -0.647318,2.007355 0.605516,2.671158 0.346957,0.183835 0.730386,0.350293 1.151407,0.500405 1.1732225,0.418305 2.9537295,0.746022 4.7168575,0.889103 3.895908,-2.864096 6.730637,-6.549486 8.664995,-10.981122 -0.291813,0.180892 -0.582713,0.354101 -0.867654,0.508365 l -0.804374,-0.500858 0.277776,-0.719648 c 0.717191,-0.418884 1.655841,-1.001246 2.323849,-1.45774 0.03305,-0.0228 0.06383,-0.04855 0.09652,-0.07186 0.93593,-2.731748 1.435057,-5.5940397 1.47898,-8.4813358 z"
       id="path327" />
    <path
       style="fill:#ff9e21;stroke-width:0.392229"
       d="m 21.193721,6.9587809 c -1.614126,0.4382231 -3.123468,0.9712365 -4.516375,1.5902505 -5.132514,2.2809126 -6.183748,5.3448066 -7.5714065,9.5212126 -0.366305,1.102452 -3.1082075,2.83226 -3.1732952,3.938638 -0.041805,0.710617 -0.010827,1.322738 0.1066429,1.708795 0.3740719,1.22943 1.2275373,2.149682 2.6051043,2.823894 C 16.223918,22.946087 21.093505,15.347266 21.193721,6.9587809 Z"
       id="path329" />
    <path
       style="fill:#fdd835;stroke-width:0.392229"
       d="M 17.003461,8.4077293 C 11.697834,10.687751 8.0222585,14.191129 6.6055669,18.454916 6.2032485,19.66576 5.956289,21.160657 5.9234565,22.319136 A 16.473611,16.473611 0 0 0 17.003461,8.4077293 Z"
       id="path331" />
    <path
       style="opacity:0.2;stroke-width:0.392229"
       d="m 16.112896,13.375676 a 6.2756126,6.2756126 0 0 0 -6.2756595,6.27566 6.2756126,6.2756126 0 0 0 6.2756595,6.275662 6.2756126,6.2756126 0 0 0 6.275663,-6.275662 6.2756126,6.2756126 0 0 0 -6.275663,-6.27566 z m 0,1.176686 a 5.0989745,5.0989745 0 0 1 5.098976,5.098974 5.0989745,5.0989745 0 0 1 -5.098976,5.098974 5.0989745,5.0989745 0 0 1 -5.098974,-5.098974 5.0989745,5.0989745 0 0 1 5.098974,-5.098974 z"
       id="path333" />
    <path
       style="fill:#ffffff;stroke-width:0.392229"
       d="m 16.112896,12.983446 a 6.2756126,6.2756126 0 0 0 -6.2756595,6.275663 6.2756126,6.2756126 0 0 0 6.2756595,6.27566 6.2756126,6.2756126 0 0 0 6.275663,-6.27566 6.2756126,6.2756126 0 0 0 -6.275663,-6.275663 z m 0,1.176686 a 5.0989745,5.0989745 0 0 1 5.098976,5.098977 5.0989745,5.0989745 0 0 1 -5.098976,5.098974 5.0989745,5.0989745 0 0 1 -5.098974,-5.098974 5.0989745,5.0989745 0 0 1 5.098974,-5.098977 z"
       id="path335" />
    <path
       style="opacity:0.2;stroke-width:0.392229"
       d="m 14.261779,16.51369 a 0.4907768,0.49769028 0 0 0 -0.502231,0.496862 v 2.640604 2.640605 a 0.4907768,0.49769028 0 0 0 0.736092,0.43077 l 2.255049,-1.320302 2.255046,-1.320301 a 0.4907768,0.49769028 0 0 0 0,-0.861541 L 16.750689,17.900085 14.49564,16.579781 a 0.4907768,0.49769028 0 0 0 -0.233861,-0.0661 z"
       id="path337" />
    <path
       style="fill:#ffffff;stroke-width:0.392229"
       d="m 14.261779,16.120718 a 0.4907768,0.49769028 0 0 0 -0.502231,0.496863 v 2.640604 2.640606 a 0.4907768,0.49769028 0 0 0 0.736092,0.43077 l 2.255049,-1.320302 2.255046,-1.320302 a 0.4907768,0.49769028 0 0 0 0,-0.861541 L 16.750689,17.507114 14.49564,16.186811 a 0.4907768,0.49769028 0 0 0 -0.233861,-0.0661 z"
       id="path339" />
    <path
       style="opacity:0.2;fill:#ffffff;stroke-width:0.392229"
       d="m 27.471445,5.9225637 c -0.46282,-0.00187 -1.337214,0.091031 -2.3189,0.235183 -0.07717,0.011201 -0.152594,0.026415 -0.226758,0.044429 -1.132279,0.1696957 -2.355676,0.3920674 -3.268828,0.6266464 -0.272406,0.069977 -0.541628,0.1430702 -0.808207,0.2183315 -0.214312,0.06051 -0.412204,0.1284068 -0.618984,0.1922821 -0.14964,0.045362 -0.298169,0.091632 -0.445854,0.1386673 -0.132047,0.043429 -0.26638,0.085378 -0.395294,0.1302336 -0.827644,0.2753105 -1.623507,0.5766783 -2.385549,0.9039649 a 16.473611,16.473611 0 0 0 7.87e-4,-0.00453 c -0.04116,0.017681 -0.08007,0.037322 -0.121046,0.055163 -0.06754,0.029375 -0.138298,0.056016 -0.205309,0.085805 -0.09631,0.042802 -0.181551,0.087645 -0.275019,0.1310069 C 11.422689,10.9619 7.9680865,14.355196 6.6059384,18.454824 6.2478513,19.532546 6.0222101,20.823358 5.951713,21.913638 c -0.00584,0.03169 -0.017342,0.06423 -0.019152,0.09499 -0.015598,0.265157 -0.017612,0.509635 -0.012254,0.740792 0.00284,-0.114286 0.00516,-0.227233 0.012254,-0.347797 0.00181,-0.03076 0.013307,-0.0633 0.019152,-0.09499 0.070497,-1.090281 0.2961383,-2.381093 0.6542254,-3.458816 1.3621481,-4.099627 4.8167336,-7.492924 9.7965266,-9.7750776 0.09347,-0.043362 0.178708,-0.088191 0.275021,-0.1310069 0.067,-0.029788 0.137763,-0.056416 0.205307,-0.085804 0.04097,-0.017841 0.07987,-0.037482 0.121046,-0.055163 a 16.473611,16.473611 0 0 1 -7.84e-4,0.00453 c 0.762039,-0.3272853 1.557904,-0.6286518 2.385549,-0.903965 0.128913,-0.044856 0.263255,-0.086791 0.395291,-0.1302335 0.147681,-0.047042 0.296216,-0.093312 0.445854,-0.1386527 0.206783,-0.063883 0.404675,-0.1317669 0.618987,-0.1922848 0.266578,-0.075257 0.535801,-0.1483518 0.808206,-0.2183301 0.913153,-0.2345777 2.136548,-0.4569521 3.268829,-0.6266464 0.07416,-0.018014 0.149595,-0.033108 0.226758,-0.044429 0.981703,-0.1441369 1.856097,-0.2371765 2.318918,-0.2351844 0.146079,6.267e-4 0.251126,0.010534 0.305662,0.031415 0.04938,0.018894 0.07646,0.060817 0.09041,0.1432636 0.02508,-0.3891485 0.0049,-0.4997984 -0.09041,-0.536251 -0.05454,-0.020868 -0.159584,-0.030775 -0.305662,-0.031415 z M 27.28912,13.271491 c -0.07002,0.02307 -0.164962,0.125993 -0.359288,0.347796 -1.074534,1.192876 -2.592613,2.370383 -3.972848,3.225928 -0.291815,0.180894 -0.582255,0.354407 -0.867195,0.508672 l -0.681803,-0.425169 -0.122567,0.317153 0.804376,0.501012 c 0.284939,-0.154266 0.57538,-0.32778 0.867194,-0.508674 1.380235,-0.855545 2.898315,-2.033051 3.972848,-3.225927 0.259104,-0.295745 0.341234,-0.379583 0.423638,-0.3455 0.02747,0.01147 0.05495,0.0357 0.08887,0.06972 0.0864,0.0867 0.122486,0.210398 0.131006,0.526292 0.01067,-0.622609 -0.01545,-0.803351 -0.131006,-0.919286 -0.03391,-0.034 -0.0614,-0.05835 -0.08887,-0.06972 -0.0206,-0.0084 -0.04102,-0.0099 -0.06435,-0.0024 z m -0.409848,6.795823 c -0.111966,0.0071 -0.24292,0.102779 -0.412914,0.29417 -0.578977,0.651861 -1.708065,1.380273 -2.738707,1.810228 -0.63323,0.255192 -1.568036,0.454201 -2.253783,0.392995 l -0.110312,0.384568 c 0.692325,0.09468 1.697152,-0.115792 2.364096,-0.384568 1.030642,-0.429954 2.159731,-1.158366 2.738708,-1.810227 0.271992,-0.306231 0.443989,-0.366904 0.598303,-0.212967 0.05971,0.05956 0.09616,0.14993 0.115672,0.261231 0.03233,-0.300682 0.0025,-0.536281 -0.115672,-0.654227 -0.05786,-0.05772 -0.118207,-0.08546 -0.18539,-0.0812 z"
       id="path341" />
  </g>
</svg>
