<?xml version="1.0" encoding="UTF-8" standalone="no"?>
<svg
   width="128"
   height="128"
   viewBox="0 0 33.866666 33.866667"
   version="1.1"
   id="svg6"
   sodipodi:docname="teamspeak3.svg"
   inkscape:version="1.1.2 (0a00cf5339, 2022-02-04)"
   xmlns:inkscape="http://www.inkscape.org/namespaces/inkscape"
   xmlns:sodipodi="http://sodipodi.sourceforge.net/DTD/sodipodi-0.dtd"
   xmlns:xlink="http://www.w3.org/1999/xlink"
   xmlns="http://www.w3.org/2000/svg"
   xmlns:svg="http://www.w3.org/2000/svg"
   xmlns:rdf="http://www.w3.org/1999/02/22-rdf-syntax-ns#"
   xmlns:cc="http://creativecommons.org/ns#"
   xmlns:dc="http://purl.org/dc/elements/1.1/">
  <metadata
     id="metadata112">
    <rdf:RDF>
      <cc:Work
         rdf:about="">
        <dc:format>image/svg+xml</dc:format>
        <dc:type
           rdf:resource="http://purl.org/dc/dcmitype/StillImage" />
      </cc:Work>
    </rdf:RDF>
  </metadata>
  <defs
     id="defs2">
    <linearGradient
       inkscape:collect="always"
       id="linearGradient1200">
      <stop
         style="stop-color:#522afb;stop-opacity:1"
         offset="0"
         id="stop1196" />
      <stop
         style="stop-color:#f4f5f9;stop-opacity:1"
         offset="1"
         id="stop1198" />
    </linearGradient>
    <linearGradient
       inkscape:collect="always"
       id="linearGradient9598">
      <stop
         style="stop-color:#e6f9ff;stop-opacity:1"
         offset="0"
         id="stop9594" />
      <stop
         style="stop-color:#caf9fe;stop-opacity:1"
         offset="1"
         id="stop9596" />
    </linearGradient>
    <linearGradient
       inkscape:collect="always"
       id="linearGradient1630">
      <stop
         style="stop-color:#986af3;stop-opacity:1"
         offset="0"
         id="stop1626" />
      <stop
         style="stop-color:#4a23fc;stop-opacity:1"
         offset="1"
         id="stop1628" />
    </linearGradient>
    <linearGradient
       gradientTransform="translate(0,-896)"
       gradientUnits="userSpaceOnUse"
       y2="992"
       x2="32"
       y1="32"
       x1="32"
       id="lgrad">
      <stop
         id="stop2"
         stop-color="#f8f8f8"
         offset="0%" />
      <stop
         id="stop4"
         stop-color="#ccc"
         offset="100%" />
    </linearGradient>
    <radialGradient
       gradientTransform="translate(0,-896)"
       gradientUnits="userSpaceOnUse"
       r="440"
       cy="512"
       cx="512"
       fy="494.39999"
       fx="512"
       y2="100%"
       x2="0%"
       y1="0%"
       x1="0%"
       id="rgrad">
      <stop
         id="stop7"
         stop-color="#00f0ff"
         offset="0%" />
      <stop
         id="stop9"
         stop-color="#0070e0"
         offset="100%" />
    </radialGradient>
    <radialGradient
       id="rgrad-3"
       x1="0%"
       y1="0%"
       x2="0%"
       y2="100%"
       fx="523.57568"
       fy="306.1813"
       cx="523.57568"
       cy="306.1813"
       r="440"
       gradientUnits="userSpaceOnUse"
       gradientTransform="matrix(0.03099337,0,0,0.03032562,85.198869,42.985295)">
      <stop
         offset="0%"
         stop-color="#00f0ff"
         id="stop7-6"
         style="stop-color:#03d7e4;stop-opacity:1" />
      <stop
         offset="100%"
         stop-color="#0070e0"
         id="stop9-7" />
    </radialGradient>
    <linearGradient
       inkscape:collect="always"
       xlink:href="#linearGradient1630"
       id="linearGradient1632"
       x1="132.21078"
       y1="42.151531"
       x2="132.21078"
       y2="70.679932"
       gradientUnits="userSpaceOnUse"
       gradientTransform="matrix(0.97573206,0,0,0.97573206,-111.77632,-37.20309)" />
    <filter
       y="-0.012004"
       x="-0.011996"
       width="1.023993"
       height="1.024007"
       color-interpolation-filters="sRGB"
       id="b">
      <feGaussianBlur
         id="feGaussianBlur7"
         stdDeviation=".47521291" />
    </filter>
    <linearGradient
       y2="-319.05783"
       y1="-73.89106"
       x2="-376.36255"
       x1="-350.6571"
       gradientUnits="userSpaceOnUse"
       id="k">
      <stop
         id="stop50"
         stop-color="#83a3d4"
         offset="0" />
      <stop
         id="stop52"
         stop-color="#6bb5e3"
         offset="1" />
    </linearGradient>
    <linearGradient
       y2="-156.88734"
       y1="-12.925184"
       x2="10.51211"
       x1="-206.76952"
       gradientUnits="userSpaceOnUse"
       id="i">
      <stop
         id="stop40"
         stop-color="#70c2bd"
         offset="0" />
      <stop
         id="stop42"
         stop-color="#67c381"
         offset="1" />
    </linearGradient>
    <linearGradient
       y2="-149.18999"
       y1="117.30138"
       x2="148.51404"
       x1="134.56509"
       gradientUnits="userSpaceOnUse"
       id="e">
      <stop
         id="stop20"
         stop-color="#faaa32"
         offset="0" />
      <stop
         id="stop22"
         stop-color="#fdc22b"
         offset="1" />
    </linearGradient>
    <linearGradient
       y2="144.89951"
       y1="144.89951"
       x2="123.35784"
       x1="-146.054"
       gradientUnits="userSpaceOnUse"
       id="c">
      <stop
         id="stop10"
         stop-color="#a0cf63"
         offset="0" />
      <stop
         id="stop12"
         stop-color="#c4da45"
         offset="1" />
    </linearGradient>
    <linearGradient
       y2="-150.01163"
       y1="-12.740612"
       x2="28.495264"
       x1="206.7137"
       gradientUnits="userSpaceOnUse"
       id="m">
      <stop
         id="stop60"
         stop-color="#b28cc0"
         offset="0" />
      <stop
         id="stop62"
         stop-color="#9a8ec4"
         offset="1" />
    </linearGradient>
    <linearGradient
       y2="76.406288"
       y1="147.05296"
       x2="-19.617525"
       x1="189.94229"
       gradientUnits="userSpaceOnUse"
       id="q">
      <stop
         id="stop80"
         stop-color="#f48155"
         offset="0" />
      <stop
         id="stop82"
         stop-color="#f16168"
         offset="1" />
    </linearGradient>
    <linearGradient
       y2="34.179653"
       y1="308.30261"
       x2="21.156284"
       x1="116.504"
       gradientUnits="userSpaceOnUse"
       id="l">
      <stop
         id="stop55"
         stop-color="#735194"
         offset="0" />
      <stop
         id="stop57"
         stop-color="#525da3"
         offset="1" />
    </linearGradient>
    <linearGradient
       y2="-107.16671"
       y1="111.50156"
       x2="123.3283"
       x1="30.131145"
       gradientUnits="userSpaceOnUse"
       id="j">
      <stop
         id="stop45"
         stop-color="#416db9"
         offset="0" />
      <stop
         id="stop47"
         stop-color="#337e8d"
         offset="1" />
    </linearGradient>
    <linearGradient
       y2="0.071801998"
       y1="133.12218"
       x2="205.55051"
       x1="-103.67039"
       gradientUnits="userSpaceOnUse"
       id="h">
      <stop
         id="stop35"
         stop-color="#2e9274"
         offset="0" />
      <stop
         id="stop37"
         stop-color="#469d3c"
         offset="1" />
    </linearGradient>
    <linearGradient
       y2="-100.48971"
       y1="120.22743"
       x2="146.80986"
       x1="26.97802"
       gradientUnits="userSpaceOnUse"
       id="f">
      <stop
         id="stop25"
         stop-color="#ec4001"
         offset="0" />
      <stop
         id="stop27"
         stop-color="#fb6f01"
         offset="1" />
    </linearGradient>
    <linearGradient
       y2="73.499695"
       y1="73.499695"
       x2="309.397"
       x1="-14.298616"
       gradientUnits="userSpaceOnUse"
       id="d">
      <stop
         id="stop15"
         stop-color="#58a920"
         offset="0" />
      <stop
         id="stop17"
         stop-color="#98b811"
         offset="1" />
    </linearGradient>
    <linearGradient
       y2="144.897"
       y1="144.897"
       x2="145.987"
       x1="-123.11901"
       gradientUnits="userSpaceOnUse"
       id="o">
      <stop
         id="stop70"
         stop-color="#d287af"
         offset="0" />
      <stop
         id="stop72"
         stop-color="#e07993"
         offset="1" />
    </linearGradient>
    <linearGradient
       y2="-71.695564"
       y1="-71.695564"
       x2="117.81888"
       x1="-205.78"
       gradientUnits="userSpaceOnUse"
       id="p">
      <stop
         id="stop75"
         stop-color="#bd090f"
         offset="0" />
      <stop
         id="stop77"
         stop-color="#e11f07"
         offset="1" />
    </linearGradient>
    <linearGradient
       y2="-143.7106"
       y1="-14.582834"
       x2="-308.72031"
       x1="0.176406"
       gradientUnits="userSpaceOnUse"
       id="n">
      <stop
         id="stop65"
         stop-color="#c23857"
         offset="0" />
      <stop
         id="stop67"
         stop-color="#914475"
         offset="1" />
    </linearGradient>
    <linearGradient
       y2="319.1076"
       y1="108.52529"
       x2="117.31723"
       x1="41.409683"
       gradientUnits="userSpaceOnUse"
       id="g">
      <stop
         id="stop30"
         stop-color="#e69e08"
         offset="0" />
      <stop
         id="stop32"
         stop-color="#cbc507"
         offset="1" />
    </linearGradient>
    <clipPath
       clipPathUnits="userSpaceOnUse"
       id="clipPath988">
      <path
         inkscape:connector-curvature="0"
         id="path990"
         d="m 35.277533,4.8347742 c -1.06882,0 -1.309413,0.04675 -2.013853,0.392625 -1.020627,0.501128 -1.883036,1.364674 -2.336311,2.339206 -0.481406,1.03502 -0.568641,2.6184458 -0.197896,3.5922488 0.140901,0.370015 1.429682,2.698881 2.86402,5.175363 1.434338,2.476487 2.611234,4.595724 2.61541,4.709424 0.0042,0.113688 -3.531125,6.334964 -7.856213,13.824976 l -7.863836,13.618156 -7.139025,0.03916 -7.139025,0.03916 -0.8073291,0.376593 c -1.051601,0.490639 -1.970446,1.40527 -2.445113,2.434046 -0.3216,0.696997 -0.379476,0.996457 -0.380012,1.966023 0,0.971641 0.05616,1.265185 0.376327,1.951045 0.637629,1.365989 1.898733,2.419094 3.2892361,2.746809 0.281273,0.06633 10.618178,0.124914 23.325022,0.132473 l 22.819654,0.01361 0.256479,-0.283805 c 0.216038,-0.239093 0.255118,-0.487596 0.248882,-1.581025 -0.0189,-3.316188 -1.931637,-6.482045 -4.549373,-7.530599 -0.489196,-0.195931 -1.533509,-0.231269 -8.637256,-0.29144 l -8.08091,-0.0683 2.306623,-3.969369 c 14.3518,-24.696073 18.987433,-32.733748 19.206907,-33.302314 0.20262,-0.52495 0.24771,-0.909294 0.204472,-1.7492148 -0.09808,-1.904613 -1.044956,-3.351023 -2.737875,-4.18224 -0.704012,-0.345675 -0.945268,-0.392625 -2.010963,-0.392625 -1.052802,0 -1.321515,0.05095 -2.057484,0.390785 -1.167076,0.538919 -1.872808,1.368347 -3.31446,3.895786 -0.660329,1.1576538 -1.242524,2.1047838 -1.293778,2.1047838 -0.05125,0 -0.630999,-0.945267 -1.28852,-2.1005778 -1.448648,-2.545391 -2.050182,-3.257155 -3.253497,-3.849543 -0.812451,-0.399969 -1.01046,-0.441249 -2.110307,-0.441249 z M 49.110404,23.744718 c -0.285052,-0.0087 -1.023209,0.716568 -1.535558,1.509279 -1.775618,2.747225 -2.483305,8.398153 -1.495344,11.941736 0.187616,0.672892 2.517264,4.805847 10.124725,17.962541 5.434495,9.398653 10.088246,17.318774 10.3418,17.600398 1.359961,1.510458 3.608912,1.953759 5.532775,1.090367 1.81737,-0.815577 2.951799,-2.750339 2.783338,-4.747257 -0.04135,-0.490442 -0.197291,-1.164166 -0.346356,-1.497188 -0.149102,-0.333014 -1.413335,-2.573367 -2.80936,-4.978533 l -2.538146,-4.373023 4.245585,-0.06724 4.245578,-0.06724 0.80731,-0.376856 c 1.05162,-0.490659 1.97046,-1.405301 2.44512,-2.434077 0.3216,-0.696994 0.37922,-0.996189 0.37974,-1.965762 0,-0.971433 -0.0559,-1.265326 -0.37579,-1.951045 -0.49034,-1.050928 -1.40549,-1.970162 -2.43432,-2.445638 l -0.82208,-0.3801 -7.067028,-0.03916 -7.067025,-0.03916 -7.128514,-12.368531 C 52.476142,29.315485 49.197231,23.747405 49.110404,23.744688 Z M 15.439636,60.404073 c -0.763389,0.0016 -1.409144,0.06781 -1.678779,0.206022 -0.288567,0.147968 -0.803312,0.910405 -1.996774,2.957843 -2.398908,4.115433 -2.580215,4.526623 -2.57704,5.844722 0.0049,2.086968 1.140506,3.734498 3.126035,4.535698 0.906267,0.365707 2.788868,0.284787 3.720231,-0.159799 1.242573,-0.593091 1.82259,-1.364647 4.446614,-5.914889 l 2.444326,-4.238441 -0.216302,-0.385009 c -0.575391,-1.024661 -2.29615,-2.042038 -4.291037,-2.537091 -0.820147,-0.203528 -1.99578,-0.310526 -2.977289,-0.309052 z"
         style="opacity:1;fill:url(#linearGradient992);fill-opacity:1;stroke:none;stroke-width:0.10764397;stroke-linecap:round;stroke-linejoin:round;stroke-miterlimit:4;stroke-dasharray:none;stroke-opacity:1" />
    </clipPath>
    <linearGradient
       inkscape:collect="always"
       xlink:href="#linearGradient9598"
       id="linearGradient992"
       gradientUnits="userSpaceOnUse"
       gradientTransform="matrix(3.7795276,0,0,3.7795276,-23.738441,-24.999971)"
       x1="17.757063"
       y1="25.057371"
       x2="17.757063"
       y2="11.635189" />
    <linearGradient
       inkscape:collect="always"
       xlink:href="#linearGradient1200"
       id="linearGradient1202"
       x1="97.211334"
       y1="235.76263"
       x2="97.211334"
       y2="32.454781"
       gradientUnits="userSpaceOnUse"
       gradientTransform="matrix(0.26458333,0,0,0.26458333,-0.08739669,-0.58622725)" />
  </defs>
  <sodipodi:namedview
     id="base"
     pagecolor="#ffffff"
     bordercolor="#666666"
     borderopacity="1.0"
     inkscape:pageopacity="0.0"
     inkscape:pageshadow="2"
     inkscape:zoom="0.93981675"
     inkscape:cx="-235.68424"
     inkscape:cy="27.664968"
     inkscape:document-units="mm"
     inkscape:current-layer="layer1"
     showgrid="false"
     units="px"
     inkscape:window-width="1920"
     inkscape:window-height="1000"
     inkscape:window-x="0"
     inkscape:window-y="0"
     inkscape:window-maximized="1"
     inkscape:pagecheckerboard="0" />
  <g
     inkscape:label="Layer 1"
     inkscape:groupmode="layer"
     id="layer1">
    <g
       id="g1702"
       transform="matrix(0.97573206,0,0,0.97573206,-65.748383,-37.203094)"
       style="opacity:0.2967651">
      <rect
         style="fill:none;fill-opacity:1;stroke:#000000;stroke-width:0.1;stroke-linecap:round;stroke-linejoin:round;stroke-miterlimit:4;stroke-dasharray:none;stroke-opacity:0.02"
         id="rect1634"
         width="29.810888"
         height="29.810888"
         x="69.839508"
         y="40.709618"
         rx="6.6098609"
         ry="6.6098609" />
      <rect
         ry="6.6098609"
         rx="6.6098609"
         y="40.709618"
         x="69.839508"
         height="29.810888"
         width="29.810888"
         id="rect1638"
         style="fill:none;fill-opacity:1;stroke:#000000;stroke-width:0.2;stroke-linecap:round;stroke-linejoin:round;stroke-miterlimit:4;stroke-dasharray:none;stroke-opacity:0.02" />
      <rect
         style="fill:none;fill-opacity:1;stroke:#000000;stroke-width:0.3;stroke-linecap:round;stroke-linejoin:round;stroke-miterlimit:4;stroke-dasharray:none;stroke-opacity:0.02"
         id="rect1640"
         width="29.810888"
         height="29.810888"
         x="69.839508"
         y="40.709618"
         rx="6.6098609"
         ry="6.6098609" />
      <rect
         ry="6.6098609"
         rx="6.6098609"
         y="40.709618"
         x="69.839508"
         height="29.810888"
         width="29.810888"
         id="rect1642"
         style="fill:none;fill-opacity:1;stroke:#000000;stroke-width:0.4;stroke-linecap:round;stroke-linejoin:round;stroke-miterlimit:4;stroke-dasharray:none;stroke-opacity:0.02" />
      <rect
         style="fill:none;fill-opacity:1;stroke:#000000;stroke-width:0.5;stroke-linecap:round;stroke-linejoin:round;stroke-miterlimit:4;stroke-dasharray:none;stroke-opacity:0.02"
         id="rect1644"
         width="29.810888"
         height="29.810888"
         x="69.839508"
         y="40.709618"
         rx="6.6098609"
         ry="6.6098609" />
      <rect
         ry="6.6098609"
         rx="6.6098609"
         y="40.709618"
         x="69.839508"
         height="29.810888"
         width="29.810888"
         id="rect1646"
         style="fill:none;fill-opacity:1;stroke:#000000;stroke-width:0.6;stroke-linecap:round;stroke-linejoin:round;stroke-miterlimit:4;stroke-dasharray:none;stroke-opacity:0.02" />
      <rect
         style="fill:none;fill-opacity:1;stroke:#000000;stroke-width:0.7;stroke-linecap:round;stroke-linejoin:round;stroke-miterlimit:4;stroke-dasharray:none;stroke-opacity:0.02"
         id="rect1648"
         width="29.810888"
         height="29.810888"
         x="69.839508"
         y="40.709618"
         rx="6.6098609"
         ry="6.6098609" />
      <rect
         ry="6.6098609"
         rx="6.6098609"
         y="40.709618"
         x="69.839508"
         height="29.810888"
         width="29.810888"
         id="rect1650"
         style="fill:none;fill-opacity:1;stroke:#000000;stroke-width:0.8;stroke-linecap:round;stroke-linejoin:round;stroke-miterlimit:4;stroke-dasharray:none;stroke-opacity:0.02" />
      <rect
         style="fill:none;fill-opacity:1;stroke:#000000;stroke-width:1;stroke-linecap:round;stroke-linejoin:round;stroke-miterlimit:4;stroke-dasharray:none;stroke-opacity:0.02"
         id="rect1652"
         width="29.810888"
         height="29.810888"
         x="69.839508"
         y="40.709618"
         rx="6.6098609"
         ry="6.6098609" />
      <rect
         ry="6.6098609"
         rx="6.6098609"
         y="40.709618"
         x="69.839508"
         height="29.810888"
         width="29.810888"
         id="rect1654"
         style="fill:none;fill-opacity:1;stroke:#000000;stroke-width:1.2;stroke-linecap:round;stroke-linejoin:round;stroke-miterlimit:4;stroke-dasharray:none;stroke-opacity:0.02" />
      <rect
         style="fill:none;fill-opacity:1;stroke:#000000;stroke-width:1.4;stroke-linecap:round;stroke-linejoin:round;stroke-miterlimit:4;stroke-dasharray:none;stroke-opacity:0.02"
         id="rect1656"
         width="29.810888"
         height="29.810888"
         x="69.839508"
         y="40.709618"
         rx="6.6098609"
         ry="6.6098609" />
      <rect
         ry="6.6098609"
         rx="6.6098609"
         y="40.709618"
         x="69.839508"
         height="29.810888"
         width="29.810888"
         id="rect1658"
         style="fill:none;fill-opacity:1;stroke:#000000;stroke-width:1.6;stroke-linecap:round;stroke-linejoin:round;stroke-miterlimit:4;stroke-dasharray:none;stroke-opacity:0.02" />
      <rect
         style="fill:none;fill-opacity:1;stroke:#000000;stroke-width:1.8;stroke-linecap:round;stroke-linejoin:round;stroke-miterlimit:4;stroke-dasharray:none;stroke-opacity:0.02"
         id="rect1660"
         width="29.810888"
         height="29.810888"
         x="69.839508"
         y="40.709618"
         rx="6.6098609"
         ry="6.6098609" />
      <rect
         ry="6.6098609"
         rx="6.6098609"
         y="40.709618"
         x="69.839508"
         height="29.810888"
         width="29.810888"
         id="rect1662"
         style="fill:none;fill-opacity:1;stroke:#000000;stroke-width:2;stroke-linecap:round;stroke-linejoin:round;stroke-miterlimit:4;stroke-dasharray:none;stroke-opacity:0.02" />
      <rect
         style="fill:none;fill-opacity:1;stroke:#000000;stroke-width:2.2;stroke-linecap:round;stroke-linejoin:round;stroke-miterlimit:4;stroke-dasharray:none;stroke-opacity:0.02"
         id="rect1664"
         width="29.810888"
         height="29.810888"
         x="69.839508"
         y="40.709618"
         rx="6.6098609"
         ry="6.6098609" />
      <rect
         ry="6.6098609"
         rx="6.6098609"
         y="40.709618"
         x="69.839508"
         height="29.810888"
         width="29.810888"
         id="rect1666"
         style="fill:none;fill-opacity:1;stroke:#000000;stroke-width:2.6;stroke-linecap:round;stroke-linejoin:round;stroke-miterlimit:4;stroke-dasharray:none;stroke-opacity:0.02" />
      <rect
         style="fill:none;fill-opacity:1;stroke:#000000;stroke-width:3;stroke-linecap:round;stroke-linejoin:round;stroke-miterlimit:4;stroke-dasharray:none;stroke-opacity:0.02"
         id="rect1668"
         width="29.810888"
         height="29.810888"
         x="69.839508"
         y="40.709618"
         rx="6.6098609"
         ry="6.6098609" />
      <rect
         ry="6.6098609"
         rx="6.6098609"
         y="40.709618"
         x="69.839508"
         height="29.810888"
         width="29.810888"
         id="rect1670"
         style="fill:none;fill-opacity:1;stroke:#000000;stroke-width:3.4;stroke-linecap:round;stroke-linejoin:round;stroke-miterlimit:4;stroke-dasharray:none;stroke-opacity:0.02" />
      <rect
         style="fill:none;fill-opacity:1;stroke:#000000;stroke-width:3.8;stroke-linecap:round;stroke-linejoin:round;stroke-miterlimit:4;stroke-dasharray:none;stroke-opacity:0.02"
         id="rect1672"
         width="29.810888"
         height="29.810888"
         x="69.839508"
         y="40.709618"
         rx="6.6098609"
         ry="6.6098609" />
      <rect
         ry="6.6098609"
         rx="6.6098609"
         y="40.709618"
         x="69.839508"
         height="29.810888"
         width="29.810888"
         id="rect1674"
         style="fill:none;fill-opacity:1;stroke:#000000;stroke-width:4.2;stroke-linecap:round;stroke-linejoin:round;stroke-miterlimit:4;stroke-dasharray:none;stroke-opacity:0.02" />
      <rect
         style="fill:none;fill-opacity:1;stroke:#000000;stroke-width:4.6;stroke-linecap:round;stroke-linejoin:round;stroke-miterlimit:4;stroke-dasharray:none;stroke-opacity:0.02"
         id="rect1676"
         width="29.810888"
         height="29.810888"
         x="69.839508"
         y="40.709618"
         rx="6.6098609"
         ry="6.6098609" />
      <rect
         ry="6.6098609"
         rx="6.6098609"
         y="40.709618"
         x="69.839508"
         height="29.810888"
         width="29.810888"
         id="rect1678"
         style="fill:none;fill-opacity:1;stroke:#000000;stroke-width:5;stroke-linecap:round;stroke-linejoin:round;stroke-miterlimit:4;stroke-dasharray:none;stroke-opacity:0.02" />
    </g>
    <rect
       style="fill:url(#linearGradient1632);fill-opacity:1;stroke-width:2.68768001;stroke-linecap:round;stroke-linejoin:round"
       id="rect849"
       width="29.087439"
       height="29.087439"
       x="2.3962677"
       y="2.5185883"
       rx="6.4494534"
       ry="6.4494534" />
    <path
       id="path2623"
       style="fill:#080124;fill-opacity:0.133992;stroke-width:0.376886"
       d="m 17.85263,7.2193026 c -5.846258,0 -10.5528446,4.7065864 -10.5528446,10.5528444 0,5.846258 4.7065866,10.552844 10.5528446,10.552844 5.846257,0 10.552842,-4.706586 10.552842,-10.552844 0,-5.846258 -4.706585,-10.5528444 -10.552842,-10.5528444 z m -0.01189,2.7383343 c 1.977982,-0.037417 3.770493,0.7335261 5.3821,2.3078691 0.207373,0.207376 0.479403,0.401947 0.207223,0.751892 -0.05185,0.05185 0.02619,0.103703 0.07803,0.155546 0.635083,0.881343 1.062357,1.866228 1.256771,2.929021 0.02591,0.103686 0.104134,0.155379 0.181901,0.207222 0.531396,0.272178 0.803569,0.726158 0.803569,1.335319 0,0.531398 0.05142,1.062822 -0.02635,1.594218 -0.129611,0.777654 -0.79391,1.30899 -1.545642,1.140499 -0.207374,-0.05185 -0.298173,-0.207546 -0.298173,-0.427881 0,-0.881341 0.02591,-1.762425 0,-2.643766 -0.07776,-2.371844 -1.227907,-4.160409 -3.288689,-5.300969 -3.395756,-1.866369 -7.915481,0.245929 -8.654252,4.108277 -0.12961,0.661006 -0.103352,1.361094 -0.103352,2.022098 0,0.635086 8.1e-5,1.257308 -0.02584,1.892391 0,0.207375 -0.129949,0.34985 -0.376204,0.34985 -0.972068,0.05185 -1.4939658,-0.557516 -1.4939658,-1.542542 0.02592,-0.155531 0.025838,-0.350049 0.025838,-0.609265 0.02592,-0.246258 -0.026012,-0.531306 0.025838,-0.829407 0.07776,-0.479552 0.3500208,-0.855093 0.7777298,-1.062467 0.103686,-0.05185 0.155463,-0.103924 0.181384,-0.246496 0.181454,-1.036872 0.609326,-1.996087 1.23145,-2.851506 0.07776,-0.103686 0.129529,-0.155604 0.02584,-0.298173 -0.103686,-0.155531 -0.02565,-0.323593 0.07803,-0.453202 0.881342,-0.985028 1.917877,-1.711262 3.149162,-2.11305 0.831117,-0.262458 1.633612,-0.4008366 2.407605,-0.4154781 z m -3.628719,7.8145101 c 0.160473,0.0012 0.333176,0.0509 0.509013,0.156063 0.429057,0.217119 1.213679,0.820586 1.814359,1.387512 0.576162,0.542801 1.005286,1.061125 0.931726,1.435055 -0.07355,0.37393 -0.318585,0.603363 -0.649572,0.723986 -0.257435,0.10856 -1.446768,0.04835 -1.740979,0.06046 -0.527127,-0.04825 -0.955986,-0.253559 -1.262456,-0.723987 -0.429056,-0.663424 -0.57602,-1.411509 -0.428914,-2.207617 0.08811,-0.520186 0.416724,-0.834531 0.826823,-0.831474 z m 7.351489,1.13068 c 0.461793,1.74e-4 0.788104,0.302912 0.809253,0.780831 0.02417,0.520789 -0.145119,1.016481 -0.495577,1.41025 -0.277947,0.317557 -0.652261,0.469817 -1.147733,0.444417 -0.374627,-0.02541 -0.72505,-0.101635 -1.099675,-0.152445 -0.132932,-0.02539 -0.253881,-0.05078 -0.338481,-0.08888 -0.664655,-0.215941 -0.89425,-0.787477 -0.471285,-1.206648 0.302118,-0.279449 0.67671,-0.495514 1.099675,-0.673344 0.471304,-0.17783 0.918513,-0.419367 1.438155,-0.495577 0.071,-0.0127 0.139702,-0.01863 0.205672,-0.0186 z m 2.254126,1.88464 c 0.03135,0.0013 0.06111,0.01219 0.08578,0.03514 0.210588,0.146881 0.355534,0.624367 0.355534,0.905888 0.02633,1.444324 -0.763319,1.946071 -1.460893,2.447912 -2.040071,1.407605 -9.187149,0.477566 -4.527889,0.171566 3.948524,-0.257041 5.106706,-2.717583 5.356779,-3.451986 0.04524,-0.06733 0.121725,-0.11135 0.190686,-0.10852 z" />
    <path
       id="path2549"
       style="fill:#080124;fill-opacity:0.133992;stroke-width:0.376886"
       d="m 17.449001,6.6655284 c -5.846258,0 -10.5528446,4.7065866 -10.5528446,10.5528446 0,5.846258 4.7065866,10.552844 10.5528446,10.552844 5.846257,0 10.552842,-4.706586 10.552842,-10.552844 0,-5.846258 -4.706585,-10.5528446 -10.552842,-10.5528446 z m -0.01189,2.7383343 c 1.977982,-0.037417 3.770493,0.7335263 5.3821,2.3078693 0.207373,0.207376 0.479403,0.401947 0.207223,0.751892 -0.05185,0.05185 0.02619,0.103703 0.07803,0.155546 0.635083,0.881343 1.062357,1.866228 1.256771,2.929021 0.02591,0.103686 0.104134,0.155379 0.181901,0.207222 0.531396,0.272178 0.803569,0.726158 0.803569,1.335319 0,0.531398 0.05142,1.062822 -0.02635,1.594218 -0.129611,0.777654 -0.79391,1.30899 -1.545642,1.140499 -0.207374,-0.05185 -0.298173,-0.207546 -0.298173,-0.427881 0,-0.881341 0.02591,-1.762425 0,-2.643766 -0.07776,-2.371844 -1.227907,-4.160409 -3.288689,-5.300969 -3.395756,-1.8663693 -7.915481,0.245929 -8.654252,4.108277 -0.12961,0.661006 -0.103352,1.361094 -0.103352,2.022098 0,0.635086 8.1e-5,1.257308 -0.02584,1.892391 0,0.207375 -0.129949,0.34985 -0.376204,0.34985 -0.972068,0.05185 -1.4939658,-0.557516 -1.4939658,-1.542542 0.02592,-0.155531 0.025838,-0.350049 0.025838,-0.609265 0.02592,-0.246258 -0.026012,-0.531306 0.025838,-0.829407 0.07776,-0.479552 0.3500212,-0.855093 0.7777298,-1.062467 0.103686,-0.05185 0.155463,-0.103924 0.181384,-0.246496 0.181454,-1.036872 0.609326,-1.996087 1.23145,-2.851506 0.07776,-0.103686 0.129529,-0.155604 0.02584,-0.298173 -0.103686,-0.155531 -0.02565,-0.323593 0.07803,-0.453202 0.881342,-0.985028 1.917877,-1.711262 3.149162,-2.1130503 0.831117,-0.2624578 1.633612,-0.4008365 2.407605,-0.415478 z m -3.628719,7.8145103 c 0.160473,0.0012 0.333176,0.0509 0.509013,0.156063 0.429057,0.217119 1.213679,0.820586 1.814359,1.387512 0.576162,0.542801 1.005286,1.061125 0.931726,1.435055 -0.07355,0.37393 -0.318585,0.603363 -0.649572,0.723986 -0.257435,0.10856 -1.446768,0.04835 -1.740979,0.06046 -0.527127,-0.04825 -0.955986,-0.253559 -1.262456,-0.723987 -0.429056,-0.663424 -0.57602,-1.411509 -0.428914,-2.207617 0.08811,-0.520186 0.416724,-0.834531 0.826823,-0.831474 z m 7.351489,1.13068 c 0.461793,1.74e-4 0.788104,0.302912 0.809253,0.780831 0.02417,0.520789 -0.145119,1.016481 -0.495577,1.41025 -0.277947,0.317557 -0.652261,0.469817 -1.147733,0.444417 -0.374627,-0.02541 -0.72505,-0.101635 -1.099675,-0.152445 -0.132932,-0.02539 -0.253881,-0.05078 -0.338481,-0.08888 -0.664655,-0.215941 -0.89425,-0.787477 -0.471285,-1.206648 0.302118,-0.279449 0.67671,-0.495514 1.099675,-0.673344 0.471304,-0.17783 0.918513,-0.419367 1.438155,-0.495577 0.071,-0.0127 0.139702,-0.01863 0.205672,-0.0186 z m 2.254126,1.88464 c 0.03135,0.0013 0.06111,0.01219 0.08578,0.03514 0.210588,0.146881 0.355534,0.624367 0.355534,0.905888 0.02633,1.444324 -0.763319,1.946071 -1.460893,2.447912 -2.040071,1.407605 -9.187149,0.477566 -4.527889,0.171566 3.948524,-0.257041 5.106706,-2.717583 5.356779,-3.451986 0.04524,-0.06733 0.121725,-0.11135 0.190686,-0.10852 z" />
    <path
       id="rect5"
       style="fill:url(#linearGradient1202);fill-opacity:1;stroke-width:0.376886"
       d="m 16.939988,6.5094634 c -5.846258,0 -10.5528446,4.7065866 -10.5528446,10.5528446 0,5.846258 4.7065866,10.552844 10.5528446,10.552844 5.846257,0 10.552842,-4.706586 10.552842,-10.552844 0,-5.846258 -4.706585,-10.5528446 -10.552842,-10.5528446 z m -0.01189,2.7383343 c 1.977982,-0.037417 3.770493,0.733526 5.3821,2.3078693 0.207373,0.207376 0.479403,0.401947 0.207223,0.751892 -0.05185,0.05185 0.02619,0.103703 0.07803,0.155546 0.635083,0.881343 1.062357,1.866228 1.256771,2.929021 0.02591,0.103686 0.104134,0.155379 0.181901,0.207222 0.531396,0.272178 0.803569,0.726158 0.803569,1.335319 0,0.531398 0.05142,1.062822 -0.02635,1.594218 -0.129611,0.777654 -0.79391,1.30899 -1.545642,1.140499 -0.207374,-0.05185 -0.298173,-0.207546 -0.298173,-0.427881 0,-0.881341 0.02591,-1.762425 0,-2.643766 -0.07776,-2.371844 -1.227907,-4.160409 -3.288689,-5.300969 -3.395756,-1.8663693 -7.915481,0.245929 -8.654252,4.108277 -0.12961,0.661006 -0.103352,1.361094 -0.103352,2.022098 0,0.635086 8.1e-5,1.257308 -0.02584,1.892391 0,0.207375 -0.129949,0.34985 -0.376204,0.34985 -0.9720675,0.05185 -1.4939658,-0.557516 -1.4939658,-1.542542 0.02592,-0.155531 0.025838,-0.350049 0.025838,-0.609265 0.02592,-0.246258 -0.026012,-0.531306 0.025838,-0.829407 0.07776,-0.479552 0.3500212,-0.855093 0.7777302,-1.062467 0.1036855,-0.05185 0.1554626,-0.103924 0.1813836,-0.246496 0.181454,-1.036872 0.609326,-1.996087 1.23145,-2.851506 0.07776,-0.103686 0.129529,-0.155604 0.02584,-0.298173 -0.103686,-0.155531 -0.02565,-0.323593 0.07803,-0.453202 0.881342,-0.985028 1.917877,-1.711262 3.149162,-2.1130503 0.831117,-0.2624578 1.633612,-0.4008365 2.407605,-0.415478 z m -3.628719,7.8145103 c 0.160473,0.0012 0.333176,0.0509 0.509013,0.156063 0.429057,0.217119 1.213679,0.820586 1.814359,1.387512 0.576162,0.542801 1.005286,1.061125 0.931726,1.435055 -0.07355,0.37393 -0.318585,0.603363 -0.649572,0.723986 -0.257435,0.10856 -1.446768,0.04835 -1.740979,0.06046 -0.527127,-0.04825 -0.955986,-0.253559 -1.262456,-0.723987 -0.429056,-0.663424 -0.57602,-1.411509 -0.428914,-2.207617 0.08811,-0.520186 0.416724,-0.834531 0.826823,-0.831474 z m 7.351489,1.13068 c 0.461793,1.74e-4 0.788104,0.302912 0.809253,0.780831 0.02417,0.520789 -0.145119,1.016481 -0.495577,1.41025 -0.277947,0.317557 -0.652261,0.469817 -1.147733,0.444417 -0.374627,-0.02541 -0.72505,-0.101635 -1.099675,-0.152445 -0.132932,-0.02539 -0.253881,-0.05078 -0.338481,-0.08888 -0.664655,-0.215941 -0.89425,-0.787477 -0.471285,-1.206648 0.302118,-0.279449 0.67671,-0.495514 1.099675,-0.673344 0.471304,-0.17783 0.918513,-0.419367 1.438155,-0.495577 0.071,-0.0127 0.139702,-0.01863 0.205672,-0.0186 z m 2.254126,1.88464 c 0.03135,0.0013 0.06111,0.01219 0.08578,0.03514 0.210588,0.146881 0.355534,0.624367 0.355534,0.905888 0.02633,1.444324 -0.763319,1.946071 -1.460893,2.447912 -2.040071,1.407605 -9.187149,0.477566 -4.527889,0.171566 3.948524,-0.257041 5.106706,-2.717583 5.356779,-3.451986 0.04524,-0.06733 0.121725,-0.11135 0.190686,-0.10852 z" />
  </g>
</svg>
