<?xml version="1.0" encoding="UTF-8" standalone="no"?>
<svg
   width="128"
   height="128"
   viewBox="0 0 33.866666 33.866668"
   version="1.1"
   id="svg2117"
   inkscape:version="1.1.2 (0a00cf5339, 2022-02-04)"
   sodipodi:docname="the-stanley-parable.svg"
   xmlns:inkscape="http://www.inkscape.org/namespaces/inkscape"
   xmlns:sodipodi="http://sodipodi.sourceforge.net/DTD/sodipodi-0.dtd"
   xmlns:xlink="http://www.w3.org/1999/xlink"
   xmlns="http://www.w3.org/2000/svg"
   xmlns:svg="http://www.w3.org/2000/svg"
   xmlns:rdf="http://www.w3.org/1999/02/22-rdf-syntax-ns#"
   xmlns:cc="http://creativecommons.org/ns#"
   xmlns:dc="http://purl.org/dc/elements/1.1/">
  <defs
     id="defs2111">
    <linearGradient
       inkscape:collect="always"
       xlink:href="#linearGradient1630"
       id="linearGradient912"
       gradientUnits="userSpaceOnUse"
       gradientTransform="matrix(0.97573207,0,0,0.97573207,-111.88908,-37.234129)"
       x1="132.21078"
       y1="42.151531"
       x2="132.21078"
       y2="70.679932" />
    <linearGradient
       id="linearGradient1630"
       inkscape:collect="always">
      <stop
         id="stop1626"
         offset="0"
         style="stop-color:#f8fcfc;stop-opacity:1;" />
      <stop
         id="stop1628"
         offset="1"
         style="stop-color:#e3e5e8;stop-opacity:1" />
    </linearGradient>
    <linearGradient
       id="linearGradient895">
      <stop
         id="stop3335"
         offset="0" />
      <stop
         id="stop3337"
         offset="1"
         stop-opacity="0" />
    </linearGradient>
  </defs>
  <sodipodi:namedview
     id="base"
     pagecolor="#ffffff"
     bordercolor="#666666"
     borderopacity="1.0"
     inkscape:pageopacity="0.0"
     inkscape:pageshadow="2"
     inkscape:zoom="3.959798"
     inkscape:cx="0.7576144"
     inkscape:cy="72.099637"
     inkscape:document-units="mm"
     inkscape:current-layer="layer1"
     inkscape:document-rotation="0"
     showgrid="false"
     units="px"
     inkscape:window-width="1920"
     inkscape:window-height="1007"
     inkscape:window-x="0"
     inkscape:window-y="0"
     inkscape:window-maximized="1"
     showguides="true"
     inkscape:guide-bbox="true"
     inkscape:pagecheckerboard="0">
    <sodipodi:guide
       position="33.898569,11.655842"
       orientation="0,-1"
       id="guide1374" />
  </sodipodi:namedview>
  <metadata
     id="metadata2114">
    <rdf:RDF>
      <cc:Work
         rdf:about="">
        <dc:format>image/svg+xml</dc:format>
        <dc:type
           rdf:resource="http://purl.org/dc/dcmitype/StillImage" />
      </cc:Work>
    </rdf:RDF>
  </metadata>
  <g
     inkscape:label="Capa 1"
     inkscape:groupmode="layer"
     id="layer1">
    <g
       style="opacity:0.139618"
       transform="matrix(0.97573206,0,0,0.97573206,-65.829986,-36.914633)"
       id="g1702">
      <rect
         ry="6.6098609"
         rx="6.6098609"
         y="40.709618"
         x="69.839508"
         height="29.810888"
         width="29.810888"
         id="rect1634"
         style="fill:none;fill-opacity:1;stroke:#000000;stroke-width:0.1;stroke-linecap:round;stroke-linejoin:round;stroke-miterlimit:4;stroke-dasharray:none;stroke-opacity:0.02" />
      <rect
         style="fill:none;fill-opacity:1;stroke:#000000;stroke-width:0.2;stroke-linecap:round;stroke-linejoin:round;stroke-miterlimit:4;stroke-dasharray:none;stroke-opacity:0.02"
         id="rect1638"
         width="29.810888"
         height="29.810888"
         x="69.839508"
         y="40.709618"
         rx="6.6098609"
         ry="6.6098609" />
      <rect
         ry="6.6098609"
         rx="6.6098609"
         y="40.709618"
         x="69.839508"
         height="29.810888"
         width="29.810888"
         id="rect1640"
         style="fill:none;fill-opacity:1;stroke:#000000;stroke-width:0.3;stroke-linecap:round;stroke-linejoin:round;stroke-miterlimit:4;stroke-dasharray:none;stroke-opacity:0.02" />
      <rect
         style="fill:none;fill-opacity:1;stroke:#000000;stroke-width:0.4;stroke-linecap:round;stroke-linejoin:round;stroke-miterlimit:4;stroke-dasharray:none;stroke-opacity:0.02"
         id="rect1642"
         width="29.810888"
         height="29.810888"
         x="69.839508"
         y="40.709618"
         rx="6.6098609"
         ry="6.6098609" />
      <rect
         ry="6.6098609"
         rx="6.6098609"
         y="40.709618"
         x="69.839508"
         height="29.810888"
         width="29.810888"
         id="rect1644"
         style="fill:none;fill-opacity:1;stroke:#000000;stroke-width:0.5;stroke-linecap:round;stroke-linejoin:round;stroke-miterlimit:4;stroke-dasharray:none;stroke-opacity:0.02" />
      <rect
         style="fill:none;fill-opacity:1;stroke:#000000;stroke-width:0.6;stroke-linecap:round;stroke-linejoin:round;stroke-miterlimit:4;stroke-dasharray:none;stroke-opacity:0.02"
         id="rect1646"
         width="29.810888"
         height="29.810888"
         x="69.839508"
         y="40.709618"
         rx="6.6098609"
         ry="6.6098609" />
      <rect
         ry="6.6098609"
         rx="6.6098609"
         y="40.709618"
         x="69.839508"
         height="29.810888"
         width="29.810888"
         id="rect1648"
         style="fill:none;fill-opacity:1;stroke:#000000;stroke-width:0.7;stroke-linecap:round;stroke-linejoin:round;stroke-miterlimit:4;stroke-dasharray:none;stroke-opacity:0.02" />
      <rect
         style="fill:none;fill-opacity:1;stroke:#000000;stroke-width:0.8;stroke-linecap:round;stroke-linejoin:round;stroke-miterlimit:4;stroke-dasharray:none;stroke-opacity:0.02"
         id="rect1650"
         width="29.810888"
         height="29.810888"
         x="69.839508"
         y="40.709618"
         rx="6.6098609"
         ry="6.6098609" />
      <rect
         ry="6.6098609"
         rx="6.6098609"
         y="40.709618"
         x="69.839508"
         height="29.810888"
         width="29.810888"
         id="rect1652"
         style="fill:none;fill-opacity:1;stroke:#000000;stroke-width:1;stroke-linecap:round;stroke-linejoin:round;stroke-miterlimit:4;stroke-dasharray:none;stroke-opacity:0.02" />
      <rect
         style="fill:none;fill-opacity:1;stroke:#000000;stroke-width:1.2;stroke-linecap:round;stroke-linejoin:round;stroke-miterlimit:4;stroke-dasharray:none;stroke-opacity:0.02"
         id="rect1654"
         width="29.810888"
         height="29.810888"
         x="69.839508"
         y="40.709618"
         rx="6.6098609"
         ry="6.6098609" />
      <rect
         ry="6.6098609"
         rx="6.6098609"
         y="40.709618"
         x="69.839508"
         height="29.810888"
         width="29.810888"
         id="rect1656"
         style="fill:none;fill-opacity:1;stroke:#000000;stroke-width:1.4;stroke-linecap:round;stroke-linejoin:round;stroke-miterlimit:4;stroke-dasharray:none;stroke-opacity:0.02" />
      <rect
         style="fill:none;fill-opacity:1;stroke:#000000;stroke-width:1.6;stroke-linecap:round;stroke-linejoin:round;stroke-miterlimit:4;stroke-dasharray:none;stroke-opacity:0.02"
         id="rect1658"
         width="29.810888"
         height="29.810888"
         x="69.839508"
         y="40.709618"
         rx="6.6098609"
         ry="6.6098609" />
      <rect
         ry="6.6098609"
         rx="6.6098609"
         y="40.709618"
         x="69.839508"
         height="29.810888"
         width="29.810888"
         id="rect1660"
         style="fill:none;fill-opacity:1;stroke:#000000;stroke-width:1.8;stroke-linecap:round;stroke-linejoin:round;stroke-miterlimit:4;stroke-dasharray:none;stroke-opacity:0.02" />
      <rect
         style="fill:none;fill-opacity:1;stroke:#000000;stroke-width:2;stroke-linecap:round;stroke-linejoin:round;stroke-miterlimit:4;stroke-dasharray:none;stroke-opacity:0.02"
         id="rect1662"
         width="29.810888"
         height="29.810888"
         x="69.839508"
         y="40.709618"
         rx="6.6098609"
         ry="6.6098609" />
      <rect
         ry="6.6098609"
         rx="6.6098609"
         y="40.709618"
         x="69.839508"
         height="29.810888"
         width="29.810888"
         id="rect1664"
         style="fill:none;fill-opacity:1;stroke:#000000;stroke-width:2.2;stroke-linecap:round;stroke-linejoin:round;stroke-miterlimit:4;stroke-dasharray:none;stroke-opacity:0.02" />
      <rect
         style="fill:none;fill-opacity:1;stroke:#000000;stroke-width:2.6;stroke-linecap:round;stroke-linejoin:round;stroke-miterlimit:4;stroke-dasharray:none;stroke-opacity:0.02"
         id="rect1666"
         width="29.810888"
         height="29.810888"
         x="69.839508"
         y="40.709618"
         rx="6.6098609"
         ry="6.6098609" />
      <rect
         ry="6.6098609"
         rx="6.6098609"
         y="40.709618"
         x="69.839508"
         height="29.810888"
         width="29.810888"
         id="rect1668"
         style="fill:none;fill-opacity:1;stroke:#000000;stroke-width:3;stroke-linecap:round;stroke-linejoin:round;stroke-miterlimit:4;stroke-dasharray:none;stroke-opacity:0.02" />
      <rect
         style="fill:none;fill-opacity:1;stroke:#000000;stroke-width:3.4;stroke-linecap:round;stroke-linejoin:round;stroke-miterlimit:4;stroke-dasharray:none;stroke-opacity:0.02"
         id="rect1670"
         width="29.810888"
         height="29.810888"
         x="69.839508"
         y="40.709618"
         rx="6.6098609"
         ry="6.6098609" />
      <rect
         ry="6.6098609"
         rx="6.6098609"
         y="40.709618"
         x="69.839508"
         height="29.810888"
         width="29.810888"
         id="rect1672"
         style="fill:none;fill-opacity:1;stroke:#000000;stroke-width:3.8;stroke-linecap:round;stroke-linejoin:round;stroke-miterlimit:4;stroke-dasharray:none;stroke-opacity:0.02" />
      <rect
         style="fill:none;fill-opacity:1;stroke:#000000;stroke-width:4.2;stroke-linecap:round;stroke-linejoin:round;stroke-miterlimit:4;stroke-dasharray:none;stroke-opacity:0.02"
         id="rect1674"
         width="29.810888"
         height="29.810888"
         x="69.839508"
         y="40.709618"
         rx="6.6098609"
         ry="6.6098609" />
      <rect
         ry="6.6098609"
         rx="6.6098609"
         y="40.709618"
         x="69.839508"
         height="29.810888"
         width="29.810888"
         id="rect1676"
         style="fill:none;fill-opacity:1;stroke:#000000;stroke-width:4.6;stroke-linecap:round;stroke-linejoin:round;stroke-miterlimit:4;stroke-dasharray:none;stroke-opacity:0.02" />
      <rect
         style="fill:none;fill-opacity:1;stroke:#000000;stroke-width:5;stroke-linecap:round;stroke-linejoin:round;stroke-miterlimit:4;stroke-dasharray:none;stroke-opacity:0.02"
         id="rect1678"
         width="29.810888"
         height="29.810888"
         x="69.839508"
         y="40.709618"
         rx="6.6098609"
         ry="6.6098609" />
    </g>
    <rect
       style="fill:url(#linearGradient912);fill-opacity:1;stroke-width:2.68769;stroke-linecap:round;stroke-linejoin:round"
       id="rect910"
       width="29.08744"
       height="29.08744"
       x="2.2835085"
       y="2.4875498"
       rx="6.4494534"
       ry="6.4494534" />
    <g
       id="g1007"
       transform="translate(-0.45128929,0.39350815)">
      <path
         d="M 13.711757,7.943784 C 13.310579,7.9436761 12.930532,8.1236296 12.676386,8.4340389 L 8.6637799,13.338333 c -0.306088,0.374339 -0.3863264,0.884727 -0.20986,1.334924 l 4.0126051,10.254437 c 0.200701,0.512499 0.694835,0.849756 1.245232,0.849892 h 7.13352 c 0.550397,-1.36e-4 1.044531,-0.337393 1.245232,-0.849892 l 4.012605,-10.254437 c 0.176465,-0.450197 0.09624,-0.960585 -0.20986,-1.334924 L 21.880648,8.4340389 C 21.626502,8.1236296 21.246455,7.9436761 20.845277,7.943784 l -3.566761,7.579365 z"
         style="opacity:0.2;stroke-width:0.445844"
         id="path2" />
      <path
         d="M 13.711757,7.4979378 C 13.310579,7.4978299 12.930532,7.6777851 12.676386,7.9881944 L 8.6637799,12.892489 c -0.306088,0.374336 -0.3863264,0.884725 -0.20986,1.334923 l 4.0126051,10.254437 c 0.200701,0.5125 0.694835,0.849754 1.245232,0.849893 h 7.13352 c 0.550397,-1.39e-4 1.044531,-0.337393 1.245232,-0.849893 l 4.012605,-10.254437 c 0.176465,-0.450198 0.09624,-0.960587 -0.20986,-1.334923 L 21.880648,7.9881944 C 21.626502,7.6777851 21.246455,7.4978299 20.845277,7.4979378 l -3.566761,7.5793672 z"
         style="fill:#4f4f4f;stroke-width:0.445844"
         id="path4" />
      <path
         d="M 13.711757,7.4979378 C 13.310579,7.4978299 12.930532,7.6777851 12.676386,7.9881944 L 8.6637799,12.892489 c -0.246204,0.301097 -0.3433608,0.689959 -0.281265,1.064978 0.03862,-0.223348 0.1327,-0.437446 0.281265,-0.619134 L 12.676386,8.4340389 C 12.930532,8.1236296 13.310579,7.9436761 13.711757,7.943784 l 3.566759,7.579365 3.566761,-7.579365 c 0.401178,-1.079e-4 0.781225,0.1798456 1.035371,0.4902549 l 4.012606,4.9042941 c 0.148557,0.181688 0.242638,0.395786 0.281266,0.619134 0.06209,-0.375019 -0.03507,-0.763881 -0.281266,-1.064978 L 21.880648,7.9881944 C 21.626502,7.6777851 21.246455,7.4978299 20.845277,7.4979378 l -3.566761,7.5793672 z"
         style="opacity:0.1;fill:#ffffff;stroke-width:0.445844"
         id="path6" />
      <path
         d="m 13.711757,7.943784 -1.783382,2.67507 1.783382,1.337535 -0.891691,0.891689 4.45845,5.350141 4.458452,-5.350141 -0.891691,-0.891689 1.78338,-1.337535 -1.78338,-2.67507 h -3.566761 z"
         style="opacity:0.2;stroke-width:0.445844"
         id="path8" />
      <path
         d="m 13.711757,7.4979378 -1.783382,2.6750702 1.783382,1.337535 -0.891691,0.891691 4.45845,5.350141 4.458452,-5.350141 -0.891691,-0.891691 1.78338,-1.337535 -1.78338,-2.6750702 h -3.566761 z"
         style="fill:#696969;stroke-width:0.445844"
         id="path10" />
      <path
         d="m 13.711757,7.4979378 -1.783382,2.6750702 0.19854,0.148911 1.584842,-2.37813 h 3.566759 3.566761 l 1.58484,2.37813 0.19854,-0.148911 -1.78338,-2.6750702 h -3.566761 z m -0.255142,4.2677472 -0.636549,0.636549 0.202894,0.24295 0.688797,-0.688795 z m 7.643804,0 -0.255142,0.190704 0.688797,0.688795 0.202894,-0.24295 z"
         style="opacity:0.1;fill:#ffffff;stroke-width:0.445844"
         id="path12" />
      <path
         d="m 13.711757,7.4979378 h 7.13352 L 17.278516,17.752375 Z"
         style="fill:#e4e4e4;stroke-width:0.445844"
         id="path14" />
      <path
         d="m 15.495137,9.7271636 0.89169,2.2292254 -0.445846,2.229225 v 6.687676 l 1.337535,1.337535 1.337535,-1.337535 v -6.687676 l -0.445844,-2.229225 0.891691,-2.2292254 z"
         style="opacity:0.2;stroke-width:0.445844"
         id="path16" />
      <path
         d="m 15.495137,9.2813192 0.89169,2.2292238 -0.445846,2.229226 v 6.687676 l 1.337535,1.337535 1.337535,-1.337535 v -6.687676 l -0.445844,-2.229226 0.891691,-2.2292238 z"
         style="fill:#d32a2c;stroke-width:0.445844"
         id="path18" />
      <path
         d="m 15.495137,9.2813192 0.89169,2.2292238 h 1.78338 l 0.891691,-2.2292238 z"
         style="opacity:0.2;stroke-width:0.445844"
         id="path20" />
      <path
         d="m 13.711757,7.943784 0.445844,3.566759 3.120915,-1.7833794 3.120917,1.7833794 0.445844,-3.566759 z"
         style="opacity:0.2;stroke-width:0.445844"
         id="path22" />
      <path
         d="m 13.711757,7.4979378 0.445844,3.5667612 3.120915,-1.7833798 3.120917,1.7833798 0.445844,-3.5667612 z"
         style="fill:#ffffff;stroke-width:0.445844"
         id="path24" />
    </g>
  </g>
</svg>
