<?xml version="1.0" encoding="UTF-8" standalone="no"?>
<svg
   inkscape:version="1.1.2 (0a00cf5339, 2022-02-04)"
   sodipodi:docname="tizen-studio-ide.svg"
   id="svg6"
   version="1.1"
   viewBox="0 0 33.866666 33.866667"
   height="128"
   width="128"
   xmlns:inkscape="http://www.inkscape.org/namespaces/inkscape"
   xmlns:sodipodi="http://sodipodi.sourceforge.net/DTD/sodipodi-0.dtd"
   xmlns:xlink="http://www.w3.org/1999/xlink"
   xmlns="http://www.w3.org/2000/svg"
   xmlns:svg="http://www.w3.org/2000/svg"
   xmlns:rdf="http://www.w3.org/1999/02/22-rdf-syntax-ns#"
   xmlns:cc="http://creativecommons.org/ns#"
   xmlns:dc="http://purl.org/dc/elements/1.1/">
  <metadata
     id="metadata252">
    <rdf:RDF>
      <cc:Work
         rdf:about="">
        <dc:format>image/svg+xml</dc:format>
        <dc:type
           rdf:resource="http://purl.org/dc/dcmitype/StillImage" />
      </cc:Work>
    </rdf:RDF>
  </metadata>
  <defs
     id="defs2">
    <linearGradient
       id="linearGradient14853"
       inkscape:collect="always">
      <stop
         id="stop14849"
         offset="0"
         style="stop-color:#489af4;stop-opacity:1" />
      <stop
         id="stop14851"
         offset="1"
         style="stop-color:#316ff8;stop-opacity:1" />
    </linearGradient>
    <linearGradient
       id="lgrad"
       x1="32"
       y1="32"
       x2="32"
       y2="992"
       gradientUnits="userSpaceOnUse"
       gradientTransform="translate(0,-896)">
      <stop
         offset="0%"
         stop-color="#f8f8f8"
         id="stop2" />
      <stop
         offset="100%"
         stop-color="#ccc"
         id="stop4" />
    </linearGradient>
    <radialGradient
       id="rgrad"
       x1="0%"
       y1="0%"
       x2="0%"
       y2="100%"
       fx="512"
       fy="494.39999"
       cx="512"
       cy="512"
       r="440"
       gradientUnits="userSpaceOnUse"
       gradientTransform="translate(0,-896)">
      <stop
         offset="0%"
         stop-color="#00f0ff"
         id="stop7" />
      <stop
         offset="100%"
         stop-color="#0070e0"
         id="stop9" />
    </radialGradient>
    <radialGradient
       gradientTransform="matrix(0.03099337,0,0,0.03032562,85.198869,42.985295)"
       gradientUnits="userSpaceOnUse"
       r="440"
       cy="306.1813"
       cx="523.57568"
       fy="306.1813"
       fx="523.57568"
       y2="100%"
       x2="0%"
       y1="0%"
       x1="0%"
       id="rgrad-3">
      <stop
         style="stop-color:#03d7e4;stop-opacity:1"
         id="stop7-6"
         stop-color="#00f0ff"
         offset="0%" />
      <stop
         id="stop9-7"
         stop-color="#0070e0"
         offset="100%" />
    </radialGradient>
    <filter
       id="b"
       color-interpolation-filters="sRGB"
       height="1.024007"
       width="1.023993"
       x="-0.011996"
       y="-0.012004">
      <feGaussianBlur
         stdDeviation=".47521291"
         id="feGaussianBlur7" />
    </filter>
    <linearGradient
       id="k"
       gradientUnits="userSpaceOnUse"
       x1="-350.6571"
       x2="-376.36255"
       y1="-73.89106"
       y2="-319.05783">
      <stop
         offset="0"
         stop-color="#83a3d4"
         id="stop50" />
      <stop
         offset="1"
         stop-color="#6bb5e3"
         id="stop52" />
    </linearGradient>
    <linearGradient
       id="i"
       gradientUnits="userSpaceOnUse"
       x1="-206.76952"
       x2="10.51211"
       y1="-12.925184"
       y2="-156.88734">
      <stop
         offset="0"
         stop-color="#70c2bd"
         id="stop40" />
      <stop
         offset="1"
         stop-color="#67c381"
         id="stop42" />
    </linearGradient>
    <linearGradient
       id="e"
       gradientUnits="userSpaceOnUse"
       x1="134.56509"
       x2="148.51404"
       y1="117.30138"
       y2="-149.18999">
      <stop
         offset="0"
         stop-color="#faaa32"
         id="stop20" />
      <stop
         offset="1"
         stop-color="#fdc22b"
         id="stop22" />
    </linearGradient>
    <linearGradient
       id="c"
       gradientUnits="userSpaceOnUse"
       x1="-146.054"
       x2="123.35784"
       y1="144.89951"
       y2="144.89951">
      <stop
         offset="0"
         stop-color="#a0cf63"
         id="stop10" />
      <stop
         offset="1"
         stop-color="#c4da45"
         id="stop12" />
    </linearGradient>
    <linearGradient
       id="m"
       gradientUnits="userSpaceOnUse"
       x1="206.7137"
       x2="28.495264"
       y1="-12.740612"
       y2="-150.01163">
      <stop
         offset="0"
         stop-color="#b28cc0"
         id="stop60" />
      <stop
         offset="1"
         stop-color="#9a8ec4"
         id="stop62" />
    </linearGradient>
    <linearGradient
       id="q"
       gradientUnits="userSpaceOnUse"
       x1="189.94229"
       x2="-19.617525"
       y1="147.05296"
       y2="76.406288">
      <stop
         offset="0"
         stop-color="#f48155"
         id="stop80" />
      <stop
         offset="1"
         stop-color="#f16168"
         id="stop82" />
    </linearGradient>
    <linearGradient
       id="l"
       gradientUnits="userSpaceOnUse"
       x1="116.504"
       x2="21.156284"
       y1="308.30261"
       y2="34.179653">
      <stop
         offset="0"
         stop-color="#735194"
         id="stop55" />
      <stop
         offset="1"
         stop-color="#525da3"
         id="stop57" />
    </linearGradient>
    <linearGradient
       id="j"
       gradientUnits="userSpaceOnUse"
       x1="30.131145"
       x2="123.3283"
       y1="111.50156"
       y2="-107.16671">
      <stop
         offset="0"
         stop-color="#416db9"
         id="stop45" />
      <stop
         offset="1"
         stop-color="#337e8d"
         id="stop47" />
    </linearGradient>
    <linearGradient
       id="h"
       gradientUnits="userSpaceOnUse"
       x1="-103.67039"
       x2="205.55051"
       y1="133.12218"
       y2="0.071801998">
      <stop
         offset="0"
         stop-color="#2e9274"
         id="stop35" />
      <stop
         offset="1"
         stop-color="#469d3c"
         id="stop37" />
    </linearGradient>
    <linearGradient
       id="f"
       gradientUnits="userSpaceOnUse"
       x1="26.97802"
       x2="146.80986"
       y1="120.22743"
       y2="-100.48971">
      <stop
         offset="0"
         stop-color="#ec4001"
         id="stop25" />
      <stop
         offset="1"
         stop-color="#fb6f01"
         id="stop27" />
    </linearGradient>
    <linearGradient
       id="d"
       gradientUnits="userSpaceOnUse"
       x1="-14.298616"
       x2="309.397"
       y1="73.499695"
       y2="73.499695">
      <stop
         offset="0"
         stop-color="#58a920"
         id="stop15" />
      <stop
         offset="1"
         stop-color="#98b811"
         id="stop17" />
    </linearGradient>
    <linearGradient
       id="o"
       gradientUnits="userSpaceOnUse"
       x1="-123.11901"
       x2="145.987"
       y1="144.897"
       y2="144.897">
      <stop
         offset="0"
         stop-color="#d287af"
         id="stop70" />
      <stop
         offset="1"
         stop-color="#e07993"
         id="stop72" />
    </linearGradient>
    <linearGradient
       id="p"
       gradientUnits="userSpaceOnUse"
       x1="-205.78"
       x2="117.81888"
       y1="-71.695564"
       y2="-71.695564">
      <stop
         offset="0"
         stop-color="#bd090f"
         id="stop75" />
      <stop
         offset="1"
         stop-color="#e11f07"
         id="stop77" />
    </linearGradient>
    <linearGradient
       id="n"
       gradientUnits="userSpaceOnUse"
       x1="0.176406"
       x2="-308.72031"
       y1="-14.582834"
       y2="-143.7106">
      <stop
         offset="0"
         stop-color="#c23857"
         id="stop65" />
      <stop
         offset="1"
         stop-color="#914475"
         id="stop67" />
    </linearGradient>
    <linearGradient
       id="g"
       gradientUnits="userSpaceOnUse"
       x1="41.409683"
       x2="117.31723"
       y1="108.52529"
       y2="319.1076">
      <stop
         offset="0"
         stop-color="#e69e08"
         id="stop30" />
      <stop
         offset="1"
         stop-color="#cbc507"
         id="stop32" />
    </linearGradient>
    <rect
       id="path-1"
       x="0"
       y="0"
       width="120"
       height="120"
       rx="28" />
    <path
       d="M125 104c21.54 0 39-17.46 39-39s-17.46-39-39-39-39 17.46-39 39 17.46 39 39 39zm0 26c-35.899 0-65-29.101-65-65S89.101 0 125 0s65 29.101 65 65-29.101 65-65 65z"
       id="path-3" />
    <path
       id="path-4"
       d="M0 75l129 90.787v35L0 110z" />
    <path
       id="path-5"
       d="M22 65h27v120H22z" />
    <filter
       x="-5.6%"
       y="-1.2%"
       width="111.1%"
       height="102.5%"
       filterUnits="objectBoundingBox"
       id="filter-6">
      <feMorphology
         radius="0.5"
         operator="dilate"
         in="SourceAlpha"
         result="shadowSpreadOuter1"
         id="feMorphology12690" />
      <feOffset
         dx="0"
         dy="0"
         in="shadowSpreadOuter1"
         result="shadowOffsetOuter1"
         id="feOffset12692" />
      <feColorMatrix
         values="0 0 0 0 0 0 0 0 0 0 0 0 0 0 0 0 0 0 0.139945652 0"
         type="matrix"
         in="shadowOffsetOuter1"
         id="feColorMatrix12694" />
    </filter>
    <circle
       id="path-7"
       cx="21"
       cy="21"
       r="21" />
    <filter
       x="-16.7%"
       y="-11.9%"
       width="133.3%"
       height="133.3%"
       filterUnits="objectBoundingBox"
       id="filter-8">
      <feOffset
         dx="0"
         dy="2"
         in="SourceAlpha"
         result="shadowOffsetOuter1"
         id="feOffset12698" />
      <feGaussianBlur
         stdDeviation="2"
         in="shadowOffsetOuter1"
         result="shadowBlurOuter1"
         id="feGaussianBlur12700" />
      <feColorMatrix
         values="0 0 0 0 0 0 0 0 0 0 0 0 0 0 0 0 0 0 0.15197577 0"
         type="matrix"
         in="shadowBlurOuter1"
         id="feColorMatrix12702" />
    </filter>
    <path
       d="M40.74 1.31A21.591 21.591 0 0 1 45 14.2c0 12.155-10.074 22.01-22.5 22.01S0 26.354 0 14.2C0 9.385 1.58 4.932 4.26 1.31 6.447 2.922 9.553 3.928 13 3.928c3.866 0 7.305-1.267 9.5-3.234 2.195 1.967 5.634 3.234 9.5 3.234 3.446 0 6.552-1.006 8.74-2.618z"
       id="path-9" />
    <rect
       id="path-1-2"
       x="0"
       y="0"
       width="120"
       height="120"
       rx="28" />
    <linearGradient
       gradientUnits="userSpaceOnUse"
       y2="4.7340407"
       x2="15.131866"
       y1="27.777664"
       x1="15.131866"
       id="linearGradient14855"
       xlink:href="#linearGradient14853"
       inkscape:collect="always" />
    <linearGradient
       id="linearGradient6088"
       inkscape:swatch="solid">
      <stop
         style="stop-color:#51b3e3;stop-opacity:1;"
         offset="0"
         id="stop6086" />
    </linearGradient>
    <linearGradient
       id="linearGradient6987"
       inkscape:swatch="solid">
      <stop
         style="stop-color:#77d2fb;stop-opacity:1;"
         offset="0"
         id="stop6985" />
    </linearGradient>
    <linearGradient
       id="linearGradient3673">
      <stop
         style="stop-color:#0c0d0d;stop-opacity:1"
         offset="0"
         id="stop3675" />
      <stop
         id="stop3677"
         offset="0.56792831"
         style="stop-color:#333637;stop-opacity:1" />
      <stop
         style="stop-color:#1a1e1f;stop-opacity:1"
         offset="1"
         id="stop3679" />
    </linearGradient>
    <linearGradient
       id="linearGradient3591">
      <stop
         id="stop3593"
         offset="0"
         style="stop-color:#403f3c;stop-opacity:1" />
      <stop
         style="stop-color:#7d898d;stop-opacity:1"
         offset="0.56792831"
         id="stop3669" />
      <stop
         id="stop3595"
         offset="1"
         style="stop-color:#fdffff;stop-opacity:1" />
    </linearGradient>
    <linearGradient
       id="linearGradient3575">
      <stop
         id="stop3577"
         offset="0"
         style="stop-color:#20211f;stop-opacity:1" />
      <stop
         id="stop3579"
         offset="1"
         style="stop-color:#393e3f;stop-opacity:1" />
    </linearGradient>
    <circle
       id="A"
       cx="96"
       cy="96"
       r="88" />
    <path
       id="B"
       d="M8 184h83.77l38.88-38.88V116h-69.3L8 24.48z" />
    <path
       id="F"
       d="M8 184h83.77l38.88-38.88V116h-69.3L8 24.48z" />
    <path
       id="I"
       d="M96 56l34.65 60-38.88 68H184V56z" />
    <path
       id="L"
       d="M21.97 8v40.34L61.36 116 96 56h88V8z" />
    <linearGradient
       id="linearGradient3866">
      <stop
         style="stop-color:#000000;stop-opacity:0.52083331"
         offset="0"
         id="stop3868" />
      <stop
         style="stop-color:#2883c3;stop-opacity:0;"
         offset="1"
         id="stop3870" />
    </linearGradient>
    <linearGradient
       id="linearGradient3874">
      <stop
         style="stop-color:#000d0e;stop-opacity:0.84105963;"
         offset="0"
         id="stop3876" />
      <stop
         style="stop-color:#000000;stop-opacity:0;"
         offset="1"
         id="stop3878" />
    </linearGradient>
    <clipPath
       clipPathUnits="userSpaceOnUse"
       id="clipPath4178">
      <circle
         r="225"
         cy="222.68037"
         cx="204.3168"
         id="circle4180"
         style="opacity:1;fill:#1c5266;fill-opacity:0.19099205;fill-rule:evenodd;stroke:none;stroke-width:3.33392239;stroke-linecap:butt;stroke-linejoin:miter;stroke-miterlimit:4;stroke-dasharray:none;stroke-dashoffset:0;stroke-opacity:1" />
    </clipPath>
    <clipPath
       clipPathUnits="userSpaceOnUse"
       id="clipPath4178-1">
      <circle
         r="225"
         cy="222.68037"
         cx="204.3168"
         id="circle4180-7"
         style="opacity:1;fill:#1c5266;fill-opacity:0.19099205;fill-rule:evenodd;stroke:none;stroke-width:3.33392239;stroke-linecap:butt;stroke-linejoin:miter;stroke-miterlimit:4;stroke-dasharray:none;stroke-dashoffset:0;stroke-opacity:1" />
    </clipPath>
    <linearGradient
       id="linearGradient5048-8">
      <stop
         offset="0"
         style="stop-color:#000000;stop-opacity:0"
         id="stop5050-4" />
      <stop
         offset="0.5"
         style="stop-color:#000000;stop-opacity:1"
         id="stop5056-7" />
      <stop
         offset="1"
         style="stop-color:#000000;stop-opacity:0"
         id="stop5052-0-1" />
    </linearGradient>
    <linearGradient
       id="linearGradient5060-29">
      <stop
         offset="0"
         style="stop-color:#000000;stop-opacity:1"
         id="stop5062-9" />
      <stop
         offset="1"
         style="stop-color:#000000;stop-opacity:0"
         id="stop5064-08" />
    </linearGradient>
    <linearGradient
       id="linearGradient4050-7">
      <stop
         id="stop4052-6"
         offset="0"
         style="stop-color:#ffffff;stop-opacity:0.66929132;" />
      <stop
         id="stop4054-0"
         offset="1"
         style="stop-color:#ffffff;stop-opacity:0;" />
    </linearGradient>
    <linearGradient
       gradientUnits="userSpaceOnUse"
       id="linearGradient4132-3"
       x1="-5.3196001"
       x2="-50.520779"
       gradientTransform="matrix(0,-1,-1,0,0,0)">
      <stop
         offset="0"
         stop-color="#f65454"
         id="stop29-7" />
      <stop
         offset="1"
         stop-color="#740000"
         id="stop31-0" />
    </linearGradient>
    <linearGradient
       gradientUnits="userSpaceOnUse"
       id="linearGradient3298-8-9"
       x1="-39.333229"
       x2="-1.64257"
       gradientTransform="matrix(0,-1,-1,0,0,0)">
      <stop
         offset="0"
         stop-color="#791235"
         id="stop24-3"
         style="stop-color:#5f0e0e;stop-opacity:1;" />
      <stop
         offset="1"
         stop-color="#dd3b27"
         id="stop26-3" />
    </linearGradient>
    <linearGradient
       id="linearGradient8265-821-176-38-919-66-249-7-7">
      <stop
         offset="0"
         style="stop-color:#ffffff;stop-opacity:1"
         id="stop2687-1-9" />
      <stop
         offset="1"
         style="stop-color:#ffffff;stop-opacity:0"
         id="stop2689-5-4" />
    </linearGradient>
    <linearGradient
       id="linearGradient3924">
      <stop
         offset="0"
         style="stop-color:#ffffff;stop-opacity:1;"
         id="stop3926" />
      <stop
         id="stop3928"
         style="stop-color:#ffffff;stop-opacity:0.23529412;"
         offset="0.06316455" />
      <stop
         offset="0.95056331"
         style="stop-color:#ffffff;stop-opacity:0.15686275;"
         id="stop3930" />
      <stop
         offset="1"
         style="stop-color:#ffffff;stop-opacity:0.39215687;"
         id="stop3932" />
    </linearGradient>
    <linearGradient
       id="linearGradient3688-166-749">
      <stop
         offset="0"
         style="stop-color:#181818;stop-opacity:1"
         id="stop2883" />
      <stop
         offset="1"
         style="stop-color:#181818;stop-opacity:0"
         id="stop2885" />
    </linearGradient>
    <linearGradient
       id="linearGradient3702-501-757">
      <stop
         offset="0"
         style="stop-color:#181818;stop-opacity:0"
         id="stop2895" />
      <stop
         offset="0.5"
         style="stop-color:#181818;stop-opacity:1"
         id="stop2897" />
      <stop
         offset="1"
         style="stop-color:#181818;stop-opacity:0"
         id="stop2899" />
    </linearGradient>
    <linearGradient
       id="linearGradient3895-9-0-3">
      <stop
         offset="0"
         style="stop-color:#dc6838;stop-opacity:1"
         id="stop3897-0-5-7" />
      <stop
         offset="1"
         style="stop-color:#ba3d12;stop-opacity:1"
         id="stop3899-8-7-06" />
    </linearGradient>
    <linearGradient
       y2="1044.3767"
       x2="28.53125"
       y1="994.81909"
       x1="28.53125"
       gradientTransform="translate(12,-100)"
       gradientUnits="userSpaceOnUse"
       id="linearGradient4195"
       xlink:href="#linearGradient3895-9-0-3"
       inkscape:collect="always" />
    <linearGradient
       id="linearGradient4067-0-2">
      <stop
         id="stop4069-2-9"
         offset="0"
         style="stop-color:#acffe3;stop-opacity:1" />
      <stop
         id="stop4071-8-9"
         offset="1"
         style="stop-color:#ffffff;stop-opacity:1" />
    </linearGradient>
    <linearGradient
       id="linearGradient4644-104-3-3-6-2">
      <stop
         id="stop5237-6-5-1-7"
         style="stop-color:#51c3cc;stop-opacity:1"
         offset="0" />
      <stop
         id="stop5239-4-6-4-8"
         style="stop-color:#b3efec;stop-opacity:1"
         offset="1" />
    </linearGradient>
    <clipPath
       clipPathUnits="userSpaceOnUse"
       id="clipPath4178-3">
      <circle
         r="225"
         cy="222.68037"
         cx="204.3168"
         id="circle4180-8"
         style="opacity:1;fill:#1c5266;fill-opacity:0.19099205;fill-rule:evenodd;stroke:none;stroke-width:3.33392239;stroke-linecap:butt;stroke-linejoin:miter;stroke-miterlimit:4;stroke-dasharray:none;stroke-dashoffset:0;stroke-opacity:1" />
    </clipPath>
    <clipPath
       clipPathUnits="userSpaceOnUse"
       id="clipPath4178-1-9">
      <circle
         r="225"
         cy="222.68037"
         cx="204.3168"
         id="circle4180-7-3"
         style="opacity:1;fill:#1c5266;fill-opacity:0.19099205;fill-rule:evenodd;stroke:none;stroke-width:3.33392239;stroke-linecap:butt;stroke-linejoin:miter;stroke-miterlimit:4;stroke-dasharray:none;stroke-dashoffset:0;stroke-opacity:1" />
    </clipPath>
    <linearGradient
       gradientUnits="userSpaceOnUse"
       id="linearGradient4132-3-9"
       x1="-5.3196001"
       x2="-50.520779"
       gradientTransform="matrix(0,-1,-1,0,0,0)">
      <stop
         offset="0"
         stop-color="#f65454"
         id="stop29-7-1" />
      <stop
         offset="1"
         stop-color="#740000"
         id="stop31-0-4" />
    </linearGradient>
    <linearGradient
       gradientUnits="userSpaceOnUse"
       id="linearGradient3298-8-9-0"
       x1="-39.333229"
       x2="-1.64257"
       gradientTransform="matrix(0,-1,-1,0,0,0)">
      <stop
         offset="0"
         stop-color="#791235"
         id="stop24-3-4"
         style="stop-color:#5f0e0e;stop-opacity:1;" />
      <stop
         offset="1"
         stop-color="#dd3b27"
         id="stop26-3-7" />
    </linearGradient>
    <clipPath
       clipPathUnits="userSpaceOnUse"
       id="clipPath1181">
      <path
         inkscape:connector-curvature="0"
         id="path1183"
         d="m 73.169042,2.0729899 c -4.75643,0 -8.677879,3.913026 -8.677879,8.6694511 0,1.597075 0.449454,3.093628 1.216815,4.383906 L 55.192233,29.331875 c -1.769375,-0.830604 -3.731172,-1.309549 -5.803049,-1.309549 -2.308902,0 -4.488699,0.580924 -6.404436,1.599001 0.282255,-0.650366 0.249638,-1.438379 -0.348472,-2.1779 l -2.728683,-3.377855 c -0.408469,-0.524715 -1.035239,-0.834981 -1.700172,-0.840249 -1.853264,-0.01512 -2.875971,2.14566 -1.688923,3.568947 l 2.728698,3.389095 c 0.469304,0.580282 1.041207,0.826862 1.601809,0.840246 -2.986949,2.381306 -4.975332,5.970629 -5.207286,10.007104 l -21.166394,2.503884 c -1.142753,-1.810239 -3.149863,-3.032202 -5.4264788,-3.032202 -3.520935,0 -6.415681,2.903169 -6.415681,6.424109 0,3.520933 2.894746,6.415673 6.415681,6.415673 2.3688588,0 4.4360248,-1.324596 5.5501308,-3.254207 L 36.83043,47.46044 c 2.169033,4.789331 6.989907,8.155186 12.558762,8.155186 3.672109,0 7.017717,-1.47001 9.498451,-3.838723 l 2.683737,3.330078 c 1.826842,2.258766 5.213129,-0.481161 3.386287,-2.739943 l -2.728702,-3.377851 c -0.197821,-0.254173 -0.448041,-0.455327 -0.727843,-0.598572 1.071126,-1.957935 1.683311,-4.19947 1.683311,-6.573044 0,-2.953667 -0.952369,-5.694327 -2.554469,-7.947228 L 71.454833,19.234845 c 0.554733,0.112894 1.128378,0.174236 1.714216,0.174236 4.756426,0 8.666638,-3.91022 8.666638,-8.666644 -3e-6,-4.7564251 -3.910212,-8.6694501 -8.666638,-8.6694501 z M 27.570828,7.437651 a 6.1560065,6.1560065 0 0 0 -6.154326,6.154325 6.1560065,6.1560065 0 0 0 6.154326,6.157141 6.1560065,6.1560065 0 0 0 2.38305,-0.486164 L 32.542061,22.475 c 1.826846,2.258774 5.215941,-0.481161 3.389098,-2.739939 L 33.19965,16.357207 c -0.02646,-0.03439 -0.06123,-0.0601 -0.08995,-0.09271 a 6.1560065,6.1560065 0 0 0 0.618255,-2.672519 6.1560065,6.1560065 0 0 0 -6.157139,-6.154324 z m 45.598214,0.07586 c 1.817484,0 3.22891,1.411432 3.22891,3.228913 0,1.817478 -1.411426,3.228916 -3.22891,3.228916 -1.817484,0 -3.240152,-1.411438 -3.240152,-3.228916 0,-1.817481 1.422668,-3.228913 3.240152,-3.228913 z M 49.389184,35.095568 c 3.756128,0 6.733221,2.965848 6.733221,6.721988 0,3.756121 -2.977093,6.724792 -6.733221,6.724792 -3.756136,0 -6.724796,-2.968671 -6.724796,-6.724792 0,-3.75614 2.96866,-6.721988 6.724796,-6.721988 z M 9.0488412,44.526581 c 1.3453818,0 2.3999068,1.054515 2.3998918,2.39991 0,1.345383 -1.05451,2.391473 -2.3998918,2.391473 -1.345397,0 -2.388671,-1.04609 -2.388671,-2.391473 0,-1.345395 1.043274,-2.39991 2.388671,-2.39991 z M 42.759934,54.682623 c -0.792321,-0.0017 -1.587209,0.418783 -1.978375,1.258968 l -1.902504,3.911796 c -1.265855,2.614764 2.657166,4.51446 3.923029,1.899685 l 1.89126,-3.90898 c 0.30085,-0.593004 0.315137,-1.290184 0.03628,-1.894073 -0.387696,-0.841659 -1.177625,-1.265726 -1.969938,-1.267396 z m 24.777483,1.47535 c -1.853261,-0.01512 -2.875975,2.145664 -1.688927,3.568947 l 2.728698,3.386287 c 0.07744,0.09577 0.161915,0.169058 0.244497,0.247256 a 7.8076185,7.8076185 0 0 0 -0.961084,3.734752 7.8076185,7.8076185 0 0 0 7.809535,7.806716 7.8076185,7.8076185 0 0 0 7.806717,-7.806716 7.8076185,7.8076185 0 0 0 -7.806717,-7.809532 7.8076185,7.8076185 0 0 0 -3.788148,0.983573 l -2.647212,-3.273869 c -0.408453,-0.524719 -1.032423,-0.832165 -1.697351,-0.837441 z m -30.50747,6.932749 a 4.9047864,4.9047864 0 0 0 -4.903789,4.903794 4.9047864,4.9047864 0 0 0 4.903789,4.906597 4.9047864,4.9047864 0 0 0 4.906602,-4.906597 4.9047864,4.9047864 0 0 0 -4.906602,-4.903794 z"
         style="color:#000000;font-style:normal;font-variant:normal;font-weight:normal;font-stretch:normal;font-size:medium;line-height:normal;font-family:sans-serif;font-variant-ligatures:normal;font-variant-position:normal;font-variant-caps:normal;font-variant-numeric:normal;font-variant-alternates:normal;font-feature-settings:normal;text-indent:0;text-align:start;text-decoration:none;text-decoration-line:none;text-decoration-style:solid;text-decoration-color:#000000;letter-spacing:normal;word-spacing:normal;text-transform:none;writing-mode:lr-tb;direction:ltr;text-orientation:mixed;dominant-baseline:auto;baseline-shift:baseline;text-anchor:start;white-space:normal;shape-padding:0;clip-rule:nonzero;display:inline;overflow:visible;visibility:visible;opacity:1;isolation:auto;mix-blend-mode:normal;color-interpolation:sRGB;color-interpolation-filters:linearRGB;solid-color:#000000;solid-opacity:1;vector-effect:none;fill:#ffffff;fill-opacity:1;fill-rule:nonzero;stroke:none;stroke-width:4.35044622;stroke-linecap:round;stroke-linejoin:round;stroke-miterlimit:4;stroke-dasharray:4.35044636, 8.70089261;stroke-dashoffset:0;stroke-opacity:1;color-rendering:auto;image-rendering:auto;shape-rendering:auto;text-rendering:auto;enable-background:accumulate" />
    </clipPath>
    <linearGradient
       gradientUnits="userSpaceOnUse"
       y2="1.852"
       y1="15.081"
       x2="7.9373"
       x1="7.9373"
       id="linearGradient862"
       gradientTransform="matrix(1.0000197,0,0,1.0000197,-32.371719,10.067162)">
      <stop
         id="stop4704"
         offset="0"
         stop-color="#2858e4" />
      <stop
         id="stop4706"
         offset="1"
         stop-color="#5ab9f4" />
    </linearGradient>
  </defs>
  <sodipodi:namedview
     inkscape:window-maximized="1"
     inkscape:window-y="0"
     inkscape:window-x="0"
     inkscape:window-height="995"
     inkscape:window-width="1920"
     units="px"
     showgrid="false"
     inkscape:current-layer="layer1"
     inkscape:document-units="mm"
     inkscape:cy="39.237089"
     inkscape:cx="24.905812"
     inkscape:zoom="3.5935388"
     inkscape:pageshadow="2"
     inkscape:pageopacity="0.0"
     borderopacity="1.0"
     bordercolor="#666666"
     pagecolor="#ffffff"
     id="base"
     inkscape:pagecheckerboard="0" />
  <g
     id="layer1"
     inkscape:groupmode="layer"
     inkscape:label="Layer 1">
    <g
       style="opacity:0.296765"
       transform="matrix(0.97573206,0,0,0.97573206,-65.748383,-37.203094)"
       id="g1702">
      <path
         d="m 76.449369,40.709618 h 16.591166 c 3.661863,0 6.609861,2.947998 6.609861,6.609861 v 16.591166 c 0,3.661863 -2.947998,6.609861 -6.609861,6.609861 H 76.449369 c -3.661863,0 -6.609861,-2.947998 -6.609861,-6.609861 V 47.319479 c 0,-3.661863 2.947998,-6.609861 6.609861,-6.609861 z"
         style="fill:none;fill-opacity:1;stroke:#000000;stroke-width:0.1;stroke-linecap:round;stroke-linejoin:round;stroke-miterlimit:4;stroke-dasharray:none;stroke-opacity:0.02"
         id="rect1634" />
      <path
         d="m 76.449369,40.709618 h 16.591166 c 3.661863,0 6.609861,2.947998 6.609861,6.609861 v 16.591166 c 0,3.661863 -2.947998,6.609861 -6.609861,6.609861 H 76.449369 c -3.661863,0 -6.609861,-2.947998 -6.609861,-6.609861 V 47.319479 c 0,-3.661863 2.947998,-6.609861 6.609861,-6.609861 z"
         style="fill:none;fill-opacity:1;stroke:#000000;stroke-width:0.2;stroke-linecap:round;stroke-linejoin:round;stroke-miterlimit:4;stroke-dasharray:none;stroke-opacity:0.02"
         id="rect1638" />
      <path
         d="m 76.449369,40.709618 h 16.591166 c 3.661863,0 6.609861,2.947998 6.609861,6.609861 v 16.591166 c 0,3.661863 -2.947998,6.609861 -6.609861,6.609861 H 76.449369 c -3.661863,0 -6.609861,-2.947998 -6.609861,-6.609861 V 47.319479 c 0,-3.661863 2.947998,-6.609861 6.609861,-6.609861 z"
         style="fill:none;fill-opacity:1;stroke:#000000;stroke-width:0.3;stroke-linecap:round;stroke-linejoin:round;stroke-miterlimit:4;stroke-dasharray:none;stroke-opacity:0.02"
         id="rect1640" />
      <path
         d="m 76.449369,40.709618 h 16.591166 c 3.661863,0 6.609861,2.947998 6.609861,6.609861 v 16.591166 c 0,3.661863 -2.947998,6.609861 -6.609861,6.609861 H 76.449369 c -3.661863,0 -6.609861,-2.947998 -6.609861,-6.609861 V 47.319479 c 0,-3.661863 2.947998,-6.609861 6.609861,-6.609861 z"
         style="fill:none;fill-opacity:1;stroke:#000000;stroke-width:0.4;stroke-linecap:round;stroke-linejoin:round;stroke-miterlimit:4;stroke-dasharray:none;stroke-opacity:0.02"
         id="rect1642" />
      <path
         d="m 76.449369,40.709618 h 16.591166 c 3.661863,0 6.609861,2.947998 6.609861,6.609861 v 16.591166 c 0,3.661863 -2.947998,6.609861 -6.609861,6.609861 H 76.449369 c -3.661863,0 -6.609861,-2.947998 -6.609861,-6.609861 V 47.319479 c 0,-3.661863 2.947998,-6.609861 6.609861,-6.609861 z"
         style="fill:none;fill-opacity:1;stroke:#000000;stroke-width:0.5;stroke-linecap:round;stroke-linejoin:round;stroke-miterlimit:4;stroke-dasharray:none;stroke-opacity:0.02"
         id="rect1644" />
      <path
         d="m 76.449369,40.709618 h 16.591166 c 3.661863,0 6.609861,2.947998 6.609861,6.609861 v 16.591166 c 0,3.661863 -2.947998,6.609861 -6.609861,6.609861 H 76.449369 c -3.661863,0 -6.609861,-2.947998 -6.609861,-6.609861 V 47.319479 c 0,-3.661863 2.947998,-6.609861 6.609861,-6.609861 z"
         style="fill:none;fill-opacity:1;stroke:#000000;stroke-width:0.6;stroke-linecap:round;stroke-linejoin:round;stroke-miterlimit:4;stroke-dasharray:none;stroke-opacity:0.02"
         id="rect1646" />
      <path
         d="m 76.449369,40.709618 h 16.591166 c 3.661863,0 6.609861,2.947998 6.609861,6.609861 v 16.591166 c 0,3.661863 -2.947998,6.609861 -6.609861,6.609861 H 76.449369 c -3.661863,0 -6.609861,-2.947998 -6.609861,-6.609861 V 47.319479 c 0,-3.661863 2.947998,-6.609861 6.609861,-6.609861 z"
         style="fill:none;fill-opacity:1;stroke:#000000;stroke-width:0.7;stroke-linecap:round;stroke-linejoin:round;stroke-miterlimit:4;stroke-dasharray:none;stroke-opacity:0.02"
         id="rect1648" />
      <path
         d="m 76.449369,40.709618 h 16.591166 c 3.661863,0 6.609861,2.947998 6.609861,6.609861 v 16.591166 c 0,3.661863 -2.947998,6.609861 -6.609861,6.609861 H 76.449369 c -3.661863,0 -6.609861,-2.947998 -6.609861,-6.609861 V 47.319479 c 0,-3.661863 2.947998,-6.609861 6.609861,-6.609861 z"
         style="fill:none;fill-opacity:1;stroke:#000000;stroke-width:0.8;stroke-linecap:round;stroke-linejoin:round;stroke-miterlimit:4;stroke-dasharray:none;stroke-opacity:0.02"
         id="rect1650" />
      <path
         d="m 76.449369,40.709618 h 16.591166 c 3.661863,0 6.609861,2.947998 6.609861,6.609861 v 16.591166 c 0,3.661863 -2.947998,6.609861 -6.609861,6.609861 H 76.449369 c -3.661863,0 -6.609861,-2.947998 -6.609861,-6.609861 V 47.319479 c 0,-3.661863 2.947998,-6.609861 6.609861,-6.609861 z"
         style="fill:none;fill-opacity:1;stroke:#000000;stroke-width:1;stroke-linecap:round;stroke-linejoin:round;stroke-miterlimit:4;stroke-dasharray:none;stroke-opacity:0.02"
         id="rect1652" />
      <path
         d="m 76.449369,40.709618 h 16.591166 c 3.661863,0 6.609861,2.947998 6.609861,6.609861 v 16.591166 c 0,3.661863 -2.947998,6.609861 -6.609861,6.609861 H 76.449369 c -3.661863,0 -6.609861,-2.947998 -6.609861,-6.609861 V 47.319479 c 0,-3.661863 2.947998,-6.609861 6.609861,-6.609861 z"
         style="fill:none;fill-opacity:1;stroke:#000000;stroke-width:1.2;stroke-linecap:round;stroke-linejoin:round;stroke-miterlimit:4;stroke-dasharray:none;stroke-opacity:0.02"
         id="rect1654" />
      <path
         d="m 76.449369,40.709618 h 16.591166 c 3.661863,0 6.609861,2.947998 6.609861,6.609861 v 16.591166 c 0,3.661863 -2.947998,6.609861 -6.609861,6.609861 H 76.449369 c -3.661863,0 -6.609861,-2.947998 -6.609861,-6.609861 V 47.319479 c 0,-3.661863 2.947998,-6.609861 6.609861,-6.609861 z"
         style="fill:none;fill-opacity:1;stroke:#000000;stroke-width:1.4;stroke-linecap:round;stroke-linejoin:round;stroke-miterlimit:4;stroke-dasharray:none;stroke-opacity:0.02"
         id="rect1656" />
      <path
         d="m 76.449369,40.709618 h 16.591166 c 3.661863,0 6.609861,2.947998 6.609861,6.609861 v 16.591166 c 0,3.661863 -2.947998,6.609861 -6.609861,6.609861 H 76.449369 c -3.661863,0 -6.609861,-2.947998 -6.609861,-6.609861 V 47.319479 c 0,-3.661863 2.947998,-6.609861 6.609861,-6.609861 z"
         style="fill:none;fill-opacity:1;stroke:#000000;stroke-width:1.6;stroke-linecap:round;stroke-linejoin:round;stroke-miterlimit:4;stroke-dasharray:none;stroke-opacity:0.02"
         id="rect1658" />
      <path
         d="m 76.449369,40.709618 h 16.591166 c 3.661863,0 6.609861,2.947998 6.609861,6.609861 v 16.591166 c 0,3.661863 -2.947998,6.609861 -6.609861,6.609861 H 76.449369 c -3.661863,0 -6.609861,-2.947998 -6.609861,-6.609861 V 47.319479 c 0,-3.661863 2.947998,-6.609861 6.609861,-6.609861 z"
         style="fill:none;fill-opacity:1;stroke:#000000;stroke-width:1.8;stroke-linecap:round;stroke-linejoin:round;stroke-miterlimit:4;stroke-dasharray:none;stroke-opacity:0.02"
         id="rect1660" />
      <path
         d="m 76.449369,40.709618 h 16.591166 c 3.661863,0 6.609861,2.947998 6.609861,6.609861 v 16.591166 c 0,3.661863 -2.947998,6.609861 -6.609861,6.609861 H 76.449369 c -3.661863,0 -6.609861,-2.947998 -6.609861,-6.609861 V 47.319479 c 0,-3.661863 2.947998,-6.609861 6.609861,-6.609861 z"
         style="fill:none;fill-opacity:1;stroke:#000000;stroke-width:2;stroke-linecap:round;stroke-linejoin:round;stroke-miterlimit:4;stroke-dasharray:none;stroke-opacity:0.02"
         id="rect1662" />
      <path
         d="m 76.449369,40.709618 h 16.591166 c 3.661863,0 6.609861,2.947998 6.609861,6.609861 v 16.591166 c 0,3.661863 -2.947998,6.609861 -6.609861,6.609861 H 76.449369 c -3.661863,0 -6.609861,-2.947998 -6.609861,-6.609861 V 47.319479 c 0,-3.661863 2.947998,-6.609861 6.609861,-6.609861 z"
         style="fill:none;fill-opacity:1;stroke:#000000;stroke-width:2.2;stroke-linecap:round;stroke-linejoin:round;stroke-miterlimit:4;stroke-dasharray:none;stroke-opacity:0.02"
         id="rect1664" />
      <path
         d="m 76.449369,40.709618 h 16.591166 c 3.661863,0 6.609861,2.947998 6.609861,6.609861 v 16.591166 c 0,3.661863 -2.947998,6.609861 -6.609861,6.609861 H 76.449369 c -3.661863,0 -6.609861,-2.947998 -6.609861,-6.609861 V 47.319479 c 0,-3.661863 2.947998,-6.609861 6.609861,-6.609861 z"
         style="fill:none;fill-opacity:1;stroke:#000000;stroke-width:2.6;stroke-linecap:round;stroke-linejoin:round;stroke-miterlimit:4;stroke-dasharray:none;stroke-opacity:0.02"
         id="rect1666" />
      <path
         d="m 76.449369,40.709618 h 16.591166 c 3.661863,0 6.609861,2.947998 6.609861,6.609861 v 16.591166 c 0,3.661863 -2.947998,6.609861 -6.609861,6.609861 H 76.449369 c -3.661863,0 -6.609861,-2.947998 -6.609861,-6.609861 V 47.319479 c 0,-3.661863 2.947998,-6.609861 6.609861,-6.609861 z"
         style="fill:none;fill-opacity:1;stroke:#000000;stroke-width:3;stroke-linecap:round;stroke-linejoin:round;stroke-miterlimit:4;stroke-dasharray:none;stroke-opacity:0.02"
         id="rect1668" />
      <path
         d="m 76.449369,40.709618 h 16.591166 c 3.661863,0 6.609861,2.947998 6.609861,6.609861 v 16.591166 c 0,3.661863 -2.947998,6.609861 -6.609861,6.609861 H 76.449369 c -3.661863,0 -6.609861,-2.947998 -6.609861,-6.609861 V 47.319479 c 0,-3.661863 2.947998,-6.609861 6.609861,-6.609861 z"
         style="fill:none;fill-opacity:1;stroke:#000000;stroke-width:3.4;stroke-linecap:round;stroke-linejoin:round;stroke-miterlimit:4;stroke-dasharray:none;stroke-opacity:0.02"
         id="rect1670" />
      <path
         d="m 76.449369,40.709618 h 16.591166 c 3.661863,0 6.609861,2.947998 6.609861,6.609861 v 16.591166 c 0,3.661863 -2.947998,6.609861 -6.609861,6.609861 H 76.449369 c -3.661863,0 -6.609861,-2.947998 -6.609861,-6.609861 V 47.319479 c 0,-3.661863 2.947998,-6.609861 6.609861,-6.609861 z"
         style="fill:none;fill-opacity:1;stroke:#000000;stroke-width:3.8;stroke-linecap:round;stroke-linejoin:round;stroke-miterlimit:4;stroke-dasharray:none;stroke-opacity:0.02"
         id="rect1672" />
      <path
         d="m 76.449369,40.709618 h 16.591166 c 3.661863,0 6.609861,2.947998 6.609861,6.609861 v 16.591166 c 0,3.661863 -2.947998,6.609861 -6.609861,6.609861 H 76.449369 c -3.661863,0 -6.609861,-2.947998 -6.609861,-6.609861 V 47.319479 c 0,-3.661863 2.947998,-6.609861 6.609861,-6.609861 z"
         style="fill:none;fill-opacity:1;stroke:#000000;stroke-width:4.2;stroke-linecap:round;stroke-linejoin:round;stroke-miterlimit:4;stroke-dasharray:none;stroke-opacity:0.02"
         id="rect1674" />
      <path
         d="m 76.449369,40.709618 h 16.591166 c 3.661863,0 6.609861,2.947998 6.609861,6.609861 v 16.591166 c 0,3.661863 -2.947998,6.609861 -6.609861,6.609861 H 76.449369 c -3.661863,0 -6.609861,-2.947998 -6.609861,-6.609861 V 47.319479 c 0,-3.661863 2.947998,-6.609861 6.609861,-6.609861 z"
         style="fill:none;fill-opacity:1;stroke:#000000;stroke-width:4.6;stroke-linecap:round;stroke-linejoin:round;stroke-miterlimit:4;stroke-dasharray:none;stroke-opacity:0.02"
         id="rect1676" />
      <path
         d="m 76.449369,40.709618 h 16.591166 c 3.661863,0 6.609861,2.947998 6.609861,6.609861 v 16.591166 c 0,3.661863 -2.947998,6.609861 -6.609861,6.609861 H 76.449369 c -3.661863,0 -6.609861,-2.947998 -6.609861,-6.609861 V 47.319479 c 0,-3.661863 2.947998,-6.609861 6.609861,-6.609861 z"
         style="fill:none;fill-opacity:1;stroke:#000000;stroke-width:5;stroke-linecap:round;stroke-linejoin:round;stroke-miterlimit:4;stroke-dasharray:none;stroke-opacity:0.02"
         id="rect1678" />
    </g>
    <rect
       ry="6.4494534"
       rx="6.4494534"
       y="2.5185876"
       x="2.4065466"
       height="29.087439"
       width="29.087439"
       id="rect849"
       style="fill:url(#linearGradient14855);fill-opacity:1;stroke-width:2.68768;stroke-linecap:round;stroke-linejoin:round" />
    <g
       transform="scale(0.26458333)"
       id="g13037" />
    <path
       style="opacity:0.2;stroke-width:0.499832"
       d="m 16.566827,7.2980752 c -0.02609,-4.987e-4 -0.05118,0.00472 -0.0736,0.016435 -1.257305,0.7992267 -3.020549,1.9116353 -3.455199,3.2732598 -0.135941,0.450896 -0.07581,0.617757 -0.0017,0.981208 0.122926,0.437311 0.379791,1.010628 0.66573,1.487048 0.18521,0.308595 0.795227,1.122893 0.841224,1.122893 0.844936,-0.554629 1.677887,-1.710114 2.358108,-2.404239 V 9.9560207 c 0,-1.9731793 -0.02006,-2.3629106 -0.129065,-2.5238739 -0.04101,-0.080779 -0.127252,-0.1328059 -0.205492,-0.1340716 z m -3.860528,3.9283778 c -0.04447,0.0011 -0.114462,0.174253 -0.155664,0.385224 -0.106887,0.547052 -0.582721,2.495187 -0.794238,3.252772 -0.171722,0.615033 -0.232518,1.275481 -0.133032,1.441956 0.07373,0.12338 1.324235,0.591079 3.113532,1.164466 0.868261,0.278237 1.005414,0.272703 1.180311,-0.04509 0.266443,-0.484155 0.3079,-0.400129 -1.363729,-2.76099 -1.31947,-1.863504 -1.494545,-2.178639 -1.673949,-3.012146 -0.05069,-0.235516 -0.128744,-0.427208 -0.173214,-0.426205 z m 9.119245,0.057 c -0.06287,-0.0013 -0.137019,0.0023 -0.214553,0.01171 -0.536099,0.06391 -2.474324,0.197575 -3.236365,0.223635 -0.618663,0.02114 -1.316914,0.165677 -1.439275,0.314982 -0.09066,0.110628 -0.06274,1.999276 -0.0371,3.936356 0.01247,0.93998 0.06017,1.073083 0.406464,1.146897 0.527571,0.11246 0.463235,-0.03497 2.11776,-2.408669 1.305957,-1.873645 1.541432,-2.443133 2.252493,-2.877151 0.200926,-0.122643 0.353199,-0.258652 0.338532,-0.302095 -0.0093,-0.02715 -0.08316,-0.04339 -0.18795,-0.04566 z m 0.878014,0.174461 c -0.456659,0.0057 -0.59159,0.116295 -0.902919,0.301503 -0.364167,0.256049 -0.812428,0.985656 -1.162202,1.414109 -0.226543,0.277534 -0.78636,1.129182 -0.772148,1.174413 0.771143,0.659669 1.640033,1.565986 2.488557,2.020527 l 2.145504,-0.721273 c 1.814564,-0.609755 2.166463,-0.964305 2.280803,-1.121277 0.0616,-0.06531 0.08303,-0.166206 0.06002,-0.243545 -0.0077,-0.02577 -0.02014,-0.04893 -0.03793,-0.06733 -1.123508,-0.989671 -2.713184,-2.750382 -4.099673,-2.75713 z m -15.5472644,3.45162 c -0.04215,0 -0.07464,0.0049 -0.103033,0.01398 -0.08696,0.0153 -0.161483,0.08443 -0.186816,0.160992 -0.0085,0.02554 -0.0119,0.05159 -0.0079,0.07728 0.346459,1.483625 0.802344,3.632182 1.92021,4.480461 0.372643,0.273029 0.544653,0.265595 0.901786,0.305016 0.4401454,0.01417 1.0466954,-0.06153 1.5731824,-0.195546 0.341015,-0.08681 1.278753,-0.434831 1.292965,-0.480064 -0.248954,-1.002454 -0.559141,-2.090559 -0.987273,-2.974091 L 9.4138666,15.57692 c -1.531038,-0.514467 -2.029954,-0.666973 -2.257598,-0.667406 z m 15.1249574,1.515722 c -0.253769,-0.0011 -1.48036,0.370653 -3.142965,0.955457 -0.86058,0.302703 -0.96809,0.390652 -0.928968,0.754062 0.0596,0.553658 -0.02161,0.510675 2.672543,1.404494 2.126605,0.705526 2.447118,0.854452 3.065977,1.419723 0.174876,0.159726 0.346697,0.267299 0.382116,0.239449 0.03542,-0.02785 -0.0062,-0.210574 -0.09283,-0.406304 -0.224446,-0.507547 -0.946898,-2.373131 -1.206351,-3.114592 -0.210634,-0.601968 -0.536481,-1.172808 -0.711583,-1.247021 -0.0081,-0.0036 -0.02103,-0.0051 -0.03793,-0.0053 z m -6.758624,2.22882 c -0.313522,-6.99e-4 -0.930135,0.214512 -2.525921,0.757564 -2.121441,0.721944 -2.465383,0.796536 -3.2873194,0.715423 -0.232252,-0.02293 -0.432688,-0.0055 -0.445521,0.03863 -0.01285,0.04406 0.124985,0.166508 0.306262,0.272241 0.4700484,0.274179 2.1142464,1.858817 2.7455694,2.300957 0.512528,0.358961 1.101193,0.623078 1.285035,0.576674 0.136244,-0.0344 0.952638,-1.634485 2.032844,-3.217195 0.524183,-0.76802 0.561444,-0.90478 0.323249,-1.175001 -0.147428,-0.167244 -0.219685,-0.268766 -0.434198,-0.269301 z m 2.055499,0.672672 c -0.0645,0.0021 -0.131767,0.02554 -0.21229,0.06323 -0.490735,0.229722 -0.47647,0.136376 -0.465895,3.062493 0.0083,2.309687 -0.02919,2.671383 -0.357771,3.454743 -0.09285,0.221363 -0.139021,0.423401 -0.102466,0.44963 0.03655,0.02624 0.192081,-0.07099 0.345327,-0.216615 0.397384,-0.3776 1.889124,-1.664875 2.49082,-2.149195 0.488489,-0.393185 0.91313,-0.890268 0.927262,-1.085421 0.01039,-0.144632 -0.735109,-1.283201 -1.85679,-2.834749 -0.408222,-0.56468 -0.5747,-0.750244 -0.768194,-0.744119 z m 3.594141,0.597743 c -0.003,5.01e-4 -0.0049,8.01e-4 -0.0062,0.0018 -0.368346,0.962326 -0.735797,2.031247 -0.891597,3.006291 l 1.325795,1.887494 c 1.121463,1.596326 1.359537,1.899063 1.53922,1.963016 0.07908,0.04043 0.178277,0.03015 0.24229,-0.01644 0.02135,-0.01549 0.03895,-0.03478 0.05038,-0.05796 0.562932,-1.410882 1.415168,-3.426124 0.992934,-4.791918 -0.146313,-0.44742 -0.289949,-0.546051 -0.556481,-0.79504 -0.347989,-0.279065 -0.881438,-0.586354 -1.383538,-0.797971 -0.315069,-0.132787 -1.222545,-0.407676 -1.312779,-0.399283 z m -6.080439,3.388153 c -0.516985,0.0026 -1.027184,0.03193 -1.499587,0.105961 l -1.326362,1.372756 c -1.12146,1.596331 -1.32647,1.923995 -1.329765,2.120499 -0.01266,0.09028 0.02743,0.184436 0.09002,0.233015 0.02086,0.01625 0.04423,0.02752 0.06905,0.0316 1.471428,0.117693 3.587794,0.333276 4.713319,-0.504077 0.366244,-0.282158 0.412688,-0.454198 0.559307,-0.793291 0.14909,-0.428509 0.266802,-1.048393 0.306259,-1.607644 0.02554,-0.362242 -0.0053,-0.877008 -0.04245,-0.904974 -0.499403,-0.03246 -1.022796,-0.05645 -1.539787,-0.05386 z"
       id="path8" />
    <path
       style="fill:#ffffff;stroke-width:0.499832"
       d="m 16.566827,6.7982435 c -0.02609,-5.006e-4 -0.05118,0.00472 -0.0736,0.016435 -1.257305,0.7992267 -3.020549,1.9116353 -3.455199,3.2732595 -0.135941,0.450896 -0.07581,0.617757 -0.0017,0.981209 0.122926,0.437311 0.379791,1.010628 0.66573,1.487049 0.18521,0.308593 0.795227,1.122893 0.841224,1.122893 0.844936,-0.554631 1.677887,-1.710116 2.358108,-2.404241 V 9.4562344 c 0,-1.9731794 -0.02006,-2.3629107 -0.129065,-2.523874 -0.04101,-0.080798 -0.127252,-0.1328058 -0.205492,-0.1340716 z m -3.860528,3.9283755 c -0.04447,0.0011 -0.114462,0.174254 -0.155664,0.385224 -0.106887,0.547053 -0.582721,2.495188 -0.794238,3.252772 -0.171722,0.615033 -0.232518,1.275481 -0.133032,1.441957 0.07373,0.123379 1.324235,0.591078 3.113532,1.164465 0.868261,0.278237 1.005414,0.272704 1.180311,-0.04509 0.266443,-0.484156 0.3079,-0.400127 -1.363729,-2.760991 -1.31947,-1.863504 -1.494545,-2.178637 -1.673949,-3.012146 -0.05069,-0.235516 -0.128744,-0.427208 -0.173214,-0.426205 z m 9.119245,0.057 c -0.06287,-0.0013 -0.137019,0.0023 -0.214553,0.01171 -0.536099,0.06391 -2.474324,0.197573 -3.236365,0.223636 -0.618663,0.02114 -1.316914,0.165676 -1.439275,0.314982 -0.09066,0.110627 -0.06274,1.999276 -0.0371,3.936356 0.01247,0.93998 0.06017,1.073082 0.406464,1.146896 0.527571,0.11246 0.463235,-0.03497 2.11776,-2.408669 1.305957,-1.873647 1.541432,-2.443133 2.252493,-2.877151 0.200926,-0.122642 0.353199,-0.258652 0.338532,-0.302094 -0.0093,-0.02715 -0.08316,-0.04339 -0.18795,-0.04566 z m 0.878014,0.174462 c -0.456659,0.0057 -0.59159,0.116294 -0.902919,0.301503 -0.364167,0.256049 -0.812428,0.985653 -1.162202,1.414108 -0.226543,0.277534 -0.78636,1.129182 -0.772148,1.174414 0.771143,0.659669 1.640033,1.565985 2.488557,2.020527 l 2.145504,-0.721274 c 1.814564,-0.609755 2.166463,-0.964307 2.280803,-1.121278 0.0616,-0.06531 0.08303,-0.166206 0.06002,-0.243543 -0.0077,-0.02577 -0.02014,-0.04893 -0.03793,-0.06733 -1.123508,-0.98967 -2.713184,-2.750382 -4.099673,-2.757128 z M 7.1562936,14.40969 c -0.04215,0 -0.07464,0.0049 -0.103033,0.01398 -0.08696,0.0153 -0.161483,0.08443 -0.186816,0.160992 -0.0085,0.02554 -0.0119,0.05159 -0.0079,0.07728 0.346459,1.483625 0.802344,3.632183 1.92021,4.480461 0.372643,0.273029 0.544653,0.265595 0.901786,0.305015 0.4401454,0.01417 1.0466954,-0.06151 1.5731824,-0.195545 0.341015,-0.08681 1.278753,-0.434831 1.292965,-0.480064 -0.248989,-1.002454 -0.559176,-2.090559 -0.987308,-2.974092 L 9.4138846,15.077029 c -1.531037,-0.514467 -2.029953,-0.666972 -2.257597,-0.667405 z m 15.1249574,1.515721 c -0.253769,-0.0011 -1.48036,0.370653 -3.142965,0.955458 -0.86058,0.302703 -0.96809,0.390653 -0.928968,0.754063 0.0596,0.553657 -0.02161,0.510674 2.672543,1.404493 2.126605,0.705526 2.447118,0.854454 3.065977,1.419723 0.174876,0.159726 0.346697,0.267298 0.382116,0.239449 0.03542,-0.02785 -0.0062,-0.210572 -0.09283,-0.406305 -0.224446,-0.507547 -0.946898,-2.373131 -1.206351,-3.114591 -0.210634,-0.601968 -0.536481,-1.172808 -0.711583,-1.247019 -0.0081,-0.0036 -0.02103,-0.0051 -0.03793,-0.0053 z m -6.758624,2.228821 c -0.313522,-6.99e-4 -0.930135,0.214514 -2.525921,0.757563 -2.121441,0.721945 -2.465383,0.796537 -3.2873194,0.715423 -0.232252,-0.02293 -0.432688,-0.0055 -0.445521,0.03863 -0.01285,0.04406 0.124985,0.166508 0.306262,0.272241 0.4700484,0.274179 2.1142464,1.858817 2.7455694,2.300956 0.512528,0.358961 1.101193,0.623079 1.285035,0.576674 0.136244,-0.0344 0.952638,-1.634484 2.032844,-3.217194 0.524183,-0.76802 0.561444,-0.90478 0.323249,-1.174999 -0.147428,-0.167245 -0.219685,-0.268768 -0.434198,-0.269303 z m 2.055499,0.672673 c -0.0645,0.0021 -0.131767,0.02554 -0.21229,0.06323 -0.490735,0.229722 -0.47647,0.136376 -0.465895,3.062495 0.0083,2.309684 -0.02919,2.671381 -0.357771,3.454741 -0.09285,0.221362 -0.139021,0.423401 -0.102466,0.44963 0.03655,0.02624 0.192081,-0.07099 0.345327,-0.216616 0.397384,-0.377599 1.889124,-1.664873 2.49082,-2.149195 0.488489,-0.393184 0.91313,-0.890267 0.927262,-1.085418 0.01039,-0.144632 -0.735109,-1.283203 -1.85679,-2.834751 -0.408222,-0.56468 -0.5747,-0.750244 -0.768194,-0.744119 z m 3.594141,0.597744 c -0.003,4.99e-4 -0.0049,7.99e-4 -0.0062,0.0018 -0.368346,0.962327 -0.735797,2.031248 -0.891597,3.006292 l 1.325795,1.887494 c 1.121463,1.596328 1.359537,1.899063 1.53922,1.963016 0.07908,0.04043 0.178277,0.03015 0.24229,-0.01644 0.02135,-0.01549 0.03895,-0.03478 0.05038,-0.05796 0.562932,-1.410882 1.415168,-3.426124 0.992934,-4.791918 -0.146313,-0.44742 -0.289949,-0.546051 -0.556481,-0.795039 -0.347989,-0.279066 -0.881438,-0.586356 -1.383538,-0.79797 -0.315069,-0.132787 -1.222545,-0.407678 -1.312779,-0.399285 z M 15.091828,22.8128 c -0.516985,0.0026 -1.027184,0.03193 -1.499587,0.105961 l -1.326362,1.372755 c -1.12146,1.596332 -1.32647,1.923996 -1.329765,2.1205 -0.01266,0.09028 0.02743,0.184435 0.09002,0.233014 0.02086,0.01625 0.04423,0.02753 0.06905,0.03161 1.471428,0.117692 3.587794,0.333276 4.713319,-0.504077 0.366244,-0.282159 0.412688,-0.454198 0.559307,-0.793291 0.14909,-0.42851 0.266802,-1.048394 0.306259,-1.607644 0.02554,-0.362241 -0.0053,-0.877006 -0.04245,-0.904973 -0.499403,-0.03245 -1.022796,-0.05645 -1.539787,-0.05386 z"
       id="path10" />
  </g>
  <style
     id="style15307"><![CDATA[.B{clip-path:url(#C)}.C{fill:#3e2723}.D{fill-opacity:.15}.E{fill-opacity:.2}]]></style>
</svg>
