<?xml version="1.0" encoding="UTF-8" standalone="no"?>
<svg
   width="128"
   height="128"
   viewBox="0 0 33.866666 33.866668"
   version="1.1"
   id="svg1083"
   inkscape:version="1.1.2 (0a00cf5339, 2022-02-04)"
   sodipodi:docname="tools-check-spelling.svg"
   xmlns:inkscape="http://www.inkscape.org/namespaces/inkscape"
   xmlns:sodipodi="http://sodipodi.sourceforge.net/DTD/sodipodi-0.dtd"
   xmlns:xlink="http://www.w3.org/1999/xlink"
   xmlns="http://www.w3.org/2000/svg"
   xmlns:svg="http://www.w3.org/2000/svg"
   xmlns:rdf="http://www.w3.org/1999/02/22-rdf-syntax-ns#"
   xmlns:cc="http://creativecommons.org/ns#"
   xmlns:dc="http://purl.org/dc/elements/1.1/">
  <defs
     id="defs1077">
    <linearGradient
       inkscape:collect="always"
       id="linearGradient1156">
      <stop
         style="stop-color:#f9f9f9;stop-opacity:1"
         offset="0"
         id="stop1152" />
      <stop
         style="stop-color:#d8dcdd;stop-opacity:1"
         offset="1"
         id="stop1154" />
    </linearGradient>
    <radialGradient
       inkscape:collect="always"
       xlink:href="#linearGradient1630"
       id="radialGradient999"
       cx="16.921562"
       cy="3.5764127"
       fx="16.921562"
       fy="3.5764127"
       r="14.543719"
       gradientUnits="userSpaceOnUse"
       gradientTransform="matrix(3.212266,0,0,1.9627628,-37.296757,-3.4311506)" />
    <linearGradient
       id="linearGradient1630"
       inkscape:collect="always">
      <stop
         id="stop1626"
         offset="0"
         style="stop-color:#646067;stop-opacity:1" />
      <stop
         id="stop1628"
         offset="1"
         style="stop-color:#323038;stop-opacity:1" />
    </linearGradient>
    <linearGradient
       inkscape:collect="always"
       xlink:href="#linearGradient1156"
       id="linearGradient1158"
       x1="61.499733"
       y1="16.866129"
       x2="61.499733"
       y2="111.49811"
       gradientUnits="userSpaceOnUse" />
  </defs>
  <sodipodi:namedview
     id="base"
     pagecolor="#ffffff"
     bordercolor="#666666"
     borderopacity="1.0"
     inkscape:pageopacity="0.0"
     inkscape:pageshadow="2"
     inkscape:zoom="1.979899"
     inkscape:cx="-62.124381"
     inkscape:cy="27.526656"
     inkscape:document-units="mm"
     inkscape:current-layer="rect888"
     inkscape:document-rotation="0"
     showgrid="false"
     units="px"
     inkscape:window-width="1920"
     inkscape:window-height="1030"
     inkscape:window-x="0"
     inkscape:window-y="24"
     inkscape:window-maximized="1"
     inkscape:pagecheckerboard="0" />
  <metadata
     id="metadata1080">
    <rdf:RDF>
      <cc:Work
         rdf:about="">
        <dc:format>image/svg+xml</dc:format>
        <dc:type
           rdf:resource="http://purl.org/dc/dcmitype/StillImage" />
      </cc:Work>
    </rdf:RDF>
  </metadata>
  <g
     inkscape:label="Capa 1"
     inkscape:groupmode="layer"
     id="layer1">
    <g
       style="opacity:0.296765"
       transform="matrix(0.97573206,0,0,0.97573206,-65.610148,-37.191006)"
       id="g1702">
      <rect
         ry="6.6098609"
         rx="6.6098609"
         y="40.709618"
         x="69.839508"
         height="29.810888"
         width="29.810888"
         id="rect1634"
         style="fill:none;fill-opacity:1;stroke:#000000;stroke-width:0.1;stroke-linecap:round;stroke-linejoin:round;stroke-miterlimit:4;stroke-dasharray:none;stroke-opacity:0.02" />
      <rect
         style="fill:none;fill-opacity:1;stroke:#000000;stroke-width:0.2;stroke-linecap:round;stroke-linejoin:round;stroke-miterlimit:4;stroke-dasharray:none;stroke-opacity:0.02"
         id="rect1638"
         width="29.810888"
         height="29.810888"
         x="69.839508"
         y="40.709618"
         rx="6.6098609"
         ry="6.6098609" />
      <rect
         ry="6.6098609"
         rx="6.6098609"
         y="40.709618"
         x="69.839508"
         height="29.810888"
         width="29.810888"
         id="rect1640"
         style="fill:none;fill-opacity:1;stroke:#000000;stroke-width:0.3;stroke-linecap:round;stroke-linejoin:round;stroke-miterlimit:4;stroke-dasharray:none;stroke-opacity:0.02" />
      <rect
         style="fill:none;fill-opacity:1;stroke:#000000;stroke-width:0.4;stroke-linecap:round;stroke-linejoin:round;stroke-miterlimit:4;stroke-dasharray:none;stroke-opacity:0.02"
         id="rect1642"
         width="29.810888"
         height="29.810888"
         x="69.839508"
         y="40.709618"
         rx="6.6098609"
         ry="6.6098609" />
      <rect
         ry="6.6098609"
         rx="6.6098609"
         y="40.709618"
         x="69.839508"
         height="29.810888"
         width="29.810888"
         id="rect1644"
         style="fill:none;fill-opacity:1;stroke:#000000;stroke-width:0.5;stroke-linecap:round;stroke-linejoin:round;stroke-miterlimit:4;stroke-dasharray:none;stroke-opacity:0.02" />
      <rect
         style="fill:none;fill-opacity:1;stroke:#000000;stroke-width:0.6;stroke-linecap:round;stroke-linejoin:round;stroke-miterlimit:4;stroke-dasharray:none;stroke-opacity:0.02"
         id="rect1646"
         width="29.810888"
         height="29.810888"
         x="69.839508"
         y="40.709618"
         rx="6.6098609"
         ry="6.6098609" />
      <rect
         ry="6.6098609"
         rx="6.6098609"
         y="40.709618"
         x="69.839508"
         height="29.810888"
         width="29.810888"
         id="rect1648"
         style="fill:none;fill-opacity:1;stroke:#000000;stroke-width:0.7;stroke-linecap:round;stroke-linejoin:round;stroke-miterlimit:4;stroke-dasharray:none;stroke-opacity:0.02" />
      <rect
         style="fill:none;fill-opacity:1;stroke:#000000;stroke-width:0.8;stroke-linecap:round;stroke-linejoin:round;stroke-miterlimit:4;stroke-dasharray:none;stroke-opacity:0.02"
         id="rect1650"
         width="29.810888"
         height="29.810888"
         x="69.839508"
         y="40.709618"
         rx="6.6098609"
         ry="6.6098609" />
      <rect
         ry="6.6098609"
         rx="6.6098609"
         y="40.709618"
         x="69.839508"
         height="29.810888"
         width="29.810888"
         id="rect1652"
         style="fill:none;fill-opacity:1;stroke:#000000;stroke-width:1;stroke-linecap:round;stroke-linejoin:round;stroke-miterlimit:4;stroke-dasharray:none;stroke-opacity:0.02" />
      <rect
         style="fill:none;fill-opacity:1;stroke:#000000;stroke-width:1.2;stroke-linecap:round;stroke-linejoin:round;stroke-miterlimit:4;stroke-dasharray:none;stroke-opacity:0.02"
         id="rect1654"
         width="29.810888"
         height="29.810888"
         x="69.839508"
         y="40.709618"
         rx="6.6098609"
         ry="6.6098609" />
      <rect
         ry="6.6098609"
         rx="6.6098609"
         y="40.709618"
         x="69.839508"
         height="29.810888"
         width="29.810888"
         id="rect1656"
         style="fill:none;fill-opacity:1;stroke:#000000;stroke-width:1.4;stroke-linecap:round;stroke-linejoin:round;stroke-miterlimit:4;stroke-dasharray:none;stroke-opacity:0.02" />
      <rect
         style="fill:none;fill-opacity:1;stroke:#000000;stroke-width:1.6;stroke-linecap:round;stroke-linejoin:round;stroke-miterlimit:4;stroke-dasharray:none;stroke-opacity:0.02"
         id="rect1658"
         width="29.810888"
         height="29.810888"
         x="69.839508"
         y="40.709618"
         rx="6.6098609"
         ry="6.6098609" />
      <rect
         ry="6.6098609"
         rx="6.6098609"
         y="40.709618"
         x="69.839508"
         height="29.810888"
         width="29.810888"
         id="rect1660"
         style="fill:none;fill-opacity:1;stroke:#000000;stroke-width:1.8;stroke-linecap:round;stroke-linejoin:round;stroke-miterlimit:4;stroke-dasharray:none;stroke-opacity:0.02" />
      <rect
         style="fill:none;fill-opacity:1;stroke:#000000;stroke-width:2;stroke-linecap:round;stroke-linejoin:round;stroke-miterlimit:4;stroke-dasharray:none;stroke-opacity:0.02"
         id="rect1662"
         width="29.810888"
         height="29.810888"
         x="69.839508"
         y="40.709618"
         rx="6.6098609"
         ry="6.6098609" />
      <rect
         ry="6.6098609"
         rx="6.6098609"
         y="40.709618"
         x="69.839508"
         height="29.810888"
         width="29.810888"
         id="rect1664"
         style="fill:none;fill-opacity:1;stroke:#000000;stroke-width:2.2;stroke-linecap:round;stroke-linejoin:round;stroke-miterlimit:4;stroke-dasharray:none;stroke-opacity:0.02" />
      <rect
         style="fill:none;fill-opacity:1;stroke:#000000;stroke-width:2.6;stroke-linecap:round;stroke-linejoin:round;stroke-miterlimit:4;stroke-dasharray:none;stroke-opacity:0.02"
         id="rect1666"
         width="29.810888"
         height="29.810888"
         x="69.839508"
         y="40.709618"
         rx="6.6098609"
         ry="6.6098609" />
      <rect
         ry="6.6098609"
         rx="6.6098609"
         y="40.709618"
         x="69.839508"
         height="29.810888"
         width="29.810888"
         id="rect1668"
         style="fill:none;fill-opacity:1;stroke:#000000;stroke-width:3;stroke-linecap:round;stroke-linejoin:round;stroke-miterlimit:4;stroke-dasharray:none;stroke-opacity:0.02" />
      <rect
         style="fill:none;fill-opacity:1;stroke:#000000;stroke-width:3.4;stroke-linecap:round;stroke-linejoin:round;stroke-miterlimit:4;stroke-dasharray:none;stroke-opacity:0.02"
         id="rect1670"
         width="29.810888"
         height="29.810888"
         x="69.839508"
         y="40.709618"
         rx="6.6098609"
         ry="6.6098609" />
      <rect
         ry="6.6098609"
         rx="6.6098609"
         y="40.709618"
         x="69.839508"
         height="29.810888"
         width="29.810888"
         id="rect1672"
         style="fill:none;fill-opacity:1;stroke:#000000;stroke-width:3.8;stroke-linecap:round;stroke-linejoin:round;stroke-miterlimit:4;stroke-dasharray:none;stroke-opacity:0.02" />
      <rect
         style="fill:none;fill-opacity:1;stroke:#000000;stroke-width:4.2;stroke-linecap:round;stroke-linejoin:round;stroke-miterlimit:4;stroke-dasharray:none;stroke-opacity:0.02"
         id="rect1674"
         width="29.810888"
         height="29.810888"
         x="69.839508"
         y="40.709618"
         rx="6.6098609"
         ry="6.6098609" />
      <rect
         ry="6.6098609"
         rx="6.6098609"
         y="40.709618"
         x="69.839508"
         height="29.810888"
         width="29.810888"
         id="rect1676"
         style="fill:none;fill-opacity:1;stroke:#000000;stroke-width:4.6;stroke-linecap:round;stroke-linejoin:round;stroke-miterlimit:4;stroke-dasharray:none;stroke-opacity:0.02" />
      <rect
         style="fill:none;fill-opacity:1;stroke:#000000;stroke-width:5;stroke-linecap:round;stroke-linejoin:round;stroke-miterlimit:4;stroke-dasharray:none;stroke-opacity:0.02"
         id="rect1678"
         width="29.810888"
         height="29.810888"
         x="69.839508"
         y="40.709618"
         rx="6.6098609"
         ry="6.6098609" />
    </g>
    <rect
       ry="6.4494534"
       rx="6.4494534"
       y="2.5306742"
       x="2.5447848"
       height="29.08744"
       width="29.08744"
       id="rect849"
       style="fill:url(#radialGradient999);fill-opacity:1;stroke-width:2.68769;stroke-linecap:round;stroke-linejoin:round" />
    <g
       id="rect888">
      <path
         style="color:#000000;fill:url(#radialGradient999);stroke-width:4;stroke-linecap:round;stroke-linejoin:round;-inkscape-stroke:none;paint-order:markers fill stroke"
         d="M 8.9942381,2.5306742 H 25.182772 c 3.572997,0 6.449453,2.8764562 6.449453,6.4494534 V 25.168661 c 0,3.572998 -2.876456,6.449454 -6.449453,6.449454 H 8.9942381 c -3.5729971,0 -6.4494533,-2.876456 -6.4494533,-6.449454 V 8.9801276 c 0,-3.5729972 2.8764562,-6.4494534 6.4494533,-6.4494534 z"
         id="path970" />
      <g
         id="g1985"
         style="fill:#000000;fill-opacity:0.02616807">
        <path
           id="path1274"
           style="color:#000000;fill:#000000;fill-opacity:0.02616807;stroke-width:3.77953;stroke-linecap:round;stroke-linejoin:round;-inkscape-stroke:none;paint-order:markers fill stroke"
           d="M 33.994141 9.5644531 C 20.4899 9.5644531 9.6171875 20.437165 9.6171875 33.941406 L 9.6171875 95.125 C 9.6171875 108.62924 20.4899 119.50195 33.994141 119.50195 L 95.179688 119.50195 C 108.68393 119.50195 119.55469 108.62924 119.55469 95.125 L 119.55469 33.941406 C 119.55469 20.437165 108.68393 9.5644531 95.179688 9.5644531 L 33.994141 9.5644531 z M 33.994141 19.015625 L 95.181641 19.015625 C 103.61467 19.015625 110.10742 25.50838 110.10742 33.941406 L 110.10742 95.123047 C 110.10742 103.55608 103.61467 110.04883 95.181641 110.04883 L 33.994141 110.04883 C 25.561115 110.04883 19.068359 103.55608 19.068359 95.123047 L 19.068359 33.941406 C 19.068359 25.50838 25.561115 19.015625 33.994141 19.015625 z "
           transform="scale(0.26458333)" />
        <path
           id="path1428"
           style="color:#000000;fill:#000000;fill-opacity:0.02616807;stroke-width:3.77953;stroke-linecap:round;stroke-linejoin:round;-inkscape-stroke:none;paint-order:markers fill stroke"
           d="M 33.994141 9.5644531 C 20.4899 9.5644531 9.6171875 20.437165 9.6171875 33.941406 L 9.6171875 95.125 C 9.6171875 108.62924 20.4899 119.50195 33.994141 119.50195 L 95.179688 119.50195 C 108.68393 119.50195 119.55469 108.62924 119.55469 95.125 L 119.55469 33.941406 C 119.55469 20.437165 108.68393 9.5644531 95.179688 9.5644531 L 33.994141 9.5644531 z M 33.994141 20.90625 L 95.181641 20.90625 C 102.60042 20.90625 108.21875 26.52262 108.21875 33.941406 L 108.21875 95.123047 C 108.21875 102.54184 102.60043 108.16016 95.181641 108.16016 L 33.994141 108.16016 C 26.575355 108.16016 20.957031 102.54184 20.957031 95.123047 L 20.957031 33.941406 C 20.957031 26.522621 26.575356 20.90625 33.994141 20.90625 z "
           transform="scale(0.26458333)" />
        <path
           id="path1430"
           style="color:#000000;fill:#000000;fill-opacity:0.02616807;stroke-width:3.77953;stroke-linecap:round;stroke-linejoin:round;-inkscape-stroke:none;paint-order:markers fill stroke"
           d="M 33.994141 9.5644531 C 20.4899 9.5644531 9.6171875 20.437165 9.6171875 33.941406 L 9.6171875 95.125 C 9.6171875 108.62924 20.4899 119.50195 33.994141 119.50195 L 95.179688 119.50195 C 108.68393 119.50195 119.55469 108.62924 119.55469 95.125 L 119.55469 33.941406 C 119.55469 20.437165 108.68393 9.5644531 95.179688 9.5644531 L 33.994141 9.5644531 z M 33.994141 23.740234 L 95.181641 23.740234 C 101.07906 23.740234 105.38477 28.043981 105.38477 33.941406 L 105.38477 95.123047 C 105.38477 101.02047 101.07906 105.32422 95.181641 105.32422 L 33.994141 105.32422 C 28.096716 105.32422 23.791016 101.02047 23.791016 95.123047 L 23.791016 33.941406 C 23.791016 28.043981 28.096717 23.740234 33.994141 23.740234 z "
           transform="scale(0.26458333)" />
      </g>
      <path
         id="path972"
         style="color:#000000;fill:url(#linearGradient1158);fill-opacity:1;stroke-width:3.77953;stroke-linecap:round;stroke-linejoin:round;-inkscape-stroke:none;paint-order:markers fill stroke"
         d="M 33.994141 9.5644531 C 20.4899 9.5644531 9.6171875 20.437165 9.6171875 33.941406 L 9.6171875 95.125 C 9.6171875 108.62924 20.4899 119.50195 33.994141 119.50195 L 95.179688 119.50195 C 108.68393 119.50195 119.55469 108.62924 119.55469 95.125 L 119.55469 33.941406 C 119.55469 20.437165 108.68393 9.5644531 95.179688 9.5644531 L 33.994141 9.5644531 z M 33.994141 17.126953 L 95.181641 17.126953 C 104.62891 17.126953 111.99805 24.49414 111.99805 33.941406 L 111.99805 95.123047 C 111.99805 104.57031 104.62891 111.93945 95.181641 111.93945 L 33.994141 111.93945 C 24.546875 111.93945 17.177734 104.57031 17.177734 95.123047 L 17.177734 33.941406 C 17.177734 24.49414 24.546875 17.126953 33.994141 17.126953 z "
         transform="scale(0.26458333)" />
      <path
         fill="#ffffff"
         d="m 16.267701,10.111192 -5.032965,11.483067 h 1.558805 l 1.365895,-3.133115 h 5.65821 l 1.323694,3.133115 h 1.576461 L 17.835119,10.111192 Z m 0.780694,1.386133 c 0.129614,0.392716 0.816867,2.174147 2.063051,5.33956 l 0.258366,0.581322 h -4.757805 z"
         id="path13"
         style="stroke-width:0.430609" />
      <path
         fill="#27ae60"
         d="m 10.09362,22.885658 v 1.291829 h 13.779506 v -1.291829 z"
         id="path15"
         style="stroke-width:0.430609" />
    </g>
  </g>
</svg>
