<?xml version="1.0" encoding="UTF-8" standalone="no"?>
<svg
   xmlns:dc="http://purl.org/dc/elements/1.1/"
   xmlns:cc="http://creativecommons.org/ns#"
   xmlns:rdf="http://www.w3.org/1999/02/22-rdf-syntax-ns#"
   xmlns:svg="http://www.w3.org/2000/svg"
   xmlns="http://www.w3.org/2000/svg"
   xmlns:xlink="http://www.w3.org/1999/xlink"
   xmlns:sodipodi="http://sodipodi.sourceforge.net/DTD/sodipodi-0.dtd"
   xmlns:inkscape="http://www.inkscape.org/namespaces/inkscape"
   width="128"
   height="128"
   viewBox="0 0 33.866666 33.866668"
   version="1.1"
   id="svg3043"
   inkscape:version="1.0.2 (e86c870879, 2021-01-15)"
   sodipodi:docname="transmission-devel.svg">
  <defs
     id="defs3037">
    <linearGradient
       inkscape:collect="always"
       xlink:href="#linearGradient1938"
       id="linearGradient1940"
       x1="16.937525"
       y1="5.6268363"
       x2="16.937525"
       y2="30.152269"
       gradientUnits="userSpaceOnUse"
       gradientTransform="translate(0.07976138,0.0260618)" />
    <linearGradient
       inkscape:collect="always"
       id="linearGradient1938">
      <stop
         style="stop-color:#a2acb0;stop-opacity:1"
         offset="0"
         id="stop1934" />
      <stop
         style="stop-color:#9cabb7;stop-opacity:1"
         offset="1"
         id="stop1936" />
    </linearGradient>
    <linearGradient
       inkscape:collect="always"
       xlink:href="#linearGradient2995"
       id="linearGradient2997"
       x1="17.750881"
       y1="4.2903876"
       x2="17.750881"
       y2="28.982765"
       gradientUnits="userSpaceOnUse"
       gradientTransform="translate(0.07976138,0.0260618)" />
    <linearGradient
       inkscape:collect="always"
       id="linearGradient2995">
      <stop
         style="stop-color:#bbbfc3;stop-opacity:1"
         offset="0"
         id="stop2991" />
      <stop
         style="stop-color:#f1f3f6;stop-opacity:0.94090909"
         offset="1"
         id="stop2993" />
    </linearGradient>
    <radialGradient
       inkscape:collect="always"
       xlink:href="#linearGradient3066"
       id="radialGradient3068"
       cx="16.994051"
       cy="4.3084316"
       fx="16.994051"
       fy="4.3084316"
       r="6.5794377"
       gradientTransform="matrix(1,0,0,2.4363869,0.07976138,-6.1625129)"
       gradientUnits="userSpaceOnUse" />
    <linearGradient
       inkscape:collect="always"
       id="linearGradient3066">
      <stop
         style="stop-color:#000000;stop-opacity:1;"
         offset="0"
         id="stop3062" />
      <stop
         style="stop-color:#000000;stop-opacity:0;"
         offset="1"
         id="stop3064" />
    </linearGradient>
    <radialGradient
       inkscape:collect="always"
       xlink:href="#linearGradient3033"
       id="radialGradient3036"
       cx="16.993279"
       cy="1.5572811"
       fx="16.993279"
       fy="1.5572811"
       r="19.382107"
       gradientTransform="matrix(0.74478056,0,0,0.31596996,3.9996072,3.8320739)"
       gradientUnits="userSpaceOnUse" />
    <linearGradient
       inkscape:collect="always"
       id="linearGradient3033">
      <stop
         style="stop-color:#c12b2b;stop-opacity:1;"
         offset="0"
         id="stop3029" />
      <stop
         style="stop-color:#c12b2b;stop-opacity:0;"
         offset="1"
         id="stop3031" />
    </linearGradient>
    <linearGradient
       inkscape:collect="always"
       xlink:href="#linearGradient961"
       id="linearGradient2977"
       gradientUnits="userSpaceOnUse"
       gradientTransform="translate(-34.260723,2.3010933)"
       x1="103.30488"
       y1="33.302631"
       x2="103.30488"
       y2="61.043587" />
    <linearGradient
       inkscape:collect="always"
       id="linearGradient961">
      <stop
         style="stop-color:#eeeeee;stop-opacity:1;"
         offset="0"
         id="stop957" />
      <stop
         id="stop967"
         offset="0.46787906"
         style="stop-color:#cacaca;stop-opacity:1" />
      <stop
         style="stop-color:#b3b3b3;stop-opacity:1"
         offset="0.50474542"
         id="stop969" />
      <stop
         id="stop971"
         offset="0.57847816"
         style="stop-color:#b0b0b0;stop-opacity:1" />
      <stop
         style="stop-color:#454646;stop-opacity:1"
         offset="1"
         id="stop959" />
    </linearGradient>
    <linearGradient
       inkscape:collect="always"
       xlink:href="#linearGradient953"
       id="linearGradient2979"
       gradientUnits="userSpaceOnUse"
       gradientTransform="translate(-34.260723,2.3010933)"
       x1="100.34188"
       y1="56.952755"
       x2="100.34188"
       y2="35.603722" />
    <linearGradient
       inkscape:collect="always"
       id="linearGradient953">
      <stop
         style="stop-color:#484847;stop-opacity:1;"
         offset="0"
         id="stop949" />
      <stop
         style="stop-color:#828280;stop-opacity:1"
         offset="1"
         id="stop951" />
    </linearGradient>
    <linearGradient
       inkscape:collect="always"
       xlink:href="#linearGradient3066"
       id="linearGradient2981"
       gradientUnits="userSpaceOnUse"
       x1="98.435661"
       y1="50.304955"
       x2="67.626572"
       y2="50.304955" />
    <linearGradient
       inkscape:collect="always"
       xlink:href="#linearGradient823"
       id="linearGradient2983"
       gradientUnits="userSpaceOnUse"
       gradientTransform="translate(-63.418327,-9.8836699)"
       x1="13.907356"
       y1="33.066132"
       x2="20.312403"
       y2="57.653706" />
    <linearGradient
       inkscape:collect="always"
       id="linearGradient823">
      <stop
         style="stop-color:#b32418;stop-opacity:0.99607843"
         offset="0"
         id="stop819" />
      <stop
         id="stop827"
         offset="0.08666537"
         style="stop-color:#d42b1d;stop-opacity:1" />
      <stop
         style="stop-color:#c72318;stop-opacity:1"
         offset="1"
         id="stop821" />
    </linearGradient>
    <linearGradient
       inkscape:collect="always"
       xlink:href="#linearGradient841"
       id="linearGradient2985"
       gradientUnits="userSpaceOnUse"
       gradientTransform="translate(-63.418327,-9.8836699)"
       x1="15.715266"
       y1="78.625458"
       x2="19.408447"
       y2="42.828846" />
    <linearGradient
       id="linearGradient841"
       inkscape:collect="always">
      <stop
         id="stop835"
         offset="0"
         style="stop-color:#46120e;stop-opacity:1" />
      <stop
         style="stop-color:#8b150d;stop-opacity:1"
         offset="0.31077895"
         id="stop837" />
      <stop
         id="stop839"
         offset="1"
         style="stop-color:#c72318;stop-opacity:0" />
    </linearGradient>
    <linearGradient
       inkscape:collect="always"
       xlink:href="#linearGradient851"
       id="linearGradient2987"
       gradientUnits="userSpaceOnUse"
       gradientTransform="translate(-63.418327,-9.8836699)"
       x1="-31.290386"
       y1="56.026585"
       x2="-11.868388"
       y2="56.026585" />
    <linearGradient
       inkscape:collect="always"
       id="linearGradient851">
      <stop
         style="stop-color:#46120e;stop-opacity:1;"
         offset="0"
         id="stop847" />
      <stop
         style="stop-color:#46120e;stop-opacity:0"
         offset="1"
         id="stop849" />
    </linearGradient>
    <radialGradient
       inkscape:collect="always"
       xlink:href="#linearGradient867"
       id="radialGradient871"
       gradientUnits="userSpaceOnUse"
       gradientTransform="matrix(2.5423582,4.9277304e-8,-2.8667743e-8,1.4790516,-60.841557,-28.343937)"
       cx="3.5119758"
       cy="47.230167"
       fx="3.5119758"
       fy="47.230167"
       r="12.016821" />
    <linearGradient
       inkscape:collect="always"
       id="linearGradient867">
      <stop
         style="stop-color:#b52117;stop-opacity:0.11818182"
         offset="0"
         id="stop863" />
      <stop
         id="stop873"
         offset="0.81970817"
         style="stop-color:#b22117;stop-opacity:0" />
      <stop
         style="stop-color:#841810;stop-opacity:1"
         offset="1"
         id="stop865" />
    </linearGradient>
    <linearGradient
       inkscape:collect="always"
       xlink:href="#linearGradient851"
       id="linearGradient2989"
       gradientUnits="userSpaceOnUse"
       x1="-0.15503471"
       y1="45.78133"
       x2="-26.653944"
       y2="42.527092" />
    <radialGradient
       inkscape:collect="always"
       xlink:href="#linearGradient867"
       id="radialGradient1033"
       gradientUnits="userSpaceOnUse"
       gradientTransform="matrix(2.5423582,4.9277304e-8,-2.8667743e-8,1.4790516,-60.841557,-28.343937)"
       cx="3.5119758"
       cy="47.230167"
       fx="3.5119758"
       fy="47.230167"
       r="12.016821" />
    <linearGradient
       inkscape:collect="always"
       xlink:href="#linearGradient4976"
       id="linearGradient4978"
       x1="535.64099"
       y1="161.76724"
       x2="535.64099"
       y2="200.45651"
       gradientUnits="userSpaceOnUse"
       gradientTransform="matrix(0.10616383,0,0,0.10616383,-39.592438,-0.809544)" />
    <linearGradient
       inkscape:collect="always"
       id="linearGradient4976">
      <stop
         style="stop-color:#0d0d0d;stop-opacity:1"
         offset="0"
         id="stop4972" />
      <stop
         style="stop-color:#2c2c2c;stop-opacity:0;"
         offset="1"
         id="stop4974" />
    </linearGradient>
    <linearGradient
       inkscape:collect="always"
       xlink:href="#linearGradient1065"
       id="linearGradient1067"
       x1="353.61191"
       y1="34.47617"
       x2="353.61191"
       y2="194.29538"
       gradientUnits="userSpaceOnUse"
       gradientTransform="matrix(0.10616383,0,0,0.10616383,-20.640073,-2.6297781)" />
    <linearGradient
       inkscape:collect="always"
       id="linearGradient1065">
      <stop
         style="stop-color:#c3c3c3;stop-opacity:0.99607843"
         offset="0"
         id="stop1061-6" />
      <stop
         id="stop1069"
         offset="0.04219875"
         style="stop-color:#c4c4c4;stop-opacity:1" />
      <stop
         style="stop-color:#999999;stop-opacity:1"
         offset="0.08518517"
         id="stop1071" />
      <stop
         id="stop1073"
         offset="0.13948381"
         style="stop-color:#9f9f9f;stop-opacity:1" />
      <stop
         style="stop-color:#dedede;stop-opacity:1;"
         offset="0.20056979"
         id="stop1087" />
      <stop
         style="stop-color:#e9e9e9;stop-opacity:1"
         offset="0.22965999"
         id="stop1075-7" />
      <stop
         id="stop1085"
         offset="0.27544361"
         style="stop-color:#bebdbd;stop-opacity:1;" />
      <stop
         id="stop1077-5"
         offset="0.30916709"
         style="stop-color:#888686;stop-opacity:1" />
      <stop
         style="stop-color:#545353;stop-opacity:1"
         offset="0.4562259"
         id="stop1079" />
      <stop
         id="stop1081"
         offset="0.53541142"
         style="stop-color:#4e4e4e;stop-opacity:1" />
      <stop
         style="stop-color:#a1a1a1;stop-opacity:1"
         offset="0.85667843"
         id="stop1083" />
      <stop
         style="stop-color:#737373;stop-opacity:1"
         offset="1"
         id="stop1063-3" />
    </linearGradient>
    <linearGradient
       inkscape:collect="always"
       xlink:href="#linearGradient961"
       id="linearGradient3897"
       gradientUnits="userSpaceOnUse"
       gradientTransform="translate(-34.260723,2.3010933)"
       x1="103.30488"
       y1="33.302631"
       x2="103.30488"
       y2="61.043587" />
    <linearGradient
       inkscape:collect="always"
       xlink:href="#linearGradient953"
       id="linearGradient3899"
       gradientUnits="userSpaceOnUse"
       gradientTransform="translate(-34.260723,2.3010933)"
       x1="100.34188"
       y1="56.952755"
       x2="100.34188"
       y2="35.603722" />
    <linearGradient
       inkscape:collect="always"
       xlink:href="#linearGradient3066"
       id="linearGradient3901"
       gradientUnits="userSpaceOnUse"
       x1="98.435661"
       y1="50.304955"
       x2="67.626572"
       y2="50.304955" />
    <linearGradient
       inkscape:collect="always"
       xlink:href="#linearGradient823"
       id="linearGradient3903"
       gradientUnits="userSpaceOnUse"
       gradientTransform="translate(-63.418327,-9.8836699)"
       x1="13.907356"
       y1="33.066132"
       x2="20.312403"
       y2="57.653706" />
    <linearGradient
       inkscape:collect="always"
       xlink:href="#linearGradient841"
       id="linearGradient3905"
       gradientUnits="userSpaceOnUse"
       gradientTransform="translate(-63.418327,-9.8836699)"
       x1="15.715266"
       y1="78.625458"
       x2="19.408447"
       y2="42.828846" />
    <linearGradient
       inkscape:collect="always"
       xlink:href="#linearGradient851"
       id="linearGradient3907"
       gradientUnits="userSpaceOnUse"
       gradientTransform="translate(-63.418327,-9.8836699)"
       x1="-31.290386"
       y1="56.026585"
       x2="-11.868388"
       y2="56.026585" />
    <linearGradient
       inkscape:collect="always"
       xlink:href="#linearGradient851"
       id="linearGradient3909"
       gradientUnits="userSpaceOnUse"
       x1="-0.15503471"
       y1="45.78133"
       x2="-26.653944"
       y2="42.527092" />
    <clipPath
       id="clip6">
      <rect
         x="0"
         y="0"
         width="128"
         height="128"
         id="rect171" />
    </clipPath>
    <linearGradient
       inkscape:collect="always"
       xlink:href="#linear10"
       id="linearGradient2346"
       gradientUnits="userSpaceOnUse"
       gradientTransform="matrix(0,0.37,-0.98461999,0,291.74576,-44.10068)"
       x1="300"
       y1="235"
       x2="428"
       y2="235" />
    <linearGradient
       id="linear10"
       gradientUnits="userSpaceOnUse"
       x1="300"
       y1="235"
       x2="428"
       y2="235"
       gradientTransform="matrix(0,0.37,-0.98462,0,295.38501,-30.360001)">
      <stop
         offset="0"
         style="stop-color:rgb(97.647059%,94.117647%,41.960785%);stop-opacity:1;"
         id="stop166" />
      <stop
         offset="1"
         style="stop-color:rgb(96.078432%,76.078433%,6.666667%);stop-opacity:1;"
         id="stop168" />
    </linearGradient>
  </defs>
  <sodipodi:namedview
     id="base"
     pagecolor="#ffffff"
     bordercolor="#666666"
     borderopacity="1.0"
     inkscape:pageopacity="0.0"
     inkscape:pageshadow="2"
     inkscape:zoom="0.7"
     inkscape:cx="-510.79742"
     inkscape:cy="301.6481"
     inkscape:document-units="mm"
     inkscape:current-layer="layer1"
     inkscape:document-rotation="0"
     showgrid="false"
     units="px"
     inkscape:window-width="1514"
     inkscape:window-height="941"
     inkscape:window-x="50"
     inkscape:window-y="27"
     inkscape:window-maximized="0" />
  <metadata
     id="metadata3040">
    <rdf:RDF>
      <cc:Work
         rdf:about="">
        <dc:format>image/svg+xml</dc:format>
        <dc:type
           rdf:resource="http://purl.org/dc/dcmitype/StillImage" />
        <dc:title></dc:title>
      </cc:Work>
    </rdf:RDF>
  </metadata>
  <g
     inkscape:label="Capa 1"
     inkscape:groupmode="layer"
     id="layer1">
    <g
       id="g1702"
       transform="matrix(0.97573206,0,0,0.97573206,-65.668624,-37.177032)"
       style="opacity:0.296765">
      <rect
         style="fill:none;fill-opacity:1;stroke:#000000;stroke-width:0.1;stroke-linecap:round;stroke-linejoin:round;stroke-miterlimit:4;stroke-dasharray:none;stroke-opacity:0.02"
         id="rect1634"
         width="29.810888"
         height="29.810888"
         x="69.839508"
         y="40.709618"
         rx="6.6098609"
         ry="6.6098609" />
      <rect
         ry="6.6098609"
         rx="6.6098609"
         y="40.709618"
         x="69.839508"
         height="29.810888"
         width="29.810888"
         id="rect1638"
         style="fill:none;fill-opacity:1;stroke:#000000;stroke-width:0.2;stroke-linecap:round;stroke-linejoin:round;stroke-miterlimit:4;stroke-dasharray:none;stroke-opacity:0.02" />
      <rect
         style="fill:none;fill-opacity:1;stroke:#000000;stroke-width:0.3;stroke-linecap:round;stroke-linejoin:round;stroke-miterlimit:4;stroke-dasharray:none;stroke-opacity:0.02"
         id="rect1640"
         width="29.810888"
         height="29.810888"
         x="69.839508"
         y="40.709618"
         rx="6.6098609"
         ry="6.6098609" />
      <rect
         ry="6.6098609"
         rx="6.6098609"
         y="40.709618"
         x="69.839508"
         height="29.810888"
         width="29.810888"
         id="rect1642"
         style="fill:none;fill-opacity:1;stroke:#000000;stroke-width:0.4;stroke-linecap:round;stroke-linejoin:round;stroke-miterlimit:4;stroke-dasharray:none;stroke-opacity:0.02" />
      <rect
         style="fill:none;fill-opacity:1;stroke:#000000;stroke-width:0.5;stroke-linecap:round;stroke-linejoin:round;stroke-miterlimit:4;stroke-dasharray:none;stroke-opacity:0.02"
         id="rect1644"
         width="29.810888"
         height="29.810888"
         x="69.839508"
         y="40.709618"
         rx="6.6098609"
         ry="6.6098609" />
      <rect
         ry="6.6098609"
         rx="6.6098609"
         y="40.709618"
         x="69.839508"
         height="29.810888"
         width="29.810888"
         id="rect1646"
         style="fill:none;fill-opacity:1;stroke:#000000;stroke-width:0.6;stroke-linecap:round;stroke-linejoin:round;stroke-miterlimit:4;stroke-dasharray:none;stroke-opacity:0.02" />
      <rect
         style="fill:none;fill-opacity:1;stroke:#000000;stroke-width:0.7;stroke-linecap:round;stroke-linejoin:round;stroke-miterlimit:4;stroke-dasharray:none;stroke-opacity:0.02"
         id="rect1648"
         width="29.810888"
         height="29.810888"
         x="69.839508"
         y="40.709618"
         rx="6.6098609"
         ry="6.6098609" />
      <rect
         ry="6.6098609"
         rx="6.6098609"
         y="40.709618"
         x="69.839508"
         height="29.810888"
         width="29.810888"
         id="rect1650"
         style="fill:none;fill-opacity:1;stroke:#000000;stroke-width:0.8;stroke-linecap:round;stroke-linejoin:round;stroke-miterlimit:4;stroke-dasharray:none;stroke-opacity:0.02" />
      <rect
         style="fill:none;fill-opacity:1;stroke:#000000;stroke-width:1;stroke-linecap:round;stroke-linejoin:round;stroke-miterlimit:4;stroke-dasharray:none;stroke-opacity:0.02"
         id="rect1652"
         width="29.810888"
         height="29.810888"
         x="69.839508"
         y="40.709618"
         rx="6.6098609"
         ry="6.6098609" />
      <rect
         ry="6.6098609"
         rx="6.6098609"
         y="40.709618"
         x="69.839508"
         height="29.810888"
         width="29.810888"
         id="rect1654"
         style="fill:none;fill-opacity:1;stroke:#000000;stroke-width:1.2;stroke-linecap:round;stroke-linejoin:round;stroke-miterlimit:4;stroke-dasharray:none;stroke-opacity:0.02" />
      <rect
         style="fill:none;fill-opacity:1;stroke:#000000;stroke-width:1.4;stroke-linecap:round;stroke-linejoin:round;stroke-miterlimit:4;stroke-dasharray:none;stroke-opacity:0.02"
         id="rect1656"
         width="29.810888"
         height="29.810888"
         x="69.839508"
         y="40.709618"
         rx="6.6098609"
         ry="6.6098609" />
      <rect
         ry="6.6098609"
         rx="6.6098609"
         y="40.709618"
         x="69.839508"
         height="29.810888"
         width="29.810888"
         id="rect1658"
         style="fill:none;fill-opacity:1;stroke:#000000;stroke-width:1.6;stroke-linecap:round;stroke-linejoin:round;stroke-miterlimit:4;stroke-dasharray:none;stroke-opacity:0.02" />
      <rect
         style="fill:none;fill-opacity:1;stroke:#000000;stroke-width:1.8;stroke-linecap:round;stroke-linejoin:round;stroke-miterlimit:4;stroke-dasharray:none;stroke-opacity:0.02"
         id="rect1660"
         width="29.810888"
         height="29.810888"
         x="69.839508"
         y="40.709618"
         rx="6.6098609"
         ry="6.6098609" />
      <rect
         ry="6.6098609"
         rx="6.6098609"
         y="40.709618"
         x="69.839508"
         height="29.810888"
         width="29.810888"
         id="rect1662"
         style="fill:none;fill-opacity:1;stroke:#000000;stroke-width:2;stroke-linecap:round;stroke-linejoin:round;stroke-miterlimit:4;stroke-dasharray:none;stroke-opacity:0.02" />
      <rect
         style="fill:none;fill-opacity:1;stroke:#000000;stroke-width:2.2;stroke-linecap:round;stroke-linejoin:round;stroke-miterlimit:4;stroke-dasharray:none;stroke-opacity:0.02"
         id="rect1664"
         width="29.810888"
         height="29.810888"
         x="69.839508"
         y="40.709618"
         rx="6.6098609"
         ry="6.6098609" />
      <rect
         ry="6.6098609"
         rx="6.6098609"
         y="40.709618"
         x="69.839508"
         height="29.810888"
         width="29.810888"
         id="rect1666"
         style="fill:none;fill-opacity:1;stroke:#000000;stroke-width:2.6;stroke-linecap:round;stroke-linejoin:round;stroke-miterlimit:4;stroke-dasharray:none;stroke-opacity:0.02" />
      <rect
         style="fill:none;fill-opacity:1;stroke:#000000;stroke-width:3;stroke-linecap:round;stroke-linejoin:round;stroke-miterlimit:4;stroke-dasharray:none;stroke-opacity:0.02"
         id="rect1668"
         width="29.810888"
         height="29.810888"
         x="69.839508"
         y="40.709618"
         rx="6.6098609"
         ry="6.6098609" />
      <rect
         ry="6.6098609"
         rx="6.6098609"
         y="40.709618"
         x="69.839508"
         height="29.810888"
         width="29.810888"
         id="rect1670"
         style="fill:none;fill-opacity:1;stroke:#000000;stroke-width:3.4;stroke-linecap:round;stroke-linejoin:round;stroke-miterlimit:4;stroke-dasharray:none;stroke-opacity:0.02" />
      <rect
         style="fill:none;fill-opacity:1;stroke:#000000;stroke-width:3.8;stroke-linecap:round;stroke-linejoin:round;stroke-miterlimit:4;stroke-dasharray:none;stroke-opacity:0.02"
         id="rect1672"
         width="29.810888"
         height="29.810888"
         x="69.839508"
         y="40.709618"
         rx="6.6098609"
         ry="6.6098609" />
      <rect
         ry="6.6098609"
         rx="6.6098609"
         y="40.709618"
         x="69.839508"
         height="29.810888"
         width="29.810888"
         id="rect1674"
         style="fill:none;fill-opacity:1;stroke:#000000;stroke-width:4.2;stroke-linecap:round;stroke-linejoin:round;stroke-miterlimit:4;stroke-dasharray:none;stroke-opacity:0.02" />
      <rect
         style="fill:none;fill-opacity:1;stroke:#000000;stroke-width:4.6;stroke-linecap:round;stroke-linejoin:round;stroke-miterlimit:4;stroke-dasharray:none;stroke-opacity:0.02"
         id="rect1676"
         width="29.810888"
         height="29.810888"
         x="69.839508"
         y="40.709618"
         rx="6.6098609"
         ry="6.6098609" />
      <rect
         ry="6.6098609"
         rx="6.6098609"
         y="40.709618"
         x="69.839508"
         height="29.810888"
         width="29.810888"
         id="rect1678"
         style="fill:none;fill-opacity:1;stroke:#000000;stroke-width:5;stroke-linecap:round;stroke-linejoin:round;stroke-miterlimit:4;stroke-dasharray:none;stroke-opacity:0.02" />
    </g>
    <rect
       style="fill:url(#linearGradient1940);fill-opacity:1;stroke-width:2.68769;stroke-linecap:round;stroke-linejoin:round"
       id="rect849"
       width="29.08744"
       height="29.08744"
       x="2.4760282"
       y="2.5446494"
       rx="6.4494534"
       ry="6.4494534" />
    <rect
       style="fill:url(#linearGradient2997);fill-opacity:1;stroke-width:1.77501"
       x="3.8626621"
       y="3.9456284"
       width="26.314171"
       height="26.285482"
       rx="5.5669675"
       ry="5.5669675"
       id="rect2807-7" />
    <g
       id="use2336"
       clip-path="url(#clip6)"
       transform="matrix(0.26458333,0,0,0.26458333,-0.96288304,-3.6355547)"
       style="opacity:0.9">
      <path
         id="path2340"
         style="fill:url(#linearGradient2346);fill-rule:nonzero;stroke:none"
         d="M 14.599609 66.900391 L 14.599609 93.21875 C 14.599609 104.87519 23.982231 114.25977 35.638672 114.25977 L 93.013672 114.25977 C 104.67011 114.25977 114.05469 104.87519 114.05469 93.21875 L 114.05469 66.900391 L 14.599609 66.900391 z "
         transform="translate(3.639243,13.740679)" />
      <path
         id="path2342"
         style="fill:#000000;fill-opacity:1;fill-rule:nonzero;stroke:none"
         d="M 14.599609 66.900391 L 14.599609 71.830078 L 57.025391 114.25977 L 78.240234 114.25977 L 30.880859 66.900391 L 14.599609 66.900391 z M 52.091797 66.900391 L 98.681641 113.48633 C 103.78307 112.07157 108.07851 108.78491 110.82422 104.41406 L 73.306641 66.900391 L 52.091797 66.900391 z M 94.521484 66.900391 L 114.05469 86.433594 L 114.05469 66.900391 L 94.521484 66.900391 z M 14.599609 93.044922 L 14.599609 93.21875 C 14.599609 104.87519 23.982231 114.25977 35.638672 114.25977 L 35.814453 114.25977 L 14.599609 93.044922 z "
         transform="translate(3.639243,13.740679)" />
    </g>
    <path
       sodipodi:nodetypes="sccccccccccsccccccccccs"
       inkscape:connector-curvature="0"
       id="path4959"
       d="m 17.029665,7.1529732 c -0.157345,0 -0.314648,0.0617 -0.443117,0.184751 l -4.508853,4.3187108 c -0.497632,0.476683 -0.35085,0.921566 0,0.932044 h 0.213167 1.562594 v 9.85483 h -1.562594 -0.213167 c -0.35085,0.01048 -0.497632,0.45536 0,0.932044 l 4.508853,4.31871 c 0.128469,0.123055 0.285772,0.184751 0.443117,0.184751 0.157345,0 0.314638,-0.0617 0.443107,-0.184751 l 4.508639,-4.31871 c 0.497643,-0.476685 0.350861,-0.921563 0,-0.932044 h -0.213155 -1.562594 v -9.85483 h 1.562594 0.213155 c 0.350861,-0.01048 0.497643,-0.455359 0,-0.932044 L 17.472772,7.3377242 C 17.344303,7.2146682 17.18701,7.1529732 17.029665,7.1529732 Z"
       style="opacity:1;fill:#ffffff;fill-opacity:1;stroke:#ffffff;stroke-width:0.636982;stroke-linecap:round;stroke-linejoin:round;stroke-miterlimit:4;stroke-dasharray:none;stroke-opacity:0.354545" />
    <path
       style="opacity:1;fill:#484848;fill-opacity:1;stroke:none;stroke-width:0.0920763;stroke-linecap:round;stroke-linejoin:round;stroke-miterlimit:4;stroke-dasharray:none;stroke-opacity:1"
       d="m 17.029665,7.1529732 c -0.157345,0 -0.314648,0.0617 -0.443117,0.184751 l -4.508853,4.3187108 c -0.497632,0.476683 -0.35085,0.921566 0,0.932044 h 0.213167 1.562594 v 9.85483 h -1.562594 -0.213167 c -0.35085,0.01048 -0.497632,0.45536 0,0.932044 l 4.508853,4.31871 c 0.128469,0.123055 0.285772,0.184751 0.443117,0.184751 0.157345,0 0.314638,-0.0617 0.443107,-0.184751 l 4.508639,-4.31871 c 0.497643,-0.476685 0.350861,-0.921563 0,-0.932044 h -0.213155 -1.562594 v -9.85483 h 1.562594 0.213155 c 0.350861,-0.01048 0.497643,-0.455359 0,-0.932044 L 17.472772,7.3377242 C 17.344303,7.2146682 17.18701,7.1529732 17.029665,7.1529732 Z"
       id="rect4940"
       inkscape:connector-curvature="0"
       sodipodi:nodetypes="sccccccccccsccccccccccs" />
    <path
       style="opacity:0.735;fill:url(#radialGradient3068);fill-opacity:1;stroke:none;stroke-width:1.11758;stroke-linecap:round;stroke-linejoin:round;stroke-miterlimit:4;stroke-dasharray:none;stroke-opacity:0.354545"
       d="M 10.539071,2.5447712 A 6.5794377,16.030056 0 0 0 10.49463,4.3343259 6.5794377,16.030056 0 0 0 17.073556,20.364355 6.5794377,16.030056 0 0 0 23.653,4.3343259 6.5794377,16.030056 0 0 0 23.604424,2.5447712 Z"
       id="path3060" />
    <path
       inkscape:connector-curvature="0"
       style="color:#000000;font-style:normal;font-variant:normal;font-weight:normal;font-stretch:normal;font-size:medium;line-height:normal;font-family:sans-serif;font-variant-ligatures:normal;font-variant-position:normal;font-variant-caps:normal;font-variant-numeric:normal;font-variant-alternates:normal;font-feature-settings:normal;text-indent:0;text-align:start;text-decoration:none;text-decoration-line:none;text-decoration-style:solid;text-decoration-color:#000000;letter-spacing:normal;word-spacing:normal;text-transform:none;writing-mode:lr-tb;direction:ltr;text-orientation:mixed;dominant-baseline:auto;baseline-shift:baseline;text-anchor:start;white-space:normal;shape-padding:0;clip-rule:nonzero;display:inline;overflow:visible;visibility:visible;opacity:1;isolation:auto;mix-blend-mode:normal;color-interpolation:sRGB;color-interpolation-filters:linearRGB;solid-color:#000000;solid-opacity:1;vector-effect:none;fill:#000000;fill-opacity:0.12844;fill-rule:nonzero;stroke:none;stroke-width:1.59246;stroke-linecap:round;stroke-linejoin:round;stroke-miterlimit:4;stroke-dasharray:none;stroke-dashoffset:0;stroke-opacity:1;color-rendering:auto;image-rendering:auto;shape-rendering:auto;text-rendering:auto;enable-background:accumulate"
       d="m 17.029576,7.1529352 c -0.157346,0 -0.31464,0.06169 -0.443109,0.18475 l -4.508854,4.3187108 c -0.497631,0.476685 -0.350849,0.921565 0,0.932044 h 0.213159 1.562599 v 9.854783 h -1.562599 -0.213159 c -0.350849,0.01048 -0.497631,0.455359 0,0.932043 l 4.508854,4.31871 c 0.128469,0.123057 0.285763,0.184753 0.443109,0.184753 0.157345,0 0.314641,-0.0617 0.44311,-0.184753 l 4.508645,-4.31871 c 0.497643,-0.476685 0.350861,-0.921562 0,-0.932043 H 21.768174 20.205575 V 12.58844 h 1.562599 0.213157 c 0.350861,-0.01048 0.497643,-0.455358 0,-0.932044 L 17.472686,7.3376852 c -0.128469,-0.123056 -0.285765,-0.18475 -0.44311,-0.18475 z m 0,0.862996 3.942576,3.7762808 h -0.766577 a 0.79630836,0.79630836 0 0 0 -0.796229,0.796228 v 9.854783 a 0.79630836,0.79630836 0 0 0 0.796229,0.796228 h 0.766577 L 17.029576,27.015732 13.087,23.239451 h 0.766371 a 0.79630836,0.79630836 0 0 0 0.796228,-0.796228 V 12.58844 A 0.79630836,0.79630836 0 0 0 13.853371,11.792212 H 13.087 Z"
       id="path4952" />
    <path
       style="opacity:0.747;fill:url(#radialGradient3036);fill-opacity:1;stroke:none;stroke-width:1.26869;stroke-linecap:round;stroke-linejoin:round;stroke-miterlimit:4;stroke-dasharray:none;stroke-opacity:0.354545"
       d="m 8.9257333,2.5447712 c -3.5729971,0 -6.4497357,2.8762215 -6.4497357,6.449219 V 10.471935 A 24.563706,6.2073293 0 0 0 16.756263,11.635172 24.563706,6.2073293 0 0 0 31.563626,10.37375 V 8.9939902 c 0,-3.5729975 -2.876737,-6.449219 -6.449733,-6.449219 z"
       id="path3027" />
    <g
       id="g1111"
       transform="matrix(0.10616383,0,0,0.10616383,-39.592442,-0.809544)">
      <g
         transform="translate(362.3051)"
         id="g997">
        <g
           id="g985"
           transform="translate(-0.51135407,-0.51135407)">
          <path
             sodipodi:nodetypes="sssssssss"
             inkscape:connector-curvature="0"
             id="rect946"
             d="m 58.933554,41.056114 15.979813,-7.041911 c 0.98086,-0.432237 1.91758,0.905968 1.91758,2.03132 V 61.50474 c 0,1.12535 -0.92584,2.434734 -1.91758,2.03132 L 58.933554,57.035834 C 57.941822,56.63242 57.015978,56.129865 57.015978,55.004515 V 43.087433 c 0,-1.125351 0.936725,-1.599082 1.917576,-2.031319 z"
             style="opacity:1;fill:url(#linearGradient3897);fill-opacity:1;stroke:url(#linearGradient3899);stroke-width:1;stroke-linecap:round;stroke-linejoin:round;stroke-miterlimit:4;stroke-dasharray:none;stroke-opacity:1" />
          <path
             style="opacity:0.654;fill:url(#linearGradient3901);fill-opacity:1;stroke:none;stroke-width:1;stroke-linecap:round;stroke-linejoin:round;stroke-miterlimit:4;stroke-dasharray:none;stroke-opacity:1"
             d="m 58.933554,41.056114 15.979813,-7.041911 c 0.98086,-0.432237 1.91758,0.905968 1.91758,2.03132 V 61.50474 c 0,1.12535 -0.92584,2.434734 -1.91758,2.03132 L 58.933554,57.035834 C 57.941822,56.63242 57.015978,56.129865 57.015978,55.004515 V 43.087433 c 0,-1.125351 0.936725,-1.599082 1.917576,-2.031319 z"
             id="path973-56"
             inkscape:connector-curvature="0"
             sodipodi:nodetypes="sssssssss" />
        </g>
        <g
           id="g944"
           transform="translate(152.54888,1.5986822)">
          <path
             sodipodi:nodetypes="ccccccc"
             inkscape:connector-curvature="0"
             id="path843"
             d="m -16.64308,74.139551 c -19.73288,-0.844599 -39.642772,-4.586123 -59.226678,-10.691907 -2.582589,-0.857656 -4.924726,-2.05058 -5.395693,-5.287908 -0.77591,-7.677622 -0.796597,-17.272822 -0.127839,-24.950444 0.319596,-2.486039 2.983944,-3.449776 5.252346,-4.165719 20.000258,-6.144904 40.722454,-10.484346 63.588694,-10.897293 z"
             style="fill:#c72418;fill-opacity:1;stroke:none;stroke-width:1px;stroke-linecap:butt;stroke-linejoin:miter;stroke-opacity:1" />
          <path
             sodipodi:nodetypes="ccccccc"
             inkscape:connector-curvature="0"
             id="path817"
             d="m -16.64308,74.139551 c -19.73288,-0.844599 -39.642772,-4.586123 -59.226678,-10.691907 -2.582589,-0.857656 -4.924726,-2.05058 -5.395693,-5.287908 -0.77591,-7.677622 -0.796597,-17.272822 -0.127839,-24.950444 0.319596,-2.486039 2.983944,-3.449776 5.252346,-4.165719 20.000258,-6.144904 40.722454,-10.484346 63.588694,-10.897293 z"
             style="fill:url(#linearGradient3903);fill-opacity:1;stroke:none;stroke-width:1px;stroke-linecap:butt;stroke-linejoin:miter;stroke-opacity:1" />
          <path
             style="fill:url(#linearGradient3905);fill-opacity:1;stroke:none;stroke-width:1px;stroke-linecap:butt;stroke-linejoin:miter;stroke-opacity:1"
             d="m -16.64308,74.139551 c -19.73288,-0.844599 -39.642772,-4.586123 -59.226678,-10.691907 -2.582589,-0.857656 -4.924726,-2.05058 -5.395693,-5.287908 -0.77591,-7.677622 -0.796597,-17.272822 -0.127839,-24.950444 0.319596,-2.486039 2.983944,-3.449776 5.252346,-4.165719 20.000258,-6.144904 40.722454,-10.484346 63.588694,-10.897293 z"
             id="path829"
             inkscape:connector-curvature="0"
             sodipodi:nodetypes="ccccccc" />
          <path
             sodipodi:nodetypes="ccccccc"
             inkscape:connector-curvature="0"
             id="path845"
             d="m -16.64308,74.139551 c -19.73288,-0.844599 -39.642772,-4.586123 -59.226678,-10.691907 -2.582589,-0.857656 -4.924726,-2.05058 -5.395693,-5.287908 -0.77591,-7.677622 -0.796597,-17.272822 -0.127839,-24.950444 0.319596,-2.486039 2.983944,-3.449776 5.252346,-4.165719 20.000258,-6.144904 40.722454,-10.484346 63.588694,-10.897293 z"
             style="fill:url(#linearGradient3907);fill-opacity:1;stroke:none;stroke-width:1px;stroke-linecap:butt;stroke-linejoin:miter;stroke-opacity:1" />
          <path
             id="path861"
             d="m -67.578483,26.547971 c -2.870552,0.793042 -5.72507,1.624318 -8.5625,2.496093 -2.268402,0.715943 -4.932357,1.679977 -5.251953,4.166016 -0.336452,3.862604 -0.497496,8.209736 -0.476563,12.554688 a 12.016821,12.016821 0 0 0 6.433594,1.882812 12.016821,12.016821 0 0 0 12.017578,-12.015625 12.016821,12.016821 0 0 0 -4.160156,-9.083984 z"
             style="opacity:0.392;fill:url(#radialGradient871);fill-opacity:1;stroke:none;stroke-width:2.53606;stroke-linecap:round;stroke-linejoin:round;stroke-miterlimit:4;stroke-dasharray:none;stroke-opacity:1"
             inkscape:connector-curvature="0" />
          <path
             style="opacity:0.315;fill:url(#linearGradient3909);fill-opacity:1;stroke:none;stroke-width:1px;stroke-linecap:butt;stroke-linejoin:miter;stroke-opacity:1"
             d="m -16.64308,74.139551 c -19.73288,-0.844599 -39.642772,-4.586123 -59.226678,-10.691907 -2.582589,-0.857656 -4.924726,-2.05058 -5.395693,-5.287908 -0.77591,-7.677622 -0.796597,-17.272822 -0.127839,-24.950444 0.319596,-2.486039 2.983944,-3.449776 5.252346,-4.165719 20.000258,-6.144904 40.722454,-10.484346 63.588694,-10.897293 z"
             id="path928"
             inkscape:connector-curvature="0"
             sodipodi:nodetypes="ccccccc" />
        </g>
      </g>
      <g
         transform="matrix(-1,0,0,1,703.27523,2.6323147e-7)"
         id="g1019">
        <g
           transform="translate(-0.51135407,-0.51135407)"
           id="g1003">
          <path
             style="opacity:1;fill:url(#linearGradient2977);fill-opacity:1;stroke:url(#linearGradient2979);stroke-width:1;stroke-linecap:round;stroke-linejoin:round;stroke-miterlimit:4;stroke-dasharray:none;stroke-opacity:1"
             d="m 58.933554,41.056114 15.979813,-7.041911 c 0.98086,-0.432237 1.91758,0.905968 1.91758,2.03132 V 61.50474 c 0,1.12535 -0.92584,2.434734 -1.91758,2.03132 L 58.933554,57.035834 C 57.941822,56.63242 57.015978,56.129865 57.015978,55.004515 V 43.087433 c 0,-1.125351 0.936725,-1.599082 1.917576,-2.031319 z"
             id="path999"
             inkscape:connector-curvature="0"
             sodipodi:nodetypes="sssssssss" />
          <path
             sodipodi:nodetypes="sssssssss"
             inkscape:connector-curvature="0"
             id="path1001"
             d="m 58.933554,41.056114 15.979813,-7.041911 c 0.98086,-0.432237 1.91758,0.905968 1.91758,2.03132 V 61.50474 c 0,1.12535 -0.92584,2.434734 -1.91758,2.03132 L 58.933554,57.035834 C 57.941822,56.63242 57.015978,56.129865 57.015978,55.004515 V 43.087433 c 0,-1.125351 0.936725,-1.599082 1.917576,-2.031319 z"
             style="opacity:0.654;fill:url(#linearGradient2981);fill-opacity:1;stroke:none;stroke-width:1;stroke-linecap:round;stroke-linejoin:round;stroke-miterlimit:4;stroke-dasharray:none;stroke-opacity:1" />
        </g>
        <g
           transform="translate(152.54888,1.5986822)"
           id="g1017">
          <path
             style="fill:#c72418;fill-opacity:1;stroke:none;stroke-width:1px;stroke-linecap:butt;stroke-linejoin:miter;stroke-opacity:1"
             d="m -16.64308,74.139551 c -19.73288,-0.844599 -39.642772,-4.586123 -59.226678,-10.691907 -2.582589,-0.857656 -4.924726,-2.05058 -5.395693,-5.287908 -0.77591,-7.677622 -0.796597,-17.272822 -0.127839,-24.950444 0.319596,-2.486039 2.983944,-3.449776 5.252346,-4.165719 20.000258,-6.144904 40.722454,-10.484346 63.588694,-10.897293 z"
             id="path1005"
             inkscape:connector-curvature="0"
             sodipodi:nodetypes="ccccccc" />
          <path
             style="fill:url(#linearGradient2983);fill-opacity:1;stroke:none;stroke-width:1px;stroke-linecap:butt;stroke-linejoin:miter;stroke-opacity:1"
             d="m -16.64308,74.139551 c -19.73288,-0.844599 -39.642772,-4.586123 -59.226678,-10.691907 -2.582589,-0.857656 -4.924726,-2.05058 -5.395693,-5.287908 -0.77591,-7.677622 -0.796597,-17.272822 -0.127839,-24.950444 0.319596,-2.486039 2.983944,-3.449776 5.252346,-4.165719 20.000258,-6.144904 40.722454,-10.484346 63.588694,-10.897293 z"
             id="path1007"
             inkscape:connector-curvature="0"
             sodipodi:nodetypes="ccccccc" />
          <path
             sodipodi:nodetypes="ccccccc"
             inkscape:connector-curvature="0"
             id="path1009"
             d="m -16.64308,74.139551 c -19.73288,-0.844599 -39.642772,-4.586123 -59.226678,-10.691907 -2.582589,-0.857656 -4.924726,-2.05058 -5.395693,-5.287908 -0.77591,-7.677622 -0.796597,-17.272822 -0.127839,-24.950444 0.319596,-2.486039 2.983944,-3.449776 5.252346,-4.165719 20.000258,-6.144904 40.722454,-10.484346 63.588694,-10.897293 z"
             style="fill:url(#linearGradient2985);fill-opacity:1;stroke:none;stroke-width:1px;stroke-linecap:butt;stroke-linejoin:miter;stroke-opacity:1" />
          <path
             style="fill:url(#linearGradient2987);fill-opacity:1;stroke:none;stroke-width:1px;stroke-linecap:butt;stroke-linejoin:miter;stroke-opacity:1"
             d="m -16.64308,74.139551 c -19.73288,-0.844599 -39.642772,-4.586123 -59.226678,-10.691907 -2.582589,-0.857656 -4.924726,-2.05058 -5.395693,-5.287908 -0.77591,-7.677622 -0.796597,-17.272822 -0.127839,-24.950444 0.319596,-2.486039 2.983944,-3.449776 5.252346,-4.165719 20.000258,-6.144904 40.722454,-10.484346 63.588694,-10.897293 z"
             id="path1011"
             inkscape:connector-curvature="0"
             sodipodi:nodetypes="ccccccc" />
          <path
             inkscape:connector-curvature="0"
             style="opacity:0.392;fill:url(#radialGradient1033);fill-opacity:1;stroke:none;stroke-width:2.53606;stroke-linecap:round;stroke-linejoin:round;stroke-miterlimit:4;stroke-dasharray:none;stroke-opacity:1"
             d="m -67.578483,26.547971 c -2.870552,0.793042 -5.72507,1.624318 -8.5625,2.496093 -2.268402,0.715943 -4.932357,1.679977 -5.251953,4.166016 -0.336452,3.862604 -0.497496,8.209736 -0.476563,12.554688 a 12.016821,12.016821 0 0 0 6.433594,1.882812 12.016821,12.016821 0 0 0 12.017578,-12.015625 12.016821,12.016821 0 0 0 -4.160156,-9.083984 z"
             id="path1013" />
          <path
             sodipodi:nodetypes="ccccccc"
             inkscape:connector-curvature="0"
             id="path1015"
             d="m -16.64308,74.139551 c -19.73288,-0.844599 -39.642772,-4.586123 -59.226678,-10.691907 -2.582589,-0.857656 -4.924726,-2.05058 -5.395693,-5.287908 -0.77591,-7.677622 -0.796597,-17.272822 -0.127839,-24.950444 0.319596,-2.486039 2.983944,-3.449776 5.252346,-4.165719 20.000258,-6.144904 40.722454,-10.484346 63.588694,-10.897293 z"
             style="opacity:0.315;fill:url(#linearGradient2989);fill-opacity:1;stroke:none;stroke-width:1px;stroke-linecap:butt;stroke-linejoin:miter;stroke-opacity:1" />
        </g>
      </g>
    </g>
    <path
       style="opacity:1;fill:url(#linearGradient4978);fill-opacity:1;stroke:none;stroke-width:0.0920763;stroke-linecap:round;stroke-linejoin:round;stroke-miterlimit:4;stroke-dasharray:none;stroke-opacity:1"
       d="m 13.853377,15.773578 v 6.669659 h -1.562599 -0.213157 c -0.35085,0.01048 -0.497632,0.455361 0,0.932045 l 4.508854,4.31871 c 0.128468,0.123057 0.285763,0.18475 0.443108,0.18475 0.157346,0 0.314641,-0.06169 0.44311,-0.18475 l 4.508645,-4.31871 c 0.497643,-0.476686 0.350861,-0.921563 0,-0.932045 h -0.213157 -1.562599 v -6.669659 z"
       id="path4969"
       inkscape:connector-curvature="0" />
    <path
       style="fill:url(#linearGradient1067);fill-opacity:1;stroke:none;stroke-width:0.106164px;stroke-linecap:butt;stroke-linejoin:miter;stroke-opacity:1"
       d="M 13.89801,0.9795615 C 12.26778,1.5316861 13.46789,9.8670532 13.789566,15.496636 v 2.067706 c 0,0.225565 0.181466,0.407031 0.40703,0.407031 h 5.537314 c 0.225566,0 0.407238,-0.181466 0.407238,-0.407031 V 15.827153 C 20.100848,12.832833 21.96055,1.4976306 19.924052,0.9795615 Z"
       id="path1056"
       inkscape:connector-curvature="0" />
  </g>
</svg>
