<?xml version="1.0" encoding="UTF-8" standalone="no"?>
<svg
   xmlns:dc="http://purl.org/dc/elements/1.1/"
   xmlns:cc="http://creativecommons.org/ns#"
   xmlns:rdf="http://www.w3.org/1999/02/22-rdf-syntax-ns#"
   xmlns:svg="http://www.w3.org/2000/svg"
   xmlns="http://www.w3.org/2000/svg"
   xmlns:xlink="http://www.w3.org/1999/xlink"
   xmlns:sodipodi="http://sodipodi.sourceforge.net/DTD/sodipodi-0.dtd"
   xmlns:inkscape="http://www.inkscape.org/namespaces/inkscape"
   width="128"
   height="128"
   viewBox="0 0 33.866666 33.866667"
   version="1.1"
   id="svg6"
   sodipodi:docname="tranquil.svg"
   inkscape:version="0.92.5 (2060ec1f9f, 2020-04-08)">
  <metadata
     id="metadata99">
    <rdf:RDF>
      <cc:Work
         rdf:about="">
        <dc:format>image/svg+xml</dc:format>
        <dc:type
           rdf:resource="http://purl.org/dc/dcmitype/StillImage" />
        <dc:title></dc:title>
      </cc:Work>
    </rdf:RDF>
  </metadata>
  <defs
     id="defs2">
    <linearGradient
       inkscape:collect="always"
       id="linearGradient934">
      <stop
         style="stop-color:#f5f9fb;stop-opacity:1"
         offset="0"
         id="stop930" />
      <stop
         style="stop-color:#f9fafc;stop-opacity:1"
         offset="1"
         id="stop932" />
    </linearGradient>
    <linearGradient
       gradientTransform="translate(0,-896)"
       gradientUnits="userSpaceOnUse"
       y2="992"
       x2="32"
       y1="32"
       x1="32"
       id="lgrad">
      <stop
         id="stop2"
         stop-color="#f8f8f8"
         offset="0%" />
      <stop
         id="stop4"
         stop-color="#ccc"
         offset="100%" />
    </linearGradient>
    <radialGradient
       gradientTransform="translate(0,-896)"
       gradientUnits="userSpaceOnUse"
       r="440"
       cy="512"
       cx="512"
       fy="494.39999"
       fx="512"
       y2="100%"
       x2="0%"
       y1="0%"
       x1="0%"
       id="rgrad">
      <stop
         id="stop7"
         stop-color="#00f0ff"
         offset="0%" />
      <stop
         id="stop9"
         stop-color="#0070e0"
         offset="100%" />
    </radialGradient>
    <radialGradient
       id="rgrad-3"
       x1="0%"
       y1="0%"
       x2="0%"
       y2="100%"
       fx="523.57568"
       fy="306.1813"
       cx="523.57568"
       cy="306.1813"
       r="440"
       gradientUnits="userSpaceOnUse"
       gradientTransform="matrix(0.03099337,0,0,0.03032562,85.198869,42.985295)">
      <stop
         offset="0%"
         stop-color="#00f0ff"
         id="stop7-6"
         style="stop-color:#03d7e4;stop-opacity:1" />
      <stop
         offset="100%"
         stop-color="#0070e0"
         id="stop9-7" />
    </radialGradient>
    <linearGradient
       id="linearGradient907"
       inkscape:collect="always">
      <stop
         id="stop903"
         offset="0"
         style="stop-color:#f4587a;stop-opacity:1" />
      <stop
         id="stop905"
         offset="1"
         style="stop-color:#f15c7c;stop-opacity:1" />
    </linearGradient>
    <linearGradient
       id="linearGradient899"
       inkscape:collect="always">
      <stop
         id="stop895"
         offset="0"
         style="stop-color:#f05c7c;stop-opacity:1" />
      <stop
         style="stop-color:#ebc65e;stop-opacity:1"
         offset="0.41579619"
         id="stop908" />
      <stop
         id="stop910"
         offset="0.55425483"
         style="stop-color:#eabd61;stop-opacity:1;" />
      <stop
         style="stop-color:#e9b365;stop-opacity:1;"
         offset="0.65629703"
         id="stop912" />
      <stop
         id="stop897"
         offset="1"
         style="stop-color:#d561e4;stop-opacity:1" />
    </linearGradient>
    <linearGradient
       gradientTransform="matrix(0.24999608,0,0,0.24999608,-66.294713,0.2993122)"
       gradientUnits="userSpaceOnUse"
       y2="38.408154"
       x2="338.9473"
       y1="43.831882"
       x1="318.56171"
       id="linearGradient909"
       xlink:href="#linearGradient907"
       inkscape:collect="always" />
    <linearGradient
       inkscape:collect="always"
       xlink:href="#linearGradient934"
       id="linearGradient936"
       x1="-27.205925"
       y1="-1.3796136"
       x2="-27.205925"
       y2="25.267708"
       gradientUnits="userSpaceOnUse"
       gradientTransform="translate(43.870792,5.6852245)" />
    <linearGradient
       inkscape:collect="always"
       xlink:href="#linearGradient899"
       id="linearGradient906"
       gradientUnits="userSpaceOnUse"
       gradientTransform="matrix(0.94486707,0,0,0.94486707,-250.56269,1.1312587)"
       x1="305.77161"
       y1="94.627197"
       x2="361.4238"
       y2="35.209618" />
  </defs>
  <sodipodi:namedview
     id="base"
     pagecolor="#ffffff"
     bordercolor="#666666"
     borderopacity="1.0"
     inkscape:pageopacity="0.0"
     inkscape:pageshadow="2"
     inkscape:zoom="2.8"
     inkscape:cx="-62.993996"
     inkscape:cy="36.286258"
     inkscape:document-units="mm"
     inkscape:current-layer="layer1"
     showgrid="false"
     units="px"
     inkscape:window-width="1920"
     inkscape:window-height="1019"
     inkscape:window-x="0"
     inkscape:window-y="30"
     inkscape:window-maximized="1" />
  <g
     inkscape:label="Layer 1"
     inkscape:groupmode="layer"
     id="layer1">
    <g
       id="g1702"
       transform="matrix(0.97573206,0,0,0.97573206,-65.748383,-37.203094)"
       style="opacity:0.2967651">
      <rect
         style="fill:none;fill-opacity:1;stroke:#000000;stroke-width:0.1;stroke-linecap:round;stroke-linejoin:round;stroke-miterlimit:4;stroke-dasharray:none;stroke-opacity:0.02"
         id="rect1634"
         width="29.810888"
         height="29.810888"
         x="69.839508"
         y="40.709618"
         rx="6.6098609"
         ry="6.6098609" />
      <rect
         ry="6.6098609"
         rx="6.6098609"
         y="40.709618"
         x="69.839508"
         height="29.810888"
         width="29.810888"
         id="rect1638"
         style="fill:none;fill-opacity:1;stroke:#000000;stroke-width:0.2;stroke-linecap:round;stroke-linejoin:round;stroke-miterlimit:4;stroke-dasharray:none;stroke-opacity:0.02" />
      <rect
         style="fill:none;fill-opacity:1;stroke:#000000;stroke-width:0.3;stroke-linecap:round;stroke-linejoin:round;stroke-miterlimit:4;stroke-dasharray:none;stroke-opacity:0.02"
         id="rect1640"
         width="29.810888"
         height="29.810888"
         x="69.839508"
         y="40.709618"
         rx="6.6098609"
         ry="6.6098609" />
      <rect
         ry="6.6098609"
         rx="6.6098609"
         y="40.709618"
         x="69.839508"
         height="29.810888"
         width="29.810888"
         id="rect1642"
         style="fill:none;fill-opacity:1;stroke:#000000;stroke-width:0.4;stroke-linecap:round;stroke-linejoin:round;stroke-miterlimit:4;stroke-dasharray:none;stroke-opacity:0.02" />
      <rect
         style="fill:none;fill-opacity:1;stroke:#000000;stroke-width:0.5;stroke-linecap:round;stroke-linejoin:round;stroke-miterlimit:4;stroke-dasharray:none;stroke-opacity:0.02"
         id="rect1644"
         width="29.810888"
         height="29.810888"
         x="69.839508"
         y="40.709618"
         rx="6.6098609"
         ry="6.6098609" />
      <rect
         ry="6.6098609"
         rx="6.6098609"
         y="40.709618"
         x="69.839508"
         height="29.810888"
         width="29.810888"
         id="rect1646"
         style="fill:none;fill-opacity:1;stroke:#000000;stroke-width:0.6;stroke-linecap:round;stroke-linejoin:round;stroke-miterlimit:4;stroke-dasharray:none;stroke-opacity:0.02" />
      <rect
         style="fill:none;fill-opacity:1;stroke:#000000;stroke-width:0.7;stroke-linecap:round;stroke-linejoin:round;stroke-miterlimit:4;stroke-dasharray:none;stroke-opacity:0.02"
         id="rect1648"
         width="29.810888"
         height="29.810888"
         x="69.839508"
         y="40.709618"
         rx="6.6098609"
         ry="6.6098609" />
      <rect
         ry="6.6098609"
         rx="6.6098609"
         y="40.709618"
         x="69.839508"
         height="29.810888"
         width="29.810888"
         id="rect1650"
         style="fill:none;fill-opacity:1;stroke:#000000;stroke-width:0.8;stroke-linecap:round;stroke-linejoin:round;stroke-miterlimit:4;stroke-dasharray:none;stroke-opacity:0.02" />
      <rect
         style="fill:none;fill-opacity:1;stroke:#000000;stroke-width:1;stroke-linecap:round;stroke-linejoin:round;stroke-miterlimit:4;stroke-dasharray:none;stroke-opacity:0.02"
         id="rect1652"
         width="29.810888"
         height="29.810888"
         x="69.839508"
         y="40.709618"
         rx="6.6098609"
         ry="6.6098609" />
      <rect
         ry="6.6098609"
         rx="6.6098609"
         y="40.709618"
         x="69.839508"
         height="29.810888"
         width="29.810888"
         id="rect1654"
         style="fill:none;fill-opacity:1;stroke:#000000;stroke-width:1.2;stroke-linecap:round;stroke-linejoin:round;stroke-miterlimit:4;stroke-dasharray:none;stroke-opacity:0.02" />
      <rect
         style="fill:none;fill-opacity:1;stroke:#000000;stroke-width:1.4;stroke-linecap:round;stroke-linejoin:round;stroke-miterlimit:4;stroke-dasharray:none;stroke-opacity:0.02"
         id="rect1656"
         width="29.810888"
         height="29.810888"
         x="69.839508"
         y="40.709618"
         rx="6.6098609"
         ry="6.6098609" />
      <rect
         ry="6.6098609"
         rx="6.6098609"
         y="40.709618"
         x="69.839508"
         height="29.810888"
         width="29.810888"
         id="rect1658"
         style="fill:none;fill-opacity:1;stroke:#000000;stroke-width:1.6;stroke-linecap:round;stroke-linejoin:round;stroke-miterlimit:4;stroke-dasharray:none;stroke-opacity:0.02" />
      <rect
         style="fill:none;fill-opacity:1;stroke:#000000;stroke-width:1.8;stroke-linecap:round;stroke-linejoin:round;stroke-miterlimit:4;stroke-dasharray:none;stroke-opacity:0.02"
         id="rect1660"
         width="29.810888"
         height="29.810888"
         x="69.839508"
         y="40.709618"
         rx="6.6098609"
         ry="6.6098609" />
      <rect
         ry="6.6098609"
         rx="6.6098609"
         y="40.709618"
         x="69.839508"
         height="29.810888"
         width="29.810888"
         id="rect1662"
         style="fill:none;fill-opacity:1;stroke:#000000;stroke-width:2;stroke-linecap:round;stroke-linejoin:round;stroke-miterlimit:4;stroke-dasharray:none;stroke-opacity:0.02" />
      <rect
         style="fill:none;fill-opacity:1;stroke:#000000;stroke-width:2.2;stroke-linecap:round;stroke-linejoin:round;stroke-miterlimit:4;stroke-dasharray:none;stroke-opacity:0.02"
         id="rect1664"
         width="29.810888"
         height="29.810888"
         x="69.839508"
         y="40.709618"
         rx="6.6098609"
         ry="6.6098609" />
      <rect
         ry="6.6098609"
         rx="6.6098609"
         y="40.709618"
         x="69.839508"
         height="29.810888"
         width="29.810888"
         id="rect1666"
         style="fill:none;fill-opacity:1;stroke:#000000;stroke-width:2.6;stroke-linecap:round;stroke-linejoin:round;stroke-miterlimit:4;stroke-dasharray:none;stroke-opacity:0.02" />
      <rect
         style="fill:none;fill-opacity:1;stroke:#000000;stroke-width:3;stroke-linecap:round;stroke-linejoin:round;stroke-miterlimit:4;stroke-dasharray:none;stroke-opacity:0.02"
         id="rect1668"
         width="29.810888"
         height="29.810888"
         x="69.839508"
         y="40.709618"
         rx="6.6098609"
         ry="6.6098609" />
      <rect
         ry="6.6098609"
         rx="6.6098609"
         y="40.709618"
         x="69.839508"
         height="29.810888"
         width="29.810888"
         id="rect1670"
         style="fill:none;fill-opacity:1;stroke:#000000;stroke-width:3.4;stroke-linecap:round;stroke-linejoin:round;stroke-miterlimit:4;stroke-dasharray:none;stroke-opacity:0.02" />
      <rect
         style="fill:none;fill-opacity:1;stroke:#000000;stroke-width:3.8;stroke-linecap:round;stroke-linejoin:round;stroke-miterlimit:4;stroke-dasharray:none;stroke-opacity:0.02"
         id="rect1672"
         width="29.810888"
         height="29.810888"
         x="69.839508"
         y="40.709618"
         rx="6.6098609"
         ry="6.6098609" />
      <rect
         ry="6.6098609"
         rx="6.6098609"
         y="40.709618"
         x="69.839508"
         height="29.810888"
         width="29.810888"
         id="rect1674"
         style="fill:none;fill-opacity:1;stroke:#000000;stroke-width:4.2;stroke-linecap:round;stroke-linejoin:round;stroke-miterlimit:4;stroke-dasharray:none;stroke-opacity:0.02" />
      <rect
         style="fill:none;fill-opacity:1;stroke:#000000;stroke-width:4.6;stroke-linecap:round;stroke-linejoin:round;stroke-miterlimit:4;stroke-dasharray:none;stroke-opacity:0.02"
         id="rect1676"
         width="29.810888"
         height="29.810888"
         x="69.839508"
         y="40.709618"
         rx="6.6098609"
         ry="6.6098609" />
      <rect
         ry="6.6098609"
         rx="6.6098609"
         y="40.709618"
         x="69.839508"
         height="29.810888"
         width="29.810888"
         id="rect1678"
         style="fill:none;fill-opacity:1;stroke:#000000;stroke-width:5;stroke-linecap:round;stroke-linejoin:round;stroke-miterlimit:4;stroke-dasharray:none;stroke-opacity:0.02" />
    </g>
    <rect
       style="fill:url(#linearGradient936);fill-opacity:1;stroke-width:2.68768024;stroke-linecap:round;stroke-linejoin:round"
       id="rect849-5"
       width="29.08744"
       height="29.08744"
       x="2.3962667"
       y="2.5185876"
       rx="6.4494534"
       ry="6.4494534" />
    <g
       id="g1066"
       transform="matrix(0.24999608,0,0,0.24999608,-71.447186,26.603986)"
       style="opacity:0.538">
      <path
         id="path863-2"
         d="m 377.5082,-79.329457 c -0.7,-0.01403 -1.57748,0.109171 -2.67578,0.357422 l -18.19922,3.69336 -17.34179,3.425781 c -3.0722,0.65674 -3.66824,2.371606 -3.59571,5.082031 l 0.0469,42.306641 c -0.13962,2.973501 -0.46207,4.605067 -3.88282,5.152343 -12.10602,1.801889 -14.4545,5.552265 -14.38085,10.882813 0.0733,5.308775 4.37571,9.562544 10.30664,8.964844 5.20132,-0.57853 9.07593,-2.093615 11.45703,-6.904297 0.92183,-1.811914 1.23577,-5.581152 1.00781,-9.396485 l -0.0488,-33.652343 c 0.01,-2.355753 -0.38947,-3.667024 2.73242,-4.314454 l 16.34961,-3.294921 2.44336,-0.492188 v -0.0039 l 11.15821,-2.25 c 1.81449,-0.365976 2.66769,0.253898 2.69531,2.300781 l 0.0488,25.144531 c -0.13962,2.973501 -0.42887,4.335537 -3.84961,4.882813 -12.10603,1.801889 -14.48967,5.821796 -14.41602,11.152344 0.0733,5.308775 4.44407,9.293012 10.375,8.695312 5.20132,-0.57853 8.94117,-1.9236929 11.32227,-6.734375 0.92183,-1.811914 0.9971,-5.411792 1.07422,-9.294922 l -0.0312,-51.482422 c -0.002,-2.895455 -0.4957,-4.178618 -2.59571,-4.220703 z"
         style="fill:none;stroke:#111214;stroke-width:0.1;stroke-linecap:round;stroke-linejoin:round;stroke-miterlimit:4;stroke-dasharray:none;stroke-opacity:0.0117647"
         inkscape:connector-curvature="0" />
      <path
         style="fill:none;stroke:#111214;stroke-width:0.2;stroke-linecap:round;stroke-linejoin:round;stroke-miterlimit:4;stroke-dasharray:none;stroke-opacity:0.0117647"
         d="m 377.5082,-79.329457 c -0.7,-0.01403 -1.57748,0.109171 -2.67578,0.357422 l -18.19922,3.69336 -17.34179,3.425781 c -3.0722,0.65674 -3.66824,2.371606 -3.59571,5.082031 l 0.0469,42.306641 c -0.13962,2.973501 -0.46207,4.605067 -3.88282,5.152343 -12.10602,1.801889 -14.4545,5.552265 -14.38085,10.882813 0.0733,5.308775 4.37571,9.562544 10.30664,8.964844 5.20132,-0.57853 9.07593,-2.093615 11.45703,-6.904297 0.92183,-1.811914 1.23577,-5.581152 1.00781,-9.396485 l -0.0488,-33.652343 c 0.01,-2.355753 -0.38947,-3.667024 2.73242,-4.314454 l 16.34961,-3.294921 2.44336,-0.492188 v -0.0039 l 11.15821,-2.25 c 1.81449,-0.365976 2.66769,0.253898 2.69531,2.300781 l 0.0488,25.144531 c -0.13962,2.973501 -0.42887,4.335537 -3.84961,4.882813 -12.10603,1.801889 -14.48967,5.821796 -14.41602,11.152344 0.0733,5.308775 4.44407,9.293012 10.375,8.695312 5.20132,-0.57853 8.94117,-1.9236929 11.32227,-6.734375 0.92183,-1.811914 0.9971,-5.411792 1.07422,-9.294922 l -0.0312,-51.482422 c -0.002,-2.895455 -0.4957,-4.178618 -2.59571,-4.220703 z"
         id="path976"
         inkscape:connector-curvature="0" />
      <path
         id="path978"
         d="m 377.5082,-79.329457 c -0.7,-0.01403 -1.57748,0.109171 -2.67578,0.357422 l -18.19922,3.69336 -17.34179,3.425781 c -3.0722,0.65674 -3.66824,2.371606 -3.59571,5.082031 l 0.0469,42.306641 c -0.13962,2.973501 -0.46207,4.605067 -3.88282,5.152343 -12.10602,1.801889 -14.4545,5.552265 -14.38085,10.882813 0.0733,5.308775 4.37571,9.562544 10.30664,8.964844 5.20132,-0.57853 9.07593,-2.093615 11.45703,-6.904297 0.92183,-1.811914 1.23577,-5.581152 1.00781,-9.396485 l -0.0488,-33.652343 c 0.01,-2.355753 -0.38947,-3.667024 2.73242,-4.314454 l 16.34961,-3.294921 2.44336,-0.492188 v -0.0039 l 11.15821,-2.25 c 1.81449,-0.365976 2.66769,0.253898 2.69531,2.300781 l 0.0488,25.144531 c -0.13962,2.973501 -0.42887,4.335537 -3.84961,4.882813 -12.10603,1.801889 -14.48967,5.821796 -14.41602,11.152344 0.0733,5.308775 4.44407,9.293012 10.375,8.695312 5.20132,-0.57853 8.94117,-1.9236929 11.32227,-6.734375 0.92183,-1.811914 0.9971,-5.411792 1.07422,-9.294922 l -0.0312,-51.482422 c -0.002,-2.895455 -0.4957,-4.178618 -2.59571,-4.220703 z"
         style="fill:none;stroke:#111214;stroke-width:0.3;stroke-linecap:round;stroke-linejoin:round;stroke-miterlimit:4;stroke-dasharray:none;stroke-opacity:0.0117647"
         inkscape:connector-curvature="0" />
      <path
         style="fill:none;stroke:#111214;stroke-width:0.5;stroke-linecap:round;stroke-linejoin:round;stroke-miterlimit:4;stroke-dasharray:none;stroke-opacity:0.0117647"
         d="m 377.5082,-79.329457 c -0.7,-0.01403 -1.57748,0.109171 -2.67578,0.357422 l -18.19922,3.69336 -17.34179,3.425781 c -3.0722,0.65674 -3.66824,2.371606 -3.59571,5.082031 l 0.0469,42.306641 c -0.13962,2.973501 -0.46207,4.605067 -3.88282,5.152343 -12.10602,1.801889 -14.4545,5.552265 -14.38085,10.882813 0.0733,5.308775 4.37571,9.562544 10.30664,8.964844 5.20132,-0.57853 9.07593,-2.093615 11.45703,-6.904297 0.92183,-1.811914 1.23577,-5.581152 1.00781,-9.396485 l -0.0488,-33.652343 c 0.01,-2.355753 -0.38947,-3.667024 2.73242,-4.314454 l 16.34961,-3.294921 2.44336,-0.492188 v -0.0039 l 11.15821,-2.25 c 1.81449,-0.365976 2.66769,0.253898 2.69531,2.300781 l 0.0488,25.144531 c -0.13962,2.973501 -0.42887,4.335537 -3.84961,4.882813 -12.10603,1.801889 -14.48967,5.821796 -14.41602,11.152344 0.0733,5.308775 4.44407,9.293012 10.375,8.695312 5.20132,-0.57853 8.94117,-1.9236929 11.32227,-6.734375 0.92183,-1.811914 0.9971,-5.411792 1.07422,-9.294922 l -0.0312,-51.482422 c -0.002,-2.895455 -0.4957,-4.178618 -2.59571,-4.220703 z"
         id="path980"
         inkscape:connector-curvature="0" />
      <path
         id="path982"
         d="m 377.5082,-79.329457 c -0.7,-0.01403 -1.57748,0.109171 -2.67578,0.357422 l -18.19922,3.69336 -17.34179,3.425781 c -3.0722,0.65674 -3.66824,2.371606 -3.59571,5.082031 l 0.0469,42.306641 c -0.13962,2.973501 -0.46207,4.605067 -3.88282,5.152343 -12.10602,1.801889 -14.4545,5.552265 -14.38085,10.882813 0.0733,5.308775 4.37571,9.562544 10.30664,8.964844 5.20132,-0.57853 9.07593,-2.093615 11.45703,-6.904297 0.92183,-1.811914 1.23577,-5.581152 1.00781,-9.396485 l -0.0488,-33.652343 c 0.01,-2.355753 -0.38947,-3.667024 2.73242,-4.314454 l 16.34961,-3.294921 2.44336,-0.492188 v -0.0039 l 11.15821,-2.25 c 1.81449,-0.365976 2.66769,0.253898 2.69531,2.300781 l 0.0488,25.144531 c -0.13962,2.973501 -0.42887,4.335537 -3.84961,4.882813 -12.10603,1.801889 -14.48967,5.821796 -14.41602,11.152344 0.0733,5.308775 4.44407,9.293012 10.375,8.695312 5.20132,-0.57853 8.94117,-1.9236929 11.32227,-6.734375 0.92183,-1.811914 0.9971,-5.411792 1.07422,-9.294922 l -0.0312,-51.482422 c -0.002,-2.895455 -0.4957,-4.178618 -2.59571,-4.220703 z"
         style="fill:none;stroke:#111214;stroke-width:0.7;stroke-linecap:round;stroke-linejoin:round;stroke-miterlimit:4;stroke-dasharray:none;stroke-opacity:0.0117647"
         inkscape:connector-curvature="0" />
      <path
         style="fill:none;stroke:#111214;stroke-width:0.9;stroke-linecap:round;stroke-linejoin:round;stroke-miterlimit:4;stroke-dasharray:none;stroke-opacity:0.0117647"
         d="m 377.5082,-79.329457 c -0.7,-0.01403 -1.57748,0.109171 -2.67578,0.357422 l -18.19922,3.69336 -17.34179,3.425781 c -3.0722,0.65674 -3.66824,2.371606 -3.59571,5.082031 l 0.0469,42.306641 c -0.13962,2.973501 -0.46207,4.605067 -3.88282,5.152343 -12.10602,1.801889 -14.4545,5.552265 -14.38085,10.882813 0.0733,5.308775 4.37571,9.562544 10.30664,8.964844 5.20132,-0.57853 9.07593,-2.093615 11.45703,-6.904297 0.92183,-1.811914 1.23577,-5.581152 1.00781,-9.396485 l -0.0488,-33.652343 c 0.01,-2.355753 -0.38947,-3.667024 2.73242,-4.314454 l 16.34961,-3.294921 2.44336,-0.492188 v -0.0039 l 11.15821,-2.25 c 1.81449,-0.365976 2.66769,0.253898 2.69531,2.300781 l 0.0488,25.144531 c -0.13962,2.973501 -0.42887,4.335537 -3.84961,4.882813 -12.10603,1.801889 -14.48967,5.821796 -14.41602,11.152344 0.0733,5.308775 4.44407,9.293012 10.375,8.695312 5.20132,-0.57853 8.94117,-1.9236929 11.32227,-6.734375 0.92183,-1.811914 0.9971,-5.411792 1.07422,-9.294922 l -0.0312,-51.482422 c -0.002,-2.895455 -0.4957,-4.178618 -2.59571,-4.220703 z"
         id="path984"
         inkscape:connector-curvature="0" />
      <path
         id="path986"
         d="m 377.5082,-79.329457 c -0.7,-0.01403 -1.57748,0.109171 -2.67578,0.357422 l -18.19922,3.69336 -17.34179,3.425781 c -3.0722,0.65674 -3.66824,2.371606 -3.59571,5.082031 l 0.0469,42.306641 c -0.13962,2.973501 -0.46207,4.605067 -3.88282,5.152343 -12.10602,1.801889 -14.4545,5.552265 -14.38085,10.882813 0.0733,5.308775 4.37571,9.562544 10.30664,8.964844 5.20132,-0.57853 9.07593,-2.093615 11.45703,-6.904297 0.92183,-1.811914 1.23577,-5.581152 1.00781,-9.396485 l -0.0488,-33.652343 c 0.01,-2.355753 -0.38947,-3.667024 2.73242,-4.314454 l 16.34961,-3.294921 2.44336,-0.492188 v -0.0039 l 11.15821,-2.25 c 1.81449,-0.365976 2.66769,0.253898 2.69531,2.300781 l 0.0488,25.144531 c -0.13962,2.973501 -0.42887,4.335537 -3.84961,4.882813 -12.10603,1.801889 -14.48967,5.821796 -14.41602,11.152344 0.0733,5.308775 4.44407,9.293012 10.375,8.695312 5.20132,-0.57853 8.94117,-1.9236929 11.32227,-6.734375 0.92183,-1.811914 0.9971,-5.411792 1.07422,-9.294922 l -0.0312,-51.482422 c -0.002,-2.895455 -0.4957,-4.178618 -2.59571,-4.220703 z"
         style="fill:none;stroke:#111214;stroke-width:1.1;stroke-linecap:round;stroke-linejoin:round;stroke-miterlimit:4;stroke-dasharray:none;stroke-opacity:0.0117647"
         inkscape:connector-curvature="0" />
      <path
         style="fill:none;stroke:#111214;stroke-width:1.6;stroke-linecap:round;stroke-linejoin:round;stroke-miterlimit:4;stroke-dasharray:none;stroke-opacity:0.0117647"
         d="m 377.5082,-79.329457 c -0.7,-0.01403 -1.57748,0.109171 -2.67578,0.357422 l -18.19922,3.69336 -17.34179,3.425781 c -3.0722,0.65674 -3.66824,2.371606 -3.59571,5.082031 l 0.0469,42.306641 c -0.13962,2.973501 -0.46207,4.605067 -3.88282,5.152343 -12.10602,1.801889 -14.4545,5.552265 -14.38085,10.882813 0.0733,5.308775 4.37571,9.562544 10.30664,8.964844 5.20132,-0.57853 9.07593,-2.093615 11.45703,-6.904297 0.92183,-1.811914 1.23577,-5.581152 1.00781,-9.396485 l -0.0488,-33.652343 c 0.01,-2.355753 -0.38947,-3.667024 2.73242,-4.314454 l 16.34961,-3.294921 2.44336,-0.492188 v -0.0039 l 11.15821,-2.25 c 1.81449,-0.365976 2.66769,0.253898 2.69531,2.300781 l 0.0488,25.144531 c -0.13962,2.973501 -0.42887,4.335537 -3.84961,4.882813 -12.10603,1.801889 -14.48967,5.821796 -14.41602,11.152344 0.0733,5.308775 4.44407,9.293012 10.375,8.695312 5.20132,-0.57853 8.94117,-1.9236929 11.32227,-6.734375 0.92183,-1.811914 0.9971,-5.411792 1.07422,-9.294922 l -0.0312,-51.482422 c -0.002,-2.895455 -0.4957,-4.178618 -2.59571,-4.220703 z"
         id="path988"
         inkscape:connector-curvature="0" />
      <path
         id="path990"
         d="m 377.5082,-79.329457 c -0.7,-0.01403 -1.57748,0.109171 -2.67578,0.357422 l -18.19922,3.69336 -17.34179,3.425781 c -3.0722,0.65674 -3.66824,2.371606 -3.59571,5.082031 l 0.0469,42.306641 c -0.13962,2.973501 -0.46207,4.605067 -3.88282,5.152343 -12.10602,1.801889 -14.4545,5.552265 -14.38085,10.882813 0.0733,5.308775 4.37571,9.562544 10.30664,8.964844 5.20132,-0.57853 9.07593,-2.093615 11.45703,-6.904297 0.92183,-1.811914 1.23577,-5.581152 1.00781,-9.396485 l -0.0488,-33.652343 c 0.01,-2.355753 -0.38947,-3.667024 2.73242,-4.314454 l 16.34961,-3.294921 2.44336,-0.492188 v -0.0039 l 11.15821,-2.25 c 1.81449,-0.365976 2.66769,0.253898 2.69531,2.300781 l 0.0488,25.144531 c -0.13962,2.973501 -0.42887,4.335537 -3.84961,4.882813 -12.10603,1.801889 -14.48967,5.821796 -14.41602,11.152344 0.0733,5.308775 4.44407,9.293012 10.375,8.695312 5.20132,-0.57853 8.94117,-1.9236929 11.32227,-6.734375 0.92183,-1.811914 0.9971,-5.411792 1.07422,-9.294922 l -0.0312,-51.482422 c -0.002,-2.895455 -0.4957,-4.178618 -2.59571,-4.220703 z"
         style="fill:none;stroke:#111214;stroke-width:2.1;stroke-linecap:round;stroke-linejoin:round;stroke-miterlimit:4;stroke-dasharray:none;stroke-opacity:0.0117647"
         inkscape:connector-curvature="0" />
      <path
         style="fill:none;stroke:#111214;stroke-width:2.6;stroke-linecap:round;stroke-linejoin:round;stroke-miterlimit:4;stroke-dasharray:none;stroke-opacity:0.0117647"
         d="m 377.5082,-79.329457 c -0.7,-0.01403 -1.57748,0.109171 -2.67578,0.357422 l -18.19922,3.69336 -17.34179,3.425781 c -3.0722,0.65674 -3.66824,2.371606 -3.59571,5.082031 l 0.0469,42.306641 c -0.13962,2.973501 -0.46207,4.605067 -3.88282,5.152343 -12.10602,1.801889 -14.4545,5.552265 -14.38085,10.882813 0.0733,5.308775 4.37571,9.562544 10.30664,8.964844 5.20132,-0.57853 9.07593,-2.093615 11.45703,-6.904297 0.92183,-1.811914 1.23577,-5.581152 1.00781,-9.396485 l -0.0488,-33.652343 c 0.01,-2.355753 -0.38947,-3.667024 2.73242,-4.314454 l 16.34961,-3.294921 2.44336,-0.492188 v -0.0039 l 11.15821,-2.25 c 1.81449,-0.365976 2.66769,0.253898 2.69531,2.300781 l 0.0488,25.144531 c -0.13962,2.973501 -0.42887,4.335537 -3.84961,4.882813 -12.10603,1.801889 -14.48967,5.821796 -14.41602,11.152344 0.0733,5.308775 4.44407,9.293012 10.375,8.695312 5.20132,-0.57853 8.94117,-1.9236929 11.32227,-6.734375 0.92183,-1.811914 0.9971,-5.411792 1.07422,-9.294922 l -0.0312,-51.482422 c -0.002,-2.895455 -0.4957,-4.178618 -2.59571,-4.220703 z"
         id="path992"
         inkscape:connector-curvature="0" />
      <path
         id="path994"
         d="m 377.5082,-79.329457 c -0.7,-0.01403 -1.57748,0.109171 -2.67578,0.357422 l -18.19922,3.69336 -17.34179,3.425781 c -3.0722,0.65674 -3.66824,2.371606 -3.59571,5.082031 l 0.0469,42.306641 c -0.13962,2.973501 -0.46207,4.605067 -3.88282,5.152343 -12.10602,1.801889 -14.4545,5.552265 -14.38085,10.882813 0.0733,5.308775 4.37571,9.562544 10.30664,8.964844 5.20132,-0.57853 9.07593,-2.093615 11.45703,-6.904297 0.92183,-1.811914 1.23577,-5.581152 1.00781,-9.396485 l -0.0488,-33.652343 c 0.01,-2.355753 -0.38947,-3.667024 2.73242,-4.314454 l 16.34961,-3.294921 2.44336,-0.492188 v -0.0039 l 11.15821,-2.25 c 1.81449,-0.365976 2.66769,0.253898 2.69531,2.300781 l 0.0488,25.144531 c -0.13962,2.973501 -0.42887,4.335537 -3.84961,4.882813 -12.10603,1.801889 -14.48967,5.821796 -14.41602,11.152344 0.0733,5.308775 4.44407,9.293012 10.375,8.695312 5.20132,-0.57853 8.94117,-1.9236929 11.32227,-6.734375 0.92183,-1.811914 0.9971,-5.411792 1.07422,-9.294922 l -0.0312,-51.482422 c -0.002,-2.895455 -0.4957,-4.178618 -2.59571,-4.220703 z"
         style="fill:none;stroke:#111214;stroke-width:3.1;stroke-linecap:round;stroke-linejoin:round;stroke-miterlimit:4;stroke-dasharray:none;stroke-opacity:0.0117647"
         inkscape:connector-curvature="0" />
      <path
         style="fill:none;stroke:#111214;stroke-width:3.9;stroke-linecap:round;stroke-linejoin:round;stroke-miterlimit:4;stroke-dasharray:none;stroke-opacity:0.0117647"
         d="m 377.5082,-79.329457 c -0.7,-0.01403 -1.57748,0.109171 -2.67578,0.357422 l -18.19922,3.69336 -17.34179,3.425781 c -3.0722,0.65674 -3.66824,2.371606 -3.59571,5.082031 l 0.0469,42.306641 c -0.13962,2.973501 -0.46207,4.605067 -3.88282,5.152343 -12.10602,1.801889 -14.4545,5.552265 -14.38085,10.882813 0.0733,5.308775 4.37571,9.562544 10.30664,8.964844 5.20132,-0.57853 9.07593,-2.093615 11.45703,-6.904297 0.92183,-1.811914 1.23577,-5.581152 1.00781,-9.396485 l -0.0488,-33.652343 c 0.01,-2.355753 -0.38947,-3.667024 2.73242,-4.314454 l 16.34961,-3.294921 2.44336,-0.492188 v -0.0039 l 11.15821,-2.25 c 1.81449,-0.365976 2.66769,0.253898 2.69531,2.300781 l 0.0488,25.144531 c -0.13962,2.973501 -0.42887,4.335537 -3.84961,4.882813 -12.10603,1.801889 -14.48967,5.821796 -14.41602,11.152344 0.0733,5.308775 4.44407,9.293012 10.375,8.695312 5.20132,-0.57853 8.94117,-1.9236929 11.32227,-6.734375 0.92183,-1.811914 0.9971,-5.411792 1.07422,-9.294922 l -0.0312,-51.482422 c -0.002,-2.895455 -0.4957,-4.178618 -2.59571,-4.220703 z"
         id="path996"
         inkscape:connector-curvature="0" />
      <path
         id="path998"
         d="m 377.5082,-79.329457 c -0.7,-0.01403 -1.57748,0.109171 -2.67578,0.357422 l -18.19922,3.69336 -17.34179,3.425781 c -3.0722,0.65674 -3.66824,2.371606 -3.59571,5.082031 l 0.0469,42.306641 c -0.13962,2.973501 -0.46207,4.605067 -3.88282,5.152343 -12.10602,1.801889 -14.4545,5.552265 -14.38085,10.882813 0.0733,5.308775 4.37571,9.562544 10.30664,8.964844 5.20132,-0.57853 9.07593,-2.093615 11.45703,-6.904297 0.92183,-1.811914 1.23577,-5.581152 1.00781,-9.396485 l -0.0488,-33.652343 c 0.01,-2.355753 -0.38947,-3.667024 2.73242,-4.314454 l 16.34961,-3.294921 2.44336,-0.492188 v -0.0039 l 11.15821,-2.25 c 1.81449,-0.365976 2.66769,0.253898 2.69531,2.300781 l 0.0488,25.144531 c -0.13962,2.973501 -0.42887,4.335537 -3.84961,4.882813 -12.10603,1.801889 -14.48967,5.821796 -14.41602,11.152344 0.0733,5.308775 4.44407,9.293012 10.375,8.695312 5.20132,-0.57853 8.94117,-1.9236929 11.32227,-6.734375 0.92183,-1.811914 0.9971,-5.411792 1.07422,-9.294922 l -0.0312,-51.482422 c -0.002,-2.895455 -0.4957,-4.178618 -2.59571,-4.220703 z"
         style="fill:none;stroke:#111214;stroke-width:4.7;stroke-linecap:round;stroke-linejoin:round;stroke-miterlimit:4;stroke-dasharray:none;stroke-opacity:0.0117647"
         inkscape:connector-curvature="0" />
      <path
         style="fill:none;stroke:#111214;stroke-width:5.5;stroke-linecap:round;stroke-linejoin:round;stroke-miterlimit:4;stroke-dasharray:none;stroke-opacity:0.0117647"
         d="m 377.5082,-79.329457 c -0.7,-0.01403 -1.57748,0.109171 -2.67578,0.357422 l -18.19922,3.69336 -17.34179,3.425781 c -3.0722,0.65674 -3.66824,2.371606 -3.59571,5.082031 l 0.0469,42.306641 c -0.13962,2.973501 -0.46207,4.605067 -3.88282,5.152343 -12.10602,1.801889 -14.4545,5.552265 -14.38085,10.882813 0.0733,5.308775 4.37571,9.562544 10.30664,8.964844 5.20132,-0.57853 9.07593,-2.093615 11.45703,-6.904297 0.92183,-1.811914 1.23577,-5.581152 1.00781,-9.396485 l -0.0488,-33.652343 c 0.01,-2.355753 -0.38947,-3.667024 2.73242,-4.314454 l 16.34961,-3.294921 2.44336,-0.492188 v -0.0039 l 11.15821,-2.25 c 1.81449,-0.365976 2.66769,0.253898 2.69531,2.300781 l 0.0488,25.144531 c -0.13962,2.973501 -0.42887,4.335537 -3.84961,4.882813 -12.10603,1.801889 -14.48967,5.821796 -14.41602,11.152344 0.0733,5.308775 4.44407,9.293012 10.375,8.695312 5.20132,-0.57853 8.94117,-1.9236929 11.32227,-6.734375 0.92183,-1.811914 0.9971,-5.411792 1.07422,-9.294922 l -0.0312,-51.482422 c -0.002,-2.895455 -0.4957,-4.178618 -2.59571,-4.220703 z"
         id="path1000"
         inkscape:connector-curvature="0" />
      <path
         id="path1002"
         d="m 377.5082,-79.329457 c -0.7,-0.01403 -1.57748,0.109171 -2.67578,0.357422 l -18.19922,3.69336 -17.34179,3.425781 c -3.0722,0.65674 -3.66824,2.371606 -3.59571,5.082031 l 0.0469,42.306641 c -0.13962,2.973501 -0.46207,4.605067 -3.88282,5.152343 -12.10602,1.801889 -14.4545,5.552265 -14.38085,10.882813 0.0733,5.308775 4.37571,9.562544 10.30664,8.964844 5.20132,-0.57853 9.07593,-2.093615 11.45703,-6.904297 0.92183,-1.811914 1.23577,-5.581152 1.00781,-9.396485 l -0.0488,-33.652343 c 0.01,-2.355753 -0.38947,-3.667024 2.73242,-4.314454 l 16.34961,-3.294921 2.44336,-0.492188 v -0.0039 l 11.15821,-2.25 c 1.81449,-0.365976 2.66769,0.253898 2.69531,2.300781 l 0.0488,25.144531 c -0.13962,2.973501 -0.42887,4.335537 -3.84961,4.882813 -12.10603,1.801889 -14.48967,5.821796 -14.41602,11.152344 0.0733,5.308775 4.44407,9.293012 10.375,8.695312 5.20132,-0.57853 8.94117,-1.9236929 11.32227,-6.734375 0.92183,-1.811914 0.9971,-5.411792 1.07422,-9.294922 l -0.0312,-51.482422 c -0.002,-2.895455 -0.4957,-4.178618 -2.59571,-4.220703 z"
         style="fill:none;stroke:#111214;stroke-width:6.5;stroke-linecap:round;stroke-linejoin:round;stroke-miterlimit:4;stroke-dasharray:none;stroke-opacity:0.0117647"
         inkscape:connector-curvature="0" />
      <path
         style="fill:none;stroke:#111214;stroke-width:7.5;stroke-linecap:round;stroke-linejoin:round;stroke-miterlimit:4;stroke-dasharray:none;stroke-opacity:0.0117647"
         d="m 377.5082,-79.329457 c -0.7,-0.01403 -1.57748,0.109171 -2.67578,0.357422 l -18.19922,3.69336 -17.34179,3.425781 c -3.0722,0.65674 -3.66824,2.371606 -3.59571,5.082031 l 0.0469,42.306641 c -0.13962,2.973501 -0.46207,4.605067 -3.88282,5.152343 -12.10602,1.801889 -14.4545,5.552265 -14.38085,10.882813 0.0733,5.308775 4.37571,9.562544 10.30664,8.964844 5.20132,-0.57853 9.07593,-2.093615 11.45703,-6.904297 0.92183,-1.811914 1.23577,-5.581152 1.00781,-9.396485 l -0.0488,-33.652343 c 0.01,-2.355753 -0.38947,-3.667024 2.73242,-4.314454 l 16.34961,-3.294921 2.44336,-0.492188 v -0.0039 l 11.15821,-2.25 c 1.81449,-0.365976 2.66769,0.253898 2.69531,2.300781 l 0.0488,25.144531 c -0.13962,2.973501 -0.42887,4.335537 -3.84961,4.882813 -12.10603,1.801889 -14.48967,5.821796 -14.41602,11.152344 0.0733,5.308775 4.44407,9.293012 10.375,8.695312 5.20132,-0.57853 8.94117,-1.9236929 11.32227,-6.734375 0.92183,-1.811914 0.9971,-5.411792 1.07422,-9.294922 l -0.0312,-51.482422 c -0.002,-2.895455 -0.4957,-4.178618 -2.59571,-4.220703 z"
         id="path1004"
         inkscape:connector-curvature="0" />
      <path
         id="path1006"
         d="m 377.5082,-79.329457 c -0.7,-0.01403 -1.57748,0.109171 -2.67578,0.357422 l -18.19922,3.69336 -17.34179,3.425781 c -3.0722,0.65674 -3.66824,2.371606 -3.59571,5.082031 l 0.0469,42.306641 c -0.13962,2.973501 -0.46207,4.605067 -3.88282,5.152343 -12.10602,1.801889 -14.4545,5.552265 -14.38085,10.882813 0.0733,5.308775 4.37571,9.562544 10.30664,8.964844 5.20132,-0.57853 9.07593,-2.093615 11.45703,-6.904297 0.92183,-1.811914 1.23577,-5.581152 1.00781,-9.396485 l -0.0488,-33.652343 c 0.01,-2.355753 -0.38947,-3.667024 2.73242,-4.314454 l 16.34961,-3.294921 2.44336,-0.492188 v -0.0039 l 11.15821,-2.25 c 1.81449,-0.365976 2.66769,0.253898 2.69531,2.300781 l 0.0488,25.144531 c -0.13962,2.973501 -0.42887,4.335537 -3.84961,4.882813 -12.10603,1.801889 -14.48967,5.821796 -14.41602,11.152344 0.0733,5.308775 4.44407,9.293012 10.375,8.695312 5.20132,-0.57853 8.94117,-1.9236929 11.32227,-6.734375 0.92183,-1.811914 0.9971,-5.411792 1.07422,-9.294922 l -0.0312,-51.482422 c -0.002,-2.895455 -0.4957,-4.178618 -2.59571,-4.220703 z"
         style="fill:none;stroke:#111214;stroke-width:9;stroke-linecap:round;stroke-linejoin:round;stroke-miterlimit:4;stroke-dasharray:none;stroke-opacity:0.0117647"
         inkscape:connector-curvature="0" />
      <path
         style="fill:none;stroke:#111214;stroke-width:10.5;stroke-linecap:round;stroke-linejoin:round;stroke-miterlimit:4;stroke-dasharray:none;stroke-opacity:0.0117647"
         d="m 377.5082,-79.329457 c -0.7,-0.01403 -1.57748,0.109171 -2.67578,0.357422 l -18.19922,3.69336 -17.34179,3.425781 c -3.0722,0.65674 -3.66824,2.371606 -3.59571,5.082031 l 0.0469,42.306641 c -0.13962,2.973501 -0.46207,4.605067 -3.88282,5.152343 -12.10602,1.801889 -14.4545,5.552265 -14.38085,10.882813 0.0733,5.308775 4.37571,9.562544 10.30664,8.964844 5.20132,-0.57853 9.07593,-2.093615 11.45703,-6.904297 0.92183,-1.811914 1.23577,-5.581152 1.00781,-9.396485 l -0.0488,-33.652343 c 0.01,-2.355753 -0.38947,-3.667024 2.73242,-4.314454 l 16.34961,-3.294921 2.44336,-0.492188 v -0.0039 l 11.15821,-2.25 c 1.81449,-0.365976 2.66769,0.253898 2.69531,2.300781 l 0.0488,25.144531 c -0.13962,2.973501 -0.42887,4.335537 -3.84961,4.882813 -12.10603,1.801889 -14.48967,5.821796 -14.41602,11.152344 0.0733,5.308775 4.44407,9.293012 10.375,8.695312 5.20132,-0.57853 8.94117,-1.9236929 11.32227,-6.734375 0.92183,-1.811914 0.9971,-5.411792 1.07422,-9.294922 l -0.0312,-51.482422 c -0.002,-2.895455 -0.4957,-4.178618 -2.59571,-4.220703 z"
         id="path1008"
         inkscape:connector-curvature="0" />
    </g>
    <path
       style="fill:url(#linearGradient909);fill-opacity:1;stroke:none;stroke-width:0.0249996;stroke-linecap:butt;stroke-linejoin:miter;stroke-miterlimit:4;stroke-dasharray:none;stroke-opacity:1"
       d="m 18.16816,7.6942767 -4.793867,0.9467889 c -0.768038,0.1641825 -0.916983,0.59278 -0.898851,1.2703756 l 0.012,10.5764738 c -0.03491,0.743364 -0.115589,1.151536 -0.97076,1.288352 -3.0264601,0.450466 -3.6138584,1.387906 -3.5954462,2.720522 0.018325,1.327173 1.0940403,2.390556 2.5767492,2.241134 1.30031,-0.144631 2.269072,-0.523142 2.864338,-1.725794 0.230454,-0.452971 0.308668,-1.395177 0.251679,-2.348996 l -0.01197,-8.41324 c 0.0025,-0.588929 -0.09733,-0.916766 0.683126,-1.078621 l 4.087094,-0.823674 0.610898,-0.123115 z"
       id="path863"
       inkscape:connector-curvature="0"
       sodipodi:nodetypes="cccccscccccccc" />
    <path
       style="fill:url(#linearGradient906);fill-opacity:1;stroke:none;stroke-width:0.09448668;stroke-linecap:butt;stroke-linejoin:miter;stroke-miterlimit:4;stroke-dasharray:none;stroke-opacity:1"
       d="M 86.658203 25.59375 C 85.996794 25.580495 85.166656 25.699029 84.128906 25.933594 L 66.853516 29.439453 L 50.548828 32.658203 C 47.646007 33.278735 47.08186 34.899946 47.150391 37.460938 L 47.197266 77.435547 C 47.065322 80.245112 46.759486 81.787588 43.527344 82.304688 C 32.088754 84.007236 29.869864 87.549279 29.939453 92.585938 C 30.008713 97.602024 34.073795 101.62139 39.677734 101.05664 C 44.592292 100.51 48.254082 99.07866 50.503906 94.533203 C 51.374913 92.821187 51.67047 89.261235 51.455078 85.65625 L 51.410156 53.857422 C 51.419605 51.631548 51.040479 50.392985 53.990234 49.78125 L 69.4375 46.667969 L 71.748047 46.203125 L 71.748047 46.199219 L 82.289062 44.072266 C 84.003513 43.726477 84.811793 44.314017 84.837891 46.248047 L 84.882812 70.005859 C 84.750907 72.81542 84.47824 74.102037 81.246094 74.619141 C 69.807505 76.321686 67.555411 80.12154 67.625 85.158203 C 67.694279 90.17429 71.823795 93.935838 77.427734 93.371094 C 82.342288 92.824461 85.875176 91.555222 88.125 87.009766 C 88.996007 85.297749 89.067756 81.895603 89.140625 78.226562 L 89.111328 29.583984 C 89.109911 26.848164 88.642432 25.633515 86.658203 25.59375 z "
       transform="scale(0.26458333)"
       id="path865" />
    <path
       transform="scale(0.26458333)"
       d="M 82.890625 43.361328 C 82.704394 43.374579 82.503369 43.402089 82.289062 43.445312 L 71.748047 45.572266 L 71.748047 45.576172 L 69.4375 46.041016 L 53.990234 49.154297 C 51.486033 49.673631 51.38662 50.686646 51.40625 52.330078 C 51.447723 51.037247 51.80013 50.235445 53.990234 49.78125 L 69.4375 46.667969 L 71.748047 46.203125 L 71.748047 46.199219 L 82.289062 44.072266 C 84.003513 43.726477 84.811793 44.314017 84.837891 46.248047 L 84.880859 69.396484 C 84.881156 69.390209 84.882517 69.385196 84.882812 69.378906 L 84.837891 45.621094 C 84.815055 43.928808 84.19424 43.268575 82.890625 43.361328 z M 89.140625 77.615234 C 89.067863 81.27815 88.994738 84.673286 88.125 86.382812 C 85.875176 90.928265 82.342288 92.197508 77.427734 92.744141 C 71.872548 93.303972 67.771327 89.610735 67.632812 84.660156 C 67.62968 84.825986 67.62267 84.989568 67.625 85.158203 C 67.694279 90.17429 71.823795 93.935838 77.427734 93.371094 C 82.342288 92.824461 85.875176 91.555222 88.125 87.009766 C 88.996007 85.297749 89.067756 81.895603 89.140625 78.226562 L 89.140625 77.615234 z M 51.511719 87.966797 C 51.459591 90.457455 51.13412 92.667528 50.503906 93.90625 C 48.254082 98.451706 44.592292 99.883047 39.677734 100.42969 C 34.123922 100.98939 30.086556 97.045055 29.947266 92.091797 C 29.944255 92.256136 29.937137 92.418273 29.939453 92.585938 C 30.008713 97.602023 34.073795 101.62139 39.677734 101.05664 C 44.592292 100.51 48.254082 99.07866 50.503906 94.533203 C 51.186332 93.191856 51.504759 90.709773 51.511719 87.966797 z "
       style="fill:#000000;fill-opacity:0.15744732;stroke:none;stroke-width:0.0944867;stroke-linecap:butt;stroke-linejoin:miter;stroke-miterlimit:4;stroke-dasharray:none;stroke-opacity:1"
       id="path949" />
    <path
       transform="scale(0.26458333)"
       d="M 86.658203 25.59375 C 85.996794 25.580495 85.166656 25.699029 84.128906 25.933594 L 66.853516 29.439453 L 50.548828 32.658203 C 47.646007 33.278735 47.08186 34.899946 47.150391 37.460938 L 47.150391 37.814453 C 47.090766 35.282966 47.665348 33.676944 50.548828 33.060547 L 66.853516 29.841797 L 84.128906 26.335938 C 85.166655 26.101372 85.996793 25.982828 86.658203 25.996094 C 88.642432 26.035859 89.109911 27.250508 89.111328 29.986328 L 89.111328 29.583984 C 89.109911 26.848164 88.642432 25.633515 86.658203 25.59375 z M 51.404297 52.748047 C 51.390866 53.192897 51.412563 53.69273 51.410156 54.259766 L 51.410156 53.857422 C 51.411915 53.44317 51.405493 53.096229 51.404297 52.748047 z M 84.882812 70.017578 C 84.75068 72.818469 84.473449 74.102803 81.246094 74.619141 C 69.807505 76.321686 67.555411 80.12154 67.625 85.158203 C 67.625384 85.185993 67.630227 85.212522 67.630859 85.240234 C 67.663722 80.364543 70.053825 76.687366 81.246094 75.021484 C 84.47824 74.504381 84.750907 73.217764 84.882812 70.408203 L 84.882812 70.017578 z M 47.197266 77.443359 C 47.065108 80.247698 46.756323 81.788093 43.527344 82.304688 C 32.088754 84.007235 29.869864 87.549279 29.939453 92.585938 C 29.939845 92.61433 29.944665 92.641594 29.945312 92.669922 C 29.976611 87.80454 32.334604 84.372987 43.527344 82.707031 C 46.759486 82.189931 47.065322 80.647455 47.197266 77.837891 L 47.197266 77.443359 z M 51.455078 85.65625 L 51.455078 86.058594 C 51.504274 86.881985 51.518555 87.698884 51.513672 88.496094 C 51.530196 87.574706 51.51256 86.61832 51.455078 85.65625 z "
       style="fill:#000000;fill-opacity:0.12194045;stroke:none;stroke-width:0.0944867;stroke-linecap:butt;stroke-linejoin:miter;stroke-miterlimit:4;stroke-dasharray:none;stroke-opacity:1"
       id="path963" />
    <path
       transform="scale(0.26458333)"
       d="M 86.658203 25.59375 C 85.996794 25.580495 85.166656 25.699029 84.128906 25.933594 L 66.853516 29.439453 L 50.548828 32.658203 C 47.646007 33.278735 47.08186 34.899946 47.150391 37.460938 L 47.150391 38.234375 C 47.101501 35.73808 47.688556 34.150499 50.548828 33.539062 L 66.853516 30.320312 L 84.128906 26.814453 C 85.166655 26.579888 85.996793 26.461343 86.658203 26.474609 C 88.642432 26.514375 89.109911 27.729024 89.111328 30.464844 L 89.111328 29.583984 C 89.109911 26.848164 88.642432 25.633515 86.658203 25.59375 z M 51.40625 53.197266 C 51.390748 53.6497 51.412619 54.158056 51.410156 54.738281 L 51.455078 86.537109 C 51.498756 87.268139 51.506694 87.98888 51.507812 88.701172 C 51.531693 87.71658 51.516896 86.690881 51.455078 85.65625 L 51.410156 53.857422 C 51.411203 53.610912 51.409686 53.420046 51.40625 53.197266 z M 84.880859 70.03125 C 84.748445 72.821955 84.46781 74.103705 81.246094 74.619141 C 69.807505 76.321686 67.555411 80.12154 67.625 85.158203 C 67.62584 85.219052 67.634688 85.277417 67.636719 85.337891 C 67.793988 80.652299 70.347826 77.122122 81.246094 75.5 C 84.47824 74.982896 84.750907 73.69628 84.882812 70.886719 L 84.880859 70.03125 z M 47.195312 77.451172 C 47.062933 80.250208 46.753111 81.788607 43.527344 82.304688 C 32.088754 84.007235 29.869864 87.549279 29.939453 92.585938 C 29.940319 92.648639 29.949062 92.709102 29.951172 92.771484 C 30.104167 88.105706 32.62569 84.808173 43.527344 83.185547 C 46.759486 82.668447 47.065322 81.125971 47.197266 78.316406 L 47.195312 77.451172 z "
       style="fill:#000000;fill-opacity:0.18674248;stroke:none;stroke-width:0.0944867;stroke-linecap:butt;stroke-linejoin:miter;stroke-miterlimit:4;stroke-dasharray:none;stroke-opacity:1"
       id="path970" />
    <path
       transform="scale(0.26458333)"
       d="M 86.658203 25.59375 C 85.996794 25.580495 85.166656 25.699029 84.128906 25.933594 L 66.853516 29.439453 L 50.548828 32.658203 C 47.646007 33.278735 47.08186 34.899946 47.150391 37.460938 L 47.152344 38.859375 C 47.118924 36.413128 47.721828 34.852371 50.548828 34.248047 L 66.853516 31.029297 L 84.128906 27.523438 C 85.166655 27.288872 85.996793 27.170328 86.658203 27.183594 C 88.642432 27.223359 89.109911 28.438008 89.111328 31.173828 L 89.111328 29.583984 C 89.109911 26.848164 88.642432 25.633515 86.658203 25.59375 z M 51.410156 53.861328 C 51.391337 54.324694 51.412702 54.847656 51.410156 55.447266 L 51.455078 87.246094 C 51.490596 87.84055 51.490605 88.421936 51.498047 89.005859 C 51.53447 87.929838 51.523338 86.798699 51.455078 85.65625 L 51.410156 53.861328 z M 84.880859 70.052734 C 84.747976 72.827624 84.459027 74.10511 81.246094 74.619141 C 69.807505 76.321686 67.555411 80.12154 67.625 85.158203 C 67.627256 85.321563 67.64547 85.480032 67.65625 85.640625 C 67.949056 81.156801 70.66383 77.784072 81.246094 76.208984 C 84.47824 75.691881 84.750907 74.405264 84.882812 71.595703 L 84.880859 70.052734 z M 47.195312 77.464844 C 47.062541 80.254757 46.747577 81.789493 43.527344 82.304688 C 32.088754 84.007235 29.869864 87.549279 29.939453 92.585938 C 29.941741 92.751606 29.959787 92.912807 29.970703 93.076172 C 30.258333 88.623952 32.942921 85.469943 43.527344 83.894531 C 46.759486 83.377431 47.065322 81.834955 47.197266 79.025391 L 47.195312 77.464844 z "
       style="fill:#000000;fill-opacity:0.19948886;stroke:none;stroke-width:0.0944867;stroke-linecap:butt;stroke-linejoin:miter;stroke-miterlimit:4;stroke-dasharray:none;stroke-opacity:1"
       id="path968" />
  </g>
</svg>
