<?xml version="1.0" encoding="UTF-8" standalone="no"?>
<svg
   width="128"
   height="128"
   viewBox="0 0 33.866666 33.866668"
   version="1.1"
   id="svg1443"
   inkscape:version="1.1.2 (0a00cf5339, 2022-02-04)"
   sodipodi:docname="trinity-desktop.svg"
   xmlns:inkscape="http://www.inkscape.org/namespaces/inkscape"
   xmlns:sodipodi="http://sodipodi.sourceforge.net/DTD/sodipodi-0.dtd"
   xmlns:xlink="http://www.w3.org/1999/xlink"
   xmlns="http://www.w3.org/2000/svg"
   xmlns:svg="http://www.w3.org/2000/svg"
   xmlns:rdf="http://www.w3.org/1999/02/22-rdf-syntax-ns#"
   xmlns:cc="http://creativecommons.org/ns#"
   xmlns:dc="http://purl.org/dc/elements/1.1/">
  <defs
     id="defs1437">
    <linearGradient
       gradientTransform="matrix(0.97573206,0,0,0.97573206,-111.76517,-37.182508)"
       gradientUnits="userSpaceOnUse"
       y2="70.679932"
       x2="132.21078"
       y1="42.151531"
       x1="132.21078"
       id="linearGradient1632"
       xlink:href="#linearGradient1630"
       inkscape:collect="always" />
    <linearGradient
       id="linearGradient1630"
       inkscape:collect="always">
      <stop
         id="stop1626"
         offset="0"
         style="stop-color:#181719;stop-opacity:1" />
      <stop
         id="stop1628"
         offset="1"
         style="stop-color:#3e3e40;stop-opacity:1" />
    </linearGradient>
    <filter
       color-interpolation-filters="sRGB"
       height="1.1311001"
       width="1.1106"
       y="-0.065563001"
       x="-0.055319"
       id="c-9">
      <feGaussianBlur
         id="feGaussianBlur1093"
         stdDeviation="1.1062912" />
    </filter>
    <linearGradient
       gradientUnits="userSpaceOnUse"
       gradientTransform="matrix(0.13235,0,0,0.13075,-32.379,1.0873)"
       y2="269.48999"
       y1="235.14999"
       x2="657.65002"
       x1="319.20999"
       id="a-12">
      <stop
         id="stop1076"
         offset="0"
         stop-color="#e54c18" />
      <stop
         id="stop1078"
         offset="1"
         stop-color="#fec350" />
    </linearGradient>
  </defs>
  <sodipodi:namedview
     id="base"
     pagecolor="#ffffff"
     bordercolor="#666666"
     borderopacity="1.0"
     inkscape:pageopacity="0.0"
     inkscape:pageshadow="2"
     inkscape:zoom="1.4"
     inkscape:cx="-175.71429"
     inkscape:cy="147.5"
     inkscape:document-units="mm"
     inkscape:current-layer="layer1"
     inkscape:document-rotation="0"
     showgrid="false"
     units="px"
     inkscape:window-width="1920"
     inkscape:window-height="1028"
     inkscape:window-x="0"
     inkscape:window-y="24"
     inkscape:window-maximized="1"
     inkscape:pagecheckerboard="0" />
  <metadata
     id="metadata1440">
    <rdf:RDF>
      <cc:Work
         rdf:about="">
        <dc:format>image/svg+xml</dc:format>
        <dc:type
           rdf:resource="http://purl.org/dc/dcmitype/StillImage" />
      </cc:Work>
    </rdf:RDF>
  </metadata>
  <g
     inkscape:label="Capa 1"
     inkscape:groupmode="layer"
     id="layer1">
    <g
       style="opacity:0.295"
       transform="matrix(0.97573206,0,0,0.97573206,-65.737228,-37.182508)"
       id="g1702">
      <rect
         ry="6.6098609"
         rx="6.6098609"
         y="40.709618"
         x="69.839508"
         height="29.810888"
         width="29.810888"
         id="rect1634"
         style="fill:none;fill-opacity:1;stroke:#000000;stroke-width:0.1;stroke-linecap:round;stroke-linejoin:round;stroke-miterlimit:4;stroke-dasharray:none;stroke-opacity:0.02" />
      <rect
         style="fill:none;fill-opacity:1;stroke:#000000;stroke-width:0.2;stroke-linecap:round;stroke-linejoin:round;stroke-miterlimit:4;stroke-dasharray:none;stroke-opacity:0.02"
         id="rect1638"
         width="29.810888"
         height="29.810888"
         x="69.839508"
         y="40.709618"
         rx="6.6098609"
         ry="6.6098609" />
      <rect
         ry="6.6098609"
         rx="6.6098609"
         y="40.709618"
         x="69.839508"
         height="29.810888"
         width="29.810888"
         id="rect1640"
         style="fill:none;fill-opacity:1;stroke:#000000;stroke-width:0.3;stroke-linecap:round;stroke-linejoin:round;stroke-miterlimit:4;stroke-dasharray:none;stroke-opacity:0.02" />
      <rect
         style="fill:none;fill-opacity:1;stroke:#000000;stroke-width:0.4;stroke-linecap:round;stroke-linejoin:round;stroke-miterlimit:4;stroke-dasharray:none;stroke-opacity:0.02"
         id="rect1642"
         width="29.810888"
         height="29.810888"
         x="69.839508"
         y="40.709618"
         rx="6.6098609"
         ry="6.6098609" />
      <rect
         ry="6.6098609"
         rx="6.6098609"
         y="40.709618"
         x="69.839508"
         height="29.810888"
         width="29.810888"
         id="rect1644"
         style="fill:none;fill-opacity:1;stroke:#000000;stroke-width:0.5;stroke-linecap:round;stroke-linejoin:round;stroke-miterlimit:4;stroke-dasharray:none;stroke-opacity:0.02" />
      <rect
         style="fill:none;fill-opacity:1;stroke:#000000;stroke-width:0.6;stroke-linecap:round;stroke-linejoin:round;stroke-miterlimit:4;stroke-dasharray:none;stroke-opacity:0.02"
         id="rect1646"
         width="29.810888"
         height="29.810888"
         x="69.839508"
         y="40.709618"
         rx="6.6098609"
         ry="6.6098609" />
      <rect
         ry="6.6098609"
         rx="6.6098609"
         y="40.709618"
         x="69.839508"
         height="29.810888"
         width="29.810888"
         id="rect1648"
         style="fill:none;fill-opacity:1;stroke:#000000;stroke-width:0.7;stroke-linecap:round;stroke-linejoin:round;stroke-miterlimit:4;stroke-dasharray:none;stroke-opacity:0.02" />
      <rect
         style="fill:none;fill-opacity:1;stroke:#000000;stroke-width:0.8;stroke-linecap:round;stroke-linejoin:round;stroke-miterlimit:4;stroke-dasharray:none;stroke-opacity:0.02"
         id="rect1650"
         width="29.810888"
         height="29.810888"
         x="69.839508"
         y="40.709618"
         rx="6.6098609"
         ry="6.6098609" />
      <rect
         ry="6.6098609"
         rx="6.6098609"
         y="40.709618"
         x="69.839508"
         height="29.810888"
         width="29.810888"
         id="rect1652"
         style="fill:none;fill-opacity:1;stroke:#000000;stroke-width:1;stroke-linecap:round;stroke-linejoin:round;stroke-miterlimit:4;stroke-dasharray:none;stroke-opacity:0.02" />
      <rect
         style="fill:none;fill-opacity:1;stroke:#000000;stroke-width:1.2;stroke-linecap:round;stroke-linejoin:round;stroke-miterlimit:4;stroke-dasharray:none;stroke-opacity:0.02"
         id="rect1654"
         width="29.810888"
         height="29.810888"
         x="69.839508"
         y="40.709618"
         rx="6.6098609"
         ry="6.6098609" />
      <rect
         ry="6.6098609"
         rx="6.6098609"
         y="40.709618"
         x="69.839508"
         height="29.810888"
         width="29.810888"
         id="rect1656"
         style="fill:none;fill-opacity:1;stroke:#000000;stroke-width:1.4;stroke-linecap:round;stroke-linejoin:round;stroke-miterlimit:4;stroke-dasharray:none;stroke-opacity:0.02" />
      <rect
         style="fill:none;fill-opacity:1;stroke:#000000;stroke-width:1.6;stroke-linecap:round;stroke-linejoin:round;stroke-miterlimit:4;stroke-dasharray:none;stroke-opacity:0.02"
         id="rect1658"
         width="29.810888"
         height="29.810888"
         x="69.839508"
         y="40.709618"
         rx="6.6098609"
         ry="6.6098609" />
      <rect
         ry="6.6098609"
         rx="6.6098609"
         y="40.709618"
         x="69.839508"
         height="29.810888"
         width="29.810888"
         id="rect1660"
         style="fill:none;fill-opacity:1;stroke:#000000;stroke-width:1.8;stroke-linecap:round;stroke-linejoin:round;stroke-miterlimit:4;stroke-dasharray:none;stroke-opacity:0.02" />
      <rect
         style="fill:none;fill-opacity:1;stroke:#000000;stroke-width:2;stroke-linecap:round;stroke-linejoin:round;stroke-miterlimit:4;stroke-dasharray:none;stroke-opacity:0.02"
         id="rect1662"
         width="29.810888"
         height="29.810888"
         x="69.839508"
         y="40.709618"
         rx="6.6098609"
         ry="6.6098609" />
      <rect
         ry="6.6098609"
         rx="6.6098609"
         y="40.709618"
         x="69.839508"
         height="29.810888"
         width="29.810888"
         id="rect1664"
         style="fill:none;fill-opacity:1;stroke:#000000;stroke-width:2.2;stroke-linecap:round;stroke-linejoin:round;stroke-miterlimit:4;stroke-dasharray:none;stroke-opacity:0.02" />
      <rect
         style="fill:none;fill-opacity:1;stroke:#000000;stroke-width:2.6;stroke-linecap:round;stroke-linejoin:round;stroke-miterlimit:4;stroke-dasharray:none;stroke-opacity:0.02"
         id="rect1666"
         width="29.810888"
         height="29.810888"
         x="69.839508"
         y="40.709618"
         rx="6.6098609"
         ry="6.6098609" />
      <rect
         ry="6.6098609"
         rx="6.6098609"
         y="40.709618"
         x="69.839508"
         height="29.810888"
         width="29.810888"
         id="rect1668"
         style="fill:none;fill-opacity:1;stroke:#000000;stroke-width:3;stroke-linecap:round;stroke-linejoin:round;stroke-miterlimit:4;stroke-dasharray:none;stroke-opacity:0.02" />
      <rect
         style="fill:none;fill-opacity:1;stroke:#000000;stroke-width:3.4;stroke-linecap:round;stroke-linejoin:round;stroke-miterlimit:4;stroke-dasharray:none;stroke-opacity:0.02"
         id="rect1670"
         width="29.810888"
         height="29.810888"
         x="69.839508"
         y="40.709618"
         rx="6.6098609"
         ry="6.6098609" />
      <rect
         ry="6.6098609"
         rx="6.6098609"
         y="40.709618"
         x="69.839508"
         height="29.810888"
         width="29.810888"
         id="rect1672"
         style="fill:none;fill-opacity:1;stroke:#000000;stroke-width:3.8;stroke-linecap:round;stroke-linejoin:round;stroke-miterlimit:4;stroke-dasharray:none;stroke-opacity:0.02" />
      <rect
         style="fill:none;fill-opacity:1;stroke:#000000;stroke-width:4.2;stroke-linecap:round;stroke-linejoin:round;stroke-miterlimit:4;stroke-dasharray:none;stroke-opacity:0.02"
         id="rect1674"
         width="29.810888"
         height="29.810888"
         x="69.839508"
         y="40.709618"
         rx="6.6098609"
         ry="6.6098609" />
      <rect
         ry="6.6098609"
         rx="6.6098609"
         y="40.709618"
         x="69.839508"
         height="29.810888"
         width="29.810888"
         id="rect1676"
         style="fill:none;fill-opacity:1;stroke:#000000;stroke-width:4.6;stroke-linecap:round;stroke-linejoin:round;stroke-miterlimit:4;stroke-dasharray:none;stroke-opacity:0.02" />
      <rect
         style="fill:none;fill-opacity:1;stroke:#000000;stroke-width:5;stroke-linecap:round;stroke-linejoin:round;stroke-miterlimit:4;stroke-dasharray:none;stroke-opacity:0.02"
         id="rect1678"
         width="29.810888"
         height="29.810888"
         x="69.839508"
         y="40.709618"
         rx="6.6098609"
         ry="6.6098609" />
    </g>
    <rect
       ry="6.4494534"
       rx="6.4494534"
       y="2.5391712"
       x="2.4074187"
       height="29.087439"
       width="29.087439"
       id="rect849"
       style="fill:url(#linearGradient1632);fill-opacity:1;stroke-width:2.68768;stroke-linecap:round;stroke-linejoin:round" />
    <path
       d="m 20.716419,8.567668 c -0.372827,0.017507 -0.71176,0.2242595 -0.898172,0.5473763 -0.09659,0.1672141 -0.147444,0.3564444 -0.147444,0.5490715 0,0.3914672 0.209573,0.7541262 0.548506,0.9495762 0.166638,0.09659 0.355881,0.147444 0.549072,0.147444 0.391467,0 0.754126,-0.209573 0.949578,-0.548508 0.09659,-0.166638 0.147444,-0.3558787 0.147444,-0.5485058 0,-0.3914671 -0.209573,-0.7541265 -0.548506,-0.9501419 C 21.134439,8.60834 20.925994,8.5580818 20.716419,8.567668 Z m -7.058844,1.715001 h -5.64e-4 c -0.379605,0 -0.691423,0.312382 -0.691423,0.691987 v 5.66e-4 c 0,0.379039 0.312948,0.690857 0.691987,0.690857 0.379041,-5.63e-4 0.690859,-0.312382 0.690859,-0.690857 5.64e-4,-0.379605 -0.311254,-0.691989 -0.690859,-0.692553 z m 1.742115,0.176245 h -5.63e-4 c -0.331025,0 -0.603867,0.272276 -0.603867,0.603865 5.66e-4,0.33159 0.273405,0.6033 0.60443,0.6033 0.330459,-5.63e-4 0.602737,-0.272275 0.602737,-0.6033 5.64e-4,-0.331025 -0.271712,-0.603865 -0.602737,-0.603865 z m -3.76611,0.06947 c -0.447392,0 -0.815134,0.367743 -0.815134,0.815135 v 5.65e-4 c 0,0.446826 0.367742,0.815133 0.815134,0.815133 0.447392,0 0.815134,-0.368307 0.815134,-0.815133 v -5.65e-4 c 0,-0.447392 -0.367742,-0.815135 -0.815134,-0.815135 z m 5.199798,0.423668 c -0.287528,-5.66e-4 -0.524781,0.235557 -0.525347,0.523652 v 5.63e-4 c 0,0.288094 0.237253,0.524782 0.524781,0.524782 h 5.66e-4 c 0.288092,0 0.524781,-0.237253 0.524781,-0.525345 -5.65e-4,-0.287529 -0.237253,-0.523652 -0.524781,-0.523652 z m 4.185258,0.569407 c -0.318597,0.01473 -0.608386,0.191489 -0.76825,0.467728 -0.257023,0.446262 -0.10169,1.024707 0.344017,1.28173 0.445698,0.257026 1.024143,0.102246 1.281732,-0.342887 0.08248,-0.142918 0.125411,-0.30504 0.125411,-0.469987 0,-0.334978 -0.179063,-0.645102 -0.468859,-0.812873 -0.155899,-0.08982 -0.334413,-0.132755 -0.514047,-0.123702 z m -3.093894,0.0983 h -0.0011 c -0.249115,0 -0.45417,0.205046 -0.454734,0.45417 v 0.0011 c 0,0.249115 0.205623,0.454171 0.454734,0.454171 h 0.0011 c 0.249116,0 0.454171,-0.205047 0.454171,-0.454171 v -0.0011 c 0,-0.249115 -0.205047,-0.45417 -0.454171,-0.45417 z m 5.479416,0.237819 c -0.318597,0.01516 -0.60782,0.192621 -0.767118,0.468857 -0.257589,0.445133 -0.1028,1.023578 0.342322,1.281167 0.142917,0.08248 0.305039,0.125965 0.470552,0.125965 0.334415,0 0.644538,-0.179063 0.81231,-0.469422 0.257023,-0.445697 0.10169,-1.024142 -0.344017,-1.281167 -0.15592,-0.09037 -0.334415,-0.133887 -0.514049,-0.125411 z m -9.430245,0.431009 c -0.379605,5.66e-4 -0.691423,0.312948 -0.691423,0.69199 5.63e-4,0.379605 0.311818,0.690857 0.691423,0.691423 0.379039,0 0.691423,-0.311818 0.691987,-0.691423 0,-0.379605 -0.312382,-0.69199 -0.691987,-0.69199 z m 4.759749,0.122571 h -5.66e-4 c -0.210704,0 -0.383559,0.173983 -0.383559,0.384689 0,0.211259 0.17285,0.384688 0.383559,0.384688 h 5.66e-4 c 0.210704,0 0.384124,-0.173427 0.384124,-0.384688 0,-0.210704 -0.173426,-0.384689 -0.384124,-0.384689 z m -3.018199,0.05367 c -0.331025,5.66e-4 -0.603301,0.273406 -0.602735,0.603867 0,0.331023 0.272276,0.602735 0.602735,0.603301 0.331025,0 0.603866,-0.271712 0.60443,-0.603301 v -5.66e-4 c 0,-0.331025 -0.27284,-0.603301 -0.603864,-0.603301 z m -3.764981,0.07005 c -0.447392,0 -0.815133,0.367743 -0.815133,0.815135 0,0.446828 0.367741,0.814568 0.815133,0.814568 0.447391,0 0.8157,-0.36774 0.8157,-0.814568 0,-0.447955 -0.368309,-0.815698 -0.8157,-0.815698 z m 5.199232,0.423102 c -0.288092,5.66e-4 -0.52365,0.236689 -0.524216,0.524218 -5.65e-4,0.288092 0.236124,0.525345 0.524216,0.525345 0.288094,0 0.525347,-0.236687 0.525347,-0.524782 v -5.63e-4 c -5.65e-4,-0.288094 -0.237819,-0.524218 -0.525347,-0.524218 z m -7.4158544,0.387513 c -0.515178,0 -0.93828,0.423667 -0.93828,0.937716 0,0.514612 0.423102,0.93828 0.93828,0.93828 0.5146144,0 0.9382804,-0.423668 0.9382804,-0.93828 0,-0.514049 -0.423666,-0.937716 -0.9382804,-0.937716 z m 8.5066554,0.28075 c -0.249118,0 -0.454171,0.205046 -0.454171,0.45417 0,0.249117 0.205047,0.45417 0.454171,0.45417 0.249115,0 0.45417,-0.205046 0.45417,-0.45417 0,-0.249115 -0.205047,-0.45417 -0.45417,-0.45417 z m 2.483248,0.405026 c -0.276796,0.01238 -0.528735,0.166083 -0.667697,0.406154 -0.07118,0.124279 -0.109035,0.264934 -0.109035,0.407849 0,0.291482 0.15592,0.560934 0.407849,0.706676 0.387513,0.22313 0.8897,0.08756 1.11283,-0.299391 0.223696,-0.386949 0.08982,-0.88857 -0.297132,-1.112829 -0.135573,-0.07795 -0.290351,-0.116358 -0.446826,-0.108459 z m 2.385523,0.336109 c -0.276794,0.01302 -0.52817,0.166637 -0.666568,0.406719 -0.07174,0.123703 -0.10959,0.264932 -0.10959,0.408413 0,0.290919 0.155343,0.56037 0.407285,0.705546 0.123703,0.07174 0.264368,0.10959 0.407849,0.10959 0.290917,0 0.560934,-0.155919 0.706111,-0.408414 0.22313,-0.387513 0.08811,-0.889698 -0.298827,-1.11283 -0.135573,-0.07853 -0.290353,-0.116358 -0.446262,-0.109014 z m -8.233811,0.15703 c -0.379605,-5.66e-4 -0.691424,0.311252 -0.692553,0.690857 v 5.66e-4 c 0,0.379605 0.312948,0.691987 0.692553,0.691987 h 5.63e-4 c 0.379605,0 0.691989,-0.312382 0.691989,-0.691987 v -5.66e-4 c -5.65e-4,-0.379605 -0.312947,-0.691423 -0.692552,-0.690857 z m 1.742115,0.174558 c -0.332154,0 -0.60443,0.272842 -0.60443,0.603867 v 5.63e-4 c 0,0.331591 0.272276,0.604431 0.60443,0.604431 0.331025,-5.64e-4 0.603301,-0.273406 0.603301,-0.604431 0,-0.331025 -0.272276,-0.603864 -0.603301,-0.60443 z m -3.76611,0.07118 c -0.447392,0 -0.815134,0.368307 -0.815134,0.815133 v 5.66e-4 c 0,0.446825 0.367742,0.814568 0.815134,0.814568 h 5.64e-4 c 0.446827,0 0.815134,-0.367743 0.815134,-0.814568 v -5.66e-4 c 0,-0.446826 -0.368307,-0.815133 -0.815134,-0.815133 z m 12.153572,0.32594 c -0.276796,0.01302 -0.529299,0.166082 -0.667697,0.406719 -0.07174,0.123703 -0.109035,0.264368 -0.109035,0.407849 0,0.290919 0.15592,0.560936 0.407849,0.706113 0.387513,0.22313 0.889699,0.08811 1.112829,-0.298827 0.223696,-0.38695 0.08924,-0.889134 -0.297129,-1.113396 -0.135573,-0.07795 -0.290353,-0.115803 -0.446828,-0.108458 z m -6.953776,0.09603 c -0.288092,0 -0.525345,0.236689 -0.525345,0.524781 v 5.66e-4 c 5.63e-4,0.288092 0.237253,0.524215 0.525345,0.524215 0.287528,-5.63e-4 0.523652,-0.237253 0.524218,-0.524215 5.63e-4,-0.287529 -0.236124,-0.525347 -0.524218,-0.525347 z m -7.416984,0.386383 c -0.514048,0 -0.9377144,0.423668 -0.9377144,0.938846 0,0.514612 0.4236664,0.937714 0.9377144,0.938279 0.514615,-5.65e-4 0.93828,-0.423667 0.93828,-0.938279 0,-0.515178 -0.423665,-0.938846 -0.93828,-0.938846 z m 9.403697,0.51292 c -0.234994,0.01068 -0.449087,0.141231 -0.566583,0.345145 -0.189802,0.328767 -0.07513,0.755256 0.253635,0.945059 0.328764,0.189247 0.75469,0.07455 0.944493,-0.253635 0.189802,-0.328198 0.07569,-0.754125 -0.252506,-0.944493 -0.114671,-0.06665 -0.24629,-0.0983 -0.379039,-0.09208 z m 2.385523,0.336108 c -0.234992,0.01196 -0.448521,0.142362 -0.566017,0.345712 -0.189803,0.328766 -0.07569,0.75469 0.252505,0.945058 0.105064,0.06044 0.224825,0.09264 0.346276,0.09264 0.247422,0 0.476201,-0.132755 0.599912,-0.346277 0.189247,-0.328764 0.07456,-0.755256 -0.253635,-0.945059 -0.115227,-0.0661 -0.246856,-0.0983 -0.379041,-0.09151 z m -7.459915,0.548508 c -0.08813,0.0023 -0.174558,0.02654 -0.25081,0.07118 -0.249115,0.144049 -0.335545,0.467728 -0.191489,0.716843 0.144049,0.249117 0.467727,0.335545 0.716842,0.191489 0.249118,-0.144049 0.335545,-0.467728 0.19149,-0.716843 -0.09548,-0.166082 -0.274535,-0.266629 -0.466033,-0.262672 z m -6.6018514,0.09659 c -0.60104,5.65e-4 -1.095882,0.495408 -1.095882,1.097013 v 0.0011 c 5.64e-4,0.601041 0.494842,1.095884 1.095882,1.095884 h 0.0011 c 0.601605,0 1.096447,-0.494843 1.096447,-1.095884 v -0.0011 c 0,-0.601605 -0.494842,-1.097013 -1.096447,-1.097013 z m 15.9575324,0.08361 c -0.234995,0.01068 -0.449087,0.141209 -0.567149,0.345146 -0.189247,0.328766 -0.07456,0.755255 0.254201,0.944492 0.328764,0.189248 0.75469,0.07513 0.944492,-0.253069 0.189248,-0.3282 0.07569,-0.75469 -0.252505,-0.945058 -0.114672,-0.0661 -0.246291,-0.0983 -0.379039,-0.09151 z m -5.224652,0.486368 c -0.205047,0.01025 -0.392033,0.123703 -0.494279,0.301649 -0.0531,0.09151 -0.08134,0.196016 -0.08134,0.302215 0,0.215788 0.115227,0.41576 0.302781,0.523089 0.09151,0.05367 0.196016,0.08134 0.302215,0.08134 0.215222,0 0.415194,-0.115227 0.523087,-0.302218 0.0531,-0.09208 0.08134,-0.196015 0.08134,-0.302778 0,-0.215222 -0.115803,-0.415194 -0.302779,-0.523086 -0.09998,-0.05818 -0.215224,-0.08587 -0.331025,-0.08021 z m -5.640975,0.05818 c -0.07682,0.0017 -0.151393,0.02259 -0.218048,0.06044 -0.1401,0.08134 -0.226521,0.231606 -0.226521,0.393728 0,0.08021 0.02092,0.158738 0.06102,0.228216 0.08134,0.140099 0.23104,0.226518 0.393728,0.226518 0.07966,0 0.158161,-0.02146 0.22765,-0.06102 0.214658,-0.124835 0.289787,-0.404459 0.165506,-0.620247 -0.08303,-0.144049 -0.237819,-0.231604 -0.403329,-0.22765 z m 8.027627,0.27962 c -0.205047,0.009 -0.391467,0.122571 -0.494842,0.299954 -0.0531,0.09208 -0.08134,0.196571 -0.08134,0.302781 0,0.215788 0.115226,0.415194 0.301651,0.523087 0.09151,0.0531 0.196016,0.08134 0.302215,0.08134 0.215788,0 0.415757,-0.115803 0.523087,-0.302778 0.165506,-0.286399 0.06552,-0.658662 -0.220872,-0.824174 -0.09998,-0.05762 -0.214658,-0.08587 -0.329895,-0.08021 z m -9.38562,0.0062 c -0.06384,0.0017 -0.126542,0.01985 -0.182458,0.05197 -0.182458,0.105064 -0.245727,0.341758 -0.140654,0.524216 0.06779,0.118621 0.194883,0.19262 0.332718,0.19262 0.06723,0 0.133886,-0.01815 0.19262,-0.05197 0.118066,-0.06834 0.19149,-0.19546 0.19149,-0.332154 0,-0.06779 -0.01815,-0.134442 -0.05197,-0.193197 -0.07005,-0.120885 -0.201673,-0.194884 -0.341757,-0.191489 z m 3.225513,0.359835 c -0.101669,0.0023 -0.201097,0.02938 -0.289224,0.08021 -0.186984,0.107903 -0.302215,0.307864 -0.302215,0.523652 0,0.10564 0.02825,0.210128 0.08134,0.301651 0.107904,0.186408 0.307301,0.30165 0.522523,0.30165 0.106195,0 0.211259,-0.02767 0.302781,-0.08077 0.286397,-0.166082 0.386383,-0.537775 0.221435,-0.824737 -0.110146,-0.190934 -0.316336,-0.306735 -0.536644,-0.30165 z m 8.054743,0.362093 c -0.205046,0.0096 -0.391467,0.123148 -0.494842,0.30052 -0.05254,0.09208 -0.08079,0.196015 -0.08079,0.302215 0,0.215788 0.115227,0.415757 0.302781,0.523652 0.09151,0.05254 0.196016,0.08134 0.301652,0.08134 0.215785,0 0.415757,-0.115803 0.52365,-0.302781 0.164951,-0.286962 0.06552,-0.658659 -0.221435,-0.824172 -0.100559,-0.05818 -0.215788,-0.08587 -0.331025,-0.08079 z m -5.352882,0.04802 c -0.178508,0.009 -0.340628,0.107903 -0.429315,0.263238 -0.04633,0.07966 -0.0706,0.169477 -0.0706,0.261543 0,0.187539 0.100559,0.361528 0.263238,0.4553 0.07966,0.04575 0.170032,0.06947 0.261543,0.06947 0.188116,0 0.361528,-0.09998 0.4553,-0.262673 0.04633,-0.07966 0.07005,-0.170032 0.07005,-0.262108 0,-0.18754 -0.100559,-0.361528 -0.262672,-0.454736 -0.08756,-0.05028 -0.186984,-0.07456 -0.287529,-0.07005 z m -4.543961,0.117489 c -0.08813,0.0023 -0.174559,0.02656 -0.250811,0.07005 -0.249115,0.144604 -0.335544,0.468291 -0.191489,0.717409 0.144049,0.249115 0.467728,0.335542 0.716843,0.191489 0.249117,-0.14405 0.335545,-0.467728 0.191489,-0.716843 -0.09603,-0.165506 -0.274535,-0.266063 -0.466032,-0.262109 z m -1.604848,0.103933 c -0.07626,0.0017 -0.150262,0.02316 -0.215787,0.06044 -0.141231,0.08134 -0.228216,0.232169 -0.228216,0.394291 0,0.08021 0.02092,0.158162 0.06102,0.22765 0.08134,0.1401 0.231604,0.226521 0.393162,0.226521 0.08021,0 0.159293,-0.02146 0.228216,-0.06102 0.140099,-0.08134 0.22652,-0.231604 0.22652,-0.393726 0,-0.08021 -0.02092,-0.158161 -0.06102,-0.22765 -0.08303,-0.143472 -0.237818,-0.230474 -0.403895,-0.22652 z m 8.535463,0.115248 c -0.179063,0.0085 -0.340628,0.107882 -0.42988,0.262672 -0.144049,0.249115 -0.05762,0.572798 0.191489,0.716843 0.07966,0.04633 0.170032,0.07061 0.262107,0.07061 0.187539,0 0.36153,-0.100559 0.454736,-0.263239 0.144049,-0.249115 0.05762,-0.572795 -0.191489,-0.716842 -0.087,-0.05028 -0.186408,-0.07456 -0.286963,-0.07005 z m -4.297107,0.716842 c -0.115803,0.0028 -0.229345,0.03501 -0.329893,0.09322 -0.327637,0.190379 -0.441745,0.616294 -0.252506,0.945058 0.189803,0.328201 0.616292,0.442874 0.945058,0.253635 0.214093,-0.123702 0.346276,-0.35249 0.346276,-0.59991 0,-0.121461 -0.03164,-0.241207 -0.09264,-0.346278 -0.126542,-0.219175 -0.363223,-0.351924 -0.616295,-0.345711 z m 3.236811,0 c -0.154212,0.0073 -0.294872,0.09264 -0.372826,0.226521 -0.03954,0.06947 -0.06102,0.147444 -0.06102,0.227084 0,0.162688 0.08756,0.313513 0.228214,0.394294 0.215788,0.123702 0.495408,0.04857 0.619683,-0.167214 0.04012,-0.06947 0.06157,-0.147444 0.06157,-0.22765 0,-0.162133 -0.087,-0.312384 -0.227086,-0.393163 -0.07569,-0.04349 -0.161556,-0.06384 -0.248549,-0.05989 z m 2.95606,0.01196 c -0.178508,0.0079 -0.341758,0.107327 -0.43101,0.262675 -0.04575,0.07966 -0.07005,0.170032 -0.07005,0.262107 0,0.187539 0.100559,0.360964 0.263239,0.454736 0.07966,0.04575 0.169456,0.07005 0.261543,0.07005 0.187539,0 0.361528,-0.10056 0.4553,-0.262673 0.04575,-0.07966 0.07005,-0.170587 0.07005,-0.262109 0,-0.187539 -0.100537,-0.361528 -0.263236,-0.4553 -0.08643,-0.0497 -0.185853,-0.074 -0.285835,-0.06947 z m -10.405243,0.329896 c -0.08756,0.0017 -0.173427,0.02598 -0.249679,0.06947 -0.162688,0.09377 -0.262675,0.267756 -0.262675,0.4553 0,0.09208 0.02372,0.182458 0.06947,0.262109 0.144049,0.249115 0.467728,0.335542 0.717409,0.191489 0.162111,-0.09377 0.262672,-0.267193 0.262672,-0.454734 0,-0.09208 -0.0243,-0.182458 -0.07005,-0.262109 -0.09603,-0.166082 -0.275667,-0.266627 -0.467164,-0.261543 z m 1.934742,0.09151 c -0.101114,0.0028 -0.199965,0.03051 -0.286962,0.08079 -0.18754,0.107327 -0.302781,0.307299 -0.302781,0.523086 0,0.106196 0.02825,0.210705 0.08134,0.302781 0.107327,0.186408 0.3073,0.30165 0.523086,0.30165 0.106195,0 0.210704,-0.02767 0.302217,-0.08079 0.186985,-0.107327 0.302779,-0.307301 0.302779,-0.523086 0,-0.106196 -0.02825,-0.210705 -0.08134,-0.302781 -0.110145,-0.190934 -0.317468,-0.306735 -0.538339,-0.301652 z m 7.409076,0.295439 c -0.154212,0.0073 -0.294307,0.09264 -0.371131,0.226518 -0.0401,0.06947 -0.06102,0.147444 -0.06102,0.227652 0,0.162133 0.08643,0.312382 0.22652,0.393726 0.06892,0.03954 0.147444,0.06044 0.22765,0.06044 0.162112,0 0.312384,-0.087 0.393163,-0.227652 0.04067,-0.06947 0.06157,-0.147444 0.06157,-0.227649 0,-0.162133 -0.08642,-0.312382 -0.227086,-0.393726 -0.07513,-0.04293 -0.162133,-0.06384 -0.249681,-0.05931 z m -1.025837,0.410108 c -0.130492,0.0062 -0.249681,0.07853 -0.314643,0.191489 -0.105064,0.182458 -0.04125,0.419148 0.140655,0.524216 0.05931,0.03446 0.12541,0.05197 0.193197,0.05197 0.13726,0 0.264368,-0.07344 0.332154,-0.191489 0.03388,-0.05818 0.05197,-0.124834 0.05197,-0.192621 0,-0.13726 -0.07342,-0.264368 -0.19262,-0.333284 -0.06439,-0.03615 -0.13726,-0.05423 -0.210704,-0.05028 z m -2.776426,0.305605 c -0.136149,0.0034 -0.270017,0.04123 -0.388079,0.110146 -0.386947,0.223132 -0.521956,0.725882 -0.298824,1.112831 0.14518,0.25194 0.415191,0.408413 0.70611,0.408413 0.143473,0 0.284138,-0.03785 0.407849,-0.10959 0.252505,-0.145181 0.407849,-0.414628 0.407849,-0.70611 0,-0.142918 -0.03841,-0.284138 -0.10959,-0.408415 -0.149131,-0.257589 -0.427622,-0.414062 -0.725317,-0.407283 z m -5.184545,0.266627 c -0.101114,0.0017 -0.200542,0.02938 -0.288092,0.08021 -0.186985,0.107882 -0.302781,0.307865 -0.302781,0.523087 0,0.106771 0.02825,0.210704 0.08077,0.30278 0.108459,0.186985 0.30843,0.302215 0.523652,0.302215 0.106196,0 0.210149,-0.02825 0.302215,-0.08134 0.186985,-0.107327 0.302781,-0.307301 0.302781,-0.523087 0,-0.106195 -0.02825,-0.210704 -0.08134,-0.302217 -0.110145,-0.190934 -0.316901,-0.306733 -0.537209,-0.301649 z m 2.370836,0.187539 c -0.115227,0.0023 -0.22878,0.03446 -0.329894,0.09208 -0.213529,0.123703 -0.345712,0.352491 -0.345712,0.598781 0,0.122016 0.0322,0.241773 0.09377,0.346841 0.189803,0.328766 0.615729,0.442308 0.944495,0.252506 0.328764,-0.189803 0.442872,-0.615729 0.253635,-0.944493 -0.126542,-0.219178 -0.363223,-0.351926 -0.616294,-0.345711 z m 4.726421,0.876141 c -0.156475,0.0041 -0.310123,0.04688 -0.446262,0.125965 -0.290353,0.166638 -0.469987,0.477897 -0.469987,0.812876 0,0.164951 0.04349,0.326505 0.125966,0.469422 0.167214,0.289788 0.477331,0.468857 0.81231,0.468857 0.164951,0 0.327071,-0.04349 0.469986,-0.125965 0.445133,-0.257589 0.599913,-0.835471 0.342887,-1.281167 -0.171164,-0.297132 -0.492017,-0.477897 -0.834904,-0.469988 z m -6.30472,0.39994 c -0.116358,0.0028 -0.229909,0.03502 -0.329893,0.09322 -0.328766,0.190358 -0.442308,0.616292 -0.252506,0.944493 0.189803,0.328764 0.615729,0.443437 0.944493,0.254198 0.3282,-0.189802 0.443437,-0.616292 0.253635,-0.945056 -0.125966,-0.219178 -0.362657,-0.353056 -0.615729,-0.346843 z m 2.907482,0.168346 c -0.13615,0.0034 -0.270017,0.04067 -0.388079,0.108459 -0.386947,0.223695 -0.521957,0.725882 -0.298825,1.113395 0.145181,0.252506 0.415191,0.408415 0.706674,0.408415 0.142918,0 0.283574,-0.03785 0.407285,-0.10959 0.25194,-0.145736 0.407849,-0.415194 0.407849,-0.705547 0,-0.144049 -0.03785,-0.284703 -0.110145,-0.408414 -0.14913,-0.25759 -0.427056,-0.413499 -0.724751,-0.40672 z m 5.961267,0.415194 c -0.18359,0.0051 -0.36266,0.05591 -0.521957,0.147443 -0.520262,0.301086 -0.701593,0.976693 -0.401071,1.497521 0.301086,0.520825 0.976691,0.70159 1.497518,0.40107 0.520262,-0.300522 0.701593,-0.976693 0.401637,-1.496954 -0.200542,-0.347407 -0.575623,-0.558109 -0.976127,-0.549072 z m -7.539566,0.862019 c -0.136704,0.0034 -0.27058,0.04067 -0.388642,0.109013 -0.387513,0.22313 -0.521957,0.725317 -0.298827,1.11283 0.145181,0.252506 0.415193,0.408415 0.70611,0.408415 0.143473,0 0.28414,-0.03785 0.408415,-0.10959 0.251376,-0.145736 0.406719,-0.415192 0.406719,-0.705544 0,-0.143473 -0.03728,-0.284704 -0.10959,-0.408415 -0.148575,-0.257589 -0.427621,-0.413499 -0.724187,-0.40672 z m 3.49101,0.0531 c -0.156475,0.0041 -0.310123,0.04744 -0.446262,0.12541 -0.445696,0.257589 -0.60104,0.83547 -0.344016,1.281167 0.167214,0.290919 0.477894,0.470552 0.812873,0.470552 0.164951,0 0.326507,-0.04349 0.469423,-0.125966 0.289787,-0.167769 0.468857,-0.477894 0.468857,-0.812309 0,-0.165507 -0.04293,-0.327069 -0.125411,-0.47055 -0.171719,-0.296568 -0.492583,-0.476768 -0.83547,-0.468294 z"
       fill="#ffffff"
       fill-rule="nonzero"
       id="path9"
       style="stroke-width:0.564888" />
  </g>
</svg>
