<?xml version="1.0" encoding="UTF-8" standalone="no"?>
<svg
   width="128"
   height="128"
   viewBox="0 0 33.866666 33.866668"
   version="1.1"
   id="svg1443"
   inkscape:version="1.1.2 (0a00cf5339, 2022-02-04)"
   sodipodi:docname="unison-gtk.svg"
   xmlns:inkscape="http://www.inkscape.org/namespaces/inkscape"
   xmlns:sodipodi="http://sodipodi.sourceforge.net/DTD/sodipodi-0.dtd"
   xmlns:xlink="http://www.w3.org/1999/xlink"
   xmlns="http://www.w3.org/2000/svg"
   xmlns:svg="http://www.w3.org/2000/svg"
   xmlns:rdf="http://www.w3.org/1999/02/22-rdf-syntax-ns#"
   xmlns:cc="http://creativecommons.org/ns#"
   xmlns:dc="http://purl.org/dc/elements/1.1/">
  <defs
     id="defs1437">
    <linearGradient
       gradientTransform="matrix(0.97573206,0,0,0.97573206,-111.76517,-37.182508)"
       gradientUnits="userSpaceOnUse"
       y2="70.679932"
       x2="132.21078"
       y1="42.151531"
       x1="132.21078"
       id="linearGradient1632"
       xlink:href="#linearGradient1630"
       inkscape:collect="always" />
    <linearGradient
       id="linearGradient1630"
       inkscape:collect="always">
      <stop
         id="stop1626"
         offset="0"
         style="stop-color:#ffcd48;stop-opacity:1" />
      <stop
         id="stop1628"
         offset="1"
         style="stop-color:#ffad22;stop-opacity:1" />
    </linearGradient>
    <filter
       color-interpolation-filters="sRGB"
       height="1.1311001"
       width="1.1106"
       y="-0.065563001"
       x="-0.055319"
       id="c-9">
      <feGaussianBlur
         id="feGaussianBlur1093"
         stdDeviation="1.1062912" />
    </filter>
    <linearGradient
       gradientUnits="userSpaceOnUse"
       gradientTransform="matrix(0.13235,0,0,0.13075,-32.379,1.0873)"
       y2="269.48999"
       y1="235.14999"
       x2="657.65002"
       x1="319.20999"
       id="a-12">
      <stop
         id="stop1076"
         offset="0"
         stop-color="#e54c18" />
      <stop
         id="stop1078"
         offset="1"
         stop-color="#fec350" />
    </linearGradient>
    <linearGradient
       inkscape:collect="always"
       id="linearGradient2050">
      <stop
         style="stop-color:#6a2b0c;stop-opacity:1;"
         offset="0"
         id="stop2046" />
      <stop
         style="stop-color:#6a2b0c;stop-opacity:0.82352941;"
         offset="0.46019328"
         id="stop2054" />
      <stop
         style="stop-color:#6a2b0c;stop-opacity:0.61960784;"
         offset="0.55980784"
         id="stop2074" />
      <stop
         style="stop-color:#6a2b0c;stop-opacity:0.55294118;"
         offset="0.59674543"
         id="stop2092" />
      <stop
         style="stop-color:#6a2b0c;stop-opacity:0.45882353;"
         offset="0.6603334"
         id="stop2102" />
      <stop
         style="stop-color:#6a2b0c;stop-opacity:0.35294118;"
         offset="0.73342222"
         id="stop2100" />
      <stop
         style="stop-color:#6a2b0c;stop-opacity:0.25882353;"
         offset="0.79290068"
         id="stop2098" />
      <stop
         style="stop-color:#6a2b0c;stop-opacity:0.19215686;"
         offset="0.83187062"
         id="stop2086" />
      <stop
         style="stop-color:#6a2b0c;stop-opacity:0.11372549;"
         offset="0.89167756"
         id="stop2088" />
      <stop
         style="stop-color:#6a2b0c;stop-opacity:0.0627451;"
         offset="0.93840277"
         id="stop2090" />
      <stop
         style="stop-color:#6a2b0c;stop-opacity:0.03921569;"
         offset="0.96329844"
         id="stop2056" />
      <stop
         style="stop-color:#6a2b0c;stop-opacity:0;"
         offset="1"
         id="stop2048" />
    </linearGradient>
    <radialGradient
       inkscape:collect="always"
       xlink:href="#linearGradient2050"
       id="radialGradient2270"
       cx="-571.09357"
       cy="434.78534"
       fx="-571.09357"
       fy="434.78534"
       r="229.44476"
       gradientUnits="userSpaceOnUse"
       gradientTransform="matrix(1.0612895,0,0,1.0612895,400.72106,-182.52731)" />
    <linearGradient
       id="b"
       x2="1"
       gradientTransform="matrix(0.33688162,-19.859257,19.859257,0.33688162,15.949012,26.785076)"
       gradientUnits="userSpaceOnUse">
      <stop
         stop-color="#ff9300"
         offset="0"
         id="stop7" />
      <stop
         stop-color="#ffd702"
         offset="1"
         id="stop9" />
    </linearGradient>
  </defs>
  <sodipodi:namedview
     id="base"
     pagecolor="#ffffff"
     bordercolor="#666666"
     borderopacity="1.0"
     inkscape:pageopacity="0.0"
     inkscape:pageshadow="2"
     inkscape:zoom="3.9140625"
     inkscape:cx="63.105788"
     inkscape:cy="56.463074"
     inkscape:document-units="mm"
     inkscape:current-layer="layer1"
     inkscape:document-rotation="0"
     showgrid="false"
     units="px"
     inkscape:window-width="1920"
     inkscape:window-height="1000"
     inkscape:window-x="0"
     inkscape:window-y="0"
     inkscape:window-maximized="1"
     inkscape:pagecheckerboard="0" />
  <metadata
     id="metadata1440">
    <rdf:RDF>
      <cc:Work
         rdf:about="">
        <dc:format>image/svg+xml</dc:format>
        <dc:type
           rdf:resource="http://purl.org/dc/dcmitype/StillImage" />
      </cc:Work>
    </rdf:RDF>
  </metadata>
  <g
     inkscape:label="Capa 1"
     inkscape:groupmode="layer"
     id="layer1">
    <g
       style="opacity:0.295"
       transform="matrix(0.97573206,0,0,0.97573206,-65.737228,-37.182508)"
       id="g1702">
      <rect
         ry="6.6098609"
         rx="6.6098609"
         y="40.709618"
         x="69.839508"
         height="29.810888"
         width="29.810888"
         id="rect1634"
         style="fill:none;fill-opacity:1;stroke:#000000;stroke-width:0.1;stroke-linecap:round;stroke-linejoin:round;stroke-miterlimit:4;stroke-dasharray:none;stroke-opacity:0.02" />
      <rect
         style="fill:none;fill-opacity:1;stroke:#000000;stroke-width:0.2;stroke-linecap:round;stroke-linejoin:round;stroke-miterlimit:4;stroke-dasharray:none;stroke-opacity:0.02"
         id="rect1638"
         width="29.810888"
         height="29.810888"
         x="69.839508"
         y="40.709618"
         rx="6.6098609"
         ry="6.6098609" />
      <rect
         ry="6.6098609"
         rx="6.6098609"
         y="40.709618"
         x="69.839508"
         height="29.810888"
         width="29.810888"
         id="rect1640"
         style="fill:none;fill-opacity:1;stroke:#000000;stroke-width:0.3;stroke-linecap:round;stroke-linejoin:round;stroke-miterlimit:4;stroke-dasharray:none;stroke-opacity:0.02" />
      <rect
         style="fill:none;fill-opacity:1;stroke:#000000;stroke-width:0.4;stroke-linecap:round;stroke-linejoin:round;stroke-miterlimit:4;stroke-dasharray:none;stroke-opacity:0.02"
         id="rect1642"
         width="29.810888"
         height="29.810888"
         x="69.839508"
         y="40.709618"
         rx="6.6098609"
         ry="6.6098609" />
      <rect
         ry="6.6098609"
         rx="6.6098609"
         y="40.709618"
         x="69.839508"
         height="29.810888"
         width="29.810888"
         id="rect1644"
         style="fill:none;fill-opacity:1;stroke:#000000;stroke-width:0.5;stroke-linecap:round;stroke-linejoin:round;stroke-miterlimit:4;stroke-dasharray:none;stroke-opacity:0.02" />
      <rect
         style="fill:none;fill-opacity:1;stroke:#000000;stroke-width:0.6;stroke-linecap:round;stroke-linejoin:round;stroke-miterlimit:4;stroke-dasharray:none;stroke-opacity:0.02"
         id="rect1646"
         width="29.810888"
         height="29.810888"
         x="69.839508"
         y="40.709618"
         rx="6.6098609"
         ry="6.6098609" />
      <rect
         ry="6.6098609"
         rx="6.6098609"
         y="40.709618"
         x="69.839508"
         height="29.810888"
         width="29.810888"
         id="rect1648"
         style="fill:none;fill-opacity:1;stroke:#000000;stroke-width:0.7;stroke-linecap:round;stroke-linejoin:round;stroke-miterlimit:4;stroke-dasharray:none;stroke-opacity:0.02" />
      <rect
         style="fill:none;fill-opacity:1;stroke:#000000;stroke-width:0.8;stroke-linecap:round;stroke-linejoin:round;stroke-miterlimit:4;stroke-dasharray:none;stroke-opacity:0.02"
         id="rect1650"
         width="29.810888"
         height="29.810888"
         x="69.839508"
         y="40.709618"
         rx="6.6098609"
         ry="6.6098609" />
      <rect
         ry="6.6098609"
         rx="6.6098609"
         y="40.709618"
         x="69.839508"
         height="29.810888"
         width="29.810888"
         id="rect1652"
         style="fill:none;fill-opacity:1;stroke:#000000;stroke-width:1;stroke-linecap:round;stroke-linejoin:round;stroke-miterlimit:4;stroke-dasharray:none;stroke-opacity:0.02" />
      <rect
         style="fill:none;fill-opacity:1;stroke:#000000;stroke-width:1.2;stroke-linecap:round;stroke-linejoin:round;stroke-miterlimit:4;stroke-dasharray:none;stroke-opacity:0.02"
         id="rect1654"
         width="29.810888"
         height="29.810888"
         x="69.839508"
         y="40.709618"
         rx="6.6098609"
         ry="6.6098609" />
      <rect
         ry="6.6098609"
         rx="6.6098609"
         y="40.709618"
         x="69.839508"
         height="29.810888"
         width="29.810888"
         id="rect1656"
         style="fill:none;fill-opacity:1;stroke:#000000;stroke-width:1.4;stroke-linecap:round;stroke-linejoin:round;stroke-miterlimit:4;stroke-dasharray:none;stroke-opacity:0.02" />
      <rect
         style="fill:none;fill-opacity:1;stroke:#000000;stroke-width:1.6;stroke-linecap:round;stroke-linejoin:round;stroke-miterlimit:4;stroke-dasharray:none;stroke-opacity:0.02"
         id="rect1658"
         width="29.810888"
         height="29.810888"
         x="69.839508"
         y="40.709618"
         rx="6.6098609"
         ry="6.6098609" />
      <rect
         ry="6.6098609"
         rx="6.6098609"
         y="40.709618"
         x="69.839508"
         height="29.810888"
         width="29.810888"
         id="rect1660"
         style="fill:none;fill-opacity:1;stroke:#000000;stroke-width:1.8;stroke-linecap:round;stroke-linejoin:round;stroke-miterlimit:4;stroke-dasharray:none;stroke-opacity:0.02" />
      <rect
         style="fill:none;fill-opacity:1;stroke:#000000;stroke-width:2;stroke-linecap:round;stroke-linejoin:round;stroke-miterlimit:4;stroke-dasharray:none;stroke-opacity:0.02"
         id="rect1662"
         width="29.810888"
         height="29.810888"
         x="69.839508"
         y="40.709618"
         rx="6.6098609"
         ry="6.6098609" />
      <rect
         ry="6.6098609"
         rx="6.6098609"
         y="40.709618"
         x="69.839508"
         height="29.810888"
         width="29.810888"
         id="rect1664"
         style="fill:none;fill-opacity:1;stroke:#000000;stroke-width:2.2;stroke-linecap:round;stroke-linejoin:round;stroke-miterlimit:4;stroke-dasharray:none;stroke-opacity:0.02" />
      <rect
         style="fill:none;fill-opacity:1;stroke:#000000;stroke-width:2.6;stroke-linecap:round;stroke-linejoin:round;stroke-miterlimit:4;stroke-dasharray:none;stroke-opacity:0.02"
         id="rect1666"
         width="29.810888"
         height="29.810888"
         x="69.839508"
         y="40.709618"
         rx="6.6098609"
         ry="6.6098609" />
      <rect
         ry="6.6098609"
         rx="6.6098609"
         y="40.709618"
         x="69.839508"
         height="29.810888"
         width="29.810888"
         id="rect1668"
         style="fill:none;fill-opacity:1;stroke:#000000;stroke-width:3;stroke-linecap:round;stroke-linejoin:round;stroke-miterlimit:4;stroke-dasharray:none;stroke-opacity:0.02" />
      <rect
         style="fill:none;fill-opacity:1;stroke:#000000;stroke-width:3.4;stroke-linecap:round;stroke-linejoin:round;stroke-miterlimit:4;stroke-dasharray:none;stroke-opacity:0.02"
         id="rect1670"
         width="29.810888"
         height="29.810888"
         x="69.839508"
         y="40.709618"
         rx="6.6098609"
         ry="6.6098609" />
      <rect
         ry="6.6098609"
         rx="6.6098609"
         y="40.709618"
         x="69.839508"
         height="29.810888"
         width="29.810888"
         id="rect1672"
         style="fill:none;fill-opacity:1;stroke:#000000;stroke-width:3.8;stroke-linecap:round;stroke-linejoin:round;stroke-miterlimit:4;stroke-dasharray:none;stroke-opacity:0.02" />
      <rect
         style="fill:none;fill-opacity:1;stroke:#000000;stroke-width:4.2;stroke-linecap:round;stroke-linejoin:round;stroke-miterlimit:4;stroke-dasharray:none;stroke-opacity:0.02"
         id="rect1674"
         width="29.810888"
         height="29.810888"
         x="69.839508"
         y="40.709618"
         rx="6.6098609"
         ry="6.6098609" />
      <rect
         ry="6.6098609"
         rx="6.6098609"
         y="40.709618"
         x="69.839508"
         height="29.810888"
         width="29.810888"
         id="rect1676"
         style="fill:none;fill-opacity:1;stroke:#000000;stroke-width:4.6;stroke-linecap:round;stroke-linejoin:round;stroke-miterlimit:4;stroke-dasharray:none;stroke-opacity:0.02" />
      <rect
         style="fill:none;fill-opacity:1;stroke:#000000;stroke-width:5;stroke-linecap:round;stroke-linejoin:round;stroke-miterlimit:4;stroke-dasharray:none;stroke-opacity:0.02"
         id="rect1678"
         width="29.810888"
         height="29.810888"
         x="69.839508"
         y="40.709618"
         rx="6.6098609"
         ry="6.6098609" />
    </g>
    <rect
       ry="6.4494534"
       rx="6.4494534"
       y="2.5391712"
       x="2.4074187"
       height="29.087439"
       width="29.087439"
       id="rect849"
       style="fill:url(#linearGradient1632);fill-opacity:1;stroke-width:2.68768;stroke-linecap:round;stroke-linejoin:round" />
    <path
       id="path2918"
       style="fill:#190006;fill-opacity:0.03598879;stroke-width:0.523051"
       d="M 11.777597,6.7495055 A 0.54763521,0.35316791 0 0 0 11.33169,6.9253639 L 8.21787,10.403448 a 0.54763521,0.35316791 0 0 0 0.4747981,0.530064 h 1.0211935 v 10.461882 c 0,3.477246 2.7993724,6.276629 6.2766254,6.276629 h 2.09137 c 3.477254,0 6.276629,-2.799383 6.276629,-6.276629 V 10.933512 h 1.021191 a 0.54763521,0.35316791 0 0 0 0.474799,-0.530064 L 22.740655,6.9253639 a 0.54763521,0.35316791 0 0 0 -0.448421,-0.1758584 0.54763521,0.35316791 0 0 0 -0.05401,0 0.54763521,0.35316791 0 0 0 -0.445908,0.1758584 l -3.113815,3.4780841 a 0.54763521,0.35316791 0 0 0 0.474798,0.530064 h 1.021189 v 7.322941 4.185256 c 0,1.733188 -1.4057,3.137685 -3.138941,3.137685 -1.733245,0 -3.137688,-1.404497 -3.137688,-3.137685 v -4.185264 -7.322939 h 1.021194 a 0.54763521,0.35316791 0 0 0 0.474794,-0.530065 l -3.11382,-3.4780844 a 0.54763521,0.35316791 0 0 0 -0.448421,-0.1758584 0.54763521,0.35316791 0 0 0 -0.054,0 z" />
    <path
       id="path3156"
       style="fill:#190006;fill-opacity:0.0359888;stroke-width:0.523051"
       d="M 11.882379,6.9223303 A 0.54763521,0.35316791 0 0 0 11.436472,7.0981887 L 8.3226519,10.576273 A 0.54763521,0.35316791 0 0 0 8.79745,11.106337 h 1.0211935 v 10.461882 c 0,3.477246 2.7993725,6.276629 6.2766255,6.276629 h 2.09137 c 3.477254,0 6.276629,-2.799383 6.276629,-6.276629 V 11.106337 h 1.021191 a 0.54763521,0.35316791 0 0 0 0.474799,-0.530064 L 22.845437,7.0981887 a 0.54763521,0.35316791 0 0 0 -0.448421,-0.1758584 0.54763521,0.35316791 0 0 0 -0.05401,0 0.54763521,0.35316791 0 0 0 -0.445908,0.1758584 l -3.113815,3.4780843 a 0.54763521,0.35316791 0 0 0 0.474798,0.530064 h 1.021189 v 7.322941 4.185256 c 0,1.733188 -1.4057,3.137685 -3.138941,3.137685 -1.733245,0 -3.137688,-1.404497 -3.137688,-3.137685 V 18.42927 11.106331 h 1.021194 a 0.54763521,0.35316791 0 0 0 0.474794,-0.530065 l -3.11382,-3.4780846 a 0.54763521,0.35316791 0 0 0 -0.448421,-0.1758584 0.54763521,0.35316791 0 0 0 -0.054,0 z" />
    <path
       id="path3158"
       style="fill:#190006;fill-opacity:0.0359888;stroke-width:0.523051"
       d="M 12.02894,7.2373563 A 0.54763521,0.35316791 0 0 0 11.583033,7.4132147 L 8.4692132,10.891299 a 0.54763521,0.35316791 0 0 0 0.4747981,0.530064 h 1.0211935 v 10.461882 c 0,3.477246 2.7993722,6.276629 6.2766252,6.276629 h 2.09137 c 3.477254,0 6.276629,-2.799383 6.276629,-6.276629 V 11.421363 h 1.021191 a 0.54763521,0.35316791 0 0 0 0.474799,-0.530064 L 22.991998,7.4132147 a 0.54763521,0.35316791 0 0 0 -0.448421,-0.1758584 0.54763521,0.35316791 0 0 0 -0.05401,0 0.54763521,0.35316791 0 0 0 -0.445908,0.1758584 l -3.113815,3.4780843 a 0.54763521,0.35316791 0 0 0 0.474798,0.530064 h 1.021189 v 7.322941 4.185256 c 0,1.733188 -1.4057,3.137685 -3.138941,3.137685 -1.733245,0 -3.137688,-1.404497 -3.137688,-3.137685 v -4.185264 -7.322939 h 1.021194 A 0.54763521,0.35316791 0 0 0 15.64519,10.891292 L 12.53137,7.4132074 a 0.54763521,0.35316791 0 0 0 -0.448421,-0.1758584 0.54763521,0.35316791 0 0 0 -0.054,0 z" />
    <path
       id="path3160"
       style="fill:#190006;fill-opacity:0.0359888;stroke-width:0.523051"
       d="M 12.282618,7.7566836 A 0.54763521,0.35316791 0 0 0 11.836711,7.932542 l -3.1138202,3.478084 a 0.54763521,0.35316791 0 0 0 0.4747981,0.530064 h 1.0211931 v 10.461882 c 0,3.477246 2.799373,6.276629 6.276626,6.276629 h 2.09137 c 3.477254,0 6.276629,-2.799383 6.276629,-6.276629 V 11.94069 h 1.021191 a 0.54763521,0.35316791 0 0 0 0.474799,-0.530064 L 23.245676,7.932542 a 0.54763521,0.35316791 0 0 0 -0.448421,-0.1758584 0.54763521,0.35316791 0 0 0 -0.05401,0 0.54763521,0.35316791 0 0 0 -0.445908,0.1758584 l -3.113815,3.478084 a 0.54763521,0.35316791 0 0 0 0.474798,0.530064 h 1.021189 v 7.322941 4.185256 c 0,1.733188 -1.4057,3.137685 -3.138941,3.137685 -1.733245,0 -3.137688,-1.404497 -3.137688,-3.137685 v -4.185264 -7.322939 h 1.021194 a 0.54763521,0.35316791 0 0 0 0.474794,-0.530065 l -3.11382,-3.4780843 a 0.54763521,0.35316791 0 0 0 -0.448421,-0.1758584 0.54763521,0.35316791 0 0 0 -0.054,0 z" />
    <path
       id="path3162"
       style="fill:#190006;fill-opacity:0.0359888;stroke-width:0.523051"
       d="M 12.716242,8.1507545 A 0.54763521,0.35316791 0 0 0 12.270335,8.3266129 L 9.1565143,11.804697 a 0.54763521,0.35316791 0 0 0 0.4747981,0.530064 h 1.0211936 v 10.461882 c 0,3.477246 2.799373,6.276629 6.276626,6.276629 h 2.09137 c 3.477254,0 6.276629,-2.799383 6.276629,-6.276629 V 12.334761 h 1.021191 a 0.54763521,0.35316791 0 0 0 0.474799,-0.530064 L 23.6793,8.3266129 a 0.54763521,0.35316791 0 0 0 -0.448421,-0.1758584 0.54763521,0.35316791 0 0 0 -0.05401,0 0.54763521,0.35316791 0 0 0 -0.445908,0.1758584 l -3.113815,3.4780841 a 0.54763521,0.35316791 0 0 0 0.474798,0.530064 h 1.021189 v 7.322941 4.185256 c 0,1.733188 -1.4057,3.137685 -3.138941,3.137685 -1.733245,0 -3.137688,-1.404497 -3.137688,-3.137685 v -4.185264 -7.322939 h 1.021194 a 0.54763521,0.35316791 0 0 0 0.474794,-0.530065 l -3.11382,-3.4780844 a 0.54763521,0.35316791 0 0 0 -0.448421,-0.1758584 0.54763521,0.35316791 0 0 0 -0.054,0 z" />
    <path
       id="path4"
       style="fill:#ffffff;fill-opacity:1;stroke-width:0.523051"
       d="M 11.692562,6.6218503 A 0.54763521,0.35316791 0 0 0 11.246655,6.7977087 L 8.1328347,10.275793 a 0.54763521,0.35316791 0 0 0 0.4747981,0.530064 h 1.0211935 v 10.461882 c 0,3.477246 2.7993727,6.276629 6.2766257,6.276629 h 2.09137 c 3.477254,0 6.276629,-2.799383 6.276629,-6.276629 V 10.805857 h 1.021191 a 0.54763521,0.35316791 0 0 0 0.474799,-0.530064 L 22.65562,6.7977087 a 0.54763521,0.35316791 0 0 0 -0.448421,-0.1758584 0.54763521,0.35316791 0 0 0 -0.05401,0 0.54763521,0.35316791 0 0 0 -0.445908,0.1758584 l -3.113815,3.4780843 a 0.54763521,0.35316791 0 0 0 0.474798,0.530064 h 1.021189 v 7.322941 4.185256 c 0,1.733188 -1.4057,3.137685 -3.138941,3.137685 -1.733245,0 -3.137688,-1.404497 -3.137688,-3.137685 V 18.12879 10.805851 h 1.021194 a 0.54763521,0.35316791 0 0 0 0.474794,-0.530065 l -3.11382,-3.4780846 a 0.54763521,0.35316791 0 0 0 -0.448421,-0.1758584 0.54763521,0.35316791 0 0 0 -0.054,0 z" />
  </g>
</svg>
