<?xml version="1.0" encoding="UTF-8" standalone="no"?>
<svg
   width="128"
   height="128"
   viewBox="0 0 33.866666 33.866668"
   version="1.1"
   id="svg1416"
   inkscape:version="1.1.2 (0a00cf5339, 2022-02-04)"
   sodipodi:docname="unknown-horizons.svg"
   xmlns:inkscape="http://www.inkscape.org/namespaces/inkscape"
   xmlns:sodipodi="http://sodipodi.sourceforge.net/DTD/sodipodi-0.dtd"
   xmlns:xlink="http://www.w3.org/1999/xlink"
   xmlns="http://www.w3.org/2000/svg"
   xmlns:svg="http://www.w3.org/2000/svg"
   xmlns:rdf="http://www.w3.org/1999/02/22-rdf-syntax-ns#"
   xmlns:cc="http://creativecommons.org/ns#"
   xmlns:dc="http://purl.org/dc/elements/1.1/">
  <defs
     id="defs1410">
    <linearGradient
       inkscape:collect="always"
       xlink:href="#linearGradient1630"
       id="linearGradient1632"
       x1="132.21078"
       y1="42.151531"
       x2="132.21078"
       y2="70.679932"
       gradientUnits="userSpaceOnUse"
       gradientTransform="matrix(0.97573207,0,0,0.97573207,-111.67889,-37.279869)" />
    <linearGradient
       inkscape:collect="always"
       id="linearGradient1630">
      <stop
         style="stop-color:#ffffff;stop-opacity:1"
         offset="0"
         id="stop1626" />
      <stop
         style="stop-color:#f7f9f8;stop-opacity:1"
         offset="1"
         id="stop1628" />
    </linearGradient>
  </defs>
  <sodipodi:namedview
     id="base"
     pagecolor="#ffffff"
     bordercolor="#666666"
     borderopacity="1.0"
     inkscape:pageopacity="0.0"
     inkscape:pageshadow="2"
     inkscape:zoom="3.959798"
     inkscape:cx="52.275394"
     inkscape:cy="67.806489"
     inkscape:document-units="mm"
     inkscape:current-layer="layer1"
     inkscape:document-rotation="0"
     showgrid="false"
     units="px"
     inkscape:window-width="1514"
     inkscape:window-height="941"
     inkscape:window-x="0"
     inkscape:window-y="0"
     inkscape:window-maximized="0"
     inkscape:pagecheckerboard="0" />
  <metadata
     id="metadata1413">
    <rdf:RDF>
      <cc:Work
         rdf:about="">
        <dc:format>image/svg+xml</dc:format>
        <dc:type
           rdf:resource="http://purl.org/dc/dcmitype/StillImage" />
      </cc:Work>
    </rdf:RDF>
  </metadata>
  <g
     inkscape:label="Capa 1"
     inkscape:groupmode="layer"
     id="layer1">
    <g
       id="g1702"
       transform="matrix(0.97573206,0,0,0.97573206,-65.650952,-37.279873)"
       style="opacity:0.296765">
      <rect
         style="fill:none;fill-opacity:1;stroke:#000000;stroke-width:0.1;stroke-linecap:round;stroke-linejoin:round;stroke-miterlimit:4;stroke-dasharray:none;stroke-opacity:0.02"
         id="rect1634"
         width="29.810888"
         height="29.810888"
         x="69.839508"
         y="40.709618"
         rx="6.6098609"
         ry="6.6098609" />
      <rect
         ry="6.6098609"
         rx="6.6098609"
         y="40.709618"
         x="69.839508"
         height="29.810888"
         width="29.810888"
         id="rect1638"
         style="fill:none;fill-opacity:1;stroke:#000000;stroke-width:0.2;stroke-linecap:round;stroke-linejoin:round;stroke-miterlimit:4;stroke-dasharray:none;stroke-opacity:0.02" />
      <rect
         style="fill:none;fill-opacity:1;stroke:#000000;stroke-width:0.3;stroke-linecap:round;stroke-linejoin:round;stroke-miterlimit:4;stroke-dasharray:none;stroke-opacity:0.02"
         id="rect1640"
         width="29.810888"
         height="29.810888"
         x="69.839508"
         y="40.709618"
         rx="6.6098609"
         ry="6.6098609" />
      <rect
         ry="6.6098609"
         rx="6.6098609"
         y="40.709618"
         x="69.839508"
         height="29.810888"
         width="29.810888"
         id="rect1642"
         style="fill:none;fill-opacity:1;stroke:#000000;stroke-width:0.4;stroke-linecap:round;stroke-linejoin:round;stroke-miterlimit:4;stroke-dasharray:none;stroke-opacity:0.02" />
      <rect
         style="fill:none;fill-opacity:1;stroke:#000000;stroke-width:0.5;stroke-linecap:round;stroke-linejoin:round;stroke-miterlimit:4;stroke-dasharray:none;stroke-opacity:0.02"
         id="rect1644"
         width="29.810888"
         height="29.810888"
         x="69.839508"
         y="40.709618"
         rx="6.6098609"
         ry="6.6098609" />
      <rect
         ry="6.6098609"
         rx="6.6098609"
         y="40.709618"
         x="69.839508"
         height="29.810888"
         width="29.810888"
         id="rect1646"
         style="fill:none;fill-opacity:1;stroke:#000000;stroke-width:0.6;stroke-linecap:round;stroke-linejoin:round;stroke-miterlimit:4;stroke-dasharray:none;stroke-opacity:0.02" />
      <rect
         style="fill:none;fill-opacity:1;stroke:#000000;stroke-width:0.7;stroke-linecap:round;stroke-linejoin:round;stroke-miterlimit:4;stroke-dasharray:none;stroke-opacity:0.02"
         id="rect1648"
         width="29.810888"
         height="29.810888"
         x="69.839508"
         y="40.709618"
         rx="6.6098609"
         ry="6.6098609" />
      <rect
         ry="6.6098609"
         rx="6.6098609"
         y="40.709618"
         x="69.839508"
         height="29.810888"
         width="29.810888"
         id="rect1650"
         style="fill:none;fill-opacity:1;stroke:#000000;stroke-width:0.8;stroke-linecap:round;stroke-linejoin:round;stroke-miterlimit:4;stroke-dasharray:none;stroke-opacity:0.02" />
      <rect
         style="fill:none;fill-opacity:1;stroke:#000000;stroke-width:1;stroke-linecap:round;stroke-linejoin:round;stroke-miterlimit:4;stroke-dasharray:none;stroke-opacity:0.02"
         id="rect1652"
         width="29.810888"
         height="29.810888"
         x="69.839508"
         y="40.709618"
         rx="6.6098609"
         ry="6.6098609" />
      <rect
         ry="6.6098609"
         rx="6.6098609"
         y="40.709618"
         x="69.839508"
         height="29.810888"
         width="29.810888"
         id="rect1654"
         style="fill:none;fill-opacity:1;stroke:#000000;stroke-width:1.2;stroke-linecap:round;stroke-linejoin:round;stroke-miterlimit:4;stroke-dasharray:none;stroke-opacity:0.02" />
      <rect
         style="fill:none;fill-opacity:1;stroke:#000000;stroke-width:1.4;stroke-linecap:round;stroke-linejoin:round;stroke-miterlimit:4;stroke-dasharray:none;stroke-opacity:0.02"
         id="rect1656"
         width="29.810888"
         height="29.810888"
         x="69.839508"
         y="40.709618"
         rx="6.6098609"
         ry="6.6098609" />
      <rect
         ry="6.6098609"
         rx="6.6098609"
         y="40.709618"
         x="69.839508"
         height="29.810888"
         width="29.810888"
         id="rect1658"
         style="fill:none;fill-opacity:1;stroke:#000000;stroke-width:1.6;stroke-linecap:round;stroke-linejoin:round;stroke-miterlimit:4;stroke-dasharray:none;stroke-opacity:0.02" />
      <rect
         style="fill:none;fill-opacity:1;stroke:#000000;stroke-width:1.8;stroke-linecap:round;stroke-linejoin:round;stroke-miterlimit:4;stroke-dasharray:none;stroke-opacity:0.02"
         id="rect1660"
         width="29.810888"
         height="29.810888"
         x="69.839508"
         y="40.709618"
         rx="6.6098609"
         ry="6.6098609" />
      <rect
         ry="6.6098609"
         rx="6.6098609"
         y="40.709618"
         x="69.839508"
         height="29.810888"
         width="29.810888"
         id="rect1662"
         style="fill:none;fill-opacity:1;stroke:#000000;stroke-width:2;stroke-linecap:round;stroke-linejoin:round;stroke-miterlimit:4;stroke-dasharray:none;stroke-opacity:0.02" />
      <rect
         style="fill:none;fill-opacity:1;stroke:#000000;stroke-width:2.2;stroke-linecap:round;stroke-linejoin:round;stroke-miterlimit:4;stroke-dasharray:none;stroke-opacity:0.02"
         id="rect1664"
         width="29.810888"
         height="29.810888"
         x="69.839508"
         y="40.709618"
         rx="6.6098609"
         ry="6.6098609" />
      <rect
         ry="6.6098609"
         rx="6.6098609"
         y="40.709618"
         x="69.839508"
         height="29.810888"
         width="29.810888"
         id="rect1666"
         style="fill:none;fill-opacity:1;stroke:#000000;stroke-width:2.6;stroke-linecap:round;stroke-linejoin:round;stroke-miterlimit:4;stroke-dasharray:none;stroke-opacity:0.02" />
      <rect
         style="fill:none;fill-opacity:1;stroke:#000000;stroke-width:3;stroke-linecap:round;stroke-linejoin:round;stroke-miterlimit:4;stroke-dasharray:none;stroke-opacity:0.02"
         id="rect1668"
         width="29.810888"
         height="29.810888"
         x="69.839508"
         y="40.709618"
         rx="6.6098609"
         ry="6.6098609" />
      <rect
         ry="6.6098609"
         rx="6.6098609"
         y="40.709618"
         x="69.839508"
         height="29.810888"
         width="29.810888"
         id="rect1670"
         style="fill:none;fill-opacity:1;stroke:#000000;stroke-width:3.4;stroke-linecap:round;stroke-linejoin:round;stroke-miterlimit:4;stroke-dasharray:none;stroke-opacity:0.02" />
      <rect
         style="fill:none;fill-opacity:1;stroke:#000000;stroke-width:3.8;stroke-linecap:round;stroke-linejoin:round;stroke-miterlimit:4;stroke-dasharray:none;stroke-opacity:0.02"
         id="rect1672"
         width="29.810888"
         height="29.810888"
         x="69.839508"
         y="40.709618"
         rx="6.6098609"
         ry="6.6098609" />
      <rect
         ry="6.6098609"
         rx="6.6098609"
         y="40.709618"
         x="69.839508"
         height="29.810888"
         width="29.810888"
         id="rect1674"
         style="fill:none;fill-opacity:1;stroke:#000000;stroke-width:4.2;stroke-linecap:round;stroke-linejoin:round;stroke-miterlimit:4;stroke-dasharray:none;stroke-opacity:0.02" />
      <rect
         style="fill:none;fill-opacity:1;stroke:#000000;stroke-width:4.6;stroke-linecap:round;stroke-linejoin:round;stroke-miterlimit:4;stroke-dasharray:none;stroke-opacity:0.02"
         id="rect1676"
         width="29.810888"
         height="29.810888"
         x="69.839508"
         y="40.709618"
         rx="6.6098609"
         ry="6.6098609" />
      <rect
         ry="6.6098609"
         rx="6.6098609"
         y="40.709618"
         x="69.839508"
         height="29.810888"
         width="29.810888"
         id="rect1678"
         style="fill:none;fill-opacity:1;stroke:#000000;stroke-width:5;stroke-linecap:round;stroke-linejoin:round;stroke-miterlimit:4;stroke-dasharray:none;stroke-opacity:0.02" />
    </g>
    <rect
       style="fill:url(#linearGradient1632);fill-opacity:1;stroke-width:2.68769;stroke-linecap:round;stroke-linejoin:round"
       id="rect849"
       width="29.08744"
       height="29.08744"
       x="2.4937003"
       y="2.441808"
       rx="6.4494534"
       ry="6.4494534" />
    <path
       style="opacity:0.2;stroke-width:0.398299"
       d="M 21.294755,21.84414 H 6.000036 c 0,0 3.3457198,4.7796 13.382879,4.7796 6.69144,0 8.921919,-3.34572 8.921919,-5.01858 0,-1.447196 0,-2.15082 -1.11524,-2.15082 h -4.779599 c -1.11524,0 -1.11524,1.052548 -1.11524,2.3898 z"
       id="path2" />
    <path
       style="opacity:0.2;stroke-width:0.398299"
       d="M 19.542235,9.895141 V 6.7087422 l 3.983001,1.5931994 z"
       id="path4" />
    <path
       style="fill:#784421;stroke-width:0.398299"
       d="M 21.294755,21.445841 H 6.000036 c 0,0 3.3457198,4.7796 13.382879,4.7796 6.69144,0 8.921919,-3.34572 8.921919,-5.01858 0,-1.447198 0,-2.15082 -1.11524,-2.15082 h -4.779599 c -1.11524,0 -1.11524,1.052546 -1.11524,2.3898 z"
       id="path6" />
    <path
       style="opacity:0.2;stroke-width:0.398299"
       d="M 19.542235,9.895141 V 21.84414 c 0,0 -4.779599,-2.730347 -4.779599,-5.974499 0,-3.244153 4.779599,-5.9745 4.779599,-5.9745 z"
       id="path8" />
    <path
       style="fill:#e4e4e4;stroke-width:0.398299"
       d="M 19.542235,9.4968416 V 21.445841 c 0,0 -4.779599,-2.730347 -4.779599,-5.974501 0,-3.244152 4.779599,-5.9744984 4.779599,-5.9744984 z"
       id="path10" />
    <path
       style="fill:#c83737;stroke-width:0.398299"
       d="M 19.542235,9.4968416 V 6.3104412 l 3.983001,1.5932009 z"
       id="path12" />
    <path
       style="opacity:0.2;stroke-width:0.398299"
       d="m 12.372836,13.878142 v 7.965998 c 0,0 -3.1864001,-1.820231 -3.1864001,-3.982999 0,-2.16277 3.1864001,-3.982999 3.1864001,-3.982999 z"
       id="path14" />
    <path
       style="fill:#e4e4e4;stroke-width:0.398299"
       d="m 12.372836,13.479841 v 7.966 c 0,0 -3.1864001,-1.820231 -3.1864001,-3.983 0,-2.162769 3.1864001,-3.983 3.1864001,-3.983 z"
       id="path16" />
    <path
       style="opacity:0.4;stroke-width:0.398299"
       d="m 22.330336,20.383707 c 0,0 0,-0.531066 0.59745,-0.531066 0.59745,0 0.59745,0.531066 0.59745,0.531066 v 1.062134 h -1.1949 z"
       id="path18" />
    <path
       style="opacity:0.4;stroke-width:0.398299"
       d="m 24.321835,20.383707 c 0,0 0,-0.531066 0.59745,-0.531066 0.59745,0 0.59745,0.531066 0.59745,0.531066 v 1.062134 h -1.1949 z"
       id="path20" />
    <path
       style="opacity:0.4;stroke-width:0.398299"
       d="m 26.313335,20.383707 c 0,0 0,-0.531066 0.59745,-0.531066 0.59745,0 0.59745,0.531066 0.59745,0.531066 v 1.062134 h -1.1949 z"
       id="path22" />
    <path
       style="opacity:0.1;fill:#ffffff;stroke-width:0.398299"
       d="m 22.409685,19.056041 c -1.115241,0 -1.114775,1.052546 -1.114775,2.3898 H 6.000036 c 0,0 0.110813,0.153829 0.3368436,0.398299 H 21.29491 c 0,-1.337252 -4.77e-4,-2.3898 1.114775,-2.3898 h 4.779599 c 1.019705,0 1.101845,0.619566 1.109327,1.82658 8.7e-4,-0.02391 0.0062,-0.05064 0.0062,-0.0739 0,-1.447196 -3.1e-4,-2.150975 -1.11555,-2.150975 z"
       id="path24" />
    <path
       style="opacity:0.1;fill:#ffffff;stroke-width:0.398299"
       d="m 19.542235,9.4968416 c 0,0 -4.779599,2.7303464 -4.779599,5.9744994 0,0.06672 0.0054,0.13288 0.0093,0.199151 0.188591,-3.155816 4.770263,-5.775351 4.770263,-5.775351 z"
       id="path26" />
    <path
       style="opacity:0.1;fill:#ffffff;stroke-width:0.398299"
       d="m 19.542235,6.3104412 v 0.398301 l 3.485124,1.3940489 0.497877,-0.199149 z"
       id="path28" />
    <path
       style="opacity:0.1;fill:#ffffff;stroke-width:0.398299"
       d="m 12.372836,13.479841 c 0,0 -3.1864001,1.820231 -3.1864001,3.983 0,0.06706 0.011953,0.132791 0.017892,0.199149 0.1855529,-2.073739 3.1685091,-3.783848 3.1685091,-3.783848 z"
       id="path30" />
  </g>
</svg>
