<?xml version="1.0" encoding="UTF-8" standalone="no"?>
<svg
   xmlns:dc="http://purl.org/dc/elements/1.1/"
   xmlns:cc="http://creativecommons.org/ns#"
   xmlns:rdf="http://www.w3.org/1999/02/22-rdf-syntax-ns#"
   xmlns:svg="http://www.w3.org/2000/svg"
   xmlns="http://www.w3.org/2000/svg"
   xmlns:xlink="http://www.w3.org/1999/xlink"
   xmlns:sodipodi="http://sodipodi.sourceforge.net/DTD/sodipodi-0.dtd"
   xmlns:inkscape="http://www.inkscape.org/namespaces/inkscape"
   inkscape:version="1.1-dev (1:0.92.0+devel+202004260039+9758c7a)"
   sodipodi:docname="visual-studio-code-insiders.svg"
   viewBox="0 0 128 128"
   height="128"
   width="128"
   id="svg2"
   version="1.1">
  <metadata
     id="metadata8">
    <rdf:RDF>
      <cc:Work
         rdf:about="">
        <dc:format>image/svg+xml</dc:format>
        <dc:type
           rdf:resource="http://purl.org/dc/dcmitype/StillImage" />
      </cc:Work>
    </rdf:RDF>
  </metadata>
  <defs
     id="defs6">
    <linearGradient
       inkscape:collect="always"
       id="linearGradient1922">
      <stop
         style="stop-color:#229b55;stop-opacity:1"
         offset="0"
         id="stop1918" />
      <stop
         style="stop-color:#2fae62;stop-opacity:1"
         offset="1"
         id="stop1920" />
    </linearGradient>
    <linearGradient
       id="linearGradient897"
       inkscape:collect="always">
      <stop
         id="stop893"
         offset="0"
         style="stop-color:#2dac60;stop-opacity:1" />
      <stop
         style="stop-color:#259f58;stop-opacity:1"
         offset="0.24247217"
         id="stop911" />
      <stop
         style="stop-color:#18894a;stop-opacity:1"
         offset="0.33407602"
         id="stop909" />
      <stop
         style="stop-color:#217fe6;stop-opacity:1;"
         offset="0.41864678"
         id="stop905" />
      <stop
         id="stop907"
         offset="0.47943586"
         style="stop-color:#127840;stop-opacity:1" />
      <stop
         style="stop-color:#1e9451;stop-opacity:1"
         offset="0.59784544"
         id="stop913" />
      <stop
         style="stop-color:#1e9351;stop-opacity:1"
         offset="0.70012593"
         id="stop903" />
      <stop
         style="stop-color:#1a8e4d;stop-opacity:1"
         offset="0.875534"
         id="stop901" />
      <stop
         id="stop895"
         offset="1"
         style="stop-color:#12753f;stop-opacity:1" />
    </linearGradient>
    <linearGradient
       id="linearGradient885"
       inkscape:collect="always">
      <stop
         id="stop881"
         offset="0"
         style="stop-color:#2dac60;stop-opacity:1" />
      <stop
         style="stop-color:#198c4c;stop-opacity:1"
         offset="0.82908732"
         id="stop889" />
      <stop
         id="stop883"
         offset="1"
         style="stop-color:#137740;stop-opacity:1" />
    </linearGradient>
    <linearGradient
       id="linearGradient833"
       inkscape:collect="always">
      <stop
         id="stop829"
         offset="0"
         style="stop-color:#dfe3e8;stop-opacity:1" />
      <stop
         id="stop831"
         offset="1"
         style="stop-color:#fefeff;stop-opacity:1" />
    </linearGradient>
    <linearGradient
       id="linearGradient823"
       inkscape:collect="always">
      <stop
         id="stop819"
         offset="0"
         style="stop-color:#ccd4da;stop-opacity:1" />
      <stop
         id="stop821"
         offset="1"
         style="stop-color:#ffffff;stop-opacity:1" />
    </linearGradient>
    <linearGradient
       gradientTransform="matrix(0.13667801,0,0,0.13667801,162.31231,-5.989337)"
       gradientUnits="userSpaceOnUse"
       y2="93.836403"
       x2="-741.83197"
       y1="959.04749"
       x1="-741.83197"
       id="linearGradient825"
       xlink:href="#linearGradient823"
       inkscape:collect="always" />
    <linearGradient
       gradientTransform="matrix(0.13667801,0,0,0.13667801,161.84082,-5.989337)"
       gradientUnits="userSpaceOnUse"
       y2="152.13077"
       x2="-738.76385"
       y1="931.43433"
       x1="-738.76385"
       id="linearGradient835"
       xlink:href="#linearGradient833"
       inkscape:collect="always" />
    <linearGradient
       gradientTransform="translate(-400.62392,-33.709465)"
       gradientUnits="userSpaceOnUse"
       y2="40.792065"
       x2="258.18896"
       y1="93.363983"
       x1="196.37183"
       id="linearGradient875"
       xlink:href="#linearGradient1922"
       inkscape:collect="always" />
    <linearGradient
       gradientTransform="translate(-433.06425,-27.060098)"
       gradientUnits="userSpaceOnUse"
       y2="40.83427"
       x2="295.79446"
       y1="101.40782"
       x1="295.79446"
       id="linearGradient887"
       xlink:href="#linearGradient885"
       inkscape:collect="always" />
    <linearGradient
       gradientTransform="translate(-459.28827,-27.060098)"
       gradientUnits="userSpaceOnUse"
       y2="97.739105"
       x2="310.30118"
       y1="45.922131"
       x1="255.20772"
       id="linearGradient899"
       xlink:href="#linearGradient897"
       inkscape:collect="always" />
    <linearGradient
       id="a">
      <stop
         offset="0"
         id="stop1811" />
      <stop
         stop-opacity="0"
         offset="1"
         id="stop1813" />
    </linearGradient>
    <linearGradient
       id="b">
      <stop
         stop-color="#138346"
         offset="0"
         id="stop1816" />
      <stop
         stop-color="#30b063"
         offset="1"
         id="stop1818" />
    </linearGradient>
    <linearGradient
       id="g"
       x1="402.71"
       x2="402.71"
       y1="137.89"
       y2="463.07"
       gradientTransform="matrix(.19189 0 0 .19189 -44.664 -25.598)"
       gradientUnits="userSpaceOnUse">
      <stop
         stop-color="#232323"
         offset="0"
         id="stop1821" />
      <stop
         stop-color="#5c5c5c"
         offset="1"
         id="stop1823" />
    </linearGradient>
    <filter
       id="i"
       x="-.036"
       y="-.036"
       width="1.072"
       height="1.072"
       color-interpolation-filters="sRGB">
      <feGaussianBlur
         stdDeviation="4.5"
         id="feGaussianBlur1826" />
    </filter>
    <linearGradient
       id="h"
       x1="86"
       x2="63"
       y1="19.458"
       y2="39"
       gradientUnits="userSpaceOnUse"
       xlink:href="#b" />
    <linearGradient
       id="f"
       x1="86"
       x2="83"
       y1="20"
       y2="20"
       gradientUnits="userSpaceOnUse"
       xlink:href="#a" />
    <linearGradient
       id="e"
       x1="87"
       x2="63"
       y1="46"
       y2="24"
       gradientUnits="userSpaceOnUse"
       xlink:href="#b" />
    <linearGradient
       id="d"
       x1="86"
       x2="83"
       y1="44"
       y2="44"
       gradientUnits="userSpaceOnUse"
       xlink:href="#a" />
    <filter
       id="l"
       x="-.095937"
       y="-.096063"
       width="1.1919"
       height="1.1921"
       color-interpolation-filters="sRGB">
      <feGaussianBlur
         stdDeviation="0.96151885"
         id="feGaussianBlur1833" />
    </filter>
    <filter
       id="k"
       x="-.095796"
       y="-.096205"
       width="1.1916"
       height="1.1924"
       color-interpolation-filters="sRGB">
      <feGaussianBlur
         stdDeviation="1.2794177"
         id="feGaussianBlur1836" />
    </filter>
    <filter
       id="j"
       x="-.06"
       y="-.06"
       width="1.12"
       height="1.12"
       color-interpolation-filters="sRGB">
      <feGaussianBlur
         stdDeviation="1.35"
         id="feGaussianBlur1839" />
    </filter>
    <linearGradient
       id="c"
       x1="32.001"
       x2="32.001"
       y1="2.0059"
       y2="62.008"
       gradientUnits="userSpaceOnUse">
      <stop
         stop-color="#15a156"
         offset="0"
         id="stop1842" />
      <stop
         stop-color="#42cc89"
         offset="1"
         id="stop1844" />
    </linearGradient>
  </defs>
  <sodipodi:namedview
     inkscape:guide-bbox="true"
     showguides="true"
     inkscape:current-layer="svg2"
     inkscape:window-maximized="1"
     inkscape:window-y="30"
     inkscape:window-x="0"
     inkscape:cy="84.014172"
     inkscape:cx="47.623692"
     inkscape:zoom="2.8284271"
     showgrid="false"
     id="namedview4"
     inkscape:window-height="1024"
     inkscape:window-width="1920"
     inkscape:pageshadow="2"
     inkscape:pageopacity="0"
     guidetolerance="10"
     gridtolerance="10"
     objecttolerance="10"
     borderopacity="1"
     bordercolor="#666666"
     pagecolor="#ffffff" />
  <circle
     r="61.380009"
     cy="64.286316"
     cx="63.591888"
     id="path817"
     style="opacity:1;fill:url(#linearGradient825);fill-opacity:1;stroke:none;stroke-width:0.78699166;stroke-linecap:round;stroke-linejoin:round;stroke-miterlimit:4;stroke-dasharray:none;stroke-opacity:1" />
  <circle
     style="opacity:1;fill:url(#linearGradient835);fill-opacity:1;stroke:none;stroke-width:0.706341;stroke-linecap:round;stroke-linejoin:round;stroke-miterlimit:4;stroke-dasharray:none;stroke-opacity:1"
     id="circle827"
     cx="63.120399"
     cy="64.286316"
     r="55.089832" />
  <g
     style="opacity:0.38684592;fill:none;fill-opacity:1;stroke:#229b55;stroke-opacity:0.03"
     transform="translate(117.04997,25.018645)"
     id="g1055">
    <path
       sodipodi:nodetypes="ccccccccccccccccc"
       d="m -32.822604,-1.3290083 -62.05273,60.9257803 8.46094,2.62109 20.04687,-15.07226 33.51367,32.71875 19.93946,-8.45899 -0.0371,-64.4218703 z m -53.91015,17.7148403 -8.21289,2.77735 20.69854,20.2904 7.95703,-7.8125 z m 53.76367,5.64844 0.0684,34.4043 -23.03516,-17.13672 z"
       style="fill:none;fill-opacity:1;stroke:#229b55;stroke-width:1px;stroke-linecap:round;stroke-linejoin:round;stroke-opacity:0.03"
       id="path974" />
    <path
       id="path976"
       style="fill:none;fill-opacity:1;stroke:#229b55;stroke-width:1.2;stroke-linecap:round;stroke-linejoin:round;stroke-miterlimit:4;stroke-dasharray:none;stroke-opacity:0.03"
       d="m -32.822604,-1.3290083 -62.05273,60.9257803 8.46094,2.62109 20.04687,-15.07226 33.51367,32.71875 19.93946,-8.45899 -0.0371,-64.4218703 z m -53.91015,17.7148403 -8.21289,2.77735 20.69854,20.2904 7.95703,-7.8125 z m 53.76367,5.64844 0.0684,34.4043 -23.03516,-17.13672 z"
       sodipodi:nodetypes="ccccccccccccccccc" />
    <path
       sodipodi:nodetypes="ccccccccccccccccc"
       d="m -32.822604,-1.3290083 -62.05273,60.9257803 8.46094,2.62109 20.04687,-15.07226 33.51367,32.71875 19.93946,-8.45899 -0.0371,-64.4218703 z m -53.91015,17.7148403 -8.21289,2.77735 20.69854,20.2904 7.95703,-7.8125 z m 53.76367,5.64844 0.0684,34.4043 -23.03516,-17.13672 z"
       style="fill:none;fill-opacity:1;stroke:#229b55;stroke-width:1.4;stroke-linecap:round;stroke-linejoin:round;stroke-miterlimit:4;stroke-dasharray:none;stroke-opacity:0.03"
       id="path978" />
    <path
       id="path980"
       style="fill:none;fill-opacity:1;stroke:#229b55;stroke-width:1.6;stroke-linecap:round;stroke-linejoin:round;stroke-miterlimit:4;stroke-dasharray:none;stroke-opacity:0.03"
       d="m -32.822604,-1.3290083 -62.05273,60.9257803 8.46094,2.62109 20.04687,-15.07226 33.51367,32.71875 19.93946,-8.45899 -0.0371,-64.4218703 z m -53.91015,17.7148403 -8.21289,2.77735 20.69854,20.2904 7.95703,-7.8125 z m 53.76367,5.64844 0.0684,34.4043 -23.03516,-17.13672 z"
       sodipodi:nodetypes="ccccccccccccccccc" />
    <path
       sodipodi:nodetypes="ccccccccccccccccc"
       d="m -32.822604,-1.3290083 -62.05273,60.9257803 8.46094,2.62109 20.04687,-15.07226 33.51367,32.71875 19.93946,-8.45899 -0.0371,-64.4218703 z m -53.91015,17.7148403 -8.21289,2.77735 20.69854,20.2904 7.95703,-7.8125 z m 53.76367,5.64844 0.0684,34.4043 -23.03516,-17.13672 z"
       style="fill:none;fill-opacity:1;stroke:#229b55;stroke-width:1.8;stroke-linecap:round;stroke-linejoin:round;stroke-miterlimit:4;stroke-dasharray:none;stroke-opacity:0.03"
       id="path982" />
    <path
       id="path984"
       style="fill:none;fill-opacity:1;stroke:#229b55;stroke-width:2;stroke-linecap:round;stroke-linejoin:round;stroke-miterlimit:4;stroke-dasharray:none;stroke-opacity:0.03"
       d="m -32.822604,-1.3290083 -62.05273,60.9257803 8.46094,2.62109 20.04687,-15.07226 33.51367,32.71875 19.93946,-8.45899 -0.0371,-64.4218703 z m -53.91015,17.7148403 -8.21289,2.77735 20.69854,20.2904 7.95703,-7.8125 z m 53.76367,5.64844 0.0684,34.4043 -23.03516,-17.13672 z"
       sodipodi:nodetypes="ccccccccccccccccc" />
    <path
       sodipodi:nodetypes="ccccccccccccccccc"
       d="m -32.822604,-1.3290083 -62.05273,60.9257803 8.46094,2.62109 20.04687,-15.07226 33.51367,32.71875 19.93946,-8.45899 -0.0371,-64.4218703 z m -53.91015,17.7148403 -8.21289,2.77735 20.69854,20.2904 7.95703,-7.8125 z m 53.76367,5.64844 0.0684,34.4043 -23.03516,-17.13672 z"
       style="fill:none;fill-opacity:1;stroke:#229b55;stroke-width:2.5;stroke-linecap:round;stroke-linejoin:round;stroke-miterlimit:4;stroke-dasharray:none;stroke-opacity:0.03"
       id="path986" />
    <path
       id="path988"
       style="fill:none;fill-opacity:1;stroke:#229b55;stroke-width:3;stroke-linecap:round;stroke-linejoin:round;stroke-miterlimit:4;stroke-dasharray:none;stroke-opacity:0.03"
       d="m -32.822604,-1.3290083 -62.05273,60.9257803 8.46094,2.62109 20.04687,-15.07226 33.51367,32.71875 19.93946,-8.45899 -0.0371,-64.4218703 z m -53.91015,17.7148403 -8.21289,2.77735 20.69854,20.2904 7.95703,-7.8125 z m 53.76367,5.64844 0.0684,34.4043 -23.03516,-17.13672 z"
       sodipodi:nodetypes="ccccccccccccccccc" />
    <path
       sodipodi:nodetypes="ccccccccccccccccc"
       d="m -32.822604,-1.3290083 -62.05273,60.9257803 8.46094,2.62109 20.04687,-15.07226 33.51367,32.71875 19.93946,-8.45899 -0.0371,-64.4218703 z m -53.91015,17.7148403 -8.21289,2.77735 20.69854,20.2904 7.95703,-7.8125 z m 53.76367,5.64844 0.0684,34.4043 -23.03516,-17.13672 z"
       style="fill:none;fill-opacity:1;stroke:#229b55;stroke-width:3.5;stroke-linecap:round;stroke-linejoin:round;stroke-miterlimit:4;stroke-dasharray:none;stroke-opacity:0.03"
       id="path990" />
    <path
       id="path992"
       style="fill:none;fill-opacity:1;stroke:#229b55;stroke-width:4;stroke-linecap:round;stroke-linejoin:round;stroke-miterlimit:4;stroke-dasharray:none;stroke-opacity:0.03"
       d="m -32.822604,-1.3290083 -62.05273,60.9257803 8.46094,2.62109 20.04687,-15.07226 33.51367,32.71875 19.93946,-8.45899 -0.0371,-64.4218703 z m -53.91015,17.7148403 -8.21289,2.77735 20.69854,20.2904 7.95703,-7.8125 z m 53.76367,5.64844 0.0684,34.4043 -23.03516,-17.13672 z"
       sodipodi:nodetypes="ccccccccccccccccc" />
    <path
       sodipodi:nodetypes="ccccccccccccccccc"
       d="m -32.822604,-1.3290083 -62.05273,60.9257803 8.46094,2.62109 20.04687,-15.07226 33.51367,32.71875 19.93946,-8.45899 -0.0371,-64.4218703 z m -53.91015,17.7148403 -8.21289,2.77735 20.69854,20.2904 7.95703,-7.8125 z m 53.76367,5.64844 0.0684,34.4043 -23.03516,-17.13672 z"
       style="fill:none;fill-opacity:1;stroke:#229b55;stroke-width:4.5;stroke-linecap:round;stroke-linejoin:round;stroke-miterlimit:4;stroke-dasharray:none;stroke-opacity:0.03"
       id="path994" />
    <path
       id="path996"
       style="fill:none;fill-opacity:1;stroke:#229b55;stroke-width:5;stroke-linecap:round;stroke-linejoin:round;stroke-miterlimit:4;stroke-dasharray:none;stroke-opacity:0.03"
       d="m -32.822604,-1.3290083 -62.05273,60.9257803 8.46094,2.62109 20.04687,-15.07226 33.51367,32.71875 19.93946,-8.45899 -0.0371,-64.4218703 z m -53.91015,17.7148403 -8.21289,2.77735 20.69854,20.2904 7.95703,-7.8125 z m 53.76367,5.64844 0.0684,34.4043 -23.03516,-17.13672 z"
       sodipodi:nodetypes="ccccccccccccccccc" />
    <path
       sodipodi:nodetypes="ccccccccccccccccc"
       d="m -32.822604,-1.3290083 -62.05273,60.9257803 8.46094,2.62109 20.04687,-15.07226 33.51367,32.71875 19.93946,-8.45899 -0.0371,-64.4218703 z m -53.91015,17.7148403 -8.21289,2.77735 20.69854,20.2904 7.95703,-7.8125 z m 53.76367,5.64844 0.0684,34.4043 -23.03516,-17.13672 z"
       style="fill:none;fill-opacity:1;stroke:#229b55;stroke-width:5.5;stroke-linecap:round;stroke-linejoin:round;stroke-miterlimit:4;stroke-dasharray:none;stroke-opacity:0.03"
       id="path998" />
    <path
       id="path1000"
       style="fill:none;fill-opacity:1;stroke:#229b55;stroke-width:5.5;stroke-linecap:round;stroke-linejoin:round;stroke-miterlimit:4;stroke-dasharray:none;stroke-opacity:0.03"
       d="m -32.822604,-1.3290083 -62.05273,60.9257803 8.46094,2.62109 20.04687,-15.07226 33.51367,32.71875 19.93946,-8.45899 -0.0371,-64.4218703 z m -53.91015,17.7148403 -8.21289,2.77735 20.69854,20.2904 7.95703,-7.8125 z m 53.76367,5.64844 0.0684,34.4043 -23.03516,-17.13672 z"
       sodipodi:nodetypes="ccccccccccccccccc" />
    <path
       sodipodi:nodetypes="ccccccccccccccccc"
       d="m -32.822604,-1.3290083 -62.05273,60.9257803 8.46094,2.62109 20.04687,-15.07226 33.51367,32.71875 19.93946,-8.45899 -0.0371,-64.4218703 z m -53.91015,17.7148403 -8.21289,2.77735 20.69854,20.2904 7.95703,-7.8125 z m 53.76367,5.64844 0.0684,34.4043 -23.03516,-17.13672 z"
       style="fill:none;fill-opacity:1;stroke:#229b55;stroke-width:6;stroke-linecap:round;stroke-linejoin:round;stroke-miterlimit:4;stroke-dasharray:none;stroke-opacity:0.03"
       id="path1002" />
    <path
       id="path1004"
       style="fill:none;fill-opacity:1;stroke:#229b55;stroke-width:6.5;stroke-linecap:round;stroke-linejoin:round;stroke-miterlimit:4;stroke-dasharray:none;stroke-opacity:0.03"
       d="m -32.822604,-1.3290083 -62.05273,60.9257803 8.46094,2.62109 20.04687,-15.07226 33.51367,32.71875 19.93946,-8.45899 -0.0371,-64.4218703 z m -53.91015,17.7148403 -8.21289,2.77735 20.69854,20.2904 7.95703,-7.8125 z m 53.76367,5.64844 0.0684,34.4043 -23.03516,-17.13672 z"
       sodipodi:nodetypes="ccccccccccccccccc" />
    <path
       sodipodi:nodetypes="ccccccccccccccccc"
       d="m -32.822604,-1.3290083 -62.05273,60.9257803 8.46094,2.62109 20.04687,-15.07226 33.51367,32.71875 19.93946,-8.45899 -0.0371,-64.4218703 z m -53.91015,17.7148403 -8.21289,2.77735 20.69854,20.2904 7.95703,-7.8125 z m 53.76367,5.64844 0.0684,34.4043 -23.03516,-17.13672 z"
       style="fill:none;fill-opacity:1;stroke:#229b55;stroke-width:7;stroke-linecap:round;stroke-linejoin:round;stroke-miterlimit:4;stroke-dasharray:none;stroke-opacity:0.03"
       id="path1006" />
    <path
       id="path1008"
       style="fill:none;fill-opacity:1;stroke:#229b55;stroke-width:8;stroke-linecap:round;stroke-linejoin:round;stroke-miterlimit:4;stroke-dasharray:none;stroke-opacity:0.03"
       d="m -32.822604,-1.3290083 -62.05273,60.9257803 8.46094,2.62109 20.04687,-15.07226 33.51367,32.71875 19.93946,-8.45899 -0.0371,-64.4218703 z m -53.91015,17.7148403 -8.21289,2.77735 20.69854,20.2904 7.95703,-7.8125 z m 53.76367,5.64844 0.0684,34.4043 -23.03516,-17.13672 z"
       sodipodi:nodetypes="ccccccccccccccccc" />
    <path
       sodipodi:nodetypes="ccccccccccccccccc"
       d="m -32.822604,-1.3290083 -62.05273,60.9257803 8.46094,2.62109 20.04687,-15.07226 33.51367,32.71875 19.93946,-8.45899 -0.0371,-64.4218703 z m -53.91015,17.7148403 -8.21289,2.77735 20.69854,20.2904 7.95703,-7.8125 z m 53.76367,5.64844 0.0684,34.4043 -23.03516,-17.13672 z"
       style="fill:none;fill-opacity:1;stroke:#229b55;stroke-width:9;stroke-linecap:round;stroke-linejoin:round;stroke-miterlimit:4;stroke-dasharray:none;stroke-opacity:0.03"
       id="path1010" />
    <path
       id="path1012"
       style="fill:none;fill-opacity:1;stroke:#229b55;stroke-width:10;stroke-linecap:round;stroke-linejoin:round;stroke-miterlimit:4;stroke-dasharray:none;stroke-opacity:0.03"
       d="m -32.822604,-1.3290083 -62.05273,60.9257803 8.46094,2.62109 20.04687,-15.07226 33.51367,32.71875 19.93946,-8.45899 -0.0371,-64.4218703 z m -53.91015,17.7148403 -8.21289,2.77735 20.69854,20.2904 7.95703,-7.8125 z m 53.76367,5.64844 0.0684,34.4043 -23.03516,-17.13672 z"
       sodipodi:nodetypes="ccccccccccccccccc" />
    <path
       sodipodi:nodetypes="ccccccccccccccccc"
       d="m -32.822604,-1.3290083 -62.05273,60.9257803 8.46094,2.62109 20.04687,-15.07226 33.51367,32.71875 19.93946,-8.45899 -0.0371,-64.4218703 z m -53.91015,17.7148403 -8.21289,2.77735 20.69854,20.2904 7.95703,-7.8125 z m 53.76367,5.64844 0.0684,34.4043 -23.03516,-17.13672 z"
       style="fill:none;fill-opacity:1;stroke:#229b55;stroke-width:11;stroke-linecap:round;stroke-linejoin:round;stroke-miterlimit:4;stroke-dasharray:none;stroke-opacity:0.03"
       id="path1014" />
    <path
       id="path1016"
       style="fill:none;fill-opacity:1;stroke:#229b55;stroke-width:12;stroke-linecap:round;stroke-linejoin:round;stroke-miterlimit:4;stroke-dasharray:none;stroke-opacity:0.03"
       d="m -32.822604,-1.3290083 -62.05273,60.9257803 8.46094,2.62109 20.04687,-15.07226 33.51367,32.71875 19.93946,-8.45899 -0.0371,-64.4218703 z m -53.91015,17.7148403 -8.21289,2.77735 20.69854,20.2904 7.95703,-7.8125 z m 53.76367,5.64844 0.0684,34.4043 -23.03516,-17.13672 z"
       sodipodi:nodetypes="ccccccccccccccccc" />
    <path
       sodipodi:nodetypes="ccccccccccccccccc"
       d="m -32.822604,-1.3290083 -62.05273,60.9257803 8.46094,2.62109 20.04687,-15.07226 33.51367,32.71875 19.93946,-8.45899 -0.0371,-64.4218703 z m -53.91015,17.7148403 -8.21289,2.77735 20.69854,20.2904 7.95703,-7.8125 z m 53.76367,5.64844 0.0684,34.4043 -23.03516,-17.13672 z"
       style="fill:none;fill-opacity:1;stroke:#229b55;stroke-width:13;stroke-linecap:round;stroke-linejoin:round;stroke-miterlimit:4;stroke-dasharray:none;stroke-opacity:0.03"
       id="path1018" />
    <path
       id="path1020"
       style="fill:none;fill-opacity:1;stroke:#229b55;stroke-width:15;stroke-linecap:round;stroke-linejoin:round;stroke-miterlimit:4;stroke-dasharray:none;stroke-opacity:0.03"
       d="m -32.822604,-1.3290083 -62.05273,60.9257803 8.46094,2.62109 20.04687,-15.07226 33.51367,32.71875 19.93946,-8.45899 -0.0371,-64.4218703 z m -53.91015,17.7148403 -8.21289,2.77735 20.69854,20.2904 7.95703,-7.8125 z m 53.76367,5.64844 0.0684,34.4043 -23.03516,-17.13672 z"
       sodipodi:nodetypes="ccccccccccccccccc" />
    <path
       sodipodi:nodetypes="ccccccccccccccccc"
       d="m -32.822604,-1.3290083 -62.05273,60.9257803 8.46094,2.62109 20.04687,-15.07226 33.51367,32.71875 19.93946,-8.45899 -0.0371,-64.4218703 z m -53.91015,17.7148403 -8.21289,2.77735 20.69854,20.2904 7.95703,-7.8125 z m 53.76367,5.64844 0.0684,34.4043 -23.03516,-17.13672 z"
       style="fill:none;fill-opacity:1;stroke:#229b55;stroke-width:17;stroke-linecap:round;stroke-linejoin:round;stroke-miterlimit:4;stroke-dasharray:none;stroke-opacity:0.03"
       id="path1022" />
    <path
       id="path1024"
       style="fill:none;fill-opacity:1;stroke:#229b55;stroke-width:19;stroke-linecap:round;stroke-linejoin:round;stroke-miterlimit:4;stroke-dasharray:none;stroke-opacity:0.03"
       d="m -32.822604,-1.3290083 -62.05273,60.9257803 8.46094,2.62109 20.04687,-15.07226 33.51367,32.71875 19.93946,-8.45899 -0.0371,-64.4218703 z m -53.91015,17.7148403 -8.21289,2.77735 20.69854,20.2904 7.95703,-7.8125 z m 53.76367,5.64844 0.0684,34.4043 -23.03516,-17.13672 z"
       sodipodi:nodetypes="ccccccccccccccccc" />
    <path
       sodipodi:nodetypes="ccccccccccccccccc"
       d="m -32.822604,-1.3290083 -62.05273,60.9257803 8.46094,2.62109 20.04687,-15.07226 33.51367,32.71875 19.93946,-8.45899 -0.0371,-64.4218703 z m -53.91015,17.7148403 -8.21289,2.77735 20.69854,20.2904 7.95703,-7.8125 z m 53.76367,5.64844 0.0684,34.4043 -23.03516,-17.13672 z"
       style="fill:none;fill-opacity:1;stroke:#229b55;stroke-width:21;stroke-linecap:round;stroke-linejoin:round;stroke-miterlimit:4;stroke-dasharray:none;stroke-opacity:0.03"
       id="path1026" />
  </g>
  <path
     sodipodi:nodetypes="ccccccccccccccccc"
     d="m 84.22741,23.689637 -62.05273,60.92578 8.46094,2.62109 20.04687,-15.07226 33.51367,32.718753 19.93946,-8.458993 -0.0371,-64.42187 z m -53.91015,17.71484 -8.21289,2.77735 20.69854,20.2904 7.95703,-7.8125 z m 53.76367,5.64844 0.0684,34.4043 -23.03516,-17.13672 z"
     style="fill:#259e58;fill-opacity:1;stroke:none;stroke-width:1px;stroke-linecap:butt;stroke-linejoin:miter;stroke-opacity:1"
     id="path956" />
  <path
     id="path1125"
     style="opacity:0.2005525;fill:#32a168;fill-opacity:1;stroke:none;stroke-width:1px;stroke-linecap:butt;stroke-linejoin:miter;stroke-opacity:1"
     d="m 84.601291,23.867813 -62.05273,60.92578 8.46094,2.62109 20.04687,-15.07226 33.51367,32.718747 19.939459,-8.458987 -0.0371,-64.42187 z m -53.91015,17.71484 -8.21289,2.77735 20.69854,20.2904 7.95703,-7.8125 z m 53.76367,5.64844 0.0684,34.4043 -23.03516,-17.13672 z"
     sodipodi:nodetypes="ccccccccccccccccc" />
  <g
     transform="translate(232.19543,25.018645)"
     id="g972">
    <path
       style="fill:url(#linearGradient875);fill-opacity:1;stroke:none;stroke-width:1px;stroke-linecap:butt;stroke-linejoin:miter;stroke-opacity:1"
       d="m -210.0249,59.594112 8.46088,2.62223 73.46226,-55.2356003 -19.86956,-8.31126 z"
       id="path867"
       sodipodi:nodetypes="ccccc" />
    <path
       style="fill:url(#linearGradient887);fill-opacity:1;stroke:none;stroke-width:1px;stroke-linecap:butt;stroke-linejoin:miter;stroke-opacity:1"
       d="m -128.10176,6.9807417 -20.01768,15.0217203 0.116,57.86041 19.94034,-8.45922 z"
       id="path877"
       sodipodi:nodetypes="ccccc" />
    <path
       id="path891"
       style="fill:url(#linearGradient899);fill-opacity:1;stroke:none;stroke-width:1px;stroke-linecap:butt;stroke-linejoin:miter;stroke-opacity:1"
       d="m -201.88312,16.383262 -8.21289,2.77734 20.60351,20.17578 7.95704,-7.8125 z m 30.74805,22.8789 -10.42579,7.83985 33.55742,32.76086 -0.0427,-23.4243 z"
       sodipodi:nodetypes="cccccccccc" />
  </g>
</svg>
