<?xml version="1.0" encoding="UTF-8" standalone="no"?>
<svg
   width="128"
   height="128"
   viewBox="0 0 33.866666 33.866668"
   version="1.1"
   id="svg1443"
   inkscape:version="1.1.2 (0a00cf5339, 2022-02-04)"
   sodipodi:docname="vitomu.svg"
   xmlns:inkscape="http://www.inkscape.org/namespaces/inkscape"
   xmlns:sodipodi="http://sodipodi.sourceforge.net/DTD/sodipodi-0.dtd"
   xmlns:xlink="http://www.w3.org/1999/xlink"
   xmlns="http://www.w3.org/2000/svg"
   xmlns:svg="http://www.w3.org/2000/svg"
   xmlns:rdf="http://www.w3.org/1999/02/22-rdf-syntax-ns#"
   xmlns:cc="http://creativecommons.org/ns#"
   xmlns:dc="http://purl.org/dc/elements/1.1/">
  <defs
     id="defs1437">
    <linearGradient
       gradientTransform="matrix(0.97573206,0,0,0.97573206,-111.76517,-37.182508)"
       gradientUnits="userSpaceOnUse"
       y2="64.966194"
       x2="132.21078"
       y1="42.151531"
       x1="132.21078"
       id="linearGradient1632"
       inkscape:collect="always"
       xlink:href="#linearGradient1630" />
    <linearGradient
       id="linearGradient1630"
       inkscape:collect="always">
      <stop
         id="stop1626"
         offset="0"
         style="stop-color:#ff875f;stop-opacity:1" />
      <stop
         id="stop1628"
         offset="1"
         style="stop-color:#f052c9;stop-opacity:1" />
    </linearGradient>
    <radialGradient
       inkscape:collect="always"
       xlink:href="#linearGradient2050"
       id="radialGradient2270"
       cx="-571.09357"
       cy="434.78534"
       fx="-571.09357"
       fy="434.78534"
       r="229.44476"
       gradientUnits="userSpaceOnUse"
       gradientTransform="matrix(1.0612895,0,0,1.0612895,400.72106,-182.52731)" />
  </defs>
  <sodipodi:namedview
     id="base"
     pagecolor="#ffffff"
     bordercolor="#666666"
     borderopacity="1.0"
     inkscape:pageopacity="0.0"
     inkscape:pageshadow="2"
     inkscape:zoom="2.7676602"
     inkscape:cx="-3.6131603"
     inkscape:cy="146.87497"
     inkscape:document-units="mm"
     inkscape:current-layer="layer1"
     inkscape:document-rotation="0"
     showgrid="false"
     units="px"
     inkscape:window-width="1920"
     inkscape:window-height="1030"
     inkscape:window-x="0"
     inkscape:window-y="24"
     inkscape:window-maximized="1"
     inkscape:pagecheckerboard="0" />
  <metadata
     id="metadata1440">
    <rdf:RDF>
      <cc:Work
         rdf:about="">
        <dc:format>image/svg+xml</dc:format>
        <dc:type
           rdf:resource="http://purl.org/dc/dcmitype/StillImage" />
      </cc:Work>
    </rdf:RDF>
  </metadata>
  <g
     inkscape:label="Capa 1"
     inkscape:groupmode="layer"
     id="layer1">
    <g
       style="opacity:0.295"
       transform="matrix(0.97573206,0,0,0.97573206,-65.737228,-37.182508)"
       id="g1702">
      <rect
         ry="6.6098609"
         rx="6.6098609"
         y="40.709618"
         x="69.839508"
         height="29.810888"
         width="29.810888"
         id="rect1634"
         style="fill:none;fill-opacity:1;stroke:#000000;stroke-width:0.1;stroke-linecap:round;stroke-linejoin:round;stroke-miterlimit:4;stroke-dasharray:none;stroke-opacity:0.02" />
      <rect
         style="fill:none;fill-opacity:1;stroke:#000000;stroke-width:0.2;stroke-linecap:round;stroke-linejoin:round;stroke-miterlimit:4;stroke-dasharray:none;stroke-opacity:0.02"
         id="rect1638"
         width="29.810888"
         height="29.810888"
         x="69.839508"
         y="40.709618"
         rx="6.6098609"
         ry="6.6098609" />
      <rect
         ry="6.6098609"
         rx="6.6098609"
         y="40.709618"
         x="69.839508"
         height="29.810888"
         width="29.810888"
         id="rect1640"
         style="fill:none;fill-opacity:1;stroke:#000000;stroke-width:0.3;stroke-linecap:round;stroke-linejoin:round;stroke-miterlimit:4;stroke-dasharray:none;stroke-opacity:0.02" />
      <rect
         style="fill:none;fill-opacity:1;stroke:#000000;stroke-width:0.4;stroke-linecap:round;stroke-linejoin:round;stroke-miterlimit:4;stroke-dasharray:none;stroke-opacity:0.02"
         id="rect1642"
         width="29.810888"
         height="29.810888"
         x="69.839508"
         y="40.709618"
         rx="6.6098609"
         ry="6.6098609" />
      <rect
         ry="6.6098609"
         rx="6.6098609"
         y="40.709618"
         x="69.839508"
         height="29.810888"
         width="29.810888"
         id="rect1644"
         style="fill:none;fill-opacity:1;stroke:#000000;stroke-width:0.5;stroke-linecap:round;stroke-linejoin:round;stroke-miterlimit:4;stroke-dasharray:none;stroke-opacity:0.02" />
      <rect
         style="fill:none;fill-opacity:1;stroke:#000000;stroke-width:0.6;stroke-linecap:round;stroke-linejoin:round;stroke-miterlimit:4;stroke-dasharray:none;stroke-opacity:0.02"
         id="rect1646"
         width="29.810888"
         height="29.810888"
         x="69.839508"
         y="40.709618"
         rx="6.6098609"
         ry="6.6098609" />
      <rect
         ry="6.6098609"
         rx="6.6098609"
         y="40.709618"
         x="69.839508"
         height="29.810888"
         width="29.810888"
         id="rect1648"
         style="fill:none;fill-opacity:1;stroke:#000000;stroke-width:0.7;stroke-linecap:round;stroke-linejoin:round;stroke-miterlimit:4;stroke-dasharray:none;stroke-opacity:0.02" />
      <rect
         style="fill:none;fill-opacity:1;stroke:#000000;stroke-width:0.8;stroke-linecap:round;stroke-linejoin:round;stroke-miterlimit:4;stroke-dasharray:none;stroke-opacity:0.02"
         id="rect1650"
         width="29.810888"
         height="29.810888"
         x="69.839508"
         y="40.709618"
         rx="6.6098609"
         ry="6.6098609" />
      <rect
         ry="6.6098609"
         rx="6.6098609"
         y="40.709618"
         x="69.839508"
         height="29.810888"
         width="29.810888"
         id="rect1652"
         style="fill:none;fill-opacity:1;stroke:#000000;stroke-width:1;stroke-linecap:round;stroke-linejoin:round;stroke-miterlimit:4;stroke-dasharray:none;stroke-opacity:0.02" />
      <rect
         style="fill:none;fill-opacity:1;stroke:#000000;stroke-width:1.2;stroke-linecap:round;stroke-linejoin:round;stroke-miterlimit:4;stroke-dasharray:none;stroke-opacity:0.02"
         id="rect1654"
         width="29.810888"
         height="29.810888"
         x="69.839508"
         y="40.709618"
         rx="6.6098609"
         ry="6.6098609" />
      <rect
         ry="6.6098609"
         rx="6.6098609"
         y="40.709618"
         x="69.839508"
         height="29.810888"
         width="29.810888"
         id="rect1656"
         style="fill:none;fill-opacity:1;stroke:#000000;stroke-width:1.4;stroke-linecap:round;stroke-linejoin:round;stroke-miterlimit:4;stroke-dasharray:none;stroke-opacity:0.02" />
      <rect
         style="fill:none;fill-opacity:1;stroke:#000000;stroke-width:1.6;stroke-linecap:round;stroke-linejoin:round;stroke-miterlimit:4;stroke-dasharray:none;stroke-opacity:0.02"
         id="rect1658"
         width="29.810888"
         height="29.810888"
         x="69.839508"
         y="40.709618"
         rx="6.6098609"
         ry="6.6098609" />
      <rect
         ry="6.6098609"
         rx="6.6098609"
         y="40.709618"
         x="69.839508"
         height="29.810888"
         width="29.810888"
         id="rect1660"
         style="fill:none;fill-opacity:1;stroke:#000000;stroke-width:1.8;stroke-linecap:round;stroke-linejoin:round;stroke-miterlimit:4;stroke-dasharray:none;stroke-opacity:0.02" />
      <rect
         style="fill:none;fill-opacity:1;stroke:#000000;stroke-width:2;stroke-linecap:round;stroke-linejoin:round;stroke-miterlimit:4;stroke-dasharray:none;stroke-opacity:0.02"
         id="rect1662"
         width="29.810888"
         height="29.810888"
         x="69.839508"
         y="40.709618"
         rx="6.6098609"
         ry="6.6098609" />
      <rect
         ry="6.6098609"
         rx="6.6098609"
         y="40.709618"
         x="69.839508"
         height="29.810888"
         width="29.810888"
         id="rect1664"
         style="fill:none;fill-opacity:1;stroke:#000000;stroke-width:2.2;stroke-linecap:round;stroke-linejoin:round;stroke-miterlimit:4;stroke-dasharray:none;stroke-opacity:0.02" />
      <rect
         style="fill:none;fill-opacity:1;stroke:#000000;stroke-width:2.6;stroke-linecap:round;stroke-linejoin:round;stroke-miterlimit:4;stroke-dasharray:none;stroke-opacity:0.02"
         id="rect1666"
         width="29.810888"
         height="29.810888"
         x="69.839508"
         y="40.709618"
         rx="6.6098609"
         ry="6.6098609" />
      <rect
         ry="6.6098609"
         rx="6.6098609"
         y="40.709618"
         x="69.839508"
         height="29.810888"
         width="29.810888"
         id="rect1668"
         style="fill:none;fill-opacity:1;stroke:#000000;stroke-width:3;stroke-linecap:round;stroke-linejoin:round;stroke-miterlimit:4;stroke-dasharray:none;stroke-opacity:0.02" />
      <rect
         style="fill:none;fill-opacity:1;stroke:#000000;stroke-width:3.4;stroke-linecap:round;stroke-linejoin:round;stroke-miterlimit:4;stroke-dasharray:none;stroke-opacity:0.02"
         id="rect1670"
         width="29.810888"
         height="29.810888"
         x="69.839508"
         y="40.709618"
         rx="6.6098609"
         ry="6.6098609" />
      <rect
         ry="6.6098609"
         rx="6.6098609"
         y="40.709618"
         x="69.839508"
         height="29.810888"
         width="29.810888"
         id="rect1672"
         style="fill:none;fill-opacity:1;stroke:#000000;stroke-width:3.8;stroke-linecap:round;stroke-linejoin:round;stroke-miterlimit:4;stroke-dasharray:none;stroke-opacity:0.02" />
      <rect
         style="fill:none;fill-opacity:1;stroke:#000000;stroke-width:4.2;stroke-linecap:round;stroke-linejoin:round;stroke-miterlimit:4;stroke-dasharray:none;stroke-opacity:0.02"
         id="rect1674"
         width="29.810888"
         height="29.810888"
         x="69.839508"
         y="40.709618"
         rx="6.6098609"
         ry="6.6098609" />
      <rect
         ry="6.6098609"
         rx="6.6098609"
         y="40.709618"
         x="69.839508"
         height="29.810888"
         width="29.810888"
         id="rect1676"
         style="fill:none;fill-opacity:1;stroke:#000000;stroke-width:4.6;stroke-linecap:round;stroke-linejoin:round;stroke-miterlimit:4;stroke-dasharray:none;stroke-opacity:0.02" />
      <rect
         style="fill:none;fill-opacity:1;stroke:#000000;stroke-width:5;stroke-linecap:round;stroke-linejoin:round;stroke-miterlimit:4;stroke-dasharray:none;stroke-opacity:0.02"
         id="rect1678"
         width="29.810888"
         height="29.810888"
         x="69.839508"
         y="40.709618"
         rx="6.6098609"
         ry="6.6098609" />
    </g>
    <rect
       ry="6.4494534"
       rx="6.4494534"
       y="2.5391712"
       x="2.4074187"
       height="29.087439"
       width="29.087439"
       id="rect849"
       style="fill:url(#linearGradient1632);fill-opacity:1;stroke-width:2.68768;stroke-linecap:round;stroke-linejoin:round" />
    <g
       id="g1246"
       style="fill:#2d0000;fill-opacity:0.03242815">
      <path
         style="fill:#2d0000;fill-opacity:0.03242815;stroke-width:0.536954"
         d="m 17.263171,5.9673547 v 2.684771 c 0,0 -8.5912679,0.3221725 -8.5912679,8.5912683 0,2.147816 1.0739095,3.758678 1.0739095,3.758678 v -3.758678 c 0,-3.758681 4.5104154,-5.906497 7.5173584,-5.906497 h 5.369542 z m 7.517358,7.5173583 v 3.758681 c 0,3.758678 -4.510416,5.906495 -7.517358,5.906495 h -5.369543 l 5.369543,5.369541 v -2.68477 c 0,0 8.591267,-0.322172 8.591267,-8.591266 0,-2.147819 -1.073909,-3.758681 -1.073909,-3.758681 z m -9.12822,0.536956 v 6.44345 l 4.832587,-3.221725 z"
         id="path1138" />
      <path
         style="fill:#2d0000;fill-opacity:0.03242815;stroke-width:0.536954"
         d="m 17.334101,6.1908714 v 2.684771 c 0,0 -8.5912676,0.3221725 -8.5912676,8.5912686 0,2.147816 1.0739095,3.758678 1.0739095,3.758678 v -3.758678 c 0,-3.758681 4.5104151,-5.906497 7.5173581,-5.906497 h 5.369542 z m 7.517358,7.5173586 v 3.758681 c 0,3.758678 -4.510416,5.906495 -7.517358,5.906495 h -5.369543 l 5.369543,5.369541 v -2.68477 c 0,0 8.591267,-0.322172 8.591267,-8.591266 0,-2.147819 -1.073909,-3.758681 -1.073909,-3.758681 z m -9.12822,0.536956 v 6.44345 l 4.832587,-3.221725 z"
         id="path1230" />
      <path
         style="fill:#2d0000;fill-opacity:0.03242815;stroke-width:0.536954"
         d="m 17.36995,6.4365976 v 2.684771 c 0,0 -8.5912673,0.3221725 -8.5912673,8.5912684 0,2.147816 1.0739095,3.758678 1.0739095,3.758678 v -3.758678 c 0,-3.758681 4.5104148,-5.906497 7.5173578,-5.906497 h 5.369542 z m 7.517358,7.5173584 v 3.758681 c 0,3.758678 -4.510416,5.906495 -7.517358,5.906495 h -5.369543 l 5.369543,5.369541 v -2.68477 c 0,0 8.591267,-0.322172 8.591267,-8.591266 0,-2.147819 -1.073909,-3.758681 -1.073909,-3.758681 z m -9.12822,0.536956 v 6.44345 l 4.832587,-3.221725 z"
         id="path1232" />
      <path
         style="fill:#2d0000;fill-opacity:0.03242815;stroke-width:0.536954"
         d="m 17.400424,6.6039056 v 2.684771 c 0,0 -8.5912677,0.3221725 -8.5912677,8.5912684 0,2.147816 1.0739095,3.758678 1.0739095,3.758678 v -3.758678 c 0,-3.758681 4.5104152,-5.906497 7.5173582,-5.906497 h 5.369542 z m 7.517358,7.5173584 v 3.758681 c 0,3.758678 -4.510416,5.906495 -7.517358,5.906495 h -5.369543 l 5.369543,5.369541 v -2.68477 c 0,0 8.591267,-0.322172 8.591267,-8.591266 0,-2.147819 -1.073909,-3.758681 -1.073909,-3.758681 z m -9.12822,0.536956 v 6.44345 l 4.832587,-3.221725 z"
         id="path1234" />
      <path
         style="fill:#2d0000;fill-opacity:0.03242815;stroke-width:0.536954"
         d="m 17.400424,6.7823352 v 2.684771 c 0,0 -8.5912677,0.3221725 -8.5912677,8.5912688 0,2.147816 1.0739095,3.758678 1.0739095,3.758678 v -3.758678 c 0,-3.758681 4.5104152,-5.906497 7.5173582,-5.906497 h 5.369542 z m 7.517358,7.5173588 v 3.758681 c 0,3.758678 -4.510416,5.906495 -7.517358,5.906495 h -5.369543 l 5.369543,5.369541 v -2.68477 c 0,0 8.591267,-0.322172 8.591267,-8.591266 0,-2.147819 -1.073909,-3.758681 -1.073909,-3.758681 z m -9.12822,0.536956 v 6.44345 l 4.832587,-3.221725 z"
         id="path1236" />
      <path
         style="fill:#2d0000;fill-opacity:0.03242815;stroke-width:0.536954"
         d="m 17.449769,6.917195 v 2.684771 c 0,0 -8.5912674,0.3221725 -8.5912674,8.591269 0,2.147816 1.0739095,3.758678 1.0739095,3.758678 v -3.758678 c 0,-3.758681 4.5104149,-5.906497 7.5173579,-5.906497 h 5.369542 z m 7.517358,7.517359 v 3.758681 c 0,3.758678 -4.510416,5.906495 -7.517358,5.906495 h -5.369543 l 5.369543,5.369541 v -2.68477 c 0,0 8.591267,-0.322172 8.591267,-8.591266 0,-2.147819 -1.073909,-3.758681 -1.073909,-3.758681 z m -9.12822,0.536956 v 6.44345 l 4.832587,-3.221725 z"
         id="path1238" />
    </g>
    <path
       style="fill:#f9f9f9;stroke-width:0.536954"
       d="m 16.951138,5.8068529 v 2.684771 c 0,0 -8.5912673,0.3221725 -8.5912673,8.5912681 0,2.147816 1.073909,3.758678 1.073909,3.758678 v -3.758678 c 0,-3.758681 4.5104153,-5.906497 7.5173583,-5.906497 h 5.369542 z m 7.517358,7.5173581 v 3.758681 c 0,3.758678 -4.510416,5.906495 -7.517358,5.906495 h -5.369543 l 5.369543,5.369541 v -2.68477 c 0,0 8.591267,-0.322172 8.591267,-8.591266 0,-2.147819 -1.073909,-3.758681 -1.073909,-3.758681 z m -9.12822,0.536956 v 6.44345 l 4.832587,-3.221725 z"
       id="path10" />
  </g>
</svg>
