<?xml version="1.0" encoding="UTF-8" standalone="no"?>
<svg
   xmlns:dc="http://purl.org/dc/elements/1.1/"
   xmlns:cc="http://creativecommons.org/ns#"
   xmlns:rdf="http://www.w3.org/1999/02/22-rdf-syntax-ns#"
   xmlns:svg="http://www.w3.org/2000/svg"
   xmlns="http://www.w3.org/2000/svg"
   xmlns:xlink="http://www.w3.org/1999/xlink"
   xmlns:sodipodi="http://sodipodi.sourceforge.net/DTD/sodipodi-0.dtd"
   xmlns:inkscape="http://www.inkscape.org/namespaces/inkscape"
   width="128"
   height="128"
   viewBox="0 0 33.866666 33.866668"
   version="1.1"
   id="svg1530"
   inkscape:version="1.0.1 (3bc2e813f5, 2020-09-07)"
   sodipodi:docname="vmware-player.svg">
  <defs
     id="defs1524">
    <linearGradient
       gradientUnits="userSpaceOnUse"
       y2="4.0044317"
       x2="17.821186"
       y1="29.110353"
       x1="17.821186"
       id="linearGradient4677"
       xlink:href="#linearGradient4675"
       inkscape:collect="always"
       gradientTransform="translate(-0.04231573,-0.05128597)" />
    <linearGradient
       id="linearGradient4675"
       inkscape:collect="always">
      <stop
         id="stop4671"
         offset="0"
         style="stop-color:#fdc12b;stop-opacity:1" />
      <stop
         id="stop4673"
         offset="1"
         style="stop-color:#f8dc5a;stop-opacity:1" />
    </linearGradient>
    <linearGradient
       inkscape:collect="always"
       xlink:href="#linearGradient1546"
       id="linearGradient1548"
       x1="20.56846"
       y1="12.47097"
       x2="20.697449"
       y2="26.161633"
       gradientUnits="userSpaceOnUse"
       gradientTransform="translate(-0.04231573,-0.05128597)" />
    <linearGradient
       inkscape:collect="always"
       id="linearGradient1546">
      <stop
         style="stop-color:#ffffff;stop-opacity:1"
         offset="0"
         id="stop1542" />
      <stop
         style="stop-color:#fef4d6;stop-opacity:1"
         offset="1"
         id="stop1544" />
    </linearGradient>
  </defs>
  <sodipodi:namedview
     id="base"
     pagecolor="#ffffff"
     bordercolor="#666666"
     borderopacity="1.0"
     inkscape:pageopacity="0.0"
     inkscape:pageshadow="2"
     inkscape:zoom="2.8"
     inkscape:cx="93.196557"
     inkscape:cy="93.289373"
     inkscape:document-units="mm"
     inkscape:current-layer="layer1"
     inkscape:document-rotation="0"
     showgrid="false"
     units="px"
     inkscape:window-width="1514"
     inkscape:window-height="941"
     inkscape:window-x="50"
     inkscape:window-y="27"
     inkscape:window-maximized="0" />
  <metadata
     id="metadata1527">
    <rdf:RDF>
      <cc:Work
         rdf:about="">
        <dc:format>image/svg+xml</dc:format>
        <dc:type
           rdf:resource="http://purl.org/dc/dcmitype/StillImage" />
        <dc:title></dc:title>
      </cc:Work>
    </rdf:RDF>
  </metadata>
  <g
     inkscape:label="Capa 1"
     inkscape:groupmode="layer"
     id="layer1">
    <g
       id="g1702"
       transform="matrix(0.97573206,0,0,0.97573206,-65.790701,-37.254379)"
       style="opacity:0.295">
      <rect
         style="fill:none;fill-opacity:1;stroke:#000000;stroke-width:0.1;stroke-linecap:round;stroke-linejoin:round;stroke-miterlimit:4;stroke-dasharray:none;stroke-opacity:0.02"
         id="rect1634"
         width="29.810888"
         height="29.810888"
         x="69.839508"
         y="40.709618"
         rx="6.6098609"
         ry="6.6098609" />
      <rect
         ry="6.6098609"
         rx="6.6098609"
         y="40.709618"
         x="69.839508"
         height="29.810888"
         width="29.810888"
         id="rect1638"
         style="fill:none;fill-opacity:1;stroke:#000000;stroke-width:0.2;stroke-linecap:round;stroke-linejoin:round;stroke-miterlimit:4;stroke-dasharray:none;stroke-opacity:0.02" />
      <rect
         style="fill:none;fill-opacity:1;stroke:#000000;stroke-width:0.3;stroke-linecap:round;stroke-linejoin:round;stroke-miterlimit:4;stroke-dasharray:none;stroke-opacity:0.02"
         id="rect1640"
         width="29.810888"
         height="29.810888"
         x="69.839508"
         y="40.709618"
         rx="6.6098609"
         ry="6.6098609" />
      <rect
         ry="6.6098609"
         rx="6.6098609"
         y="40.709618"
         x="69.839508"
         height="29.810888"
         width="29.810888"
         id="rect1642"
         style="fill:none;fill-opacity:1;stroke:#000000;stroke-width:0.4;stroke-linecap:round;stroke-linejoin:round;stroke-miterlimit:4;stroke-dasharray:none;stroke-opacity:0.02" />
      <rect
         style="fill:none;fill-opacity:1;stroke:#000000;stroke-width:0.5;stroke-linecap:round;stroke-linejoin:round;stroke-miterlimit:4;stroke-dasharray:none;stroke-opacity:0.02"
         id="rect1644"
         width="29.810888"
         height="29.810888"
         x="69.839508"
         y="40.709618"
         rx="6.6098609"
         ry="6.6098609" />
      <rect
         ry="6.6098609"
         rx="6.6098609"
         y="40.709618"
         x="69.839508"
         height="29.810888"
         width="29.810888"
         id="rect1646"
         style="fill:none;fill-opacity:1;stroke:#000000;stroke-width:0.6;stroke-linecap:round;stroke-linejoin:round;stroke-miterlimit:4;stroke-dasharray:none;stroke-opacity:0.02" />
      <rect
         style="fill:none;fill-opacity:1;stroke:#000000;stroke-width:0.7;stroke-linecap:round;stroke-linejoin:round;stroke-miterlimit:4;stroke-dasharray:none;stroke-opacity:0.02"
         id="rect1648"
         width="29.810888"
         height="29.810888"
         x="69.839508"
         y="40.709618"
         rx="6.6098609"
         ry="6.6098609" />
      <rect
         ry="6.6098609"
         rx="6.6098609"
         y="40.709618"
         x="69.839508"
         height="29.810888"
         width="29.810888"
         id="rect1650"
         style="fill:none;fill-opacity:1;stroke:#000000;stroke-width:0.8;stroke-linecap:round;stroke-linejoin:round;stroke-miterlimit:4;stroke-dasharray:none;stroke-opacity:0.02" />
      <rect
         style="fill:none;fill-opacity:1;stroke:#000000;stroke-width:1;stroke-linecap:round;stroke-linejoin:round;stroke-miterlimit:4;stroke-dasharray:none;stroke-opacity:0.02"
         id="rect1652"
         width="29.810888"
         height="29.810888"
         x="69.839508"
         y="40.709618"
         rx="6.6098609"
         ry="6.6098609" />
      <rect
         ry="6.6098609"
         rx="6.6098609"
         y="40.709618"
         x="69.839508"
         height="29.810888"
         width="29.810888"
         id="rect1654"
         style="fill:none;fill-opacity:1;stroke:#000000;stroke-width:1.2;stroke-linecap:round;stroke-linejoin:round;stroke-miterlimit:4;stroke-dasharray:none;stroke-opacity:0.02" />
      <rect
         style="fill:none;fill-opacity:1;stroke:#000000;stroke-width:1.4;stroke-linecap:round;stroke-linejoin:round;stroke-miterlimit:4;stroke-dasharray:none;stroke-opacity:0.02"
         id="rect1656"
         width="29.810888"
         height="29.810888"
         x="69.839508"
         y="40.709618"
         rx="6.6098609"
         ry="6.6098609" />
      <rect
         ry="6.6098609"
         rx="6.6098609"
         y="40.709618"
         x="69.839508"
         height="29.810888"
         width="29.810888"
         id="rect1658"
         style="fill:none;fill-opacity:1;stroke:#000000;stroke-width:1.6;stroke-linecap:round;stroke-linejoin:round;stroke-miterlimit:4;stroke-dasharray:none;stroke-opacity:0.02" />
      <rect
         style="fill:none;fill-opacity:1;stroke:#000000;stroke-width:1.8;stroke-linecap:round;stroke-linejoin:round;stroke-miterlimit:4;stroke-dasharray:none;stroke-opacity:0.02"
         id="rect1660"
         width="29.810888"
         height="29.810888"
         x="69.839508"
         y="40.709618"
         rx="6.6098609"
         ry="6.6098609" />
      <rect
         ry="6.6098609"
         rx="6.6098609"
         y="40.709618"
         x="69.839508"
         height="29.810888"
         width="29.810888"
         id="rect1662"
         style="fill:none;fill-opacity:1;stroke:#000000;stroke-width:2;stroke-linecap:round;stroke-linejoin:round;stroke-miterlimit:4;stroke-dasharray:none;stroke-opacity:0.02" />
      <rect
         style="fill:none;fill-opacity:1;stroke:#000000;stroke-width:2.2;stroke-linecap:round;stroke-linejoin:round;stroke-miterlimit:4;stroke-dasharray:none;stroke-opacity:0.02"
         id="rect1664"
         width="29.810888"
         height="29.810888"
         x="69.839508"
         y="40.709618"
         rx="6.6098609"
         ry="6.6098609" />
      <rect
         ry="6.6098609"
         rx="6.6098609"
         y="40.709618"
         x="69.839508"
         height="29.810888"
         width="29.810888"
         id="rect1666"
         style="fill:none;fill-opacity:1;stroke:#000000;stroke-width:2.6;stroke-linecap:round;stroke-linejoin:round;stroke-miterlimit:4;stroke-dasharray:none;stroke-opacity:0.02" />
      <rect
         style="fill:none;fill-opacity:1;stroke:#000000;stroke-width:3;stroke-linecap:round;stroke-linejoin:round;stroke-miterlimit:4;stroke-dasharray:none;stroke-opacity:0.02"
         id="rect1668"
         width="29.810888"
         height="29.810888"
         x="69.839508"
         y="40.709618"
         rx="6.6098609"
         ry="6.6098609" />
      <rect
         ry="6.6098609"
         rx="6.6098609"
         y="40.709618"
         x="69.839508"
         height="29.810888"
         width="29.810888"
         id="rect1670"
         style="fill:none;fill-opacity:1;stroke:#000000;stroke-width:3.4;stroke-linecap:round;stroke-linejoin:round;stroke-miterlimit:4;stroke-dasharray:none;stroke-opacity:0.02" />
      <rect
         style="fill:none;fill-opacity:1;stroke:#000000;stroke-width:3.8;stroke-linecap:round;stroke-linejoin:round;stroke-miterlimit:4;stroke-dasharray:none;stroke-opacity:0.02"
         id="rect1672"
         width="29.810888"
         height="29.810888"
         x="69.839508"
         y="40.709618"
         rx="6.6098609"
         ry="6.6098609" />
      <rect
         ry="6.6098609"
         rx="6.6098609"
         y="40.709618"
         x="69.839508"
         height="29.810888"
         width="29.810888"
         id="rect1674"
         style="fill:none;fill-opacity:1;stroke:#000000;stroke-width:4.2;stroke-linecap:round;stroke-linejoin:round;stroke-miterlimit:4;stroke-dasharray:none;stroke-opacity:0.02" />
      <rect
         style="fill:none;fill-opacity:1;stroke:#000000;stroke-width:4.6;stroke-linecap:round;stroke-linejoin:round;stroke-miterlimit:4;stroke-dasharray:none;stroke-opacity:0.02"
         id="rect1676"
         width="29.810888"
         height="29.810888"
         x="69.839508"
         y="40.709618"
         rx="6.6098609"
         ry="6.6098609" />
      <rect
         ry="6.6098609"
         rx="6.6098609"
         y="40.709618"
         x="69.839508"
         height="29.810888"
         width="29.810888"
         id="rect1678"
         style="fill:none;fill-opacity:1;stroke:#000000;stroke-width:5;stroke-linecap:round;stroke-linejoin:round;stroke-miterlimit:4;stroke-dasharray:none;stroke-opacity:0.02" />
    </g>
    <rect
       style="fill:url(#linearGradient4677);fill-opacity:1;stroke-width:2.68801;stroke-linecap:round;stroke-linejoin:round;stroke-miterlimit:4;stroke-dasharray:none"
       id="rect849"
       width="29.08744"
       height="29.08744"
       x="2.3539484"
       y="2.4672992"
       rx="6.4494534"
       ry="6.4494534" />
    <g
       id="g1581"
       style="opacity:0.223311"
       transform="translate(-0.04231573,-0.05128607)">
      <g
         id="g1554"
         style="opacity:1;fill:#000000;fill-opacity:0.128678;stroke:none;stroke-opacity:1"
         transform="translate(0.13541281,-0.35519282)">
        <path
           id="path1556"
           style="color:#000000;font-style:normal;font-variant:normal;font-weight:normal;font-stretch:normal;font-size:medium;line-height:normal;font-family:sans-serif;font-variant-ligatures:normal;font-variant-position:normal;font-variant-caps:normal;font-variant-numeric:normal;font-variant-alternates:normal;font-variant-east-asian:normal;font-feature-settings:normal;font-variation-settings:normal;text-indent:0;text-align:start;text-decoration:none;text-decoration-line:none;text-decoration-style:solid;text-decoration-color:#000000;letter-spacing:normal;word-spacing:normal;text-transform:none;writing-mode:lr-tb;direction:ltr;text-orientation:mixed;dominant-baseline:auto;baseline-shift:baseline;text-anchor:start;white-space:normal;shape-padding:0;shape-margin:0;inline-size:0;clip-rule:nonzero;display:inline;overflow:visible;visibility:visible;isolation:auto;mix-blend-mode:normal;color-interpolation:sRGB;color-interpolation-filters:linearRGB;solid-color:#000000;solid-opacity:1;vector-effect:none;fill:#000000;fill-opacity:0.128678;fill-rule:nonzero;stroke:none;stroke-width:1.89732;stroke-linecap:round;stroke-linejoin:round;stroke-miterlimit:4;stroke-dasharray:none;stroke-dashoffset:0;stroke-opacity:1;color-rendering:auto;image-rendering:auto;shape-rendering:auto;text-rendering:auto;enable-background:accumulate;stop-color:#000000;stop-opacity:1"
           d="m 31.011719,27.910156 c -3.510348,0 -6.371094,2.852814 -6.371094,6.363282 v 23.43164 c 0,3.567315 3.155129,6.228516 6.636719,6.228516 3.481471,0 6.636718,-2.661084 6.636718,-6.228516 v -7.996094 l 5.691407,6.097657 v 7.175781 a 0.94875625,0.94875625 0 0 0 0.943359,0.951172 h 10.837891 a 0.94875625,0.94875625 0 0 0 0.945312,-0.951172 v -1.625 c 0,-0.992137 0.771527,-1.75586 1.763672,-1.75586 h 1.623047 a 0.94875625,0.94875625 0 0 0 0.945312,-0.953124 V 47.8125 A 0.94875625,0.94875625 0 0 0 59.71875,46.867188 h -7.173828 l -6.089844,-5.683594 h 7.986328 c 3.567319,0 6.222656,-3.155116 6.222656,-6.636719 0,-3.481474 -2.655224,-6.636719 -6.222656,-6.636719 z m 41.574219,0 c -3.567432,0 -6.230469,3.155246 -6.230469,6.636719 0,3.481603 2.663158,6.636719 6.230469,6.636719 h 7.980468 l -6.089844,5.683594 H 67.300781 A 0.94875625,0.94875625 0 0 0 66.355469,47.8125 v 10.835938 a 0.94875625,0.94875625 0 0 0 0.945312,0.953124 h 1.623047 c 0.992137,0 1.765625,0.763726 1.765625,1.75586 v 1.625 a 0.94875625,0.94875625 0 0 0 0.945313,0.951172 h 10.835937 a 0.94875625,0.94875625 0 0 0 0.945313,-0.951172 v -7.175781 l 5.691406,-6.097657 v 7.996094 c 0,3.567432 3.153295,6.228516 6.634766,6.228516 3.481591,0 6.636722,-2.661201 6.636722,-6.228516 v -23.43164 c 0,-3.510468 -2.852939,-6.363282 -6.363285,-6.363282 z m -28.03711,41.708985 a 0.94875625,0.94875625 0 0 0 -0.943359,0.951171 v 9.744141 c 0,3.51171 2.851567,6.371094 6.363281,6.371094 h 9.75 a 0.94875625,0.94875625 0 0 0 0.945312,-0.953125 V 74.904297 A 0.94875625,0.94875625 0 0 0 59.71875,73.951172 h -1.623047 c -0.992149,0 -1.763672,-0.763711 -1.763672,-1.75586 v -1.625 a 0.94875625,0.94875625 0 0 0 -0.945312,-0.951171 z m 27.085938,0 a 0.94875625,0.94875625 0 0 0 -0.945313,0.951171 v 1.625 c 0,0.992145 -0.773488,1.75586 -1.765625,1.75586 h -1.623047 a 0.94875625,0.94875625 0 0 0 -0.945312,0.953125 v 10.828125 a 0.94875625,0.94875625 0 0 0 0.945312,0.953125 h 7.175781 l 6.089844,5.683594 h -7.980468 c -3.567315,0 -6.230469,3.155127 -6.230469,6.636718 0,3.481471 2.663037,6.636721 6.230469,6.636721 h 23.429687 c 3.510346,0 6.363285,-2.85282 6.363285,-6.363283 V 75.849609 c 0,-3.567314 -3.155131,-6.230468 -6.636722,-6.230468 -3.481471,0 -6.634766,2.66304 -6.634766,6.230468 v 7.986329 l -5.691406,-6.089844 v -7.175782 a 0.94875625,0.94875625 0 0 0 -0.945313,-0.951171 z"
           transform="scale(0.26458333)" />
      </g>
      <g
         id="g1563"
         style="opacity:1;fill:#000000;fill-opacity:0.128678;stroke:none;stroke-opacity:1"
         transform="translate(0.08965524,0.02805771)">
        <path
           id="path1561"
           style="color:#000000;font-style:normal;font-variant:normal;font-weight:normal;font-stretch:normal;font-size:medium;line-height:normal;font-family:sans-serif;font-variant-ligatures:normal;font-variant-position:normal;font-variant-caps:normal;font-variant-numeric:normal;font-variant-alternates:normal;font-variant-east-asian:normal;font-feature-settings:normal;font-variation-settings:normal;text-indent:0;text-align:start;text-decoration:none;text-decoration-line:none;text-decoration-style:solid;text-decoration-color:#000000;letter-spacing:normal;word-spacing:normal;text-transform:none;writing-mode:lr-tb;direction:ltr;text-orientation:mixed;dominant-baseline:auto;baseline-shift:baseline;text-anchor:start;white-space:normal;shape-padding:0;shape-margin:0;inline-size:0;clip-rule:nonzero;display:inline;overflow:visible;visibility:visible;isolation:auto;mix-blend-mode:normal;color-interpolation:sRGB;color-interpolation-filters:linearRGB;solid-color:#000000;solid-opacity:1;vector-effect:none;fill:#000000;fill-opacity:0.128678;fill-rule:nonzero;stroke:none;stroke-width:1.89732;stroke-linecap:round;stroke-linejoin:round;stroke-miterlimit:4;stroke-dasharray:none;stroke-dashoffset:0;stroke-opacity:1;color-rendering:auto;image-rendering:auto;shape-rendering:auto;text-rendering:auto;enable-background:accumulate;stop-color:#000000;stop-opacity:1"
           d="m 31.011719,27.910156 c -3.510348,0 -6.371094,2.852814 -6.371094,6.363282 v 23.43164 c 0,3.567315 3.155129,6.228516 6.636719,6.228516 3.481471,0 6.636718,-2.661084 6.636718,-6.228516 v -7.996094 l 5.691407,6.097657 v 7.175781 a 0.94875625,0.94875625 0 0 0 0.943359,0.951172 h 10.837891 a 0.94875625,0.94875625 0 0 0 0.945312,-0.951172 v -1.625 c 0,-0.992137 0.771527,-1.75586 1.763672,-1.75586 h 1.623047 a 0.94875625,0.94875625 0 0 0 0.945312,-0.953124 V 47.8125 A 0.94875625,0.94875625 0 0 0 59.71875,46.867188 h -7.173828 l -6.089844,-5.683594 h 7.986328 c 3.567319,0 6.222656,-3.155116 6.222656,-6.636719 0,-3.481474 -2.655224,-6.636719 -6.222656,-6.636719 z m 41.574219,0 c -3.567432,0 -6.230469,3.155246 -6.230469,6.636719 0,3.481603 2.663158,6.636719 6.230469,6.636719 h 7.980468 l -6.089844,5.683594 H 67.300781 A 0.94875625,0.94875625 0 0 0 66.355469,47.8125 v 10.835938 a 0.94875625,0.94875625 0 0 0 0.945312,0.953124 h 1.623047 c 0.992137,0 1.765625,0.763726 1.765625,1.75586 v 1.625 a 0.94875625,0.94875625 0 0 0 0.945313,0.951172 h 10.835937 a 0.94875625,0.94875625 0 0 0 0.945313,-0.951172 v -7.175781 l 5.691406,-6.097657 v 7.996094 c 0,3.567432 3.153295,6.228516 6.634766,6.228516 3.481591,0 6.636722,-2.661201 6.636722,-6.228516 v -23.43164 c 0,-3.510468 -2.852939,-6.363282 -6.363285,-6.363282 z m -28.03711,41.708985 a 0.94875625,0.94875625 0 0 0 -0.943359,0.951171 v 9.744141 c 0,3.51171 2.851567,6.371094 6.363281,6.371094 h 9.75 a 0.94875625,0.94875625 0 0 0 0.945312,-0.953125 V 74.904297 A 0.94875625,0.94875625 0 0 0 59.71875,73.951172 h -1.623047 c -0.992149,0 -1.763672,-0.763711 -1.763672,-1.75586 v -1.625 a 0.94875625,0.94875625 0 0 0 -0.945312,-0.951171 z m 27.085938,0 a 0.94875625,0.94875625 0 0 0 -0.945313,0.951171 v 1.625 c 0,0.992145 -0.773488,1.75586 -1.765625,1.75586 h -1.623047 a 0.94875625,0.94875625 0 0 0 -0.945312,0.953125 v 10.828125 a 0.94875625,0.94875625 0 0 0 0.945312,0.953125 h 7.175781 l 6.089844,5.683594 h -7.980468 c -3.567315,0 -6.230469,3.155127 -6.230469,6.636718 0,3.481471 2.663037,6.636721 6.230469,6.636721 h 23.429687 c 3.510346,0 6.363285,-2.85282 6.363285,-6.363283 V 75.849609 c 0,-3.567314 -3.155131,-6.230468 -6.636722,-6.230468 -3.481471,0 -6.634766,2.66304 -6.634766,6.230468 v 7.986329 l -5.691406,-6.089844 v -7.175782 a 0.94875625,0.94875625 0 0 0 -0.945313,-0.951171 z"
           transform="scale(0.26458333)" />
      </g>
      <g
         id="g1567"
         style="opacity:1;fill:#000000;fill-opacity:0.128678;stroke:none;stroke-opacity:1"
         transform="translate(0.08771449,0.45416298)">
        <path
           id="path1565"
           style="color:#000000;font-style:normal;font-variant:normal;font-weight:normal;font-stretch:normal;font-size:medium;line-height:normal;font-family:sans-serif;font-variant-ligatures:normal;font-variant-position:normal;font-variant-caps:normal;font-variant-numeric:normal;font-variant-alternates:normal;font-variant-east-asian:normal;font-feature-settings:normal;font-variation-settings:normal;text-indent:0;text-align:start;text-decoration:none;text-decoration-line:none;text-decoration-style:solid;text-decoration-color:#000000;letter-spacing:normal;word-spacing:normal;text-transform:none;writing-mode:lr-tb;direction:ltr;text-orientation:mixed;dominant-baseline:auto;baseline-shift:baseline;text-anchor:start;white-space:normal;shape-padding:0;shape-margin:0;inline-size:0;clip-rule:nonzero;display:inline;overflow:visible;visibility:visible;isolation:auto;mix-blend-mode:normal;color-interpolation:sRGB;color-interpolation-filters:linearRGB;solid-color:#000000;solid-opacity:1;vector-effect:none;fill:#000000;fill-opacity:0.128678;fill-rule:nonzero;stroke:none;stroke-width:1.89732;stroke-linecap:round;stroke-linejoin:round;stroke-miterlimit:4;stroke-dasharray:none;stroke-dashoffset:0;stroke-opacity:1;color-rendering:auto;image-rendering:auto;shape-rendering:auto;text-rendering:auto;enable-background:accumulate;stop-color:#000000;stop-opacity:1"
           d="m 31.011719,27.910156 c -3.510348,0 -6.371094,2.852814 -6.371094,6.363282 v 23.43164 c 0,3.567315 3.155129,6.228516 6.636719,6.228516 3.481471,0 6.636718,-2.661084 6.636718,-6.228516 v -7.996094 l 5.691407,6.097657 v 7.175781 a 0.94875625,0.94875625 0 0 0 0.943359,0.951172 h 10.837891 a 0.94875625,0.94875625 0 0 0 0.945312,-0.951172 v -1.625 c 0,-0.992137 0.771527,-1.75586 1.763672,-1.75586 h 1.623047 a 0.94875625,0.94875625 0 0 0 0.945312,-0.953124 V 47.8125 A 0.94875625,0.94875625 0 0 0 59.71875,46.867188 h -7.173828 l -6.089844,-5.683594 h 7.986328 c 3.567319,0 6.222656,-3.155116 6.222656,-6.636719 0,-3.481474 -2.655224,-6.636719 -6.222656,-6.636719 z m 41.574219,0 c -3.567432,0 -6.230469,3.155246 -6.230469,6.636719 0,3.481603 2.663158,6.636719 6.230469,6.636719 h 7.980468 l -6.089844,5.683594 H 67.300781 A 0.94875625,0.94875625 0 0 0 66.355469,47.8125 v 10.835938 a 0.94875625,0.94875625 0 0 0 0.945312,0.953124 h 1.623047 c 0.992137,0 1.765625,0.763726 1.765625,1.75586 v 1.625 a 0.94875625,0.94875625 0 0 0 0.945313,0.951172 h 10.835937 a 0.94875625,0.94875625 0 0 0 0.945313,-0.951172 v -7.175781 l 5.691406,-6.097657 v 7.996094 c 0,3.567432 3.153295,6.228516 6.634766,6.228516 3.481591,0 6.636722,-2.661201 6.636722,-6.228516 v -23.43164 c 0,-3.510468 -2.852939,-6.363282 -6.363285,-6.363282 z m -28.03711,41.708985 a 0.94875625,0.94875625 0 0 0 -0.943359,0.951171 v 9.744141 c 0,3.51171 2.851567,6.371094 6.363281,6.371094 h 9.75 a 0.94875625,0.94875625 0 0 0 0.945312,-0.953125 V 74.904297 A 0.94875625,0.94875625 0 0 0 59.71875,73.951172 h -1.623047 c -0.992149,0 -1.763672,-0.763711 -1.763672,-1.75586 v -1.625 a 0.94875625,0.94875625 0 0 0 -0.945312,-0.951171 z m 27.085938,0 a 0.94875625,0.94875625 0 0 0 -0.945313,0.951171 v 1.625 c 0,0.992145 -0.773488,1.75586 -1.765625,1.75586 h -1.623047 a 0.94875625,0.94875625 0 0 0 -0.945312,0.953125 v 10.828125 a 0.94875625,0.94875625 0 0 0 0.945312,0.953125 h 7.175781 l 6.089844,5.683594 h -7.980468 c -3.567315,0 -6.230469,3.155127 -6.230469,6.636718 0,3.481471 2.663037,6.636721 6.230469,6.636721 h 23.429687 c 3.510346,0 6.363285,-2.85282 6.363285,-6.363283 V 75.849609 c 0,-3.567314 -3.155131,-6.230468 -6.636722,-6.230468 -3.481471,0 -6.634766,2.66304 -6.634766,6.230468 v 7.986329 l -5.691406,-6.089844 v -7.175782 a 0.94875625,0.94875625 0 0 0 -0.945313,-0.951171 z"
           transform="scale(0.26458333)" />
      </g>
      <g
         id="g1571"
         style="opacity:1;fill:#000000;fill-opacity:0.128678;stroke:none;stroke-opacity:1"
         transform="translate(0.00349038,0.84506874)">
        <path
           id="path1569"
           style="color:#000000;font-style:normal;font-variant:normal;font-weight:normal;font-stretch:normal;font-size:medium;line-height:normal;font-family:sans-serif;font-variant-ligatures:normal;font-variant-position:normal;font-variant-caps:normal;font-variant-numeric:normal;font-variant-alternates:normal;font-variant-east-asian:normal;font-feature-settings:normal;font-variation-settings:normal;text-indent:0;text-align:start;text-decoration:none;text-decoration-line:none;text-decoration-style:solid;text-decoration-color:#000000;letter-spacing:normal;word-spacing:normal;text-transform:none;writing-mode:lr-tb;direction:ltr;text-orientation:mixed;dominant-baseline:auto;baseline-shift:baseline;text-anchor:start;white-space:normal;shape-padding:0;shape-margin:0;inline-size:0;clip-rule:nonzero;display:inline;overflow:visible;visibility:visible;isolation:auto;mix-blend-mode:normal;color-interpolation:sRGB;color-interpolation-filters:linearRGB;solid-color:#000000;solid-opacity:1;vector-effect:none;fill:#000000;fill-opacity:0.128678;fill-rule:nonzero;stroke:none;stroke-width:1.89732;stroke-linecap:round;stroke-linejoin:round;stroke-miterlimit:4;stroke-dasharray:none;stroke-dashoffset:0;stroke-opacity:1;color-rendering:auto;image-rendering:auto;shape-rendering:auto;text-rendering:auto;enable-background:accumulate;stop-color:#000000;stop-opacity:1"
           d="m 31.011719,27.910156 c -3.510348,0 -6.371094,2.852814 -6.371094,6.363282 v 23.43164 c 0,3.567315 3.155129,6.228516 6.636719,6.228516 3.481471,0 6.636718,-2.661084 6.636718,-6.228516 v -7.996094 l 5.691407,6.097657 v 7.175781 a 0.94875625,0.94875625 0 0 0 0.943359,0.951172 h 10.837891 a 0.94875625,0.94875625 0 0 0 0.945312,-0.951172 v -1.625 c 0,-0.992137 0.771527,-1.75586 1.763672,-1.75586 h 1.623047 a 0.94875625,0.94875625 0 0 0 0.945312,-0.953124 V 47.8125 A 0.94875625,0.94875625 0 0 0 59.71875,46.867188 h -7.173828 l -6.089844,-5.683594 h 7.986328 c 3.567319,0 6.222656,-3.155116 6.222656,-6.636719 0,-3.481474 -2.655224,-6.636719 -6.222656,-6.636719 z m 41.574219,0 c -3.567432,0 -6.230469,3.155246 -6.230469,6.636719 0,3.481603 2.663158,6.636719 6.230469,6.636719 h 7.980468 l -6.089844,5.683594 H 67.300781 A 0.94875625,0.94875625 0 0 0 66.355469,47.8125 v 10.835938 a 0.94875625,0.94875625 0 0 0 0.945312,0.953124 h 1.623047 c 0.992137,0 1.765625,0.763726 1.765625,1.75586 v 1.625 a 0.94875625,0.94875625 0 0 0 0.945313,0.951172 h 10.835937 a 0.94875625,0.94875625 0 0 0 0.945313,-0.951172 v -7.175781 l 5.691406,-6.097657 v 7.996094 c 0,3.567432 3.153295,6.228516 6.634766,6.228516 3.481591,0 6.636722,-2.661201 6.636722,-6.228516 v -23.43164 c 0,-3.510468 -2.852939,-6.363282 -6.363285,-6.363282 z m -28.03711,41.708985 a 0.94875625,0.94875625 0 0 0 -0.943359,0.951171 v 9.744141 c 0,3.51171 2.851567,6.371094 6.363281,6.371094 h 9.75 a 0.94875625,0.94875625 0 0 0 0.945312,-0.953125 V 74.904297 A 0.94875625,0.94875625 0 0 0 59.71875,73.951172 h -1.623047 c -0.992149,0 -1.763672,-0.763711 -1.763672,-1.75586 v -1.625 a 0.94875625,0.94875625 0 0 0 -0.945312,-0.951171 z m 27.085938,0 a 0.94875625,0.94875625 0 0 0 -0.945313,0.951171 v 1.625 c 0,0.992145 -0.773488,1.75586 -1.765625,1.75586 h -1.623047 a 0.94875625,0.94875625 0 0 0 -0.945312,0.953125 v 10.828125 a 0.94875625,0.94875625 0 0 0 0.945312,0.953125 h 7.175781 l 6.089844,5.683594 h -7.980468 c -3.567315,0 -6.230469,3.155127 -6.230469,6.636718 0,3.481471 2.663037,6.636721 6.230469,6.636721 h 23.429687 c 3.510346,0 6.363285,-2.85282 6.363285,-6.363283 V 75.849609 c 0,-3.567314 -3.155131,-6.230468 -6.636722,-6.230468 -3.481471,0 -6.634766,2.66304 -6.634766,6.230468 v 7.986329 l -5.691406,-6.089844 v -7.175782 a 0.94875625,0.94875625 0 0 0 -0.945313,-0.951171 z"
           transform="scale(0.26458333)" />
      </g>
    </g>
    <path
       style="fill:url(#linearGradient1548);fill-opacity:1;stroke-width:0.501647"
       d="m 8.2981488,6.9780828 c -0.7940492,0 -1.4334162,0.639339 -1.4334162,1.433419 v 6.1990602 c 0,0.79405 0.7108608,1.397163 1.50494,1.397163 0.794049,0 1.504941,-0.603083 1.504941,-1.397163 v -2.75024 L 11.8812,14.009958 v 1.997767 h 2.866835 v -0.430122 c 0,-0.397029 0.319188,-0.716218 0.716219,-0.716218 h 0.430123 V 11.994552 H 13.896608 L 11.746973,9.9879638 h 2.750237 c 0.794052,0 1.397167,-0.710858 1.397167,-1.504941 0,-0.794049 -0.603086,-1.50494 -1.397167,-1.50494 z m 10.9999782,0 c -0.79408,0 -1.397164,0.710891 -1.397164,1.50494 0,0.794083 0.603115,1.504941 1.397164,1.504941 h 2.75024 l -2.149634,2.0065882 h -1.99777 v 2.866833 h 0.430123 c 0.397029,0 0.716219,0.319189 0.716219,0.716218 v 0.430122 h 2.866832 v -1.997767 l 2.006586,-2.149636 v 2.75024 c 0,0.79408 0.710892,1.397163 1.504941,1.397163 0.794079,0 1.504941,-0.603113 1.504941,-1.397163 V 8.4115018 c 0,-0.79408 -0.639368,-1.433419 -1.433417,-1.433419 z M 11.8812,18.014314 v 2.579757 c 0,0.794621 0.638797,1.433416 1.433419,1.433416 h 2.579758 v -2.866833 h -0.430123 c -0.397031,0 -0.716219,-0.319187 -0.716219,-0.716218 v -0.430122 z m 7.166105,0 v 0.430122 c 0,0.397031 -0.31919,0.716218 -0.716219,0.716218 h -0.430123 v 2.866833 h 1.99777 l 2.149634,2.006588 h -2.75024 c -0.794049,0 -1.397164,0.710861 -1.397164,1.50494 0,0.794049 0.603084,1.504939 1.397164,1.504939 h 6.199061 c 0.794049,0 1.433417,-0.639336 1.433417,-1.433414 v -6.199062 c 0,-0.79405 -0.710862,-1.397164 -1.504941,-1.397164 -0.794049,0 -1.504941,0.603085 -1.504941,1.397164 v 2.750239 l -2.006586,-2.149635 v -1.997768 z"
       id="path8" />
  </g>
</svg>
