<?xml version="1.0" encoding="UTF-8" standalone="no"?>
<svg
   width="128"
   height="128"
   viewBox="0 0 33.866666 33.866668"
   version="1.1"
   id="svg2547"
   inkscape:version="1.1.2 (0a00cf5339, 2022-02-04)"
   sodipodi:docname="web-lounge.svg"
   xmlns:inkscape="http://www.inkscape.org/namespaces/inkscape"
   xmlns:sodipodi="http://sodipodi.sourceforge.net/DTD/sodipodi-0.dtd"
   xmlns:xlink="http://www.w3.org/1999/xlink"
   xmlns="http://www.w3.org/2000/svg"
   xmlns:svg="http://www.w3.org/2000/svg"
   xmlns:rdf="http://www.w3.org/1999/02/22-rdf-syntax-ns#"
   xmlns:cc="http://creativecommons.org/ns#"
   xmlns:dc="http://purl.org/dc/elements/1.1/">
  <defs
     id="defs2541">
    <linearGradient
       inkscape:collect="always"
       xlink:href="#linearGradient934"
       id="linearGradient936"
       x1="-27.205925"
       y1="-1.3796136"
       x2="-27.205925"
       y2="25.267708"
       gradientUnits="userSpaceOnUse"
       gradientTransform="translate(43.841853,5.63249)" />
    <linearGradient
       inkscape:collect="always"
       id="linearGradient934">
      <stop
         style="stop-color:#f5f9fb;stop-opacity:1"
         offset="0"
         id="stop930" />
      <stop
         style="stop-color:#f5eeec;stop-opacity:1"
         offset="1"
         id="stop932" />
    </linearGradient>
    <linearGradient
       id="b"
       x1="32"
       x2="32"
       y1="48"
       y2="22"
       gradientTransform="matrix(0.51392977,0,0,0.51392977,0.8488955,0.28621556)"
       gradientUnits="userSpaceOnUse">
      <stop
         offset="0"
         stop-color="#425576"
         id="stop17" />
      <stop
         offset="1"
         stop-color="#5a7da5"
         id="stop19" />
    </linearGradient>
    <linearGradient
       id="c"
       x1="32"
       x2="32"
       y1="44"
       y2="18"
       gradientTransform="matrix(0.51392977,0,0,0.51392977,0.8488955,0.14161106)"
       gradientUnits="userSpaceOnUse">
      <stop
         offset="0"
         stop-color="#ff8652"
         id="stop12" />
      <stop
         offset="1"
         stop-color="#ffc55c"
         id="stop14" />
    </linearGradient>
    <linearGradient
       id="d"
       x1="32"
       x2="32"
       y1="39"
       y2="18"
       gradientTransform="matrix(0.51392977,0,0,0.51392977,0.8488955,0.01281406)"
       gradientUnits="userSpaceOnUse">
      <stop
         offset="0"
         stop-color="#5486d4"
         id="stop7" />
      <stop
         offset="1"
         stop-color="#78c7e3"
         id="stop9" />
    </linearGradient>
  </defs>
  <sodipodi:namedview
     id="base"
     pagecolor="#ffffff"
     bordercolor="#666666"
     borderopacity="1.0"
     inkscape:pageopacity="0.0"
     inkscape:pageshadow="2"
     inkscape:zoom="0.70000001"
     inkscape:cx="-148.57143"
     inkscape:cy="108.57143"
     inkscape:document-units="mm"
     inkscape:current-layer="layer1"
     inkscape:document-rotation="0"
     showgrid="false"
     units="px"
     inkscape:window-width="1514"
     inkscape:window-height="941"
     inkscape:window-x="50"
     inkscape:window-y="27"
     inkscape:window-maximized="0"
     inkscape:pagecheckerboard="0" />
  <metadata
     id="metadata2544">
    <rdf:RDF>
      <cc:Work
         rdf:about="">
        <dc:format>image/svg+xml</dc:format>
        <dc:type
           rdf:resource="http://purl.org/dc/dcmitype/StillImage" />
      </cc:Work>
    </rdf:RDF>
  </metadata>
  <g
     inkscape:label="Capa 1"
     inkscape:groupmode="layer"
     id="layer1">
    <g
       id="g1702"
       transform="matrix(0.97573206,0,0,0.97573206,-65.777323,-37.255828)"
       style="opacity:0.296765">
      <rect
         style="fill:none;fill-opacity:1;stroke:#000000;stroke-width:0.1;stroke-linecap:round;stroke-linejoin:round;stroke-miterlimit:4;stroke-dasharray:none;stroke-opacity:0.02"
         id="rect1634"
         width="29.810888"
         height="29.810888"
         x="69.839508"
         y="40.709618"
         rx="6.6098609"
         ry="6.6098609" />
      <rect
         ry="6.6098609"
         rx="6.6098609"
         y="40.709618"
         x="69.839508"
         height="29.810888"
         width="29.810888"
         id="rect1638"
         style="fill:none;fill-opacity:1;stroke:#000000;stroke-width:0.2;stroke-linecap:round;stroke-linejoin:round;stroke-miterlimit:4;stroke-dasharray:none;stroke-opacity:0.02" />
      <rect
         style="fill:none;fill-opacity:1;stroke:#000000;stroke-width:0.3;stroke-linecap:round;stroke-linejoin:round;stroke-miterlimit:4;stroke-dasharray:none;stroke-opacity:0.02"
         id="rect1640"
         width="29.810888"
         height="29.810888"
         x="69.839508"
         y="40.709618"
         rx="6.6098609"
         ry="6.6098609" />
      <rect
         ry="6.6098609"
         rx="6.6098609"
         y="40.709618"
         x="69.839508"
         height="29.810888"
         width="29.810888"
         id="rect1642"
         style="fill:none;fill-opacity:1;stroke:#000000;stroke-width:0.4;stroke-linecap:round;stroke-linejoin:round;stroke-miterlimit:4;stroke-dasharray:none;stroke-opacity:0.02" />
      <rect
         style="fill:none;fill-opacity:1;stroke:#000000;stroke-width:0.5;stroke-linecap:round;stroke-linejoin:round;stroke-miterlimit:4;stroke-dasharray:none;stroke-opacity:0.02"
         id="rect1644"
         width="29.810888"
         height="29.810888"
         x="69.839508"
         y="40.709618"
         rx="6.6098609"
         ry="6.6098609" />
      <rect
         ry="6.6098609"
         rx="6.6098609"
         y="40.709618"
         x="69.839508"
         height="29.810888"
         width="29.810888"
         id="rect1646"
         style="fill:none;fill-opacity:1;stroke:#000000;stroke-width:0.6;stroke-linecap:round;stroke-linejoin:round;stroke-miterlimit:4;stroke-dasharray:none;stroke-opacity:0.02" />
      <rect
         style="fill:none;fill-opacity:1;stroke:#000000;stroke-width:0.7;stroke-linecap:round;stroke-linejoin:round;stroke-miterlimit:4;stroke-dasharray:none;stroke-opacity:0.02"
         id="rect1648"
         width="29.810888"
         height="29.810888"
         x="69.839508"
         y="40.709618"
         rx="6.6098609"
         ry="6.6098609" />
      <rect
         ry="6.6098609"
         rx="6.6098609"
         y="40.709618"
         x="69.839508"
         height="29.810888"
         width="29.810888"
         id="rect1650"
         style="fill:none;fill-opacity:1;stroke:#000000;stroke-width:0.8;stroke-linecap:round;stroke-linejoin:round;stroke-miterlimit:4;stroke-dasharray:none;stroke-opacity:0.02" />
      <rect
         style="fill:none;fill-opacity:1;stroke:#000000;stroke-width:1;stroke-linecap:round;stroke-linejoin:round;stroke-miterlimit:4;stroke-dasharray:none;stroke-opacity:0.02"
         id="rect1652"
         width="29.810888"
         height="29.810888"
         x="69.839508"
         y="40.709618"
         rx="6.6098609"
         ry="6.6098609" />
      <rect
         ry="6.6098609"
         rx="6.6098609"
         y="40.709618"
         x="69.839508"
         height="29.810888"
         width="29.810888"
         id="rect1654"
         style="fill:none;fill-opacity:1;stroke:#000000;stroke-width:1.2;stroke-linecap:round;stroke-linejoin:round;stroke-miterlimit:4;stroke-dasharray:none;stroke-opacity:0.02" />
      <rect
         style="fill:none;fill-opacity:1;stroke:#000000;stroke-width:1.4;stroke-linecap:round;stroke-linejoin:round;stroke-miterlimit:4;stroke-dasharray:none;stroke-opacity:0.02"
         id="rect1656"
         width="29.810888"
         height="29.810888"
         x="69.839508"
         y="40.709618"
         rx="6.6098609"
         ry="6.6098609" />
      <rect
         ry="6.6098609"
         rx="6.6098609"
         y="40.709618"
         x="69.839508"
         height="29.810888"
         width="29.810888"
         id="rect1658"
         style="fill:none;fill-opacity:1;stroke:#000000;stroke-width:1.6;stroke-linecap:round;stroke-linejoin:round;stroke-miterlimit:4;stroke-dasharray:none;stroke-opacity:0.02" />
      <rect
         style="fill:none;fill-opacity:1;stroke:#000000;stroke-width:1.8;stroke-linecap:round;stroke-linejoin:round;stroke-miterlimit:4;stroke-dasharray:none;stroke-opacity:0.02"
         id="rect1660"
         width="29.810888"
         height="29.810888"
         x="69.839508"
         y="40.709618"
         rx="6.6098609"
         ry="6.6098609" />
      <rect
         ry="6.6098609"
         rx="6.6098609"
         y="40.709618"
         x="69.839508"
         height="29.810888"
         width="29.810888"
         id="rect1662"
         style="fill:none;fill-opacity:1;stroke:#000000;stroke-width:2;stroke-linecap:round;stroke-linejoin:round;stroke-miterlimit:4;stroke-dasharray:none;stroke-opacity:0.02" />
      <rect
         style="fill:none;fill-opacity:1;stroke:#000000;stroke-width:2.2;stroke-linecap:round;stroke-linejoin:round;stroke-miterlimit:4;stroke-dasharray:none;stroke-opacity:0.02"
         id="rect1664"
         width="29.810888"
         height="29.810888"
         x="69.839508"
         y="40.709618"
         rx="6.6098609"
         ry="6.6098609" />
      <rect
         ry="6.6098609"
         rx="6.6098609"
         y="40.709618"
         x="69.839508"
         height="29.810888"
         width="29.810888"
         id="rect1666"
         style="fill:none;fill-opacity:1;stroke:#000000;stroke-width:2.6;stroke-linecap:round;stroke-linejoin:round;stroke-miterlimit:4;stroke-dasharray:none;stroke-opacity:0.02" />
      <rect
         style="fill:none;fill-opacity:1;stroke:#000000;stroke-width:3;stroke-linecap:round;stroke-linejoin:round;stroke-miterlimit:4;stroke-dasharray:none;stroke-opacity:0.02"
         id="rect1668"
         width="29.810888"
         height="29.810888"
         x="69.839508"
         y="40.709618"
         rx="6.6098609"
         ry="6.6098609" />
      <rect
         ry="6.6098609"
         rx="6.6098609"
         y="40.709618"
         x="69.839508"
         height="29.810888"
         width="29.810888"
         id="rect1670"
         style="fill:none;fill-opacity:1;stroke:#000000;stroke-width:3.4;stroke-linecap:round;stroke-linejoin:round;stroke-miterlimit:4;stroke-dasharray:none;stroke-opacity:0.02" />
      <rect
         style="fill:none;fill-opacity:1;stroke:#000000;stroke-width:3.8;stroke-linecap:round;stroke-linejoin:round;stroke-miterlimit:4;stroke-dasharray:none;stroke-opacity:0.02"
         id="rect1672"
         width="29.810888"
         height="29.810888"
         x="69.839508"
         y="40.709618"
         rx="6.6098609"
         ry="6.6098609" />
      <rect
         ry="6.6098609"
         rx="6.6098609"
         y="40.709618"
         x="69.839508"
         height="29.810888"
         width="29.810888"
         id="rect1674"
         style="fill:none;fill-opacity:1;stroke:#000000;stroke-width:4.2;stroke-linecap:round;stroke-linejoin:round;stroke-miterlimit:4;stroke-dasharray:none;stroke-opacity:0.02" />
      <rect
         style="fill:none;fill-opacity:1;stroke:#000000;stroke-width:4.6;stroke-linecap:round;stroke-linejoin:round;stroke-miterlimit:4;stroke-dasharray:none;stroke-opacity:0.02"
         id="rect1676"
         width="29.810888"
         height="29.810888"
         x="69.839508"
         y="40.709618"
         rx="6.6098609"
         ry="6.6098609" />
      <rect
         ry="6.6098609"
         rx="6.6098609"
         y="40.709618"
         x="69.839508"
         height="29.810888"
         width="29.810888"
         id="rect1678"
         style="fill:none;fill-opacity:1;stroke:#000000;stroke-width:5;stroke-linecap:round;stroke-linejoin:round;stroke-miterlimit:4;stroke-dasharray:none;stroke-opacity:0.02" />
    </g>
    <rect
       style="fill:url(#linearGradient936);fill-opacity:1;stroke-width:2.68769;stroke-linecap:round;stroke-linejoin:round"
       id="rect849-5"
       width="29.08744"
       height="29.08744"
       x="2.3673291"
       y="2.4658532"
       rx="6.4494534"
       ry="6.4494534" />
    <path
       style="opacity:0.2;stroke-width:0.576223"
       class="st0"
       d="m 12.348836,10.552007 c -0.14768,0 -0.297041,0.03737 -0.432168,0.111415 L 5.8708237,13.98121 c -0.2625334,0.148116 -0.4242886,0.414574 -0.4242886,0.703395 v 6.709851 c 0,0.288825 0.1617495,0.562689 0.4242886,0.703398 l 6.0537203,3.324539 c 0.262534,0.148115 0.587331,0.148115 0.857584,0 l 2.802336,-1.539598 c 0.09267,-0.05183 0.09267,-0.185618 0,-0.237466 L 14.179919,22.87553 c -0.04632,-0.02222 -0.100938,-0.02222 -0.139557,0 l -1.613875,0.887969 c -0.04633,0.02221 -0.09981,0.02221 -0.138423,0 L 7.2067187,20.972421 c -0.05405,-0.01481 -0.1862934,-0.111414 -0.1328054,-0.111414 v -5.636184 c 0,-0.05183 0.086312,-0.09596 0.1249218,-0.118171 l 5.0813439,-2.792207 c 0.04632,-0.02221 0.09981,-0.02221 0.138424,0 l 5.18601,2.814714 c 0.04632,0.02222 0.04388,0.06634 0.04388,0.118171 v 4.947416 c 0,0.05183 0.05706,0.09595 0.09567,0.118169 l 1.315637,0.769796 c 0.09266,0.05183 0.216085,-0.01459 0.216085,-0.118169 v -6.257428 c 0,-0.288824 -0.161748,-0.563815 -0.424289,-0.704524 L 12.77424,10.663419 c -0.131259,-0.07404 -0.277739,-0.111414 -0.425413,-0.111414 z m 9.246582,0 c -0.147594,0 -0.29599,0.03739 -0.431043,0.111415 l -2.801209,1.539598 c -0.0926,0.0518 -0.0926,0.184529 0,0.236343 l 1.404544,0.769796 c 0.0463,0.02219 0.09983,0.02219 0.138424,0 l 1.61275,-0.887969 c 0.0463,-0.02221 0.100961,-0.02221 0.139557,0 l 5.077968,2.789957 c 0.05403,0.02219 0.131673,0.119303 0.131673,0.119303 v 5.632806 c 0,0.05181 -0.08636,0.09595 -0.124922,0.11817 l -5.077968,2.791083 c -0.0463,0.02222 -0.09983,0.02222 -0.138425,0 l -5.100474,-2.813586 c -0.0463,-0.02221 -0.13274,-0.06634 -0.132805,-0.118171 l -0.0068,-4.944039 c -6.4e-5,-0.05181 -0.03005,-0.09709 -0.06864,-0.119303 l -1.335899,-0.769801 c -0.0926,-0.0518 -0.216086,0.01567 -0.216086,0.119303 v 6.254048 c 0,0.288683 0.161902,0.562757 0.424289,0.703398 l 6.073978,3.338044 c 0.262388,0.14805 0.586354,0.14805 0.856459,0 l 6.050344,-3.323415 c 0.262388,-0.148051 0.424289,-0.414717 0.424289,-0.703396 v -6.70535 c 0,-0.288679 -0.161901,-0.562756 -0.424289,-0.703397 l -6.050312,-3.323413 c -0.131194,-0.07402 -0.277823,-0.111415 -0.425415,-0.111415 z m -11.8272079,6.91468 a 0.86433492,0.86433492 0 0 0 -0.864335,0.864335 0.86433492,0.86433492 0 0 0 0.864335,0.864335 0.86433492,0.86433492 0 0 0 0.8643349,-0.864335 0.86433492,0.86433492 0 0 0 -0.8643349,-0.864335 z m 2.8811149,0 a 0.86433492,0.86433492 0 0 0 -0.864335,0.864335 0.86433492,0.86433492 0 0 0 0.864335,0.864335 0.86433492,0.86433492 0 0 0 0.864335,-0.864335 0.86433492,0.86433492 0 0 0 -0.864335,-0.864335 z m 8.643349,0 a 0.86433492,0.86433492 0 0 0 -0.864334,0.864335 0.86433492,0.86433492 0 0 0 0.864334,0.864335 0.86433492,0.86433492 0 0 0 0.864335,-0.864335 0.86433492,0.86433492 0 0 0 -0.864335,-0.864335 z m 2.881117,0 a 0.86433492,0.86433492 0 0 0 -0.864334,0.864335 0.86433492,0.86433492 0 0 0 0.864334,0.864335 0.86433492,0.86433492 0 0 0 0.864336,-0.864335 0.86433492,0.86433492 0 0 0 -0.864336,-0.864335 z"
       id="path6" />
    <path
       style="fill:#ff9e30;stroke-width:0.576223"
       class="st0"
       d="m 26.86843,14.653565 v 5.63298 c 0,0.05181 -0.08627,0.09621 -0.124835,0.118432 l -5.077968,2.790584 c -0.0463,0.02222 -0.100307,0.02222 -0.138904,0 l -5.100765,-2.812789 c -0.0463,-0.02221 -0.132849,-0.06662 -0.132915,-0.118432 l -0.0059,-4.944584 c -6.5e-5,-0.0518 -0.03086,-0.09624 -0.06945,-0.118431 l -1.335515,-0.769814 c -0.0926,-0.05181 -0.216087,0.01481 -0.216087,0.118432 v 6.254755 c 0,0.288684 0.162054,0.562557 0.42445,0.703197 l 6.073497,3.338337 c 0.262386,0.148049 0.586511,0.148049 0.856616,0 L 28.071,21.522698 c 0.262388,-0.14805 0.42445,-0.414516 0.42445,-0.703194 V 14.11322 c 0,-0.288681 -0.162054,-0.562558 -0.42445,-0.703198 L 22.02063,10.08649 c -0.262388,-0.1480509 -0.586513,-0.1480509 -0.856616,0 l -2.801374,1.539632 c -0.0926,0.05181 -0.0926,0.185052 0,0.236866 l 1.404545,0.769815 c 0.0463,0.02219 0.100307,0.02219 0.138904,0 l 1.612912,-0.888247 c 0.0463,-0.02222 0.100307,-0.02222 0.138904,0 l 5.077966,2.790581 c 0.05403,0.02219 0.132544,0.118432 0.132544,0.118432 z"
       id="path8" />
    <circle
       style="fill:#262c3f;stroke-width:0.576223;fill-opacity:1"
       class="st1"
       cx="24.17379"
       cy="17.754467"
       r="0.86433494"
       id="circle10" />
    <circle
       style="fill:#262c3f;stroke-width:0.576223;fill-opacity:1"
       class="st1"
       cx="21.292675"
       cy="17.754467"
       r="0.86433494"
       id="circle12" />
    <path
       style="fill:#262c3f;stroke-width:0.576223;fill-opacity:1"
       class="st1"
       d="m 7.0735299,20.284237 -2.3e-6,-5.635764 c 0,-0.05184 0.087203,-0.09628 0.125815,-0.118497 l 5.0808004,-2.791964 c 0.04632,-0.02222 0.100374,-0.02222 0.138989,0 l 5.185514,2.81418 c 0.04632,0.02222 0.04427,0.06667 0.04427,0.118498 v 4.947031 c 0,0.05183 0.0561,0.09628 0.09471,0.118496 l 1.316058,0.770198 c 0.09265,0.05183 0.216195,-0.01481 0.216195,-0.118497 V 14.13007 c 0,-0.288824 -0.162162,-0.562837 -0.424687,-0.703544 L 12.77431,10.086537 c -0.262531,-0.1481148 -0.58684,-0.1481148 -0.857096,0 L 5.8712184,13.404308 C 5.6086827,13.552423 5.4465306,13.81903 5.4465306,14.107851 v 6.709598 c 0,0.288828 0.1621408,0.562838 0.4246878,0.703547 l 6.0537206,3.325174 c 0.262533,0.148116 0.586842,0.148116 0.857096,0 l 2.802934,-1.540392 c 0.09267,-0.05183 0.09267,-0.185139 0,-0.236983 l -1.405328,-0.770197 c -0.04632,-0.02221 -0.100375,-0.02221 -0.138991,0 l -1.613812,0.888687 c -0.04632,0.02222 -0.100375,0.02222 -0.138991,0 L 7.2070514,20.395323 c -0.05405,-0.01481 -0.1870118,-0.111098 -0.1335452,-0.111098 z"
       id="path14" />
    <circle
       style="fill:#ff9e30;stroke-width:0.576223"
       class="st0"
       cx="9.7682085"
       cy="17.754467"
       r="0.86433494"
       id="circle16" />
    <circle
       style="fill:#ff9e30;stroke-width:0.576223"
       class="st0"
       cx="12.649325"
       cy="17.754467"
       r="0.86433494"
       id="circle18" />
  </g>
</svg>
