<?xml version="1.0" encoding="UTF-8" standalone="no"?>
<svg
   width="128"
   height="128"
   viewBox="0 0 33.866666 33.866668"
   version="1.1"
   id="svg1443"
   inkscape:version="1.1.2 (0a00cf5339, 2022-02-04)"
   sodipodi:docname="whalebird.svg"
   xmlns:inkscape="http://www.inkscape.org/namespaces/inkscape"
   xmlns:sodipodi="http://sodipodi.sourceforge.net/DTD/sodipodi-0.dtd"
   xmlns:xlink="http://www.w3.org/1999/xlink"
   xmlns="http://www.w3.org/2000/svg"
   xmlns:svg="http://www.w3.org/2000/svg"
   xmlns:rdf="http://www.w3.org/1999/02/22-rdf-syntax-ns#"
   xmlns:cc="http://creativecommons.org/ns#"
   xmlns:dc="http://purl.org/dc/elements/1.1/">
  <defs
     id="defs1437">
    <linearGradient
       inkscape:collect="always"
       id="linearGradient1589">
      <stop
         style="stop-color:#ffffff;stop-opacity:1;"
         offset="0"
         id="stop1585" />
      <stop
         style="stop-color:#3de1bf;stop-opacity:1"
         offset="1"
         id="stop1587" />
    </linearGradient>
    <linearGradient
       inkscape:collect="always"
       id="linearGradient1997">
      <stop
         style="stop-color:#5ed7ec;stop-opacity:1"
         offset="0"
         id="stop1993" />
      <stop
         style="stop-color:#3de1bf;stop-opacity:1"
         offset="1"
         id="stop1995" />
    </linearGradient>
    <filter
       color-interpolation-filters="sRGB"
       height="1.1311001"
       width="1.1106"
       y="-0.065563001"
       x="-0.055319"
       id="c-9">
      <feGaussianBlur
         id="feGaussianBlur1093"
         stdDeviation="1.1062912" />
    </filter>
    <linearGradient
       gradientUnits="userSpaceOnUse"
       gradientTransform="matrix(0.13235,0,0,0.13075,-32.379,1.0873)"
       y2="269.48999"
       y1="235.14999"
       x2="657.65002"
       x1="319.20999"
       id="a-12">
      <stop
         id="stop1076"
         offset="0"
         stop-color="#e54c18" />
      <stop
         id="stop1078"
         offset="1"
         stop-color="#fec350" />
    </linearGradient>
    <radialGradient
       inkscape:collect="always"
       xlink:href="#linearGradient1997"
       id="radialGradient1999"
       cx="17.076008"
       cy="4.6282434"
       fx="17.076008"
       fy="4.6282434"
       r="14.543719"
       gradientUnits="userSpaceOnUse"
       gradientTransform="matrix(4.7283357,0,0,1.6998039,-63.506476,-2.7937172)" />
    <linearGradient
       inkscape:collect="always"
       xlink:href="#linearGradient1589"
       id="linearGradient1591"
       x1="8.0406513"
       y1="10.733815"
       x2="8.0406513"
       y2="43.592335"
       gradientUnits="userSpaceOnUse" />
  </defs>
  <sodipodi:namedview
     id="base"
     pagecolor="#ffffff"
     bordercolor="#666666"
     borderopacity="1.0"
     inkscape:pageopacity="0.0"
     inkscape:pageshadow="2"
     inkscape:zoom="2.0742188"
     inkscape:cx="-62.19209"
     inkscape:cy="48.451977"
     inkscape:document-units="mm"
     inkscape:current-layer="layer1"
     inkscape:document-rotation="0"
     showgrid="false"
     units="px"
     inkscape:window-width="1920"
     inkscape:window-height="1028"
     inkscape:window-x="0"
     inkscape:window-y="26"
     inkscape:window-maximized="1"
     inkscape:pagecheckerboard="0" />
  <metadata
     id="metadata1440">
    <rdf:RDF>
      <cc:Work
         rdf:about="">
        <dc:format>image/svg+xml</dc:format>
        <dc:type
           rdf:resource="http://purl.org/dc/dcmitype/StillImage" />
      </cc:Work>
    </rdf:RDF>
  </metadata>
  <g
     inkscape:label="Capa 1"
     inkscape:groupmode="layer"
     id="layer1">
    <g
       style="opacity:0.18753551"
       transform="matrix(0.97573206,0,0,0.96360993,-65.737228,-36.327649)"
       id="g1702">
      <rect
         ry="6.6098609"
         rx="6.6098609"
         y="40.709618"
         x="69.839508"
         height="29.810888"
         width="29.810888"
         id="rect1634"
         style="fill:none;fill-opacity:1;stroke:#000000;stroke-width:0.1;stroke-linecap:round;stroke-linejoin:round;stroke-miterlimit:4;stroke-dasharray:none;stroke-opacity:0.02" />
      <rect
         style="fill:none;fill-opacity:1;stroke:#000000;stroke-width:0.2;stroke-linecap:round;stroke-linejoin:round;stroke-miterlimit:4;stroke-dasharray:none;stroke-opacity:0.02"
         id="rect1638"
         width="29.810888"
         height="29.810888"
         x="69.839508"
         y="40.709618"
         rx="6.6098609"
         ry="6.6098609" />
      <rect
         ry="6.6098609"
         rx="6.6098609"
         y="40.709618"
         x="69.839508"
         height="29.810888"
         width="29.810888"
         id="rect1640"
         style="fill:none;fill-opacity:1;stroke:#000000;stroke-width:0.3;stroke-linecap:round;stroke-linejoin:round;stroke-miterlimit:4;stroke-dasharray:none;stroke-opacity:0.02" />
      <rect
         style="fill:none;fill-opacity:1;stroke:#000000;stroke-width:0.4;stroke-linecap:round;stroke-linejoin:round;stroke-miterlimit:4;stroke-dasharray:none;stroke-opacity:0.02"
         id="rect1642"
         width="29.810888"
         height="29.810888"
         x="69.839508"
         y="40.709618"
         rx="6.6098609"
         ry="6.6098609" />
      <rect
         ry="6.6098609"
         rx="6.6098609"
         y="40.709618"
         x="69.839508"
         height="29.810888"
         width="29.810888"
         id="rect1644"
         style="fill:none;fill-opacity:1;stroke:#000000;stroke-width:0.5;stroke-linecap:round;stroke-linejoin:round;stroke-miterlimit:4;stroke-dasharray:none;stroke-opacity:0.02" />
      <rect
         style="fill:none;fill-opacity:1;stroke:#000000;stroke-width:0.6;stroke-linecap:round;stroke-linejoin:round;stroke-miterlimit:4;stroke-dasharray:none;stroke-opacity:0.02"
         id="rect1646"
         width="29.810888"
         height="29.810888"
         x="69.839508"
         y="40.709618"
         rx="6.6098609"
         ry="6.6098609" />
      <rect
         ry="6.6098609"
         rx="6.6098609"
         y="40.709618"
         x="69.839508"
         height="29.810888"
         width="29.810888"
         id="rect1648"
         style="fill:none;fill-opacity:1;stroke:#000000;stroke-width:0.7;stroke-linecap:round;stroke-linejoin:round;stroke-miterlimit:4;stroke-dasharray:none;stroke-opacity:0.02" />
      <rect
         style="fill:none;fill-opacity:1;stroke:#000000;stroke-width:0.8;stroke-linecap:round;stroke-linejoin:round;stroke-miterlimit:4;stroke-dasharray:none;stroke-opacity:0.02"
         id="rect1650"
         width="29.810888"
         height="29.810888"
         x="69.839508"
         y="40.709618"
         rx="6.6098609"
         ry="6.6098609" />
      <rect
         ry="6.6098609"
         rx="6.6098609"
         y="40.709618"
         x="69.839508"
         height="29.810888"
         width="29.810888"
         id="rect1652"
         style="fill:none;fill-opacity:1;stroke:#000000;stroke-width:1;stroke-linecap:round;stroke-linejoin:round;stroke-miterlimit:4;stroke-dasharray:none;stroke-opacity:0.02" />
      <rect
         style="fill:none;fill-opacity:1;stroke:#000000;stroke-width:1.2;stroke-linecap:round;stroke-linejoin:round;stroke-miterlimit:4;stroke-dasharray:none;stroke-opacity:0.02"
         id="rect1654"
         width="29.810888"
         height="29.810888"
         x="69.839508"
         y="40.709618"
         rx="6.6098609"
         ry="6.6098609" />
      <rect
         ry="6.6098609"
         rx="6.6098609"
         y="40.709618"
         x="69.839508"
         height="29.810888"
         width="29.810888"
         id="rect1656"
         style="fill:none;fill-opacity:1;stroke:#000000;stroke-width:1.4;stroke-linecap:round;stroke-linejoin:round;stroke-miterlimit:4;stroke-dasharray:none;stroke-opacity:0.02" />
      <rect
         style="fill:none;fill-opacity:1;stroke:#000000;stroke-width:1.6;stroke-linecap:round;stroke-linejoin:round;stroke-miterlimit:4;stroke-dasharray:none;stroke-opacity:0.02"
         id="rect1658"
         width="29.810888"
         height="29.810888"
         x="69.839508"
         y="40.709618"
         rx="6.6098609"
         ry="6.6098609" />
      <rect
         ry="6.6098609"
         rx="6.6098609"
         y="40.709618"
         x="69.839508"
         height="29.810888"
         width="29.810888"
         id="rect1660"
         style="fill:none;fill-opacity:1;stroke:#000000;stroke-width:1.8;stroke-linecap:round;stroke-linejoin:round;stroke-miterlimit:4;stroke-dasharray:none;stroke-opacity:0.02" />
      <rect
         style="fill:none;fill-opacity:1;stroke:#000000;stroke-width:2;stroke-linecap:round;stroke-linejoin:round;stroke-miterlimit:4;stroke-dasharray:none;stroke-opacity:0.02"
         id="rect1662"
         width="29.810888"
         height="29.810888"
         x="69.839508"
         y="40.709618"
         rx="6.6098609"
         ry="6.6098609" />
      <rect
         ry="6.6098609"
         rx="6.6098609"
         y="40.709618"
         x="69.839508"
         height="29.810888"
         width="29.810888"
         id="rect1664"
         style="fill:none;fill-opacity:1;stroke:#000000;stroke-width:2.2;stroke-linecap:round;stroke-linejoin:round;stroke-miterlimit:4;stroke-dasharray:none;stroke-opacity:0.02" />
      <rect
         style="fill:none;fill-opacity:1;stroke:#000000;stroke-width:2.6;stroke-linecap:round;stroke-linejoin:round;stroke-miterlimit:4;stroke-dasharray:none;stroke-opacity:0.02"
         id="rect1666"
         width="29.810888"
         height="29.810888"
         x="69.839508"
         y="40.709618"
         rx="6.6098609"
         ry="6.6098609" />
      <rect
         ry="6.6098609"
         rx="6.6098609"
         y="40.709618"
         x="69.839508"
         height="29.810888"
         width="29.810888"
         id="rect1668"
         style="fill:none;fill-opacity:1;stroke:#000000;stroke-width:3;stroke-linecap:round;stroke-linejoin:round;stroke-miterlimit:4;stroke-dasharray:none;stroke-opacity:0.02" />
      <rect
         style="fill:none;fill-opacity:1;stroke:#000000;stroke-width:3.4;stroke-linecap:round;stroke-linejoin:round;stroke-miterlimit:4;stroke-dasharray:none;stroke-opacity:0.02"
         id="rect1670"
         width="29.810888"
         height="29.810888"
         x="69.839508"
         y="40.709618"
         rx="6.6098609"
         ry="6.6098609" />
      <rect
         ry="6.6098609"
         rx="6.6098609"
         y="40.709618"
         x="69.839508"
         height="29.810888"
         width="29.810888"
         id="rect1672"
         style="fill:none;fill-opacity:1;stroke:#000000;stroke-width:3.8;stroke-linecap:round;stroke-linejoin:round;stroke-miterlimit:4;stroke-dasharray:none;stroke-opacity:0.02" />
      <rect
         style="fill:none;fill-opacity:1;stroke:#000000;stroke-width:4.2;stroke-linecap:round;stroke-linejoin:round;stroke-miterlimit:4;stroke-dasharray:none;stroke-opacity:0.02"
         id="rect1674"
         width="29.810888"
         height="29.810888"
         x="69.839508"
         y="40.709618"
         rx="6.6098609"
         ry="6.6098609" />
      <rect
         ry="6.6098609"
         rx="6.6098609"
         y="40.709618"
         x="69.839508"
         height="29.810888"
         width="29.810888"
         id="rect1676"
         style="fill:none;fill-opacity:1;stroke:#000000;stroke-width:4.6;stroke-linecap:round;stroke-linejoin:round;stroke-miterlimit:4;stroke-dasharray:none;stroke-opacity:0.02" />
      <rect
         style="fill:none;fill-opacity:1;stroke:#000000;stroke-width:5;stroke-linecap:round;stroke-linejoin:round;stroke-miterlimit:4;stroke-dasharray:none;stroke-opacity:0.02"
         id="rect1678"
         width="29.810888"
         height="29.810888"
         x="69.839508"
         y="40.709618"
         rx="6.6098609"
         ry="6.6098609" />
    </g>
    <rect
       ry="6.4494534"
       rx="6.4494534"
       y="2.5391712"
       x="2.4074187"
       height="29.087439"
       width="29.087439"
       id="rect849"
       style="fill:url(#radialGradient1999);fill-opacity:1;stroke-width:2.68768;stroke-linecap:round;stroke-linejoin:round" />
    <path
       style="fill:#001358;fill-opacity:0.02935;stroke:none;stroke-width:0.8;stroke-miterlimit:4;stroke-dasharray:none;stroke-opacity:0.0340545;paint-order:stroke markers fill"
       d="m 20.692659,25.440959 c -0.336107,-0.167141 -0.709877,-0.445312 -0.877863,-0.653335 -0.386289,-0.478357 -0.509525,-0.74303 -0.873672,-0.466629 -0.474714,0.36033 -1.123897,0.549096 -1.72973,0.605449 -0.813364,0.07565 -0.878504,-0.0066 -0.561859,-0.708662 0.53967,-1.196712 0.540084,-1.847894 0.0011,-3.042744 -0.3678,-0.815594 -0.563116,-0.942163 -1.448077,-0.938388 -0.443058,0.0019 -1.167689,0.06895 -1.473624,0.174123 -0.547309,0.188156 -1.410518,0.489085 -1.491321,0.698636 -0.03025,0.07844 0.08097,0.241829 0.270384,0.397201 0.588236,0.482526 0.793658,1.299974 0.501529,1.995753 -0.132626,0.315876 -0.395152,0.628858 -0.527483,0.628858 -0.04126,0 -0.148012,-0.19023 -0.237238,-0.422732 -0.08923,-0.232502 -0.271074,-0.75328 -0.40411,-0.857419 -0.736283,-0.576353 -1.9933621,0.46867 -2.4321557,1.666274 -0.1132304,0.309114 -0.2494246,0.547584 -0.3026297,0.529934 -0.2086664,-0.06922 -0.3630752,-0.774932 -0.324042,-1.48105 0.060182,-1.088679 0.6315569,-1.997751 1.5826094,-2.517959 l 0.329784,-0.180387 0.10739,-1.080045 c 0.124587,-1.252982 0.30712,-1.942252 0.757461,-2.860266 0.735323,-1.498955 2.190456,-2.747013 3.650014,-3.442234 0.442365,-0.210711 0.910754,-0.435629 1.040863,-0.499821 0.173733,-0.08571 0.228371,-0.177947 0.205732,-0.347297 -0.04608,-0.344605 -0.453869,-1.196953 -0.727519,-1.520594 -0.303357,-0.358771 -0.208606,-0.495898 0.437998,-0.633897 0.963559,-0.205646 1.948341,-0.06271 2.820603,0.380128 0.545577,0.276985 1.355698,1.063641 1.713975,1.664335 0.26511,0.444484 0.397018,0.553976 1.110618,0.921886 3.399689,1.75277 4.816425,5.540918 3.581303,9.247675 -0.191453,0.574568 -0.468071,1.151067 -0.753706,1.570792 -0.718172,1.055388 -1.465074,1.463488 -2.678417,1.463488 -0.57367,0 -0.776126,-0.04647 -1.267994,-0.291073 z"
       id="path1564" />
    <path
       style="fill:#001358;fill-opacity:0.02934996;stroke:none;stroke-width:0.8;stroke-miterlimit:4;stroke-dasharray:none;stroke-opacity:0.0340545;paint-order:stroke markers fill"
       d="m 20.746076,24.925876 c -0.336107,-0.167141 -0.709877,-0.445312 -0.877863,-0.653335 -0.386289,-0.478357 -0.509525,-0.74303 -0.873672,-0.466629 -0.474714,0.36033 -1.123897,0.549096 -1.72973,0.605449 -0.813364,0.07565 -0.878504,-0.0066 -0.561859,-0.708662 0.53967,-1.196712 0.540084,-1.847894 0.0011,-3.042744 -0.3678,-0.815594 -0.563116,-0.942163 -1.448077,-0.938388 -0.443058,0.0019 -1.167689,0.06895 -1.473624,0.174123 -0.547309,0.188156 -1.410518,0.489085 -1.491321,0.698636 -0.03025,0.07844 0.08097,0.241829 0.270384,0.397201 0.588236,0.482526 0.793658,1.299974 0.501529,1.995753 -0.132626,0.315876 -0.395152,0.628858 -0.527483,0.628858 -0.04126,0 -0.148012,-0.19023 -0.237238,-0.422732 -0.08923,-0.232502 -0.271074,-0.75328 -0.40411,-0.857419 -0.736283,-0.576353 -1.9933622,0.46867 -2.4321558,1.666274 -0.1132304,0.309114 -0.2494246,0.547584 -0.3026297,0.529934 -0.2086664,-0.06922 -0.3630752,-0.774932 -0.324042,-1.48105 0.060182,-1.088679 0.6315569,-1.997751 1.5826095,-2.517959 l 0.329784,-0.180387 0.10739,-1.080045 c 0.124587,-1.252982 0.30712,-1.942252 0.757461,-2.860266 0.735323,-1.498955 2.190456,-2.747013 3.650014,-3.442234 0.442365,-0.210711 0.910754,-0.435629 1.040863,-0.499821 0.173733,-0.08571 0.228371,-0.177947 0.205732,-0.347297 -0.04608,-0.344605 -0.453869,-1.196953 -0.727519,-1.520594 -0.303357,-0.358771 -0.208606,-0.495898 0.437998,-0.633897 0.963559,-0.2056459 1.948341,-0.062715 2.820603,0.380128 0.545577,0.276985 1.355698,1.063641 1.713975,1.664335 0.26511,0.444484 0.397018,0.553976 1.110618,0.921886 3.399689,1.75277 4.816425,5.540918 3.581303,9.247675 -0.191453,0.574568 -0.468071,1.151067 -0.753706,1.570792 -0.718172,1.055388 -1.465074,1.463488 -2.678417,1.463488 -0.57367,0 -0.776126,-0.04647 -1.267994,-0.291073 z"
       id="path1364" />
    <path
       style="fill:url(#linearGradient1591);stroke-width:0.8;stroke:#060935;stroke-opacity:0.03405448;stroke-miterlimit:4;stroke-dasharray:none;paint-order:stroke markers fill;fill-opacity:1"
       d="m 20.357709,24.202686 c -0.336107,-0.167141 -0.709877,-0.445312 -0.877863,-0.653335 -0.386289,-0.478357 -0.509525,-0.74303 -0.873672,-0.466629 -0.474714,0.36033 -1.123897,0.549096 -1.72973,0.605449 -0.813364,0.07565 -0.878504,-0.0066 -0.561859,-0.708662 0.53967,-1.196712 0.540084,-1.847894 0.0011,-3.042744 -0.3678,-0.815594 -0.563116,-0.942163 -1.448077,-0.938388 -0.443058,0.0019 -1.167689,0.06895 -1.473624,0.174123 -0.547309,0.188156 -1.410518,0.489085 -1.491321,0.698636 -0.03025,0.07844 0.08097,0.241829 0.270384,0.397201 0.588236,0.482526 0.793658,1.299974 0.501529,1.995753 -0.132626,0.315876 -0.395152,0.628858 -0.527483,0.628858 -0.04126,0 -0.148012,-0.19023 -0.237238,-0.422732 -0.08923,-0.232502 -0.271074,-0.75328 -0.40411,-0.857419 -0.736283,-0.576353 -1.9933622,0.46867 -2.4321558,1.666274 -0.1132304,0.309114 -0.2494246,0.547584 -0.3026297,0.529934 -0.2086664,-0.06922 -0.3630752,-0.774932 -0.324042,-1.48105 0.060182,-1.088679 0.6315569,-1.997751 1.5826095,-2.517959 l 0.329784,-0.180387 0.10739,-1.080045 c 0.124587,-1.252982 0.30712,-1.942252 0.757461,-2.860266 0.735323,-1.498955 2.190456,-2.747013 3.650014,-3.442234 0.442365,-0.210711 0.910754,-0.435629 1.040863,-0.499821 0.173733,-0.08571 0.228371,-0.177947 0.205732,-0.347297 -0.04608,-0.344605 -0.453869,-1.196953 -0.727519,-1.5205936 -0.303357,-0.3587716 -0.208606,-0.4958979 0.437998,-0.6338971 0.963559,-0.2056459 1.948341,-0.062715 2.820603,0.3801276 0.545577,0.2769857 1.355698,1.0636411 1.713975,1.6643351 0.26511,0.444484 0.397018,0.553976 1.110618,0.921886 3.399689,1.75277 4.816425,5.540918 3.581303,9.247675 -0.191453,0.574568 -0.468071,1.151067 -0.753706,1.570792 -0.718172,1.055388 -1.465074,1.463488 -2.678417,1.463488 -0.57367,0 -0.776126,-0.04647 -1.267994,-0.291073 z"
       id="path8" />
  </g>
</svg>
