<?xml version="1.0" encoding="UTF-8" standalone="no"?>
<svg
   width="128"
   height="128"
   viewBox="0 0 33.866666 33.866668"
   version="1.1"
   id="svg1443"
   inkscape:version="1.1.2 (0a00cf5339, 2022-02-04)"
   sodipodi:docname="write_stylus.svg"
   xmlns:inkscape="http://www.inkscape.org/namespaces/inkscape"
   xmlns:sodipodi="http://sodipodi.sourceforge.net/DTD/sodipodi-0.dtd"
   xmlns:xlink="http://www.w3.org/1999/xlink"
   xmlns="http://www.w3.org/2000/svg"
   xmlns:svg="http://www.w3.org/2000/svg"
   xmlns:rdf="http://www.w3.org/1999/02/22-rdf-syntax-ns#"
   xmlns:cc="http://creativecommons.org/ns#"
   xmlns:dc="http://purl.org/dc/elements/1.1/">
  <defs
     id="defs1437">
    <linearGradient
       gradientTransform="matrix(0.97573206,0,0,0.97573206,-111.76517,-37.182508)"
       gradientUnits="userSpaceOnUse"
       y2="70.679932"
       x2="132.21078"
       y1="42.151531"
       x1="132.21078"
       id="linearGradient1632"
       xlink:href="#linearGradient1630"
       inkscape:collect="always" />
    <linearGradient
       id="linearGradient1630"
       inkscape:collect="always">
      <stop
         id="stop1626"
         offset="0"
         style="stop-color:#dde5e7;stop-opacity:1" />
      <stop
         id="stop1628"
         offset="1"
         style="stop-color:#a9b5b0;stop-opacity:1" />
    </linearGradient>
    <filter
       color-interpolation-filters="sRGB"
       height="1.1311001"
       width="1.1106"
       y="-0.065563001"
       x="-0.055319"
       id="c-9">
      <feGaussianBlur
         id="feGaussianBlur1093"
         stdDeviation="1.1062912" />
    </filter>
    <linearGradient
       gradientUnits="userSpaceOnUse"
       gradientTransform="matrix(0.13235,0,0,0.13075,-32.379,1.0873)"
       y2="269.48999"
       y1="235.14999"
       x2="657.65002"
       x1="319.20999"
       id="a-12">
      <stop
         id="stop1076"
         offset="0"
         stop-color="#e54c18" />
      <stop
         id="stop1078"
         offset="1"
         stop-color="#fec350" />
    </linearGradient>
  </defs>
  <sodipodi:namedview
     id="base"
     pagecolor="#ffffff"
     bordercolor="#666666"
     borderopacity="1.0"
     inkscape:pageopacity="0.0"
     inkscape:pageshadow="2"
     inkscape:zoom="2.8"
     inkscape:cx="49.821429"
     inkscape:cy="59.285714"
     inkscape:document-units="mm"
     inkscape:current-layer="layer1"
     inkscape:document-rotation="0"
     showgrid="false"
     units="px"
     inkscape:window-width="1920"
     inkscape:window-height="1022"
     inkscape:window-x="0"
     inkscape:window-y="0"
     inkscape:window-maximized="1"
     inkscape:pagecheckerboard="0" />
  <metadata
     id="metadata1440">
    <rdf:RDF>
      <cc:Work
         rdf:about="">
        <dc:format>image/svg+xml</dc:format>
        <dc:type
           rdf:resource="http://purl.org/dc/dcmitype/StillImage" />
      </cc:Work>
    </rdf:RDF>
  </metadata>
  <g
     inkscape:label="Capa 1"
     inkscape:groupmode="layer"
     id="layer1">
    <g
       style="opacity:0.18753551"
       transform="matrix(0.97573206,0,0,0.96360993,-65.737228,-36.327649)"
       id="g1702">
      <rect
         ry="6.6098609"
         rx="6.6098609"
         y="40.709618"
         x="69.839508"
         height="29.810888"
         width="29.810888"
         id="rect1634"
         style="fill:none;fill-opacity:1;stroke:#000000;stroke-width:0.1;stroke-linecap:round;stroke-linejoin:round;stroke-miterlimit:4;stroke-dasharray:none;stroke-opacity:0.02" />
      <rect
         style="fill:none;fill-opacity:1;stroke:#000000;stroke-width:0.2;stroke-linecap:round;stroke-linejoin:round;stroke-miterlimit:4;stroke-dasharray:none;stroke-opacity:0.02"
         id="rect1638"
         width="29.810888"
         height="29.810888"
         x="69.839508"
         y="40.709618"
         rx="6.6098609"
         ry="6.6098609" />
      <rect
         ry="6.6098609"
         rx="6.6098609"
         y="40.709618"
         x="69.839508"
         height="29.810888"
         width="29.810888"
         id="rect1640"
         style="fill:none;fill-opacity:1;stroke:#000000;stroke-width:0.3;stroke-linecap:round;stroke-linejoin:round;stroke-miterlimit:4;stroke-dasharray:none;stroke-opacity:0.02" />
      <rect
         style="fill:none;fill-opacity:1;stroke:#000000;stroke-width:0.4;stroke-linecap:round;stroke-linejoin:round;stroke-miterlimit:4;stroke-dasharray:none;stroke-opacity:0.02"
         id="rect1642"
         width="29.810888"
         height="29.810888"
         x="69.839508"
         y="40.709618"
         rx="6.6098609"
         ry="6.6098609" />
      <rect
         ry="6.6098609"
         rx="6.6098609"
         y="40.709618"
         x="69.839508"
         height="29.810888"
         width="29.810888"
         id="rect1644"
         style="fill:none;fill-opacity:1;stroke:#000000;stroke-width:0.5;stroke-linecap:round;stroke-linejoin:round;stroke-miterlimit:4;stroke-dasharray:none;stroke-opacity:0.02" />
      <rect
         style="fill:none;fill-opacity:1;stroke:#000000;stroke-width:0.6;stroke-linecap:round;stroke-linejoin:round;stroke-miterlimit:4;stroke-dasharray:none;stroke-opacity:0.02"
         id="rect1646"
         width="29.810888"
         height="29.810888"
         x="69.839508"
         y="40.709618"
         rx="6.6098609"
         ry="6.6098609" />
      <rect
         ry="6.6098609"
         rx="6.6098609"
         y="40.709618"
         x="69.839508"
         height="29.810888"
         width="29.810888"
         id="rect1648"
         style="fill:none;fill-opacity:1;stroke:#000000;stroke-width:0.7;stroke-linecap:round;stroke-linejoin:round;stroke-miterlimit:4;stroke-dasharray:none;stroke-opacity:0.02" />
      <rect
         style="fill:none;fill-opacity:1;stroke:#000000;stroke-width:0.8;stroke-linecap:round;stroke-linejoin:round;stroke-miterlimit:4;stroke-dasharray:none;stroke-opacity:0.02"
         id="rect1650"
         width="29.810888"
         height="29.810888"
         x="69.839508"
         y="40.709618"
         rx="6.6098609"
         ry="6.6098609" />
      <rect
         ry="6.6098609"
         rx="6.6098609"
         y="40.709618"
         x="69.839508"
         height="29.810888"
         width="29.810888"
         id="rect1652"
         style="fill:none;fill-opacity:1;stroke:#000000;stroke-width:1;stroke-linecap:round;stroke-linejoin:round;stroke-miterlimit:4;stroke-dasharray:none;stroke-opacity:0.02" />
      <rect
         style="fill:none;fill-opacity:1;stroke:#000000;stroke-width:1.2;stroke-linecap:round;stroke-linejoin:round;stroke-miterlimit:4;stroke-dasharray:none;stroke-opacity:0.02"
         id="rect1654"
         width="29.810888"
         height="29.810888"
         x="69.839508"
         y="40.709618"
         rx="6.6098609"
         ry="6.6098609" />
      <rect
         ry="6.6098609"
         rx="6.6098609"
         y="40.709618"
         x="69.839508"
         height="29.810888"
         width="29.810888"
         id="rect1656"
         style="fill:none;fill-opacity:1;stroke:#000000;stroke-width:1.4;stroke-linecap:round;stroke-linejoin:round;stroke-miterlimit:4;stroke-dasharray:none;stroke-opacity:0.02" />
      <rect
         style="fill:none;fill-opacity:1;stroke:#000000;stroke-width:1.6;stroke-linecap:round;stroke-linejoin:round;stroke-miterlimit:4;stroke-dasharray:none;stroke-opacity:0.02"
         id="rect1658"
         width="29.810888"
         height="29.810888"
         x="69.839508"
         y="40.709618"
         rx="6.6098609"
         ry="6.6098609" />
      <rect
         ry="6.6098609"
         rx="6.6098609"
         y="40.709618"
         x="69.839508"
         height="29.810888"
         width="29.810888"
         id="rect1660"
         style="fill:none;fill-opacity:1;stroke:#000000;stroke-width:1.8;stroke-linecap:round;stroke-linejoin:round;stroke-miterlimit:4;stroke-dasharray:none;stroke-opacity:0.02" />
      <rect
         style="fill:none;fill-opacity:1;stroke:#000000;stroke-width:2;stroke-linecap:round;stroke-linejoin:round;stroke-miterlimit:4;stroke-dasharray:none;stroke-opacity:0.02"
         id="rect1662"
         width="29.810888"
         height="29.810888"
         x="69.839508"
         y="40.709618"
         rx="6.6098609"
         ry="6.6098609" />
      <rect
         ry="6.6098609"
         rx="6.6098609"
         y="40.709618"
         x="69.839508"
         height="29.810888"
         width="29.810888"
         id="rect1664"
         style="fill:none;fill-opacity:1;stroke:#000000;stroke-width:2.2;stroke-linecap:round;stroke-linejoin:round;stroke-miterlimit:4;stroke-dasharray:none;stroke-opacity:0.02" />
      <rect
         style="fill:none;fill-opacity:1;stroke:#000000;stroke-width:2.6;stroke-linecap:round;stroke-linejoin:round;stroke-miterlimit:4;stroke-dasharray:none;stroke-opacity:0.02"
         id="rect1666"
         width="29.810888"
         height="29.810888"
         x="69.839508"
         y="40.709618"
         rx="6.6098609"
         ry="6.6098609" />
      <rect
         ry="6.6098609"
         rx="6.6098609"
         y="40.709618"
         x="69.839508"
         height="29.810888"
         width="29.810888"
         id="rect1668"
         style="fill:none;fill-opacity:1;stroke:#000000;stroke-width:3;stroke-linecap:round;stroke-linejoin:round;stroke-miterlimit:4;stroke-dasharray:none;stroke-opacity:0.02" />
      <rect
         style="fill:none;fill-opacity:1;stroke:#000000;stroke-width:3.4;stroke-linecap:round;stroke-linejoin:round;stroke-miterlimit:4;stroke-dasharray:none;stroke-opacity:0.02"
         id="rect1670"
         width="29.810888"
         height="29.810888"
         x="69.839508"
         y="40.709618"
         rx="6.6098609"
         ry="6.6098609" />
      <rect
         ry="6.6098609"
         rx="6.6098609"
         y="40.709618"
         x="69.839508"
         height="29.810888"
         width="29.810888"
         id="rect1672"
         style="fill:none;fill-opacity:1;stroke:#000000;stroke-width:3.8;stroke-linecap:round;stroke-linejoin:round;stroke-miterlimit:4;stroke-dasharray:none;stroke-opacity:0.02" />
      <rect
         style="fill:none;fill-opacity:1;stroke:#000000;stroke-width:4.2;stroke-linecap:round;stroke-linejoin:round;stroke-miterlimit:4;stroke-dasharray:none;stroke-opacity:0.02"
         id="rect1674"
         width="29.810888"
         height="29.810888"
         x="69.839508"
         y="40.709618"
         rx="6.6098609"
         ry="6.6098609" />
      <rect
         ry="6.6098609"
         rx="6.6098609"
         y="40.709618"
         x="69.839508"
         height="29.810888"
         width="29.810888"
         id="rect1676"
         style="fill:none;fill-opacity:1;stroke:#000000;stroke-width:4.6;stroke-linecap:round;stroke-linejoin:round;stroke-miterlimit:4;stroke-dasharray:none;stroke-opacity:0.02" />
      <rect
         style="fill:none;fill-opacity:1;stroke:#000000;stroke-width:5;stroke-linecap:round;stroke-linejoin:round;stroke-miterlimit:4;stroke-dasharray:none;stroke-opacity:0.02"
         id="rect1678"
         width="29.810888"
         height="29.810888"
         x="69.839508"
         y="40.709618"
         rx="6.6098609"
         ry="6.6098609" />
    </g>
    <rect
       ry="6.4494534"
       rx="6.4494534"
       y="2.5391712"
       x="2.4074187"
       height="29.087439"
       width="29.087439"
       id="rect849"
       style="fill:url(#linearGradient1632);fill-opacity:1;stroke-width:2.68768;stroke-linecap:round;stroke-linejoin:round" />
    <path
       style="opacity:0.2;stroke-width:0.33364"
       d="m 11.325833,6.4481897 c -0.024,0 -0.04769,0.00593 -0.07169,0.00656 -0.0371,0.00105 -0.07374,0.00391 -0.110779,0.00656 -0.07661,0.00517 -0.152047,0.014375 -0.228075,0.026065 -0.04664,0.00719 -0.09315,0.011223 -0.139451,0.020857 -0.02164,0.00454 -0.04232,0.013152 -0.06386,0.018247 -0.0945,0.022105 -0.186729,0.050932 -0.278903,0.083415 -0.02967,0.010466 -0.06055,0.0158 -0.08992,0.027364 -0.03092,0.012106 -0.06068,0.027061 -0.09123,0.040402 -0.07709,0.033618 -0.151112,0.07479 -0.225467,0.115987 -0.0282,0.015649 -0.05826,0.026279 -0.08601,0.043013 -0.01279,0.00769 -0.02509,0.016847 -0.03779,0.024766 -0.03005,0.018789 -0.06047,0.035951 -0.08992,0.056039 -0.02937,0.020012 -0.05728,0.042559 -0.08601,0.063857 -0.107488,0.078409 -0.211771,0.1634712 -0.308877,0.2606504 L 7.5580559,9.1030527 c -0.098762,0.098837 -0.1851895,0.2058271 -0.2645657,0.3153943 -0.019558,0.026557 -0.040188,0.05242 -0.058649,0.079506 -0.02179,0.031954 -0.039684,0.065106 -0.059948,0.097753 -0.010971,0.017805 -0.024602,0.034161 -0.035195,0.05213 -0.016103,0.027339 -0.026645,0.056947 -0.041701,0.084714 -0.036229,0.066808 -0.072785,0.1330332 -0.1029608,0.2020088 -0.016166,0.036947 -0.032483,0.073289 -0.046922,0.1107792 -0.011349,0.02947 -0.017049,0.06015 -0.027364,0.08992 -0.031084,0.09007 -0.058271,0.180134 -0.079506,0.272385 -0.00504,0.02166 -0.015056,0.0421 -0.019545,0.06386 -0.00933,0.0453 -0.011349,0.09122 -0.018247,0.136845 -0.010971,0.07209 -0.01971,0.143732 -0.024766,0.216344 -0.00315,0.04315 -0.00807,0.0858 -0.00908,0.129026 -0.00107,0.04755 0.00117,0.09451 0.00265,0.142057 0.00177,0.05499 0.00542,0.109379 0.010466,0.164214 0.0053,0.05943 0.012862,0.118219 0.022156,0.177246 0.00769,0.04811 0.014501,0.09563 0.024766,0.143361 0.00782,0.03643 0.017994,0.07202 0.027364,0.108169 0.019722,0.07668 0.045081,0.151711 0.071675,0.226771 0.015712,0.04421 0.026216,0.08942 0.044312,0.132934 0.0087,0.02088 0.020731,0.04054 0.029974,0.06126 0.039394,0.08857 0.087375,0.173212 0.1368439,0.25805 0.018159,0.0311 0.030012,0.06461 0.04952,0.09514 l 0.00126,-0.0014 c 0.014375,0.0225 0.029205,0.0443 0.044312,0.06647 0.094197,0.138351 0.1990164,0.271907 0.3219111,0.394895 L 18.143372,23.517273 c 0,0 0.03444,0.02429 0.09253,0.05213 0.100451,0.04818 0.273023,0.101813 0.463969,0.07038 l 4.162681,0.920142 2.585711,0.572142 -0.574747,-2.577891 -1.053051,-4.71788 L 13.233909,7.241916 C 13.112374,7.1202924 12.980787,7.0148726 12.844228,6.9213088 c -0.02369,-0.016242 -0.0476,-0.031525 -0.07167,-0.046922 l 0.0014,-0.00126 c -0.02834,-0.018146 -0.05978,-0.028637 -0.08862,-0.04561 -0.0052,-0.00303 -0.01047,-0.00605 -0.01564,-0.00908 -0.08367,-0.04841 -0.166933,-0.095609 -0.25417,-0.13424 -0.01894,-0.00845 -0.03696,-0.019407 -0.05604,-0.027364 -0.04354,-0.018159 -0.0887,-0.028549 -0.132935,-0.044312 -0.07771,-0.027578 -0.155159,-0.054097 -0.23459,-0.074286 -0.0327,-0.00845 -0.06483,-0.017629 -0.09775,-0.024766 -0.05025,-0.010845 -0.100502,-0.016809 -0.15118,-0.024766 -0.05871,-0.00908 -0.116857,-0.018247 -0.175944,-0.023455 -0.05309,-0.00479 -0.10576,-0.00744 -0.159,-0.00908 -0.02749,-8.411e-4 -0.05461,-0.00782 -0.0821,-0.00782 z"
       id="path2" />
    <path
       style="fill:#ffbe69;stroke-width:0.33364"
       d="m 18.143111,23.183461 5.676923,-5.681245 1.053017,4.718346 -0.538864,1.525326 -1.471444,0.480735 z"
       id="path4" />
    <path
       style="opacity:0.372;fill:#ff00ff;stroke-width:0.33364"
       d="M 7.5575427,8.7696652 C 6.5003628,9.8276459 6.4997399,11.531251 7.5569185,12.589231 l 10.5861795,10.59422 c 0,0 0.546343,0.38256 0.98656,-0.130455 0.440217,-0.513013 0.471159,-1.267097 0.471159,-1.267097 0,0 1.26958,-0.244351 1.785435,-0.729453 0.515856,-0.485103 1.008095,-2.089684 1.008095,-2.089684 0,0 0.592475,0.152249 1.086736,-0.346099 0.494262,-0.498348 0.33895,-1.118447 0.33895,-1.118447 L 13.233823,6.907985 c -1.057178,-1.0579808 -2.75883,-1.0579807 -3.8160082,0 z"
       id="path6" />
    <path
       style="fill:#99a5eb;stroke-width:0.33364"
       d="M 9.9402588,6.5029298 22.3946,18.966704 c 0,0 0.591822,0.152186 1.086085,-0.346161 0.494273,-0.498334 0.339359,-1.118317 0.339359,-1.118317 L 13.233823,6.907985 C 12.336895,6.0103771 10.977827,5.8774482 9.9402588,6.5029298 Z"
       id="path8" />
    <path
       style="fill:#2c3b9c;stroke-width:0.33364"
       d="m 22.794116,24.211476 2.654076,0.58697 -0.591757,-2.650852 c 0,0 -0.727225,0.325042 -1.234107,0.832663 -0.506883,0.50762 -0.828212,1.231219 -0.828212,1.231219 z"
       id="path10" />
    <path
       style="fill:#24307f;stroke-width:0.33364"
       d="M 7.1397173,9.3147548 C 6.5297517,10.350403 6.6663346,11.697992 7.5568882,12.58922 L 18.143111,23.183461 c 0,0 0.546477,0.382794 0.986696,-0.130219 0.440216,-0.513015 0.471442,-1.267514 0.471442,-1.267514 z"
       id="path12" />
    <path
       style="fill:#2841d5;stroke-width:0.33364"
       d="M 7.5575427,8.7696652 C 7.3909164,8.9364189 7.253843,9.1209816 7.1397173,9.3147548 L 19.601249,21.785728 c 0,0 1.269222,-0.243864 1.785077,-0.728967 0.515857,-0.485103 1.008274,-2.090057 1.008274,-2.090057 L 9.9402588,6.5029298 c -0.185379,0.11175 -0.362194,0.2446823 -0.522444,0.4050552 z"
       id="path14" />
    <path
       style="opacity:0.2;stroke-width:0.33364"
       d="M 7.5575427,9.1035205 C 6.6426543,10.019102 6.520274,11.417311 7.1887576,12.463053 L 12.77415,6.8734298 C 11.729334,6.2043137 10.332703,6.3262581 9.4178148,7.2418391 Z"
       id="path16" />
    <path
       style="fill:#646989;stroke-width:0.33364"
       d="M 7.5575427,8.7696652 C 6.6426543,9.6852472 6.520274,11.083457 7.1887576,12.129199 L 12.77415,6.5395745 C 11.729334,5.8704588 10.332703,5.9924032 9.4178148,6.907985 Z"
       id="path18" />
    <path
       style="opacity:0.2;fill:#ffffff;stroke-width:0.33364"
       d="m 11.325833,6.1145498 c -0.024,0 -0.04769,0.00588 -0.07169,0.00652 -0.0371,0.00105 -0.07374,0.00392 -0.110779,0.00652 -0.07661,0.00513 -0.152047,0.014375 -0.228075,0.026065 -0.04664,0.0072 -0.09315,0.011185 -0.139451,0.020853 -0.02164,0.00455 -0.04232,0.013157 -0.06386,0.018246 -0.0945,0.022103 -0.186728,0.050936 -0.278902,0.08341 -0.02967,0.010504 -0.06055,0.015795 -0.08992,0.027369 -0.03092,0.012156 -0.06068,0.027057 -0.09123,0.040401 -0.07708,0.033615 -0.151112,0.074793 -0.225467,0.1159933 -0.0282,0.015649 -0.05826,0.026279 -0.08601,0.043013 -0.01279,0.00769 -0.02509,0.016847 -0.03779,0.024766 -0.03005,0.018789 -0.06046,0.035951 -0.08992,0.056039 -0.02937,0.020012 -0.05727,0.042559 -0.08601,0.063857 -0.107487,0.078409 -0.211771,0.1634763 -0.308877,0.2606567 L 7.5580572,8.7693434 c -0.098762,0.098837 -0.1851895,0.2058258 -0.2645658,0.3153943 -0.019558,0.026557 -0.040188,0.05242 -0.058649,0.079506 -0.02179,0.031954 -0.039684,0.065106 -0.059948,0.097753 -0.010971,0.017805 -0.024602,0.034161 -0.035195,0.05213 -0.016103,0.027339 -0.026645,0.056947 -0.041701,0.084714 -0.036229,0.066808 -0.072785,0.1330332 -0.1029608,0.2020088 -0.016166,0.036947 -0.032483,0.073289 -0.046922,0.110779 -0.011349,0.02947 -0.017049,0.06015 -0.027364,0.089922 -0.031084,0.090073 -0.058271,0.1801342 -0.079494,0.2723865 -0.00504,0.02166 -0.015056,0.0421 -0.019546,0.06386 -0.00933,0.0453 -0.011349,0.09122 -0.018247,0.136844 -0.010971,0.07209 -0.01971,0.143731 -0.024766,0.216345 -0.00315,0.04315 -0.00807,0.0858 -0.00908,0.129024 -0.00107,0.04755 0.00117,0.09451 0.00265,0.142059 8.474e-4,0.02727 0.00353,0.05435 0.00517,0.08145 5.17e-4,-0.0063 8.474e-4,-0.01261 0.00126,-0.0189 0.00504,-0.07261 0.013833,-0.144247 0.024766,-0.216344 0.00694,-0.04562 0.00895,-0.09155 0.018247,-0.136845 0.00454,-0.02175 0.014514,-0.04219 0.019546,-0.06386 0.021235,-0.09225 0.048422,-0.182313 0.079494,-0.272385 0.01034,-0.02977 0.015977,-0.06045 0.027364,-0.08992 0.014426,-0.03749 0.030756,-0.073832 0.046922,-0.1107791 0.030176,-0.068977 0.066732,-0.1352009 0.1029608,-0.2020088 0.015056,-0.027755 0.025598,-0.057376 0.041701,-0.084714 0.010592,-0.017969 0.024199,-0.034324 0.035195,-0.05213 0.020264,-0.032647 0.038158,-0.065786 0.059948,-0.097753 0.018461,-0.027086 0.039091,-0.052937 0.058649,-0.079506 0.07938,-0.1095685 0.1657978,-0.2165519 0.2645658,-0.3153943 l 1.8597836,-1.861088 c 0.09711,-0.097186 0.201387,-0.1822426 0.308877,-0.2606567 0.02875,-0.021298 0.05664,-0.043845 0.08601,-0.063857 0.02946,-0.020088 0.05987,-0.03725 0.08992,-0.056039 0.0127,-0.00794 0.02501,-0.017049 0.03779,-0.024766 0.02775,-0.016733 0.05782,-0.027364 0.08601,-0.043013 0.07436,-0.041197 0.148387,-0.082381 0.225467,-0.115987 0.03055,-0.013341 0.0603,-0.028246 0.09123,-0.040402 0.02937,-0.011601 0.06026,-0.016872 0.08992,-0.027364 0.09218,-0.032471 0.184402,-0.06131 0.278902,-0.083415 0.02154,-0.00504 0.04223,-0.013695 0.06386,-0.018247 0.04629,-0.00971 0.0928,-0.013657 0.139451,-0.020857 0.07603,-0.011727 0.151473,-0.020933 0.228075,-0.026065 0.03703,-0.00265 0.07368,-0.00542 0.110779,-0.00656 0.024,-6.406e-4 0.04769,-0.00656 0.07169,-0.00656 0.0275,0 0.05461,0.00694 0.0821,0.00782 0.05324,0.00164 0.105911,0.00429 0.158999,0.00908 0.05909,0.00517 0.117236,0.014338 0.175944,0.023455 0.05067,0.00794 0.100931,0.013909 0.15118,0.024766 0.03293,0.00719 0.06506,0.016368 0.09775,0.024766 0.07943,0.020189 0.15688,0.046708 0.234591,0.074286 0.04424,0.015763 0.08939,0.026166 0.132935,0.044312 0.01909,0.00794 0.0371,0.01894 0.05604,0.027364 0.08724,0.038637 0.170468,0.085836 0.254141,0.1342374 0.0052,0.00303 0.01047,0.00605 0.01564,0.00908 0.02884,0.016986 0.06029,0.027465 0.08862,0.045611 l -0.0013,0.00126 c 0.02407,0.015397 0.04798,0.03068 0.07168,0.046922 0.136557,0.093566 0.268145,0.1989785 0.389681,0.3206072 l 10.586556,10.5943763 1.053051,4.71788 0.496551,2.226657 0.0782,0.01759 L 24.87348,22.220279 23.820429,17.5024 13.233871,6.9080239 C 13.112336,6.7864003 12.980749,6.6809805 12.84419,6.5874167 12.8205,6.5711747 12.79659,6.5558917 12.77252,6.5404947 l 0.0013,-0.00126 c -0.02834,-0.018146 -0.05978,-0.028637 -0.08862,-0.045611 -0.0052,-0.00303 -0.01047,-0.00605 -0.01564,-0.00908 -0.08367,-0.04841 -0.166902,-0.095607 -0.25414,-0.134237 -0.01894,-0.00842 -0.03696,-0.019404 -0.05604,-0.027369 -0.04354,-0.018151 -0.0887,-0.028552 -0.132934,-0.044312 -0.07772,-0.027581 -0.155159,-0.054101 -0.234591,-0.074287 -0.0327,-0.00839 -0.06483,-0.017621 -0.09775,-0.024762 -0.05025,-0.010857 -0.100502,-0.016814 -0.15118,-0.024762 -0.05871,-0.00912 -0.116857,-0.018251 -0.175944,-0.023458 -0.05309,-0.00482 -0.10576,-0.00745 -0.159,-0.00912 -0.02749,-8.409e-4 -0.05461,-0.00782 -0.0821,-0.00782 z"
       id="path20" />
  </g>
</svg>
