<?xml version="1.0" encoding="UTF-8" standalone="no"?>
<svg
   width="128"
   height="128"
   viewBox="0 0 33.866666 33.866668"
   version="1.1"
   id="svg1443"
   inkscape:version="1.1.2 (0a00cf5339, 2022-02-04)"
   sodipodi:docname="x-rebirth.svg"
   xmlns:inkscape="http://www.inkscape.org/namespaces/inkscape"
   xmlns:sodipodi="http://sodipodi.sourceforge.net/DTD/sodipodi-0.dtd"
   xmlns:xlink="http://www.w3.org/1999/xlink"
   xmlns="http://www.w3.org/2000/svg"
   xmlns:svg="http://www.w3.org/2000/svg"
   xmlns:rdf="http://www.w3.org/1999/02/22-rdf-syntax-ns#"
   xmlns:cc="http://creativecommons.org/ns#"
   xmlns:dc="http://purl.org/dc/elements/1.1/">
  <defs
     id="defs1437">
    <linearGradient
       inkscape:collect="always"
       id="linearGradient1812">
      <stop
         style="stop-color:#e9a818;stop-opacity:0.97254902"
         offset="0"
         id="stop1808" />
      <stop
         style="stop-color:#ffffff;stop-opacity:0.87638384"
         offset="1"
         id="stop1810" />
    </linearGradient>
    <linearGradient
       inkscape:collect="always"
       id="linearGradient961">
      <stop
         style="stop-color:#e3b500;stop-opacity:1"
         offset="0"
         id="stop957" />
      <stop
         style="stop-color:#eaa51c;stop-opacity:0.96862745"
         offset="1"
         id="stop959" />
    </linearGradient>
    <filter
       color-interpolation-filters="sRGB"
       height="1.1311001"
       width="1.1106"
       y="-0.065563001"
       x="-0.055319"
       id="c-9">
      <feGaussianBlur
         id="feGaussianBlur1093"
         stdDeviation="1.1062912" />
    </filter>
    <linearGradient
       gradientUnits="userSpaceOnUse"
       gradientTransform="matrix(0.13235,0,0,0.13075,-32.379,1.0873)"
       y2="269.48999"
       y1="235.14999"
       x2="657.65002"
       x1="319.20999"
       id="a-12">
      <stop
         id="stop1076"
         offset="0"
         stop-color="#e54c18" />
      <stop
         id="stop1078"
         offset="1"
         stop-color="#fec350" />
    </linearGradient>
    <radialGradient
       inkscape:collect="always"
       xlink:href="#linearGradient961"
       id="radialGradient963"
       cx="16.951138"
       cy="2.5104072"
       fx="16.951138"
       fy="2.5104072"
       r="14.543719"
       gradientUnits="userSpaceOnUse"
       gradientTransform="matrix(7.138573,0,0,2.2345134,-104.05579,-3.0991313)" />
    <linearGradient
       id="linearGradient4146-2">
      <stop
         style="stop-color:#f6f6f6;stop-opacity:1;"
         offset="0"
         id="stop4148-2" />
      <stop
         style="stop-color:#e2e2e2;stop-opacity:1;"
         offset="1"
         id="stop4150-8" />
    </linearGradient>
    <linearGradient
       inkscape:collect="always"
       xlink:href="#linearGradient1812"
       id="linearGradient1814"
       x1="97.174294"
       y1="222.06548"
       x2="97.174294"
       y2="35.636913"
       gradientUnits="userSpaceOnUse" />
  </defs>
  <sodipodi:namedview
     id="base"
     pagecolor="#ffffff"
     bordercolor="#666666"
     borderopacity="1.0"
     inkscape:pageopacity="0.0"
     inkscape:pageshadow="2"
     inkscape:zoom="0.70000001"
     inkscape:cx="-425"
     inkscape:cy="-152.85714"
     inkscape:document-units="mm"
     inkscape:current-layer="layer1"
     inkscape:document-rotation="0"
     showgrid="false"
     units="px"
     inkscape:window-width="1920"
     inkscape:window-height="995"
     inkscape:window-x="0"
     inkscape:window-y="0"
     inkscape:window-maximized="1"
     showguides="true"
     inkscape:guide-bbox="true"
     inkscape:pagecheckerboard="0" />
  <metadata
     id="metadata1440">
    <rdf:RDF>
      <cc:Work
         rdf:about="">
        <dc:format>image/svg+xml</dc:format>
        <dc:type
           rdf:resource="http://purl.org/dc/dcmitype/StillImage" />
      </cc:Work>
    </rdf:RDF>
  </metadata>
  <g
     inkscape:label="Capa 1"
     inkscape:groupmode="layer"
     id="layer1">
    <g
       style="opacity:0.295"
       transform="matrix(0.97573206,0,0,0.97573206,-65.737228,-37.182508)"
       id="g1702">
      <rect
         ry="6.6098609"
         rx="6.6098609"
         y="40.709618"
         x="69.839508"
         height="29.810888"
         width="29.810888"
         id="rect1634"
         style="fill:none;fill-opacity:1;stroke:#000000;stroke-width:0.1;stroke-linecap:round;stroke-linejoin:round;stroke-miterlimit:4;stroke-dasharray:none;stroke-opacity:0.02" />
      <rect
         style="fill:none;fill-opacity:1;stroke:#000000;stroke-width:0.2;stroke-linecap:round;stroke-linejoin:round;stroke-miterlimit:4;stroke-dasharray:none;stroke-opacity:0.02"
         id="rect1638"
         width="29.810888"
         height="29.810888"
         x="69.839508"
         y="40.709618"
         rx="6.6098609"
         ry="6.6098609" />
      <rect
         ry="6.6098609"
         rx="6.6098609"
         y="40.709618"
         x="69.839508"
         height="29.810888"
         width="29.810888"
         id="rect1640"
         style="fill:none;fill-opacity:1;stroke:#000000;stroke-width:0.3;stroke-linecap:round;stroke-linejoin:round;stroke-miterlimit:4;stroke-dasharray:none;stroke-opacity:0.02" />
      <rect
         style="fill:none;fill-opacity:1;stroke:#000000;stroke-width:0.4;stroke-linecap:round;stroke-linejoin:round;stroke-miterlimit:4;stroke-dasharray:none;stroke-opacity:0.02"
         id="rect1642"
         width="29.810888"
         height="29.810888"
         x="69.839508"
         y="40.709618"
         rx="6.6098609"
         ry="6.6098609" />
      <rect
         ry="6.6098609"
         rx="6.6098609"
         y="40.709618"
         x="69.839508"
         height="29.810888"
         width="29.810888"
         id="rect1644"
         style="fill:none;fill-opacity:1;stroke:#000000;stroke-width:0.5;stroke-linecap:round;stroke-linejoin:round;stroke-miterlimit:4;stroke-dasharray:none;stroke-opacity:0.02" />
      <rect
         style="fill:none;fill-opacity:1;stroke:#000000;stroke-width:0.6;stroke-linecap:round;stroke-linejoin:round;stroke-miterlimit:4;stroke-dasharray:none;stroke-opacity:0.02"
         id="rect1646"
         width="29.810888"
         height="29.810888"
         x="69.839508"
         y="40.709618"
         rx="6.6098609"
         ry="6.6098609" />
      <rect
         ry="6.6098609"
         rx="6.6098609"
         y="40.709618"
         x="69.839508"
         height="29.810888"
         width="29.810888"
         id="rect1648"
         style="fill:none;fill-opacity:1;stroke:#000000;stroke-width:0.7;stroke-linecap:round;stroke-linejoin:round;stroke-miterlimit:4;stroke-dasharray:none;stroke-opacity:0.02" />
      <rect
         style="fill:none;fill-opacity:1;stroke:#000000;stroke-width:0.8;stroke-linecap:round;stroke-linejoin:round;stroke-miterlimit:4;stroke-dasharray:none;stroke-opacity:0.02"
         id="rect1650"
         width="29.810888"
         height="29.810888"
         x="69.839508"
         y="40.709618"
         rx="6.6098609"
         ry="6.6098609" />
      <rect
         ry="6.6098609"
         rx="6.6098609"
         y="40.709618"
         x="69.839508"
         height="29.810888"
         width="29.810888"
         id="rect1652"
         style="fill:none;fill-opacity:1;stroke:#000000;stroke-width:1;stroke-linecap:round;stroke-linejoin:round;stroke-miterlimit:4;stroke-dasharray:none;stroke-opacity:0.02" />
      <rect
         style="fill:none;fill-opacity:1;stroke:#000000;stroke-width:1.2;stroke-linecap:round;stroke-linejoin:round;stroke-miterlimit:4;stroke-dasharray:none;stroke-opacity:0.02"
         id="rect1654"
         width="29.810888"
         height="29.810888"
         x="69.839508"
         y="40.709618"
         rx="6.6098609"
         ry="6.6098609" />
      <rect
         ry="6.6098609"
         rx="6.6098609"
         y="40.709618"
         x="69.839508"
         height="29.810888"
         width="29.810888"
         id="rect1656"
         style="fill:none;fill-opacity:1;stroke:#000000;stroke-width:1.4;stroke-linecap:round;stroke-linejoin:round;stroke-miterlimit:4;stroke-dasharray:none;stroke-opacity:0.02" />
      <rect
         style="fill:none;fill-opacity:1;stroke:#000000;stroke-width:1.6;stroke-linecap:round;stroke-linejoin:round;stroke-miterlimit:4;stroke-dasharray:none;stroke-opacity:0.02"
         id="rect1658"
         width="29.810888"
         height="29.810888"
         x="69.839508"
         y="40.709618"
         rx="6.6098609"
         ry="6.6098609" />
      <rect
         ry="6.6098609"
         rx="6.6098609"
         y="40.709618"
         x="69.839508"
         height="29.810888"
         width="29.810888"
         id="rect1660"
         style="fill:none;fill-opacity:1;stroke:#000000;stroke-width:1.8;stroke-linecap:round;stroke-linejoin:round;stroke-miterlimit:4;stroke-dasharray:none;stroke-opacity:0.02" />
      <rect
         style="fill:none;fill-opacity:1;stroke:#000000;stroke-width:2;stroke-linecap:round;stroke-linejoin:round;stroke-miterlimit:4;stroke-dasharray:none;stroke-opacity:0.02"
         id="rect1662"
         width="29.810888"
         height="29.810888"
         x="69.839508"
         y="40.709618"
         rx="6.6098609"
         ry="6.6098609" />
      <rect
         ry="6.6098609"
         rx="6.6098609"
         y="40.709618"
         x="69.839508"
         height="29.810888"
         width="29.810888"
         id="rect1664"
         style="fill:none;fill-opacity:1;stroke:#000000;stroke-width:2.2;stroke-linecap:round;stroke-linejoin:round;stroke-miterlimit:4;stroke-dasharray:none;stroke-opacity:0.02" />
      <rect
         style="fill:none;fill-opacity:1;stroke:#000000;stroke-width:2.6;stroke-linecap:round;stroke-linejoin:round;stroke-miterlimit:4;stroke-dasharray:none;stroke-opacity:0.02"
         id="rect1666"
         width="29.810888"
         height="29.810888"
         x="69.839508"
         y="40.709618"
         rx="6.6098609"
         ry="6.6098609" />
      <rect
         ry="6.6098609"
         rx="6.6098609"
         y="40.709618"
         x="69.839508"
         height="29.810888"
         width="29.810888"
         id="rect1668"
         style="fill:none;fill-opacity:1;stroke:#000000;stroke-width:3;stroke-linecap:round;stroke-linejoin:round;stroke-miterlimit:4;stroke-dasharray:none;stroke-opacity:0.02" />
      <rect
         style="fill:none;fill-opacity:1;stroke:#000000;stroke-width:3.4;stroke-linecap:round;stroke-linejoin:round;stroke-miterlimit:4;stroke-dasharray:none;stroke-opacity:0.02"
         id="rect1670"
         width="29.810888"
         height="29.810888"
         x="69.839508"
         y="40.709618"
         rx="6.6098609"
         ry="6.6098609" />
      <rect
         ry="6.6098609"
         rx="6.6098609"
         y="40.709618"
         x="69.839508"
         height="29.810888"
         width="29.810888"
         id="rect1672"
         style="fill:none;fill-opacity:1;stroke:#000000;stroke-width:3.8;stroke-linecap:round;stroke-linejoin:round;stroke-miterlimit:4;stroke-dasharray:none;stroke-opacity:0.02" />
      <rect
         style="fill:none;fill-opacity:1;stroke:#000000;stroke-width:4.2;stroke-linecap:round;stroke-linejoin:round;stroke-miterlimit:4;stroke-dasharray:none;stroke-opacity:0.02"
         id="rect1674"
         width="29.810888"
         height="29.810888"
         x="69.839508"
         y="40.709618"
         rx="6.6098609"
         ry="6.6098609" />
      <rect
         ry="6.6098609"
         rx="6.6098609"
         y="40.709618"
         x="69.839508"
         height="29.810888"
         width="29.810888"
         id="rect1676"
         style="fill:none;fill-opacity:1;stroke:#000000;stroke-width:4.6;stroke-linecap:round;stroke-linejoin:round;stroke-miterlimit:4;stroke-dasharray:none;stroke-opacity:0.02" />
      <rect
         style="fill:none;fill-opacity:1;stroke:#000000;stroke-width:5;stroke-linecap:round;stroke-linejoin:round;stroke-miterlimit:4;stroke-dasharray:none;stroke-opacity:0.02"
         id="rect1678"
         width="29.810888"
         height="29.810888"
         x="69.839508"
         y="40.709618"
         rx="6.6098609"
         ry="6.6098609" />
    </g>
    <rect
       ry="6.4494534"
       rx="6.4494534"
       y="2.5391712"
       x="2.4074187"
       height="29.087439"
       width="29.087439"
       id="rect849"
       style="fill:url(#radialGradient963);fill-opacity:1;stroke-width:2.68768;stroke-linecap:round;stroke-linejoin:round" />
    <g
       id="g3400"
       style="opacity:0.21207178">
      <path
         id="path3163"
         style="color:#000000;fill:#480000;fill-opacity:0.0276753;stroke-width:1.14618;stroke-linecap:round;stroke-linejoin:round;-inkscape-stroke:none"
         d="m 23.184853,7.7465923 a 3.7250954,3.7250954 0 0 0 -2.57452,1.2267986 L 18.633709,11.165506 17.806887,9.6772238 a 3.7250954,3.7250954 0 0 0 -2.233972,-1.7730184 3.7250954,3.7250954 0 0 0 -2.831869,0.3245281 3.7250954,3.7250954 0 0 0 -1.44849,5.0658415 l 2.06654,3.719669 -3.6865969,4.088123 a 3.7250954,3.7250954 0 0 0 0.2707847,5.26066 3.7250954,3.7250954 0 0 0 5.2606612,-0.270784 l 1.979724,-2.195215 0.826823,1.488798 a 3.7250954,3.7250954 0 0 0 5.066357,1.44849 3.7250954,3.7250954 0 0 0 1.445906,-5.066357 l -2.065506,-3.718636 3.687113,-4.088639 A 3.7250954,3.7250954 0 0 0 25.870994,8.7000226 3.7250954,3.7250954 0 0 0 23.184853,7.7465923 Z" />
      <path
         id="path3381"
         style="color:#000000;fill:#480000;fill-opacity:0.0276753;stroke-width:1.14618;stroke-linecap:round;stroke-linejoin:round;-inkscape-stroke:none"
         d="m 23.858123,8.1363802 a 3.7250954,3.7250954 0 0 0 -2.57452,1.2267986 l -1.976624,2.1921152 -0.826822,-1.488282 a 3.7250954,3.7250954 0 0 0 -2.233972,-1.7730187 3.7250954,3.7250954 0 0 0 -2.831869,0.3245281 3.7250954,3.7250954 0 0 0 -1.44849,5.0658416 l 2.06654,3.719669 -3.686597,4.088123 a 3.7250954,3.7250954 0 0 0 0.270785,5.26066 3.7250954,3.7250954 0 0 0 5.260661,-0.270784 l 1.979724,-2.195215 0.826823,1.488798 a 3.7250954,3.7250954 0 0 0 5.066357,1.44849 3.7250954,3.7250954 0 0 0 1.445906,-5.066357 l -2.065506,-3.718636 3.687113,-4.088639 A 3.7250954,3.7250954 0 0 0 26.544264,9.0898105 3.7250954,3.7250954 0 0 0 23.858123,8.1363802 Z" />
      <path
         id="path3383"
         style="color:#000000;fill:#480000;fill-opacity:0.0276753;stroke-width:1.14618;stroke-linecap:round;stroke-linejoin:round;-inkscape-stroke:none"
         d="m 24.342405,8.4316741 a 3.7250954,3.7250954 0 0 0 -2.57452,1.2267986 l -1.976624,2.1921153 -0.826822,-1.488282 a 3.7250954,3.7250954 0 0 0 -2.233972,-1.7730188 3.7250954,3.7250954 0 0 0 -2.831869,0.3245281 3.7250954,3.7250954 0 0 0 -1.44849,5.0658417 l 2.06654,3.719669 -3.686597,4.088123 a 3.7250954,3.7250954 0 0 0 0.270785,5.26066 3.7250954,3.7250954 0 0 0 5.260661,-0.270784 l 1.979724,-2.195215 0.826823,1.488798 a 3.7250954,3.7250954 0 0 0 5.066357,1.44849 3.7250954,3.7250954 0 0 0 1.445906,-5.066357 l -2.065506,-3.718636 3.687113,-4.088639 A 3.7250954,3.7250954 0 0 0 27.028546,9.3851044 3.7250954,3.7250954 0 0 0 24.342405,8.4316741 Z" />
      <path
         id="path3385"
         style="color:#000000;fill:#480000;fill-opacity:0.0276753;stroke-width:1.14618;stroke-linecap:round;stroke-linejoin:round;-inkscape-stroke:none"
         d="m 24.673134,8.6206622 a 3.7250954,3.7250954 0 0 0 -2.57452,1.2267986 L 20.12199,12.039576 19.295168,10.551294 a 3.7250954,3.7250954 0 0 0 -2.233972,-1.7730187 3.7250954,3.7250954 0 0 0 -2.831869,0.3245281 3.7250954,3.7250954 0 0 0 -1.44849,5.0658416 l 2.06654,3.719669 -3.686597,4.088123 a 3.7250954,3.7250954 0 0 0 0.270785,5.26066 3.7250954,3.7250954 0 0 0 5.260661,-0.270784 l 1.979724,-2.195215 0.826823,1.488798 a 3.7250954,3.7250954 0 0 0 5.066357,1.44849 3.7250954,3.7250954 0 0 0 1.445906,-5.066357 L 23.94553,18.923393 27.632643,14.834754 A 3.7250954,3.7250954 0 0 0 27.359275,9.5740925 3.7250954,3.7250954 0 0 0 24.673134,8.6206622 Z" />
      <path
         id="path3387"
         style="color:#000000;fill:#480000;fill-opacity:0.0276753;stroke-width:1.14618;stroke-linecap:round;stroke-linejoin:round;-inkscape-stroke:none"
         d="m 24.921181,8.7387798 a 3.7250954,3.7250954 0 0 0 -2.57452,1.2267986 l -1.976624,2.1921156 -0.826822,-1.488282 a 3.7250954,3.7250954 0 0 0 -2.233972,-1.7730191 3.7250954,3.7250954 0 0 0 -2.831869,0.3245281 3.7250954,3.7250954 0 0 0 -1.44849,5.065842 l 2.06654,3.719669 -3.686597,4.088123 a 3.7250954,3.7250954 0 0 0 0.270785,5.26066 3.7250954,3.7250954 0 0 0 5.260661,-0.270784 l 1.979724,-2.195215 0.826823,1.488798 a 3.7250954,3.7250954 0 0 0 5.066357,1.44849 3.7250954,3.7250954 0 0 0 1.445906,-5.066357 L 24.193577,19.041511 27.88069,14.952872 A 3.7250954,3.7250954 0 0 0 27.607322,9.6922101 3.7250954,3.7250954 0 0 0 24.921181,8.7387798 Z" />
      <path
         id="path3389"
         style="color:#000000;fill:#480000;fill-opacity:0.0276753;stroke-width:1.14618;stroke-linecap:round;stroke-linejoin:round;-inkscape-stroke:none"
         d="m 25.086545,8.8037444 a 3.7250954,3.7250954 0 0 0 -2.57452,1.2267986 l -1.976624,2.192116 -0.826822,-1.488282 a 3.7250954,3.7250954 0 0 0 -2.233972,-1.7730195 3.7250954,3.7250954 0 0 0 -2.831869,0.3245281 3.7250954,3.7250954 0 0 0 -1.44849,5.0658424 l 2.06654,3.719669 -3.686597,4.088123 a 3.7250954,3.7250954 0 0 0 0.270785,5.26066 3.7250954,3.7250954 0 0 0 5.260661,-0.270784 l 1.979724,-2.195215 0.826823,1.488798 a 3.7250954,3.7250954 0 0 0 5.066357,1.44849 3.7250954,3.7250954 0 0 0 1.445906,-5.066357 l -2.065506,-3.718636 3.687113,-4.088639 A 3.7250954,3.7250954 0 0 0 27.772686,9.7571747 3.7250954,3.7250954 0 0 0 25.086545,8.8037444 Z" />
      <path
         id="path3391"
         style="color:#000000;fill:#480000;fill-opacity:0.0276753;stroke-width:1.14618;stroke-linecap:round;stroke-linejoin:round;-inkscape-stroke:none"
         d="m 25.210568,8.8155562 a 3.7250954,3.7250954 0 0 0 -2.57452,1.2267988 l -1.976624,2.192116 -0.826822,-1.488282 A 3.7250954,3.7250954 0 0 0 17.59863,8.9731693 3.7250954,3.7250954 0 0 0 14.766761,9.2976974 3.7250954,3.7250954 0 0 0 13.318271,14.36354 l 2.06654,3.719669 -3.686597,4.088123 a 3.7250954,3.7250954 0 0 0 0.270785,5.26066 3.7250954,3.7250954 0 0 0 5.260661,-0.270784 l 1.979724,-2.195215 0.826823,1.488798 a 3.7250954,3.7250954 0 0 0 5.066357,1.44849 3.7250954,3.7250954 0 0 0 1.445906,-5.066357 l -2.065506,-3.718636 3.687113,-4.088639 A 3.7250954,3.7250954 0 0 0 27.896709,9.7689865 3.7250954,3.7250954 0 0 0 25.210568,8.8155562 Z" />
    </g>
    <path
       id="path1080"
       style="color:#000000;fill:url(#linearGradient1814);stroke-width:4.33202;stroke-linecap:round;stroke-linejoin:round;-inkscape-stroke:none;fill-opacity:1"
       d="M 84.011719 27.582031 A 14.079101 14.079101 0 0 0 74.28125 32.21875 L 66.810547 40.503906 L 63.685547 34.878906 A 14.079101 14.079101 0 0 0 55.242188 28.177734 A 14.079101 14.079101 0 0 0 44.539062 29.404297 A 14.079101 14.079101 0 0 0 39.064453 48.550781 L 46.875 62.609375 L 32.941406 78.060547 A 14.079101 14.079101 0 0 0 33.964844 97.943359 A 14.079101 14.079101 0 0 0 53.847656 96.919922 L 61.330078 88.623047 L 64.455078 94.25 A 14.079101 14.079101 0 0 0 83.603516 99.724609 A 14.079101 14.079101 0 0 0 89.068359 80.576172 L 81.261719 66.521484 L 95.197266 51.068359 A 14.079101 14.079101 0 0 0 94.164062 31.185547 A 14.079101 14.079101 0 0 0 84.011719 27.582031 z "
       transform="scale(0.26458333)" />
  </g>
</svg>
