<?xml version="1.0" encoding="UTF-8" standalone="no"?>
<svg
   width="128"
   height="128"
   viewBox="0 0 33.866666 33.866668"
   version="1.1"
   id="svg1443"
   inkscape:version="1.1.2 (0a00cf5339, 2022-02-04)"
   sodipodi:docname="xcas.svg"
   xmlns:inkscape="http://www.inkscape.org/namespaces/inkscape"
   xmlns:sodipodi="http://sodipodi.sourceforge.net/DTD/sodipodi-0.dtd"
   xmlns:xlink="http://www.w3.org/1999/xlink"
   xmlns="http://www.w3.org/2000/svg"
   xmlns:svg="http://www.w3.org/2000/svg"
   xmlns:rdf="http://www.w3.org/1999/02/22-rdf-syntax-ns#"
   xmlns:cc="http://creativecommons.org/ns#"
   xmlns:dc="http://purl.org/dc/elements/1.1/">
  <defs
     id="defs1437">
    <linearGradient
       inkscape:collect="always"
       id="linearGradient1041">
      <stop
         style="stop-color:#ffffff;stop-opacity:1;"
         offset="0"
         id="stop1037" />
      <stop
         style="stop-color:#e061bd;stop-opacity:0.97647059"
         offset="1"
         id="stop1039" />
    </linearGradient>
    <linearGradient
       inkscape:collect="always"
       id="linearGradient961">
      <stop
         style="stop-color:#c988fa;stop-opacity:1"
         offset="0"
         id="stop957" />
      <stop
         style="stop-color:#e852a6;stop-opacity:0.96862745"
         offset="1"
         id="stop959" />
    </linearGradient>
    <filter
       color-interpolation-filters="sRGB"
       height="1.1311001"
       width="1.1106"
       y="-0.065563001"
       x="-0.055319"
       id="c-9">
      <feGaussianBlur
         id="feGaussianBlur1093"
         stdDeviation="1.1062912" />
    </filter>
    <linearGradient
       gradientUnits="userSpaceOnUse"
       gradientTransform="matrix(0.13235,0,0,0.13075,-32.379,1.0873)"
       y2="269.48999"
       y1="235.14999"
       x2="657.65002"
       x1="319.20999"
       id="a-12">
      <stop
         id="stop1076"
         offset="0"
         stop-color="#e54c18" />
      <stop
         id="stop1078"
         offset="1"
         stop-color="#fec350" />
    </linearGradient>
    <radialGradient
       inkscape:collect="always"
       xlink:href="#linearGradient961"
       id="radialGradient963"
       cx="16.951138"
       cy="2.5104072"
       fx="16.951138"
       fy="2.5104072"
       r="14.543719"
       gradientUnits="userSpaceOnUse"
       gradientTransform="matrix(7.138573,0,0,2.2345134,-103.92216,-3.0991313)" />
    <linearGradient
       id="linearGradient4146-2">
      <stop
         style="stop-color:#f6f6f6;stop-opacity:1;"
         offset="0"
         id="stop4148-2" />
      <stop
         style="stop-color:#e2e2e2;stop-opacity:1;"
         offset="1"
         id="stop4150-8" />
    </linearGradient>
    <linearGradient
       inkscape:collect="always"
       xlink:href="#linearGradient1041"
       id="linearGradient1043"
       x1="6.6359749"
       y1="6.7930145"
       x2="6.6359749"
       y2="55.302433"
       gradientUnits="userSpaceOnUse" />
  </defs>
  <sodipodi:namedview
     id="base"
     pagecolor="#ffffff"
     bordercolor="#666666"
     borderopacity="1.0"
     inkscape:pageopacity="0.0"
     inkscape:pageshadow="2"
     inkscape:zoom="1.979899"
     inkscape:cx="90.66119"
     inkscape:cy="47.982246"
     inkscape:document-units="mm"
     inkscape:current-layer="layer1"
     inkscape:document-rotation="0"
     showgrid="false"
     units="px"
     inkscape:window-width="1920"
     inkscape:window-height="995"
     inkscape:window-x="0"
     inkscape:window-y="0"
     inkscape:window-maximized="1"
     showguides="true"
     inkscape:guide-bbox="true"
     inkscape:pagecheckerboard="0" />
  <metadata
     id="metadata1440">
    <rdf:RDF>
      <cc:Work
         rdf:about="">
        <dc:format>image/svg+xml</dc:format>
        <dc:type
           rdf:resource="http://purl.org/dc/dcmitype/StillImage" />
      </cc:Work>
    </rdf:RDF>
  </metadata>
  <g
     inkscape:label="Capa 1"
     inkscape:groupmode="layer"
     id="layer1">
    <g
       style="opacity:0.295"
       transform="matrix(0.97573206,0,0,0.97573206,-65.737228,-37.182508)"
       id="g1702">
      <rect
         ry="6.6098609"
         rx="6.6098609"
         y="40.709618"
         x="69.839508"
         height="29.810888"
         width="29.810888"
         id="rect1634"
         style="fill:none;fill-opacity:1;stroke:#000000;stroke-width:0.1;stroke-linecap:round;stroke-linejoin:round;stroke-miterlimit:4;stroke-dasharray:none;stroke-opacity:0.02" />
      <rect
         style="fill:none;fill-opacity:1;stroke:#000000;stroke-width:0.2;stroke-linecap:round;stroke-linejoin:round;stroke-miterlimit:4;stroke-dasharray:none;stroke-opacity:0.02"
         id="rect1638"
         width="29.810888"
         height="29.810888"
         x="69.839508"
         y="40.709618"
         rx="6.6098609"
         ry="6.6098609" />
      <rect
         ry="6.6098609"
         rx="6.6098609"
         y="40.709618"
         x="69.839508"
         height="29.810888"
         width="29.810888"
         id="rect1640"
         style="fill:none;fill-opacity:1;stroke:#000000;stroke-width:0.3;stroke-linecap:round;stroke-linejoin:round;stroke-miterlimit:4;stroke-dasharray:none;stroke-opacity:0.02" />
      <rect
         style="fill:none;fill-opacity:1;stroke:#000000;stroke-width:0.4;stroke-linecap:round;stroke-linejoin:round;stroke-miterlimit:4;stroke-dasharray:none;stroke-opacity:0.02"
         id="rect1642"
         width="29.810888"
         height="29.810888"
         x="69.839508"
         y="40.709618"
         rx="6.6098609"
         ry="6.6098609" />
      <rect
         ry="6.6098609"
         rx="6.6098609"
         y="40.709618"
         x="69.839508"
         height="29.810888"
         width="29.810888"
         id="rect1644"
         style="fill:none;fill-opacity:1;stroke:#000000;stroke-width:0.5;stroke-linecap:round;stroke-linejoin:round;stroke-miterlimit:4;stroke-dasharray:none;stroke-opacity:0.02" />
      <rect
         style="fill:none;fill-opacity:1;stroke:#000000;stroke-width:0.6;stroke-linecap:round;stroke-linejoin:round;stroke-miterlimit:4;stroke-dasharray:none;stroke-opacity:0.02"
         id="rect1646"
         width="29.810888"
         height="29.810888"
         x="69.839508"
         y="40.709618"
         rx="6.6098609"
         ry="6.6098609" />
      <rect
         ry="6.6098609"
         rx="6.6098609"
         y="40.709618"
         x="69.839508"
         height="29.810888"
         width="29.810888"
         id="rect1648"
         style="fill:none;fill-opacity:1;stroke:#000000;stroke-width:0.7;stroke-linecap:round;stroke-linejoin:round;stroke-miterlimit:4;stroke-dasharray:none;stroke-opacity:0.02" />
      <rect
         style="fill:none;fill-opacity:1;stroke:#000000;stroke-width:0.8;stroke-linecap:round;stroke-linejoin:round;stroke-miterlimit:4;stroke-dasharray:none;stroke-opacity:0.02"
         id="rect1650"
         width="29.810888"
         height="29.810888"
         x="69.839508"
         y="40.709618"
         rx="6.6098609"
         ry="6.6098609" />
      <rect
         ry="6.6098609"
         rx="6.6098609"
         y="40.709618"
         x="69.839508"
         height="29.810888"
         width="29.810888"
         id="rect1652"
         style="fill:none;fill-opacity:1;stroke:#000000;stroke-width:1;stroke-linecap:round;stroke-linejoin:round;stroke-miterlimit:4;stroke-dasharray:none;stroke-opacity:0.02" />
      <rect
         style="fill:none;fill-opacity:1;stroke:#000000;stroke-width:1.2;stroke-linecap:round;stroke-linejoin:round;stroke-miterlimit:4;stroke-dasharray:none;stroke-opacity:0.02"
         id="rect1654"
         width="29.810888"
         height="29.810888"
         x="69.839508"
         y="40.709618"
         rx="6.6098609"
         ry="6.6098609" />
      <rect
         ry="6.6098609"
         rx="6.6098609"
         y="40.709618"
         x="69.839508"
         height="29.810888"
         width="29.810888"
         id="rect1656"
         style="fill:none;fill-opacity:1;stroke:#000000;stroke-width:1.4;stroke-linecap:round;stroke-linejoin:round;stroke-miterlimit:4;stroke-dasharray:none;stroke-opacity:0.02" />
      <rect
         style="fill:none;fill-opacity:1;stroke:#000000;stroke-width:1.6;stroke-linecap:round;stroke-linejoin:round;stroke-miterlimit:4;stroke-dasharray:none;stroke-opacity:0.02"
         id="rect1658"
         width="29.810888"
         height="29.810888"
         x="69.839508"
         y="40.709618"
         rx="6.6098609"
         ry="6.6098609" />
      <rect
         ry="6.6098609"
         rx="6.6098609"
         y="40.709618"
         x="69.839508"
         height="29.810888"
         width="29.810888"
         id="rect1660"
         style="fill:none;fill-opacity:1;stroke:#000000;stroke-width:1.8;stroke-linecap:round;stroke-linejoin:round;stroke-miterlimit:4;stroke-dasharray:none;stroke-opacity:0.02" />
      <rect
         style="fill:none;fill-opacity:1;stroke:#000000;stroke-width:2;stroke-linecap:round;stroke-linejoin:round;stroke-miterlimit:4;stroke-dasharray:none;stroke-opacity:0.02"
         id="rect1662"
         width="29.810888"
         height="29.810888"
         x="69.839508"
         y="40.709618"
         rx="6.6098609"
         ry="6.6098609" />
      <rect
         ry="6.6098609"
         rx="6.6098609"
         y="40.709618"
         x="69.839508"
         height="29.810888"
         width="29.810888"
         id="rect1664"
         style="fill:none;fill-opacity:1;stroke:#000000;stroke-width:2.2;stroke-linecap:round;stroke-linejoin:round;stroke-miterlimit:4;stroke-dasharray:none;stroke-opacity:0.02" />
      <rect
         style="fill:none;fill-opacity:1;stroke:#000000;stroke-width:2.6;stroke-linecap:round;stroke-linejoin:round;stroke-miterlimit:4;stroke-dasharray:none;stroke-opacity:0.02"
         id="rect1666"
         width="29.810888"
         height="29.810888"
         x="69.839508"
         y="40.709618"
         rx="6.6098609"
         ry="6.6098609" />
      <rect
         ry="6.6098609"
         rx="6.6098609"
         y="40.709618"
         x="69.839508"
         height="29.810888"
         width="29.810888"
         id="rect1668"
         style="fill:none;fill-opacity:1;stroke:#000000;stroke-width:3;stroke-linecap:round;stroke-linejoin:round;stroke-miterlimit:4;stroke-dasharray:none;stroke-opacity:0.02" />
      <rect
         style="fill:none;fill-opacity:1;stroke:#000000;stroke-width:3.4;stroke-linecap:round;stroke-linejoin:round;stroke-miterlimit:4;stroke-dasharray:none;stroke-opacity:0.02"
         id="rect1670"
         width="29.810888"
         height="29.810888"
         x="69.839508"
         y="40.709618"
         rx="6.6098609"
         ry="6.6098609" />
      <rect
         ry="6.6098609"
         rx="6.6098609"
         y="40.709618"
         x="69.839508"
         height="29.810888"
         width="29.810888"
         id="rect1672"
         style="fill:none;fill-opacity:1;stroke:#000000;stroke-width:3.8;stroke-linecap:round;stroke-linejoin:round;stroke-miterlimit:4;stroke-dasharray:none;stroke-opacity:0.02" />
      <rect
         style="fill:none;fill-opacity:1;stroke:#000000;stroke-width:4.2;stroke-linecap:round;stroke-linejoin:round;stroke-miterlimit:4;stroke-dasharray:none;stroke-opacity:0.02"
         id="rect1674"
         width="29.810888"
         height="29.810888"
         x="69.839508"
         y="40.709618"
         rx="6.6098609"
         ry="6.6098609" />
      <rect
         ry="6.6098609"
         rx="6.6098609"
         y="40.709618"
         x="69.839508"
         height="29.810888"
         width="29.810888"
         id="rect1676"
         style="fill:none;fill-opacity:1;stroke:#000000;stroke-width:4.6;stroke-linecap:round;stroke-linejoin:round;stroke-miterlimit:4;stroke-dasharray:none;stroke-opacity:0.02" />
      <rect
         style="fill:none;fill-opacity:1;stroke:#000000;stroke-width:5;stroke-linecap:round;stroke-linejoin:round;stroke-miterlimit:4;stroke-dasharray:none;stroke-opacity:0.02"
         id="rect1678"
         width="29.810888"
         height="29.810888"
         x="69.839508"
         y="40.709618"
         rx="6.6098609"
         ry="6.6098609" />
    </g>
    <rect
       ry="6.4494534"
       rx="6.4494534"
       y="2.5391712"
       x="2.5410535"
       height="29.087439"
       width="29.087439"
       id="rect849"
       style="fill:url(#radialGradient963);fill-opacity:1;stroke-width:2.68768;stroke-linecap:round;stroke-linejoin:round" />
    <g
       id="g3729"
       style="opacity:0.37194127">
      <path
         style="fill:#070044;fill-opacity:0.13419117;fill-rule:evenodd;stroke-width:0.547391"
         d="m 17.357897,5.5296169 a 1.9158717,1.9158717 0 0 0 -1.91587,1.9158724 1.9158717,1.9158717 0 0 0 1.094782,1.728775 V 10.290431 L 14.528994,8.9518863 A 0.82116997,0.82116997 0 1 0 13.6181,10.318228 l 2.918709,1.945807 v 3.612572 l -3.128258,-1.806822 -0.225585,-3.500314 a 0.82119157,0.82119157 0 1 0 -1.638969,0.105844 l 0.155021,2.407669 -0.966489,-0.558083 a 1.9158717,1.9158717 0 0 0 -0.9493833,-1.812166 1.9158717,1.9158717 0 0 0 -2.6172173,0.701345 1.9158717,1.9158717 0 0 0 0.701345,2.617218 1.9158717,1.9158717 0 0 0 2.0441683,-0.0834 l 0.9664893,0.558085 -2.1628406,1.069124 a 0.82119142,0.82119142 0 1 0 0.7280733,1.472184 l 3.1442973,-1.554507 3.127191,1.805752 -3.121845,1.802543 -3.1442973,-1.554506 a 0.82119201,0.82119201 0 1 0 -0.7280753,1.472186 l 2.1639096,1.069124 -0.9729023,0.56129 a 1.9158717,1.9158717 0 0 0 -2.0441683,-0.0834 1.9158717,1.9158717 0 0 0 -0.701345,2.617218 1.9158717,1.9158717 0 0 0 2.6172173,0.701345 1.9158717,1.9158717 0 0 0 0.9493833,-1.812168 l 0.972903,-0.56129 -0.156097,2.407669 a 0.82119105,0.82119105 0 1 0 1.638967,0.105844 l 0.225586,-3.500314 3.122913,-1.803615 v 3.606158 l -2.91871,1.945807 a 0.82116997,0.82116997 0 1 0 0.910894,1.366342 l 2.007816,-1.338544 v 1.122582 a 1.9158717,1.9158717 0 0 0 -1.094783,1.728775 1.9158717,1.9158717 0 0 0 1.915871,1.91587 1.9158717,1.9158717 0 0 0 1.915872,-1.91587 1.9158717,1.9158717 0 0 0 -1.094784,-1.728775 v -1.122582 l 2.007817,1.338544 a 0.82116997,0.82116997 0 1 0 0.910894,-1.366342 L 18.178985,22.32663 v -3.606158 l 3.122914,1.803615 0.225585,3.500314 a 0.82119156,0.82119156 0 1 0 1.638969,-0.105844 l -0.155021,-2.407669 0.971835,0.56129 a 1.9158717,1.9158717 0 0 0 0.950451,1.812168 1.9158717,1.9158717 0 0 0 2.61615,-0.701345 1.9158717,1.9158717 0 0 0 -0.700278,-2.617218 1.9158717,1.9158717 0 0 0 -2.045235,0.0834 l -0.971835,-0.56129 2.162839,-1.069124 a 0.8211915,0.8211915 0 1 0 -0.728073,-1.472186 l -3.144297,1.554507 -3.121845,-1.802543 3.127191,-1.805752 3.145364,1.554507 a 0.82116997,0.82116997 0 1 0 0.727006,-1.472184 l -2.162839,-1.069124 0.966489,-0.558086 a 1.9158717,1.9158717 0 0 0 2.045235,0.0834 1.9158717,1.9158717 0 0 0 0.700278,-2.617217 1.9158717,1.9158717 0 0 0 -2.61615,-0.701345 1.9158717,1.9158717 0 0 0 -0.950451,1.812165 l -0.966489,0.558083 0.155021,-2.407668 A 0.82116997,0.82116997 0 1 0 21.5339,10.569482 l -0.226655,3.500314 -3.12826,1.806821 v -3.612571 l 2.918712,-1.945807 A 0.82116997,0.82116997 0 1 0 20.186803,8.9518967 L 18.178985,10.290441 V 9.1742747 A 1.9158717,1.9158717 0 0 0 19.273769,7.4454996 1.9158717,1.9158717 0 0 0 17.357897,5.5296272 Z"
         id="path3522" />
      <path
         style="fill:#070044;fill-opacity:0.134191;fill-rule:evenodd;stroke-width:0.547391"
         d="m 17.60011,5.9388734 a 1.9158717,1.9158717 0 0 0 -1.91587,1.9158724 1.9158717,1.9158717 0 0 0 1.094782,1.728775 V 10.699687 L 14.771207,9.3611428 a 0.82116997,0.82116997 0 1 0 -0.910894,1.3663412 l 2.918709,1.945807 v 3.612572 l -3.128258,-1.806822 -0.225585,-3.500314 a 0.82119157,0.82119157 0 1 0 -1.638969,0.105844 l 0.155021,2.407669 -0.966489,-0.558083 a 1.9158717,1.9158717 0 0 0 -0.949383,-1.812166 1.9158717,1.9158717 0 0 0 -2.6172176,0.701345 1.9158717,1.9158717 0 0 0 0.701345,2.617218 1.9158717,1.9158717 0 0 0 2.0441686,-0.0834 l 0.966489,0.558085 -2.1628406,1.069124 a 0.82119142,0.82119142 0 1 0 0.7280733,1.472184 l 3.1442973,-1.554507 3.127191,1.805752 -3.121845,1.802543 -3.1442973,-1.554506 a 0.82119201,0.82119201 0 1 0 -0.7280753,1.472186 l 2.1639096,1.069124 -0.972902,0.56129 a 1.9158717,1.9158717 0 0 0 -2.0441686,-0.0834 1.9158717,1.9158717 0 0 0 -0.701345,2.617218 1.9158717,1.9158717 0 0 0 2.6172176,0.701345 1.9158717,1.9158717 0 0 0 0.949383,-1.812168 l 0.972903,-0.56129 -0.156097,2.407669 a 0.82119105,0.82119105 0 1 0 1.638967,0.105844 l 0.225586,-3.500314 3.122913,-1.803615 v 3.606158 l -2.91871,1.945807 a 0.82116997,0.82116997 0 1 0 0.910894,1.366342 l 2.007816,-1.338544 v 1.122582 a 1.9158717,1.9158717 0 0 0 -1.094783,1.728775 1.9158717,1.9158717 0 0 0 1.915871,1.91587 1.9158717,1.9158717 0 0 0 1.915872,-1.91587 1.9158717,1.9158717 0 0 0 -1.094784,-1.728775 v -1.122582 l 2.007817,1.338544 a 0.82116997,0.82116997 0 1 0 0.910894,-1.366342 l -2.918703,-1.945797 v -3.606158 l 3.122914,1.803615 0.225585,3.500314 a 0.82119156,0.82119156 0 1 0 1.638969,-0.105844 l -0.155021,-2.407669 0.971835,0.56129 a 1.9158717,1.9158717 0 0 0 0.950451,1.812168 1.9158717,1.9158717 0 0 0 2.61615,-0.701345 1.9158717,1.9158717 0 0 0 -0.700278,-2.617218 1.9158717,1.9158717 0 0 0 -2.045235,0.0834 l -0.971835,-0.56129 2.162839,-1.069124 a 0.8211915,0.8211915 0 1 0 -0.728073,-1.472186 l -3.144297,1.554507 -3.121845,-1.802543 3.127191,-1.805752 3.145364,1.554507 a 0.82116997,0.82116997 0 1 0 0.727006,-1.472184 l -2.162839,-1.069124 0.966489,-0.558086 a 1.9158717,1.9158717 0 0 0 2.045235,0.0834 1.9158717,1.9158717 0 0 0 0.700278,-2.617217 1.9158717,1.9158717 0 0 0 -2.61615,-0.701345 1.9158717,1.9158717 0 0 0 -0.950451,1.812165 l -0.966489,0.558083 0.155021,-2.407668 a 0.82116997,0.82116997 0 1 0 -1.637899,-0.105844 l -0.226655,3.500314 -3.12826,1.806821 V 12.673302 L 21.33991,10.727495 A 0.82116997,0.82116997 0 1 0 20.429016,9.3611532 L 18.421198,10.699697 V 9.5835312 A 1.9158717,1.9158717 0 0 0 19.515982,7.8547561 1.9158717,1.9158717 0 0 0 17.60011,5.9388837 Z"
         id="path3722" />
      <path
         style="fill:#070044;fill-opacity:0.134191;fill-rule:evenodd;stroke-width:0.547391"
         d="m 18.034423,6.5068211 a 1.9158717,1.9158717 0 0 0 -1.91587,1.9158724 1.9158717,1.9158717 0 0 0 1.094782,1.7287755 v 1.116166 L 15.20552,9.9290905 a 0.82116997,0.82116997 0 1 0 -0.910894,1.3663415 l 2.918709,1.945807 v 3.612572 l -3.128258,-1.806822 -0.225585,-3.500314 a 0.82119157,0.82119157 0 1 0 -1.638969,0.105844 l 0.155021,2.407669 -0.966489,-0.558083 a 1.9158717,1.9158717 0 0 0 -0.949383,-1.812166 1.9158717,1.9158717 0 0 0 -2.6172176,0.701345 1.9158717,1.9158717 0 0 0 0.701345,2.617218 1.9158717,1.9158717 0 0 0 2.0441686,-0.0834 l 0.966489,0.558085 -2.1628406,1.069124 a 0.82119142,0.82119142 0 1 0 0.7280736,1.472184 l 3.144297,-1.554507 3.127191,1.805752 -3.121845,1.802543 -3.144297,-1.554506 a 0.82119201,0.82119201 0 1 0 -0.7280756,1.472186 l 2.1639096,1.069124 -0.972902,0.56129 a 1.9158717,1.9158717 0 0 0 -2.0441686,-0.0834 1.9158717,1.9158717 0 0 0 -0.701345,2.617218 1.9158717,1.9158717 0 0 0 2.6172176,0.701345 1.9158717,1.9158717 0 0 0 0.949383,-1.812168 l 0.972903,-0.56129 -0.156097,2.407669 a 0.82119105,0.82119105 0 1 0 1.638967,0.105844 l 0.225586,-3.500314 3.122913,-1.803615 v 3.606158 l -2.91871,1.945807 a 0.82116997,0.82116997 0 1 0 0.910894,1.366342 l 2.007816,-1.338544 v 1.122582 a 1.9158717,1.9158717 0 0 0 -1.094783,1.728775 1.9158717,1.9158717 0 0 0 1.915871,1.91587 1.9158717,1.9158717 0 0 0 1.915872,-1.91587 1.9158717,1.9158717 0 0 0 -1.094784,-1.728775 v -1.122582 l 2.007817,1.338544 a 0.82116997,0.82116997 0 1 0 0.910894,-1.366342 l -2.918703,-1.945797 v -3.606158 l 3.122914,1.803615 0.225585,3.500314 a 0.82119156,0.82119156 0 1 0 1.638969,-0.105844 l -0.155021,-2.407669 0.971835,0.56129 a 1.9158717,1.9158717 0 0 0 0.950451,1.812168 1.9158717,1.9158717 0 0 0 2.61615,-0.701345 1.9158717,1.9158717 0 0 0 -0.700278,-2.617218 1.9158717,1.9158717 0 0 0 -2.045235,0.0834 l -0.971835,-0.56129 2.162839,-1.069124 a 0.8211915,0.8211915 0 1 0 -0.728073,-1.472186 l -3.144297,1.554507 -3.121845,-1.802543 3.127191,-1.805752 3.145364,1.554507 a 0.82116997,0.82116997 0 1 0 0.727006,-1.472184 l -2.162839,-1.069124 0.966489,-0.558086 a 1.9158717,1.9158717 0 0 0 2.045235,0.0834 1.9158717,1.9158717 0 0 0 0.700278,-2.617217 1.9158717,1.9158717 0 0 0 -2.61615,-0.701345 1.9158717,1.9158717 0 0 0 -0.950451,1.812165 l -0.966489,0.558083 0.155021,-2.407668 A 0.82116997,0.82116997 0 1 0 22.210426,11.546686 L 21.983771,15.047 18.855511,16.853821 V 13.24125 l 2.918712,-1.945807 A 0.82116997,0.82116997 0 1 0 20.863329,9.9291009 L 18.855511,11.267645 V 10.151479 A 1.9158717,1.9158717 0 0 0 19.950295,8.4227038 1.9158717,1.9158717 0 0 0 18.034423,6.5068314 Z"
         id="path3724" />
    </g>
    <path
       style="fill:url(#linearGradient1043);fill-rule:evenodd;stroke-width:0.547391;fill-opacity:1"
       d="m 17.084638,5.313973 a 1.9158717,1.9158717 0 0 0 -1.91587,1.9158724 1.9158717,1.9158717 0 0 0 1.094782,1.728775 V 10.074787 L 14.255735,8.7362424 a 0.82116997,0.82116997 0 1 0 -0.910894,1.3663416 l 2.918709,1.945807 v 3.612572 l -3.128258,-1.806822 -0.225585,-3.500314 a 0.82119157,0.82119157 0 1 0 -1.638969,0.105844 l 0.155021,2.407669 -0.966489,-0.558083 a 1.9158717,1.9158717 0 0 0 -0.9493833,-1.812166 1.9158717,1.9158717 0 0 0 -2.617217,0.701345 1.9158717,1.9158717 0 0 0 0.701345,2.617218 1.9158717,1.9158717 0 0 0 2.044168,-0.0834 l 0.9664893,0.558085 -2.1628403,1.069124 a 0.82119142,0.82119142 0 1 0 0.728073,1.472184 l 3.1442973,-1.554507 3.127191,1.805752 -3.121845,1.802543 -3.1442973,-1.554506 a 0.82119195,0.82119195 0 1 0 -0.728075,1.472186 l 2.1639093,1.069124 -0.9729023,0.56129 a 1.9158717,1.9158717 0 0 0 -2.044168,-0.0834 1.9158717,1.9158717 0 0 0 -0.701345,2.617218 1.9158717,1.9158717 0 0 0 2.617217,0.701345 1.9158717,1.9158717 0 0 0 0.9493833,-1.812168 l 0.972903,-0.56129 -0.156097,2.407669 a 0.82119105,0.82119105 0 1 0 1.638967,0.105844 l 0.225586,-3.500314 3.122913,-1.803615 v 3.606158 l -2.91871,1.945807 a 0.82116997,0.82116997 0 1 0 0.910894,1.366342 l 2.007816,-1.338544 v 1.122582 a 1.9158717,1.9158717 0 0 0 -1.094783,1.728775 1.9158717,1.9158717 0 0 0 1.915871,1.91587 1.9158717,1.9158717 0 0 0 1.915872,-1.91587 1.9158717,1.9158717 0 0 0 -1.094784,-1.728775 v -1.122582 l 2.007817,1.338544 a 0.82116997,0.82116997 0 1 0 0.910894,-1.366342 l -2.918703,-1.945797 v -3.606158 l 3.122914,1.803615 0.225585,3.500314 a 0.82119156,0.82119156 0 1 0 1.638969,-0.105844 l -0.155021,-2.407669 0.971835,0.56129 a 1.9158717,1.9158717 0 0 0 0.950451,1.812168 1.9158717,1.9158717 0 0 0 2.61615,-0.701345 1.9158717,1.9158717 0 0 0 -0.700278,-2.617218 1.9158717,1.9158717 0 0 0 -2.045235,0.0834 l -0.971835,-0.56129 2.162839,-1.069124 a 0.8211915,0.8211915 0 1 0 -0.728073,-1.472186 l -3.144297,1.554507 -3.121845,-1.802543 3.127191,-1.805752 3.145364,1.554507 a 0.82116997,0.82116997 0 1 0 0.727006,-1.472184 l -2.162839,-1.069124 0.966489,-0.558086 a 1.9158717,1.9158717 0 0 0 2.045235,0.0834 1.9158717,1.9158717 0 0 0 0.700278,-2.617217 1.9158717,1.9158717 0 0 0 -2.61615,-0.701345 1.9158717,1.9158717 0 0 0 -0.950451,1.812165 l -0.966489,0.558083 0.155021,-2.407668 a 0.82116997,0.82116997 0 1 0 -1.637899,-0.105844 l -0.226655,3.500314 -3.12826,1.806821 v -3.612571 l 2.918712,-1.945807 A 0.82116997,0.82116997 0 1 0 19.913544,8.7362528 L 17.905726,10.074797 V 8.9586308 A 1.9158717,1.9158717 0 0 0 19.00051,7.2298557 1.9158717,1.9158717 0 0 0 17.084638,5.3139833 Z"
       id="path8" />
  </g>
</svg>
