<?xml version="1.0" encoding="UTF-8" standalone="no"?>
<svg
   width="128"
   height="128"
   viewBox="0 0 33.866666 33.866668"
   version="1.1"
   id="svg2117"
   inkscape:version="1.1.2 (0a00cf5339, 2022-02-04)"
   sodipodi:docname="xonsh.svg"
   xmlns:inkscape="http://www.inkscape.org/namespaces/inkscape"
   xmlns:sodipodi="http://sodipodi.sourceforge.net/DTD/sodipodi-0.dtd"
   xmlns:xlink="http://www.w3.org/1999/xlink"
   xmlns="http://www.w3.org/2000/svg"
   xmlns:svg="http://www.w3.org/2000/svg"
   xmlns:rdf="http://www.w3.org/1999/02/22-rdf-syntax-ns#"
   xmlns:cc="http://creativecommons.org/ns#"
   xmlns:dc="http://purl.org/dc/elements/1.1/">
  <defs
     id="defs2111">
    <linearGradient
       inkscape:collect="always"
       xlink:href="#linearGradient1630"
       id="linearGradient912"
       gradientUnits="userSpaceOnUse"
       gradientTransform="matrix(0.97573207,0,0,0.97573207,-111.88908,-37.234129)"
       x1="132.21078"
       y1="42.151531"
       x2="132.21078"
       y2="70.679932" />
    <linearGradient
       id="linearGradient1630"
       inkscape:collect="always">
      <stop
         id="stop1626"
         offset="0"
         style="stop-color:#f8fcfc;stop-opacity:1;" />
      <stop
         id="stop1628"
         offset="1"
         style="stop-color:#e3e5e8;stop-opacity:1" />
    </linearGradient>
    <linearGradient
       id="linearGradient895">
      <stop
         id="stop3335"
         offset="0" />
      <stop
         id="stop3337"
         offset="1"
         stop-opacity="0" />
    </linearGradient>
  </defs>
  <sodipodi:namedview
     id="base"
     pagecolor="#ffffff"
     bordercolor="#666666"
     borderopacity="1.0"
     inkscape:pageopacity="0.0"
     inkscape:pageshadow="2"
     inkscape:zoom="3.959798"
     inkscape:cx="-0.63134534"
     inkscape:cy="72.099637"
     inkscape:document-units="mm"
     inkscape:current-layer="layer1"
     inkscape:document-rotation="0"
     showgrid="false"
     units="px"
     inkscape:window-width="1920"
     inkscape:window-height="1007"
     inkscape:window-x="0"
     inkscape:window-y="0"
     inkscape:window-maximized="1"
     showguides="true"
     inkscape:guide-bbox="true"
     inkscape:pagecheckerboard="0" />
  <metadata
     id="metadata2114">
    <rdf:RDF>
      <cc:Work
         rdf:about="">
        <dc:format>image/svg+xml</dc:format>
        <dc:type
           rdf:resource="http://purl.org/dc/dcmitype/StillImage" />
      </cc:Work>
    </rdf:RDF>
  </metadata>
  <g
     inkscape:label="Capa 1"
     inkscape:groupmode="layer"
     id="layer1">
    <g
       style="opacity:0.139618"
       transform="matrix(0.97573206,0,0,0.97573206,-65.829986,-36.914633)"
       id="g1702">
      <rect
         ry="6.6098609"
         rx="6.6098609"
         y="40.709618"
         x="69.839508"
         height="29.810888"
         width="29.810888"
         id="rect1634"
         style="fill:none;fill-opacity:1;stroke:#000000;stroke-width:0.1;stroke-linecap:round;stroke-linejoin:round;stroke-miterlimit:4;stroke-dasharray:none;stroke-opacity:0.02" />
      <rect
         style="fill:none;fill-opacity:1;stroke:#000000;stroke-width:0.2;stroke-linecap:round;stroke-linejoin:round;stroke-miterlimit:4;stroke-dasharray:none;stroke-opacity:0.02"
         id="rect1638"
         width="29.810888"
         height="29.810888"
         x="69.839508"
         y="40.709618"
         rx="6.6098609"
         ry="6.6098609" />
      <rect
         ry="6.6098609"
         rx="6.6098609"
         y="40.709618"
         x="69.839508"
         height="29.810888"
         width="29.810888"
         id="rect1640"
         style="fill:none;fill-opacity:1;stroke:#000000;stroke-width:0.3;stroke-linecap:round;stroke-linejoin:round;stroke-miterlimit:4;stroke-dasharray:none;stroke-opacity:0.02" />
      <rect
         style="fill:none;fill-opacity:1;stroke:#000000;stroke-width:0.4;stroke-linecap:round;stroke-linejoin:round;stroke-miterlimit:4;stroke-dasharray:none;stroke-opacity:0.02"
         id="rect1642"
         width="29.810888"
         height="29.810888"
         x="69.839508"
         y="40.709618"
         rx="6.6098609"
         ry="6.6098609" />
      <rect
         ry="6.6098609"
         rx="6.6098609"
         y="40.709618"
         x="69.839508"
         height="29.810888"
         width="29.810888"
         id="rect1644"
         style="fill:none;fill-opacity:1;stroke:#000000;stroke-width:0.5;stroke-linecap:round;stroke-linejoin:round;stroke-miterlimit:4;stroke-dasharray:none;stroke-opacity:0.02" />
      <rect
         style="fill:none;fill-opacity:1;stroke:#000000;stroke-width:0.6;stroke-linecap:round;stroke-linejoin:round;stroke-miterlimit:4;stroke-dasharray:none;stroke-opacity:0.02"
         id="rect1646"
         width="29.810888"
         height="29.810888"
         x="69.839508"
         y="40.709618"
         rx="6.6098609"
         ry="6.6098609" />
      <rect
         ry="6.6098609"
         rx="6.6098609"
         y="40.709618"
         x="69.839508"
         height="29.810888"
         width="29.810888"
         id="rect1648"
         style="fill:none;fill-opacity:1;stroke:#000000;stroke-width:0.7;stroke-linecap:round;stroke-linejoin:round;stroke-miterlimit:4;stroke-dasharray:none;stroke-opacity:0.02" />
      <rect
         style="fill:none;fill-opacity:1;stroke:#000000;stroke-width:0.8;stroke-linecap:round;stroke-linejoin:round;stroke-miterlimit:4;stroke-dasharray:none;stroke-opacity:0.02"
         id="rect1650"
         width="29.810888"
         height="29.810888"
         x="69.839508"
         y="40.709618"
         rx="6.6098609"
         ry="6.6098609" />
      <rect
         ry="6.6098609"
         rx="6.6098609"
         y="40.709618"
         x="69.839508"
         height="29.810888"
         width="29.810888"
         id="rect1652"
         style="fill:none;fill-opacity:1;stroke:#000000;stroke-width:1;stroke-linecap:round;stroke-linejoin:round;stroke-miterlimit:4;stroke-dasharray:none;stroke-opacity:0.02" />
      <rect
         style="fill:none;fill-opacity:1;stroke:#000000;stroke-width:1.2;stroke-linecap:round;stroke-linejoin:round;stroke-miterlimit:4;stroke-dasharray:none;stroke-opacity:0.02"
         id="rect1654"
         width="29.810888"
         height="29.810888"
         x="69.839508"
         y="40.709618"
         rx="6.6098609"
         ry="6.6098609" />
      <rect
         ry="6.6098609"
         rx="6.6098609"
         y="40.709618"
         x="69.839508"
         height="29.810888"
         width="29.810888"
         id="rect1656"
         style="fill:none;fill-opacity:1;stroke:#000000;stroke-width:1.4;stroke-linecap:round;stroke-linejoin:round;stroke-miterlimit:4;stroke-dasharray:none;stroke-opacity:0.02" />
      <rect
         style="fill:none;fill-opacity:1;stroke:#000000;stroke-width:1.6;stroke-linecap:round;stroke-linejoin:round;stroke-miterlimit:4;stroke-dasharray:none;stroke-opacity:0.02"
         id="rect1658"
         width="29.810888"
         height="29.810888"
         x="69.839508"
         y="40.709618"
         rx="6.6098609"
         ry="6.6098609" />
      <rect
         ry="6.6098609"
         rx="6.6098609"
         y="40.709618"
         x="69.839508"
         height="29.810888"
         width="29.810888"
         id="rect1660"
         style="fill:none;fill-opacity:1;stroke:#000000;stroke-width:1.8;stroke-linecap:round;stroke-linejoin:round;stroke-miterlimit:4;stroke-dasharray:none;stroke-opacity:0.02" />
      <rect
         style="fill:none;fill-opacity:1;stroke:#000000;stroke-width:2;stroke-linecap:round;stroke-linejoin:round;stroke-miterlimit:4;stroke-dasharray:none;stroke-opacity:0.02"
         id="rect1662"
         width="29.810888"
         height="29.810888"
         x="69.839508"
         y="40.709618"
         rx="6.6098609"
         ry="6.6098609" />
      <rect
         ry="6.6098609"
         rx="6.6098609"
         y="40.709618"
         x="69.839508"
         height="29.810888"
         width="29.810888"
         id="rect1664"
         style="fill:none;fill-opacity:1;stroke:#000000;stroke-width:2.2;stroke-linecap:round;stroke-linejoin:round;stroke-miterlimit:4;stroke-dasharray:none;stroke-opacity:0.02" />
      <rect
         style="fill:none;fill-opacity:1;stroke:#000000;stroke-width:2.6;stroke-linecap:round;stroke-linejoin:round;stroke-miterlimit:4;stroke-dasharray:none;stroke-opacity:0.02"
         id="rect1666"
         width="29.810888"
         height="29.810888"
         x="69.839508"
         y="40.709618"
         rx="6.6098609"
         ry="6.6098609" />
      <rect
         ry="6.6098609"
         rx="6.6098609"
         y="40.709618"
         x="69.839508"
         height="29.810888"
         width="29.810888"
         id="rect1668"
         style="fill:none;fill-opacity:1;stroke:#000000;stroke-width:3;stroke-linecap:round;stroke-linejoin:round;stroke-miterlimit:4;stroke-dasharray:none;stroke-opacity:0.02" />
      <rect
         style="fill:none;fill-opacity:1;stroke:#000000;stroke-width:3.4;stroke-linecap:round;stroke-linejoin:round;stroke-miterlimit:4;stroke-dasharray:none;stroke-opacity:0.02"
         id="rect1670"
         width="29.810888"
         height="29.810888"
         x="69.839508"
         y="40.709618"
         rx="6.6098609"
         ry="6.6098609" />
      <rect
         ry="6.6098609"
         rx="6.6098609"
         y="40.709618"
         x="69.839508"
         height="29.810888"
         width="29.810888"
         id="rect1672"
         style="fill:none;fill-opacity:1;stroke:#000000;stroke-width:3.8;stroke-linecap:round;stroke-linejoin:round;stroke-miterlimit:4;stroke-dasharray:none;stroke-opacity:0.02" />
      <rect
         style="fill:none;fill-opacity:1;stroke:#000000;stroke-width:4.2;stroke-linecap:round;stroke-linejoin:round;stroke-miterlimit:4;stroke-dasharray:none;stroke-opacity:0.02"
         id="rect1674"
         width="29.810888"
         height="29.810888"
         x="69.839508"
         y="40.709618"
         rx="6.6098609"
         ry="6.6098609" />
      <rect
         ry="6.6098609"
         rx="6.6098609"
         y="40.709618"
         x="69.839508"
         height="29.810888"
         width="29.810888"
         id="rect1676"
         style="fill:none;fill-opacity:1;stroke:#000000;stroke-width:4.6;stroke-linecap:round;stroke-linejoin:round;stroke-miterlimit:4;stroke-dasharray:none;stroke-opacity:0.02" />
      <rect
         style="fill:none;fill-opacity:1;stroke:#000000;stroke-width:5;stroke-linecap:round;stroke-linejoin:round;stroke-miterlimit:4;stroke-dasharray:none;stroke-opacity:0.02"
         id="rect1678"
         width="29.810888"
         height="29.810888"
         x="69.839508"
         y="40.709618"
         rx="6.6098609"
         ry="6.6098609" />
    </g>
    <rect
       style="fill:url(#linearGradient912);fill-opacity:1;stroke-width:2.68769;stroke-linecap:round;stroke-linejoin:round"
       id="rect910"
       width="29.08744"
       height="29.08744"
       x="2.2835085"
       y="2.4875498"
       rx="6.4494534"
       ry="6.4494534" />
    <g
       id="g967"
       transform="matrix(1.1057124,0,0,1.1057124,-1.6385057,-0.91950847)">
      <path
         style="opacity:0.1;stroke-width:0.460311"
         d="m 15.82823,26.407122 c -0.251113,-0.306494 -0.645736,-0.618302 -0.559133,-1.059269 0.03466,-1.337078 -0.0019,-2.786784 -0.884628,-3.878011 -0.754578,-0.846625 -1.503116,-1.717384 -1.973189,-2.76455 -0.618975,-1.244977 -0.904221,-2.620994 -1.314692,-3.9369 -0.1857,-0.828468 -1.5968195,-1.307591 -1.2448213,-2.135207 0.4564593,-0.292301 1.3347483,0.02891 0.7076423,-0.733593 -0.01982,-0.652198 2.046342,-0.938829 0.830637,-1.660538 -0.702319,-0.5341031 0.56977,-0.6747784 1.003398,-0.6076463 0.450665,-0.3136493 0.04915,-0.8338014 0.07404,-1.1049431 0.291098,-0.1872662 0.990052,-0.033369 0.459841,-0.5397922 0.397909,-0.1820312 0.719172,-0.2368668 0.688724,-0.6963203 0.534224,-0.1374759 -0.142799,-0.6106092 0.444612,-0.8163307 0.420027,-0.7834945 1.214386,0.3253927 1.387458,0.6748098 0.286886,0.1873636 0.473511,0.6870456 0.880248,0.6407854 -0.104995,0.3325275 -0.0174,1.0558488 0.420088,0.6603976 0.67535,-0.4653478 0.206292,0.7691902 0.527582,0.9758582 0.518941,0.7081176 1.149528,0.3556628 1.71229,-0.042294 0.94994,-0.00174 0.885995,1.3733206 1.641757,1.7339076 0.650636,0.504857 1.457581,0.165921 2.16412,0.248183 0.56746,0.530589 0.574529,1.410705 0.733411,2.133416 0.289205,2.282554 -0.285093,4.561831 -0.851756,6.756948 -0.237455,0.80096 -0.614094,1.843155 -1.598534,1.896676 -0.848924,-0.01778 -1.416048,1.388654 -0.252728,1.368558 0.601725,0.642165 -0.750782,1.389156 -1.262218,1.708677 -0.690744,0.479781 -1.594049,0.243523 -1.940836,-0.530218 -0.750693,-0.389552 -0.490151,1.416353 -1.273562,1.593026 -0.15303,0.07744 -0.34792,0.240635 -0.519756,0.114372 z m 0.179331,-0.230649 c -0.106873,-0.176271 -0.197252,0.179311 0,0 z m 0.475251,-0.162319 c 0.554907,-0.953631 0.696487,-2.08739 1.054332,-3.12339 0.09186,-0.405836 0.473519,-1.455187 0.404482,-1.550355 -0.611872,1.275481 -0.979056,2.657473 -1.370521,4.009758 0.162424,-1.308791 0.665258,-2.560182 1.118624,-3.794553 0.453887,-1.22729 0.806242,-2.503763 1.017427,-3.793182 0.01444,-2.286304 -0.03551,-4.573616 -0.0077,-6.858871 0.257126,-1.059598 0.104403,0.352018 0.08739,0.706442 -0.03379,1.733363 0.222677,3.463294 0.07121,5.197124 -0.02425,0.897908 -0.207569,1.886188 -0.333828,2.71222 0.711113,-1.977482 0.487806,-4.127571 0.422093,-6.186846 -0.06214,-0.986114 -0.144,-2.005284 0.113189,-2.968748 0.375634,-0.4434092 0.158127,0.356014 0.178729,0.25607 0.07883,0.06508 -0.337861,0.381039 0.161485,0.203213 -0.167435,0.137668 -0.42609,0.431691 -1.17e-4,0.252974 -0.714196,0.458035 0.166791,0.198325 0.158562,0.246639 -0.378278,0.0064 -0.678844,0.381501 -0.426227,0.651911 0.361287,-0.197837 1.324165,-0.351538 0.443068,-0.07396 -0.424978,0.04365 -0.724111,0.601882 -0.10489,0.28726 0.346031,-0.176483 1.424515,-0.319731 0.47753,-0.0813 -0.336268,0.0021 -1.400866,0.695795 -0.475547,0.345538 0.421167,-0.206903 1.60875,-0.263026 0.549459,-0.06956 -0.40433,0.02589 -1.395357,0.640413 -0.448031,0.376035 0.425885,-0.168669 0.981438,-0.152716 0.229471,0.02775 -0.390223,-0.0087 -1.031485,0.636813 -0.282438,0.353458 0.413039,-0.142034 1.858698,-0.324662 0.740176,-0.08132 -0.302509,-0.0261 -1.726347,0.531975 -0.758598,0.374736 0.391914,-0.102472 1.625692,-0.199219 1.44694,-0.10282 -0.531657,0.106386 -1.474065,-0.0023 -1.712047,0.431493 0.359919,0.008 1.618079,-0.25671 1.491183,-0.11465 -0.400575,0.123314 -1.716525,0.07469 -1.413814,0.564906 0.570807,-0.212759 1.195284,-0.112476 1.79284,-0.149393 -0.631384,0.08493 -1.323553,0.02089 -1.887095,0.348047 0.18457,0.294899 1.495993,-0.299527 1.557007,-0.0905 -0.448614,0.135649 -1.457715,0.139198 -1.529224,0.590842 0.448042,-0.08332 1.320457,-0.304733 1.53433,-0.136519 -0.483083,0.131665 -1.310312,0.01705 -1.543212,0.431191 0.546028,-0.02418 1.433475,-0.1202 1.76715,-0.02465 -0.503922,0.140381 -1.484653,-0.123106 -1.674435,0.364661 0.599611,-0.09694 1.65924,-0.161433 1.964485,-0.03711 -0.61936,0.06425 -1.59018,-0.0818 -1.965341,0.311815 0.542373,0.06976 1.091956,0.04116 1.637867,0.05423 -0.561737,0.03726 -1.12372,0.07206 -1.684398,0.123436 -0.0066,0.707099 1.224294,0.03069 1.721821,0.275578 1.120065,0.201528 -0.454336,0.05913 -0.794294,0.08302 -0.385555,-0.232161 -1.437474,0.437432 -0.55257,0.321719 0.332785,-0.08527 1.836512,0.0026 0.758247,0.06616 -0.314342,-0.07318 -1.803825,0.177344 -0.861295,0.327146 0.440734,0.04509 1.780992,0.0031 1.747672,0.229869 -0.627,-0.06456 -1.68283,-0.387987 -2.070887,0.09212 0.32769,0.106839 1.60522,0.03573 1.329874,0.136397 -0.393527,0.09099 -1.386691,-0.188557 -1.387089,0.2817 0.233015,-0.05628 1.757439,-0.04099 1.037348,0.01966 -0.470731,-0.04466 -1.470396,0.268577 -0.469683,0.258909 0.330227,-0.0202 1.782747,0.09089 0.720022,0.102803 -0.334432,0.06656 -1.398033,-0.141721 -1.336033,0.234819 0.309755,-0.005 1.469141,0.0687 1.310553,0.215671 -0.343749,-0.01044 -1.539917,-0.220579 -1.365878,0.184119 0.356439,0.02098 1.464181,0.06124 1.331295,0.241442 -0.328145,-0.08908 -1.643631,-0.215365 -1.381915,0.08789 0.542275,0.04518 1.288453,0.05026 1.670324,0.33949 -0.509858,-0.158301 -1.842887,-0.44386 -1.849441,0.08859 0.282824,-0.05416 1.546272,0.152907 1.230175,0.199197 -0.41763,0.01531 -1.167001,-0.221101 -1.370897,0.131195 0.4915,0.108823 1.818631,0.118583 1.814704,0.507317 -0.454657,-0.298035 -1.726784,-0.518804 -1.841147,-0.158945 0.343733,0.0097 1.688109,0.376295 1.404539,0.40676 -0.38785,-0.0556 -1.592985,-0.533796 -1.483921,-0.09651 0.456947,0.04703 1.18027,0.172289 1.433121,0.352824 -0.348453,-0.03928 -1.626194,-0.444247 -1.483685,-0.134275 0.43327,0.167643 1.21678,0.243502 1.434654,0.542089 -0.423493,-0.112807 -1.45759,-0.610517 -1.571234,-0.260284 0.437898,0.104403 1.244823,0.251223 1.410389,0.545702 -0.373886,-0.127299 -1.454384,-0.618191 -1.478562,-0.265524 0.278009,0.01687 1.328739,0.428075 1.057413,0.478363 -0.30499,-0.12662 -1.203407,-0.565031 -1.220202,-0.138364 0.329805,-0.05828 1.50517,0.663982 0.608316,0.291118 -0.307919,-0.33572 -1.195282,-0.02992 -0.448152,0.179512 0.327472,0.05487 0.922865,0.494239 0.252403,0.201565 -0.385213,-0.238401 -1.007755,-0.102245 -0.26363,0.156283 0.905643,0.497269 -0.308525,-0.129125 -0.476259,0.134432 0.309642,0.136623 1.126594,0.809806 0.332254,0.323439 -0.487171,-0.3914 -0.589953,0.253149 -0.01548,0.276919 0.919723,0.729637 -1.015102,-0.533033 -0.328611,0.177764 0.577347,0.462303 0.124497,0.126184 -0.274242,0.06985 0.192005,0.332989 0.417908,0.433637 -0.103933,0.293936 -0.22337,0.642029 0.677842,1.137708 1.113708,1.469373 0.435041,0.06667 1.344581,-0.236427 0.554714,-0.56794 -0.553763,-0.528185 1.176318,0.731759 0.591691,-0.0659 -0.352578,-0.204636 -0.790322,-0.576439 -0.113398,-0.199499 0.633172,0.381791 0.390298,0.01392 0.0035,-0.264252 0.459509,0.482577 1.30347,0.151412 1.055461,-0.511352 -1.147792,-0.06234 -0.751083,-1.550157 0.15242,-1.65638 1.023554,-0.0285 1.477242,-1.014968 1.682032,-1.879248 0.28168,-1.213382 0.650408,-2.414357 0.808118,-3.651512 0.06101,-1.589339 0.262206,-3.291495 -0.483645,-4.761212 C 22.234322,11.2667 21.27358,11.867932 20.604559,11.379113 19.69252,11.16011 19.869837,9.4733175 18.888163,9.6583933 18.23086,10.284808 17.358754,10.193518 16.612131,9.9300935 c -0.652555,0.6954465 -1.328839,1.2940725 -2.20099,1.7022445 -0.533565,0.568133 -1.270372,1.038504 -1.349211,1.887351 -0.356365,0.843502 -0.406888,1.790223 -0.0345,2.638299 0.660582,2.082316 1.85532,3.935237 2.574657,5.994214 0.07493,0.01583 -0.05647,-0.948721 -0.05343,-1.261652 -0.01061,-0.607242 -0.27919,-1.671957 -0.185934,-2.031246 0.303303,1.352724 0.324415,2.750638 0.449535,4.125569 0.146801,-0.782896 -0.05395,-1.69722 0.137929,-2.4261 0.188099,0.752979 0.01722,1.52243 0.04022,2.290066 0.06644,-0.404708 0.342388,-1.752746 0.22682,-0.617751 -0.09035,0.611471 -0.02851,1.595941 -0.181383,2.007763 0.008,-0.342735 -0.266874,-0.95433 -0.224439,-0.252754 -0.08601,0.744456 -0.321251,1.711166 0.536911,2.104076 l 0.134675,-0.07638 z m 2.037911,-0.957868 c -0.02841,-0.264235 0.26645,0.189452 0,0 z m 0.212921,-0.157344 c -0.455754,-0.568385 0.548525,0.306183 0.09273,0.09503 l -0.09271,-0.09503 z m -2.260839,-0.363691 c -0.27578,-0.530556 -0.0198,-1.435079 0.06576,-2.17696 0.302962,-1.699202 0.398123,-3.434744 0.764515,-5.120449 0.03793,0.665653 -0.208416,1.600317 -0.269658,2.365798 -0.129803,1.229329 -0.388069,2.450997 -0.505684,3.675752 0.252099,-0.709435 0.363121,-1.53575 0.567997,-2.288599 0.586457,-2.301194 0.675896,-4.686029 0.631083,-7.049595 -0.01374,-0.351517 0.01514,-1.793643 0.0818,-0.741431 0.09803,2.865667 0.0078,5.777963 -0.789008,8.550721 -0.160423,0.603062 -0.33676,1.50513 -0.442218,1.954341 -0.221282,-0.644174 -0.04156,0.906928 0.108161,-0.01479 0.590118,-1.553007 1.143646,-3.121128 1.49034,-4.749169 0.414876,-1.634744 0.194857,-3.341265 0.26153,-5.008609 0.01583,-1.044274 -0.01322,-2.091633 0.06039,-3.133624 0.14748,-0.286429 0.02838,1.006921 0.0686,1.335722 -0.02888,1.934747 0.06592,3.877842 -0.07862,5.807361 -0.376752,1.873996 -0.890719,3.71694 -1.584809,5.498391 -0.150107,0.256361 -0.404806,1.468157 -0.428221,1.234956 -6.44e-4,-0.04657 -0.0013,-0.09318 -0.0019,-0.139755 z m 3.597575,-0.269719 c -0.457854,-0.462493 0.653949,0.405737 0,0 z m -2.51876,-0.197651 c -0.02961,-0.264621 0.268035,0.189902 0,0 z m 2.581981,-0.05626 c -0.03152,-0.291284 0.228626,0.149428 0,0 z m -2.925486,-2.40114 c 0.143478,-0.516858 0.107065,0.268211 0,0 z m 3.998766,-0.06089 c -0.133266,-0.320738 0.373109,0.138032 0,0 z m -4.908238,-0.479867 c 0.306874,-2.028418 0.720593,-4.054219 0.68395,-6.117419 0.09386,-0.84437 0.0987,0.96167 0.05846,1.363595 -0.107952,1.68106 -0.397913,3.345751 -0.701362,5.000326 -0.0935,0.291224 -0.03721,-0.226404 -0.04102,-0.246502 z m 1.050132,0.201484 c 0.26246,-1.137764 0.573454,-2.270282 0.787179,-3.415271 0.05207,0.76574 -0.2778,1.588939 -0.435661,2.361191 -0.105116,0.32036 -0.188687,0.858628 -0.351518,1.05408 z m 3.986142,-0.01392 c -0.06573,-0.201289 0.487664,0.224939 0,0 z m 0.07194,-0.22036 c -0.312223,-0.208317 0.674834,0.205638 0,-2.4e-5 z m 0.35326,-0.09595 c -0.27181,-0.389915 0.404114,0.286582 0,0 z M 15.29372,20.708002 c -0.08394,-0.532081 -0.416814,-1.767416 -0.319829,-1.919344 0.120078,0.543155 0.447353,1.704729 0.319829,1.919344 z m 0.52642,-0.378598 c -0.09435,-0.229306 -0.08589,-1.182999 -0.07187,-1.124472 -0.0618,0.498423 0.415408,0.944356 0.133527,1.229329 -0.02055,-0.03495 -0.04111,-0.0699 -0.06166,-0.104855 z m 5.837811,0.0234 c -0.03401,-0.174531 0.55015,0.212952 0,0 z m 0.374617,-0.12963 c -0.188806,-0.237383 0.407682,0.215433 0,0 z m 0.101115,-0.474441 c -0.5554,-0.368255 0.621932,0.237141 0,0 z m -6.045546,-0.594285 c -0.04588,-1.101333 -0.06782,-2.226846 0.04965,-3.315028 0.07211,1.21404 0.06253,2.439429 -0.01531,3.654563 -0.01148,-0.113171 -0.0229,-0.226416 -0.03443,-0.339535 z m -0.475618,-0.885229 c -0.09073,-0.508842 0.01879,-0.648231 0.05746,-0.06632 0.01842,0.532539 -0.02157,0.64415 -0.05708,0.07025 z m -0.389473,0.06446 c 0.125784,-0.444109 0.07453,0.427882 0,0 z m -0.432388,0.01079 c -0.08895,-0.40267 0.03941,-0.68874 0.08808,-0.09864 0.04123,0.09776 -0.01688,0.315029 -0.08808,0.09864 z m 0.365346,-0.579624 c -0.109501,-0.339033 -0.02559,-0.840216 0.04729,-0.186087 0.007,-0.01061 0.04904,0.421555 -0.04729,0.186087 z m 2.997429,-3.31888 c 0.0056,-1.095855 -0.007,-2.192522 0.02949,-3.287757 0.15209,1.780621 0.06341,3.584465 0.06439,5.374105 0.008,0.329585 -0.04353,1.612791 -0.07584,0.698676 -0.01867,-0.928182 -0.01653,-1.856764 -0.01802,-2.785024 z m 3.02268,3.178688 c 0.16693,-0.173141 0.179737,0.16813 0,0 z m -4.67432,-1.364434 c 0.0182,-0.722258 -0.109797,-1.597273 -0.08273,-2.220399 0.239765,1.15983 0.206458,2.365854 0.148523,3.541857 -0.05955,-0.436565 -0.0491,-0.881564 -0.0658,-1.321458 z m -2.332576,0.728309 c -0.245413,-0.809681 0.151028,-0.100958 0.107691,0.275126 -0.06181,-0.07871 -0.06945,-0.186199 -0.107691,-0.275126 z m 3.199793,-0.266336 c 0.09335,-0.609759 -0.03756,-2.31438 0.190023,-2.33481 0.03596,0.726103 -0.02256,1.771604 -0.190023,2.33481 z m 5.456891,-1.44661 c 0.331097,-0.05082 -0.03135,0.07704 0,0 z M 14.652555,15.09868 c -0.06039,-0.431085 -0.326266,-1.791133 -0.146661,-1.683951 0.0544,0.528316 0.220653,1.295942 0.146661,1.683951 z m 8.138737,-0.06197 c -0.332836,-0.220273 0.777821,0.163137 0,-6e-6 z m 0.115363,-0.22095 c -0.490273,-0.280361 0.625314,0.149689 0,0 z m -7.979602,-0.365291 c -0.151533,-0.440852 -0.176302,-1.445826 -0.0045,-0.469737 -0.02029,0.06722 0.14179,0.550326 0.0045,0.469737 z m 7.622494,0.0066 c 0.527168,-0.0167 -0.04821,0.05369 0,0 z m 0.09175,-0.384835 c 0.331249,-0.05084 -0.03149,0.07705 0,0 z M 14.2866,13.899441 c -0.142764,-0.274364 -0.214764,-1.292561 -0.0042,-0.427207 -0.003,0.05637 0.125593,0.517295 0.0042,0.427207 z m 8.458531,-0.03052 c 0.177482,-0.125907 0.302332,0.100436 0,0 z m 0.02309,-0.240957 c 0.16653,-0.166565 0.251891,0.142973 0,0 z m -6.914397,-0.243071 c 0.0167,-0.675012 0.199629,0.507655 -1.41e-4,0 z m 6.729808,-0.358566 c 0.118408,-0.163294 0.243246,0.161067 0,0 z m -7.119702,-0.15375 c -0.216498,-0.389208 -0.42238,-1.720434 -0.08631,-0.581382 -0.0014,0.02157 0.282812,0.910119 0.08631,0.581382 z m 0.312908,0.04212 c -0.08132,-0.339318 -0.589129,-1.907029 -0.159188,-0.850564 0.03878,0.156735 0.361999,0.996817 0.159188,0.850564 z m 0.307327,-0.221419 c -0.190722,-0.416687 -0.366296,-1.447833 -0.05211,-0.442288 -0.0301,0.02131 0.243909,0.592533 0.05211,0.442288 z M 16.96641,12.07072 c -0.104281,-0.447089 -0.277033,-1.557172 -0.144731,-1.626569 0.02907,0.499875 0.252217,1.281821 0.144731,1.626569 z m 0.274124,0.02531 c -0.136154,-0.397749 -0.155953,-2.047545 -0.02324,-0.829909 -0.01635,0.207853 0.155465,0.744219 0.02324,0.829909 z m -2.286158,-0.0703 c -0.2304,-0.696298 0.25594,0.06524 0,0 z m 4.19125,-0.298703 c 0.321965,-0.236319 0.907887,-0.292853 0.229074,-0.03366 0.09943,-0.06195 -0.408268,0.183496 -0.229074,0.03366 z m -1.751188,-0.365944 c -0.122862,-0.436833 0.02639,-0.772466 0.06789,-0.116616 0.02415,0.02011 0.03473,0.563779 -0.06789,0.116616 z M 16.568767,10.9004 c -0.08163,-0.599871 0.207102,0.372366 0,0 z m -1.014006,14.064175 c 0.23766,-1.530045 -0.16573,-3.076171 -0.776052,-4.470565 -0.292054,-0.764629 -0.896918,-1.343042 -1.19007,-2.110842 -0.170966,-0.428085 -0.632166,-1.152322 -0.566716,-1.446517 0.172358,0.388807 0.348649,0.731101 0.133735,0.09329 -0.589649,-1.493338 -0.692119,-3.134189 -1.406501,-4.584683 -0.13812,-0.363471 -0.359854,-0.71742 0.107186,-0.343495 0.534791,0.342926 0.564243,1.52422 0.86691,1.839315 0.15202,-0.527883 -0.530083,-1.507743 -0.345761,-1.68341 0.1658,0.265928 0.686082,1.792763 0.472845,0.751861 -0.121314,-0.375498 -0.461392,-1.487547 -0.03083,-0.575792 0.337243,0.671666 0.207829,-0.01862 0.168253,-0.313002 0.317831,0.664965 0.487007,-0.132709 0.995729,-0.246895 0.100698,-0.402751 0.429102,-0.905397 0.617078,-0.87804 -0.01253,-0.379442 0.324754,0.325743 0.200944,-0.28587 -0.07558,-0.100576 0.935435,0.466219 0.453183,-0.0211 -0.351059,-0.215587 -0.757069,-0.422697 -1.012008,0.01096 -0.525387,0.449324 -1.029392,1.09639 -1.800441,0.990239 -0.492836,-0.07003 -2.131242,-0.526735 -1.450165,0.458088 0.293795,0.385131 -0.300116,-0.737005 0.212745,-0.02686 0.249626,0.533562 0.339298,0.288845 0.11759,-0.108213 0.325266,0.03212 0.599997,1.302816 0.771347,1.839132 0.4312,1.725937 0.693976,3.526127 1.583338,5.0969 0.16018,0.339148 1.008658,1.570695 0.05854,1.001885 -0.417684,-0.388417 0.422318,0.767411 0.543512,0.946996 0.254809,0.31142 0.665987,1.196444 0.775394,1.193363 -0.178014,-0.664469 -0.816354,-1.34684 -0.87355,-1.9313 0.663818,0.53623 0.811176,1.505945 1.019676,2.299423 0.27297,0.996223 0.193032,2.042952 0.262625,3.06437 0.09169,-0.158806 0.05357,-0.383108 0.09146,-0.559294 z m 2.688172,-4.391399 c 0.1555,-0.392097 0.187916,-0.920958 -0.01618,-0.224981 -0.183519,0.445685 -0.335195,1.288233 -0.03269,0.37558 l 0.04885,-0.150576 z M 13.281116,19.73379 c -0.176417,-0.286692 -0.559784,-0.675003 -0.1764,-0.119852 0.280283,0.445233 0.745014,0.892814 0.1764,0.119852 z m 0.556059,0.100384 c -0.09499,-0.27903 -0.991208,-1.435035 -0.321578,-0.930793 -0.857666,-1.557206 -1.130747,-3.328163 -1.518815,-5.039056 -0.148575,-0.02757 0.269227,0.871206 0.01009,1.013703 0.246505,0.639226 0.186795,1.336079 0.325283,2.028483 0.223885,1.057992 0.713805,2.070702 1.365497,2.921821 0.02039,0.01235 0.281331,0.253614 0.139459,0.0057 z m -0.93535,-1.68317 c -0.222044,-0.320718 -0.318566,-1.029578 -0.04316,-0.303253 0.159518,0.223617 0.342132,0.838141 0.04316,0.303253 z m -0.03467,0.629517 c -0.466169,-0.714198 0.358994,0.770517 0,0 z M 12.59051,18.652266 c -0.27372,-0.259103 0.116199,0.284717 0,0 z m -0.182473,-0.340113 c -0.256243,-0.29479 0.138485,0.385881 0,0 z m 0.04168,-0.476656 c -0.190226,-0.490081 -0.442599,-1.764934 -0.576453,-1.795333 0.103377,0.621603 0.508184,2.043238 0.672816,2.11599 l -0.04196,-0.145705 z m -0.221818,-0.02709 c -0.162285,-0.0496 0.137406,0.47256 0,0 z m 1.241552,-0.01201 c -0.256158,-0.294801 0.138224,0.385843 0,0 z M 11.905476,16.76336 c -0.159223,-0.249031 0.127037,0.742918 0,0 z m -0.111971,-0.39317 c -0.08236,-0.08955 0.02985,0.252992 0,0 z m -0.168061,-0.723991 c -0.215642,-0.997917 -0.692307,-1.992785 -1.562415,-2.570358 0.181173,-0.109936 0.600303,0.332562 0.396811,-0.05438 0.640744,0.268967 1.041582,1.575272 1.228943,1.679772 -0.121609,-0.531177 -0.740113,-1.306566 -0.732679,-1.643488 0.286161,0.402666 0.5703,0.67597 0.215001,0.06084 0.23261,-0.818847 -2.0798981,-0.532489 -0.991394,0.167817 0.690061,0.641093 1.181912,1.471923 1.363917,2.400573 0.179202,0.625804 0.208535,0.499029 0.08182,-0.04076 z m 0.168061,-0.09252 c -0.08236,-0.08954 0.02985,0.252993 0,0 z m 0.174169,-1.020356 c -0.0097,-0.229885 -0.160249,0.137493 0,0 z m 0.671118,-0.263351 c -0.195479,0.02858 -0.01148,-0.02763 0,0 z M 12.478423,13.73349 c -0.148332,-0.479874 -0.328893,-1.084766 -0.615256,-1.431458 0.206882,0.434477 0.503372,1.509392 0.654815,1.617753 l -0.03953,-0.186295 z m -0.632628,-0.3851 c -0.251296,-0.306022 0.101202,0.332658 0,0 z m -0.145548,-0.375841 c -0.08144,-0.02945 0.05054,0.302019 0,0 z m 0.984687,-1.710625 c -0.148019,-0.351385 -0.371602,0.745895 0,0 z m -0.251531,-0.08995 c 0.240837,-0.358091 -0.370553,-1.5968481 0.120844,-0.72184 0.09715,0.575076 0.182261,0.521171 0.297939,0.0099 -1.74e-4,0.378724 -0.213301,1.553607 0.08577,0.566682 0.09739,-0.430027 0.194052,-0.878297 0.154422,-0.181245 -0.121157,0.438603 0.01566,0.857807 0.13504,0.183145 0.081,-0.516412 0.108961,-0.580336 0.105134,-0.01834 0.136988,0.539495 0.269503,-1.0615032 0.304681,-0.05454 0.175815,-0.03993 0.1765,-0.670944 0.257143,-0.05698 0.115225,-0.547915 0.98241,-0.790765 1.255732,-0.691082 0.330407,0.627148 0.291579,0.05611 0.212921,-0.2805726 0.162302,0.3003406 0.38956,1.0546886 0.283508,0.2463866 -0.177023,-0.7467785 0.06115,-0.02775 0.227654,0.06421 -0.361809,-0.7053012 0.485682,-0.5924812 0.486878,-0.5990714 -0.23812,-0.3437594 0.428238,0.2263881 0.216295,-0.3134058 0.140504,-0.2901782 0.722729,-1.1231933 0.01926,-0.5557684 C 16.034923,8.8773118 16.039625,9.8706023 15.436918,9.3065317 15.321659,8.6760492 15.871446,9.8902824 15.59835,9.1179886 15.19657,8.2818959 14.660254,9.9907084 14.000117,9.2459132 13.258812,8.8746099 12.915618,10.335886 12.035031,9.8235922 11.57805,9.663569 11.080135,10.15482 11.80882,10.026351 c 1.065992,0.0073 -0.407913,1.241184 -0.01917,1.191355 0.168478,-0.314926 0.653524,-1.162552 0.572928,-0.308317 -0.22725,0.304003 -0.207068,0.905379 0.07082,0.262612 z m 0.143861,-0.924709 c -0.184129,-0.4816944 0.330203,0.130465 0,0 z m 1.030634,-0.4394652 c 0.157327,-0.2856287 0.544306,-0.7577425 0.276838,-0.073174 0.03128,0.157083 -0.208703,0.1272113 -0.276838,0.073174 z m 0.403792,-0.05101 c -0.242926,-0.4071146 0.490239,0.184011 0,0 z m 0.263255,-0.102037 c -0.323127,-0.3018382 0.331639,-0.00974 0.106543,0.081021 z m 1.027924,-0.1783273 c -0.14259,-0.2815125 0.166548,-0.020407 0,0 z m 0.999994,-0.1632766 c -0.07738,-0.3366577 0.222086,0.1524031 0,0 z M 12.20281,11.03873 c 0.305686,-0.650498 -0.661887,0.890112 -0.102054,0.166286 z m 5.512247,-1.013364 C 17.235286,9.6007114 17.23558,9.7554475 17.704444,10.055847 Z M 15.965346,9.7896529 c -0.18157,0.1132063 0.146505,0.3257651 0,0 z m 1.311308,0.099514 c -0.551182,-0.2485319 0.136502,0.1749331 0,0 z M 12.981057,9.4317875 c 0.04303,-0.2999226 -0.241402,0.2547393 0,0 z m 3.848555,-0.048713 c 0.0052,-0.7934528 -0.330638,0.5081181 0,0 z M 15.867309,9.1350434 c -0.360512,-0.2188863 0.184592,0.4343036 0,0 z m -1.178467,0.018459 c 0.216969,-0.6569112 1.193825,-0.5112984 1.088211,-1.2913394 -0.237714,0.140016 -0.457644,0.3589075 -0.186227,0.4098216 -0.342599,0.3469779 -0.814062,-0.03817 -0.459803,-0.066842 0.01583,-0.3622322 -0.943008,0.079768 -0.557209,0.2763541 -0.453526,0.2036982 -0.298296,-0.1463835 -0.309241,-0.2905262 -0.239295,0.071556 -0.599758,0.3333034 -0.33505,0.424794 -0.408587,0.3445979 -0.328251,-0.073487 -0.466703,-0.2459675 -0.544979,0.4740067 0.910773,0.9979531 1.226022,0.7837054 z M 14.872778,8.712699 c -0.03154,-0.2912864 0.228624,0.1494107 0,0 z m 1.085776,-0.042502 c -0.123697,0.039614 0.139303,0.356531 0,-7e-6 z m 0.325925,0.1040377 c -0.350917,-0.5925418 -0.214029,0.09774 0,0 z M 13.08902,8.6751376 c -0.665581,-0.2471209 -0.231983,0.1111359 0,0 z m 0.703478,-0.5214238 c 0.594465,-0.3956199 -0.581538,-0.3044947 0,0 z m 2.108176,-0.034569 c -0.08236,-0.089563 0.02985,0.2529909 0,0 z M 14.638329,7.9491875 c 0.206193,-0.2155216 0.361288,-0.2994964 0.703723,-0.2680363 -0.102176,-0.3725177 -0.897327,0.081751 -1.201393,0.08069 -0.115468,0.4970706 0.158422,-0.2895571 0.219453,0.2597846 0.09104,-0.017398 0.179413,-0.1422081 0.278217,-0.072444 z m -0.06675,-0.606272 c 0.372331,0.00505 -0.04226,-0.5753546 -0.348314,-0.1611367 -0.368626,0.1493063 0.39285,0.5255662 0.348246,0.1611541 z m 0.559232,-0.3115686 c -0.244106,-0.2809453 -0.302558,0.2983203 0,0 z M 14.416677,6.793245 c 0.703413,-0.145966 -0.492441,-0.2455256 -0.141582,0.043738 -0.0015,-0.019364 0.141773,0.00696 0.141582,-0.043738 z m 0.4679,-0.1457746 c -0.252954,-0.2380724 -0.03072,0.3862948 0,0 z M 14.4747,6.3719113 c -0.146297,-0.1647379 -0.218323,0.2375209 0,0 z"
         id="path6" />
      <path
         style="fill:#383838;stroke-width:0.460311"
         d="m 15.82823,26.222998 c -0.251113,-0.306494 -0.645736,-0.618302 -0.559133,-1.059269 0.03466,-1.337078 -0.0019,-2.786784 -0.884628,-3.878011 -0.754578,-0.846625 -1.503116,-1.717385 -1.973189,-2.76455 -0.618975,-1.244977 -0.904221,-2.620994 -1.314692,-3.9369 -0.1857,-0.828468 -1.5968195,-1.307591 -1.2448213,-2.135208 0.4564593,-0.2923 1.3347483,0.02892 0.7076423,-0.733592 -0.01982,-0.652199 2.046342,-0.938829 0.830637,-1.660538 -0.702319,-0.5341032 0.56977,-0.6747786 1.003398,-0.6076464 0.450665,-0.3136511 0.04915,-0.8338014 0.07404,-1.1049432 0.291098,-0.1872661 0.990052,-0.033369 0.459841,-0.5397922 0.397909,-0.1820312 0.719172,-0.2368667 0.688724,-0.6963202 0.534224,-0.1374759 -0.142799,-0.6106092 0.444612,-0.8163307 0.420027,-0.7834945 1.214386,0.3253927 1.387458,0.6748098 0.286886,0.1873636 0.473511,0.6870456 0.880248,0.6407853 -0.104995,0.3325275 -0.0174,1.0558489 0.420088,0.6603977 0.67535,-0.4653478 0.206292,0.7691902 0.527582,0.9758581 0.518941,0.7081176 1.149528,0.3556629 1.71229,-0.042294 0.94994,-0.00174 0.885995,1.3733208 1.641757,1.7339058 0.650636,0.504859 1.457581,0.165921 2.16412,0.248185 0.56746,0.530589 0.574529,1.410705 0.733411,2.133415 0.289205,2.282555 -0.285093,4.561832 -0.851756,6.756949 -0.237455,0.80096 -0.614094,1.843155 -1.598534,1.896675 -0.848924,-0.01778 -1.416048,1.388655 -0.252728,1.368559 0.601725,0.642165 -0.750782,1.389156 -1.262218,1.708677 -0.690744,0.479781 -1.594049,0.243523 -1.940836,-0.530218 -0.750693,-0.389552 -0.490151,1.416353 -1.273562,1.593026 -0.15303,0.07744 -0.34792,0.240635 -0.519756,0.114372 z m 0.179331,-0.230649 c -0.106873,-0.176271 -0.197252,0.17931 0,0 z m 0.475251,-0.16232 c 0.554907,-0.95363 0.696487,-2.087389 1.054332,-3.123389 0.09186,-0.405836 0.473519,-1.455187 0.404482,-1.550355 -0.611872,1.275481 -0.979056,2.657473 -1.370521,4.009758 0.162424,-1.308791 0.665258,-2.560182 1.118624,-3.794555 0.453887,-1.227288 0.806242,-2.503762 1.017427,-3.79318 0.01444,-2.286306 -0.03551,-4.573617 -0.0077,-6.858871 0.257126,-1.0595981 0.104403,0.352018 0.08739,0.706442 -0.03379,1.733362 0.222677,3.463294 0.07121,5.197124 -0.02425,0.897908 -0.207569,1.886188 -0.333828,2.71222 0.711113,-1.977482 0.487806,-4.127571 0.422093,-6.186846 -0.06214,-0.986114 -0.144,-2.005284 0.113189,-2.968748 0.375634,-0.4434094 0.158127,0.356014 0.178729,0.25607 0.07883,0.06508 -0.337861,0.381038 0.161485,0.203213 -0.167435,0.137667 -0.42609,0.43169 -1.17e-4,0.252972 -0.714196,0.458037 0.166791,0.198326 0.158562,0.246641 -0.378278,0.0064 -0.678844,0.381501 -0.426227,0.651911 0.361287,-0.197837 1.324165,-0.351538 0.443068,-0.07394 -0.424978,0.04365 -0.724111,0.601882 -0.10489,0.28726 0.346031,-0.176483 1.424515,-0.319731 0.47753,-0.0813 -0.336268,0.0021 -1.400866,0.695795 -0.475547,0.345538 0.421167,-0.206905 1.60875,-0.263026 0.549459,-0.06954 -0.40433,0.02589 -1.395357,0.640413 -0.448031,0.376035 0.425885,-0.16867 0.981438,-0.152734 0.229471,0.02775 -0.390223,-0.0087 -1.031485,0.636814 -0.282438,0.353459 0.413039,-0.142034 1.858698,-0.324662 0.740176,-0.08132 -0.302509,-0.0261 -1.726347,0.531976 -0.758598,0.374736 0.391914,-0.102472 1.625692,-0.199218 1.44694,-0.10282 -0.531657,0.106387 -1.474065,-0.0023 -1.712047,0.431494 0.359919,0.008 1.618079,-0.25671 1.491183,-0.11465 -0.400575,0.123314 -1.716525,0.07469 -1.413814,0.564906 0.570807,-0.212759 1.195284,-0.112476 1.79284,-0.149394 -0.631384,0.08493 -1.323553,0.02089 -1.887095,0.348048 0.18457,0.294898 1.495993,-0.299528 1.557007,-0.0905 -0.448614,0.135649 -1.457715,0.139198 -1.529224,0.590842 0.448042,-0.08332 1.320457,-0.304733 1.53433,-0.136519 -0.483083,0.131665 -1.310312,0.01705 -1.543212,0.431191 0.546028,-0.02418 1.433475,-0.1202 1.76715,-0.02465 -0.503922,0.140382 -1.484653,-0.123105 -1.674435,0.36466 0.599611,-0.09694 1.65924,-0.161433 1.964485,-0.03711 -0.61936,0.06425 -1.59018,-0.0818 -1.965341,0.311816 0.542373,0.06977 1.091956,0.04116 1.637867,0.05423 -0.561737,0.03727 -1.12372,0.07206 -1.684398,0.123436 -0.0066,0.7071 1.224294,0.03069 1.721821,0.275579 1.120065,0.201528 -0.454336,0.05913 -0.794294,0.08302 -0.385555,-0.232161 -1.437474,0.437432 -0.55257,0.321718 0.332785,-0.08526 1.836512,0.0026 0.758247,0.06616 -0.314342,-0.07317 -1.803825,0.177344 -0.861295,0.327146 0.440734,0.04509 1.780992,0.0031 1.747672,0.229869 -0.627,-0.06456 -1.68283,-0.387987 -2.070887,0.09212 0.32769,0.106838 1.60522,0.03575 1.329874,0.136397 -0.393527,0.09099 -1.386691,-0.188557 -1.387089,0.2817 0.233015,-0.05628 1.757439,-0.04099 1.037348,0.01966 -0.470731,-0.04466 -1.470396,0.268577 -0.469683,0.258909 0.330227,-0.0202 1.782747,0.09089 0.720022,0.102803 -0.334432,0.06656 -1.398033,-0.141721 -1.336033,0.234819 0.309755,-0.005 1.469141,0.0687 1.310553,0.215671 -0.343749,-0.01044 -1.539917,-0.220579 -1.365878,0.184119 0.356439,0.02098 1.464181,0.06124 1.331295,0.241442 -0.328145,-0.08908 -1.643631,-0.215365 -1.381915,0.08789 0.542275,0.04518 1.288453,0.05026 1.670324,0.339492 -0.509858,-0.158301 -1.842887,-0.44386 -1.849441,0.08859 0.282824,-0.05416 1.546272,0.152908 1.230175,0.199198 -0.41763,0.01531 -1.167001,-0.221101 -1.370897,0.131195 0.4915,0.10884 1.818631,0.118582 1.814704,0.507316 -0.454657,-0.298035 -1.726784,-0.518805 -1.841147,-0.158944 0.343733,0.0097 1.688109,0.376294 1.404539,0.406758 -0.38785,-0.0556 -1.592985,-0.533794 -1.483921,-0.09651 0.456947,0.04703 1.18027,0.172289 1.433121,0.352824 -0.348453,-0.03928 -1.626194,-0.444247 -1.483685,-0.134275 0.43327,0.167643 1.21678,0.243502 1.434654,0.542088 -0.423493,-0.112806 -1.45759,-0.610518 -1.571234,-0.260283 0.437898,0.104403 1.244823,0.251223 1.410389,0.545702 -0.373886,-0.127299 -1.454384,-0.618191 -1.478562,-0.265524 0.278009,0.01687 1.328739,0.428075 1.057413,0.478363 -0.30499,-0.12662 -1.203407,-0.565031 -1.220202,-0.138364 0.329805,-0.05828 1.50517,0.66398 0.608316,0.291118 -0.307919,-0.33572 -1.195282,-0.02992 -0.448152,0.179512 0.327472,0.05487 0.922865,0.494238 0.252403,0.201565 -0.385213,-0.238401 -1.007755,-0.102245 -0.26363,0.156283 0.905643,0.497269 -0.308525,-0.129125 -0.476259,0.134431 0.309642,0.136624 1.126594,0.809807 0.332254,0.323439 -0.487171,-0.391399 -0.589953,0.25315 -0.01548,0.27692 0.919723,0.729635 -1.015102,-0.533033 -0.328611,0.177764 0.577347,0.462303 0.124497,0.126184 -0.274242,0.06985 0.192005,0.33299 0.417908,0.433639 -0.103933,0.293938 -0.22337,0.642029 0.677842,1.137706 1.113708,1.469372 0.435041,0.06667 1.344581,-0.236426 0.554714,-0.567939 -0.553763,-0.528185 1.176318,0.731759 0.591691,-0.0659 -0.352578,-0.204635 -0.790322,-0.576437 -0.113398,-0.199497 0.633172,0.38179 0.390298,0.01392 0.0035,-0.264252 0.459509,0.482576 1.30347,0.151411 1.055461,-0.511353 -1.147792,-0.06234 -0.751083,-1.550157 0.15242,-1.656379 1.023554,-0.0285 1.477242,-1.014968 1.682032,-1.879249 0.28168,-1.213382 0.650408,-2.414357 0.808118,-3.651511 0.06101,-1.58934 0.262206,-3.291496 -0.483645,-4.761213 C 22.234322,11.082622 21.27358,11.683854 20.604559,11.195033 19.69252,10.976032 19.869837,9.2892399 18.888163,9.4743157 18.23086,10.100731 17.358754,10.00944 16.612131,9.7460159 c -0.652555,0.6954471 -1.328839,1.2940731 -2.20099,1.7022451 -0.533565,0.568133 -1.270372,1.038503 -1.349211,1.88735 -0.356365,0.843502 -0.406888,1.790223 -0.0345,2.638299 0.660582,2.082317 1.85532,3.935237 2.574657,5.994215 0.07493,0.01583 -0.05647,-0.948721 -0.05343,-1.261652 -0.01061,-0.607243 -0.27919,-1.671958 -0.185934,-2.031246 0.303303,1.352723 0.324415,2.750637 0.449535,4.125568 0.146801,-0.782896 -0.05395,-1.69722 0.137929,-2.4261 0.188099,0.752979 0.01722,1.52243 0.04022,2.290067 0.06644,-0.404709 0.342388,-1.752747 0.22682,-0.617751 -0.09035,0.61147 -0.02851,1.59594 -0.181383,2.007762 0.008,-0.342734 -0.266874,-0.95433 -0.224439,-0.252754 -0.08601,0.744454 -0.321251,1.711165 0.536911,2.104076 l 0.134675,-0.07638 z m 2.037911,-0.957872 c -0.02841,-0.264233 0.26645,0.189453 0,0 z m 0.212921,-0.157344 c -0.455754,-0.568385 0.548525,0.306182 0.09273,0.09503 l -0.09271,-0.09503 z m -2.260839,-0.363692 c -0.27578,-0.530556 -0.0198,-1.435078 0.06576,-2.176959 0.302962,-1.699202 0.398123,-3.434745 0.764515,-5.120451 0.03793,0.665655 -0.208416,1.600319 -0.269658,2.3658 -0.129803,1.229329 -0.388069,2.450996 -0.505684,3.675751 0.252099,-0.709434 0.363121,-1.535749 0.567997,-2.288598 0.586457,-2.301196 0.675896,-4.686029 0.631083,-7.049595 -0.01374,-0.351517 0.01514,-1.793644 0.0818,-0.741431 0.09803,2.865667 0.0078,5.777962 -0.789008,8.550721 -0.160423,0.603062 -0.33676,1.50513 -0.442218,1.954341 -0.221282,-0.644174 -0.04156,0.906927 0.108161,-0.01479 0.590118,-1.553006 1.143646,-3.121128 1.49034,-4.749168 0.414876,-1.634744 0.194857,-3.341266 0.26153,-5.008609 0.01583,-1.044274 -0.01322,-2.091633 0.06039,-3.133625 0.14748,-0.286429 0.02838,1.006922 0.0686,1.335723 -0.02888,1.934746 0.06592,3.877842 -0.07862,5.807361 -0.376752,1.873995 -0.890719,3.71694 -1.584809,5.498389 -0.150107,0.256363 -0.404806,1.468157 -0.428221,1.234958 -6.44e-4,-0.04657 -0.0013,-0.09318 -0.0019,-0.139755 z m 3.597575,-0.269718 c -0.457854,-0.462493 0.653949,0.405736 0,0 z m -2.51876,-0.197651 c -0.02961,-0.264621 0.268035,0.189902 0,0 z m 2.581981,-0.05626 c -0.03152,-0.291285 0.228626,0.149428 0,0 z m -2.925486,-2.40114 c 0.143478,-0.516859 0.107065,0.268208 0,0 z m 3.998766,-0.06091 c -0.133266,-0.320737 0.373109,0.138032 0,0 z m -4.908238,-0.479866 c 0.306874,-2.028419 0.720593,-4.05422 0.68395,-6.11742 0.09386,-0.84437 0.0987,0.961671 0.05846,1.363596 -0.107952,1.681059 -0.397913,3.34575 -0.701362,5.000325 -0.0935,0.291224 -0.03721,-0.226404 -0.04102,-0.246501 z m 1.050132,0.201481 c 0.26246,-1.137762 0.573454,-2.27028 0.787179,-3.415269 0.05207,0.76574 -0.2778,1.58894 -0.435661,2.36119 -0.105116,0.320361 -0.188687,0.858629 -0.351518,1.054079 z m 3.986142,-0.01392 c -0.06573,-0.201288 0.487664,0.224939 0,0 z m 0.07194,-0.22036 c -0.312223,-0.208317 0.674834,0.205638 0,-2.4e-5 z m 0.35326,-0.09595 c -0.27181,-0.389916 0.404114,0.286582 0,0 z M 15.29372,20.523854 c -0.08394,-0.532082 -0.416814,-1.767417 -0.319829,-1.919345 0.120078,0.543155 0.447353,1.70473 0.319829,1.919345 z m 0.52642,-0.378598 c -0.09435,-0.229306 -0.08589,-1.183 -0.07187,-1.124472 -0.0618,0.498422 0.415408,0.944356 0.133527,1.229329 -0.02055,-0.03495 -0.04111,-0.0699 -0.06166,-0.104856 z m 5.837811,0.0234 c -0.03401,-0.174531 0.55015,0.212952 0,0 z m 0.374617,-0.129629 c -0.188806,-0.237384 0.407682,0.215433 0,0 z m 0.101115,-0.474442 c -0.5554,-0.368255 0.621932,0.237142 0,0 z M 16.088137,18.9703 c -0.04588,-1.101333 -0.06782,-2.226845 0.04965,-3.315028 0.07211,1.214041 0.06253,2.439429 -0.01531,3.654564 -0.01148,-0.113172 -0.0229,-0.226416 -0.03443,-0.339536 z m -0.475618,-0.885228 c -0.09073,-0.508842 0.01879,-0.648232 0.05746,-0.06632 0.01842,0.532539 -0.02157,0.64415 -0.05708,0.07025 z m -0.389473,0.06446 c 0.125784,-0.444109 0.07453,0.427882 0,0 z m -0.432388,0.01079 c -0.08895,-0.402669 0.03941,-0.688742 0.08808,-0.09864 0.04123,0.09776 -0.01688,0.315029 -0.08808,0.09864 z m 0.365346,-0.579624 c -0.109501,-0.339032 -0.02559,-0.840216 0.04729,-0.186086 0.007,-0.01061 0.04904,0.421554 -0.04729,0.186086 z m 2.997433,-3.318919 c 0.0056,-1.095855 -0.007,-2.192522 0.02949,-3.287758 0.15209,1.780622 0.06341,3.584465 0.06439,5.374105 0.008,0.329586 -0.04353,1.612792 -0.07584,0.698676 -0.01867,-0.928182 -0.01653,-1.856764 -0.01802,-2.785023 z m 3.02268,3.178687 c 0.16693,-0.173141 0.179736,0.168131 0,0 z m -4.674321,-1.364433 c 0.0182,-0.722259 -0.109796,-1.597273 -0.08272,-2.2204 0.239765,1.159831 0.206457,2.365854 0.148523,3.541858 -0.05955,-0.436565 -0.0491,-0.881565 -0.0658,-1.321458 z m -2.332576,0.728309 c -0.245412,-0.809681 0.151029,-0.100958 0.107691,0.275126 -0.06181,-0.07871 -0.06945,-0.1862 -0.107691,-0.275126 z m 3.199793,-0.266338 c 0.09336,-0.609757 -0.03756,-2.314378 0.190024,-2.334808 0.03596,0.726103 -0.02257,1.771603 -0.190024,2.334808 z m 5.456891,-1.446608 c 0.331098,-0.05082 -0.03135,0.07704 0,0 z m -8.173349,-0.176838 c -0.06039,-0.431085 -0.326266,-1.791133 -0.146661,-1.683952 0.0544,0.528317 0.220653,1.295943 0.146661,1.683952 z m 8.138737,-0.06197 c -0.332836,-0.220272 0.777821,0.163138 0,-6e-6 z m 0.115363,-0.220949 c -0.490273,-0.280361 0.625314,0.149689 0,0 z M 14.927053,14.26634 c -0.151533,-0.440852 -0.176302,-1.445827 -0.0045,-0.469737 -0.02029,0.06722 0.14179,0.550326 0.0045,0.469737 z m 7.622494,0.0066 c 0.527168,-0.0167 -0.04821,0.05369 0,0 z m 0.09175,-0.384835 c 0.331249,-0.05084 -0.03149,0.07705 0,0 z M 14.2866,13.715312 c -0.142764,-0.274364 -0.214764,-1.292561 -0.0042,-0.427207 -0.003,0.05637 0.125593,0.517295 0.0042,0.427207 z m 8.458531,-0.03051 c 0.177482,-0.125907 0.302332,0.100436 0,0 z m 0.02309,-0.240957 c 0.16653,-0.166565 0.251891,0.142991 0,0 z M 15.853826,13.20078 c 0.0167,-0.675012 0.199629,0.507655 -1.41e-4,0 z m 6.729808,-0.358567 c 0.118408,-0.163294 0.243246,0.161068 0,0 z m -7.119704,-0.15376 c -0.216498,-0.389209 -0.42238,-1.720434 -0.08631,-0.581383 -0.0014,0.02157 0.282812,0.91012 0.08631,0.581383 z m 0.312908,0.04212 c -0.08132,-0.339318 -0.589129,-1.907029 -0.159188,-0.850564 0.03878,0.156735 0.361999,0.996817 0.159188,0.850564 z m 0.307327,-0.221419 c -0.190722,-0.416687 -0.366296,-1.447833 -0.05211,-0.442288 -0.0301,0.02131 0.243909,0.592533 0.05211,0.442288 z m 0.882245,-0.622558 c -0.104281,-0.447089 -0.277033,-1.557172 -0.144731,-1.626569 0.02907,0.499875 0.252217,1.281821 0.144731,1.626569 z m 0.274124,0.02531 C 17.10438,11.51416 17.084581,9.8643635 17.21729,11.082 c -0.01635,0.207852 0.155465,0.744219 0.02324,0.829909 z m -2.286158,-0.0703 c -0.2304,-0.696297 0.25594,0.06524 0,0 z m 4.19125,-0.298703 c 0.321965,-0.236318 0.907887,-0.292852 0.229074,-0.03366 0.09943,-0.06195 -0.408268,0.183496 -0.229074,0.03366 z M 17.394438,11.17696 c -0.122862,-0.436833 0.02639,-0.772466 0.06789,-0.116616 0.02415,0.02011 0.03473,0.563778 -0.06789,0.116616 z m -0.825671,-0.460683 c -0.08163,-0.599872 0.207102,0.372366 0,0 z m -1.014006,14.064175 c 0.23766,-1.530045 -0.16573,-3.076171 -0.776052,-4.470565 -0.292054,-0.764629 -0.896918,-1.343042 -1.19007,-2.110842 -0.170966,-0.428086 -0.632166,-1.152322 -0.566716,-1.446517 0.172358,0.388807 0.348649,0.731101 0.133735,0.09329 -0.589649,-1.493338 -0.692119,-3.134189 -1.406501,-4.584683 -0.13812,-0.363471 -0.359854,-0.71742 0.107186,-0.343495 0.534791,0.342926 0.564243,1.52422 0.86691,1.839315 0.15202,-0.527885 -0.530083,-1.507743 -0.345761,-1.683412 0.1658,0.265928 0.686082,1.792765 0.472845,0.751861 -0.121314,-0.375496 -0.461392,-1.487545 -0.03083,-0.57579 0.337243,0.671666 0.207829,-0.01861 0.168253,-0.313002 0.317831,0.664964 0.487007,-0.132727 0.995729,-0.246895 0.100698,-0.402751 0.429102,-0.905398 0.617078,-0.87804 -0.01253,-0.379442 0.324754,0.325743 0.200944,-0.28587 -0.07558,-0.100576 0.935435,0.466219 0.453183,-0.0211 -0.351059,-0.215587 -0.757069,-0.422697 -1.012008,0.01096 -0.525387,0.449326 -1.029392,1.096392 -1.800441,0.99024 -0.492836,-0.07002 -2.131242,-0.526735 -1.450165,0.458088 0.293795,0.385131 -0.300116,-0.737004 0.212745,-0.02686 0.249626,0.533562 0.339298,0.288846 0.11759,-0.108213 0.325266,0.03212 0.599997,1.302817 0.771347,1.839133 0.4312,1.725937 0.693976,3.526127 1.583338,5.0969 0.16018,0.339147 1.008658,1.570694 0.05854,1.001885 -0.417684,-0.388418 0.422318,0.76741 0.543512,0.946995 0.254809,0.311421 0.665987,1.196444 0.775394,1.193363 -0.178014,-0.664468 -0.816354,-1.346839 -0.87355,-1.9313 0.663818,0.536231 0.811176,1.505946 1.019676,2.299422 0.27297,0.996225 0.193032,2.042954 0.262625,3.064371 0.09169,-0.158805 0.05357,-0.383107 0.09146,-0.559293 z m 2.688172,-4.391399 c 0.1555,-0.392097 0.187916,-0.920958 -0.01618,-0.224981 -0.183519,0.445685 -0.335195,1.288232 -0.03269,0.37558 l 0.04885,-0.150577 z m -4.961817,-0.839386 c -0.176417,-0.286692 -0.559784,-0.675003 -0.1764,-0.119852 0.280283,0.445232 0.745014,0.892814 0.1764,0.119852 z m 0.556059,0.100384 c -0.09499,-0.27903 -0.991208,-1.435035 -0.321578,-0.930793 -0.857666,-1.557206 -1.130747,-3.328163 -1.518815,-5.039056 -0.148575,-0.02758 0.269227,0.871206 0.01009,1.013703 0.246505,0.639226 0.186795,1.336079 0.325283,2.028483 0.223885,1.057992 0.713805,2.070702 1.365497,2.921821 0.02039,0.01235 0.281331,0.253614 0.139459,0.0057 z m -0.93535,-1.68317 c -0.222044,-0.320718 -0.318566,-1.029579 -0.04316,-0.303253 0.159518,0.223617 0.342132,0.838139 0.04316,0.303253 z m -0.03467,0.629517 c -0.466169,-0.714198 0.358994,0.770517 0,0 z M 12.59051,18.468143 c -0.27372,-0.259105 0.116199,0.284715 0,0 z m -0.182468,-0.340134 c -0.256242,-0.294791 0.138485,0.385881 0,0 z m 0.04168,-0.476656 c -0.190226,-0.490081 -0.442599,-1.764936 -0.576453,-1.795333 0.103377,0.621603 0.508185,2.043238 0.672816,2.11599 l -0.04196,-0.145705 z m -0.221818,-0.02709 c -0.162285,-0.0496 0.137406,0.47256 0,0 z m 1.241553,-0.012 c -0.256159,-0.294801 0.138224,0.385843 0,0 z m -1.563976,-1.033037 c -0.159223,-0.249031 0.127037,0.742918 0,0 z m -0.111971,-0.39317 c -0.08236,-0.08955 0.02985,0.252992 0,0 z m -0.168061,-0.723991 c -0.215642,-0.997917 -0.692307,-1.992785 -1.562414,-2.570358 0.181172,-0.109918 0.600302,0.332562 0.396811,-0.05438 0.640743,0.268967 1.041581,1.575272 1.228943,1.679772 -0.12161,-0.531177 -0.740114,-1.306566 -0.73268,-1.643488 0.286161,0.402666 0.570301,0.67597 0.215001,0.06084 0.23261,-0.818847 -2.0798979,-0.532491 -0.991394,0.167817 0.690061,0.641093 1.181912,1.471923 1.363917,2.400573 0.179203,0.625804 0.208535,0.499029 0.08182,-0.04076 z m 0.168061,-0.09252 c -0.08236,-0.08955 0.02985,0.252993 0,0 z m 0.174169,-1.020356 c -0.0097,-0.229885 -0.160249,0.137493 0,0 z m 0.671118,-0.263351 c -0.195479,0.02858 -0.01148,-0.02763 0,0 z M 12.478426,13.54935 c -0.148332,-0.479874 -0.328893,-1.084768 -0.615256,-1.431459 0.206882,0.434478 0.503372,1.509391 0.654815,1.617754 l -0.03953,-0.186295 z m -0.632624,-0.385084 c -0.251296,-0.306023 0.101202,0.332658 0,0 z M 11.700256,12.78842 c -0.08144,-0.02945 0.05054,0.302019 0,0 z m 0.984687,-1.710625 c -0.148019,-0.351385 -0.371603,0.745894 0,0 z m -0.251531,-0.08995 c 0.240837,-0.358092 -0.370554,-1.5968484 0.120844,-0.721841 0.09715,0.575077 0.18226,0.521172 0.297939,0.0099 -1.74e-4,0.378725 -0.213302,1.553608 0.08577,0.566682 0.09739,-0.430026 0.194051,-0.878296 0.154421,-0.181243 -0.121157,0.438602 0.01566,0.857806 0.135041,0.183144 0.081,-0.516411 0.108961,-0.580335 0.105133,-0.01834 0.136989,0.539495 0.269503,-1.0615028 0.304681,-0.05454 0.175815,-0.03993 0.176501,-0.670944 0.257144,-0.05698 0.115224,-0.547916 0.98241,-0.7907653 1.255732,-0.691082 0.330406,0.627145 0.291578,0.05611 0.21292,-0.2805733 0.162303,0.3003403 0.389561,1.0546883 0.283508,0.2463868 -0.177022,-0.7467786 0.06115,-0.027749 0.227655,0.064215 C 15.512391,9.3482726 16.359882,9.4610927 16.361077,9.4545025 16.122958,9.1107431 16.789316,9.6808906 16.577373,9.1410949 16.717876,8.8509184 17.300101,8.0179034 16.596633,8.5853282 16.034932,8.6931586 16.039635,9.6864474 15.436928,9.1223786 15.321669,8.4918961 15.871456,9.7061276 15.59836,8.9338354 15.19658,8.0977428 14.660264,9.8065553 14.000127,9.0617601 13.258822,8.690455 12.915628,10.151733 12.035041,9.6394391 11.578059,9.4794158 11.080145,9.970667 11.80883,9.8421978 c 1.065992,0.00731 -0.407913,1.2411842 -0.01917,1.1913562 0.168478,-0.314927 0.653524,-1.1625527 0.572927,-0.308317 -0.227249,0.304002 -0.207068,0.905378 0.07083,0.262611 z m 0.143861,-0.924709 c -0.18413,-0.4816947 0.330203,0.130465 0,0 z m 1.030634,-0.4394655 c 0.157327,-0.2856288 0.544305,-0.7577425 0.276838,-0.073174 0.03128,0.1570831 -0.208704,0.1272114 -0.276838,0.073174 z m 0.403792,-0.050992 c -0.242927,-0.4071145 0.490238,0.1840093 0,0 z m 0.263255,-0.102037 c -0.323127,-0.3018399 0.331639,-0.00974 0.106543,0.081021 z m 1.027924,-0.1783446 c -0.142591,-0.2815125 0.166547,-0.020407 0,0 z m 0.999994,-0.1632766 c -0.07738,-0.3366577 0.222086,0.152403 0,0 z m -4.100053,1.7255767 c 0.305686,-0.6505 -0.661887,0.890112 -0.102055,0.166286 z M 17.715057,9.8412455 C 17.235286,9.4165925 17.23558,9.5713286 17.704444,9.8717262 Z M 15.965346,9.605534 c -0.18157,0.1132063 0.146505,0.3257651 0,0 z m 1.311308,0.099497 c -0.551182,-0.2485301 0.136502,0.1749348 0,0 z M 12.981057,9.247653 c 0.04303,-0.2999227 -0.241402,0.2547393 0,0 z M 16.829612,9.19894 c 0.0052,-0.7934529 -0.330638,0.5081181 0,0 z M 15.867309,8.9509193 c -0.360512,-0.2188863 0.184592,0.4343035 0,0 z m -1.178467,0.018459 c 0.216969,-0.6569129 1.193825,-0.5112984 1.088211,-1.2913395 -0.237714,0.140016 -0.457644,0.3589075 -0.186227,0.4098217 -0.342599,0.3469779 -0.814062,-0.03817 -0.459803,-0.066842 0.01583,-0.3622322 -0.943008,0.079768 -0.557209,0.2763524 -0.453526,0.2036982 -0.298296,-0.1463835 -0.309241,-0.2905245 -0.239295,0.071556 -0.599758,0.3333035 -0.33505,0.424794 -0.408587,0.344598 -0.328251,-0.073488 -0.466703,-0.2459674 -0.544979,0.4740066 0.910773,0.9979531 1.226022,0.7837053 z M 14.872778,8.528575 c -0.03154,-0.2912882 0.228624,0.1494107 0,0 z m 1.085776,-0.042502 c -0.123697,0.039614 0.139303,0.356531 0,-6.9e-6 z m 0.325925,0.1040377 c -0.350917,-0.5925417 -0.214029,0.09774 0,0 z M 13.08902,8.4910135 c -0.665581,-0.2471209 -0.231983,0.1111359 0,0 z m 0.703478,-0.5214238 c 0.594465,-0.39562 -0.581538,-0.3044948 0,0 z m 2.108176,-0.034569 c -0.08236,-0.089563 0.02985,0.2529908 0,0 z M 14.638329,7.7650633 c 0.206193,-0.2155216 0.361288,-0.2994964 0.703723,-0.2680363 -0.102176,-0.3725176 -0.897327,0.081751 -1.201393,0.08069 -0.115468,0.4970706 0.158422,-0.2895572 0.219453,0.2597846 0.09104,-0.017398 0.179413,-0.1422081 0.278217,-0.072444 z m -0.06675,-0.6062719 c 0.372331,0.00505 -0.04226,-0.5753547 -0.348314,-0.1611367 -0.368626,0.1493063 0.39285,0.5255662 0.348246,0.1611541 z m 0.559232,-0.3115686 c -0.244106,-0.2809453 -0.302558,0.2983203 0,0 z m -0.71413,-0.238102 c 0.703413,-0.1459659 -0.492441,-0.2455255 -0.141582,0.043738 -0.0015,-0.019364 0.141773,0.00696 0.141582,-0.043738 z m 0.4679,-0.1457746 c -0.252954,-0.2380724 -0.03072,0.3862948 0,0 z M 14.4747,6.1877872 c -0.146297,-0.164738 -0.218323,0.2375209 0,0 z"
         id="path10" />
    </g>
  </g>
</svg>
