<?xml version="1.0" encoding="UTF-8" standalone="no"?>
<svg
   width="128"
   height="128"
   viewBox="0 0 33.866666 33.866668"
   version="1.1"
   id="svg1443"
   inkscape:version="1.1.2 (0a00cf5339, 2022-02-04)"
   sodipodi:docname="yaourtgui.svg"
   xmlns:inkscape="http://www.inkscape.org/namespaces/inkscape"
   xmlns:sodipodi="http://sodipodi.sourceforge.net/DTD/sodipodi-0.dtd"
   xmlns:xlink="http://www.w3.org/1999/xlink"
   xmlns="http://www.w3.org/2000/svg"
   xmlns:svg="http://www.w3.org/2000/svg"
   xmlns:rdf="http://www.w3.org/1999/02/22-rdf-syntax-ns#"
   xmlns:cc="http://creativecommons.org/ns#"
   xmlns:dc="http://purl.org/dc/elements/1.1/">
  <defs
     id="defs1437">
    <linearGradient
       inkscape:collect="always"
       id="linearGradient1841">
      <stop
         style="stop-color:#ffffff;stop-opacity:1;"
         offset="0"
         id="stop1837" />
      <stop
         style="stop-color:#0c74ee;stop-opacity:1"
         offset="1"
         id="stop1839" />
    </linearGradient>
    <linearGradient
       gradientTransform="matrix(0.97573206,0,0,0.97573206,-111.76517,-37.182508)"
       gradientUnits="userSpaceOnUse"
       y2="70.679932"
       x2="132.21078"
       y1="42.151531"
       x1="132.21078"
       id="linearGradient1632"
       xlink:href="#linearGradient1630"
       inkscape:collect="always" />
    <linearGradient
       id="linearGradient1630"
       inkscape:collect="always">
      <stop
         id="stop1626"
         offset="0"
         style="stop-color:#fafafc;stop-opacity:1" />
      <stop
         id="stop1628"
         offset="1"
         style="stop-color:#e7efe4;stop-opacity:1" />
    </linearGradient>
    <filter
       color-interpolation-filters="sRGB"
       height="1.1311001"
       width="1.1106"
       y="-0.065563001"
       x="-0.055319"
       id="c-9">
      <feGaussianBlur
         id="feGaussianBlur1093"
         stdDeviation="1.1062912" />
    </filter>
    <linearGradient
       gradientUnits="userSpaceOnUse"
       gradientTransform="matrix(0.13235,0,0,0.13075,-32.379,1.0873)"
       y2="269.48999"
       y1="235.14999"
       x2="657.65002"
       x1="319.20999"
       id="a-12">
      <stop
         id="stop1076"
         offset="0"
         stop-color="#e54c18" />
      <stop
         id="stop1078"
         offset="1"
         stop-color="#fec350" />
    </linearGradient>
    <linearGradient
       inkscape:collect="always"
       xlink:href="#linearGradient5466"
       id="linearGradient5468"
       x1="1133.7979"
       y1="623.83655"
       x2="1153.6304"
       y2="686.44214"
       gradientUnits="userSpaceOnUse"
       gradientTransform="matrix(0.26458333,0,0,0.26458333,-315.66283,122.34861)" />
    <linearGradient
       inkscape:collect="always"
       id="linearGradient5466">
      <stop
         style="stop-color:#33db88;stop-opacity:1"
         offset="0"
         id="stop5462" />
      <stop
         style="stop-color:#0083e0;stop-opacity:1"
         offset="1"
         id="stop5464" />
    </linearGradient>
    <linearGradient
       inkscape:collect="always"
       xlink:href="#linearGradient20905"
       id="linearGradient20907"
       x1="1129.9"
       y1="678.76282"
       x2="1119.0254"
       y2="660.76074"
       gradientUnits="userSpaceOnUse"
       gradientTransform="matrix(0.26458333,0,0,0.26458333,-319.67013,122.39425)" />
    <linearGradient
       inkscape:collect="always"
       id="linearGradient20905">
      <stop
         style="stop-color:#305ed6;stop-opacity:0.41441572"
         offset="0"
         id="stop20901" />
      <stop
         style="stop-color:#5130d6;stop-opacity:0;"
         offset="1"
         id="stop20903" />
    </linearGradient>
    <linearGradient
       inkscape:collect="always"
       xlink:href="#linearGradient9260"
       id="linearGradient9262"
       x1="1140.1895"
       y1="623.42657"
       x2="1156.4679"
       y2="672.66003"
       gradientUnits="userSpaceOnUse"
       gradientTransform="matrix(0.26458333,0,0,0.26458333,-319.67013,122.39425)" />
    <linearGradient
       inkscape:collect="always"
       id="linearGradient9260">
      <stop
         style="stop-color:#005bff;stop-opacity:1;"
         offset="0"
         id="stop9256" />
      <stop
         style="stop-color:#005bff;stop-opacity:0;"
         offset="1"
         id="stop9258" />
    </linearGradient>
    <linearGradient
       inkscape:collect="always"
       xlink:href="#linearGradient8277"
       id="linearGradient8279"
       x1="1154.9387"
       y1="660.44135"
       x2="1125.7916"
       y2="649.1394"
       gradientUnits="userSpaceOnUse"
       gradientTransform="matrix(0.26458333,0,0,0.26458333,-319.67013,122.39425)" />
    <linearGradient
       inkscape:collect="always"
       id="linearGradient8277">
      <stop
         style="stop-color:#5dfff3;stop-opacity:1;"
         offset="0"
         id="stop8273" />
      <stop
         style="stop-color:#5dfff3;stop-opacity:0;"
         offset="1"
         id="stop8275" />
    </linearGradient>
    <linearGradient
       inkscape:collect="always"
       xlink:href="#linearGradient19406"
       id="linearGradient19408"
       x1="1163.5502"
       y1="621.31067"
       x2="1132.3615"
       y2="643.47711"
       gradientUnits="userSpaceOnUse"
       gradientTransform="matrix(0.26458333,0,0,0.26458333,-319.67013,122.39425)" />
    <linearGradient
       inkscape:collect="always"
       id="linearGradient19406">
      <stop
         style="stop-color:#30d68d;stop-opacity:1;"
         offset="0"
         id="stop19402" />
      <stop
         style="stop-color:#0f99c9;stop-opacity:1"
         offset="1"
         id="stop19404" />
    </linearGradient>
    <linearGradient
       inkscape:collect="always"
       xlink:href="#linearGradient16318"
       id="linearGradient16320"
       x1="1147.7186"
       y1="631.2121"
       x2="1115.4965"
       y2="580.64471"
       gradientUnits="userSpaceOnUse"
       gradientTransform="matrix(0.26458333,0,0,0.26458333,-319.67013,122.39425)" />
    <linearGradient
       inkscape:collect="always"
       id="linearGradient16318">
      <stop
         style="stop-color:#4cc676;stop-opacity:1"
         offset="0"
         id="stop16314" />
      <stop
         style="stop-color:#aae251;stop-opacity:1"
         offset="1"
         id="stop16316" />
    </linearGradient>
    <linearGradient
       inkscape:collect="always"
       xlink:href="#linearGradient22299"
       id="linearGradient22301"
       x1="1140.2845"
       y1="676.88428"
       x2="1133.0908"
       y2="695.10974"
       gradientUnits="userSpaceOnUse"
       gradientTransform="matrix(0.26458333,0,0,0.26458333,-319.67013,122.39425)" />
    <linearGradient
       inkscape:collect="always"
       id="linearGradient22299">
      <stop
         style="stop-color:#0a43d6;stop-opacity:1;"
         offset="0"
         id="stop22295" />
      <stop
         style="stop-color:#0a43d6;stop-opacity:0;"
         offset="1"
         id="stop22297" />
    </linearGradient>
    <linearGradient
       inkscape:collect="always"
       xlink:href="#linearGradient27199"
       id="linearGradient27201"
       x1="1052.1866"
       y1="629.44763"
       x2="1143.6211"
       y2="568.57812"
       gradientUnits="userSpaceOnUse"
       gradientTransform="matrix(0.26458333,0,0,0.26458333,-319.67013,122.39425)" />
    <linearGradient
       inkscape:collect="always"
       id="linearGradient27199">
      <stop
         style="stop-color:#fefefe;stop-opacity:1;"
         offset="0"
         id="stop27195" />
      <stop
         style="stop-color:#fefefe;stop-opacity:0;"
         offset="1"
         id="stop27197" />
    </linearGradient>
    <linearGradient
       gradientUnits="userSpaceOnUse"
       gradientTransform="matrix(3.7750132,0,0,3.7750132,-121.15321,-30.800809)"
       y2="15.17"
       y1="15.17"
       x2="39.951"
       x1="38.363998"
       id="linearGradient1521-9">
      <stop
         id="stop1103"
         offset="0"
         stop-color="#2d2e30" />
      <stop
         id="stop1105"
         offset=".33438"
         stop-opacity="0"
         stop-color="#5d5c5b" />
      <stop
         id="stop1107"
         offset=".50217"
         stop-opacity="0"
         stop-color="#7a7b7b" />
      <stop
         id="stop1109"
         offset=".68594"
         stop-opacity="0"
         stop-color="#555" />
      <stop
         id="stop1111"
         offset="1"
         stop-color="#70787e" />
    </linearGradient>
    <linearGradient
       inkscape:collect="always"
       xlink:href="#linearGradient2048"
       id="linearGradient2050"
       x1="55.194855"
       y1="11.816931"
       x2="55.194855"
       y2="26.316303"
       gradientUnits="userSpaceOnUse"
       gradientTransform="translate(-32.134723,5.3408635)" />
    <linearGradient
       inkscape:collect="always"
       id="linearGradient2048">
      <stop
         style="stop-color:#87fbff;stop-opacity:1"
         offset="0"
         id="stop2044" />
      <stop
         style="stop-color:#0067ec;stop-opacity:1"
         offset="1"
         id="stop2046" />
    </linearGradient>
    <radialGradient
       r="9.6332045"
       fy="24.249697"
       fx="24.249012"
       cy="24.249697"
       cx="24.249012"
       gradientTransform="matrix(1.0025173,0,0,1.0025173,-0.1056862,-0.12466191)"
       gradientUnits="userSpaceOnUse"
       id="radialGradient3815-1"
       xlink:href="#linearGradient5489"
       inkscape:collect="always" />
    <linearGradient
       inkscape:collect="always"
       id="linearGradient5489">
      <stop
         style="stop-color:#000000;stop-opacity:1;"
         offset="0"
         id="stop5461" />
      <stop
         id="stop5463"
         offset="0.7161625"
         style="stop-color:#000000;stop-opacity:0.7876448" />
      <stop
         style="stop-color:#000000;stop-opacity:0.6745098;"
         offset="0.74620646"
         id="stop5515" />
      <stop
         id="stop5517"
         offset="0.76304662"
         style="stop-color:#000000;stop-opacity:0.61960784;" />
      <stop
         id="stop5513"
         offset="0.78594917"
         style="stop-color:#000000;stop-opacity:0.54509804;" />
      <stop
         style="stop-color:#000000;stop-opacity:0.48627451;"
         offset="0.80683094"
         id="stop5509" />
      <stop
         id="stop5505"
         offset="0.86206657"
         style="stop-color:#000000;stop-opacity:0.29803922;" />
      <stop
         id="stop5503"
         offset="0.89035797"
         style="stop-color:#000000;stop-opacity:0.18823529;" />
      <stop
         id="stop5495"
         offset="0.92403823"
         style="stop-color:#000000;stop-opacity:0.08235294;" />
      <stop
         id="stop5493"
         offset="0.94289917"
         style="stop-color:#000000;stop-opacity:0.04313725;" />
      <stop
         style="stop-color:#000000;stop-opacity:0.03137255;"
         offset="0.95596462"
         id="stop5481" />
      <stop
         style="stop-color:#000000;stop-opacity:0.02745098;"
         offset="0.9608109"
         id="stop5483" />
      <stop
         style="stop-color:#000000;stop-opacity:0;"
         offset="0.99196541"
         id="stop5485" />
      <stop
         style="stop-color:#000000;stop-opacity:0;"
         offset="1"
         id="stop5487" />
    </linearGradient>
    <linearGradient
       inkscape:collect="always"
       xlink:href="#linearGradient1841"
       id="linearGradient1843"
       x1="21.899191"
       y1="21.662104"
       x2="21.899191"
       y2="40.027798"
       gradientUnits="userSpaceOnUse" />
  </defs>
  <sodipodi:namedview
     id="base"
     pagecolor="#ffffff"
     bordercolor="#666666"
     borderopacity="1.0"
     inkscape:pageopacity="0.0"
     inkscape:pageshadow="2"
     inkscape:zoom="2.8"
     inkscape:cx="41.785714"
     inkscape:cy="73.75"
     inkscape:document-units="mm"
     inkscape:current-layer="layer1"
     inkscape:document-rotation="0"
     showgrid="false"
     units="px"
     inkscape:window-width="1920"
     inkscape:window-height="1028"
     inkscape:window-x="0"
     inkscape:window-y="24"
     inkscape:window-maximized="1"
     inkscape:pagecheckerboard="0" />
  <metadata
     id="metadata1440">
    <rdf:RDF>
      <cc:Work
         rdf:about="">
        <dc:format>image/svg+xml</dc:format>
        <dc:type
           rdf:resource="http://purl.org/dc/dcmitype/StillImage" />
      </cc:Work>
    </rdf:RDF>
  </metadata>
  <g
     inkscape:label="Capa 1"
     inkscape:groupmode="layer"
     id="layer1">
    <g
       style="opacity:0.18753551"
       transform="matrix(0.97573206,0,0,0.96360993,-65.737228,-36.327649)"
       id="g1702">
      <rect
         ry="6.6098609"
         rx="6.6098609"
         y="40.709618"
         x="69.839508"
         height="29.810888"
         width="29.810888"
         id="rect1634"
         style="fill:none;fill-opacity:1;stroke:#000000;stroke-width:0.1;stroke-linecap:round;stroke-linejoin:round;stroke-miterlimit:4;stroke-dasharray:none;stroke-opacity:0.02" />
      <rect
         style="fill:none;fill-opacity:1;stroke:#000000;stroke-width:0.2;stroke-linecap:round;stroke-linejoin:round;stroke-miterlimit:4;stroke-dasharray:none;stroke-opacity:0.02"
         id="rect1638"
         width="29.810888"
         height="29.810888"
         x="69.839508"
         y="40.709618"
         rx="6.6098609"
         ry="6.6098609" />
      <rect
         ry="6.6098609"
         rx="6.6098609"
         y="40.709618"
         x="69.839508"
         height="29.810888"
         width="29.810888"
         id="rect1640"
         style="fill:none;fill-opacity:1;stroke:#000000;stroke-width:0.3;stroke-linecap:round;stroke-linejoin:round;stroke-miterlimit:4;stroke-dasharray:none;stroke-opacity:0.02" />
      <rect
         style="fill:none;fill-opacity:1;stroke:#000000;stroke-width:0.4;stroke-linecap:round;stroke-linejoin:round;stroke-miterlimit:4;stroke-dasharray:none;stroke-opacity:0.02"
         id="rect1642"
         width="29.810888"
         height="29.810888"
         x="69.839508"
         y="40.709618"
         rx="6.6098609"
         ry="6.6098609" />
      <rect
         ry="6.6098609"
         rx="6.6098609"
         y="40.709618"
         x="69.839508"
         height="29.810888"
         width="29.810888"
         id="rect1644"
         style="fill:none;fill-opacity:1;stroke:#000000;stroke-width:0.5;stroke-linecap:round;stroke-linejoin:round;stroke-miterlimit:4;stroke-dasharray:none;stroke-opacity:0.02" />
      <rect
         style="fill:none;fill-opacity:1;stroke:#000000;stroke-width:0.6;stroke-linecap:round;stroke-linejoin:round;stroke-miterlimit:4;stroke-dasharray:none;stroke-opacity:0.02"
         id="rect1646"
         width="29.810888"
         height="29.810888"
         x="69.839508"
         y="40.709618"
         rx="6.6098609"
         ry="6.6098609" />
      <rect
         ry="6.6098609"
         rx="6.6098609"
         y="40.709618"
         x="69.839508"
         height="29.810888"
         width="29.810888"
         id="rect1648"
         style="fill:none;fill-opacity:1;stroke:#000000;stroke-width:0.7;stroke-linecap:round;stroke-linejoin:round;stroke-miterlimit:4;stroke-dasharray:none;stroke-opacity:0.02" />
      <rect
         style="fill:none;fill-opacity:1;stroke:#000000;stroke-width:0.8;stroke-linecap:round;stroke-linejoin:round;stroke-miterlimit:4;stroke-dasharray:none;stroke-opacity:0.02"
         id="rect1650"
         width="29.810888"
         height="29.810888"
         x="69.839508"
         y="40.709618"
         rx="6.6098609"
         ry="6.6098609" />
      <rect
         ry="6.6098609"
         rx="6.6098609"
         y="40.709618"
         x="69.839508"
         height="29.810888"
         width="29.810888"
         id="rect1652"
         style="fill:none;fill-opacity:1;stroke:#000000;stroke-width:1;stroke-linecap:round;stroke-linejoin:round;stroke-miterlimit:4;stroke-dasharray:none;stroke-opacity:0.02" />
      <rect
         style="fill:none;fill-opacity:1;stroke:#000000;stroke-width:1.2;stroke-linecap:round;stroke-linejoin:round;stroke-miterlimit:4;stroke-dasharray:none;stroke-opacity:0.02"
         id="rect1654"
         width="29.810888"
         height="29.810888"
         x="69.839508"
         y="40.709618"
         rx="6.6098609"
         ry="6.6098609" />
      <rect
         ry="6.6098609"
         rx="6.6098609"
         y="40.709618"
         x="69.839508"
         height="29.810888"
         width="29.810888"
         id="rect1656"
         style="fill:none;fill-opacity:1;stroke:#000000;stroke-width:1.4;stroke-linecap:round;stroke-linejoin:round;stroke-miterlimit:4;stroke-dasharray:none;stroke-opacity:0.02" />
      <rect
         style="fill:none;fill-opacity:1;stroke:#000000;stroke-width:1.6;stroke-linecap:round;stroke-linejoin:round;stroke-miterlimit:4;stroke-dasharray:none;stroke-opacity:0.02"
         id="rect1658"
         width="29.810888"
         height="29.810888"
         x="69.839508"
         y="40.709618"
         rx="6.6098609"
         ry="6.6098609" />
      <rect
         ry="6.6098609"
         rx="6.6098609"
         y="40.709618"
         x="69.839508"
         height="29.810888"
         width="29.810888"
         id="rect1660"
         style="fill:none;fill-opacity:1;stroke:#000000;stroke-width:1.8;stroke-linecap:round;stroke-linejoin:round;stroke-miterlimit:4;stroke-dasharray:none;stroke-opacity:0.02" />
      <rect
         style="fill:none;fill-opacity:1;stroke:#000000;stroke-width:2;stroke-linecap:round;stroke-linejoin:round;stroke-miterlimit:4;stroke-dasharray:none;stroke-opacity:0.02"
         id="rect1662"
         width="29.810888"
         height="29.810888"
         x="69.839508"
         y="40.709618"
         rx="6.6098609"
         ry="6.6098609" />
      <rect
         ry="6.6098609"
         rx="6.6098609"
         y="40.709618"
         x="69.839508"
         height="29.810888"
         width="29.810888"
         id="rect1664"
         style="fill:none;fill-opacity:1;stroke:#000000;stroke-width:2.2;stroke-linecap:round;stroke-linejoin:round;stroke-miterlimit:4;stroke-dasharray:none;stroke-opacity:0.02" />
      <rect
         style="fill:none;fill-opacity:1;stroke:#000000;stroke-width:2.6;stroke-linecap:round;stroke-linejoin:round;stroke-miterlimit:4;stroke-dasharray:none;stroke-opacity:0.02"
         id="rect1666"
         width="29.810888"
         height="29.810888"
         x="69.839508"
         y="40.709618"
         rx="6.6098609"
         ry="6.6098609" />
      <rect
         ry="6.6098609"
         rx="6.6098609"
         y="40.709618"
         x="69.839508"
         height="29.810888"
         width="29.810888"
         id="rect1668"
         style="fill:none;fill-opacity:1;stroke:#000000;stroke-width:3;stroke-linecap:round;stroke-linejoin:round;stroke-miterlimit:4;stroke-dasharray:none;stroke-opacity:0.02" />
      <rect
         style="fill:none;fill-opacity:1;stroke:#000000;stroke-width:3.4;stroke-linecap:round;stroke-linejoin:round;stroke-miterlimit:4;stroke-dasharray:none;stroke-opacity:0.02"
         id="rect1670"
         width="29.810888"
         height="29.810888"
         x="69.839508"
         y="40.709618"
         rx="6.6098609"
         ry="6.6098609" />
      <rect
         ry="6.6098609"
         rx="6.6098609"
         y="40.709618"
         x="69.839508"
         height="29.810888"
         width="29.810888"
         id="rect1672"
         style="fill:none;fill-opacity:1;stroke:#000000;stroke-width:3.8;stroke-linecap:round;stroke-linejoin:round;stroke-miterlimit:4;stroke-dasharray:none;stroke-opacity:0.02" />
      <rect
         style="fill:none;fill-opacity:1;stroke:#000000;stroke-width:4.2;stroke-linecap:round;stroke-linejoin:round;stroke-miterlimit:4;stroke-dasharray:none;stroke-opacity:0.02"
         id="rect1674"
         width="29.810888"
         height="29.810888"
         x="69.839508"
         y="40.709618"
         rx="6.6098609"
         ry="6.6098609" />
      <rect
         ry="6.6098609"
         rx="6.6098609"
         y="40.709618"
         x="69.839508"
         height="29.810888"
         width="29.810888"
         id="rect1676"
         style="fill:none;fill-opacity:1;stroke:#000000;stroke-width:4.6;stroke-linecap:round;stroke-linejoin:round;stroke-miterlimit:4;stroke-dasharray:none;stroke-opacity:0.02" />
      <rect
         style="fill:none;fill-opacity:1;stroke:#000000;stroke-width:5;stroke-linecap:round;stroke-linejoin:round;stroke-miterlimit:4;stroke-dasharray:none;stroke-opacity:0.02"
         id="rect1678"
         width="29.810888"
         height="29.810888"
         x="69.839508"
         y="40.709618"
         rx="6.6098609"
         ry="6.6098609" />
    </g>
    <rect
       ry="6.4494534"
       rx="6.4494534"
       y="2.5391712"
       x="2.4074187"
       height="29.087439"
       width="29.087439"
       id="rect849"
       style="fill:url(#linearGradient1632);fill-opacity:1;stroke-width:2.68768;stroke-linecap:round;stroke-linejoin:round" />
    <g
       id="g972"
       transform="matrix(0.70659319,0,0,0.70659319,29.903513,-187.51629)">
      <path
         style="fill:#35d2be;fill-opacity:1;stroke:none;stroke-width:0.264583px;stroke-linecap:butt;stroke-linejoin:miter;stroke-opacity:1"
         d="m -21.184574,292.77494 c -1.397397,-0.0415 -4.616476,0.41867 -5.02023,0.61277 -0.355547,0.12817 -0.844365,0.58188 -0.472387,1.13368 0.268499,0.37789 0.780071,0.78275 1.111223,1.11204 0.322871,0.3056 0.557451,0.3965 0.92329,0.48359 l 2.479728,0.31141 5.053277,-1.96861 -1.335908,-3.13443 z"
         id="path28682"
         sodipodi:nodetypes="ccccccccc" />
      <path
         id="path36306"
         style="opacity:0.494446;fill:#3539d2;fill-opacity:1;stroke:none;stroke-width:0.264583px;stroke-linecap:butt;stroke-linejoin:miter;stroke-opacity:1"
         d="m -17.93041,292.53425 -2.135796,0.11317 c 0,0 -3.532611,0.87828 -5.672508,2.82308 0.05913,0.0549 0.120676,0.11117 0.172587,0.16279 0.322871,0.30559 0.557636,0.39659 0.923476,0.48369 l 2.479939,0.31161 5.052933,-1.96888 z" />
      <path
         id="path860"
         style="fill:url(#linearGradient5468);fill-opacity:1;stroke:none;stroke-width:0.264583px;stroke-linecap:butt;stroke-linejoin:miter;stroke-opacity:1"
         d="m -12.697614,284.61602 -7.36854,8.03155 c -2.288672,0.59826 -5.132837,3.82345 -5.373846,6.57531 -0.328453,3.75018 1.796336,6.29536 4.472596,7.44968 3.832093,1.65284 11.6748455,-0.63599 14.1231674,-8.14576 2.335821,-7.1647 -3.3553664,-12.83659 -5.8533774,-13.91078 z m -7.020242,13.69736 c 0.479213,0.0216 1.019731,0.28475 1.577657,0.91519 1.744398,1.97104 3.827675,0.40462 3.827675,0.40462 0,0 -1.571361,3.17786 -4.37441,3.19154 -1.598744,0.008 -2.812044,-1.03424 -2.8303,-2.49029 -0.01191,-0.94776 0.745066,-2.06863 1.799378,-2.02106 z" />
      <path
         id="path20767"
         style="fill:url(#linearGradient20907);fill-opacity:1;stroke:none;stroke-width:0.264583px;stroke-linecap:butt;stroke-linejoin:miter;stroke-opacity:1"
         d="m -20.066206,292.64742 c -2.288673,0.59825 -5.132811,3.82345 -5.37382,6.57531 -0.02275,0.26025 -0.03069,0.51365 -0.03051,0.76223 2.42062,-2.66092 4.960382,-2.10397 6.197045,-1.5813 0.111786,0.0386 0.22516,0.089 0.341074,0.15554 0.271462,0.13709 0.429948,0.24495 0.429948,0.24495 l 0.01614,0.0801 c 0.114539,0.10072 0.229791,0.21259 0.346234,0.34417 1.07397,1.2135 2.274517,1.08535 3.040142,0.80822 l 0.787532,-0.4036 c 2.019221,-1.44957 0.263155,-8.14144 -5.586227,-7.01508 l -0.167428,0.0295 z"
         sodipodi:nodetypes="cscccccsccccc" />
      <path
         id="path8504"
         style="fill:url(#linearGradient9262);fill-opacity:1;stroke:none;stroke-width:0.264583px;stroke-linecap:butt;stroke-linejoin:miter;stroke-opacity:1"
         d="m -12.844431,289.59128 c -1.562603,1.37425 -4.405154,2.44577 -7.054347,3.02668 5.849382,-1.12636 7.776421,6.20723 5.586227,7.01508 l 3.332612,3.15226 0.392219,-0.71882 c 4.45934,-7.97387 -2.256711,-12.4752 -2.256711,-12.4752 z" />
      <path
         style="fill:url(#linearGradient8279);fill-opacity:1;stroke:none;stroke-width:0.264583px;stroke-linecap:butt;stroke-linejoin:miter;stroke-opacity:1"
         d="m -20.066154,292.64757 c 0,0 3.14161,-0.76318 5.129054,1.41564 1.987471,2.17882 0.974699,3.83073 0.299985,3.98551 -0.674741,0.15478 -1.138926,0.51298 -3.098933,-1.51166 -1.960033,-2.02464 -3.194949,-1.91625 -4.757578,-1.26982 l -0.832168,-1.52052 z"
         id="path6854" />
      <path
         style="fill:url(#linearGradient19408);fill-opacity:1;stroke:none;stroke-width:0.264583px;stroke-linecap:butt;stroke-linejoin:miter;stroke-opacity:1"
         d="m -24.29909,292.8402 c 0,0 9.604719,1.28524 14.073769,-6.35742 -0.819335,-0.84609 -1.823085,-1.43811 -2.472293,-1.86676 z"
         id="path16545"
         sodipodi:nodetypes="cccc" />
      <circle
         style="fill:#68ce6b;fill-opacity:1;stroke:none;stroke-width:1.5875;stroke-linecap:round;stroke-linejoin:round;stroke-opacity:1"
         id="path27282"
         cx="-26.793081"
         cy="283.89917"
         r="3.5009475" />
      <circle
         style="fill:#0065ce;fill-opacity:0.235823;stroke:none;stroke-width:2.7023;stroke-linecap:round;stroke-linejoin:round;stroke-opacity:1"
         id="circle28575"
         cx="-23.478136"
         cy="284.68182"
         r="5.9594321" />
      <path
         style="fill:url(#linearGradient16320);fill-opacity:1;stroke:none;stroke-width:0.264583px;stroke-linecap:butt;stroke-linejoin:miter;stroke-opacity:1"
         d="m -23.189322,292.85009 c 6.297719,-0.64702 10.911655,-8.00299 10.491708,-8.23407 -0.883973,-3.78625 -1.054364,-5.25306 -3.97211,-4.78708 l 0.301916,-5.88618 c 0.0045,-0.637 -0.123216,-1.18274 -0.848492,-1.10506 -12.810913,1.68025 -12.201022,15.44571 -11.86389,18.76466 0.05263,0.4369 0.436721,0.76681 0.875136,0.84784 1.257088,0.2129 3.576293,0.54665 5.015732,0.39989 z"
         id="path9720"
         sodipodi:nodetypes="cccccccc" />
      <path
         id="path21529"
         style="opacity:0.485485;fill:url(#linearGradient22301);fill-opacity:1;stroke:none;stroke-width:0.264583px;stroke-linecap:butt;stroke-linejoin:miter;stroke-opacity:1"
         d="m -14.669633,290.97207 c -1.250711,0.63416 -2.519071,1.24302 -4.033864,1.49707 5.433113,0.11407 6.000274,6.20442 4.390946,7.1639 0,0 -1.57136,3.17786 -4.374409,3.19154 -1.598745,0.008 -2.812045,-1.03424 -2.830301,-2.49029 -0.01058,-0.83782 0.580496,-1.80894 1.445895,-1.99058 -2.400644,0.31492 -5.425281,4.31877 -1.226793,8.17367 0.109643,0.053 0.219022,0.10685 0.330729,0.15503 0.451141,0.19458 0.959379,0.33224 1.506352,0.41547 1.20269,-0.14258 6.093328,-1.05175 7.69411,-6.49159 1.7988753,-6.11293 -2.902665,-9.62422 -2.902665,-9.62422 z m 0.357082,8.66097 -0.787532,0.4036 c 0.477943,-0.17301 0.787532,-0.4036 0.787532,-0.4036 z m -0.787532,0.4036 c -0.08893,0.0322 -0.18497,0.0616 -0.284745,0.0879 0.100119,-0.0263 0.19558,-0.0556 0.284745,-0.0879 z m -4.361498,-1.68621 c 0.05948,0.013 0.119936,0.0294 0.18087,0.0501 -0.03143,-0.013 -0.06612,-0.0257 -0.09872,-0.0388 -0.0268,-0.006 -0.05493,-0.007 -0.08215,-0.0114 z m 0.530702,0.20929 c 0.145468,0.0836 0.294084,0.19231 0.44442,0.32453 -0.05763,-0.0668 -0.119089,-0.12646 -0.183435,-0.18087 -0.07009,-0.041 -0.149411,-0.0872 -0.260985,-0.14366 z m 0.610817,0.47956 c 0.05977,0.0596 0.119644,0.1211 0.179837,0.18914 -0.0603,-0.0681 -0.120094,-0.13039 -0.179837,-0.18914 z m 0.474398,0.48317 c 0.02196,0.0197 0.04368,0.0397 0.06564,0.0584 -0.02196,-0.0186 -0.04379,-0.0388 -0.06564,-0.0584 z m 0.349858,0.27337 c 0.0217,0.0143 0.04297,0.0268 0.06459,0.0403 -0.0217,-0.0135 -0.04302,-0.026 -0.06459,-0.0403 z m 0.32348,0.18397 c 0.01535,0.007 0.03067,0.0163 0.04601,0.0233 -0.01535,-0.007 -0.03066,-0.0159 -0.04601,-0.0233 z m 0.331258,0.13074 c 0.02355,0.007 0.04723,0.0141 0.0708,0.0207 -0.02355,-0.007 -0.04718,-0.0133 -0.0708,-0.0207 z m 1.404038,0.0269 c -0.08416,0.0207 -0.172191,0.0374 -0.26252,0.0512 0.09067,-0.0138 0.178065,-0.0305 0.26252,-0.0512 z m -1.053148,0.0558 c 0.01508,0.002 0.02985,0.004 0.04495,0.006 -0.01508,-0.002 -0.02984,-0.003 -0.04495,-0.006 z m 0.688314,0.0103 c -0.03101,0.004 -0.06197,0.007 -0.09353,0.01 0.0317,-0.003 0.06241,-0.006 0.09353,-0.01 z m -0.403066,0.0155 c 0.02249,8e-4 0.04493,0.002 0.06718,0.003 -0.02222,-2.4e-4 -0.04479,-0.002 -0.06718,-0.003 z" />
      <circle
         style="fill:#ffffff;fill-opacity:0.970956;stroke:none;stroke-width:1.5875;stroke-linecap:round;stroke-linejoin:round;stroke-opacity:1"
         id="path22553"
         cx="-20.921574"
         cy="285.07416"
         r="3.3840587" />
      <circle
         style="fill:#6cd069;fill-opacity:1;stroke:none;stroke-width:1.5875;stroke-linecap:round;stroke-linejoin:round;stroke-opacity:1"
         id="path25532"
         cx="-19.935619"
         cy="285.79019"
         r="0.98863667" />
      <path
         id="path26780"
         style="fill:url(#linearGradient27201);fill-opacity:1;stroke:none;stroke-width:0.264583px;stroke-linecap:butt;stroke-linejoin:miter;stroke-opacity:1"
         d="m -17.087051,272.83054 c -0.04077,1.2e-4 -0.08387,0.002 -0.129196,0.007 -7.631165,1.00088 -10.499328,6.28985 -11.500591,11.10474 1.632797,-3.32337 5.066374,-7.30125 12.290716,-8.86509 l 0.05839,-1.13481 c 0.0042,-0.59719 -0.107712,-1.1138 -0.719323,-1.11208 z" />
      <path
         style="fill:#34185f;fill-opacity:0.421552;stroke:none;stroke-width:0.264583px;stroke-linecap:butt;stroke-linejoin:miter;stroke-opacity:1"
         d="m -16.084624,301.80054 c 3.845269,-2.87907 2.612152,-6.3108 1.225259,-7.6805 5.8780888,5.17616 -0.364279,8.80908 -1.225259,7.6805 z"
         id="path36565"
         sodipodi:nodetypes="ccc" />
    </g>
    <path
       style="opacity:0.172;fill:url(#radialGradient3815-1);fill-opacity:1;stroke-width:2.28131"
       d="m 24.204303,14.528695 a 9.6574562,9.6574562 0 0 0 -9.657274,9.657276 9.6574562,9.6574562 0 0 0 9.657274,9.657543 9.6574562,9.6574562 0 0 0 9.657547,-9.657543 9.6574562,9.6574562 0 0 0 -9.657547,-9.657276 z"
       id="path3813-6"
       inkscape:connector-curvature="0" />
    <path
       inkscape:connector-curvature="0"
       style="fill:url(#linearGradient2050);fill-opacity:1;stroke-width:1.93796"
       d="m 32.562558,24.173621 a 7.6911769,7.6911769 0 0 1 -7.691176,7.691178 7.6911769,7.6911769 0 0 1 -7.691177,-7.691178 7.6911769,7.6911769 0 0 1 7.691177,-7.691177 7.6911769,7.6911769 0 0 1 7.691176,7.691177 z"
       id="circle2973-0-2-9" />
    <g
       id="g2819"
       style="opacity:0.55952263">
      <path
         id="path2663"
         style="color:#000000;opacity:1;fill:#042449;fill-opacity:0.0462494;stroke-width:0.229874;stroke-linecap:round;stroke-linejoin:round;-inkscape-stroke:none"
         d="m 23.881099,20.434226 c -0.419249,0 -0.75706,0.337811 -0.75706,0.757059 v 2.351795 h -1.113627 c -0.462102,-1.53e-4 -0.751004,0.377501 -0.519865,0.679545 l 3.090767,4.04058 c 0.230989,0.301861 0.808223,0.301861 1.039213,0 l 3.09025,-4.04058 c 0.231024,-0.301894 -0.05748,-0.679398 -0.519348,-0.679545 h -1.11466 v -2.351795 c 0,-0.419248 -0.337294,-0.757059 -0.756543,-0.757059 z" />
      <path
         id="path2809"
         style="color:#000000;opacity:1;fill:#042449;fill-opacity:0.0462494;stroke-width:0.229874;stroke-linecap:round;stroke-linejoin:round;-inkscape-stroke:none"
         d="m 24.090238,20.729763 c -0.419249,0 -0.75706,0.337811 -0.75706,0.757059 v 2.351795 h -1.113627 c -0.462102,-1.53e-4 -0.751004,0.377501 -0.519865,0.679545 l 3.090767,4.04058 c 0.230989,0.301861 0.808223,0.301861 1.039213,0 l 3.09025,-4.04058 c 0.231024,-0.301894 -0.05748,-0.679398 -0.519348,-0.679545 h -1.11466 v -2.351795 c 0,-0.419248 -0.337294,-0.757059 -0.756543,-0.757059 z" />
      <path
         id="path2811"
         style="color:#000000;opacity:1;fill:#042449;fill-opacity:0.0462494;stroke-width:0.229874;stroke-linecap:round;stroke-linejoin:round;-inkscape-stroke:none"
         d="m 24.375867,21.153963 c -0.419249,0 -0.75706,0.337811 -0.75706,0.757059 v 2.351795 H 22.50518 c -0.462102,-1.53e-4 -0.751004,0.377501 -0.519865,0.679545 l 3.090767,4.04058 c 0.230989,0.301861 0.808223,0.301861 1.039213,0 l 3.09025,-4.04058 c 0.231024,-0.301894 -0.05748,-0.679398 -0.519348,-0.679545 h -1.11466 v -2.351795 c 0,-0.419248 -0.337294,-0.757059 -0.756543,-0.757059 z" />
      <path
         id="path2813"
         style="color:#000000;opacity:1;fill:#042449;fill-opacity:0.0462494;stroke-width:0.229874;stroke-linecap:round;stroke-linejoin:round;-inkscape-stroke:none"
         d="m 24.664665,21.633416 c -0.419249,0 -0.75706,0.337811 -0.75706,0.757059 v 2.351795 h -1.113627 c -0.462102,-1.53e-4 -0.751004,0.377501 -0.519865,0.679545 l 3.090767,4.04058 c 0.230989,0.301861 0.808223,0.301861 1.039213,0 l 3.09025,-4.04058 c 0.231024,-0.301894 -0.05748,-0.679398 -0.519348,-0.679545 h -1.11466 v -2.351795 c 0,-0.419248 -0.337294,-0.757059 -0.756543,-0.757059 z" />
    </g>
    <path
       id="path1159"
       style="color:#000000;opacity:1;fill:url(#linearGradient1843);stroke-width:0.229874;stroke-linecap:round;stroke-linejoin:round;-inkscape-stroke:none;fill-opacity:1"
       d="m 23.65182,20.318794 c -0.419249,0 -0.75706,0.337811 -0.75706,0.757059 v 2.351795 h -1.113627 c -0.462102,-1.53e-4 -0.751004,0.377501 -0.519865,0.679545 l 3.090767,4.04058 c 0.230989,0.301861 0.808223,0.301861 1.039213,0 l 3.09025,-4.04058 c 0.231024,-0.301894 -0.05748,-0.679398 -0.519348,-0.679545 h -1.11466 v -2.351795 c 0,-0.419248 -0.337294,-0.757059 -0.756543,-0.757059 z" />
  </g>
</svg>
