<?xml version="1.0" encoding="UTF-8" standalone="no"?>
<svg
   xmlns:dc="http://purl.org/dc/elements/1.1/"
   xmlns:cc="http://creativecommons.org/ns#"
   xmlns:rdf="http://www.w3.org/1999/02/22-rdf-syntax-ns#"
   xmlns:svg="http://www.w3.org/2000/svg"
   xmlns="http://www.w3.org/2000/svg"
   xmlns:xlink="http://www.w3.org/1999/xlink"
   xmlns:sodipodi="http://sodipodi.sourceforge.net/DTD/sodipodi-0.dtd"
   xmlns:inkscape="http://www.inkscape.org/namespaces/inkscape"
   width="128"
   height="128"
   viewBox="0 0 33.866666 33.866668"
   version="1.1"
   id="svg1829"
   inkscape:version="1.0.2 (e86c870879, 2021-01-15)"
   sodipodi:docname="zart.svg">
  <defs
     id="defs1823">
    <linearGradient
       inkscape:collect="always"
       id="linearGradient960">
      <stop
         style="stop-color:#ffffff;stop-opacity:1;"
         offset="0"
         id="stop956" />
      <stop
         style="stop-color:#ffffff;stop-opacity:0;"
         offset="1"
         id="stop958" />
    </linearGradient>
    <linearGradient
       inkscape:collect="always"
       id="linearGradient936">
      <stop
         style="stop-color:#ffffff;stop-opacity:1;"
         offset="0"
         id="stop932" />
      <stop
         style="stop-color:#0a6efc;stop-opacity:1"
         offset="1"
         id="stop934" />
    </linearGradient>
    <linearGradient
       inkscape:collect="always"
       id="linearGradient884">
      <stop
         style="stop-color:#30cbff;stop-opacity:1"
         offset="0"
         id="stop880" />
      <stop
         style="stop-color:#0a6efc;stop-opacity:1"
         offset="1"
         id="stop882" />
    </linearGradient>
    <radialGradient
       inkscape:collect="always"
       xlink:href="#linearGradient884"
       id="radialGradient886"
       cx="17.309874"
       cy="2.5295613"
       fx="17.309874"
       fy="2.5295613"
       r="14.54372"
       gradientUnits="userSpaceOnUse"
       gradientTransform="matrix(7.161795,0,0,1.7510995,-106.65989,-1.8999525)" />
    <linearGradient
       inkscape:collect="always"
       xlink:href="#linearGradient2048"
       id="linearGradient2050"
       x1="55.194855"
       y1="11.816931"
       x2="55.194855"
       y2="26.316303"
       gradientUnits="userSpaceOnUse"
       gradientTransform="translate(-32.074444,5.5255804)" />
    <linearGradient
       inkscape:collect="always"
       id="linearGradient2048">
      <stop
         style="stop-color:#ed63f9;stop-opacity:1"
         offset="0"
         id="stop2044" />
      <stop
         style="stop-color:#9328fa;stop-opacity:1"
         offset="1"
         id="stop2046" />
    </linearGradient>
    <linearGradient
       id="linearGradient895">
      <stop
         id="stop3335"
         offset="0" />
      <stop
         id="stop3337"
         offset="1"
         stop-opacity="0" />
    </linearGradient>
    <radialGradient
       inkscape:collect="always"
       xlink:href="#linearGradient929"
       id="radialGradient935"
       gradientUnits="userSpaceOnUse"
       gradientTransform="matrix(0.19726714,0,0,0.19726714,-13.046744,-4.9942432)"
       cx="190.85039"
       cy="148.92816"
       fx="190.85039"
       fy="148.92816"
       r="53.835484" />
    <linearGradient
       inkscape:collect="always"
       id="linearGradient929">
      <stop
         style="stop-color:#000000;stop-opacity:1;"
         offset="0"
         id="stop925" />
      <stop
         style="stop-color:#000000;stop-opacity:0.74117647;"
         offset="0.27787876"
         id="stop961" />
      <stop
         style="stop-color:#000000;stop-opacity:0.2627451;"
         offset="0.58380306"
         id="stop963" />
      <stop
         style="stop-color:#000000;stop-opacity:0.21568627;"
         offset="0.62281501"
         id="stop967" />
      <stop
         style="stop-color:#000000;stop-opacity:0.17254902;"
         offset="0.66894341"
         id="stop971" />
      <stop
         style="stop-color:#000000;stop-opacity:0.13333333;"
         offset="0.70968169"
         id="stop975" />
      <stop
         style="stop-color:#000000;stop-opacity:0.09019608;"
         offset="0.76298833"
         id="stop979" />
      <stop
         style="stop-color:#000000;stop-opacity:0.06666667;"
         offset="0.79677397"
         id="stop977" />
      <stop
         style="stop-color:#000000;stop-opacity:0.03137255;"
         offset="0.86606854"
         id="stop981" />
      <stop
         style="stop-color:#000000;stop-opacity:0.02745098;"
         offset="0.88822615"
         id="stop947" />
      <stop
         style="stop-color:#000000;stop-opacity:0.02352941;"
         offset="0.90482414"
         id="stop983" />
      <stop
         style="stop-color:#000000;stop-opacity:0.01960784;"
         offset="0.91823369"
         id="stop987" />
      <stop
         style="stop-color:#000000;stop-opacity:0.01176471;"
         offset="0.94519842"
         id="stop991" />
      <stop
         style="stop-color:#000000;stop-opacity:0;"
         offset="1"
         id="stop927" />
    </linearGradient>
    <linearGradient
       inkscape:collect="always"
       xlink:href="#linearGradient936"
       id="linearGradient938"
       x1="7.0882506"
       y1="17.073038"
       x2="7.0882506"
       y2="60.170685"
       gradientUnits="userSpaceOnUse" />
    <linearGradient
       inkscape:collect="always"
       xlink:href="#linearGradient960"
       id="linearGradient962"
       x1="21.663696"
       y1="19.946484"
       x2="21.663696"
       y2="42.456772"
       gradientUnits="userSpaceOnUse" />
  </defs>
  <sodipodi:namedview
     id="base"
     pagecolor="#ffffff"
     bordercolor="#666666"
     borderopacity="1.0"
     inkscape:pageopacity="0.0"
     inkscape:pageshadow="2"
     inkscape:zoom="3.959798"
     inkscape:cx="86.471646"
     inkscape:cy="127.77351"
     inkscape:document-units="mm"
     inkscape:current-layer="layer1"
     inkscape:document-rotation="0"
     showgrid="false"
     units="px"
     inkscape:window-width="1920"
     inkscape:window-height="1028"
     inkscape:window-x="0"
     inkscape:window-y="24"
     inkscape:window-maximized="1" />
  <metadata
     id="metadata1826">
    <rdf:RDF>
      <cc:Work
         rdf:about="">
        <dc:format>image/svg+xml</dc:format>
        <dc:type
           rdf:resource="http://purl.org/dc/dcmitype/StillImage" />
        <dc:title></dc:title>
      </cc:Work>
    </rdf:RDF>
  </metadata>
  <g
     inkscape:label="Capa 1"
     inkscape:groupmode="layer"
     id="layer1">
    <g
       id="g1702"
       transform="matrix(0.97573206,0,0,0.97573206,-65.58674,-37.192363)"
       style="opacity:0.296765">
      <rect
         style="fill:none;fill-opacity:1;stroke:#000000;stroke-width:0.1;stroke-linecap:round;stroke-linejoin:round;stroke-miterlimit:4;stroke-dasharray:none;stroke-opacity:0.02"
         id="rect1634"
         width="29.810888"
         height="29.810888"
         x="69.839508"
         y="40.709618"
         rx="6.6098609"
         ry="6.6098609" />
      <rect
         ry="6.6098609"
         rx="6.6098609"
         y="40.709618"
         x="69.839508"
         height="29.810888"
         width="29.810888"
         id="rect1638"
         style="fill:none;fill-opacity:1;stroke:#000000;stroke-width:0.2;stroke-linecap:round;stroke-linejoin:round;stroke-miterlimit:4;stroke-dasharray:none;stroke-opacity:0.02" />
      <rect
         style="fill:none;fill-opacity:1;stroke:#000000;stroke-width:0.3;stroke-linecap:round;stroke-linejoin:round;stroke-miterlimit:4;stroke-dasharray:none;stroke-opacity:0.02"
         id="rect1640"
         width="29.810888"
         height="29.810888"
         x="69.839508"
         y="40.709618"
         rx="6.6098609"
         ry="6.6098609" />
      <rect
         ry="6.6098609"
         rx="6.6098609"
         y="40.709618"
         x="69.839508"
         height="29.810888"
         width="29.810888"
         id="rect1642"
         style="fill:none;fill-opacity:1;stroke:#000000;stroke-width:0.4;stroke-linecap:round;stroke-linejoin:round;stroke-miterlimit:4;stroke-dasharray:none;stroke-opacity:0.02" />
      <rect
         style="fill:none;fill-opacity:1;stroke:#000000;stroke-width:0.5;stroke-linecap:round;stroke-linejoin:round;stroke-miterlimit:4;stroke-dasharray:none;stroke-opacity:0.02"
         id="rect1644"
         width="29.810888"
         height="29.810888"
         x="69.839508"
         y="40.709618"
         rx="6.6098609"
         ry="6.6098609" />
      <rect
         ry="6.6098609"
         rx="6.6098609"
         y="40.709618"
         x="69.839508"
         height="29.810888"
         width="29.810888"
         id="rect1646"
         style="fill:none;fill-opacity:1;stroke:#000000;stroke-width:0.6;stroke-linecap:round;stroke-linejoin:round;stroke-miterlimit:4;stroke-dasharray:none;stroke-opacity:0.02" />
      <rect
         style="fill:none;fill-opacity:1;stroke:#000000;stroke-width:0.7;stroke-linecap:round;stroke-linejoin:round;stroke-miterlimit:4;stroke-dasharray:none;stroke-opacity:0.02"
         id="rect1648"
         width="29.810888"
         height="29.810888"
         x="69.839508"
         y="40.709618"
         rx="6.6098609"
         ry="6.6098609" />
      <rect
         ry="6.6098609"
         rx="6.6098609"
         y="40.709618"
         x="69.839508"
         height="29.810888"
         width="29.810888"
         id="rect1650"
         style="fill:none;fill-opacity:1;stroke:#000000;stroke-width:0.8;stroke-linecap:round;stroke-linejoin:round;stroke-miterlimit:4;stroke-dasharray:none;stroke-opacity:0.02" />
      <rect
         style="fill:none;fill-opacity:1;stroke:#000000;stroke-width:1;stroke-linecap:round;stroke-linejoin:round;stroke-miterlimit:4;stroke-dasharray:none;stroke-opacity:0.02"
         id="rect1652"
         width="29.810888"
         height="29.810888"
         x="69.839508"
         y="40.709618"
         rx="6.6098609"
         ry="6.6098609" />
      <rect
         ry="6.6098609"
         rx="6.6098609"
         y="40.709618"
         x="69.839508"
         height="29.810888"
         width="29.810888"
         id="rect1654"
         style="fill:none;fill-opacity:1;stroke:#000000;stroke-width:1.2;stroke-linecap:round;stroke-linejoin:round;stroke-miterlimit:4;stroke-dasharray:none;stroke-opacity:0.02" />
      <rect
         style="fill:none;fill-opacity:1;stroke:#000000;stroke-width:1.4;stroke-linecap:round;stroke-linejoin:round;stroke-miterlimit:4;stroke-dasharray:none;stroke-opacity:0.02"
         id="rect1656"
         width="29.810888"
         height="29.810888"
         x="69.839508"
         y="40.709618"
         rx="6.6098609"
         ry="6.6098609" />
      <rect
         ry="6.6098609"
         rx="6.6098609"
         y="40.709618"
         x="69.839508"
         height="29.810888"
         width="29.810888"
         id="rect1658"
         style="fill:none;fill-opacity:1;stroke:#000000;stroke-width:1.6;stroke-linecap:round;stroke-linejoin:round;stroke-miterlimit:4;stroke-dasharray:none;stroke-opacity:0.02" />
      <rect
         style="fill:none;fill-opacity:1;stroke:#000000;stroke-width:1.8;stroke-linecap:round;stroke-linejoin:round;stroke-miterlimit:4;stroke-dasharray:none;stroke-opacity:0.02"
         id="rect1660"
         width="29.810888"
         height="29.810888"
         x="69.839508"
         y="40.709618"
         rx="6.6098609"
         ry="6.6098609" />
      <rect
         ry="6.6098609"
         rx="6.6098609"
         y="40.709618"
         x="69.839508"
         height="29.810888"
         width="29.810888"
         id="rect1662"
         style="fill:none;fill-opacity:1;stroke:#000000;stroke-width:2;stroke-linecap:round;stroke-linejoin:round;stroke-miterlimit:4;stroke-dasharray:none;stroke-opacity:0.02" />
      <rect
         style="fill:none;fill-opacity:1;stroke:#000000;stroke-width:2.2;stroke-linecap:round;stroke-linejoin:round;stroke-miterlimit:4;stroke-dasharray:none;stroke-opacity:0.02"
         id="rect1664"
         width="29.810888"
         height="29.810888"
         x="69.839508"
         y="40.709618"
         rx="6.6098609"
         ry="6.6098609" />
      <rect
         ry="6.6098609"
         rx="6.6098609"
         y="40.709618"
         x="69.839508"
         height="29.810888"
         width="29.810888"
         id="rect1666"
         style="fill:none;fill-opacity:1;stroke:#000000;stroke-width:2.6;stroke-linecap:round;stroke-linejoin:round;stroke-miterlimit:4;stroke-dasharray:none;stroke-opacity:0.02" />
      <rect
         style="fill:none;fill-opacity:1;stroke:#000000;stroke-width:3;stroke-linecap:round;stroke-linejoin:round;stroke-miterlimit:4;stroke-dasharray:none;stroke-opacity:0.02"
         id="rect1668"
         width="29.810888"
         height="29.810888"
         x="69.839508"
         y="40.709618"
         rx="6.6098609"
         ry="6.6098609" />
      <rect
         ry="6.6098609"
         rx="6.6098609"
         y="40.709618"
         x="69.839508"
         height="29.810888"
         width="29.810888"
         id="rect1670"
         style="fill:none;fill-opacity:1;stroke:#000000;stroke-width:3.4;stroke-linecap:round;stroke-linejoin:round;stroke-miterlimit:4;stroke-dasharray:none;stroke-opacity:0.02" />
      <rect
         style="fill:none;fill-opacity:1;stroke:#000000;stroke-width:3.8;stroke-linecap:round;stroke-linejoin:round;stroke-miterlimit:4;stroke-dasharray:none;stroke-opacity:0.02"
         id="rect1672"
         width="29.810888"
         height="29.810888"
         x="69.839508"
         y="40.709618"
         rx="6.6098609"
         ry="6.6098609" />
      <rect
         ry="6.6098609"
         rx="6.6098609"
         y="40.709618"
         x="69.839508"
         height="29.810888"
         width="29.810888"
         id="rect1674"
         style="fill:none;fill-opacity:1;stroke:#000000;stroke-width:4.2;stroke-linecap:round;stroke-linejoin:round;stroke-miterlimit:4;stroke-dasharray:none;stroke-opacity:0.02" />
      <rect
         style="fill:none;fill-opacity:1;stroke:#000000;stroke-width:4.6;stroke-linecap:round;stroke-linejoin:round;stroke-miterlimit:4;stroke-dasharray:none;stroke-opacity:0.02"
         id="rect1676"
         width="29.810888"
         height="29.810888"
         x="69.839508"
         y="40.709618"
         rx="6.6098609"
         ry="6.6098609" />
      <rect
         ry="6.6098609"
         rx="6.6098609"
         y="40.709618"
         x="69.839508"
         height="29.810888"
         width="29.810888"
         id="rect1678"
         style="fill:none;fill-opacity:1;stroke:#000000;stroke-width:5;stroke-linecap:round;stroke-linejoin:round;stroke-miterlimit:4;stroke-dasharray:none;stroke-opacity:0.02" />
    </g>
    <rect
       style="fill:url(#radialGradient886);fill-opacity:1;stroke-width:2.68769;stroke-linecap:round;stroke-linejoin:round"
       id="rect849-5"
       width="29.08744"
       height="29.08744"
       x="2.5579116"
       y="2.5293181"
       rx="6.4494534"
       ry="6.4494534" />
    <path
       id="path940"
       style="fill:#051c77;fill-opacity:0.224008;stroke-width:0.500664"
       d="m 15.928996,7.284641 -0.213173,2.0036375 -1.516663,1.3318455 1.844246,0.822381 0.79989,1.850113 1.35336,-1.496127 2.010482,-0.18775 -1.007197,-1.7464588 0.442971,-1.9664777 -1.976257,0.4165686 z m 7.411207,1.0013295 -0.637565,0.7842448 -0.993506,0.1408119 0.539779,0.8566058 -0.175037,0.999374 0.971015,-0.254244 0.885943,0.477196 0.06063,-1.014042 0.721661,-0.7050368 -0.932879,-0.3715875 z m -10.74669,4.0053175 c -0.859164,-0.004 -1.825781,0.06816 -2.437807,0.195573 -4.5845459,0.954337 -1.8264364,4.404453 0.668856,4.665374 3.023796,0.703996 10.186131,-1.346274 13.086712,-1.844246 0.383729,-0.06587 0.744619,-0.110406 0.957326,-0.122233 1.199192,-0.06668 2.31378,0.248303 2.54146,0.319761 0.04613,0.01173 0.470052,0.202682 0.239576,-0.266956 -0.181318,-0.369484 -2.04805,-1.54206 -3.277789,-1.78753 -0.960575,-0.32015 -1.962264,-0.724418 -3.025502,-0.647344 -1.314606,0.09531 -3.088185,1.691374 -2.33122,1.679965 0.746236,-0.01135 1.685249,-0.689614 2.517014,-0.678635 0.60916,0.0079 2.071723,0.166587 1.774817,0.604318 -0.293403,0.359879 -4.697018,0.768254 -8.068329,0.635609 -2.033628,-0.08002 -4.253717,-1.006824 -3.422514,-1.645739 0.988482,-0.759806 2.751385,-0.664699 2.568841,-0.844872 -0.181034,-0.178669 -0.932278,-0.25895 -1.791441,-0.263045 z M 22.85714,16.0893 c -2.852769,0.292235 -5.799632,1.530848 -10.00645,1.717124 0.167811,2.782459 -0.43074,5.209023 -1.129429,7.028863 -0.247811,1.110854 1.395822,1.859286 3.544745,2.29015 3.588591,0.719514 8.240912,-0.804815 8.445785,-2.021238 -0.04516,-0.761276 -1.715706,-4.905344 -0.854651,-9.014899 z" />
    <path
       id="path8"
       style="fill:url(#linearGradient938);fill-opacity:1;stroke-width:0.500664"
       d="m 15.326189,7.0599748 -0.213173,2.0036375 -1.516663,1.3318457 1.844246,0.822381 0.79989,1.850113 1.35336,-1.496127 2.010482,-0.18775 -1.007197,-1.7464587 0.442971,-1.966478 -1.976257,0.4165686 z m 7.411207,1.0013295 -0.637565,0.7842448 -0.993506,0.1408119 0.539779,0.8566063 -0.175037,0.9993737 0.971015,-0.254244 0.885943,0.477196 0.06063,-1.014042 0.721661,-0.7050367 -0.932879,-0.3715878 z m -10.74669,4.0053177 c -0.859164,-0.004 -1.825781,0.06816 -2.4378075,0.195573 -4.5845458,0.954337 -1.8264363,4.404453 0.6688565,4.665374 3.023796,0.703996 10.186131,-1.346274 13.086712,-1.844246 0.383729,-0.06587 0.744619,-0.110406 0.957326,-0.122233 1.199192,-0.06668 2.31378,0.248303 2.54146,0.319761 0.04613,0.01173 0.470052,0.202682 0.239576,-0.266956 -0.181318,-0.369484 -2.04805,-1.54206 -3.277789,-1.78753 -0.960575,-0.32015 -1.962264,-0.724418 -3.025502,-0.647344 -1.314606,0.09531 -3.088185,1.691374 -2.33122,1.679965 0.746236,-0.01135 1.685249,-0.689614 2.517014,-0.678635 0.60916,0.0079 2.071723,0.166587 1.774817,0.604318 -0.293403,0.359879 -4.697018,0.768254 -8.068329,0.635609 -2.033628,-0.08002 -4.253717,-1.006824 -3.422514,-1.645739 0.988482,-0.759806 2.751385,-0.664699 2.568841,-0.844872 -0.181034,-0.178669 -0.932278,-0.25895 -1.791441,-0.263045 z m 10.263627,3.798012 c -2.852769,0.292235 -5.799632,1.530848 -10.00645,1.717124 0.167811,2.782459 -0.43074,5.209023 -1.129429,7.028863 -0.247811,1.110854 1.395822,1.859286 3.544745,2.29015 3.588591,0.719514 8.240912,-0.804815 8.445785,-2.021238 -0.04516,-0.761276 -1.715706,-4.905344 -0.854651,-9.014899 z" />
    <path
       id="path942"
       style="fill:#000978;fill-opacity:0.1131217;stroke-width:1.89227"
       d="M 71.962891 28.994141 L 70.023438 29.402344 L 68.677734 35.367188 L 72.484375 41.96875 L 64.886719 42.677734 L 60.550781 47.470703 L 61.380859 49.390625 L 66.496094 43.736328 L 74.095703 43.027344 L 70.289062 36.425781 L 71.962891 28.994141 z M 85.9375 30.46875 L 85.246094 31.318359 L 85.990234 32.861328 L 87.351562 33.402344 L 85.9375 30.46875 z M 89.212891 34.5625 L 86.789062 36.931641 L 86.558594 40.763672 L 83.210938 38.960938 L 81.421875 39.429688 L 81.150391 40.978516 L 84.820312 40.017578 L 88.167969 41.822266 L 88.398438 37.988281 L 91.125 35.324219 L 89.212891 34.5625 z M 51.644531 39.064453 L 51.388672 39.289062 L 56.929688 41.761719 L 56.748047 41.339844 L 51.644531 39.064453 z M 49.896484 45.892578 C 48.259432 46.22404 43.659804 46.516194 40.771484 48.736328 C 39.339827 49.83679 40.317334 51.160112 42.517578 52.306641 C 41.561065 51.45129 41.375181 50.565997 42.380859 49.792969 C 46.116854 46.921261 52.779774 47.280578 52.089844 46.599609 C 51.771249 46.285177 50.973197 46.054235 49.896484 45.892578 z M 77.494141 50.269531 C 74.811061 50.234116 71.836208 52.087052 69.267578 52.660156 C 68.751784 53.39227 68.753631 53.905182 69.589844 53.892578 C 72.410263 53.84968 75.959837 51.28663 79.103516 51.328125 C 80.417111 51.345161 82.75264 51.557052 84.332031 52.035156 C 84.106727 50.773433 79.536446 50.296017 77.494141 50.269531 z M 98.470703 53.775391 C 99.587256 54.564866 100.40949 55.268242 100.61523 55.6875 C 101.48632 57.46251 99.883334 56.741599 99.708984 56.697266 C 98.848462 56.427188 94.635895 55.236262 90.103516 55.488281 C 89.299584 55.532982 87.934689 55.700261 86.484375 55.949219 C 75.521549 57.831318 48.451958 65.580694 37.023438 62.919922 C 35.113822 62.720242 33.166499 62.021402 31.414062 61.011719 C 33.527431 62.586331 36.112997 63.71503 38.632812 63.978516 C 50.061333 66.639288 77.132877 58.889911 88.095703 57.007812 C 89.546017 56.758855 90.908959 56.589622 91.712891 56.544922 C 96.24527 56.292903 100.45784 57.483829 101.31836 57.753906 C 101.49271 57.79824 103.0957 58.521104 102.22461 56.746094 C 101.92973 56.1452 100.42514 54.979287 98.470703 53.775391 z M 84.111328 59.960938 C 83.494601 60.024114 82.875738 60.100379 82.255859 60.185547 C 79.591657 75.287711 85.564483 90.176535 85.730469 92.974609 C 84.956146 97.572114 67.373725 103.3327 53.810547 100.61328 C 49.912099 99.831634 46.464493 98.771422 44.025391 97.417969 C 46.394807 99.289335 50.558058 100.69706 55.419922 101.67188 C 68.9831 104.3913 86.567474 98.630707 87.341797 94.033203 C 87.171113 91.15594 80.856947 75.493114 84.111328 59.960938 z "
       transform="scale(0.26458333)" />
    <circle
       style="opacity:0.642159;fill:url(#radialGradient935);fill-opacity:1;stroke:none;stroke-width:6.18303;stroke-linecap:round;stroke-linejoin:round;stroke-miterlimit:4;stroke-dasharray:none;stroke-opacity:1"
       id="circle923"
       cx="24.60177"
       cy="24.384392"
       r="10.619973" />
    <path
       inkscape:connector-curvature="0"
       style="fill:url(#linearGradient2050);fill-opacity:1;stroke-width:1.93796"
       d="m 32.622837,24.358335 a 7.6911769,7.6911769 0 0 1 -7.691176,7.691177 7.6911769,7.6911769 0 0 1 -7.691177,-7.691177 7.6911769,7.6911769 0 0 1 7.691177,-7.691177 7.6911769,7.6911769 0 0 1 7.691176,7.691177 z"
       id="circle2973-0-2-9" />
    <path
       style="fill:url(#linearGradient962);stroke-width:0.422033;fill-opacity:1"
       d="m 22.121999,19.369972 c -0.253033,0 -0.458302,0.200471 -0.458302,0.447587 v 6.723688 c 0,0.247116 0.205293,0.421881 0.458302,0.42533 h 1.229832 v 1.266101 h -1.229832 c -0.253033,0 -0.458302,0.160906 -0.458302,0.408022 v 0.410493 c 0,0.247115 0.205269,0.447586 0.458302,0.447586 H 27.5359 c 0.253032,0 0.458302,-0.200471 0.458302,-0.447586 V 28.6407 c 0,-0.247116 -0.205342,-0.40197 -0.458302,-0.408022 H 26.306066 V 26.966577 H 27.5359 c 0.253032,0 0.458302,-0.178214 0.458302,-0.42533 v -6.723688 c 0,-0.247116 -0.205269,-0.447587 -0.458302,-0.447587 z m 2.706951,1.266101 c 1.048807,0 1.899151,0.850273 1.899151,1.899152 0,1.048877 -0.850274,1.899152 -1.899151,1.899152 -1.048879,0 -1.899152,-0.850275 -1.899152,-1.899152 0,-1.048879 0.850343,-1.899152 1.899152,-1.899152 z m 0,0.844067 c -0.582737,0 -1.055084,0.472347 -1.055084,1.055085 0,0.582735 0.472347,1.055084 1.055084,1.055084 0.582736,0 1.055083,-0.472349 1.055083,-1.055084 0,-0.582738 -0.472347,-1.055085 -1.055083,-1.055085 z m 0,0.422034 c 0.349649,0 0.63305,0.2834 0.63305,0.633051 7.3e-5,0.349578 -0.283401,0.63305 -0.63305,0.63305 -0.349652,0 -0.633051,-0.283472 -0.633051,-0.63305 0,-0.349651 0.283399,-0.633051 0.633051,-0.633051 z m 1.688134,2.954236 c 0.349594,0 0.63305,0.283456 0.63305,0.63305 0,0.349592 -0.283456,0.633051 -0.63305,0.633051 -0.349593,0 -0.633051,-0.283459 -0.633051,-0.633051 0,-0.349594 0.283458,-0.63305 0.633051,-0.63305 z"
       id="path22" />
  </g>
</svg>
