<?xml version="1.0" encoding="UTF-8" standalone="no"?>
<svg
   xmlns:dc="http://purl.org/dc/elements/1.1/"
   xmlns:cc="http://creativecommons.org/ns#"
   xmlns:rdf="http://www.w3.org/1999/02/22-rdf-syntax-ns#"
   xmlns:svg="http://www.w3.org/2000/svg"
   xmlns="http://www.w3.org/2000/svg"
   xmlns:xlink="http://www.w3.org/1999/xlink"
   xmlns:sodipodi="http://sodipodi.sourceforge.net/DTD/sodipodi-0.dtd"
   xmlns:inkscape="http://www.inkscape.org/namespaces/inkscape"
   width="128"
   height="128"
   viewBox="0 0 33.866666 33.866668"
   version="1.1"
   id="svg1603"
   inkscape:version="1.0.2 (e86c870879, 2021-01-15)"
   sodipodi:docname="zekr.svg">
  <defs
     id="defs1597">
    <linearGradient
       gradientUnits="userSpaceOnUse"
       y2="3.2720017"
       x2="19.33639"
       y1="31.326756"
       x1="19.33639"
       id="linearGradient4292"
       xlink:href="#linearGradient4290"
       inkscape:collect="always"
       gradientTransform="translate(0.03024414,-0.07863919)" />
    <linearGradient
       id="linearGradient4290"
       inkscape:collect="always">
      <stop
         id="stop4286"
         offset="0"
         style="stop-color:#28282a;stop-opacity:1" />
      <stop
         id="stop4288"
         offset="1"
         style="stop-color:#45494b;stop-opacity:1" />
    </linearGradient>
    <linearGradient
       gradientTransform="translate(0.03024414,-1.1395486)"
       y2="17.867891"
       x2="-0.021682218"
       y1="17.867891"
       x1="32.643162"
       gradientUnits="userSpaceOnUse"
       id="linearGradient4259"
       xlink:href="#linearGradient4273"
       inkscape:collect="always" />
    <linearGradient
       id="linearGradient4273"
       inkscape:collect="always">
      <stop
         id="stop4261"
         offset="0"
         style="stop-color:#544c41;stop-opacity:1" />
      <stop
         style="stop-color:#d5d1c8;stop-opacity:1"
         offset="0.2586937"
         id="stop4263" />
      <stop
         id="stop4265"
         offset="0.51738739"
         style="stop-color:#d0d1c7;stop-opacity:1" />
      <stop
         id="stop4267"
         offset="0.71043241"
         style="stop-color:#ced0c3;stop-opacity:1" />
      <stop
         id="stop4271"
         offset="1"
         style="stop-color:#2a2319;stop-opacity:1" />
    </linearGradient>
    <linearGradient
       gradientUnits="userSpaceOnUse"
       y2="18.620737"
       x2="15.52189"
       y1="18.620737"
       x1="2.3962648"
       id="linearGradient4390"
       xlink:href="#linearGradient4388"
       inkscape:collect="always"
       gradientTransform="translate(0.03024414,-0.07863919)" />
    <linearGradient
       id="linearGradient4388"
       inkscape:collect="always">
      <stop
         id="stop4384"
         offset="0"
         style="stop-color:#000000;stop-opacity:1;" />
      <stop
         id="stop4386"
         offset="1"
         style="stop-color:#000000;stop-opacity:0;" />
    </linearGradient>
    <linearGradient
       gradientTransform="translate(-0.06041626,0.00481472)"
       y2="14.837414"
       x2="4.1613555"
       y1="14.837414"
       x1="2.4519663"
       gradientUnits="userSpaceOnUse"
       id="linearGradient4223"
       xlink:href="#linearGradient4229"
       inkscape:collect="always" />
    <linearGradient
       id="linearGradient4229"
       inkscape:collect="always">
      <stop
         id="stop4225"
         offset="0"
         style="stop-color:#3d4042;stop-opacity:1" />
      <stop
         style="stop-color:#5b5e61;stop-opacity:1"
         offset="0.22937378"
         id="stop4239" />
      <stop
         id="stop4237"
         offset="0.50313646"
         style="stop-color:#64686c;stop-opacity:1" />
      <stop
         style="stop-color:#3e4143;stop-opacity:1"
         offset="0.78809863"
         id="stop4241" />
      <stop
         id="stop4227"
         offset="1"
         style="stop-color:#262729;stop-opacity:1" />
    </linearGradient>
    <linearGradient
       gradientTransform="translate(0.03024414,-0.07863919)"
       gradientUnits="userSpaceOnUse"
       y2="4.8309593"
       x2="18.560169"
       y1="26.492117"
       x1="18.560169"
       id="linearGradient4327"
       xlink:href="#linearGradient4325"
       inkscape:collect="always" />
    <linearGradient
       id="linearGradient4325"
       inkscape:collect="always">
      <stop
         id="stop4321"
         offset="0"
         style="stop-color:#313234;stop-opacity:1" />
      <stop
         id="stop4323"
         offset="1"
         style="stop-color:#45494b;stop-opacity:1" />
    </linearGradient>
    <linearGradient
       gradientUnits="userSpaceOnUse"
       y2="107.98306"
       x2="16.759779"
       y1="95.191864"
       x1="13.332388"
       id="linearGradient4319"
       xlink:href="#linearGradient4317"
       inkscape:collect="always"
       gradientTransform="matrix(0.26458333,0,0,0.26458333,0.03024414,-0.07863919)" />
    <linearGradient
       id="linearGradient4317"
       inkscape:collect="always">
      <stop
         id="stop4313"
         offset="0"
         style="stop-color:#5d2e2b;stop-opacity:0" />
      <stop
         id="stop4315"
         offset="1"
         style="stop-color:#262729;stop-opacity:1" />
    </linearGradient>
    <linearGradient
       inkscape:collect="always"
       xlink:href="#linearGradient4365"
       id="linearGradient4371"
       x1="74.836472"
       y1="1042.3961"
       x2="74.836472"
       y2="1035.735"
       gradientUnits="userSpaceOnUse"
       gradientTransform="matrix(0.26458333,0,0,0.26458333,-9.2914451,-245.1325)" />
    <linearGradient
       inkscape:collect="always"
       id="linearGradient4365">
      <stop
         style="stop-color:#ea1515;stop-opacity:1;"
         offset="0"
         id="stop4367" />
      <stop
         style="stop-color:#800000;stop-opacity:1"
         offset="1"
         id="stop4369" />
    </linearGradient>
  </defs>
  <sodipodi:namedview
     id="base"
     pagecolor="#ffffff"
     bordercolor="#666666"
     borderopacity="1.0"
     inkscape:pageopacity="0.0"
     inkscape:pageshadow="2"
     inkscape:zoom="1.979899"
     inkscape:cx="69.516276"
     inkscape:cy="40.382993"
     inkscape:document-units="mm"
     inkscape:current-layer="layer1"
     inkscape:document-rotation="0"
     showgrid="false"
     units="px"
     inkscape:window-width="1514"
     inkscape:window-height="941"
     inkscape:window-x="50"
     inkscape:window-y="27"
     inkscape:window-maximized="0" />
  <metadata
     id="metadata1600">
    <rdf:RDF>
      <cc:Work
         rdf:about="">
        <dc:format>image/svg+xml</dc:format>
        <dc:type
           rdf:resource="http://purl.org/dc/dcmitype/StillImage" />
        <dc:title></dc:title>
      </cc:Work>
    </rdf:RDF>
  </metadata>
  <g
     inkscape:label="Capa 1"
     inkscape:groupmode="layer"
     id="layer1">
    <g
       style="opacity:0.295"
       transform="matrix(0.97573206,0,0,0.97573206,-65.718139,-37.281733)"
       id="g1702">
      <rect
         ry="6.6098609"
         rx="6.6098609"
         y="40.709618"
         x="69.839508"
         height="29.810888"
         width="29.810888"
         id="rect1634"
         style="fill:none;fill-opacity:1;stroke:#000000;stroke-width:0.1;stroke-linecap:round;stroke-linejoin:round;stroke-miterlimit:4;stroke-dasharray:none;stroke-opacity:0.02" />
      <rect
         style="fill:none;fill-opacity:1;stroke:#000000;stroke-width:0.2;stroke-linecap:round;stroke-linejoin:round;stroke-miterlimit:4;stroke-dasharray:none;stroke-opacity:0.02"
         id="rect1638"
         width="29.810888"
         height="29.810888"
         x="69.839508"
         y="40.709618"
         rx="6.6098609"
         ry="6.6098609" />
      <rect
         ry="6.6098609"
         rx="6.6098609"
         y="40.709618"
         x="69.839508"
         height="29.810888"
         width="29.810888"
         id="rect1640"
         style="fill:none;fill-opacity:1;stroke:#000000;stroke-width:0.3;stroke-linecap:round;stroke-linejoin:round;stroke-miterlimit:4;stroke-dasharray:none;stroke-opacity:0.02" />
      <rect
         style="fill:none;fill-opacity:1;stroke:#000000;stroke-width:0.4;stroke-linecap:round;stroke-linejoin:round;stroke-miterlimit:4;stroke-dasharray:none;stroke-opacity:0.02"
         id="rect1642"
         width="29.810888"
         height="29.810888"
         x="69.839508"
         y="40.709618"
         rx="6.6098609"
         ry="6.6098609" />
      <rect
         ry="6.6098609"
         rx="6.6098609"
         y="40.709618"
         x="69.839508"
         height="29.810888"
         width="29.810888"
         id="rect1644"
         style="fill:none;fill-opacity:1;stroke:#000000;stroke-width:0.5;stroke-linecap:round;stroke-linejoin:round;stroke-miterlimit:4;stroke-dasharray:none;stroke-opacity:0.02" />
      <rect
         style="fill:none;fill-opacity:1;stroke:#000000;stroke-width:0.6;stroke-linecap:round;stroke-linejoin:round;stroke-miterlimit:4;stroke-dasharray:none;stroke-opacity:0.02"
         id="rect1646"
         width="29.810888"
         height="29.810888"
         x="69.839508"
         y="40.709618"
         rx="6.6098609"
         ry="6.6098609" />
      <rect
         ry="6.6098609"
         rx="6.6098609"
         y="40.709618"
         x="69.839508"
         height="29.810888"
         width="29.810888"
         id="rect1648"
         style="fill:none;fill-opacity:1;stroke:#000000;stroke-width:0.7;stroke-linecap:round;stroke-linejoin:round;stroke-miterlimit:4;stroke-dasharray:none;stroke-opacity:0.02" />
      <rect
         style="fill:none;fill-opacity:1;stroke:#000000;stroke-width:0.8;stroke-linecap:round;stroke-linejoin:round;stroke-miterlimit:4;stroke-dasharray:none;stroke-opacity:0.02"
         id="rect1650"
         width="29.810888"
         height="29.810888"
         x="69.839508"
         y="40.709618"
         rx="6.6098609"
         ry="6.6098609" />
      <rect
         ry="6.6098609"
         rx="6.6098609"
         y="40.709618"
         x="69.839508"
         height="29.810888"
         width="29.810888"
         id="rect1652"
         style="fill:none;fill-opacity:1;stroke:#000000;stroke-width:1;stroke-linecap:round;stroke-linejoin:round;stroke-miterlimit:4;stroke-dasharray:none;stroke-opacity:0.02" />
      <rect
         style="fill:none;fill-opacity:1;stroke:#000000;stroke-width:1.2;stroke-linecap:round;stroke-linejoin:round;stroke-miterlimit:4;stroke-dasharray:none;stroke-opacity:0.02"
         id="rect1654"
         width="29.810888"
         height="29.810888"
         x="69.839508"
         y="40.709618"
         rx="6.6098609"
         ry="6.6098609" />
      <rect
         ry="6.6098609"
         rx="6.6098609"
         y="40.709618"
         x="69.839508"
         height="29.810888"
         width="29.810888"
         id="rect1656"
         style="fill:none;fill-opacity:1;stroke:#000000;stroke-width:1.4;stroke-linecap:round;stroke-linejoin:round;stroke-miterlimit:4;stroke-dasharray:none;stroke-opacity:0.02" />
      <rect
         style="fill:none;fill-opacity:1;stroke:#000000;stroke-width:1.6;stroke-linecap:round;stroke-linejoin:round;stroke-miterlimit:4;stroke-dasharray:none;stroke-opacity:0.02"
         id="rect1658"
         width="29.810888"
         height="29.810888"
         x="69.839508"
         y="40.709618"
         rx="6.6098609"
         ry="6.6098609" />
      <rect
         ry="6.6098609"
         rx="6.6098609"
         y="40.709618"
         x="69.839508"
         height="29.810888"
         width="29.810888"
         id="rect1660"
         style="fill:none;fill-opacity:1;stroke:#000000;stroke-width:1.8;stroke-linecap:round;stroke-linejoin:round;stroke-miterlimit:4;stroke-dasharray:none;stroke-opacity:0.02" />
      <rect
         style="fill:none;fill-opacity:1;stroke:#000000;stroke-width:2;stroke-linecap:round;stroke-linejoin:round;stroke-miterlimit:4;stroke-dasharray:none;stroke-opacity:0.02"
         id="rect1662"
         width="29.810888"
         height="29.810888"
         x="69.839508"
         y="40.709618"
         rx="6.6098609"
         ry="6.6098609" />
      <rect
         ry="6.6098609"
         rx="6.6098609"
         y="40.709618"
         x="69.839508"
         height="29.810888"
         width="29.810888"
         id="rect1664"
         style="fill:none;fill-opacity:1;stroke:#000000;stroke-width:2.2;stroke-linecap:round;stroke-linejoin:round;stroke-miterlimit:4;stroke-dasharray:none;stroke-opacity:0.02" />
      <rect
         style="fill:none;fill-opacity:1;stroke:#000000;stroke-width:2.6;stroke-linecap:round;stroke-linejoin:round;stroke-miterlimit:4;stroke-dasharray:none;stroke-opacity:0.02"
         id="rect1666"
         width="29.810888"
         height="29.810888"
         x="69.839508"
         y="40.709618"
         rx="6.6098609"
         ry="6.6098609" />
      <rect
         ry="6.6098609"
         rx="6.6098609"
         y="40.709618"
         x="69.839508"
         height="29.810888"
         width="29.810888"
         id="rect1668"
         style="fill:none;fill-opacity:1;stroke:#000000;stroke-width:3;stroke-linecap:round;stroke-linejoin:round;stroke-miterlimit:4;stroke-dasharray:none;stroke-opacity:0.02" />
      <rect
         style="fill:none;fill-opacity:1;stroke:#000000;stroke-width:3.4;stroke-linecap:round;stroke-linejoin:round;stroke-miterlimit:4;stroke-dasharray:none;stroke-opacity:0.02"
         id="rect1670"
         width="29.810888"
         height="29.810888"
         x="69.839508"
         y="40.709618"
         rx="6.6098609"
         ry="6.6098609" />
      <rect
         ry="6.6098609"
         rx="6.6098609"
         y="40.709618"
         x="69.839508"
         height="29.810888"
         width="29.810888"
         id="rect1672"
         style="fill:none;fill-opacity:1;stroke:#000000;stroke-width:3.8;stroke-linecap:round;stroke-linejoin:round;stroke-miterlimit:4;stroke-dasharray:none;stroke-opacity:0.02" />
      <rect
         style="fill:none;fill-opacity:1;stroke:#000000;stroke-width:4.2;stroke-linecap:round;stroke-linejoin:round;stroke-miterlimit:4;stroke-dasharray:none;stroke-opacity:0.02"
         id="rect1674"
         width="29.810888"
         height="29.810888"
         x="69.839508"
         y="40.709618"
         rx="6.6098609"
         ry="6.6098609" />
      <rect
         ry="6.6098609"
         rx="6.6098609"
         y="40.709618"
         x="69.839508"
         height="29.810888"
         width="29.810888"
         id="rect1676"
         style="fill:none;fill-opacity:1;stroke:#000000;stroke-width:4.6;stroke-linecap:round;stroke-linejoin:round;stroke-miterlimit:4;stroke-dasharray:none;stroke-opacity:0.02" />
      <rect
         style="fill:none;fill-opacity:1;stroke:#000000;stroke-width:5;stroke-linecap:round;stroke-linejoin:round;stroke-miterlimit:4;stroke-dasharray:none;stroke-opacity:0.02"
         id="rect1678"
         width="29.810888"
         height="29.810888"
         x="69.839508"
         y="40.709618"
         rx="6.6098609"
         ry="6.6098609" />
    </g>
    <rect
       ry="6.4494534"
       rx="6.4494534"
       y="2.4399483"
       x="2.4265099"
       height="29.08744"
       width="29.08744"
       id="rect849"
       style="fill:url(#linearGradient4292);fill-opacity:1;stroke-width:2.68801;stroke-linecap:round;stroke-linejoin:round;stroke-miterlimit:4;stroke-dasharray:none" />
    <path
       sodipodi:nodetypes="sssssssss"
       d="M 8.8759623,6.6177172 H 24.220615 c 3.572997,0 6.449454,2.8764563 6.449454,6.4494538 v 10.949856 c 0,3.572997 -2.876457,6.449454 -6.449454,6.449454 H 8.8759623 c -2.6808195,0 -6.4494533,-2.876457 -6.4494533,-6.449454 V 13.067171 c 0,-3.5729975 2.8764562,-6.4494538 6.4494533,-6.4494538 z"
       style="fill:url(#linearGradient4259);fill-opacity:1;stroke-width:2.68801;stroke-linecap:round;stroke-linejoin:round;stroke-miterlimit:4;stroke-dasharray:none"
       id="rect4247" />
    <path
       id="path4382"
       style="opacity:0.451759;fill:url(#linearGradient4390);fill-opacity:1;stroke-width:2.68801;stroke-linecap:round;stroke-linejoin:round;stroke-miterlimit:4;stroke-dasharray:none"
       d="M 8.8759623,6.6177172 H 24.220615 c 3.572997,0 6.449454,2.8764563 6.449454,6.4494538 v 10.949856 c 0,3.572997 -2.876457,6.449454 -6.449454,6.449454 H 8.8759623 c -2.6808195,0 -6.4494533,-2.876457 -6.4494533,-6.449454 V 13.067171 c 0,-3.5729975 2.8764562,-6.4494538 6.4494533,-6.4494538 z"
       sodipodi:nodetypes="sssssssss" />
    <path
       sodipodi:nodetypes="cscsscccc"
       d="M 5.1198561,3.659117 C 4.9864931,3.751068 4.8570274,3.8480406 4.7312493,3.9495385 4.6460083,4.0183235 4.5626946,4.0894734 4.4811355,4.1624455 3.2162179,5.3384684 2.4264803,7.0179267 2.4264803,8.8892887 V 25.077964 c 0,2.489414 1.397136,4.639011 3.4525027,5.714899 L 6.694437,30.100398 C 4.570489,29.531287 4.5630465,26.730837 4.5630465,22.736102 Z"
       style="fill:url(#linearGradient4223);fill-opacity:1;stroke-width:2.68801;stroke-linecap:round;stroke-linejoin:round;stroke-miterlimit:4;stroke-dasharray:none"
       id="rect4221" />
    <path
       sodipodi:nodetypes="scsssccssss"
       d="m 14.921325,2.4400701 c -0.813642,0 -1.482596,0.1506476 -2.032434,0.42323 H 6.9280143 c -1.3086744,0 -2.3621296,1.0539719 -2.3621296,2.3626463 V 25.779214 c 0,1.308675 1.7928405,2.36213 3.1015149,2.36213 l 17.4036934,0.0021 c 3.572998,0 6.449736,-2.876741 6.449736,-6.449738 V 8.8892887 c 0,-3.5729971 -2.876738,-6.4492186 -6.449736,-6.4492186 z"
       style="fill:url(#linearGradient4327);fill-opacity:1;stroke-width:2.68801;stroke-linecap:round;stroke-linejoin:round;stroke-miterlimit:4;stroke-dasharray:none"
       id="rect4244" />
    <path
       id="path4311"
       style="fill:url(#linearGradient4319);fill-opacity:1;stroke-width:2.68801;stroke-linecap:round;stroke-linejoin:round;stroke-miterlimit:4;stroke-dasharray:none"
       d="M 5.1198561,3.659117 C 4.9864931,3.751068 4.8570274,3.8480406 4.7312493,3.9495385 4.6460083,4.0183235 4.5626946,4.0894734 4.4811355,4.1624455 3.2162179,5.3384684 2.4264803,7.0179267 2.4264803,8.8892887 V 25.077964 c 0,2.489414 1.397136,4.639011 3.4525027,5.714899 l 1.2822285,-0.664639 c -2.123948,-0.56911 -2.598165,-3.397387 -2.598165,-7.392122 z"
       sodipodi:nodetypes="cscsscccc" />
    <path
       d="m 8.876216,2.4400701 c -3.5729973,0 -6.4497357,2.8762215 -6.4497357,6.4492186 v 0.4873088 c 0,-3.5729971 2.8767384,-6.4497355 6.4497357,-6.4497355 h 16.188159 c 3.572998,0 6.449736,2.8767384 6.449736,6.4497355 V 8.8892887 c 0,-3.5729971 -2.876738,-6.4492186 -6.449736,-6.4492186 z"
       style="fill:#c5c5c5;fill-opacity:0.10698742;stroke-width:2.68801;stroke-linecap:round;stroke-linejoin:round;stroke-miterlimit:4;stroke-dasharray:none"
       id="rect4329" />
    <g
       style="opacity:0.346275"
       id="g4380"
       transform="translate(0.03024414,-0.0786392)">
      <path
         id="path4344"
         style="fill:#000000;fill-opacity:0.179389;stroke-width:10.1594;stroke-linecap:round;stroke-linejoin:round;stroke-miterlimit:4;stroke-dasharray:none"
         d="m 119.01953,81.693359 c 0,13.504241 -10.87271,24.376951 -24.376952,24.376951 l -65.777344,-0.008 c -4.946171,0 -11.722656,-3.98156 -11.722656,-8.927734 v 0.595703 c 0,4.946171 6.776485,8.927731 11.722656,8.927731 l 65.777344,0.008 c 13.504242,0 24.376952,-10.872717 24.376952,-24.376958 z"
         transform="scale(0.26458333)" />
      <path
         id="path4351"
         style="fill:#000000;fill-opacity:0.179389;stroke-width:10.1594;stroke-linecap:round;stroke-linejoin:round;stroke-miterlimit:4;stroke-dasharray:none"
         d="m 119.01953,81.169922 c 0,13.504241 -10.87271,24.376958 -24.376952,24.376958 l -65.777344,-0.008 c -4.946171,0 -11.722656,-3.98156 -11.722656,-8.927732 v 1.119141 c 0,4.946171 6.776485,8.927731 11.722656,8.927731 l 65.777344,0.008 c 13.504242,0 24.376952,-10.872717 24.376952,-24.376958 z"
         transform="scale(0.26458333)" />
      <path
         id="path4360"
         style="fill:#000000;fill-opacity:0.179389;stroke-width:10.1594;stroke-linecap:round;stroke-linejoin:round;stroke-miterlimit:4;stroke-dasharray:none"
         d="m 119.01953,80.683594 c 0,13.50424 -10.87271,24.376956 -24.376952,24.376956 l -65.777344,-0.008 c -4.946171,0 -11.722656,-3.98156 -11.722656,-8.92773 v 1.605469 c 0,4.946171 6.776485,8.927731 11.722656,8.927731 l 65.777344,0.008 c 13.504242,0 24.376952,-10.872717 24.376952,-24.376958 z"
         transform="scale(0.26458333)" />
      <path
         id="path4365"
         style="fill:#000000;fill-opacity:0.179389;stroke-width:10.1594;stroke-linecap:round;stroke-linejoin:round;stroke-miterlimit:4;stroke-dasharray:none"
         d="m 119.01953,80.232422 c 0,13.504241 -10.87271,24.376958 -24.376952,24.376958 l -65.777344,-0.008 c -4.946171,0 -11.722656,-3.98156 -11.722656,-8.927732 v 2.056641 c 0,4.946171 6.776485,8.927731 11.722656,8.927731 l 65.777344,0.008 c 13.504242,0 24.376952,-10.872717 24.376952,-24.376958 z"
         transform="scale(0.26458333)" />
      <path
         id="path4370"
         style="fill:#000000;fill-opacity:0.268833;stroke-width:10.1594;stroke-linecap:round;stroke-linejoin:round;stroke-miterlimit:4;stroke-dasharray:none"
         d="m 119.01953,79.527344 c 0,13.50424 -10.87271,24.376956 -24.376952,24.376956 l -65.777344,-0.008 c -4.946171,0 -11.722656,-3.981557 -11.722656,-8.92773 v 2.761719 c 0,4.946171 6.776485,8.927731 11.722656,8.927731 l 65.777344,0.008 c 13.504242,0 24.376952,-10.872717 24.376952,-24.376958 z"
         transform="scale(0.26458333)" />
    </g>
    <path
       style="fill:url(#linearGradient4371);fill-opacity:1;stroke-width:0.264583"
       d="m 8.9346529,29.072105 h 2.9405691 v 3.06451 l -1.422136,-0.948293 -1.5184331,0.948293 z"
       id="rect10454"
       inkscape:connector-curvature="0"
       sodipodi:nodetypes="cccccc" />
    <g
       id="g1018"
       transform="matrix(1.4385698,0,0,1.4385698,-5.4496268,-8.1049612)">
      <g
         transform="matrix(0.23883812,0,0,0.29310372,4.481618,-247.2255)"
         style="font-style:normal;font-weight:normal;font-size:10.1662px;line-height:125%;font-family:sans-serif;letter-spacing:0px;word-spacing:0px;opacity:0.2;fill:#000000;fill-opacity:1;stroke:none;stroke-width:1px;stroke-linecap:butt;stroke-linejoin:miter;stroke-opacity:1"
         id="g4339">
        <path
           inkscape:connector-curvature="0"
           d="m 79.091826,896.1228 h 1.777103 v 7.72394 h -1.777103 z"
           style="font-style:normal;font-variant:normal;font-weight:bold;font-stretch:normal;font-family:sans-serif;-inkscape-font-specification:'sans-serif Bold';fill:#000000"
           id="path4341" />
        <path
           inkscape:connector-curvature="0"
           d="m 77.389183,902.00511 q 0,0.90344 -0.33755,1.38495 -0.317694,0.45668 -0.953083,0.45668 h -1.772139 v -1.27078 h 0.48647 q 0.33755,0 0.555965,-0.21841 0.243234,-0.24324 0.243234,-0.76942 v -5.46533 h 1.777103 z"
           style="font-style:normal;font-variant:normal;font-weight:bold;font-stretch:normal;font-family:sans-serif;-inkscape-font-specification:'sans-serif Bold';fill:#000000"
           id="path4343" />
        <path
           inkscape:connector-curvature="0"
           d="m 71.005514,897.39357 h 0.744596 v 0.7446 h -0.744596 z m -1.240993,0 h 0.744596 v 0.7446 h -0.744596 z m -0.689993,1.85653 q 0.69992,-0.32762 1.682787,-0.32762 0.982867,0 1.682787,0.32762 0.431866,0.20352 0.689993,0.78431 0.178703,0.40208 0.178703,1.1715 0,0.62546 -0.828984,1.27077 0.828984,0.0993 1.801923,0.0993 h 0.233307 v 1.27078 h -0.531146 q -0.958047,0 -1.747318,-0.0745 -0.972939,-0.0943 -1.479265,-0.34251 -0.506325,0.2482 -1.479264,0.34251 -0.789272,0.0745 -1.747319,0.0745 h -0.531145 v -1.27078 h 0.233307 q 0.972939,0 1.801922,-0.0993 -0.828983,-0.64531 -0.828983,-1.27077 0,-0.76942 0.178703,-1.1715 0.258126,-0.58079 0.689992,-0.78431 z m 1.682787,2.53163 q 0.680065,-0.25813 0.680065,-0.77438 0,-0.38719 -0.228343,-0.66021 -0.124099,-0.14892 -0.451722,-0.14892 -0.327622,0 -0.451721,0.14892 -0.228343,0.27302 -0.228343,0.66021 0,0.51625 0.680064,0.77438 z"
           style="font-style:normal;font-variant:normal;font-weight:bold;font-stretch:normal;font-family:sans-serif;-inkscape-font-specification:'sans-serif Bold';fill:#000000"
           id="path4345" />
        <path
           inkscape:connector-curvature="0"
           d="m 65.788378,903.71768 q -0.109207,0.40208 -0.297838,0.68503 -0.630425,0.93819 -1.737391,1.42466 -1.141714,0.50136 -3.41025,0.50136 v -1.27078 q 1.533867,0 2.308247,-0.33755 0.764452,-0.33259 1.156606,-0.87366 0.36237,-0.50136 0.352443,-1.40977 0,-0.71977 -0.258127,-1.32041 h 1.777103 q 0.0546,0.16877 0.09928,0.32762 0.168775,0.62049 0.456686,0.91337 0.218415,0.21841 0.580785,0.21841 h 0.372298 v 1.27078 h -0.645317 q -0.426902,0 -0.754525,-0.12906 z"
           style="font-style:normal;font-variant:normal;font-weight:bold;font-stretch:normal;font-family:sans-serif;-inkscape-font-specification:'sans-serif Bold';fill:#000000"
           id="path4347" />
        <path
           inkscape:connector-curvature="0"
           d="m 57.071641,894.8272 0.82402,-0.61057 q 0.526181,0.44179 0.759488,0.49143 0.387189,0.0844 0.685028,0.0894 0.352442,0 0.645317,-0.10425 0.580785,-0.20352 0.967974,-0.55596 v 0.84387 q -0.302802,0.25813 -0.893515,0.43683 -0.416974,0.12907 -0.74956,0.13403 -0.491433,0 -0.754524,-0.10921 -0.28791,-0.11913 -0.635389,-0.38222 l -0.848839,0.61057 v -0.84388 z m 1.052362,1.2956 h 1.777103 v 7.72394 h -1.777103 z"
           style="font-style:normal;font-variant:normal;font-weight:bold;font-stretch:normal;font-family:sans-serif;-inkscape-font-specification:'sans-serif Bold';fill:#000000"
           id="path4349" />
        <path
           inkscape:connector-curvature="0"
           d="m 51.943854,899.20543 h 0.744596 v 0.74459 h -0.744596 z m 4.57182,3.09255 q 0.005,0.85877 -0.496398,1.74236 -0.620497,1.09207 -1.782066,1.31545 -0.878624,0.16877 -1.57358,0.16877 -0.953083,0 -1.712571,-0.21841 -1.732427,-0.49143 -1.732427,-2.29336 0,-0.69495 0.198559,-1.56861 h 1.777102 q -0.208486,0.79423 -0.208486,1.45444 0,0.88359 0.997758,1.25092 0.273019,0.0993 0.660209,0.0993 0.277982,0 0.580785,-0.0794 1.057326,-0.26806 1.335309,-1.06726 0.163811,-0.47157 0.163811,-1.06229 0,-0.81409 -0.501361,-1.91609 h 1.777102 q 0.51129,0.81409 0.516254,2.17422 z"
           style="font-style:normal;font-variant:normal;font-weight:bold;font-stretch:normal;font-family:sans-serif;-inkscape-font-specification:'sans-serif Bold';fill:#000000"
           id="path4351-3" />
        <path
           inkscape:connector-curvature="0"
           d="m 42.417985,896.1228 h 1.777103 v 7.72394 h -1.777103 z"
           style="font-style:normal;font-variant:normal;font-weight:bold;font-stretch:normal;font-family:sans-serif;-inkscape-font-specification:'sans-serif Bold';fill:#000000"
           id="path4353" />
        <path
           inkscape:connector-curvature="0"
           d="m 40.715344,902.00511 q 0,0.90344 -0.337551,1.38495 -0.317694,0.45668 -0.953083,0.45668 h -1.772138 v -1.27078 h 0.486469 q 0.33755,0 0.555965,-0.21841 0.243235,-0.24324 0.243235,-0.76942 v -5.46533 h 1.777103 z"
           style="font-style:normal;font-variant:normal;font-weight:bold;font-stretch:normal;font-family:sans-serif;-inkscape-font-specification:'sans-serif Bold';fill:#000000"
           id="path4355" />
        <path
           inkscape:connector-curvature="0"
           d="m 35.999568,903.47444 q -0.526181,0.3723 -1.692715,0.3723 h -2.571338 v -1.27078 h 1.965733 q 0.565893,0 0.650281,-0.19359 0.07942,-0.1787 0.07942,-0.35741 0,-0.13899 -0.38719,-0.63539 l -1.4743,-1.88631 q -0.248199,-0.31273 -0.248199,-0.70488 0,-0.17374 0.04964,-0.33755 0.168775,-0.63539 0.670137,-0.7992 l 4.705847,-1.53883 v 1.27077 l -2.834429,0.98784 q -0.33755,0.11913 -0.456686,0.34747 -0.02978,0.0546 -0.02978,0.17871 0,0.13899 0.153884,0.34251 l 2.079905,2.77983 q 0.178703,0.23827 0.416974,0.41697 0.173739,0.12906 0.446757,0.12906 h 0.322659 v 1.27078 h -0.709849 q -0.764452,0 -1.136751,-0.3723 z"
           style="font-style:normal;font-variant:normal;font-weight:bold;font-stretch:normal;font-family:sans-serif;-inkscape-font-specification:'sans-serif Bold';fill:#000000"
           id="path4357" />
        <path
           inkscape:connector-curvature="0"
           d="m 30.524305,903.71768 q -0.109208,0.40208 -0.297839,0.68503 -0.630425,0.93819 -1.737391,1.42466 -1.141714,0.50136 -3.41025,0.50136 v -1.27078 q 1.533868,0 2.308248,-0.33755 0.764452,-0.33259 1.156606,-0.87366 0.36237,-0.50136 0.352442,-1.40977 0,-0.71977 -0.258126,-1.32041 h 1.777102 q 0.0546,0.16877 0.09928,0.32762 0.168775,0.62049 0.456685,0.91337 0.218415,0.21841 0.580785,0.21841 h 0.372298 v 1.27078 h -0.645316 q -0.426902,0 -0.754524,-0.12906 z"
           style="font-style:normal;font-variant:normal;font-weight:bold;font-stretch:normal;font-family:sans-serif;-inkscape-font-specification:'sans-serif Bold';fill:#000000"
           id="path4359" />
        <path
           inkscape:connector-curvature="0"
           d="m 24.011571,904.7899 h 0.744596 v 0.74459 h -0.744596 z m -1.240994,0 h 0.744596 v 0.74459 h -0.744596 z m 1.881346,-2.78479 q 0,0.90344 -0.33755,1.38495 -0.317694,0.45668 -0.953083,0.45668 h -1.772139 v -1.27078 h 0.48647 q 0.33755,0 0.555965,-0.21841 0.243235,-0.24324 0.243235,-0.76942 v -0.71977 h 1.777102 z"
           style="font-style:normal;font-variant:normal;font-weight:bold;font-stretch:normal;font-family:sans-serif;-inkscape-font-specification:'sans-serif Bold';fill:#000000"
           id="path4361" />
        <path
           inkscape:connector-curvature="0"
           d="m 19.92622,903.66307 q -0.595677,0.42194 -1.578544,0.42194 -1.379984,0 -1.78703,-0.33258 -0.109208,-0.0894 -0.292875,0.24819 -0.08935,0.15885 -0.08935,0.4418 v 1.88631 h -1.777103 v -1.88631 q 0,-1.10697 0.595677,-1.44948 0.739632,-0.42194 1.191354,-0.48151 l -0.0099,-0.11417 q 0,-0.73467 0.804163,-1.38991 0.382226,-0.31273 1.171498,-0.31273 0.784308,0 1.176462,0.1787 0.685029,0.31273 0.928263,0.83891 0.238271,0.52122 0.38719,0.69496 0.143955,0.16877 0.759488,0.16877 h 0.372298 v 1.27078 h -0.645316 q -0.888552,0 -1.067255,-0.29287 -0.104243,0.0844 -0.138991,0.1092 z m -1.315453,-0.94315 q 0.168775,-0.11417 0.168775,-0.25316 0,-0.20353 -0.114171,-0.3177 -0.05957,-0.0596 -0.218415,-0.15885 -0.0546,-0.0397 -0.253163,-0.0298 -0.158847,0.01 -0.238271,0.10424 -0.143955,0.15389 -0.143955,0.41201 0,0.139 0.04964,0.26806 0.129063,0.0695 0.421938,0.0695 0.193595,0 0.327622,-0.0943 z"
           style="font-style:normal;font-variant:normal;font-weight:bold;font-stretch:normal;font-family:sans-serif;-inkscape-font-specification:'sans-serif Bold';fill:#000000"
           id="path4363" />
      </g>
      <g
         transform="matrix(0.23883812,0,0,0.29310372,4.481618,-247.62237)"
         style="font-style:normal;font-weight:normal;font-size:10.1662px;line-height:125%;font-family:sans-serif;letter-spacing:0px;word-spacing:0px;fill:#fef0d2;fill-opacity:1;stroke:none;stroke-width:1px;stroke-linecap:butt;stroke-linejoin:miter;stroke-opacity:1"
         id="text10448">
        <path
           d="m 79.091826,896.1228 h 1.777103 v 7.72394 h -1.777103 z"
           style="font-style:normal;font-variant:normal;font-weight:bold;font-stretch:normal;font-family:sans-serif;-inkscape-font-specification:'sans-serif Bold'"
           id="path4273"
           inkscape:connector-curvature="0" />
        <path
           d="m 77.389183,902.00511 q 0,0.90344 -0.33755,1.38495 -0.317694,0.45668 -0.953083,0.45668 h -1.772139 v -1.27078 h 0.48647 q 0.33755,0 0.555965,-0.21841 0.243234,-0.24324 0.243234,-0.76942 v -5.46533 h 1.777103 z"
           style="font-style:normal;font-variant:normal;font-weight:bold;font-stretch:normal;font-family:sans-serif;-inkscape-font-specification:'sans-serif Bold'"
           id="path4275"
           inkscape:connector-curvature="0" />
        <path
           d="m 71.005514,897.39357 h 0.744596 v 0.7446 h -0.744596 z m -1.240993,0 h 0.744596 v 0.7446 h -0.744596 z m -0.689993,1.85653 q 0.69992,-0.32762 1.682787,-0.32762 0.982867,0 1.682787,0.32762 0.431866,0.20352 0.689993,0.78431 0.178703,0.40208 0.178703,1.1715 0,0.62546 -0.828984,1.27077 0.828984,0.0993 1.801923,0.0993 h 0.233307 v 1.27078 h -0.531146 q -0.958047,0 -1.747318,-0.0745 -0.972939,-0.0943 -1.479265,-0.34251 -0.506325,0.2482 -1.479264,0.34251 -0.789272,0.0745 -1.747319,0.0745 h -0.531145 v -1.27078 h 0.233307 q 0.972939,0 1.801922,-0.0993 -0.828983,-0.64531 -0.828983,-1.27077 0,-0.76942 0.178703,-1.1715 0.258126,-0.58079 0.689992,-0.78431 z m 1.682787,2.53163 q 0.680065,-0.25813 0.680065,-0.77438 0,-0.38719 -0.228343,-0.66021 -0.124099,-0.14892 -0.451722,-0.14892 -0.327622,0 -0.451721,0.14892 -0.228343,0.27302 -0.228343,0.66021 0,0.51625 0.680064,0.77438 z"
           style="font-style:normal;font-variant:normal;font-weight:bold;font-stretch:normal;font-family:sans-serif;-inkscape-font-specification:'sans-serif Bold'"
           id="path4277"
           inkscape:connector-curvature="0" />
        <path
           d="m 65.788378,903.71768 q -0.109207,0.40208 -0.297838,0.68503 -0.630425,0.93819 -1.737391,1.42466 -1.141714,0.50136 -3.41025,0.50136 v -1.27078 q 1.533867,0 2.308247,-0.33755 0.764452,-0.33259 1.156606,-0.87366 0.36237,-0.50136 0.352443,-1.40977 0,-0.71977 -0.258127,-1.32041 h 1.777103 q 0.0546,0.16877 0.09928,0.32762 0.168775,0.62049 0.456686,0.91337 0.218415,0.21841 0.580785,0.21841 h 0.372298 v 1.27078 h -0.645317 q -0.426902,0 -0.754525,-0.12906 z"
           style="font-style:normal;font-variant:normal;font-weight:bold;font-stretch:normal;font-family:sans-serif;-inkscape-font-specification:'sans-serif Bold'"
           id="path4279"
           inkscape:connector-curvature="0" />
        <path
           d="m 57.071641,894.8272 0.82402,-0.61057 q 0.526181,0.44179 0.759488,0.49143 0.387189,0.0844 0.685028,0.0894 0.352442,0 0.645317,-0.10425 0.580785,-0.20352 0.967974,-0.55596 v 0.84387 q -0.302802,0.25813 -0.893515,0.43683 -0.416974,0.12907 -0.74956,0.13403 -0.491433,0 -0.754524,-0.10921 -0.28791,-0.11913 -0.635389,-0.38222 l -0.848839,0.61057 v -0.84388 z m 1.052362,1.2956 h 1.777103 v 7.72394 h -1.777103 z"
           style="font-style:normal;font-variant:normal;font-weight:bold;font-stretch:normal;font-family:sans-serif;-inkscape-font-specification:'sans-serif Bold'"
           id="path4281"
           inkscape:connector-curvature="0" />
        <path
           d="m 51.943854,899.20543 h 0.744596 v 0.74459 h -0.744596 z m 4.57182,3.09255 q 0.005,0.85877 -0.496398,1.74236 -0.620497,1.09207 -1.782066,1.31545 -0.878624,0.16877 -1.57358,0.16877 -0.953083,0 -1.712571,-0.21841 -1.732427,-0.49143 -1.732427,-2.29336 0,-0.69495 0.198559,-1.56861 h 1.777102 q -0.208486,0.79423 -0.208486,1.45444 0,0.88359 0.997758,1.25092 0.273019,0.0993 0.660209,0.0993 0.277982,0 0.580785,-0.0794 1.057326,-0.26806 1.335309,-1.06726 0.163811,-0.47157 0.163811,-1.06229 0,-0.81409 -0.501361,-1.91609 h 1.777102 q 0.51129,0.81409 0.516254,2.17422 z"
           style="font-style:normal;font-variant:normal;font-weight:bold;font-stretch:normal;font-family:sans-serif;-inkscape-font-specification:'sans-serif Bold'"
           id="path4283"
           inkscape:connector-curvature="0" />
        <path
           d="m 42.417985,896.1228 h 1.777103 v 7.72394 h -1.777103 z"
           style="font-style:normal;font-variant:normal;font-weight:bold;font-stretch:normal;font-family:sans-serif;-inkscape-font-specification:'sans-serif Bold'"
           id="path4285"
           inkscape:connector-curvature="0" />
        <path
           d="m 40.715344,902.00511 q 0,0.90344 -0.337551,1.38495 -0.317694,0.45668 -0.953083,0.45668 h -1.772138 v -1.27078 h 0.486469 q 0.33755,0 0.555965,-0.21841 0.243235,-0.24324 0.243235,-0.76942 v -5.46533 h 1.777103 z"
           style="font-style:normal;font-variant:normal;font-weight:bold;font-stretch:normal;font-family:sans-serif;-inkscape-font-specification:'sans-serif Bold'"
           id="path4287"
           inkscape:connector-curvature="0" />
        <path
           d="m 35.999568,903.47444 q -0.526181,0.3723 -1.692715,0.3723 h -2.571338 v -1.27078 h 1.965733 q 0.565893,0 0.650281,-0.19359 0.07942,-0.1787 0.07942,-0.35741 0,-0.13899 -0.38719,-0.63539 l -1.4743,-1.88631 q -0.248199,-0.31273 -0.248199,-0.70488 0,-0.17374 0.04964,-0.33755 0.168775,-0.63539 0.670137,-0.7992 l 4.705847,-1.53883 v 1.27077 l -2.834429,0.98784 q -0.33755,0.11913 -0.456686,0.34747 -0.02978,0.0546 -0.02978,0.17871 0,0.13899 0.153884,0.34251 l 2.079905,2.77983 q 0.178703,0.23827 0.416974,0.41697 0.173739,0.12906 0.446757,0.12906 h 0.322659 v 1.27078 h -0.709849 q -0.764452,0 -1.136751,-0.3723 z"
           style="font-style:normal;font-variant:normal;font-weight:bold;font-stretch:normal;font-family:sans-serif;-inkscape-font-specification:'sans-serif Bold'"
           id="path4289"
           inkscape:connector-curvature="0" />
        <path
           d="m 30.524305,903.71768 q -0.109208,0.40208 -0.297839,0.68503 -0.630425,0.93819 -1.737391,1.42466 -1.141714,0.50136 -3.41025,0.50136 v -1.27078 q 1.533868,0 2.308248,-0.33755 0.764452,-0.33259 1.156606,-0.87366 0.36237,-0.50136 0.352442,-1.40977 0,-0.71977 -0.258126,-1.32041 h 1.777102 q 0.0546,0.16877 0.09928,0.32762 0.168775,0.62049 0.456685,0.91337 0.218415,0.21841 0.580785,0.21841 h 0.372298 v 1.27078 h -0.645316 q -0.426902,0 -0.754524,-0.12906 z"
           style="font-style:normal;font-variant:normal;font-weight:bold;font-stretch:normal;font-family:sans-serif;-inkscape-font-specification:'sans-serif Bold'"
           id="path4291"
           inkscape:connector-curvature="0" />
        <path
           d="m 24.011571,904.7899 h 0.744596 v 0.74459 h -0.744596 z m -1.240994,0 h 0.744596 v 0.74459 h -0.744596 z m 1.881346,-2.78479 q 0,0.90344 -0.33755,1.38495 -0.317694,0.45668 -0.953083,0.45668 h -1.772139 v -1.27078 h 0.48647 q 0.33755,0 0.555965,-0.21841 0.243235,-0.24324 0.243235,-0.76942 v -0.71977 h 1.777102 z"
           style="font-style:normal;font-variant:normal;font-weight:bold;font-stretch:normal;font-family:sans-serif;-inkscape-font-specification:'sans-serif Bold'"
           id="path4293"
           inkscape:connector-curvature="0" />
        <path
           d="m 19.92622,903.66307 q -0.595677,0.42194 -1.578544,0.42194 -1.379984,0 -1.78703,-0.33258 -0.109208,-0.0894 -0.292875,0.24819 -0.08935,0.15885 -0.08935,0.4418 v 1.88631 h -1.777103 v -1.88631 q 0,-1.10697 0.595677,-1.44948 0.739632,-0.42194 1.191354,-0.48151 l -0.0099,-0.11417 q 0,-0.73467 0.804163,-1.38991 0.382226,-0.31273 1.171498,-0.31273 0.784308,0 1.176462,0.1787 0.685029,0.31273 0.928263,0.83891 0.238271,0.52122 0.38719,0.69496 0.143955,0.16877 0.759488,0.16877 h 0.372298 v 1.27078 h -0.645316 q -0.888552,0 -1.067255,-0.29287 -0.104243,0.0844 -0.138991,0.1092 z m -1.315453,-0.94315 q 0.168775,-0.11417 0.168775,-0.25316 0,-0.20353 -0.114171,-0.3177 -0.05957,-0.0596 -0.218415,-0.15885 -0.0546,-0.0397 -0.253163,-0.0298 -0.158847,0.01 -0.238271,0.10424 -0.143955,0.15389 -0.143955,0.41201 0,0.139 0.04964,0.26806 0.129063,0.0695 0.421938,0.0695 0.193595,0 0.327622,-0.0943 z"
           style="font-style:normal;font-variant:normal;font-weight:bold;font-stretch:normal;font-family:sans-serif;-inkscape-font-specification:'sans-serif Bold'"
           id="path4295"
           inkscape:connector-curvature="0" />
      </g>
    </g>
  </g>
</svg>
