<?xml version="1.0" encoding="UTF-8" standalone="no"?>
<svg
   inkscape:version="1.1.2 (0a00cf5339, 2022-02-04)"
   sodipodi:docname="zenkit.svg"
   id="svg6"
   version="1.1"
   viewBox="0 0 33.866666 33.866667"
   height="128"
   width="128"
   xmlns:inkscape="http://www.inkscape.org/namespaces/inkscape"
   xmlns:sodipodi="http://sodipodi.sourceforge.net/DTD/sodipodi-0.dtd"
   xmlns:xlink="http://www.w3.org/1999/xlink"
   xmlns="http://www.w3.org/2000/svg"
   xmlns:svg="http://www.w3.org/2000/svg"
   xmlns:rdf="http://www.w3.org/1999/02/22-rdf-syntax-ns#"
   xmlns:cc="http://creativecommons.org/ns#"
   xmlns:dc="http://purl.org/dc/elements/1.1/">
  <metadata
     id="metadata156">
    <rdf:RDF>
      <cc:Work
         rdf:about="">
        <dc:format>image/svg+xml</dc:format>
        <dc:type
           rdf:resource="http://purl.org/dc/dcmitype/StillImage" />
      </cc:Work>
    </rdf:RDF>
  </metadata>
  <defs
     id="defs2">
    <linearGradient
       id="linearGradient1630"
       inkscape:collect="always">
      <stop
         id="stop1626"
         offset="0"
         style="stop-color:#f37373;stop-opacity:1" />
      <stop
         id="stop1628"
         offset="1"
         style="stop-color:#e84ba8;stop-opacity:1" />
    </linearGradient>
    <linearGradient
       id="lgrad"
       x1="32"
       y1="32"
       x2="32"
       y2="992"
       gradientUnits="userSpaceOnUse"
       gradientTransform="translate(0,-896)">
      <stop
         offset="0%"
         stop-color="#f8f8f8"
         id="stop2" />
      <stop
         offset="100%"
         stop-color="#ccc"
         id="stop4" />
    </linearGradient>
    <radialGradient
       id="rgrad"
       x1="0%"
       y1="0%"
       x2="0%"
       y2="100%"
       fx="512"
       fy="494.39999"
       cx="512"
       cy="512"
       r="440"
       gradientUnits="userSpaceOnUse"
       gradientTransform="translate(0,-896)">
      <stop
         offset="0%"
         stop-color="#00f0ff"
         id="stop7" />
      <stop
         offset="100%"
         stop-color="#0070e0"
         id="stop9" />
    </radialGradient>
    <radialGradient
       gradientTransform="matrix(0.03099337,0,0,0.03032562,85.198869,42.985295)"
       gradientUnits="userSpaceOnUse"
       r="440"
       cy="306.1813"
       cx="523.57568"
       fy="306.1813"
       fx="523.57568"
       y2="100%"
       x2="0%"
       y1="0%"
       x1="0%"
       id="rgrad-3">
      <stop
         style="stop-color:#03d7e4;stop-opacity:1"
         id="stop7-6"
         stop-color="#00f0ff"
         offset="0%" />
      <stop
         id="stop9-7"
         stop-color="#0070e0"
         offset="100%" />
    </radialGradient>
    <linearGradient
       gradientTransform="matrix(0.97573206,0,0,0.97573206,-111.76604,-37.203091)"
       gradientUnits="userSpaceOnUse"
       y2="70.679932"
       x2="132.21078"
       y1="42.151531"
       x1="132.21078"
       id="linearGradient1632"
       xlink:href="#linearGradient1630"
       inkscape:collect="always" />
    <filter
       id="b"
       color-interpolation-filters="sRGB"
       height="1.024007"
       width="1.023993"
       x="-0.011996"
       y="-0.012004">
      <feGaussianBlur
         stdDeviation=".47521291"
         id="feGaussianBlur7" />
    </filter>
    <linearGradient
       id="k"
       gradientUnits="userSpaceOnUse"
       x1="-350.6571"
       x2="-376.36255"
       y1="-73.89106"
       y2="-319.05783">
      <stop
         offset="0"
         stop-color="#83a3d4"
         id="stop50" />
      <stop
         offset="1"
         stop-color="#6bb5e3"
         id="stop52" />
    </linearGradient>
    <linearGradient
       id="i"
       gradientUnits="userSpaceOnUse"
       x1="-206.76952"
       x2="10.51211"
       y1="-12.925184"
       y2="-156.88734">
      <stop
         offset="0"
         stop-color="#70c2bd"
         id="stop40" />
      <stop
         offset="1"
         stop-color="#67c381"
         id="stop42" />
    </linearGradient>
    <linearGradient
       id="e"
       gradientUnits="userSpaceOnUse"
       x1="134.56509"
       x2="148.51404"
       y1="117.30138"
       y2="-149.18999">
      <stop
         offset="0"
         stop-color="#faaa32"
         id="stop20" />
      <stop
         offset="1"
         stop-color="#fdc22b"
         id="stop22" />
    </linearGradient>
    <linearGradient
       id="c"
       gradientUnits="userSpaceOnUse"
       x1="-146.054"
       x2="123.35784"
       y1="144.89951"
       y2="144.89951">
      <stop
         offset="0"
         stop-color="#a0cf63"
         id="stop10" />
      <stop
         offset="1"
         stop-color="#c4da45"
         id="stop12" />
    </linearGradient>
    <linearGradient
       id="m"
       gradientUnits="userSpaceOnUse"
       x1="206.7137"
       x2="28.495264"
       y1="-12.740612"
       y2="-150.01163">
      <stop
         offset="0"
         stop-color="#b28cc0"
         id="stop60" />
      <stop
         offset="1"
         stop-color="#9a8ec4"
         id="stop62" />
    </linearGradient>
    <linearGradient
       id="q"
       gradientUnits="userSpaceOnUse"
       x1="189.94229"
       x2="-19.617525"
       y1="147.05296"
       y2="76.406288">
      <stop
         offset="0"
         stop-color="#f48155"
         id="stop80" />
      <stop
         offset="1"
         stop-color="#f16168"
         id="stop82" />
    </linearGradient>
    <linearGradient
       id="l"
       gradientUnits="userSpaceOnUse"
       x1="116.504"
       x2="21.156284"
       y1="308.30261"
       y2="34.179653">
      <stop
         offset="0"
         stop-color="#735194"
         id="stop55" />
      <stop
         offset="1"
         stop-color="#525da3"
         id="stop57" />
    </linearGradient>
    <linearGradient
       id="j"
       gradientUnits="userSpaceOnUse"
       x1="30.131145"
       x2="123.3283"
       y1="111.50156"
       y2="-107.16671">
      <stop
         offset="0"
         stop-color="#416db9"
         id="stop45" />
      <stop
         offset="1"
         stop-color="#337e8d"
         id="stop47" />
    </linearGradient>
    <linearGradient
       id="h"
       gradientUnits="userSpaceOnUse"
       x1="-103.67039"
       x2="205.55051"
       y1="133.12218"
       y2="0.071801998">
      <stop
         offset="0"
         stop-color="#2e9274"
         id="stop35" />
      <stop
         offset="1"
         stop-color="#469d3c"
         id="stop37" />
    </linearGradient>
    <linearGradient
       id="f"
       gradientUnits="userSpaceOnUse"
       x1="26.97802"
       x2="146.80986"
       y1="120.22743"
       y2="-100.48971">
      <stop
         offset="0"
         stop-color="#ec4001"
         id="stop25" />
      <stop
         offset="1"
         stop-color="#fb6f01"
         id="stop27" />
    </linearGradient>
    <linearGradient
       id="d"
       gradientUnits="userSpaceOnUse"
       x1="-14.298616"
       x2="309.397"
       y1="73.499695"
       y2="73.499695">
      <stop
         offset="0"
         stop-color="#58a920"
         id="stop15" />
      <stop
         offset="1"
         stop-color="#98b811"
         id="stop17" />
    </linearGradient>
    <linearGradient
       id="o"
       gradientUnits="userSpaceOnUse"
       x1="-123.11901"
       x2="145.987"
       y1="144.897"
       y2="144.897">
      <stop
         offset="0"
         stop-color="#d287af"
         id="stop70" />
      <stop
         offset="1"
         stop-color="#e07993"
         id="stop72" />
    </linearGradient>
    <linearGradient
       id="p"
       gradientUnits="userSpaceOnUse"
       x1="-205.78"
       x2="117.81888"
       y1="-71.695564"
       y2="-71.695564">
      <stop
         offset="0"
         stop-color="#bd090f"
         id="stop75" />
      <stop
         offset="1"
         stop-color="#e11f07"
         id="stop77" />
    </linearGradient>
    <linearGradient
       id="n"
       gradientUnits="userSpaceOnUse"
       x1="0.176406"
       x2="-308.72031"
       y1="-14.582834"
       y2="-143.7106">
      <stop
         offset="0"
         stop-color="#c23857"
         id="stop65" />
      <stop
         offset="1"
         stop-color="#914475"
         id="stop67" />
    </linearGradient>
    <linearGradient
       id="g"
       gradientUnits="userSpaceOnUse"
       x1="41.409683"
       x2="117.31723"
       y1="108.52529"
       y2="319.1076">
      <stop
         offset="0"
         stop-color="#e69e08"
         id="stop30" />
      <stop
         offset="1"
         stop-color="#cbc507"
         id="stop32" />
    </linearGradient>
    <linearGradient
       id="a"
       x1="24.087"
       x2="24"
       y1="47.457001"
       y2="1"
       gradientTransform="matrix(0,-0.34509604,0.34509604,0,-32.126938,36.630345)"
       gradientUnits="userSpaceOnUse">
      <stop
         stop-color="#e80b47"
         offset="0"
         id="stop2-3" />
      <stop
         stop-color="#ff4a4a"
         offset="1"
         id="stop4-6" />
    </linearGradient>
    <clipPath
       clipPathUnits="userSpaceOnUse"
       id="clipPath1023">
      <path
         id="path1025"
         d="m 35.793347,36.38716 c 0,2.673554 -2.25749,4.846837 -5.032759,4.846837 -3.078388,0 -4.775884,-2.702292 -5.050493,-5.207669 -0.524485,-4.780377 2.069307,-7.383201 4.337818,-8.72211 0.920666,-0.542253 1.932087,-0.964944 2.987679,-1.274786 0,0 2.445652,7.495922 2.635831,8.660142 0.210293,1.281429 0.119508,1.697495 0.119508,1.697495 M 47.808336,21.353023 c -2.704528,-1.693073 -6.019801,-2.622584 -9.434778,-2.78852 l -0.763536,-2.693314 0.02419,0.02683 c -0.03137,-0.0819 -0.0553,-0.159345 -0.0819,-0.236825 L 37.326599,14.86447 c -0.520063,-2.303966 0.42494,-3.401726 0.911819,-3.795564 0.08413,-0.05987 0.168189,-0.121739 0.258973,-0.181456 2.235284,-1.4274849 5.397853,0.860916 5.575011,0.995932 1.407575,1.307966 3.981479,1.631101 5.371359,0.292158 1.403149,-1.350025 1.071174,-3.8797569 -0.329764,-5.2319159 -2.184378,-2.104711 -8.8968,-5.4798071 -14.600243,-1.814788 -5.130207,3.29327 -5.234163,7.9274739 -4.388788,10.6077629 l 1.024694,3.622889 c -1.717407,0.47582 -3.35726,1.155266 -4.862329,2.042744 -5.616998,3.313032 -8.432235,8.919031 -7.730555,15.346152 0.728119,6.606309 5.853884,11.406668 12.201072,11.406668 6.734737,0 12.218812,-5.280642 12.218812,-11.769514 -0.09075,-1.54701 -0.07306,-1.531517 -0.285505,-2.914704 -0.212448,-1.350024 -2.283988,-7.699574 -2.283988,-7.699574 1.27256,0.283276 2.461145,0.745845 3.487945,1.385431 11.585847,7.252521 6.763479,18.796378 6.548825,19.298666 -3.18909,7.37647 -10.151732,11.780742 -19.090745,12.081619 C 25.526029,58.736157 19.942041,56.6381 15.630942,52.630103 11.085206,48.402982 8.4781222,42.482862 8.4781222,36.387828 c 0,-9.180162 5.9953358,-17.51944 14.9188568,-20.744005 1.858923,-0.670586 3.357139,-2.582846 2.33034,-4.804856 C 24.919524,9.0927871 22.730656,8.4930061 20.869477,9.1658111 9.1574472,13.39742 1.2874481,24.339292 1.2874481,36.388581 c 0,7.962955 3.4082361,15.700245 9.3483459,21.224293 5.479804,5.092475 12.530914,7.863254 19.962611,7.861232 0.336378,0 0.677227,-0.0045 1.013624,-0.01739 11.69879,-0.396117 21.219798,-6.502314 25.460164,-16.304217 2.651319,-5.953349 4.127648,-19.424852 -9.253138,-27.799832"
         style="fill:#f9f9f9;stroke-width:2.24536204"
         inkscape:connector-curvature="0" />
    </clipPath>
    <clipPath
       clipPathUnits="userSpaceOnUse"
       id="clipPath948">
      <path
         sodipodi:nodetypes="ccccccccc"
         inkscape:connector-curvature="0"
         id="path950"
         d="m 10.312501,4.9505311 c -2.2220996,0 -3.9135497,1.789837 -4.0117197,4.009769 L 5.4160213,28.98569 c -0.0869,1.96609 0.32848,2.54883 2.1679601,2.54883 H 61.984377 c 1.839481,0 2.254901,-0.58274 2.167971,-2.54883 L 63.26758,8.9603001 c -0.09815,-2.219932 -1.789618,-4.009769 -4.011719,-4.009769 z"
         style="opacity:1;fill:#ffffff;fill-opacity:1;fill-rule:evenodd;stroke:none;stroke-width:0.37795275;stroke-linecap:square;stroke-miterlimit:4;stroke-dasharray:none;stroke-dashoffset:0;stroke-opacity:1" />
    </clipPath>
  </defs>
  <sodipodi:namedview
     inkscape:window-maximized="1"
     inkscape:window-y="24"
     inkscape:window-x="0"
     inkscape:window-height="1030"
     inkscape:window-width="1920"
     units="px"
     showgrid="false"
     inkscape:current-layer="layer1"
     inkscape:document-units="mm"
     inkscape:cy="-0.5"
     inkscape:cx="-227"
     inkscape:zoom="1"
     inkscape:pageshadow="2"
     inkscape:pageopacity="0.0"
     borderopacity="1.0"
     bordercolor="#666666"
     pagecolor="#ffffff"
     id="base"
     inkscape:pagecheckerboard="0" />
  <g
     id="layer1"
     inkscape:groupmode="layer"
     inkscape:label="Layer 1">
    <g
       style="opacity:0.296765"
       transform="matrix(0.97573206,0,0,0.97573206,-65.748383,-37.203094)"
       id="g1702">
      <rect
         ry="6.6098609"
         rx="6.6098609"
         y="40.709618"
         x="69.839508"
         height="29.810888"
         width="29.810888"
         id="rect1634"
         style="fill:none;fill-opacity:1;stroke:#000000;stroke-width:0.1;stroke-linecap:round;stroke-linejoin:round;stroke-miterlimit:4;stroke-dasharray:none;stroke-opacity:0.02" />
      <rect
         style="fill:none;fill-opacity:1;stroke:#000000;stroke-width:0.2;stroke-linecap:round;stroke-linejoin:round;stroke-miterlimit:4;stroke-dasharray:none;stroke-opacity:0.02"
         id="rect1638"
         width="29.810888"
         height="29.810888"
         x="69.839508"
         y="40.709618"
         rx="6.6098609"
         ry="6.6098609" />
      <rect
         ry="6.6098609"
         rx="6.6098609"
         y="40.709618"
         x="69.839508"
         height="29.810888"
         width="29.810888"
         id="rect1640"
         style="fill:none;fill-opacity:1;stroke:#000000;stroke-width:0.3;stroke-linecap:round;stroke-linejoin:round;stroke-miterlimit:4;stroke-dasharray:none;stroke-opacity:0.02" />
      <rect
         style="fill:none;fill-opacity:1;stroke:#000000;stroke-width:0.4;stroke-linecap:round;stroke-linejoin:round;stroke-miterlimit:4;stroke-dasharray:none;stroke-opacity:0.02"
         id="rect1642"
         width="29.810888"
         height="29.810888"
         x="69.839508"
         y="40.709618"
         rx="6.6098609"
         ry="6.6098609" />
      <rect
         ry="6.6098609"
         rx="6.6098609"
         y="40.709618"
         x="69.839508"
         height="29.810888"
         width="29.810888"
         id="rect1644"
         style="fill:none;fill-opacity:1;stroke:#000000;stroke-width:0.5;stroke-linecap:round;stroke-linejoin:round;stroke-miterlimit:4;stroke-dasharray:none;stroke-opacity:0.02" />
      <rect
         style="fill:none;fill-opacity:1;stroke:#000000;stroke-width:0.6;stroke-linecap:round;stroke-linejoin:round;stroke-miterlimit:4;stroke-dasharray:none;stroke-opacity:0.02"
         id="rect1646"
         width="29.810888"
         height="29.810888"
         x="69.839508"
         y="40.709618"
         rx="6.6098609"
         ry="6.6098609" />
      <rect
         ry="6.6098609"
         rx="6.6098609"
         y="40.709618"
         x="69.839508"
         height="29.810888"
         width="29.810888"
         id="rect1648"
         style="fill:none;fill-opacity:1;stroke:#000000;stroke-width:0.7;stroke-linecap:round;stroke-linejoin:round;stroke-miterlimit:4;stroke-dasharray:none;stroke-opacity:0.02" />
      <rect
         style="fill:none;fill-opacity:1;stroke:#000000;stroke-width:0.8;stroke-linecap:round;stroke-linejoin:round;stroke-miterlimit:4;stroke-dasharray:none;stroke-opacity:0.02"
         id="rect1650"
         width="29.810888"
         height="29.810888"
         x="69.839508"
         y="40.709618"
         rx="6.6098609"
         ry="6.6098609" />
      <rect
         ry="6.6098609"
         rx="6.6098609"
         y="40.709618"
         x="69.839508"
         height="29.810888"
         width="29.810888"
         id="rect1652"
         style="fill:none;fill-opacity:1;stroke:#000000;stroke-width:1;stroke-linecap:round;stroke-linejoin:round;stroke-miterlimit:4;stroke-dasharray:none;stroke-opacity:0.02" />
      <rect
         style="fill:none;fill-opacity:1;stroke:#000000;stroke-width:1.2;stroke-linecap:round;stroke-linejoin:round;stroke-miterlimit:4;stroke-dasharray:none;stroke-opacity:0.02"
         id="rect1654"
         width="29.810888"
         height="29.810888"
         x="69.839508"
         y="40.709618"
         rx="6.6098609"
         ry="6.6098609" />
      <rect
         ry="6.6098609"
         rx="6.6098609"
         y="40.709618"
         x="69.839508"
         height="29.810888"
         width="29.810888"
         id="rect1656"
         style="fill:none;fill-opacity:1;stroke:#000000;stroke-width:1.4;stroke-linecap:round;stroke-linejoin:round;stroke-miterlimit:4;stroke-dasharray:none;stroke-opacity:0.02" />
      <rect
         style="fill:none;fill-opacity:1;stroke:#000000;stroke-width:1.6;stroke-linecap:round;stroke-linejoin:round;stroke-miterlimit:4;stroke-dasharray:none;stroke-opacity:0.02"
         id="rect1658"
         width="29.810888"
         height="29.810888"
         x="69.839508"
         y="40.709618"
         rx="6.6098609"
         ry="6.6098609" />
      <rect
         ry="6.6098609"
         rx="6.6098609"
         y="40.709618"
         x="69.839508"
         height="29.810888"
         width="29.810888"
         id="rect1660"
         style="fill:none;fill-opacity:1;stroke:#000000;stroke-width:1.8;stroke-linecap:round;stroke-linejoin:round;stroke-miterlimit:4;stroke-dasharray:none;stroke-opacity:0.02" />
      <rect
         style="fill:none;fill-opacity:1;stroke:#000000;stroke-width:2;stroke-linecap:round;stroke-linejoin:round;stroke-miterlimit:4;stroke-dasharray:none;stroke-opacity:0.02"
         id="rect1662"
         width="29.810888"
         height="29.810888"
         x="69.839508"
         y="40.709618"
         rx="6.6098609"
         ry="6.6098609" />
      <rect
         ry="6.6098609"
         rx="6.6098609"
         y="40.709618"
         x="69.839508"
         height="29.810888"
         width="29.810888"
         id="rect1664"
         style="fill:none;fill-opacity:1;stroke:#000000;stroke-width:2.2;stroke-linecap:round;stroke-linejoin:round;stroke-miterlimit:4;stroke-dasharray:none;stroke-opacity:0.02" />
      <rect
         style="fill:none;fill-opacity:1;stroke:#000000;stroke-width:2.6;stroke-linecap:round;stroke-linejoin:round;stroke-miterlimit:4;stroke-dasharray:none;stroke-opacity:0.02"
         id="rect1666"
         width="29.810888"
         height="29.810888"
         x="69.839508"
         y="40.709618"
         rx="6.6098609"
         ry="6.6098609" />
      <rect
         ry="6.6098609"
         rx="6.6098609"
         y="40.709618"
         x="69.839508"
         height="29.810888"
         width="29.810888"
         id="rect1668"
         style="fill:none;fill-opacity:1;stroke:#000000;stroke-width:3;stroke-linecap:round;stroke-linejoin:round;stroke-miterlimit:4;stroke-dasharray:none;stroke-opacity:0.02" />
      <rect
         style="fill:none;fill-opacity:1;stroke:#000000;stroke-width:3.4;stroke-linecap:round;stroke-linejoin:round;stroke-miterlimit:4;stroke-dasharray:none;stroke-opacity:0.02"
         id="rect1670"
         width="29.810888"
         height="29.810888"
         x="69.839508"
         y="40.709618"
         rx="6.6098609"
         ry="6.6098609" />
      <rect
         ry="6.6098609"
         rx="6.6098609"
         y="40.709618"
         x="69.839508"
         height="29.810888"
         width="29.810888"
         id="rect1672"
         style="fill:none;fill-opacity:1;stroke:#000000;stroke-width:3.8;stroke-linecap:round;stroke-linejoin:round;stroke-miterlimit:4;stroke-dasharray:none;stroke-opacity:0.02" />
      <rect
         style="fill:none;fill-opacity:1;stroke:#000000;stroke-width:4.2;stroke-linecap:round;stroke-linejoin:round;stroke-miterlimit:4;stroke-dasharray:none;stroke-opacity:0.02"
         id="rect1674"
         width="29.810888"
         height="29.810888"
         x="69.839508"
         y="40.709618"
         rx="6.6098609"
         ry="6.6098609" />
      <rect
         ry="6.6098609"
         rx="6.6098609"
         y="40.709618"
         x="69.839508"
         height="29.810888"
         width="29.810888"
         id="rect1676"
         style="fill:none;fill-opacity:1;stroke:#000000;stroke-width:4.6;stroke-linecap:round;stroke-linejoin:round;stroke-miterlimit:4;stroke-dasharray:none;stroke-opacity:0.02" />
      <rect
         style="fill:none;fill-opacity:1;stroke:#000000;stroke-width:5;stroke-linecap:round;stroke-linejoin:round;stroke-miterlimit:4;stroke-dasharray:none;stroke-opacity:0.02"
         id="rect1678"
         width="29.810888"
         height="29.810888"
         x="69.839508"
         y="40.709618"
         rx="6.6098609"
         ry="6.6098609" />
    </g>
    <rect
       ry="6.4494534"
       rx="6.4494534"
       y="2.5185876"
       x="2.4065466"
       height="29.087439"
       width="29.087439"
       id="rect849"
       style="fill:url(#linearGradient1632);fill-opacity:1;stroke-width:2.68768;stroke-linecap:round;stroke-linejoin:round" />
    <g
       id="g1509"
       style="opacity:0.33049503">
      <path
         id="path8-3"
         style="color:#000000;fill:#1c002c;fill-opacity:0.088785;stroke-width:1;stroke-linecap:round;stroke-linejoin:round;-inkscape-stroke:none"
         d="M 17.396826,7.526357 A 0.77030701,0.77030701 0 0 0 16.791179,7.8214294 L 9.3461561,17.321108 a 0.77030701,0.77030701 0 0 0 0,0.951363 L 16.791179,27.7706 a 0.77030701,0.77030701 0 0 0 1.211294,0 l 7.445023,-9.498129 a 0.77030701,0.77030701 0 0 0 0,-0.951363 L 18.002473,7.8214294 A 0.77030701,0.77030701 0 0 0 17.396826,7.526357 Z m 0,2.3383584 2.567802,7.4176356 h -5.135605 z m -1.746147,1.9089276 -1.907895,5.508708 h -2.410187 z m 3.492293,0 4.318082,5.508708 h -2.410187 z m -7.810375,6.536035 h 2.510441 l 1.859317,5.575887 z m 3.592028,0 h 4.944401 l -2.4722,7.416085 z m 6.025989,0 h 2.51044 l -4.369757,5.575887 z" />
      <path
         id="path1499"
         style="color:#000000;fill:#1c002c;fill-opacity:0.088785;stroke-width:1;stroke-linecap:round;stroke-linejoin:round;-inkscape-stroke:none"
         d="M 17.706438,8.1069036 A 0.77030701,0.77030701 0 0 0 17.100791,8.401976 l -7.4450229,9.499679 a 0.77030701,0.77030701 0 0 0 0,0.951363 l 7.4450229,9.498129 a 0.77030701,0.77030701 0 0 0 1.211294,0 l 7.445023,-9.498129 a 0.77030701,0.77030701 0 0 0 0,-0.951363 L 18.312085,8.401976 A 0.77030701,0.77030701 0 0 0 17.706438,8.1069036 Z m 0,2.3383584 2.567802,7.417636 h -5.135605 z m -1.746147,1.908928 -1.907895,5.508708 h -2.410187 z m 3.492293,0 4.318082,5.508708 h -2.410187 z m -7.810375,6.536035 h 2.510441 l 1.859317,5.575887 z m 3.592028,0 h 4.944401 l -2.4722,7.416085 z m 6.025989,0 h 2.51044 l -4.369757,5.575887 z" />
      <path
         id="path1501"
         style="color:#000000;fill:#1c002c;fill-opacity:0.088785;stroke-width:1;stroke-linecap:round;stroke-linejoin:round;-inkscape-stroke:none"
         d="M 18.025688,8.7211873 A 0.77030701,0.77030701 0 0 0 17.420041,9.0162597 L 9.9750179,18.515939 a 0.77030701,0.77030701 0 0 0 0,0.951363 l 7.4450231,9.498129 a 0.77030701,0.77030701 0 0 0 1.211294,0 l 7.445023,-9.498129 a 0.77030701,0.77030701 0 0 0 0,-0.951363 L 18.631335,9.0162597 A 0.77030701,0.77030701 0 0 0 18.025688,8.7211873 Z m 0,2.3383587 2.567802,7.417636 h -5.135605 z m -1.746147,1.908928 -1.907895,5.508708 h -2.410187 z m 3.492293,0 4.318082,5.508708 h -2.410187 z m -7.810375,6.536035 H 14.4719 l 1.859317,5.575887 z m 3.592028,0 h 4.944401 l -2.4722,7.416085 z m 6.025989,0 h 2.51044 l -4.369757,5.575887 z" />
      <path
         id="path1503"
         style="color:#000000;fill:#1c002c;fill-opacity:0.088785;stroke-width:1;stroke-linecap:round;stroke-linejoin:round;-inkscape-stroke:none"
         d="M 17.760197,8.9586518 A 0.77030701,0.77030701 0 0 0 17.15455,9.2537245 L 9.7095274,18.753403 a 0.77030701,0.77030701 0 0 0 0,0.951363 l 7.4450226,9.498129 a 0.77030701,0.77030701 0 0 0 1.211294,0 l 7.445023,-9.498129 a 0.77030701,0.77030701 0 0 0 0,-0.951363 L 18.365844,9.2537245 A 0.77030701,0.77030701 0 0 0 17.760197,8.9586518 Z m 0,2.3383582 2.567802,7.417636 h -5.135605 z m -1.746147,1.908928 -1.907895,5.508708 h -2.410187 z m 3.492293,0 4.318082,5.508708 h -2.410187 z m -7.810375,6.536035 h 2.510441 l 1.859317,5.575887 z m 3.592028,0 h 4.944401 l -2.4722,7.416085 z m 6.025989,0 h 2.51044 l -4.369757,5.575887 z" />
    </g>
    <path
       style="fill:none;stroke:#ffffff;stroke-width:1.54046;stroke-linecap:round;stroke-linejoin:round"
       d="m 17.101595,7.7646422 -7.4455347,9.4994728 7.4455347,9.499474 7.445532,-9.499474 z"
       id="path8" />
    <path
       style="fill:none;stroke:#ffffff;stroke-width:1.02697"
       d="m 17.101595,26.814936 -3.234956,-9.704867 3.234956,-9.3454268 v 0"
       id="path10" />
    <path
       style="fill:none;stroke:#ffffff;stroke-width:1.02697"
       d="M 17.101595,26.814936 20.33655,17.110069 17.101595,7.7646422 v 0"
       id="path12" />
    <path
       style="fill:none;stroke:#ffffff;stroke-width:1.02697"
       d="m 9.912804,17.264115 h 14.37758"
       id="path14" />
  </g>
</svg>
