<?xml version="1.0" encoding="UTF-8" standalone="no"?>
<svg
   width="128"
   height="128"
   viewBox="0 0 33.866666 33.866668"
   version="1.1"
   id="svg1829"
   inkscape:version="1.1.2 (0a00cf5339, 2022-02-04)"
   sodipodi:docname="zettlr.svg"
   xmlns:inkscape="http://www.inkscape.org/namespaces/inkscape"
   xmlns:sodipodi="http://sodipodi.sourceforge.net/DTD/sodipodi-0.dtd"
   xmlns:xlink="http://www.w3.org/1999/xlink"
   xmlns="http://www.w3.org/2000/svg"
   xmlns:svg="http://www.w3.org/2000/svg"
   xmlns:rdf="http://www.w3.org/1999/02/22-rdf-syntax-ns#"
   xmlns:cc="http://creativecommons.org/ns#"
   xmlns:dc="http://purl.org/dc/elements/1.1/">
  <defs
     id="defs1823">
    <linearGradient
       inkscape:collect="always"
       id="linearGradient1632">
      <stop
         style="stop-color:#ffffff;stop-opacity:1;"
         offset="0"
         id="stop1628" />
      <stop
         style="stop-color:#00aab7;stop-opacity:1"
         offset="1"
         id="stop1630" />
    </linearGradient>
    <linearGradient
       inkscape:collect="always"
       id="linearGradient884">
      <stop
         style="stop-color:#0ee782;stop-opacity:1"
         offset="0"
         id="stop880" />
      <stop
         style="stop-color:#00a9b8;stop-opacity:1"
         offset="1"
         id="stop882" />
    </linearGradient>
    <radialGradient
       inkscape:collect="always"
       xlink:href="#linearGradient884"
       id="radialGradient886"
       cx="17.309874"
       cy="2.5295613"
       fx="17.309874"
       fy="2.5295613"
       r="14.54372"
       gradientUnits="userSpaceOnUse"
       gradientTransform="matrix(7.161795,0,0,1.7510995,-106.65989,-1.8999525)" />
    <linearGradient
       inkscape:collect="always"
       xlink:href="#linearGradient1632"
       id="linearGradient1634"
       x1="11.807746"
       y1="7.7021642"
       x2="11.807746"
       y2="55.34267"
       gradientUnits="userSpaceOnUse" />
  </defs>
  <sodipodi:namedview
     id="base"
     pagecolor="#ffffff"
     bordercolor="#666666"
     borderopacity="1.0"
     inkscape:pageopacity="0.0"
     inkscape:pageshadow="2"
     inkscape:zoom="1.4"
     inkscape:cx="2.8571429"
     inkscape:cy="51.428572"
     inkscape:document-units="mm"
     inkscape:current-layer="layer1"
     inkscape:document-rotation="0"
     showgrid="false"
     units="px"
     inkscape:window-width="1920"
     inkscape:window-height="1034"
     inkscape:window-x="0"
     inkscape:window-y="24"
     inkscape:window-maximized="1"
     inkscape:pagecheckerboard="0" />
  <metadata
     id="metadata1826">
    <rdf:RDF>
      <cc:Work
         rdf:about="">
        <dc:format>image/svg+xml</dc:format>
        <dc:type
           rdf:resource="http://purl.org/dc/dcmitype/StillImage" />
      </cc:Work>
    </rdf:RDF>
  </metadata>
  <g
     inkscape:label="Capa 1"
     inkscape:groupmode="layer"
     id="layer1">
    <g
       id="g1702"
       transform="matrix(0.97573206,0,0,0.97573206,-65.58674,-37.192363)"
       style="opacity:0.296765">
      <rect
         style="fill:none;fill-opacity:1;stroke:#000000;stroke-width:0.1;stroke-linecap:round;stroke-linejoin:round;stroke-miterlimit:4;stroke-dasharray:none;stroke-opacity:0.02"
         id="rect1634"
         width="29.810888"
         height="29.810888"
         x="69.839508"
         y="40.709618"
         rx="6.6098609"
         ry="6.6098609" />
      <rect
         ry="6.6098609"
         rx="6.6098609"
         y="40.709618"
         x="69.839508"
         height="29.810888"
         width="29.810888"
         id="rect1638"
         style="fill:none;fill-opacity:1;stroke:#000000;stroke-width:0.2;stroke-linecap:round;stroke-linejoin:round;stroke-miterlimit:4;stroke-dasharray:none;stroke-opacity:0.02" />
      <rect
         style="fill:none;fill-opacity:1;stroke:#000000;stroke-width:0.3;stroke-linecap:round;stroke-linejoin:round;stroke-miterlimit:4;stroke-dasharray:none;stroke-opacity:0.02"
         id="rect1640"
         width="29.810888"
         height="29.810888"
         x="69.839508"
         y="40.709618"
         rx="6.6098609"
         ry="6.6098609" />
      <rect
         ry="6.6098609"
         rx="6.6098609"
         y="40.709618"
         x="69.839508"
         height="29.810888"
         width="29.810888"
         id="rect1642"
         style="fill:none;fill-opacity:1;stroke:#000000;stroke-width:0.4;stroke-linecap:round;stroke-linejoin:round;stroke-miterlimit:4;stroke-dasharray:none;stroke-opacity:0.02" />
      <rect
         style="fill:none;fill-opacity:1;stroke:#000000;stroke-width:0.5;stroke-linecap:round;stroke-linejoin:round;stroke-miterlimit:4;stroke-dasharray:none;stroke-opacity:0.02"
         id="rect1644"
         width="29.810888"
         height="29.810888"
         x="69.839508"
         y="40.709618"
         rx="6.6098609"
         ry="6.6098609" />
      <rect
         ry="6.6098609"
         rx="6.6098609"
         y="40.709618"
         x="69.839508"
         height="29.810888"
         width="29.810888"
         id="rect1646"
         style="fill:none;fill-opacity:1;stroke:#000000;stroke-width:0.6;stroke-linecap:round;stroke-linejoin:round;stroke-miterlimit:4;stroke-dasharray:none;stroke-opacity:0.02" />
      <rect
         style="fill:none;fill-opacity:1;stroke:#000000;stroke-width:0.7;stroke-linecap:round;stroke-linejoin:round;stroke-miterlimit:4;stroke-dasharray:none;stroke-opacity:0.02"
         id="rect1648"
         width="29.810888"
         height="29.810888"
         x="69.839508"
         y="40.709618"
         rx="6.6098609"
         ry="6.6098609" />
      <rect
         ry="6.6098609"
         rx="6.6098609"
         y="40.709618"
         x="69.839508"
         height="29.810888"
         width="29.810888"
         id="rect1650"
         style="fill:none;fill-opacity:1;stroke:#000000;stroke-width:0.8;stroke-linecap:round;stroke-linejoin:round;stroke-miterlimit:4;stroke-dasharray:none;stroke-opacity:0.02" />
      <rect
         style="fill:none;fill-opacity:1;stroke:#000000;stroke-width:1;stroke-linecap:round;stroke-linejoin:round;stroke-miterlimit:4;stroke-dasharray:none;stroke-opacity:0.02"
         id="rect1652"
         width="29.810888"
         height="29.810888"
         x="69.839508"
         y="40.709618"
         rx="6.6098609"
         ry="6.6098609" />
      <rect
         ry="6.6098609"
         rx="6.6098609"
         y="40.709618"
         x="69.839508"
         height="29.810888"
         width="29.810888"
         id="rect1654"
         style="fill:none;fill-opacity:1;stroke:#000000;stroke-width:1.2;stroke-linecap:round;stroke-linejoin:round;stroke-miterlimit:4;stroke-dasharray:none;stroke-opacity:0.02" />
      <rect
         style="fill:none;fill-opacity:1;stroke:#000000;stroke-width:1.4;stroke-linecap:round;stroke-linejoin:round;stroke-miterlimit:4;stroke-dasharray:none;stroke-opacity:0.02"
         id="rect1656"
         width="29.810888"
         height="29.810888"
         x="69.839508"
         y="40.709618"
         rx="6.6098609"
         ry="6.6098609" />
      <rect
         ry="6.6098609"
         rx="6.6098609"
         y="40.709618"
         x="69.839508"
         height="29.810888"
         width="29.810888"
         id="rect1658"
         style="fill:none;fill-opacity:1;stroke:#000000;stroke-width:1.6;stroke-linecap:round;stroke-linejoin:round;stroke-miterlimit:4;stroke-dasharray:none;stroke-opacity:0.02" />
      <rect
         style="fill:none;fill-opacity:1;stroke:#000000;stroke-width:1.8;stroke-linecap:round;stroke-linejoin:round;stroke-miterlimit:4;stroke-dasharray:none;stroke-opacity:0.02"
         id="rect1660"
         width="29.810888"
         height="29.810888"
         x="69.839508"
         y="40.709618"
         rx="6.6098609"
         ry="6.6098609" />
      <rect
         ry="6.6098609"
         rx="6.6098609"
         y="40.709618"
         x="69.839508"
         height="29.810888"
         width="29.810888"
         id="rect1662"
         style="fill:none;fill-opacity:1;stroke:#000000;stroke-width:2;stroke-linecap:round;stroke-linejoin:round;stroke-miterlimit:4;stroke-dasharray:none;stroke-opacity:0.02" />
      <rect
         style="fill:none;fill-opacity:1;stroke:#000000;stroke-width:2.2;stroke-linecap:round;stroke-linejoin:round;stroke-miterlimit:4;stroke-dasharray:none;stroke-opacity:0.02"
         id="rect1664"
         width="29.810888"
         height="29.810888"
         x="69.839508"
         y="40.709618"
         rx="6.6098609"
         ry="6.6098609" />
      <rect
         ry="6.6098609"
         rx="6.6098609"
         y="40.709618"
         x="69.839508"
         height="29.810888"
         width="29.810888"
         id="rect1666"
         style="fill:none;fill-opacity:1;stroke:#000000;stroke-width:2.6;stroke-linecap:round;stroke-linejoin:round;stroke-miterlimit:4;stroke-dasharray:none;stroke-opacity:0.02" />
      <rect
         style="fill:none;fill-opacity:1;stroke:#000000;stroke-width:3;stroke-linecap:round;stroke-linejoin:round;stroke-miterlimit:4;stroke-dasharray:none;stroke-opacity:0.02"
         id="rect1668"
         width="29.810888"
         height="29.810888"
         x="69.839508"
         y="40.709618"
         rx="6.6098609"
         ry="6.6098609" />
      <rect
         ry="6.6098609"
         rx="6.6098609"
         y="40.709618"
         x="69.839508"
         height="29.810888"
         width="29.810888"
         id="rect1670"
         style="fill:none;fill-opacity:1;stroke:#000000;stroke-width:3.4;stroke-linecap:round;stroke-linejoin:round;stroke-miterlimit:4;stroke-dasharray:none;stroke-opacity:0.02" />
      <rect
         style="fill:none;fill-opacity:1;stroke:#000000;stroke-width:3.8;stroke-linecap:round;stroke-linejoin:round;stroke-miterlimit:4;stroke-dasharray:none;stroke-opacity:0.02"
         id="rect1672"
         width="29.810888"
         height="29.810888"
         x="69.839508"
         y="40.709618"
         rx="6.6098609"
         ry="6.6098609" />
      <rect
         ry="6.6098609"
         rx="6.6098609"
         y="40.709618"
         x="69.839508"
         height="29.810888"
         width="29.810888"
         id="rect1674"
         style="fill:none;fill-opacity:1;stroke:#000000;stroke-width:4.2;stroke-linecap:round;stroke-linejoin:round;stroke-miterlimit:4;stroke-dasharray:none;stroke-opacity:0.02" />
      <rect
         style="fill:none;fill-opacity:1;stroke:#000000;stroke-width:4.6;stroke-linecap:round;stroke-linejoin:round;stroke-miterlimit:4;stroke-dasharray:none;stroke-opacity:0.02"
         id="rect1676"
         width="29.810888"
         height="29.810888"
         x="69.839508"
         y="40.709618"
         rx="6.6098609"
         ry="6.6098609" />
      <rect
         ry="6.6098609"
         rx="6.6098609"
         y="40.709618"
         x="69.839508"
         height="29.810888"
         width="29.810888"
         id="rect1678"
         style="fill:none;fill-opacity:1;stroke:#000000;stroke-width:5;stroke-linecap:round;stroke-linejoin:round;stroke-miterlimit:4;stroke-dasharray:none;stroke-opacity:0.02" />
    </g>
    <rect
       style="fill:url(#radialGradient886);fill-opacity:1;stroke-width:2.68769;stroke-linecap:round;stroke-linejoin:round"
       id="rect849-5"
       width="29.08744"
       height="29.08744"
       x="2.5579116"
       y="2.5293181"
       rx="6.4494534"
       ry="6.4494534" />
    <g
       id="g3528"
       style="fill:#000e3c;fill-opacity:0.02894097">
      <path
         style="fill:#000e3c;fill-opacity:0.02894097;stroke:none;stroke-width:0.521657"
         d="m 18.329241,27.976948 c 0.32441,-0.692748 1.069932,-1.280085 1.291868,-2.052589 0.272732,-0.717206 0.185056,-1.581591 -0.541827,-2.001008 -0.258331,-0.219419 -0.651482,-0.07461 -0.969581,-0.132571 -1.609067,-0.05603 -3.390955,0.0307 -4.694059,-1.080169 -1.320437,-1.163622 -1.440581,-3.193597 -1.176863,-4.816856 0.559155,-2.790426 2.535089,-5.030814 4.652188,-6.829998 0.298341,-0.267439 1.25323,-1.4036811 0.33204,-1.3224361 -1.398556,-0.06228 -4.576174,-0.04478 -4.576174,-0.04478 V 7.6322997 h 9.911493 v 2.0642432 c -2.390771,1.5122301 -4.780823,3.5812641 -6.087006,6.1439391 -0.622947,1.213365 -0.897497,2.517084 -0.335962,3.800001 0.371155,0.753446 1.447834,1.07081 2.249201,1.04369 0.961517,0.107414 1.986626,-0.07666 2.898153,0.299093 1.260827,0.543139 1.917141,1.979201 1.779169,3.29918 -0.0544,1.227554 -0.690098,2.770779 -1.472421,3.694492 z"
         id="path3390" />
      <path
         style="fill:#000e3c;fill-opacity:0.02894097;stroke:none;stroke-width:0.521657"
         d="m 18.498066,28.442086 c 0.32441,-0.692748 1.069932,-1.280085 1.291868,-2.052589 0.272732,-0.717206 0.185056,-1.581591 -0.541827,-2.001008 -0.258331,-0.219419 -0.651482,-0.07461 -0.969581,-0.132571 -1.609067,-0.05603 -3.390955,0.0307 -4.694059,-1.080169 -1.320437,-1.163622 -1.440581,-3.193597 -1.176863,-4.816856 0.559155,-2.790426 2.535089,-5.030814 4.652188,-6.829998 0.298341,-0.267439 1.25323,-1.403681 0.33204,-1.322436 -1.398556,-0.06228 -4.576174,-0.04478 -4.576174,-0.04478 V 8.0974376 h 9.911493 v 2.0642434 c -2.390771,1.51223 -4.780823,3.581264 -6.087006,6.143939 -0.622947,1.213365 -0.897497,2.517084 -0.335962,3.800001 0.371155,0.753446 1.447834,1.07081 2.249201,1.04369 0.961517,0.107414 1.986626,-0.07666 2.898153,0.299093 1.260827,0.543139 1.917141,1.979201 1.779169,3.29918 -0.0544,1.227554 -0.690098,2.770779 -1.472421,3.694492 z"
         id="path3518" />
      <path
         style="fill:#000e3c;fill-opacity:0.02894097;stroke:none;stroke-width:0.521657"
         d="m 18.63153,28.913862 c 0.32441,-0.692748 1.069932,-1.280085 1.291868,-2.052589 0.272732,-0.717206 0.185056,-1.581591 -0.541827,-2.001008 -0.258331,-0.219419 -0.651482,-0.07461 -0.969581,-0.132571 -1.609067,-0.05603 -3.390955,0.0307 -4.694059,-1.080169 -1.320437,-1.163622 -1.440581,-3.193597 -1.176863,-4.816856 0.559155,-2.790426 2.535089,-5.030814 4.652188,-6.829998 0.298341,-0.267439 1.25323,-1.403681 0.33204,-1.322436 -1.398556,-0.06228 -4.576174,-0.04478 -4.576174,-0.04478 V 8.5692133 h 9.911493 v 2.0642437 c -2.390771,1.51223 -4.780823,3.581264 -6.087006,6.143939 -0.622947,1.213365 -0.897497,2.517084 -0.335962,3.800001 0.371155,0.753446 1.447834,1.07081 2.249201,1.04369 0.961517,0.107414 1.986626,-0.07666 2.898153,0.299093 1.260827,0.543139 1.917141,1.979201 1.779169,3.29918 -0.0544,1.227554 -0.690098,2.770779 -1.472421,3.694492 z"
         id="path3520" />
      <path
         style="fill:#000e3c;fill-opacity:0.02894097;stroke:none;stroke-width:0.521657"
         d="m 18.76689,29.721562 c 0.32441,-0.692748 1.069932,-1.280085 1.291868,-2.052589 0.272732,-0.717206 0.185056,-1.581591 -0.541827,-2.001008 -0.258331,-0.219419 -0.651482,-0.07461 -0.969581,-0.132571 -1.609067,-0.05603 -3.390955,0.0307 -4.694059,-1.080169 -1.320437,-1.163622 -1.440581,-3.193597 -1.176863,-4.816856 0.559155,-2.790426 2.535089,-5.030814 4.652188,-6.829998 0.298341,-0.267439 1.25323,-1.403681 0.33204,-1.322436 -1.398556,-0.06228 -4.576174,-0.04478 -4.576174,-0.04478 V 9.3769129 h 9.911493 v 2.0642441 c -2.390771,1.51223 -4.780823,3.581264 -6.087006,6.143939 -0.622947,1.213365 -0.897497,2.517084 -0.335962,3.800001 0.371155,0.753446 1.447834,1.07081 2.249201,1.04369 0.961517,0.107414 1.986626,-0.07666 2.898153,0.299093 1.260827,0.543139 1.917141,1.979201 1.779169,3.29918 -0.0544,1.227554 -0.690098,2.770779 -1.472421,3.694492 z"
         id="path3522" />
    </g>
    <path
       style="fill:url(#linearGradient1634);stroke-width:0.521657;stroke:none;fill-opacity:1"
       d="m 18.011811,27.734359 c 0.32441,-0.692748 1.069932,-1.280085 1.291868,-2.052589 0.272732,-0.717206 0.185056,-1.581591 -0.541827,-2.001008 -0.258331,-0.219419 -0.651482,-0.07461 -0.969581,-0.132571 -1.609067,-0.05603 -3.390955,0.0307 -4.694059,-1.080169 -1.320437,-1.163622 -1.440581,-3.193597 -1.176863,-4.816856 0.559155,-2.790426 2.535089,-5.030814 4.652188,-6.829998 0.298341,-0.267439 1.25323,-1.4036805 0.33204,-1.322436 -1.398556,-0.062284 -4.576174,-0.044776 -4.576174,-0.044776 V 7.3897111 h 9.911493 v 2.0642434 c -2.390771,1.5122295 -4.780823,3.5812635 -6.087006,6.1439385 -0.622947,1.213365 -0.897497,2.517084 -0.335962,3.800001 0.371155,0.753446 1.447834,1.07081 2.249201,1.04369 0.961517,0.107414 1.986626,-0.07666 2.898153,0.299093 1.260827,0.543139 1.917141,1.979201 1.779169,3.29918 -0.0544,1.227554 -0.690098,2.770779 -1.472421,3.694492 z"
       id="path8" />
  </g>
</svg>
