<?xml version="1.0" encoding="UTF-8" standalone="no"?>
<svg
   width="22"
   height="22"
   version="1.1"
   id="svg9"
   sodipodi:docname="klipper.svg"
   inkscape:version="1.1.2 (0a00cf5339, 2022-02-04)"
   xmlns:inkscape="http://www.inkscape.org/namespaces/inkscape"
   xmlns:sodipodi="http://sodipodi.sourceforge.net/DTD/sodipodi-0.dtd"
   xmlns="http://www.w3.org/2000/svg"
   xmlns:svg="http://www.w3.org/2000/svg">
  <sodipodi:namedview
     id="namedview11"
     pagecolor="#888888"
     bordercolor="#666666"
     borderopacity="1.0"
     inkscape:pageshadow="2"
     inkscape:pageopacity="0"
     inkscape:pagecheckerboard="0"
     showgrid="false"
     inkscape:zoom="14.318182"
     inkscape:cx="-17.63492"
     inkscape:cy="7.8222221"
     inkscape:window-width="1920"
     inkscape:window-height="1022"
     inkscape:window-x="0"
     inkscape:window-y="0"
     inkscape:window-maximized="1"
     inkscape:current-layer="svg9" />
  <defs
     id="defs3">
    <style
       id="current-color-scheme"
       type="text/css">.ColorScheme-Text { color:#3d3d3d; } .ColorScheme-Highlight { color:#4285f4; }</style>
  </defs>
  <path
     d="m 9.8561387,3.1995727 q 0.8083643,-0.8083636 1.9000033,-0.8083636 1.091639,0 1.900002,0.8083636 0.93273,0.9327303 0.93273,2.3145499 l 0.0069,10.7298364 q -0.01381,1.575276 -1.091637,2.653097 -1.098549,1.098547 -2.625459,1.105455 -1.5269113,0.0069 -2.6254583,-1.091638 -1.0916391,-1.091638 -1.1054576,-2.666914 l 0.00687,-8.3669224 q 0,-0.1381823 0.082909,-0.2210935 0.1105452,-0.1105455 0.5320006,-0.1105455 0.4214563,0 0.5320015,0.1105455 0.08982,0.089819 0.08982,0.2280013 l -0.00687,8.3807426 q 0.013812,1.077821 0.7185471,1.782547 0.7323637,0.732366 1.7549117,0.718546 1.022547,-0.01381 1.754913,-0.746181 0.725455,-0.725457 0.725455,-1.77564 l 0.0069,-10.7298364 q 0,-0.8705474 -0.566546,-1.4370932 -0.442182,-0.4421822 -1.022546,-0.4421822 -0.580365,0 -1.022547,0.4421822 -0.566617,0.5665458 -0.566617,1.4370932 V 13.5425 q 0.01381,0.345454 0.248729,0.580365 0.200362,0.200364 0.462908,0.200364 0.262547,0 0.462912,-0.200364 0.22109,-0.221091 0.234909,-0.580365 V 7.8770366 q 0,-0.1381823 0.08291,-0.2210935 0.110545,-0.1105455 0.538909,-0.1105455 0.428366,0 0.538911,0.1105455 0.08291,0.082911 0.08291,0.2210935 V 13.5425 q 0.01381,0.856729 -0.594183,1.46473 -0.566546,0.566547 -1.354184,0.566547 -0.787638,0 -1.3541855,-0.566547 Q 8.9095086,14.399229 8.9233271,13.5425 V 5.5141226 Q 8.9095129,4.1461209 9.8560547,3.1995727 Z"
     id="path3041"
     inkscape:connector-curvature="0"
     style="fill:currentColor;stroke-width:0.00977096;fill-opacity:1"
     class="ColorScheme-Text" />
</svg>
