<?xml version="1.0" encoding="UTF-8" standalone="no"?>
<svg
   width="22"
   height="22"
   version="1.1"
   id="svg9"
   sodipodi:docname="preferences-desktop-display.svg"
   inkscape:version="1.1.2 (0a00cf5339, 2022-02-04)"
   xmlns:inkscape="http://www.inkscape.org/namespaces/inkscape"
   xmlns:sodipodi="http://sodipodi.sourceforge.net/DTD/sodipodi-0.dtd"
   xmlns="http://www.w3.org/2000/svg"
   xmlns:svg="http://www.w3.org/2000/svg">
  <sodipodi:namedview
     id="namedview11"
     pagecolor="#888888"
     bordercolor="#666666"
     borderopacity="1.0"
     inkscape:pageshadow="2"
     inkscape:pageopacity="0"
     inkscape:pagecheckerboard="0"
     showgrid="false"
     inkscape:zoom="14.318182"
     inkscape:cx="7.4031746"
     inkscape:cy="0.31428571"
     inkscape:window-width="1920"
     inkscape:window-height="1022"
     inkscape:window-x="0"
     inkscape:window-y="0"
     inkscape:window-maximized="1"
     inkscape:current-layer="svg9" />
  <defs
     id="defs3">
    <style
       id="current-color-scheme"
       type="text/css">.ColorScheme-Text { color:#ffffff; } .ColorScheme-Highlight { color:#4285f4; }</style>
  </defs>
  <path
     id="rect1139"
     style="fill:#ffffff;fill-opacity:1;stroke-width:2.33027;stroke-linecap:round;stroke-linejoin:round"
     d="m 2.9547433,3.4725757 c -0.666501,0 -1.203125,0.534671 -1.203125,1.2011718 V 15.656169 c 0,0.666501 0.536624,1.203125 1.203125,1.203125 H 18.876618 c 0.666501,0 1.203125,-0.536624 1.203125,-1.203125 V 4.6737475 c 0,-0.6665008 -0.536624,-1.2011718 -1.203125,-1.2011718 z m 1.03125,1.3691406 H 17.843415 c 0.397093,0 0.716797,0.3197045 0.716797,0.7167969 v 9.2128898 c 0,0.397093 -0.319704,0.716797 -0.716797,0.716797 H 3.9859933 c -0.397092,0 -0.716797,-0.319704 -0.716797,-0.716797 V 5.5585132 c 0,-0.3970924 0.319705,-0.7167969 0.716797,-0.7167969 z m 3.416016,2.6191406 c -1.498508,0 -2.705079,1.2065719 -2.705079,2.7050781 0,1.498506 1.206571,2.705078 2.705079,2.705078 h 7.0273437 c 1.498506,0 2.705078,-1.206572 2.705078,-2.705078 0,-1.4985062 -1.206572,-2.7050781 -2.705078,-2.7050781 z m 0.078124,1 a 1.7362102,1.7362102 0 0 1 1.736329,1.7343751 1.7362102,1.7362102 0 0 1 -1.736329,1.736328 1.7362102,1.7362102 0 0 1 -1.734374,-1.736328 1.7362102,1.7362102 0 0 1 1.734374,-1.7343751 z" />
  <rect
     style="fill:#ffffff;fill-opacity:1;stroke-width:2.33027;stroke-linecap:round;stroke-linejoin:round"
     id="rect1141"
     width="7.9718304"
     height="1.8128054"
     x="6.9292974"
     y="17.726109"
     rx="0.90640271"
     ry="0.90640271" />
</svg>
