<?xml version="1.0" encoding="UTF-8" standalone="no"?>
<!-- Created with Inkscape (http://www.inkscape.org/) -->

<svg
   xmlns:dc="http://purl.org/dc/elements/1.1/"
   xmlns:cc="http://creativecommons.org/ns#"
   xmlns:rdf="http://www.w3.org/1999/02/22-rdf-syntax-ns#"
   xmlns:svg="http://www.w3.org/2000/svg"
   xmlns="http://www.w3.org/2000/svg"
   xmlns:sodipodi="http://sodipodi.sourceforge.net/DTD/sodipodi-0.dtd"
   xmlns:inkscape="http://www.inkscape.org/namespaces/inkscape"
   width="16"
   height="16"
   viewBox="0 0 4.2333332 4.2333335"
   version="1.1"
   id="svg8"
   inkscape:version="0.92.5 (2060ec1f9f, 2020-04-08)"
   sodipodi:docname="folder-video.svg">
  <defs
     id="defs2" />
  <sodipodi:namedview
     id="base"
     pagecolor="#ffffff"
     bordercolor="#666666"
     borderopacity="1.0"
     inkscape:pageopacity="0.0"
     inkscape:pageshadow="2"
     inkscape:zoom="22.4"
     inkscape:cx="14.563605"
     inkscape:cy="7.2556008"
     inkscape:document-units="mm"
     inkscape:current-layer="layer1"
     showgrid="true"
     units="px"
     inkscape:window-width="1920"
     inkscape:window-height="1023"
     inkscape:window-x="0"
     inkscape:window-y="29"
     inkscape:window-maximized="1">
    <inkscape:grid
       type="xygrid"
       id="grid815" />
  </sodipodi:namedview>
  <metadata
     id="metadata5">
    <rdf:RDF>
      <cc:Work
         rdf:about="">
        <dc:format>image/svg+xml</dc:format>
        <dc:type
           rdf:resource="http://purl.org/dc/dcmitype/StillImage" />
        <dc:title></dc:title>
      </cc:Work>
    </rdf:RDF>
  </metadata>
  <g
     inkscape:label="Capa 1"
     inkscape:groupmode="layer"
     id="layer1"
     transform="translate(0,-292.76665)">
    <path
       style="opacity:1;fill:#0061fc;fill-opacity:1;stroke:none;stroke-width:0.03779528;stroke-linecap:round;stroke-linejoin:round;stroke-miterlimit:4;stroke-dasharray:none;stroke-opacity:1"
       d="M 4 2 C 2.9999631 2 2 3.0000126 2 4 L 2 13 C 2 14.000101 2.9999631 15 4 15 L 12 15 C 13.000037 15 14 14.000101 14 13 L 14 4 C 14 3.0000126 13.000037 2 12 2 L 4 2 z M 7 3 L 9 3 C 11 3 11 3.9999748 11 5 L 11 8 L 5 8 L 5 5 C 5.0000004 3.9999748 5.0000003 3 7 3 z M 3 4 L 4 4 L 4 5 L 3 5 L 3 4 z M 12 4 L 13 4 L 13 5 L 12 5 L 12 4 z M 3 6 L 4 6 L 4 7 L 3 7 L 3 6 z M 12 6 L 13 6 L 13 7 L 12 7 L 12 6 z M 3 8 L 4 8 L 4 9 L 3 9 L 3 8 z M 12 8 L 13 8 L 13 9 L 12 9 L 12 8 z M 5 9 L 11 9 L 11 12 C 11 12.999987 11 14 9 14 L 7 14 C 5.0000003 14 5.0000004 12.999987 5 12 L 5 9 z M 3 10 L 4 10 L 4 11 L 3 11 L 3 10 z M 12 10 L 13 10 L 13 11 L 12 11 L 12 10 z M 3 12 L 4 12 L 4 13 L 3 13 L 3 12 z M 12 12 L 13 12 L 13 13 L 12 13 L 12 12 z "
       transform="matrix(0.26458333,0,0,0.26458333,0,292.76665)"
       id="rect829" />
  </g>
</svg>
