<?xml version="1.0" encoding="UTF-8" standalone="no"?>
<!-- Created with Inkscape (http://www.inkscape.org/) -->

<svg
   xmlns:dc="http://purl.org/dc/elements/1.1/"
   xmlns:cc="http://creativecommons.org/ns#"
   xmlns:rdf="http://www.w3.org/1999/02/22-rdf-syntax-ns#"
   xmlns:svg="http://www.w3.org/2000/svg"
   xmlns="http://www.w3.org/2000/svg"
   xmlns:sodipodi="http://sodipodi.sourceforge.net/DTD/sodipodi-0.dtd"
   xmlns:inkscape="http://www.inkscape.org/namespaces/inkscape"
   width="16"
   height="16"
   viewBox="0 0 4.2333332 4.2333335"
   version="1.1"
   id="svg8"
   inkscape:version="0.92.5 (2060ec1f9f, 2020-04-08)"
   sodipodi:docname="folder_pictures.svg">
  <defs
     id="defs2" />
  <sodipodi:namedview
     id="base"
     pagecolor="#ffffff"
     bordercolor="#666666"
     borderopacity="1.0"
     inkscape:pageopacity="0.0"
     inkscape:pageshadow="2"
     inkscape:zoom="11.313709"
     inkscape:cx="5.9699441"
     inkscape:cy="8.2638787"
     inkscape:document-units="mm"
     inkscape:current-layer="layer1"
     showgrid="true"
     units="px"
     inkscape:window-width="1920"
     inkscape:window-height="1023"
     inkscape:window-x="0"
     inkscape:window-y="29"
     inkscape:window-maximized="1"
     showguides="true"
     inkscape:guide-bbox="true">
    <inkscape:grid
       type="xygrid"
       id="grid815"
       spacingx="0.26458333"
       spacingy="0.26458333" />
    <sodipodi:guide
       position="0.66145833,2.7781252"
       orientation="1,0"
       id="guide959"
       inkscape:locked="false" />
    <sodipodi:guide
       position="0.52916666,2.7781252"
       orientation="0,1"
       id="guide961"
       inkscape:locked="false" />
    <sodipodi:guide
       position="3.571875,2.7781252"
       orientation="1,0"
       id="guide965"
       inkscape:locked="false" />
    <sodipodi:guide
       position="3.4395833,0.92604173"
       orientation="0,1"
       id="guide967"
       inkscape:locked="false" />
  </sodipodi:namedview>
  <metadata
     id="metadata5">
    <rdf:RDF>
      <cc:Work
         rdf:about="">
        <dc:format>image/svg+xml</dc:format>
        <dc:type
           rdf:resource="http://purl.org/dc/dcmitype/StillImage" />
        <dc:title></dc:title>
      </cc:Work>
    </rdf:RDF>
  </metadata>
  <g
     inkscape:label="Capa 1"
     inkscape:groupmode="layer"
     id="layer1"
     transform="translate(0,-292.76665)">
    <path
       style="opacity:1;fill:#0062fd;fill-opacity:1;stroke:none;stroke-width:0;stroke-linecap:round;stroke-linejoin:round;stroke-miterlimit:4;stroke-dasharray:none;stroke-opacity:1"
       d="M 5.96875 2 C 4.9999999 2 4 3 4 4 L 3 4 C 1.9999939 3.9999998 1 5.0000126 1 6 L 1 12 C 1 12.99995 1.9999939 14 3 14 L 13 14 C 14.000006 14 15 12.99995 15 12 L 15 6 C 15 5.0000126 14.000006 3.9999998 13 4 L 12 4 C 12 3 11 2 10 2 L 5.96875 2 z M 6 3 L 10 3 L 10 4 L 6 4 L 6 3 z M 5 5 L 7.9375 5 L 11 5 L 13 5.0058594 C 13.500005 5.0073242 13.996094 5.5000063 13.996094 6 L 13.996094 12 C 13.996094 12.499956 13.500007 13 13 13 L 3 13 C 2.4999939 13 2 12.499956 2 12 L 2 6 C 2 5.5000063 2.4999939 5.0058594 3 5.0058594 L 5 5 z "
       transform="matrix(0.26458333,0,0,0.26458333,0,292.76665)"
       id="rect943" />
    <path
       style="opacity:1;fill:#0062fd;fill-opacity:1;stroke:none;stroke-width:0;stroke-linecap:round;stroke-linejoin:round;stroke-miterlimit:4;stroke-dasharray:none;stroke-opacity:1"
       d="M 8 6 A 3 3 0 0 0 5 9 A 3 3 0 0 0 8 12 A 3 3 0 0 0 11 9 A 3 3 0 0 0 8 6 z M 8.0078125 7 A 2.0078125 2.0078125 0 0 1 10.015625 9.0078125 A 2.0078125 2.0078125 0 0 1 8.0078125 11.015625 A 2.0078125 2.0078125 0 0 1 6 9.0078125 A 2.0078125 2.0078125 0 0 1 8.0078125 7 z "
       transform="matrix(0.26458333,0,0,0.26458333,0,292.76665)"
       id="path1024" />
  </g>
</svg>
