<?xml version="1.0" encoding="UTF-8" standalone="no"?>
<svg
   xmlns:dc="http://purl.org/dc/elements/1.1/"
   xmlns:cc="http://creativecommons.org/ns#"
   xmlns:rdf="http://www.w3.org/1999/02/22-rdf-syntax-ns#"
   xmlns:svg="http://www.w3.org/2000/svg"
   xmlns="http://www.w3.org/2000/svg"
   xmlns:sodipodi="http://sodipodi.sourceforge.net/DTD/sodipodi-0.dtd"
   xmlns:inkscape="http://www.inkscape.org/namespaces/inkscape"
   viewBox="0 0 16 16"
   id="svg2"
   version="1.1"
   inkscape:version="0.92.4 (unknown)"
   sodipodi:docname="document-save-symbolic.svg">
  <metadata
     id="metadata10">
    <rdf:RDF>
      <cc:Work
         rdf:about="">
        <dc:format>image/svg+xml</dc:format>
        <dc:type
           rdf:resource="http://purl.org/dc/dcmitype/StillImage" />
      </cc:Work>
    </rdf:RDF>
  </metadata>
  <sodipodi:namedview
     pagecolor="#ffffff"
     bordercolor="#666666"
     borderopacity="1"
     objecttolerance="10"
     gridtolerance="10"
     guidetolerance="10"
     inkscape:pageopacity="0"
     inkscape:pageshadow="2"
     inkscape:window-width="1920"
     inkscape:window-height="1016"
     id="namedview8"
     showgrid="false"
     inkscape:zoom="20.59375"
     inkscape:cx="3.6783005"
     inkscape:cy="4.1153262"
     inkscape:current-layer="svg2"
     inkscape:window-x="0"
     inkscape:window-y="27"
     inkscape:window-maximized="1" />
  <defs
     id="defs3051">
    <style
       type="text/css"
       id="current-color-scheme">
      .ColorScheme-Text {
        color:#bebebe;
      }
      </style>
  </defs>
  <path
     style="color:#bebebe;fill:#000000;fill-opacity:0.3125;stroke:none"
     d="M 3.6425781 3.1054688 C 3.3657281 3.1050027 3.1398838 3.3286494 3.140625 3.6054688 L 3.1660156 12.673828 C 3.1667569 12.950679 3.3891652 13.173828 3.6660156 13.173828 L 12.455078 13.173828 C 12.731929 13.173828 12.955078 12.950679 12.955078 12.673828 L 12.955078 5.1464844 C 12.955078 5.1464844 12.902618 4.8850211 12.808594 4.7910156 L 11.208984 3.2636719 C 11.11282 3.1718836 10.986495 3.1174113 10.853516 3.1171875 L 3.6425781 3.1054688 z M 3.9785156 3.1445312 L 10.863281 3.1445312 L 10.863281 6.8203125 L 3.9785156 6.8203125 L 3.9785156 3.1445312 z M 8.15625 3.5 C 8.0699453 3.5 8 3.5800575 8 3.6796875 L 8 6.3203125 C 8 6.4199725 8.0699453 6.5 8.15625 6.5 L 9.34375 6.5 C 9.4300547 6.5 9.5 6.4199725 9.5 6.3203125 L 9.5 3.6796875 C 9.5 3.5800575 9.4300547 3.5 9.34375 3.5 L 8.15625 3.5 z "
     id="path6" />
  <path
     style="color:#bebebe;fill:#000000;fill-opacity:0.68208092;stroke:none"
     d="M 2.5019531 2 C 2.2251027 2 2 2.2251327 2 2.5019531 L 2 13.498047 C 2 13.774898 2.2251027 14 2.5019531 14 L 13.498047 14 C 13.774898 14 14 13.774898 14 13.498047 L 14 4.8300781 C 14 4.6971681 13.94754 4.5686149 13.853516 4.4746094 L 11.523438 2.1464844 C 11.429434 2.0524844 11.302901 2 11.169922 2 L 2.5019531 2 z M 3.6425781 3.1054688 L 10.853516 3.1171875 C 10.986495 3.1174113 11.11282 3.1718836 11.208984 3.2636719 L 12.808594 4.7910156 C 12.902618 4.8850211 12.955078 5.1464844 12.955078 5.1464844 L 12.955078 12.673828 C 12.955078 12.950679 12.731929 13.173828 12.455078 13.173828 L 3.6660156 13.173828 C 3.3891652 13.173828 3.1667569 12.950679 3.1660156 12.673828 L 3.140625 3.6054688 C 3.1398838 3.3286495 3.3657281 3.1050028 3.6425781 3.1054688 z "
     id="path818" />
</svg>
