<?xml version="1.0" encoding="UTF-8" standalone="no"?>
<svg
   width="16"
   height="16"
   version="1.1"
   id="svg831"
   sodipodi:docname="fcitx-chewing-panel.svg"
   inkscape:version="1.1.2 (0a00cf5339, 2022-02-04)"
   xmlns:inkscape="http://www.inkscape.org/namespaces/inkscape"
   xmlns:sodipodi="http://sodipodi.sourceforge.net/DTD/sodipodi-0.dtd"
   xmlns="http://www.w3.org/2000/svg"
   xmlns:svg="http://www.w3.org/2000/svg">
  <sodipodi:namedview
     id="namedview833"
     pagecolor="#ffffff"
     bordercolor="#666666"
     borderopacity="1.0"
     inkscape:pageshadow="2"
     inkscape:pageopacity="0.0"
     inkscape:pagecheckerboard="0"
     showgrid="false"
     inkscape:zoom="40.8125"
     inkscape:cx="7.8774885"
     inkscape:cy="8"
     inkscape:window-width="1920"
     inkscape:window-height="1028"
     inkscape:window-x="0"
     inkscape:window-y="24"
     inkscape:window-maximized="1"
     inkscape:current-layer="svg831" />
  <defs
     id="defs827">
    <style
       id="current-color-scheme"
       type="text/css" />
  </defs>
  <path
     d="M2 0C.892 0 0 .892 0 2v12c0 1.108.892 2 2 2h12c1.108 0 2-.892 2-2V2c0-1.108-.892-2-2-2zm0 2h6v1H6v3h2l-.4-.3S9 3.75 9 2h1c0 .709-.165 1.389-.383 2H11V2h1v2h2v1h-2v2h2v1H9V7h2V5H9.197C8.8 5.79 8.4 6.3 8.4 6.3L8 6v8H2V6h1V3H2zm2 1v3h1V3zm0 4v3H3v1h3v1H3v1h4V7H6v3H5V7zm5 2h5v5H9zm1 1v3h3v-3z"
     fill="currentColor"
     color="#ffffff"
     id="path829"
     style="fill:#202020;fill-opacity:1" />
</svg>
