<?xml version="1.0" encoding="UTF-8" standalone="no"?>
<svg
   width="16"
   height="16"
   version="1.1"
   id="svg7"
   sodipodi:docname="fcitx-sunpinyin-panel.svg"
   inkscape:version="1.1.2 (0a00cf5339, 2022-02-04)"
   xmlns:inkscape="http://www.inkscape.org/namespaces/inkscape"
   xmlns:sodipodi="http://sodipodi.sourceforge.net/DTD/sodipodi-0.dtd"
   xmlns="http://www.w3.org/2000/svg"
   xmlns:svg="http://www.w3.org/2000/svg">
  <sodipodi:namedview
     id="namedview9"
     pagecolor="#ffffff"
     bordercolor="#666666"
     borderopacity="1.0"
     inkscape:pageshadow="2"
     inkscape:pageopacity="0.0"
     inkscape:pagecheckerboard="0"
     showgrid="false"
     inkscape:zoom="40.8125"
     inkscape:cx="7.8774885"
     inkscape:cy="8"
     inkscape:window-width="1920"
     inkscape:window-height="1028"
     inkscape:window-x="0"
     inkscape:window-y="24"
     inkscape:window-maximized="1"
     inkscape:current-layer="svg7" />
  <defs
     id="defs3">
    <style
       id="current-color-scheme"
       type="text/css" />
  </defs>
  <path
     d="M8 0a8 8 0 0 0-8 8 8 8 0 0 0 2 5.277V13h2V9.06l-1.777.89-.446-.9L4 7.94V5H2V4h2V2h1v2h1v1H5v2.44l.777-.39.446.9-.106.05H8V5H7V4h1.375L7.1 2.3l.8-.6 1.5 2-.398.3h1.996l-.398-.3 1.5-2 .8.6L11.625 4H14v1h-2v3h2v1h-2v5h-1V9H8.959c-.096 1.12-.477 2.031-.926 2.811-.62 1.07-1.691 2.054-1.691 2.054l-.684-.728s1.013-.966 1.51-1.826c.401-.7.704-1.411.793-2.311H6v-.94l-1 .5V14H2.719A8 8 0 0 0 8 16a8 8 0 0 0 8-8 8 8 0 0 0-8-8zm1 5v3h2V5H9z"
     fill="currentColor"
     color="#ffffff"
     id="path5"
     style="fill:#202020;fill-opacity:1" />
</svg>
