<?xml version="1.0" encoding="UTF-8" standalone="no"?>
<svg
   width="16"
   height="16"
   version="1.1"
   id="svg7"
   sodipodi:docname="gpm-brightness-lcd-disabled.svg"
   inkscape:version="1.1.2 (0a00cf5339, 2022-02-04)"
   xmlns:inkscape="http://www.inkscape.org/namespaces/inkscape"
   xmlns:sodipodi="http://sodipodi.sourceforge.net/DTD/sodipodi-0.dtd"
   xmlns="http://www.w3.org/2000/svg"
   xmlns:svg="http://www.w3.org/2000/svg">
  <sodipodi:namedview
     id="namedview9"
     pagecolor="#ffffff"
     bordercolor="#666666"
     borderopacity="1.0"
     inkscape:pageshadow="2"
     inkscape:pageopacity="0.0"
     inkscape:pagecheckerboard="0"
     showgrid="false"
     inkscape:zoom="40.8125"
     inkscape:cx="7.8774885"
     inkscape:cy="8"
     inkscape:window-width="1920"
     inkscape:window-height="1028"
     inkscape:window-x="0"
     inkscape:window-y="24"
     inkscape:window-maximized="1"
     inkscape:current-layer="svg7" />
  <defs
     id="defs3">
    <style
       id="current-color-scheme"
       type="text/css" />
  </defs>
  <path
     d="m7.75 2v2.5h0.5v-2.5zm-3.8965 1.5-0.35352 0.35352 1.7676 1.7676 0.35352-0.35352zm8.1465 0-1.7676 1.7676 0.35352 0.35352 1.7676-1.7676zm-4 1.5a3 3 0 0 0-3 3 3 3 0 0 0 3 3 3 3 0 0 0 3-3 3 3 0 0 0-3-3zm0.011719 0.98242a2.0292 2.0292 0 0 1 2.0293 2.0293 2.0292 2.0292 0 0 1-2.0293 2.0293 2.0292 2.0292 0 0 1-2.0293-2.0293 2.0292 2.0292 0 0 1 2.0293-2.0293zm-6.0117 1.7676v0.5h2.5v-0.5zm9.5 0v0.5h2.5v-0.5zm-6.2324 2.6289-1.7676 1.7676 0.35352 0.35352 1.7676-1.7676zm5.4648 0-0.35352 0.35352 1.7676 1.7676 0.35352-0.35352zm-2.9824 1.1211v2.5h0.5v-2.5z"
     fill="#ffffff"
     opacity=".35"
     style="paint-order:fill markers stroke;fill:#202020;fill-opacity:1"
     id="path5" />
</svg>
