<?xml version="1.0" encoding="UTF-8" standalone="no"?>
<svg
   width="16"
   height="16"
   version="1.1"
   id="svg9"
   sodipodi:docname="mintupdate-updates-available.svg"
   inkscape:version="1.1.2 (0a00cf5339, 2022-02-04)"
   xmlns:inkscape="http://www.inkscape.org/namespaces/inkscape"
   xmlns:sodipodi="http://sodipodi.sourceforge.net/DTD/sodipodi-0.dtd"
   xmlns="http://www.w3.org/2000/svg"
   xmlns:svg="http://www.w3.org/2000/svg">
  <sodipodi:namedview
     id="namedview11"
     pagecolor="#ffffff"
     bordercolor="#666666"
     borderopacity="1.0"
     inkscape:pageshadow="2"
     inkscape:pageopacity="0.0"
     inkscape:pagecheckerboard="0"
     showgrid="false"
     inkscape:zoom="40.8125"
     inkscape:cx="7.8774885"
     inkscape:cy="8"
     inkscape:window-width="1920"
     inkscape:window-height="1028"
     inkscape:window-x="0"
     inkscape:window-y="24"
     inkscape:window-maximized="1"
     inkscape:current-layer="svg9" />
  <defs
     id="defs3">
    <style
       id="current-color-scheme"
       type="text/css">
   .ColorScheme-Text { color:#ffffff; } .ColorScheme-Highlight { color:#5294e2; }
  </style>
  </defs>
  <path
     style="fill:#202020;fill-opacity:1"
     class="ColorScheme-Text"
     d="m8 1a7 7 0 0 0-7 7 7 7 0 0 0 7 7 7 7 0 0 0 4.0117-1.2676 2.5 2.5 0 0 1-0.011719-0.23242 2.5 2.5 0 0 1 2.3145-2.4922 7 7 0 0 0 0.68555-3.0078 7 7 0 0 0-7-7zm-1 3h2v2h-2v-2zm0 3h2v5h-2v-5z"
     id="path5" />
  <circle
     cx="14.5"
     cy="13.5"
     r="1.5"
     style="fill:currentColor"
     class="ColorScheme-Highlight"
     id="circle7" />
</svg>
