<?xml version="1.0" encoding="UTF-8" standalone="no"?>
<svg
   height="16.001"
   width="16"
   version="1.1"
   id="svg8"
   sodipodi:docname="network-cellular-signal-low.svg"
   inkscape:version="1.1.2 (0a00cf5339, 2022-02-04)"
   xmlns:inkscape="http://www.inkscape.org/namespaces/inkscape"
   xmlns:sodipodi="http://sodipodi.sourceforge.net/DTD/sodipodi-0.dtd"
   xmlns="http://www.w3.org/2000/svg"
   xmlns:svg="http://www.w3.org/2000/svg">
  <defs
     id="defs12" />
  <sodipodi:namedview
     id="namedview10"
     pagecolor="#ffffff"
     bordercolor="#666666"
     borderopacity="1.0"
     inkscape:pageshadow="2"
     inkscape:pageopacity="0.0"
     inkscape:pagecheckerboard="0"
     showgrid="false"
     inkscape:zoom="40.809951"
     inkscape:cx="7.8779806"
     inkscape:cy="8.0004997"
     inkscape:window-width="1920"
     inkscape:window-height="1028"
     inkscape:window-x="0"
     inkscape:window-y="24"
     inkscape:window-maximized="1"
     inkscape:current-layer="svg8" />
  <g
     color="#ffffff"
     fill="#ffffff"
     id="g6">
    <path
       d="M13.5 0c-.277 0-.5.223-.5.5v14c0 .277.223.5.5.5h1c.277 0 .5-.223.5-.5V.5c0-.277-.223-.5-.5-.5h-1zm-3 3c-.277 0-.5.223-.5.5v11c0 .277.223.5.5.5h1c.277 0 .5-.223.5-.5v-11c0-.277-.223-.5-.5-.5h-1zm-3 3c-.277 0-.5.223-.5.5v8c0 .277.223.5.5.5h1c.277 0 .5-.223.5-.5v-8c0-.277-.223-.5-.5-.5h-1zm-3 3c-.277 0-.5.223-.5.5v5c0 .277.223.5.5.5h1c.277 0 .5-.223.5-.5v-5c0-.277-.223-.5-.5-.5h-1z"
       style="marker:none;fill:#202020;fill-opacity:1"
       overflow="visible"
       opacity=".35"
       id="path2" />
    <path
       d="M1.5 12h1c.277 0 .5.224.5.5v2c0 .278-.223.5-.5.5h-1a.499.499 0 0 1-.5-.5v-2c0-.276.223-.5.5-.5z"
       style="marker:none;fill:#202020;fill-opacity:1"
       overflow="visible"
       id="path4" />
  </g>
</svg>
