<?xml version="1.0" encoding="UTF-8" standalone="no"?>
<svg
   xmlns:dc="http://purl.org/dc/elements/1.1/"
   xmlns:cc="http://creativecommons.org/ns#"
   xmlns:rdf="http://www.w3.org/1999/02/22-rdf-syntax-ns#"
   xmlns:svg="http://www.w3.org/2000/svg"
   xmlns="http://www.w3.org/2000/svg"
   xmlns:sodipodi="http://sodipodi.sourceforge.net/DTD/sodipodi-0.dtd"
   xmlns:inkscape="http://www.inkscape.org/namespaces/inkscape"
   width="16"
   viewBox="0 0 16 16"
   version="1.1"
   height="16"
   id="svg4"
   sodipodi:docname="logo.svg"
   inkscape:version="1.0.1 (3bc2e813f5, 2020-09-07)">
  <metadata
     id="metadata10">
    <rdf:RDF>
      <cc:Work
         rdf:about="">
        <dc:format>image/svg+xml</dc:format>
        <dc:type
           rdf:resource="http://purl.org/dc/dcmitype/StillImage" />
        <dc:title />
      </cc:Work>
    </rdf:RDF>
  </metadata>
  <defs
     id="defs8" />
  <sodipodi:namedview
     pagecolor="#ffffff"
     bordercolor="#666666"
     borderopacity="1"
     objecttolerance="10"
     gridtolerance="10"
     guidetolerance="10"
     inkscape:pageopacity="0"
     inkscape:pageshadow="2"
     inkscape:window-width="1920"
     inkscape:window-height="1031"
     id="namedview6"
     showgrid="false"
     inkscape:pagecheckerboard="true"
     inkscape:zoom="15.706089"
     inkscape:cx="8.2781651"
     inkscape:cy="6.4317475"
     inkscape:window-x="0"
     inkscape:window-y="24"
     inkscape:window-maximized="1"
     inkscape:current-layer="svg4"
     inkscape:document-rotation="0" />
  <path
     d="m 12.634517,11.12499 c -0.175352,0.405099 -0.382912,0.777992 -0.623394,1.120822 -0.327803,0.467367 -0.596198,0.790875 -0.803044,0.970522 -0.320643,0.294877 -0.664192,0.445895 -1.032073,0.454483 -0.2641017,0 -0.5825979,-0.07515 -0.9533434,-0.2276 -0.3719617,-0.151733 -0.7137915,-0.226883 -1.0263473,-0.226883 -0.3278021,0 -0.6793651,0.07515 -1.0554066,0.226883 C 6.764295,13.595666 6.4608996,13.675113 6.2289338,13.682984 5.8761537,13.698019 5.5245189,13.542703 5.173528,13.216334 4.9495064,13.02094 4.6693006,12.685982 4.3336266,12.211458 3.9734742,11.704725 3.6773796,11.117116 3.4454133,10.447199 3.196986,9.7236034 3.07245,9.0229086 3.07245,8.3445473 3.07245,7.5674851 3.2403588,6.8972816 3.5766773,6.3356529 3.8409939,5.8845326 4.1926287,5.5286754 4.6327274,5.2674359 5.0728256,5.0061972 5.5483524,4.8730718 6.0604526,4.8645557 c 0.2802057,0 0.6476583,0.086672 1.1042895,0.2570157 0.4553438,0.1709149 0.7477166,0.2575891 0.8759031,0.2575891 0.095835,0 0.4206301,-0.1013469 0.9712355,-0.3033951 0.5206901,-0.1873764 0.960144,-0.2649611 1.3201523,-0.2343994 0.975533,0.078734 1.708433,0.4632877 2.195842,1.1561083 -0.872469,0.5286329 -1.30405,1.269049 -1.295461,2.2188861 0.0079,0.7398436 0.276269,1.355509 0.803758,1.8443466 0.239051,0.226885 0.506015,0.402239 0.803041,0.526773 -0.06441,0.186805 -0.132408,0.365736 -0.204696,0.53751 z M 10.397164,2.3208743 c 0,0.5798864 -0.211854,1.1213235 -0.6341299,1.6224733 C 9.253439,4.539116 8.6370568,4.8833793 7.968643,4.8290555 7.960124,4.7594884 7.9551816,4.6862688 7.9551816,4.6093278 c 0,-0.556689 0.2423439,-1.1524577 0.6727088,-1.6395791 C 8.8427502,2.723111 9.1160129,2.5180348 9.4473929,2.3544417 9.7780571,2.193289 10.090829,2.104167 10.384991,2.0889085 c 0.0086,0.077519 0.01217,0.1550466 0.01217,0.2319584 z"
     id="path2"
     style="fill:#f5f5f5;fill-opacity:1;stroke-width:0.0715722"
     inkscape:connector-curvature="0" />
</svg>
