<?xml version="1.0" encoding="UTF-8" standalone="no"?>
<svg
   xmlns:dc="http://purl.org/dc/elements/1.1/"
   xmlns:cc="http://creativecommons.org/ns#"
   xmlns:rdf="http://www.w3.org/1999/02/22-rdf-syntax-ns#"
   xmlns:svg="http://www.w3.org/2000/svg"
   xmlns="http://www.w3.org/2000/svg"
   xmlns:sodipodi="http://sodipodi.sourceforge.net/DTD/sodipodi-0.dtd"
   xmlns:inkscape="http://www.inkscape.org/namespaces/inkscape"
   width="16"
   height="16"
   version="1.1"
   id="svg9"
   sodipodi:docname="weather-storm.svg"
   inkscape:version="0.92.5 (2060ec1f9f, 2020-04-08)">
  <metadata
     id="metadata13">
    <rdf:RDF>
      <cc:Work
         rdf:about="">
        <dc:format>image/svg+xml</dc:format>
        <dc:type
           rdf:resource="http://purl.org/dc/dcmitype/StillImage" />
        <dc:title></dc:title>
      </cc:Work>
    </rdf:RDF>
  </metadata>
  <sodipodi:namedview
     pagecolor="#ffffff"
     bordercolor="#666666"
     borderopacity="1"
     objecttolerance="10"
     gridtolerance="10"
     guidetolerance="10"
     inkscape:pageopacity="0"
     inkscape:pageshadow="2"
     inkscape:window-width="1920"
     inkscape:window-height="1019"
     id="namedview11"
     showgrid="false"
     inkscape:zoom="14.75"
     inkscape:cx="1.0847458"
     inkscape:cy="8"
     inkscape:window-x="0"
     inkscape:window-y="30"
     inkscape:window-maximized="1"
     inkscape:current-layer="svg9" />
  <defs
     id="defs3">
    <style
       id="current-color-scheme"
       type="text/css">
   .ColorScheme-Text { color:#363636; } .ColorScheme-Highlight { color:#5294e2; }
  </style>
  </defs>
  <path
     d="m8 2c-1.8364 0-3.3667 1.2018-3.9375 2.8438-1.7231 0.21836-3.0625 1.6745-3.0625 3.457 0 1.933 1.567 3.5 3.5 3.5h0.91602l1.3555-3.252 0.25586-0.61523h4.1934l-1.2715 2.5449h1.3242l-0.70898 1.3223h1.6348c1.5464 0 2.8008-1.2544 2.8008-2.8008s-1.2544-2.8008-2.8008-2.8008c0-2.3195-1.8797-4.1992-4.1992-4.1992z"
     style="fill:#f5f5f5;fill-opacity:1"
     class="ColorScheme-Text"
     id="path5" />
  <path
     d="m7.694 8.9334h1.9092l-1.2728 2.5455h1.2728l-2.3865 4.4547 0.4773-3.1819h-1.5909z"
     style="fill:#f5f5f5;fill-opacity:1"
     class="ColorScheme-Text"
     id="path7" />
</svg>
