<?xml version="1.0" encoding="UTF-8" standalone="no"?>
<svg
   xmlns:dc="http://purl.org/dc/elements/1.1/"
   xmlns:cc="http://creativecommons.org/ns#"
   xmlns:rdf="http://www.w3.org/1999/02/22-rdf-syntax-ns#"
   xmlns:svg="http://www.w3.org/2000/svg"
   xmlns="http://www.w3.org/2000/svg"
   xmlns:sodipodi="http://sodipodi.sourceforge.net/DTD/sodipodi-0.dtd"
   xmlns:inkscape="http://www.inkscape.org/namespaces/inkscape"
   width="16"
   height="16"
   version="1.1"
   id="svg13"
   sodipodi:docname="weather-cloudy.svg"
   inkscape:version="0.92.5 (2060ec1f9f, 2020-04-08)">
  <metadata
     id="metadata17">
    <rdf:RDF>
      <cc:Work
         rdf:about="">
        <dc:format>image/svg+xml</dc:format>
        <dc:type
           rdf:resource="http://purl.org/dc/dcmitype/StillImage" />
        <dc:title></dc:title>
      </cc:Work>
    </rdf:RDF>
  </metadata>
  <sodipodi:namedview
     pagecolor="#ffffff"
     bordercolor="#666666"
     borderopacity="1"
     objecttolerance="10"
     gridtolerance="10"
     guidetolerance="10"
     inkscape:pageopacity="0"
     inkscape:pageshadow="2"
     inkscape:window-width="793"
     inkscape:window-height="480"
     id="namedview15"
     showgrid="false"
     inkscape:zoom="14.75"
     inkscape:cx="8"
     inkscape:cy="8"
     inkscape:window-x="0"
     inkscape:window-y="30"
     inkscape:window-maximized="0"
     inkscape:current-layer="svg13" />
  <defs
     id="defs3">
    <style
       id="current-color-scheme"
       type="text/css">
   .ColorScheme-Text { color:#363636; } .ColorScheme-Highlight { color:#5294e2; }
  </style>
  </defs>
  <g
     transform="matrix(-.5 0 0 .5 594.48 -45.334)"
     opacity=".5"
     style="fill:#f5f5f5;fill-opacity:1"
     class="ColorScheme-Text"
     id="g7">
    <path
       d="m1181.6 94.668c-2.158 2e-3 -3.992 1.331-4.868 3.232l-0.061 0.13-0.139 0.01c-1.994 0.144-3.572 1.87-3.572 3.968 0 2.193 1.716 3.992 3.838 3.992h9.284c1.592 0 2.878-1.35 2.878-2.988 0-1.1921-0.7072-2.2703-1.805-2.735l-0.137-0.058-0.01-0.149c-0.135-2.993-2.487-5.4-5.404-5.402z"
       id="path5"
       style="fill:#f5f5f5;fill-opacity:1" />
  </g>
  <g
     transform="matrix(.875 0 0 .875 -1024.3 -79.834)"
     style="fill:#f5f5f5;fill-opacity:1"
     class="ColorScheme-Text"
     id="g11">
    <path
       d="m1181.6 94.668c-2.158 2e-3 -3.992 1.331-4.868 3.232l-0.061 0.13-0.139 0.01c-1.994 0.144-3.572 1.87-3.572 3.968 0 2.193 1.716 3.992 3.838 3.992h9.284c1.592 0 2.878-1.35 2.878-2.988 0-1.1921-0.7072-2.2703-1.805-2.735l-0.137-0.058-0.01-0.149c-0.135-2.993-2.487-5.4-5.404-5.402z"
       id="path9"
       style="fill:#f5f5f5;fill-opacity:1" />
  </g>
</svg>
