<?xml version="1.0" encoding="UTF-8" standalone="no"?>
<svg
   id="svg7384"
   style="enable-background:new"
   height="22"
   width="22"
   version="1.1"
   inkscape:version="1.1.2 (0a00cf5339, 2022-02-04)"
   sodipodi:docname="notifications-disabled.svg"
   xmlns:inkscape="http://www.inkscape.org/namespaces/inkscape"
   xmlns:sodipodi="http://sodipodi.sourceforge.net/DTD/sodipodi-0.dtd"
   xmlns:xlink="http://www.w3.org/1999/xlink"
   xmlns="http://www.w3.org/2000/svg"
   xmlns:svg="http://www.w3.org/2000/svg"
   xmlns:rdf="http://www.w3.org/1999/02/22-rdf-syntax-ns#"
   xmlns:cc="http://creativecommons.org/ns#"
   xmlns:dc="http://purl.org/dc/elements/1.1/">
  <sodipodi:namedview
     pagecolor="#ffffff"
     bordercolor="#666666"
     borderopacity="1"
     objecttolerance="10"
     gridtolerance="10"
     guidetolerance="10"
     inkscape:pageopacity="0"
     inkscape:pageshadow="2"
     inkscape:window-width="1920"
     inkscape:window-height="1026"
     id="namedview10"
     showgrid="true"
     inkscape:zoom="14.75"
     inkscape:cx="22.338983"
     inkscape:cy="12.101695"
     inkscape:window-x="0"
     inkscape:window-y="28"
     inkscape:window-maximized="1"
     inkscape:current-layer="svg7384"
     showguides="true"
     inkscape:guide-bbox="true"
     inkscape:document-rotation="0"
     inkscape:pagecheckerboard="0">
    <inkscape:grid
       type="xygrid"
       id="grid836" />
  </sodipodi:namedview>
  <metadata
     id="metadata90">
    <rdf:RDF>
      <cc:Work
         rdf:about="">
        <dc:format>image/svg+xml</dc:format>
        <dc:type
           rdf:resource="http://purl.org/dc/dcmitype/StillImage" />
        <dc:title>Paper Symbolic Icon Theme</dc:title>
      </cc:Work>
    </rdf:RDF>
  </metadata>
  <title
     id="title8473">Paper Symbolic Icon Theme</title>
  <defs
     id="defs7386">
    <filter
       id="filter7554"
       style="color-interpolation-filters:sRGB">
      <feBlend
         id="feBlend7556"
         in2="BackgroundImage"
         mode="darken" />
    </filter>
    <linearGradient
       gradientTransform="translate(-1,-2)"
       gradientUnits="userSpaceOnUse"
       xlink:href="#linearGradient3678"
       id="linearGradient2868"
       y2="19"
       x2="8.9254236"
       y1="5.9997859"
       x1="8.9254236" />
    <linearGradient
       id="linearGradient3678">
      <stop
         offset="0"
         style="stop-color:#ffffff;stop-opacity:1"
         id="stop3680" />
      <stop
         offset="1"
         style="stop-color:#e6e6e6;stop-opacity:1"
         id="stop3682" />
    </linearGradient>
    <linearGradient
       gradientTransform="translate(-2,-1)"
       gradientUnits="userSpaceOnUse"
       xlink:href="#linearGradient3678"
       id="linearGradient2393"
       y2="21"
       x2="9"
       y1="3"
       x1="9" />
    <linearGradient
       x1="14"
       y1="3"
       x2="14"
       y2="21"
       id="linearGradient2398"
       xlink:href="#linearGradient3587-6-5-3"
       gradientUnits="userSpaceOnUse"
       gradientTransform="translate(-1.0001235,-5)" />
    <linearGradient
       id="linearGradient3587-6-5-3">
      <stop
         id="stop3589-9-2-0"
         style="stop-color:#f5f5f5;stop-opacity:1"
         offset="0" />
      <stop
         id="stop3591-7-4-7"
         style="stop-color:#363636;stop-opacity:1"
         offset="1" />
    </linearGradient>
    <linearGradient
       x1="66.09668"
       y1="9.3638258"
       x2="66.09668"
       y2="27.363825"
       id="linearGradient2395"
       xlink:href="#linearGradient3587-6-5-3"
       gradientUnits="userSpaceOnUse"
       gradientTransform="translate(-52.096803,-11.363826)" />
    <linearGradient
       x1="4.9554448"
       y1="2.6841583"
       x2="4.9554448"
       y2="13.496136"
       id="linearGradient7390"
       xlink:href="#linearGradient3587-6-5-3"
       gradientUnits="userSpaceOnUse" />
    <linearGradient
       x1="7.9109159"
       y1="4.5762329"
       x2="7.9109159"
       y2="11.649005"
       id="linearGradient7392"
       xlink:href="#linearGradient3587-6-5-3"
       gradientUnits="userSpaceOnUse" />
    <linearGradient
       x1="10.186814"
       y1="2.7742527"
       x2="10.186814"
       y2="13.317288"
       id="linearGradient7394"
       xlink:href="#linearGradient3587-6-5-3"
       gradientUnits="userSpaceOnUse" />
    <linearGradient
       x1="13.917011"
       y1="0.88217813"
       x2="13.917011"
       y2="15.183488"
       id="linearGradient7396"
       xlink:href="#linearGradient3587-6-5-3"
       gradientUnits="userSpaceOnUse" />
    <linearGradient
       id="linearGradient5263">
      <stop
         id="stop5265"
         style="stop-color:#a0d5ff;stop-opacity:1"
         offset="0" />
      <stop
         id="stop5267"
         style="stop-color:#a0d5ff;stop-opacity:1"
         offset="1" />
    </linearGradient>
  </defs>
  <g
     id="notification-disabled"
     transform="matrix(0.81481497,0,0,0.81481497,-2.8424495,-67.024035)">
    <rect
       width="32"
       height="32"
       ry="0"
       opacity="0"
       id="rect334-6-6"
       x="0"
       y="80"
       style="color:#363636;fill:#363636;stroke-width:1.45455" />
    <path
       id="rect394-7-7"
       style="fill:currentColor;fill-opacity:1"
       class="ColorScheme-Text"
       d="m -44.736328,120.94922 c -0.244969,0 -0.490029,0.0935 -0.677734,0.28125 -0.375418,0.37542 -0.375416,0.98005 0,1.35547 l 17.736328,17.73633 c 0.375415,0.37541 0.980051,0.37541 1.355468,0 0.37541,-0.37541 0.375415,-0.98006 0,-1.35547 l -17.736328,-17.73633 c -0.187707,-0.18771 -0.432766,-0.28125 -0.677734,-0.28125 z m 7.007812,0.74219 c -0.778089,-1.5e-4 -1.40835,0.63011 -1.408203,1.4082 v 0.0137 c -0.41083,0.1062 -0.798471,0.26533 -1.164062,0.46094 l 8.453125,8.45312 c -0.241803,-1.73901 -0.244141,-3.29492 -0.244141,-3.29492 -0.0028,-2.56624 -1.740602,-4.97687 -4.226562,-5.61914 v -0.0137 c 1.48e-4,-0.77808 -0.63207,-1.40835 -1.410157,-1.4082 z M -42.912109,126.5 c -0.289216,0.70107 -0.450323,1.45892 -0.451172,2.23242 0,0 0.0021,7.04385 -2.335938,7.91992 -0.02253,0.0139 -0.03269,0.0403 -0.05664,0.0586 -0.08845,0.0692 -0.165225,0.15392 -0.226563,0.24804 -0.02535,0.038 -0.05449,0.0666 -0.07422,0.10743 -0.07687,0.14506 -0.118526,0.30654 -0.121093,0.4707 0,0.58451 0.472123,1.05664 1.05664,1.05664 h 14.302735 z m 2.46289,13.5 c 0.3205,1.24206 1.437973,2.1109 2.720703,2.11328 C -36.443871,142.11324 -35.32098,141.2439 -35,140 Z"
       transform="translate(53.755859,-35.65234)" />
  </g>
</svg>
